# SSTK version 0.8.0
# 16
mtllib original-16.mtl
o 3dw.976cf96169945398af7f76800034f73/Model/Safe1/Safe/mesh1/mesh1-geometry/material_3/component_1#mesh1-geometry
v -0.432989 0.340043 0.547346
v -0.449486 0.340043 0.568845
v -0.455246 0.340043 0.547346
v -0.432989 0.340043 0.547346
v -0.432989 0.284400 0.547346
v -0.433747 0.340043 0.553106
v -0.449486 0.340043 0.568845
v -0.455246 0.340043 0.569603
v -0.455246 0.340043 0.547346
v -0.444118 0.340043 0.566621
v -0.449486 0.340043 0.568845
v -0.432989 0.340043 0.547346
v -0.432989 0.284400 0.547346
v -0.432989 0.228757 0.547346
v -0.433747 0.284400 0.553106
v -0.433747 0.284400 0.553106
v -0.433747 0.340043 0.553106
v -0.432989 0.284400 0.547346
v -0.433747 0.340043 0.553106
v -0.435971 0.340043 0.558474
v -0.432989 0.340043 0.547346
v -0.455246 0.340043 0.569603
v -0.461007 0.340043 0.568845
v -0.455246 0.340043 0.547346
v -0.455246 0.340043 0.569603
v -0.449486 0.340043 0.568845
v -0.455246 0.284400 0.569603
v -0.449486 0.340043 0.568845
v -0.444118 0.340043 0.566621
v -0.449486 0.284400 0.568845
v -0.444033 0.340043 0.566556
v -0.444118 0.340043 0.566621
v -0.432989 0.340043 0.547346
v -0.432989 0.228757 0.547346
v -0.455246 0.228757 0.547346
v -0.455246 0.228757 0.569603
v -0.433747 0.228757 0.553106
v -0.433747 0.284400 0.553106
v -0.432989 0.228757 0.547346
v -0.433747 0.340043 0.553106
v -0.433747 0.284400 0.553106
v -0.435971 0.340043 0.558474
v -0.435971 0.340043 0.558474
v -0.439508 0.340043 0.563084
v -0.432989 0.340043 0.547346
v -0.461007 0.340043 0.568845
v -0.466375 0.340043 0.566621
v -0.455246 0.340043 0.547346
v -0.461007 0.340043 0.568845
v -0.455246 0.340043 0.569603
v -0.461007 0.284400 0.568845
v -0.449486 0.284400 0.568845
v -0.455246 0.284400 0.569603
v -0.449486 0.340043 0.568845
v -0.455246 0.284400 0.569603
v -0.461007 0.284400 0.568845
v -0.455246 0.340043 0.569603
v -0.444118 0.284400 0.566621
v -0.449486 0.284400 0.568845
v -0.444118 0.340043 0.566621
v -0.444118 0.340043 0.566621
v -0.444033 0.340043 0.566556
v -0.444118 0.284400 0.566621
v -0.439508 0.340043 0.563084
v -0.444033 0.340043 0.566556
v -0.432989 0.340043 0.547346
v -0.455246 0.228757 0.569603
v -0.455246 0.228757 0.547346
v -0.461007 0.228757 0.568845
v -0.449486 0.228757 0.568845
v -0.432989 0.228757 0.547346
v -0.455246 0.228757 0.569603
v -0.433747 0.284400 0.553106
v -0.433747 0.228757 0.553106
v -0.435971 0.284400 0.558474
v -0.433747 0.228757 0.553106
v -0.432989 0.228757 0.547346
v -0.435971 0.228757 0.558474
v -0.435971 0.284400 0.558474
v -0.435971 0.340043 0.558474
v -0.433747 0.284400 0.553106
v -0.435971 0.340043 0.558474
v -0.435971 0.284400 0.558474
v -0.439508 0.340043 0.563084
v -0.466375 0.340043 0.566621
v -0.470984 0.340043 0.563084
v -0.455246 0.340043 0.547346
v -0.466375 0.340043 0.566621
v -0.461007 0.340043 0.568845
v -0.466375 0.284400 0.566621
v -0.461007 0.284400 0.568845
v -0.466375 0.284400 0.566621
v -0.461007 0.340043 0.568845
v -0.455246 0.284400 0.569603
v -0.449486 0.284400 0.568845
v -0.455246 0.228757 0.569603
v -0.461007 0.284400 0.568845
v -0.455246 0.284400 0.569603
v -0.461007 0.228757 0.568845
v -0.449486 0.284400 0.568845
v -0.444118 0.284400 0.566621
v -0.449486 0.228757 0.568845
v -0.444033 0.284400 0.566556
v -0.444118 0.284400 0.566621
v -0.444033 0.340043 0.566556
v -0.444033 0.340043 0.566556
v -0.439508 0.340043 0.563084
v -0.444033 0.284400 0.566556
v -0.461007 0.228757 0.568845
v -0.455246 0.228757 0.547346
v -0.466375 0.228757 0.566621
v -0.455246 0.228757 0.569603
v -0.461007 0.228757 0.568845
v -0.455246 0.284400 0.569603
v -0.444118 0.228757 0.566621
v -0.432989 0.228757 0.547346
v -0.449486 0.228757 0.568845
v -0.449486 0.228757 0.568845
v -0.455246 0.228757 0.569603
v -0.449486 0.284400 0.568845
v -0.435971 0.228757 0.558474
v -0.435971 0.284400 0.558474
v -0.433747 0.228757 0.553106
v -0.435971 0.228757 0.558474
v -0.432989 0.228757 0.547346
v -0.439508 0.228757 0.563084
v -0.439508 0.284400 0.563084
v -0.439508 0.340043 0.563084
v -0.435971 0.284400 0.558474
v -0.470984 0.340043 0.563084
v -0.474522 0.340043 0.558474
v -0.455246 0.340043 0.547346
v -0.470984 0.340043 0.563084
v -0.466375 0.340043 0.566621
v -0.470984 0.284400 0.563084
v -0.466375 0.284400 0.566621
v -0.470984 0.284400 0.563084
v -0.466375 0.340043 0.566621
v -0.466375 0.284400 0.566621
v -0.461007 0.284400 0.568845
v -0.466375 0.228757 0.566621
v -0.461007 0.228757 0.568845
v -0.466375 0.228757 0.566621
v -0.461007 0.284400 0.568845
v -0.444118 0.228757 0.566621
v -0.449486 0.228757 0.568845
v -0.444118 0.284400 0.566621
v -0.444118 0.284400 0.566621
v -0.444033 0.284400 0.566556
v -0.444118 0.228757 0.566621
v -0.439508 0.284400 0.563084
v -0.444033 0.284400 0.566556
v -0.439508 0.340043 0.563084
v -0.466375 0.228757 0.566621
v -0.455246 0.228757 0.547346
v -0.470984 0.228757 0.563084
v -0.444033 0.228757 0.566556
v -0.432989 0.228757 0.547346
v -0.444118 0.228757 0.566621
v -0.435971 0.284400 0.558474
v -0.435971 0.228757 0.558474
v -0.439508 0.284400 0.563084
v -0.439508 0.228757 0.563084
v -0.432989 0.228757 0.547346
v -0.444033 0.228757 0.566556
v -0.439508 0.228757 0.563084
v -0.439508 0.284400 0.563084
v -0.435971 0.228757 0.558474
v -0.474522 0.340043 0.558474
v -0.476745 0.340043 0.553106
v -0.455246 0.340043 0.547346
v -0.470984 0.340043 0.563084
v -0.470984 0.284400 0.563084
v -0.474522 0.340043 0.558474
v -0.470984 0.284400 0.563084
v -0.466375 0.284400 0.566621
v -0.470984 0.228757 0.563084
v -0.466375 0.228757 0.566621
v -0.470984 0.228757 0.563084
v -0.466375 0.284400 0.566621
v -0.444033 0.228757 0.566556
v -0.444118 0.228757 0.566621
v -0.444033 0.284400 0.566556
v -0.444033 0.284400 0.566556
v -0.439508 0.284400 0.563084
v -0.444033 0.228757 0.566556
v -0.470984 0.228757 0.563084
v -0.455246 0.228757 0.547346
v -0.474522 0.228757 0.558474
v -0.439508 0.228757 0.563084
v -0.444033 0.228757 0.566556
v -0.439508 0.284400 0.563084
v -0.477503 0.340043 0.547346
v -0.455246 0.340043 0.547346
v -0.476745 0.340043 0.553106
v -0.474522 0.340043 0.558474
v -0.474522 0.284400 0.558474
v -0.476745 0.340043 0.553106
v -0.474522 0.284400 0.558474
v -0.474522 0.340043 0.558474
v -0.470984 0.284400 0.563084
v -0.470984 0.284400 0.563084
v -0.470984 0.228757 0.563084
v -0.474522 0.284400 0.558474
v -0.474522 0.228757 0.558474
v -0.455246 0.228757 0.547346
v -0.476745 0.228757 0.553106
v -0.474522 0.228757 0.558474
v -0.474522 0.284400 0.558474
v -0.470984 0.228757 0.563084
v -0.476745 0.340043 0.553106
v -0.476745 0.284400 0.553106
v -0.477503 0.340043 0.547346
v -0.476745 0.284400 0.553106
v -0.476745 0.340043 0.553106
v -0.474522 0.284400 0.558474
v -0.477503 0.284400 0.547346
v -0.477503 0.340043 0.547346
v -0.476745 0.284400 0.553106
v -0.477503 0.228757 0.547346
v -0.476745 0.228757 0.553106
v -0.455246 0.228757 0.547346
v -0.476745 0.228757 0.553106
v -0.476745 0.284400 0.553106
v -0.474522 0.228757 0.558474
v -0.474522 0.284400 0.558474
v -0.474522 0.228757 0.558474
v -0.476745 0.284400 0.553106
v -0.477503 0.228757 0.547346
v -0.477503 0.284400 0.547346
v -0.476745 0.228757 0.553106
v -0.476745 0.284400 0.553106
v -0.476745 0.228757 0.553106
v -0.477503 0.284400 0.547346
v -0.455246 0.340043 0.547346
v -0.449486 0.340043 0.568845
v -0.432989 0.340043 0.547346
v -0.433747 0.340043 0.553106
v -0.432989 0.284400 0.547346
v -0.432989 0.340043 0.547346
v -0.455246 0.340043 0.547346
v -0.455246 0.340043 0.569603
v -0.449486 0.340043 0.568845
v -0.432989 0.340043 0.547346
v -0.449486 0.340043 0.568845
v -0.444118 0.340043 0.566621
v -0.433747 0.284400 0.553106
v -0.432989 0.228757 0.547346
v -0.432989 0.284400 0.547346
v -0.432989 0.284400 0.547346
v -0.433747 0.340043 0.553106
v -0.433747 0.284400 0.553106
v -0.432989 0.340043 0.547346
v -0.435971 0.340043 0.558474
v -0.433747 0.340043 0.553106
v -0.455246 0.340043 0.547346
v -0.461007 0.340043 0.568845
v -0.455246 0.340043 0.569603
v -0.455246 0.284400 0.569603
v -0.449486 0.340043 0.568845
v -0.455246 0.340043 0.569603
v -0.449486 0.284400 0.568845
v -0.444118 0.340043 0.566621
v -0.449486 0.340043 0.568845
v -0.432989 0.340043 0.547346
v -0.444118 0.340043 0.566621
v -0.444033 0.340043 0.566556
v -0.455246 0.228757 0.569603
v -0.455246 0.228757 0.547346
v -0.432989 0.228757 0.547346
v -0.432989 0.228757 0.547346
v -0.433747 0.284400 0.553106
v -0.433747 0.228757 0.553106
v -0.435971 0.340043 0.558474
v -0.433747 0.284400 0.553106
v -0.433747 0.340043 0.553106
v -0.432989 0.340043 0.547346
v -0.439508 0.340043 0.563084
v -0.435971 0.340043 0.558474
v -0.455246 0.340043 0.547346
v -0.466375 0.340043 0.566621
v -0.461007 0.340043 0.568845
v -0.461007 0.284400 0.568845
v -0.455246 0.340043 0.569603
v -0.461007 0.340043 0.568845
v -0.449486 0.340043 0.568845
v -0.455246 0.284400 0.569603
v -0.449486 0.284400 0.568845
v -0.455246 0.340043 0.569603
v -0.461007 0.284400 0.568845
v -0.455246 0.284400 0.569603
v -0.444118 0.340043 0.566621
v -0.449486 0.284400 0.568845
v -0.444118 0.284400 0.566621
v -0.444118 0.284400 0.566621
v -0.444033 0.340043 0.566556
v -0.444118 0.340043 0.566621
v -0.432989 0.340043 0.547346
v -0.444033 0.340043 0.566556
v -0.439508 0.340043 0.563084
v -0.461007 0.228757 0.568845
v -0.455246 0.228757 0.547346
v -0.455246 0.228757 0.569603
v -0.455246 0.228757 0.569603
v -0.432989 0.228757 0.547346
v -0.449486 0.228757 0.568845
v -0.435971 0.284400 0.558474
v -0.433747 0.228757 0.553106
v -0.433747 0.284400 0.553106
v -0.435971 0.228757 0.558474
v -0.432989 0.228757 0.547346
v -0.433747 0.228757 0.553106
v -0.433747 0.284400 0.553106
v -0.435971 0.340043 0.558474
v -0.435971 0.284400 0.558474
v -0.439508 0.340043 0.563084
v -0.435971 0.284400 0.558474
v -0.435971 0.340043 0.558474
v -0.455246 0.340043 0.547346
v -0.470984 0.340043 0.563084
v -0.466375 0.340043 0.566621
v -0.466375 0.284400 0.566621
v -0.461007 0.340043 0.568845
v -0.466375 0.340043 0.566621
v -0.461007 0.340043 0.568845
v -0.466375 0.284400 0.566621
v -0.461007 0.284400 0.568845
v -0.455246 0.228757 0.569603
v -0.449486 0.284400 0.568845
v -0.455246 0.284400 0.569603
v -0.461007 0.228757 0.568845
v -0.455246 0.284400 0.569603
v -0.461007 0.284400 0.568845
v -0.449486 0.228757 0.568845
v -0.444118 0.284400 0.566621
v -0.449486 0.284400 0.568845
v -0.444033 0.340043 0.566556
v -0.444118 0.284400 0.566621
v -0.444033 0.284400 0.566556
v -0.444033 0.284400 0.566556
v -0.439508 0.340043 0.563084
v -0.444033 0.340043 0.566556
v -0.466375 0.228757 0.566621
v -0.455246 0.228757 0.547346
v -0.461007 0.228757 0.568845
v -0.455246 0.284400 0.569603
v -0.461007 0.228757 0.568845
v -0.455246 0.228757 0.569603
v -0.449486 0.228757 0.568845
v -0.432989 0.228757 0.547346
v -0.444118 0.228757 0.566621
v -0.449486 0.284400 0.568845
v -0.455246 0.228757 0.569603
v -0.449486 0.228757 0.568845
v -0.433747 0.228757 0.553106
v -0.435971 0.284400 0.558474
v -0.435971 0.228757 0.558474
v -0.439508 0.228757 0.563084
v -0.432989 0.228757 0.547346
v -0.435971 0.228757 0.558474
v -0.435971 0.284400 0.558474
v -0.439508 0.340043 0.563084
v -0.439508 0.284400 0.563084
v -0.455246 0.340043 0.547346
v -0.474522 0.340043 0.558474
v -0.470984 0.340043 0.563084
v -0.470984 0.284400 0.563084
v -0.466375 0.340043 0.566621
v -0.470984 0.340043 0.563084
v -0.466375 0.340043 0.566621
v -0.470984 0.284400 0.563084
v -0.466375 0.284400 0.566621
v -0.466375 0.228757 0.566621
v -0.461007 0.284400 0.568845
v -0.466375 0.284400 0.566621
v -0.461007 0.284400 0.568845
v -0.466375 0.228757 0.566621
v -0.461007 0.228757 0.568845
v -0.444118 0.284400 0.566621
v -0.449486 0.228757 0.568845
v -0.444118 0.228757 0.566621
v -0.444118 0.228757 0.566621
v -0.444033 0.284400 0.566556
v -0.444118 0.284400 0.566621
v -0.439508 0.340043 0.563084
v -0.444033 0.284400 0.566556
v -0.439508 0.284400 0.563084
v -0.470984 0.228757 0.563084
v -0.455246 0.228757 0.547346
v -0.466375 0.228757 0.566621
v -0.444118 0.228757 0.566621
v -0.432989 0.228757 0.547346
v -0.444033 0.228757 0.566556
v -0.439508 0.284400 0.563084
v -0.435971 0.228757 0.558474
v -0.435971 0.284400 0.558474
v -0.444033 0.228757 0.566556
v -0.432989 0.228757 0.547346
v -0.439508 0.228757 0.563084
v -0.435971 0.228757 0.558474
v -0.439508 0.284400 0.563084
v -0.439508 0.228757 0.563084
v -0.455246 0.340043 0.547346
v -0.476745 0.340043 0.553106
v -0.474522 0.340043 0.558474
v -0.474522 0.340043 0.558474
v -0.470984 0.284400 0.563084
v -0.470984 0.340043 0.563084
v -0.470984 0.228757 0.563084
v -0.466375 0.284400 0.566621
v -0.470984 0.284400 0.563084
v -0.466375 0.284400 0.566621
v -0.470984 0.228757 0.563084
v -0.466375 0.228757 0.566621
v -0.444033 0.284400 0.566556
v -0.444118 0.228757 0.566621
v -0.444033 0.228757 0.566556
v -0.444033 0.228757 0.566556
v -0.439508 0.284400 0.563084
v -0.444033 0.284400 0.566556
v -0.474522 0.228757 0.558474
v -0.455246 0.228757 0.547346
v -0.470984 0.228757 0.563084
v -0.439508 0.284400 0.563084
v -0.444033 0.228757 0.566556
v -0.439508 0.228757 0.563084
v -0.476745 0.340043 0.553106
v -0.455246 0.340043 0.547346
v -0.477503 0.340043 0.547346
v -0.476745 0.340043 0.553106
v -0.474522 0.284400 0.558474
v -0.474522 0.340043 0.558474
v -0.470984 0.284400 0.563084
v -0.474522 0.340043 0.558474
v -0.474522 0.284400 0.558474
v -0.474522 0.284400 0.558474
v -0.470984 0.228757 0.563084
v -0.470984 0.284400 0.563084
v -0.476745 0.228757 0.553106
v -0.455246 0.228757 0.547346
v -0.474522 0.228757 0.558474
v -0.470984 0.228757 0.563084
v -0.474522 0.284400 0.558474
v -0.474522 0.228757 0.558474
v -0.477503 0.340043 0.547346
v -0.476745 0.284400 0.553106
v -0.476745 0.340043 0.553106
v -0.474522 0.284400 0.558474
v -0.476745 0.340043 0.553106
v -0.476745 0.284400 0.553106
v -0.476745 0.284400 0.553106
v -0.477503 0.340043 0.547346
v -0.477503 0.284400 0.547346
v -0.455246 0.228757 0.547346
v -0.476745 0.228757 0.553106
v -0.477503 0.228757 0.547346
v -0.474522 0.228757 0.558474
v -0.476745 0.284400 0.553106
v -0.476745 0.228757 0.553106
v -0.476745 0.284400 0.553106
v -0.474522 0.228757 0.558474
v -0.474522 0.284400 0.558474
v -0.476745 0.228757 0.553106
v -0.477503 0.284400 0.547346
v -0.477503 0.228757 0.547346
v -0.477503 0.284400 0.547346
v -0.476745 0.228757 0.553106
v -0.476745 0.284400 0.553106
vt 0 0
vt 0.3645380139350891 0
vt 0.3834080100059509 -0.07042299956083298
vt 0.4374450147151947 0
vt 0.038065001368522644 3.2808399200439453
vt 0.05709800124168396 3.0985710620880127
vt 0.05709800124168396 3.2808399200439453
vt 0.3645380139350891 -0.07290799915790558
vt 0.4009920060634613 -0.06313999742269516
vt 0.038065001368522644 3.0985710620880127
vt 0.05709800124168396 2.916301965713501
vt 0.4276779890060425 -0.03645399957895279
vt 0.4349609911441803 -0.018869999796152115
vt 0.3456679880619049 -0.07042299956083298
vt 0.3519029915332794 3.0985710620880127
vt 0.37093499302864075 3.2808399200439453
vt 0.3519029915332794 3.2808399200439453
vt 0.32727301120758057 3.0985710620880127
vt 0.3463050127029419 3.2808399200439453
vt 0.32727301120758057 3.2808399200439453
vt 0.40126800537109375 -0.0629270002245903
vt -0.3645380139350891 -0.07290799915790558
vt -0.3645380139350891 0
vt -0.4374450147151947 0
vt 0.038065001368522644 2.916301965713501
vt 0.1299860030412674 3.2808399200439453
vt 0.1490190029144287 3.0985710620880127
vt 0.1490190029144287 3.2808399200439453
vt 0.4160909950733185 -0.05155299976468086
vt 0.32808399200439453 -0.06313999742269516
vt 0.37093499302864075 3.0985710620880127
vt 0.3463050127029419 3.0985710620880127
vt 0.27969101071357727 3.0985710620880127
vt 0.2800399959087372 3.2808399200439453
vt 0.27969101071357727 3.2808399200439453
vt -0.3456679880619049 -0.07042299956083298
vt -0.3834080100059509 -0.07042299956083298
vt 0.1299860030412674 3.0985710620880127
vt 0.1490190029144287 2.916301965713501
vt -0.4276779890060425 -0.03645399957895279
vt -0.4349609911441803 -0.018869999796152115
vt 0.21240000426769257 3.2808399200439453
vt 0.23143300414085388 3.0985710620880127
vt 0.23143300414085388 3.2808399200439453
vt 0.31298398971557617 -0.05155299976468086
vt 0.3519029915332794 2.916301965713501
vt 0.32727301120758057 2.916301965713501
vt 0.2800399959087372 3.0985710620880127
vt 0.2987239956855774 3.2808399200439453
vt -0.32808399200439453 -0.06313999742269516
vt 0.37093499302864075 2.916301965713501
vt -0.4009920060634613 -0.06313999742269516
vt 0.1299860030412674 2.916301965713501
vt -0.4160909950733185 -0.05155299976468086
vt 0.21240000426769257 3.0985710620880127
vt 0.30139800906181335 -0.03645399957895279
vt 0.2987239956855774 3.0985710620880127
vt 0.3463050127029419 2.916301965713501
vt 0.27969101071357727 2.916301965713501
vt -0.31298398971557617 -0.05155299976468086
vt -0.40126800537109375 -0.0629270002245903
vt 0.23143300414085388 2.916301965713501
vt 0.21240000426769257 2.916301965713501
vt 0.29411399364471436 -0.018869999796152115
vt 0.2987239956855774 2.916301965713501
vt 0.2800399959087372 2.916301965713501
vt -0.30139800906181335 -0.03645399957895279
vt 0.29162999987602234 0
vt -0.29411399364471436 -0.018869999796152115
vt -0.29162999987602234 0
vn 0 -1 0
vn -0.9914448878896857 0 -0.13052599081182487
vn -0.9659258451755841 0 -0.25881897461707376
vn -0.13052599081182487 0 -0.9914448878896857
vn -0.3826829123437868 0 -0.9238797479109917
vn -0.5000001873976233 0 -0.8660252955903432
vn 0 1 0
vn -0.9238797479109917 0 -0.3826829123437868
vn 0.13052599081182487 0 -0.9914448878896857
vn -0.6087613210240593 0 -0.7933534231507685
vn -0.8660252955903432 0 -0.5000001873976233
vn -0.7933534231507685 0 -0.6087613210240593
vn 0.3826829123437868 0 -0.9238797479109917
vn 0 0 -1
vn -0.25881897461707376 0 -0.9659258451755841
vn 0.25881897461707376 0 -0.9659258451755841
vn 0.6087613210240593 0 -0.7933534231507685
vn 0.5000001873976233 0 -0.8660252955903432
vn -0.7071067811865475 0 -0.7071067811865475
vn 0.7933534231507685 0 -0.6087613210240593
vn 0.7071067811865475 0 -0.7071067811865475
vn 0.9238797479109917 0 -0.3826829123437868
vn 0.8660252955903432 0 -0.5000001873976233
vn 0.9914448878896857 0 -0.13052599081182487
vn 0.9659258451755841 0 -0.25881897461707376
vn 0.9914448878896857 0 0.13052599081182487
vn 0.9659258451755841 0 0.25881897461707376
vn 0.13052599081182487 0 0.9914448878896857
vn 0.3826829123437868 0 0.9238797479109917
vn 0.5000001873976233 0 0.8660252955903432
vn 0.9238797479109917 0 0.3826829123437868
vn -0.13052599081182487 0 0.9914448878896857
vn 0.6087613210240593 0 0.7933534231507685
vn 0.8660252955903432 0 0.5000001873976233
vn 0.7933534231507685 0 0.6087613210240593
vn -0.3826829123437868 0 0.9238797479109917
vn 0 0 1
vn 0.25881897461707376 0 0.9659258451755841
vn -0.25881897461707376 0 0.9659258451755841
vn -0.6087613210240593 0 0.7933534231507685
vn -0.5000001873976233 0 0.8660252955903432
vn 0.7071067811865475 0 0.7071067811865475
vn -0.7933534231507685 0 0.6087613210240593
vn -0.7071067811865475 0 0.7071067811865475
vn -0.9238797479109917 0 0.3826829123437868
vn -0.8660252955903432 0 0.5000001873976233
vn -0.9914448878896857 0 0.13052599081182487
vn -0.9659258451755841 0 0.25881897461707376
usemtl material_0_0
f 1/1/1 2/1/1 3/1/1
f 4/1/2 5/1/2 6/1/2
f 7/1/1 8/1/1 9/1/1
f 10/1/1 11/1/1 12/1/1
f 13/1/2 14/1/2 15/1/3
f 16/1/2 17/1/2 18/1/2
f 19/1/1 20/1/1 21/1/1
f 22/1/1 23/1/1 24/1/1
f 25/1/4 26/1/4 27/1/4
f 28/1/5 29/1/6 30/1/5
f 31/1/1 32/1/1 33/1/1
f 34/1/7 35/1/7 36/1/7
f 37/1/3 38/1/3 39/1/2
f 40/1/8 41/1/8 42/1/8
f 43/1/1 44/1/1 45/1/1
f 46/1/1 47/1/1 48/1/1
f 49/1/9 50/1/9 51/1/9
f 52/1/4 53/1/4 54/1/4
f 55/1/9 56/1/9 57/1/9
f 58/1/6 59/1/5 60/1/6
f 61/1/6 62/1/10 63/1/6
f 64/1/1 65/1/1 66/1/1
f 67/1/7 68/1/7 69/1/7
f 70/1/7 71/1/7 72/1/7
f 73/1/3 74/1/3 75/1/11
f 76/1/7 77/1/7 78/1/7
f 79/1/8 80/1/8 81/1/8
f 82/1/12 83/1/12 84/1/12
f 85/1/1 86/1/1 87/1/1
f 88/1/13 89/1/13 90/1/13
f 91/1/13 92/1/13 93/1/13
f 94/1/14 95/1/15 96/1/14
f 97/1/16 98/1/14 99/1/16
f 100/1/15 101/1/6 102/1/15
f 103/1/10 104/1/6 105/1/10
f 106/1/10 107/1/10 108/1/10
f 109/1/7 110/1/7 111/1/7
f 112/1/14 113/1/16 114/1/14
f 115/1/7 116/1/7 117/1/7
f 118/1/15 119/1/14 120/1/15
f 121/1/11 122/1/11 123/1/3
f 124/1/7 125/1/7 126/1/7
f 127/1/12 128/1/12 129/1/12
f 130/1/1 131/1/1 132/1/1
f 133/1/17 134/1/17 135/1/17
f 136/1/17 137/1/17 138/1/17
f 139/1/18 140/1/16 141/1/18
f 142/1/16 143/1/18 144/1/16
f 145/1/6 146/1/15 147/1/6
f 148/1/6 149/1/10 150/1/6
f 151/1/10 152/1/10 153/1/10
f 154/1/7 155/1/7 156/1/7
f 157/1/7 158/1/7 159/1/7
f 160/1/11 161/1/11 162/1/19
f 163/1/7 164/1/7 165/1/7
f 166/1/19 167/1/19 168/1/11
f 169/1/1 170/1/1 171/1/1
f 172/1/20 173/1/20 174/1/20
f 175/1/21 176/1/18 177/1/21
f 178/1/18 179/1/21 180/1/18
f 181/1/10 182/1/6 183/1/10
f 184/1/10 185/1/19 186/1/10
f 187/1/7 188/1/7 189/1/7
f 190/1/19 191/1/10 192/1/19
f 193/1/1 194/1/1 195/1/1
f 196/1/22 197/1/22 198/1/22
f 199/1/20 200/1/20 201/1/20
f 202/1/21 203/1/21 204/1/23
f 205/1/7 206/1/7 207/1/7
f 208/1/23 209/1/23 210/1/21
f 211/1/24 212/1/24 213/1/24
f 214/1/22 215/1/22 216/1/22
f 217/1/24 218/1/24 219/1/24
f 220/1/7 221/1/7 222/1/7
f 223/1/25 224/1/25 225/1/23
f 226/1/23 227/1/23 228/1/25
f 229/1/24 230/1/24 231/1/25
f 232/1/25 233/1/25 234/1/24
usemtl material_1_0
f 235/2/7 236/3/7 237/4/7
f 238/5/26 239/6/26 240/7/26
f 241/2/7 242/8/7 243/3/7
f 244/4/7 245/3/7 246/9/7
f 247/10/27 248/11/26 249/6/26
f 250/6/26 251/5/26 252/10/26
f 253/4/7 254/12/7 255/13/7
f 256/2/7 257/14/7 258/8/7
f 259/15/28 260/16/28 261/17/28
f 262/18/29 263/19/30 264/20/29
f 265/4/7 266/9/7 267/21/7
f 268/22/1 269/23/1 270/24/1
f 271/11/26 272/10/27 273/25/27
f 274/26/31 275/27/31 276/28/31
f 277/4/7 278/29/7 279/12/7
f 280/2/7 281/30/7 282/14/7
f 283/15/32 284/16/32 285/17/32
f 286/16/28 287/15/28 288/31/28
f 289/16/32 290/15/32 291/31/32
f 292/19/30 293/18/29 294/32/30
f 295/33/30 296/34/33 297/35/30
f 298/4/7 299/21/7 300/29/7
f 301/36/1 302/23/1 303/22/1
f 304/22/1 305/24/1 306/37/1
f 307/38/34 308/39/27 309/27/27
f 310/40/1 311/24/1 312/41/1
f 313/27/31 314/26/31 315/38/31
f 316/42/35 317/43/35 318/44/35
f 319/2/7 320/45/7 321/30/7
f 322/18/36 323/19/36 324/20/36
f 325/19/36 326/18/36 327/32/36
f 328/46/37 329/31/38 330/15/37
f 331/46/39 332/31/37 333/15/39
f 334/47/38 335/32/30 336/18/38
f 337/34/33 338/33/30 339/48/33
f 340/48/33 341/49/33 342/34/33
f 343/50/1 344/23/1 345/36/1
f 346/31/37 347/46/39 348/51/37
f 349/37/1 350/24/1 351/52/1
f 352/31/38 353/46/37 354/51/38
f 355/39/27 356/38/34 357/53/34
f 358/54/1 359/24/1 360/40/1
f 361/43/35 362/42/35 363/55/35
f 364/2/7 365/56/7 366/45/7
f 367/33/40 368/49/40 369/35/40
f 370/49/40 371/33/40 372/57/40
f 373/47/41 374/32/39 375/18/41
f 376/32/39 377/47/41 378/58/39
f 379/32/30 380/47/38 381/58/30
f 382/59/30 383/48/33 384/33/30
f 385/49/33 386/48/33 387/57/33
f 388/60/1 389/23/1 390/50/1
f 391/52/1 392/24/1 393/61/1
f 394/55/42 395/62/34 396/43/34
f 397/61/1 398/24/1 399/54/1
f 400/62/34 401/55/42 402/63/42
f 403/2/7 404/64/7 405/56/7
f 406/42/43 407/43/43 408/44/43
f 409/59/44 410/57/41 411/33/44
f 412/57/41 413/59/44 414/65/41
f 415/48/33 416/59/30 417/66/33
f 418/66/33 419/57/42 420/48/33
f 421/67/1 422/23/1 423/60/1
f 424/57/42 425/66/33 426/65/42
f 427/64/7 428/2/7 429/68/7
f 430/26/45 431/27/45 432/28/45
f 433/43/43 434/42/43 435/55/43
f 436/55/46 437/62/44 438/43/44
f 439/69/1 440/23/1 441/67/1
f 442/62/44 443/55/46 444/63/46
f 445/5/47 446/6/47 447/7/47
f 448/27/45 449/26/45 450/38/45
f 451/6/47 452/5/47 453/10/47
f 454/23/1 455/69/1 456/70/1
f 457/39/46 458/38/48 459/53/48
f 460/38/48 461/39/46 462/27/46
f 463/11/48 464/10/47 465/25/47
f 466/10/47 467/11/48 468/6/48
