# SSTK version 0.8.0
# 33
mtllib original-33.mtl
o mesh9/mesh9-geometry/material_5/component_0#mesh9-geometry
v -0.161659 0.170576 -0.807525
v -0.161497 0.170576 -0.933810
v -0.161659 0.208461 -0.807525
v -0.141929 0.161064 -0.807500
v -0.141768 0.161064 -0.933784
v -0.161659 0.170576 -0.807525
v 0.090848 0.208461 -0.807202
v 0.091010 0.208461 -0.933487
v 0.090848 0.170576 -0.807202
v 0.090848 0.170576 -0.807202
v 0.091010 0.170576 -0.933487
v 0.071119 0.161064 -0.807227
v -0.161497 0.208461 -0.933810
v -0.161659 0.208461 -0.807525
v -0.161497 0.170576 -0.933810
v -0.161497 0.170576 -0.933810
v -0.161659 0.170576 -0.807525
v -0.141768 0.161064 -0.933784
v -0.141768 0.161064 -0.933784
v -0.141929 0.161064 -0.807500
v -0.121328 0.153194 -0.933758
v -0.121490 0.153194 -0.807474
v -0.121328 0.153194 -0.933758
v -0.141929 0.161064 -0.807500
v 0.090848 0.208461 -0.807202
v 0.071119 0.217973 -0.807227
v 0.091010 0.208461 -0.933487
v 0.091010 0.170576 -0.933487
v 0.090848 0.170576 -0.807202
v 0.091010 0.208461 -0.933487
v 0.071119 0.161064 -0.807227
v 0.071280 0.161064 -0.933512
v 0.050679 0.153194 -0.807253
v 0.071280 0.161064 -0.933512
v 0.071119 0.161064 -0.807227
v 0.091010 0.170576 -0.933487
v -0.161497 0.208461 -0.933810
v -0.141768 0.217973 -0.933784
v -0.161659 0.208461 -0.807525
v -0.161497 0.208461 -0.933810
v -0.161497 0.170576 -0.933810
v -0.141768 0.217973 -0.933784
v -0.141768 0.161064 -0.933784
v -0.141768 0.217973 -0.933784
v -0.161497 0.170576 -0.933810
v -0.121328 0.153194 -0.933758
v -0.121328 0.225844 -0.933758
v -0.141768 0.161064 -0.933784
v -0.121328 0.153194 -0.933758
v -0.121490 0.153194 -0.807474
v -0.100314 0.147017 -0.933731
v -0.100476 0.147017 -0.807447
v -0.100314 0.147017 -0.933731
v -0.121490 0.153194 -0.807474
v 0.071119 0.217973 -0.807227
v 0.050679 0.225844 -0.807253
v 0.071280 0.217973 -0.933512
v 0.071280 0.217973 -0.933512
v 0.091010 0.208461 -0.933487
v 0.071119 0.217973 -0.807227
v 0.091010 0.170576 -0.933487
v 0.091010 0.208461 -0.933487
v 0.071280 0.161064 -0.933512
v 0.050679 0.153194 -0.807253
v 0.050841 0.153194 -0.933538
v 0.029665 0.147017 -0.807280
v 0.050841 0.153194 -0.933538
v 0.050679 0.153194 -0.807253
v 0.071280 0.161064 -0.933512
v -0.141929 0.217973 -0.807500
v -0.161659 0.208461 -0.807525
v -0.141768 0.217973 -0.933784
v -0.121328 0.225844 -0.933758
v -0.141768 0.217973 -0.933784
v -0.141768 0.161064 -0.933784
v -0.100314 0.232020 -0.933731
v -0.121328 0.225844 -0.933758
v -0.121328 0.153194 -0.933758
v -0.100314 0.147017 -0.933731
v -0.100314 0.232020 -0.933731
v -0.121328 0.153194 -0.933758
v -0.100314 0.147017 -0.933731
v -0.100476 0.147017 -0.807447
v -0.078867 0.142576 -0.933704
v -0.079028 0.142576 -0.807419
v -0.078867 0.142576 -0.933704
v -0.100476 0.147017 -0.807447
v 0.050679 0.225844 -0.807253
v 0.029665 0.232020 -0.807280
v 0.050841 0.225844 -0.933538
v 0.050841 0.225844 -0.933538
v 0.071280 0.217973 -0.933512
v 0.050679 0.225844 -0.807253
v 0.091010 0.208461 -0.933487
v 0.071280 0.217973 -0.933512
v 0.071280 0.161064 -0.933512
v 0.029665 0.147017 -0.807280
v 0.029827 0.147017 -0.933565
v 0.008218 0.142576 -0.807308
v 0.029827 0.147017 -0.933565
v 0.029665 0.147017 -0.807280
v 0.050841 0.153194 -0.933538
v 0.071280 0.161064 -0.933512
v 0.071280 0.217973 -0.933512
v 0.050841 0.153194 -0.933538
v -0.121490 0.225844 -0.807474
v -0.141929 0.217973 -0.807500
v -0.121328 0.225844 -0.933758
v -0.141768 0.217973 -0.933784
v -0.121328 0.225844 -0.933758
v -0.141929 0.217973 -0.807500
v -0.121328 0.225844 -0.933758
v -0.100314 0.232020 -0.933731
v -0.121490 0.225844 -0.807474
v -0.078867 0.236462 -0.933704
v -0.100314 0.232020 -0.933731
v -0.100314 0.147017 -0.933731
v -0.078867 0.142576 -0.933704
v -0.078867 0.236462 -0.933704
v -0.100314 0.147017 -0.933731
v -0.078867 0.142576 -0.933704
v -0.079028 0.142576 -0.807419
v -0.057128 0.139899 -0.933676
v -0.057290 0.139899 -0.807391
v -0.057128 0.139899 -0.933676
v -0.079028 0.142576 -0.807419
v 0.029665 0.232020 -0.807280
v 0.008218 0.236462 -0.807308
v 0.029827 0.232020 -0.933565
v 0.029827 0.232020 -0.933565
v 0.050841 0.225844 -0.933538
v 0.029665 0.232020 -0.807280
v 0.071280 0.217973 -0.933512
v 0.050841 0.225844 -0.933538
v 0.050841 0.153194 -0.933538
v 0.008218 0.142576 -0.807308
v 0.008379 0.142576 -0.933592
v -0.013521 0.139899 -0.807335
v 0.008379 0.142576 -0.933592
v 0.008218 0.142576 -0.807308
v 0.029827 0.147017 -0.933565
v 0.050841 0.153194 -0.933538
v 0.050841 0.225844 -0.933538
v 0.029827 0.147017 -0.933565
v -0.100476 0.232020 -0.807447
v -0.121490 0.225844 -0.807474
v -0.100314 0.232020 -0.933731
v -0.100314 0.232020 -0.933731
v -0.078867 0.236462 -0.933704
v -0.100476 0.232020 -0.807447
v -0.057128 0.239138 -0.933676
v -0.078867 0.236462 -0.933704
v -0.078867 0.142576 -0.933704
v -0.057128 0.139899 -0.933676
v -0.057128 0.239138 -0.933676
v -0.078867 0.142576 -0.933704
v -0.057128 0.139899 -0.933676
v -0.057290 0.139899 -0.807391
v -0.035244 0.139005 -0.933648
v -0.035405 0.139005 -0.807363
v -0.035244 0.139005 -0.933648
v -0.057290 0.139899 -0.807391
v 0.008218 0.236462 -0.807308
v -0.013521 0.239138 -0.807335
v 0.008379 0.236462 -0.933592
v 0.008379 0.236462 -0.933592
v 0.029827 0.232020 -0.933565
v 0.008218 0.236462 -0.807308
v 0.050841 0.225844 -0.933538
v 0.029827 0.232020 -0.933565
v 0.029827 0.147017 -0.933565
v -0.013521 0.139899 -0.807335
v -0.013359 0.139899 -0.933620
v -0.035405 0.139005 -0.807363
v -0.013359 0.139899 -0.933620
v -0.013521 0.139899 -0.807335
v 0.008379 0.142576 -0.933592
v 0.029827 0.147017 -0.933565
v 0.029827 0.232020 -0.933565
v 0.008379 0.142576 -0.933592
v -0.079028 0.236462 -0.807419
v -0.100476 0.232020 -0.807447
v -0.078867 0.236462 -0.933704
v -0.078867 0.236462 -0.933704
v -0.057128 0.239138 -0.933676
v -0.079028 0.236462 -0.807419
v -0.035244 0.240033 -0.933648
v -0.057128 0.239138 -0.933676
v -0.057128 0.139899 -0.933676
v -0.035244 0.139005 -0.933648
v -0.035244 0.240033 -0.933648
v -0.057128 0.139899 -0.933676
v -0.035244 0.139005 -0.933648
v -0.035405 0.139005 -0.807363
v -0.013359 0.139899 -0.933620
v -0.013521 0.239138 -0.807335
v -0.035405 0.240033 -0.807363
v -0.013359 0.239138 -0.933620
v -0.013359 0.239138 -0.933620
v 0.008379 0.236462 -0.933592
v -0.013521 0.239138 -0.807335
v 0.029827 0.232020 -0.933565
v 0.008379 0.236462 -0.933592
v 0.008379 0.142576 -0.933592
v 0.008379 0.142576 -0.933592
v 0.008379 0.236462 -0.933592
v -0.013359 0.139899 -0.933620
v -0.057290 0.239138 -0.807391
v -0.079028 0.236462 -0.807419
v -0.057128 0.239138 -0.933676
v -0.057128 0.239138 -0.933676
v -0.035244 0.240033 -0.933648
v -0.057290 0.239138 -0.807391
v -0.013359 0.239138 -0.933620
v -0.035244 0.240033 -0.933648
v -0.035244 0.139005 -0.933648
v -0.013359 0.139899 -0.933620
v -0.013359 0.239138 -0.933620
v -0.035244 0.139005 -0.933648
v -0.035405 0.240033 -0.807363
v -0.057290 0.239138 -0.807391
v -0.035244 0.240033 -0.933648
v -0.035244 0.240033 -0.933648
v -0.013359 0.239138 -0.933620
v -0.035405 0.240033 -0.807363
v 0.008379 0.236462 -0.933592
v -0.013359 0.239138 -0.933620
v -0.013359 0.139899 -0.933620
v -0.161659 0.208461 -0.807525
v -0.161497 0.170576 -0.933810
v -0.161659 0.170576 -0.807525
v -0.161659 0.170576 -0.807525
v -0.141768 0.161064 -0.933784
v -0.141929 0.161064 -0.807500
v 0.090848 0.170576 -0.807202
v 0.091010 0.208461 -0.933487
v 0.090848 0.208461 -0.807202
v 0.071119 0.161064 -0.807227
v 0.091010 0.170576 -0.933487
v 0.090848 0.170576 -0.807202
v -0.161497 0.170576 -0.933810
v -0.161659 0.208461 -0.807525
v -0.161497 0.208461 -0.933810
v -0.141768 0.161064 -0.933784
v -0.161659 0.170576 -0.807525
v -0.161497 0.170576 -0.933810
v -0.121328 0.153194 -0.933758
v -0.141929 0.161064 -0.807500
v -0.141768 0.161064 -0.933784
v -0.141929 0.161064 -0.807500
v -0.121328 0.153194 -0.933758
v -0.121490 0.153194 -0.807474
v 0.091010 0.208461 -0.933487
v 0.071119 0.217973 -0.807227
v 0.090848 0.208461 -0.807202
v 0.091010 0.208461 -0.933487
v 0.090848 0.170576 -0.807202
v 0.091010 0.170576 -0.933487
v 0.050679 0.153194 -0.807253
v 0.071280 0.161064 -0.933512
v 0.071119 0.161064 -0.807227
v 0.091010 0.170576 -0.933487
v 0.071119 0.161064 -0.807227
v 0.071280 0.161064 -0.933512
v -0.161659 0.208461 -0.807525
v -0.141768 0.217973 -0.933784
v -0.161497 0.208461 -0.933810
v -0.141768 0.217973 -0.933784
v -0.161497 0.170576 -0.933810
v -0.161497 0.208461 -0.933810
v -0.161497 0.170576 -0.933810
v -0.141768 0.217973 -0.933784
v -0.141768 0.161064 -0.933784
v -0.141768 0.161064 -0.933784
v -0.121328 0.225844 -0.933758
v -0.121328 0.153194 -0.933758
v -0.100314 0.147017 -0.933731
v -0.121490 0.153194 -0.807474
v -0.121328 0.153194 -0.933758
v -0.121490 0.153194 -0.807474
v -0.100314 0.147017 -0.933731
v -0.100476 0.147017 -0.807447
v 0.071280 0.217973 -0.933512
v 0.050679 0.225844 -0.807253
v 0.071119 0.217973 -0.807227
v 0.071119 0.217973 -0.807227
v 0.091010 0.208461 -0.933487
v 0.071280 0.217973 -0.933512
v 0.071280 0.161064 -0.933512
v 0.091010 0.208461 -0.933487
v 0.091010 0.170576 -0.933487
v 0.029665 0.147017 -0.807280
v 0.050841 0.153194 -0.933538
v 0.050679 0.153194 -0.807253
v 0.071280 0.161064 -0.933512
v 0.050679 0.153194 -0.807253
v 0.050841 0.153194 -0.933538
v -0.141768 0.217973 -0.933784
v -0.161659 0.208461 -0.807525
v -0.141929 0.217973 -0.807500
v -0.141768 0.161064 -0.933784
v -0.141768 0.217973 -0.933784
v -0.121328 0.225844 -0.933758
v -0.121328 0.153194 -0.933758
v -0.121328 0.225844 -0.933758
v -0.100314 0.232020 -0.933731
v -0.121328 0.153194 -0.933758
v -0.100314 0.232020 -0.933731
v -0.100314 0.147017 -0.933731
v -0.078867 0.142576 -0.933704
v -0.100476 0.147017 -0.807447
v -0.100314 0.147017 -0.933731
v -0.100476 0.147017 -0.807447
v -0.078867 0.142576 -0.933704
v -0.079028 0.142576 -0.807419
v 0.050841 0.225844 -0.933538
v 0.029665 0.232020 -0.807280
v 0.050679 0.225844 -0.807253
v 0.050679 0.225844 -0.807253
v 0.071280 0.217973 -0.933512
v 0.050841 0.225844 -0.933538
v 0.071280 0.161064 -0.933512
v 0.071280 0.217973 -0.933512
v 0.091010 0.208461 -0.933487
v 0.008218 0.142576 -0.807308
v 0.029827 0.147017 -0.933565
v 0.029665 0.147017 -0.807280
v 0.050841 0.153194 -0.933538
v 0.029665 0.147017 -0.807280
v 0.029827 0.147017 -0.933565
v 0.050841 0.153194 -0.933538
v 0.071280 0.217973 -0.933512
v 0.071280 0.161064 -0.933512
v -0.121328 0.225844 -0.933758
v -0.141929 0.217973 -0.807500
v -0.121490 0.225844 -0.807474
v -0.141929 0.217973 -0.807500
v -0.121328 0.225844 -0.933758
v -0.141768 0.217973 -0.933784
v -0.121490 0.225844 -0.807474
v -0.100314 0.232020 -0.933731
v -0.121328 0.225844 -0.933758
v -0.100314 0.147017 -0.933731
v -0.100314 0.232020 -0.933731
v -0.078867 0.236462 -0.933704
v -0.100314 0.147017 -0.933731
v -0.078867 0.236462 -0.933704
v -0.078867 0.142576 -0.933704
v -0.057128 0.139899 -0.933676
v -0.079028 0.142576 -0.807419
v -0.078867 0.142576 -0.933704
v -0.079028 0.142576 -0.807419
v -0.057128 0.139899 -0.933676
v -0.057290 0.139899 -0.807391
v 0.029827 0.232020 -0.933565
v 0.008218 0.236462 -0.807308
v 0.029665 0.232020 -0.807280
v 0.029665 0.232020 -0.807280
v 0.050841 0.225844 -0.933538
v 0.029827 0.232020 -0.933565
v 0.050841 0.153194 -0.933538
v 0.050841 0.225844 -0.933538
v 0.071280 0.217973 -0.933512
v -0.013521 0.139899 -0.807335
v 0.008379 0.142576 -0.933592
v 0.008218 0.142576 -0.807308
v 0.029827 0.147017 -0.933565
v 0.008218 0.142576 -0.807308
v 0.008379 0.142576 -0.933592
v 0.029827 0.147017 -0.933565
v 0.050841 0.225844 -0.933538
v 0.050841 0.153194 -0.933538
v -0.100314 0.232020 -0.933731
v -0.121490 0.225844 -0.807474
v -0.100476 0.232020 -0.807447
v -0.100476 0.232020 -0.807447
v -0.078867 0.236462 -0.933704
v -0.100314 0.232020 -0.933731
v -0.078867 0.142576 -0.933704
v -0.078867 0.236462 -0.933704
v -0.057128 0.239138 -0.933676
v -0.078867 0.142576 -0.933704
v -0.057128 0.239138 -0.933676
v -0.057128 0.139899 -0.933676
v -0.035244 0.139005 -0.933648
v -0.057290 0.139899 -0.807391
v -0.057128 0.139899 -0.933676
v -0.057290 0.139899 -0.807391
v -0.035244 0.139005 -0.933648
v -0.035405 0.139005 -0.807363
v 0.008379 0.236462 -0.933592
v -0.013521 0.239138 -0.807335
v 0.008218 0.236462 -0.807308
v 0.008218 0.236462 -0.807308
v 0.029827 0.232020 -0.933565
v 0.008379 0.236462 -0.933592
v 0.029827 0.147017 -0.933565
v 0.029827 0.232020 -0.933565
v 0.050841 0.225844 -0.933538
v -0.035405 0.139005 -0.807363
v -0.013359 0.139899 -0.933620
v -0.013521 0.139899 -0.807335
v 0.008379 0.142576 -0.933592
v -0.013521 0.139899 -0.807335
v -0.013359 0.139899 -0.933620
v 0.008379 0.142576 -0.933592
v 0.029827 0.232020 -0.933565
v 0.029827 0.147017 -0.933565
v -0.078867 0.236462 -0.933704
v -0.100476 0.232020 -0.807447
v -0.079028 0.236462 -0.807419
v -0.079028 0.236462 -0.807419
v -0.057128 0.239138 -0.933676
v -0.078867 0.236462 -0.933704
v -0.057128 0.139899 -0.933676
v -0.057128 0.239138 -0.933676
v -0.035244 0.240033 -0.933648
v -0.057128 0.139899 -0.933676
v -0.035244 0.240033 -0.933648
v -0.035244 0.139005 -0.933648
v -0.013359 0.139899 -0.933620
v -0.035405 0.139005 -0.807363
v -0.035244 0.139005 -0.933648
v -0.013359 0.239138 -0.933620
v -0.035405 0.240033 -0.807363
v -0.013521 0.239138 -0.807335
v -0.013521 0.239138 -0.807335
v 0.008379 0.236462 -0.933592
v -0.013359 0.239138 -0.933620
v 0.008379 0.142576 -0.933592
v 0.008379 0.236462 -0.933592
v 0.029827 0.232020 -0.933565
v -0.013359 0.139899 -0.933620
v 0.008379 0.236462 -0.933592
v 0.008379 0.142576 -0.933592
v -0.057128 0.239138 -0.933676
v -0.079028 0.236462 -0.807419
v -0.057290 0.239138 -0.807391
v -0.057290 0.239138 -0.807391
v -0.035244 0.240033 -0.933648
v -0.057128 0.239138 -0.933676
v -0.035244 0.139005 -0.933648
v -0.035244 0.240033 -0.933648
v -0.013359 0.239138 -0.933620
v -0.035244 0.139005 -0.933648
v -0.013359 0.239138 -0.933620
v -0.013359 0.139899 -0.933620
v -0.035244 0.240033 -0.933648
v -0.057290 0.239138 -0.807391
v -0.035405 0.240033 -0.807363
v -0.035405 0.240033 -0.807363
v -0.013359 0.239138 -0.933620
v -0.035244 0.240033 -0.933648
v -0.013359 0.139899 -0.933620
v -0.013359 0.239138 -0.933620
v 0.008379 0.236462 -0.933592
vn 0.9999991807993879 0 0.0012800002160850124
vn 0.3971370600633997 0.9177591718201877 0.0005080001208686185
vn 0.43427588118772603 0.90077974548878 0.0005559998137354279
vn -0.9999991807993879 0 -0.0012800002160850124
vn -0.43427588118772603 0.90077974548878 -0.0005559998137354279
vn -0.3971370600633997 0.9177591718201877 -0.0005080001208686185
vn 0.3209341423370755 0.9471014240097123 0.00041100017165896223
vn -0.43427588118772603 -0.90077974548878 -0.0005559998137354279
vn -0.3971370600633997 -0.9177591718201877 -0.0005080001208686185
vn -0.3209341423370755 0.9471014240097123 -0.00041100017165896223
vn 0.43427588118772603 -0.90077974548878 0.0005559998137354279
vn 0.3971370600633997 -0.9177591718201877 0.0005080001208686185
vn -0.0012800002160850124 0 0.9999991807993879
vn 0.2425920900695599 0.9701283322914601 0.0003110001172916316
vn -0.3209341423370755 -0.9471014240097123 -0.00041100017165896223
vn -0.2425920900695599 0.9701283322914601 -0.0003110001172916316
vn 0.1626319662828511 0.986686779215671 0.00020799995015051466
vn -0.2425920900695599 -0.9701283322914601 -0.0003110001172916316
vn -0.1626319662828511 0.986686779215671 -0.00020799995015051466
vn 0.3209341423370755 -0.9471014240097123 0.00041100017165896223
vn 0.2425920900695599 -0.9701283322914601 0.0003110001172916316
vn 0.08158800999573311 0.9966661355784764 0.00010400001149409393
vn -0.1626319662828511 -0.986686779215671 -0.00020799995015051466
vn -0.08158800999573311 0.9966661355784764 -0.00010400001149409393
vn 0.1626319662828511 -0.986686779215671 0.00020799995015051466
vn 0 1 0
vn -0.08158800999573311 -0.9966661355784764 -0.00010400001149409393
vn 0.08158800999573311 -0.9966661355784764 0.00010400001149409393
vn 0 -1 0
vn 0.0012800002160850124 0 -0.9999991807993879
usemtl material_0_0
f 1//1 2//1 3//1
f 4//2 5//2 6//3
f 7//4 8//4 9//4
f 10//5 11//5 12//6
f 13//1 14//1 15//1
f 16//3 17//3 18//2
f 19//2 20//2 21//7
f 22//7 23//7 24//2
f 25//8 26//9 27//8
f 28//4 29//4 30//4
f 31//6 32//6 33//10
f 34//6 35//6 36//5
f 37//11 38//12 39//11
f 40//13 41//13 42//13
f 43//13 44//13 45//13
f 46//13 47//13 48//13
f 49//7 50//7 51//14
f 52//14 53//14 54//7
f 55//9 56//15 57//9
f 58//9 59//8 60//9
f 61//13 62//13 63//13
f 64//10 65//10 66//16
f 67//10 68//10 69//6
f 70//12 71//11 72//12
f 73//13 74//13 75//13
f 76//13 77//13 78//13
f 79//13 80//13 81//13
f 82//14 83//14 84//17
f 85//17 86//17 87//14
f 88//15 89//18 90//15
f 91//15 92//9 93//15
f 94//13 95//13 96//13
f 97//16 98//16 99//19
f 100//16 101//16 102//10
f 103//13 104//13 105//13
f 106//20 107//12 108//20
f 109//12 110//20 111//12
f 112//20 113//21 114//20
f 115//13 116//13 117//13
f 118//13 119//13 120//13
f 121//17 122//17 123//22
f 124//22 125//22 126//17
f 127//18 128//23 129//18
f 130//18 131//15 132//18
f 133//13 134//13 135//13
f 136//19 137//19 138//24
f 139//19 140//19 141//16
f 142//13 143//13 144//13
f 145//21 146//20 147//21
f 148//21 149//25 150//21
f 151//13 152//13 153//13
f 154//13 155//13 156//13
f 157//22 158//22 159//26
f 160//26 161//26 162//22
f 163//23 164//27 165//23
f 166//23 167//18 168//23
f 169//13 170//13 171//13
f 172//24 173//24 174//26
f 175//24 176//24 177//19
f 178//13 179//13 180//13
f 181//25 182//21 183//25
f 184//25 185//28 186//25
f 187//13 188//13 189//13
f 190//13 191//13 192//13
f 193//26 194//26 195//24
f 196//27 197//29 198//27
f 199//27 200//23 201//27
f 202//13 203//13 204//13
f 205//13 206//13 207//13
f 208//28 209//25 210//28
f 211//28 212//29 213//28
f 214//13 215//13 216//13
f 217//13 218//13 219//13
f 220//29 221//28 222//29
f 223//29 224//27 225//29
f 226//13 227//13 228//13
usemtl material_1_0
f 229//4 230//4 231//4
f 232//8 233//9 234//9
f 235//1 236//1 237//1
f 238//12 239//11 240//11
f 241//4 242//4 243//4
f 244//9 245//8 246//8
f 247//15 248//9 249//9
f 250//9 251//15 252//15
f 253//3 254//2 255//3
f 256//1 257//1 258//1
f 259//20 260//12 261//12
f 262//11 263//12 264//12
f 265//5 266//6 267//5
f 268//30 269//30 270//30
f 271//30 272//30 273//30
f 274//30 275//30 276//30
f 277//18 278//15 279//15
f 280//15 281//18 282//18
f 283//2 284//7 285//2
f 286//2 287//3 288//2
f 289//30 290//30 291//30
f 292//21 293//20 294//20
f 295//12 296//20 297//20
f 298//6 299//5 300//6
f 301//30 302//30 303//30
f 304//30 305//30 306//30
f 307//30 308//30 309//30
f 310//23 311//18 312//18
f 313//18 314//23 315//23
f 316//7 317//14 318//7
f 319//7 320//2 321//7
f 322//30 323//30 324//30
f 325//25 326//21 327//21
f 328//20 329//21 330//21
f 331//30 332//30 333//30
f 334//10 335//6 336//10
f 337//6 338//10 339//6
f 340//10 341//16 342//10
f 343//30 344//30 345//30
f 346//30 347//30 348//30
f 349//27 350//23 351//23
f 352//23 353//27 354//27
f 355//14 356//17 357//14
f 358//14 359//7 360//14
f 361//30 362//30 363//30
f 364//28 365//25 366//25
f 367//21 368//25 369//25
f 370//30 371//30 372//30
f 373//16 374//10 375//16
f 376//16 377//19 378//16
f 379//30 380//30 381//30
f 382//30 383//30 384//30
f 385//29 386//27 387//27
f 388//27 389//29 390//29
f 391//17 392//22 393//17
f 394//17 395//14 396//17
f 397//30 398//30 399//30
f 400//29 401//28 402//28
f 403//25 404//28 405//28
f 406//30 407//30 408//30
f 409//19 410//16 411//19
f 412//19 413//24 414//19
f 415//30 416//30 417//30
f 418//30 419//30 420//30
f 421//28 422//29 423//29
f 424//22 425//26 426//22
f 427//22 428//17 429//22
f 430//30 431//30 432//30
f 433//30 434//30 435//30
f 436//24 437//19 438//24
f 439//24 440//26 441//24
f 442//30 443//30 444//30
f 445//30 446//30 447//30
f 448//26 449//24 450//26
f 451//26 452//22 453//26
f 454//30 455//30 456//30
