# SSTK version 0.8.0
# 34
mtllib original-34.mtl
o mesh9/mesh9-geometry/material_5/component_1#mesh9-geometry
v -0.121474 0.160463 0.771359
v -0.141210 0.169975 0.771359
v -0.121474 0.160463 0.897644
v -0.141210 0.208461 0.771359
v -0.141210 0.208461 0.897644
v -0.141210 0.169975 0.771359
v -0.101029 0.152592 0.771359
v -0.121474 0.160463 0.771359
v -0.101029 0.152592 0.897644
v -0.141210 0.169975 0.897644
v -0.121474 0.160463 0.897644
v -0.141210 0.169975 0.771359
v -0.121474 0.160463 0.897644
v -0.101029 0.152592 0.897644
v -0.121474 0.160463 0.771359
v -0.141210 0.208461 0.771359
v -0.121474 0.217973 0.771359
v -0.141210 0.208461 0.897644
v -0.141210 0.169975 0.897644
v -0.141210 0.169975 0.771359
v -0.141210 0.208461 0.897644
v -0.080010 0.146416 0.771359
v -0.101029 0.152592 0.771359
v -0.080010 0.146416 0.897644
v -0.101029 0.152592 0.897644
v -0.080010 0.146416 0.897644
v -0.101029 0.152592 0.771359
v -0.141210 0.169975 0.897644
v -0.141210 0.208461 0.897644
v -0.121474 0.160463 0.897644
v -0.101029 0.152592 0.897644
v -0.121474 0.160463 0.897644
v -0.121474 0.217973 0.897644
v -0.121474 0.217973 0.897644
v -0.141210 0.208461 0.897644
v -0.121474 0.217973 0.771359
v -0.058558 0.141974 0.771359
v -0.080010 0.146416 0.771359
v -0.058558 0.141974 0.897644
v -0.080010 0.146416 0.897644
v -0.058558 0.141974 0.897644
v -0.080010 0.146416 0.771359
v -0.080010 0.146416 0.897644
v -0.101029 0.152592 0.897644
v -0.101029 0.225844 0.897644
v -0.121474 0.217973 0.897644
v -0.121474 0.160463 0.897644
v -0.141210 0.208461 0.897644
v -0.101029 0.225844 0.897644
v -0.101029 0.152592 0.897644
v -0.121474 0.217973 0.897644
v -0.121474 0.217973 0.771359
v -0.101029 0.225844 0.771359
v -0.121474 0.217973 0.897644
v -0.036814 0.139298 0.771359
v -0.058558 0.141974 0.771359
v -0.036814 0.139298 0.897644
v -0.058558 0.141974 0.897644
v -0.036814 0.139298 0.897644
v -0.058558 0.141974 0.771359
v -0.058558 0.141974 0.897644
v -0.080010 0.146416 0.897644
v -0.080010 0.232020 0.897644
v -0.080010 0.232020 0.897644
v -0.080010 0.146416 0.897644
v -0.101029 0.225844 0.897644
v -0.101029 0.225844 0.897644
v -0.121474 0.217973 0.897644
v -0.101029 0.225844 0.771359
v -0.101029 0.225844 0.771359
v -0.080010 0.232020 0.771359
v -0.101029 0.225844 0.897644
v -0.014925 0.138403 0.771359
v -0.036814 0.139298 0.771359
v -0.014925 0.138403 0.897644
v -0.036814 0.139298 0.897644
v -0.014925 0.138403 0.897644
v -0.036814 0.139298 0.771359
v -0.036814 0.139298 0.897644
v -0.058558 0.141974 0.897644
v -0.058558 0.236462 0.897644
v -0.058558 0.236462 0.897644
v -0.058558 0.141974 0.897644
v -0.080010 0.232020 0.897644
v -0.080010 0.232020 0.897644
v -0.101029 0.225844 0.897644
v -0.080010 0.232020 0.771359
v -0.080010 0.232020 0.771359
v -0.058558 0.236462 0.771359
v -0.080010 0.232020 0.897644
v 0.006965 0.139298 0.771359
v -0.014925 0.138403 0.771359
v 0.006965 0.139298 0.897644
v -0.014925 0.138403 0.897644
v 0.006965 0.139298 0.897644
v -0.014925 0.138403 0.771359
v -0.014925 0.138403 0.897644
v -0.036814 0.139298 0.897644
v -0.036814 0.239138 0.897644
v -0.036814 0.239138 0.897644
v -0.036814 0.139298 0.897644
v -0.058558 0.236462 0.897644
v -0.058558 0.236462 0.897644
v -0.080010 0.232020 0.897644
v -0.058558 0.236462 0.771359
v -0.058558 0.236462 0.771359
v -0.036814 0.239138 0.771359
v -0.058558 0.236462 0.897644
v 0.028708 0.141974 0.771359
v 0.006965 0.139298 0.771359
v 0.028708 0.141974 0.897644
v 0.006965 0.139298 0.897644
v 0.028708 0.141974 0.897644
v 0.006965 0.139298 0.771359
v 0.006965 0.139298 0.897644
v -0.014925 0.138403 0.897644
v -0.014925 0.240033 0.897644
v -0.014925 0.240033 0.897644
v -0.014925 0.138403 0.897644
v -0.036814 0.239138 0.897644
v -0.036814 0.239138 0.897644
v -0.058558 0.236462 0.897644
v -0.036814 0.239138 0.771359
v -0.036814 0.239138 0.771359
v -0.014925 0.240033 0.771359
v -0.036814 0.239138 0.897644
v 0.050161 0.146416 0.771359
v 0.028708 0.141974 0.771359
v 0.050161 0.146416 0.897644
v 0.028708 0.141974 0.897644
v 0.050161 0.146416 0.897644
v 0.028708 0.141974 0.771359
v 0.028708 0.141974 0.897644
v 0.006965 0.139298 0.897644
v 0.006965 0.239138 0.897644
v 0.006965 0.239138 0.897644
v 0.006965 0.139298 0.897644
v -0.014925 0.240033 0.897644
v -0.014925 0.240033 0.897644
v -0.036814 0.239138 0.897644
v -0.014925 0.240033 0.771359
v -0.014925 0.240033 0.771359
v 0.006965 0.239138 0.771359
v -0.014925 0.240033 0.897644
v 0.071180 0.152592 0.771359
v 0.050161 0.146416 0.771359
v 0.071180 0.152592 0.897644
v 0.050161 0.146416 0.897644
v 0.071180 0.152592 0.897644
v 0.050161 0.146416 0.771359
v 0.050161 0.146416 0.897644
v 0.028708 0.141974 0.897644
v 0.028708 0.236462 0.897644
v 0.028708 0.236462 0.897644
v 0.028708 0.141974 0.897644
v 0.006965 0.239138 0.897644
v 0.006965 0.239138 0.897644
v -0.014925 0.240033 0.897644
v 0.006965 0.239138 0.771359
v 0.006965 0.239138 0.771359
v 0.028708 0.236462 0.771359
v 0.006965 0.239138 0.897644
v 0.091625 0.160463 0.771359
v 0.071180 0.152592 0.771359
v 0.091625 0.160463 0.897644
v 0.071180 0.152592 0.897644
v 0.091625 0.160463 0.897644
v 0.071180 0.152592 0.771359
v 0.071180 0.152592 0.897644
v 0.050161 0.146416 0.897644
v 0.071180 0.225844 0.897644
v 0.050161 0.232020 0.897644
v 0.050161 0.146416 0.897644
v 0.028708 0.236462 0.897644
v 0.028708 0.236462 0.897644
v 0.006965 0.239138 0.897644
v 0.028708 0.236462 0.771359
v 0.028708 0.236462 0.771359
v 0.050161 0.232020 0.771359
v 0.028708 0.236462 0.897644
v 0.111360 0.169975 0.771359
v 0.091625 0.160463 0.771359
v 0.111360 0.169975 0.897644
v 0.091625 0.160463 0.897644
v 0.111360 0.169975 0.897644
v 0.091625 0.160463 0.771359
v 0.091625 0.160463 0.897644
v 0.071180 0.152592 0.897644
v 0.091625 0.217973 0.897644
v 0.071180 0.225844 0.897644
v 0.050161 0.146416 0.897644
v 0.050161 0.232020 0.897644
v 0.091625 0.217973 0.897644
v 0.071180 0.152592 0.897644
v 0.071180 0.225844 0.897644
v 0.050161 0.232020 0.897644
v 0.028708 0.236462 0.897644
v 0.050161 0.232020 0.771359
v 0.050161 0.232020 0.771359
v 0.071180 0.225844 0.771359
v 0.050161 0.232020 0.897644
v 0.111360 0.169975 0.771359
v 0.111360 0.169975 0.897644
v 0.111360 0.208461 0.771359
v 0.111360 0.169975 0.897644
v 0.091625 0.160463 0.897644
v 0.111360 0.208461 0.897644
v 0.111360 0.208461 0.897644
v 0.091625 0.160463 0.897644
v 0.091625 0.217973 0.897644
v 0.071180 0.225844 0.897644
v 0.050161 0.232020 0.897644
v 0.071180 0.225844 0.771359
v 0.091625 0.217973 0.897644
v 0.071180 0.225844 0.897644
v 0.091625 0.217973 0.771359
v 0.071180 0.225844 0.771359
v 0.091625 0.217973 0.771359
v 0.071180 0.225844 0.897644
v 0.111360 0.208461 0.897644
v 0.111360 0.208461 0.771359
v 0.111360 0.169975 0.897644
v 0.111360 0.208461 0.897644
v 0.091625 0.217973 0.897644
v 0.111360 0.208461 0.771359
v 0.091625 0.217973 0.771359
v 0.111360 0.208461 0.771359
v 0.091625 0.217973 0.897644
v -0.121474 0.160463 0.897644
v -0.141210 0.169975 0.771359
v -0.121474 0.160463 0.771359
v -0.141210 0.169975 0.771359
v -0.141210 0.208461 0.897644
v -0.141210 0.208461 0.771359
v -0.101029 0.152592 0.897644
v -0.121474 0.160463 0.771359
v -0.101029 0.152592 0.771359
v -0.141210 0.169975 0.771359
v -0.121474 0.160463 0.897644
v -0.141210 0.169975 0.897644
v -0.121474 0.160463 0.771359
v -0.101029 0.152592 0.897644
v -0.121474 0.160463 0.897644
v -0.141210 0.208461 0.897644
v -0.121474 0.217973 0.771359
v -0.141210 0.208461 0.771359
v -0.141210 0.208461 0.897644
v -0.141210 0.169975 0.771359
v -0.141210 0.169975 0.897644
v -0.080010 0.146416 0.897644
v -0.101029 0.152592 0.771359
v -0.080010 0.146416 0.771359
v -0.101029 0.152592 0.771359
v -0.080010 0.146416 0.897644
v -0.101029 0.152592 0.897644
v -0.121474 0.160463 0.897644
v -0.141210 0.208461 0.897644
v -0.141210 0.169975 0.897644
v -0.121474 0.217973 0.897644
v -0.121474 0.160463 0.897644
v -0.101029 0.152592 0.897644
v -0.121474 0.217973 0.771359
v -0.141210 0.208461 0.897644
v -0.121474 0.217973 0.897644
v -0.058558 0.141974 0.897644
v -0.080010 0.146416 0.771359
v -0.058558 0.141974 0.771359
v -0.080010 0.146416 0.771359
v -0.058558 0.141974 0.897644
v -0.080010 0.146416 0.897644
v -0.101029 0.225844 0.897644
v -0.101029 0.152592 0.897644
v -0.080010 0.146416 0.897644
v -0.141210 0.208461 0.897644
v -0.121474 0.160463 0.897644
v -0.121474 0.217973 0.897644
v -0.121474 0.217973 0.897644
v -0.101029 0.152592 0.897644
v -0.101029 0.225844 0.897644
v -0.121474 0.217973 0.897644
v -0.101029 0.225844 0.771359
v -0.121474 0.217973 0.771359
v -0.036814 0.139298 0.897644
v -0.058558 0.141974 0.771359
v -0.036814 0.139298 0.771359
v -0.058558 0.141974 0.771359
v -0.036814 0.139298 0.897644
v -0.058558 0.141974 0.897644
v -0.080010 0.232020 0.897644
v -0.080010 0.146416 0.897644
v -0.058558 0.141974 0.897644
v -0.101029 0.225844 0.897644
v -0.080010 0.146416 0.897644
v -0.080010 0.232020 0.897644
v -0.101029 0.225844 0.771359
v -0.121474 0.217973 0.897644
v -0.101029 0.225844 0.897644
v -0.101029 0.225844 0.897644
v -0.080010 0.232020 0.771359
v -0.101029 0.225844 0.771359
v -0.014925 0.138403 0.897644
v -0.036814 0.139298 0.771359
v -0.014925 0.138403 0.771359
v -0.036814 0.139298 0.771359
v -0.014925 0.138403 0.897644
v -0.036814 0.139298 0.897644
v -0.058558 0.236462 0.897644
v -0.058558 0.141974 0.897644
v -0.036814 0.139298 0.897644
v -0.080010 0.232020 0.897644
v -0.058558 0.141974 0.897644
v -0.058558 0.236462 0.897644
v -0.080010 0.232020 0.771359
v -0.101029 0.225844 0.897644
v -0.080010 0.232020 0.897644
v -0.080010 0.232020 0.897644
v -0.058558 0.236462 0.771359
v -0.080010 0.232020 0.771359
v 0.006965 0.139298 0.897644
v -0.014925 0.138403 0.771359
v 0.006965 0.139298 0.771359
v -0.014925 0.138403 0.771359
v 0.006965 0.139298 0.897644
v -0.014925 0.138403 0.897644
v -0.036814 0.239138 0.897644
v -0.036814 0.139298 0.897644
v -0.014925 0.138403 0.897644
v -0.058558 0.236462 0.897644
v -0.036814 0.139298 0.897644
v -0.036814 0.239138 0.897644
v -0.058558 0.236462 0.771359
v -0.080010 0.232020 0.897644
v -0.058558 0.236462 0.897644
v -0.058558 0.236462 0.897644
v -0.036814 0.239138 0.771359
v -0.058558 0.236462 0.771359
v 0.028708 0.141974 0.897644
v 0.006965 0.139298 0.771359
v 0.028708 0.141974 0.771359
v 0.006965 0.139298 0.771359
v 0.028708 0.141974 0.897644
v 0.006965 0.139298 0.897644
v -0.014925 0.240033 0.897644
v -0.014925 0.138403 0.897644
v 0.006965 0.139298 0.897644
v -0.036814 0.239138 0.897644
v -0.014925 0.138403 0.897644
v -0.014925 0.240033 0.897644
v -0.036814 0.239138 0.771359
v -0.058558 0.236462 0.897644
v -0.036814 0.239138 0.897644
v -0.036814 0.239138 0.897644
v -0.014925 0.240033 0.771359
v -0.036814 0.239138 0.771359
v 0.050161 0.146416 0.897644
v 0.028708 0.141974 0.771359
v 0.050161 0.146416 0.771359
v 0.028708 0.141974 0.771359
v 0.050161 0.146416 0.897644
v 0.028708 0.141974 0.897644
v 0.006965 0.239138 0.897644
v 0.006965 0.139298 0.897644
v 0.028708 0.141974 0.897644
v -0.014925 0.240033 0.897644
v 0.006965 0.139298 0.897644
v 0.006965 0.239138 0.897644
v -0.014925 0.240033 0.771359
v -0.036814 0.239138 0.897644
v -0.014925 0.240033 0.897644
v -0.014925 0.240033 0.897644
v 0.006965 0.239138 0.771359
v -0.014925 0.240033 0.771359
v 0.071180 0.152592 0.897644
v 0.050161 0.146416 0.771359
v 0.071180 0.152592 0.771359
v 0.050161 0.146416 0.771359
v 0.071180 0.152592 0.897644
v 0.050161 0.146416 0.897644
v 0.028708 0.236462 0.897644
v 0.028708 0.141974 0.897644
v 0.050161 0.146416 0.897644
v 0.006965 0.239138 0.897644
v 0.028708 0.141974 0.897644
v 0.028708 0.236462 0.897644
v 0.006965 0.239138 0.771359
v -0.014925 0.240033 0.897644
v 0.006965 0.239138 0.897644
v 0.006965 0.239138 0.897644
v 0.028708 0.236462 0.771359
v 0.006965 0.239138 0.771359
v 0.091625 0.160463 0.897644
v 0.071180 0.152592 0.771359
v 0.091625 0.160463 0.771359
v 0.071180 0.152592 0.771359
v 0.091625 0.160463 0.897644
v 0.071180 0.152592 0.897644
v 0.071180 0.225844 0.897644
v 0.050161 0.146416 0.897644
v 0.071180 0.152592 0.897644
v 0.028708 0.236462 0.897644
v 0.050161 0.146416 0.897644
v 0.050161 0.232020 0.897644
v 0.028708 0.236462 0.771359
v 0.006965 0.239138 0.897644
v 0.028708 0.236462 0.897644
v 0.028708 0.236462 0.897644
v 0.050161 0.232020 0.771359
v 0.028708 0.236462 0.771359
v 0.111360 0.169975 0.897644
v 0.091625 0.160463 0.771359
v 0.111360 0.169975 0.771359
v 0.091625 0.160463 0.771359
v 0.111360 0.169975 0.897644
v 0.091625 0.160463 0.897644
v 0.091625 0.217973 0.897644
v 0.071180 0.152592 0.897644
v 0.091625 0.160463 0.897644
v 0.050161 0.232020 0.897644
v 0.050161 0.146416 0.897644
v 0.071180 0.225844 0.897644
v 0.071180 0.225844 0.897644
v 0.071180 0.152592 0.897644
v 0.091625 0.217973 0.897644
v 0.050161 0.232020 0.771359
v 0.028708 0.236462 0.897644
v 0.050161 0.232020 0.897644
v 0.050161 0.232020 0.897644
v 0.071180 0.225844 0.771359
v 0.050161 0.232020 0.771359
v 0.111360 0.208461 0.771359
v 0.111360 0.169975 0.897644
v 0.111360 0.169975 0.771359
v 0.111360 0.208461 0.897644
v 0.091625 0.160463 0.897644
v 0.111360 0.169975 0.897644
v 0.091625 0.217973 0.897644
v 0.091625 0.160463 0.897644
v 0.111360 0.208461 0.897644
v 0.071180 0.225844 0.771359
v 0.050161 0.232020 0.897644
v 0.071180 0.225844 0.897644
v 0.091625 0.217973 0.771359
v 0.071180 0.225844 0.897644
v 0.091625 0.217973 0.897644
v 0.071180 0.225844 0.897644
v 0.091625 0.217973 0.771359
v 0.071180 0.225844 0.771359
v 0.111360 0.169975 0.897644
v 0.111360 0.208461 0.771359
v 0.111360 0.208461 0.897644
v 0.111360 0.208461 0.771359
v 0.091625 0.217973 0.897644
v 0.111360 0.208461 0.897644
v 0.091625 0.217973 0.897644
v 0.111360 0.208461 0.771359
v 0.091625 0.217973 0.771359
vn 0.39704794717267206 0.9177978686213905 0
vn 0.43418005521500597 0.9008261095536111 0
vn 1 0 0
vn 0.3208611089001734 0.9471262581067801 0
vn 0.43418005521500597 -0.9008261095536111 0
vn 0.39704794717267206 -0.9177978686213905 0
vn 0.24253584943015005 0.9701424440468501 0
vn 0 0 -1
vn 0.1625940107110096 0.9866930564673637 0
vn 0.3208611089001734 -0.9471262581067801 0
vn 0.08156897797084647 0.9966676988007545 0
vn 0.24253584943015005 -0.9701424440468501 0
vn 0 1 0
vn 0.1625940107110096 -0.9866930564673637 0
vn -0.08156897797084647 0.9966676988007545 0
vn 0.08156897797084647 -0.9966676988007545 0
vn -0.1625940107110096 0.9866930564673637 0
vn 0 -1 0
vn -0.24253584943015005 0.9701424440468501 0
vn -0.08156897797084647 -0.9966676988007545 0
vn -0.3208611089001734 0.9471262581067801 0
vn -0.1625940107110096 -0.9866930564673637 0
vn -0.39704794717267206 0.9177978686213905 0
vn -0.24253584943015005 -0.9701424440468501 0
vn -0.43418005521500597 0.9008261095536111 0
vn -0.3208611089001734 -0.9471262581067801 0
vn -1 0 0
vn -0.39704794717267206 -0.9177978686213905 0
vn -0.43418005521500597 -0.9008261095536111 0
vn 0 0 1
usemtl material_0_0
f 1//1 2//2 3//1
f 4//3 5//3 6//3
f 7//4 8//1 9//4
f 10//2 11//1 12//2
f 13//1 14//4 15//1
f 16//5 17//6 18//5
f 19//3 20//3 21//3
f 22//7 23//4 24//7
f 25//4 26//7 27//4
f 28//8 29//8 30//8
f 31//8 32//8 33//8
f 34//6 35//5 36//6
f 37//9 38//7 39//9
f 40//7 41//9 42//7
f 43//8 44//8 45//8
f 46//8 47//8 48//8
f 49//8 50//8 51//8
f 52//6 53//10 54//6
f 55//11 56//9 57//11
f 58//9 59//11 60//9
f 61//8 62//8 63//8
f 64//8 65//8 66//8
f 67//10 68//6 69//10
f 70//10 71//12 72//10
f 73//13 74//11 75//13
f 76//11 77//13 78//11
f 79//8 80//8 81//8
f 82//8 83//8 84//8
f 85//12 86//10 87//12
f 88//12 89//14 90//12
f 91//15 92//13 93//15
f 94//13 95//15 96//13
f 97//8 98//8 99//8
f 100//8 101//8 102//8
f 103//14 104//12 105//14
f 106//14 107//16 108//14
f 109//17 110//15 111//17
f 112//15 113//17 114//15
f 115//8 116//8 117//8
f 118//8 119//8 120//8
f 121//16 122//14 123//16
f 124//16 125//18 126//16
f 127//19 128//17 129//19
f 130//17 131//19 132//17
f 133//8 134//8 135//8
f 136//8 137//8 138//8
f 139//18 140//16 141//18
f 142//18 143//20 144//18
f 145//21 146//19 147//21
f 148//19 149//21 150//19
f 151//8 152//8 153//8
f 154//8 155//8 156//8
f 157//20 158//18 159//20
f 160//20 161//22 162//20
f 163//23 164//21 165//23
f 166//21 167//23 168//21
f 169//8 170//8 171//8
f 172//8 173//8 174//8
f 175//22 176//20 177//22
f 178//22 179//24 180//22
f 181//25 182//23 183//25
f 184//23 185//25 186//23
f 187//8 188//8 189//8
f 190//8 191//8 192//8
f 193//8 194//8 195//8
f 196//24 197//22 198//24
f 199//24 200//26 201//24
f 202//27 203//27 204//27
f 205//8 206//8 207//8
f 208//8 209//8 210//8
f 211//26 212//24 213//26
f 214//28 215//26 216//28
f 217//26 218//28 219//26
f 220//27 221//27 222//27
f 223//29 224//28 225//29
f 226//28 227//29 228//28
usemtl material_1_0
f 229//28 230//29 231//28
f 232//27 233//27 234//27
f 235//26 236//28 237//26
f 238//29 239//28 240//29
f 241//28 242//26 243//28
f 244//25 245//23 246//25
f 247//27 248//27 249//27
f 250//24 251//26 252//24
f 253//26 254//24 255//26
f 256//30 257//30 258//30
f 259//30 260//30 261//30
f 262//23 263//25 264//23
f 265//22 266//24 267//22
f 268//24 269//22 270//24
f 271//30 272//30 273//30
f 274//30 275//30 276//30
f 277//30 278//30 279//30
f 280//23 281//21 282//23
f 283//20 284//22 285//20
f 286//22 287//20 288//22
f 289//30 290//30 291//30
f 292//30 293//30 294//30
f 295//21 296//23 297//21
f 298//21 299//19 300//21
f 301//18 302//20 303//18
f 304//20 305//18 306//20
f 307//30 308//30 309//30
f 310//30 311//30 312//30
f 313//19 314//21 315//19
f 316//19 317//17 318//19
f 319//16 320//18 321//16
f 322//18 323//16 324//18
f 325//30 326//30 327//30
f 328//30 329//30 330//30
f 331//17 332//19 333//17
f 334//17 335//15 336//17
f 337//14 338//16 339//14
f 340//16 341//14 342//16
f 343//30 344//30 345//30
f 346//30 347//30 348//30
f 349//15 350//17 351//15
f 352//15 353//13 354//15
f 355//12 356//14 357//12
f 358//14 359//12 360//14
f 361//30 362//30 363//30
f 364//30 365//30 366//30
f 367//13 368//15 369//13
f 370//13 371//11 372//13
f 373//10 374//12 375//10
f 376//12 377//10 378//12
f 379//30 380//30 381//30
f 382//30 383//30 384//30
f 385//11 386//13 387//11
f 388//11 389//9 390//11
f 391//6 392//10 393//6
f 394//10 395//6 396//10
f 397//30 398//30 399//30
f 400//30 401//30 402//30
f 403//9 404//11 405//9
f 406//9 407//7 408//9
f 409//5 410//6 411//5
f 412//6 413//5 414//6
f 415//30 416//30 417//30
f 418//30 419//30 420//30
f 421//30 422//30 423//30
f 424//7 425//9 426//7
f 427//7 428//4 429//7
f 430//3 431//3 432//3
f 433//30 434//30 435//30
f 436//30 437//30 438//30
f 439//4 440//7 441//4
f 442//1 443//4 444//1
f 445//4 446//1 447//4
f 448//3 449//3 450//3
f 451//2 452//1 453//2
f 454//1 455//2 456//1
