# SSTK version 0.8.0
# 11
mtllib original-11.mtl
o mesh11/mesh11-geometry#mesh11-geometry
v -0.129337 0.485612 0.630799
v -0.152951 0.484937 0.625141
v -0.129360 0.484937 0.625141
v -0.152922 0.485648 0.630777
v -0.105751 0.485522 0.630854
v -0.152852 0.487605 0.636114
v -0.105769 0.484937 0.625141
v -0.129284 0.487510 0.636170
v -0.082164 0.485405 0.630924
v -0.105709 0.487274 0.636312
v -0.152747 0.490624 0.640929
v -0.082178 0.484937 0.625141
v -0.129203 0.490515 0.641014
v -0.058576 0.485287 0.630995
v -0.082129 0.486966 0.636496
v -0.105643 0.490242 0.641224
v -0.152613 0.494593 0.644995
v -0.058587 0.484937 0.625141
v -0.129093 0.494522 0.645063
v -0.034990 0.485197 0.631050
v -0.058548 0.486659 0.636681
v -0.082076 0.489887 0.641498
v -0.105556 0.494345 0.645232
v -0.152452 0.499392 0.648031
v -0.034997 0.484937 0.625141
v -0.128956 0.499366 0.648053
v -0.011406 0.484937 0.625141
v -0.034973 0.486423 0.636822
v -0.058509 0.489532 0.641772
v -0.082009 0.494115 0.645452
v -0.105446 0.499301 0.648110
v -0.152272 0.504802 0.649748
v -0.011406 0.485161 0.631071
v -0.128794 0.504802 0.649748
v 0.012185 0.484937 0.625141
v -0.011406 0.486328 0.636879
v -0.034950 0.489259 0.641982
v -0.058462 0.493884 0.645673
v -0.081929 0.499216 0.648184
v -0.105317 0.504802 0.649748
v 0.012180 0.485197 0.631050
v 0.012163 0.486423 0.636822
v 0.035766 0.485287 0.630995
v 0.012140 0.489259 0.641982
v -0.011406 0.489149 0.642066
v -0.034925 0.493707 0.645842
v -0.058411 0.499131 0.648257
v -0.081839 0.504802 0.649748
v 0.035739 0.486659 0.636681
v 0.035776 0.484937 0.625141
v 0.035700 0.489532 0.641772
v 0.059367 0.484937 0.625141
v 0.059319 0.486966 0.636496
v 0.012115 0.493707 0.645842
v -0.011406 0.493636 0.645910
v -0.034901 0.499066 0.648314
v -0.058361 0.504802 0.649748
v 0.059267 0.489887 0.641498
v 0.059354 0.485405 0.630924
v 0.035653 0.493884 0.645673
v 0.059199 0.494115 0.645452
v 0.082958 0.484937 0.625141
v 0.082899 0.487274 0.636312
v 0.082834 0.490242 0.641224
v 0.012092 0.499066 0.648314
v 0.035602 0.499131 0.648257
v -0.011406 0.499040 0.648337
v -0.034883 0.504802 0.649748
v 0.082746 0.494345 0.645232
v 0.082942 0.485522 0.630854
v 0.059119 0.499216 0.648184
v 0.082636 0.499301 0.648110
v 0.106549 0.484937 0.625141
v 0.106475 0.487510 0.636170
v 0.106393 0.490515 0.641014
v 0.106284 0.494522 0.645063
v 0.012074 0.504802 0.649748
v 0.035551 0.504802 0.649748
v 0.059029 0.504802 0.649748
v -0.011406 0.504802 0.649748
v 0.106146 0.499366 0.648053
v 0.106528 0.485612 0.630799
v 0.082507 0.504802 0.649748
v 0.105985 0.504802 0.649748
v 0.130140 0.484937 0.625141
v 0.130042 0.487605 0.636114
v 0.129938 0.490624 0.640929
v 0.129803 0.494593 0.644995
v 0.129642 0.499392 0.648031
v 0.129462 0.504802 0.649748
v 0.130112 0.485648 0.630777
vn -0.000815000382648067 -0.9925394660038401 0.12192105724274228
vn 0.000815000382648067 0.9925394660038401 -0.12192105724274228
vn -0.0020280009561682005 -0.9939074686105857 0.11019905195699188
vn 0.0020280009561682005 0.9939074686105857 -0.11019905195699188
vn -0.003170999510483331 -0.940867854755418 0.338758947704769
vn 0.003170999510483331 0.940867854755418 -0.338758947704769
vn -0.007893002355311719 -0.9476052827701965 0.3193460952944858
vn 0.007893002355311719 0.9476052827701965 -0.3193460952944858
vn -0.0026119987767568554 -0.9958285336366779 0.09120695728624138
vn 0.0026119987767568554 0.9958285336366779 -0.09120695728624138
vn -0.005254001814572292 -0.8484532930299401 0.5292441827848303
vn 0.005254001814572292 0.8484532930299401 -0.5292441827848303
vn -0.010179001222574464 -0.9577001150269735 0.2875880345414819
vn 0.010179001222574464 0.9577001150269735 -0.2875880345414819
vn -0.013122998125845716 -0.8527098782206738 0.5222199254194279
vn 0.013122998125845716 0.8527098782206738 -0.5222199254194279
vn -0.0025849987797296418 -0.9975335291059296 0.07014396688795202
vn 0.0025849987797296418 0.9975335291059296 -0.07014396688795202
vn -0.004994996971007283 -0.7130645675938555 0.7010805748610123
vn 0.004994996971007283 0.7130645675938555 -0.7010805748610123
vn -0.010075997925019732 -0.9676688007250812 0.2520229481001635
vn 0.010075997925019732 0.9676688007250812 -0.2520229481001635
vn -0.017041001245859128 -0.8595900628442019 0.5107000373370257
vn 0.017041001245859128 0.8595900628442019 -0.5107000373370257
vn -0.01246499423071587 -0.7044766739407962 0.7096176715613425
vn 0.01246499423071587 0.7044766739407962 -0.7096176715613425
vn -0.001970000651221253 -0.9986513301232262 0.0518810171502588
vn 0.001970000651221253 0.9986513301232262 -0.0518810171502588
vn -0.0027259997173124813 -0.5299029450488025 0.8480539120563898
vn 0.0027259997173124813 0.5299029450488025 -0.8480539120563898
vn -0.00767500233403764 -0.9752512965827417 0.22096606719777995
vn 0.00767500233403764 0.9752512965827417 -0.22096606719777995
vn -0.017021005199075345 -0.8671172648614426 0.4978131520572994
vn 0.017021005199075345 0.8671172648614426 -0.4978131520572994
vn -0.01616699827001811 -0.6905699261041879 0.7230849226248558
vn 0.01616699827001811 0.6905699261041879 -0.7230849226248558
vn -0.006775001534937746 -0.5135111163405782 0.8580561944003754
vn 0.006775001534937746 0.5135111163405782 -0.8580561944003754
vn -0.0007830001705476349 -0.9991612176303262 0.04094200891770277
vn 0.0007830001705476349 0.9991612176303262 -0.04094200891770277
vn -0.0006280002331887759 -0.30019911146980466 0.9538763541929567
vn 0.0006280002331887759 0.30019911146980466 -0.9538763541929567
vn -0.0030510008712896983 -0.9793202796694288 0.2022930577698482
vn 0.0030510008712896983 0.9793202796694288 -0.2022930577698482
vn -0.01308200012369685 -0.8735570082599183 0.4865460046005357
vn 0.01308200012369685 0.8735570082599183 -0.4865460046005357
vn -0.016126001969581624 -0.6749610824377269 0.7376770900976723
vn 0.016126001969581624 0.6749610824377269 -0.7376770900976723
vn -0.008721997649033822 -0.4867338688035804 0.8735067645510876
vn 0.008721997649033822 0.4867338688035804 -0.8735067645510876
vn -0.001561000032604608 -0.2915280060891455 0.9565610199796901
vn 0.001561000032604608 0.2915280060891455 -0.9565610199796901
vn -0.0007830001705476349 0.9991612176303262 -0.04094200891770277
vn 0.0007830001705476349 -0.9991612176303262 0.04094200891770277
vn -0.0030510008712896983 0.9793202796694288 -0.2022930577698482
vn 0.0030510008712896983 -0.9793202796694288 0.2022930577698482
vn -0.005232000384170106 -0.8773890644240493 0.47975103522668056
vn 0.005232000384170106 0.8773890644240493 -0.47975103522668056
vn -0.01237799846132824 -0.6612529178016386 0.7500609067621846
vn 0.01237799846132824 0.6612529178016386 -0.7500609067621846
vn -0.008620000139213003 -0.4566240073744778 0.889618014367331
vn 0.008620000139213003 0.4566240073744778 -0.889618014367331
vn -0.002009999358973117 -0.2775029114990631 0.9607226936073282
vn 0.002009999358973117 0.2775029114990631 -0.9607226936073282
vn -0.001970000651221253 0.9986513301232262 -0.0518810171502588
vn 0.001970000651221253 -0.9986513301232262 0.0518810171502588
vn -0.005231000411462663 0.8773890690141108 -0.47975103773649846
vn 0.005231000411462663 -0.8773890690141108 0.47975103773649846
vn -0.00767500233403764 0.9752512965827417 -0.22096606719777995
vn 0.00767500233403764 -0.9752512965827417 0.22096606719777995
vn -0.01308200012369685 0.8735570082599183 -0.4865460046005357
vn 0.01308200012369685 -0.8735570082599183 0.4865460046005357
vn -0.004946997398053197 -0.652974656558275 0.757363601653358
vn 0.004946997398053197 0.652974656558275 -0.757363601653358
vn -0.006560000619205048 -0.43019304060635327 0.9027130852079949
vn 0.006560000619205048 0.43019304060635327 -0.9027130852079949
vn -0.0019890005412061262 -0.26193207127159535 0.9650842625989811
vn 0.0019890005412061262 0.26193207127159535 -0.9650842625989811
vn -0.002584998961050352 0.9975335990763643 -0.07014297180849316
vn 0.002584998961050352 -0.9975335990763643 0.07014297180849316
vn -0.010075997925019732 0.9676688007250812 -0.2520229481001635
vn 0.010075997925019732 -0.9676688007250812 0.2520229481001635
vn -0.004945997423044512 0.6529746597882108 -0.7573636053996532
vn 0.004945997423044512 -0.6529746597882108 0.7573636053996532
vn -0.017021005199075345 0.8671172648614426 -0.4978131520572994
vn 0.017021005199075345 -0.8671172648614426 0.4978131520572994
vn -0.01237799846132824 0.6612529178016386 -0.7500609067621846
vn 0.01237799846132824 -0.6612529178016386 0.7500609067621846
vn -0.002606999894488199 -0.4142399832346726 0.9101639631633897
vn 0.002606999894488199 0.4142399832346726 -0.9101639631633897
vn -0.0015150004912647438 -0.24840408054925903 0.9686553141030035
vn 0.0015150004912647438 0.24840408054925903 -0.9686553141030035
vn -0.016126001969581624 0.6749610824377269 -0.7376770900976723
vn 0.016126001969581624 -0.6749610824377269 0.7376770900976723
vn -0.0026119990149879313 0.9958286244626403 -0.09120596560527917
vn 0.0026119990149879313 -0.9958286244626403 0.09120596560527917
vn -0.010179001222574464 0.9577001150269735 -0.2875880345414819
vn 0.010179001222574464 -0.9577001150269735 0.2875880345414819
vn -0.017041001245859128 0.8595900628442019 -0.5107000373370257
vn 0.017041001245859128 -0.8595900628442019 0.5107000373370257
vn -0.002606999894488199 0.4142399832346726 -0.9101639631633897
vn 0.002606999894488199 -0.4142399832346726 0.9101639631633897
vn -0.006560000619205048 0.43019304060635327 -0.9027130852079949
vn 0.006560000619205048 -0.43019304060635327 0.9027130852079949
vn -0.01616699827001811 0.6905699261041879 -0.7230849226248558
vn 0.01616699827001811 -0.6905699261041879 0.7230849226248558
vn -0.008620000139213003 0.4566240073744778 -0.889618014367331
vn 0.008620000139213003 -0.4566240073744778 0.889618014367331
vn -0.0006030001152821762 -0.2402850459379398 0.9707021855798323
vn 0.0006030001152821762 0.2402850459379398 -0.9707021855798323
vn -0.008721997649033822 0.4867338688035804 -0.8735067645510876
vn 0.008721997649033822 -0.4867338688035804 0.8735067645510876
vn -0.0020279991640061892 0.9939075902855342 -0.11019795457354735
vn 0.0020279991640061892 -0.9939075902855342 0.11019795457354735
vn -0.007893002355311719 0.9476052827701965 -0.3193460952944858
vn 0.007893002355311719 -0.9476052827701965 0.3193460952944858
vn -0.013122998125845716 0.8527098782206738 -0.5222199254194279
vn 0.013122998125845716 -0.8527098782206738 0.5222199254194279
vn -0.01246499423071587 0.7044766739407962 -0.7096176715613425
vn 0.01246499423071587 -0.7044766739407962 0.7096176715613425
vn -0.0006030001152821762 0.2402850459379398 -0.9707021855798323
vn 0.0006030001152821762 -0.2402850459379398 0.9707021855798323
vn -0.0015150004912647438 0.24840408054925903 -0.9686553141030035
vn 0.0015150004912647438 -0.24840408054925903 0.9686553141030035
vn -0.0019890005412061262 0.26193207127159535 -0.9650842625989811
vn 0.0019890005412061262 -0.26193207127159535 0.9650842625989811
vn -0.006775001534937746 0.5135111163405782 -0.8580561944003754
vn 0.006775001534937746 -0.5135111163405782 0.8580561944003754
vn -0.002009999358973117 0.2775029114990631 -0.9607226936073282
vn 0.002009999358973117 -0.2775029114990631 0.9607226936073282
vn -0.001561000032604608 0.2915280060891455 -0.9565610199796901
vn 0.001561000032604608 -0.2915280060891455 0.9565610199796901
vn -0.000815000382648067 0.9925394660038401 -0.12192105724274228
vn 0.000815000382648067 -0.9925394660038401 0.12192105724274228
vn -0.003170999510483331 0.940867854755418 -0.338758947704769
vn 0.003170999510483331 -0.940867854755418 0.338758947704769
vn -0.005254001814572292 0.8484532930299401 -0.5292441827848303
vn 0.005254001814572292 -0.8484532930299401 0.5292441827848303
vn -0.004994996971007283 0.7130645675938555 -0.7010805748610123
vn 0.004994996971007283 -0.7130645675938555 0.7010805748610123
vn -0.0027259997173124813 0.5299029450488025 -0.8480539120563898
vn 0.0027259997173124813 -0.5299029450488025 0.8480539120563898
vn -0.0006280002331887759 0.30019911146980466 -0.9538763541929567
vn 0.0006280002331887759 -0.30019911146980466 0.9538763541929567
usemtl material_0_0
f 1//1 2//1 3//1
f 2//1 1//1 4//1
f 3//2 2//2 1//2
f 4//2 1//2 2//2
f 3//3 5//3 1//3
f 1//4 5//4 3//4
f 1//5 6//5 4//5
f 4//6 6//6 1//6
f 5//3 3//3 7//3
f 7//4 3//4 5//4
f 5//7 8//7 1//7
f 1//8 8//8 5//8
f 6//5 1//5 8//5
f 8//6 1//6 6//6
f 7//9 9//9 5//9
f 5//10 9//10 7//10
f 8//7 5//7 10//7
f 10//8 5//8 8//8
f 8//11 11//11 6//11
f 6//12 11//12 8//12
f 9//9 7//9 12//9
f 12//10 7//10 9//10
f 9//13 10//13 5//13
f 5//14 10//14 9//14
f 10//15 13//15 8//15
f 8//16 13//16 10//16
f 11//11 8//11 13//11
f 13//12 8//12 11//12
f 12//17 14//17 9//17
f 9//18 14//18 12//18
f 10//13 9//13 15//13
f 15//14 9//14 10//14
f 13//15 10//15 16//15
f 16//16 10//16 13//16
f 13//19 17//19 11//19
f 11//20 17//20 13//20
f 14//17 12//17 18//17
f 18//18 12//18 14//18
f 14//21 15//21 9//21
f 9//22 15//22 14//22
f 15//23 16//23 10//23
f 10//24 16//24 15//24
f 16//25 19//25 13//25
f 13//26 19//26 16//26
f 17//19 13//19 19//19
f 19//20 13//20 17//20
f 18//27 20//27 14//27
f 14//28 20//28 18//28
f 15//21 14//21 21//21
f 21//22 14//22 15//22
f 16//23 15//23 22//23
f 22//24 15//24 16//24
f 19//25 16//25 23//25
f 23//26 16//26 19//26
f 19//29 24//29 17//29
f 17//30 24//30 19//30
f 20//27 18//27 25//27
f 25//28 18//28 20//28
f 20//31 21//31 14//31
f 14//32 21//32 20//32
f 21//33 22//33 15//33
f 15//34 22//34 21//34
f 22//35 23//35 16//35
f 16//36 23//36 22//36
f 23//37 26//37 19//37
f 19//38 26//38 23//38
f 24//29 19//29 26//29
f 26//30 19//30 24//30
f 27//39 20//39 25//39
f 25//40 20//40 27//40
f 21//31 20//31 28//31
f 28//32 20//32 21//32
f 22//33 21//33 29//33
f 29//34 21//34 22//34
f 23//35 22//35 30//35
f 30//36 22//36 23//36
f 26//37 23//37 31//37
f 31//38 23//38 26//38
f 26//41 32//41 24//41
f 24//42 32//42 26//42
f 20//39 27//39 33//39
f 33//40 27//40 20//40
f 33//43 28//43 20//43
f 20//44 28//44 33//44
f 28//45 29//45 21//45
f 21//46 29//46 28//46
f 29//47 30//47 22//47
f 22//48 30//48 29//48
f 30//49 31//49 23//49
f 23//50 31//50 30//50
f 31//51 34//51 26//51
f 26//52 34//52 31//52
f 32//41 26//41 34//41
f 34//42 26//42 32//42
f 33//53 35//53 27//53
f 27//54 35//54 33//54
f 28//43 33//43 36//43
f 36//44 33//44 28//44
f 29//45 28//45 37//45
f 37//46 28//46 29//46
f 30//47 29//47 38//47
f 38//48 29//48 30//48
f 31//49 30//49 39//49
f 39//50 30//50 31//50
f 34//51 31//51 40//51
f 40//52 31//52 34//52
f 35//53 33//53 41//53
f 41//54 33//54 35//54
f 42//55 33//55 36//55
f 36//56 33//56 42//56
f 36//57 37//57 28//57
f 28//58 37//58 36//58
f 37//59 38//59 29//59
f 29//60 38//60 37//60
f 38//61 39//61 30//61
f 30//62 39//62 38//62
f 39//63 40//63 31//63
f 31//64 40//64 39//64
f 33//55 42//55 41//55
f 41//56 42//56 33//56
f 43//65 35//65 41//65
f 41//66 35//66 43//66
f 36//67 44//67 42//67
f 42//68 44//68 36//68
f 37//57 36//57 45//57
f 45//58 36//58 37//58
f 38//59 37//59 46//59
f 46//60 37//60 38//60
f 39//61 38//61 47//61
f 47//62 38//62 39//62
f 40//63 39//63 48//63
f 48//64 39//64 40//64
f 49//69 41//69 42//69
f 42//70 41//70 49//70
f 35//65 43//65 50//65
f 50//66 43//66 35//66
f 41//69 49//69 43//69
f 43//70 49//70 41//70
f 44//67 36//67 45//67
f 45//68 36//68 44//68
f 51//71 42//71 44//71
f 44//72 42//72 51//72
f 45//73 46//73 37//73
f 37//74 46//74 45//74
f 46//75 47//75 38//75
f 38//76 47//76 46//76
f 47//77 48//77 39//77
f 39//78 48//78 47//78
f 42//71 51//71 49//71
f 49//72 51//72 42//72
f 43//79 52//79 50//79
f 50//80 52//80 43//80
f 53//81 43//81 49//81
f 49//82 43//82 53//82
f 45//83 54//83 44//83
f 44//84 54//84 45//84
f 46//73 45//73 55//73
f 55//74 45//74 46//74
f 47//75 46//75 56//75
f 56//76 46//76 47//76
f 48//77 47//77 57//77
f 57//78 47//78 48//78
f 58//85 49//85 51//85
f 51//86 49//86 58//86
f 52//79 43//79 59//79
f 59//80 43//80 52//80
f 43//81 53//81 59//81
f 59//82 53//82 43//82
f 49//85 58//85 53//85
f 53//86 58//86 49//86
f 54//83 45//83 55//83
f 55//84 45//84 54//84
f 60//87 44//87 54//87
f 54//88 44//88 60//88
f 55//89 56//89 46//89
f 46//90 56//90 55//90
f 56//91 57//91 47//91
f 47//92 57//92 56//92
f 51//93 61//93 58//93
f 58//94 61//94 51//94
f 59//95 62//95 52//95
f 52//96 62//96 59//96
f 63//97 59//97 53//97
f 53//98 59//98 63//98
f 64//99 53//99 58//99
f 58//100 53//100 64//100
f 55//101 65//101 54//101
f 54//102 65//102 55//102
f 44//87 60//87 51//87
f 51//88 60//88 44//88
f 54//103 66//103 60//103
f 60//104 66//104 54//104
f 56//89 55//89 67//89
f 67//90 55//90 56//90
f 57//91 56//91 68//91
f 68//92 56//92 57//92
f 61//93 51//93 60//93
f 60//94 51//94 61//94
f 69//105 58//105 61//105
f 61//106 58//106 69//106
f 62//95 59//95 70//95
f 70//96 59//96 62//96
f 59//97 63//97 70//97
f 70//98 63//98 59//98
f 53//99 64//99 63//99
f 63//100 64//100 53//100
f 58//105 69//105 64//105
f 64//106 69//106 58//106
f 65//101 55//101 67//101
f 67//102 55//102 65//102
f 66//103 54//103 65//103
f 65//104 54//104 66//104
f 71//107 60//107 66//107
f 66//108 60//108 71//108
f 67//109 68//109 56//109
f 56//110 68//110 67//110
f 60//107 71//107 61//107
f 61//108 71//108 60//108
f 61//111 72//111 69//111
f 69//112 72//112 61//112
f 70//113 73//113 62//113
f 62//114 73//114 70//114
f 74//115 70//115 63//115
f 63//116 70//116 74//116
f 75//117 63//117 64//117
f 64//118 63//118 75//118
f 76//119 64//119 69//119
f 69//120 64//120 76//120
f 67//121 77//121 65//121
f 65//122 77//122 67//122
f 65//123 78//123 66//123
f 66//124 78//124 65//124
f 66//125 79//125 71//125
f 71//126 79//126 66//126
f 68//109 67//109 80//109
f 80//110 67//110 68//110
f 72//111 61//111 71//111
f 71//112 61//112 72//112
f 81//127 69//127 72//127
f 72//128 69//128 81//128
f 73//113 70//113 82//113
f 82//114 70//114 73//114
f 70//115 74//115 82//115
f 82//116 74//116 70//116
f 63//117 75//117 74//117
f 74//118 75//118 63//118
f 64//119 76//119 75//119
f 75//120 76//120 64//120
f 69//127 81//127 76//127
f 76//128 81//128 69//128
f 77//121 67//121 80//121
f 80//122 67//122 77//122
f 78//123 65//123 77//123
f 77//124 65//124 78//124
f 79//125 66//125 78//125
f 78//126 66//126 79//126
f 83//129 71//129 79//129
f 79//130 71//130 83//130
f 71//129 83//129 72//129
f 72//130 83//130 71//130
f 72//131 84//131 81//131
f 81//132 84//132 72//132
f 82//133 85//133 73//133
f 73//134 85//134 82//134
f 86//135 82//135 74//135
f 74//136 82//136 86//136
f 87//137 74//137 75//137
f 75//138 74//138 87//138
f 88//139 75//139 76//139
f 76//140 75//140 88//140
f 89//141 76//141 81//141
f 81//142 76//142 89//142
f 84//131 72//131 83//131
f 83//132 72//132 84//132
f 90//143 81//143 84//143
f 84//144 81//144 90//144
f 85//133 82//133 91//133
f 91//134 82//134 85//134
f 82//135 86//135 91//135
f 91//136 86//136 82//136
f 74//137 87//137 86//137
f 86//138 87//138 74//138
f 75//139 88//139 87//139
f 87//140 88//140 75//140
f 76//141 89//141 88//141
f 88//142 89//142 76//142
f 81//143 90//143 89//143
f 89//144 90//144 81//144
