# SSTK version 0.8.0
# 4
mtllib original-4.mtl
o mesh4/mesh4-geometry#mesh4-geometry
v -0.050442 -0.606432 -0.482583
v -0.041256 -0.596053 -0.482583
v -0.051808 -0.596053 -0.482583
v 0.027024 -0.606432 -0.482583
v -0.046436 -0.616103 -0.482583
v -0.040436 -0.596053 -0.482475
v 0.023018 -0.616103 -0.482583
v 0.017019 -0.596053 -0.482475
v -0.040063 -0.624408 -0.482583
v 0.017838 -0.596053 -0.482583
v -0.019356 -0.624593 -0.482583
v 0.028390 -0.596053 -0.482583
v -0.031758 -0.630781 -0.482583
v -0.011709 -0.624781 -0.482475
v 0.008341 -0.630780 -0.482583
v -0.004062 -0.624593 -0.482583
v -0.022087 -0.634786 -0.482583
v 0.016646 -0.624408 -0.482583
v -0.001330 -0.634786 -0.482583
vn 0 0 1
vn 0 0 -1
usemtl material_0_0
f 1//1 2//1 3//1
f 2//1 1//1 4//1
f 3//2 2//2 1//2
f 4//2 1//2 2//2
f 5//1 4//1 1//1
f 1//2 4//2 5//2
f 2//1 4//1 6//1
f 6//2 4//2 2//2
f 4//1 5//1 7//1
f 7//2 5//2 4//2
f 6//1 4//1 8//1
f 8//2 4//2 6//2
f 9//1 7//1 5//1
f 5//2 7//2 9//2
f 8//1 4//1 10//1
f 10//2 4//2 8//2
f 7//1 9//1 11//1
f 11//2 9//2 7//2
f 10//1 4//1 12//1
f 12//2 4//2 10//2
f 13//1 11//1 9//1
f 9//2 11//2 13//2
f 7//1 11//1 14//1
f 14//2 11//2 7//2
f 11//1 13//1 15//1
f 15//2 13//2 11//2
f 11//1 15//1 14//1
f 14//2 15//2 11//2
f 7//1 14//1 16//1
f 16//2 14//2 7//2
f 17//1 15//1 13//1
f 13//2 15//2 17//2
f 14//1 15//1 16//1
f 16//2 15//2 14//2
f 7//1 16//1 18//1
f 18//2 16//2 7//2
f 15//1 17//1 19//1
f 19//2 17//2 15//2
f 16//1 15//1 18//1
f 18//2 15//2 16//2
