mtllib new-5.mtl
v 0.167663 -0.492283 -0.254281
v -0.164071 -0.492283 -0.264655
v -0.144764 -0.492297 -0.334544
v 0.148355 -0.492297 -0.184389
v -0.156640 -0.488407 -0.314678
v 0.154992 -0.492294 -0.320428
v -0.151400 -0.492294 -0.198504
v 0.160231 -0.488407 -0.204255
v 0.128482 -0.492263 -0.364585
v -0.124891 -0.492263 -0.154347
v -0.120366 -0.490020 -0.371924
v -0.090831 -0.492296 -0.391753
v 0.094423 -0.492296 -0.127180
v 0.123958 -0.490020 -0.147008
v 0.070042 -0.492296 -0.405830
v -0.066450 -0.492296 -0.113103
v -0.079921 -0.488869 -0.406521
v -0.040003 -0.492296 -0.415456
v 0.107270 -0.488842 -0.390536
v -0.103679 -0.488842 -0.128397
v 0.043595 -0.492296 -0.103477
v 0.083513 -0.488869 -0.112412
v 0.015654 -0.491890 -0.422196
v -0.054404 -0.488770 -0.100896
v -0.012062 -0.491890 -0.096737
v 0.030334 -0.488760 -0.093667
v -0.012645 -0.486120 -0.090558
vn 0.453148 -0.890738 0.035250
vn -0.453135 -0.890745 -0.035253
vn -0.285224 -0.946137 -0.153206
vn 0.285224 0.946137 0.153206
vn 0.453135 0.890745 0.035253
vn -0.453148 0.890738 -0.035250
vn 0.285222 -0.946138 0.153204
vn -0.285222 0.946138 -0.153204
vn -0.861283 -0.402236 -0.310479
vn 0.861283 0.402236 0.310479
vn 0.527667 -0.825760 -0.199219
vn -0.527667 0.825760 0.199219
vn -0.527656 -0.825768 0.199213
vn 0.527656 0.825768 -0.199213
vn 0.861283 -0.402237 0.310478
vn -0.861283 0.402237 -0.310478
vn 0.377315 -0.875051 -0.303182
vn -0.377315 0.875051 0.303182
vn -0.377313 -0.875052 0.303181
vn 0.377313 0.875052 -0.303181
vn -0.562229 -0.630831 -0.534744
vn 0.562229 0.630831 0.534744
vn -0.124823 -0.977796 -0.168327
vn 0.124823 0.977796 0.168327
vn 0.124823 -0.977796 0.168326
vn -0.124823 0.977796 -0.168326
vn 0.562230 -0.630830 0.534744
vn -0.562230 0.630830 -0.534744
vn 0.103216 -0.972632 -0.208169
vn -0.103216 0.972632 0.208169
vn -0.103215 -0.972632 0.208169
vn 0.103215 0.972632 -0.208169
vn -0.448086 -0.409089 -0.794900
vn 0.448086 0.409089 0.794900
vn -0.079112 -0.960001 -0.268587
vn 0.079112 0.960001 0.268587
vn 0.587285 -0.314604 -0.745735
vn -0.587285 0.314604 0.745735
vn -0.587284 -0.314604 0.745736
vn 0.587284 0.314604 -0.745736
vn 0.079113 -0.960000 0.268591
vn -0.079113 0.960000 -0.268591
vn 0.448086 -0.409088 0.794900
vn -0.448086 0.409088 -0.794900
vn 0.037948 -0.894431 -0.445593
vn -0.037948 0.894431 0.445593
vn -0.313438 -0.400029 0.861239
vn 0.313438 0.400029 -0.861239
vn -0.037950 -0.894428 0.445598
vn 0.037950 0.894428 -0.445598
vn 0.168647 -0.418802 0.892280
vn -0.168647 0.418802 -0.892280
vn -0.076762 -0.247442 0.965857
vn 0.076762 0.247442 -0.965857
usemtl material-0
f 1//1 2//2 3//3
f 3//4 2//5 1//6
f 4//7 2//2 1//1
f 1//6 2//5 4//8
f 2//2 5//9 3//3
f 3//4 5//10 2//5
f 1//1 3//3 6//11
f 6//12 3//4 1//6
f 4//7 7//13 2//2
f 2//5 7//14 4//8
f 4//7 1//1 8//15
f 8//16 1//6 4//8
f 6//11 3//3 9//17
f 9//18 3//4 6//12
f 10//19 7//13 4//7
f 4//8 7//14 10//20
f 3//3 12//23 9//17
f 9//18 12//24 3//4
f 13//25 10//19 4//7
f 4//8 10//20 13//26
f 3//3 11//21 12//23
f 12//24 11//22 3//4
f 9//17 12//23 15//29
f 15//30 12//24 9//18
f 16//31 10//19 13//25
f 13//26 10//20 16//32
f 13//25 4//7 14//27
f 14//28 4//8 13//26
f 11//21 17//33 12//23
f 12//24 17//34 11//22
f 12//23 18//35 15//29
f 15//30 18//36 12//24
f 9//17 15//29 19//37
f 19//38 15//30 9//18
f 16//31 20//39 10//19
f 10//20 20//40 16//32
f 21//41 16//31 13//25
f 13//26 16//32 21//42
f 15//29 18//35 23//45
f 23//46 18//36 15//30
f 25//49 16//31 21//41
f 21//42 16//32 25//50
f 21//41 13//25 22//43
f 22//44 13//26 21//42
f 25//49 24//47 16//31
f 16//32 24//48 25//50
f 26//51 25//49 21//41
f 21//42 25//50 26//52
f 26//51 21//41 22//43
f 22//44 21//42 26//52
f 27//53 24//47 25//49
f 25//50 24//48 27//54