# SSTK version 0.8.0
# 9
mtllib original-9.mtl
o mesh9/mesh9-geometry#mesh9-geometry
v -0.007975 0.217913 0.971199
v 0.011560 0.206380 0.839378
v -0.038642 0.208189 0.858689
v 0.042234 0.216341 0.951869
v -0.024164 0.204638 0.843036
v -0.051526 0.215588 0.945308
v 0.027755 0.215562 0.967901
v 0.055117 0.208586 0.865282
v -0.006424 0.187932 0.826168
v -0.052021 0.206501 0.864331
v -0.065487 0.210878 0.898631
v -0.032414 0.215264 0.964497
v 0.010016 0.202039 0.987414
v 0.055613 0.213699 0.946607
v 0.069079 0.212054 0.912067
v 0.036006 0.204935 0.846441
v 0.018768 0.188027 0.828243
v -0.040344 0.189018 0.836955
v -0.064293 0.211643 0.923110
v -0.043122 0.201467 0.973977
v 0.043936 0.201236 0.976602
v -0.015176 0.201773 0.985354
v 0.067885 0.208556 0.887828
v 0.046713 0.189702 0.839500
v 0.007815 0.178853 0.828047
v -0.020189 0.179356 0.829873
v -0.069576 0.190691 0.867210
v -0.079170 0.196134 0.909678
v -0.069653 0.198258 0.946982
v 0.023781 0.192950 0.985255
v -0.004224 0.192772 0.987140
v 0.073168 0.197629 0.946516
v 0.082762 0.195615 0.903749
v 0.073244 0.191229 0.866643
v 0.031046 0.179884 0.832798
v -0.047518 0.181118 0.844299
v -0.051667 0.192049 0.969499
v -0.027455 0.192962 0.982282
v 0.051110 0.192180 0.970741
v 0.055258 0.181204 0.845545
v 0.018909 0.163162 0.848030
v -0.015041 0.163195 0.847920
v -0.028593 0.163723 0.853462
v -0.074378 0.183115 0.883783
v -0.066238 0.181559 0.866000
v -0.071824 0.187766 0.940077
v 0.018633 0.173901 0.970288
v 0.032184 0.173458 0.964738
v -0.015318 0.173850 0.970185
v 0.069829 0.188847 0.949294
v 0.077969 0.187291 0.931511
v 0.075415 0.182096 0.875264
v 0.001737 0.163153 0.845592
v 0.032321 0.163542 0.853566
v -0.044682 0.165113 0.865168
v -0.078525 0.187286 0.908432
v -0.046298 0.172282 0.950759
v -0.028730 0.173262 0.964667
v 0.001855 0.174264 0.972587
v 0.048274 0.172795 0.952969
v 0.082117 0.187119 0.906512
v 0.049890 0.164992 0.867433
v 0.001796 0.061583 0.859865
v 0.018091 0.059234 0.862542
v -0.014621 0.061147 0.862300
v -0.030498 0.059580 0.870113
v -0.056025 0.166208 0.882404
v -0.061250 0.167662 0.899759
v -0.061361 0.169202 0.917950
v -0.056007 0.170873 0.935840
v 0.018213 0.070906 0.973846
v 0.034089 0.068006 0.966425
v -0.014499 0.068980 0.973941
v 0.001796 0.071759 0.976169
v 0.059617 0.170880 0.935804
v 0.064842 0.169299 0.918460
v 0.064953 0.167656 0.900278
v 0.059598 0.166195 0.882370
v 0.033096 0.059778 0.869309
v -0.042231 0.062725 0.879916
v -0.042434 0.066904 0.956005
v -0.029505 0.068341 0.967182
v 0.045823 0.069402 0.956224
v 0.046026 0.060304 0.880565
v -0.001594 0.056154 0.864236
v -0.045181 0.059314 0.894257
v -0.051303 0.064557 0.893860
v -0.055807 0.064203 0.926620
v -0.051303 0.068784 0.942174
v 0.005175 0.065652 0.972799
v 0.048772 0.063552 0.942694
v 0.054895 0.068784 0.942174
v 0.059398 0.062747 0.909973
v 0.054895 0.064557 0.893860
v 0.045686 0.058564 0.891728
v -0.055984 0.065947 0.909741
v -0.042094 0.063252 0.945314
v 0.059576 0.067395 0.926293
vn -0.06951098978223283 0.9409368616869963 0.33136995129027785
vn 0.06949600080212286 0.8691000100311526 -0.4897300056524636
vn -0.10503401871412285 0.972656173300111 -0.20714203690691405
vn 0.10503401871412285 -0.972656173300111 0.20714203690691405
vn -0.06949600080212286 -0.8691000100311526 0.4897300056524636
vn 0.06951098978223283 -0.9409368616869963 -0.33136995129027785
vn 0.10503696763969082 0.9938486938101724 0.035099989186221724
vn -0.10503696763969082 -0.9938486938101724 -0.035099989186221724
vn -0.23732592628373086 0.7597217640213403 -0.6053918119580676
vn 0.23732592628373086 -0.7597217640213403 0.6053918119580676
vn -0.33462092397380006 0.9237247901288278 0.18644395763975138
vn 0.33462092397380006 -0.9237247901288278 -0.18644395763975138
vn 0.23731695445959275 0.8533088362526098 0.4642679109083894
vn -0.23731695445959275 -0.8533088362526098 -0.4642679109083894
vn 0.3346129683973123 0.8773209171409913 -0.34400896750990234
vn -0.3346129683973123 -0.8773209171409913 0.34400896750990234
vn -0.10220603217645703 0.2596230817344219 -0.9602863023169012
vn 0.10220603217645703 -0.2596230817344219 0.9602863023169012
vn -0.45209514431941733 0.7631722436225536 -0.46171214738939104
vn 0.45209514431941733 -0.7631722436225536 0.46171214738939104
vn -0.48119022423517793 0.8620274017057248 -0.15926307421676894
vn 0.48119022423517793 -0.8620274017057248 0.15926307421676894
vn -0.3133129405402591 0.8247688434774455 0.47073491066511414
vn 0.3133129405402591 -0.8247688434774455 -0.47073491066511414
vn 0.10219997672579754 0.422441903796471 0.9006097949023536
vn -0.10219997672579754 -0.422441903796471 -0.9006097949023536
vn 0.45209917793655136 0.831749327358717 0.32217912680280264
vn -0.45209917793655136 -0.831749327358717 -0.32217912680280264
vn 0.48119005668780096 0.8765871032685413 0.007154000842795198
vn -0.48119005668780096 -0.8765871032685413 -0.007154000842795198
vn 0.3132939076182559 0.7305097845927855 -0.6067968210723307
vn -0.3132939076182559 -0.7305097845927855 0.6067968210723307
vn 0.21419006798415255 0.1823130578663563 -0.9596273045867145
vn -0.21419006798415255 -0.1823130578663563 0.9596273045867145
vn -0.49945803864082233 0.27572802133183716 -0.8212890635394413
vn 0.49945803864082233 -0.27572802133183716 0.8212890635394413
vn -0.6304289821557079 0.7688369782380695 0.10699999697136528
vn 0.6304289821557079 -0.7688369782380695 -0.10699999697136528
vn -0.47638088434164283 0.4978828791212707 0.7246888240560829
vn 0.47638088434164283 -0.4978828791212707 -0.7246888240560829
vn 0.4994567605377611 0.41415880143347383 0.7609306351753188
vn -0.4994567605377611 -0.41415880143347383 -0.7609306351753188
vn -0.21419201637776478 0.3461770264697348 0.9133910698406241
vn 0.21419201637776478 -0.3461770264697348 -0.9133910698406241
vn 0.6304273791448135 0.7385774441872557 -0.23888214366591415
vn -0.6304273791448135 -0.7385774441872557 0.23888214366591415
vn 0.4763770493171748 0.3644820377331873 -0.8001360828344922
vn -0.4763770493171748 -0.3644820377331873 0.8001360828344922
vn 0.04954799302342011 -0.5400209239626289 -0.8401918816972107
vn -0.04954799302342011 0.5400209239626289 0.8401918816972107
vn -0.2719319630366987 -0.5018969317779074 -0.8210678883934813
vn 0.2719319630366987 0.5018969317779074 0.8210678883934813
vn -0.8411978359424639 0.2222819566486878 -0.4929269038652147
vn 0.8411978359424639 -0.2222819566486878 0.4929269038652147
vn -0.9587817985000413 0.28413994028444606 -0.001398999705982692
vn 0.9587817985000413 -0.28413994028444606 0.001398999705982692
vn -0.814995938864712 0.3862909710231564 0.43192696759986376
vn 0.814995938864712 -0.3862909710231564 -0.43192696759986376
vn 0.2719309040069122 -0.3516928758505027 0.8957486837958438
vn -0.2719309040069122 0.3516928758505027 -0.8957486837958438
vn -0.04955000840514387 -0.3859210654636032 0.9212001562627352
vn 0.04955000840514387 0.3859210654636032 -0.9212001562627352
vn 0.8411969281844976 0.3045039740035832 0.44683896185201893
vn -0.8411969281844976 -0.3045039740035832 -0.44683896185201893
vn 0.9587815350510613 0.2800671562923604 -0.04796202676536033
vn -0.9587815350510613 -0.2800671562923604 0.04796202676536033
vn 0.814995180783066 0.30542206774903613 -0.49244310923423495
vn -0.814995180783066 -0.30542206774903613 0.49244310923423495
vn 0.32891910065008245 -0.45467513913175034 -0.8276972532774676
vn -0.32891910065008245 0.45467513913175034 0.8276972532774676
vn -0.5800208239576164 -0.47583585557884334 -0.6611777993256263
vn 0.5800208239576164 0.47583585557884334 0.6611777993256263
vn -0.6119189814643624 -0.33297498991385494 0.7174139782688134
vn 0.6119189814643624 0.33297498991385494 -0.7174139782688134
vn -0.3289200983954754 -0.30404109095299414 0.894075267459974
vn 0.3289200983954754 0.30404109095299414 -0.894075267459974
vn 0.5800223488006045 -0.3537912127548865 0.7337614412527116
vn -0.5800223488006045 0.3537912127548865 -0.7337614412527116
vn 0.6119210509304971 -0.4524930376612231 -0.6486930539910495
vn -0.6119210509304971 0.4524930376612231 0.6486930539910495
vn 0.21309194239475643 -0.4714538725516559 -0.8557587686623355
vn -0.21309194239475643 0.4714538725516559 0.8557587686623355
vn -0.20170197569854406 -0.5350759355329849 -0.8203719011599588
vn 0.20170197569854406 0.5350759355329849 0.8203719011599588
vn -0.44035897252622475 -0.4619969711762407 -0.7698329519705087
vn 0.44035897252622475 0.4619969711762407 0.7698329519705087
vn -0.8860269663225586 -0.4130569842999108 -0.2105709919963021
vn 0.8860269663225586 0.4130569842999108 0.2105709919963021
vn -0.7181280249269423 -0.5460350189534219 -0.43143701497561066
vn 0.7181280249269423 0.5460350189534219 0.43143701497561066
vn -0.81734391674004 -0.4431859548542003 0.36815096249775175
vn 0.81734391674004 0.4431859548542003 -0.36815096249775175
vn 0.20170198629636754 -0.3844899738777523 0.9008239387980236
vn -0.20170198629636754 0.3844899738777523 -0.9008239387980236
vn 0.44035878566554154 -0.3212978436157027 0.83836259194639
vn -0.44035878566554154 0.3212978436157027 -0.83836259194639
vn -0.2130930466679151 -0.3156890691367032 0.9246252024952532
vn 0.2130930466679151 0.3156890691367032 -0.9246252024952532
vn 0.7181294798391982 -0.4628203092469149 0.5196993472523062
vn -0.7181294798391982 0.4628203092469149 -0.5196993472523062
vn 0.8860272547377455 -0.3702161064391821 0.2790980802422446
vn -0.8860272547377455 0.3702161064391821 -0.2790980802422446
vn 0.8173453224309417 -0.5003801973927712 -0.2855981126643366
vn -0.8173453224309417 0.5003801973927712 0.2855981126643366
vn -0.030639011752422462 -0.40579515565371804 -0.9134503503786123
vn 0.030639011752422462 0.40579515565371804 0.9134503503786123
vn 0.4427059340819768 -0.47049592994410216 -0.7633118863443954
vn -0.4427059340819768 0.47049592994410216 0.7633118863443954
vn -0.653278867746973 -0.4516749085606822 -0.607631876987977
vn 0.653278867746973 0.4516749085606822 0.607631876987977
vn -0.8927020320560379 -0.4473430160636407 0.05447300195607097
vn 0.8927020320560379 0.4473430160636407 -0.05447300195607097
vn -0.6717479868817696 -0.35056799315393317 0.6525769872561503
vn 0.6717479868817696 0.35056799315393317 -0.6525769872561503
vn -0.4427080939672378 -0.33080007021414193 0.8334151768969738
vn 0.4427080939672378 0.33080007021414193 -0.8334151768969738
vn 0.03063699097111159 -0.24101092897276438 0.9700387141242979
vn -0.03063699097111159 0.24101092897276438 -0.9700387141242979
vn 0.6532789434485841 -0.33929897062841635 0.6768329414096204
vn -0.6532789434485841 0.33929897062841635 -0.6768329414096204
vn 0.892702384666433 -0.4500051939077298 0.02403701035757393
vn -0.892702384666433 0.4500051939077298 -0.02403701035757393
vn 0.6717499867510752 -0.4585609909558016 -0.581784988525455
vn -0.6717499867510752 0.4585609909558016 0.581784988525455
vn 0.01429299600083457 -0.3407929046464992 -0.9400297369806565
vn -0.01429299600083457 0.3407929046464992 0.9400297369806565
vn 0.2489550524710172 -0.45446609578555663 -0.8552671802604065
vn -0.2489550524710172 0.45446609578555663 0.8552671802604065
vn -0.24656297414799683 -0.3357169648002457 -0.9091209046791329
vn 0.24656297414799683 0.3357169648002457 0.9091209046791329
vn -0.48192715709406203 -0.5757031876622865 -0.6605392153163336
vn 0.48192715709406203 0.5757031876622865 0.6605392153163336
vn -0.8175211143981902 -0.43859806137434676 -0.37321705222538554
vn 0.8175211143981902 0.43859806137434676 0.37321705222538554
vn -0.9300787193925025 -0.3532138934343248 -0.10096296953917389
vn 0.9300787193925025 0.3532138934343248 0.10096296953917389
vn -0.9072476216664801 -0.37553884339564075 0.18939992101788183
vn 0.9072476216664801 0.37553884339564075 -0.18939992101788183
vn -0.8406855304486791 -0.30107383184007547 0.4501137485962377
vn 0.8406855304486791 0.30107383184007547 -0.4501137485962377
vn 0.24651488299642232 -0.1730409178694358 0.953565547408338
vn -0.24651488299642232 0.1730409178694358 -0.953565547408338
vn 0.4818749987290547 -0.45238899880682415 0.7504269980207486
vn -0.4818749987290547 0.45238899880682415 -0.7504269980207486
vn -0.24892692740072114 -0.2992119127351578 0.9211447313490994
vn 0.24892692740072114 0.2992119127351578 -0.9211447313490994
vn -0.014284994885951316 -0.17274693815634828 0.9848626474177579
vn 0.014284994885951316 0.17274693815634828 -0.9848626474177579
vn 0.817522786216593 -0.36712490399629955 0.4437068839699994
vn -0.817522786216593 0.36712490399629955 -0.4437068839699994
vn 0.930079302958036 -0.33031410759438795 0.16076405236624589
vn -0.930079302958036 0.33031410759438795 -0.16076405236624589
vn 0.9072474978595156 -0.40272277710226717 -0.12131093285720748
vn -0.9072474978595156 0.40272277710226717 0.12131093285720748
vn 0.8406850111415985 -0.3746620049653955 -0.39099500518185687
vn -0.8406850111415985 0.3746620049653955 0.39099500518185687
vn 0.43272408788410754 -0.6756651372242248 -0.5968471212166785
vn -0.43272408788410754 0.6756651372242248 0.5968471212166785
vn -0.7435026891940074 -0.4116388279228623 -0.5270267796873048
vn 0.7435026891940074 0.4116388279228623 0.5270267796873048
vn -0.7051059852520034 -0.45693599044272704 0.5422499886582992
vn 0.7051059852520034 0.45693599044272704 -0.5422499886582992
vn -0.43272090979024863 -0.561769882887283 0.7051008530069353
vn 0.43272090979024863 0.561769882887283 -0.7051008530069353
vn 0.7435063281577429 -0.3138651385291175 0.5904972606248808
vn -0.7435063281577429 0.3138651385291175 -0.5904972606248808
vn 0.7051081747300579 -0.5441501348436849 -0.4546681126695004
vn -0.7051081747300579 0.5441501348436849 0.4546681126695004
vn -0.02214198832797571 -0.9589144945136313 -0.2828298509078392
vn 0.02214198832797571 0.9589144945136313 0.2828298509078392
vn -0.39810792701089937 -0.9109458329872063 -0.10810998017911826
vn 0.39810792701089937 0.9109458329872063 0.10810998017911826
vn -0.8663384673273528 -0.3772122034788793 -0.3273661765905296
vn 0.8663384673273528 0.3772122034788793 0.3273661765905296
vn -0.8148830001552353 -0.5572770001061613 0.15939900003036542
vn 0.8148830001552353 0.5572770001061613 -0.15939900003036542
vn -0.9056603286383816 -0.16788406092035216 0.38935114128445825
vn 0.9056603286383816 0.16788406092035216 -0.38935114128445825
vn 0.022093008007722674 -0.8953553245260732 0.4448041612215213
vn -0.022093008007722674 0.8953553245260732 -0.4448041612215213
vn 0.398093943029576 -0.8783438743019738 0.26463796212819296
vn -0.398093943029576 0.8783438743019738 -0.26463796212819296
vn 0.8663381816117915 -0.3146380659580567 0.3878930813146169
vn -0.8663381816117915 0.3146380659580567 -0.3878930813146169
vn 0.8148845513858057 -0.5764876826292058 -0.060208966853467764
vn -0.8148845513858057 0.5764876826292058 0.060208966853467764
vn 0.9056588144368675 -0.2329439522714196 -0.35428692740909606
vn -0.9056588144368675 0.2329439522714196 0.35428692740909606
vn 0.15794106227411991 -0.9872193892478481 -0.021272008387278246
vn -0.15794106227411991 0.9872193892478481 0.021272008387278246
vn -0.877473541990081 -0.46200675884893605 -0.12880193276998123
vn 0.877473541990081 0.46200675884893605 0.12880193276998123
vn -0.1579370086123843 -0.9685290528143751 0.19237301049019653
vn 0.1579370086123843 0.9685290528143751 -0.19237301049019653
vn 0.8774730329495516 -0.4326230162452109 0.20707100777561993
vn -0.8774730329495516 0.4326230162452109 -0.20707100777561993
usemtl material_0_0
f 1//1 2//2 3//3
f 3//4 2//5 1//6
f 1//1 4//7 2//2
f 2//5 4//8 1//6
f 3//3 2//2 5//9
f 5//10 2//5 3//4
f 1//1 3//3 6//11
f 6//12 3//4 1//6
f 1//1 7//13 4//7
f 4//8 7//14 1//6
f 4//7 8//15 2//2
f 2//5 8//16 4//8
f 2//2 9//17 5//9
f 5//10 9//18 2//5
f 10//19 3//3 5//9
f 5//10 3//4 10//20
f 6//11 3//3 11//21
f 11//22 3//4 6//12
f 1//1 6//11 12//23
f 12//24 6//12 1//6
f 13//25 7//13 1//1
f 1//6 7//14 13//26
f 7//13 14//27 4//7
f 4//8 14//28 7//14
f 4//7 15//29 8//15
f 8//16 15//30 4//8
f 8//15 16//31 2//2
f 2//5 16//32 8//16
f 17//33 9//17 2//2
f 2//5 9//18 17//34
f 9//17 18//35 5//9
f 5//10 18//36 9//18
f 11//21 3//3 10//19
f 10//20 3//4 11//22
f 10//19 5//9 18//35
f 18//36 5//10 10//20
f 6//11 11//21 19//37
f 19//38 11//22 6//12
f 20//39 12//23 6//11
f 6//12 12//24 20//40
f 1//1 12//23 20//39
f 20//40 12//24 1//6
f 21//41 7//13 13//25
f 13//26 7//14 21//42
f 13//25 1//1 22//43
f 22//44 1//6 13//26
f 21//41 14//27 7//13
f 7//14 14//28 21//42
f 4//7 14//27 15//29
f 15//30 14//28 4//8
f 15//29 23//45 8//15
f 8//16 23//46 15//30
f 8//15 24//47 16//31
f 16//32 24//48 8//16
f 24//47 2//2 16//31
f 16//32 2//5 24//48
f 17//33 25//49 9//17
f 9//18 25//50 17//34
f 24//47 17//33 2//2
f 2//5 17//34 24//48
f 9//17 26//51 18//35
f 18//36 26//52 9//18
f 11//21 10//19 27//53
f 27//54 10//20 11//22
f 18//35 27//53 10//19
f 10//20 27//54 18//36
f 19//37 11//21 28//55
f 28//56 11//22 19//38
f 29//57 6//11 19//37
f 19//38 6//12 29//58
f 20//39 6//11 29//57
f 29//58 6//12 20//40
f 22//43 1//1 20//39
f 20//40 1//6 22//44
f 21//41 13//25 30//59
f 30//60 13//26 21//42
f 13//25 22//43 31//61
f 31//62 22//44 13//26
f 21//41 32//63 14//27
f 14//28 32//64 21//42
f 14//27 32//63 15//29
f 15//30 32//64 14//28
f 15//29 33//65 23//45
f 23//46 33//66 15//30
f 23//45 34//67 8//15
f 8//16 34//68 23//46
f 34//67 24//47 8//15
f 8//16 24//48 34//68
f 35//69 25//49 17//33
f 17//34 25//50 35//70
f 25//49 26//51 9//17
f 9//18 26//52 25//50
f 24//47 35//69 17//33
f 17//34 35//70 24//48
f 26//51 36//71 18//35
f 18//36 36//72 26//52
f 11//21 27//53 28//55
f 28//56 27//54 11//22
f 27//53 18//35 36//71
f 36//72 18//36 27//54
f 19//37 28//55 29//57
f 29//58 28//56 19//38
f 20//39 29//57 37//73
f 37//74 29//58 20//40
f 22//43 20//39 38//75
f 38//76 20//40 22//44
f 30//59 13//25 31//61
f 31//62 13//26 30//60
f 39//77 21//41 30//59
f 30//60 21//42 39//78
f 31//61 22//43 38//75
f 38//76 22//44 31//62
f 21//41 39//77 32//63
f 32//64 39//78 21//42
f 15//29 32//63 33//65
f 33//66 32//64 15//30
f 23//45 33//65 34//67
f 34//68 33//66 23//46
f 34//67 40//79 24//47
f 24//48 40//80 34//68
f 41//81 25//49 35//69
f 35//70 25//50 41//82
f 42//83 26//51 25//49
f 25//50 26//52 42//84
f 40//79 35//69 24//47
f 24//48 35//70 40//80
f 43//85 36//71 26//51
f 26//52 36//72 43//86
f 28//55 27//53 44//87
f 44//88 27//54 28//56
f 27//53 36//71 45//89
f 45//90 36//72 27//54
f 29//57 28//55 46//91
f 46//92 28//56 29//58
f 29//57 46//91 37//73
f 37//74 46//92 29//58
f 38//75 20//39 37//73
f 37//74 20//40 38//76
f 30//59 31//61 47//93
f 47//94 31//62 30//60
f 39//77 30//59 48//95
f 48//96 30//60 39//78
f 31//61 38//75 49//97
f 49//98 38//76 31//62
f 32//63 39//77 50//99
f 50//100 39//78 32//64
f 32//63 51//101 33//65
f 33//66 51//102 32//64
f 33//65 52//103 34//67
f 34//68 52//104 33//66
f 34//67 52//103 40//79
f 40//80 52//104 34//68
f 41//81 53//105 25//49
f 25//50 53//106 41//82
f 54//107 41//81 35//69
f 35//70 41//82 54//108
f 43//85 26//51 42//83
f 42//84 26//52 43//86
f 42//83 25//49 53//105
f 53//106 25//50 42//84
f 54//107 35//69 40//79
f 40//80 35//70 54//108
f 55//109 36//71 43//85
f 43//86 36//72 55//110
f 27//53 45//89 44//87
f 44//88 45//90 27//54
f 28//55 44//87 56//111
f 56//112 44//88 28//56
f 45//89 36//71 55//109
f 55//110 36//72 45//90
f 28//55 56//111 46//91
f 46//92 56//112 28//56
f 37//73 46//91 57//113
f 57//114 46//92 37//74
f 38//75 37//73 58//115
f 58//116 37//74 38//76
f 47//93 31//61 59//117
f 59//118 31//62 47//94
f 48//95 30//59 47//93
f 47//94 30//60 48//96
f 39//77 48//95 60//119
f 60//120 48//96 39//78
f 49//97 38//75 58//115
f 58//116 38//76 49//98
f 59//117 31//61 49//97
f 49//98 31//62 59//118
f 39//77 60//119 50//99
f 50//100 60//120 39//78
f 32//63 50//99 51//101
f 51//102 50//100 32//64
f 33//65 51//101 61//121
f 61//122 51//102 33//66
f 33//65 61//121 52//103
f 52//104 61//122 33//66
f 52//103 62//123 40//79
f 40//80 62//124 52//104
f 41//81 63//125 53//105
f 53//106 63//126 41//82
f 54//107 64//127 41//81
f 41//82 64//128 54//108
f 65//129 43//85 42//83
f 42//84 43//86 65//130
f 53//105 65//129 42//83
f 42//84 65//130 53//106
f 62//123 54//107 40//79
f 40//80 54//108 62//124
f 43//85 66//131 55//109
f 55//110 66//132 43//86
f 44//87 45//89 67//133
f 67//134 45//90 44//88
f 56//111 44//87 68//135
f 68//136 44//88 56//112
f 67//133 45//89 55//109
f 55//110 45//90 67//134
f 46//91 56//111 69//137
f 69//138 56//112 46//92
f 57//113 46//91 70//139
f 70//140 46//92 57//114
f 37//73 57//113 58//115
f 58//116 57//114 37//74
f 47//93 59//117 71//141
f 71//142 59//118 47//94
f 48//95 47//93 71//141
f 71//142 47//94 48//96
f 60//119 48//95 72//143
f 72//144 48//96 60//120
f 73//145 49//97 58//115
f 58//116 49//98 73//146
f 59//117 49//97 74//147
f 74//148 49//98 59//118
f 60//119 75//149 50//99
f 50//100 75//150 60//120
f 50//99 75//149 51//101
f 51//102 75//150 50//100
f 51//101 76//151 61//121
f 61//122 76//152 51//102
f 61//121 77//153 52//103
f 52//104 77//154 61//122
f 78//155 62//123 52//103
f 52//104 62//124 78//156
f 41//81 64//127 63//125
f 63//126 64//128 41//82
f 63//125 65//129 53//105
f 53//106 65//130 63//126
f 79//157 64//127 54//107
f 54//108 64//128 79//158
f 65//129 66//131 43//85
f 43//86 66//132 65//130
f 62//123 79//157 54//107
f 54//108 79//158 62//124
f 66//131 80//159 55//109
f 55//110 80//160 66//132
f 68//135 44//87 67//133
f 67//134 44//88 68//136
f 56//111 68//135 69//137
f 69//138 68//136 56//112
f 67//133 55//109 80//159
f 80//160 55//110 67//134
f 46//91 69//137 70//139
f 70//140 69//138 46//92
f 57//113 70//139 81//161
f 81//162 70//140 57//114
f 58//115 57//113 82//163
f 82//164 57//114 58//116
f 71//141 59//117 74//147
f 74//148 59//118 71//142
f 72//143 48//95 71//141
f 71//142 48//96 72//144
f 60//119 72//143 83//165
f 83//166 72//144 60//120
f 74//147 49//97 73//145
f 73//146 49//98 74//148
f 73//145 58//115 82//163
f 82//164 58//116 73//146
f 60//119 83//165 75//149
f 75//150 83//166 60//120
f 75//149 76//151 51//101
f 51//102 76//152 75//150
f 61//121 76//151 77//153
f 77//154 76//152 61//122
f 77//153 78//155 52//103
f 52//104 78//156 77//154
f 78//155 84//167 62//123
f 62//124 84//168 78//156
f 64//127 85//169 63//125
f 63//126 85//170 64//128
f 63//125 85//169 65//129
f 65//130 85//170 63//126
f 79//157 85//169 64//127
f 64//128 85//170 79//158
f 66//131 65//129 85//169
f 85//170 65//130 66//132
f 62//123 84//167 79//157
f 79//158 84//168 62//124
f 86//171 80//159 66//131
f 66//132 80//160 86//172
f 68//135 67//133 87//173
f 87//174 67//134 68//136
f 69//137 68//135 88//175
f 88//176 68//136 69//138
f 67//133 80//159 87//173
f 87//174 80//160 67//134
f 70//139 69//137 89//177
f 89//178 69//138 70//140
f 70//139 89//177 81//161
f 81//162 89//178 70//140
f 82//163 57//113 81//161
f 81//162 57//114 82//164
f 71//141 74//147 90//179
f 90//180 74//148 71//142
f 72//143 71//141 90//179
f 90//180 71//142 72//144
f 72//143 91//181 83//165
f 83//166 91//182 72//144
f 90//179 74//147 73//145
f 73//146 74//148 90//180
f 73//145 82//163 90//179
f 90//180 82//164 73//146
f 75//149 83//165 92//183
f 92//184 83//166 75//150
f 75//149 92//183 76//151
f 76//152 92//184 75//150
f 76//151 93//185 77//153
f 77//154 93//186 76//152
f 77//153 94//187 78//155
f 78//156 94//188 77//154
f 78//155 94//187 84//167
f 84//168 94//188 78//156
f 95//189 85//169 79//157
f 79//158 85//170 95//190
f 86//171 66//131 85//169
f 85//170 66//132 86//172
f 95//189 79//157 84//167
f 84//168 79//158 95//190
f 86//171 87//173 80//159
f 80//160 87//174 86//172
f 68//135 87//173 96//191
f 96//192 87//174 68//136
f 68//135 96//191 88//175
f 88//176 96//192 68//136
f 69//137 88//175 89//177
f 89//178 88//176 69//138
f 89//177 88//175 81//161
f 81//162 88//176 89//178
f 82//163 81//161 97//193
f 97//194 81//162 82//164
f 90//179 91//181 72//143
f 72//144 91//182 90//180
f 83//165 91//181 92//183
f 92//184 91//182 83//166
f 90//179 82//163 97//193
f 97//194 82//164 90//180
f 76//151 92//183 98//195
f 98//196 92//184 76//152
f 76//151 98//195 93//185
f 93//186 98//196 76//152
f 77//153 93//185 94//187
f 94//188 93//186 77//154
f 94//187 93//185 84//167
f 84//168 93//186 94//188
f 90//179 85//169 95//189
f 95//190 85//170 90//180
f 97//193 86//171 85//169
f 85//170 86//172 97//194
f 93//185 95//189 84//167
f 84//168 95//190 93//186
f 96//191 87//173 86//171
f 86//172 87//174 96//192
f 88//175 96//191 86//171
f 86//172 96//192 88//176
f 81//161 88//175 97//193
f 97//194 88//176 81//162
f 90//179 95//189 91//181
f 91//182 95//190 90//180
f 91//181 98//195 92//183
f 92//184 98//196 91//182
f 90//179 97//193 85//169
f 85//170 97//194 90//180
f 91//181 93//185 98//195
f 98//196 93//186 91//182
f 97//193 88//175 86//171
f 86//172 88//176 97//194
f 91//181 95//189 93//185
f 93//186 95//190 91//182
