mtllib new-20.mtl
v -0.305136 0.335574 0.605791
v 0.317398 0.335597 0.622675
v -0.305136 0.335597 0.622675
v 0.317398 0.335574 0.405302
v 0.317398 0.595277 0.622675
v -0.305136 0.595277 0.036278
v 0.346957 0.335574 0.395783
v 0.317398 0.335574 0.370378
v -0.305136 0.595277 0.622675
v -0.305136 0.335574 0.570867
v -0.306133 0.335551 0.606112
v 0.317398 0.595277 0.036278
v -0.343796 0.595277 0.622675
v -0.305136 0.335597 0.036278
v 0.385471 0.335551 0.383379
v 0.346957 0.335574 0.360859
v 0.317398 0.335597 0.036278
v 0.375281 0.335551 0.351737
v 0.346957 0.595277 0.007564
v 0.346957 0.612114 0.622675
v -0.305136 0.612114 0.622675
v -0.305136 0.553400 0.036278
v -0.316323 0.335551 0.574470
v 0.317398 0.553400 0.036278
v 0.346957 0.595277 0.622675
v -0.373801 0.595277 0.622675
v 0.346957 0.335597 0.622675
v 0.346957 0.335597 0.007564
v 0.317398 0.553400 0.007564
v 0.372212 0.612114 0.622675
v -0.373801 0.335597 0.622675
v -0.305136 0.553400 0.007564
v 0.317398 0.335597 0.007564
v 0.372212 0.335597 0.657304
v 0.346012 0.587514 0.657304
v -0.343796 0.335597 0.622675
v -0.305136 0.335597 0.007564
v 0.346012 0.363667 0.657304
v -0.349922 0.587514 0.657304
v -0.343796 0.335597 0.657304
v -0.349922 0.363667 0.657304
v 0.346957 0.335597 0.657304
vn 0.000018 -1.000000 0.000113
vn -0.000018 1.000000 -0.000113
vn 0.000000 0.000000 1.000000
vn 0.000000 0.000000 -1.000000
vn -1.000000 0.000000 0.000000
vn 1.000000 0.000000 0.000000
vn 0.306548 0.000000 0.951855
vn -0.306548 0.000000 -0.951855
vn -0.000001 -1.000000 -0.000003
vn 0.000001 1.000000 0.000003
vn 0.000360 1.000000 -0.000036
vn -0.000360 -1.000000 0.000036
vn -0.000008 -1.000000 -0.000050
vn 0.000008 1.000000 0.000050
usemtl material-0
f 1//1 2//1 3//1
f 2//1 1//1 4//1
f 3//2 2//2 1//2
f 4//2 1//2 2//2
f 5//3 3//3 2//3
f 2//4 3//4 5//4
f 3//5 6//5 1//5
f 1//6 6//6 3//6
f 1//7 7//7 4//7
f 4//8 7//8 1//8
f 1//9 8//9 4//9
f 4//10 8//10 1//10
f 3//3 5//3 9//3
f 9//4 5//4 3//4
f 6//5 3//5 9//5
f 9//6 3//6 6//6
f 11//7 7//7 1//7
f 1//8 7//8 11//8
f 7//11 8//11 4//11
f 4//12 8//12 7//12
f 8//9 1//9 10//9
f 10//10 1//10 8//10
f 12//6 4//6 8//6
f 8//5 4//5 12//5
f 5//6 4//6 12//6
f 12//5 4//5 5//5
f 10//5 6//5 14//5
f 14//6 6//6 10//6
f 11//7 15//7 7//7
f 7//8 15//8 11//8
f 8//11 7//11 16//11
f 16//12 7//12 8//12
f 10//13 17//13 8//13
f 8//14 17//14 10//14
f 18//8 10//8 8//8
f 8//7 10//7 18//7
f 21//3 13//3 9//3
f 9//4 13//4 21//4
f 14//5 6//5 22//5
f 22//6 6//6 14//6
f 17//13 10//13 14//13
f 14//14 10//14 17//14
f 16//11 7//11 15//11
f 15//12 7//12 16//12
f 16//8 18//8 8//8
f 8//7 18//7 16//7
f 18//8 23//8 10//8
f 10//7 23//7 18//7
f 12//6 17//6 24//6
f 24//5 17//5 12//5
f 20//3 5//3 25//3
f 25//4 5//4 20//4
f 13//3 21//3 26//3
f 26//4 21//4 13//4
f 27//5 19//5 7//5
f 7//6 19//6 27//6
f 16//5 19//5 28//5
f 28//6 19//6 16//6
f 17//4 22//4 24//4
f 24//3 22//3 17//3
f 29//6 12//6 24//6
f 24//5 12//5 29//5
f 19//5 27//5 25//5
f 25//6 27//6 19//6
f 27//3 30//3 25//3
f 25//4 30//4 27//4
f 13//3 31//3 36//3
f 36//4 31//4 13//4
f 37//3 29//3 32//3
f 32//4 29//4 37//4
f 29//3 37//3 33//3
f 33//4 37//4 29//4
f 38//4 34//4 41//4
f 38//4 39//4 35//4
f 35//3 39//3 38//3
f 39//4 38//4 41//4
f 41//3 38//3 39//3
f 40//4 41//4 42//4
usemtl material-3
f 41//3 34//3 38//3
f 42//3 41//3 40//3