mtllib new-2.mtl
v -0.366887 -0.841535 -0.501736
v -0.452583 -0.841535 -0.411075
v -0.452583 -0.841535 -0.501736
v -0.366887 -0.841535 -0.411075
v -0.383508 -0.668847 -0.501736
v -0.366887 -0.712019 -0.411075
v -0.366887 -0.668847 -0.501736
v -0.366887 -0.668847 -0.488785
v -0.409411 -0.712019 -0.411075
v -0.366887 -0.668847 -0.499124
vn 0.000000 -1.000000 0.000000
vn 0.000000 1.000000 0.000000
vn -1.000000 0.000000 0.000000
vn 1.000000 0.000000 0.000000
vn 0.000000 0.000000 -1.000000
vn 0.000000 0.000000 1.000000
usemtl material-0
f 1//1 2//1 3//1
f 2//1 1//1 4//1
f 3//2 2//2 1//2
f 4//2 1//2 2//2
f 3//5 5//5 1//5
f 1//6 5//6 3//6
f 1//4 6//4 4//4
f 4//3 6//3 1//3
f 6//6 2//6 4//6
f 4//5 2//5 6//5
f 7//5 1//5 5//5
f 5//6 1//6 7//6
f 6//4 1//4 8//4
f 8//3 1//3 6//3
f 2//6 6//6 9//6
f 9//5 6//5 2//5
f 10//4 1//4 7//4
f 7//3 1//3 10//3
f 8//4 1//4 10//4
f 10//3 1//3 8//3