# SSTK version 0.8.0
# 94
mtllib original-94.mtl
o mesh175/mesh175-geometry#mesh175-geometry
v -0.149367 0.274724 -0.378671
v -0.134948 0.257909 -0.368962
v -0.134865 0.275208 -0.378950
v -0.142204 0.257347 -0.368638
v -0.134948 0.191398 -0.330563
v -0.134865 0.273515 -0.381882
v -0.145231 0.254942 -0.367250
v -0.142204 0.255654 -0.371570
v -0.100035 0.174099 -0.320575
v -0.134948 0.235426 -0.355982
v -0.149367 0.273031 -0.381603
v -0.100035 0.273515 -0.381882
v -0.146392 0.248291 -0.363410
v -0.134948 0.256216 -0.371895
v -0.100035 0.275208 -0.378950
v -0.140421 0.174099 -0.320575
v -0.134948 0.233733 -0.358914
v -0.134948 0.219689 -0.346896
v -0.159868 0.273273 -0.377833
v -0.134948 0.189706 -0.333495
v -0.146392 0.210259 -0.341452
v -0.145231 0.253249 -0.370182
v -0.140992 0.191929 -0.330869
v -0.140421 0.172407 -0.323507
v -0.138431 0.235489 -0.356018
v -0.159868 0.271580 -0.380765
v -0.157920 0.174552 -0.320837
v -0.146392 0.200828 -0.336007
v -0.146040 0.241070 -0.359241
v -0.146392 0.246598 -0.366342
v -0.134948 0.217996 -0.349828
v -0.100035 0.172407 -0.323507
v -0.157920 0.172860 -0.323769
v -0.138431 0.233796 -0.358950
v -0.141251 0.219205 -0.346617
v -0.167550 0.270348 -0.376144
v -0.160573 0.228713 -0.352106
v -0.140992 0.190236 -0.333801
v -0.146392 0.208566 -0.344384
v -0.145936 0.215473 -0.344462
v -0.141251 0.217512 -0.349549
v -0.144361 0.193147 -0.331572
v -0.142640 0.235965 -0.356293
v -0.160573 0.227020 -0.355038
v -0.167550 0.268655 -0.379076
v -0.145884 0.195848 -0.333132
v -0.168286 0.175911 -0.321621
v -0.146392 0.199136 -0.338939
v -0.145936 0.213780 -0.347394
v -0.144983 0.237394 -0.357118
v -0.146040 0.239378 -0.362173
v -0.168286 0.174219 -0.324553
v -0.144361 0.191454 -0.334504
v -0.142640 0.234272 -0.359225
v -0.144568 0.218127 -0.345995
v -0.144568 0.216435 -0.348927
v -0.173593 0.263748 -0.376243
v -0.169644 0.230991 -0.353421
v -0.170732 0.225971 -0.350523
v -0.145884 0.194155 -0.336064
v -0.170732 0.224278 -0.353456
v -0.169644 0.229298 -0.356354
v -0.173593 0.265441 -0.373311
v -0.174163 0.178505 -0.323119
v -0.174163 0.176812 -0.326051
v -0.144983 0.235701 -0.360050
v -0.175879 0.260349 -0.374281
v -0.175127 0.232387 -0.358137
v -0.175127 0.234080 -0.355205
v -0.176993 0.221871 -0.348156
v -0.176993 0.220178 -0.351088
v -0.175879 0.262042 -0.371349
v -0.178196 0.182660 -0.325518
v -0.178196 0.180967 -0.328450
v -0.177512 0.256048 -0.371798
v -0.177895 0.237224 -0.360930
v -0.177895 0.238917 -0.357998
v -0.180227 0.215817 -0.344661
v -0.180227 0.214124 -0.347593
v -0.177512 0.257741 -0.368866
v -0.180528 0.188924 -0.329134
v -0.180528 0.187232 -0.332067
v -0.178818 0.244744 -0.365272
v -0.178818 0.246437 -0.362339
v -0.181306 0.205524 -0.342628
v -0.181306 0.207217 -0.339696
v -0.181306 0.197844 -0.334284
v -0.181306 0.196152 -0.337216
vt -3.414376 1.016217
vt -3.30698 0.849907
vt -3.306362 1.021001
vt -3.361025 0.844348
vt -3.30698 0.192094
vt -3.257955 0.1
vt -3.366075 0
vt -3.257955 0
vt -3.38357 0.820568
vt 3.256995 0.1
vt 3.202664 0
vt 3.256995 0
vt -3.046943 0.021001
vt -3.30698 0.627548
vt -3.366075 0.1
vt -3.306362 0
vt -3.046943 0.1
vt -3.306362 0.1
vt -3.392217 0.754787
vt 1.732426 0
vt 1.699658 0.1
vt 1.699658 0
vt 3.202664 0.1
vt -3.046943 1.021001
vt -3.347746 0.021001
vt 0.849907 0
vt 0.627548 0.1
vt 0.627548 0
vt -3.30698 0.471896
vt 3.306362 1.021001
vt 3.30698 0.849907
vt 3.414376 1.016217
vt -3.17493 0.1
vt -3.254448 0
vt -3.17493 0
vt -3.046943 0
vt 3.046943 1.021001
vt 3.30698 0.192094
vt -3.392217 0.378629
vt -0.306227 0
vt -0.372574 0.1
vt -0.372574 0
vt 1.732426 0.1
vt 3.361025 0.844348
vt 0.849907 0.1
vt -0.021001 0
vt -1.021001 0.1
vt -1.021001 0
vt -3.351992 0.197344
vt 3.347746 0.1
vt 3.046943 0
vt 3.347746 0
vt -3.32098 0.1
vt -3.346929 0
vt -3.32098 0
vt -3.332922 0.628166
vt 0.471896 0
vt 0.192094 0.1
vt 0.192094 0
vt -3.254448 0.1
vt -3.478073 0.025481
vt -3.492588 1.001867
vt 3.347746 0.021001
vt -3.392217 0.285361
vt -3.389592 0.683369
vt -0.306227 0.1
vt 3.38357 0.820568
vt 3.30698 0.471896
vt 3.30698 0.627548
vt -0.021001 0.1
vt -3.306966 0.1
vt -3.352284 0
vt -3.306966 0
vt 3.046943 0.1
vt 3.34649 0
vt 3.476895 0.1
vt 3.34649 0.1
vt -3.346929 0.1
vt -3.353922 0.467109
vt 0.471896 0.1
vt 3.478073 0.025481
vt 3.492588 1.001867
vt -2.664578 0.1
vt -2.728689 0
vt -2.664578 0
vt -3.497838 0.561149
vt 3.046943 0.021001
vt 3.351992 0.197344
vt -0.285361 0
vt -0.378629 0.1
vt -0.378629 0
vt -3.38882 0.430204
vt -0.807415 0
vt -0.87888 0.1
vt -0.87888 0
vt 3.392217 0.754787
vt 3.353922 0.467109
vt -3.352284 0.1
vt -3.377085 0.209389
vt 3.476895 0
vt 3.332922 0.628166
vt -3.38926 0.1
vt -3.420958 0
vt -3.38926 0
vt -3.364268 0.632875
vt 3.289232 0.1
vt 3.242046 0
vt 3.289232 0
vt 3.242046 0.1
vt 3.497838 0.561149
vt -2.728689 0.1
vt -3.549799 0.972935
vt -3.388434 0.236103
vt -3.555281 0.038923
vt -0.285361 0.1
vt -0.206541 0.1
vt -0.154854 0
vt -0.154854 0.1
vt -3.381717 0.647004
vt -0.206541 0
vt -0.807415 0.1
vt -3.107295 0.1
vt -3.135129 0
vt -3.107295 0
vt 3.430904 0
vt 3.509274 0.1
vt 3.430904 0.1
vt 3.377085 0.209389
vt 3.364268 0.632875
vt -3.420958 0.1
vt -3.378629 0.456455
vt 2.894773 0
vt 2.921679 0.1
vt 2.894773 0.1
vt 3.392217 0.378629
vt 3.555281 0.038923
vt 3.549799 0.972935
vt -1.7668 0.1
vt -1.700608 0
vt -1.700608 0.1
vt -3.565395 0.58368
vt -0.494885 0
vt -0.544289 0.1
vt -0.544289 0
vt -3.573502 0.534034
vt 3.509274 0
vt 3.392217 0.285361
vt 3.389592 0.683369
vt 3.38882 0.430204
vt -1.348101 0
vt -1.385309 0.1
vt -1.385309 0
vt 0.797271 0.1
vt 0.825431 0
vt 0.825431 0.1
vt -3.135129 0.1
vt -1.513251 0
vt -1.542276 0.1
vt -1.542276 0
vt 3.388434 0.236103
vt 3.378629 0.456455
vt -3.012857 0.1
vt -3.035309 0
vt -3.012857 0
vt 2.921679 0
vt 3.573502 0.534034
vt 3.565395 0.58368
vt -1.7668 0
vt 3.594812 0.924404
vt -3.594812 0.924404
vt 3.566912 0.1
vt 3.495696 0
vt 3.566912 0
vt -0.494885 0.1
vt -3.103493 0.1
vt -3.183868 0
vt -3.103493 0
vt -3.599058 0.06457
vt 3.087262 0
vt 3.137999 0.1
vt 3.087262 0.1
vt 3.381717 0.647004
vt 0.797271 0
vt -1.348101 0.1
vt -1.513251 0.1
vt -3.035309 0.1
vt 3.599058 0.06457
vt -3.183868 0.1
vt 3.495696 0.1
vt -0.836928 0.1
vt -0.799243 0
vt -0.799243 0.1
vt 3.606238 0.614234
vt -3.606238 0.614234
vt 3.204579 0
vt 3.255586 0.1
vt 3.204579 0.1
vt -3.620136 0.493476
vt 3.137999 0
vt 3.620136 0.493476
vt -2.345916 0.1
vt -2.40772 0
vt -2.345916 0
vt -0.836928 0
vt 3.611836 0.890782
vt -3.611836 0.890782
vt 3.255586 0
vt -3.629092 0.105669
vt 2.226549 0
vt 2.175646 0.1
vt 2.175646 0
vt 3.629092 0.105669
vt -2.40772 0.1
vt -0.18063 0.1
vt -0.136394 0
vt -0.136394 0.1
vt 3.626853 0.662071
vt -3.626853 0.662071
vt 2.043362 0
vt 1.991272 0.1
vt 1.991272 0
vt -3.644225 0.433603
vt 2.226549 0.1
vt 3.644225 0.433603
vt -0.957975 0.1
vt -0.893438 0
vt -0.893438 0.1
vt -0.18063 0
vt 3.623996 0.84825
vt 2.043362 0.1
vt -3.623996 0.84825
vt -0.957975 0
vt -3.646464 0.167626
vt 1.14585 0
vt 1.081504 0.1
vt 1.081504 0
vt 3.646464 0.167626
vt 0.41868 0.1
vt 0.530903 0
vt 0.530903 0.1
vt 3.633725 0.73645
vt 1.067605 0
vt 0.99291 0.1
vt 0.99291 0
vt -3.633725 0.73645
vt 0.003745 0.1
vt 0.08918 0
vt 0.08918 0.1
vt -3.652254 0.348547
vt 1.14585 0.1
vt 3.652254 0.348547
vt 0.41868 0
vt 1.067605 0.1
vt 0.003745 0
vt -3.652254 0.255849
vt 0.494506 0
vt 0.406094 0.1
vt 0.406094 0
vt 3.652254 0.255849
vt 0.255849 0.1
vt 0.348547 0
vt 0.348547 0.1
vt 0.255849 0
vt 0.494506 0.1
vn 0 0.4999999280258255 0.8660254453387436
vn 0 -0.4999999280258255 -0.8660254453387436
vn -0.019241147767210365 0.8658651197628724 -0.4999073640292041
vn -0.09807867367929082 0.8618500458947616 -0.49758926049555036
vn 0.019241147767210365 -0.8658651197628724 0.4999073640292041
vn 0.09807867367929082 -0.8618500458947616 0.49758926049555036
vn 0.08908505429117261 -0.8625821475253392 0.4980119394879132
vn -0.08908505429117261 0.8625821475253392 -0.4980119394879132
vn 0 0.8660254453387437 -0.49999992802582544
vn 0 -0.8660254453387437 0.49999992802582544
vn 0.6759431685750766 -0.6382207014283895 0.3684768230498901
vn -0.6759431685750766 0.6382207014283895 -0.3684768230498901
vn -1 0 0
vn 1 0 0
vn -0.2810339011982158 0.8311227503038461 -0.4798488515196032
vn 0.2810339011982158 -0.8311227503038461 0.4798488515196032
vn 0.9985413852395509 -0.04675817236292759 0.02699583821920875
vn 0.9887654629302512 -0.12944939588639676 0.0747376292169661
vn -0.9887654629302512 0.12944939588639676 -0.0747376292169661
vn -0.9985413852395509 0.04675817236292759 -0.02699583821920875
vn -0.014941409601546963 -0.8659287717055258 0.49994411348837614
vn 0.014941409601546963 0.8659287717055258 -0.49994411348837614
vn 0.020699679254113486 0.8658398895883769 -0.4998927973839631
vn 0.07516401584802829 0.863575618929078 -0.498585520360206
vn -0.020699679254113486 -0.8658398895883769 0.4998927973839631
vn -0.07516401584802829 -0.863575618929078 0.498585520360206
vn 0.10090702391281621 0.8616051303440027 -0.4974478584635304
vn 0.24414005128021074 0.8398195009672415 -0.48486992189248984
vn -0.10090702391281621 -0.8616051303440027 0.4974478584635304
vn -0.24414005128021074 -0.8398195009672415 0.48486992189248984
vn -0.08984011055328288 -0.862523412606915 0.4979780288734587
vn 0.08984011055328288 0.862523412606915 -0.4979780288734587
vn -0.5479458713493776 0.7244422281436157 -0.41825683515453127
vn 0.5479458713493776 -0.7244422281436157 0.41825683515453127
vn 0.9990291461677145 0.03815198514154491 -0.02202705466391151
vn 0.999285075750301 -0.032741459037614724 0.01890328656089834
vn -0.999285075750301 0.032741459037614724 -0.01890328656089834
vn -0.9990291461677145 -0.03815198514154491 0.02202705466391151
vn 0.9897195494820341 0.12386045172716163 -0.07151085142146509
vn -0.9897195494820341 -0.12386045172716163 0.07151085142146509
vn 0.12954821138434433 0.8587275565984729 -0.49578649080580406
vn -0.12954821138434433 -0.8587275565984729 0.49578649080580406
vn 0.2205380824827687 -0.8447024825964915 0.4876891121094949
vn 0.08832652409144193 -0.8626406495575666 0.49804571564548517
vn -0.2205380824827687 0.8447024825964915 -0.4876891121094949
vn -0.08832652409144193 0.8626406495575666 -0.49804571564548517
vn 0.9690365262624733 -0.21383676593375045 0.12345869067892071
vn -0.9690365262624733 0.21383676593375045 -0.12345869067892071
vn 0.38518500557705476 0.7992023804422106 -0.46141962092449906
vn -0.38518500557705476 -0.7992023804422106 0.46141962092449906
vn -0.30353469408574957 -0.8251666997992914 0.47641012481749034
vn 0.30353469408574957 0.8251666997992914 -0.47641012481749034
vn 0.3511232343231263 -0.8108849602992414 0.4681645602552212
vn -0.3511232343231263 0.8108849602992414 -0.4681645602552212
vn -0.7805713288236401 0.5413236818990883 -0.31253331347827806
vn 0.7805713288236401 -0.5413236818990883 0.31253331347827806
vn 0.9628514531967405 0.23385425922108052 -0.13501579359869412
vn -0.9628514531967405 -0.23385425922108052 0.13501579359869412
vn 0.9703603234998717 0.20928601514738235 -0.12083131399167162
vn -0.9703603234998717 -0.20928601514738235 0.12083131399167162
vn 0.9131234911459823 -0.3530639168770039 0.20384150832654568
vn -0.9131234911459823 0.3530639168770039 -0.20384150832654568
vn 0.8984924824495615 0.3801755622162621 -0.21949442105705846
vn -0.8984924824495615 -0.3801755622162621 0.21949442105705846
vn 0.5757190906012195 0.708103590342636 -0.40882372003245254
vn -0.5757190906012195 -0.708103590342636 0.40882372003245254
vn -0.4141619274193784 -0.7882591471309623 0.45510154343908094
vn -0.278537840041738 -0.8317527097273781 0.48021255869255125
vn 0.4141619274193784 0.7882591471309623 -0.45510154343908094
vn 0.278537840041738 0.8317527097273781 -0.48021255869255125
vn -0.29750319007571513 0.8268125268311727 -0.47736034331501004
vn -0.45393951063713567 0.7716568198720093 -0.4455161871666787
vn 0.29750319007571513 -0.8268125268311727 0.47736034331501004
vn 0.45393951063713567 -0.7716568198720093 0.4455161871666787
vn -0.617863124146376 -0.6809434002637383 0.39314277998882047
vn 0.617863124146376 0.6809434002637383 -0.39314277998882047
vn -0.911644477356982 0.35591891258422403 -0.20548984055027816
vn 0.911644477356982 -0.35591891258422403 0.20548984055027816
vn -0.7407809636176644 -0.5817496931104857 0.335873277453775
vn 0.7407809636176644 0.5817496931104857 -0.335873277453775
vn -0.7737182661699015 0.5486529525427133 -0.3167648690451712
vn 0.7737182661699015 -0.5486529525427133 0.3167648690451712
vn -0.8730002248031905 -0.4223777607080227 0.24385986704018223
vn 0.8730002248031905 0.4223777607080227 -0.24385986704018223
vn -0.9781791419840549 0.17992825722300912 -0.10388160780440756
vn 0.9781791419840549 -0.17992825722300912 0.10388160780440756
vn -0.9596451792757253 -0.24353819641166033 0.14060681626939936
vn 0.9596451792757253 0.24353819641166033 -0.14060681626939936
vn -0.9631190211863193 0.23302643301326492 -0.13453784800650223
vn 0.9631190211863193 -0.23302643301326492 0.13453784800650223
vn -0.9811874854043868 -0.16719252838246074 0.09652863274125585
vn 0.9811874854043868 0.16719252838246074 -0.09652863274125585
vn -0.9999953071708397 -0.00265315433003061 0.0015317990726448284
vn 0.9999953071708397 0.00265315433003061 -0.0015317990726448284
vn -0.9985364732151061 0.04683677993704392 -0.027041222314574537
vn 0.9985364732151061 -0.04683677993704392 0.027041222314574537
vn -0.9992901114921784 -0.03262598515927279 0.01883661769894909
vn 0.9992901114921784 0.03262598515927279 -0.01883661769894909
usemtl material_0_0
f 1/1/1 2/2/1 3/3/1
f 2/2/1 1/1/1 4/4/1
f 3/3/2 2/2/2 1/1/2
f 4/4/2 1/1/2 2/2/2
f 5/5/1 3/3/1 2/2/1
f 2/2/2 3/3/2 5/5/2
f 6/6/3 1/7/4 3/8/3
f 3/8/5 1/7/6 6/6/5
f 4/4/1 1/1/1 7/9/1
f 7/9/2 1/1/2 4/4/2
f 8/10/7 2/11/7 4/12/7
f 4/12/8 2/11/8 8/10/8
f 9/13/1 3/3/1 5/5/1
f 5/5/2 3/3/2 9/13/2
f 5/5/1 2/2/1 10/14/1
f 10/14/2 2/2/2 5/5/2
f 1/7/4 6/6/3 11/15/4
f 11/15/6 6/6/5 1/7/6
f 3/16/3 12/17/9 6/18/3
f 6/18/5 12/17/10 3/16/5
f 7/9/1 1/1/1 13/19/1
f 13/19/2 1/1/2 7/9/2
f 7/20/11 8/21/11 4/22/11
f 4/22/12 8/21/12 7/20/12
f 2/11/7 8/10/7 14/23/7
f 14/23/8 8/10/8 2/11/8
f 3/3/1 9/13/1 15/24/1
f 15/24/2 9/13/2 3/3/2
f 9/13/1 5/5/1 16/25/1
f 16/25/2 5/5/2 9/13/2
f 2/26/13 17/27/13 10/28/13
f 10/28/14 17/27/14 2/26/14
f 5/5/1 10/14/1 18/29/1
f 18/29/2 10/14/2 5/5/2
f 6/30/2 14/31/2 11/32/2
f 11/32/1 14/31/1 6/30/1
f 11/33/4 19/34/15 1/35/4
f 1/35/6 19/34/16 11/33/6
f 12/17/9 3/16/3 15/36/9
f 15/36/10 3/16/5 12/17/10
f 12/37/2 20/38/2 6/30/2
f 6/30/1 20/38/1 12/37/1
f 13/19/1 1/1/1 21/39/1
f 21/39/2 1/1/2 13/19/2
f 13/40/17 22/41/18 7/42/18
f 7/42/19 22/41/19 13/40/20
f 8/21/11 7/20/11 22/43/11
f 22/43/12 7/20/12 8/21/12
f 11/32/2 14/31/2 8/44/2
f 8/44/1 14/31/1 11/32/1
f 17/27/13 2/26/13 14/45/13
f 14/45/14 2/26/14 17/27/14
f 9/46/14 12/47/14 15/48/14
f 15/48/13 12/47/13 9/46/13
f 16/25/1 5/5/1 23/49/1
f 23/49/2 5/5/2 16/25/2
f 24/50/21 9/51/10 16/52/21
f 16/52/22 9/51/9 24/50/22
f 17/53/23 25/54/24 10/55/23
f 10/55/25 25/54/26 17/53/25
f 25/56/1 18/29/1 10/14/1
f 10/14/2 18/29/2 25/56/2
f 18/57/13 20/58/13 5/59/13
f 5/59/14 20/58/14 18/57/14
f 14/31/2 6/30/2 20/38/2
f 20/38/1 6/30/1 14/31/1
f 19/34/15 11/33/4 26/60/15
f 26/60/16 11/33/6 19/34/16
f 27/61/1 1/1/1 19/62/1
f 19/62/2 1/1/2 27/61/2
f 12/37/2 24/63/2 20/38/2
f 20/38/1 24/63/1 12/37/1
f 21/39/1 1/1/1 28/64/1
f 28/64/2 1/1/2 21/39/2
f 21/39/1 29/65/1 13/19/1
f 13/19/2 29/65/2 21/39/2
f 22/41/18 13/40/17 30/66/17
f 30/66/20 13/40/20 22/41/19
f 11/32/2 8/44/2 22/67/2
f 22/67/1 8/44/1 11/32/1
f 14/31/2 31/68/2 17/69/2
f 17/69/1 31/68/1 14/31/1
f 12/47/14 9/46/14 32/70/14
f 32/70/13 9/46/13 12/47/13
f 20/71/27 23/72/28 5/73/27
f 5/73/29 23/72/30 20/71/29
f 16/25/1 23/49/1 27/61/1
f 27/61/2 23/49/2 16/25/2
f 9/51/10 24/50/21 32/74/10
f 32/74/9 24/50/22 9/51/9
f 16/75/21 33/76/31 24/77/21
f 24/77/22 33/76/32 16/75/22
f 25/54/24 17/53/23 34/78/24
f 34/78/26 17/53/25 25/54/26
f 18/29/1 25/56/1 35/79/1
f 35/79/2 25/56/2 18/29/2
f 20/58/13 18/57/13 31/80/13
f 31/80/14 18/57/14 20/58/14
f 14/31/2 20/38/2 31/68/2
f 31/68/1 20/38/1 14/31/1
f 11/32/2 33/81/2 26/82/2
f 26/82/1 33/81/1 11/32/1
f 26/83/15 36/84/33 19/85/15
f 19/85/16 36/84/34 26/83/16
f 27/61/1 28/64/1 1/1/1
f 1/1/2 28/64/2 27/61/2
f 27/61/1 19/62/1 37/86/1
f 37/86/2 19/62/2 27/61/2
f 24/63/2 12/37/2 32/87/2
f 32/87/1 12/37/1 24/63/1
f 20/38/2 24/63/2 38/88/2
f 38/88/1 24/63/1 20/38/1
f 28/89/35 39/90/36 21/91/36
f 21/91/37 39/90/37 28/89/38
f 40/92/1 29/65/1 21/39/1
f 21/39/2 29/65/2 40/92/2
f 29/93/39 30/94/17 13/95/17
f 13/95/20 30/94/20 29/93/40
f 11/32/2 22/67/2 30/96/2
f 30/96/1 22/67/1 11/32/1
f 41/97/2 17/69/2 31/68/2
f 31/68/1 17/69/1 41/97/1
f 23/72/28 20/71/27 38/98/28
f 38/98/30 20/71/29 23/72/30
f 27/61/1 23/49/1 42/99/1
f 42/99/2 23/49/2 27/61/2
f 33/76/31 16/75/21 27/100/31
f 27/100/32 16/75/22 33/76/32
f 38/88/2 24/63/2 33/81/2
f 33/81/1 24/63/1 38/88/1
f 17/69/2 41/97/2 34/101/2
f 34/101/1 41/97/1 17/69/1
f 34/102/24 43/103/41 25/104/24
f 25/104/26 43/103/42 34/102/26
f 35/79/1 25/56/1 43/105/1
f 43/105/2 25/56/2 35/79/2
f 41/106/43 18/107/44 35/108/43
f 35/108/45 18/107/46 41/106/45
f 18/107/44 41/106/43 31/109/44
f 31/109/46 41/106/45 18/107/46
f 30/96/2 33/81/2 11/32/2
f 11/32/1 33/81/1 30/96/1
f 26/82/2 33/81/2 44/110/2
f 44/110/1 33/81/1 26/82/1
f 36/84/33 26/83/15 45/111/33
f 45/111/34 26/83/16 36/84/34
f 36/112/1 37/86/1 19/62/1
f 19/62/2 37/86/2 36/112/2
f 27/61/1 46/113/1 28/64/1
f 28/64/2 46/113/2 27/61/2
f 27/61/1 37/86/1 47/114/1
f 47/114/2 37/86/2 27/61/2
f 39/90/36 28/89/35 48/115/35
f 48/115/38 28/89/38 39/90/37
f 49/116/47 21/117/36 39/118/36
f 39/118/37 21/117/37 49/116/48
f 40/92/1 50/119/1 29/65/1
f 29/65/2 50/119/2 40/92/2
f 21/117/36 49/116/47 40/120/47
f 40/120/48 49/116/48 21/117/37
f 30/94/17 29/93/39 51/121/39
f 51/121/40 29/93/40 30/94/20
f 38/122/28 42/123/49 23/124/28
f 23/124/30 42/123/50 38/122/30
f 27/61/1 42/99/1 46/113/1
f 46/113/2 42/99/2 27/61/2
f 27/125/31 52/126/51 33/127/31
f 33/127/32 52/126/52 27/125/32
f 38/88/2 33/81/2 53/128/2
f 53/128/1 33/81/1 38/88/1
f 34/101/2 41/97/2 54/129/2
f 54/129/1 41/97/1 34/101/1
f 43/103/41 34/102/24 54/130/41
f 54/130/42 34/102/26 43/103/42
f 35/79/1 43/105/1 55/131/1
f 55/131/2 43/105/2 35/79/2
f 35/132/43 56/133/53 41/134/43
f 41/134/45 56/133/54 35/132/45
f 39/135/2 33/81/2 30/96/2
f 30/96/1 33/81/1 39/135/1
f 44/110/2 33/81/2 52/136/2
f 52/136/1 33/81/1 44/110/1
f 44/110/2 45/137/2 26/82/2
f 26/82/1 45/137/1 44/110/1
f 57/138/55 36/139/33 45/140/33
f 45/140/34 36/139/34 57/138/56
f 37/86/1 36/112/1 58/141/1
f 58/141/2 36/112/2 37/86/2
f 46/142/57 48/143/35 28/144/35
f 28/144/38 48/143/38 46/142/58
f 47/114/1 37/86/1 59/145/1
f 59/145/2 37/86/2 47/114/2
f 52/126/51 27/125/31 47/146/51
f 47/146/52 27/125/32 52/126/52
f 48/147/2 33/81/2 39/135/2
f 39/135/1 33/81/1 48/147/1
f 51/148/2 49/149/2 39/135/2
f 39/135/1 49/149/1 51/148/1
f 55/131/1 50/119/1 40/92/1
f 40/92/2 50/119/2 55/131/2
f 50/150/59 51/151/39 29/152/39
f 29/152/40 51/151/40 50/150/60
f 56/153/61 40/154/47 49/155/47
f 49/155/48 40/154/48 56/153/62
f 51/148/2 39/135/2 30/96/2
f 30/96/1 39/135/1 51/148/1
f 42/123/49 38/122/28 53/156/49
f 53/156/50 38/122/30 42/123/50
f 42/157/63 60/158/57 46/159/57
f 46/159/58 60/158/58 42/157/64
f 53/128/2 33/81/2 60/160/2
f 60/160/1 33/81/1 53/128/1
f 54/129/2 41/97/2 56/161/2
f 56/161/1 41/97/1 54/129/1
f 54/162/65 50/163/65 43/164/65
f 43/164/66 50/163/66 54/162/66
f 55/131/1 43/105/1 50/119/1
f 50/119/2 43/105/2 55/131/2
f 56/133/53 35/132/43 55/165/53
f 55/165/54 35/132/45 56/133/54
f 44/110/2 52/136/2 61/166/2
f 61/166/1 52/136/1 44/110/1
f 45/137/2 44/110/2 62/167/2
f 62/167/1 44/110/1 45/137/1
f 36/139/33 57/138/55 63/168/55
f 63/168/56 57/138/56 36/139/34
f 45/137/2 62/167/2 57/169/2
f 57/169/1 62/167/1 45/137/1
f 58/141/1 36/112/1 63/170/1
f 63/170/2 36/112/2 58/141/2
f 62/171/67 37/172/68 58/173/67
f 58/173/69 37/172/70 62/171/69
f 48/143/35 46/142/57 60/174/57
f 60/174/58 46/142/58 48/143/38
f 44/175/71 59/176/72 37/177/71
f 37/177/73 59/176/74 44/175/73
f 47/114/1 59/145/1 64/178/1
f 64/178/2 59/145/2 47/114/2
f 47/179/51 65/180/75 52/181/51
f 52/181/52 65/180/76 47/179/52
f 60/160/2 33/81/2 48/147/2
f 48/147/1 33/81/1 60/160/1
f 66/182/2 49/149/2 51/148/2
f 51/148/1 49/149/1 66/182/1
f 40/154/47 56/153/61 55/183/61
f 55/183/62 56/153/62 40/154/48
f 51/151/39 50/150/59 66/184/59
f 66/184/60 50/150/60 51/151/40
f 66/182/2 56/161/2 49/149/2
f 49/149/1 56/161/1 66/182/1
f 60/158/57 42/157/63 53/185/63
f 53/185/64 42/157/64 60/158/58
f 54/129/2 56/161/2 66/182/2
f 66/182/1 56/161/1 54/129/1
f 50/163/65 54/162/65 66/186/65
f 66/186/66 54/162/66 50/163/66
f 61/166/2 52/136/2 65/187/2
f 65/187/1 52/136/1 61/166/1
f 59/176/72 44/175/71 61/188/72
f 61/188/74 44/175/73 59/176/74
f 37/172/68 62/171/67 44/189/68
f 44/189/70 62/171/69 37/172/70
f 67/190/77 63/191/55 57/192/55
f 57/192/56 63/191/56 67/190/78
f 57/169/2 62/167/2 68/193/2
f 68/193/1 62/167/1 57/169/1
f 58/141/1 63/170/1 69/194/1
f 69/194/2 63/170/2 58/141/2
f 58/195/67 68/196/79 62/197/67
f 62/197/69 68/196/80 58/195/69
f 64/178/1 59/145/1 70/198/1
f 70/198/2 59/145/2 64/178/2
f 65/180/75 47/179/51 64/199/75
f 64/199/76 47/179/52 65/180/76
f 61/166/2 65/187/2 71/200/2
f 71/200/1 65/187/1 61/166/1
f 61/201/72 70/202/81 59/203/72
f 59/203/74 70/202/82 61/201/74
f 63/191/55 67/190/77 72/204/77
f 72/204/78 67/190/78 63/191/56
f 57/169/2 68/193/2 67/205/2
f 67/205/1 68/193/1 57/169/1
f 69/194/1 63/170/1 72/206/1
f 72/206/2 63/170/2 69/194/2
f 68/196/79 58/195/67 69/207/79
f 69/207/80 58/195/69 68/196/80
f 64/178/1 70/198/1 73/208/1
f 73/208/2 70/198/2 64/178/2
f 73/209/83 65/210/75 64/211/75
f 64/211/76 65/210/76 73/209/84
f 71/200/2 65/187/2 74/212/2
f 74/212/1 65/187/1 71/200/1
f 70/202/81 61/201/72 71/213/81
f 71/213/82 61/201/74 70/202/82
f 75/214/85 72/215/77 67/216/77
f 67/216/78 72/215/78 75/214/86
f 67/205/2 68/193/2 76/217/2
f 76/217/1 68/193/1 67/205/1
f 69/194/1 72/206/1 77/218/1
f 77/218/2 72/206/2 69/194/2
f 77/219/87 68/220/79 69/221/79
f 69/221/80 68/220/80 77/219/88
f 73/208/1 70/198/1 78/222/1
f 78/222/2 70/198/2 73/208/2
f 65/210/75 73/209/83 74/223/83
f 74/223/84 73/209/84 65/210/76
f 71/200/2 74/212/2 79/224/2
f 79/224/1 74/212/1 71/200/1
f 79/225/89 70/226/81 71/227/81
f 71/227/82 70/226/82 79/225/90
f 72/215/77 75/214/85 80/228/85
f 80/228/86 75/214/86 72/215/78
f 67/205/2 76/217/2 75/229/2
f 75/229/1 76/217/1 67/205/1
f 68/220/79 77/219/87 76/230/87
f 76/230/88 77/219/88 68/220/80
f 77/218/1 72/206/1 80/231/1
f 80/231/2 72/206/2 77/218/2
f 70/226/81 79/225/89 78/232/89
f 78/232/90 79/225/90 70/226/82
f 73/208/1 78/222/1 81/233/1
f 81/233/2 78/222/2 73/208/2
f 81/234/91 74/235/83 73/236/83
f 73/236/84 74/235/84 81/234/92
f 79/224/2 74/212/2 82/237/2
f 82/237/1 74/212/1 79/224/1
f 83/238/93 80/239/85 75/240/85
f 75/240/86 80/239/86 83/238/94
f 75/229/2 76/217/2 83/241/2
f 83/241/1 76/217/1 75/229/1
f 84/242/93 76/243/87 77/244/87
f 77/244/88 76/243/88 84/242/94
f 77/218/1 80/231/1 84/245/1
f 84/245/2 80/231/2 77/218/2
f 85/246/95 78/247/89 79/248/89
f 79/248/90 78/247/90 85/246/96
f 81/233/1 78/222/1 86/249/1
f 86/249/2 78/222/2 81/233/2
f 74/235/83 81/234/91 82/250/91
f 82/250/92 81/234/92 74/235/84
f 79/224/2 82/237/2 85/251/2
f 85/251/1 82/237/1 79/224/1
f 80/239/85 83/238/93 84/252/93
f 84/252/94 83/238/94 80/239/86
f 76/243/87 84/242/93 83/253/93
f 83/253/94 84/242/94 76/243/88
f 78/247/89 85/246/95 86/254/95
f 86/254/96 85/246/96 78/247/90
f 81/233/1 86/249/1 87/255/1
f 87/255/2 86/249/2 81/233/2
f 87/256/97 82/257/91 81/258/91
f 81/258/92 82/257/92 87/256/98
f 85/251/2 82/237/2 88/259/2
f 88/259/1 82/237/1 85/251/1
f 88/260/97 86/261/95 85/262/95
f 85/262/96 86/261/96 88/260/98
f 86/261/95 88/260/97 87/263/97
f 87/263/98 88/260/98 86/261/96
f 82/257/91 87/256/97 88/264/97
f 88/264/98 87/256/98 82/257/92
