# SSTK version 0.8.0
# 89
mtllib original-89.mtl
o mesh170/mesh170-geometry#mesh170-geometry
v 0.231764 0.275208 -0.378950
v 0.308059 0.254974 -0.367268
v 0.308059 0.275208 -0.378950
v 0.287410 0.254974 -0.367268
v 0.308059 0.273515 -0.381882
v 0.252497 0.254974 -0.367268
v 0.287410 0.253281 -0.370200
v 0.308059 0.253281 -0.370200
v 0.231764 0.273515 -0.381882
v 0.231764 0.254974 -0.367268
v 0.287410 0.174099 -0.320575
v 0.231764 0.253281 -0.370200
v 0.252497 0.174099 -0.320575
v 0.287410 0.172407 -0.323507
v 0.252497 0.253281 -0.370200
v 0.252497 0.172407 -0.323507
vt -0.575664 1.021001
vt -0.007412 0.820877
vt -0.007412 1.021001
vt -0.161211 0.820877
vt -0.820877 0
vt -1.021001 0.1
vt -1.021001 0
vt -0.007412 0.1
vt -0.575664 0
vt -0.007412 0
vt -0.421248 0.820877
vt 0.161211 0.1
vt 0.007412 0
vt 0.161211 0
vt -0.820877 0.1
vt -0.575664 0.1
vt -0.575664 0.820877
vt -0.161211 0.021001
vt 0.007412 0.1
vt -0.021001 0
vt 0.161211 0.820877
vt 0.007412 1.021001
vt 0.007412 0.820877
vt 0.575664 1.021001
vt 0.820877 0.1
vt 1.021001 0
vt 1.021001 0.1
vt 0.820877 0
vt 0.575664 0.1
vt 0.421248 0
vt 0.575664 0
vt -0.421248 0.021001
vt -0.021001 0.1
vt 0.421248 0.820877
vt 0.575664 0.820877
vt 0.421248 0.1
vt 0.021001 0.1
vt 0.021001 0
vt 0.421248 0.021001
vt 0.161211 0.021001
vn 0 0.4999999280258255 0.8660254453387436
vn 0 -0.4999999280258255 -0.8660254453387436
vn 1 0 0
vn -1 0 0
vn 0 0.8660254453387437 -0.49999992802582544
vn 0 -0.8660254453387437 0.49999992802582544
usemtl material_0_0
f 1/1/1 2/2/1 3/3/1
f 2/2/1 1/1/1 4/4/1
f 3/3/2 2/2/2 1/1/2
f 4/4/2 1/1/2 2/2/2
f 2/5/3 5/6/3 3/7/3
f 3/7/4 5/6/4 2/5/4
f 5/8/5 1/9/5 3/10/5
f 3/10/6 1/9/6 5/8/6
f 4/4/1 1/1/1 6/11/1
f 6/11/2 1/1/2 4/4/2
f 7/12/6 2/13/6 4/14/6
f 4/14/5 2/13/5 7/12/5
f 5/6/3 2/5/3 8/15/3
f 8/15/4 2/5/4 5/6/4
f 1/9/5 5/8/5 9/16/5
f 9/16/6 5/8/6 1/9/6
f 6/11/1 1/1/1 10/17/1
f 10/17/2 1/1/2 6/11/2
f 4/4/1 6/11/1 11/18/1
f 11/18/2 6/11/2 4/4/2
f 2/13/6 7/12/6 8/19/6
f 8/19/5 7/12/5 2/13/5
f 11/20/3 7/15/3 4/5/3
f 4/5/4 7/15/4 11/20/4
f 7/21/2 5/22/2 8/23/2
f 8/23/1 5/22/1 7/21/1
f 5/22/2 7/21/2 9/24/2
f 9/24/1 7/21/1 5/22/1
f 12/25/4 1/26/4 9/27/4
f 9/27/3 1/26/3 12/25/3
f 1/26/4 12/25/4 10/28/4
f 10/28/3 12/25/3 1/26/3
f 12/29/6 6/30/6 10/31/6
f 10/31/5 6/30/5 12/29/5
f 13/32/1 11/18/1 6/11/1
f 6/11/2 11/18/2 13/32/2
f 7/15/3 11/20/3 14/33/3
f 14/33/4 11/20/4 7/15/4
f 9/24/2 7/21/2 15/34/2
f 15/34/1 7/21/1 9/24/1
f 9/24/2 15/34/2 12/35/2
f 12/35/1 15/34/1 9/24/1
f 6/30/6 12/29/6 15/36/6
f 15/36/5 12/29/5 6/30/5
f 16/36/6 11/14/6 13/30/6
f 13/30/5 11/14/5 16/36/5
f 6/28/4 16/37/4 13/38/4
f 13/38/3 16/37/3 6/28/3
f 11/14/6 16/36/6 14/12/6
f 14/12/5 16/36/5 11/14/5
f 16/39/2 7/21/2 14/40/2
f 14/40/1 7/21/1 16/39/1
f 15/34/2 7/21/2 16/39/2
f 16/39/1 7/21/1 15/34/1
f 16/37/4 6/28/4 15/25/4
f 15/25/3 6/28/3 16/37/3
