# SSTK version 0.8.0
# 4
mtllib original-4.mtl
o mesh1/mesh1-geometry/material_0/component_1#mesh1-geometry
v -0.097487 0.129446 0.757817
v -0.089856 0.130918 0.759855
v -0.092168 0.130918 0.759239
v -0.108904 0.101001 0.754769
v -0.089854 0.105142 0.759857
v -0.110328 0.106490 0.754388
v -0.110328 0.106490 0.754388
v -0.089856 0.130918 0.759855
v -0.110328 0.112175 0.754388
v -0.102257 0.126605 0.756544
v -0.089856 0.130918 0.759855
v -0.097487 0.129446 0.757817
v -0.089856 0.130918 0.759855
v -0.081221 0.129446 0.761484
v -0.086616 0.130918 0.760467
v -0.106150 0.096078 0.755505
v -0.089854 0.105142 0.759857
v -0.108904 0.101001 0.754769
v -0.110328 0.106490 0.754388
v -0.089854 0.105142 0.759857
v -0.089856 0.130918 0.759855
v -0.110328 0.112175 0.754388
v -0.089856 0.130918 0.759855
v -0.108904 0.117663 0.754769
v -0.106150 0.122586 0.755505
v -0.089856 0.130918 0.759855
v -0.102257 0.126605 0.756544
v -0.089856 0.130918 0.759855
v -0.076385 0.126605 0.762396
v -0.081221 0.129446 0.761484
v -0.089854 0.105142 0.759857
v -0.092168 0.087746 0.759239
v -0.089856 0.087746 0.759855
v -0.081221 0.089218 0.761484
v -0.089856 0.087746 0.759855
v -0.086616 0.087746 0.760467
v -0.102257 0.092059 0.756544
v -0.089854 0.105142 0.759857
v -0.106150 0.096078 0.755505
v -0.089854 0.105142 0.759857
v -0.068197 0.106490 0.763940
v -0.089856 0.130918 0.759855
v -0.108904 0.117663 0.754769
v -0.089856 0.130918 0.759855
v -0.106150 0.122586 0.755505
v -0.089856 0.130918 0.759855
v -0.072436 0.122586 0.763141
v -0.076385 0.126605 0.762396
v -0.089854 0.105142 0.759857
v -0.069643 0.101001 0.763667
v -0.068197 0.106490 0.763940
v -0.089856 0.130918 0.759855
v -0.068197 0.106490 0.763940
v -0.068197 0.112175 0.763940
v -0.089854 0.105142 0.759857
v -0.072436 0.096078 0.763141
v -0.069643 0.101001 0.763667
v -0.092168 0.087746 0.759239
v -0.089854 0.105142 0.759857
v -0.097487 0.089218 0.757817
v -0.089856 0.087746 0.759855
v -0.081221 0.089218 0.761484
v -0.089854 0.105142 0.759857
v -0.097487 0.089218 0.757817
v -0.089854 0.105142 0.759857
v -0.102257 0.092059 0.756544
v -0.089856 0.130918 0.759855
v -0.069643 0.117663 0.763667
v -0.072436 0.122586 0.763141
v -0.089856 0.130918 0.759855
v -0.068197 0.112175 0.763940
v -0.069643 0.117663 0.763667
v -0.089854 0.105142 0.759857
v -0.076385 0.092059 0.762396
v -0.072436 0.096078 0.763141
v -0.089854 0.105142 0.759857
v -0.081221 0.089218 0.761484
v -0.076385 0.092059 0.762396
v -0.092168 0.130918 0.759239
v -0.089856 0.130918 0.759855
v -0.097487 0.129446 0.757817
v -0.110328 0.106490 0.754388
v -0.089854 0.105142 0.759857
v -0.108904 0.101001 0.754769
v -0.110328 0.112175 0.754388
v -0.089856 0.130918 0.759855
v -0.110328 0.106490 0.754388
v -0.097487 0.129446 0.757817
v -0.089856 0.130918 0.759855
v -0.102257 0.126605 0.756544
v -0.086616 0.130918 0.760467
v -0.081221 0.129446 0.761484
v -0.089856 0.130918 0.759855
v -0.108904 0.101001 0.754769
v -0.089854 0.105142 0.759857
v -0.106150 0.096078 0.755505
v -0.089856 0.130918 0.759855
v -0.089854 0.105142 0.759857
v -0.110328 0.106490 0.754388
v -0.108904 0.117663 0.754769
v -0.089856 0.130918 0.759855
v -0.110328 0.112175 0.754388
v -0.102257 0.126605 0.756544
v -0.089856 0.130918 0.759855
v -0.106150 0.122586 0.755505
v -0.081221 0.129446 0.761484
v -0.076385 0.126605 0.762396
v -0.089856 0.130918 0.759855
v -0.089856 0.087746 0.759855
v -0.092168 0.087746 0.759239
v -0.089854 0.105142 0.759857
v -0.086616 0.087746 0.760467
v -0.089856 0.087746 0.759855
v -0.081221 0.089218 0.761484
v -0.106150 0.096078 0.755505
v -0.089854 0.105142 0.759857
v -0.102257 0.092059 0.756544
v -0.089856 0.130918 0.759855
v -0.068197 0.106490 0.763940
v -0.089854 0.105142 0.759857
v -0.106150 0.122586 0.755505
v -0.089856 0.130918 0.759855
v -0.108904 0.117663 0.754769
v -0.076385 0.126605 0.762396
v -0.072436 0.122586 0.763141
v -0.089856 0.130918 0.759855
v -0.068197 0.106490 0.763940
v -0.069643 0.101001 0.763667
v -0.089854 0.105142 0.759857
v -0.068197 0.112175 0.763940
v -0.068197 0.106490 0.763940
v -0.089856 0.130918 0.759855
v -0.069643 0.101001 0.763667
v -0.072436 0.096078 0.763141
v -0.089854 0.105142 0.759857
v -0.097487 0.089218 0.757817
v -0.089854 0.105142 0.759857
v -0.092168 0.087746 0.759239
v -0.089854 0.105142 0.759857
v -0.081221 0.089218 0.761484
v -0.089856 0.087746 0.759855
v -0.102257 0.092059 0.756544
v -0.089854 0.105142 0.759857
v -0.097487 0.089218 0.757817
v -0.072436 0.122586 0.763141
v -0.069643 0.117663 0.763667
v -0.089856 0.130918 0.759855
v -0.069643 0.117663 0.763667
v -0.068197 0.112175 0.763940
v -0.089856 0.130918 0.759855
v -0.072436 0.096078 0.763141
v -0.076385 0.092059 0.762396
v -0.089854 0.105142 0.759857
v -0.076385 0.092059 0.762396
v -0.081221 0.089218 0.761484
v -0.089854 0.105142 0.759857
vn -0.2579720968604313 -0.000001000000365291726 0.966152367507544
vn -0.22179104399027588 -0.0000010000001997565744 0.9750942173988643
vn -0.1853019369916233 0 0.9826816331585487
vn 0.2579720968604313 0.000001000000365291726 -0.966152367507544
vn 0.22179104399027588 0.0000010000001997565744 -0.9750942173988643
vn 0.1853019369916233 0 -0.9826816331585487
usemtl material_0_0
f 1//1 2//2 3//1
f 4//1 5//2 6//1
f 7//1 8//2 9//1
f 10//1 11//2 12//1
f 13//2 14//3 15//3
f 16//1 17//2 18//1
f 19//1 20//2 21//2
f 22//1 23//2 24//1
f 25//1 26//2 27//1
f 28//2 29//3 30//3
f 31//2 32//1 33//2
f 34//3 35//2 36//3
f 37//1 38//2 39//1
f 40//2 41//3 42//2
f 43//1 44//2 45//1
f 46//2 47//3 48//3
f 49//2 50//3 51//3
f 52//2 53//3 54//3
f 55//2 56//3 57//3
f 58//1 59//2 60//1
f 61//2 62//3 63//2
f 64//1 65//2 66//1
f 67//2 68//3 69//3
f 70//2 71//3 72//3
f 73//2 74//3 75//3
f 76//2 77//3 78//3
usemtl material_1_0
f 79//4 80//5 81//4
f 82//4 83//5 84//4
f 85//4 86//5 87//4
f 88//4 89//5 90//4
f 91//6 92//6 93//5
f 94//4 95//5 96//4
f 97//5 98//5 99//4
f 100//4 101//5 102//4
f 103//4 104//5 105//4
f 106//6 107//6 108//5
f 109//5 110//4 111//5
f 112//6 113//5 114//6
f 115//4 116//5 117//4
f 118//5 119//6 120//5
f 121//4 122//5 123//4
f 124//6 125//6 126//5
f 127//6 128//6 129//5
f 130//6 131//6 132//5
f 133//6 134//6 135//5
f 136//4 137//5 138//4
f 139//5 140//6 141//5
f 142//4 143//5 144//4
f 145//6 146//6 147//5
f 148//6 149//6 150//5
f 151//6 152//6 153//5
f 154//6 155//6 156//5
