# SSTK version 0.8.0
# 109
mtllib original-109.mtl
o mesh109/mesh109-geometry#mesh109-geometry
v -0.094675 -0.185329 0.076835
v -0.094504 -0.185486 0.082457
v -0.095212 -0.185471 0.081899
v -0.094482 -0.185376 0.078509
v -0.094591 -0.185189 0.071812
v -0.093680 -0.185498 0.082883
v -0.095397 -0.185211 0.072601
v -0.094470 -0.185283 0.075196
v -0.093903 -0.185414 0.079886
v -0.095802 -0.185451 0.081209
v -0.093640 -0.185173 0.071248
v -0.093168 -0.185442 0.080860
v -0.096040 -0.185238 0.073554
v -0.093852 -0.185244 0.073797
v -0.092738 -0.185506 0.083177
v -0.096268 -0.185428 0.080380
v -0.093392 -0.185229 0.073236
v -0.092510 -0.185455 0.081329
v -0.096499 -0.185267 0.074609
v -0.092546 -0.185164 0.070910
v -0.091788 -0.185562 0.085164
v -0.096600 -0.185401 0.079406
v -0.092833 -0.185217 0.072832
v -0.092979 -0.185558 0.085038
v -0.091421 -0.185208 0.072493
v -0.096774 -0.185299 0.075766
v -0.092176 -0.185211 0.072584
v -0.091573 -0.185511 0.083329
v -0.096866 -0.185335 0.077025
v -0.091307 -0.185161 0.070797
v -0.091345 -0.185511 0.083329
v -0.091345 -0.185461 0.081544
v -0.090319 -0.185458 0.081459
v -0.090256 -0.185212 0.072632
v -0.089816 -0.185506 0.083167
v -0.091206 -0.185161 0.070797
v -0.089521 -0.185449 0.081126
v -0.091003 -0.185114 0.069126
v -0.088496 -0.185493 0.082683
v -0.090041 -0.185163 0.070873
v -0.088844 -0.185432 0.080522
v -0.089838 -0.185117 0.069253
v -0.089781 -0.185218 0.072848
v -0.088179 -0.185407 0.079620
v -0.088869 -0.185172 0.071208
v -0.087416 -0.185471 0.081895
v -0.089173 -0.185231 0.073303
v -0.086609 -0.185441 0.080822
v -0.088407 -0.185254 0.074126
v -0.087875 -0.185189 0.071829
v -0.086976 -0.185217 0.072810
vn 0 -0.9996101048671023 -0.02792200292924186
vn 0 0.9996101048671023 0.02792200292924186
usemtl material_0_0
f 1//1 2//1 3//1
f 2//1 1//1 4//1
f 3//2 2//2 1//2
f 4//2 1//2 2//2
f 3//1 5//1 1//1
f 1//2 5//2 3//2
f 2//1 4//1 6//1
f 6//2 4//2 2//2
f 3//1 7//1 5//1
f 5//2 7//2 3//2
f 1//1 5//1 8//1
f 8//2 5//2 1//2
f 6//1 4//1 9//1
f 9//2 4//2 6//2
f 10//1 7//1 3//1
f 3//2 7//2 10//2
f 8//1 5//1 11//1
f 11//2 5//2 8//2
f 6//1 9//1 12//1
f 12//2 9//2 6//2
f 10//1 13//1 7//1
f 7//2 13//2 10//2
f 8//1 11//1 14//1
f 14//2 11//2 8//2
f 6//1 12//1 15//1
f 15//2 12//2 6//2
f 16//1 13//1 10//1
f 10//2 13//2 16//2
f 14//1 11//1 17//1
f 17//2 11//2 14//2
f 15//1 12//1 18//1
f 18//2 12//2 15//2
f 16//1 19//1 13//1
f 13//2 19//2 16//2
f 17//1 11//1 20//1
f 20//2 11//2 17//2
f 21//1 15//1 18//1
f 18//2 15//2 21//2
f 22//1 19//1 16//1
f 16//2 19//2 22//2
f 17//1 20//1 23//1
f 23//2 20//2 17//2
f 15//1 21//1 24//1
f 24//2 21//2 15//2
f 21//1 18//1 25//1
f 25//2 18//2 21//2
f 22//1 26//1 19//1
f 19//2 26//2 22//2
f 23//1 20//1 27//1
f 27//2 20//2 23//2
f 21//1 25//1 28//1
f 28//2 25//2 21//2
f 26//1 22//1 29//1
f 29//2 22//2 26//2
f 27//1 20//1 30//1
f 30//2 20//2 27//2
f 28//1 25//1 31//1
f 31//2 25//2 28//2
f 27//1 30//1 25//1
f 25//2 30//2 27//2
f 31//1 25//1 32//1
f 32//2 25//2 31//2
f 25//1 30//1 32//1
f 32//2 30//2 25//2
f 31//1 32//1 33//1
f 33//2 32//2 31//2
f 32//1 30//1 34//1
f 34//2 30//2 32//2
f 31//1 33//1 35//1
f 35//2 33//2 31//2
f 34//1 30//1 36//1
f 36//2 30//2 34//2
f 35//1 33//1 37//1
f 37//2 33//2 35//2
f 34//1 36//1 38//1
f 38//2 36//2 34//2
f 35//1 37//1 39//1
f 39//2 37//2 35//2
f 34//1 38//1 40//1
f 40//2 38//2 34//2
f 39//1 37//1 41//1
f 41//2 37//2 39//2
f 40//1 38//1 42//1
f 42//2 38//2 40//2
f 40//1 43//1 34//1
f 34//2 43//2 40//2
f 39//1 41//1 44//1
f 44//2 41//2 39//2
f 43//1 40//1 45//1
f 45//2 40//2 43//2
f 39//1 44//1 46//1
f 46//2 44//2 39//2
f 43//1 45//1 47//1
f 47//2 45//2 43//2
f 46//1 44//1 48//1
f 48//2 44//2 46//2
f 47//1 45//1 49//1
f 49//2 45//2 47//2
f 49//1 45//1 50//1
f 50//2 45//2 49//2
f 49//1 50//1 51//1
f 51//2 50//2 49//2
