# SSTK version 0.8.0
# 144
mtllib original-144.mtl
o mesh144/mesh144-geometry#mesh144-geometry
v 0.045904 -0.184485 0.046614
v 0.033418 -0.184536 0.048437
v 0.033418 -0.184485 0.046614
v 0.043802 -0.184536 0.048437
v 0.045904 -0.184525 0.048044
v 0.038015 -0.185039 0.066450
v 0.035900 -0.185039 0.066450
vn 0 -0.9996101048671023 -0.02792200292924186
vn 0 0.9996101048671023 0.02792200292924186
usemtl material_0_0
f 1//1 2//1 3//1
f 2//1 1//1 4//1
f 3//2 2//2 1//2
f 4//2 1//2 2//2
f 5//1 4//1 1//1
f 1//2 4//2 5//2
f 6//1 4//1 5//1
f 5//2 4//2 6//2
f 4//1 6//1 7//1
f 7//2 6//2 4//2
