# SSTK version 0.8.0
# 58
mtllib original-58.mtl
o mesh58/mesh58-geometry#mesh58-geometry
v 0.481382 -0.188547 0.192018
v 0.477406 -0.188575 0.193018
v 0.477406 -0.188547 0.192018
v 0.479609 -0.188575 0.193018
v 0.479609 -0.189185 0.214867
v 0.481382 -0.189213 0.215879
v 0.477406 -0.189213 0.215879
v 0.477406 -0.189185 0.214867
vn 0 -0.9996101048671023 -0.02792200292924186
vn 0 0.9996101048671023 0.02792200292924186
usemtl material_0_0
f 1//1 2//1 3//1
f 2//1 1//1 4//1
f 3//2 2//2 1//2
f 4//2 1//2 2//2
f 4//1 1//1 5//1
f 5//2 1//2 4//2
f 6//1 5//1 1//1
f 1//2 5//2 6//2
f 7//1 5//1 6//1
f 6//2 5//2 7//2
f 5//1 7//1 8//1
f 8//2 7//2 5//2
