# SSTK version 0.8.0
# 62
mtllib original-62.mtl
o mesh62/mesh62-geometry#mesh62-geometry
v 0.098902 -0.188650 0.195727
v 0.096750 -0.189034 0.209474
v 0.096750 -0.188650 0.195727
v 0.097440 -0.189173 0.214443
v 0.098080 -0.189149 0.213581
v 0.096619 -0.189191 0.215071
v 0.098537 -0.189117 0.212432
v 0.096512 -0.189099 0.211789
v 0.098811 -0.189077 0.210995
v 0.096215 -0.189121 0.212594
v 0.098902 -0.189029 0.209272
v 0.095800 -0.189137 0.213164
v 0.095618 -0.189203 0.215520
v 0.094701 -0.189156 0.213843
v 0.094437 -0.189211 0.215790
v 0.093305 -0.189163 0.214069
v 0.093077 -0.189213 0.215879
v 0.092173 -0.189157 0.213881
v 0.091322 -0.189206 0.215632
v 0.091206 -0.189142 0.213316
v 0.090406 -0.189115 0.212375
v 0.089854 -0.189185 0.214889
v 0.089772 -0.189078 0.211057
v 0.088675 -0.189151 0.213651
v 0.087784 -0.189102 0.211917
vn 0 -0.9996101048671023 -0.02792200292924186
vn 0 0.9996101048671023 0.02792200292924186
usemtl material_0_0
f 1//1 2//1 3//1
f 2//1 1//1 4//1
f 3//2 2//2 1//2
f 4//2 1//2 2//2
f 4//1 1//1 5//1
f 5//2 1//2 4//2
f 6//1 2//1 4//1
f 4//2 2//2 6//2
f 5//1 1//1 7//1
f 7//2 1//2 5//2
f 6//1 8//1 2//1
f 2//2 8//2 6//2
f 7//1 1//1 9//1
f 9//2 1//2 7//2
f 6//1 10//1 8//1
f 8//2 10//2 6//2
f 9//1 1//1 11//1
f 11//2 1//2 9//2
f 6//1 12//1 10//1
f 10//2 12//2 6//2
f 13//1 12//1 6//1
f 6//2 12//2 13//2
f 13//1 14//1 12//1
f 12//2 14//2 13//2
f 15//1 14//1 13//1
f 13//2 14//2 15//2
f 15//1 16//1 14//1
f 14//2 16//2 15//2
f 17//1 16//1 15//1
f 15//2 16//2 17//2
f 17//1 18//1 16//1
f 16//2 18//2 17//2
f 19//1 18//1 17//1
f 17//2 18//2 19//2
f 19//1 20//1 18//1
f 18//2 20//2 19//2
f 19//1 21//1 20//1
f 20//2 21//2 19//2
f 22//1 21//1 19//1
f 19//2 21//2 22//2
f 22//1 23//1 21//1
f 21//2 23//2 22//2
f 24//1 23//1 22//1
f 22//2 23//2 24//2
f 23//1 24//1 25//1
f 25//2 24//2 23//2
