# SSTK version 0.8.0
# 114
mtllib original-114.mtl
o mesh114/mesh114-geometry#mesh114-geometry
v -0.407080 -0.185198 0.072138
v -0.409993 -0.185307 0.076036
v -0.409993 -0.185247 0.073897
v -0.407536 -0.185262 0.074416
v -0.407536 -0.185468 0.081796
v -0.405535 -0.185468 0.081796
v -0.403383 -0.185513 0.083429
v -0.405535 -0.185198 0.072138
v -0.409967 -0.185513 0.083429
v -0.403383 -0.185468 0.081796
v -0.409967 -0.185468 0.081796
vn 0 -0.9996101048671023 -0.02792200292924186
vn 0 0.9996101048671023 0.02792200292924186
usemtl material_0_0
f 1//1 2//1 3//1
f 2//1 1//1 4//1
f 3//2 2//2 1//2
f 4//2 1//2 2//2
f 4//1 1//1 5//1
f 5//2 1//2 4//2
f 6//1 5//1 1//1
f 1//2 5//2 6//2
f 7//1 5//1 6//1
f 6//2 5//2 7//2
f 6//1 1//1 8//1
f 8//2 1//2 6//2
f 9//1 5//1 7//1
f 7//2 5//2 9//2
f 7//1 6//1 10//1
f 10//2 6//2 7//2
f 5//1 9//1 11//1
f 11//2 9//2 5//2
