# SSTK version 0.8.0
# 69
mtllib original-69.mtl
o mesh69/mesh69-geometry#mesh69-geometry
v -0.373374 -0.188656 0.195947
v -0.378022 -0.189210 0.215783
v -0.380162 -0.189210 0.215783
v -0.375894 -0.189022 0.209023
v -0.375451 -0.188979 0.207491
v -0.372488 -0.188726 0.198428
v -0.369196 -0.189022 0.209023
v -0.371285 -0.188656 0.195947
v -0.369639 -0.188979 0.207491
v -0.364700 -0.189210 0.215783
v -0.367081 -0.189210 0.215783
vn 0 -0.9996101048671023 -0.02792200292924186
vn 0 0.9996101048671023 0.02792200292924186
usemtl material_0_0
f 1//1 2//1 3//1
f 2//1 1//1 4//1
f 3//2 2//2 1//2
f 4//2 1//2 2//2
f 4//1 1//1 5//1
f 5//2 1//2 4//2
f 5//1 1//1 6//1
f 6//2 1//2 5//2
f 5//1 7//1 4//1
f 4//2 7//2 5//2
f 6//1 1//1 8//1
f 8//2 1//2 6//2
f 7//1 5//1 9//1
f 9//2 5//2 7//2
f 6//1 8//1 9//1
f 9//2 8//2 6//2
f 9//1 10//1 7//1
f 7//2 10//2 9//2
f 9//1 8//1 10//1
f 10//2 8//2 9//2
f 7//1 10//1 11//1
f 11//2 10//2 7//2
