# SSTK version 0.8.0
# 122
mtllib original-122.mtl
o mesh122/mesh122-geometry#mesh122-geometry
v -0.330655 -0.190801 0.272742
v -0.342685 -0.190858 0.274767
v -0.342685 -0.190801 0.272742
v -0.332681 -0.190858 0.274767
v -0.330655 -0.190846 0.274324
v -0.340861 -0.191299 0.290553
v -0.343001 -0.191356 0.292578
v -0.343001 -0.191307 0.290844
v -0.330528 -0.191356 0.292578
v -0.330528 -0.191299 0.290553
vn 0 -0.9996101048671023 -0.02792200292924186
vn 0 0.9996101048671023 0.02792200292924186
usemtl material_0_0
f 1//1 2//1 3//1
f 2//1 1//1 4//1
f 3//2 2//2 1//2
f 4//2 1//2 2//2
f 5//1 4//1 1//1
f 1//2 4//2 5//2
f 6//1 4//1 5//1
f 5//2 4//2 6//2
f 7//1 4//1 6//1
f 6//2 4//2 7//2
f 4//1 7//1 8//1
f 8//2 7//2 4//2
f 6//1 9//1 7//1
f 7//2 9//2 6//2
f 9//1 6//1 10//1
f 10//2 6//2 9//2
