# SSTK version 0.8.0
# 56
mtllib original-56.mtl
o mesh56/mesh56-geometry#mesh56-geometry
v -0.222759 -0.188659 0.196044
v -0.220606 -0.188705 0.197689
v -0.222759 -0.189213 0.215879
v -0.218517 -0.188659 0.196044
v -0.220606 -0.189167 0.214234
v -0.218947 -0.188705 0.197689
v -0.218656 -0.189213 0.215879
v -0.217190 -0.188709 0.197817
v -0.218998 -0.189167 0.214234
v -0.216294 -0.188664 0.196205
v -0.217316 -0.189163 0.214097
v -0.215666 -0.188719 0.198202
v -0.216480 -0.189208 0.215713
v -0.214373 -0.188677 0.196689
v -0.215829 -0.189152 0.213685
v -0.214375 -0.188737 0.198843
v -0.214574 -0.189195 0.215213
v -0.213318 -0.188762 0.199740
v -0.214536 -0.189133 0.212999
v -0.212754 -0.188700 0.197496
v -0.212937 -0.189171 0.214381
v -0.212496 -0.188794 0.200872
v -0.213439 -0.189106 0.212038
v -0.211438 -0.188731 0.198626
v -0.212563 -0.189072 0.210809
v -0.211908 -0.188832 0.202218
v -0.211571 -0.189139 0.213215
v -0.211555 -0.188875 0.203777
v -0.211938 -0.189030 0.209318
v -0.211438 -0.188925 0.205550
v -0.211563 -0.188981 0.207565
v -0.210418 -0.188770 0.200030
v -0.210493 -0.189098 0.211740
v -0.209724 -0.189048 0.209979
v -0.209690 -0.188816 0.201661
v -0.209262 -0.188991 0.207933
v -0.209253 -0.188868 0.203518
v -0.209108 -0.188926 0.205601
vn 0 -0.9996101048671023 -0.02792200292924186
vn 0 0.9996101048671023 0.02792200292924186
usemtl material_0_0
f 1//1 2//1 3//1
f 2//1 1//1 4//1
f 3//2 2//2 1//2
f 4//2 1//2 2//2
f 5//1 3//1 2//1
f 2//2 3//2 5//2
f 2//1 4//1 6//1
f 6//2 4//2 2//2
f 3//1 5//1 7//1
f 7//2 5//2 3//2
f 6//1 4//1 8//1
f 8//2 4//2 6//2
f 7//1 5//1 9//1
f 9//2 5//2 7//2
f 8//1 4//1 10//1
f 10//2 4//2 8//2
f 7//1 9//1 11//1
f 11//2 9//2 7//2
f 8//1 10//1 12//1
f 12//2 10//2 8//2
f 7//1 11//1 13//1
f 13//2 11//2 7//2
f 12//1 10//1 14//1
f 14//2 10//2 12//2
f 13//1 11//1 15//1
f 15//2 11//2 13//2
f 12//1 14//1 16//1
f 16//2 14//2 12//2
f 13//1 15//1 17//1
f 17//2 15//2 13//2
f 16//1 14//1 18//1
f 18//2 14//2 16//2
f 17//1 15//1 19//1
f 19//2 15//2 17//2
f 18//1 14//1 20//1
f 20//2 14//2 18//2
f 17//1 19//1 21//1
f 21//2 19//2 17//2
f 18//1 20//1 22//1
f 22//2 20//2 18//2
f 21//1 19//1 23//1
f 23//2 19//2 21//2
f 22//1 20//1 24//1
f 24//2 20//2 22//2
f 21//1 23//1 25//1
f 25//2 23//2 21//2
f 22//1 24//1 26//1
f 26//2 24//2 22//2
f 21//1 25//1 27//1
f 27//2 25//2 21//2
f 26//1 24//1 28//1
f 28//2 24//2 26//2
f 27//1 25//1 29//1
f 29//2 25//2 27//2
f 28//1 24//1 30//1
f 30//2 24//2 28//2
f 27//1 29//1 31//1
f 31//2 29//2 27//2
f 30//1 24//1 32//1
f 32//2 24//2 30//2
f 27//1 31//1 33//1
f 33//2 31//2 27//2
f 30//1 32//1 33//1
f 33//2 32//2 30//2
f 33//1 31//1 30//1
f 30//2 31//2 33//2
f 33//1 32//1 34//1
f 34//2 32//2 33//2
f 34//1 32//1 35//1
f 35//2 32//2 34//2
f 34//1 35//1 36//1
f 36//2 35//2 34//2
f 36//1 35//1 37//1
f 37//2 35//2 36//2
f 36//1 37//1 38//1
f 38//2 37//2 36//2
