# SSTK version 0.8.0
# 107
mtllib original-107.mtl
o mesh107/mesh107-geometry#mesh107-geometry
v -0.279103 -0.184492 0.046848
v -0.278951 -0.184548 0.048867
v -0.279977 -0.184507 0.047386
v -0.277970 -0.184477 0.046329
v -0.278299 -0.184535 0.048411
v -0.277381 -0.184523 0.047975
v -0.276608 -0.184466 0.045937
v -0.276304 -0.184514 0.047646
v -0.275038 -0.184462 0.045779
v -0.275177 -0.184510 0.047513
v -0.273487 -0.184516 0.047728
v -0.272784 -0.184469 0.046051
v -0.272271 -0.184533 0.048342
v -0.271771 -0.184479 0.046396
v -0.271543 -0.184560 0.049291
v -0.270885 -0.184493 0.046886
v -0.271302 -0.184594 0.050500
v -0.270283 -0.184677 0.053494
v -0.271393 -0.184620 0.051427
v -0.270145 -0.184511 0.047525
v -0.271505 -0.184703 0.054424
v -0.269416 -0.184640 0.052152
v -0.271663 -0.184642 0.052234
v -0.269574 -0.184533 0.048317
v -0.272102 -0.184661 0.052918
v -0.269208 -0.184559 0.049264
v -0.272695 -0.184677 0.053475
v -0.269169 -0.184617 0.051318
v -0.272898 -0.184718 0.054969
v -0.269086 -0.184590 0.050374
v -0.273436 -0.184754 0.056234
v -0.273438 -0.184689 0.053907
v -0.272531 -0.184763 0.056545
v -0.274323 -0.184697 0.054215
v -0.271005 -0.184733 0.055481
v -0.275684 -0.184747 0.055994
v -0.271777 -0.184775 0.056994
v -0.276469 -0.184704 0.054462
v -0.271182 -0.184792 0.057587
v -0.276798 -0.184747 0.055994
v -0.270752 -0.184812 0.058329
v -0.276798 -0.184704 0.054462
v -0.270194 -0.184745 0.055910
v -0.270490 -0.184838 0.059230
v -0.270403 -0.184867 0.060298
v -0.270258 -0.184999 0.064994
v -0.269365 -0.184975 0.064143
v -0.270485 -0.184897 0.061356
v -0.269498 -0.184761 0.056475
v -0.270729 -0.184922 0.062266
v -0.268930 -0.184780 0.057184
v -0.271137 -0.184944 0.063027
v -0.268700 -0.184945 0.063083
v -0.271366 -0.185017 0.065643
v -0.268504 -0.184804 0.058045
v -0.271708 -0.184961 0.063640
v -0.268287 -0.184909 0.061804
v -0.272445 -0.184974 0.064110
v -0.268238 -0.184833 0.059076
v -0.272676 -0.185029 0.066095
v -0.268149 -0.184867 0.060298
v -0.273354 -0.184983 0.064447
v -0.274166 -0.185037 0.066361
v -0.274433 -0.184989 0.064648
v -0.275684 -0.184991 0.064716
v -0.275811 -0.185039 0.066450
v -0.276640 -0.184988 0.064633
v -0.277083 -0.185037 0.066355
v -0.277558 -0.184982 0.064386
v -0.278343 -0.185029 0.066089
v -0.279432 -0.184954 0.063399
v -0.279489 -0.185017 0.065671
v -0.280420 -0.185002 0.065121
vn 0 -0.9996101048671023 -0.02792200292924186
vn 0 0.9996101048671023 0.02792200292924186
usemtl material_0_0
f 1//1 2//1 3//1
f 2//1 1//1 4//1
f 3//2 2//2 1//2
f 4//2 1//2 2//2
f 2//1 4//1 5//1
f 5//2 4//2 2//2
f 5//1 4//1 6//1
f 6//2 4//2 5//2
f 6//1 4//1 7//1
f 7//2 4//2 6//2
f 6//1 7//1 8//1
f 8//2 7//2 6//2
f 8//1 7//1 9//1
f 9//2 7//2 8//2
f 8//1 9//1 10//1
f 10//2 9//2 8//2
f 10//1 9//1 11//1
f 11//2 9//2 10//2
f 11//1 9//1 12//1
f 12//2 9//2 11//2
f 11//1 12//1 13//1
f 13//2 12//2 11//2
f 13//1 12//1 14//1
f 14//2 12//2 13//2
f 13//1 14//1 15//1
f 15//2 14//2 13//2
f 15//1 14//1 16//1
f 16//2 14//2 15//2
f 15//1 16//1 17//1
f 17//2 16//2 15//2
f 18//1 17//1 16//1
f 16//2 17//2 18//2
f 18//1 19//1 17//1
f 17//2 19//2 18//2
f 18//1 16//1 20//1
f 20//2 16//2 18//2
f 21//1 19//1 18//1
f 18//2 19//2 21//2
f 18//1 20//1 22//1
f 22//2 20//2 18//2
f 21//1 23//1 19//1
f 19//2 23//2 21//2
f 22//1 20//1 24//1
f 24//2 20//2 22//2
f 21//1 25//1 23//1
f 23//2 25//2 21//2
f 22//1 24//1 26//1
f 26//2 24//2 22//2
f 21//1 27//1 25//1
f 25//2 27//2 21//2
f 22//1 26//1 28//1
f 28//2 26//2 22//2
f 29//1 27//1 21//1
f 21//2 27//2 29//2
f 28//1 26//1 30//1
f 30//2 26//2 28//2
f 31//1 27//1 29//1
f 29//2 27//2 31//2
f 31//1 32//1 27//1
f 27//2 32//2 31//2
f 29//1 33//1 31//1
f 31//2 33//2 29//2
f 31//1 34//1 32//1
f 32//2 34//2 31//2
f 33//1 29//1 35//1
f 35//2 29//2 33//2
f 36//1 34//1 31//1
f 31//2 34//2 36//2
f 33//1 35//1 37//1
f 37//2 35//2 33//2
f 36//1 38//1 34//1
f 34//2 38//2 36//2
f 37//1 35//1 39//1
f 39//2 35//2 37//2
f 40//1 38//1 36//1
f 36//2 38//2 40//2
f 39//1 35//1 41//1
f 41//2 35//2 39//2
f 38//1 40//1 42//1
f 42//2 40//2 38//2
f 41//1 35//1 43//1
f 43//2 35//2 41//2
f 41//1 43//1 44//1
f 44//2 43//2 41//2
f 44//1 43//1 45//1
f 45//2 43//2 44//2
f 45//1 43//1 46//1
f 46//2 43//2 45//2
f 46//1 43//1 47//1
f 47//2 43//2 46//2
f 46//1 48//1 45//1
f 45//2 48//2 46//2
f 47//1 43//1 49//1
f 49//2 43//2 47//2
f 46//1 50//1 48//1
f 48//2 50//2 46//2
f 47//1 49//1 51//1
f 51//2 49//2 47//2
f 46//1 52//1 50//1
f 50//2 52//2 46//2
f 47//1 51//1 53//1
f 53//2 51//2 47//2
f 54//1 52//1 46//1
f 46//2 52//2 54//2
f 53//1 51//1 55//1
f 55//2 51//2 53//2
f 54//1 56//1 52//1
f 52//2 56//2 54//2
f 53//1 55//1 57//1
f 57//2 55//2 53//2
f 54//1 58//1 56//1
f 56//2 58//2 54//2
f 57//1 55//1 59//1
f 59//2 55//2 57//2
f 60//1 58//1 54//1
f 54//2 58//2 60//2
f 57//1 59//1 61//1
f 61//2 59//2 57//2
f 60//1 62//1 58//1
f 58//2 62//2 60//2
f 63//1 62//1 60//1
f 60//2 62//2 63//2
f 63//1 64//1 62//1
f 62//2 64//2 63//2
f 63//1 65//1 64//1
f 64//2 65//2 63//2
f 66//1 65//1 63//1
f 63//2 65//2 66//2
f 66//1 67//1 65//1
f 65//2 67//2 66//2
f 68//1 67//1 66//1
f 66//2 67//2 68//2
f 68//1 69//1 67//1
f 67//2 69//2 68//2
f 70//1 69//1 68//1
f 68//2 69//2 70//2
f 70//1 71//1 69//1
f 69//2 71//2 70//2
f 72//1 71//1 70//1
f 70//2 71//2 72//2
f 71//1 72//1 73//1
f 73//2 72//2 71//2
