# SSTK version 0.8.0
# 18
mtllib original-18.mtl
o mesh18/mesh18-geometry#mesh18-geometry
v -0.507337 -0.188930 0.205725
v -0.507450 -0.188983 0.207638
v -0.507818 -0.188937 0.206009
v -0.507310 -0.188968 0.207100
v -0.507027 -0.189047 0.209936
v -0.506790 -0.188924 0.205523
v -0.507885 -0.189033 0.209421
v -0.507320 -0.188998 0.208164
v -0.506893 -0.188957 0.206708
v -0.508210 -0.188947 0.206359
v -0.506930 -0.189009 0.208571
v -0.506261 -0.188950 0.206470
v -0.508248 -0.189023 0.209088
v -0.506109 -0.189057 0.210275
v -0.505498 -0.188919 0.205360
v -0.508490 -0.188958 0.206760
v -0.506363 -0.189018 0.208884
v -0.505481 -0.188948 0.206390
v -0.508507 -0.189012 0.208692
v -0.505699 -0.189025 0.209128
v -0.504564 -0.188921 0.205415
v -0.508658 -0.188971 0.207211
v -0.504761 -0.189069 0.210735
v -0.504825 -0.188950 0.206447
v -0.508662 -0.189000 0.208234
v -0.504954 -0.189031 0.209371
v -0.504246 -0.188954 0.206616
v -0.508714 -0.188985 0.207713
v -0.504208 -0.189038 0.209613
v -0.503752 -0.188926 0.205595
v -0.504001 -0.189079 0.211065
v -0.503698 -0.188963 0.206909
v -0.503187 -0.189051 0.210078
v -0.503032 -0.188935 0.205921
v -0.503547 -0.189088 0.211401
v -0.503136 -0.188975 0.207336
v -0.503321 -0.189098 0.211772
v -0.502374 -0.188949 0.206424
v -0.503245 -0.189111 0.212209
v -0.502944 -0.189161 0.214000
v -0.503394 -0.189128 0.212815
v -0.502500 -0.189066 0.210618
v -0.503454 -0.189169 0.214304
v -0.502522 -0.189150 0.213623
v -0.503840 -0.189140 0.213276
v -0.502221 -0.189138 0.213186
v -0.504020 -0.189175 0.214521
v -0.502110 -0.189085 0.211286
v -0.504516 -0.189149 0.213568
v -0.502041 -0.189124 0.212690
v -0.505322 -0.189180 0.214695
v -0.501981 -0.189109 0.212133
v -0.505356 -0.189151 0.213665
v -0.506191 -0.189149 0.213580
v -0.506364 -0.189178 0.214625
v -0.506872 -0.189142 0.213322
v -0.507278 -0.189172 0.214415
v -0.507466 -0.189130 0.212910
v -0.508044 -0.189115 0.212359
v -0.508114 -0.189161 0.213999
v -0.508924 -0.189141 0.213314
vn 0 -0.9996101048671023 -0.02792200292924186
vn 0 0.9996101048671023 0.02792200292924186
usemtl material_0_0
f 1//1 2//1 3//1
f 2//1 1//1 4//1
f 3//2 2//2 1//2
f 4//2 1//2 2//2
f 5//1 3//1 2//1
f 2//2 3//2 5//2
f 4//1 1//1 6//1
f 6//2 1//2 4//2
f 7//1 3//1 5//1
f 5//2 3//2 7//2
f 5//1 2//1 8//1
f 8//2 2//2 5//2
f 4//1 6//1 9//1
f 9//2 6//2 4//2
f 7//1 10//1 3//1
f 3//2 10//2 7//2
f 5//1 8//1 11//1
f 11//2 8//2 5//2
f 9//1 6//1 12//1
f 12//2 6//2 9//2
f 13//1 10//1 7//1
f 7//2 10//2 13//2
f 5//1 11//1 14//1
f 14//2 11//2 5//2
f 12//1 6//1 15//1
f 15//2 6//2 12//2
f 13//1 16//1 10//1
f 10//2 16//2 13//2
f 14//1 11//1 17//1
f 17//2 11//2 14//2
f 12//1 15//1 18//1
f 18//2 15//2 12//2
f 19//1 16//1 13//1
f 13//2 16//2 19//2
f 14//1 17//1 20//1
f 20//2 17//2 14//2
f 18//1 15//1 21//1
f 21//2 15//2 18//2
f 19//1 22//1 16//1
f 16//2 22//2 19//2
f 14//1 20//1 23//1
f 23//2 20//2 14//2
f 18//1 21//1 24//1
f 24//2 21//2 18//2
f 25//1 22//1 19//1
f 19//2 22//2 25//2
f 23//1 20//1 26//1
f 26//2 20//2 23//2
f 24//1 21//1 27//1
f 27//2 21//2 24//2
f 22//1 25//1 28//1
f 28//2 25//2 22//2
f 23//1 26//1 29//1
f 29//2 26//2 23//2
f 27//1 21//1 30//1
f 30//2 21//2 27//2
f 23//1 29//1 31//1
f 31//2 29//2 23//2
f 27//1 30//1 32//1
f 32//2 30//2 27//2
f 31//1 29//1 33//1
f 33//2 29//2 31//2
f 32//1 30//1 34//1
f 34//2 30//2 32//2
f 31//1 33//1 35//1
f 35//2 33//2 31//2
f 32//1 34//1 36//1
f 36//2 34//2 32//2
f 35//1 33//1 37//1
f 37//2 33//2 35//2
f 36//1 34//1 38//1
f 38//2 34//2 36//2
f 37//1 33//1 39//1
f 39//2 33//2 37//2
f 40//1 39//1 33//1
f 33//2 39//2 40//2
f 40//1 41//1 39//1
f 39//2 41//2 40//2
f 40//1 33//1 42//1
f 42//2 33//2 40//2
f 43//1 41//1 40//1
f 40//2 41//2 43//2
f 40//1 42//1 44//1
f 44//2 42//2 40//2
f 43//1 45//1 41//1
f 41//2 45//2 43//2
f 44//1 42//1 46//1
f 46//2 42//2 44//2
f 47//1 45//1 43//1
f 43//2 45//2 47//2
f 46//1 42//1 48//1
f 48//2 42//2 46//2
f 47//1 49//1 45//1
f 45//2 49//2 47//2
f 46//1 48//1 50//1
f 50//2 48//2 46//2
f 51//1 49//1 47//1
f 47//2 49//2 51//2
f 50//1 48//1 52//1
f 52//2 48//2 50//2
f 51//1 53//1 49//1
f 49//2 53//2 51//2
f 51//1 54//1 53//1
f 53//2 54//2 51//2
f 55//1 54//1 51//1
f 51//2 54//2 55//2
f 55//1 56//1 54//1
f 54//2 56//2 55//2
f 57//1 56//1 55//1
f 55//2 56//2 57//2
f 57//1 58//1 56//1
f 56//2 58//2 57//2
f 57//1 59//1 58//1
f 58//2 59//2 57//2
f 60//1 59//1 57//1
f 57//2 59//2 60//2
f 59//1 60//1 61//1
f 61//2 60//2 59//2
