# SSTK version 0.8.0
# 117
mtllib original-117.mtl
o mesh117/mesh117-geometry#mesh117-geometry
v -0.045038 -0.184550 0.048924
v -0.044728 -0.184796 0.057753
v -0.044734 -0.184809 0.058203
v -0.044525 -0.184716 0.054893
v -0.044728 -0.184820 0.058602
v -0.043928 -0.184512 0.047570
v -0.044683 -0.184784 0.057298
v -0.045361 -0.184979 0.064304
v -0.043930 -0.184629 0.051753
v -0.044576 -0.184771 0.056855
v -0.045877 -0.184598 0.050644
v -0.044500 -0.185005 0.065243
v -0.043477 -0.184594 0.050527
v -0.043792 -0.184749 0.056049
v -0.046037 -0.184946 0.063099
v -0.044661 -0.184862 0.060114
v -0.042537 -0.184484 0.046582
v -0.043772 -0.184699 0.054285
v -0.046456 -0.184656 0.052728
v -0.044411 -0.184898 0.061386
v -0.042904 -0.184566 0.049506
v -0.042885 -0.184734 0.055532
v -0.046519 -0.184905 0.061628
v -0.043464 -0.185024 0.065913
v -0.042204 -0.184543 0.048696
v -0.042803 -0.184685 0.053779
v -0.046793 -0.184724 0.055152
v -0.044011 -0.184927 0.062431
v -0.040846 -0.184467 0.045979
v -0.041807 -0.184726 0.055252
v -0.046809 -0.184856 0.059893
v -0.043493 -0.184950 0.063260
v -0.041372 -0.184527 0.048101
v -0.041654 -0.184676 0.053437
v -0.046906 -0.184800 0.057893
v -0.042869 -0.184968 0.063883
v -0.040394 -0.184516 0.047736
v -0.040511 -0.184724 0.055158
v -0.042253 -0.185035 0.066316
v -0.038839 -0.184462 0.045779
v -0.040359 -0.184673 0.053323
v -0.042151 -0.184979 0.064311
v -0.039257 -0.184513 0.047614
v -0.039035 -0.184729 0.055337
v -0.040865 -0.185039 0.066450
v -0.038333 -0.184515 0.047677
v -0.038261 -0.184679 0.053551
v -0.041370 -0.184986 0.064557
v -0.036851 -0.184467 0.045956
v -0.037877 -0.184744 0.055874
v -0.040561 -0.184989 0.064640
v -0.037408 -0.184519 0.047842
v -0.037406 -0.184687 0.053836
v -0.039315 -0.185036 0.066337
v -0.036541 -0.184526 0.048089
v -0.037038 -0.184766 0.056673
v -0.039645 -0.184986 0.064537
v -0.035040 -0.184481 0.046462
v -0.036680 -0.184698 0.054234
v -0.038668 -0.184977 0.064228
v -0.035800 -0.184535 0.048386
v -0.036522 -0.184793 0.057640
v -0.037957 -0.185027 0.065999
v -0.035526 -0.184726 0.055245
v -0.037726 -0.184961 0.063646
v -0.036256 -0.184823 0.058696
v -0.036792 -0.185011 0.065435
v -0.036167 -0.184853 0.059766
v -0.036914 -0.184935 0.062722
v -0.035819 -0.184989 0.064646
v -0.036354 -0.184899 0.061435
v -0.035052 -0.184961 0.063661
v -0.034711 -0.184760 0.056456
v -0.034504 -0.184929 0.062508
v -0.034227 -0.184801 0.057923
v -0.034175 -0.184892 0.061189
v -0.034065 -0.184851 0.059703
vn 0 -0.9996101048671023 -0.02792200292924186
vn 0 0.9996101048671023 0.02792200292924186
usemtl material_0_0
f 1//1 2//1 3//1
f 2//1 1//1 4//1
f 3//2 2//2 1//2
f 4//2 1//2 2//2
f 5//1 1//1 3//1
f 3//2 1//2 5//2
f 4//1 1//1 6//1
f 6//2 1//2 4//2
f 2//1 4//1 7//1
f 7//2 4//2 2//2
f 8//1 1//1 5//1
f 5//2 1//2 8//2
f 4//1 6//1 9//1
f 9//2 6//2 4//2
f 7//1 4//1 10//1
f 10//2 4//2 7//2
f 8//1 11//1 1//1
f 1//2 11//2 8//2
f 8//1 5//1 12//1
f 12//2 5//2 8//2
f 9//1 6//1 13//1
f 13//2 6//2 9//2
f 4//1 14//1 10//1
f 10//2 14//2 4//2
f 15//1 11//1 8//1
f 8//2 11//2 15//2
f 12//1 5//1 16//1
f 16//2 5//2 12//2
f 13//1 6//1 17//1
f 17//2 6//2 13//2
f 14//1 4//1 18//1
f 18//2 4//2 14//2
f 15//1 19//1 11//1
f 11//2 19//2 15//2
f 12//1 16//1 20//1
f 20//2 16//2 12//2
f 13//1 17//1 21//1
f 21//2 17//2 13//2
f 14//1 18//1 22//1
f 22//2 18//2 14//2
f 23//1 19//1 15//1
f 15//2 19//2 23//2
f 12//1 20//1 24//1
f 24//2 20//2 12//2
f 21//1 17//1 25//1
f 25//2 17//2 21//2
f 22//1 18//1 26//1
f 26//2 18//2 22//2
f 23//1 27//1 19//1
f 19//2 27//2 23//2
f 24//1 20//1 28//1
f 28//2 20//2 24//2
f 25//1 17//1 29//1
f 29//2 17//2 25//2
f 22//1 26//1 30//1
f 30//2 26//2 22//2
f 31//1 27//1 23//1
f 23//2 27//2 31//2
f 24//1 28//1 32//1
f 32//2 28//2 24//2
f 25//1 29//1 33//1
f 33//2 29//2 25//2
f 30//1 26//1 34//1
f 34//2 26//2 30//2
f 27//1 31//1 35//1
f 35//2 31//2 27//2
f 24//1 32//1 36//1
f 36//2 32//2 24//2
f 33//1 29//1 37//1
f 37//2 29//2 33//2
f 30//1 34//1 38//1
f 38//2 34//2 30//2
f 24//1 36//1 39//1
f 39//2 36//2 24//2
f 37//1 29//1 40//1
f 40//2 29//2 37//2
f 38//1 34//1 41//1
f 41//2 34//2 38//2
f 39//1 36//1 42//1
f 42//2 36//2 39//2
f 37//1 40//1 43//1
f 43//2 40//2 37//2
f 38//1 41//1 44//1
f 44//2 41//2 38//2
f 39//1 42//1 45//1
f 45//2 42//2 39//2
f 43//1 40//1 46//1
f 46//2 40//2 43//2
f 44//1 41//1 47//1
f 47//2 41//2 44//2
f 45//1 42//1 48//1
f 48//2 42//2 45//2
f 46//1 40//1 49//1
f 49//2 40//2 46//2
f 44//1 47//1 50//1
f 50//2 47//2 44//2
f 45//1 48//1 51//1
f 51//2 48//2 45//2
f 46//1 49//1 52//1
f 52//2 49//2 46//2
f 50//1 47//1 53//1
f 53//2 47//2 50//2
f 45//1 51//1 54//1
f 54//2 51//2 45//2
f 52//1 49//1 55//1
f 55//2 49//2 52//2
f 50//1 53//1 56//1
f 56//2 53//2 50//2
f 54//1 51//1 57//1
f 57//2 51//2 54//2
f 55//1 49//1 58//1
f 58//2 49//2 55//2
f 56//1 53//1 59//1
f 59//2 53//2 56//2
f 54//1 57//1 60//1
f 60//2 57//2 54//2
f 55//1 58//1 61//1
f 61//2 58//2 55//2
f 56//1 59//1 62//1
f 62//2 59//2 56//2
f 54//1 60//1 63//1
f 63//2 60//2 54//2
f 62//1 59//1 64//1
f 64//2 59//2 62//2
f 63//1 60//1 65//1
f 65//2 60//2 63//2
f 62//1 64//1 66//1
f 66//2 64//2 62//2
f 63//1 65//1 67//1
f 67//2 65//2 63//2
f 66//1 64//1 68//1
f 68//2 64//2 66//2
f 67//1 65//1 69//1
f 69//2 65//2 67//2
f 68//1 64//1 70//1
f 70//2 64//2 68//2
f 67//1 69//1 71//1
f 71//2 69//2 67//2
f 70//1 64//1 72//1
f 72//2 64//2 70//2
f 70//1 71//1 68//1
f 68//2 71//2 70//2
f 67//1 71//1 70//1
f 70//2 71//2 67//2
f 72//1 64//1 73//1
f 73//2 64//2 72//2
f 72//1 73//1 74//1
f 74//2 73//2 72//2
f 74//1 73//1 75//1
f 75//2 73//2 74//2
f 74//1 75//1 76//1
f 76//2 75//2 74//2
f 76//1 75//1 77//1
f 77//2 75//2 76//2
