# SSTK version 0.8.0
# 132
mtllib original-132.mtl
o mesh132/mesh132-geometry#mesh132-geometry
v -0.319138 -0.186535 0.120006
v -0.316656 -0.187089 0.139842
v -0.321455 -0.186535 0.120006
v -0.315542 -0.186992 0.136349
v -0.314592 -0.187089 0.139842
v -0.311388 -0.186535 0.120006
v -0.310552 -0.186639 0.123715
v -0.309691 -0.186535 0.120006
v -0.306715 -0.187089 0.139842
v -0.305614 -0.186992 0.136349
v -0.304512 -0.187089 0.139842
v -0.302080 -0.186535 0.120006
v -0.299801 -0.186535 0.120006
vn 0 -0.9996101048671023 -0.02792200292924186
vn 0 0.9996101048671023 0.02792200292924186
usemtl material_0_0
f 1//1 2//1 3//1
f 2//1 1//1 4//1
f 3//2 2//2 1//2
f 4//2 1//2 2//2
f 2//1 4//1 5//1
f 5//2 4//2 2//2
f 5//1 4//1 6//1
f 6//2 4//2 5//2
f 5//1 6//1 7//1
f 7//2 6//2 5//2
f 7//1 6//1 8//1
f 8//2 6//2 7//2
f 7//1 8//1 9//1
f 9//2 8//2 7//2
f 9//1 8//1 10//1
f 10//2 8//2 9//2
f 9//1 10//1 11//1
f 11//2 10//2 9//2
f 11//1 10//1 12//1
f 12//2 10//2 11//2
f 11//1 12//1 13//1
f 13//2 12//2 11//2
