# SSTK version 0.8.0
# 10
mtllib original-10.mtl
o #ID61
v -0.208756 0.468914 0.082151
v -0.200954 0.468914 0.079972
v -0.206955 0.468914 0.037842
v -0.191226 0.468914 0.123237
v -0.184254 0.468914 0.119113
v -0.163659 0.468914 0.158386
v -0.157993 0.468914 0.152599
v -0.127935 0.468914 0.185203
v -0.123960 0.468914 0.178146
v -0.086487 0.468914 0.201860
v -0.084474 0.468914 0.194014
v -0.042141 0.468914 0.207222
v -0.042226 0.468914 0.199122
v -0.000097 0.468914 0.193122
v 0.002082 0.468914 0.200923
v 0.039044 0.468914 0.176422
v 0.043169 0.468914 0.183393
v 0.072530 0.468914 0.150160
v 0.078318 0.468914 0.155827
v 0.098077 0.468914 0.116127
v 0.105134 0.468914 0.120103
v 0.113945 0.468914 0.076641
v 0.121791 0.468914 0.078655
v 0.119053 0.468914 0.034394
v 0.120854 0.468914 -0.009915
v 0.127153 0.468914 0.034308
v -0.209693 0.468914 -0.006419
v -0.215054 0.468914 0.037928
v -0.201847 0.468914 -0.004405
v -0.193036 0.468914 -0.047866
v -0.185978 0.468914 -0.043891
v -0.166219 0.468914 -0.083591
v -0.160431 0.468914 -0.077924
v -0.131070 0.468914 -0.111157
v -0.126946 0.468914 -0.104186
v -0.089984 0.468914 -0.128687
v -0.087805 0.468914 -0.120886
v -0.045760 0.468914 -0.134986
v -0.045675 0.468914 -0.126886
v -0.001414 0.468914 -0.129624
v -0.003428 0.468914 -0.121778
v 0.036058 0.468914 -0.105910
v 0.040034 0.468914 -0.112967
v 0.070092 0.468914 -0.080362
v 0.075758 0.468914 -0.086150
v 0.096353 0.468914 -0.046877
v 0.103325 0.468914 -0.051001
v 0.113053 0.468914 -0.007736
v 0.002082 0.468914 0.200923
v 0.043169 0.477014 0.183393
v 0.043169 0.468914 0.183393
v 0.002082 0.477014 0.200923
v 0.078318 0.477014 0.155827
v 0.078318 0.468914 0.155827
v 0.105134 0.468914 0.120103
v 0.105134 0.477014 0.120103
v 0.121791 0.468914 0.078655
v 0.121791 0.477014 0.078655
v 0.127153 0.477014 0.034308
v 0.127153 0.468914 0.034308
v 0.120854 0.477014 -0.009915
v 0.120854 0.468914 -0.009915
v 0.103325 0.477014 -0.051001
v 0.103325 0.468914 -0.051001
v 0.075758 0.477014 -0.086150
v 0.075758 0.468914 -0.086150
v 0.040034 0.468914 -0.112967
v 0.040034 0.477014 -0.112967
v -0.001414 0.468914 -0.129624
v -0.001414 0.477014 -0.129624
v -0.045760 0.468914 -0.134986
v -0.045760 0.477014 -0.134986
v -0.089984 0.468914 -0.128687
v -0.089984 0.477014 -0.128687
v -0.131070 0.468914 -0.111157
v -0.131070 0.477014 -0.111157
v -0.166219 0.468914 -0.083591
v -0.166219 0.477014 -0.083591
v -0.193036 0.477014 -0.047866
v -0.193036 0.468914 -0.047866
v -0.209693 0.468914 -0.006419
v -0.209693 0.477014 -0.006419
v -0.215054 0.468914 0.037928
v -0.215054 0.477014 0.037928
v -0.208756 0.468914 0.082151
v -0.208756 0.477014 0.082151
v -0.191226 0.477014 0.123237
v -0.191226 0.468914 0.123237
v -0.163659 0.477014 0.158386
v -0.163659 0.468914 0.158386
v -0.127935 0.477014 0.185203
v -0.127935 0.468914 0.185203
v -0.086487 0.477014 0.201860
v -0.086487 0.468914 0.201860
v -0.042141 0.477014 0.207222
v -0.042141 0.468914 0.207222
vn 0 1 0
vn -0.2690207914860302 0 -0.9631343695187241
vn -0.5091315937819122 0 -0.8606886894883015
vn -0.7145459801898383 0 -0.6995884806045218
vn -0.8712652847625071 0 -0.490812391416219
vn -0.968609212137061 0 -0.24858840311491215
vn -0.9999440664172259 0 0.010576579644789247
vn -0.9631343695187241 0 0.2690207914860302
vn -0.8606886894883015 0 0.5091315937819122
vn -0.6995884806045218 0 0.7145459801898383
vn -0.490812391416219 0 0.8712652847625071
vn -0.24858840311491215 0 0.968609212137061
vn 0.010576579644789247 0 0.9999440664172259
vn 0.2690207914860302 0 0.9631343695187241
vn 0.5091315937819122 0 0.8606886894883015
vn 0.7145459801898383 0 0.6995884806045218
vn 0.8712652847625071 0 0.490812391416219
vn 0.968609212137061 0 0.24858840311491215
vn 0.9999440664172259 0 -0.010576579644789247
vn 0.9631343695187241 0 -0.2690207914860302
vn 0.8606886894883015 0 -0.5091315937819122
vn 0.6995884806045218 0 -0.7145459801898383
vn 0.490812391416219 0 -0.8712652847625071
vn 0.24858840311491215 0 -0.968609212137061
vn -0.010576579644789247 0 -0.9999440664172259
usemtl material_0_0
f 1//1 2//1 3//1
f 2//1 1//1 4//1
f 2//1 4//1 5//1
f 5//1 4//1 6//1
f 5//1 6//1 7//1
f 7//1 6//1 8//1
f 7//1 8//1 9//1
f 9//1 8//1 10//1
f 9//1 10//1 11//1
f 11//1 10//1 12//1
f 11//1 12//1 13//1
f 13//1 12//1 14//1
f 14//1 12//1 15//1
f 14//1 15//1 16//1
f 16//1 15//1 17//1
f 16//1 17//1 18//1
f 18//1 17//1 19//1
f 18//1 19//1 20//1
f 20//1 19//1 21//1
f 20//1 21//1 22//1
f 22//1 21//1 23//1
f 22//1 23//1 24//1
f 24//1 23//1 25//1
f 25//1 23//1 26//1
f 1//1 27//1 28//1
f 27//1 1//1 3//1
f 27//1 3//1 29//1
f 27//1 29//1 30//1
f 30//1 29//1 31//1
f 30//1 31//1 32//1
f 32//1 31//1 33//1
f 32//1 33//1 34//1
f 34//1 33//1 35//1
f 34//1 35//1 36//1
f 36//1 35//1 37//1
f 36//1 37//1 38//1
f 38//1 37//1 39//1
f 38//1 39//1 40//1
f 40//1 39//1 41//1
f 40//1 41//1 42//1
f 40//1 42//1 43//1
f 43//1 42//1 44//1
f 43//1 44//1 45//1
f 45//1 44//1 46//1
f 45//1 46//1 47//1
f 47//1 46//1 48//1
f 47//1 48//1 25//1
f 25//1 48//1 24//1
f 49//2 50//3 51//3
f 50//3 49//2 52//2
f 51//3 53//4 54//4
f 53//4 51//3 50//3
f 53//4 55//5 54//4
f 55//5 53//4 56//5
f 56//5 57//6 55//5
f 57//6 56//5 58//6
f 59//7 57//6 58//6
f 57//6 59//7 60//7
f 61//8 60//7 59//7
f 60//7 61//8 62//8
f 63//9 62//8 61//8
f 62//8 63//9 64//9
f 65//10 64//9 63//9
f 64//9 65//10 66//10
f 65//10 67//11 66//10
f 67//11 65//10 68//11
f 68//11 69//12 67//11
f 69//12 68//11 70//12
f 70//12 71//13 69//12
f 71//13 70//12 72//13
f 72//13 73//14 71//13
f 73//14 72//13 74//14
f 74//14 75//15 73//14
f 75//15 74//14 76//15
f 76//15 77//16 75//15
f 77//16 76//15 78//16
f 77//16 79//17 80//17
f 79//17 77//16 78//16
f 81//18 79//17 82//18
f 79//17 81//18 80//17
f 83//19 82//18 84//19
f 82//18 83//19 81//18
f 85//20 84//19 86//20
f 84//19 85//20 83//19
f 85//20 87//21 88//21
f 87//21 85//20 86//20
f 88//21 89//22 90//22
f 89//22 88//21 87//21
f 90//22 91//23 92//23
f 91//23 90//22 89//22
f 92//23 93//24 94//24
f 93//24 92//23 91//23
f 94//24 95//25 96//25
f 95//25 94//24 93//24
f 96//25 52//2 49//2
f 52//2 96//25 95//25
