# SSTK version 0.8.0
# 33
mtllib original-33.mtl
o #ID201
v -0.425533 -0.435270 -0.239394
v -0.429583 -0.435251 -0.235668
v -0.429583 -0.435270 -0.239394
v -0.425533 -0.435251 -0.235668
v -0.425533 -0.435270 -0.239394
v -0.429583 -0.607394 -0.238530
v -0.425533 -0.607394 -0.238530
v -0.429583 -0.435270 -0.239394
v -0.425533 -0.435251 -0.235668
v -0.425533 -0.607394 -0.238530
v -0.425533 -0.607375 -0.234804
v -0.425533 -0.435270 -0.239394
v -0.429583 -0.435251 -0.235668
v -0.425533 -0.607375 -0.234804
v -0.429583 -0.607375 -0.234804
v -0.425533 -0.435251 -0.235668
v -0.429583 -0.607375 -0.234804
v -0.425533 -0.607394 -0.238530
v -0.429583 -0.607394 -0.238530
v -0.425533 -0.607375 -0.234804
vn 0 -0.999987399765803 0.005019990998824096
vn 0 0.005019990998824096 0.999987399765803
vn -1 0 0
vn 0 -0.005019990998824096 -0.999987399765803
vn 0 0.999987399765803 -0.005019990998824096
usemtl material_0_0
f 1//1 2//1 3//1
f 2//1 1//1 4//1
f 5//2 6//2 7//2
f 6//2 5//2 8//2
f 9//3 10//3 11//3
f 10//3 9//3 12//3
f 13//4 14//4 15//4
f 14//4 13//4 16//4
f 17//5 18//5 19//5
f 18//5 17//5 20//5
