# SSTK version 0.8.0
# 13
mtllib original-13.mtl
o #ID81
v -0.172080 0.090238 0.088081
v -0.172080 0.090238 -0.019636
v -0.182793 0.090238 0.034223
v -0.141572 0.090238 -0.065294
v -0.141572 0.090238 0.133740
v -0.095913 0.090238 0.164248
v -0.095913 0.090238 -0.095802
v -0.042055 0.090238 0.174961
v -0.042055 0.090238 -0.106516
v 0.011803 0.090238 0.164248
v 0.011803 0.090238 -0.095802
v 0.057462 0.090238 0.133740
v 0.057462 0.090238 -0.065294
v 0.087970 0.090238 0.088081
v 0.087970 0.090238 -0.019636
v 0.098683 0.090238 0.034223
vn 0 1 0
usemtl material_0_0
f 1//1 2//1 3//1
f 2//1 1//1 4//1
f 4//1 1//1 5//1
f 4//1 5//1 6//1
f 4//1 6//1 7//1
f 7//1 6//1 8//1
f 7//1 8//1 9//1
f 9//1 8//1 10//1
f 9//1 10//1 11//1
f 11//1 10//1 12//1
f 11//1 12//1 13//1
f 13//1 12//1 14//1
f 13//1 14//1 15//1
f 15//1 14//1 16//1
