# SSTK version 0.8.0
# 72
mtllib original-72.mtl
o #ID415
v -0.315960 0.491141 -0.305808
v -0.314004 0.491665 -0.305807
v -0.314912 0.491141 -0.305808
v -0.316868 0.491665 -0.305807
v -0.313480 0.492573 -0.305805
v -0.317392 0.492573 -0.305805
v -0.313480 0.493621 -0.305804
v -0.317392 0.493621 -0.305804
v -0.316868 0.494529 -0.305802
v -0.314004 0.494529 -0.305802
v -0.314912 0.495053 -0.305801
v -0.315960 0.495053 -0.305801
v -0.314912 0.495032 -0.293546
v -0.314004 0.494529 -0.305802
v -0.314912 0.495053 -0.305801
v -0.314004 0.494508 -0.293547
v -0.313480 0.493600 -0.293548
v -0.313480 0.493621 -0.305804
v -0.313480 0.492552 -0.293550
v -0.313480 0.492573 -0.305805
v -0.314004 0.491644 -0.293552
v -0.314004 0.491665 -0.305807
v -0.314912 0.491120 -0.293553
v -0.314912 0.491141 -0.305808
v -0.315960 0.491120 -0.293553
v -0.315960 0.491141 -0.305808
v -0.316868 0.491644 -0.293552
v -0.316868 0.491665 -0.305807
v -0.317392 0.492573 -0.305805
v -0.317392 0.492552 -0.293550
v -0.317392 0.493621 -0.305804
v -0.317392 0.493600 -0.293548
v -0.316868 0.494529 -0.305802
v -0.316868 0.494508 -0.293547
v -0.315960 0.495053 -0.305801
v -0.315960 0.495032 -0.293546
vn 0 0.001673364999872726 -0.9999985999238086
vn 0.2588189965013312 0.9659244869428059 0.0016163459781507392
vn 0.7071067861846504 0.7071057861846699 0.00118324797688203
vn 0.9659258202121296 0.25881870541581675 0.000433098609062705
vn 0.9659258202121296 -0.25881870541581675 -0.000433098609062705
vn 0.7071067861846504 -0.7071057861846699 -0.00118324797688203
vn 0.2588189965013312 -0.9659244869428059 -0.0016163459781507392
vn -0.2588189965013312 -0.9659244869428059 -0.0016163459781507392
vn -0.7071067861846504 -0.7071057861846699 -0.00118324797688203
vn -0.9659258202121296 -0.25881870541581675 -0.000433098609062705
vn -0.9659258202121296 0.25881870541581675 0.000433098609062705
vn -0.7071067861846504 0.7071057861846699 0.00118324797688203
vn -0.2588189965013312 0.9659244869428059 0.0016163459781507392
usemtl material_0_0
f 1//1 2//1 3//1
f 2//1 1//1 4//1
f 2//1 4//1 5//1
f 5//1 4//1 6//1
f 5//1 6//1 7//1
f 7//1 6//1 8//1
f 7//1 8//1 9//1
f 7//1 9//1 10//1
f 10//1 9//1 11//1
f 11//1 9//1 12//1
f 13//2 14//3 15//2
f 14//3 13//2 16//3
f 17//4 14//3 16//3
f 14//3 17//4 18//4
f 19//5 18//4 17//4
f 18//4 19//5 20//5
f 21//6 20//5 19//5
f 20//5 21//6 22//6
f 22//6 23//7 24//7
f 23//7 22//6 21//6
f 24//7 25//8 26//8
f 25//8 24//7 23//7
f 26//8 27//9 28//9
f 27//9 26//8 25//8
f 29//10 27//9 30//10
f 27//9 29//10 28//9
f 31//11 30//10 32//11
f 30//10 31//11 29//10
f 33//12 32//11 34//12
f 32//11 33//12 31//11
f 34//12 35//13 33//12
f 35//13 34//12 36//13
f 36//13 15//2 35//13
f 15//2 36//13 13//2
