# Blender v2.79 (sub 0) OBJ File: ''
# www.blender.org
mtllib 101673_link_0_11.mtl
o Shape_IndexedFaceSet.011_Shape_IndexedFaceSet.5725
v 0.584726 0.225152 -0.018200
v 0.632627 0.414242 0.080131
v 0.635151 0.414242 0.077601
v 0.607422 0.414223 -0.030797
v 0.612460 0.227684 -0.025758
v 0.582207 0.230197 0.080131
v 0.609936 0.225152 0.080131
v 0.604898 0.414223 0.077601
v 0.635151 0.414242 -0.028278
v 0.582207 0.240270 -0.028278
v 0.630103 0.361272 0.075082
v 0.607417 0.225152 -0.030797
v 0.604898 0.414223 -0.025758
v 0.635151 0.399105 -0.023239
v 0.584726 0.262966 0.075082
v 0.620022 0.283149 0.072562
v 0.599855 0.222619 0.080131
v 0.582207 0.245315 -0.023239
v 0.584726 0.230197 -0.030797
v 0.632627 0.401618 -0.030797
v 0.609936 0.222619 -0.028278
v 0.607422 0.414223 0.080131
v 0.612460 0.230216 0.075082
vn 0.9768 -0.1315 0.1690
vn 0.7054 -0.0846 0.7037
vn -0.0000 0.0000 1.0000
vn 0.0000 1.0000 0.0000
vn -0.9845 -0.1749 -0.0162
vn 0.8435 -0.1054 0.5267
vn -0.0007 1.0000 0.0000
vn -0.0006 1.0000 -0.0000
vn -0.0007 1.0000 -0.0003
vn -0.8874 0.1222 -0.4445
vn 1.0000 0.0000 0.0000
vn 0.9953 -0.0955 0.0143
vn -0.9425 0.1205 0.3118
vn 0.9914 -0.1312 -0.0022
vn 0.9918 -0.1280 0.0017
vn -0.3943 -0.9182 0.0370
vn -1.0000 0.0000 0.0000
vn -0.9911 0.1331 0.0000
vn -0.9829 0.1301 -0.1303
vn -0.9969 0.0784 0.0115
vn -0.9912 0.1322 0.0017
vn -0.9713 -0.2208 -0.0884
vn -0.5552 0.0685 -0.8289
vn 0.0000 0.0000 -1.0000
vn 0.0889 0.1778 -0.9800
vn 0.9298 -0.1162 -0.3492
vn 0.9295 -0.1179 -0.3496
vn 0.8929 -0.4502 0.0105
vn -0.1038 -0.9946 -0.0097
vn 0.2436 -0.9696 0.0227
vn -0.2351 -0.9023 -0.3614
vn -0.1724 -0.7755 -0.6074
vn 0.8042 -0.1102 -0.5841
vn 0.6554 -0.0936 -0.7495
vn -0.0008 1.0000 0.0008
vn -0.7046 0.0965 0.7030
vn 0.8993 -0.4373 0.0110
vn 0.9320 -0.1255 0.3401
vn 0.9900 -0.1413 0.0035
usemtl Shape.5726
s off
f 16//1 11//1 23//1
f 3//2 2//2 7//2
f 2//3 6//3 7//3
f 2//4 3//4 9//4
f 1//5 6//5 10//5
f 3//6 7//6 11//6
f 8//7 2//7 13//7
f 2//8 9//8 13//8
f 9//9 4//9 13//9
f 4//10 10//10 13//10
f 9//11 3//11 14//11
f 3//12 11//12 14//12
f 6//13 8//13 15//13
f 5//14 14//14 16//14
f 14//15 11//15 16//15
f 6//16 1//16 17//16
f 7//3 6//3 17//3
f 10//17 6//17 18//17
f 8//18 13//18 18//18
f 13//19 10//19 18//19
f 6//20 15//20 18//20
f 15//21 8//21 18//21
f 1//22 10//22 19//22
f 10//23 4//23 19//23
f 4//24 12//24 19//24
f 4//25 9//25 20//25
f 12//24 4//24 20//24
f 9//26 14//26 20//26
f 14//27 5//27 20//27
f 5//28 7//28 21//28
f 17//29 1//29 21//29
f 7//30 17//30 21//30
f 1//31 19//31 21//31
f 19//32 12//32 21//32
f 20//33 5//33 21//33
f 12//34 20//34 21//34
f 6//3 2//3 22//3
f 2//35 8//35 22//35
f 8//36 6//36 22//36
f 7//37 5//37 23//37
f 11//38 7//38 23//38
f 5//39 16//39 23//39
