# Blender v2.79 (sub 0) OBJ File: ''
# www.blender.org
mtllib 101673_link_0_8.mtl
o Shape_IndexedFaceSet.008_Shape_IndexedFaceSet.5722
v 0.024984 1.014318 -0.023239
v -0.159066 0.958859 -0.030797
v -0.159066 0.984068 -0.030797
v -0.159066 0.958859 0.080131
v 0.024984 0.984074 -0.028278
v 0.004806 1.011798 0.080131
v 0.024984 0.984074 0.080131
v -0.159066 0.986583 0.072562
v -0.148977 0.956333 -0.025758
v -0.131322 0.991629 -0.025758
v -0.131322 0.958859 0.075082
v 0.017399 1.014324 0.075082
v 0.024984 1.009277 -0.030797
v -0.159066 0.984068 0.080131
v 0.014877 1.014324 -0.023239
v 0.024984 1.011798 0.080131
v -0.017894 0.976507 -0.023239
v -0.017894 1.009277 0.075082
v 0.024984 0.986588 -0.030797
v -0.159066 0.956333 0.077601
v -0.002761 0.979027 0.075082
vn 0.1550 -0.9879 0.0015
vn -1.0000 0.0000 0.0000
vn 1.0000 0.0000 0.0000
vn 0.0000 0.0000 1.0000
vn 0.1149 -0.7767 -0.6193
vn -0.2589 0.9656 -0.0235
vn 0.0000 0.0000 -1.0000
vn -0.1586 0.9370 0.3113
vn -0.1156 0.8086 -0.5769
vn 0.0006 1.0000 -0.0000
vn -0.1038 0.7575 -0.6446
vn 0.0005 0.8319 -0.5549
vn 0.3019 0.9531 0.0232
vn 0.0000 0.8943 0.4474
vn 0.1531 -0.9750 -0.1610
vn 0.1521 -0.9884 -0.0019
vn -0.1584 0.9595 0.2331
vn -0.1588 0.9873 0.0059
vn -0.1402 0.9801 0.1408
vn -0.1534 0.9882 -0.0004
vn -0.1416 0.9899 0.0036
vn 0.1060 -0.7038 -0.7024
vn 0.0965 -0.7044 0.7033
vn -0.2322 -0.9724 -0.0227
vn 0.1231 -0.8618 0.4920
vn 0.0915 -0.9958 0.0089
vn 0.1790 -0.9839 0.0000
vn 0.1536 -0.9789 0.1347
vn 0.1736 -0.9848 -0.0015
usemtl Shape.5723
s off
f 11//1 17//1 21//1
f 3//2 2//2 4//2
f 5//3 1//3 7//3
f 6//4 4//4 7//4
f 3//2 4//2 8//2
f 2//5 5//5 9//5
f 3//6 8//6 10//6
f 2//7 3//7 13//7
f 1//3 5//3 13//3
f 4//4 6//4 14//4
f 8//2 4//2 14//2
f 6//8 8//8 14//8
f 3//9 10//9 15//9
f 12//10 1//10 15//10
f 13//11 3//11 15//11
f 1//12 13//12 15//12
f 7//3 1//3 16//3
f 6//4 7//4 16//4
f 1//13 12//13 16//13
f 12//14 6//14 16//14
f 9//15 5//15 17//15
f 11//16 9//16 17//16
f 8//17 6//17 18//17
f 10//18 8//18 18//18
f 6//19 12//19 18//19
f 15//20 10//20 18//20
f 12//21 15//21 18//21
f 5//22 2//22 19//22
f 2//7 13//7 19//7
f 13//3 5//3 19//3
f 4//2 2//2 20//2
f 7//23 4//23 20//23
f 2//24 9//24 20//24
f 11//25 7//25 20//25
f 9//26 11//26 20//26
f 5//27 7//27 21//27
f 7//28 11//28 21//28
f 17//29 5//29 21//29
