# Blender v2.79 (sub 0) OBJ File: ''
# www.blender.org
mtllib 148_link_0_33.mtl
o Shape_IndexedFaceSet.033_Shape_IndexedFaceSet.10837
v -0.092513 0.148002 -0.354964
v -0.108356 0.130398 -0.342639
v -0.104834 0.130398 -0.342639
v -0.108356 0.132161 -0.321514
v -0.108356 0.149765 -0.354964
v -0.090750 0.139202 -0.354964
v -0.106593 0.149765 -0.342639
v -0.101311 0.132161 -0.325041
v -0.108356 0.137442 -0.354964
vn 0.0854 -0.8543 -0.5127
vn 0.0000 -0.9965 0.0832
vn -1.0000 0.0000 0.0000
vn -0.0000 0.0000 -1.0000
vn 0.1106 0.9937 -0.0158
vn -0.9559 0.2598 0.1367
vn 0.0454 -0.9949 0.0906
vn 0.5185 -0.8549 -0.0182
vn 0.9128 0.1829 0.3652
vn 0.5332 0.6727 0.5129
vn 0.3121 0.7169 0.6234
vn 0.0000 -0.8682 -0.4962
usemtl Shape.10848
s off
f 6//1 3//1 9//1
f 2//2 3//2 4//2
f 2//3 4//3 5//3
f 5//4 1//4 6//4
f 1//5 5//5 7//5
f 5//6 4//6 7//6
f 4//7 3//7 8//7
f 3//8 6//8 8//8
f 6//9 1//9 8//9
f 1//10 7//10 8//10
f 7//11 4//11 8//11
f 3//12 2//12 9//12
f 2//3 5//3 9//3
f 5//4 6//4 9//4
