# Blender v2.79 (sub 0) OBJ File: ''
# www.blender.org
mtllib 148_link_0_7.mtl
o Shape_IndexedFaceSet.007_Shape_IndexedFaceSet.10811
v -0.111877 0.130398 -0.244039
v -0.071382 0.251871 -0.198274
v -0.071382 0.251871 -0.208836
v -0.117160 0.251883 -0.259891
v -0.106589 0.130398 -0.258130
v -0.071382 0.130398 -0.198274
v -0.090758 0.251883 -0.212359
v -0.106589 0.251883 -0.258130
v -0.071382 0.130398 -0.208842
v -0.090758 0.130398 -0.212359
v -0.106589 0.251883 -0.233471
v -0.117160 0.130398 -0.259891
v -0.106589 0.197288 -0.259891
v -0.074904 0.190260 -0.198274
v -0.117160 0.251883 -0.256362
v -0.106589 0.130398 -0.233471
v -0.081953 0.130398 -0.203558
v -0.083710 0.251883 -0.205319
v -0.117160 0.130398 -0.256362
vn -1.0000 0.0000 0.0000
vn 1.0000 0.0000 0.0000
vn 0.0000 -1.0000 0.0000
vn 0.0000 1.0000 0.0000
vn -0.8001 0.0000 0.5999
vn 0.1643 -0.0260 -0.9861
vn 0.1642 0.0318 -0.9859
vn 0.8136 0.0187 -0.5811
vn 0.8232 0.0000 -0.5677
vn 0.8136 -0.0153 -0.5812
vn -0.0000 0.0000 -1.0000
vn 0.0000 0.0000 1.0000
vn -0.9079 0.0030 0.4192
vn -0.8943 0.0000 0.4475
vn -0.7069 0.0000 0.7073
vn -0.4470 -0.0263 0.8942
vn -0.6137 0.0026 0.7896
vn 0.0010 1.0000 0.0000
vn 0.0009 1.0000 -0.0004
vn -0.4959 0.0284 0.8679
vn -0.7067 0.0000 0.7075
vn -0.9191 0.0000 0.3940
usemtl Shape.10822
s off
f 15//1 12//1 19//1
f 3//2 2//2 6//2
f 1//3 5//3 6//3
f 4//4 7//4 8//4
f 3//2 6//2 9//2
f 6//3 5//3 9//3
f 1//3 6//3 10//3
f 10//5 7//5 11//5
f 7//4 4//4 11//4
f 5//3 1//3 12//3
f 5//6 12//6 13//6
f 4//7 8//7 13//7
f 8//8 3//8 13//8
f 3//9 9//9 13//9
f 9//10 5//10 13//10
f 12//11 4//11 13//11
f 6//12 2//12 14//12
f 1//13 11//13 15//13
f 11//4 4//4 15//4
f 4//1 12//1 15//1
f 1//3 10//3 16//3
f 10//5 11//5 16//5
f 11//14 1//14 16//14
f 10//3 6//3 17//3
f 7//15 10//15 17//15
f 6//16 14//16 17//16
f 17//17 14//17 18//17
f 2//18 3//18 18//18
f 8//4 7//4 18//4
f 3//19 8//19 18//19
f 14//20 2//20 18//20
f 7//21 17//21 18//21
f 12//3 1//3 19//3
f 1//22 15//22 19//22
