# Blender v2.79 (sub 0) OBJ File: ''
# www.blender.org
mtllib 148_link_0_25.mtl
o Shape_IndexedFaceSet.025_Shape_IndexedFaceSet.10829
v 0.083563 0.116312 -0.219398
v 0.129333 0.128637 -0.259890
v 0.129333 0.119834 -0.259890
v 0.102928 0.118073 -0.214114
v 0.090603 0.128637 -0.214114
v 0.118762 0.126876 -0.263412
v 0.120525 0.114552 -0.263412
v 0.111722 0.128637 -0.224682
v 0.092366 0.121594 -0.237011
v 0.118762 0.116312 -0.237011
v 0.097647 0.114552 -0.214114
v 0.087085 0.114552 -0.224682
v 0.106441 0.116312 -0.252844
vn -0.3213 -0.9054 -0.2774
vn -0.1281 0.9858 -0.1084
vn 0.3713 0.0000 -0.9285
vn 0.3091 0.0442 -0.9500
vn 0.3967 0.4628 0.7927
vn 0.0000 1.0000 0.0000
vn -0.7983 0.5556 -0.2324
vn -0.4608 0.8377 -0.2931
vn 0.9078 0.0000 0.4194
vn 0.4854 -0.8696 0.0904
vn 0.8926 0.0632 0.4465
vn 0.8140 -0.1063 0.5711
vn -0.3653 -0.1827 0.9128
vn -0.0000 0.0000 1.0000
vn 0.5063 -0.7594 0.4085
vn 0.1650 -0.9833 0.0766
vn -0.8438 -0.2223 -0.4884
vn -0.1924 -0.9623 0.1923
vn 0.0000 -1.0000 0.0000
vn -0.6048 -0.0865 -0.7916
vn -0.7140 0.1483 -0.6842
vn -0.7503 -0.3820 -0.5396
usemtl Shape.10840
s off
f 7//1 12//1 13//1
f 5//2 2//2 6//2
f 2//3 3//3 7//3
f 6//4 2//4 7//4
f 5//5 4//5 8//5
f 2//6 5//6 8//6
f 1//7 5//7 9//7
f 5//8 6//8 9//8
f 3//9 2//9 10//9
f 7//10 3//10 10//10
f 2//11 8//11 10//11
f 8//12 4//12 10//12
f 5//13 1//13 11//13
f 4//14 5//14 11//14
f 10//15 4//15 11//15
f 7//16 10//16 11//16
f 1//17 9//17 12//17
f 11//18 1//18 12//18
f 7//19 11//19 12//19
f 6//20 7//20 13//20
f 9//21 6//21 13//21
f 12//22 9//22 13//22
