# Blender v2.79 (sub 0) OBJ File: ''
# www.blender.org
mtllib 148_link_0_27.mtl
o Shape_IndexedFaceSet.027_Shape_IndexedFaceSet.10831
v -0.124202 0.130402 -0.312718
v -0.110120 0.114555 -0.314477
v -0.110120 0.116316 -0.319760
v -0.115401 0.149761 -0.303908
v -0.108358 0.149761 -0.354962
v -0.108358 0.123358 -0.303908
v -0.124202 0.149761 -0.303908
v -0.118918 0.135675 -0.340874
v -0.124202 0.118077 -0.303908
v -0.120679 0.149761 -0.335592
v -0.108358 0.135675 -0.351439
v -0.108358 0.149761 -0.337356
v -0.118918 0.125119 -0.330314
v -0.108358 0.114555 -0.303908
v -0.111880 0.139198 -0.354962
vn -0.2675 -0.8018 -0.5344
vn 0.0000 1.0000 0.0000
vn 0.0000 0.0000 1.0000
vn -0.4288 -0.8571 -0.2857
vn -1.0000 0.0000 0.0000
vn -0.9663 -0.1497 -0.2094
vn -0.9926 0.0502 -0.1104
vn -0.9799 -0.0500 -0.1933
vn 1.0000 0.0000 0.0000
vn 0.9468 0.2526 0.1994
vn -0.4569 -0.8325 -0.3134
vn -0.9329 -0.2547 -0.2546
vn -0.2080 -0.8294 -0.5184
vn 0.8846 -0.4424 -0.1475
vn -0.2169 -0.9755 0.0362
vn 0.9394 -0.3133 -0.1392
vn -0.8122 0.2708 -0.5167
vn -0.8985 0.0512 -0.4360
vn 0.5884 -0.1962 -0.7844
vn -0.7278 -0.4850 -0.4849
usemtl Shape.10842
s off
f 11//1 13//1 15//1
f 4//2 5//2 7//2
f 6//3 4//3 7//3
f 3//4 2//4 9//4
f 7//5 1//5 9//5
f 6//3 7//3 9//3
f 1//6 8//6 9//6
f 1//7 7//7 10//7
f 7//2 5//2 10//2
f 8//8 1//8 10//8
f 5//9 6//9 11//9
f 5//2 4//2 12//2
f 4//10 6//10 12//10
f 6//9 5//9 12//9
f 3//11 9//11 13//11
f 9//12 8//12 13//12
f 11//13 3//13 13//13
f 2//14 3//14 14//14
f 9//15 2//15 14//15
f 6//3 9//3 14//3
f 3//16 11//16 14//16
f 11//9 6//9 14//9
f 10//17 5//17 15//17
f 8//18 10//18 15//18
f 5//19 11//19 15//19
f 13//20 8//20 15//20
