# Blender v2.79 (sub 0) OBJ File: ''
# www.blender.org
mtllib 148_link_0_2.mtl
o Shape_IndexedFaceSet.002_Shape_IndexedFaceSet.10806
v -0.066108 0.264208 -0.194762
v -0.117160 0.251883 -0.259891
v -0.117160 0.251883 -0.256359
v -0.029144 0.251883 -0.185943
v -0.029144 0.264208 -0.259891
v -0.113627 0.264208 -0.259891
v -0.029144 0.255406 -0.259891
v -0.029144 0.264208 -0.178903
v -0.083694 0.251883 -0.205317
v -0.101306 0.262447 -0.226437
v -0.030902 0.251883 -0.175379
v -0.057311 0.257167 -0.185943
v -0.106587 0.251883 -0.259891
v -0.085460 0.262447 -0.207079
v -0.106587 0.251883 -0.233469
v -0.117160 0.262447 -0.258129
vn -0.9056 0.0701 0.4183
vn 0.0000 -1.0000 0.0000
vn 0.0000 0.0000 -1.0000
vn 0.0000 1.0000 0.0000
vn 1.0000 0.0000 0.0000
vn -0.1434 0.9841 0.1046
vn 0.9821 -0.0934 0.1634
vn -0.3991 -0.5877 0.7038
vn -0.3293 0.5499 0.7675
vn -0.3015 0.3016 0.9045
vn 0.0454 -0.9978 -0.0475
vn -0.1845 0.9712 0.1510
vn -0.7736 -0.0237 0.6332
vn -0.5960 0.0342 0.8023
vn -0.5290 0.3224 0.7850
vn -0.7754 -0.0321 0.6306
vn -0.8845 0.1476 0.4425
vn -1.0000 0.0000 0.0000
vn -0.4978 0.1427 -0.8555
vn -0.3643 0.9133 0.1822
usemtl Shape.10817
s off
f 3//1 15//1 16//1
f 3//2 2//2 4//2
f 5//3 2//3 6//3
f 1//4 5//4 6//4
f 5//5 4//5 7//5
f 2//3 5//3 7//3
f 5//4 1//4 8//4
f 4//5 5//5 8//5
f 3//2 4//2 9//2
f 1//6 6//6 10//6
f 4//7 8//7 11//7
f 9//2 4//2 11//2
f 9//8 11//8 12//8
f 8//9 1//9 12//9
f 11//10 8//10 12//10
f 4//2 2//2 13//2
f 2//3 7//3 13//3
f 7//11 4//11 13//11
f 1//12 10//12 14//12
f 10//13 9//13 14//13
f 9//14 12//14 14//14
f 12//15 1//15 14//15
f 3//2 9//2 15//2
f 9//16 10//16 15//16
f 15//17 10//17 16//17
f 2//18 3//18 16//18
f 6//19 2//19 16//19
f 10//20 6//20 16//20
