# Blender v2.79 (sub 0) OBJ File: ''
# www.blender.org
mtllib 148_link_0_23.mtl
o Shape_IndexedFaceSet.023_Shape_IndexedFaceSet.10827
v 0.006077 0.170906 -0.170097
v -0.029127 0.125128 -0.184179
v -0.023834 0.125128 -0.184179
v 0.014887 0.253619 -0.187704
v -0.029127 0.253619 -0.175380
v 0.034257 0.125128 -0.182422
v 0.032489 0.251870 -0.173622
v -0.029127 0.125128 -0.175380
v 0.034257 0.125128 -0.173622
v -0.029127 0.253619 -0.184179
v 0.027209 0.192003 -0.187704
v 0.034257 0.253619 -0.182422
v -0.009757 0.125128 -0.171859
v -0.018554 0.253619 -0.173622
v 0.013119 0.193764 -0.187704
v 0.025453 0.253619 -0.187704
v 0.020167 0.125128 -0.171859
v 0.034257 0.253619 -0.175380
v -0.022078 0.199047 -0.173622
vn -0.1640 0.0106 0.9864
vn 0.0000 -1.0000 -0.0002
vn -1.0000 -0.0000 0.0000
vn 0.0000 -1.0000 0.0000
vn 0.1270 0.0018 0.9919
vn 0.0000 1.0000 0.0000
vn 0.0000 -0.0526 -0.9986
vn 0.0301 -0.0755 -0.9967
vn 1.0000 0.0000 0.0000
vn 0.5997 0.0000 -0.8002
vn 0.0015 0.0430 0.9991
vn -0.0832 -0.0000 -0.9965
vn -0.0798 0.0024 -0.9968
vn -0.0060 -0.0476 -0.9988
vn 0.0000 0.0000 -1.0000
vn 0.5144 0.0147 -0.8574
vn 0.1242 0.0000 0.9923
vn 0.0000 -0.0385 0.9993
vn 0.7002 0.0098 0.7139
vn 0.0239 0.6966 0.7170
vn -0.2420 -0.0000 0.9703
vn -0.1207 0.0036 0.9927
vn -0.1788 -0.0063 0.9839
vn -0.1168 0.0075 0.9931
usemtl Shape.10838
s off
f 14//1 5//1 19//1
f 2//2 3//2 6//2
f 5//3 2//3 8//3
f 2//4 6//4 8//4
f 8//4 6//4 9//4
f 7//5 1//5 9//5
f 5//6 4//6 10//6
f 2//3 5//3 10//3
f 3//7 2//7 11//7
f 6//8 3//8 11//8
f 4//6 5//6 12//6
f 9//9 6//9 12//9
f 6//10 11//10 12//10
f 8//4 9//4 13//4
f 1//11 7//11 14//11
f 12//6 5//6 14//6
f 2//12 10//12 15//12
f 10//13 4//13 15//13
f 11//14 2//14 15//14
f 4//15 11//15 15//15
f 11//15 4//15 16//15
f 4//6 12//6 16//6
f 12//16 11//16 16//16
f 9//17 1//17 17//17
f 1//18 13//18 17//18
f 13//4 9//4 17//4
f 7//19 9//19 18//19
f 9//9 12//9 18//9
f 14//20 7//20 18//20
f 12//6 14//6 18//6
f 5//21 8//21 19//21
f 13//22 1//22 19//22
f 8//23 13//23 19//23
f 1//24 14//24 19//24
