# Blender v2.79 (sub 0) OBJ File: ''
# www.blender.org
mtllib 148_link_0_9.mtl
o Shape_IndexedFaceSet.009_Shape_IndexedFaceSet.10813
v -0.053770 0.197287 -0.184185
v -0.071378 0.128637 -0.207071
v -0.067858 0.128637 -0.207071
v -0.071378 0.251871 -0.207071
v -0.029127 0.251871 -0.185947
v -0.029127 0.128637 -0.175382
v -0.030889 0.251871 -0.175382
v -0.029127 0.128637 -0.185947
v -0.071378 0.251871 -0.196503
v -0.062576 0.128637 -0.189468
v -0.071378 0.128637 -0.198265
v -0.067858 0.251871 -0.207071
v -0.057294 0.251871 -0.185947
v -0.030889 0.128637 -0.175382
v -0.066096 0.167383 -0.191227
v -0.057294 0.128637 -0.185947
v -0.029127 0.251871 -0.175382
vn 0.0000 1.0000 0.0000
vn 0.0000 0.0000 -1.0000
vn 0.0000 -1.0000 -0.0000
vn 0.4788 0.0000 -0.8779
vn 1.0000 0.0000 0.0000
vn -1.0000 0.0000 0.0000
vn -0.3715 0.0060 0.9284
vn -0.3591 -0.0000 0.9333
vn 0.0000 0.0000 1.0000
vn -0.7753 -0.0090 0.6316
vn -0.7065 -0.0321 0.7069
vn -0.5997 0.0125 0.8001
vn -0.5144 0.0000 0.8575
vn -0.4472 0.0000 0.8944
vn -0.3715 -0.0048 0.9284
vn -0.5546 -0.0126 0.8320
usemtl Shape.10824
s off
f 5//1 7//1 17//1
f 3//2 2//2 4//2
f 2//3 3//3 6//3
f 5//1 4//1 7//1
f 3//4 5//4 8//4
f 6//3 3//3 8//3
f 5//5 6//5 8//5
f 4//6 2//6 9//6
f 7//1 4//1 9//1
f 2//3 6//3 10//3
f 9//6 2//6 11//6
f 2//3 10//3 11//3
f 3//2 4//2 12//2
f 4//1 5//1 12//1
f 5//4 3//4 12//4
f 1//7 7//7 13//7
f 7//1 9//1 13//1
f 7//8 1//8 14//8
f 6//9 7//9 14//9
f 10//3 6//3 14//3
f 9//10 11//10 15//10
f 11//11 10//11 15//11
f 13//12 9//12 15//12
f 13//13 15//13 16//13
f 1//14 13//14 16//14
f 14//15 1//15 16//15
f 10//3 14//3 16//3
f 15//16 10//16 16//16
f 6//5 5//5 17//5
f 7//9 6//9 17//9
