# Blender v2.79 (sub 0) OBJ File: ''
# www.blender.org
mtllib 148_link_0_16.mtl
o Shape_IndexedFaceSet.016_Shape_IndexedFaceSet.10820
v -0.122439 0.125128 -0.275741
v -0.108358 0.253619 -0.259900
v -0.108358 0.253619 -0.265177
v -0.124202 0.253619 -0.303908
v -0.115401 0.125128 -0.303908
v -0.108358 0.125128 -0.259900
v -0.118918 0.253619 -0.261657
v -0.115401 0.253619 -0.303908
v -0.124202 0.125128 -0.303908
v -0.117158 0.125128 -0.259900
v -0.124202 0.253619 -0.291578
v -0.124202 0.125128 -0.289816
v -0.108358 0.125128 -0.263419
v -0.120679 0.253619 -0.266939
v -0.118918 0.125128 -0.261657
v -0.117158 0.253619 -0.259900
vn -0.7065 0.0000 0.7077
vn 0.0000 1.0000 0.0000
vn 1.0000 0.0000 0.0000
vn 0.0000 -1.0000 -0.0000
vn 0.0000 0.0000 -1.0000
vn 0.9839 0.0000 -0.1789
vn 0.0000 0.0000 1.0000
vn -1.0000 0.0000 0.0000
vn -0.9922 0.0017 0.1243
vn 0.9852 -0.0023 -0.1714
vn -0.9899 0.0039 0.1415
vn -0.9701 -0.0033 0.2425
vn -0.9487 0.0000 0.3163
usemtl Shape.10831
s off
f 7//1 10//1 16//1
f 2//2 3//2 4//2
f 3//3 2//3 6//3
f 1//4 5//4 6//4
f 2//2 4//2 7//2
f 4//2 3//2 8//2
f 5//5 4//5 8//5
f 3//6 5//6 8//6
f 5//4 1//4 9//4
f 4//5 5//5 9//5
f 6//7 2//7 10//7
f 1//4 6//4 10//4
f 7//2 4//2 11//2
f 4//8 9//8 11//8
f 11//8 9//8 12//8
f 9//4 1//4 12//4
f 1//9 11//9 12//9
f 5//10 3//10 13//10
f 3//3 6//3 13//3
f 6//4 5//4 13//4
f 11//11 1//11 14//11
f 7//2 11//2 14//2
f 1//4 10//4 15//4
f 10//1 7//1 15//1
f 14//12 1//12 15//12
f 7//13 14//13 15//13
f 2//2 7//2 16//2
f 10//7 2//7 16//7
