# SSTK version 0.8.0
# 13
mtllib original-13.mtl
o Group9/mesh12/mesh12-geometry#mesh12-geometry
v 0.091708 -0.174490 0.703136
v 0.092901 -0.171572 0.705628
v 0.092901 -0.174490 0.705628
v 0.091708 -0.171572 0.703136
v 0.090254 -0.171572 0.702170
v 0.090254 -0.174490 0.702170
v 0.088800 -0.171572 0.701205
v 0.088800 -0.174490 0.701205
v 0.088210 -0.174490 0.700813
v 0.088210 -0.171572 0.700813
v 0.082646 -0.171572 0.698819
v 0.082646 -0.174490 0.698819
v 0.075394 -0.171572 0.697289
v 0.075394 -0.174490 0.697289
v 0.066950 -0.171572 0.696327
v 0.066950 -0.174490 0.696327
v 0.057887 -0.171572 0.695999
v 0.057887 -0.174490 0.695999
v -0.047153 -0.171572 0.695999
v -0.047153 -0.174490 0.695999
v -0.056215 -0.171572 0.696327
v -0.056215 -0.174490 0.696327
v -0.064659 -0.171572 0.697289
v -0.064659 -0.174490 0.697289
v -0.071911 -0.171572 0.698819
v -0.071911 -0.174490 0.698819
v -0.077475 -0.171572 0.700813
v -0.074693 -0.174490 0.699816
v -0.077475 -0.174490 0.700813
v -0.078065 -0.171572 0.701205
v -0.078065 -0.174490 0.701205
v -0.080973 -0.171572 0.703136
v -0.080973 -0.174490 0.703136
v -0.082166 -0.174490 0.705628
v -0.082166 -0.171572 0.705628
vn 0.7547000245654862 0 -0.6560700213550796
vn 0.9019669877720335 0 -0.4318049941460197
vn -0.9019669877720335 0 0.4318049941460197
vn -0.7547000245654862 0 0.6560700213550796
vn 0.5531082584274493 0 -0.8331093892517082
vn -0.5531082584274493 0 0.8331093892517082
vn 0.4485199179367849 0 -0.8937728364713149
vn -0.4485199179367849 0 0.8937728364713149
vn 0.2725529398080526 0 -0.9621407875160413
vn -0.2725529398080526 0 0.9621407875160413
vn 0.16000097666465926 0 -0.9871168560339526
vn -0.16000097666465926 0 0.9871168560339526
vn 0.07473503200775057 0 -0.9972034270853669
vn -0.07473503200775057 0 0.9972034270853669
vn 0.036181009157667844 0 -0.999345252941311
vn -0.036181009157667844 0 0.999345252941311
vn 0 0 -1
vn 0 0 1
vn -0.036181009157667844 0 -0.999345252941311
vn -0.07473503200775057 0 -0.9972034270853669
vn 0.036181009157667844 0 0.999345252941311
vn 0.07473503200775057 0 0.9972034270853669
vn -0.16000097666465926 0 -0.9871168560339526
vn 0.16000097666465926 0 0.9871168560339526
vn -0.2725529398080526 0 -0.9621407875160413
vn 0.2725529398080526 0 0.9621407875160413
vn -0.4485199179367849 0 -0.8937728364713149
vn 0.4485199179367849 0 0.8937728364713149
vn -0.3373751066906771 0 -0.9413702976966365
vn 0.3373751066906771 0 0.9413702976966365
vn -0.5531082584274493 0 -0.8331093892517082
vn 0.5531082584274493 0 0.8331093892517082
vn -0.7547000245654862 0 -0.6560700213550796
vn 0.7547000245654862 0 0.6560700213550796
vn -0.9019669877720335 0 -0.4318049941460197
vn 0.9019669877720335 0 0.4318049941460197
usemtl material_0_0
f 1//1 2//2 3//2
f 2//2 1//1 4//1
f 3//3 2//3 1//4
f 4//4 1//4 2//3
f 1//1 5//5 4//1
f 4//4 5//6 1//4
f 5//5 1//1 6//5
f 6//6 1//4 5//6
f 6//5 7//5 5//5
f 5//6 7//6 6//6
f 7//5 6//5 8//5
f 8//6 6//6 7//6
f 9//7 7//5 8//5
f 8//6 7//6 9//8
f 7//5 9//7 10//7
f 10//8 9//8 7//6
f 9//7 11//9 10//7
f 10//8 11//10 9//8
f 11//9 9//7 12//9
f 12//10 9//8 11//10
f 12//9 13//11 11//9
f 11//10 13//12 12//10
f 13//11 12//9 14//11
f 14//12 12//10 13//12
f 14//11 15//13 13//11
f 13//12 15//14 14//12
f 15//13 14//11 16//13
f 16//14 14//12 15//14
f 16//13 17//15 15//13
f 15//14 17//16 16//14
f 17//15 16//13 18//15
f 18//16 16//14 17//16
f 18//17 19//17 17//17
f 17//18 19//18 18//18
f 19//17 18//17 20//17
f 20//18 18//18 19//18
f 20//19 21//20 19//19
f 19//21 21//22 20//21
f 21//20 20//19 22//20
f 22//22 20//21 21//22
f 22//20 23//23 21//20
f 21//22 23//24 22//22
f 23//23 22//20 24//23
f 24//24 22//22 23//24
f 24//23 25//25 23//23
f 23//24 25//26 24//24
f 25//25 24//23 26//25
f 26//26 24//24 25//26
f 26//25 27//27 25//25
f 25//26 27//28 26//26
f 28//29 27//27 26//25
f 26//26 27//28 28//30
f 27//27 28//29 29//27
f 29//28 28//30 27//28
f 29//27 30//31 27//27
f 27//28 30//32 29//28
f 30//31 29//27 31//31
f 31//32 29//28 30//32
f 31//31 32//33 30//31
f 30//32 32//34 31//32
f 32//33 31//31 33//33
f 33//34 31//32 32//34
f 34//35 32//33 33//33
f 33//34 32//34 34//36
f 32//33 34//35 35//35
f 35//36 34//36 32//34
