# SSTK version 0.8.0
# 10
mtllib original-10.mtl
o mesh9/mesh9-geometry#mesh9-geometry
v 0.555761 -0.101566 -0.250908
v 0.545549 -0.097256 -0.251668
v -0.546485 -0.101566 -0.250908
v 0.546310 -0.097207 -0.251677
v -0.536273 -0.097256 -0.251668
v 0.555761 -0.100553 -0.245161
v 0.547059 -0.097060 -0.251703
v -0.537035 -0.097207 -0.251677
v -0.546485 -0.100553 -0.245161
v 0.555761 0.621743 -0.372522
v 0.547782 -0.096819 -0.251745
v -0.537783 -0.097060 -0.251703
v -0.546485 0.621743 -0.372522
v 0.555761 0.620729 -0.378268
v 0.548466 -0.096486 -0.251804
v -0.538506 -0.096819 -0.251745
v -0.546485 0.614982 -0.377255
v -0.540649 0.620729 -0.378268
v 0.551384 -0.091509 -0.252682
v 0.549101 -0.096069 -0.251878
v -0.539191 -0.096486 -0.251804
v -0.542108 -0.091509 -0.252682
v -0.546485 0.620729 -0.378268
v 0.551334 -0.092259 -0.252549
v 0.551384 0.610672 -0.376495
v 0.549675 -0.095573 -0.251965
v -0.539825 -0.096069 -0.251878
v -0.542058 -0.092259 -0.252549
v -0.542108 0.612109 -0.376749
v -0.540826 0.615157 -0.377286
v -0.537732 0.616419 -0.377509
v 0.551185 -0.092997 -0.252419
v 0.551334 0.611422 -0.376628
v 0.550178 -0.095008 -0.252065
v -0.540399 -0.095573 -0.251965
v -0.541909 -0.092997 -0.252419
v -0.542071 0.612671 -0.376848
v -0.541204 0.614733 -0.377211
v -0.540396 0.615528 -0.377351
v -0.538303 0.616382 -0.377502
v 0.545549 0.616419 -0.377509
v 0.550940 -0.093709 -0.252294
v 0.551185 0.612160 -0.376757
v 0.550602 -0.094383 -0.252175
v -0.540902 -0.095008 -0.252065
v -0.541664 -0.093709 -0.252294
v -0.541959 0.613224 -0.376945
v -0.541522 0.614264 -0.377128
v -0.539920 0.615842 -0.377407
v -0.538864 0.616272 -0.377483
v 0.546310 0.616370 -0.377500
v 0.550940 0.612871 -0.376883
v -0.541327 -0.094383 -0.252175
v -0.541775 0.613758 -0.377039
v -0.539407 0.616091 -0.377451
v 0.547059 0.616223 -0.377474
v 0.550602 0.613546 -0.377002
v 0.547782 0.615982 -0.377431
v 0.550178 0.614171 -0.377112
v 0.548466 0.615649 -0.377373
v 0.549675 0.614736 -0.377212
v 0.549101 0.615232 -0.377299
vn 0 0.1736479631199547 0.9848077908426045
vn 0 -0.1736479631199547 -0.9848077908426045
vn 0 0.9848077908426045 -0.1736479631199547
vn 0 -0.9848077908426045 0.1736479631199547
vn -1 0 0
vn 1 0 0
usemtl material_0_0
f 1//1 2//1 3//1
f 2//1 1//1 4//1
f 5//1 3//1 2//1
f 4//1 1//1 7//1
f 8//1 3//1 5//1
f 7//1 1//1 11//1
f 12//1 3//1 8//1
f 11//1 1//1 15//1
f 16//1 3//1 12//1
f 19//1 1//1 14//1
f 15//1 1//1 20//1
f 21//1 3//1 16//1
f 3//1 22//1 17//1
f 23//1 14//1 18//1
f 24//1 1//1 19//1
f 19//1 14//1 25//1
f 20//1 1//1 26//1
f 27//1 3//1 21//1
f 22//1 3//1 28//1
f 17//1 22//1 29//1
f 17//1 30//1 23//1
f 23//1 31//1 14//1
f 32//1 1//1 24//1
f 25//1 14//1 33//1
f 26//1 1//1 34//1
f 35//1 3//1 27//1
f 28//1 3//1 36//1
f 17//1 29//1 37//1
f 17//1 38//1 30//1
f 23//1 30//1 39//1
f 23//1 40//1 31//1
f 41//1 14//1 31//1
f 42//1 1//1 32//1
f 33//1 14//1 43//1
f 34//1 1//1 44//1
f 45//1 3//1 35//1
f 36//1 3//1 46//1
f 17//1 37//1 47//1
f 17//1 48//1 38//1
f 23//1 39//1 49//1
f 23//1 50//1 40//1
f 51//1 14//1 41//1
f 44//1 1//1 42//1
f 43//1 14//1 52//1
f 53//1 3//1 45//1
f 46//1 3//1 53//1
f 17//1 47//1 54//1
f 17//1 54//1 48//1
f 23//1 49//1 55//1
f 23//1 55//1 50//1
f 56//1 14//1 51//1
f 52//1 14//1 57//1
f 58//1 14//1 56//1
f 57//1 14//1 59//1
f 60//1 14//1 58//1
f 59//1 14//1 61//1
f 62//1 14//1 60//1
f 61//1 14//1 62//1
usemtl material_1_0
f 3//2 2//2 1//2
f 4//2 1//2 2//2
f 2//2 3//2 5//2
f 3//3 6//3 1//3
f 1//4 6//4 3//4
f 7//2 1//2 4//2
f 5//2 3//2 8//2
f 6//3 3//3 9//3
f 9//4 3//4 6//4
f 10//5 1//5 6//5
f 6//6 1//6 10//6
f 11//2 1//2 7//2
f 8//2 3//2 12//2
f 3//6 13//6 9//6
f 9//5 13//5 3//5
f 1//5 10//5 14//5
f 14//6 10//6 1//6
f 15//2 1//2 11//2
f 12//2 3//2 16//2
f 13//6 3//6 17//6
f 17//5 3//5 13//5
f 10//4 18//4 14//4
f 14//3 18//3 10//3
f 14//2 1//2 19//2
f 20//2 1//2 15//2
f 16//2 3//2 21//2
f 17//2 22//2 3//2
f 13//6 17//6 23//6
f 23//5 17//5 13//5
f 13//4 18//4 10//4
f 10//3 18//3 13//3
f 18//2 14//2 23//2
f 19//2 1//2 24//2
f 25//2 14//2 19//2
f 26//2 1//2 20//2
f 21//2 3//2 27//2
f 28//2 3//2 22//2
f 29//2 22//2 17//2
f 23//2 30//2 17//2
f 18//4 13//4 23//4
f 23//3 13//3 18//3
f 14//2 31//2 23//2
f 24//2 1//2 32//2
f 33//2 14//2 25//2
f 34//2 1//2 26//2
f 27//2 3//2 35//2
f 36//2 3//2 28//2
f 37//2 29//2 17//2
f 30//2 38//2 17//2
f 39//2 30//2 23//2
f 31//2 40//2 23//2
f 31//2 14//2 41//2
f 32//2 1//2 42//2
f 43//2 14//2 33//2
f 44//2 1//2 34//2
f 35//2 3//2 45//2
f 46//2 3//2 36//2
f 47//2 37//2 17//2
f 38//2 48//2 17//2
f 49//2 39//2 23//2
f 40//2 50//2 23//2
f 41//2 14//2 51//2
f 42//2 1//2 44//2
f 52//2 14//2 43//2
f 45//2 3//2 53//2
f 53//2 3//2 46//2
f 54//2 47//2 17//2
f 48//2 54//2 17//2
f 55//2 49//2 23//2
f 50//2 55//2 23//2
f 51//2 14//2 56//2
f 57//2 14//2 52//2
f 56//2 14//2 58//2
f 59//2 14//2 57//2
f 58//2 14//2 60//2
f 61//2 14//2 59//2
f 60//2 14//2 62//2
f 62//2 14//2 61//2
