# SSTK version 0.8.0
# 4
mtllib original-4.mtl
o Group5/mesh4/mesh4-geometry#mesh4-geometry
v 0.377385 -0.196765 -0.197769
v -0.368109 -0.194103 -0.195330
v -0.368109 -0.196765 -0.197769
v 0.377385 -0.194103 -0.195330
v -0.368109 -0.177281 -0.196064
v 0.377385 -0.198705 -0.200814
v 0.377385 -0.177281 -0.196064
v -0.368109 -0.190901 -0.193662
v -0.368109 -0.180326 -0.194124
v -0.368109 -0.174841 -0.198726
v -0.368109 -0.198705 -0.200814
v 0.377385 -0.174841 -0.198726
v 0.377385 -0.180326 -0.194124
v 0.377385 -0.190901 -0.193662
v 0.377385 -0.199791 -0.204257
v 0.377385 -0.173174 -0.201928
v -0.368109 -0.187376 -0.192881
v -0.368109 -0.183769 -0.193038
v 0.377385 -0.183769 -0.193038
v -0.368109 -0.173174 -0.201928
v -0.368109 -0.199791 -0.204257
v 0.377385 -0.187376 -0.192881
v 0.377385 -0.204194 -0.229227
v 0.377385 -0.172393 -0.205453
v -0.368109 -0.172393 -0.205453
v -0.368109 -0.203793 -0.226957
v 0.377385 -0.203793 -0.226957
v -0.368109 -0.204194 -0.229227
v 0.377385 -0.172550 -0.209060
v -0.368109 -0.172550 -0.209060
v 0.377385 -0.176553 -0.231761
v -0.368109 -0.176553 -0.231761
vn 0 -0.7660440678408658 0.6427880569253126
vn 0 -0.5735761643640094 0.819152234736298
vn 0 0.7660440678408658 -0.6427880569253126
vn 0 0.5735761643640094 -0.819152234736298
vn -1 0 0
vn 1 0 0
vn 0 -0.9063079253256678 0.4226179651788165
vn 0 0.9063079253256678 -0.4226179651788165
vn 0 -0.3420198948889232 0.9396927112094516
vn 0 0.3420198948889232 -0.9396927112094516
vn 0 0.4226179651788165 0.9063079253256678
vn 0 0.6427880569253126 0.7660440678408658
vn 0 -0.4226179651788165 -0.9063079253256678
vn 0 -0.6427880569253126 -0.7660440678408658
vn 0 0.819152234736298 0.5735761643640094
vn 0 -0.819152234736298 -0.5735761643640094
vn 0 -0.971342041010062 0.23768601003510337
vn 0 0.971342041010062 -0.23768601003510337
vn 0 -0.08715597183289422 0.996194678049358
vn 0 0.08715597183289422 -0.996194678049358
vn 0 0.1736479631199547 0.9848077908426045
vn 0 -0.1736479631199547 -0.9848077908426045
vn 0 0.9396927112094516 0.3420198948889232
vn 0 -0.9396927112094516 -0.3420198948889232
vn 0 -0.9848077908426045 0.1736479631199547
vn 0 0.9848077908426045 -0.1736479631199547
vn 0 0.996194678049358 0.08715597183289422
vn 0 -0.996194678049358 -0.08715597183289422
vn 0 0.9940563206701951 -0.10886703511915015
vn 0 -0.9940563206701951 0.10886703511915015
usemtl material_0_0
f 1//1 2//2 3//1
f 2//2 1//1 4//2
f 3//3 2//4 1//3
f 4//4 1//3 2//4
f 2//5 5//5 3//5
f 3//6 5//6 2//6
f 3//1 6//7 1//1
f 1//3 6//8 3//3
f 7//6 4//6 1//6
f 1//5 4//5 7//5
f 4//2 8//9 2//2
f 2//4 8//10 4//4
f 2//5 9//5 5//5
f 5//6 9//6 2//6
f 3//5 5//5 10//5
f 10//6 5//6 3//6
f 6//7 3//1 11//7
f 11//8 3//3 6//8
f 12//6 1//6 6//6
f 6//5 1//5 12//5
f 13//6 4//6 7//6
f 7//5 4//5 13//5
f 7//6 1//6 12//6
f 12//5 1//5 7//5
f 8//9 4//2 14//9
f 14//10 4//4 8//10
f 8//5 9//5 2//5
f 2//6 9//6 8//6
f 13//11 5//12 9//11
f 9//13 5//14 13//13
f 7//12 10//15 5//12
f 5//14 10//16 7//14
f 3//5 10//5 11//5
f 11//6 10//6 3//6
f 11//7 15//17 6//7
f 6//8 15//18 11//8
f 12//6 6//6 16//6
f 16//5 6//5 12//5
f 13//6 14//6 4//6
f 4//5 14//5 13//5
f 5//12 13//11 7//12
f 7//14 13//13 5//14
f 10//15 7//12 12//15
f 12//16 7//14 10//16
f 14//9 17//19 8//9
f 8//10 17//20 14//10
f 8//5 18//5 9//5
f 9//6 18//6 8//6
f 9//11 19//21 13//11
f 13//13 19//22 9//13
f 11//5 10//5 20//5
f 20//6 10//6 11//6
f 15//17 11//7 21//17
f 21//18 11//8 15//18
f 16//6 6//6 15//6
f 15//5 6//5 16//5
f 20//23 12//15 16//23
f 16//24 12//16 20//24
f 19//6 14//6 13//6
f 13//5 14//5 19//5
f 12//15 20//23 10//15
f 10//16 20//24 12//16
f 17//19 14//9 22//19
f 22//20 14//10 17//20
f 18//5 8//5 17//5
f 17//6 8//6 18//6
f 19//21 9//11 18//21
f 18//22 9//13 19//22
f 11//5 20//5 21//5
f 21//6 20//6 11//6
f 21//17 23//25 15//17
f 15//18 23//26 21//18
f 16//6 15//6 24//6
f 24//5 15//5 16//5
f 16//23 25//27 20//23
f 20//24 25//28 16//24
f 14//6 19//6 22//6
f 22//5 19//5 14//5
f 22//19 18//21 17//19
f 17//20 18//22 22//20
f 18//21 22//19 19//21
f 19//22 22//20 18//22
f 21//5 20//5 25//5
f 25//6 20//6 21//6
f 26//25 23//25 21//17
f 21//18 23//26 26//26
f 15//17 23//25 27//25
f 27//26 23//26 15//18
f 24//6 15//6 27//6
f 27//5 15//5 24//5
f 25//27 16//23 24//27
f 24//28 16//24 25//28
f 21//5 25//5 26//5
f 26//6 25//6 21//6
f 23//25 26//25 28//25
f 28//26 26//26 23//26
f 24//6 27//6 29//6
f 29//5 27//5 24//5
f 24//27 30//29 25//27
f 25//28 30//30 24//28
f 26//5 25//5 30//5
f 30//6 25//6 26//6
f 29//6 27//6 31//6
f 31//5 27//5 29//5
f 30//29 24//27 29//29
f 29//30 24//28 30//30
f 26//5 30//5 32//5
f 32//6 30//6 26//6
f 32//26 29//29 31//26
f 31//25 29//30 32//25
f 29//29 32//26 30//29
f 30//30 32//25 29//30
