# SSTK version 0.8.0
# 126
mtllib original-126.mtl
o mesh123/mesh123-geometry#mesh123-geometry
v 0.602402 -0.199918 0.699838
v 0.598627 -0.199918 0.699838
v 0.600515 -0.200166 0.699838
v 0.604162 -0.199189 0.699838
v 0.600515 -0.200166 0.710050
v 0.602402 -0.199918 0.710050
v 0.604162 -0.199189 0.710050
v 0.596867 -0.199189 0.699838
v 0.598627 -0.199918 0.710050
v 0.605672 -0.198030 0.710050
v 0.605672 -0.198030 0.699838
v 0.596867 -0.199189 0.710050
v 0.595357 -0.198030 0.699838
v 0.606832 -0.196519 0.699838
v 0.595357 -0.198030 0.710050
v 0.606832 -0.196519 0.710050
v 0.594197 -0.196519 0.699838
v 0.607560 -0.194760 0.699838
v 0.594197 -0.196519 0.710050
v 0.607560 -0.194760 0.710050
v 0.593469 -0.194760 0.699838
v 0.593469 -0.194760 0.710050
v 0.607809 -0.192872 0.699838
v 0.607809 -0.192872 0.710050
v 0.593220 -0.192872 0.699838
v 0.593220 -0.192872 0.710050
v 0.607560 -0.190984 0.710050
v 0.607560 -0.190984 0.699838
v 0.593469 -0.190984 0.699838
v 0.606832 -0.189225 0.710050
v 0.593469 -0.190984 0.710050
v 0.606832 -0.189225 0.699838
v 0.594197 -0.189225 0.699838
v 0.605672 -0.187714 0.710050
v 0.594197 -0.189225 0.710050
v 0.605672 -0.187714 0.699838
v 0.595357 -0.187714 0.699838
v 0.604162 -0.186555 0.699838
v 0.595357 -0.187714 0.710050
v 0.604162 -0.186555 0.710050
v 0.596867 -0.186555 0.699838
v 0.596867 -0.186555 0.710050
v 0.602402 -0.185826 0.699838
v 0.602402 -0.185826 0.710050
v 0.598627 -0.185826 0.699838
v 0.598627 -0.185826 0.710050
v 0.600515 -0.185578 0.699838
v 0.600515 -0.185578 0.710050
vn 0 0 1
vn 0.2588189595935754 0.965925849201117 0
vn 0 1 0
vn -0.2588189595935754 0.965925849201117 0
vn -0.5000001748438417 0.8660253028382762 0
vn -0.7071067811865476 0.7071067811865476 0
vn 0.5000001748438417 0.8660253028382762 0
vn -0.8660253028382762 0.5000001748438417 0
vn 0.7071067811865476 0.7071067811865476 0
vn -0.965925849201117 0.2588189595935754 0
vn 0.8660253028382762 0.5000001748438417 0
vn 0.965925849201117 0.2588189595935754 0
vn -1 0 0
vn 1 0 0
vn -0.965925849201117 -0.2588189595935754 0
vn 0.965925849201117 -0.2588189595935754 0
vn -0.8660253028382762 -0.5000001748438417 0
vn 0.8660253028382762 -0.5000001748438417 0
vn -0.7071067811865476 -0.7071067811865476 0
vn 0.7071067811865476 -0.7071067811865476 0
vn -0.5000001748438417 -0.8660253028382762 0
vn 0.5000001748438417 -0.8660253028382762 0
vn -0.2588189595935754 -0.965925849201117 0
vn 0.2588189595935754 -0.965925849201117 0
vn 0 -1 0
vn 0 0 -1
usemtl material_0_0
f 1//1 2//1 3//1
f 2//1 1//1 4//1
f 2//2 5//3 3//3
f 3//3 6//4 1//4
f 1//4 7//5 4//5
f 2//1 4//1 8//1
f 5//3 2//2 9//2
f 6//4 3//3 5//3
f 7//5 1//4 6//4
f 10//6 4//5 7//5
f 8//1 4//1 11//1
f 8//7 9//2 2//2
f 4//5 10//6 11//6
f 8//1 11//1 13//1
f 9//2 8//7 12//7
f 10//6 14//8 11//6
f 13//1 11//1 14//1
f 13//9 12//7 8//7
f 14//8 10//6 16//8
f 12//7 13//9 15//9
f 13//1 14//1 17//1
f 16//8 18//10 14//8
f 13//9 19//11 15//9
f 17//1 14//1 18//1
f 19//11 13//9 17//11
f 18//10 16//8 20//10
f 17//1 18//1 21//1
f 17//11 22//12 19//11
f 20//10 23//13 18//10
f 21//1 18//1 23//1
f 22//12 17//11 21//12
f 23//13 20//10 24//13
f 21//1 23//1 25//1
f 21//12 26//14 22//12
f 27//15 23//13 24//13
f 25//1 23//1 28//1
f 26//14 21//12 25//14
f 23//13 27//15 28//15
f 25//1 28//1 29//1
f 29//16 26//14 25//14
f 30//17 28//15 27//15
f 29//1 28//1 32//1
f 26//14 29//16 31//16
f 28//15 30//17 32//17
f 29//1 32//1 33//1
f 33//18 31//16 29//16
f 34//19 32//17 30//17
f 33//1 32//1 36//1
f 31//16 33//18 35//18
f 32//17 34//19 36//19
f 33//1 36//1 37//1
f 37//20 35//18 33//18
f 34//19 38//21 36//19
f 37//1 36//1 38//1
f 35//18 37//20 39//20
f 38//21 34//19 40//21
f 37//1 38//1 41//1
f 37//20 42//22 39//20
f 40//21 43//23 38//21
f 41//1 38//1 43//1
f 42//22 37//20 41//22
f 43//23 40//21 44//23
f 41//1 43//1 45//1
f 41//22 46//24 42//22
f 44//23 47//25 43//23
f 45//1 43//1 47//1
f 46//24 41//22 45//24
f 47//25 44//23 48//25
f 48//25 45//24 47//25
f 45//24 48//25 46//24
usemtl material_1_0
f 3//26 2//26 1//26
f 4//26 1//26 2//26
f 3//25 5//25 2//23
f 1//24 6//24 3//25
f 4//22 7//22 1//24
f 8//26 4//26 2//26
f 9//23 2//23 5//25
f 5//25 3//25 6//24
f 6//24 1//24 7//22
f 7//22 4//22 10//20
f 11//26 4//26 8//26
f 2//23 9//23 8//21
f 11//20 10//20 4//22
f 13//26 11//26 8//26
f 12//21 8//21 9//23
f 11//20 14//18 10//20
f 14//26 11//26 13//26
f 8//21 12//21 13//19
f 16//18 10//20 14//18
f 15//19 13//19 12//21
f 17//26 14//26 13//26
f 14//18 18//16 16//18
f 15//19 19//17 13//19
f 18//26 14//26 17//26
f 17//17 13//19 19//17
f 20//16 16//18 18//16
f 21//26 18//26 17//26
f 19//17 22//15 17//17
f 18//16 23//14 20//16
f 23//26 18//26 21//26
f 21//15 17//17 22//15
f 24//14 20//16 23//14
f 25//26 23//26 21//26
f 22//15 26//13 21//15
f 24//14 23//14 27//12
f 28//26 23//26 25//26
f 25//13 21//15 26//13
f 28//12 27//12 23//14
f 29//26 28//26 25//26
f 25//13 26//13 29//10
f 27//12 28//12 30//11
f 32//26 28//26 29//26
f 31//10 29//10 26//13
f 32//11 30//11 28//12
f 33//26 32//26 29//26
f 29//10 31//10 33//8
f 30//11 32//11 34//9
f 36//26 32//26 33//26
f 35//8 33//8 31//10
f 36//9 34//9 32//11
f 37//26 36//26 33//26
f 33//8 35//8 37//6
f 36//9 38//7 34//9
f 38//26 36//26 37//26
f 39//6 37//6 35//8
f 40//7 34//9 38//7
f 41//26 38//26 37//26
f 39//6 42//5 37//6
f 38//7 43//2 40//7
f 43//26 38//26 41//26
f 41//5 37//6 42//5
f 44//2 40//7 43//2
f 45//26 43//26 41//26
f 42//5 46//4 41//5
f 43//2 47//3 44//2
f 47//26 43//26 45//26
f 45//4 41//5 46//4
f 48//3 44//2 47//3
f 47//3 45//4 48//3
f 46//4 48//3 45//4
usemtl material_2_0
f 6//1 9//1 5//1
f 5//26 9//26 6//26
f 9//1 6//1 7//1
f 7//26 6//26 9//26
f 12//1 7//1 10//1
f 10//26 7//26 12//26
f 9//1 7//1 12//1
f 12//26 7//26 9//26
f 12//1 10//1 15//1
f 15//26 10//26 12//26
f 15//1 10//1 16//1
f 16//26 10//26 15//26
f 15//1 16//1 19//1
f 19//26 16//26 15//26
f 19//1 16//1 20//1
f 20//26 16//26 19//26
f 19//1 20//1 22//1
f 22//26 20//26 19//26
f 22//1 20//1 24//1
f 24//26 20//26 22//26
f 22//1 24//1 26//1
f 26//26 24//26 22//26
f 26//1 24//1 27//1
f 27//26 24//26 26//26
f 26//1 27//1 31//1
f 31//26 27//26 26//26
f 31//1 27//1 30//1
f 30//26 27//26 31//26
f 31//1 30//1 35//1
f 35//26 30//26 31//26
f 35//1 30//1 34//1
f 34//26 30//26 35//26
f 35//1 34//1 39//1
f 39//26 34//26 35//26
f 39//1 34//1 40//1
f 40//26 34//26 39//26
f 39//1 40//1 42//1
f 42//26 40//26 39//26
f 42//1 40//1 44//1
f 44//26 40//26 42//26
f 42//1 44//1 46//1
f 46//26 44//26 42//26
f 46//1 44//1 48//1
f 48//26 44//26 46//26
