# SSTK version 0.8.0
# 65
mtllib original-65.mtl
o mesh62/mesh62-geometry#mesh62-geometry
v 0.064413 -0.175469 0.033324
v 0.064352 -0.175469 -0.009437
v 0.064352 -0.175469 0.031828
v 0.064413 -0.175469 -0.010934
v 0.064352 -0.186628 0.031828
v 0.064413 -0.186628 0.033324
v 0.064593 -0.175469 0.034795
v 0.064352 -0.186628 -0.009437
v 0.064593 -0.186628 0.034795
v 0.064593 -0.175469 -0.012404
v 0.064413 -0.186628 -0.010934
v 0.064891 -0.186628 0.036215
v 0.064891 -0.175469 0.036215
v 0.064593 -0.186628 -0.012404
v 0.064891 -0.175469 -0.013824
v 0.065300 -0.186628 0.037560
v 0.064891 -0.186628 -0.013824
v 0.065300 -0.175469 0.037560
v 0.065300 -0.175469 -0.015169
v 0.065814 -0.186628 0.038806
v 0.065300 -0.186628 -0.015169
v 0.065814 -0.175469 0.038806
v 0.065814 -0.175469 -0.016416
v 0.066424 -0.186628 0.039934
v 0.065814 -0.186628 -0.016416
v 0.066424 -0.175469 0.039934
v 0.066424 -0.175469 -0.017543
v 0.067120 -0.186628 0.040922
v 0.066424 -0.186628 -0.017543
v 0.067120 -0.175469 0.040922
v 0.067120 -0.175469 -0.018531
v 0.067890 -0.186628 0.041755
v 0.067120 -0.186628 -0.018531
v 0.067890 -0.175469 0.041755
v 0.067890 -0.175469 -0.019365
v 0.068720 -0.175469 0.042418
v 0.067890 -0.186628 -0.019365
v 0.068720 -0.186628 0.042418
v 0.068720 -0.175469 -0.020028
v 0.069596 -0.175469 0.042900
v 0.068720 -0.186628 -0.020028
v 0.069596 -0.186628 0.042900
v 0.069596 -0.175469 -0.020510
v 0.069596 -0.186628 -0.020510
v 0.070504 -0.175469 0.043193
v 0.070504 -0.186628 0.043193
v 0.070504 -0.175469 -0.020802
v 0.070504 -0.186628 -0.020802
v 0.071428 -0.175469 0.043291
v 0.071428 -0.186628 0.043291
v 0.071428 -0.175469 -0.020900
v 0.071428 -0.186628 -0.020900
v 0.119542 -0.175469 0.043291
v 0.119542 -0.186628 0.043291
v 0.119542 -0.175469 -0.020900
v 0.119542 -0.186628 -0.020900
v 0.120466 -0.175469 0.043193
v 0.120466 -0.186628 0.043193
v 0.120466 -0.175469 -0.020802
v 0.120466 -0.186628 -0.020802
v 0.121373 -0.175469 0.042900
v 0.121373 -0.186628 0.042900
v 0.121373 -0.175469 -0.020510
v 0.121373 -0.186628 -0.020510
v 0.122250 -0.175469 0.042418
v 0.122250 -0.186628 0.042418
v 0.122250 -0.175469 -0.020028
v 0.122250 -0.186628 -0.020028
v 0.123080 -0.175469 0.041755
v 0.123080 -0.186628 0.041755
v 0.123080 -0.175469 -0.019365
v 0.123080 -0.186628 -0.019365
v 0.123849 -0.175469 0.040922
v 0.123849 -0.186628 0.040922
v 0.123849 -0.175469 -0.018531
v 0.124545 -0.186628 0.039934
v 0.123849 -0.186628 -0.018531
v 0.124545 -0.175469 0.039934
v 0.124545 -0.175469 -0.017543
v 0.124545 -0.186628 -0.017543
v 0.125155 -0.175469 0.038806
v 0.125155 -0.186628 0.038806
v 0.125155 -0.175469 -0.016416
v 0.125670 -0.186628 0.037560
v 0.125155 -0.186628 -0.016416
v 0.125670 -0.175469 0.037560
v 0.125670 -0.175469 -0.015169
v 0.125670 -0.186628 -0.015169
v 0.126079 -0.186628 0.036215
v 0.126079 -0.175469 0.036215
v 0.126079 -0.175469 -0.013824
v 0.126376 -0.186628 0.034795
v 0.126079 -0.186628 -0.013824
v 0.126376 -0.175469 0.034795
v 0.126376 -0.175469 -0.012404
v 0.126557 -0.186628 0.033324
v 0.126376 -0.186628 -0.012404
v 0.126557 -0.175469 0.033324
v 0.126557 -0.175469 -0.010934
v 0.126618 -0.186628 0.031828
v 0.126557 -0.186628 -0.010934
v 0.126618 -0.175469 0.031828
v 0.126618 -0.175469 -0.009437
v 0.126618 -0.186628 -0.009437
vn 0 1 0
vn 0 -1 0
vn -0.9997956157261295 0 -0.020216992229549986
vn -0.9997956157261295 0 0.020216992229549986
vn 0.9997956157261295 0 -0.020216992229549986
vn 0.9997956157261295 0 0.020216992229549986
vn -0.9966966892275291 0 0.0812139746772836
vn 0.9966966892275291 0 -0.0812139746772836
vn -0.9966966892275291 0 -0.0812139746772836
vn 0.9966966892275291 0 0.0812139746772836
vn -0.9865232657842015 0 0.1636210440819695
vn 0.9865232657842015 0 -0.1636210440819695
vn -0.9686593193040673 0 0.24839308187906703
vn 0.9686593193040673 0 -0.24839308187906703
vn -0.9865232657842015 0 -0.1636210440819695
vn 0.9865232657842015 0 0.1636210440819695
vn -0.9416348730106587 0 0.3366359546011099
vn 0.9416348730106587 0 -0.3366359546011099
vn -0.9686593193040673 0 -0.24839308187906703
vn 0.9686593193040673 0 0.24839308187906703
vn -0.9031786629942988 0 0.4292648398271524
vn 0.9031786629942988 0 -0.4292648398271524
vn -0.9416348730106587 0 -0.3366359546011099
vn 0.9416348730106587 0 0.3366359546011099
vn -0.8500374391919323 0 0.5267222721435102
vn 0.8500374391919323 0 -0.5267222721435102
vn -0.9031786629942988 0 -0.4292648398271524
vn 0.9031786629942988 0 0.4292648398271524
vn -0.7778450824667512 0 0.6284560666286015
vn 0.7778450824667512 0 -0.6284560666286015
vn -0.8500374391919323 0 -0.5267222721435102
vn 0.8500374391919323 0 0.5267222721435102
vn -0.6812929128047323 0 0.7320109063135902
vn 0.6812929128047323 0 -0.7320109063135902
vn -0.7778450824667512 0 -0.6284560666286015
vn 0.7778450824667512 0 0.6284560666286015
vn -0.5550571452604166 0 0.831812217688197
vn 0.5550571452604166 0 -0.831812217688197
vn -0.6812929128047323 0 -0.7320109063135902
vn 0.6812929128047323 0 0.7320109063135902
vn -0.3960960378475724 0 0.91820908773626
vn 0.3960960378475724 0 -0.91820908773626
vn -0.5550571452604166 0 -0.831812217688197
vn 0.5550571452604166 0 0.831812217688197
vn -0.3960960378475724 0 -0.91820908773626
vn 0.3960960378475724 0 0.91820908773626
vn -0.20724808865577732 0 0.978288418488396
vn 0.20724808865577732 0 -0.978288418488396
vn -0.20724808865577732 0 -0.978288418488396
vn 0.20724808865577732 0 0.978288418488396
vn -0.052868026893311264 0 0.9986015079762336
vn 0.052868026893311264 0 -0.9986015079762336
vn -0.052868026893311264 0 -0.9986015079762336
vn 0.052868026893311264 0 0.9986015079762336
usemtl material_0_0
f 1//1 2//1 3//1
f 2//1 1//1 4//1
f 3//2 2//2 1//2
f 4//2 1//2 2//2
f 2//3 5//4 3//4
f 3//5 5//5 2//6
f 3//4 6//7 1//7
f 1//8 6//8 3//5
f 4//1 1//1 7//1
f 7//2 1//2 4//2
f 4//9 8//3 2//3
f 2//6 8//6 4//10
f 5//4 2//3 8//3
f 8//6 2//6 5//5
f 6//7 3//4 5//4
f 5//5 3//5 6//8
f 9//11 1//7 6//7
f 6//8 1//8 9//12
f 1//7 9//11 7//11
f 7//12 9//12 1//8
f 4//1 7//1 10//1
f 10//2 7//2 4//2
f 8//3 4//9 11//9
f 11//10 4//10 8//6
f 6//1 8//1 5//1
f 5//2 8//2 6//2
f 11//1 6//1 9//1
f 9//2 6//2 11//2
f 12//13 7//11 9//11
f 9//12 7//12 12//14
f 10//1 7//1 13//1
f 13//2 7//2 10//2
f 10//15 11//9 4//9
f 4//10 11//10 10//16
f 8//1 6//1 11//1
f 11//2 6//2 8//2
f 11//1 9//1 14//1
f 14//2 9//2 11//2
f 7//11 12//13 13//13
f 13//14 12//14 7//12
f 14//1 9//1 12//1
f 12//2 9//2 14//2
f 10//1 13//1 15//1
f 15//2 13//2 10//2
f 11//9 10//15 14//15
f 14//16 10//16 11//10
f 16//17 13//13 12//13
f 12//14 13//14 16//18
f 14//1 12//1 17//1
f 17//2 12//2 14//2
f 15//1 13//1 18//1
f 18//2 13//2 15//2
f 15//19 14//15 10//15
f 10//16 14//16 15//20
f 13//13 16//17 18//17
f 18//18 16//18 13//14
f 17//1 12//1 16//1
f 16//2 12//2 17//2
f 14//15 15//19 17//19
f 17//20 15//20 14//16
f 15//1 18//1 19//1
f 19//2 18//2 15//2
f 20//21 18//17 16//17
f 16//18 18//18 20//22
f 17//1 16//1 21//1
f 21//2 16//2 17//2
f 19//23 17//19 15//19
f 15//20 17//20 19//24
f 19//1 18//1 22//1
f 22//2 18//2 19//2
f 18//17 20//21 22//21
f 22//22 20//22 18//18
f 21//1 16//1 20//1
f 20//2 16//2 21//2
f 17//19 19//23 21//23
f 21//24 19//24 17//20
f 19//1 22//1 23//1
f 23//2 22//2 19//2
f 24//25 22//21 20//21
f 20//22 22//22 24//26
f 21//1 20//1 25//1
f 25//2 20//2 21//2
f 23//27 21//23 19//23
f 19//24 21//24 23//28
f 23//1 22//1 26//1
f 26//2 22//2 23//2
f 22//21 24//25 26//25
f 26//26 24//26 22//22
f 25//1 20//1 24//1
f 24//2 20//2 25//2
f 21//23 23//27 25//27
f 25//28 23//28 21//24
f 23//1 26//1 27//1
f 27//2 26//2 23//2
f 28//29 26//25 24//25
f 24//26 26//26 28//30
f 25//1 24//1 29//1
f 29//2 24//2 25//2
f 27//31 25//27 23//27
f 23//28 25//28 27//32
f 27//1 26//1 30//1
f 30//2 26//2 27//2
f 26//25 28//29 30//29
f 30//30 28//30 26//26
f 29//1 24//1 28//1
f 28//2 24//2 29//2
f 25//27 27//31 29//31
f 29//32 27//32 25//28
f 27//1 30//1 31//1
f 31//2 30//2 27//2
f 32//33 30//29 28//29
f 28//30 30//30 32//34
f 29//1 28//1 33//1
f 33//2 28//2 29//2
f 31//35 29//31 27//31
f 27//32 29//32 31//36
f 31//1 30//1 34//1
f 34//2 30//2 31//2
f 30//29 32//33 34//33
f 34//34 32//34 30//30
f 33//1 28//1 32//1
f 32//2 28//2 33//2
f 29//31 31//35 33//35
f 33//36 31//36 29//32
f 31//1 34//1 35//1
f 35//2 34//2 31//2
f 32//33 36//37 34//33
f 34//34 36//38 32//34
f 33//1 32//1 37//1
f 37//2 32//2 33//2
f 35//39 33//35 31//35
f 31//36 33//36 35//40
f 35//1 34//1 36//1
f 36//2 34//2 35//2
f 36//37 32//33 38//37
f 38//38 32//34 36//38
f 37//1 32//1 38//1
f 38//2 32//2 37//2
f 33//35 35//39 37//39
f 37//40 35//40 33//36
f 35//1 36//1 39//1
f 39//2 36//2 35//2
f 38//37 40//41 36//37
f 36//38 40//42 38//38
f 37//1 38//1 41//1
f 41//2 38//2 37//2
f 35//39 41//43 37//39
f 37//40 41//44 35//40
f 39//1 36//1 40//1
f 40//2 36//2 39//2
f 41//43 35//39 39//43
f 39//44 35//40 41//44
f 40//41 38//37 42//41
f 42//42 38//38 40//42
f 41//1 38//1 42//1
f 42//2 38//2 41//2
f 39//1 40//1 43//1
f 43//2 40//2 39//2
f 39//43 44//45 41//43
f 41//44 44//46 39//44
f 42//41 45//47 40//41
f 40//42 45//48 42//42
f 41//1 42//1 44//1
f 44//2 42//2 41//2
f 43//1 40//1 45//1
f 45//2 40//2 43//2
f 44//45 39//43 43//45
f 43//46 39//44 44//46
f 45//47 42//41 46//47
f 46//48 42//42 45//48
f 44//1 42//1 46//1
f 46//2 42//2 44//2
f 43//1 45//1 47//1
f 47//2 45//2 43//2
f 43//45 48//49 44//45
f 44//46 48//50 43//46
f 46//47 49//51 45//47
f 45//48 49//52 46//48
f 44//1 46//1 48//1
f 48//2 46//2 44//2
f 47//1 45//1 49//1
f 49//2 45//2 47//2
f 48//49 43//45 47//49
f 47//50 43//46 48//50
f 49//51 46//47 50//51
f 50//52 46//48 49//52
f 48//1 46//1 50//1
f 50//2 46//2 48//2
f 47//1 49//1 51//1
f 51//2 49//2 47//2
f 47//49 52//53 48//49
f 48//50 52//54 47//50
f 50//51 53//54 49//51
f 49//52 53//53 50//52
f 48//1 50//1 52//1
f 52//2 50//2 48//2
f 51//1 49//1 53//1
f 53//2 49//2 51//2
f 52//53 47//49 51//53
f 51//54 47//50 52//54
f 53//54 50//51 54//54
f 54//53 50//52 53//53
f 52//1 50//1 54//1
f 54//2 50//2 52//2
f 51//1 53//1 55//1
f 55//2 53//2 51//2
f 51//53 56//52 52//53
f 52//54 56//51 51//54
f 54//54 57//50 53//54
f 53//53 57//49 54//53
f 52//1 54//1 56//1
f 56//2 54//2 52//2
f 55//1 53//1 57//1
f 57//2 53//2 55//2
f 56//52 51//53 55//52
f 55//51 51//54 56//51
f 57//50 54//54 58//50
f 58//49 54//53 57//49
f 56//1 54//1 58//1
f 58//2 54//2 56//2
f 55//1 57//1 59//1
f 59//2 57//2 55//2
f 55//52 60//48 56//52
f 56//51 60//47 55//51
f 58//50 61//46 57//50
f 57//49 61//45 58//49
f 56//1 58//1 60//1
f 60//2 58//2 56//2
f 59//1 57//1 61//1
f 61//2 57//2 59//2
f 60//48 55//52 59//48
f 59//47 55//51 60//47
f 61//46 58//50 62//46
f 62//45 58//49 61//45
f 60//1 58//1 62//1
f 62//2 58//2 60//2
f 59//1 61//1 63//1
f 63//2 61//2 59//2
f 59//48 64//42 60//48
f 60//47 64//41 59//47
f 62//46 65//44 61//46
f 61//45 65//43 62//45
f 60//1 62//1 64//1
f 64//2 62//2 60//2
f 63//1 61//1 65//1
f 65//2 61//2 63//2
f 64//42 59//48 63//42
f 63//41 59//47 64//41
f 65//44 62//46 66//44
f 66//43 62//45 65//43
f 64//1 62//1 66//1
f 66//2 62//2 64//2
f 63//1 65//1 67//1
f 67//2 65//2 63//2
f 63//42 68//38 64//42
f 64//41 68//37 63//41
f 66//44 69//40 65//44
f 65//43 69//39 66//43
f 64//1 66//1 68//1
f 68//2 66//2 64//2
f 67//1 65//1 69//1
f 69//2 65//2 67//2
f 68//38 63//42 67//38
f 67//37 63//41 68//37
f 69//40 66//44 70//40
f 70//39 66//43 69//39
f 68//1 66//1 70//1
f 70//2 66//2 68//2
f 67//1 69//1 71//1
f 71//2 69//2 67//2
f 67//38 72//34 68//38
f 68//37 72//33 67//37
f 70//40 73//36 69//40
f 69//39 73//35 70//39
f 68//1 70//1 72//1
f 72//2 70//2 68//2
f 71//1 69//1 73//1
f 73//2 69//2 71//2
f 72//34 67//38 71//34
f 71//33 67//37 72//33
f 73//36 70//40 74//36
f 74//35 70//39 73//35
f 72//1 70//1 74//1
f 74//2 70//2 72//2
f 71//1 73//1 75//1
f 75//2 73//2 71//2
f 75//30 72//34 71//34
f 71//33 72//33 75//29
f 76//32 73//36 74//36
f 74//35 73//35 76//31
f 72//1 74//1 77//1
f 77//2 74//2 72//2
f 75//1 73//1 78//1
f 78//2 73//2 75//2
f 72//34 75//30 77//30
f 77//29 75//29 72//33
f 73//36 76//32 78//32
f 78//31 76//31 73//35
f 77//1 74//1 76//1
f 76//2 74//2 77//2
f 75//1 78//1 79//1
f 79//2 78//2 75//2
f 75//30 80//26 77//30
f 77//29 80//25 75//29
f 76//32 81//28 78//32
f 78//31 81//27 76//31
f 77//1 76//1 80//1
f 80//2 76//2 77//2
f 79//1 78//1 81//1
f 81//2 78//2 79//2
f 80//26 75//30 79//26
f 79//25 75//29 80//25
f 81//28 76//32 82//28
f 82//27 76//31 81//27
f 80//1 76//1 82//1
f 82//2 76//2 80//2
f 79//1 81//1 83//1
f 83//2 81//2 79//2
f 83//22 80//26 79//26
f 79//25 80//25 83//21
f 84//24 81//28 82//28
f 82//27 81//27 84//23
f 80//1 82//1 85//1
f 85//2 82//2 80//2
f 83//1 81//1 86//1
f 86//2 81//2 83//2
f 80//26 83//22 85//22
f 85//21 83//21 80//25
f 81//28 84//24 86//24
f 86//23 84//23 81//27
f 85//1 82//1 84//1
f 84//2 82//2 85//2
f 83//1 86//1 87//1
f 87//2 86//2 83//2
f 83//22 88//18 85//22
f 85//21 88//17 83//21
f 89//20 86//24 84//24
f 84//23 86//23 89//19
f 85//1 84//1 88//1
f 88//2 84//2 85//2
f 87//1 86//1 90//1
f 90//2 86//2 87//2
f 88//18 83//22 87//18
f 87//17 83//21 88//17
f 86//24 89//20 90//20
f 90//19 89//19 86//23
f 88//1 84//1 89//1
f 89//2 84//2 88//2
f 87//1 90//1 91//1
f 91//2 90//2 87//2
f 91//14 88//18 87//18
f 87//17 88//17 91//13
f 92//16 90//20 89//20
f 89//19 90//19 92//15
f 88//1 89//1 93//1
f 93//2 89//2 88//2
f 91//1 90//1 94//1
f 94//2 90//2 91//2
f 88//18 91//14 93//14
f 93//13 91//13 88//17
f 90//20 92//16 94//16
f 94//15 92//15 90//19
f 93//1 89//1 92//1
f 92//2 89//2 93//2
f 91//1 94//1 95//1
f 95//2 94//2 91//2
f 95//12 93//14 91//14
f 91//13 93//13 95//11
f 96//10 94//16 92//16
f 92//15 94//15 96//9
f 93//1 92//1 97//1
f 97//2 92//2 93//2
f 95//1 94//1 98//1
f 98//2 94//2 95//2
f 93//14 95//12 97//12
f 97//11 95//11 93//13
f 94//16 96//10 98//10
f 98//9 96//9 94//15
f 97//1 92//1 96//1
f 96//2 92//2 97//2
f 95//1 98//1 99//1
f 99//2 98//2 95//2
f 99//8 97//12 95//12
f 95//11 97//11 99//7
f 100//6 98//10 96//10
f 96//9 98//9 100//3
f 97//1 96//1 101//1
f 101//2 96//2 97//2
f 99//1 98//1 102//1
f 102//2 98//2 99//2
f 97//12 99//8 101//8
f 101//7 99//7 97//11
f 98//10 100//6 102//6
f 102//3 100//3 98//9
f 101//1 96//1 100//1
f 100//2 96//2 101//2
f 99//1 102//1 103//1
f 103//2 102//2 99//2
f 103//5 101//8 99//8
f 99//7 101//7 103//4
f 104//5 102//6 100//6
f 100//3 102//3 104//4
f 101//1 100//1 104//1
f 104//2 100//2 101//2
f 102//6 104//5 103//5
f 103//4 104//4 102//3
f 101//8 103//5 104//5
f 104//4 103//4 101//7
