# SSTK version 0.8.0
# 2
mtllib original-2.mtl
o mesh1/mesh1-geometry#mesh1-geometry
v 0.026669 0.340275 -0.376372
v 0.024371 0.327729 -0.373011
v 0.024919 0.322935 -0.371726
v 0.022087 0.344496 -0.377503
v 0.024919 0.322388 -0.373765
v 0.024919 0.296465 -0.364633
v 0.026669 0.339729 -0.378412
v 0.022726 0.331001 -0.373887
v 0.024371 0.327182 -0.375050
v 0.024919 0.295918 -0.366672
v 0.029361 0.344043 -0.377382
v 0.022087 0.343949 -0.379543
v 0.020185 0.332885 -0.374392
v 0.032729 0.346748 -0.378107
v 0.045322 0.296465 -0.364633
v 0.017930 0.347110 -0.378204
v 0.029361 0.343496 -0.379421
v 0.020185 0.332338 -0.376432
v 0.022726 0.330455 -0.375927
v 0.037098 0.348378 -0.378544
v 0.032729 0.346201 -0.380146
v 0.045322 0.295918 -0.366672
v 0.042795 0.348921 -0.378689
v 0.017930 0.346563 -0.380243
v 0.016946 0.333513 -0.374561
v 0.016946 0.332966 -0.376600
v 0.037098 0.347831 -0.380583
v 0.045322 0.324175 -0.374244
v 0.045322 0.324722 -0.372205
v 0.013523 0.348468 -0.378568
v 0.042795 0.348375 -0.380729
v 0.045723 0.329310 -0.373434
v 0.013523 0.347922 -0.380607
v 0.014155 0.332849 -0.374383
v 0.014155 0.332302 -0.376422
v 0.048272 0.347880 -0.380596
v 0.045723 0.328764 -0.375474
v 0.046614 0.331055 -0.373902
v 0.008192 0.348921 -0.378689
v 0.011863 0.330856 -0.373849
v 0.048272 0.348426 -0.378556
v 0.047981 0.331879 -0.376308
v 0.046614 0.330509 -0.375941
v 0.047981 0.332426 -0.374269
v 0.008192 0.348375 -0.380729
v 0.011863 0.330310 -0.375888
v 0.052886 0.346394 -0.380198
v 0.049725 0.332767 -0.376546
v 0.004157 0.348615 -0.378607
v 0.010816 0.328719 -0.373276
v 0.049725 0.333313 -0.374507
v 0.052886 0.346941 -0.378158
v 0.051744 0.333063 -0.376625
v 0.010816 0.328172 -0.375315
v 0.004157 0.348068 -0.380647
v -0.009935 0.296465 -0.364633
v 0.010467 0.325688 -0.372464
v 0.051744 0.333609 -0.374586
v 0.057048 0.343738 -0.379486
v 0.054944 0.332423 -0.376454
v 0.010467 0.325141 -0.374503
v -0.009935 0.295918 -0.366673
v 0.000589 0.347696 -0.378361
v 0.010467 0.296465 -0.364633
v 0.054944 0.332969 -0.374415
v 0.057048 0.344284 -0.377446
v 0.000589 0.347149 -0.380400
v -0.002510 0.346164 -0.377951
v 0.061174 0.340275 -0.376372
v 0.057515 0.330503 -0.375939
v 0.057515 0.331049 -0.373900
v 0.010467 0.295918 -0.366673
v -0.002510 0.345617 -0.379990
v -0.009935 0.328683 -0.373266
v -0.005141 0.344019 -0.377376
v 0.061174 0.339729 -0.378412
v 0.059209 0.327668 -0.372994
v 0.059209 0.327122 -0.375033
v -0.005141 0.343472 -0.379415
v -0.009935 0.328136 -0.375306
v -0.009636 0.333554 -0.374572
v -0.007239 0.341222 -0.376626
v 0.061174 0.347762 -0.378378
v 0.059774 0.322645 -0.371648
v -0.007239 0.340675 -0.378666
v -0.009636 0.333007 -0.376611
v -0.008737 0.337733 -0.375692
v 0.061174 0.347215 -0.380418
v 0.080176 0.296465 -0.364633
v 0.059774 0.322098 -0.373687
v 0.059773 0.296465 -0.364633
v -0.008737 0.337187 -0.377731
v 0.080176 0.347215 -0.380418
v 0.080176 0.347762 -0.378378
v 0.059773 0.295918 -0.366672
v 0.080176 0.295918 -0.366672
vn -0.000007716532013897274 0.2588295560241147 0.9659230098039984
vn 0.000007716532013897274 -0.2588295560241147 -0.9659230098039984
vn -0.9607870959307437 -0.2678391935524753 0.07176574872547196
vn -0.9984876737734931 -0.05310397987995799 0.014224367940522134
vn 0.9984876737734931 0.05310397987995799 -0.014224367940522134
vn 0.9607870959307437 0.2678391935524753 -0.07176574872547196
vn 0.69011210864752 0.6990413968036482 -0.18731364886969123
vn 0.620497406229451 0.7574854200116339 -0.20297489335462657
vn -0.69011210864752 -0.6990413968036482 0.18731364886969123
vn -0.620497406229451 -0.7574854200116339 0.20297489335462657
vn -1 2.4696151451150077e-7 -0.000005627954829713877
vn 1 -2.4696151451150077e-7 0.000005627954829713877
vn -0.738077533451719 0.6517221835669941 -0.17464177638954542
vn -0.8230590099082709 0.5486001508433703 -0.14700932182500587
vn 0.8230590099082709 -0.5486001508433703 0.14700932182500587
vn 0.738077533451719 -0.6517221835669941 0.17464177638954542
vn -0.7749803635848166 -0.6104498499946724 0.16357388758425842
vn 0.7749803635848166 0.6104498499946724 -0.16357388758425842
vn -0.000004750407781461732 -0.9659224030542493 0.2588318204072643
vn 0.000004750407781461732 0.9659224030542493 -0.2588318204072643
vn 0.4286664204036349 0.8726755918149061 -0.2338427066830139
vn -0.4286664204036349 -0.8726755918149061 0.2338427066830139
vn -0.41349027057864773 -0.8794811691225196 0.23566643650652166
vn 0.41349027057864773 0.8794811691225196 -0.23566643650652166
vn -0.5065039231980824 0.8328539645910208 -0.22317717053939434
vn 0.5065039231980824 -0.8328539645910208 0.22317717053939434
vn 0.02176234554574918 -0.965693615437493 0.2587706347706612
vn -0.02176234554574918 0.965693615437493 -0.2587706347706612
vn -0.2313963934585541 0.9397065151311064 -0.25180820978380714
vn 0.2313963934585541 -0.9397065151311064 0.25180820978380714
vn 0.9991109343010494 -0.040720471081241466 0.010917151414447554
vn -0.9991109343010494 0.040720471081241466 -0.010917151414447554
vn 0.19702427674030826 0.9469892552331474 -0.2537573345697167
vn -0.19702427674030826 -0.9469892552331474 0.2537573345697167
vn -0.002559259715115555 0.9659192361904436 -0.2588309860642283
vn 0.002559259715115555 -0.9659192361904436 0.2588309860642283
vn 0.46812699398430735 -0.8535474994666061 0.22872206639832643
vn -0.46812699398430735 0.8535474994666061 -0.22872206639832643
vn 0.20603836322223296 0.9451977760256743 -0.25327723363307386
vn -0.20603836322223296 -0.9451977760256743 0.25327723363307386
vn 0.9634450886988376 -0.25877495262022693 0.06934756634870731
vn -0.9634450886988376 0.25877495262022693 -0.06934756634870731
vn 0.004639771053522806 0.9659120125188272 -0.2588290103454397
vn -0.004639771053522806 -0.9659120125188272 0.2588290103454397
vn 0.8182163543877058 -0.5553177220432257 0.14880935789531155
vn -0.8182163543877058 0.5553177220432257 -0.14880935789531155
vn 0.8021382371899987 -0.5767882264595636 0.15456257715033153
vn -0.8021382371899987 0.5767882264595636 -0.15456257715033153
vn 0.43748931585650075 0.868580837368516 -0.23274541341908003
vn -0.43748931585650075 -0.868580837368516 0.23274541341908003
vn 0.6007646693477515 -0.7721825766799468 0.20691998534555572
vn -0.6007646693477515 0.7721825766799468 -0.20691998534555572
vn -0.16875709585779414 0.9520685906231738 -0.2551204447833354
vn 0.16875709585779414 -0.9520685906231738 0.2551204447833354
vn 0.9620807535635625 -0.2634682711308248 0.0706051961961856
vn -0.9620807535635625 0.2634682711308248 -0.0706051961961856
vn 0.31244582315430997 -0.9175636244583734 0.24587517699889655
vn -0.31244582315430997 0.9175636244583734 -0.24587517699889655
vn 0.6335662898238739 0.747323849571233 -0.20025189202812557
vn -0.6335662898238739 -0.747323849571233 0.20025189202812557
vn -0.026848849931330857 -0.9655742298575422 0.25873837344386963
vn 0.026848849931330857 0.9655742298575422 -0.25873837344386963
vn -0.3586871646024675 0.901647330286185 -0.2416104503891283
vn 0.3586871646024675 -0.901647330286185 0.2416104503891283
vn 0.9984678194297265 -0.05344837562023233 0.014327760006550734
vn -0.9984678194297265 0.05344837562023233 -0.014327760006550734
vn -0.41788334469397587 -0.8775417541864716 0.23514671991483507
vn 0.41788334469397587 0.8775417541864716 -0.23514671991483507
vn 0.7092517826528497 0.6809330582859704 -0.18246117103940238
vn -0.7092517826528497 -0.6809330582859704 0.18246117103940238
vn -0.7765001085272536 -0.608645319823291 0.16309033114923505
vn 0.7765001085272536 0.608645319823291 -0.16309033114923505
vn -0.5538733696279539 0.8042271103550621 -0.21550648571892808
vn 0.5538733696279539 -0.8042271103550621 0.21550648571892808
vn -0.9995597318396993 0.028658074009395764 -0.007684873363978137
vn 0.9995597318396993 -0.028658074009395764 0.007684873363978137
vn -0.7328263220922248 0.6572277893575472 -0.17611704785447185
vn 0.7328263220922248 -0.6572277893575472 0.17611704785447185
vn -0.9612296689714754 -0.2663534951441847 0.07136763351453095
vn 0.9612296689714754 0.2663534951441847 -0.07136763351453095
vn -0.9912897296620713 0.12720980205553323 -0.03409308034615659
vn 0.9912897296620713 -0.12720980205553323 0.03409308034615659
vn -0.8727247461644254 0.4715742491490824 -0.12636947800682882
vn 0.8727247461644254 -0.4715742491490824 0.12636947800682882
vn -0.9985390924862333 -0.052194107461648064 0.01398055517680232
vn 0.9985390924862333 0.052194107461648064 -0.01398055517680232
vn -0.9556250292157495 0.28454571134842516 -0.07625314216225193
vn 0.9556250292157495 -0.28454571134842516 0.07625314216225193
usemtl material_0_0
f 1//1 2//1 3//1
f 2//1 1//1 4//1
f 3//2 2//2 1//2
f 4//2 1//2 2//2
f 2//3 5//4 3//4
f 3//5 5//5 2//6
f 6//1 1//1 3//1
f 3//2 1//2 6//2
f 7//7 4//8 1//7
f 1//9 4//10 7//9
f 2//1 4//1 8//1
f 8//2 4//2 2//2
f 5//4 2//3 9//3
f 9//6 2//6 5//5
f 10//11 3//4 5//4
f 5//5 3//5 10//12
f 6//1 11//1 1//1
f 1//2 11//2 6//2
f 3//4 10//11 6//11
f 6//12 10//12 3//5
f 4//8 7//7 12//8
f 12//10 7//9 4//10
f 11//13 7//14 1//14
f 1//15 7//15 11//16
f 8//1 4//1 13//1
f 13//2 4//2 8//2
f 8//17 9//3 2//3
f 2//6 9//6 8//18
f 7//2 5//2 9//2
f 9//1 5//1 7//1
f 7//2 10//2 5//2
f 5//1 10//1 7//1
f 6//1 14//1 11//1
f 11//2 14//2 6//2
f 10//19 15//19 6//19
f 6//20 15//20 10//20
f 7//2 9//2 12//2
f 12//1 9//1 7//1
f 12//8 16//21 4//8
f 4//10 16//22 12//10
f 7//14 11//13 17//13
f 17//16 11//16 7//15
f 13//1 4//1 16//1
f 16//2 4//2 13//2
f 18//23 8//17 13//23
f 13//24 8//18 18//24
f 9//3 8//17 19//17
f 19//18 8//18 9//6
f 17//2 10//2 7//2
f 7//1 10//1 17//1
f 6//1 20//1 14//1
f 14//2 20//2 6//2
f 21//25 11//13 14//25
f 14//26 11//16 21//26
f 15//19 10//19 22//19
f 22//20 10//20 15//20
f 15//1 23//1 6//1
f 6//2 23//2 15//2
f 12//2 9//2 19//2
f 19//1 9//1 12//1
f 16//21 12//8 24//21
f 24//22 12//10 16//22
f 11//13 21//25 17//13
f 17//16 21//26 11//16
f 13//1 16//1 25//1
f 25//2 16//2 13//2
f 8//17 18//23 19//17
f 19//18 18//24 8//18
f 13//23 26//27 18//23
f 18//24 26//28 13//24
f 21//2 10//2 17//2
f 17//1 10//1 21//1
f 6//1 23//1 20//1
f 20//2 23//2 6//2
f 27//29 14//25 20//29
f 20//30 14//26 27//30
f 14//25 27//29 21//25
f 21//26 27//30 14//26
f 10//2 28//2 22//2
f 22//1 28//1 10//1
f 28//31 15//12 22//12
f 22//11 15//11 28//32
f 29//1 23//1 15//1
f 15//2 23//2 29//2
f 12//2 19//2 18//2
f 18//1 19//1 12//1
f 12//2 18//2 24//2
f 24//1 18//1 12//1
f 24//21 30//33 16//21
f 16//22 30//34 24//22
f 25//1 16//1 30//1
f 30//2 16//2 25//2
f 26//27 13//23 25//27
f 25//28 13//24 26//28
f 24//2 18//2 26//2
f 26//1 18//1 24//1
f 27//2 10//2 21//2
f 21//1 10//1 27//1
f 31//35 20//29 23//35
f 23//36 20//30 31//36
f 20//29 31//35 27//29
f 27//30 31//36 20//30
f 28//2 10//2 31//2
f 31//1 10//1 28//1
f 15//12 28//31 29//31
f 29//32 28//32 15//11
f 32//1 23//1 29//1
f 29//2 23//2 32//2
f 30//33 24//21 33//33
f 33//34 24//22 30//34
f 25//1 30//1 34//1
f 34//2 30//2 25//2
f 25//27 35//37 26//27
f 26//28 35//38 25//28
f 24//2 26//2 33//2
f 33//1 26//1 24//1
f 31//2 10//2 27//2
f 27//1 10//1 31//1
f 23//35 36//39 31//35
f 31//36 36//40 23//36
f 31//2 37//2 28//2
f 28//1 37//1 31//1
f 37//41 29//31 28//31
f 28//32 29//32 37//42
f 38//1 23//1 32//1
f 32//2 23//2 38//2
f 29//31 37//41 32//41
f 32//42 37//42 29//32
f 33//33 39//43 30//33
f 30//34 39//44 33//34
f 34//1 30//1 40//1
f 40//2 30//2 34//2
f 35//37 25//27 34//37
f 34//38 25//28 35//38
f 33//2 26//2 35//2
f 35//1 26//1 33//1
f 36//39 23//35 41//39
f 41//40 23//36 36//40
f 36//2 42//2 31//2
f 31//1 42//1 36//1
f 31//2 43//2 37//2
f 37//1 43//1 31//1
f 44//1 23//1 38//1
f 38//2 23//2 44//2
f 32//41 43//45 38//45
f 38//46 43//46 32//42
f 43//45 32//41 37//41
f 37//42 32//42 43//46
f 39//43 33//33 45//43
f 45//44 33//34 39//44
f 40//1 30//1 39//1
f 39//2 30//2 40//2
f 46//47 34//37 40//47
f 40//48 34//38 46//48
f 34//37 46//47 35//37
f 35//38 46//48 34//38
f 33//2 35//2 46//2
f 46//1 35//1 33//1
f 44//1 41//1 23//1
f 23//2 41//2 44//2
f 41//39 47//49 36//39
f 36//40 47//50 41//40
f 36//2 48//2 42//2
f 42//1 48//1 36//1
f 31//2 42//2 43//2
f 43//1 42//1 31//1
f 38//45 42//51 44//51
f 44//52 42//52 38//46
f 42//51 38//45 43//45
f 43//46 38//46 42//52
f 33//2 46//2 45//2
f 45//1 46//1 33//1
f 45//43 49//53 39//43
f 39//44 49//54 45//44
f 40//1 39//1 50//1
f 50//2 39//2 40//2
f 50//55 46//47 40//47
f 40//48 46//48 50//56
f 51//1 41//1 44//1
f 44//2 41//2 51//2
f 47//49 41//39 52//49
f 52//50 41//40 47//50
f 47//2 53//2 36//2
f 36//1 53//1 47//1
f 36//2 53//2 48//2
f 48//1 53//1 36//1
f 51//57 42//51 48//57
f 48//58 42//52 51//58
f 42//51 51//57 44//51
f 44//52 51//58 42//52
f 45//2 46//2 54//2
f 54//1 46//1 45//1
f 49//53 45//43 55//53
f 55//54 45//44 49//54
f 56//1 39//1 49//1
f 49//2 39//2 56//2
f 50//1 39//1 57//1
f 57//2 39//2 50//2
f 46//47 50//55 54//55
f 54//56 50//56 46//48
f 58//1 41//1 51//1
f 51//2 41//2 58//2
f 58//1 52//1 41//1
f 41//2 52//2 58//2
f 52//49 59//59 47//49
f 47//50 59//60 52//50
f 47//2 60//2 53//2
f 53//1 60//1 47//1
f 58//61 48//57 53//61
f 53//62 48//58 58//62
f 48//57 58//61 51//57
f 51//58 58//62 48//58
f 45//2 54//2 61//2
f 61//1 54//1 45//1
f 45//2 62//2 55//2
f 55//1 62//1 45//1
f 55//53 63//63 49//53
f 49//54 63//64 55//54
f 64//1 39//1 56//1
f 56//2 39//2 64//2
f 56//1 49//1 63//1
f 63//2 49//2 56//2
f 57//1 39//1 64//1
f 64//2 39//2 57//2
f 57//65 54//55 50//55
f 50//56 54//56 57//66
f 65//1 52//1 58//1
f 58//2 52//2 65//2
f 59//59 52//49 66//59
f 66//60 52//50 59//60
f 59//2 60//2 47//2
f 47//1 60//1 59//1
f 65//67 53//61 60//67
f 60//68 53//62 65//68
f 53//61 65//67 58//61
f 58//62 65//68 53//62
f 54//55 57//65 61//65
f 61//66 57//66 54//56
f 61//2 62//2 45//2
f 45//1 62//1 61//1
f 55//2 62//2 67//2
f 67//1 62//1 55//1
f 63//63 55//53 67//63
f 67//64 55//54 63//64
f 62//19 64//19 56//19
f 56//20 64//20 62//20
f 56//1 63//1 68//1
f 68//2 63//2 56//2
f 64//12 61//65 57//65
f 57//66 61//66 64//11
f 65//1 66//1 52//1
f 52//2 66//2 65//2
f 69//69 59//59 66//59
f 66//60 59//60 69//70
f 59//2 70//2 60//2
f 60//1 70//1 59//1
f 60//67 71//71 65//67
f 65//68 71//72 60//68
f 62//2 61//2 72//2
f 72//1 61//1 62//1
f 67//2 62//2 73//2
f 73//1 62//1 67//1
f 67//63 68//73 63//63
f 63//64 68//74 67//64
f 64//19 62//19 72//19
f 72//20 62//20 64//20
f 74//75 62//11 56//11
f 56//12 62//12 74//76
f 56//1 68//1 75//1
f 75//2 68//2 56//2
f 61//65 64//12 72//12
f 72//11 64//11 61//66
f 71//1 66//1 65//1
f 65//2 66//2 71//2
f 59//59 69//69 76//69
f 76//70 69//70 59//60
f 77//1 69//1 66//1
f 66//2 69//2 77//2
f 59//2 78//2 70//2
f 70//1 78//1 59//1
f 71//71 60//67 70//71
f 70//72 60//68 71//72
f 73//2 62//2 79//2
f 79//1 62//1 73//1
f 68//73 67//63 73//73
f 73//74 67//64 68//74
f 62//11 74//75 80//75
f 80//76 74//76 62//12
f 56//1 81//1 74//1
f 74//2 81//2 56//2
f 73//73 75//77 68//73
f 68//74 75//78 73//74
f 56//1 75//1 82//1
f 82//2 75//2 56//2
f 77//1 66//1 71//1
f 71//2 66//2 77//2
f 83//11 76//11 69//11
f 69//12 76//12 83//12
f 76//2 78//2 59//2
f 59//1 78//1 76//1
f 69//1 77//1 84//1
f 84//2 77//2 69//2
f 78//79 71//71 70//71
f 70//72 71//72 78//80
f 79//2 62//2 85//2
f 85//1 62//1 79//1
f 75//77 73//73 79//77
f 79//78 73//74 75//78
f 81//81 80//75 74//75
f 74//76 80//76 81//82
f 86//2 62//2 80//2
f 80//1 62//1 86//1
f 56//1 87//1 81//1
f 81//2 87//2 56//2
f 75//77 85//83 82//83
f 82//84 85//84 75//78
f 56//1 82//1 87//1
f 87//2 82//2 56//2
f 71//71 78//79 77//79
f 77//80 78//80 71//72
f 76//11 83//11 88//11
f 88//12 83//12 76//12
f 89//1 83//1 69//1
f 69//2 83//2 89//2
f 76//2 90//2 78//2
f 78//1 90//1 76//1
f 77//79 90//85 84//85
f 84//86 90//86 77//80
f 91//1 69//1 84//1
f 84//2 69//2 91//2
f 85//2 62//2 92//2
f 92//1 62//1 85//1
f 85//83 75//77 79//77
f 79//78 75//78 85//84
f 80//75 81//81 86//81
f 86//82 81//82 80//76
f 92//2 62//2 86//2
f 86//1 62//1 92//1
f 87//87 86//81 81//81
f 81//82 86//82 87//88
f 92//87 82//83 85//83
f 85//84 82//84 92//88
f 82//83 92//87 87//87
f 87//88 92//88 82//84
f 90//85 77//79 78//79
f 78//80 77//80 90//86
f 83//20 93//20 88//20
f 88//19 93//19 83//19
f 88//2 93//2 76//2
f 76//1 93//1 88//1
f 83//1 89//1 94//1
f 94//2 89//2 83//2
f 89//1 69//1 91//1
f 91//2 69//2 89//2
f 76//2 95//2 90//2
f 90//1 95//1 76//1
f 95//11 84//85 90//85
f 90//86 84//86 95//12
f 84//85 95//11 91//11
f 91//12 95//12 84//86
f 86//81 87//87 92//87
f 92//88 87//88 86//82
f 93//20 83//20 94//20
f 94//19 83//19 93//19
f 93//2 95//2 76//2
f 76//1 95//1 93//1
f 89//12 93//12 94//12
f 94//11 93//11 89//11
f 95//19 89//19 91//19
f 91//20 89//20 95//20
f 95//2 93//2 96//2
f 96//1 93//1 95//1
f 93//12 89//12 96//12
f 96//11 89//11 93//11
f 89//19 95//19 96//19
f 96//20 95//20 89//20
