# SSTK version 0.8.0
# 3
mtllib original-3.mtl
o mesh2/mesh2-geometry#mesh2-geometry
v -0.038451 0.348469 -0.378569
v -0.039333 0.336047 -0.375240
v -0.038939 0.334485 -0.374821
v -0.046540 0.348921 -0.378690
v -0.038939 0.333939 -0.376861
v -0.036257 0.317924 -0.370384
v -0.038451 0.347923 -0.380608
v -0.040514 0.337355 -0.375591
v -0.039333 0.335500 -0.377279
v -0.039439 0.332287 -0.376418
v -0.032188 0.347112 -0.378205
v -0.039439 0.332833 -0.374379
v -0.046540 0.348375 -0.380729
v -0.032188 0.346565 -0.380244
v -0.042558 0.338241 -0.375828
v -0.036257 0.317378 -0.372423
v -0.030513 0.319511 -0.370809
v -0.045240 0.316206 -0.369923
v -0.054797 0.348571 -0.378596
v -0.045540 0.338536 -0.375907
v -0.042558 0.337695 -0.377867
v -0.040514 0.336808 -0.377630
v -0.040939 0.331640 -0.374059
v -0.045240 0.315659 -0.371963
v -0.027412 0.344838 -0.377596
v -0.027412 0.344292 -0.379635
v -0.054797 0.348025 -0.380636
v -0.048690 0.338150 -0.375804
v -0.030513 0.318964 -0.372848
v -0.045540 0.337990 -0.377947
v -0.040939 0.331093 -0.376098
v -0.026712 0.321555 -0.371357
v -0.044114 0.330723 -0.373814
v -0.053991 0.313633 -0.371420
v -0.048690 0.337604 -0.377843
v -0.060566 0.347521 -0.378315
v -0.051340 0.336991 -0.375493
v -0.044114 0.330177 -0.375853
v -0.023787 0.341635 -0.376737
v -0.023787 0.341089 -0.378777
v -0.026712 0.321009 -0.373396
v -0.049640 0.329903 -0.373594
v -0.053991 0.314180 -0.369381
v -0.049640 0.329357 -0.375633
v -0.051340 0.336444 -0.377532
v -0.060566 0.346974 -0.380354
v -0.073143 0.335204 -0.375014
v -0.052841 0.335505 -0.375095
v -0.023562 0.324649 -0.372186
v -0.055716 0.312235 -0.371045
v -0.058491 0.328030 -0.375278
v -0.052840 0.334959 -0.377134
v -0.073143 0.334657 -0.377054
v -0.064717 0.345734 -0.377836
v -0.053841 0.333368 -0.374522
v -0.021499 0.337618 -0.375661
v -0.023562 0.324103 -0.374225
v -0.058491 0.328576 -0.373238
v -0.055716 0.312781 -0.369006
v -0.053841 0.332822 -0.376562
v -0.064717 0.345187 -0.379875
v -0.068117 0.343174 -0.377150
v -0.021443 0.328522 -0.373223
v -0.021443 0.327975 -0.375263
v -0.021499 0.337072 -0.377700
v -0.056291 0.310900 -0.368502
v -0.056291 0.310353 -0.370541
v -0.064742 0.326815 -0.372766
v -0.068117 0.342627 -0.379189
v -0.070886 0.339708 -0.376221
v -0.020737 0.332901 -0.374397
v -0.056360 0.295381 -0.366529
v -0.064742 0.326269 -0.374806
v -0.063417 0.297791 -0.364989
v -0.070886 0.339161 -0.378261
v -0.020736 0.332354 -0.376436
v -0.056360 0.295927 -0.364490
v -0.055853 0.309176 -0.368040
v -0.055853 0.308629 -0.370079
v -0.063417 0.297244 -0.367028
v -0.069111 0.324415 -0.372123
v -0.068593 0.300704 -0.365770
v -0.054541 0.307219 -0.369701
v -0.068593 0.300158 -0.367809
v -0.069111 0.323868 -0.374163
v -0.054541 0.307766 -0.367662
v -0.051828 0.305953 -0.369362
v -0.047140 0.295306 -0.364323
v -0.072318 0.320623 -0.373293
v -0.072168 0.304474 -0.366780
v -0.051828 0.306499 -0.367323
v -0.048190 0.305531 -0.369249
v -0.047140 0.294759 -0.366362
v -0.048190 0.306077 -0.367209
v -0.072168 0.303927 -0.368819
v -0.072318 0.321170 -0.371254
v -0.040387 0.295556 -0.364390
v -0.044815 0.306452 -0.367310
v -0.074287 0.316775 -0.372262
v -0.074249 0.308186 -0.369960
v -0.074249 0.308732 -0.367921
v -0.044815 0.305905 -0.369349
v -0.040387 0.295010 -0.366430
v -0.042189 0.307575 -0.367611
v -0.074287 0.317321 -0.370223
v -0.042189 0.307028 -0.369650
v -0.034682 0.296308 -0.364592
v -0.040189 0.309567 -0.368144
v -0.074943 0.312565 -0.371134
v -0.074943 0.313111 -0.369094
v -0.040189 0.309021 -0.370184
v -0.034682 0.295762 -0.366631
v -0.038689 0.312550 -0.368944
v -0.038689 0.312003 -0.370983
v -0.030024 0.297561 -0.364927
v -0.030024 0.297014 -0.366967
v -0.026412 0.299315 -0.365397
v -0.018486 0.310168 -0.370491
v -0.026412 0.298768 -0.367437
v -0.023601 0.301531 -0.365991
v -0.018486 0.310714 -0.368452
v -0.019638 0.306684 -0.369558
v -0.023601 0.300984 -0.368030
v -0.021343 0.304169 -0.366698
v -0.019638 0.307230 -0.367518
v -0.021343 0.303623 -0.368737
vn -0.000007716532013897274 0.2588295560241147 0.9659230098039984
vn 0.000007716532013897274 -0.2588295560241147 -0.9659230098039984
vn -0.8878679222843486 -0.4444206023712892 0.11908350333448446
vn -0.9997403287187497 0.022009671485702566 -0.005903346035766991
vn 0.9997403287187497 -0.022009671485702566 0.005903346035766991
vn 0.8878679222843486 0.4444206023712892 -0.11908350333448446
vn 0.13880528027423703 0.9565721705827258 -0.25632552864403296
vn 0.006982777179685052 0.9658988636903113 -0.2588254739097838
vn -0.13880528027423703 -0.9565721705827258 0.25632552864403296
vn -0.006982777179685052 -0.9658988636903113 0.2588254739097838
vn -0.9598006103637186 0.27111639108914737 -0.07265459949810497
vn 0.9598006103637186 -0.27111639108914737 0.07265459949810497
vn 0.3328565457607239 0.9108435323329503 -0.2440708494504675
vn -0.3328565457607239 -0.9108435323329503 0.2440708494504675
vn -0.5953456381964076 -0.7760902186064743 0.20796043773724637
vn 0.5953456381964076 0.7760902186064743 -0.20796043773724637
vn -0.11484479501956005 0.9595311667297386 -0.2571198419632016
vn 0.11484479501956005 -0.9595311667297386 0.2571198419632016
vn -0.2590575044567899 -0.9329480074478086 0.24999444950595187
vn 0.2590575044567899 0.9329480074478086 -0.24999444950595187
vn -0.6357839846298827 0.7455627804526259 -0.19978704986034124
vn -0.47034279428699544 0.8524102179709422 -0.22841732894207442
vn 0.6357839846298827 -0.7455627804526259 0.19978704986034124
vn 0.47034279428699544 -0.8524102179709422 0.22841732894207442
vn 0.23478745442374394 -0.9389213898041603 0.2515978438171567
vn 0.38325929009944537 -0.8921648024865585 0.2390696169666678
vn -0.23478745442374394 0.9389213898041603 -0.2515978438171567
vn -0.38325929009944537 0.8921648024865585 -0.2390696169666678
vn 0.5641507669288985 0.7975356682973281 -0.2137072061655154
vn -0.5641507669288985 -0.7975356682973281 0.2137072061655154
vn 0.2137182568038462 -0.9436047978615105 0.2528527084321291
vn -0.2137182568038462 0.9436047978615105 -0.2528527084321291
vn 0.012047305731199569 -0.9658522879453004 0.2588130991573796
vn -0.012047305731199569 0.9658522879453004 -0.2588130991573796
vn 0.45000363691899714 -0.8625938918722015 0.23114606737827978
vn -0.45000363691899714 0.8625938918722015 -0.23114606737827978
vn -0.2982247758727481 0.9219683360875686 -0.24705539926819967
vn 0.2982247758727481 -0.9219683360875686 0.24705539926819967
vn 0.27227183644010106 -0.92942983679704 0.24905466378480517
vn -0.27227183644010106 0.92942983679704 -0.24905466378480517
vn -0.2195994602662673 0.9423440451853153 -0.25251490560863954
vn 0.2195994602662673 -0.9423440451853153 0.25251490560863954
vn 0.6059536954598641 -0.7683903494855783 0.20590383623421166
vn -0.6059536954598641 0.7683903494855783 -0.20590383623421166
vn 0.7860239386139543 0.597130516269029 -0.16000473263653747
vn -0.7860239386139543 -0.597130516269029 0.16000473263653747
vn 0.5740734278749636 -0.7909001574070189 0.21193546286886886
vn -0.5740734278749636 0.7909001574070189 -0.21193546286886886
vn -0.15261096235787258 0.9546077063553269 -0.25580074498567423
vn 0.15261096235787258 -0.9546077063553269 0.25580074498567423
vn 0.6429430140127719 -0.7398126133672817 0.19824625553801944
vn -0.6429430140127719 0.7398126133672817 -0.19824625553801944
vn -0.5147352769978936 0.8281320521590951 -0.2219119167612848
vn 0.5147352769978936 -0.8281320521590951 0.2219119167612848
vn 0.826026394993589 -0.5444230817385618 0.14589003682288437
vn -0.826026394993589 0.5444230817385618 -0.14589003682288437
vn 0.8070496079340606 -0.5703602552936562 0.15284014366269974
vn -0.8070496079340606 0.5703602552936562 -0.15284014366269974
vn 0.9463966656359518 0.31200075823370127 -0.08359951037385305
vn -0.9463966656359518 -0.31200075823370127 0.08359951037385305
vn -0.2171424059979359 0.9428751311907042 -0.25265720353779686
vn 0.2171424059979359 -0.9428751311907042 0.25265720353779686
vn -0.09797712469272743 -0.9612751650173452 0.25758598594997617
vn 0.09797712469272743 0.9612751650173452 -0.25758598594997617
vn 0.9112455570919095 -0.3978269052048299 0.10660810558021834
vn -0.9112455570919095 0.3978269052048299 -0.10660810558021834
vn 0.9491083051070561 -0.3042158224889476 0.08152397514954972
vn -0.9491083051070561 0.3042158224889476 -0.08152397514954972
vn 0.9590615542997637 -0.2735456655084264 0.07330555194303814
vn -0.9590615542997637 0.2735456655084264 -0.07330555194303814
vn -0.38988059302211225 0.8894839979969623 -0.2383512963926694
vn 0.38988059302211225 -0.8894839979969623 0.2383512963926694
vn -0.7087894935582516 0.6813800489840701 -0.1825888350034124
vn 0.7087894935582516 -0.6813800489840701 0.1825888350034124
vn -0.850429307841428 0.5081602957772139 -0.1361730742840303
vn -0.9001439050014284 0.42074744041305107 -0.11274990764805723
vn 0.9001439050014284 -0.42074744041305107 0.11274990764805723
vn 0.850429307841428 -0.5081602957772139 0.1361730742840303
vn 0.9999999854838377 0.00016589098795567224 -0.000038890929758131496
vn -0.9999999854838377 -0.00016589098795567224 0.000038890929758131496
vn 0.8840520591062438 0.4514621974274387 -0.12097041408542387
vn 0.9712398412764194 0.2299906403618314 -0.06162366479941326
vn -0.9712398412764194 -0.2299906403618314 0.06162366479941326
vn -0.8840520591062438 -0.4514621974274387 0.12097041408542387
vn -0.6154257282100698 0.7613342393796305 -0.20401310988597007
vn 0.6154257282100698 -0.7613342393796305 0.20401310988597007
vn -0.16747434245804746 -0.952280367857772 0.2551753232797221
vn -0.3868911878133199 -0.8907020969385077 0.23867338205536015
vn 0.16747434245804746 0.952280367857772 -0.2551753232797221
vn 0.3868911878133199 0.8907020969385077 -0.23867338205536015
vn -0.627541241226398 -0.752051946745511 0.20151888238157448
vn 0.627541241226398 0.752051946745511 -0.20151888238157448
vn 0.6006723279640568 0.7722512685416503 -0.20693171012208902
vn -0.6006723279640568 -0.7722512685416503 0.20693171012208902
vn -0.01562681452829277 -0.9658044797498294 0.25880013439498045
vn 0.01562681452829277 0.9658044797498294 -0.25880013439498045
vn -0.8193177554395813 0.5538005248992625 -0.14840281076431058
vn 0.8193177554395813 -0.5538005248992625 0.14840281076431058
vn -0.8301742649868175 -0.5385067401885291 0.1442954625936711
vn 0.8301742649868175 0.5385067401885291 -0.1442954625936711
vn 0.28100839022352675 0.9270012513058375 -0.24840081461499597
vn -0.28100839022352675 -0.9270012513058375 0.24840081461499597
vn 0.0026177603192473055 0.9659190971195927 -0.25883092000489755
vn -0.0026177603192473055 -0.9659190971195927 0.25883092000489755
vn 0.08686760960134629 -0.962270964691475 0.2578538518500083
vn -0.08686760960134629 0.962270964691475 -0.2578538518500083
vn -0.9540731188811655 0.2893637538613142 -0.07754419243021388
vn 0.9540731188811655 -0.2893637538613142 0.07754419243021388
vn -0.9563685703581022 -0.2822080161060562 0.07561609138724176
vn 0.9563685703581022 0.2822080161060562 -0.07561609138724176
vn -0.26249055593152126 0.9320515454768589 -0.24975713127148133
vn 0.26249055593152126 -0.9320515454768589 0.24975713127148133
vn 0.20215139529866816 -0.9459799622494602 0.2534891011489677
vn -0.20215139529866816 0.9459799622494602 -0.2534891011489677
vn -0.5719146365799264 0.7923580446680144 -0.21232611124289888
vn 0.5719146365799264 -0.7923580446680144 0.21232611124289888
vn -0.9999992772226559 -0.001162719018511421 0.0003060043301691707
vn 0.9999992772226559 0.001162719018511421 -0.0003060043301691707
vn -0.8189993613145787 0.5542397543871221 -0.14852050640640335
vn 0.8189993613145787 -0.5542397543871221 0.14852050640640335
vn 0.3604223289227818 -0.9010015119719531 0.24143740438907316
vn -0.3604223289227818 0.9010015119719531 -0.24143740438907316
vn -0.8994670008286035 0.42209591396384644 -0.11311124539771454
vn 0.8994670008286035 -0.42209591396384644 0.11311124539771454
vn 0.09365105346311951 0.9616773839525543 -0.25769378995121195
vn -0.09365105346311951 -0.9616773839525543 0.25769378995121195
vn 0.5439682364273387 -0.8105103425117302 0.2171901066799513
vn -0.5439682364273387 0.8105103425117302 -0.2171901066799513
vn 0.7048539112963699 -0.6851784875382482 0.18360665550302813
vn -0.7048539112963699 0.6851784875382482 -0.18360665550302813
vn 0.9205440694361701 -0.3773254193330425 0.101114510091477
vn 0.9526105369293305 -0.29382516545552495 0.07873967917286727
vn -0.9526105369293305 0.29382516545552495 -0.07873967917286727
vn -0.9205440694361701 0.3773254193330425 -0.101114510091477
vn 0.829729597042494 -0.539143468217253 0.144475314397902
vn -0.829729597042494 0.539143468217253 -0.144475314397902
usemtl material_0_0
f 1//1 2//1 3//1
f 2//1 1//1 4//1
f 3//2 2//2 1//2
f 4//2 1//2 2//2
f 2//3 5//4 3//4
f 3//5 5//5 2//6
f 6//1 1//1 3//1
f 3//2 1//2 6//2
f 7//7 4//8 1//7
f 1//9 4//10 7//9
f 2//1 4//1 8//1
f 8//2 4//2 2//2
f 5//4 2//3 9//3
f 9//6 2//6 5//5
f 10//11 3//4 5//4
f 5//5 3//5 10//12
f 6//1 11//1 1//1
f 1//2 11//2 6//2
f 6//1 3//1 12//1
f 12//2 3//2 6//2
f 4//8 7//7 13//8
f 13//10 7//9 4//10
f 1//7 14//13 7//7
f 7//9 14//14 1//9
f 8//1 4//1 15//1
f 15//2 4//2 8//2
f 8//15 9//3 2//3
f 2//6 9//6 8//16
f 9//2 7//2 5//2
f 5//1 7//1 9//1
f 3//4 10//11 12//11
f 12//12 10//12 3//5
f 5//2 16//2 10//2
f 10//1 16//1 5//1
f 17//1 11//1 6//1
f 6//2 11//2 17//2
f 14//13 1//7 11//13
f 11//14 1//9 14//14
f 6//1 12//1 18//1
f 18//2 12//2 6//2
f 7//2 9//2 13//2
f 13//1 9//1 7//1
f 13//8 19//17 4//8
f 4//10 19//18 13//10
f 14//2 16//2 7//2
f 7//1 16//1 14//1
f 15//1 4//1 20//1
f 20//2 4//2 15//2
f 21//19 8//15 15//19
f 15//20 8//16 21//20
f 9//3 8//15 22//15
f 22//16 8//16 9//6
f 7//2 16//2 5//2
f 5//1 16//1 7//1
f 10//21 23//22 12//21
f 12//23 23//24 10//23
f 10//2 16//2 24//2
f 24//1 16//1 10//1
f 17//1 25//1 11//1
f 11//2 25//2 17//2
f 16//25 17//26 6//25
f 6//27 17//28 16//27
f 11//13 26//29 14//13
f 14//14 26//30 11//14
f 18//1 12//1 23//1
f 23//2 12//2 18//2
f 24//31 6//25 18//31
f 18//32 6//27 24//32
f 13//2 9//2 22//2
f 22//1 9//1 13//1
f 19//17 13//8 27//17
f 27//18 13//10 19//18
f 28//1 4//1 19//1
f 19//2 4//2 28//2
f 14//2 29//2 16//2
f 16//1 29//1 14//1
f 20//1 4//1 28//1
f 28//2 4//2 20//2
f 30//33 15//19 20//33
f 20//34 15//20 30//34
f 8//15 21//19 22//15
f 22//16 21//20 8//16
f 15//19 30//33 21//19
f 21//20 30//34 15//20
f 23//22 10//21 31//22
f 31//24 10//23 23//24
f 6//25 24//31 16//25
f 16//27 24//32 6//27
f 10//2 24//2 31//2
f 31//1 24//1 10//1
f 32//1 25//1 17//1
f 17//2 25//2 32//2
f 26//29 11//13 25//29
f 25//30 11//14 26//30
f 17//26 16//25 29//26
f 29//28 16//27 17//28
f 26//2 29//2 14//2
f 14//1 29//1 26//1
f 18//1 23//1 33//1
f 33//2 23//2 18//2
f 18//31 34//35 24//31
f 24//32 34//36 18//32
f 13//2 22//2 21//2
f 21//1 22//1 13//1
f 13//2 35//2 27//2
f 27//1 35//1 13//1
f 27//17 36//37 19//17
f 19//18 36//38 27//18
f 28//1 19//1 37//1
f 37//2 19//2 28//2
f 35//39 20//33 28//39
f 28//40 20//34 35//40
f 20//33 35//39 30//33
f 30//34 35//40 20//34
f 13//2 21//2 30//2
f 30//1 21//1 13//1
f 31//22 33//41 23//22
f 23//24 33//42 31//24
f 31//2 24//2 38//2
f 38//1 24//1 31//1
f 32//1 39//1 25//1
f 25//2 39//2 32//2
f 29//26 32//43 17//26
f 17//28 32//44 29//28
f 25//29 40//45 26//29
f 26//30 40//46 25//30
f 26//2 41//2 29//2
f 29//1 41//1 26//1
f 18//1 33//1 42//1
f 42//2 33//2 18//2
f 34//35 18//31 43//35
f 43//36 18//32 34//36
f 44//2 24//2 34//2
f 34//1 24//1 44//1
f 13//2 30//2 35//2
f 35//1 30//1 13//1
f 27//2 35//2 45//2
f 45//1 35//1 27//1
f 36//37 27//17 46//37
f 46//38 27//18 36//38
f 47//1 19//1 36//1
f 36//2 19//2 47//2
f 37//1 19//1 48//1
f 48//2 19//2 37//2
f 45//47 28//39 37//47
f 37//48 28//40 45//48
f 28//39 45//47 35//39
f 35//40 45//48 28//40
f 33//41 31//22 38//41
f 38//42 31//24 33//42
f 38//2 24//2 44//2
f 44//1 24//1 38//1
f 49//1 39//1 32//1
f 32//2 39//2 49//2
f 40//45 25//29 39//45
f 39//46 25//30 40//46
f 32//43 29//26 41//43
f 41//44 29//28 32//44
f 40//2 41//2 26//2
f 26//1 41//1 40//1
f 38//41 42//49 33//41
f 33//42 42//50 38//42
f 18//1 42//1 43//1
f 43//2 42//2 18//2
f 43//35 50//51 34//35
f 34//36 50//52 43//36
f 44//2 34//2 51//2
f 51//1 34//1 44//1
f 27//2 45//2 52//2
f 52//1 45//1 27//1
f 27//2 53//2 46//2
f 46//1 53//1 27//1
f 46//37 54//53 36//37
f 36//38 54//54 46//38
f 55//1 19//1 47//1
f 47//2 19//2 55//2
f 47//1 36//1 54//1
f 54//2 36//2 47//2
f 48//1 19//1 55//1
f 55//2 19//2 48//2
f 48//55 45//47 37//47
f 37//48 45//48 48//56
f 42//49 38//41 44//49
f 44//50 38//42 42//50
f 49//1 56//1 39//1
f 39//2 56//2 49//2
f 32//43 57//57 49//57
f 49//58 57//58 32//44
f 56//59 40//45 39//45
f 39//46 40//46 56//60
f 57//57 32//43 41//43
f 41//44 32//44 57//58
f 40//2 57//2 41//2
f 41//1 57//1 40//1
f 43//1 42//1 58//1
f 58//2 42//2 43//2
f 50//51 43//35 59//51
f 59//52 43//36 50//52
f 51//2 34//2 50//2
f 50//1 34//1 51//1
f 58//61 44//49 51//61
f 51//62 44//50 58//62
f 45//47 48//55 52//55
f 52//56 48//56 45//48
f 27//2 52//2 60//2
f 60//1 52//1 27//1
f 27//2 60//2 53//2
f 53//1 60//1 27//1
f 46//2 53//2 61//2
f 61//1 53//1 46//1
f 54//53 46//37 61//53
f 61//54 46//38 54//54
f 53//63 55//63 47//63
f 47//64 55//64 53//64
f 47//1 54//1 62//1
f 62//2 54//2 47//2
f 55//65 52//55 48//55
f 48//56 52//56 55//66
f 44//49 58//61 42//49
f 42//50 58//62 44//50
f 63//1 56//1 49//1
f 49//2 56//2 63//2
f 64//67 49//57 57//57
f 57//58 49//58 64//68
f 40//45 56//59 65//59
f 65//60 56//60 40//46
f 65//2 57//2 40//2
f 40//1 57//1 65//1
f 43//1 58//1 59//1
f 59//2 58//2 43//2
f 66//69 50//69 59//69
f 59//70 50//70 66//70
f 51//2 50//2 67//2
f 67//1 50//1 51//1
f 51//61 68//71 58//61
f 58//62 68//72 51//62
f 52//55 55//65 60//65
f 60//66 55//66 52//56
f 55//63 53//63 60//63
f 60//64 53//64 55//64
f 61//2 53//2 69//2
f 69//1 53//1 61//1
f 61//53 62//73 54//53
f 54//54 62//74 61//54
f 70//75 53//76 47//76
f 47//77 53//77 70//78
f 47//1 62//1 70//1
f 70//2 62//2 47//2
f 56//1 63//1 71//1
f 71//2 63//2 56//2
f 49//57 64//67 63//67
f 63//68 64//68 49//58
f 65//2 64//2 57//2
f 57//1 64//1 65//1
f 71//79 65//59 56//59
f 56//60 65//60 71//80
f 59//1 58//1 66//1
f 66//2 58//2 59//2
f 50//69 66//69 67//69
f 67//70 66//70 50//70
f 51//2 67//2 72//2
f 72//1 67//1 51//1
f 68//71 51//61 73//71
f 73//72 51//62 68//72
f 74//1 58//1 68//1
f 68//2 58//2 74//2
f 69//2 53//2 75//2
f 75//1 53//1 69//1
f 62//73 61//53 69//73
f 69//74 61//54 62//74
f 53//76 70//75 75//75
f 75//78 70//78 53//77
f 62//73 75//75 70//75
f 70//78 75//78 62//74
f 63//67 76//79 71//79
f 71//80 76//80 63//68
f 76//79 63//67 64//67
f 64//68 63//68 76//80
f 64//2 65//2 76//2
f 76//1 65//1 64//1
f 65//59 71//79 76//79
f 76//80 71//80 65//60
f 66//1 58//1 77//1
f 77//2 58//2 66//2
f 78//81 67//82 66//82
f 66//83 67//83 78//84
f 79//2 72//2 67//2
f 67//1 72//1 79//1
f 51//2 72//2 80//2
f 80//1 72//1 51//1
f 51//2 80//2 73//2
f 73//1 80//1 51//1
f 73//71 81//85 68//71
f 68//72 81//86 73//72
f 77//1 58//1 74//1
f 74//2 58//2 77//2
f 74//1 68//1 82//1
f 82//2 68//2 74//2
f 75//75 62//73 69//73
f 69//74 62//74 75//78
f 77//1 78//1 66//1
f 66//2 78//2 77//2
f 67//82 78//81 79//81
f 79//84 78//84 67//83
f 83//2 72//2 79//2
f 79//1 72//1 83//1
f 77//87 80//88 72//87
f 72//89 80//90 77//89
f 73//2 80//2 84//2
f 84//1 80//1 73//1
f 81//85 73//71 85//85
f 85//86 73//72 81//86
f 82//1 68//1 81//1
f 81//2 68//2 82//2
f 80//88 77//87 74//88
f 74//90 77//89 80//90
f 84//91 74//88 82//91
f 82//92 74//90 84//92
f 77//1 86//1 78//1
f 78//2 86//2 77//2
f 86//93 79//81 78//81
f 78//84 79//84 86//94
f 87//2 72//2 83//2
f 83//1 72//1 87//1
f 79//81 86//93 83//93
f 83//94 86//94 79//84
f 72//87 88//95 77//87
f 77//89 88//96 72//89
f 74//88 84//91 80//88
f 80//90 84//92 74//90
f 73//2 84//2 85//2
f 85//1 84//1 73//1
f 89//97 81//85 85//85
f 85//86 81//86 89//98
f 82//1 81//1 90//1
f 90//2 81//2 82//2
f 90//99 84//91 82//91
f 82//92 84//92 90//100
f 77//1 91//1 86//1
f 86//2 91//2 77//2
f 92//2 72//2 87//2
f 87//1 72//1 92//1
f 86//93 87//101 83//93
f 83//94 87//102 86//94
f 88//95 72//87 93//95
f 93//96 72//89 88//96
f 88//1 94//1 77//1
f 77//2 94//2 88//2
f 85//2 84//2 95//2
f 95//1 84//1 85//1
f 81//85 89//97 96//97
f 96//98 89//98 81//86
f 85//2 95//2 89//2
f 89//1 95//1 85//1
f 90//1 81//1 96//1
f 96//2 81//2 90//2
f 84//91 90//99 95//99
f 95//100 90//100 84//92
f 77//1 94//1 91//1
f 91//2 94//2 77//2
f 87//101 86//93 91//101
f 91//102 86//94 87//102
f 92//2 93//2 72//2
f 72//1 93//1 92//1
f 91//101 92//103 87//101
f 87//102 92//104 91//102
f 93//95 97//105 88//95
f 88//96 97//106 93//96
f 88//1 98//1 94//1
f 94//2 98//2 88//2
f 99//107 96//97 89//97
f 89//98 96//98 99//108
f 89//2 95//2 100//2
f 100//1 95//1 89//1
f 90//1 96//1 101//1
f 101//2 96//2 90//2
f 101//109 95//99 90//99
f 90//100 95//100 101//110
f 92//103 91//101 94//103
f 94//104 91//102 92//104
f 102//2 93//2 92//2
f 92//1 93//1 102//1
f 97//105 93//95 103//105
f 103//106 93//96 97//106
f 97//1 104//1 88//1
f 88//2 104//2 97//2
f 88//1 104//1 98//1
f 98//2 104//2 88//2
f 102//111 94//103 98//111
f 98//112 94//104 102//112
f 96//97 99//107 105//107
f 105//108 99//108 96//98
f 89//2 100//2 99//2
f 99//1 100//1 89//1
f 95//99 101//109 100//109
f 100//110 101//110 95//100
f 101//1 96//1 105//1
f 105//2 96//2 101//2
f 94//103 102//111 92//103
f 92//104 102//112 94//104
f 106//2 93//2 102//2
f 102//1 93//1 106//1
f 106//2 103//2 93//2
f 93//1 103//1 106//1
f 103//105 107//113 97//105
f 97//106 107//114 103//106
f 97//1 108//1 104//1
f 104//2 108//2 97//2
f 106//115 98//111 104//115
f 104//116 98//112 106//116
f 98//111 106//115 102//111
f 102//112 106//116 98//112
f 109//117 105//107 99//107
f 99//108 105//108 109//118
f 99//2 100//2 109//2
f 109//1 100//1 99//1
f 110//117 100//109 101//109
f 101//110 100//110 110//118
f 101//1 105//1 110//1
f 110//2 105//2 101//2
f 111//2 103//2 106//2
f 106//1 103//1 111//1
f 107//113 103//105 112//113
f 112//114 103//106 107//114
f 107//1 113//1 97//1
f 97//2 113//2 107//2
f 97//1 113//1 108//1
f 108//2 113//2 97//2
f 108//119 106//115 104//115
f 104//116 106//116 108//120
f 105//107 109//117 110//117
f 110//118 109//118 105//108
f 100//109 110//117 109//117
f 109//118 110//118 100//110
f 114//2 103//2 111//2
f 111//1 103//1 114//1
f 106//115 108//119 111//119
f 111//120 108//120 106//116
f 114//2 112//2 103//2
f 103//1 112//1 114//1
f 112//113 115//121 107//113
f 107//114 115//122 112//114
f 115//1 113//1 107//1
f 107//2 113//2 115//2
f 113//123 111//119 108//119
f 108//120 111//120 113//124
f 111//119 113//123 114//123
f 114//124 113//124 111//120
f 114//2 116//2 112//2
f 112//1 116//1 114//1
f 115//121 112//113 116//121
f 116//122 112//114 115//122
f 117//1 113//1 115//1
f 115//2 113//2 117//2
f 113//125 118//125 114//125
f 114//126 118//126 113//126
f 114//2 119//2 116//2
f 116//1 119//1 114//1
f 116//121 117//127 115//121
f 115//122 117//128 116//122
f 120//1 113//1 117//1
f 117//2 113//2 120//2
f 118//125 113//125 121//125
f 121//126 113//126 118//126
f 122//2 114//2 118//2
f 118//1 114//1 122//1
f 114//2 123//2 119//2
f 119//1 123//1 114//1
f 117//127 116//121 119//127
f 119//128 116//122 117//128
f 124//1 113//1 120//1
f 120//2 113//2 124//2
f 119//127 120//129 117//127
f 117//128 120//130 119//128
f 113//1 125//1 121//1
f 121//2 125//2 113//2
f 125//131 118//132 121//132
f 121//133 118//133 125//134
f 114//2 122//2 126//2
f 126//1 122//1 114//1
f 118//132 125//131 122//131
f 122//134 125//134 118//133
f 114//2 126//2 123//2
f 123//1 126//1 114//1
f 120//129 119//127 123//129
f 123//130 119//128 120//130
f 125//1 113//1 124//1
f 124//2 113//2 125//2
f 120//129 126//135 124//135
f 124//136 126//136 120//130
f 122//131 124//135 126//135
f 126//136 124//136 122//134
f 124//135 122//131 125//131
f 125//134 122//134 124//136
f 126//135 120//129 123//129
f 123//130 120//130 126//136
