# SSTK version 0.8.0
# 55
mtllib original-55.mtl
o mesh12/mesh12-geometry#mesh12-geometry
v -0.069884 0.046413 0.514183
v -0.065991 0.032124 0.516421
v -0.065991 0.046413 0.514183
v -0.069884 0.032124 0.516421
v -0.065991 0.058203 0.589472
v -0.069884 0.037304 -0.680295
v -0.069884 0.043914 0.59171
v -0.065991 0.043914 0.59171
v -0.069884 0.058203 0.589472
v -0.069884 -0.180594 -0.646173
v -0.069884 0.200972 0.618815
v 0.061927 -0.180594 -0.646173
v -0.069884 0.218958 0.628234
v -0.069884 0.02189 0.646858
v 0.061927 0.037304 -0.680295
v 0.044761 -0.177938 -0.629213
v -0.074334 0.200972 0.618815
v -0.069884 0.244292 0.641499
v -0.052718 -0.177938 -0.629213
v 0.061927 0.02189 0.646858
v -0.074334 0.218958 0.628234
v -0.074334 0.02189 0.646858
v -0.057168 0.024546 0.663818
v 0.061927 0.244292 0.641499
v 0.061927 0.032124 0.516421
v 0.049211 0.024546 0.663818
v -0.052718 -0.067477 -0.646511
v -0.074334 0.246293 0.654276
v -0.074334 0.244292 0.641499
v -0.052718 0.024546 0.663818
v 0.066377 0.244292 0.641499
v 0.061927 0.218958 0.628234
v 0.061927 0.046413 0.514183
v 0.061927 0.043914 0.59171
v 0.044761 0.024546 0.663818
v 0.066377 0.02189 0.646858
v 0.044761 -0.067477 -0.646511
v -0.074334 0.028395 0.688398
v -0.057168 0.025739 0.671438
v -0.057168 0.135006 0.646521
v 0.061927 0.200972 0.618815
v 0.061927 0.058203 0.589472
v 0.058034 0.046413 0.514183
v 0.058034 0.043914 0.59171
v 0.044761 0.135006 0.646521
v 0.049211 0.025739 0.671438
v 0.066377 0.200972 0.618815
v -0.052718 0.135006 0.646521
v 0.066377 0.028395 0.688398
v 0.066377 0.246293 0.654276
v 0.066377 0.218958 0.628234
v 0.058034 0.032124 0.516421
v 0.049211 0.135006 0.646521
v 0.049211 0.136199 0.654141
v -0.057168 0.136199 0.654141
v 0.058034 0.058203 0.589472
vn 0.0 0.15470998872937772 0.9879599280271218
vn 0.0 -0.15470998872937772 -0.9879599280271218
vn -1.0 0.0 0.0
vn 1.0 0.0 0.0
vn 0.0 -0.9879599280271218 0.15470998872937772
vn 0.0 0.9879599280271218 -0.15470998872937772
vn 0.0 0.4638950781373338 -0.8858901492171346
vn 0.0 -0.4638950781373338 0.8858901492171346
usemtl material_0_0
f 1//1 2//1 3//1
f 2//1 1//1 4//1
f 3//2 2//2 1//2
f 4//2 1//2 2//2
f 2//3 5//3 3//3
f 3//4 5//4 2//4
f 5//5 1//5 3//5
f 3//6 1//6 5//6
f 6//3 4//3 1//3
f 1//4 4//4 6//4
f 7//6 2//6 4//6
f 4//5 2//5 7//5
f 5//3 2//3 8//3
f 8//4 2//4 5//4
f 1//5 5//5 9//5
f 9//6 5//6 1//6
f 10//3 4//3 6//3
f 6//4 4//4 10//4
f 6//3 1//3 11//3
f 11//4 1//4 6//4
f 2//6 7//6 8//6
f 8//5 7//5 2//5
f 4//3 10//3 7//3
f 7//4 10//4 4//4
f 7//2 5//2 8//2
f 8//1 5//1 7//1
f 5//2 7//2 9//2
f 9//1 7//1 5//1
f 9//3 11//3 1//3
f 1//4 11//4 9//4
f 6//2 12//2 10//2
f 10//1 12//1 6//1
f 6//3 11//3 13//3
f 13//4 11//4 6//4
f 14//3 7//3 10//3
f 10//4 7//4 14//4
f 7//3 11//3 9//3
f 9//4 11//4 7//4
f 12//2 6//2 15//2
f 15//1 6//1 12//1
f 12//5 16//5 10//5
f 10//6 16//6 12//6
f 17//7 13//7 11//7
f 11//8 13//8 17//8
f 6//3 13//3 18//3
f 18//4 13//4 6//4
f 7//3 14//3 11//3
f 11//4 14//4 7//4
f 19//5 14//5 10//5
f 10//6 14//6 19//6
f 18//6 15//6 6//6
f 6//5 15//5 18//5
f 15//4 20//4 12//4
f 12//3 20//3 15//3
f 20//5 16//5 12//5
f 12//6 16//6 20//6
f 19//5 10//5 16//5
f 16//6 10//6 19//6
f 13//7 17//7 21//7
f 21//8 17//8 13//8
f 11//2 22//2 17//2
f 17//1 22//1 11//1
f 21//7 18//7 13//7
f 13//8 18//8 21//8
f 22//2 11//2 14//2
f 14//1 11//1 22//1
f 19//5 23//5 14//5
f 14//6 23//6 19//6
f 15//6 18//6 24//6
f 24//5 18//5 15//5
f 20//4 15//4 25//4
f 25//3 15//3 20//3
f 26//5 16//5 20//5
f 20//6 16//6 26//6
f 16//1 27//1 19//1
f 19//2 27//2 16//2
f 17//3 28//3 21//3
f 21//4 28//4 17//4
f 22//3 28//3 17//3
f 17//4 28//4 22//4
f 18//7 21//7 29//7
f 29//8 21//8 18//8
f 23//5 22//5 14//5
f 14//6 22//6 23//6
f 23//5 19//5 30//5
f 30//6 19//6 23//6
f 18//6 31//6 24//6
f 24//5 31//5 18//5
f 32//4 15//4 24//4
f 24//3 15//3 32//3
f 25//4 15//4 33//4
f 33//3 15//3 25//3
f 34//4 20//4 25//4
f 25//3 20//3 34//3
f 16//5 26//5 35//5
f 35//6 26//6 16//6
f 36//5 26//5 20//5
f 20//6 26//6 36//6
f 27//1 16//1 37//1
f 37//2 16//2 27//2
f 27//4 30//4 19//4
f 19//3 30//3 27//3
f 21//3 28//3 29//3
f 29//4 28//4 21//4
f 28//3 22//3 38//3
f 38//4 22//4 28//4
f 28//6 18//6 29//6
f 29//5 18//5 28//5
f 39//5 22//5 23//5
f 23//6 22//6 39//6
f 30//1 40//1 23//1
f 23//2 40//2 30//2
f 28//6 31//6 18//6
f 18//5 31//5 28//5
f 31//7 32//7 24//7
f 24//8 32//8 31//8
f 41//4 15//4 32//4
f 32//3 15//3 41//3
f 33//4 15//4 42//4
f 42//3 15//3 33//3
f 43//1 25//1 33//1
f 33//2 25//2 43//2
f 20//4 34//4 41//4
f 41//3 34//3 20//3
f 25//6 44//6 34//6
f 34//5 44//5 25//5
f 26//1 45//1 35//1
f 35//2 45//2 26//2
f 45//3 16//3 35//3
f 35//4 16//4 45//4
f 36//5 46//5 26//5
f 26//6 46//6 36//6
f 20//2 47//2 36//2
f 36//1 47//1 20//1
f 16//3 45//3 37//3
f 37//4 45//4 16//4
f 45//5 27//5 37//5
f 37//6 27//6 45//6
f 30//4 27//4 48//4
f 48//3 27//3 30//3
f 39//5 38//5 22//5
f 22//6 38//6 39//6
f 49//1 28//1 38//1
f 38//2 28//2 49//2
f 40//4 39//4 23//4
f 23//3 39//3 40//3
f 40//1 30//1 48//1
f 48//2 30//2 40//2
f 31//6 28//6 50//6
f 50//5 28//5 31//5
f 32//7 31//7 51//7
f 51//8 31//8 32//8
f 42//4 15//4 41//4
f 41//3 15//3 42//3
f 51//7 41//7 32//7
f 32//8 41//8 51//8
f 42//5 43//5 33//5
f 33//6 43//6 42//6
f 25//1 43//1 52//1
f 52//2 43//2 25//2
f 41//4 34//4 42//4
f 42//3 34//3 41//3
f 47//2 20//2 41//2
f 41//1 20//1 47//1
f 44//6 25//6 52//6
f 52//5 25//5 44//5
f 44//2 42//2 34//2
f 34//1 42//1 44//1
f 45//1 26//1 53//1
f 53//2 26//2 45//2
f 49//5 46//5 36//5
f 36//6 46//6 49//6
f 54//3 26//3 46//3
f 46//4 26//4 54//4
f 47//4 49//4 36//4
f 36//3 49//3 47//3
f 27//5 45//5 48//5
f 48//6 45//6 27//6
f 38//5 39//5 46//5
f 46//6 39//6 38//6
f 28//1 49//1 50//1
f 50//2 49//2 28//2
f 46//5 49//5 38//5
f 38//6 49//6 46//6
f 39//4 40//4 55//4
f 55//3 40//3 39//3
f 40//5 48//5 55//5
f 55//6 48//6 40//6
f 50//4 51//4 31//4
f 31//3 51//3 50//3
f 41//7 51//7 47//7
f 47//8 51//8 41//8
f 43//5 42//5 56//5
f 56//6 42//6 43//6
f 43//4 44//4 52//4
f 52//3 44//3 43//3
f 42//2 44//2 56//2
f 56//1 44//1 42//1
f 26//3 54//3 53//3
f 53//4 54//4 26//4
f 53//5 48//5 45//5
f 45//6 48//6 53//6
f 39//2 54//2 46//2
f 46//1 54//1 39//1
f 49//4 47//4 50//4
f 50//3 47//3 49//3
f 54//2 39//2 55//2
f 55//1 39//1 54//1
f 53//5 55//5 48//5
f 48//6 55//6 53//6
f 50//4 47//4 51//4
f 51//3 47//3 50//3
f 44//4 43//4 56//4
f 56//3 43//3 44//3
f 55//5 53//5 54//5
f 54//6 53//6 55//6
