# SSTK version 0.8.0
# 7
mtllib original-7.mtl
o Group7/mesh16/mesh16-geometry#mesh16-geometry
v 0.480547 -0.803972 0.386179
v 0.477898 -0.803972 0.386179
v 0.480547 -0.803972 0.345276
v 0.480547 0.524991 0.386179
v 0.477898 -0.803972 0.347921
v 0.477898 0.524991 0.386179
v 0.475590 -0.803972 0.345276
v 0.477898 0.524991 0.347921
v 0.480547 0.524991 0.345276
v 0.473331 -0.803972 0.347921
v 0.473331 -0.803972 0.320108
v 0.475590 0.524991 0.345276
v 0.473331 0.524991 0.347921
v 0.475590 -0.803972 0.320108
v 0.473331 0.524991 0.320108
v 0.475590 0.524991 0.320108
vn 0 -1 0
vn 0 1 0
vn 0 0 1
vn 0 0 -1
vn 1 0 0
vn -1 0 0
usemtl material_0_0
f 1//1 2//1 3//1
f 3//2 2//2 1//2
f 1//3 4//3 2//3
f 2//4 4//4 1//4
f 5//1 3//1 2//1
f 2//2 3//2 5//2
f 1//5 3//5 4//5
f 4//6 3//6 1//6
f 6//3 2//3 4//3
f 4//4 2//4 6//4
f 3//1 5//1 7//1
f 7//2 5//2 3//2
f 5//6 2//6 8//6
f 8//5 2//5 5//5
f 9//5 4//5 3//5
f 3//6 4//6 9//6
f 6//6 8//6 2//6
f 2//5 8//5 6//5
f 6//2 4//2 8//2
f 8//1 4//1 6//1
f 5//1 10//1 7//1
f 7//2 10//2 5//2
f 3//4 7//4 9//4
f 9//3 7//3 3//3
f 5//3 8//3 10//3
f 10//4 8//4 5//4
f 9//2 8//2 4//2
f 4//1 8//1 9//1
f 11//1 7//1 10//1
f 10//2 7//2 11//2
f 12//4 9//4 7//4
f 7//3 9//3 12//3
f 13//3 10//3 8//3
f 8//4 10//4 13//4
f 12//2 8//2 9//2
f 9//1 8//1 12//1
f 14//1 7//1 11//1
f 11//2 7//2 14//2
f 11//6 10//6 15//6
f 15//5 10//5 11//5
f 7//5 14//5 12//5
f 12//6 14//6 7//6
f 13//6 15//6 10//6
f 10//5 15//5 13//5
f 8//2 12//2 13//2
f 13//1 12//1 8//1
f 14//4 11//4 16//4
f 16//3 11//3 14//3
f 15//4 16//4 11//4
f 11//3 16//3 15//3
f 16//5 12//5 14//5
f 14//6 12//6 16//6
f 15//2 13//2 12//2
f 12//1 13//1 15//1
f 16//2 15//2 12//2
f 12//1 15//1 16//1
