# SSTK version 0.8.0
# 17
mtllib original-17.mtl
o mesh36/mesh36-geometry#mesh36-geometry
v 0.281966 0.133847 0.421077
v 0.281983 0.113436 0.420774
v 0.281982 0.113436 0.421077
v 0.281966 0.133847 0.420774
v 0.268462 0.133836 0.420766
v 0.285924 0.107023 0.421079
v 0.285903 0.133850 0.421079
v 0.285924 0.107023 0.420776
v 0.268462 0.133836 0.421070
v 0.281839 0.107020 0.420774
v 0.281839 0.107020 0.421077
v 0.285903 0.133850 0.420776
v 0.264153 0.133833 0.420764
v 0.268093 0.127730 0.420766
v 0.264153 0.133833 0.421067
v 0.268093 0.127730 0.421069
v 0.264175 0.107006 0.420764
v 0.264174 0.107006 0.421067
v 0.268110 0.107009 0.420766
v 0.268110 0.107009 0.421069
vt 3.87731 116.902867
vt 3.892735 116.901597
vt 3.892735 116.902867
vt 3.87731 116.901597
vt -8.065551 116.901597
vt -8.083916 116.902867
vt -8.083916 116.901597
vt 8.870218 -6.974483
vt 8.873123 -6.983171
vt 8.870218 -6.946847
vt -8.873123 116.902867
vt -8.870218 116.901597
vt -8.870218 116.902867
vt -8.873123 -6.983171
vt -8.870218 -6.974483
vt -8.870218 -6.946847
vt -8.065551 116.902867
vt -8.870108 -6.983171
vt -8.860249 -6.946847
vt 8.870108 -6.983171
vt 8.873123 -6.946847
vt -8.873123 116.901597
vt -8.873123 -6.946847
vt -8.857068 116.901597
vt -8.860249 116.902867
vt -8.860249 116.901597
vt 8.860249 -6.946847
vt -8.859973 -6.955115
vt 8.870108 116.901597
vt 8.873123 116.902867
vt 8.870108 116.902867
vt -3.897584 116.902867
vt -3.87731 116.901597
vt -3.87731 116.902867
vt 8.873123 116.901597
vt -3.897584 116.901597
vt -8.857068 116.902867
vt -8.857068 -6.946847
vt 8.859973 -6.955115
vt 8.091393 116.901597
vt 8.072741 116.902867
vt 8.072741 116.901597
vt 8.091393 116.902867
vt 3.897584 116.901597
vt 8.857068 -6.983171
vt 8.857068 -6.946847
vt -8.859973 -6.983171
vt -3.881924 116.901597
vt -3.881924 116.902867
vt 3.897584 116.902867
vt -8.857068 -6.983171
vt 8.859973 -6.983171
vt 8.859973 116.901597
vt 8.857068 116.902867
vt 8.857068 116.901597
vt 8.859973 116.902867
vn -0.9999995219762342 -0.0007978225805097954 -0.0005652666921226232
vn 0.8335456234664418 0.5524504246070608 0.0004711172031419714
vn -0.0005652669567531929 1.0619960539759596e-7 0.9999998402366155
vn -0.0007978223930158204 0.9999996817395087 -5.571822967907938e-7
vn 0.0005652669567531929 -1.0619960539759596e-7 -0.9999998402366155
vn 0.0007978223930158204 -0.9999996817395087 5.571822967907938e-7
vn 0.9999995219762342 0.0007978225805097954 0.0005652666921226232
vn -0.8331833260292064 -0.5529966758204495 -0.00047091235032779453
vn -0.8335456234664418 -0.5524504246070608 -0.0004711172031419714
vn 0.8331833260292064 0.5529966758204495 0.00047091235032779453
usemtl material_0_0
f 1/1/1 2/2/1 3/3/1
f 2/2/1 1/1/1 4/4/1
f 5/5/2 3/6/2 2/7/2
f 3/8/3 6/9/3 1/10/3
f 7/11/4 4/12/4 1/13/4
f 8/14/5 2/15/5 4/16/5
f 3/6/2 5/5/2 9/17/2
f 10/18/5 5/19/5 2/15/5
f 3/8/3 11/20/3 6/9/3
f 1/10/3 6/9/3 7/21/3
f 4/12/4 7/11/4 12/22/4
f 10/18/5 2/15/5 8/14/5
f 8/14/5 4/16/5 12/23/5
f 13/24/4 9/25/4 5/26/4
f 9/27/3 11/20/3 3/8/3
f 14/28/5 5/19/5 10/18/5
f 10/29/6 6/30/6 11/31/6
f 6/32/7 12/33/7 7/34/7
f 6/30/6 10/29/6 8/35/6
f 12/33/7 6/32/7 8/36/7
f 9/25/4 13/24/4 15/37/4
f 5/19/5 14/28/5 13/38/5
f 9/27/3 16/39/3 11/20/3
f 10/40/8 16/41/8 14/42/8
f 16/41/8 10/40/8 11/43/8
f 17/44/1 15/1/1 13/4/1
f 18/45/3 9/27/3 15/46/3
f 19/47/5 13/38/5 14/28/5
f 9/27/3 18/45/3 16/39/3
f 20/32/7 14/48/7 16/49/7
f 15/1/1 17/44/1 18/50/1
f 13/38/5 19/47/5 17/51/5
f 14/48/7 20/32/7 19/36/7
f 20/52/3 16/39/3 18/45/3
f 19/53/6 18/54/6 17/55/6
f 18/54/6 19/53/6 20/56/6
usemtl material_1_0
f 3//7 2//7 1//7
f 4//7 1//7 2//7
f 2//9 3//9 5//9
f 1//5 6//5 3//5
f 1//6 4//6 7//6
f 4//3 2//3 8//3
f 9//9 5//9 3//9
f 2//3 5//3 10//3
f 6//5 11//5 3//5
f 7//5 6//5 1//5
f 12//6 7//6 4//6
f 8//3 2//3 10//3
f 12//3 4//3 8//3
f 5//6 9//6 13//6
f 3//5 11//5 9//5
f 10//3 5//3 14//3
f 11//4 6//4 10//4
f 7//1 12//1 6//1
f 8//4 10//4 6//4
f 8//1 6//1 12//1
f 15//6 13//6 9//6
f 13//3 14//3 5//3
f 11//5 16//5 9//5
f 14//10 16//10 10//10
f 11//10 10//10 16//10
f 13//7 15//7 17//7
f 15//5 9//5 18//5
f 14//3 13//3 19//3
f 16//5 18//5 9//5
f 16//1 14//1 20//1
f 18//7 17//7 15//7
f 17//3 19//3 13//3
f 19//1 20//1 14//1
f 18//5 16//5 20//5
f 17//4 18//4 19//4
f 20//4 19//4 18//4
