# SSTK version 0.8.0
# 5
mtllib original-5.mtl
o Group5/mesh11/mesh11-geometry#mesh11-geometry
v -0.504289 -0.803972 0.345276
v -0.501640 -0.803972 0.386179
v -0.504289 -0.803972 0.386179
v -0.501640 -0.803972 0.347921
v -0.504289 0.524991 0.386179
v -0.499333 -0.803972 0.345276
v -0.501640 0.524991 0.347921
v -0.501640 0.524991 0.386179
v -0.504289 0.524991 0.345276
v -0.497073 -0.803972 0.347921
v -0.497073 -0.803972 0.320108
v -0.499333 0.524991 0.345276
v -0.497073 0.524991 0.347921
v -0.499333 -0.803972 0.320108
v -0.497073 0.524991 0.320108
v -0.499333 0.524991 0.320108
vn 0 -1 0
vn 0 1 0
vn 0 0 1
vn 0 0 -1
vn -1 0 0
vn 1 0 0
usemtl material_0_0
f 1//1 2//1 3//1
f 2//1 1//1 4//1
f 3//2 2//2 1//2
f 4//2 1//2 2//2
f 2//3 5//3 3//3
f 3//4 5//4 2//4
f 5//5 1//5 3//5
f 3//6 1//6 5//6
f 6//1 4//1 1//1
f 1//2 4//2 6//2
f 7//6 2//6 4//6
f 4//5 2//5 7//5
f 5//3 2//3 8//3
f 8//4 2//4 5//4
f 1//5 5//5 9//5
f 9//6 5//6 1//6
f 6//1 10//1 4//1
f 4//2 10//2 6//2
f 9//4 6//4 1//4
f 1//3 6//3 9//3
f 2//6 7//6 8//6
f 8//5 7//5 2//5
f 10//3 7//3 4//3
f 4//4 7//4 10//4
f 7//2 5//2 8//2
f 8//1 5//1 7//1
f 5//2 7//2 9//2
f 9//1 7//1 5//1
f 10//1 6//1 11//1
f 11//2 6//2 10//2
f 6//4 9//4 12//4
f 12//3 9//3 6//3
f 7//3 10//3 13//3
f 13//4 10//4 7//4
f 9//2 7//2 12//2
f 12//1 7//1 9//1
f 11//1 6//1 14//1
f 14//2 6//2 11//2
f 15//6 10//6 11//6
f 11//5 10//5 15//5
f 12//5 14//5 6//5
f 6//6 14//6 12//6
f 10//6 15//6 13//6
f 13//5 15//5 10//5
f 13//2 12//2 7//2
f 7//1 12//1 13//1
f 16//4 11//4 14//4
f 14//3 11//3 16//3
f 11//4 16//4 15//4
f 15//3 16//3 11//3
f 14//5 12//5 16//5
f 16//6 12//6 14//6
f 12//2 13//2 15//2
f 15//1 13//1 12//1
f 12//2 15//2 16//2
f 16//1 15//1 12//1
