# SSTK version 0.8.0
# 21
mtllib original-21.mtl
o mesh40/mesh40-geometry#mesh40-geometry
v 0.310240 0.133869 0.420790
v 0.306320 0.113456 0.420787
v 0.306304 0.133866 0.420787
v 0.310262 0.107043 0.420790
v 0.306304 0.133866 0.421091
v 0.306175 0.107039 0.420787
v 0.310240 0.133869 0.421093
v 0.306320 0.113456 0.421091
v 0.292799 0.133856 0.420780
v 0.310262 0.107043 0.421093
v 0.292431 0.127749 0.420780
v 0.306175 0.107039 0.421091
v 0.292799 0.133856 0.421083
v 0.288490 0.133852 0.420777
v 0.292431 0.127749 0.421083
v 0.292447 0.107029 0.420780
v 0.292447 0.107029 0.421083
v 0.288489 0.133852 0.421081
v 0.288511 0.107025 0.420777
v 0.288511 0.107025 0.421081
vt -8.891088 -6.946847
vt -8.888183 -6.974483
vt -8.888183 -6.946847
vt -8.891088 -6.983171
vt 3.892735 116.901597
vt 3.87731 116.902867
vt 3.87731 116.901597
vt -8.888183 116.902867
vt -8.891088 116.901597
vt -8.888183 116.901597
vt -8.888072 -6.983171
vt -3.87731 116.902867
vt -3.897584 116.901597
vt -3.87731 116.901597
vt 3.892735 116.902867
vt -8.891088 116.902867
vt -8.878214 -6.946847
vt 8.891088 116.902867
vt 8.888072 116.901597
vt 8.891088 116.901597
vt -3.897584 116.902867
vt -8.075504 116.901597
vt -8.09387 116.902867
vt -8.09387 116.901597
vt 8.888183 -6.974483
vt 8.891088 -6.983171
vt 8.888183 -6.946847
vt 8.891088 -6.946847
vt -8.877938 -6.955115
vt 8.888072 116.902867
vt -8.075504 116.902867
vt 8.888072 -6.983171
vt -8.875033 -6.946847
vt 8.100955 116.901597
vt 8.082303 116.902867
vt 8.082303 116.901597
vt 8.100955 116.902867
vt -8.875033 116.901597
vt -8.878214 116.902867
vt -8.878214 116.901597
vt 8.878214 -6.946847
vt -8.877938 -6.983171
vt -3.881924 116.901597
vt -3.881924 116.902867
vt 8.877938 -6.955115
vt -8.875033 116.902867
vt -8.875033 -6.983171
vt 8.875033 -6.983171
vt 8.877938 -6.983171
vt 3.897584 116.901597
vt 8.875033 -6.946847
vt 8.877938 116.902867
vt 8.875033 116.901597
vt 8.877938 116.901597
vt 8.875033 116.902867
vt 3.897584 116.902867
vn 0.0005652669567531929 -1.0619960539759596e-7 -0.9999998402366155
vn -0.9999995219762342 -0.0007978225805097954 -0.0005652666921226232
vn -0.0007978223930158204 0.9999996817395087 -5.571822967907938e-7
vn 0.9999995219762342 0.0007978225805097954 0.0005652666921226232
vn 0.0007978223930158204 -0.9999996817395087 5.571822967907938e-7
vn 0.8335245805448929 0.5524821731850288 0.0004711053049001588
vn -0.0005652669567531929 1.0619960539759596e-7 0.9999998402366155
vn -0.8332039191844065 -0.5529656474739971 -0.00047092399425502287
vn -0.8335245805448929 -0.5524821731850288 -0.0004711053049001588
vn 0.8332039191844065 0.5529656474739971 0.00047092399425502287
usemtl material_0_0
f 1/1/1 2/2/1 3/3/1
f 4/4/1 2/2/1 1/1/1
f 2/5/2 5/6/2 3/7/2
f 5/8/3 1/9/3 3/10/3
f 6/11/1 2/2/1 4/4/1
f 7/12/4 4/13/4 1/14/4
f 5/6/2 2/5/2 8/15/2
f 1/9/3 5/8/3 7/16/3
f 6/11/1 9/17/1 2/2/1
f 10/18/5 6/19/5 4/20/5
f 4/13/4 7/12/4 10/21/4
f 9/22/6 8/23/6 2/24/6
f 8/25/7 10/26/7 5/27/7
f 5/27/7 10/26/7 7/28/7
f 11/29/1 9/17/1 6/11/1
f 6/19/5 10/18/5 12/30/5
f 8/23/6 9/22/6 13/31/6
f 8/25/7 12/32/7 10/26/7
f 11/29/1 14/33/1 9/17/1
f 6/34/8 15/35/8 11/36/8
f 15/35/8 6/34/8 12/37/8
f 14/38/3 13/39/3 9/40/3
f 13/41/7 12/32/7 8/25/7
f 16/42/1 14/33/1 11/29/1
f 17/21/4 11/43/4 15/44/4
f 13/41/7 15/45/7 12/32/7
f 13/39/3 14/38/3 18/46/3
f 14/33/1 16/42/1 19/47/1
f 11/43/4 17/21/4 16/13/4
f 15/45/7 20/48/7 17/49/7
f 13/41/7 20/48/7 15/45/7
f 19/50/2 18/6/2 14/7/2
f 20/48/7 13/41/7 18/51/7
f 17/52/5 19/53/5 16/54/5
f 19/53/5 17/52/5 20/55/5
f 18/6/2 19/50/2 20/56/2
usemtl material_1_0
f 3//7 2//7 1//7
f 1//7 2//7 4//7
f 3//4 5//4 2//4
f 3//5 1//5 5//5
f 4//7 2//7 6//7
f 1//2 4//2 7//2
f 8//4 2//4 5//4
f 7//5 5//5 1//5
f 2//7 9//7 6//7
f 4//3 6//3 10//3
f 10//2 7//2 4//2
f 2//9 8//9 9//9
f 5//1 10//1 8//1
f 7//1 10//1 5//1
f 6//7 9//7 11//7
f 12//3 10//3 6//3
f 13//9 9//9 8//9
f 10//1 12//1 8//1
f 9//7 14//7 11//7
f 11//10 15//10 6//10
f 12//10 6//10 15//10
f 9//5 13//5 14//5
f 8//1 12//1 13//1
f 11//7 14//7 16//7
f 15//2 11//2 17//2
f 12//1 15//1 13//1
f 18//5 14//5 13//5
f 19//7 16//7 14//7
f 16//2 17//2 11//2
f 17//1 20//1 15//1
f 15//1 20//1 13//1
f 14//4 18//4 19//4
f 18//1 13//1 20//1
f 16//3 19//3 17//3
f 20//3 17//3 19//3
f 20//4 19//4 18//4
