# SSTK version 0.8.0
# 241
mtllib original-241.mtl
o #ID662
v 0.527724 0.586599 -0.008192
v 0.535432 0.586599 -0.009348
v 0.535432 0.586599 -0.008192
v 0.527724 0.586599 -0.009348
v 0.527724 0.586599 -0.009348
v 0.527724 0.586599 -0.008192
v 0.535432 0.586599 -0.009348
v 0.535432 0.586599 -0.008192
v 0.527724 0.586599 -0.008192
v 0.539287 0.590453 -0.008192
v 0.527724 0.590453 -0.008192
v 0.535432 0.586599 -0.008192
v 0.535432 0.586599 -0.008192
v 0.527724 0.586599 -0.008192
v 0.539287 0.590453 -0.008192
v 0.527724 0.590453 -0.008192
v 0.527724 0.585861 -0.009404
v 0.535432 0.586599 -0.009348
v 0.527724 0.586599 -0.009348
v 0.534694 0.585861 -0.009404
v 0.534694 0.585861 -0.009404
v 0.527724 0.585861 -0.009404
v 0.535432 0.586599 -0.009348
v 0.527724 0.586599 -0.009348
v 0.527724 0.585139 -0.009512
v 0.533973 0.585139 -0.009512
v 0.533973 0.585139 -0.009512
v 0.527724 0.585139 -0.009512
v 0.527724 0.584445 -0.009671
v 0.533278 0.584445 -0.009671
v 0.533278 0.584445 -0.009671
v 0.527724 0.584445 -0.009671
v 0.527724 0.583787 -0.009879
v 0.532620 0.583787 -0.009879
v 0.532620 0.583787 -0.009879
v 0.527724 0.583787 -0.009879
v 0.532008 0.583175 -0.010133
v 0.527724 0.583175 -0.010133
v 0.527724 0.583175 -0.010133
v 0.532008 0.583175 -0.010133
v 0.531451 0.582618 -0.010429
v 0.527724 0.582618 -0.010429
v 0.527724 0.582618 -0.010429
v 0.531451 0.582618 -0.010429
v 0.530958 0.582125 -0.010763
v 0.527724 0.582125 -0.010763
v 0.527724 0.582125 -0.010763
v 0.530958 0.582125 -0.010763
v 0.530535 0.581702 -0.011130
v 0.527724 0.581702 -0.011130
v 0.527724 0.581702 -0.011130
v 0.530535 0.581702 -0.011130
v 0.530188 0.581355 -0.011524
v 0.527724 0.581355 -0.011524
v 0.527724 0.581355 -0.011524
v 0.530188 0.581355 -0.011524
v 0.529923 0.581090 -0.011941
v 0.527724 0.581090 -0.011941
v 0.527724 0.581090 -0.011941
v 0.529923 0.581090 -0.011941
v 0.529743 0.580910 -0.012374
v 0.527724 0.580910 -0.012374
v 0.527724 0.580910 -0.012374
v 0.529743 0.580910 -0.012374
v 0.529651 0.580818 -0.012817
v 0.527724 0.580818 -0.012817
v 0.527724 0.580818 -0.012817
v 0.529651 0.580818 -0.012817
v 0.527724 0.578891 -0.012817
v 0.529651 0.580818 -0.012817
v 0.527724 0.580818 -0.012817
v 0.527724 0.580818 -0.012817
v 0.529651 0.580818 -0.012817
v 0.527724 0.578891 -0.012817
vt 0.05905512 -9.040161e-32
vt 0.01968504 0.00984252
vt 0.01968504 -9.040161e-32
vt 0.05905512 0.00984252
vt 0.05905512 0.01968504
vt 0 -1.421085e-15
vt 0.05905512 -1.421085e-15
vt 0.01968504 0.01968504
vt 0.05905512 0.02455166
vt 0.01968504 0.02075301
vt 0.05905512 0.02075301
vt 0.02345441 0.02455166
vt 0.05905512 0.02905183
vt 0.02345441 0.02525318
vt 0.05905512 0.02525318
vt 0.02714014 0.02905183
vt 0.05905512 0.03316011
vt 0.02714014 0.02936145
vt 0.05905512 0.02936145
vt 0.03068901 0.03316011
vt 0.05905512 0.03681719
vt 0.03068901 0.03301853
vt 0.05905512 0.03301853
vt 0.03404981 0.03681719
vt 0.05905512 0.03617164
vt 0.03717404 0.03997029
vt 0.03404981 0.03617164
vt 0.05905512 0.03997029
vt 0.05905512 0.03877526
vt 0.04001659 0.04257392
vt 0.03717404 0.03877526
vt 0.05905512 0.04257392
vt 0.05905512 0.04079182
vt 0.04253644 0.04459048
vt 0.04001659 0.04079182
vt 0.05905512 0.04459048
vt 0.05905512 0.04219221
vt 0.04469723 0.04599087
vt 0.04253644 0.04219221
vt 0.05905512 0.04599087
vt 0.05905512 0.04295623
vt 0.04646777 0.04675488
vt 0.04469723 0.04295623
vt 0.05905512 0.04675488
vt 0.05905512 0.04307283
vt 0.0478225 0.04687149
vt 0.04646777 0.04307283
vt 0.05905512 0.04687149
vt 0.05905512 0.04254035
vt 0.04874186 0.04633901
vt 0.0478225 0.04254035
vt 0.05905512 0.04633901
vt 0.05905512 0.04136646
vt 0.0492126 0.04516512
vt 0.04874186 0.04136646
vt 0.05905512 0.04516512
vt 0.05905512 0.05905512
vt 0.0492126 0.0492126
vt 0.05905512 0.0492126
vn 0 -1 0
vn 0 1 0
vn 0 0 1
vn 0 0 -1
vn 0 -0.11118429593097809 0.9937998049598987
vn 0 -0.0747210505786953 0.9972044748196911
vn 0 -0.09318188383368665 0.9956491031107321
vn 0 0.09318188383368665 -0.9956491031107321
vn 0 0.11118429593097809 -0.9937998049598987
vn 0 0.0747210505786953 -0.9972044748196911
vn 0 -0.18533413831975873 0.982675560484371
vn 0 -0.1672806711466511 0.9859093148260271
vn 0 0.1672806711466511 -0.9859093148260271
vn 0 0.18533413831975873 -0.982675560484371
vn 0 -0.2619082797954829 0.9650927691028314
vn 0 -0.24379436558222256 0.9698269470943575
vn 0 0.24379436558222256 -0.9698269470943575
vn 0 0.2619082797954829 -0.9650927691028314
vn 0 -0.341820350233711 0.9397653154730192
vn 0 -0.32370861221316394 0.9461568233538389
vn 0 0.32370861221316394 -0.9461568233538389
vn 0 0.341820350233711 -0.9397653154730192
vn 0 -0.40792724579729983 0.9130144369812722
vn 0 -0.4258581126249572 0.9047899578971406
vn 0 0.4258581126249572 -0.9047899578971406
vn 0 0.40792724579729983 -0.9130144369812722
vn 0 -0.4970991572112826 0.8676937408439871
vn 0 -0.5144957365122423 0.8574929370617145
vn 0 0.5144957365122423 -0.8574929370617145
vn 0 0.4970991572112826 -0.8676937408439871
vn 0 -0.5912613240276275 0.8064800349104103
vn 0 -0.6075303103856454 0.7942964949958682
vn 0 0.6075303103856454 -0.7942964949958682
vn 0 0.5912613240276275 -0.8064800349104103
vn 0 -0.6891812387732575 0.724589000829407
vn 0 -0.7034535840232289 0.7107412012293042
vn 0 0.7034535840232289 -0.7107412012293042
vn 0 0.6891812387732575 -0.724589000829407
vn 0 -0.787313395974405 0.6165530119294286
vn 0 -0.7985267290489153 0.6019593532743222
vn 0 0.7985267290489153 -0.6019593532743222
vn 0 0.787313395974405 -0.6165530119294286
vn 0 -0.8785617208213399 0.47762883362234926
vn 0 -0.8858010458387274 0.4640651971339982
vn 0 0.8858010458387274 -0.4640651971339982
vn 0 0.8785617208213399 -0.47762883362234926
vn 0 -0.9517905158143685 0.3067487799581577
vn 0 -0.9549485487351352 0.2967714091159374
vn 0 0.9549485487351352 -0.2967714091159374
vn 0 0.9517905158143685 -0.3067487799581577
vn 0 -0.9790181257451273 0.20377318141133835
vn 0 0.9790181257451273 -0.20377318141133835
usemtl material_0_0
f 1/1/1 2/2/1 3/3/1
f 2/2/1 1/1/1 4/4/1
f 5/4/2 6/1/2 7/2/2
f 8/3/2 7/2/2 6/1/2
f 9/5/3 10/6/3 11/7/3
f 10/6/3 9/5/3 12/8/3
f 13/8/4 14/5/4 15/6/4
f 16/7/4 15/6/4 14/5/4
f 17/9/5 18/10/6 19/11/6
f 18/10/6 17/9/5 20/12/7
f 21/12/8 22/9/9 23/10/10
f 24/11/10 23/10/10 22/9/9
f 25/13/11 20/14/7 17/15/5
f 20/14/7 25/13/11 26/16/12
f 27/16/13 28/13/14 21/14/8
f 22/15/9 21/14/8 28/13/14
f 29/17/15 26/18/12 25/19/11
f 26/18/12 29/17/15 30/20/16
f 31/20/17 32/17/18 27/18/13
f 28/19/14 27/18/13 32/17/18
f 33/21/19 30/22/16 29/23/15
f 30/22/16 33/21/19 34/24/20
f 35/24/21 36/21/22 31/22/17
f 32/23/18 31/22/17 36/21/22
f 33/25/19 37/26/23 34/27/20
f 37/26/23 33/25/19 38/28/24
f 39/28/25 36/25/22 40/26/26
f 35/27/21 40/26/26 36/25/22
f 38/29/24 41/30/27 37/31/23
f 41/30/27 38/29/24 42/32/28
f 43/32/29 39/29/25 44/30/30
f 40/31/26 44/30/30 39/29/25
f 42/33/28 45/34/31 41/35/27
f 45/34/31 42/33/28 46/36/32
f 47/36/33 43/33/29 48/34/34
f 44/35/30 48/34/34 43/33/29
f 46/37/32 49/38/35 45/39/31
f 49/38/35 46/37/32 50/40/36
f 51/40/37 47/37/33 52/38/38
f 48/39/34 52/38/38 47/37/33
f 50/41/36 53/42/39 49/43/35
f 53/42/39 50/41/36 54/44/40
f 55/44/41 51/41/37 56/42/42
f 52/43/38 56/42/42 51/41/37
f 54/45/40 57/46/43 53/47/39
f 57/46/43 54/45/40 58/48/44
f 59/48/45 55/45/41 60/46/46
f 56/47/42 60/46/46 55/45/41
f 58/49/44 61/50/47 57/51/43
f 61/50/47 58/49/44 62/52/48
f 63/52/49 59/49/45 64/50/50
f 60/51/46 64/50/50 59/49/45
f 62/53/48 65/54/51 61/55/47
f 65/54/51 62/53/48 66/56/51
f 67/56/52 63/53/49 68/54/52
f 64/55/50 68/54/52 63/53/49
f 69/57/3 70/58/3 71/59/3
f 72/59/4 73/58/4 74/57/4
