# SSTK version 0.8.0
# 41
mtllib original-41.mtl
o instance_42/MTG_FD/instance_43/FACE/ID253#ID253
v -0.640116 -0.708046 -0.031896
v -0.640116 0.737300 0.036903
v -0.640116 -0.708046 0.036903
v -0.640116 0.737300 -0.031896
v -0.640116 0.737300 -0.031896
v -0.640116 -0.708046 -0.031896
v -0.640116 0.737300 0.036903
v -0.640116 -0.708046 0.036903
vt 0.2933071 0
vt 0 7.598425
vt 0 0
vt 0.2933071 7.598425
vn 1 0 0
vn -1 0 0
usemtl material_0_0
f 1/1/1 2/2/1 3/3/1
f 2/2/1 1/1/1 4/4/1
f 5/4/2 6/1/2 7/2/2
f 8/3/2 7/2/2 6/1/2
