# SSTK version 0.8.0
# 181
mtllib original-181.mtl
o instance_141/RAINURE_P2D/ID829#ID829
v 0.030525 -0.659483 -0.001254
v 0.030525 -0.642138 0.007418
v 0.030525 -0.659483 0.007418
v 0.030525 -0.642138 -0.001254
v 0.030525 -0.642138 -0.001254
v 0.030525 -0.659483 -0.001254
v 0.030525 -0.642138 0.007418
v 0.030525 -0.659483 0.007418
v 0.030525 -0.659483 0.007418
v -0.050415 -0.642138 0.007418
v -0.050415 -0.659483 0.007418
v 0.030525 -0.642138 0.007418
v 0.030525 -0.642138 0.007418
v 0.030525 -0.659483 0.007418
v -0.050415 -0.642138 0.007418
v -0.050415 -0.659483 0.007418
v 0.030525 -0.659483 -0.001254
v -0.050415 -0.659483 0.007418
v -0.050415 -0.659483 -0.001254
v 0.030525 -0.659483 0.007418
v 0.030525 -0.659483 0.007418
v 0.030525 -0.659483 -0.001254
v -0.050415 -0.659483 0.007418
v -0.050415 -0.659483 -0.001254
v -0.050415 -0.642138 -0.001254
v 0.030525 -0.659483 -0.001254
v -0.050415 -0.659483 -0.001254
v 0.030525 -0.642138 -0.001254
v 0.030525 -0.642138 -0.001254
v -0.050415 -0.642138 -0.001254
v 0.030525 -0.659483 -0.001254
v -0.050415 -0.659483 -0.001254
vt 0.02952756 1.015362e-14
vt -5.711204e-14 0.05905512
vt -1.546141e-9 1.015685e-14
vt 0.02952756 0.05905512
vt 0.2755906 2.03816e-9
vt 8.734929e-10 0.05905512
vt 8.734986e-10 -1.370521e-25
vt 0.2755906 0.05905512
vt -0.2755906 0.02952756
vt -8.734986e-10 6.166734e-34
vt -8.734929e-10 0.02952756
vt -0.2755906 2.530212e-9
vt -3.5392e-10 0.05905512
vt -0.2755906 2.424681e-9
vt -1.227413e-9 3.865213e-10
vt -0.2755906 0.05905512
vn 1 7.395573000000003e-9 -1.4791339999999999e-8
vn -1 -7.395573000000003e-9 1.4791339999999999e-8
vn 1.198609e-8 1.3090189777955395e-8 1
vn -1.198609e-8 -1.3090189777955395e-8 -1
vn 7.395567e-9 -1 0
vn -7.395567e-9 1 0
usemtl material_0_0
f 1/1/1 2/2/1 3/3/1
f 2/2/1 1/1/1 4/4/1
f 5/4/2 6/1/2 7/2/2
f 8/3/2 7/2/2 6/1/2
f 9/5/3 10/6/3 11/7/3
f 10/6/3 9/5/3 12/8/3
f 13/8/4 14/5/4 15/6/4
f 16/7/4 15/6/4 14/5/4
f 17/9/5 18/10/5 19/11/5
f 18/10/5 17/9/5 20/12/5
f 21/12/6 22/9/6 23/10/6
f 24/11/6 23/10/6 22/9/6
f 25/13/4 26/14/4 27/15/4
f 26/14/4 25/13/4 28/16/4
f 29/16/3 30/13/3 31/14/3
f 32/15/3 31/14/3 30/13/3
