# SSTK version 0.8.0
# 10
mtllib original-10.mtl
o instance_12/FNBF/ID66#ID66
v -0.634335 -0.638670 0.036903
v 0.614445 -0.702265 0.036903
v -0.634335 -0.702265 0.036903
v 0.614445 -0.638670 0.036903
v 0.614445 -0.638670 0.036903
v -0.634335 -0.638670 0.036903
v 0.614445 -0.702265 0.036903
v -0.634335 -0.702265 0.036903
vt 0 0.1968504
vt -7.441732 0
vt 0 0
vt -7.441732 0.1968504
vn 0 0 -1
vn 0 0 1
usemtl material_0_0
f 1/1/1 2/2/1 3/3/1
f 2/2/1 1/1/1 4/4/1
f 5/4/2 6/1/2 7/2/2
f 8/3/2 7/2/2 6/1/2
