# SSTK version 0.8.0
# 40
mtllib original-40.mtl
o instance_41/MTG_CL/ID241#ID241
v -0.640116 0.737301 0.036903
v -0.703711 0.737301 -0.031896
v -0.703711 0.737301 0.036903
v -0.640116 0.737301 -0.031896
v -0.640116 0.737301 -0.031896
v -0.640116 0.737301 0.036903
v -0.703711 0.737301 -0.031896
v -0.703711 0.737301 0.036903
v -0.703711 0.737301 -0.031896
v -0.640116 -0.708046 -0.031896
v -0.703711 -0.708046 -0.031896
v -0.640116 0.737301 -0.031896
v -0.640116 0.737301 -0.031896
v -0.703711 0.737301 -0.031896
v -0.640116 -0.708046 -0.031896
v -0.703711 -0.708046 -0.031896
v -0.703711 0.737301 -0.031896
v -0.703711 -0.708046 0.036903
v -0.703711 0.737301 0.036903
v -0.703711 -0.708046 -0.031896
v -0.703711 -0.708046 -0.031896
v -0.703711 0.737301 -0.031896
v -0.703711 -0.708046 0.036903
v -0.703711 0.737301 0.036903
v -0.640116 -0.708046 -0.031896
v -0.703711 -0.708046 0.036903
v -0.703711 -0.708046 -0.031896
v -0.640116 -0.708046 0.036903
v -0.640116 -0.708046 0.036903
v -0.640116 -0.708046 -0.031896
v -0.703711 -0.708046 0.036903
v -0.703711 -0.708046 -0.031896
vt 0.2165354 0
vt -1.309658e-108 0.2933071
vt -1.309658e-108 0
vt 0.2165354 0.2933071
vt 2.055054e-46 9.84252
vt -0.2165354 -2.473681e-81
vt 2.055054e-46 -2.473681e-81
vt -0.2165354 9.84252
vt -0.2933071 9.84252
vt 0 0
vt 0 9.84252
vt -0.2933071 -7.755059e-268
vt -0.2165354 0.2933071
vt 0 0.2933071
vt -0.2165354 0
vn 0 1 0
vn 0 -1 0
vn 0 0 -1
vn 0 0 1
vn -1 0 0
vn 1 0 0
usemtl material_0_0
f 1/1/1 2/2/1 3/3/1
f 2/2/1 1/1/1 4/4/1
f 5/4/2 6/1/2 7/2/2
f 8/3/2 7/2/2 6/1/2
f 9/5/3 10/6/3 11/7/3
f 10/6/3 9/5/3 12/8/3
f 13/8/4 14/5/4 15/6/4
f 16/7/4 15/6/4 14/5/4
f 17/9/5 18/10/5 19/11/5
f 18/10/5 17/9/5 20/12/5
f 21/12/6 22/9/6 23/10/6
f 24/11/6 23/10/6 22/9/6
f 25/13/2 26/10/2 27/14/2
f 26/10/2 25/13/2 28/15/2
f 29/15/1 30/13/1 31/10/1
f 32/14/1 31/10/1 30/13/1
