# SSTK version 0.8.0
# 34
mtllib original-34.mtl
o instance_33/FNG_1/ID185#ID185
v -0.703711 -0.638670 0.036903
v -0.703711 0.667924 0.042684
v -0.703711 0.667924 0.036903
v -0.703711 -0.638670 0.042684
v -0.703711 -0.638670 0.042684
v -0.703711 -0.638670 0.036903
v -0.703711 0.667924 0.042684
v -0.703711 0.667924 0.036903
v -0.703711 -0.638670 0.042684
v -0.634335 0.667924 0.042684
v -0.703711 0.667924 0.042684
v -0.634335 -0.638670 0.042684
v -0.634335 -0.638670 0.042684
v -0.703711 -0.638670 0.042684
v -0.634335 0.667924 0.042684
v -0.703711 0.667924 0.042684
vt -8.818898 0.01968504
vt -1.421085e-15 -1.146704e-75
vt -1.421085e-15 0.01968504
vt -8.818898 -4.135667e-63
vt 8.818898 1.421085e-14
vt -2.721632e-107 0.1968504
vt 1.421085e-15 6.043238e-123
vt 8.818898 0.1968504
vn -1 0 0
vn 1 0 0
vn 0 0 1
vn 0 0 -1
usemtl material_0_0
f 1/1/1 2/2/1 3/3/1
f 2/2/1 1/1/1 4/4/1
f 5/4/2 6/1/2 7/2/2
f 8/3/2 7/2/2 6/1/2
f 9/5/3 10/6/3 11/7/3
f 10/6/3 9/5/3 12/8/3
f 13/8/4 14/5/4 15/6/4
f 16/7/4 15/6/4 14/5/4
