# SSTK version 0.8.0
# 276
mtllib original-276.mtl
o instance_190/Montant_Droit_7/ID725#ID725
v 0.620226 -0.642138 -0.042880
v 0.620226 0.671393 -0.008192
v 0.620226 -0.642138 -0.008192
v 0.620226 0.671393 -0.042880
v 0.620226 0.671393 -0.042880
v 0.620226 -0.642138 -0.042880
v 0.620226 0.671393 -0.008192
v 0.620226 -0.642138 -0.008192
v 0.539287 -0.574331 -0.042880
v 0.620226 -0.642138 -0.042880
v 0.539287 -0.642138 -0.042880
v 0.620226 0.671393 -0.042880
v 0.539287 0.603585 -0.042880
v 0.539287 0.671393 -0.042880
v 0.539287 0.671393 -0.042880
v 0.539287 0.603585 -0.042880
v 0.620226 0.671393 -0.042880
v 0.539287 -0.574331 -0.042880
v 0.620226 -0.642138 -0.042880
v 0.539287 -0.642138 -0.042880
v 0.620226 0.671393 -0.008192
v 0.539287 -0.642138 -0.008192
v 0.620226 -0.642138 -0.008192
v 0.539287 0.671393 -0.008192
v 0.539287 0.671393 -0.008192
v 0.620226 0.671393 -0.008192
v 0.539287 -0.642138 -0.008192
v 0.620226 -0.642138 -0.008192
vt 0.1574803 -1.568554e-34
vt 1.398265e-11 5.456693
vt 1.397536e-11 -1.568472e-34
vt 0.1574803 5.456693
vt 0.2755905 0.2816877
vt 0.2755906 1.950509e-16
vt 3.053237e-9 5.456693
vt 0.2755905 5.175005
vt 0.2755906 5.456693
vt 3.053237e-9 1.950509e-16
vt -6.093615e-12 5.456693
vt -0.2755905 1.864876e-26
vt -6.093615e-12 1.864875e-26
vt -0.2755905 5.456693
vn 1 0 -2.583295999999999e-8
vn -1 0 2.583295999999999e-8
vn 0 0 -1
vn 0 0 1
usemtl material_0_0
f 1/1/1 2/2/1 3/3/1
f 2/2/1 1/1/1 4/4/1
f 5/4/2 6/1/2 7/2/2
f 8/3/2 7/2/2 6/1/2
f 9/5/3 10/3/3 11/6/3
f 10/3/3 9/5/3 12/7/3
f 12/7/3 9/5/3 13/8/3
f 12/7/3 13/8/3 14/9/3
f 15/9/4 16/8/4 17/7/4
f 16/8/4 18/5/4 17/7/4
f 17/7/4 18/5/4 19/10/4
f 20/6/4 19/10/4 18/5/4
f 21/11/4 22/12/4 23/13/4
f 22/12/4 21/11/4 24/14/4
f 25/14/3 26/11/3 27/12/3
f 28/13/3 27/12/3 26/11/3
