# SSTK version 0.8.0
# 15
mtllib original-15.mtl
o instance_18/FACE_BAS/ID94#ID94
v 0.620226 -0.708046 -0.031896
v -0.640116 -0.708046 0.036903
v -0.640116 -0.708046 -0.031896
v 0.620226 -0.708046 0.036903
v 0.620226 -0.708046 0.036903
v 0.620226 -0.708046 -0.031896
v -0.640116 -0.708046 0.036903
v -0.640116 -0.708046 -0.031896
vt -9.409449 0.2933071
vt 0 0
vt 0 0.2933071
vt -9.409449 0
vn 0 -1 0
vn 0 1 0
usemtl material_0_0
f 1/1/1 2/2/1 3/3/1
f 2/2/1 1/1/1 4/4/1
f 5/4/2 6/1/2 7/2/2
f 8/3/2 7/2/2 6/1/2
