# SSTK version 0.8.0
# 43
mtllib original-43.mtl
o instance_45/MTD_FG_1/ID265#ID265
v 0.620226 0.737301 -0.031896
v 0.620226 -0.708046 0.036903
v 0.620226 0.737301 0.036903
v 0.620226 -0.708046 -0.031896
v 0.620226 -0.708046 -0.031896
v 0.620226 0.737301 -0.031896
v 0.620226 -0.708046 0.036903
v 0.620226 0.737301 0.036903
vt -0.2933071 9.84252
vt 0 0
vt 0 9.84252
vt -0.2933071 0
vn -1 0 0
vn 1 0 0
usemtl material_0_0
f 1/1/1 2/2/1 3/3/1
f 2/2/1 1/1/1 4/4/1
f 5/4/2 6/1/2 7/2/2
f 8/3/2 7/2/2 6/1/2
