# SSTK version 0.8.0
# 6
mtllib original-6.mtl
o Drawer_sides2/Drawer_sides12/mesh9/mesh9-geometry#mesh9-geometry
v 0.065350 0.206280 -0.434881
v 0.051652 0.206280 -1.095680
v 0.065350 0.206280 -1.106638
v 0.051652 0.206280 -1.068285
v 0.037954 0.206280 -1.106638
v 0.065350 0.217238 -0.435605
v 0.037954 0.206280 -0.434881
v 0.051652 0.217238 -1.068285
v 0.051652 0.217238 -1.106638
v 0.037954 0.206280 -1.095680
v 0.065350 0.239154 -0.437051
v 0.037954 0.217238 -0.435605
v 0.037954 0.206280 -1.068285
v 0.051652 0.228196 -1.068285
v 0.037954 0.217238 -1.106638
v 0.065350 0.357274 -1.106638
v 0.037954 0.217238 -1.095680
v 0.065350 0.242529 -0.413040
v 0.065350 0.260984 -0.438492
v 0.051652 0.217238 -0.435605
v 0.037954 0.217238 -1.068285
v 0.051652 0.357274 -1.068285
v 0.051652 0.217238 -1.095680
v 0.065350 0.357274 -0.444658
v 0.051652 0.228196 -1.106638
v 0.037954 0.242529 -0.413040
v 0.065350 0.213824 -0.411309
v 0.037954 0.260984 -0.438492
v 0.065350 0.302483 -0.441230
v 0.037954 0.217238 -0.411515
v 0.037954 0.213824 -0.411309
v 0.051652 0.357274 -1.095680
v 0.037954 0.228196 -1.068285
v 0.051652 0.228196 -0.412176
v 0.051652 0.228196 -1.095680
v 0.037954 0.357274 -0.444658
v 0.065350 0.346316 -0.443998
v 0.037954 0.228196 -1.106638
v 0.037954 0.239154 -0.437051
v 0.051652 0.217238 -0.411515
v 0.065350 0.257534 -0.413944
v 0.065350 0.305908 -0.416861
v 0.065350 0.324399 -0.442676
v 0.037954 0.357274 -1.068285
v 0.037954 0.357274 -1.106638
v 0.037954 0.228196 -0.412176
v 0.037954 0.257534 -0.413944
v 0.037954 0.305908 -0.416861
v 0.037954 0.324399 -0.442676
v 0.037954 0.357274 -1.095680
v 0.037954 0.346316 -0.443998
v 0.065350 0.349758 -0.419504
v 0.037954 0.228196 -1.095680
v 0.037954 0.302483 -0.441230
v 0.065350 0.320898 -0.417764
v 0.037954 0.349758 -0.419504
v 0.037954 0.320898 -0.417764
vn 0 -1 0
vn 0 1 0
vn 1 0 0
vn -1 0 0
vn 0 0 -1
vn 0 0 1
vn 0 0.06584897367025999 0.9978296010174148
vn 0 -0.06584897367025999 -0.9978296010174148
vn 0 0.990268081324284 -0.13917301142937502
vn 0 -0.990268081324284 0.13917301142937502
vn 0 0.06586098733618449 0.9978288081364973
vn 0 -0.06586098733618449 -0.9978288081364973
vn 0 -0.990268081324284 -0.13917301142937546
vn 0 0.990268081324284 0.13917301142937546
vn 0 0.06017698331072816 0.9981877231661489
vn 0 -0.06017698331072816 -0.9981877231661489
usemtl material_0_0
f 1//1 2//1 3//1
f 2//1 1//1 4//1
f 3//2 2//2 1//2
f 4//2 1//2 2//2
f 5//1 3//1 2//1
f 2//2 3//2 5//2
f 1//3 3//3 6//3
f 6//4 3//4 1//4
f 7//1 4//1 1//1
f 1//2 4//2 7//2
f 4//4 8//4 2//4
f 2//3 8//3 4//3
f 5//5 9//5 3//5
f 3//6 9//6 5//6
f 10//1 5//1 2//1
f 2//2 5//2 10//2
f 11//3 6//3 3//3
f 3//4 6//4 11//4
f 6//7 12//7 1//7
f 1//8 12//8 6//8
f 13//1 4//1 7//1
f 7//2 4//2 13//2
f 7//7 1//7 12//7
f 12//8 1//8 7//8
f 4//5 13//5 8//5
f 8//6 13//6 4//6
f 14//4 2//4 8//4
f 8//3 2//3 14//3
f 9//5 5//5 15//5
f 15//6 5//6 9//6
f 16//5 3//5 9//5
f 9//6 3//6 16//6
f 10//4 17//4 5//4
f 5//3 17//3 10//3
f 10//6 2//6 17//6
f 17//5 2//5 10//5
f 11//3 18//3 6//3
f 6//4 18//4 11//4
f 19//3 11//3 3//3
f 3//4 11//4 19//4
f 20//7 12//7 6//7
f 6//8 12//8 20//8
f 7//4 12//4 13//4
f 13//3 12//3 7//3
f 21//5 8//5 13//5
f 13//6 8//6 21//6
f 22//4 2//4 14//4
f 14//3 2//3 22//3
f 8//4 20//4 14//4
f 14//3 20//3 8//3
f 15//4 5//4 17//4
f 17//3 5//3 15//3
f 9//2 15//2 23//2
f 23//1 15//1 9//1
f 16//3 24//3 3//3
f 3//4 24//4 16//4
f 25//5 16//5 9//5
f 9//6 16//6 25//6
f 23//6 17//6 2//6
f 2//5 17//5 23//5
f 18//9 11//9 26//9
f 26//10 11//10 18//10
f 27//3 6//3 18//3
f 18//4 6//4 27//4
f 19//11 28//11 11//11
f 11//12 28//12 19//12
f 29//3 19//3 3//3
f 3//4 19//4 29//4
f 12//2 30//2 20//2
f 20//1 30//1 12//1
f 20//2 8//2 12//2
f 12//1 8//1 20//1
f 12//13 20//13 31//13
f 31//14 20//14 12//14
f 6//13 27//13 20//13
f 20//14 27//14 6//14
f 21//4 13//4 12//4
f 12//3 13//3 21//3
f 21//2 12//2 8//2
f 8//1 12//1 21//1
f 32//4 2//4 22//4
f 22//3 2//3 32//3
f 14//5 33//5 22//5
f 22//6 33//6 14//6
f 14//4 20//4 34//4
f 34//3 20//3 14//3
f 17//2 23//2 15//2
f 15//1 23//1 17//1
f 23//4 35//4 9//4
f 9//3 35//3 23//3
f 24//2 16//2 36//2
f 36//1 16//1 24//1
f 24//3 37//3 3//3
f 3//4 37//4 24//4
f 38//5 16//5 25//5
f 25//6 16//6 38//6
f 25//4 9//4 35//4
f 35//3 9//3 25//3
f 23//4 2//4 32//4
f 32//3 2//3 23//3
f 39//9 26//9 11//9
f 11//10 26//10 39//10
f 26//15 34//15 18//15
f 18//16 34//16 26//16
f 18//15 40//15 27//15
f 27//16 40//16 18//16
f 19//13 41//13 28//13
f 28//14 41//14 19//14
f 39//11 11//11 28//11
f 28//12 11//12 39//12
f 29//3 42//3 19//3
f 19//4 42//4 29//4
f 43//3 29//3 3//3
f 3//4 29//4 43//4
f 31//4 30//4 12//4
f 12//3 30//3 31//3
f 40//2 20//2 30//2
f 30//1 20//1 40//1
f 31//13 20//13 27//13
f 27//14 20//14 31//14
f 22//2 16//2 32//2
f 32//1 16//1 22//1
f 14//1 34//1 33//1
f 33//2 34//2 14//2
f 44//5 22//5 33//5
f 33//6 22//6 44//6
f 40//4 34//4 20//4
f 20//3 34//3 40//3
f 35//4 23//4 32//4
f 32//3 23//3 35//3
f 22//2 36//2 16//2
f 16//1 36//1 22//1
f 24//15 36//15 37//15
f 37//16 36//16 24//16
f 37//3 43//3 3//3
f 3//4 43//4 37//4
f 45//5 16//5 38//5
f 38//6 16//6 45//6
f 25//1 35//1 38//1
f 38//2 35//2 25//2
f 26//4 39//4 46//4
f 46//3 39//3 26//3
f 46//15 34//15 26//15
f 26//16 34//16 46//16
f 34//15 40//15 18//15
f 18//16 40//16 34//16
f 40//15 30//15 27//15
f 27//16 30//16 40//16
f 41//3 19//3 42//3
f 42//4 19//4 41//4
f 47//13 28//13 41//13
f 41//14 28//14 47//14
f 28//4 33//4 39//4
f 39//3 33//3 28//3
f 42//9 29//9 48//9
f 48//10 29//10 42//10
f 43//7 49//7 29//7
f 29//8 49//8 43//8
f 31//15 27//15 30//15
f 30//16 27//16 31//16
f 45//2 32//2 16//2
f 16//1 32//1 45//1
f 46//1 33//1 34//1
f 34//2 33//2 46//2
f 44//2 36//2 22//2
f 22//1 36//1 44//1
f 44//4 33//4 36//4
f 36//3 33//3 44//3
f 32//6 50//6 35//6
f 35//5 50//5 32//5
f 51//15 37//15 36//15
f 36//16 37//16 51//16
f 37//3 52//3 43//3
f 43//4 52//4 37//4
f 45//4 38//4 50//4
f 50//3 38//3 45//3
f 53//1 38//1 35//1
f 35//2 38//2 53//2
f 33//4 46//4 39//4
f 39//3 46//3 33//3
f 42//15 48//15 41//15
f 41//16 48//16 42//16
f 47//4 48//4 28//4
f 28//3 48//3 47//3
f 47//15 41//15 48//15
f 48//16 41//16 47//16
f 54//4 33//4 28//4
f 28//3 33//3 54//3
f 54//9 48//9 29//9
f 29//10 48//10 54//10
f 43//13 55//13 49//13
f 49//14 55//14 43//14
f 54//7 29//7 49//7
f 49//8 29//8 54//8
f 50//2 32//2 45//2
f 45//1 32//1 50//1
f 36//4 33//4 51//4
f 51//3 33//3 36//3
f 53//6 35//6 50//6
f 50//5 35//5 53//5
f 51//9 56//9 37//9
f 37//10 56//10 51//10
f 52//9 37//9 56//9
f 56//10 37//10 52//10
f 55//3 43//3 52//3
f 52//4 43//4 55//4
f 53//4 50//4 38//4
f 38//3 50//3 53//3
f 54//4 28//4 48//4
f 48//3 28//3 54//3
f 49//4 33//4 54//4
f 54//3 33//3 49//3
f 57//13 49//13 55//13
f 55//14 49//14 57//14
f 51//4 33//4 49//4
f 49//3 33//3 51//3
f 51//4 49//4 56//4
f 56//3 49//3 51//3
f 52//15 56//15 55//15
f 55//16 56//16 52//16
f 57//4 56//4 49//4
f 49//3 56//3 57//3
f 57//15 55//15 56//15
f 56//16 55//16 57//16
