# SSTK version 0.8.0
# 8
mtllib original-8.mtl
o Legs1/Legs/mesh16/mesh16-geometry#mesh16-geometry
v -0.422292 0.359844 -0.397472
v -0.493521 -0.816556 -0.326552
v -0.422292 -0.816556 -0.326552
v -0.493521 0.359844 -0.397472
v -0.422292 -0.816556 -0.408888
v -0.422292 -0.654293 -0.366524
v -0.493521 0.359844 -0.479808
v -0.493521 -0.816556 -0.408888
v -0.422292 0.179456 -0.398948
v -0.422292 0.359844 -0.479808
v -0.422292 -0.655612 -0.388400
v -0.422292 -0.468341 -0.377734
v -0.422292 0.201333 -0.400267
v -0.453797 0.337928 -0.478487
v -0.475713 0.200909 -0.470227
v -0.422292 -0.469660 -0.399611
v -0.477083 -0.655612 -0.388400
v -0.422292 0.178138 -0.420825
v -0.477083 -0.468341 -0.377734
v -0.455167 0.201333 -0.400267
v -0.422292 0.200014 -0.422144
v -0.453797 0.200909 -0.470227
v -0.475713 0.337928 -0.478487
v -0.477083 -0.654293 -0.366524
v -0.455167 0.178138 -0.420825
v -0.455167 0.179456 -0.398948
v -0.453797 0.204088 -0.417492
v -0.453797 0.341107 -0.425752
v -0.475713 0.204088 -0.417492
v -0.477083 -0.469660 -0.399611
v -0.455167 0.200014 -0.422144
v -0.475713 0.341107 -0.425752
vn 0 0.06017698331072815 0.9981877231661488
vn 0 -0.06017698331072815 -0.9981877231661488
vn 0 -1 0
vn 0 1 0
vn 1 0 0
vn -1 0 0
vn 0 0.9981877231661488 -0.06017698331072815
vn 0 -0.9981877231661488 0.06017698331072815
usemtl material_0_0
f 1//1 2//1 3//1
f 2//1 1//1 4//1
f 3//2 2//2 1//2
f 4//2 1//2 2//2
f 2//3 5//3 3//3
f 3//4 5//4 2//4
f 3//5 6//5 1//5
f 1//6 6//6 3//6
f 1//4 7//4 4//4
f 4//3 7//3 1//3
f 4//6 8//6 2//6
f 2//5 8//5 4//5
f 5//3 2//3 8//3
f 8//4 2//4 5//4
f 6//5 3//5 5//5
f 5//6 3//6 6//6
f 1//5 6//5 9//5
f 9//6 6//6 1//6
f 7//4 1//4 10//4
f 10//3 1//3 7//3
f 8//6 4//6 7//6
f 7//5 4//5 8//5
f 7//2 5//2 8//2
f 8//1 5//1 7//1
f 6//5 5//5 11//5
f 11//6 5//6 6//6
f 12//5 9//5 6//5
f 6//6 9//6 12//6
f 13//5 1//5 9//5
f 9//6 1//6 13//6
f 1//5 13//5 10//5
f 10//6 13//6 1//6
f 10//2 14//2 7//2
f 7//1 14//1 10//1
f 5//2 7//2 15//2
f 15//1 7//1 5//1
f 11//5 5//5 16//5
f 16//6 5//6 11//6
f 17//7 6//7 11//7
f 11//8 6//8 17//8
f 9//5 12//5 18//5
f 18//6 12//6 9//6
f 6//2 19//2 12//2
f 12//1 19//1 6//1
f 9//2 20//2 13//2
f 13//1 20//1 9//1
f 10//5 13//5 21//5
f 21//6 13//6 10//6
f 10//2 22//2 14//2
f 14//1 22//1 10//1
f 23//2 7//2 14//2
f 14//1 7//1 23//1
f 15//2 7//2 23//2
f 23//1 7//1 15//1
f 22//2 5//2 15//2
f 15//1 5//1 22//1
f 10//5 16//5 5//5
f 5//6 16//6 10//6
f 16//1 17//1 11//1
f 11//2 17//2 16//2
f 6//7 17//7 24//7
f 24//8 17//8 6//8
f 18//5 12//5 16//5
f 16//6 12//6 18//6
f 25//7 9//7 18//7
f 18//8 9//8 25//8
f 19//2 6//2 24//2
f 24//1 6//1 19//1
f 19//8 16//8 12//8
f 12//7 16//7 19//7
f 20//2 9//2 26//2
f 26//1 9//1 20//1
f 20//8 21//8 13//8
f 13//7 21//7 20//7
f 10//5 21//5 18//5
f 18//6 21//6 10//6
f 5//2 22//2 10//2
f 10//1 22//1 5//1
f 27//6 14//6 22//6
f 22//5 14//5 27//5
f 28//8 23//8 14//8
f 14//7 23//7 28//7
f 23//5 29//5 15//5
f 15//6 29//6 23//6
f 15//7 27//7 22//7
f 22//8 27//8 15//8
f 10//5 18//5 16//5
f 16//6 18//6 10//6
f 17//1 16//1 30//1
f 30//2 16//2 17//2
f 17//5 19//5 24//5
f 24//6 19//6 17//6
f 9//7 25//7 26//7
f 26//8 25//8 9//8
f 21//1 25//1 18//1
f 18//2 25//2 21//2
f 16//8 19//8 30//8
f 30//7 19//7 16//7
f 25//5 20//5 26//5
f 26//6 20//6 25//6
f 21//8 20//8 31//8
f 31//7 20//7 21//7
f 14//6 27//6 28//6
f 28//5 27//5 14//5
f 23//8 28//8 32//8
f 32//7 28//7 23//7
f 29//5 23//5 32//5
f 32//6 23//6 29//6
f 27//7 15//7 29//7
f 29//8 15//8 27//8
f 19//5 17//5 30//5
f 30//6 17//6 19//6
f 25//1 21//1 31//1
f 31//2 21//2 25//2
f 20//5 25//5 31//5
f 31//6 25//6 20//6
f 27//2 32//2 28//2
f 28//1 32//1 27//1
f 32//2 27//2 29//2
f 29//1 27//1 32//1
