# SSTK version 0.8.0
# 36
mtllib original-36.mtl
o mesh42/mesh42-geometry#mesh42-geometry
v -0.139004 -0.225699 0.220802
v -0.139864 -0.233668 0.220556
v -0.139983 -0.225789 0.221460
v -0.138885 -0.233578 0.219899
v -0.140749 -0.233771 0.221337
v -0.051617 -0.224463 0.221536
v -0.137948 -0.225623 0.220279
v -0.051498 -0.232342 0.220632
v -0.140868 -0.225892 0.222241
v -0.050612 -0.232419 0.221415
v -0.052597 -0.224402 0.220877
v -0.050731 -0.224539 0.222318
v -0.137829 -0.233502 0.219375
v -0.052478 -0.232281 0.219973
v -0.141643 -0.226006 0.223132
v -0.141524 -0.233885 0.222228
v -0.136833 -0.225562 0.219899
v -0.053654 -0.224358 0.220351
v -0.049954 -0.224630 0.223210
v -0.049835 -0.232509 0.222306
v -0.053535 -0.232237 0.219448
v -0.136714 -0.233442 0.218995
v -0.142297 -0.226129 0.224117
v -0.049179 -0.232612 0.223293
v -0.135678 -0.225519 0.219669
v -0.054769 -0.224331 0.219969
v -0.054650 -0.232210 0.219066
v -0.142178 -0.234008 0.223213
v -0.049298 -0.224733 0.224196
v -0.135559 -0.233398 0.218765
v -0.055925 -0.224322 0.219737
v -0.142698 -0.234138 0.224276
v -0.048777 -0.224847 0.225260
v -0.048658 -0.232727 0.224356
v -0.134503 -0.225492 0.219592
v -0.055806 -0.232201 0.218833
v -0.057100 -0.224331 0.219659
v -0.142817 -0.226259 0.225179
v -0.134384 -0.233371 0.218688
v -0.056981 -0.232210 0.218755
v -0.143194 -0.226393 0.226301
v -0.048278 -0.232850 0.225479
v -0.143075 -0.234272 0.225398
v -0.048397 -0.224970 0.226383
v -0.143423 -0.226530 0.227464
v -0.048047 -0.232979 0.226642
v -0.143304 -0.234409 0.226560
v -0.048166 -0.225100 0.227546
v -0.143499 -0.226667 0.228647
v -0.143380 -0.234546 0.227743
v -0.048088 -0.225235 0.228729
v -0.047969 -0.233114 0.227825
v -0.143436 -0.235094 0.302129
v -0.048025 -0.233662 0.302211
v -0.047906 -0.241541 0.301307
v -0.143317 -0.242973 0.301226
v -0.143358 -0.235228 0.303312
v -0.047982 -0.241678 0.302490
v -0.143239 -0.243108 0.302409
v -0.048101 -0.233799 0.303394
v -0.143127 -0.235358 0.304475
v -0.048211 -0.241815 0.303653
v -0.143008 -0.243238 0.303571
v -0.048330 -0.233936 0.304556
v -0.142747 -0.235481 0.305598
v -0.048588 -0.241949 0.304775
v -0.142628 -0.243361 0.304694
v -0.048707 -0.234070 0.305679
v -0.142107 -0.243475 0.305758
v -0.142226 -0.235596 0.306661
v -0.049227 -0.234200 0.306741
v -0.049108 -0.242079 0.305838
v -0.141570 -0.235699 0.307648
v -0.141451 -0.243578 0.306744
v -0.049762 -0.242202 0.306823
v -0.049881 -0.234323 0.307726
v -0.140793 -0.235789 0.308540
v -0.050537 -0.242316 0.307713
v -0.140674 -0.243669 0.307636
v -0.050656 -0.234437 0.308617
v -0.139907 -0.235866 0.309322
v -0.139788 -0.243745 0.308418
v -0.051541 -0.234540 0.309398
v -0.051422 -0.242419 0.308494
v -0.138808 -0.243806 0.309078
v -0.052520 -0.234630 0.310055
v -0.052401 -0.242509 0.309152
v -0.138927 -0.235926 0.309981
v -0.137751 -0.243850 0.309603
v -0.053457 -0.242585 0.309675
v -0.137870 -0.235971 0.310506
v -0.053576 -0.234706 0.310579
v -0.136755 -0.235998 0.310888
v -0.136636 -0.243877 0.309985
v -0.054572 -0.242645 0.310055
v -0.054691 -0.234766 0.310959
v -0.135599 -0.236007 0.311121
v -0.135480 -0.243886 0.310217
v -0.055727 -0.242689 0.310285
v -0.055846 -0.234810 0.311189
v -0.134424 -0.235998 0.311199
v -0.056902 -0.242716 0.310362
v -0.057021 -0.234837 0.311266
v -0.134305 -0.243877 0.310296
vn -0.5054809147582989 0.09078230343955943 -0.8580487271695711
vn -0.6142604524393624 0.08075595482596612 -0.784960236145205
vn 0.6142604524393624 -0.08075595482596612 0.784960236145205
vn 0.5054809147582989 -0.09078230343955943 0.8580487271695711
vn -0.7121308624833541 0.06937336165863266 -0.6986107438272725
vn 0.7121308624833541 -0.06937336165863266 0.6986107438272725
vn -0.015005146057995399 0.9933743704035541 0.11393948313521737
vn 0.015005146057995399 -0.9933743704035541 -0.11393948313521737
vn -0.38761821945031133 0.09926239659569897 -0.9164600878228405
vn 0.38761821945031133 -0.09926239659569897 0.9164600878228405
vn -0.7975156805778649 0.05684346948084865 -0.6006143181858096
vn 0.7975156805778649 -0.05684346948084865 0.6006143181858096
vn 0.6129060484153493 0.09917184712384769 -0.7839075969487256
vn 0.50400015490537 0.10593142512983393 -0.8571828142382026
vn -0.50400015490537 -0.10593142512983393 0.8571828142382026
vn -0.6129060484153493 -0.09917184712384769 0.7839075969487256
vn 0.7109256946002999 0.09072894484216468 -0.697390074008018
vn -0.7109256946002999 -0.09072894484216468 0.697390074008018
vn -0.2627177688367815 0.10603167873869009 -0.95902901783068
vn 0.2627177688367815 -0.10603167873869009 0.95902901783068
vn 0.3860364318758944 0.11087250877253496 -0.9157964621372
vn -0.3860364318758944 -0.11087250877253496 0.9157964621372
vn 0.7964798399603056 0.08076430647329523 -0.5992470202985524
vn -0.7964798399603056 -0.08076430647329523 0.5992470202985524
vn -0.8690956934772227 0.043388808271246956 -0.49273734067568503
vn 0.8690956934772227 -0.043388808271246956 0.49273734067568503
vn -0.13301000518581874 0.1109565248014569 -0.9848842511302798
vn 0.13301000518581874 -0.1109565248014569 0.9848842511302798
vn 0.26106229668721 0.11389196278959018 -0.9585797296314656
vn -0.26106229668721 -0.11389196278959018 0.9585797296314656
vn 0.8682462194584478 0.06946082175184212 -0.49124708308311776
vn -0.8682462194584478 -0.06946082175184212 0.49124708308311776
vn -0.9258108310170541 0.0292404147223979 -0.37685448560203444
vn 0.9258108310170541 -0.0292404147223979 0.37685448560203444
vn 0.9251615245442766 0.057017662164071115 -0.3752667580591891
vn -0.9251615245442766 -0.057017662164071115 0.3752667580591891
vn -0.03399566668431053 0.11337958650490515 -0.992969971353951
vn 0.03399566668431053 -0.11337958650490515 0.992969971353951
vn 0.13130969924038 0.11492312852273716 -0.9846575229062883
vn -0.13130969924038 -0.11492312852273716 0.9846575229062883
vn 0.0322812532749417 0.11437419369060882 -0.9929131203205155
vn -0.0322812532749417 -0.11437419369060882 0.9929131203205155
vn -0.9668532751089518 0.014633829774545887 -0.25491291736046434
vn 0.9668532751089518 -0.014633829774545887 0.25491291736046434
vn 0.9664145739553832 0.04364607258473411 -0.2532545983680524
vn -0.9664145739553832 -0.04364607258473411 0.2532545983680524
vn -0.9916565095607531 -0.00019349665764915424 -0.12890822163394833
vn 0.9916565095607531 0.00019349665764915424 0.12890822163394833
vn 0.9914354050786988 0.029566447972002734 -0.12720716454176273
vn -0.9914354050786988 -0.029566447972002734 0.12720716454176273
vn -0.9993929729350574 -0.011316865587897844 -0.03294866008342826
vn 0.9993929729350574 0.011316865587897844 0.03294866008342826
vn 0.9993375638645502 0.018677765354644837 -0.03123418848990707
vn -0.9993375638645502 -0.018677765354644837 0.03123418848990707
usemtl material_0_0
f 1//1 2//2 3//2
f 2//2 1//1 4//1
f 3//3 2//3 1//4
f 4//4 1//4 2//3
f 5//5 3//2 2//2
f 2//3 3//3 5//6
f 6//7 1//7 3//7
f 3//8 1//8 6//8
f 7//9 4//1 1//1
f 1//4 4//4 7//10
f 4//8 8//8 2//8
f 2//7 8//7 4//7
f 3//2 5//5 9//5
f 9//6 5//6 3//3
f 2//8 10//8 5//8
f 5//7 10//7 2//7
f 11//7 1//7 6//7
f 6//8 1//8 11//8
f 6//7 3//7 12//7
f 12//8 3//8 6//8
f 4//1 7//9 13//9
f 13//10 7//10 4//4
f 11//7 7//7 1//7
f 1//8 7//8 11//8
f 4//8 14//8 8//8
f 8//7 14//7 4//7
f 2//8 8//8 10//8
f 10//7 8//7 2//7
f 5//5 15//11 9//5
f 9//6 15//12 5//6
f 12//7 3//7 9//7
f 9//8 3//8 12//8
f 5//8 10//8 16//8
f 16//7 10//7 5//7
f 6//13 14//14 11//14
f 11//15 14//15 6//16
f 12//17 8//13 6//13
f 6//16 8//16 12//18
f 17//19 13//9 7//9
f 7//10 13//10 17//20
f 13//8 14//8 4//8
f 4//7 14//7 13//7
f 18//7 7//7 11//7
f 11//8 7//8 18//8
f 14//14 6//13 8//13
f 8//16 6//16 14//15
f 8//13 12//17 10//17
f 10//18 12//18 8//16
f 15//11 5//5 16//11
f 16//12 5//6 15//12
f 19//7 9//7 15//7
f 15//8 9//8 19//8
f 12//7 9//7 19//7
f 19//8 9//8 12//8
f 16//8 10//8 20//8
f 20//7 10//7 16//7
f 21//21 11//14 14//14
f 14//15 11//15 21//22
f 13//9 17//19 22//19
f 22//20 17//20 13//10
f 18//7 17//7 7//7
f 7//8 17//8 18//8
f 13//8 21//8 14//8
f 14//7 21//7 13//7
f 11//14 21//21 18//21
f 18//22 21//22 11//15
f 19//23 10//17 12//17
f 12//18 10//18 19//24
f 16//11 23//25 15//11
f 15//12 23//26 16//12
f 19//7 15//7 23//7
f 23//8 15//8 19//8
f 10//17 19//23 20//23
f 20//24 19//24 10//18
f 16//8 20//8 24//8
f 24//7 20//7 16//7
f 25//27 22//19 17//19
f 17//20 22//20 25//28
f 22//8 21//8 13//8
f 13//7 21//7 22//7
f 26//7 17//7 18//7
f 18//8 17//8 26//8
f 27//29 18//21 21//21
f 21//22 18//22 27//30
f 23//25 16//11 28//25
f 28//26 16//12 23//26
f 19//7 23//7 29//7
f 29//8 23//8 19//8
f 29//31 20//23 19//23
f 19//24 20//24 29//32
f 20//23 29//31 24//31
f 24//32 29//32 20//24
f 16//8 24//8 28//8
f 28//7 24//7 16//7
f 22//19 25//27 30//27
f 30//28 25//28 22//20
f 31//7 25//7 17//7
f 17//8 25//8 31//8
f 22//8 27//8 21//8
f 21//7 27//7 22//7
f 31//7 17//7 26//7
f 26//8 17//8 31//8
f 18//21 27//29 26//29
f 26//30 27//30 18//22
f 32//33 23//25 28//25
f 28//26 23//26 32//34
f 29//7 23//7 33//7
f 33//8 23//8 29//8
f 29//31 34//35 24//31
f 24//32 34//36 29//32
f 28//8 24//8 34//8
f 34//7 24//7 28//7
f 35//37 30//27 25//27
f 25//28 30//28 35//38
f 30//8 36//8 22//8
f 22//7 36//7 30//7
f 37//7 25//7 31//7
f 31//8 25//8 37//8
f 22//8 36//8 27//8
f 27//7 36//7 22//7
f 26//29 36//39 31//39
f 31//40 36//40 26//30
f 36//39 26//29 27//29
f 27//30 26//30 36//40
f 23//25 32//33 38//33
f 38//34 32//34 23//26
f 28//8 34//8 32//8
f 32//7 34//7 28//7
f 33//7 23//7 38//7
f 38//8 23//8 33//8
f 34//35 29//31 33//35
f 33//36 29//32 34//36
f 30//27 35//37 39//37
f 39//38 35//38 30//28
f 25//7 37//7 35//7
f 35//8 37//8 25//8
f 30//8 40//8 36//8
f 36//7 40//7 30//7
f 31//39 40//41 37//41
f 37//42 40//42 31//40
f 40//41 31//39 36//39
f 36//40 31//40 40//42
f 32//33 41//43 38//33
f 38//34 41//44 32//34
f 32//8 34//8 42//8
f 42//7 34//7 32//7
f 33//7 38//7 41//7
f 41//8 38//8 33//8
f 33//35 42//45 34//35
f 34//36 42//46 33//36
f 37//41 39//37 35//37
f 35//38 39//38 37//42
f 40//8 30//8 39//8
f 39//7 30//7 40//7
f 39//37 37//41 40//41
f 40//42 37//42 39//38
f 41//43 32//33 43//43
f 43//44 32//34 41//44
f 32//8 42//8 43//8
f 43//7 42//7 32//7
f 33//7 41//7 44//7
f 44//8 41//8 33//8
f 42//45 33//35 44//45
f 44//46 33//36 42//46
f 43//43 45//47 41//43
f 41//44 45//48 43//44
f 43//8 42//8 46//8
f 46//7 42//7 43//7
f 44//7 41//7 45//7
f 45//8 41//8 44//8
f 44//45 46//49 42//45
f 42//46 46//50 44//46
f 45//47 43//43 47//47
f 47//48 43//44 45//48
f 43//8 46//8 47//8
f 47//7 46//7 43//7
f 44//7 45//7 48//7
f 48//8 45//8 44//8
f 46//49 44//45 48//49
f 48//50 44//46 46//50
f 47//47 49//51 45//47
f 45//48 49//52 47//48
f 47//8 46//8 50//8
f 50//7 46//7 47//7
f 48//7 45//7 51//7
f 51//8 45//8 48//8
f 51//53 46//49 48//49
f 48//50 46//50 51//54
f 49//51 47//47 50//51
f 50//52 47//48 49//52
f 51//7 45//7 49//7
f 49//8 45//8 51//8
f 50//8 46//8 52//8
f 52//7 46//7 50//7
f 46//49 51//53 52//53
f 52//54 51//54 46//50
f 50//51 53//54 49//51
f 49//52 53//53 50//52
f 51//7 49//7 54//7
f 54//8 49//8 51//8
f 50//8 52//8 55//8
f 55//7 52//7 50//7
f 51//53 55//52 52//53
f 52//54 55//51 51//54
f 53//54 50//51 56//54
f 56//53 50//52 53//53
f 54//7 49//7 53//7
f 53//8 49//8 54//8
f 55//52 51//53 54//52
f 54//51 51//54 55//51
f 50//8 55//8 56//8
f 56//7 55//7 50//7
f 56//54 57//50 53//54
f 53//53 57//49 56//53
f 54//7 53//7 57//7
f 57//8 53//8 54//8
f 54//52 58//48 55//52
f 55//51 58//47 54//51
f 56//8 55//8 58//8
f 58//7 55//7 56//7
f 57//50 56//54 59//50
f 59//49 56//53 57//49
f 54//7 57//7 60//7
f 60//8 57//8 54//8
f 58//48 54//52 60//48
f 60//47 54//51 58//47
f 56//8 58//8 59//8
f 59//7 58//7 56//7
f 59//50 61//46 57//50
f 57//49 61//45 59//49
f 60//7 57//7 61//7
f 61//8 57//8 60//8
f 60//48 62//44 58//48
f 58//47 62//43 60//47
f 59//8 58//8 63//8
f 63//7 58//7 59//7
f 61//46 59//50 63//46
f 63//45 59//49 61//45
f 60//7 61//7 64//7
f 64//8 61//8 60//8
f 62//44 60//48 64//44
f 64//43 60//47 62//43
f 63//8 58//8 62//8
f 62//7 58//7 63//7
f 63//46 65//36 61//46
f 61//45 65//35 63//45
f 64//7 61//7 65//7
f 65//8 61//8 64//8
f 64//44 66//34 62//44
f 62//43 66//33 64//43
f 63//8 62//8 66//8
f 66//7 62//7 63//7
f 65//36 63//46 67//36
f 67//35 63//45 65//35
f 64//7 65//7 68//7
f 68//8 65//8 64//8
f 66//34 64//44 68//34
f 68//33 64//43 66//33
f 63//8 66//8 67//8
f 67//7 66//7 63//7
f 69//32 65//36 67//36
f 67//35 65//35 69//31
f 68//7 65//7 70//7
f 70//8 65//8 68//8
f 71//26 66//34 68//34
f 68//33 66//33 71//25
f 67//8 66//8 72//8
f 72//7 66//7 67//7
f 65//36 69//32 70//32
f 70//31 69//31 65//35
f 67//8 72//8 69//8
f 69//7 72//7 67//7
f 68//7 70//7 71//7
f 71//8 70//8 68//8
f 66//34 71//26 72//26
f 72//25 71//25 66//33
f 69//32 73//24 70//32
f 70//31 73//23 69//31
f 69//8 72//8 74//8
f 74//7 72//7 69//7
f 71//7 70//7 73//7
f 73//8 70//8 71//8
f 71//26 75//12 72//26
f 72//25 75//11 71//25
f 73//24 69//32 74//24
f 74//23 69//31 73//23
f 74//8 72//8 75//8
f 75//7 72//7 74//7
f 71//7 73//7 76//7
f 76//8 73//8 71//8
f 75//12 71//26 76//12
f 76//11 71//25 75//11
f 74//24 77//18 73//24
f 73//23 77//17 74//23
f 74//8 75//8 78//8
f 78//7 75//7 74//7
f 76//7 73//7 77//7
f 77//8 73//8 76//8
f 76//12 78//6 75//12
f 75//11 78//5 76//11
f 77//18 74//24 79//18
f 79//17 74//23 77//17
f 74//8 78//8 79//8
f 79//7 78//7 74//7
f 76//7 77//7 80//7
f 80//8 77//8 76//8
f 78//6 76//12 80//6
f 80//5 76//11 78//5
f 79//18 81//16 77//18
f 77//17 81//13 79//17
f 79//8 78//8 82//8
f 82//7 78//7 79//7
f 80//7 77//7 83//7
f 83//8 77//8 80//8
f 80//6 84//3 78//6
f 78//5 84//2 80//5
f 81//16 79//18 82//16
f 82//13 79//17 81//13
f 83//7 77//7 81//7
f 81//8 77//8 83//8
f 82//8 78//8 84//8
f 84//7 78//7 82//7
f 84//3 80//6 83//3
f 83//2 80//5 84//2
f 85//15 81//16 82//16
f 82//13 81//13 85//14
f 83//7 81//7 86//7
f 86//8 81//8 83//8
f 82//8 84//8 87//8
f 87//7 84//7 82//7
f 83//3 87//4 84//3
f 84//2 87//1 83//2
f 81//16 85//15 88//15
f 88//14 85//14 81//13
f 82//8 87//8 85//8
f 85//7 87//7 82//7
f 86//7 81//7 88//7
f 88//8 81//8 86//8
f 87//4 83//3 86//4
f 86//1 83//2 87//1
f 89//22 88//15 85//15
f 85//14 88//14 89//21
f 85//8 87//8 90//8
f 90//7 87//7 85//7
f 86//7 88//7 91//7
f 91//8 88//8 86//8
f 92//10 87//4 86//4
f 86//1 87//1 92//9
f 88//15 89//22 91//22
f 91//21 89//21 88//14
f 85//8 90//8 89//8
f 89//7 90//7 85//7
f 87//4 92//10 90//10
f 90//9 92//9 87//1
f 86//7 91//7 92//7
f 92//8 91//8 86//8
f 89//22 93//30 91//22
f 91//21 93//29 89//21
f 89//8 90//8 94//8
f 94//7 90//7 89//7
f 92//10 95//20 90//10
f 90//9 95//19 92//9
f 92//7 91//7 93//7
f 93//8 91//8 92//8
f 93//30 89//22 94//30
f 94//29 89//21 93//29
f 94//8 90//8 95//8
f 95//7 90//7 94//7
f 95//20 92//10 96//20
f 96//19 92//9 95//19
f 92//7 93//7 96//7
f 96//8 93//8 92//8
f 94//30 97//40 93//30
f 93//29 97//39 94//29
f 94//8 95//8 98//8
f 98//7 95//7 94//7
f 96//20 99//28 95//20
f 95//19 99//27 96//19
f 96//7 93//7 97//7
f 97//8 93//8 96//8
f 97//40 94//30 98//40
f 98//39 94//29 97//39
f 98//8 95//8 99//8
f 99//7 95//7 98//7
f 99//28 96//20 100//28
f 100//27 96//19 99//27
f 96//7 97//7 100//7
f 100//8 97//8 96//8
f 98//40 101//42 97//40
f 97//39 101//41 98//39
f 98//8 99//8 102//8
f 102//7 99//7 98//7
f 103//38 99//28 100//28
f 100//27 99//27 103//37
f 100//7 97//7 101//7
f 101//8 97//8 100//8
f 101//42 98//40 104//42
f 104//41 98//39 101//41
f 99//28 103//38 102//38
f 102//37 103//37 99//27
f 98//8 102//8 104//8
f 104//7 102//7 98//7
f 100//7 101//7 103//7
f 103//8 101//8 100//8
f 104//42 103//38 101//42
f 101//41 103//37 104//41
f 103//38 104//42 102//38
f 102//37 104//41 103//37
