# SSTK version 0.8.0
# 74
mtllib original-74.mtl
o mesh80/mesh80-geometry#mesh80-geometry
v 0.136637 -0.233457 0.324743
v 0.135641 -0.241397 0.324219
v 0.135522 -0.233518 0.325123
v 0.136756 -0.241336 0.323839
v 0.134586 -0.241473 0.324743
v 0.219817 -0.232253 0.325195
v 0.137792 -0.233413 0.324513
v 0.219936 -0.240132 0.324291
v 0.134467 -0.233594 0.325646
v 0.220993 -0.240176 0.324817
v 0.218701 -0.232226 0.324813
v 0.220874 -0.232297 0.325720
v 0.137911 -0.241293 0.323609
v 0.217546 -0.232216 0.324581
v 0.218820 -0.240105 0.323909
v 0.133607 -0.241563 0.325400
v 0.221973 -0.240237 0.325476
v 0.138967 -0.233387 0.324436
v 0.217665 -0.240096 0.323677
v 0.216371 -0.232225 0.324502
v 0.133488 -0.233684 0.326304
v 0.221854 -0.232358 0.326380
v 0.139086 -0.241266 0.323532
v 0.216490 -0.240104 0.323599
v 0.132722 -0.241666 0.326181
v 0.222859 -0.240313 0.326258
v 0.222740 -0.232434 0.327162
v 0.132603 -0.233787 0.327085
v 0.131827 -0.233901 0.327975
v 0.131946 -0.241780 0.327072
v 0.223636 -0.240404 0.327150
v 0.223517 -0.232525 0.328054
v 0.131293 -0.241903 0.328057
v 0.224172 -0.232628 0.329040
v 0.131174 -0.234023 0.328960
v 0.224291 -0.240507 0.328137
v 0.130654 -0.234153 0.330023
v 0.224813 -0.240621 0.329200
v 0.224694 -0.232742 0.330104
v 0.130773 -0.242032 0.329119
v 0.130395 -0.242167 0.330242
v 0.130276 -0.234288 0.331145
v 0.225193 -0.240744 0.330323
v 0.225074 -0.232865 0.331227
v 0.130047 -0.234424 0.332308
v 0.225423 -0.240874 0.331486
v 0.130166 -0.242304 0.331404
v 0.225304 -0.232995 0.332389
v 0.129971 -0.234561 0.333491
v 0.130090 -0.242440 0.332587
v 0.225382 -0.233129 0.333572
v 0.225501 -0.241009 0.332669
v 0.130154 -0.250868 0.406069
v 0.225565 -0.249436 0.406151
v 0.130035 -0.242989 0.406973
v 0.225446 -0.241557 0.407055
v 0.130113 -0.243123 0.408156
v 0.130232 -0.251002 0.407252
v 0.225370 -0.241694 0.408238
v 0.225489 -0.249573 0.407334
v 0.130344 -0.243253 0.409319
v 0.225260 -0.249710 0.408497
v 0.130463 -0.251132 0.408415
v 0.225141 -0.241830 0.409400
v 0.130842 -0.251255 0.409538
v 0.224763 -0.241965 0.410522
v 0.224882 -0.249844 0.409619
v 0.130723 -0.243376 0.410442
v 0.131245 -0.243490 0.411505
v 0.224362 -0.249974 0.410681
v 0.131364 -0.251369 0.410602
v 0.224243 -0.242095 0.411585
v 0.131900 -0.243593 0.412492
v 0.223709 -0.250097 0.411666
v 0.132019 -0.251473 0.411588
v 0.223590 -0.242217 0.412570
v 0.132797 -0.251563 0.412480
v 0.222933 -0.250211 0.412557
v 0.132678 -0.243684 0.413383
v 0.222814 -0.242331 0.413461
v 0.133564 -0.243760 0.414166
v 0.222048 -0.250314 0.413338
v 0.133683 -0.251640 0.413262
v 0.221929 -0.242434 0.414242
v 0.134663 -0.251700 0.413921
v 0.221070 -0.250404 0.413996
v 0.220951 -0.242524 0.414899
v 0.134544 -0.243821 0.414825
v 0.135719 -0.251745 0.414447
v 0.220014 -0.250480 0.414519
v 0.219895 -0.242600 0.415423
v 0.135600 -0.243865 0.415350
v 0.136716 -0.243892 0.415732
v 0.218899 -0.250540 0.414899
v 0.218780 -0.242661 0.415803
v 0.136835 -0.251772 0.414829
v 0.137990 -0.251781 0.415061
v 0.217625 -0.242705 0.416033
v 0.137871 -0.243902 0.415965
v 0.217744 -0.250584 0.415129
v 0.139166 -0.251772 0.415139
v 0.216450 -0.242731 0.416110
v 0.139047 -0.243893 0.416043
v 0.216569 -0.250611 0.415206
vn -0.2627177688367815 0.10603167873869009 -0.95902901783068
vn -0.38761821945031133 0.09926239659569897 -0.9164600878228405
vn 0.38761821945031133 -0.09926239659569897 0.9164600878228405
vn 0.2627177688367815 -0.10603167873869009 0.95902901783068
vn -0.5054809147582989 0.09078230343955943 -0.8580487271695711
vn 0.5054809147582989 -0.09078230343955943 0.8580487271695711
vn -0.015005146057995399 0.9933743704035541 0.11393948313521737
vn 0.015005146057995399 -0.9933743704035541 -0.11393948313521737
vn -0.13301000518581874 0.1109565248014569 -0.9848842511302798
vn 0.13301000518581874 -0.1109565248014569 0.9848842511302798
vn -0.6142604524393624 0.08075595482596612 -0.784960236145205
vn 0.6142604524393624 -0.08075595482596612 0.784960236145205
vn 0.3860364318758944 0.11087250877253496 -0.9157964621372
vn 0.26106229668721 0.11389196278959018 -0.9585797296314656
vn -0.26106229668721 -0.11389196278959018 0.9585797296314656
vn -0.3860364318758944 -0.11087250877253496 0.9157964621372
vn 0.50400015490537 0.10593142512983393 -0.8571828142382026
vn -0.50400015490537 -0.10593142512983393 0.8571828142382026
vn -0.03399566668431053 0.11337958650490515 -0.992969971353951
vn 0.03399566668431053 -0.11337958650490515 0.992969971353951
vn 0.6129060484153493 0.09917184712384769 -0.7839075969487256
vn -0.6129060484153493 -0.09917184712384769 0.7839075969487256
vn 0.13130969924038 0.11492312852273716 -0.9846575229062883
vn -0.13130969924038 -0.11492312852273716 0.9846575229062883
vn 0.0322812532749417 0.11437419369060882 -0.9929131203205155
vn -0.0322812532749417 -0.11437419369060882 0.9929131203205155
vn -0.7121308624833541 0.06937336165863266 -0.6986107438272725
vn 0.7121308624833541 -0.06937336165863266 0.6986107438272725
vn 0.7109256946002999 0.09072894484216468 -0.697390074008018
vn -0.7109256946002999 -0.09072894484216468 0.697390074008018
vn -0.7975156805778649 0.05684346948084865 -0.6006143181858096
vn 0.7975156805778649 -0.05684346948084865 0.6006143181858096
vn 0.7964798399603056 0.08076430647329523 -0.5992470202985524
vn -0.7964798399603056 -0.08076430647329523 0.5992470202985524
vn -0.8690956934772227 0.043388808271246956 -0.49273734067568503
vn 0.8690956934772227 -0.043388808271246956 0.49273734067568503
vn 0.8682462194584478 0.06946082175184212 -0.49124708308311776
vn -0.8682462194584478 -0.06946082175184212 0.49124708308311776
vn -0.9258108310170541 0.0292404147223979 -0.37685448560203444
vn 0.9258108310170541 -0.0292404147223979 0.37685448560203444
vn 0.9251615245442766 0.057017662164071115 -0.3752667580591891
vn -0.9251615245442766 -0.057017662164071115 0.3752667580591891
vn -0.9668532751089518 0.014633829774545887 -0.25491291736046434
vn 0.9668532751089518 -0.014633829774545887 0.25491291736046434
vn 0.9664145739553832 0.04364607258473411 -0.2532545983680524
vn -0.9664145739553832 -0.04364607258473411 0.2532545983680524
vn -0.9916565095607531 -0.00019349665764915424 -0.12890822163394833
vn 0.9916565095607531 0.00019349665764915424 0.12890822163394833
vn 0.9914354050786988 0.029566447972002734 -0.12720716454176273
vn -0.9914354050786988 -0.029566447972002734 0.12720716454176273
vn -0.9993929729350574 -0.011316865587897844 -0.03294866008342826
vn 0.9993929729350574 0.011316865587897844 0.03294866008342826
vn 0.9993375638645502 0.018677765354644837 -0.03123418848990707
vn -0.9993375638645502 -0.018677765354644837 0.03123418848990707
usemtl material_0_0
f 1//1 2//2 3//2
f 2//2 1//1 4//1
f 3//3 2//3 1//4
f 4//4 1//4 2//3
f 5//5 3//2 2//2
f 2//3 3//3 5//6
f 6//7 1//7 3//7
f 3//8 1//8 6//8
f 7//9 4//1 1//1
f 1//4 4//4 7//10
f 4//8 8//8 2//8
f 2//7 8//7 4//7
f 3//2 5//5 9//5
f 9//6 5//6 3//3
f 2//8 10//8 5//8
f 5//7 10//7 2//7
f 11//7 1//7 6//7
f 6//8 1//8 11//8
f 6//7 3//7 12//7
f 12//8 3//8 6//8
f 4//1 7//9 13//9
f 13//10 7//10 4//4
f 14//7 7//7 1//7
f 1//8 7//8 14//8
f 4//8 15//8 8//8
f 8//7 15//7 4//7
f 2//8 8//8 10//8
f 10//7 8//7 2//7
f 16//11 9//5 5//5
f 5//6 9//6 16//12
f 12//7 3//7 9//7
f 9//8 3//8 12//8
f 5//8 10//8 17//8
f 17//7 10//7 5//7
f 14//7 1//7 11//7
f 11//8 1//8 14//8
f 6//13 15//14 11//14
f 11//15 15//15 6//16
f 12//17 8//13 6//13
f 6//16 8//16 12//18
f 18//19 13//9 7//9
f 7//10 13//10 18//20
f 13//8 19//8 4//8
f 4//7 19//7 13//7
f 20//7 7//7 14//7
f 14//8 7//8 20//8
f 4//8 19//8 15//8
f 15//7 19//7 4//7
f 15//14 6//13 8//13
f 8//16 6//16 15//15
f 8//13 12//17 10//17
f 10//18 12//18 8//16
f 9//5 16//11 21//11
f 21//12 16//12 9//6
f 5//8 17//8 16//8
f 16//7 17//7 5//7
f 12//7 9//7 22//7
f 22//8 9//8 12//8
f 10//17 22//21 17//21
f 17//22 22//22 10//18
f 11//14 19//23 14//23
f 14//24 19//24 11//15
f 19//23 11//14 15//14
f 15//15 11//15 19//24
f 13//9 18//19 23//19
f 23//20 18//20 13//10
f 7//7 20//7 18//7
f 18//8 20//8 7//8
f 23//8 19//8 13//8
f 13//7 19//7 23//7
f 14//23 24//25 20//25
f 20//26 24//26 14//24
f 22//21 10//17 12//17
f 12//18 10//18 22//22
f 25//27 21//11 16//11
f 16//12 21//12 25//28
f 22//7 9//7 21//7
f 21//8 9//8 22//8
f 16//8 17//8 26//8
f 26//7 17//7 16//7
f 27//29 17//21 22//21
f 22//22 17//22 27//30
f 24//25 14//23 19//23
f 19//24 14//24 24//26
f 20//25 23//19 18//19
f 18//20 23//20 20//26
f 19//8 23//8 24//8
f 24//7 23//7 19//7
f 23//19 20//25 24//25
f 24//26 20//26 23//20
f 21//11 25//27 28//27
f 28//28 25//28 21//12
f 16//8 26//8 25//8
f 25//7 26//7 16//7
f 22//7 21//7 28//7
f 28//8 21//8 22//8
f 17//21 27//29 26//29
f 26//30 27//30 17//22
f 22//7 28//7 27//7
f 27//8 28//8 22//8
f 25//27 29//31 28//27
f 28//28 29//32 25//28
f 25//8 26//8 30//8
f 30//7 26//7 25//7
f 27//29 31//33 26//29
f 26//30 31//34 27//30
f 27//7 28//7 29//7
f 29//8 28//8 27//8
f 29//31 25//27 30//31
f 30//32 25//28 29//32
f 30//8 26//8 31//8
f 31//7 26//7 30//7
f 31//33 27//29 32//33
f 32//34 27//30 31//34
f 27//7 29//7 32//7
f 32//8 29//8 27//8
f 33//35 29//31 30//31
f 30//32 29//32 33//36
f 30//8 31//8 33//8
f 33//7 31//7 30//7
f 34//37 31//33 32//33
f 32//34 31//34 34//38
f 32//7 29//7 35//7
f 35//8 29//8 32//8
f 29//31 33//35 35//35
f 35//36 33//36 29//32
f 33//8 31//8 36//8
f 36//7 31//7 33//7
f 31//33 34//37 36//37
f 36//38 34//38 31//34
f 32//7 35//7 34//7
f 34//8 35//8 32//8
f 33//35 37//39 35//35
f 35//36 37//40 33//36
f 33//8 36//8 38//8
f 38//7 36//7 33//7
f 34//37 38//41 36//37
f 36//38 38//42 34//38
f 34//7 35//7 39//7
f 39//8 35//8 34//8
f 37//39 33//35 40//39
f 40//40 33//36 37//40
f 39//7 35//7 37//7
f 37//8 35//8 39//8
f 33//8 38//8 40//8
f 40//7 38//7 33//7
f 38//41 34//37 39//41
f 39//42 34//38 38//42
f 41//43 37//39 40//39
f 40//40 37//40 41//44
f 39//7 37//7 42//7
f 42//8 37//8 39//8
f 40//8 38//8 43//8
f 43//7 38//7 40//7
f 39//41 43//45 38//41
f 38//42 43//46 39//42
f 37//39 41//43 42//43
f 42//44 41//44 37//40
f 40//8 43//8 41//8
f 41//7 43//7 40//7
f 39//7 42//7 44//7
f 44//8 42//8 39//8
f 43//45 39//41 44//45
f 44//46 39//42 43//46
f 41//43 45//47 42//43
f 42//44 45//48 41//44
f 41//8 43//8 46//8
f 46//7 43//7 41//7
f 44//7 42//7 45//7
f 45//8 42//8 44//8
f 44//45 46//49 43//45
f 43//46 46//50 44//46
f 45//47 41//43 47//47
f 47//48 41//44 45//48
f 41//8 46//8 47//8
f 47//7 46//7 41//7
f 44//7 45//7 48//7
f 48//8 45//8 44//8
f 46//49 44//45 48//49
f 48//50 44//46 46//50
f 47//47 49//51 45//47
f 45//48 49//52 47//48
f 47//8 46//8 50//8
f 50//7 46//7 47//7
f 48//7 45//7 49//7
f 49//8 45//8 48//8
f 51//53 46//49 48//49
f 48//50 46//50 51//54
f 49//51 47//47 50//51
f 50//52 47//48 49//52
f 50//8 46//8 52//8
f 52//7 46//7 50//7
f 48//7 49//7 51//7
f 51//8 49//8 48//8
f 46//49 51//53 52//53
f 52//54 51//54 46//50
f 53//54 49//51 50//51
f 50//52 49//52 53//53
f 50//8 52//8 54//8
f 54//7 52//7 50//7
f 51//7 49//7 55//7
f 55//8 49//8 51//8
f 51//53 54//52 52//53
f 52//54 54//51 51//54
f 49//51 53//54 55//54
f 55//53 53//53 49//52
f 50//8 54//8 53//8
f 53//7 54//7 50//7
f 51//7 55//7 56//7
f 56//8 55//8 51//8
f 54//52 51//53 56//52
f 56//51 51//54 54//51
f 53//54 57//50 55//54
f 55//53 57//49 53//53
f 53//8 54//8 58//8
f 58//7 54//7 53//7
f 56//7 55//7 57//7
f 57//8 55//8 56//8
f 59//48 54//52 56//52
f 56//51 54//51 59//47
f 57//50 53//54 58//50
f 58//49 53//53 57//49
f 58//8 54//8 60//8
f 60//7 54//7 58//7
f 56//7 57//7 59//7
f 59//8 57//8 56//8
f 54//52 59//48 60//48
f 60//47 59//47 54//51
f 58//50 61//46 57//50
f 57//49 61//45 58//49
f 58//8 60//8 62//8
f 62//7 60//7 58//7
f 59//7 57//7 61//7
f 61//8 57//8 59//8
f 59//48 62//44 60//48
f 60//47 62//43 59//47
f 61//46 58//50 63//46
f 63//45 58//49 61//45
f 58//8 62//8 63//8
f 63//7 62//7 58//7
f 59//7 61//7 64//7
f 64//8 61//8 59//8
f 62//44 59//48 64//44
f 64//43 59//47 62//43
f 65//42 61//46 63//46
f 63//45 61//45 65//41
f 63//8 62//8 65//8
f 65//7 62//7 63//7
f 64//7 61//7 66//7
f 66//8 61//8 64//8
f 64//44 67//40 62//44
f 62//43 67//39 64//43
f 61//46 65//42 68//42
f 68//41 65//41 61//45
f 65//8 62//8 67//8
f 67//7 62//7 65//7
f 66//7 61//7 68//7
f 68//8 61//8 66//8
f 67//40 64//44 66//40
f 66//39 64//43 67//39
f 65//42 69//38 68//42
f 68//41 69//37 65//41
f 65//8 67//8 70//8
f 70//7 67//7 65//7
f 66//7 68//7 69//7
f 69//8 68//8 66//8
f 66//40 70//36 67//40
f 67//39 70//35 66//39
f 69//38 65//42 71//38
f 71//37 65//41 69//37
f 65//8 70//8 71//8
f 71//7 70//7 65//7
f 66//7 69//7 72//7
f 72//8 69//8 66//8
f 70//36 66//40 72//36
f 72//35 66//39 70//35
f 71//38 73//34 69//38
f 69//37 73//33 71//37
f 71//8 70//8 74//8
f 74//7 70//7 71//7
f 72//7 69//7 73//7
f 73//8 69//8 72//8
f 72//36 74//32 70//36
f 70//35 74//31 72//35
f 73//34 71//38 75//34
f 75//33 71//37 73//33
f 71//8 74//8 75//8
f 75//7 74//7 71//7
f 72//7 73//7 76//7
f 76//8 73//8 72//8
f 74//32 72//36 76//32
f 76//31 72//35 74//31
f 77//30 73//34 75//34
f 75//33 73//33 77//29
f 75//8 74//8 78//8
f 78//7 74//7 75//7
f 76//7 73//7 79//7
f 79//8 73//8 76//8
f 76//32 78//28 74//32
f 74//31 78//27 76//31
f 73//34 77//30 79//30
f 79//29 77//29 73//33
f 75//8 78//8 77//8
f 77//7 78//7 75//7
f 76//7 79//7 80//7
f 80//8 79//8 76//8
f 78//28 76//32 80//28
f 80//27 76//31 78//27
f 77//30 81//22 79//30
f 79//29 81//21 77//29
f 77//8 78//8 82//8
f 82//7 78//7 77//7
f 80//7 79//7 81//7
f 81//8 79//8 80//8
f 80//28 82//12 78//28
f 78//27 82//11 80//27
f 81//22 77//30 83//22
f 83//21 77//29 81//21
f 77//8 82//8 83//8
f 83//7 82//7 77//7
f 80//7 81//7 84//7
f 84//8 81//8 80//8
f 82//12 80//28 84//12
f 84//11 80//27 82//11
f 85//18 81//22 83//22
f 83//21 81//21 85//17
f 83//8 82//8 86//8
f 86//7 82//7 83//7
f 84//7 81//7 87//7
f 87//8 81//8 84//8
f 87//6 82//12 84//12
f 84//11 82//11 87//5
f 81//22 85//18 88//18
f 88//17 85//17 81//21
f 83//8 86//8 85//8
f 85//7 86//7 83//7
f 82//12 87//6 86//6
f 86//5 87//5 82//11
f 87//7 81//7 88//7
f 88//8 81//8 87//8
f 89//16 88//18 85//18
f 85//17 88//17 89//13
f 85//8 86//8 90//8
f 90//7 86//7 85//7
f 91//3 86//6 87//6
f 87//5 86//5 91//2
f 87//7 88//7 92//7
f 92//8 88//8 87//8
f 88//18 89//16 92//16
f 92//13 89//13 88//17
f 85//8 90//8 89//8
f 89//7 90//7 85//7
f 86//6 91//3 90//3
f 90//2 91//2 86//5
f 87//7 92//7 91//7
f 91//8 92//8 87//8
f 89//16 93//15 92//16
f 92//13 93//14 89//13
f 89//8 90//8 94//8
f 94//7 90//7 89//7
f 95//4 90//3 91//3
f 91//2 90//2 95//1
f 91//7 92//7 93//7
f 93//8 92//8 91//8
f 93//15 89//16 96//15
f 96//14 89//13 93//14
f 90//3 95//4 94//4
f 94//1 95//1 90//2
f 89//8 94//8 96//8
f 96//7 94//7 89//7
f 91//7 93//7 95//7
f 95//8 93//8 91//8
f 97//24 93//15 96//15
f 96//14 93//14 97//23
f 98//10 94//4 95//4
f 95//1 94//1 98//9
f 96//8 94//8 97//8
f 97//7 94//7 96//7
f 95//7 93//7 99//7
f 99//8 93//8 95//8
f 93//15 97//24 99//24
f 99//23 97//23 93//14
f 94//4 98//10 100//10
f 100//9 98//9 94//1
f 95//7 99//7 98//7
f 98//8 99//8 95//8
f 97//8 94//8 100//8
f 100//7 94//7 97//7
f 101//26 99//24 97//24
f 97//23 99//23 101//25
f 102//20 100//10 98//10
f 98//9 100//9 102//19
f 98//7 99//7 103//7
f 103//8 99//8 98//8
f 97//8 100//8 104//8
f 104//7 100//7 97//7
f 99//24 101//26 103//26
f 103//25 101//25 99//23
f 97//8 104//8 101//8
f 101//7 104//7 97//7
f 100//10 102//20 104//20
f 104//19 102//19 100//9
f 98//7 103//7 102//7
f 102//8 103//8 98//8
f 104//20 103//26 101//26
f 101//25 103//25 104//19
f 103//26 104//20 102//20
f 102//19 104//19 103//25
