# SSTK version 0.8.0
# 69
mtllib original-69.mtl
o mesh75/mesh75-geometry#mesh75-geometry
v -0.020664 -0.208389 0.015861
v -0.020705 -0.200645 0.017948
v -0.020586 -0.208524 0.017044
v -0.020783 -0.200510 0.016765
v -0.020523 -0.216951 0.090527
v -0.115921 -0.209819 0.015780
v -0.021014 -0.200380 0.015602
v -0.116040 -0.201940 0.016683
v -0.020642 -0.209072 0.091431
v -0.115997 -0.209956 0.016962
v -0.020895 -0.208260 0.014698
v -0.115812 -0.201803 0.015521
v -0.116116 -0.202076 0.017866
v -0.116053 -0.210504 0.091349
v -0.020599 -0.217088 0.091710
v -0.115934 -0.218383 0.090445
v -0.115693 -0.209682 0.014617
v -0.021394 -0.200257 0.014479
v -0.115975 -0.210638 0.092532
v -0.020718 -0.209209 0.092613
v -0.021275 -0.208136 0.013576
v -0.115434 -0.201668 0.014399
v -0.115315 -0.209548 0.013495
v -0.020828 -0.217225 0.092872
v -0.115856 -0.218518 0.091628
v -0.021797 -0.208022 0.012512
v -0.021916 -0.200143 0.013416
v -0.115744 -0.210768 0.093694
v -0.020947 -0.209346 0.093776
v -0.114914 -0.201539 0.013336
v -0.021205 -0.217359 0.093994
v -0.115625 -0.218648 0.092791
v -0.114795 -0.209418 0.012432
v -0.022571 -0.200040 0.012430
v -0.115365 -0.210891 0.094817
v -0.021324 -0.209480 0.094898
v -0.022452 -0.207919 0.011526
v -0.114261 -0.201416 0.012351
v -0.114142 -0.209295 0.011447
v -0.115246 -0.218771 0.093914
v -0.021725 -0.217489 0.095057
v -0.023348 -0.199949 0.011538
v -0.113485 -0.201302 0.011460
v -0.114843 -0.211005 0.095881
v -0.021844 -0.209610 0.095961
v -0.113366 -0.209181 0.010557
v -0.023229 -0.207829 0.010634
v -0.114724 -0.218885 0.094977
v -0.022379 -0.217612 0.096042
v -0.024115 -0.207752 0.009852
v -0.024234 -0.199873 0.010755
v -0.114188 -0.211109 0.096867
v -0.022498 -0.209733 0.096946
v -0.112481 -0.209078 0.009776
v -0.112600 -0.201199 0.010680
v -0.114069 -0.218988 0.095963
v -0.023274 -0.209847 0.097836
v -0.025095 -0.207691 0.009192
v -0.025214 -0.199812 0.010096
v -0.113410 -0.211199 0.097759
v -0.023155 -0.217726 0.096933
v -0.113291 -0.219079 0.096855
v -0.111621 -0.201109 0.010022
v -0.111502 -0.208988 0.009118
v -0.024158 -0.209950 0.098617
v -0.112524 -0.211276 0.098541
v -0.026152 -0.207647 0.008667
v -0.110446 -0.208912 0.008595
v -0.026271 -0.199768 0.009571
v -0.112405 -0.219155 0.097638
v -0.024039 -0.217829 0.097713
v -0.110565 -0.201033 0.009498
v -0.025137 -0.210040 0.099275
v -0.111544 -0.211336 0.099201
v -0.111425 -0.219216 0.098297
v -0.027267 -0.207620 0.008285
v -0.109450 -0.200972 0.009118
v -0.027386 -0.199741 0.009189
v -0.025018 -0.217919 0.098371
v -0.109331 -0.208852 0.008215
v -0.026193 -0.210116 0.099798
v -0.110368 -0.219260 0.098822
v -0.026074 -0.217995 0.098894
v -0.028423 -0.207611 0.008053
v -0.108296 -0.200929 0.008888
v -0.110488 -0.211381 0.099726
v -0.028542 -0.199732 0.008957
v -0.108177 -0.208808 0.007984
v -0.027308 -0.210176 0.100178
v -0.109372 -0.211408 0.100108
v -0.109253 -0.219287 0.099204
v -0.027189 -0.218055 0.099275
v -0.029598 -0.207620 0.007974
v -0.107001 -0.208781 0.007908
v -0.107120 -0.200902 0.008812
v -0.029717 -0.199740 0.008878
v -0.028463 -0.210220 0.100409
v -0.108098 -0.219296 0.099436
v -0.028344 -0.218099 0.099505
v -0.108217 -0.211417 0.100340
v -0.029519 -0.218126 0.099581
v -0.029638 -0.210247 0.100485
v -0.106922 -0.219287 0.099515
v -0.107041 -0.211408 0.100419
vn 0.9914354050786988 0.029566447972002734 -0.12720716454176273
vn 0.9993375638645502 0.018677765354644837 -0.03123418848990707
vn -0.9993375638645502 -0.018677765354644837 0.03123418848990707
vn -0.9914354050786988 -0.029566447972002734 0.12720716454176273
vn 0.9993929729350574 0.011316865587897844 0.03294866008342826
vn -0.9993929729350574 -0.011316865587897844 -0.03294866008342826
vn 0.015005146057995399 -0.9933743704035541 -0.11393948313521737
vn -0.015005146057995399 0.9933743704035541 0.11393948313521737
vn 0.9664145739553832 0.04364607258473411 -0.2532545983680524
vn -0.9664145739553832 -0.04364607258473411 0.2532545983680524
vn 0.9916565095607531 0.00019349665764915424 0.12890822163394833
vn -0.9916565095607531 -0.00019349665764915424 -0.12890822163394833
vn 0.9251615245442766 0.057017662164071115 -0.3752667580591891
vn -0.9251615245442766 -0.057017662164071115 0.3752667580591891
vn -0.9668532751089518 0.014633829774545887 -0.25491291736046434
vn 0.9668532751089518 -0.014633829774545887 0.25491291736046434
vn -0.9258108310170541 0.0292404147223979 -0.37685448560203444
vn 0.9258108310170541 -0.0292404147223979 0.37685448560203444
vn 0.8682462194584478 0.06946082175184212 -0.49124708308311776
vn -0.8682462194584478 -0.06946082175184212 0.49124708308311776
vn -0.8690956934772227 0.043388808271246956 -0.49273734067568503
vn 0.8690956934772227 -0.043388808271246956 0.49273734067568503
vn 0.7964798399603056 0.08076430647329523 -0.5992470202985524
vn -0.7964798399603056 -0.08076430647329523 0.5992470202985524
vn -0.7975156805778649 0.05684346948084865 -0.6006143181858096
vn 0.7975156805778649 -0.05684346948084865 0.6006143181858096
vn 0.7109256946002999 0.09072894484216468 -0.697390074008018
vn -0.7109256946002999 -0.09072894484216468 0.697390074008018
vn -0.7121308624833541 0.06937336165863266 -0.6986107438272725
vn 0.7121308624833541 -0.06937336165863266 0.6986107438272725
vn 0.6129060484153493 0.09917184712384769 -0.7839075969487256
vn -0.6129060484153493 -0.09917184712384769 0.7839075969487256
vn -0.6142604524393624 0.08075595482596612 -0.784960236145205
vn 0.6142604524393624 -0.08075595482596612 0.784960236145205
vn 0.50400015490537 0.10593142512983393 -0.8571828142382026
vn -0.50400015490537 -0.10593142512983393 0.8571828142382026
vn -0.5054809147582989 0.09078230343955943 -0.8580487271695711
vn 0.5054809147582989 -0.09078230343955943 0.8580487271695711
vn 0.3860364318758944 0.11087250877253496 -0.9157964621372
vn -0.3860364318758944 -0.11087250877253496 0.9157964621372
vn -0.38761821945031133 0.09926239659569897 -0.9164600878228405
vn 0.38761821945031133 -0.09926239659569897 0.9164600878228405
vn 0.26106229668721 0.11389196278959018 -0.9585797296314656
vn -0.26106229668721 -0.11389196278959018 0.9585797296314656
vn -0.2627177688367815 0.10603167873869009 -0.95902901783068
vn 0.2627177688367815 -0.10603167873869009 0.95902901783068
vn 0.13130969924038 0.11492312852273716 -0.9846575229062883
vn -0.13130969924038 -0.11492312852273716 0.9846575229062883
vn -0.13301000518581874 0.1109565248014569 -0.9848842511302798
vn 0.13301000518581874 -0.1109565248014569 0.9848842511302798
vn 0.0322812532749417 0.11437419369060882 -0.9929131203205155
vn -0.0322812532749417 -0.11437419369060882 0.9929131203205155
vn -0.03399566668431053 0.11337958650490515 -0.992969971353951
vn 0.03399566668431053 -0.11337958650490515 0.992969971353951
usemtl material_0_0
f 1//1 2//2 3//2
f 2//2 1//1 4//1
f 3//3 2//3 1//4
f 4//4 1//4 2//3
f 2//2 5//5 3//2
f 3//3 5//6 2//3
f 6//7 1//7 3//7
f 3//8 1//8 6//8
f 1//1 7//9 4//1
f 4//4 7//10 1//4
f 4//8 8//8 2//8
f 2//7 8//7 4//7
f 5//5 2//2 9//5
f 9//6 2//3 5//6
f 10//7 3//7 5//7
f 5//8 3//8 10//8
f 6//7 11//7 1//7
f 1//8 11//8 6//8
f 6//7 3//7 10//7
f 10//8 3//8 6//8
f 7//9 1//1 11//9
f 11//10 1//4 7//10
f 7//8 12//8 4//8
f 4//7 12//7 7//7
f 4//8 12//8 8//8
f 8//7 12//7 4//7
f 2//8 8//8 13//8
f 13//7 8//7 2//7
f 2//8 14//8 9//8
f 9//7 14//7 2//7
f 9//5 15//11 5//5
f 5//6 15//12 9//6
f 10//7 5//7 16//7
f 16//8 5//8 10//8
f 17//7 11//7 6//7
f 6//8 11//8 17//8
f 10//6 8//12 6//12
f 6//11 8//11 10//5
f 11//9 18//13 7//9
f 7//10 18//14 11//10
f 18//8 12//8 7//8
f 7//7 12//7 18//7
f 17//15 8//12 12//15
f 12//16 8//11 17//16
f 8//12 10//6 13//6
f 13//5 10//5 8//11
f 2//8 13//8 14//8
f 14//7 13//7 2//7
f 9//8 14//8 19//8
f 19//7 14//7 9//7
f 15//11 9//5 20//11
f 20//12 9//6 15//12
f 16//7 5//7 15//7
f 15//8 5//8 16//8
f 14//3 10//6 16//3
f 16//2 10//5 14//2
f 17//7 21//7 11//7
f 11//8 21//8 17//8
f 8//12 17//15 6//12
f 6//11 17//16 8//11
f 18//13 11//9 21//13
f 21//14 11//10 18//14
f 18//8 22//8 12//8
f 12//7 22//7 18//7
f 12//15 23//17 17//15
f 17//16 23//18 12//16
f 10//6 14//3 13//6
f 13//5 14//2 10//5
f 16//3 19//4 14//3
f 14//2 19//1 16//2
f 9//8 19//8 20//8
f 20//7 19//7 9//7
f 20//11 24//16 15//11
f 15//12 24//15 20//12
f 16//7 15//7 25//7
f 25//8 15//8 16//8
f 23//7 21//7 17//7
f 17//8 21//8 23//8
f 26//19 18//13 21//13
f 21//14 18//14 26//20
f 27//8 22//8 18//8
f 18//7 22//7 27//7
f 23//17 12//15 22//17
f 22//18 12//16 23//18
f 19//4 16//3 25//4
f 25//1 16//2 19//1
f 20//8 19//8 28//8
f 28//7 19//7 20//7
f 24//16 20//11 29//16
f 29//15 20//12 24//15
f 25//7 15//7 24//7
f 24//8 15//8 25//8
f 23//7 26//7 21//7
f 21//8 26//8 23//8
f 18//13 26//19 27//19
f 27//20 26//20 18//14
f 27//8 30//8 22//8
f 22//7 30//7 27//7
f 30//21 23//17 22//17
f 22//18 23//18 30//22
f 25//4 28//10 19//4
f 19//1 28//9 25//1
f 20//8 28//8 29//8
f 29//7 28//7 20//7
f 29//16 31//18 24//16
f 24//15 31//17 29//15
f 25//7 24//7 32//7
f 32//8 24//8 25//8
f 33//7 26//7 23//7
f 23//8 26//8 33//8
f 26//19 34//23 27//19
f 27//20 34//24 26//20
f 34//8 30//8 27//8
f 27//7 30//7 34//7
f 23//17 30//21 33//21
f 33//22 30//22 23//18
f 28//10 25//4 32//10
f 32//9 25//1 28//9
f 29//8 28//8 35//8
f 35//7 28//7 29//7
f 31//18 29//16 36//18
f 36//17 29//15 31//17
f 32//7 24//7 31//7
f 31//8 24//8 32//8
f 33//7 37//7 26//7
f 26//8 37//8 33//8
f 34//23 26//19 37//23
f 37//24 26//20 34//24
f 34//8 38//8 30//8
f 30//7 38//7 34//7
f 30//21 39//25 33//21
f 33//22 39//26 30//22
f 40//14 28//10 32//10
f 32//9 28//9 40//13
f 28//10 40//14 35//14
f 35//13 40//13 28//9
f 29//8 35//8 36//8
f 36//7 35//7 29//7
f 36//18 41//22 31//18
f 31//17 41//21 36//17
f 32//7 31//7 40//7
f 40//8 31//8 32//8
f 39//7 37//7 33//7
f 33//8 37//8 39//8
f 37//23 42//27 34//23
f 34//24 42//28 37//24
f 34//8 43//8 38//8
f 38//7 43//7 34//7
f 39//25 30//21 38//25
f 38//26 30//22 39//26
f 40//14 44//20 35//14
f 35//13 44//19 40//13
f 36//8 35//8 44//8
f 44//7 35//7 36//7
f 41//22 36//18 45//22
f 45//21 36//17 41//21
f 40//7 31//7 41//7
f 41//8 31//8 40//8
f 46//7 37//7 39//7
f 39//8 37//8 46//8
f 42//27 37//23 47//27
f 47//28 37//24 42//28
f 42//8 43//8 34//8
f 34//7 43//7 42//7
f 43//29 39//25 38//25
f 38//26 39//26 43//30
f 44//20 40//14 48//20
f 48//19 40//13 44//19
f 36//8 44//8 45//8
f 45//7 44//7 36//7
f 45//22 49//26 41//22
f 41//21 49//25 45//21
f 40//7 41//7 48//7
f 48//8 41//8 40//8
f 46//7 47//7 37//7
f 37//8 47//8 46//8
f 39//25 43//29 46//29
f 46//30 43//30 39//26
f 50//31 42//27 47//27
f 47//28 42//28 50//32
f 51//8 43//8 42//8
f 42//7 43//7 51//7
f 48//20 52//24 44//20
f 44//19 52//23 48//19
f 45//8 44//8 53//8
f 53//7 44//7 45//7
f 49//26 45//22 53//26
f 53//25 45//21 49//25
f 48//7 41//7 49//7
f 49//8 41//8 48//8
f 54//7 47//7 46//7
f 46//8 47//8 54//8
f 55//33 46//29 43//29
f 43//30 46//30 55//34
f 42//27 50//31 51//31
f 51//32 50//32 42//28
f 54//7 50//7 47//7
f 47//8 50//8 54//8
f 51//8 55//8 43//8
f 43//7 55//7 51//7
f 52//24 48//20 56//24
f 56//23 48//19 52//23
f 53//8 44//8 52//8
f 52//7 44//7 53//7
f 57//30 49//26 53//26
f 53//25 49//25 57//29
f 48//7 49//7 56//7
f 56//8 49//8 48//8
f 46//29 55//33 54//33
f 54//34 55//34 46//30
f 58//35 51//31 50//31
f 50//32 51//32 58//36
f 54//7 58//7 50//7
f 50//8 58//8 54//8
f 59//8 55//8 51//8
f 51//7 55//7 59//7
f 56//24 60//28 52//24
f 52//23 60//27 56//23
f 53//8 52//8 60//8
f 60//7 52//7 53//7
f 49//26 57//30 61//30
f 61//29 57//29 49//25
f 53//8 60//8 57//8
f 57//7 60//7 53//7
f 56//7 49//7 62//7
f 62//8 49//8 56//8
f 63//37 54//33 55//33
f 55//34 54//34 63//38
f 51//31 58//35 59//35
f 59//36 58//36 51//32
f 64//7 58//7 54//7
f 54//8 58//8 64//8
f 59//8 63//8 55//8
f 55//7 63//7 59//7
f 60//28 56//24 62//28
f 62//27 56//23 60//27
f 65//34 61//30 57//30
f 57//29 61//29 65//33
f 62//7 49//7 61//7
f 61//8 49//8 62//8
f 57//8 60//8 66//8
f 66//7 60//7 57//7
f 54//33 63//37 64//37
f 64//38 63//38 54//34
f 67//39 59//35 58//35
f 58//36 59//36 67//40
f 68//7 58//7 64//7
f 64//8 58//8 68//8
f 69//8 63//8 59//8
f 59//7 63//7 69//7
f 70//32 60//28 62//28
f 62//27 60//27 70//31
f 61//30 65//34 71//34
f 71//33 65//33 61//29
f 57//8 66//8 65//8
f 65//7 66//7 57//7
f 62//7 61//7 71//7
f 71//8 61//8 62//8
f 60//28 70//32 66//32
f 66//31 70//31 60//27
f 72//41 64//37 63//37
f 63//38 64//38 72//42
f 59//35 67//39 69//39
f 69//40 67//40 59//36
f 68//7 67//7 58//7
f 58//8 67//8 68//8
f 64//37 72//41 68//41
f 68//42 72//42 64//38
f 69//8 72//8 63//8
f 63//7 72//7 69//7
f 62//7 71//7 70//7
f 70//8 71//8 62//8
f 73//38 71//34 65//34
f 65//33 71//33 73//37
f 65//8 66//8 74//8
f 74//7 66//7 65//7
f 75//36 66//32 70//32
f 70//31 66//31 75//35
f 76//43 69//39 67//39
f 67//40 69//40 76//44
f 68//7 76//7 67//7
f 67//8 76//8 68//8
f 77//45 68//41 72//41
f 72//42 68//42 77//46
f 78//8 72//8 69//8
f 69//7 72//7 78//7
f 70//7 71//7 79//7
f 79//8 71//8 70//8
f 71//34 73//38 79//38
f 79//37 73//37 71//33
f 65//8 74//8 73//8
f 73//7 74//7 65//7
f 66//32 75//36 74//36
f 74//35 75//35 66//31
f 70//7 79//7 75//7
f 75//8 79//8 70//8
f 69//39 76//43 78//43
f 78//44 76//44 69//40
f 80//7 76//7 68//7
f 68//8 76//8 80//8
f 68//41 77//45 80//45
f 80//46 77//46 68//42
f 78//8 77//8 72//8
f 72//7 77//7 78//7
f 81//42 79//38 73//38
f 73//37 79//37 81//41
f 73//8 74//8 81//8
f 81//7 74//7 73//7
f 82//40 74//36 75//36
f 75//35 74//35 82//39
f 75//7 79//7 83//7
f 83//8 79//8 75//8
f 84//47 78//43 76//43
f 76//44 78//44 84//48
f 80//7 84//7 76//7
f 76//8 84//8 80//8
f 85//49 80//45 77//45
f 77//46 80//46 85//50
f 78//8 85//8 77//8
f 77//7 85//7 78//7
f 79//38 81//42 83//42
f 83//41 81//41 79//37
f 81//8 74//8 86//8
f 86//7 74//7 81//7
f 74//36 82//40 86//40
f 86//39 82//39 74//35
f 75//7 83//7 82//7
f 82//8 83//8 75//8
f 78//43 84//47 87//47
f 87//48 84//48 78//44
f 88//7 84//7 80//7
f 80//8 84//8 88//8
f 80//45 85//49 88//49
f 88//50 85//50 80//46
f 87//8 85//8 78//8
f 78//7 85//7 87//7
f 89//46 83//42 81//42
f 81//41 83//41 89//45
f 81//8 86//8 90//8
f 90//7 86//7 81//7
f 91//44 86//40 82//40
f 82//39 86//39 91//43
f 82//7 83//7 92//7
f 92//8 83//8 82//8
f 93//51 87//47 84//47
f 84//48 87//48 93//52
f 94//7 84//7 88//7
f 88//8 84//8 94//8
f 95//53 88//49 85//49
f 85//50 88//50 95//54
f 87//8 95//8 85//8
f 85//7 95//7 87//7
f 83//42 89//46 92//46
f 92//45 89//45 83//41
f 81//8 90//8 89//8
f 89//7 90//7 81//7
f 86//40 91//44 90//44
f 90//43 91//43 86//39
f 82//7 92//7 91//7
f 91//8 92//8 82//8
f 87//47 93//51 96//51
f 96//52 93//52 87//48
f 84//7 94//7 93//7
f 93//8 94//8 84//8
f 88//49 95//53 94//53
f 94//54 95//54 88//50
f 95//8 87//8 96//8
f 96//7 87//7 95//7
f 97//50 92//46 89//46
f 89//45 92//45 97//49
f 89//8 90//8 97//8
f 97//7 90//7 89//7
f 98//48 90//44 91//44
f 91//43 90//43 98//47
f 91//7 92//7 99//7
f 99//8 92//8 91//8
f 94//53 96//51 93//51
f 93//52 96//52 94//54
f 96//51 94//53 95//53
f 95//54 94//54 96//52
f 92//46 97//50 99//50
f 99//49 97//49 92//45
f 97//8 90//8 100//8
f 100//7 90//7 97//7
f 90//44 98//48 100//48
f 100//47 98//47 90//43
f 91//7 99//7 98//7
f 98//8 99//8 91//8
f 97//50 101//54 99//50
f 99//49 101//53 97//49
f 97//8 100//8 102//8
f 102//7 100//7 97//7
f 103//52 100//48 98//48
f 98//47 100//47 103//51
f 98//7 99//7 103//7
f 103//8 99//8 98//8
f 101//54 97//50 102//54
f 102//53 97//49 101//53
f 103//7 99//7 101//7
f 101//8 99//8 103//8
f 102//8 100//8 104//8
f 104//7 100//7 102//7
f 100//48 103//52 104//52
f 104//51 103//51 100//47
f 104//52 101//54 102//54
f 102//53 101//53 104//51
f 101//54 104//52 103//52
f 103//51 104//51 101//53
