# SSTK version 0.8.0
# 76
mtllib original-76.mtl
o mesh82/mesh82-geometry#mesh82-geometry
v -0.109347 -0.237149 0.324532
v -0.110384 -0.245019 0.323396
v -0.110503 -0.237139 0.324300
v -0.109228 -0.245028 0.323628
v -0.111559 -0.245027 0.323317
v -0.191411 -0.238380 0.324461
v -0.108232 -0.237176 0.324914
v -0.190138 -0.246216 0.323327
v -0.111678 -0.237148 0.324221
v -0.188962 -0.246189 0.323251
v -0.190257 -0.238336 0.324231
v -0.192526 -0.238441 0.324842
v -0.108113 -0.245055 0.324010
v -0.191292 -0.246259 0.323558
v -0.189081 -0.238310 0.324155
v -0.107175 -0.237220 0.325439
v -0.193582 -0.238517 0.325365
v -0.192407 -0.246320 0.323938
v -0.107056 -0.245099 0.324535
v -0.193463 -0.246396 0.324461
v -0.106195 -0.237281 0.326098
v -0.194561 -0.238607 0.326023
v -0.106076 -0.245160 0.325195
v -0.194442 -0.246486 0.325119
v -0.105309 -0.237357 0.326881
v -0.195446 -0.238710 0.326803
v -0.195327 -0.246589 0.325900
v -0.105190 -0.245236 0.325977
v -0.104413 -0.245327 0.326869
v -0.196222 -0.238824 0.327694
v -0.104532 -0.237448 0.327773
v -0.196103 -0.246703 0.326790
v -0.103877 -0.237551 0.328759
v -0.196875 -0.238946 0.328679
v -0.103758 -0.245430 0.327855
v -0.196756 -0.246826 0.327775
v -0.103236 -0.245544 0.328919
v -0.197395 -0.239076 0.329742
v -0.103355 -0.237665 0.329822
v -0.197276 -0.246955 0.328838
v -0.102856 -0.245667 0.330042
v -0.197773 -0.239211 0.330864
v -0.102975 -0.237788 0.330945
v -0.197654 -0.247090 0.329960
v -0.102625 -0.245797 0.331204
v -0.198001 -0.239347 0.332026
v -0.102744 -0.237918 0.332108
v -0.197882 -0.247227 0.331123
v -0.102547 -0.245932 0.332387
v -0.198077 -0.239484 0.333209
v -0.197958 -0.247363 0.332305
v -0.102666 -0.238052 0.333291
v -0.102484 -0.254359 0.405870
v -0.198014 -0.247912 0.406692
v -0.102603 -0.246480 0.406774
v -0.197895 -0.255791 0.405788
v -0.102560 -0.254496 0.407053
v -0.197936 -0.248046 0.407875
v -0.102679 -0.246617 0.407956
v -0.197817 -0.255925 0.406971
v -0.102789 -0.254633 0.408215
v -0.197705 -0.248176 0.409038
v -0.102908 -0.246753 0.409119
v -0.197586 -0.256055 0.408134
v -0.103166 -0.254767 0.409337
v -0.197326 -0.248299 0.410160
v -0.103285 -0.246888 0.410241
v -0.197207 -0.256178 0.409257
v -0.103686 -0.254897 0.410400
v -0.196804 -0.248413 0.411224
v -0.196685 -0.256292 0.410320
v -0.103805 -0.247018 0.411304
v -0.104340 -0.255020 0.411385
v -0.196030 -0.256396 0.411306
v -0.196149 -0.248516 0.412210
v -0.104459 -0.247140 0.412289
v -0.105116 -0.255134 0.412276
v -0.195371 -0.248607 0.413102
v -0.105235 -0.247254 0.413179
v -0.195252 -0.256486 0.412198
v -0.106119 -0.247357 0.413960
v -0.194366 -0.256563 0.412981
v -0.194485 -0.248683 0.413884
v -0.106000 -0.255237 0.413056
v -0.107098 -0.247447 0.414618
v -0.193505 -0.248744 0.414544
v -0.106979 -0.255327 0.413714
v -0.193386 -0.256623 0.413640
v -0.108035 -0.255403 0.414238
v -0.192448 -0.248788 0.415069
v -0.192329 -0.256668 0.414165
v -0.108154 -0.247523 0.415141
v -0.109269 -0.247584 0.415521
v -0.109150 -0.255463 0.414618
v -0.191214 -0.256695 0.414547
v -0.191333 -0.248815 0.415451
v -0.110424 -0.247628 0.415752
v -0.190178 -0.248825 0.415683
v -0.190059 -0.256704 0.414779
v -0.110305 -0.255507 0.414848
v -0.111599 -0.247654 0.415828
v -0.189002 -0.248816 0.415762
v -0.188883 -0.256695 0.414858
v -0.111480 -0.255534 0.414924
vn 0.26106229668721 0.11389196278959018 -0.9585797296314656
vn 0.13130969924038 0.11492312852273716 -0.9846575229062883
vn -0.13130969924038 -0.11492312852273716 0.9846575229062883
vn -0.26106229668721 -0.11389196278959018 0.9585797296314656
vn 0.0322812532749417 0.11437419369060882 -0.9929131203205155
vn -0.0322812532749417 -0.11437419369060882 0.9929131203205155
vn -0.015005146057995399 0.9933743704035541 0.11393948313521737
vn 0.015005146057995399 -0.9933743704035541 -0.11393948313521737
vn 0.3860364318758944 0.11087250877253496 -0.9157964621372
vn -0.3860364318758944 -0.11087250877253496 0.9157964621372
vn -0.03399566668431053 0.11337958650490515 -0.992969971353951
vn 0.03399566668431053 -0.11337958650490515 0.992969971353951
vn -0.13301000518581874 0.1109565248014569 -0.9848842511302798
vn -0.2627177688367815 0.10603167873869009 -0.95902901783068
vn 0.13301000518581874 -0.1109565248014569 0.9848842511302798
vn 0.2627177688367815 -0.10603167873869009 0.95902901783068
vn -0.38761821945031133 0.09926239659569897 -0.9164600878228405
vn 0.38761821945031133 -0.09926239659569897 0.9164600878228405
vn 0.50400015490537 0.10593142512983393 -0.8571828142382026
vn -0.50400015490537 -0.10593142512983393 0.8571828142382026
vn -0.5054809147582989 0.09078230343955943 -0.8580487271695711
vn 0.5054809147582989 -0.09078230343955943 0.8580487271695711
vn 0.6129060484153493 0.09917184712384769 -0.7839075969487256
vn -0.6129060484153493 -0.09917184712384769 0.7839075969487256
vn -0.6142604524393624 0.08075595482596612 -0.784960236145205
vn 0.6142604524393624 -0.08075595482596612 0.784960236145205
vn 0.7109256946002999 0.09072894484216468 -0.697390074008018
vn -0.7109256946002999 -0.09072894484216468 0.697390074008018
vn -0.7121308624833541 0.06937336165863266 -0.6986107438272725
vn 0.7121308624833541 -0.06937336165863266 0.6986107438272725
vn 0.7964798399603056 0.08076430647329523 -0.5992470202985524
vn -0.7964798399603056 -0.08076430647329523 0.5992470202985524
vn -0.7975156805778649 0.05684346948084865 -0.6006143181858096
vn 0.7975156805778649 -0.05684346948084865 0.6006143181858096
vn 0.8682462194584478 0.06946082175184212 -0.49124708308311776
vn -0.8682462194584478 -0.06946082175184212 0.49124708308311776
vn -0.8690956934772227 0.043388808271246956 -0.49273734067568503
vn 0.8690956934772227 -0.043388808271246956 0.49273734067568503
vn 0.9251615245442766 0.057017662164071115 -0.3752667580591891
vn -0.9251615245442766 -0.057017662164071115 0.3752667580591891
vn -0.9258108310170541 0.0292404147223979 -0.37685448560203444
vn 0.9258108310170541 -0.0292404147223979 0.37685448560203444
vn 0.9664145739553832 0.04364607258473411 -0.2532545983680524
vn -0.9664145739553832 -0.04364607258473411 0.2532545983680524
vn -0.9668532751089518 0.014633829774545887 -0.25491291736046434
vn 0.9668532751089518 -0.014633829774545887 0.25491291736046434
vn 0.9914354050786988 0.029566447972002734 -0.12720716454176273
vn -0.9914354050786988 -0.029566447972002734 0.12720716454176273
vn -0.9916565095607531 -0.00019349665764915424 -0.12890822163394833
vn 0.9916565095607531 0.00019349665764915424 0.12890822163394833
vn 0.9993375638645502 0.018677765354644837 -0.03123418848990707
vn -0.9993375638645502 -0.018677765354644837 0.03123418848990707
vn -0.9993929729350574 -0.011316865587897844 -0.03294866008342826
vn 0.9993929729350574 0.011316865587897844 0.03294866008342826
usemtl material_0_0
f 1//1 2//2 3//2
f 2//2 1//1 4//1
f 3//3 2//3 1//4
f 4//4 1//4 2//3
f 5//5 3//2 2//2
f 2//3 3//3 5//6
f 3//7 6//7 1//7
f 1//8 6//8 3//8
f 7//9 4//1 1//1
f 1//4 4//4 7//10
f 8//8 2//8 4//8
f 4//7 2//7 8//7
f 3//2 5//5 9//5
f 9//6 5//6 3//3
f 2//8 10//8 5//8
f 5//7 10//7 2//7
f 3//7 11//7 6//7
f 6//8 11//8 3//8
f 1//7 6//7 12//7
f 12//8 6//8 1//8
f 4//1 7//9 13//9
f 13//10 7//10 4//4
f 1//7 12//7 7//7
f 7//8 12//8 1//8
f 10//8 2//8 8//8
f 8//7 2//7 10//7
f 8//8 4//8 14//8
f 14//7 4//7 8//7
f 10//11 9//5 5//5
f 5//6 9//6 10//12
f 15//7 3//7 9//7
f 9//8 3//8 15//8
f 3//7 15//7 11//7
f 11//8 15//8 3//8
f 8//13 6//14 11//13
f 11//15 6//16 8//15
f 14//14 12//17 6//14
f 6//16 12//18 14//16
f 16//19 13//9 7//9
f 7//10 13//10 16//20
f 14//8 4//8 13//8
f 13//7 4//7 14//7
f 7//7 12//7 17//7
f 17//8 12//8 7//8
f 11//13 10//11 8//13
f 8//15 10//12 11//15
f 6//14 8//13 14//14
f 14//16 8//15 6//16
f 9//5 10//11 15//11
f 15//12 10//12 9//6
f 10//11 11//13 15//11
f 15//12 11//15 10//12
f 12//17 14//14 18//17
f 18//18 14//16 12//18
f 13//9 16//19 19//19
f 19//20 16//20 13//10
f 7//7 17//7 16//7
f 16//8 17//8 7//8
f 14//8 13//8 18//8
f 18//7 13//7 14//7
f 12//17 20//21 17//21
f 17//22 20//22 12//18
f 20//21 12//17 18//17
f 18//18 12//18 20//22
f 21//23 19//19 16//19
f 16//20 19//20 21//24
f 18//8 13//8 19//8
f 19//7 13//7 18//7
f 16//7 17//7 21//7
f 21//8 17//8 16//8
f 20//21 22//25 17//21
f 17//22 22//26 20//22
f 18//8 19//8 20//8
f 20//7 19//7 18//7
f 19//19 21//23 23//23
f 23//24 21//24 19//20
f 21//7 17//7 22//7
f 22//8 17//8 21//8
f 22//25 20//21 24//25
f 24//26 20//22 22//26
f 20//8 19//8 24//8
f 24//7 19//7 20//7
f 25//27 23//23 21//23
f 21//24 23//24 25//28
f 24//8 19//8 23//8
f 23//7 19//7 24//7
f 21//7 22//7 26//7
f 26//8 22//8 21//8
f 27//29 22//25 24//25
f 24//26 22//26 27//30
f 23//23 25//27 28//27
f 28//28 25//28 23//24
f 21//7 26//7 25//7
f 25//8 26//8 21//8
f 24//8 23//8 28//8
f 28//7 23//7 24//7
f 22//25 27//29 26//29
f 26//30 27//30 22//26
f 24//8 28//8 27//8
f 27//7 28//7 24//7
f 25//27 29//31 28//27
f 28//28 29//32 25//28
f 25//7 26//7 30//7
f 30//8 26//8 25//8
f 27//29 30//33 26//29
f 26//30 30//34 27//30
f 27//8 28//8 29//8
f 29//7 28//7 27//7
f 29//31 25//27 31//31
f 31//32 25//28 29//32
f 25//7 30//7 31//7
f 31//8 30//8 25//8
f 30//33 27//29 32//33
f 32//34 27//30 30//34
f 27//8 29//8 32//8
f 32//7 29//7 27//7
f 33//35 29//31 31//31
f 31//32 29//32 33//36
f 31//7 30//7 34//7
f 34//8 30//8 31//8
f 32//33 34//37 30//33
f 30//34 34//38 32//34
f 32//8 29//8 35//8
f 35//7 29//7 32//7
f 29//31 33//35 35//35
f 35//36 33//36 29//32
f 31//7 34//7 33//7
f 33//8 34//8 31//8
f 34//37 32//33 36//37
f 36//38 32//34 34//38
f 32//8 35//8 36//8
f 36//7 35//7 32//7
f 33//35 37//39 35//35
f 35//36 37//40 33//36
f 33//7 34//7 38//7
f 38//8 34//8 33//8
f 36//37 38//41 34//37
f 34//38 38//42 36//38
f 36//8 35//8 37//8
f 37//7 35//7 36//7
f 37//39 33//35 39//39
f 39//40 33//36 37//40
f 33//7 38//7 39//7
f 39//8 38//8 33//8
f 38//41 36//37 40//41
f 40//42 36//38 38//42
f 36//8 37//8 40//8
f 40//7 37//7 36//7
f 39//39 41//43 37//39
f 37//40 41//44 39//40
f 39//7 38//7 42//7
f 42//8 38//8 39//8
f 40//41 42//45 38//41
f 38//42 42//46 40//42
f 40//8 37//8 41//8
f 41//7 37//7 40//7
f 41//43 39//39 43//43
f 43//44 39//40 41//44
f 39//7 42//7 43//7
f 43//8 42//8 39//8
f 42//45 40//41 44//45
f 44//46 40//42 42//46
f 40//8 41//8 44//8
f 44//7 41//7 40//7
f 43//43 45//47 41//43
f 41//44 45//48 43//44
f 43//7 42//7 46//7
f 46//8 42//8 43//8
f 44//45 46//49 42//45
f 42//46 46//50 44//46
f 44//8 41//8 45//8
f 45//7 41//7 44//7
f 45//47 43//43 47//47
f 47//48 43//44 45//48
f 43//7 46//7 47//7
f 47//8 46//8 43//8
f 46//49 44//45 48//49
f 48//50 44//46 46//50
f 44//8 45//8 48//8
f 48//7 45//7 44//7
f 47//47 49//51 45//47
f 45//48 49//52 47//48
f 47//7 46//7 50//7
f 50//8 46//8 47//8
f 51//53 46//49 48//49
f 48//50 46//50 51//54
f 48//8 45//8 49//8
f 49//7 45//7 48//7
f 49//51 47//47 52//51
f 52//52 47//48 49//52
f 46//49 51//53 50//53
f 50//54 51//54 46//50
f 47//7 50//7 52//7
f 52//8 50//8 47//8
f 48//8 49//8 51//8
f 51//7 49//7 48//7
f 52//51 53//54 49//51
f 49//52 53//53 52//52
f 51//53 54//52 50//53
f 50//54 54//51 51//54
f 52//7 50//7 54//7
f 54//8 50//8 52//8
f 51//8 49//8 53//8
f 53//7 49//7 51//7
f 53//54 52//51 55//54
f 55//53 52//52 53//53
f 54//52 51//53 56//52
f 56//51 51//54 54//51
f 52//7 54//7 55//7
f 55//8 54//8 52//8
f 51//8 53//8 56//8
f 56//7 53//7 51//7
f 55//54 57//50 53//54
f 53//53 57//49 55//53
f 56//52 58//48 54//52
f 54//51 58//47 56//51
f 55//7 54//7 59//7
f 59//8 54//8 55//8
f 56//8 53//8 57//8
f 57//7 53//7 56//7
f 57//50 55//54 59//50
f 59//49 55//53 57//49
f 58//48 56//52 60//48
f 60//47 56//51 58//47
f 59//7 54//7 58//7
f 58//8 54//8 59//8
f 56//8 57//8 60//8
f 60//7 57//7 56//7
f 59//50 61//46 57//50
f 57//49 61//45 59//49
f 60//48 62//44 58//48
f 58//47 62//43 60//47
f 59//7 58//7 62//7
f 62//8 58//8 59//8
f 60//8 57//8 61//8
f 61//7 57//7 60//7
f 61//46 59//50 63//46
f 63//45 59//49 61//45
f 62//44 60//48 64//44
f 64//43 60//47 62//43
f 59//7 62//7 63//7
f 63//8 62//8 59//8
f 60//8 61//8 64//8
f 64//7 61//7 60//7
f 63//46 65//42 61//46
f 61//45 65//41 63//45
f 64//44 66//40 62//44
f 62//43 66//39 64//43
f 63//7 62//7 66//7
f 66//8 62//8 63//8
f 64//8 61//8 65//8
f 65//7 61//7 64//7
f 65//42 63//46 67//42
f 67//41 63//45 65//41
f 66//40 64//44 68//40
f 68//39 64//43 66//39
f 63//7 66//7 67//7
f 67//8 66//8 63//8
f 64//8 65//8 68//8
f 68//7 65//7 64//7
f 67//42 69//38 65//42
f 65//41 69//37 67//41
f 68//40 70//36 66//40
f 66//39 70//35 68//39
f 67//7 66//7 70//7
f 70//8 66//8 67//8
f 68//8 65//8 71//8
f 71//7 65//7 68//7
f 69//38 67//42 72//38
f 72//37 67//41 69//37
f 71//8 65//8 69//8
f 69//7 65//7 71//7
f 70//36 68//40 71//36
f 71//35 68//39 70//35
f 67//7 70//7 72//7
f 72//8 70//8 67//8
f 72//38 73//34 69//38
f 69//37 73//33 72//37
f 71//8 69//8 74//8
f 74//7 69//7 71//7
f 74//32 70//36 71//36
f 71//35 70//35 74//31
f 72//7 70//7 75//7
f 75//8 70//8 72//8
f 73//34 72//38 76//34
f 76//33 72//37 73//33
f 74//8 69//8 73//8
f 73//7 69//7 74//7
f 70//36 74//32 75//32
f 75//31 74//31 70//35
f 72//7 75//7 76//7
f 76//8 75//8 72//8
f 76//34 77//30 73//34
f 73//33 77//29 76//33
f 74//8 73//8 77//8
f 77//7 73//7 74//7
f 74//32 78//28 75//32
f 75//31 78//27 74//31
f 76//7 75//7 78//7
f 78//8 75//8 76//8
f 77//30 76//34 79//30
f 79//29 76//33 77//29
f 74//8 77//8 80//8
f 80//7 77//7 74//7
f 78//28 74//32 80//28
f 80//27 74//31 78//27
f 76//7 78//7 79//7
f 79//8 78//8 76//8
f 81//26 77//30 79//30
f 79//29 77//29 81//25
f 80//8 77//8 82//8
f 82//7 77//7 80//7
f 82//24 78//28 80//28
f 80//27 78//27 82//23
f 79//7 78//7 83//7
f 83//8 78//8 79//8
f 77//30 81//26 84//26
f 84//25 81//25 77//29
f 79//7 83//7 81//7
f 81//8 83//8 79//8
f 82//8 77//8 84//8
f 84//7 77//7 82//7
f 78//28 82//24 83//24
f 83//23 82//23 78//27
f 85//22 84//26 81//26
f 81//25 84//25 85//21
f 81//7 83//7 86//7
f 86//8 83//8 81//8
f 82//8 84//8 87//8
f 87//7 84//7 82//7
f 88//20 83//24 82//24
f 82//23 83//23 88//19
f 84//26 85//22 87//22
f 87//21 85//21 84//25
f 81//7 86//7 85//7
f 85//8 86//8 81//8
f 83//24 88//20 86//20
f 86//19 88//19 83//23
f 82//8 87//8 88//8
f 88//7 87//7 82//7
f 85//22 89//18 87//22
f 87//21 89//17 85//21
f 85//7 86//7 90//7
f 90//8 86//8 85//8
f 91//10 86//20 88//20
f 88//19 86//19 91//9
f 88//8 87//8 91//8
f 91//7 87//7 88//7
f 89//18 85//22 92//18
f 92//17 85//21 89//17
f 91//8 87//8 89//8
f 89//7 87//7 91//7
f 86//20 91//10 90//10
f 90//9 91//9 86//19
f 85//7 90//7 92//7
f 92//8 90//8 85//8
f 93//16 89//18 92//18
f 92//17 89//17 93//14
f 91//8 89//8 94//8
f 94//7 89//7 91//7
f 95//4 90//10 91//10
f 91//9 90//9 95//1
f 92//7 90//7 96//7
f 96//8 90//8 92//8
f 89//18 93//16 94//16
f 94//14 93//14 89//17
f 92//7 96//7 93//7
f 93//8 96//8 92//8
f 91//8 94//8 95//8
f 95//7 94//7 91//7
f 90//10 95//4 96//4
f 96//1 95//1 90//9
f 97//15 94//16 93//16
f 93//14 94//14 97//13
f 93//7 96//7 98//7
f 98//8 96//8 93//8
f 95//8 94//8 99//8
f 99//7 94//7 95//7
f 99//3 96//4 95//4
f 95//1 96//1 99//2
f 94//16 97//15 100//15
f 100//13 97//13 94//14
f 93//7 98//7 97//7
f 97//8 98//8 93//8
f 96//4 99//3 98//3
f 98//2 99//2 96//1
f 99//8 94//8 100//8
f 100//7 94//7 99//7
f 101//12 100//15 97//15
f 97//13 100//13 101//11
f 97//7 98//7 102//7
f 102//8 98//8 97//8
f 103//6 98//3 99//3
f 99//2 98//2 103//5
f 99//8 100//8 104//8
f 104//7 100//7 99//7
f 100//15 101//12 104//12
f 104//11 101//11 100//13
f 97//7 102//7 101//7
f 101//8 102//8 97//8
f 98//3 103//6 102//6
f 102//5 103//5 98//2
f 99//8 104//8 103//8
f 103//7 104//7 99//7
f 102//6 104//12 101//12
f 101//11 104//11 102//5
f 104//12 102//6 103//6
f 103//5 102//5 104//11
