# SSTK version 0.8.0
# 70
mtllib original-70.mtl
o mesh76/mesh76-geometry#mesh76-geometry
v -0.512785 -0.228726 0.197973
v -0.513043 -0.236740 0.198191
v -0.512666 -0.236606 0.197069
v -0.513162 -0.228861 0.199095
v -0.607083 -0.238151 0.198110
v -0.512437 -0.236469 0.195907
v -0.607582 -0.230149 0.197891
v -0.513563 -0.236870 0.199254
v -0.607463 -0.238028 0.196988
v -0.512556 -0.228590 0.196810
v -0.607694 -0.237898 0.195825
v -0.607202 -0.230272 0.199014
v -0.513682 -0.228991 0.200158
v -0.606562 -0.238265 0.199174
v -0.512480 -0.228453 0.195627
v -0.607772 -0.237764 0.194642
v -0.607813 -0.230019 0.196729
v -0.606681 -0.230386 0.200078
v -0.514217 -0.236993 0.200239
v -0.605906 -0.238369 0.200160
v -0.512361 -0.236332 0.194724
v -0.607891 -0.229885 0.195546
v -0.606025 -0.230489 0.201064
v -0.514336 -0.229113 0.201143
v -0.512424 -0.227905 0.121241
v -0.512543 -0.220025 0.122145
v -0.607835 -0.229336 0.121159
v -0.514992 -0.237107 0.201129
v -0.605248 -0.230580 0.201956
v -0.607954 -0.221457 0.122063
v -0.515111 -0.229227 0.202033
v -0.605129 -0.238459 0.201052
v -0.512621 -0.219891 0.120962
v -0.607759 -0.229200 0.119976
v -0.607878 -0.221320 0.120880
v -0.515996 -0.229330 0.202814
v -0.515877 -0.237209 0.201910
v -0.604362 -0.230656 0.202738
v -0.512502 -0.227770 0.120058
v -0.604243 -0.238536 0.201834
v -0.512852 -0.219761 0.119799
v -0.607530 -0.229063 0.118814
v -0.516856 -0.237300 0.202568
v -0.516975 -0.229420 0.203472
v -0.603263 -0.238596 0.202494
v -0.512733 -0.227640 0.118895
v -0.607649 -0.221184 0.119718
v -0.603382 -0.230717 0.203398
v -0.513232 -0.219638 0.118676
v -0.513113 -0.227517 0.117773
v -0.607272 -0.221049 0.118596
v -0.517912 -0.237376 0.203091
v -0.602325 -0.230761 0.203923
v -0.602206 -0.238641 0.203019
v -0.607153 -0.228928 0.117692
v -0.518031 -0.229496 0.203995
v -0.513754 -0.219524 0.117613
v -0.606633 -0.228799 0.116629
v -0.519146 -0.229557 0.204375
v -0.519027 -0.237436 0.203471
v -0.601091 -0.238668 0.203401
v -0.513634 -0.227403 0.116709
v -0.606752 -0.220919 0.117533
v -0.601210 -0.230788 0.204305
v -0.514290 -0.227300 0.115723
v -0.606098 -0.220797 0.116548
v -0.605979 -0.228676 0.115644
v -0.520182 -0.237480 0.203702
v -0.599935 -0.238677 0.203633
v -0.600054 -0.230798 0.204537
v -0.514409 -0.219421 0.116626
v -0.520301 -0.229601 0.204605
v -0.515186 -0.219330 0.115735
v -0.605323 -0.220683 0.115657
v -0.605204 -0.228562 0.114754
v -0.515067 -0.227209 0.114831
v -0.521357 -0.237506 0.203778
v -0.598879 -0.230789 0.204616
v -0.521476 -0.229627 0.204682
v -0.598760 -0.238668 0.203712
v -0.515953 -0.227133 0.114048
v -0.516072 -0.219254 0.114952
v -0.604438 -0.220580 0.114876
v -0.604319 -0.228459 0.113973
v -0.516933 -0.227072 0.113389
v -0.603340 -0.228369 0.113315
v -0.603459 -0.220489 0.114219
v -0.517052 -0.219193 0.114293
v -0.517990 -0.227028 0.112864
v -0.602403 -0.220414 0.113695
v -0.518109 -0.219149 0.113768
v -0.602284 -0.228293 0.112792
v -0.519105 -0.227001 0.112482
v -0.601169 -0.228232 0.112412
v -0.601288 -0.220353 0.113315
v -0.519224 -0.219122 0.113386
v -0.520261 -0.226992 0.112250
v -0.600133 -0.220309 0.113085
v -0.520380 -0.219112 0.113153
v -0.600014 -0.228188 0.112181
v -0.521436 -0.227000 0.112171
v -0.598958 -0.220283 0.113008
v -0.521555 -0.219121 0.113075
v -0.598839 -0.228162 0.112105
vn 0.9668532751089518 -0.014633829774545887 0.25491291736046434
vn 0.9258108310170541 -0.0292404147223979 0.37685448560203444
vn -0.9668532751089518 0.014633829774545887 -0.25491291736046434
vn -0.9258108310170541 0.0292404147223979 -0.37685448560203444
vn 0.015005146057995399 -0.9933743704035541 -0.11393948313521737
vn -0.015005146057995399 0.9933743704035541 0.11393948313521737
vn 0.9916565095607531 0.00019349665764915424 0.12890822163394833
vn -0.9916565095607531 -0.00019349665764915424 -0.12890822163394833
vn 0.8690956934772227 -0.043388808271246956 0.49273734067568503
vn -0.8690956934772227 0.043388808271246956 -0.49273734067568503
vn -0.9251615245442766 -0.057017662164071115 0.3752667580591891
vn -0.9664145739553832 -0.04364607258473411 0.2532545983680524
vn 0.9251615245442766 0.057017662164071115 -0.3752667580591891
vn 0.9664145739553832 0.04364607258473411 -0.2532545983680524
vn 0.9993929729350574 0.011316865587897844 0.03294866008342826
vn -0.9993929729350574 -0.011316865587897844 -0.03294866008342826
vn 0.7975156805778649 -0.05684346948084865 0.6006143181858096
vn -0.7975156805778649 0.05684346948084865 -0.6006143181858096
vn -0.9914354050786988 -0.029566447972002734 0.12720716454176273
vn 0.9914354050786988 0.029566447972002734 -0.12720716454176273
vn -0.8682462194584478 -0.06946082175184212 0.49124708308311776
vn 0.8682462194584478 0.06946082175184212 -0.49124708308311776
vn -0.9993375638645502 -0.018677765354644837 0.03123418848990707
vn 0.9993375638645502 0.018677765354644837 -0.03123418848990707
vn -0.7964798399603056 -0.08076430647329523 0.5992470202985524
vn 0.7964798399603056 0.08076430647329523 -0.5992470202985524
vn 0.7121308624833541 -0.06937336165863266 0.6986107438272725
vn -0.7121308624833541 0.06937336165863266 -0.6986107438272725
vn -0.7109256946002999 -0.09072894484216468 0.697390074008018
vn 0.7109256946002999 0.09072894484216468 -0.697390074008018
vn 0.6142604524393624 -0.08075595482596612 0.784960236145205
vn -0.6142604524393624 0.08075595482596612 -0.784960236145205
vn -0.6129060484153493 -0.09917184712384769 0.7839075969487256
vn 0.6129060484153493 0.09917184712384769 -0.7839075969487256
vn 0.5054809147582989 -0.09078230343955943 0.8580487271695711
vn -0.5054809147582989 0.09078230343955943 -0.8580487271695711
vn -0.50400015490537 -0.10593142512983393 0.8571828142382026
vn 0.50400015490537 0.10593142512983393 -0.8571828142382026
vn 0.38761821945031133 -0.09926239659569897 0.9164600878228405
vn -0.38761821945031133 0.09926239659569897 -0.9164600878228405
vn -0.3860364318758944 -0.11087250877253496 0.9157964621372
vn 0.3860364318758944 0.11087250877253496 -0.9157964621372
vn 0.2627177688367815 -0.10603167873869009 0.95902901783068
vn -0.2627177688367815 0.10603167873869009 -0.95902901783068
vn -0.26106229668721 -0.11389196278959018 0.9585797296314656
vn 0.26106229668721 0.11389196278959018 -0.9585797296314656
vn 0.13301000518581874 -0.1109565248014569 0.9848842511302798
vn -0.13301000518581874 0.1109565248014569 -0.9848842511302798
vn -0.13130969924038 -0.11492312852273716 0.9846575229062883
vn 0.13130969924038 0.11492312852273716 -0.9846575229062883
vn 0.03399566668431053 -0.11337958650490515 0.992969971353951
vn -0.03399566668431053 0.11337958650490515 -0.992969971353951
vn -0.0322812532749417 -0.11437419369060882 0.9929131203205155
vn 0.0322812532749417 0.11437419369060882 -0.9929131203205155
usemtl material_0_0
f 1//1 2//2 3//1
f 2//2 1//1 4//2
f 3//3 2//4 1//3
f 4//4 1//3 2//4
f 5//5 3//5 2//5
f 2//6 3//6 5//6
f 6//7 1//1 3//1
f 3//3 1//3 6//8
f 1//6 7//6 4//6
f 4//5 7//5 1//5
f 4//2 8//9 2//2
f 2//4 8//10 4//4
f 9//5 3//5 5//5
f 5//6 3//6 9//6
f 5//5 2//5 8//5
f 8//6 2//6 5//6
f 1//1 6//7 10//7
f 10//8 6//8 1//3
f 11//5 6//5 3//5
f 3//6 6//6 11//6
f 10//6 7//6 1//6
f 1//5 7//5 10//5
f 4//6 7//6 12//6
f 12//5 7//5 4//5
f 8//9 4//2 13//9
f 13//10 4//4 8//10
f 11//5 3//5 9//5
f 9//6 3//6 11//6
f 12//11 9//12 5//11
f 5//13 9//14 12//13
f 5//5 8//5 14//5
f 14//6 8//6 5//6
f 6//7 15//15 10//7
f 10//8 15//16 6//8
f 16//5 6//5 11//5
f 11//6 6//6 16//6
f 10//6 17//6 7//6
f 7//5 17//5 10//5
f 9//12 12//11 7//12
f 7//14 12//13 9//14
f 4//6 12//6 18//6
f 18//5 12//5 4//5
f 4//6 18//6 13//6
f 13//5 18//5 4//5
f 13//9 19//17 8//9
f 8//10 19//18 13//10
f 7//12 11//19 9//12
f 9//14 11//20 7//14
f 14//21 12//11 5//11
f 5//13 12//13 14//22
f 14//5 8//5 20//5
f 20//6 8//6 14//6
f 15//15 6//7 21//15
f 21//16 6//8 15//16
f 15//6 22//6 10//6
f 10//5 22//5 15//5
f 16//5 21//5 6//5
f 6//6 21//6 16//6
f 11//19 22//23 16//23
f 16//24 22//24 11//20
f 10//6 22//6 17//6
f 17//5 22//5 10//5
f 11//19 7//12 17//19
f 17//20 7//14 11//20
f 12//11 14//21 18//21
f 18//22 14//22 12//13
f 13//6 18//6 23//6
f 23//5 18//5 13//5
f 19//17 13//9 24//17
f 24//18 13//10 19//18
f 20//5 8//5 19//5
f 19//6 8//6 20//6
f 23//25 14//21 20//25
f 20//26 14//22 23//26
f 25//24 15//15 21//15
f 21//16 15//16 25//23
f 26//6 22//6 15//6
f 15//5 22//5 26//5
f 27//5 21//5 16//5
f 16//6 21//6 27//6
f 22//23 11//19 17//19
f 17//20 11//20 22//24
f 22//23 27//16 16//23
f 16//24 27//15 22//24
f 14//21 23//25 18//21
f 18//22 23//26 14//22
f 13//6 23//6 24//6
f 24//5 23//5 13//5
f 24//17 28//27 19//17
f 19//18 28//28 24//18
f 20//5 19//5 28//5
f 28//6 19//6 20//6
f 20//25 29//29 23//25
f 23//26 29//30 20//26
f 15//15 25//24 26//24
f 26//23 25//23 15//16
f 27//5 25//5 21//5
f 21//6 25//6 27//6
f 26//6 30//6 22//6
f 22//5 30//5 26//5
f 27//16 22//23 30//16
f 30//15 22//24 27//15
f 24//6 23//6 29//6
f 29//5 23//5 24//5
f 28//27 24//17 31//27
f 31//28 24//18 28//28
f 20//5 28//5 32//5
f 32//6 28//6 20//6
f 29//29 20//25 32//29
f 32//30 20//26 29//30
f 25//24 33//20 26//24
f 26//23 33//19 25//23
f 34//5 25//5 27//5
f 27//6 25//6 34//6
f 33//6 30//6 26//6
f 26//5 30//5 33//5
f 35//8 27//16 30//16
f 30//15 27//15 35//7
f 24//6 29//6 31//6
f 31//5 29//5 24//5
f 36//31 28//27 31//27
f 31//28 28//28 36//32
f 32//5 28//5 37//5
f 37//6 28//6 32//6
f 32//29 38//33 29//29
f 29//30 38//34 32//30
f 33//20 25//24 39//20
f 39//19 25//23 33//19
f 34//5 39//5 25//5
f 25//6 39//6 34//6
f 27//16 35//8 34//8
f 34//7 35//7 27//15
f 33//6 35//6 30//6
f 30//5 35//5 33//5
f 31//6 29//6 38//6
f 38//5 29//5 31//5
f 28//27 36//31 37//31
f 37//32 36//32 28//28
f 31//6 38//6 36//6
f 36//5 38//5 31//5
f 32//5 37//5 40//5
f 40//6 37//6 32//6
f 38//33 32//29 40//33
f 40//34 32//30 38//34
f 39//20 41//14 33//20
f 33//19 41//12 39//19
f 42//5 39//5 34//5
f 34//6 39//6 42//6
f 35//8 42//3 34//8
f 34//7 42//1 35//7
f 41//6 35//6 33//6
f 33//5 35//5 41//5
f 36//31 43//35 37//31
f 37//32 43//36 36//32
f 36//6 38//6 44//6
f 44//5 38//5 36//5
f 40//5 37//5 43//5
f 43//6 37//6 40//6
f 45//37 38//33 40//33
f 40//34 38//34 45//38
f 41//14 39//20 46//14
f 46//12 39//19 41//12
f 42//5 46//5 39//5
f 39//6 46//6 42//6
f 42//3 35//8 47//3
f 47//1 35//7 42//1
f 41//6 47//6 35//6
f 35//5 47//5 41//5
f 43//35 36//31 44//35
f 44//36 36//32 43//36
f 44//6 38//6 48//6
f 48//5 38//5 44//5
f 40//5 43//5 45//5
f 45//6 43//6 40//6
f 38//33 45//37 48//37
f 48//38 45//38 38//34
f 46//14 49//13 41//14
f 41//12 49//11 46//12
f 42//5 50//5 46//5
f 46//6 50//6 42//6
f 51//4 42//3 47//3
f 47//1 42//1 51//2
f 41//6 51//6 47//6
f 47//5 51//5 41//5
f 44//35 52//39 43//35
f 43//36 52//40 44//36
f 44//6 48//6 53//6
f 53//5 48//5 44//5
f 45//5 43//5 54//5
f 54//6 43//6 45//6
f 54//41 48//37 45//37
f 45//38 48//38 54//42
f 49//13 46//14 50//13
f 50//11 46//12 49//11
f 49//6 51//6 41//6
f 41//5 51//5 49//5
f 55//5 50//5 42//5
f 42//6 50//6 55//6
f 42//3 51//4 55//4
f 55//2 51//2 42//1
f 52//39 44//35 56//39
f 56//40 44//36 52//40
f 54//5 43//5 52//5
f 52//6 43//6 54//6
f 48//37 54//41 53//41
f 53//42 54//42 48//38
f 44//6 53//6 56//6
f 56//5 53//5 44//5
f 50//13 57//22 49//13
f 49//11 57//21 50//11
f 57//6 51//6 49//6
f 49//5 51//5 57//5
f 58//5 50//5 55//5
f 55//6 50//6 58//6
f 51//4 58//10 55//4
f 55//2 58//9 51//2
f 59//43 52//39 56//39
f 56//40 52//40 59//44
f 54//5 52//5 60//5
f 60//6 52//6 54//6
f 61//45 53//41 54//41
f 54//42 53//42 61//46
f 56//6 53//6 59//6
f 59//5 53//5 56//5
f 57//22 50//13 62//22
f 62//21 50//11 57//21
f 57//6 63//6 51//6
f 51//5 63//5 57//5
f 58//5 62//5 50//5
f 50//6 62//6 58//6
f 58//10 51//4 63//10
f 63//9 51//2 58//9
f 52//39 59//43 60//43
f 60//44 59//44 52//40
f 54//5 60//5 61//5
f 61//6 60//6 54//6
f 53//41 61//45 64//45
f 64//46 61//46 53//42
f 59//6 53//6 64//6
f 64//5 53//5 59//5
f 65//26 57//22 62//22
f 62//21 57//21 65//25
f 57//6 66//6 63//6
f 63//5 66//5 57//5
f 58//5 65//5 62//5
f 62//6 65//6 58//6
f 63//10 67//18 58//10
f 58//9 67//17 63//9
f 59//43 68//47 60//43
f 60//44 68//48 59//44
f 61//5 60//5 69//5
f 69//6 60//6 61//6
f 69//49 64//45 61//45
f 61//46 64//46 69//50
f 59//6 64//6 70//6
f 70//5 64//5 59//5
f 57//22 65//26 71//26
f 71//25 65//25 57//21
f 71//6 66//6 57//6
f 57//5 66//5 71//5
f 67//18 63//10 66//18
f 66//17 63//9 67//17
f 67//5 65//5 58//5
f 58//6 65//6 67//6
f 68//47 59//43 72//47
f 72//48 59//44 68//48
f 69//5 60//5 68//5
f 68//6 60//6 69//6
f 64//45 69//49 70//49
f 70//50 69//50 64//46
f 59//6 70//6 72//6
f 72//5 70//5 59//5
f 65//26 73//30 71//26
f 71//25 73//29 65//25
f 71//6 74//6 66//6
f 66//5 74//5 71//5
f 66//18 75//28 67//18
f 67//17 75//27 66//17
f 67//5 76//5 65//5
f 65//6 76//6 67//6
f 72//47 77//51 68//47
f 68//48 77//52 72//48
f 69//5 68//5 77//5
f 77//6 68//6 69//6
f 69//49 78//53 70//49
f 70//50 78//54 69//50
f 72//6 70//6 78//6
f 78//5 70//5 72//5
f 73//30 65//26 76//30
f 76//29 65//25 73//29
f 73//6 74//6 71//6
f 71//5 74//5 73//5
f 75//28 66//18 74//28
f 74//27 66//17 75//27
f 75//5 76//5 67//5
f 67//6 76//6 75//6
f 77//51 72//47 79//51
f 79//52 72//48 77//52
f 69//5 77//5 80//5
f 80//6 77//6 69//6
f 78//53 69//49 80//53
f 80//54 69//50 78//54
f 72//6 78//6 79//6
f 79//5 78//5 72//5
f 81//34 73//30 76//30
f 76//29 73//29 81//33
f 82//6 74//6 73//6
f 73//5 74//5 82//5
f 83//32 75//28 74//28
f 74//27 75//27 83//31
f 84//5 76//5 75//5
f 75//6 76//6 84//6
f 78//53 77//51 79//51
f 79//52 77//52 78//54
f 77//51 78//53 80//53
f 80//54 78//54 77//52
f 73//30 81//34 82//34
f 82//33 81//33 73//29
f 84//5 81//5 76//5
f 76//6 81//6 84//6
f 82//6 83//6 74//6
f 74//5 83//5 82//5
f 75//28 83//32 84//32
f 84//31 83//31 75//27
f 85//38 82//34 81//34
f 81//33 82//33 85//37
f 86//5 81//5 84//5
f 84//6 81//6 86//6
f 82//6 87//6 83//6
f 83//5 87//5 82//5
f 87//36 84//32 83//32
f 83//31 84//31 87//35
f 82//34 85//38 88//38
f 88//37 85//37 82//33
f 86//5 85//5 81//5
f 81//6 85//6 86//6
f 84//32 87//36 86//36
f 86//35 87//35 84//31
f 88//6 87//6 82//6
f 82//5 87//5 88//5
f 89//42 88//38 85//38
f 85//37 88//37 89//41
f 86//5 89//5 85//5
f 85//6 89//6 86//6
f 90//40 86//36 87//36
f 87//35 86//35 90//39
f 88//6 90//6 87//6
f 87//5 90//5 88//5
f 88//38 89//42 91//42
f 91//41 89//41 88//37
f 92//5 89//5 86//5
f 86//6 89//6 92//6
f 86//36 90//40 92//40
f 92//39 90//39 86//35
f 91//6 90//6 88//6
f 88//5 90//5 91//5
f 93//46 91//42 89//42
f 89//41 91//41 93//45
f 94//5 89//5 92//5
f 92//6 89//6 94//6
f 95//44 92//40 90//40
f 90//39 92//39 95//43
f 91//6 95//6 90//6
f 90//5 95//5 91//5
f 91//42 93//46 96//46
f 96//45 93//45 91//41
f 94//5 93//5 89//5
f 89//6 93//6 94//6
f 92//40 95//44 94//44
f 94//43 95//43 92//39
f 96//6 95//6 91//6
f 91//5 95//5 96//5
f 97//50 96//46 93//46
f 93//45 96//45 97//49
f 94//5 97//5 93//5
f 93//6 97//6 94//6
f 98//48 94//44 95//44
f 95//43 94//43 98//47
f 96//6 98//6 95//6
f 95//5 98//5 96//5
f 96//46 97//50 99//50
f 99//49 97//49 96//45
f 100//5 97//5 94//5
f 94//6 97//6 100//6
f 94//44 98//48 100//48
f 100//47 98//47 94//43
f 99//6 98//6 96//6
f 96//5 98//5 99//5
f 101//54 99//50 97//50
f 97//49 99//49 101//53
f 100//5 101//5 97//5
f 97//6 101//6 100//6
f 102//52 100//48 98//48
f 98//47 100//47 102//51
f 99//6 102//6 98//6
f 98//5 102//5 99//5
f 99//50 101//54 103//54
f 103//53 101//53 99//49
f 101//5 100//5 104//5
f 104//6 100//6 101//6
f 100//48 102//52 104//52
f 104//51 102//51 100//47
f 102//6 99//6 103//6
f 103//5 99//5 102//5
f 101//54 102//52 103//54
f 103//53 102//51 101//53
f 102//52 101//54 104//52
f 104//51 101//53 102//51
