# SSTK version 0.8.0
# 59
mtllib original-59.mtl
o mesh65/mesh65-geometry#mesh65-geometry
v -0.444165 -0.206999 0.017585
v -0.443970 -0.214742 0.015498
v -0.444046 -0.214879 0.016681
v -0.444089 -0.206863 0.016402
v -0.348713 -0.213312 0.015580
v -0.444102 -0.215427 0.091067
v -0.348832 -0.205433 0.016484
v -0.443741 -0.214605 0.014336
v -0.348635 -0.213447 0.016763
v -0.443983 -0.223306 0.090164
v -0.348754 -0.205568 0.017667
v -0.349063 -0.205303 0.015321
v -0.443860 -0.206726 0.015239
v -0.348944 -0.213183 0.014417
v -0.444024 -0.215561 0.092250
v -0.348691 -0.213995 0.091149
v -0.443364 -0.214471 0.013214
v -0.348572 -0.221874 0.090245
v -0.443905 -0.223441 0.091347
v -0.349443 -0.205180 0.014198
v -0.443483 -0.206591 0.014117
v -0.349324 -0.213059 0.013294
v -0.348648 -0.222011 0.091428
v -0.443674 -0.223571 0.092509
v -0.348767 -0.214132 0.092332
v -0.442844 -0.214341 0.012151
v -0.349845 -0.212945 0.012231
v -0.348877 -0.222148 0.092591
v -0.443793 -0.215691 0.093413
v -0.349964 -0.205066 0.013134
v -0.442963 -0.206462 0.013055
v -0.443413 -0.215814 0.094536
v -0.349254 -0.222282 0.093713
v -0.348996 -0.214269 0.093494
v -0.442309 -0.206339 0.012070
v -0.350501 -0.212842 0.011244
v -0.350620 -0.204963 0.012148
v -0.443294 -0.223694 0.093632
v -0.349373 -0.214403 0.094617
v -0.442190 -0.214218 0.011166
v -0.442892 -0.215928 0.095599
v -0.349774 -0.222412 0.094776
v -0.441415 -0.214104 0.010275
v -0.441534 -0.206225 0.011179
v -0.351278 -0.212752 0.010353
v -0.351397 -0.204872 0.011256
v -0.442773 -0.223808 0.094696
v -0.349893 -0.214533 0.095679
v -0.442236 -0.216032 0.096586
v -0.350547 -0.214656 0.096664
v -0.350428 -0.222535 0.095761
v -0.440649 -0.206122 0.010398
v -0.440530 -0.214001 0.009494
v -0.352283 -0.204796 0.010474
v -0.442117 -0.223911 0.095682
v -0.352164 -0.212675 0.009570
v -0.441459 -0.216122 0.097478
v -0.351322 -0.214770 0.097555
v -0.351203 -0.222649 0.096651
v -0.439670 -0.206032 0.009740
v -0.353263 -0.204735 0.009815
v -0.353144 -0.212614 0.008911
v -0.441340 -0.224002 0.096574
v -0.439551 -0.213911 0.008837
v -0.440454 -0.224078 0.097356
v -0.440573 -0.216199 0.098260
v -0.352207 -0.214873 0.098336
v -0.352088 -0.222752 0.097432
v -0.438614 -0.205956 0.009217
v -0.438495 -0.213835 0.008313
v -0.354201 -0.212570 0.008386
v -0.354320 -0.204691 0.009289
v -0.439474 -0.224139 0.098016
v -0.353067 -0.222842 0.098090
v -0.439593 -0.216259 0.098919
v -0.353186 -0.214963 0.098993
v -0.437499 -0.205895 0.008837
v -0.355435 -0.204664 0.008907
v -0.355316 -0.212543 0.008004
v -0.437380 -0.213775 0.007933
v -0.438417 -0.224183 0.098541
v -0.354123 -0.222918 0.098613
v -0.354242 -0.215039 0.099517
v -0.436344 -0.205852 0.008607
v -0.356591 -0.204655 0.008675
v -0.356472 -0.212534 0.007771
v -0.438536 -0.216304 0.099444
v -0.436225 -0.213731 0.007703
v -0.437302 -0.224210 0.098923
v -0.355238 -0.222978 0.098993
v -0.355357 -0.215099 0.099897
v -0.435050 -0.213704 0.007626
v -0.357766 -0.204663 0.008597
v -0.437421 -0.216331 0.099826
v -0.435169 -0.205825 0.008530
v -0.357647 -0.212543 0.007693
v -0.436146 -0.224219 0.099155
v -0.356393 -0.223022 0.099223
v -0.356512 -0.215143 0.100127
v -0.436265 -0.216340 0.100059
v -0.434971 -0.224210 0.099234
v -0.357687 -0.215170 0.100204
v -0.435090 -0.216331 0.100137
v -0.357568 -0.223049 0.099300
vn -0.9993929729350574 -0.011316865587897844 -0.03294866008342826
vn -0.9916565095607531 -0.00019349665764915424 -0.12890822163394833
vn 0.9993929729350574 0.011316865587897844 0.03294866008342826
vn 0.9916565095607531 0.00019349665764915424 0.12890822163394833
vn 0.015005146057995399 -0.9933743704035541 -0.11393948313521737
vn -0.015005146057995399 0.9933743704035541 0.11393948313521737
vn -0.9993375638645502 -0.018677765354644837 0.03123418848990707
vn 0.9993375638645502 0.018677765354644837 -0.03123418848990707
vn -0.9668532751089518 0.014633829774545887 -0.25491291736046434
vn 0.9668532751089518 -0.014633829774545887 0.25491291736046434
vn 0.9914354050786988 0.029566447972002734 -0.12720716454176273
vn -0.9914354050786988 -0.029566447972002734 0.12720716454176273
vn 0.9664145739553832 0.04364607258473411 -0.2532545983680524
vn -0.9664145739553832 -0.04364607258473411 0.2532545983680524
vn -0.9258108310170541 0.0292404147223979 -0.37685448560203444
vn 0.9258108310170541 -0.0292404147223979 0.37685448560203444
vn 0.9251615245442766 0.057017662164071115 -0.3752667580591891
vn -0.9251615245442766 -0.057017662164071115 0.3752667580591891
vn -0.8690956934772227 0.043388808271246956 -0.49273734067568503
vn 0.8690956934772227 -0.043388808271246956 0.49273734067568503
vn 0.8682462194584478 0.06946082175184212 -0.49124708308311776
vn -0.8682462194584478 -0.06946082175184212 0.49124708308311776
vn -0.7975156805778649 0.05684346948084865 -0.6006143181858096
vn 0.7975156805778649 -0.05684346948084865 0.6006143181858096
vn 0.7964798399603056 0.08076430647329523 -0.5992470202985524
vn -0.7964798399603056 -0.08076430647329523 0.5992470202985524
vn -0.7121308624833541 0.06937336165863266 -0.6986107438272725
vn 0.7121308624833541 -0.06937336165863266 0.6986107438272725
vn 0.7109256946002999 0.09072894484216468 -0.697390074008018
vn -0.7109256946002999 -0.09072894484216468 0.697390074008018
vn -0.6142604524393624 0.08075595482596612 -0.784960236145205
vn 0.6142604524393624 -0.08075595482596612 0.784960236145205
vn 0.6129060484153493 0.09917184712384769 -0.7839075969487256
vn -0.6129060484153493 -0.09917184712384769 0.7839075969487256
vn -0.5054809147582989 0.09078230343955943 -0.8580487271695711
vn 0.5054809147582989 -0.09078230343955943 0.8580487271695711
vn 0.50400015490537 0.10593142512983393 -0.8571828142382026
vn -0.50400015490537 -0.10593142512983393 0.8571828142382026
vn -0.38761821945031133 0.09926239659569897 -0.9164600878228405
vn 0.38761821945031133 -0.09926239659569897 0.9164600878228405
vn 0.3860364318758944 0.11087250877253496 -0.9157964621372
vn -0.3860364318758944 -0.11087250877253496 0.9157964621372
vn -0.2627177688367815 0.10603167873869009 -0.95902901783068
vn 0.2627177688367815 -0.10603167873869009 0.95902901783068
vn 0.26106229668721 0.11389196278959018 -0.9585797296314656
vn -0.26106229668721 -0.11389196278959018 0.9585797296314656
vn -0.13301000518581874 0.1109565248014569 -0.9848842511302798
vn 0.13301000518581874 -0.1109565248014569 0.9848842511302798
vn 0.13130969924038 0.11492312852273716 -0.9846575229062883
vn -0.13130969924038 -0.11492312852273716 0.9846575229062883
vn -0.03399566668431053 0.11337958650490515 -0.992969971353951
vn 0.03399566668431053 -0.11337958650490515 0.992969971353951
vn 0.0322812532749417 0.11437419369060882 -0.9929131203205155
vn -0.0322812532749417 -0.11437419369060882 0.9929131203205155
usemtl material_0_0
f 1//1 2//2 3//1
f 2//2 1//1 4//2
f 3//3 2//4 1//3
f 4//4 1//3 2//4
f 2//5 5//5 3//5
f 3//6 5//6 2//6
f 3//1 6//7 1//1
f 1//3 6//8 3//3
f 7//6 4//6 1//6
f 1//5 4//5 7//5
f 4//2 8//9 2//2
f 2//4 8//10 4//4
f 8//5 5//5 2//5
f 2//6 5//6 8//6
f 3//5 5//5 9//5
f 9//6 5//6 3//6
f 6//7 3//1 10//7
f 10//8 3//3 6//8
f 11//6 1//6 6//6
f 6//5 1//5 11//5
f 12//6 4//6 7//6
f 7//5 4//5 12//5
f 7//6 1//6 11//6
f 11//5 1//5 7//5
f 8//9 4//2 13//9
f 13//10 4//4 8//10
f 8//5 14//5 5//5
f 5//6 14//6 8//6
f 7//11 9//8 5//11
f 5//12 9//7 7//12
f 3//5 9//5 10//5
f 10//6 9//6 3//6
f 10//7 15//12 6//7
f 6//8 15//11 10//8
f 11//6 6//6 16//6
f 16//5 6//5 11//5
f 12//6 13//6 4//6
f 4//5 13//5 12//5
f 5//11 12//13 7//11
f 7//12 12//14 5//12
f 9//8 7//11 11//8
f 11//7 7//12 9//7
f 13//9 17//15 8//9
f 8//10 17//16 13//10
f 17//5 14//5 8//5
f 8//6 14//6 17//6
f 12//13 5//11 14//13
f 14//14 5//12 12//14
f 10//5 9//5 18//5
f 18//6 9//6 10//6
f 15//12 10//7 19//12
f 19//11 10//8 15//11
f 16//6 6//6 15//6
f 15//5 6//5 16//5
f 18//3 11//8 16//3
f 16//1 11//7 18//1
f 20//6 13//6 12//6
f 12//5 13//5 20//5
f 11//8 18//3 9//8
f 9//7 18//1 11//7
f 17//15 13//9 21//15
f 21//16 13//10 17//16
f 17//5 22//5 14//5
f 14//6 22//6 17//6
f 14//13 20//17 12//13
f 12//14 20//18 14//14
f 10//5 18//5 23//5
f 23//6 18//6 10//6
f 10//5 23//5 19//5
f 19//6 23//6 10//6
f 24//14 15//12 19//12
f 19//11 15//11 24//13
f 16//6 15//6 25//6
f 25//5 15//5 16//5
f 25//4 18//3 16//3
f 16//1 18//1 25//2
f 20//6 21//6 13//6
f 13//5 21//5 20//5
f 21//15 26//19 17//15
f 17//16 26//20 21//16
f 17//5 27//5 22//5
f 22//6 27//6 17//6
f 20//17 14//13 22//17
f 22//18 14//14 20//18
f 18//3 25//4 23//4
f 23//2 25//2 18//1
f 19//5 23//5 28//5
f 28//6 23//6 19//6
f 15//12 24//14 29//14
f 29//13 24//13 15//11
f 19//5 28//5 24//5
f 24//6 28//6 19//6
f 25//6 15//6 29//6
f 29//5 15//5 25//5
f 30//6 21//6 20//6
f 20//5 21//5 30//5
f 26//19 21//15 31//19
f 31//20 21//16 26//20
f 26//5 27//5 17//5
f 17//6 27//6 26//6
f 30//21 22//17 27//21
f 27//22 22//18 30//22
f 22//17 30//21 20//17
f 20//18 30//22 22//18
f 25//4 28//10 23//4
f 23//2 28//9 25//2
f 24//14 32//18 29//14
f 29//13 32//17 24//13
f 24//5 28//5 33//5
f 33//6 28//6 24//6
f 25//6 29//6 34//6
f 34//5 29//5 25//5
f 30//6 31//6 21//6
f 21//5 31//5 30//5
f 35//23 26//19 31//19
f 31//20 26//20 35//24
f 26//5 36//5 27//5
f 27//6 36//6 26//6
f 27//21 37//25 30//21
f 30//22 37//26 27//22
f 28//10 25//4 34//10
f 34//9 25//2 28//9
f 32//18 24//14 38//18
f 38//17 24//13 32//17
f 39//6 29//6 32//6
f 32//5 29//5 39//5
f 28//10 39//16 33//16
f 33//15 39//15 28//9
f 24//5 33//5 38//5
f 38//6 33//6 24//6
f 34//6 29//6 39//6
f 39//5 29//5 34//5
f 37//6 31//6 30//6
f 30//5 31//5 37//5
f 26//19 35//23 40//23
f 40//24 35//24 26//20
f 37//6 35//6 31//6
f 31//5 35//5 37//5
f 40//5 36//5 26//5
f 26//6 36//6 40//6
f 37//25 27//21 36//25
f 36//26 27//22 37//26
f 39//16 28//10 34//10
f 34//9 28//9 39//15
f 38//18 41//22 32//18
f 32//17 41//21 38//17
f 39//6 32//6 41//6
f 41//5 32//5 39//5
f 39//16 42//20 33//16
f 33//15 42//19 39//15
f 38//5 33//5 42//5
f 42//6 33//6 38//6
f 35//23 43//27 40//23
f 40//24 43//28 35//24
f 37//6 44//6 35//6
f 35//5 44//5 37//5
f 40//5 45//5 36//5
f 36//6 45//6 40//6
f 36//25 46//29 37//25
f 37//26 46//30 36//26
f 41//22 38//18 47//22
f 47//21 38//17 41//21
f 39//6 41//6 48//6
f 48//5 41//5 39//5
f 42//20 39//16 48//20
f 48//19 39//15 42//19
f 38//5 42//5 47//5
f 47//6 42//6 38//6
f 43//27 35//23 44//27
f 44//28 35//24 43//28
f 43//5 45//5 40//5
f 40//6 45//6 43//6
f 46//6 44//6 37//6
f 37//5 44//5 46//5
f 46//29 36//25 45//29
f 45//30 36//26 46//30
f 47//22 49//26 41//22
f 41//21 49//25 47//21
f 48//6 41//6 50//6
f 50//5 41//5 48//5
f 48//20 51//24 42//20
f 42//19 51//23 48//19
f 47//5 42//5 51//5
f 51//6 42//6 47//6
f 52//31 43//27 44//27
f 44//28 43//28 52//32
f 53//5 45//5 43//5
f 43//6 45//6 53//6
f 54//6 44//6 46//6
f 46//5 44//5 54//5
f 45//29 54//33 46//29
f 46//30 54//34 45//30
f 49//26 47//22 55//26
f 55//25 47//21 49//25
f 50//6 41//6 49//6
f 49//5 41//5 50//5
f 51//24 48//20 50//24
f 50//23 48//19 51//23
f 47//5 51//5 55//5
f 55//6 51//6 47//6
f 43//27 52//31 53//31
f 53//32 52//32 43//28
f 54//6 52//6 44//6
f 44//5 52//5 54//5
f 53//5 56//5 45//5
f 45//6 56//6 53//6
f 54//33 45//29 56//33
f 56//34 45//30 54//34
f 55//26 57//30 49//26
f 49//25 57//29 55//25
f 50//6 49//6 57//6
f 57//5 49//5 50//5
f 58//28 51//24 50//24
f 50//23 51//23 58//27
f 55//5 51//5 59//5
f 59//6 51//6 55//6
f 60//35 53//31 52//31
f 52//32 53//32 60//36
f 61//6 52//6 54//6
f 54//5 52//5 61//5
f 53//5 62//5 56//5
f 56//6 62//6 53//6
f 56//33 61//37 54//33
f 54//34 61//38 56//34
f 57//30 55//26 63//30
f 63//29 55//25 57//29
f 50//6 57//6 58//6
f 58//5 57//5 50//5
f 51//24 58//28 59//28
f 59//27 58//27 51//23
f 55//5 59//5 63//5
f 63//6 59//6 55//6
f 53//31 60//35 64//35
f 64//36 60//36 53//32
f 61//6 60//6 52//6
f 52//5 60//5 61//5
f 64//5 62//5 53//5
f 53//6 62//6 64//6
f 61//37 56//33 62//37
f 62//38 56//34 61//38
f 65//34 57//30 63//30
f 63//29 57//29 65//33
f 58//6 57//6 66//6
f 66//5 57//5 58//5
f 67//32 59//28 58//28
f 58//27 59//27 67//31
f 63//5 59//5 68//5
f 68//6 59//6 63//6
f 69//39 64//35 60//35
f 60//36 64//36 69//40
f 61//6 69//6 60//6
f 60//5 69//5 61//5
f 70//5 62//5 64//5
f 64//6 62//6 70//6
f 71//41 61//37 62//37
f 62//38 61//38 71//42
f 57//30 65//34 66//34
f 66//33 65//33 57//29
f 63//5 68//5 65//5
f 65//6 68//6 63//6
f 58//6 66//6 67//6
f 67//5 66//5 58//5
f 59//28 67//32 68//32
f 68//31 67//31 59//27
f 64//35 69//39 70//39
f 70//40 69//40 64//36
f 72//6 69//6 61//6
f 61//5 69//5 72//5
f 70//5 71//5 62//5
f 62//6 71//6 70//6
f 61//37 71//41 72//41
f 72//42 71//42 61//38
f 73//38 66//34 65//34
f 65//33 66//33 73//37
f 65//5 68//5 74//5
f 74//6 68//6 65//6
f 67//6 66//6 75//6
f 75//5 66//5 67//5
f 76//36 68//32 67//32
f 67//31 68//31 76//35
f 77//43 70//39 69//39
f 69//40 70//40 77//44
f 78//6 69//6 72//6
f 72//5 69//5 78//5
f 70//5 79//5 71//5
f 71//6 79//6 70//6
f 79//45 72//41 71//41
f 71//42 72//42 79//46
f 66//34 73//38 75//38
f 75//37 73//37 66//33
f 65//5 74//5 73//5
f 73//6 74//6 65//6
f 68//32 76//36 74//36
f 74//35 76//35 68//31
f 67//6 75//6 76//6
f 76//5 75//5 67//5
f 70//39 77//43 80//43
f 80//44 77//44 70//40
f 78//6 77//6 69//6
f 69//5 77//5 78//5
f 72//41 79//45 78//45
f 78//46 79//46 72//42
f 80//5 79//5 70//5
f 70//6 79//6 80//6
f 81//42 75//38 73//38
f 73//37 75//37 81//41
f 73//5 74//5 82//5
f 82//6 74//6 73//6
f 83//40 74//36 76//36
f 76//35 74//35 83//39
f 76//6 75//6 83//6
f 83//5 75//5 76//5
f 84//47 80//43 77//43
f 77//44 80//44 84//48
f 85//6 77//6 78//6
f 78//5 77//5 85//5
f 86//49 78//45 79//45
f 79//46 78//46 86//50
f 80//5 86//5 79//5
f 79//6 86//6 80//6
f 75//38 81//42 87//42
f 87//41 81//41 75//37
f 73//5 82//5 81//5
f 81//6 82//6 73//6
f 74//36 83//40 82//40
f 82//39 83//39 74//35
f 83//6 75//6 87//6
f 87//5 75//5 83//5
f 80//43 84//47 88//47
f 88//48 84//48 80//44
f 85//6 84//6 77//6
f 77//5 84//5 85//5
f 78//45 86//49 85//49
f 85//50 86//50 78//46
f 88//5 86//5 80//5
f 80//6 86//6 88//6
f 89//46 87//42 81//42
f 81//41 87//41 89//45
f 81//5 82//5 90//5
f 90//6 82//6 81//6
f 91//44 82//40 83//40
f 83//39 82//39 91//43
f 83//6 87//6 91//6
f 91//5 87//5 83//5
f 84//47 92//51 88//47
f 88//48 92//52 84//48
f 93//6 84//6 85//6
f 85//5 84//5 93//5
f 86//49 93//53 85//49
f 85//50 93//54 86//50
f 92//5 86//5 88//5
f 88//6 86//6 92//6
f 87//42 89//46 94//46
f 94//45 89//45 87//41
f 81//5 90//5 89//5
f 89//6 90//6 81//6
f 82//40 91//44 90//44
f 90//43 91//43 82//39
f 91//6 87//6 94//6
f 94//5 87//5 91//5
f 92//51 84//47 95//51
f 95//52 84//48 92//52
f 84//6 93//6 95//6
f 95//5 93//5 84//5
f 93//53 86//49 96//53
f 96//54 86//50 93//54
f 86//5 92//5 96//5
f 96//6 92//6 86//6
f 97//50 94//46 89//46
f 89//45 94//45 97//49
f 89//5 90//5 98//5
f 98//6 90//6 89//6
f 99//48 90//44 91//44
f 91//43 90//43 99//47
f 91//6 94//6 99//6
f 99//5 94//5 91//5
f 93//53 92//51 95//51
f 95//52 92//52 93//54
f 92//51 93//53 96//53
f 96//54 93//54 92//52
f 94//46 97//50 100//50
f 100//49 97//49 94//45
f 89//5 98//5 97//5
f 97//6 98//6 89//6
f 90//44 99//48 98//48
f 98//47 99//47 90//43
f 99//6 94//6 100//6
f 100//5 94//5 99//5
f 101//54 100//50 97//50
f 97//49 100//49 101//53
f 97//5 98//5 101//5
f 101//6 98//6 97//6
f 102//52 98//48 99//48
f 99//47 98//47 102//51
f 99//6 100//6 103//6
f 103//5 100//5 99//5
f 100//50 101//54 103//54
f 103//53 101//53 100//49
f 101//5 98//5 104//5
f 104//6 98//6 101//6
f 98//48 102//52 104//52
f 104//51 102//51 98//47
f 99//6 103//6 102//6
f 102//5 103//5 99//5
f 104//52 103//54 101//54
f 101//53 103//53 104//51
f 103//54 104//52 102//52
f 102//51 104//51 103//53
