# SSTK version 0.8.0
# 24
mtllib original-24.mtl
o mesh30/mesh30-geometry#mesh30-geometry
v 0.224154 -0.195316 -0.065882
v 0.141918 -0.196559 -0.065875
v 0.143104 -0.196532 -0.065951
v 0.225341 -0.195307 -0.065803
v 0.142985 -0.188653 -0.065047
v 0.224035 -0.187436 -0.064978
v 0.225222 -0.187427 -0.064899
v 0.140751 -0.196603 -0.065644
v 0.141799 -0.188679 -0.064971
v 0.226389 -0.187436 -0.064667
v 0.226508 -0.195316 -0.065571
v 0.140632 -0.188723 -0.064741
v 0.139625 -0.196663 -0.065264
v 0.227516 -0.187463 -0.064285
v 0.139506 -0.188784 -0.064361
v 0.227635 -0.195342 -0.065189
v 0.228702 -0.195387 -0.064664
v 0.228583 -0.187507 -0.063760
v 0.138440 -0.188860 -0.063837
v 0.138559 -0.196739 -0.064741
v 0.229573 -0.187568 -0.063101
v 0.137570 -0.196830 -0.064083
v 0.137451 -0.188950 -0.063180
v 0.229692 -0.195447 -0.064004
v 0.230468 -0.187644 -0.062318
v 0.136677 -0.196933 -0.063303
v 0.230587 -0.195523 -0.063222
v 0.136558 -0.189053 -0.062399
v 0.231372 -0.195614 -0.062330
v 0.231253 -0.187735 -0.061426
v 0.135893 -0.197047 -0.062412
v 0.135774 -0.189167 -0.061508
v 0.231914 -0.187838 -0.060440
v 0.232033 -0.195717 -0.061344
v 0.135114 -0.189290 -0.060523
v 0.135233 -0.197170 -0.061427
v 0.232560 -0.195831 -0.060280
v 0.134589 -0.189420 -0.059460
v 0.134708 -0.197299 -0.060364
v 0.232441 -0.187952 -0.059377
v 0.232825 -0.188075 -0.058254
v 0.134327 -0.197434 -0.059242
v 0.134208 -0.189555 -0.058338
v 0.232944 -0.195954 -0.059157
v 0.233177 -0.196084 -0.057995
v 0.133977 -0.189691 -0.057176
v 0.233058 -0.188205 -0.057091
v 0.134096 -0.197571 -0.058080
v 0.233256 -0.196218 -0.056812
v 0.233137 -0.188339 -0.055908
v 0.133900 -0.189828 -0.055993
v 0.134019 -0.197708 -0.056897
v 0.233171 -0.192926 -0.015916
v 0.233290 -0.200805 -0.016820
v 0.134053 -0.202294 -0.016905
v 0.133934 -0.194415 -0.016001
v 0.233213 -0.200942 -0.015637
v 0.134013 -0.194549 -0.014818
v 0.233094 -0.193062 -0.014733
v 0.134132 -0.202429 -0.015722
v 0.232863 -0.193199 -0.013571
v 0.232982 -0.201079 -0.014475
v 0.134246 -0.194679 -0.013655
v 0.134365 -0.202558 -0.014559
v 0.232601 -0.201213 -0.013352
v 0.232482 -0.193334 -0.012449
v 0.134749 -0.202681 -0.013436
v 0.134630 -0.194802 -0.012533
v 0.232076 -0.201343 -0.012290
v 0.135157 -0.194916 -0.011469
v 0.231957 -0.193464 -0.011386
v 0.135276 -0.202795 -0.012373
v 0.231416 -0.201466 -0.011305
v 0.231297 -0.193587 -0.010401
v 0.135818 -0.195019 -0.010483
v 0.135937 -0.202899 -0.011387
v 0.230632 -0.201580 -0.010414
v 0.136722 -0.202989 -0.010495
v 0.136603 -0.195110 -0.009591
v 0.230513 -0.193700 -0.009510
v 0.229620 -0.193804 -0.008730
v 0.137617 -0.203065 -0.009712
v 0.137498 -0.195186 -0.008809
v 0.229739 -0.201683 -0.009633
v 0.228750 -0.201773 -0.008976
v 0.138488 -0.195247 -0.008149
v 0.138607 -0.203126 -0.009053
v 0.228631 -0.193894 -0.008072
v 0.227565 -0.193970 -0.007548
v 0.227684 -0.201849 -0.008452
v 0.139555 -0.195291 -0.007624
v 0.139674 -0.203170 -0.008528
v 0.226439 -0.194031 -0.007168
v 0.226558 -0.201910 -0.008072
v 0.140801 -0.203197 -0.008146
v 0.140682 -0.195318 -0.007242
v 0.225272 -0.194075 -0.006938
v 0.225391 -0.201954 -0.007842
v 0.141968 -0.203206 -0.007913
v 0.141849 -0.195327 -0.007010
v 0.224085 -0.194101 -0.006862
v 0.224205 -0.201981 -0.007765
v 0.143155 -0.203197 -0.007835
v 0.143036 -0.195318 -0.006931
vn 0.015005146057995399 -0.9933743704035541 -0.11393948313521737
vn -0.015005146057995399 0.9933743704035541 0.11393948313521737
vn -0.1317413359004002 0.1109947510595046 -0.9850504482778617
vn -0.03366973556137137 0.11338570340961619 -0.9929803780385259
vn 0.03366973556137137 -0.11338570340961619 0.9929803780385259
vn 0.1317413359004002 -0.1109947510595046 0.9850504482778617
vn 0.031955303701083376 0.1143705279254907 -0.9929240861754821
vn -0.031955303701083376 -0.1143705279254907 0.9929240861754821
vn 0.13004074111970798 0.11492327301032408 -0.9848258967805587
vn -0.13004074111970798 -0.11492327301032408 0.9848258967805587
vn 0.2586770282567713 0.11392956518112518 -0.9592216893033045
vn -0.2586770282567713 -0.11392956518112518 0.9592216893033045
vn -0.2603336052823899 0.10614085523666744 -0.9596668863779252
vn 0.2603336052823899 -0.10614085523666744 0.9596668863779252
vn 0.38281488687853904 0.11097738700763086 -0.9171350947145844
vn -0.38281488687853904 -0.11097738700763086 0.9171350947145844
vn -0.38439898096714575 0.09946393064303274 -0.9177931956233157
vn 0.38439898096714575 -0.09946393064303274 0.9177931956233157
vn 0.50031075918981 0.10612060960861476 -0.8593180787433788
vn -0.50031075918981 -0.10612060960861476 0.8593180787433788
vn -0.5017952003301561 0.09108216502205588 -0.8601776654508727
vn 0.5017952003301561 -0.09108216502205588 0.8601776654508727
vn 0.6091461653047086 0.09944659765825427 -0.786798146609895
vn -0.6091461653047086 -0.09944659765825427 0.786798146609895
vn -0.6105055545884679 0.08114347848181419 -0.7878443397756303
vn 0.6105055545884679 -0.08114347848181419 0.7878443397756303
vn 0.7074667438759756 0.09107400715355662 -0.7008540015798717
vn -0.7074667438759756 -0.09107400715355662 0.7008540015798717
vn -0.7086778874598136 0.06982215013925669 -0.7020687424856819
vn 0.7086778874598136 -0.06982215013925669 0.7020687424856819
vn 0.7936111953107208 0.08115019526030348 -0.6029891512180827
vn -0.7936111953107208 -0.08115019526030348 0.6029891512180827
vn -0.7946534928497399 0.05731535995692809 -0.6043515333104701
vn 0.7946534928497399 -0.05731535995692809 0.6043515333104701
vn 0.866139063365104 0.06984779461643287 -0.49489838199396136
vn -0.866139063365104 -0.06984779461643287 0.49489838199396136
vn -0.8669948386024261 0.04383893008646796 -0.49638503003779905
vn 0.8669948386024261 -0.04383893008646796 0.49638503003779905
vn 0.9238470941709856 0.05736167809518027 -0.3784391423702509
vn -0.9238470941709856 -0.05736167809518027 0.3784391423702509
vn -0.9245018761415539 0.029623799378259527 -0.38002461962502326
vn 0.9245018761415539 -0.029623799378259527 0.38002461962502326
vn 0.9657862367485248 0.04390513192480342 -0.25559593951741066
vn -0.9657862367485248 -0.04390513192480342 0.25559593951741066
vn -0.9662289795353848 0.014911687175316055 -0.2572531840261543
vn 0.9662289795353848 -0.014911687175316055 0.2572531840261543
vn 0.9912710791243698 0.02970641739812555 -0.12844912010977588
vn -0.9912710791243698 -0.02970641739812555 0.12844912010977588
vn -0.9914943277257926 -0.00004862738111664352 -0.13014989713002606
vn 0.9914943277257926 0.00004862738111664352 0.13014989713002606
vn 0.9993268978266164 0.018714068352772197 -0.03155209859770174
vn -0.9993268978266164 -0.018714068352772197 0.03155209859770174
vn -0.9993828557854972 -0.011280250699784708 -0.03326655236381503
vn 0.9993828557854972 0.011280250699784708 0.03326655236381503
usemtl material_0_0
f 1//1 2//1 3//1
f 2//1 1//1 4//1
f 3//2 2//2 1//2
f 4//2 1//2 2//2
f 2//3 5//4 3//4
f 3//5 5//5 2//6
f 3//4 6//7 1//7
f 1//8 6//8 3//5
f 1//7 7//9 4//9
f 4//10 7//10 1//8
f 2//1 4//1 8//1
f 8//2 4//2 2//2
f 5//4 2//3 9//3
f 9//6 2//6 5//5
f 6//7 3//4 5//4
f 5//5 3//5 6//8
f 7//9 1//7 6//7
f 6//8 1//8 7//10
f 10//11 4//9 7//9
f 7//10 4//10 10//12
f 8//1 4//1 11//1
f 11//2 4//2 8//2
f 8//13 9//3 2//3
f 2//6 9//6 8//14
f 9//2 6//2 5//2
f 5//1 6//1 9//1
f 6//2 9//2 7//2
f 7//1 9//1 6//1
f 4//9 10//11 11//11
f 11//12 10//12 4//10
f 7//2 12//2 10//2
f 10//1 12//1 7//1
f 8//1 11//1 13//1
f 13//2 11//2 8//2
f 9//3 8//13 12//13
f 12//14 8//14 9//6
f 7//2 9//2 12//2
f 12//1 9//1 7//1
f 14//15 11//11 10//11
f 10//12 11//12 14//16
f 10//2 12//2 15//2
f 15//1 12//1 10//1
f 13//1 11//1 16//1
f 16//2 11//2 13//2
f 13//17 12//13 8//13
f 8//14 12//14 13//18
f 11//11 14//15 16//15
f 16//16 14//16 11//12
f 10//2 15//2 14//2
f 14//1 15//1 10//1
f 12//13 13//17 15//17
f 15//18 13//18 12//14
f 13//1 16//1 17//1
f 17//2 16//2 13//2
f 18//19 16//15 14//15
f 14//16 16//16 18//20
f 14//2 15//2 19//2
f 19//1 15//1 14//1
f 20//21 15//17 13//17
f 13//18 15//18 20//22
f 16//15 18//19 17//19
f 17//20 18//20 16//16
f 13//1 17//1 20//1
f 20//2 17//2 13//2
f 14//2 19//2 18//2
f 18//1 19//1 14//1
f 15//17 20//21 19//21
f 19//22 20//22 15//18
f 21//23 17//19 18//19
f 18//20 17//20 21//24
f 20//1 17//1 22//1
f 22//2 17//2 20//2
f 18//2 19//2 23//2
f 23//1 19//1 18//1
f 22//25 19//21 20//21
f 20//22 19//22 22//26
f 17//19 21//23 24//23
f 24//24 21//24 17//20
f 18//2 23//2 21//2
f 21//1 23//1 18//1
f 22//1 17//1 24//1
f 24//2 17//2 22//2
f 19//21 22//25 23//25
f 23//26 22//26 19//22
f 25//27 24//23 21//23
f 21//24 24//24 25//28
f 21//2 23//2 25//2
f 25//1 23//1 21//1
f 22//1 24//1 26//1
f 26//2 24//2 22//2
f 26//29 23//25 22//25
f 22//26 23//26 26//30
f 24//23 25//27 27//27
f 27//28 25//28 24//24
f 25//2 23//2 28//2
f 28//1 23//1 25//1
f 26//1 24//1 27//1
f 27//2 24//2 26//2
f 23//25 26//29 28//29
f 28//30 26//30 23//26
f 25//27 29//31 27//27
f 27//28 29//32 25//28
f 25//2 28//2 30//2
f 30//1 28//1 25//1
f 26//1 27//1 31//1
f 31//2 27//2 26//2
f 31//33 28//29 26//29
f 26//30 28//30 31//34
f 29//31 25//27 30//31
f 30//32 25//28 29//32
f 31//1 27//1 29//1
f 29//2 27//2 31//2
f 30//2 28//2 32//2
f 32//1 28//1 30//1
f 28//29 31//33 32//33
f 32//34 31//34 28//30
f 33//35 29//31 30//31
f 30//32 29//32 33//36
f 31//1 29//1 34//1
f 34//2 29//2 31//2
f 30//2 32//2 35//2
f 35//1 32//1 30//1
f 31//33 35//37 32//33
f 32//34 35//38 31//34
f 29//31 33//35 34//35
f 34//36 33//36 29//32
f 30//2 35//2 33//2
f 33//1 35//1 30//1
f 31//1 34//1 36//1
f 36//2 34//2 31//2
f 35//37 31//33 36//37
f 36//38 31//34 35//38
f 33//35 37//39 34//35
f 34//36 37//40 33//36
f 33//2 35//2 38//2
f 38//1 35//1 33//1
f 36//1 34//1 39//1
f 39//2 34//2 36//2
f 39//41 35//37 36//37
f 36//38 35//38 39//42
f 37//39 33//35 40//39
f 40//40 33//36 37//40
f 39//1 34//1 37//1
f 37//2 34//2 39//2
f 35//37 39//41 38//41
f 38//42 39//42 35//38
f 33//2 38//2 40//2
f 40//1 38//1 33//1
f 41//43 37//39 40//39
f 40//40 37//40 41//44
f 39//1 37//1 42//1
f 42//2 37//2 39//2
f 42//45 38//41 39//41
f 39//42 38//42 42//46
f 40//2 38//2 43//2
f 43//1 38//1 40//1
f 37//39 41//43 44//43
f 44//44 41//44 37//40
f 40//2 43//2 41//2
f 41//1 43//1 40//1
f 42//1 37//1 44//1
f 44//2 37//2 42//2
f 38//41 42//45 43//45
f 43//46 42//46 38//42
f 41//43 45//47 44//43
f 44//44 45//48 41//44
f 41//2 43//2 46//2
f 46//1 43//1 41//1
f 42//1 44//1 45//1
f 45//2 44//2 42//2
f 42//45 46//49 43//45
f 43//46 46//50 42//46
f 45//47 41//43 47//47
f 47//48 41//44 45//48
f 41//2 46//2 47//2
f 47//1 46//1 41//1
f 42//1 45//1 48//1
f 48//2 45//2 42//2
f 46//49 42//45 48//49
f 48//50 42//46 46//50
f 47//47 49//51 45//47
f 45//48 49//52 47//48
f 47//2 46//2 50//2
f 50//1 46//1 47//1
f 48//1 45//1 49//1
f 49//2 45//2 48//2
f 48//49 51//53 46//49
f 46//50 51//54 48//50
f 49//51 47//47 50//51
f 50//52 47//48 49//52
f 50//2 46//2 51//2
f 51//1 46//1 50//1
f 48//1 49//1 52//1
f 52//2 49//2 48//2
f 51//53 48//49 52//53
f 52//54 48//50 51//54
f 53//54 49//51 50//51
f 50//52 49//52 53//53
f 50//2 51//2 53//2
f 53//1 51//1 50//1
f 52//1 49//1 54//1
f 54//2 49//2 52//2
f 55//52 51//53 52//53
f 52//54 51//54 55//51
f 49//51 53//54 54//54
f 54//53 53//53 49//52
f 53//2 51//2 56//2
f 56//1 51//1 53//1
f 52//1 54//1 55//1
f 55//2 54//2 52//2
f 51//53 55//52 56//52
f 56//51 55//51 51//54
f 53//54 57//50 54//54
f 54//53 57//49 53//53
f 53//2 56//2 58//2
f 58//1 56//1 53//1
f 55//1 54//1 57//1
f 57//2 54//2 55//2
f 55//52 58//48 56//52
f 56//51 58//47 55//51
f 57//50 53//54 59//50
f 59//49 53//53 57//49
f 53//2 58//2 59//2
f 59//1 58//1 53//1
f 55//1 57//1 60//1
f 60//2 57//2 55//2
f 58//48 55//52 60//48
f 60//47 55//51 58//47
f 61//46 57//50 59//50
f 59//49 57//49 61//45
f 59//2 58//2 61//2
f 61//1 58//1 59//1
f 60//1 57//1 62//1
f 62//2 57//2 60//2
f 60//48 63//44 58//48
f 58//47 63//43 60//47
f 57//50 61//46 62//46
f 62//45 61//45 57//49
f 61//2 58//2 63//2
f 63//1 58//1 61//1
f 60//1 62//1 64//1
f 64//2 62//2 60//2
f 63//44 60//48 64//44
f 64//43 60//47 63//43
f 61//46 65//42 62//46
f 62//45 65//41 61//45
f 61//2 63//2 66//2
f 66//1 63//1 61//1
f 64//1 62//1 67//1
f 67//2 62//2 64//2
f 64//44 68//40 63//44
f 63//43 68//39 64//43
f 65//42 61//46 66//42
f 66//41 61//45 65//41
f 67//1 62//1 65//1
f 65//2 62//2 67//2
f 66//2 63//2 68//2
f 68//1 63//1 66//1
f 68//40 64//44 67//40
f 67//39 64//43 68//39
f 66//42 69//38 65//42
f 65//41 69//37 66//41
f 67//1 65//1 69//1
f 69//2 65//2 67//2
f 66//2 68//2 70//2
f 70//1 68//1 66//1
f 67//40 70//36 68//40
f 68//39 70//35 67//39
f 69//38 66//42 71//38
f 71//37 66//41 69//37
f 67//1 69//1 72//1
f 72//2 69//2 67//2
f 66//2 70//2 71//2
f 71//1 70//1 66//1
f 70//36 67//40 72//36
f 72//35 67//39 70//35
f 71//38 73//34 69//38
f 69//37 73//33 71//37
f 72//1 69//1 73//1
f 73//2 69//2 72//2
f 71//2 70//2 74//2
f 74//1 70//1 71//1
f 72//36 75//32 70//36
f 70//35 75//31 72//35
f 73//34 71//38 74//34
f 74//33 71//37 73//33
f 72//1 73//1 76//1
f 76//2 73//2 72//2
f 74//2 70//2 75//2
f 75//1 70//1 74//1
f 75//32 72//36 76//32
f 76//31 72//35 75//31
f 74//34 77//30 73//34
f 73//33 77//29 74//33
f 76//1 73//1 78//1
f 78//2 73//2 76//2
f 74//2 75//2 79//2
f 79//1 75//1 74//1
f 76//32 79//28 75//32
f 75//31 79//27 76//31
f 77//30 74//34 80//30
f 80//29 74//33 77//29
f 78//1 73//1 77//1
f 77//2 73//2 78//2
f 79//28 76//32 78//28
f 78//27 76//31 79//27
f 74//2 79//2 80//2
f 80//1 79//1 74//1
f 81//26 77//30 80//30
f 80//29 77//29 81//25
f 78//1 77//1 82//1
f 82//2 77//2 78//2
f 82//24 79//28 78//28
f 78//27 79//27 82//23
f 80//2 79//2 83//2
f 83//1 79//1 80//1
f 77//30 81//26 84//26
f 84//25 81//25 77//29
f 80//2 83//2 81//2
f 81//1 83//1 80//1
f 82//1 77//1 84//1
f 84//2 77//2 82//2
f 79//28 82//24 83//24
f 83//23 82//23 79//27
f 81//26 85//22 84//26
f 84//25 85//21 81//25
f 81//2 83//2 86//2
f 86//1 83//1 81//1
f 82//1 84//1 87//1
f 87//2 84//2 82//2
f 87//20 83//24 82//24
f 82//23 83//23 87//19
f 85//22 81//26 88//22
f 88//21 81//25 85//21
f 87//1 84//1 85//1
f 85//2 84//2 87//2
f 83//24 87//20 86//20
f 86//19 87//19 83//23
f 81//2 86//2 88//2
f 88//1 86//1 81//1
f 89//18 85//22 88//22
f 88//21 85//21 89//17
f 87//1 85//1 90//1
f 90//2 85//2 87//2
f 87//20 91//16 86//20
f 86//19 91//15 87//19
f 88//2 86//2 89//2
f 89//1 86//1 88//1
f 85//22 89//18 90//18
f 90//17 89//17 85//21
f 87//1 90//1 92//1
f 92//2 90//2 87//2
f 91//16 87//20 92//16
f 92//15 87//19 91//15
f 89//2 86//2 91//2
f 91//1 86//1 89//1
f 93//14 90//18 89//18
f 89//17 90//17 93//13
f 92//1 90//1 94//1
f 94//2 90//2 92//2
f 95//12 91//16 92//16
f 92//15 91//15 95//11
f 89//2 91//2 93//2
f 93//1 91//1 89//1
f 90//18 93//14 94//14
f 94//13 93//13 90//17
f 92//1 94//1 95//1
f 95//2 94//2 92//2
f 91//16 95//12 96//12
f 96//11 95//11 91//15
f 93//2 91//2 96//2
f 96//1 91//1 93//1
f 97//6 94//14 93//14
f 93//13 94//13 97//3
f 95//1 94//1 98//1
f 98//2 94//2 95//2
f 99//10 96//12 95//12
f 95//11 96//11 99//9
f 93//2 96//2 97//2
f 97//1 96//1 93//1
f 94//14 97//6 98//6
f 98//3 97//3 94//13
f 95//1 98//1 99//1
f 99//2 98//2 95//2
f 96//12 99//10 100//10
f 100//9 99//9 96//11
f 97//2 96//2 100//2
f 100//1 96//1 97//1
f 101//5 98//6 97//6
f 97//3 98//3 101//4
f 99//1 98//1 102//1
f 102//2 98//2 99//2
f 103//8 100//10 99//10
f 99//9 100//9 103//7
f 97//2 100//2 104//2
f 104//1 100//1 97//1
f 98//6 101//5 102//5
f 102//4 101//4 98//3
f 97//2 104//2 101//2
f 101//1 104//1 97//1
f 99//1 102//1 103//1
f 103//2 102//2 99//2
f 100//10 103//8 104//8
f 104//7 103//7 100//9
f 104//8 102//5 101//5
f 101//4 102//4 104//7
f 102//5 104//8 103//8
f 103//7 104//7 102//4
