# SSTK version 0.8.0
# 17
mtllib original-17.mtl
o 3dw.547ad62bd93988fff0117851f0671fde/Model/mesh1/mesh1-geometry/material_1/component_6#mesh1-geometry
v -0.432795 0.635380 -0.104348
v -0.274145 0.635380 -0.172341
v -0.432795 0.635380 -0.172341
v -0.432795 0.635380 -0.172341
v -0.274145 0.635380 -0.172341
v -0.432795 0.635380 -0.104348
v -0.274145 0.635380 -0.172341
v -0.432795 0.635380 -0.104348
v -0.274145 0.635380 -0.104348
v -0.274145 0.635380 -0.104348
v -0.432795 0.635380 -0.104348
v -0.274145 0.635380 -0.172341
vt 0 0
vn 0 1 0
vn 0 0.7255365701108432 0.6881836131671499
vn 0 -0.7255365701108432 -0.6881836131671499
vn 0 -1 0
usemtl material_0_0
f 1/1/1 2/1/2 3/1/2
f 4/1/3 5/1/3 6/1/4
f 7/1/2 8/1/1 9/1/1
f 10/1/4 11/1/4 12/1/3
