# SSTK version 0.8.0
# 13
mtllib original-13.mtl
o 3dw.547ad62bd93988fff0117851f0671fde/Model/mesh1/mesh1-geometry/material_1/component_2#mesh1-geometry
v 0.360456 0.308277 0.713128
v 0.383121 0.284238 0.737168
v 0.383121 0.308277 0.713128
v 0.383121 0.284238 0.737168
v 0.360456 0.308277 0.713128
v 0.360456 0.284238 0.737168
v 0.383121 0.308277 0.713128
v 0.383121 0.284238 0.737168
v 0.383121 0.292251 0.729155
v 0.383121 0.308277 0.713128
v 0.394453 0.300264 0.721142
v 0.405785 0.308277 0.713128
v 0.360456 0.308277 0.713128
v 0.360456 0.306674 0.759604
v 0.360456 0.284238 0.737168
v 0.360456 0.284238 0.737168
v 0.383121 0.306674 0.759604
v 0.383121 0.284238 0.737168
v 0.405785 0.284238 0.737168
v 0.383121 0.292251 0.729155
v 0.383121 0.284238 0.737168
v 0.383121 0.308277 0.713128
v 0.383121 0.292251 0.729155
v 0.383121 0.300264 0.721142
v 0.394453 0.300264 0.721142
v 0.383121 0.308277 0.713128
v 0.383121 0.300264 0.721142
v 0.405785 0.308277 0.713128
v 0.394453 0.300264 0.721142
v 0.405785 0.284238 0.737168
v 0.405785 0.308277 0.713128
v 0.428449 0.284238 0.737168
v 0.428449 0.308277 0.713128
v 0.360456 0.306674 0.759604
v 0.360456 0.308277 0.713128
v 0.360456 0.330713 0.735565
v 0.383121 0.306674 0.759604
v 0.360456 0.284238 0.737168
v 0.360456 0.306674 0.759604
v 0.405785 0.306674 0.759604
v 0.383121 0.284238 0.737168
v 0.383121 0.306674 0.759604
v 0.383121 0.292251 0.729155
v 0.405785 0.284238 0.737168
v 0.394453 0.292251 0.729155
v 0.383121 0.284238 0.737168
v 0.405785 0.306674 0.759604
v 0.405785 0.284238 0.737168
v 0.394453 0.292251 0.729155
v 0.405785 0.284238 0.737168
v 0.394453 0.300264 0.721142
v 0.428449 0.284238 0.737168
v 0.405785 0.308277 0.713128
v 0.405785 0.284238 0.737168
v 0.428449 0.306674 0.759604
v 0.428449 0.308277 0.713128
v 0.428449 0.284238 0.737168
v 0.360456 0.330713 0.735565
v 0.383121 0.322700 0.743578
v 0.360456 0.306674 0.759604
v 0.360456 0.306674 0.759604
v 0.383121 0.314687 0.751591
v 0.383121 0.306674 0.759604
v 0.383121 0.314687 0.751591
v 0.405785 0.306674 0.759604
v 0.383121 0.306674 0.759604
v 0.428449 0.306674 0.759604
v 0.405785 0.284238 0.737168
v 0.405785 0.306674 0.759604
v 0.405785 0.284238 0.737168
v 0.428449 0.306674 0.759604
v 0.428449 0.284238 0.737168
v 0.428449 0.308277 0.713128
v 0.428449 0.306674 0.759604
v 0.428449 0.330713 0.735565
v 0.383121 0.322700 0.743578
v 0.360456 0.330713 0.735565
v 0.383121 0.330713 0.735565
v 0.360456 0.306674 0.759604
v 0.383121 0.322700 0.743578
v 0.383121 0.314687 0.751591
v 0.394453 0.314687 0.751591
v 0.405785 0.306674 0.759604
v 0.383121 0.314687 0.751591
v 0.405785 0.330713 0.735565
v 0.428449 0.306674 0.759604
v 0.405785 0.306674 0.759604
v 0.383121 0.322700 0.743578
v 0.383121 0.330713 0.735565
v 0.394453 0.322700 0.743578
v 0.394453 0.322700 0.743578
v 0.405785 0.306674 0.759604
v 0.394453 0.314687 0.751591
v 0.428449 0.306674 0.759604
v 0.405785 0.330713 0.735565
v 0.428449 0.330713 0.735565
v 0.405785 0.330713 0.735565
v 0.394453 0.322700 0.743578
v 0.383121 0.330713 0.735565
v 0.394453 0.322700 0.743578
v 0.405785 0.330713 0.735565
v 0.405785 0.306674 0.759604
v 0.383121 0.308277 0.713128
v 0.383121 0.284238 0.737168
v 0.360456 0.308277 0.713128
v 0.360456 0.284238 0.737168
v 0.360456 0.308277 0.713128
v 0.383121 0.284238 0.737168
v 0.383121 0.292251 0.729155
v 0.383121 0.284238 0.737168
v 0.383121 0.308277 0.713128
v 0.405785 0.308277 0.713128
v 0.394453 0.300264 0.721142
v 0.383121 0.308277 0.713128
v 0.360456 0.284238 0.737168
v 0.360456 0.306674 0.759604
v 0.360456 0.308277 0.713128
v 0.383121 0.284238 0.737168
v 0.383121 0.306674 0.759604
v 0.360456 0.284238 0.737168
v 0.383121 0.284238 0.737168
v 0.383121 0.292251 0.729155
v 0.405785 0.284238 0.737168
v 0.383121 0.300264 0.721142
v 0.383121 0.292251 0.729155
v 0.383121 0.308277 0.713128
v 0.383121 0.300264 0.721142
v 0.383121 0.308277 0.713128
v 0.394453 0.300264 0.721142
v 0.405785 0.284238 0.737168
v 0.394453 0.300264 0.721142
v 0.405785 0.308277 0.713128
v 0.428449 0.308277 0.713128
v 0.428449 0.284238 0.737168
v 0.405785 0.308277 0.713128
v 0.360456 0.330713 0.735565
v 0.360456 0.308277 0.713128
v 0.360456 0.306674 0.759604
v 0.360456 0.306674 0.759604
v 0.360456 0.284238 0.737168
v 0.383121 0.306674 0.759604
v 0.383121 0.306674 0.759604
v 0.383121 0.284238 0.737168
v 0.405785 0.306674 0.759604
v 0.394453 0.292251 0.729155
v 0.405785 0.284238 0.737168
v 0.383121 0.292251 0.729155
v 0.405785 0.284238 0.737168
v 0.405785 0.306674 0.759604
v 0.383121 0.284238 0.737168
v 0.394453 0.300264 0.721142
v 0.405785 0.284238 0.737168
v 0.394453 0.292251 0.729155
v 0.405785 0.284238 0.737168
v 0.405785 0.308277 0.713128
v 0.428449 0.284238 0.737168
v 0.428449 0.284238 0.737168
v 0.428449 0.308277 0.713128
v 0.428449 0.306674 0.759604
v 0.360456 0.306674 0.759604
v 0.383121 0.322700 0.743578
v 0.360456 0.330713 0.735565
v 0.383121 0.306674 0.759604
v 0.383121 0.314687 0.751591
v 0.360456 0.306674 0.759604
v 0.383121 0.306674 0.759604
v 0.405785 0.306674 0.759604
v 0.383121 0.314687 0.751591
v 0.405785 0.306674 0.759604
v 0.405785 0.284238 0.737168
v 0.428449 0.306674 0.759604
v 0.428449 0.284238 0.737168
v 0.428449 0.306674 0.759604
v 0.405785 0.284238 0.737168
v 0.428449 0.330713 0.735565
v 0.428449 0.306674 0.759604
v 0.428449 0.308277 0.713128
v 0.383121 0.330713 0.735565
v 0.360456 0.330713 0.735565
v 0.383121 0.322700 0.743578
v 0.383121 0.314687 0.751591
v 0.383121 0.322700 0.743578
v 0.360456 0.306674 0.759604
v 0.383121 0.314687 0.751591
v 0.405785 0.306674 0.759604
v 0.394453 0.314687 0.751591
v 0.405785 0.306674 0.759604
v 0.428449 0.306674 0.759604
v 0.405785 0.330713 0.735565
v 0.394453 0.322700 0.743578
v 0.383121 0.330713 0.735565
v 0.383121 0.322700 0.743578
v 0.394453 0.314687 0.751591
v 0.405785 0.306674 0.759604
v 0.394453 0.322700 0.743578
v 0.428449 0.330713 0.735565
v 0.405785 0.330713 0.735565
v 0.428449 0.306674 0.759604
v 0.383121 0.330713 0.735565
v 0.394453 0.322700 0.743578
v 0.405785 0.330713 0.735565
v 0.405785 0.306674 0.759604
v 0.405785 0.330713 0.735565
v 0.394453 0.322700 0.743578
vt -1.7975809574127197 0.0949070006608963
vt -1.8048709630966187 0.10584300011396408
vt -1.8048709630966187 0.0949070006608963
vt -1.7975809574127197 0.10584300011396408
vt -1.8048709630966187 0.10219799727201462
vt -1.8085169792175293 0.09855300188064575
vt -1.8121620416641235 0.0949070006608963
vt 0.2016579955816269 0.335877001285553
vt 0.20114199817180634 0.35082700848579407
vt 0.19392499327659607 0.3436099886894226
vt -1.7975809574127197 0.3800939917564392
vt -1.8048709630966187 0.39030200242996216
vt -1.8048709630966187 0.3800939917564392
vt -1.8121620416641235 0.10584300011396408
vt -1.8048709630966187 0.09855300188064575
vt -1.8194530010223389 0.10584300011396408
vt -1.8194530010223389 0.0949070006608963
vt 0.20887500047683716 0.34309399127960205
vt -1.7975809574127197 0.39030200242996216
vt -1.8121620416641235 0.39030200242996216
vt -1.8085169792175293 0.10219799727201462
vt -1.8121620416641235 0.3800939917564392
vt -0.20114199817180634 0.35082700848579407
vt -0.2016579955816269 0.335877001285553
vt -0.19392499327659607 0.3436099886894226
vt 1.7975809574127197 0.0949070006608963
vt 1.8048709630966187 0.09855300188064575
vt 1.7975809574127197 0.10584300011396408
vt 1.8048709630966187 0.10219799727201462
vt 1.8048709630966187 0.10584300011396408
vt 1.8121620416641235 0.10584300011396408
vt -1.8194530010223389 0.39030200242996216
vt -1.8194530010223389 0.3800939917564392
vt -0.20887500047683716 0.34309399127960205
vt 1.8048709630966187 0.0949070006608963
vt 1.8085169792175293 0.10219799727201462
vt 1.8121620416641235 0.0949070006608963
vt 1.8194530010223389 0.10584300011396408
vt 1.8085169792175293 0.09855300188064575
vt 1.8194530010223389 0.0949070006608963
vt 0 0
vn 0.4082482221609015 0.8660254268024602 -0.28867516213571215
vn 0 1 0
vn 0 0.9486831997027857 0.31622806105986906
vn 0.57734989264316 0.8164968471861551 0
vn -0.4082482221609015 0.28867516213571215 0.8660254268024602
vn 0.57734989264316 0 -0.8164968471861551
vn 0 0 -1
vn -0.4082482221609015 0.8660254268024602 0.28867516213571215
vn -0.57734989264316 0.8164968471861551 0
vn -0.4082482221609015 0.8660254268024602 -0.28867516213571215
vn 0.4082482221609015 0.28867516213571215 -0.8660254268024602
vn 0.57734989264316 0 0.8164968471861551
vn -0.57734989264316 0 -0.8164968471861551
vn -0.4082482221609015 -0.28867516213571215 -0.8660254268024602
vn -0.4082482221609015 -0.8660254268024602 -0.28867516213571215
vn -0.4082482221609015 0.28867516213571215 -0.8660254268024602
vn 0 -0.31622806105986906 -0.9486831997027857
vn 0.57734989264316 -0.8164968471861551 0
vn 0 -0.9486831997027857 -0.31622806105986906
vn 0 -1 0
vn -0.4082482221609015 -0.8660254268024602 0.28867516213571215
vn -0.57734989264316 -0.8164968471861551 0
vn 0.4082482221609015 -0.28867516213571215 -0.8660254268024602
vn -0.57734989264316 0 0.8164968471861551
vn 0 0 1
vn 0.4082482221609015 -0.8660254268024602 -0.28867516213571215
vn 0.4082482221609015 -0.8660254268024602 0.28867516213571215
vn -0.4082482221609015 -0.28867516213571215 0.8660254268024602
vn 0.4082482221609015 0.28867516213571215 0.8660254268024602
vn 0.4082482221609015 0.8660254268024602 0.28867516213571215
vn 0.4082482221609015 -0.28867516213571215 0.8660254268024602
vn 0 0.31622806105986906 0.9486831997027857
usemtl material_0_0
f 1/1/1 2/2/2 3/3/3
f 4/2/2 5/1/1 6/4/4
f 7/3/3 8/2/2 9/5/5
f 10/3/3 11/6/4 12/7/3
f 13/8/1 14/9/6 15/10/4
f 16/11/4 17/12/7 18/13/2
f 19/14/2 20/5/5 21/2/2
f 22/3/3 23/5/5 24/15/8
f 25/6/4 26/3/3 27/15/8
f 28/7/3 29/6/4 30/14/2
f 31/7/3 32/16/9 33/17/10
f 34/9/6 35/8/1 36/18/11
f 37/12/7 38/11/4 39/19/6
f 40/20/7 41/13/2 42/12/7
f 43/5/5 44/14/2 45/21/12
f 46/13/2 47/20/7 48/22/2
f 49/21/12 50/14/2 51/6/4
f 52/16/9 53/7/3 54/14/2
f 55/23/13 56/24/10 57/25/9
f 58/26/11 59/27/14 60/28/6
f 61/28/6 62/29/15 63/30/7
f 64/29/15 65/31/7 66/30/7
f 67/32/13 68/22/2 69/20/7
f 70/22/2 71/32/13 72/33/9
f 73/24/10 74/23/13 75/34/16
f 76/27/14 77/26/11 78/35/17
f 79/28/6 80/27/14 81/29/15
f 82/36/18 83/31/7 84/29/15
f 85/37/17 86/38/13 87/31/7
f 88/27/14 89/35/17 90/39/6
f 91/39/6 92/31/7 93/36/18
f 94/38/13 95/37/17 96/40/16
f 97/37/17 98/39/6 99/35/17
f 100/39/6 101/37/17 102/31/7
usemtl material_1_0
f 103/41/19 104/41/20 105/41/21
f 106/41/22 107/41/21 108/41/20
f 109/41/23 110/41/20 111/41/19
f 112/41/19 113/41/22 114/41/19
f 115/41/22 116/41/24 117/41/21
f 118/41/20 119/41/25 120/41/22
f 121/41/20 122/41/23 123/41/20
f 124/41/26 125/41/23 126/41/19
f 127/41/26 128/41/19 129/41/22
f 130/41/20 131/41/22 132/41/19
f 133/41/27 134/41/18 135/41/19
f 136/41/28 137/41/21 138/41/24
f 139/41/24 140/41/22 141/41/25
f 142/41/25 143/41/20 144/41/25
f 145/41/13 146/41/20 147/41/23
f 148/41/20 149/41/25 150/41/20
f 151/41/22 152/41/20 153/41/13
f 154/41/20 155/41/19 156/41/18
f 157/41/18 158/41/27 159/41/12
f 160/41/24 161/41/29 162/41/28
f 163/41/25 164/41/30 165/41/24
f 166/41/25 167/41/25 168/41/30
f 169/41/25 170/41/20 171/41/12
f 172/41/18 173/41/12 174/41/20
f 175/41/31 176/41/12 177/41/27
f 178/41/32 179/41/28 180/41/29
f 181/41/30 182/41/29 183/41/24
f 184/41/30 185/41/25 186/41/9
f 187/41/25 188/41/12 189/41/32
f 190/41/24 191/41/32 192/41/29
f 193/41/9 194/41/25 195/41/24
f 196/41/31 197/41/32 198/41/12
f 199/41/32 200/41/24 201/41/32
f 202/41/25 203/41/32 204/41/24
