# SSTK version 0.8.0
# 4
mtllib original-4.mtl
o _45-1-3301_11/mesh3/mesh3-geometry#mesh3-geometry
v -0.743364 0.302299 -0.227916
v 0.701413 0.302440 -0.227953
v 0.701413 0.302299 -0.227916
v -0.743364 0.302440 -0.227953
v 0.701413 0.302299 -0.225823
v -0.743364 0.302169 -0.227808
v -0.743364 0.302440 -0.225786
v 0.701413 0.302580 -0.227916
v 0.701413 0.302169 -0.225931
v 0.701413 0.302440 -0.225786
v 0.701413 0.302169 -0.227808
v -0.743364 0.302299 -0.225823
v -0.743364 0.302580 -0.225823
v -0.743364 0.302580 -0.227916
v -0.743364 0.302056 -0.227635
v -0.743364 0.302169 -0.225931
v 0.701413 0.302710 -0.227808
v 0.701413 0.302580 -0.225823
v 0.701413 0.302056 -0.226103
v 0.701413 0.302056 -0.227635
v -0.743364 0.302710 -0.225931
v -0.743364 0.302710 -0.227808
v -0.743364 0.301970 -0.227411
v -0.743364 0.302056 -0.226103
v 0.701413 0.302823 -0.227635
v 0.701413 0.302710 -0.225931
v 0.701413 0.301970 -0.226327
v 0.701413 0.301970 -0.227411
v -0.743364 0.302823 -0.226103
v -0.743364 0.302823 -0.227635
v -0.743364 0.301916 -0.227150
v -0.743364 0.301970 -0.226327
v 0.701413 0.302909 -0.227411
v 0.701413 0.302823 -0.226103
v 0.701413 0.301916 -0.226589
v 0.701413 0.301916 -0.227150
v -0.743364 0.302909 -0.226327
v -0.743364 0.302909 -0.227411
v -0.743364 0.301898 -0.226869
v -0.743364 0.301916 -0.226589
v 0.701413 0.302963 -0.227150
v 0.701413 0.302909 -0.226327
v 0.701413 0.301898 -0.226869
v -0.743364 0.302963 -0.226589
v -0.743364 0.302963 -0.227150
v 0.701413 0.302981 -0.226869
v 0.701413 0.302963 -0.226589
v -0.743364 0.302981 -0.226869
vn 0 -0.4723674236509232 -0.8814017342128329
vn 0 0 -1
vn 0 0.4723674236509232 0.8814017342128329
vn 0 0 1
vn 1 0 0
vn -1 0 0
vn 0 -0.7559468091665349 -0.6546330435525956
vn 0 0.7559468091665349 0.6546330435525956
vn 0 0.47236742365092355 -0.8814017342128325
vn 0 -0.47236742365092355 0.8814017342128325
vn 0 -0.7559468091665351 0.6546330435525952
vn 0 0.7559468091665351 -0.6546330435525952
vn 0 -0.8944369708633514 -0.4471940352383878
vn 0 0.8944369708633514 0.4471940352383878
vn 0 -0.8944369708633514 0.4471940352383873
vn 0 0.8944369708633514 -0.4471940352383873
vn 0 -0.9607729288187394 -0.27733622058624346
vn 0 0.9607729288187394 0.27733622058624346
vn 0 -0.9607729288187394 0.2773362205862431
vn 0 0.9607729288187394 -0.2773362205862431
vn 0 -0.9911454013059942 -0.13278099815101507
vn 0 0.9911454013059942 0.13278099815101507
vn 0 -0.9911454013059942 0.13278099815101466
vn 0 0.9911454013059942 -0.13278099815101466
vn 0 -1 0
vn 0 1 0
usemtl material_0_0
f 1//1 2//2 3//1
f 2//2 1//1 4//2
f 3//3 2//4 1//3
f 4//4 1//3 2//4
f 5//5 3//5 2//5
f 2//6 3//6 5//6
f 3//1 6//7 1//1
f 1//3 6//8 3//3
f 1//6 7//6 4//6
f 4//5 7//5 1//5
f 4//2 8//9 2//2
f 2//4 8//10 4//4
f 9//5 3//5 5//5
f 5//6 3//6 9//6
f 5//5 2//5 10//5
f 10//6 2//6 5//6
f 6//7 3//1 11//7
f 11//8 3//3 6//8
f 6//6 12//6 1//6
f 1//5 12//5 6//5
f 1//6 12//6 7//6
f 7//5 12//5 1//5
f 4//6 7//6 13//6
f 13//5 7//5 4//5
f 8//9 4//2 14//9
f 14//10 4//4 8//10
f 10//5 2//5 8//5
f 8//6 2//6 10//6
f 9//5 11//5 3//5
f 3//6 11//6 9//6
f 12//10 9//11 5//10
f 5//9 9//12 12//9
f 7//4 5//10 10//4
f 10//2 5//9 7//2
f 11//7 15//13 6//7
f 6//8 15//14 11//8
f 6//6 16//6 12//6
f 12//5 16//5 6//5
f 5//10 7//4 12//10
f 12//9 7//2 5//9
f 10//4 13//3 7//4
f 7//2 13//1 10//2
f 4//6 13//6 14//6
f 14//5 13//5 4//5
f 14//9 17//12 8//9
f 8//10 17//11 14//10
f 10//5 8//5 18//5
f 18//6 8//6 10//6
f 19//5 11//5 9//5
f 9//6 11//6 19//6
f 9//11 12//10 16//11
f 16//12 12//9 9//12
f 15//13 11//7 20//13
f 20//14 11//8 15//14
f 15//6 16//6 6//6
f 6//5 16//5 15//5
f 13//3 10//4 18//3
f 18//1 10//2 13//1
f 14//6 13//6 21//6
f 21//5 13//5 14//5
f 17//12 14//9 22//12
f 22//11 14//10 17//11
f 18//5 8//5 17//5
f 17//6 8//6 18//6
f 19//5 20//5 11//5
f 11//6 20//6 19//6
f 16//11 19//15 9//11
f 9//12 19//16 16//12
f 20//13 23//17 15//13
f 15//14 23//18 20//14
f 15//6 24//6 16//6
f 16//5 24//5 15//5
f 18//3 21//8 13//3
f 13//1 21//7 18//1
f 14//6 21//6 22//6
f 22//5 21//5 14//5
f 22//12 25//16 17//12
f 17//11 25//15 22//11
f 18//5 17//5 26//5
f 26//6 17//6 18//6
f 27//5 20//5 19//5
f 19//6 20//6 27//6
f 19//15 16//11 24//15
f 24//16 16//12 19//16
f 23//17 20//13 28//17
f 28//18 20//14 23//18
f 23//6 24//6 15//6
f 15//5 24//5 23//5
f 21//8 18//3 26//8
f 26//7 18//1 21//7
f 22//6 21//6 29//6
f 29//5 21//5 22//5
f 25//16 22//12 30//16
f 30//15 22//11 25//15
f 26//5 17//5 25//5
f 25//6 17//6 26//6
f 27//5 28//5 20//5
f 20//6 28//6 27//6
f 24//15 27//19 19//15
f 19//16 27//20 24//16
f 28//17 31//21 23//17
f 23//18 31//22 28//18
f 23//6 32//6 24//6
f 24//5 32//5 23//5
f 26//8 29//14 21//8
f 21//7 29//13 26//7
f 22//6 29//6 30//6
f 30//5 29//5 22//5
f 30//16 33//20 25//16
f 25//15 33//19 30//15
f 26//5 25//5 34//5
f 34//6 25//6 26//6
f 35//5 28//5 27//5
f 27//6 28//6 35//6
f 27//19 24//15 32//19
f 32//20 24//16 27//20
f 31//21 28//17 36//21
f 36//22 28//18 31//22
f 31//6 32//6 23//6
f 23//5 32//5 31//5
f 29//14 26//8 34//14
f 34//13 26//7 29//13
f 30//6 29//6 37//6
f 37//5 29//5 30//5
f 33//20 30//16 38//20
f 38//19 30//15 33//19
f 34//5 25//5 33//5
f 33//6 25//6 34//6
f 35//5 36//5 28//5
f 28//6 36//6 35//6
f 32//19 35//23 27//19
f 27//20 35//24 32//20
f 36//21 39//25 31//21
f 31//22 39//26 36//22
f 31//6 40//6 32//6
f 32//5 40//5 31//5
f 34//14 37//18 29//14
f 29//13 37//17 34//13
f 30//6 37//6 38//6
f 38//5 37//5 30//5
f 38//20 41//24 33//20
f 33//19 41//23 38//19
f 34//5 33//5 42//5
f 42//6 33//6 34//6
f 36//5 35//5 43//5
f 43//6 35//6 36//6
f 35//23 32//19 40//23
f 40//24 32//20 35//24
f 39//25 36//21 43//25
f 43//26 36//22 39//26
f 40//6 31//6 39//6
f 39//5 31//5 40//5
f 37//18 34//14 42//18
f 42//17 34//13 37//17
f 38//6 37//6 44//6
f 44//5 37//5 38//5
f 41//24 38//20 45//24
f 45//23 38//19 41//23
f 42//5 33//5 41//5
f 41//6 33//6 42//6
f 40//23 43//25 35//23
f 35//24 43//26 40//24
f 43//25 40//23 39//25
f 39//26 40//24 43//26
f 42//18 44//22 37//18
f 37//17 44//21 42//17
f 38//6 44//6 45//6
f 45//5 44//5 38//5
f 45//24 46//26 41//24
f 41//23 46//25 45//23
f 42//5 41//5 47//5
f 47//6 41//6 42//6
f 44//22 42//18 47//22
f 47//21 42//17 44//21
f 45//6 44//6 48//6
f 48//5 44//5 45//5
f 46//26 45//24 48//26
f 48//25 45//23 46//25
f 47//5 41//5 46//5
f 46//6 41//6 47//6
f 47//22 48//26 44//22
f 44//21 48//25 47//21
f 48//26 47//22 46//26
f 46//25 47//21 48//25
