mtllib new-0.mtl
v -0.531525 -0.132263 -0.549085
v -0.531525 -0.132263 0.316349
v -0.507559 -0.132263 -0.549085
v -0.555492 -0.104873 -0.549085
v -0.531525 -0.159653 0.316349
v -0.507559 -0.132263 0.316349
v -0.507559 -0.159653 -0.549085
v -0.531525 -0.159653 -0.549085
v -0.507559 -0.159653 0.316349
vn 1.000000 0.000000 0.000000
vn 0.000000 0.000000 1.000000
vn 0.000000 1.000000 0.000000
vn 0.000000 0.000000 -1.000000
vn -1.000000 0.000000 0.000000
vn 0.000000 -1.000000 0.000000
vt 1.187965 0.083333
vt 0.000000 0.125000
vt 0.000000 0.083333
vt 0.032898 0.083333
vt 0.032898 0.000000
vt 0.065796 1.316533
vt 0.032898 1.316533
vt -0.032898 0.083333
vt 0.032898 0.041667
vt 0.065796 0.000000
vt -0.065796 0.083333
vt -0.065796 0.041667
vt 0.065796 0.083333
vt 1.187965 0.041667
vt -0.032898 0.041667
vt 0.065796 0.041667
vt 0.000000 0.041667
vt -0.032898 0.000000
vt -0.065796 1.316533
vt -0.032898 1.316533
vt -0.065796 0.000000
usemtl material-0
f 2/5/3 3/6/3 1/7/3
f 3/6/3 2/5/3 6/10/3
f 3/11/4 7/12/4 1/8/4
f 7/12/4 4/2/4 1/8/4
f 2/4/2 5/9/2 6/13/2
f 6/3/1 7/14/1 3/1/1
f 8/15/4 4/2/4 7/12/4
f 6/13/2 5/9/2 9/16/2
f 7/14/1 6/3/1 9/17/1
f 7/19/6 5/18/6 8/20/6
f 5/18/6 7/19/6 9/21/6
usemtl material-1
f 1//6 3//6 2//6
f 6//6 2//6 3//6
f 1//2 7//2 3//2
f 1//2 4//2 7//2
f 6//4 5//4 2//4
f 3//5 7//5 6//5
f 7//2 4//2 8//2
f 9//4 5//4 6//4
f 9//5 6//5 7//5
f 8//3 5//3 7//3
f 9//3 7//3 5//3