# SSTK version 0.8.0
# 16
mtllib original-16.mtl
o Group_1_3/Group_1/mesh5/mesh5-geometry#mesh5-geometry
v -0.590568 0.408687 0.316349
v -0.590568 -0.317146 0.316349
v -0.590568 0.408687 0.261570
v -0.645348 0.408687 0.316349
v -0.590568 -0.317146 0.261570
v -0.645348 0.408687 0.261570
v -0.645348 -0.317146 0.316349
v -0.645348 -0.317146 0.261570
vt 0.222783 0.075195
vt 1.32695 0.075195
vt 0.222783 0
vt 0.083333 0.201027
vt 0 0.201027
vt 0.083333 1.197365
vt 1.32695 0
vt 0.083333 0
vt 0 0
vt 0.083333 0.075195
vt 0 0.075195
vt 0 1.197365
vt -0.083333 0.201027
vt -0.083333 1.197365
vt -0.083333 0.075195
vt -0.083333 0
vt 0.127926 0
vt 0.761959 0.083333
vt 0.127926 0.083333
vt 0.761959 0
vt 0.075195 1.32695
vt 0 0.222783
vt 0.075195 0.222783
vt 0.075195 0.083333
vt 0.075195 0
vt 0 0.083333
vt 0 1.32695
vt -0.075195 1.32695
vt -0.075195 0.222783
vt -0.075195 0
vt -0.075195 0.083333
vt -0.201027 0.083333
vt -0.201027 0
vt -1.197365 0.083333
vt -1.197365 0
vn 1 0 0
vn 0 0 1
vn 0 1 0
vn 0 0 -1
vn 0 -1 0
vn -1 0 0
usemtl material_0_0
f 1/1/1 2/2/1 3/3/1
f 1/4/2 4/5/2 2/6/2
f 5/7/1 3/3/1 2/2/1
f 3/8/3 6/9/3 1/10/3
f 4/11/3 1/10/3 6/9/3
f 7/12/2 2/6/2 4/5/2
f 3/13/4 5/14/4 6/5/4
f 2/15/5 7/11/5 5/16/5
f 8/12/4 6/5/4 5/14/4
f 8/9/5 5/16/5 7/11/5
usemtl material_1_0
f 3/17/6 2/18/6 1/19/6
f 2/18/6 3/17/6 5/20/6
usemtl material_2_0
f 2/21/4 4/22/4 1/23/4
f 1/24/5 6/9/5 3/25/5
f 6/9/5 1/24/5 4/26/5
f 4/22/4 2/21/4 7/27/4
f 6/22/2 5/28/2 3/29/2
f 5/30/3 7/26/3 2/31/3
f 4/32/6 6/33/6 7/34/6
f 7/34/1 6/33/1 4/32/1
f 5/28/2 6/22/2 8/27/2
f 7/26/3 5/30/3 8/9/3
f 8/35/6 7/34/6 6/33/6
f 6/33/1 7/34/1 8/35/1
