# SSTK version 0.8.0
# 29
mtllib original-29.mtl
o Façadecomplet_2_1/Façadecomplet_2/mesh31/mesh31-geometry#mesh31-geometry
v -0.521254 -0.234975 -0.091075
v -0.521254 -0.271952 -0.125312
v -0.521254 -0.278799 -0.091075
v -0.521254 -0.241823 -0.125312
v -0.487017 -0.271952 -0.125312
v -0.487017 -0.278799 -0.091075
v -0.487017 -0.241823 -0.125312
v -0.487017 -0.234975 -0.091075
v -0.487017 -0.303450 -0.125312
v -0.487017 0.023859 -0.125312
v -0.487017 -0.303450 -0.091075
v -0.487017 -0.197999 -0.125312
v -0.487017 -0.204847 -0.091075
v 0.512716 -0.303450 -0.091075
v 0.512716 0.023859 -0.125312
v -0.487017 -0.167870 -0.125312
v -0.487017 -0.161023 -0.091075
v -0.521254 -0.204847 -0.091075
v 0.512716 -0.303450 -0.125312
v -0.521254 0.038924 -0.125312
v 0.512716 -0.019964 -0.125312
v -0.521254 -0.197999 -0.125312
v -0.487017 -0.124046 -0.125312
v -0.521254 -0.161023 -0.091075
v 0.512716 -0.271952 -0.125312
v 0.512716 -0.278799 -0.091075
v -0.487017 -0.056941 -0.091075
v 0.546953 0.038924 -0.125312
v -0.521254 0.023859 -0.125312
v 0.512716 -0.050093 -0.125312
v 0.512716 -0.013117 -0.091075
v -0.521254 -0.167870 -0.125312
v -0.487017 -0.093917 -0.125312
v 0.512716 -0.241823 -0.125312
v -0.521254 0.038924 -0.091075
v -0.487017 0.017012 -0.091075
v -0.487017 -0.087070 -0.091075
v 0.546953 0.023859 -0.125312
v -0.521254 0.017012 -0.091075
v 0.512716 -0.093917 -0.125312
v 0.546953 -0.019964 -0.125312
v 0.512716 0.017012 -0.091075
v -0.487017 -0.130894 -0.091075
v -0.521254 -0.124046 -0.125312
v -0.487017 -0.050093 -0.125312
v 0.512716 -0.197999 -0.125312
v 0.546953 -0.241823 -0.125312
v 0.546953 -0.271952 -0.125312
v 0.512716 -0.234975 -0.091075
v -0.487017 -0.013117 -0.091075
v 0.546953 0.038924 -0.091075
v 0.512716 -0.124046 -0.125312
v 0.512716 -0.087070 -0.091075
v 0.546953 -0.050093 -0.125312
v 0.546953 -0.013117 -0.091075
v -0.521254 -0.130894 -0.091075
v -0.521254 -0.093917 -0.125312
v -0.487017 -0.019964 -0.125312
v 0.512716 -0.167870 -0.125312
v 0.546953 -0.278799 -0.091075
v 0.512716 -0.204847 -0.091075
v -0.521254 -0.056941 -0.091075
v -0.521254 -0.087070 -0.091075
v 0.546953 0.017012 -0.091075
v 0.546953 -0.093917 -0.125312
v 0.512716 -0.056941 -0.091075
v 0.546953 -0.056941 -0.091075
v -0.521254 -0.050093 -0.125312
v 0.546953 -0.167870 -0.125312
v 0.546953 -0.234975 -0.091075
v 0.512716 -0.161023 -0.091075
v -0.521254 -0.013117 -0.091075
v 0.546953 -0.124046 -0.125312
v 0.546953 -0.087070 -0.091075
v -0.521254 -0.019964 -0.125312
v 0.546953 -0.197999 -0.125312
v 0.512716 -0.130894 -0.091075
v 0.546953 -0.204847 -0.091075
v 0.546953 -0.130894 -0.091075
v 0.546953 -0.161023 -0.091075
vt -0.516968 0.145833
vt -0.563965 0.089583
vt -0.516968 0.079167
vt -0.563965 0.135417
vt -0.046997 0.630432
vt 0 0.577317
vt 0 0.630432
vt 0.046997 0.079167
vt 0 0.145833
vt 0 0.079167
vt 0 -0.533191
vt -0.046997 -0.586306
vt 0 -0.586306
vt -0.046997 0.135417
vt 0 0.089583
vt 0 0.135417
vt -0.046997 0.577317
vt -0.046997 0.089583
vt 0.046997 0.145833
vt -0.046997 -0.533191
vt -0.563965 0.041667
vt -0.046997 0.539583
vt 0.046997 0.041667
vt -0.563965 0.202083
vt -0.516968 0.041667
vt -0.046997 0.041667
vt -0.046997 0.202083
vt 0.046997 0.191667
vt -0.516968 0.191667
vt -0.563965 -0.052083
vt -0.516968 -1.572917
vt -0.516968 -0.052083
vt -1.419312 0.539583
vt -0.046997 0.247917
vt 0.046997 0.258333
vt 0 0.59938
vt -0.046997 0.652495
vt -0.046997 0.59938
vt -0.563965 -1.572917
vt 1.419312 0.041667
vt 0 0.5625
vt -1.419312 0.472917
vt 0 0.202083
vt -0.046997 0.314583
vt 0 0.258333
vt 0 0.652495
vt 0 0.191667
vt -1.419312 0.089583
vt -1.419312 0.041667
vt 0.563965 0.041667
vt 0.516968 0.079167
vt 0.516968 0.041667
vt 0.046997 0.416667
vt -1.466309 0.5625
vt 0 0.539583
vt -1.419312 0.427083
vt 0.563965 0.539583
vt 0.516968 0.483333
vt 0.563965 0.472917
vt 0 0.247917
vt -0.516968 0.258333
vt -0.563965 0.314583
vt -0.563965 0.247917
vt -0.046997 0.360417
vt -0.046997 -0.564242
vt 0 -0.511128
vt -0.046997 -0.511128
vt -1.419312 0.135417
vt 0.563965 0.089583
vt 1.419312 0.079167
vt 0.046997 0.529167
vt 0.046997 0.370833
vt -1.466309 0.539583
vt 0.516968 0
vt 0.563965 -1.625
vt 0.563965 0
vt -0.046997 0.718684
vt 0 0.665569
vt 0 0.718684
vt -0.563965 0.539583
vt -0.516968 0.5625
vt -0.563965 0.5625
vt -1.419312 0.360417
vt -1.466309 0.472917
vt 0.516968 0.529167
vt -1.419312 -0.467002
vt -1.466309 -0.520116
vt -1.419312 -0.520116
vt 0 -0.564242
vt -0.516968 0.304167
vt 0 0.314583
vt -0.046997 0.427083
vt -1.419312 0.202083
vt -1.466309 0.135417
vt -1.466309 0.630432
vt -1.419312 0.577317
vt -1.419312 0.630432
vt 1.419312 0.145833
vt 0.046997 0.483333
vt -0.563965 0.427083
vt -0.516968 0.370833
vt -0.516968 0.416667
vt 0.046997 0.304167
vt 0.516968 0.5625
vt 0.563965 0.5625
vt -1.466309 0.718684
vt -1.419312 0.665569
vt -1.419312 0.718684
vt 0.516968 -1.625
vt -0.046997 0.665569
vt -0.516968 0.529167
vt -1.419312 0.314583
vt 0.563965 0.427083
vt 0.516968 0.370833
vt 0.563965 0.360417
vt -1.466309 0.427083
vt 1.419312 0.529167
vt 1.419312 0.483333
vt -1.466309 -0.467002
vt 0 0.621443
vt -0.046997 0.674558
vt -0.046997 0.621443
vt 0 0.360417
vt 0 0.674558
vt -0.563965 0.360417
vt -0.046997 0.472917
vt -1.419312 0.247917
vt 0.563965 0.202083
vt 0.516968 0.145833
vt 0.563965 0.135417
vt -1.466309 0.089583
vt -1.419312 -0.533191
vt -1.466309 -0.586306
vt -1.419312 -0.586306
vt -1.466309 0.577317
vt 1.419312 0.191667
vt 1.466309 0.079167
vt 0 0.529167
vt 0 0.416667
vt -0.516968 0.483333
vt 0 0.643506
vt -0.046997 0.696621
vt -0.046997 0.643506
vt 0 0.370833
vt -1.466309 0.665569
vt 1.466309 0.529167
vt 1.466309 0.5625
vt -1.466309 0.360417
vt 0.516968 0.416667
vt -1.419312 -0.489065
vt -1.466309 -0.542179
vt -1.419312 -0.542179
vt -1.466309 0.696621
vt -1.419312 0.643506
vt -1.419312 0.696621
vt 1.419312 0.416667
vt 1.466309 0.416667
vt 1.466309 0.483333
vt 0 0.304167
vt 0 -0.489065
vt -0.046997 -0.542179
vt 0 -0.542179
vt -0.046997 -0.489065
vt 0 0.427083
vt -0.563965 0.472917
vt -1.466309 0.247917
vt 0.516968 0.191667
vt -1.466309 -0.533191
vt 1.419312 0.258333
vt 1.466309 0.145833
vt 0 0.483333
vt 0 0.696621
vt 0.563965 0.314583
vt 0.516968 0.258333
vt 0.563965 0.247917
vt -1.466309 0.314583
vt 1.419312 0.370833
vt -1.466309 -0.489065
vt -1.466309 0.643506
vt 0 0.472917
vt -0.046997 -0.520116
vt 0 -0.467002
vt -0.046997 -0.467002
vt -1.466309 0.202083
vt -1.419312 -0.511128
vt -1.466309 -0.564242
vt -1.419312 -0.564242
vt -1.466309 0.652495
vt -1.419312 0.59938
vt -1.419312 0.652495
vt 1.419312 0.304167
vt 1.466309 0.191667
vt 0.516968 0.304167
vt -1.466309 0.674558
vt -1.419312 0.621443
vt -1.419312 0.674558
vt 1.466309 0.304167
vt 1.466309 0.370833
vt 0 -0.520116
vt -1.466309 -0.511128
vt -1.466309 0.59938
vt 1.466309 0.258333
vt -1.466309 0.621443
vn -1 0 0
vn 1 0 0
vn 0 -0.9805807141524286 -0.19611594283054426
vn 0 0.9805807141524286 0.19611594283054426
vn 0 0 1
vn 0 0 -1
vn 0 0.9805807141524286 -0.19611594283054382
vn 0 -0.9805807141524286 0.19611594283054382
vn 0 -1 0
vn 0 1 0
usemtl material_0_0
f 1/1/1 2/2/1 3/3/1
f 2/2/1 1/1/1 4/4/1
f 3/3/2 2/2/2 1/1/2
f 4/4/2 1/1/2 2/2/2
f 5/5/3 3/6/3 2/7/3
f 2/7/4 3/6/4 5/5/4
f 6/8/5 1/9/5 3/10/5
f 3/10/6 1/9/6 6/8/6
f 1/11/7 7/12/7 4/13/7
f 4/13/8 7/12/8 1/11/8
f 7/14/6 2/15/6 4/16/6
f 4/16/5 2/15/5 7/14/5
f 3/6/3 5/5/3 6/17/3
f 6/17/4 5/5/4 3/6/4
f 2/15/6 7/14/6 5/18/6
f 5/18/5 7/14/5 2/15/5
f 1/9/5 6/8/5 8/19/5
f 8/19/6 6/8/6 1/9/6
f 7/12/7 1/11/7 8/20/7
f 8/20/8 1/11/8 7/12/8
f 9/21/1 6/3/1 5/2/1
f 5/2/2 6/3/2 9/21/2
f 10/22/6 5/18/6 7/14/6
f 7/14/5 5/18/5 10/22/5
f 11/23/5 8/19/5 6/8/5
f 6/8/6 8/19/6 11/23/6
f 8/1/1 12/24/1 7/4/1
f 7/4/2 12/24/2 8/1/2
f 6/3/1 9/21/1 11/25/1
f 11/25/2 9/21/2 6/3/2
f 10/22/6 9/26/6 5/18/6
f 5/18/5 9/26/5 10/22/5
f 10/22/6 7/14/6 12/27/6
f 12/27/5 7/14/5 10/22/5
f 11/23/5 13/28/5 8/19/5
f 8/19/6 13/28/6 11/23/6
f 12/24/1 8/1/1 13/29/1
f 13/29/2 8/1/2 12/24/2
f 9/30/9 14/31/9 11/32/9
f 11/32/10 14/31/10 9/30/10
f 10/22/6 15/33/6 9/26/6
f 9/26/5 15/33/5 10/22/5
f 10/22/6 12/27/6 16/34/6
f 16/34/5 12/27/5 10/22/5
f 11/23/5 17/35/5 13/28/5
f 13/28/6 17/35/6 11/23/6
f 18/36/3 12/37/3 13/38/3
f 13/38/4 12/37/4 18/36/4
f 14/31/9 9/30/9 19/39/9
f 19/39/10 9/30/10 14/31/10
f 14/40/5 17/35/5 11/23/5
f 11/23/6 17/35/6 14/40/6
f 20/41/6 15/33/6 10/22/6
f 10/22/5 15/33/5 20/41/5
f 21/42/6 9/26/6 15/33/6
f 15/33/5 9/26/5 21/42/5
f 22/43/6 16/34/6 12/27/6
f 12/27/5 16/34/5 22/43/5
f 10/22/6 16/34/6 23/44/6
f 23/44/5 16/34/5 10/22/5
f 24/45/5 13/28/5 17/35/5
f 17/35/6 13/28/6 24/45/6
f 12/37/3 18/36/3 22/46/3
f 22/46/4 18/36/4 12/37/4
f 13/28/5 24/45/5 18/47/5
f 18/47/6 24/45/6 13/28/6
f 9/26/6 25/48/6 19/49/6
f 19/49/5 25/48/5 9/26/5
f 19/50/2 26/51/2 14/52/2
f 14/52/1 26/51/1 19/50/1
f 17/35/5 14/40/5 27/53/5
f 27/53/6 14/40/6 17/35/6
f 28/54/6 15/33/6 20/41/6
f 20/41/5 15/33/5 28/54/5
f 20/41/6 10/22/6 29/55/6
f 29/55/5 10/22/5 20/41/5
f 30/56/6 9/26/6 21/42/6
f 21/42/5 9/26/5 30/56/5
f 15/57/2 31/58/2 21/59/2
f 21/59/1 31/58/1 15/57/1
f 16/34/6 22/43/6 32/60/6
f 32/60/5 22/43/5 16/34/5
f 17/61/1 23/62/1 16/63/1
f 16/63/2 23/62/2 17/61/2
f 10/22/6 23/44/6 33/64/6
f 33/64/5 23/44/5 10/22/5
f 16/65/7 24/66/7 17/67/7
f 17/67/8 24/66/8 16/65/8
f 24/61/1 22/24/1 18/29/1
f 18/29/2 22/24/2 24/61/2
f 25/48/6 9/26/6 34/68/6
f 34/68/5 9/26/5 25/48/5
f 26/51/2 19/50/2 25/69/2
f 25/69/1 19/50/1 26/51/1
f 26/70/5 35/41/5 14/40/5
f 14/40/6 35/41/6 26/70/6
f 14/40/5 36/71/5 27/53/5
f 27/53/6 36/71/6 14/40/6
f 17/35/5 27/53/5 37/72/5
f 37/72/6 27/53/6 17/35/6
f 15/33/6 28/54/6 38/73/6
f 38/73/5 28/54/5 15/33/5
f 35/74/10 28/75/10 20/76/10
f 20/76/9 28/75/9 35/74/9
f 10/77/3 39/78/3 29/79/3
f 29/79/4 39/78/4 10/77/4
f 29/80/1 35/81/1 20/82/1
f 20/82/2 35/81/2 29/80/2
f 40/83/6 9/26/6 30/56/6
f 30/56/5 9/26/5 40/83/5
f 41/84/6 30/56/6 21/42/6
f 21/42/5 30/56/5 41/84/5
f 31/58/2 15/57/2 42/85/2
f 42/85/1 15/57/1 31/58/1
f 31/86/7 41/87/7 21/88/7
f 21/88/8 41/87/8 31/86/8
f 22/24/1 24/61/1 32/63/1
f 32/63/2 24/61/2 22/24/2
f 24/66/7 16/65/7 32/89/7
f 32/89/8 16/65/8 24/66/8
f 23/62/1 17/61/1 43/90/1
f 43/90/2 17/61/2 23/62/2
f 44/91/6 33/64/6 23/44/6
f 23/44/5 33/64/5 44/91/5
f 10/22/6 33/64/6 45/92/6
f 45/92/5 33/64/5 10/22/5
f 34/68/6 9/26/6 46/93/6
f 46/93/5 9/26/5 34/68/5
f 47/94/6 25/48/6 34/68/6
f 34/68/5 25/48/5 47/94/5
f 48/95/3 26/96/3 25/97/3
f 25/97/4 26/96/4 48/95/4
f 49/98/5 35/41/5 26/70/5
f 26/70/6 35/41/6 49/98/6
f 14/40/5 35/41/5 36/71/5
f 36/71/6 35/41/6 14/40/6
f 50/99/5 27/53/5 36/71/5
f 36/71/6 27/53/6 50/99/6
f 45/100/1 37/101/1 27/102/1
f 27/102/2 37/101/2 45/100/2
f 17/35/5 37/72/5 43/103/5
f 43/103/6 37/72/6 17/35/6
f 51/104/2 38/57/2 28/105/2
f 28/105/1 38/57/1 51/104/1
f 38/106/3 42/107/3 15/108/3
f 15/108/4 42/107/4 38/106/4
f 28/75/10 35/74/10 51/109/10
f 51/109/9 35/74/9 28/75/9
f 39/78/3 10/77/3 36/110/3
f 36/110/4 10/77/4 39/78/4
f 35/81/1 29/80/1 39/111/1
f 39/111/2 29/80/2 35/81/2
f 52/112/6 9/26/6 40/83/6
f 40/83/5 9/26/5 52/112/5
f 30/113/2 53/114/2 40/115/2
f 40/115/1 53/114/1 30/113/1
f 30/56/6 41/84/6 54/116/6
f 54/116/5 41/84/5 30/56/5
f 42/117/5 35/41/5 31/118/5
f 31/118/6 35/41/6 42/117/6
f 41/87/7 31/86/7 55/119/7
f 55/119/8 31/86/8 41/87/8
f 56/120/3 23/121/3 43/122/3
f 43/122/4 23/121/4 56/120/4
f 33/64/6 44/91/6 57/123/6
f 57/123/5 44/91/5 33/64/5
f 23/121/3 56/120/3 44/124/3
f 44/124/4 56/120/4 23/121/4
f 37/101/1 45/100/1 33/125/1
f 33/125/2 45/100/2 37/101/2
f 10/22/6 45/92/6 58/126/6
f 58/126/5 45/92/5 10/22/5
f 46/93/6 9/26/6 59/127/6
f 59/127/5 9/26/5 46/93/5
f 46/128/2 49/129/2 34/130/2
f 34/130/1 49/129/1 46/128/1
f 25/48/6 47/94/6 48/131/6
f 48/131/5 47/94/5 25/48/5
f 49/132/7 47/133/7 34/134/7
f 34/134/8 47/133/8 49/132/8
f 26/96/3 48/95/3 60/135/3
f 60/135/4 48/95/4 26/96/4
f 61/136/5 35/41/5 49/98/5
f 49/98/6 35/41/6 61/136/6
f 60/137/5 49/98/5 26/70/5
f 26/70/6 49/98/6 60/137/6
f 36/71/5 35/41/5 39/138/5
f 39/138/6 35/41/6 36/71/6
f 27/53/5 50/99/5 62/139/5
f 62/139/6 50/99/6 27/53/6
f 10/80/1 50/140/1 36/111/1
f 36/111/2 50/140/2 10/80/2
f 62/141/3 45/142/3 27/143/3
f 27/143/4 45/142/4 62/141/4
f 63/144/5 43/103/5 37/72/5
f 37/72/6 43/103/6 63/144/6
f 38/57/2 51/104/2 64/85/2
f 64/85/1 51/104/1 38/57/1
f 42/107/3 38/106/3 64/145/3
f 64/145/4 38/106/4 42/107/4
f 35/41/5 64/146/5 51/147/5
f 51/147/6 64/146/6 35/41/6
f 59/127/6 9/26/6 52/112/6
f 52/112/5 9/26/5 59/127/5
f 65/148/6 52/112/6 40/83/6
f 40/83/5 52/112/5 65/148/5
f 53/114/2 30/113/2 66/149/2
f 66/149/1 30/113/1 53/114/1
f 53/150/7 65/151/7 40/152/7
f 40/152/8 65/151/8 53/150/8
f 55/58/2 54/113/2 41/59/2
f 41/59/1 54/113/1 55/58/1
f 54/153/3 66/154/3 30/155/3
f 30/155/4 66/154/4 54/153/4
f 64/146/5 35/41/5 42/117/5
f 42/117/6 35/41/6 64/146/6
f 31/118/5 35/41/5 66/156/5
f 66/156/6 35/41/6 31/118/6
f 31/118/5 67/157/5 55/158/5
f 55/158/6 67/157/6 31/118/6
f 43/103/5 63/144/5 56/159/5
f 56/159/6 63/144/6 43/103/6
f 44/62/1 63/101/1 57/125/1
f 57/125/2 63/101/2 44/62/2
f 63/160/7 33/161/7 57/162/7
f 57/162/8 33/161/8 63/160/8
f 63/101/1 44/62/1 56/90/1
f 56/90/2 44/62/2 63/101/2
f 33/161/7 63/160/7 37/163/7
f 37/163/8 63/160/8 33/161/8
f 68/164/6 58/126/6 45/92/6
f 45/92/5 58/126/5 68/164/5
f 50/140/1 10/80/1 58/165/1
f 58/165/2 10/80/2 50/140/2
f 69/166/6 46/93/6 59/127/6
f 59/127/5 46/93/5 69/166/5
f 49/129/2 46/128/2 61/167/2
f 61/167/1 46/128/1 49/129/1
f 70/129/2 48/69/2 47/130/2
f 47/130/1 48/69/1 70/129/1
f 47/133/7 49/132/7 70/168/7
f 70/168/8 49/132/8 47/133/8
f 48/69/2 70/129/2 60/51/2
f 60/51/1 70/129/1 48/69/1
f 71/169/5 35/41/5 61/136/5
f 61/136/6 35/41/6 71/169/6
f 49/98/5 60/137/5 70/170/5
f 70/170/6 60/137/6 49/98/6
f 62/139/5 50/99/5 72/171/5
f 72/171/6 50/99/6 62/139/6
f 45/142/3 62/141/3 68/172/3
f 68/172/4 62/141/4 45/142/4
f 52/173/2 71/174/2 59/175/2
f 59/175/1 71/174/1 52/173/1
f 52/112/6 65/148/6 73/176/6
f 73/176/5 65/148/5 52/112/5
f 66/156/5 35/41/5 53/177/5
f 53/177/6 35/41/6 66/156/6
f 65/151/7 53/150/7 74/178/7
f 74/178/8 53/150/8 65/151/8
f 54/113/2 55/58/2 67/149/2
f 67/149/1 55/58/1 54/113/1
f 66/154/3 54/153/3 67/179/3
f 67/179/4 54/153/4 66/154/4
f 67/157/5 31/118/5 66/156/5
f 66/156/6 31/118/6 67/157/6
f 58/126/6 68/164/6 75/180/6
f 75/180/5 68/164/5 58/126/5
f 58/181/7 72/182/7 50/183/7
f 50/183/8 72/182/8 58/181/8
f 46/93/6 69/166/6 76/184/6
f 76/184/5 69/166/5 46/93/5
f 71/185/7 69/186/7 59/187/7
f 59/187/8 69/186/8 71/185/8
f 76/188/3 61/189/3 46/190/3
f 46/190/4 61/189/4 76/188/4
f 77/191/5 35/41/5 71/169/5
f 71/169/6 35/41/6 77/191/6
f 78/192/5 71/169/5 61/136/5
f 61/136/6 71/169/6 78/192/6
f 72/140/1 68/100/1 62/102/1
f 62/102/2 68/100/2 72/140/2
f 71/174/2 52/173/2 77/193/2
f 77/193/1 52/173/1 71/174/1
f 74/114/2 73/173/2 65/115/2
f 65/115/1 73/173/1 74/114/1
f 73/194/3 77/195/3 52/196/3
f 52/196/4 77/195/4 73/194/4
f 53/177/5 35/41/5 77/191/5
f 77/191/6 35/41/6 53/177/6
f 53/177/5 79/197/5 74/198/5
f 74/198/6 79/197/6 53/177/6
f 68/100/1 72/140/1 75/165/1
f 75/165/2 72/140/2 68/100/2
f 72/182/7 58/181/7 75/199/7
f 75/199/8 58/181/8 72/182/8
f 80/174/2 76/128/2 69/175/2
f 69/175/1 76/128/1 80/174/1
f 69/186/7 71/185/7 80/200/7
f 80/200/8 71/185/8 69/186/8
f 61/189/3 76/188/3 78/201/3
f 78/201/4 76/188/4 61/189/4
f 71/169/5 78/192/5 80/202/5
f 80/202/6 78/192/6 71/169/6
f 73/173/2 74/114/2 79/193/2
f 79/193/1 74/114/1 73/173/1
f 77/195/3 73/194/3 79/203/3
f 79/203/4 73/194/4 77/195/4
f 79/197/5 53/177/5 77/191/5
f 77/191/6 53/177/6 79/197/6
f 76/128/2 80/174/2 78/167/2
f 78/167/1 80/174/1 76/128/1
