# SSTK version 0.8.0
# 1
mtllib original-1.mtl
o Component_2_1/Component_2/mesh1/mesh1-geometry#mesh1-geometry
v 0.614589 -0.371925 -0.562780
v 0.614589 -0.440400 -0.562780
v 0.573504 -0.371925 -0.521695
v 0.614589 -0.440400 0.316349
v 0.573504 -0.440400 -0.521695
v 0.573504 -0.371925 0.275265
v 0.614589 -0.371925 0.316349
v 0.573504 -0.440400 0.275265
vt -0.306507 0.093994
vt -0.306507 0
vt -0.394896 0.093994
vt 0.495967 0
vt 0.495967 0.093994
vt 1.833333 0
vt -0.394896 0
vt 0 0.503929
vt 0 1.5979
vt 0.0625 0.447533
vt 1.833333 0.093994
vt -0.0625 0.447533
vt -0.0625 1.654297
vt -0.558467 0.093994
vt -0.558467 0
vt -1.770833 0.093994
vt 0.0625 1.654297
vt -1.340557 0
vt -1.340557 0.093994
vt -1.252168 0
vt -1.770833 0
vt -1.252168 0.093994
vt -0.356332 0.104167
vt -0.276575 0
vt -0.276575 0.104167
vt 1.654297 0
vt 0.447533 0.104167
vt 0.447533 0
vt -0.356332 0
vt 0.056396 0.495967
vt 0 1.770833
vt 0 0.558467
vt 1.654297 0.104167
vt -0.056396 1.833333
vt -0.056396 0.495967
vt -1.5979 0.104167
vt -0.503929 0
vt -0.503929 0.104167
vt 0.056396 1.833333
vt -1.129886 0
vt -1.209643 0.104167
vt -1.209643 0
vt -1.5979 0
vt -1.129886 0.104167
vn -0.7071067811865475 0 -0.7071067811865475
vn 1 0 0
vn 0 1 0
vn 0 -1 0
vn -1 0 0
vn -0.7071067811865475 0 0.7071067811865475
vn 0.7071067811865475 0 0.7071067811865475
vn 0.7071067811865475 0 -0.7071067811865475
usemtl material_0_0
f 1/1/1 2/2/1 3/3/1
f 2/4/2 1/5/2 4/6/2
f 5/7/1 3/3/1 2/2/1
f 3/8/3 6/9/3 1/10/3
f 7/11/2 4/6/2 1/5/2
f 2/12/4 4/13/4 5/8/4
f 3/14/5 5/15/5 6/16/5
f 7/17/3 1/10/3 6/9/3
f 4/18/6 7/19/6 8/20/6
f 8/9/4 5/8/4 4/13/4
f 8/21/5 6/16/5 5/15/5
f 6/22/6 8/20/6 7/19/6
usemtl material_1_0
f 3/23/7 2/24/7 1/25/7
f 4/26/5 1/27/5 2/28/5
f 2/24/7 3/23/7 5/29/7
f 1/30/4 6/31/4 3/32/4
f 1/27/5 4/26/5 7/33/5
f 5/32/3 4/34/3 2/35/3
f 6/36/2 5/37/2 3/38/2
f 6/31/4 1/30/4 7/39/4
f 8/40/8 7/41/8 4/42/8
f 4/34/3 5/32/3 8/31/3
f 5/37/2 6/36/2 8/43/2
f 7/41/8 8/40/8 6/44/8
