# SSTK version 0.8.0
# 18
mtllib original-18.mtl
o Component_7_1/Component_7/mesh23/mesh23-geometry#mesh23-geometry
v -0.645348 0.470315 0.316349
v 0.669369 0.049195 0.316349
v -0.645348 0.049195 0.316349
v 0.669369 0.470315 0.316349
v -0.645348 0.049195 0.350587
v 0.669369 0.470315 0.350587
v 0.669369 0.049195 0.350587
v -0.645348 0.470315 0.350587
vt 1.804688 0.645833
vt 0 0.005208
vt 1.804688 0.005208
vt 0 0.645833
vt 0 0
vt -1.804688 0.052083
vt -1.804688 0
vt 0.046997 0.005208
vt 1.804688 0
vt 0 0.052083
vt -0.046997 0.645833
vt 0.046997 0.645833
vt 1.804688 0.052083
vt -0.046997 0.005208
vt -1.804688 0.005208
vt -1.804688 0.645833
vn 0 0 -1
vn 0 0 1
vn 0 -1 0
vn 0 1 0
vn -1 0 0
vn 1 0 0
usemtl material_0_0
f 1/1/1 2/2/1 3/3/1
f 2/2/1 1/1/1 4/4/1
f 3/3/2 2/2/2 1/1/2
f 4/4/2 1/1/2 2/2/2
f 2/5/3 5/6/3 3/7/3
f 3/7/4 5/6/4 2/5/4
f 5/8/5 1/4/5 3/2/5
f 3/2/6 1/4/6 5/8/6
f 1/9/4 6/10/4 4/5/4
f 4/5/3 6/10/3 1/9/3
f 6/11/6 2/2/6 4/4/6
f 4/4/5 2/2/5 6/11/5
f 5/6/3 2/5/3 7/10/3
f 7/10/4 2/5/4 5/6/4
f 1/4/5 5/8/5 8/12/5
f 8/12/6 5/8/6 1/4/6
f 6/10/4 1/9/4 8/13/4
f 8/13/3 1/9/3 6/10/3
f 2/2/6 6/11/6 7/14/6
f 7/14/5 6/11/5 2/2/5
f 6/4/2 5/15/2 7/2/2
f 7/2/1 5/15/1 6/4/1
f 5/15/2 6/4/2 8/16/2
f 8/16/1 6/4/1 5/15/1
