# SSTK version 0.8.0
# 5
mtllib original-5.mtl
o Component_5_1/Component_5/mesh6/mesh6-geometry#mesh6-geometry
v 0.614589 -0.440400 -0.562779
v 0.573504 -0.440400 -0.521694
v -0.590568 -0.440400 -0.562779
v 0.614589 -0.371925 -0.562779
v -0.549483 -0.440400 -0.521694
v 0.573504 -0.371925 -0.521694
v -0.549483 -0.371925 -0.521694
v -0.590568 -0.371925 -0.562779
vt 0 0.0625
vt -0.056396 0
vt -1.654297 0.0625
vt -0.039878 0
vt -0.039878 0.104167
vt 0.039878 0
vt -1.5979 0
vt 0 0
vt -1.654297 0
vt 0 0.104167
vt 0.039878 0.104167
vt 1.129886 0
vt 1.129886 0.104167
vt 1.209643 0
vt 1.5979 0
vt 0.056396 0
vt 1.5979 0.104167
vt -1.654297 0.104167
vt 0.056396 0.104167
vt 1.654297 0.0625
vt 1.209643 0.104167
vn 0 -1 0
vn 0 1 0
vn 0.7071067811865475 0 0.7071067811865475
vn -0.7071067811865475 0 -0.7071067811865475
vn 0 0 -1
vn 0 0 1
vn -0.7071067811865475 0 0.7071067811865475
vn 0.7071067811865475 0 -0.7071067811865475
usemtl material_0_0
f 1/1/1 2/2/1 3/3/1
f 3/3/2 2/2/2 1/1/2
f 1/4/3 4/5/3 2/6/3
f 2/6/4 4/5/4 1/4/4
f 5/7/1 3/3/1 2/2/1
f 2/2/2 3/3/2 5/7/2
f 1/8/5 3/9/5 4/10/5
f 4/10/6 3/9/6 1/8/6
f 6/11/3 2/6/3 4/5/3
f 4/5/4 2/6/4 6/11/4
f 5/12/7 7/13/7 3/14/7
f 3/14/8 7/13/8 5/12/8
f 5/15/6 2/16/6 7/17/6
f 7/17/5 2/16/5 5/15/5
f 8/18/5 4/10/5 3/9/5
f 3/9/6 4/10/6 8/18/6
f 6/19/6 7/17/6 2/16/6
f 2/16/5 7/17/5 6/19/5
f 4/1/2 8/20/2 6/16/2
f 6/16/1 8/20/1 4/1/1
f 8/21/7 3/14/7 7/13/7
f 7/13/8 3/14/8 8/21/8
f 7/15/2 6/16/2 8/20/2
f 8/20/1 6/16/1 7/15/1
