# SSTK version 0.8.0
# 22
mtllib original-22.mtl
o mesh34/mesh34-geometry#mesh34-geometry
v 0.441578 -0.238480 0.196611
v -0.469684 -0.238480 -0.114899
v -0.469684 -0.238480 0.196611
v 0.441578 -0.238480 -0.114899
v -0.469684 -0.240731 0.196611
v 0.441578 -0.240731 -0.114899
v -0.469684 -0.240731 -0.114899
v 0.441578 -0.240731 0.196611
vt 1 0.674772
vt 0.652245 1
vt 0.652245 0.674772
vt 1 1
vt 0.135336 0.002351
vt 0.254214 0
vt 0.254214 0.002351
vt 0.652245 0
vt 1 0.002351
vt 0.652245 0.002351
vt 0.745786 0.002351
vt 0.864664 0
vt 0.864664 0.002351
vt 0 0
vt 0.347755 0.002351
vt 0 0.002351
vt 0.135336 0
vt 1 0
vt 0.745786 0
vt 0.347755 0
vt 0 1
vt 0.347755 0.674772
vt 0.347755 1
vt 0 0.674772
vn 0 1 0
vn 0 -1 0
vn -1 0 0
vn 1 0 0
vn 0 0 1
vn 0 0 -1
usemtl material_0_0
f 1/1/1 2/2/1 3/3/1
f 2/2/1 1/1/1 4/4/1
f 3/3/2 2/2/2 1/1/2
f 4/4/2 1/1/2 2/2/2
f 2/5/3 5/6/3 3/7/3
f 3/7/4 5/6/4 2/5/4
f 5/8/5 1/9/5 3/10/5
f 3/10/6 1/9/6 5/8/6
f 1/11/4 6/12/4 4/13/4
f 4/13/3 6/12/3 1/11/3
f 6/14/6 2/15/6 4/16/6
f 4/16/5 2/15/5 6/14/5
f 5/6/3 2/5/3 7/17/3
f 7/17/4 2/5/4 5/6/4
f 1/9/5 5/8/5 8/18/5
f 8/18/6 5/8/6 1/9/6
f 6/12/4 1/11/4 8/19/4
f 8/19/3 1/11/3 6/12/3
f 2/15/6 6/14/6 7/20/6
f 7/20/5 6/14/5 2/15/5
f 6/21/2 5/22/2 7/23/2
f 7/23/1 5/22/1 6/21/1
f 5/22/2 6/21/2 8/24/2
f 8/24/1 6/21/1 5/22/1
