# SSTK version 0.8.0
# 3
mtllib original-3.mtl
o #ID14
v 0.309679 0.500920 -0.345941
v 0.309679 -0.128229 0.378838
v 0.309679 0.500920 0.378838
v 0.309679 -0.128229 -0.345941
v 0.309679 -0.128229 -0.345941
v 0.309679 0.500920 -0.345941
v 0.309679 -0.128229 0.378838
v 0.309679 0.500920 0.378838
v -0.319124 -0.128229 0.384094
v -0.319469 -0.128229 -0.345941
v -0.319469 -0.128229 0.378838
v -0.319124 -0.128229 -0.351196
v -0.318097 -0.128229 0.389260
v -0.318097 -0.128229 -0.356362
v -0.316404 -0.128229 -0.361350
v -0.316404 -0.128229 0.394247
v -0.314074 -0.128229 0.398971
v -0.314074 -0.128229 -0.366073
v -0.311148 -0.128229 0.403350
v -0.311148 -0.128229 -0.370453
v -0.307675 -0.128229 0.407310
v -0.307675 -0.128229 -0.374413
v -0.303715 -0.128229 0.410783
v -0.303715 -0.128229 -0.377885
v -0.299336 -0.128229 0.413709
v -0.299336 -0.128229 -0.380812
v -0.294612 -0.128229 -0.383141
v -0.294612 -0.128229 0.416039
v -0.289625 -0.128229 0.417732
v -0.289625 -0.128229 -0.384834
v -0.284459 -0.128229 0.418759
v -0.284459 -0.128229 -0.385862
v -0.279203 -0.128229 0.419104
v -0.279203 -0.128229 -0.386206
v 0.269414 -0.128229 -0.386206
v 0.269414 -0.128229 0.419104
v 0.274670 -0.128229 0.418759
v 0.274670 -0.128229 -0.385862
v 0.279835 -0.128229 0.417732
v 0.279835 -0.128229 -0.384834
v 0.284823 -0.128229 0.416039
v 0.284823 -0.128229 -0.383141
v 0.289547 -0.128229 -0.380812
v 0.289547 -0.128229 0.413709
v 0.293926 -0.128229 -0.377885
v 0.293926 -0.128229 0.410783
v 0.297886 -0.128229 0.407310
v 0.297886 -0.128229 -0.374413
v 0.301359 -0.128229 0.403350
v 0.301359 -0.128229 -0.370453
v 0.304285 -0.128229 0.398971
v 0.304285 -0.128229 -0.366073
v 0.306614 -0.128229 -0.361350
v 0.306614 -0.128229 0.394247
v 0.308307 -0.128229 0.389260
v 0.308307 -0.128229 -0.356362
v 0.309335 -0.128229 0.384094
v 0.309335 -0.128229 -0.351196
v 0.309679 -0.128229 0.378838
v 0.309679 -0.128229 -0.345941
v 0.309679 -0.128229 -0.345941
v 0.309679 -0.128229 0.378838
v 0.309335 -0.128229 -0.351196
v 0.309335 -0.128229 0.384094
v 0.308307 -0.128229 -0.356362
v 0.308307 -0.128229 0.389260
v 0.306614 -0.128229 -0.361350
v 0.306614 -0.128229 0.394247
v 0.304285 -0.128229 0.398971
v 0.304285 -0.128229 -0.366073
v 0.301359 -0.128229 -0.370453
v 0.301359 -0.128229 0.403350
v 0.297886 -0.128229 -0.374413
v 0.297886 -0.128229 0.407310
v 0.293926 -0.128229 -0.377885
v 0.293926 -0.128229 0.410783
v 0.289547 -0.128229 0.413709
v 0.289547 -0.128229 -0.380812
v 0.284823 -0.128229 0.416039
v 0.284823 -0.128229 -0.383141
v 0.279835 -0.128229 -0.384834
v 0.279835 -0.128229 0.417732
v 0.274670 -0.128229 -0.385862
v 0.274670 -0.128229 0.418759
v 0.269414 -0.128229 -0.386206
v 0.269414 -0.128229 0.419104
v -0.279203 -0.128229 0.419104
v -0.279203 -0.128229 -0.386206
v -0.284459 -0.128229 -0.385862
v -0.284459 -0.128229 0.418759
v -0.289625 -0.128229 -0.384834
v -0.289625 -0.128229 0.417732
v -0.294612 -0.128229 -0.383141
v -0.294612 -0.128229 0.416039
v -0.299336 -0.128229 0.413709
v -0.299336 -0.128229 -0.380812
v -0.303715 -0.128229 -0.377885
v -0.303715 -0.128229 0.410783
v -0.307675 -0.128229 -0.374413
v -0.307675 -0.128229 0.407310
v -0.311148 -0.128229 -0.370453
v -0.311148 -0.128229 0.403350
v -0.314074 -0.128229 -0.366073
v -0.314074 -0.128229 0.398971
v -0.316404 -0.128229 -0.361350
v -0.316404 -0.128229 0.394247
v -0.318097 -0.128229 0.389260
v -0.318097 -0.128229 -0.356362
v -0.319124 -0.128229 -0.351196
v -0.319124 -0.128229 0.384094
v -0.319469 -0.128229 -0.345941
v -0.319469 -0.128229 0.378838
v 0.269414 0.500920 -0.386206
v -0.279203 -0.128229 -0.386206
v 0.269414 -0.128229 -0.386206
v -0.279203 0.500920 -0.386206
v -0.279203 0.500920 -0.386206
v 0.269414 0.500920 -0.386206
v -0.279203 -0.128229 -0.386206
v 0.269414 -0.128229 -0.386206
v -0.319469 -0.128229 -0.345941
v -0.319469 0.500920 0.378838
v -0.319469 -0.128229 0.378838
v -0.319469 0.500920 -0.345941
v -0.319469 0.500920 -0.345941
v -0.319469 -0.128229 -0.345941
v -0.319469 0.500920 0.378838
v -0.319469 -0.128229 0.378838
v -0.279203 0.500920 0.419104
v 0.269414 -0.128229 0.419104
v -0.279203 -0.128229 0.419104
v 0.269414 0.500920 0.419104
v 0.269414 0.500920 0.419104
v -0.279203 0.500920 0.419104
v 0.269414 -0.128229 0.419104
v -0.279203 -0.128229 0.419104
vn -1 0 0
vn 0 1 0
vn 0 0 1
vn 1 0 0
vn 0 0 -1
vn 0 -1 0
usemtl material_0_0
f 1//1 2//1 3//1
f 2//1 1//1 4//1
f 9//2 10//2 11//2
f 10//2 9//2 12//2
f 12//2 9//2 13//2
f 12//2 13//2 14//2
f 14//2 13//2 15//2
f 15//2 13//2 16//2
f 15//2 16//2 17//2
f 15//2 17//2 18//2
f 18//2 17//2 19//2
f 18//2 19//2 20//2
f 20//2 19//2 21//2
f 20//2 21//2 22//2
f 22//2 21//2 23//2
f 22//2 23//2 24//2
f 24//2 23//2 25//2
f 24//2 25//2 26//2
f 26//2 25//2 27//2
f 27//2 25//2 28//2
f 27//2 28//2 29//2
f 27//2 29//2 30//2
f 30//2 29//2 31//2
f 30//2 31//2 32//2
f 32//2 31//2 33//2
f 32//2 33//2 34//2
f 34//2 33//2 35//2
f 35//2 33//2 36//2
f 35//2 36//2 37//2
f 35//2 37//2 38//2
f 38//2 37//2 39//2
f 38//2 39//2 40//2
f 40//2 39//2 41//2
f 40//2 41//2 42//2
f 42//2 41//2 43//2
f 43//2 41//2 44//2
f 43//2 44//2 45//2
f 45//2 44//2 46//2
f 45//2 46//2 47//2
f 45//2 47//2 48//2
f 48//2 47//2 49//2
f 48//2 49//2 50//2
f 50//2 49//2 51//2
f 50//2 51//2 52//2
f 52//2 51//2 53//2
f 53//2 51//2 54//2
f 53//2 54//2 55//2
f 53//2 55//2 56//2
f 56//2 55//2 57//2
f 56//2 57//2 58//2
f 58//2 57//2 59//2
f 58//2 59//2 60//2
f 113//3 114//3 115//3
f 114//3 113//3 116//3
f 121//4 122//4 123//4
f 122//4 121//4 124//4
f 129//5 130//5 131//5
f 130//5 129//5 132//5
usemtl material_1_0
f 5//4 6//4 7//4
f 8//4 7//4 6//4
f 61//6 62//6 63//6
f 62//6 64//6 63//6
f 63//6 64//6 65//6
f 64//6 66//6 65//6
f 65//6 66//6 67//6
f 66//6 68//6 67//6
f 68//6 69//6 67//6
f 67//6 69//6 70//6
f 70//6 69//6 71//6
f 69//6 72//6 71//6
f 71//6 72//6 73//6
f 72//6 74//6 73//6
f 73//6 74//6 75//6
f 74//6 76//6 75//6
f 76//6 77//6 75//6
f 75//6 77//6 78//6
f 77//6 79//6 78//6
f 78//6 79//6 80//6
f 80//6 79//6 81//6
f 79//6 82//6 81//6
f 81//6 82//6 83//6
f 82//6 84//6 83//6
f 83//6 84//6 85//6
f 84//6 86//6 85//6
f 86//6 87//6 85//6
f 85//6 87//6 88//6
f 88//6 87//6 89//6
f 87//6 90//6 89//6
f 89//6 90//6 91//6
f 90//6 92//6 91//6
f 91//6 92//6 93//6
f 92//6 94//6 93//6
f 94//6 95//6 93//6
f 93//6 95//6 96//6
f 96//6 95//6 97//6
f 95//6 98//6 97//6
f 97//6 98//6 99//6
f 98//6 100//6 99//6
f 99//6 100//6 101//6
f 100//6 102//6 101//6
f 101//6 102//6 103//6
f 102//6 104//6 103//6
f 103//6 104//6 105//6
f 104//6 106//6 105//6
f 106//6 107//6 105//6
f 105//6 107//6 108//6
f 108//6 107//6 109//6
f 107//6 110//6 109//6
f 109//6 110//6 111//6
f 112//6 111//6 110//6
f 117//5 118//5 119//5
f 120//5 119//5 118//5
f 125//1 126//1 127//1
f 128//1 127//1 126//1
f 133//3 134//3 135//3
f 136//3 135//3 134//3
