# SSTK version 0.8.0
# 16
mtllib original-16.mtl
o instance_6/Component_21/ID89#ID89
v 0.384733 -0.403339 0.771427
v 0.410787 -0.403339 0.771427
v 0.397760 -0.405054 0.771427
v 0.372594 -0.398311 0.771427
v 0.422926 -0.398311 0.771427
v 0.362170 -0.390312 0.771427
v 0.433350 -0.390312 0.771427
v 0.354172 -0.379888 0.771427
v 0.441349 -0.379888 0.771427
v 0.349143 -0.367749 0.771427
v 0.446377 -0.367749 0.771427
v 0.347428 -0.354722 0.771427
v 0.448092 -0.354722 0.771427
v 0.349143 -0.341695 0.771427
v 0.446377 -0.341695 0.771427
v 0.354172 -0.329556 0.771427
v 0.441349 -0.329556 0.771427
v 0.362170 -0.319132 0.771427
v 0.433350 -0.319132 0.771427
v 0.372594 -0.311133 0.771427
v 0.422926 -0.311133 0.771427
v 0.384733 -0.306105 0.771427
v 0.410787 -0.306105 0.771427
v 0.397760 -0.304390 0.771427
v 0.397760 -0.405054 0.771427
v 0.384733 -0.403339 0.821759
v 0.384733 -0.403339 0.771427
v 0.397760 -0.405054 0.821759
v 0.372594 -0.398311 0.821759
v 0.372594 -0.398311 0.771427
v 0.362170 -0.390312 0.821759
v 0.362170 -0.390312 0.771427
v 0.354172 -0.379888 0.771427
v 0.354172 -0.379888 0.821759
v 0.349143 -0.367749 0.821759
v 0.349143 -0.367749 0.771427
v 0.347428 -0.354722 0.771427
v 0.347428 -0.354722 0.821759
v 0.349143 -0.341695 0.821759
v 0.349143 -0.341695 0.771427
v 0.354172 -0.329556 0.771427
v 0.354172 -0.329556 0.821759
v 0.362170 -0.319132 0.821759
v 0.362170 -0.319132 0.771427
v 0.372594 -0.311133 0.821759
v 0.372594 -0.311133 0.771427
v 0.384733 -0.306105 0.821759
v 0.384733 -0.306105 0.771427
v 0.397760 -0.304390 0.821759
v 0.397760 -0.304390 0.771427
v 0.410787 -0.306105 0.821759
v 0.410787 -0.306105 0.771427
v 0.422926 -0.311133 0.821759
v 0.422926 -0.311133 0.771427
v 0.433350 -0.319132 0.821759
v 0.433350 -0.319132 0.771427
v 0.441349 -0.329556 0.771427
v 0.441349 -0.329556 0.821759
v 0.446377 -0.341695 0.771427
v 0.446377 -0.341695 0.821759
v 0.448092 -0.354722 0.821759
v 0.448092 -0.354722 0.771427
v 0.446377 -0.367749 0.771427
v 0.446377 -0.367749 0.821759
v 0.441349 -0.379888 0.771427
v 0.441349 -0.379888 0.821759
v 0.433350 -0.390312 0.771427
v 0.433350 -0.390312 0.821759
v 0.422926 -0.398311 0.821759
v 0.422926 -0.398311 0.771427
v 0.410787 -0.403339 0.821759
v 0.410787 -0.403339 0.771427
v 0.410787 -0.403339 0.821759
v 0.384733 -0.403339 0.821759
v 0.397760 -0.405054 0.821759
v 0.422926 -0.398311 0.821759
v 0.372594 -0.398311 0.821759
v 0.433350 -0.390312 0.821759
v 0.362170 -0.390312 0.821759
v 0.441349 -0.379888 0.821759
v 0.354172 -0.379888 0.821759
v 0.446377 -0.367749 0.821759
v 0.349143 -0.367749 0.821759
v 0.448092 -0.354722 0.821759
v 0.347428 -0.354722 0.821759
v 0.446377 -0.341695 0.821759
v 0.349143 -0.341695 0.821759
v 0.441349 -0.329556 0.821759
v 0.354172 -0.329556 0.821759
v 0.433350 -0.319132 0.821759
v 0.362170 -0.319132 0.821759
v 0.422926 -0.311133 0.821759
v 0.372594 -0.311133 0.821759
v 0.410787 -0.306105 0.821759
v 0.384733 -0.306105 0.821759
v 0.397760 -0.304390 0.821759
vn 0 0 -1
vn 0 0 1
vn 0 -1 0
vn -0.2588190095935616 -0.9659258358036645 0
vn 0 1 0
vn 0.2588190095935616 0.9659258358036645 0
vn -0.50000000163871 -0.866025402838329 0
vn 0.50000000163871 0.866025402838329 0
vn -0.7071067811865476 -0.7071067811865476 0
vn 0.7071067811865476 0.7071067811865476 0
vn -0.866025402838329 -0.50000000163871 0
vn 0.866025402838329 0.50000000163871 0
vn -0.9659258358036645 -0.2588190095935616 0
vn 0.9659258358036645 0.2588190095935616 0
vn -1 0 0
vn 1 0 0
vn -0.9659258358036645 0.2588190095935616 0
vn 0.9659258358036645 -0.2588190095935616 0
vn -0.866025402838329 0.50000000163871 0
vn 0.866025402838329 -0.50000000163871 0
vn -0.7071067811865476 0.7071067811865476 0
vn 0.7071067811865476 -0.7071067811865476 0
vn -0.50000000163871 0.866025402838329 0
vn 0.50000000163871 -0.866025402838329 0
vn -0.2588190095935616 0.9659258358036645 0
vn 0.2588190095935616 -0.9659258358036645 0
usemtl material_0_2
f 1//1 2//1 3//1
f 3//2 2//2 1//2
f 2//1 1//1 4//1
f 4//2 1//2 2//2
f 2//1 4//1 5//1
f 5//2 4//2 2//2
f 5//1 4//1 6//1
f 6//2 4//2 5//2
f 5//1 6//1 7//1
f 7//2 6//2 5//2
f 7//1 6//1 8//1
f 8//2 6//2 7//2
f 7//1 8//1 9//1
f 9//2 8//2 7//2
f 9//1 8//1 10//1
f 10//2 8//2 9//2
f 9//1 10//1 11//1
f 11//2 10//2 9//2
f 11//1 10//1 12//1
f 12//2 10//2 11//2
f 11//1 12//1 13//1
f 13//2 12//2 11//2
f 13//1 12//1 14//1
f 14//2 12//2 13//2
f 13//1 14//1 15//1
f 15//2 14//2 13//2
f 15//1 14//1 16//1
f 16//2 14//2 15//2
f 15//1 16//1 17//1
f 17//2 16//2 15//2
f 17//1 16//1 18//1
f 18//2 16//2 17//2
f 17//1 18//1 19//1
f 19//2 18//2 17//2
f 19//1 18//1 20//1
f 20//2 18//2 19//2
f 19//1 20//1 21//1
f 21//2 20//2 19//2
f 21//1 20//1 22//1
f 22//2 20//2 21//2
f 21//1 22//1 23//1
f 23//2 22//2 21//2
f 23//1 22//1 24//1
f 24//2 22//2 23//2
f 25//3 26//4 27//4
f 27//6 26//6 25//5
f 26//4 25//3 28//3
f 28//5 25//5 26//6
f 27//4 29//7 30//7
f 30//8 29//8 27//6
f 29//7 27//4 26//4
f 26//6 27//6 29//8
f 30//7 31//9 32//9
f 32//10 31//10 30//8
f 31//9 30//7 29//7
f 29//8 30//8 31//10
f 33//11 31//9 34//11
f 34//12 31//10 33//12
f 31//9 33//11 32//9
f 32//10 33//12 31//10
f 35//13 33//11 34//11
f 34//12 33//12 35//14
f 33//11 35//13 36//13
f 36//14 35//14 33//12
f 37//15 35//13 38//15
f 38//16 35//14 37//16
f 35//13 37//15 36//13
f 36//14 37//16 35//14
f 39//17 37//15 38//15
f 38//16 37//16 39//18
f 37//15 39//17 40//17
f 40//18 39//18 37//16
f 41//19 39//17 42//19
f 42//20 39//18 41//20
f 39//17 41//19 40//17
f 40//18 41//20 39//18
f 43//21 41//19 42//19
f 42//20 41//20 43//22
f 41//19 43//21 44//21
f 44//22 43//22 41//20
f 45//23 44//21 43//21
f 43//22 44//22 45//24
f 44//21 45//23 46//23
f 46//24 45//24 44//22
f 47//25 46//23 45//23
f 45//24 46//24 47//26
f 46//23 47//25 48//25
f 48//26 47//26 46//24
f 49//5 48//25 47//25
f 47//26 48//26 49//3
f 48//25 49//5 50//5
f 50//3 49//3 48//26
f 51//6 50//5 49//5
f 49//3 50//3 51//4
f 50//5 51//6 52//6
f 52//4 51//4 50//3
f 53//8 52//6 51//6
f 51//4 52//4 53//7
f 52//6 53//8 54//8
f 54//7 53//7 52//4
f 55//10 54//8 53//8
f 53//7 54//7 55//9
f 54//8 55//10 56//10
f 56//9 55//9 54//7
f 57//12 55//10 58//12
f 58//11 55//9 57//11
f 55//10 57//12 56//10
f 56//9 57//11 55//9
f 59//14 58//12 60//14
f 60//13 58//11 59//13
f 58//12 59//14 57//12
f 57//11 59//13 58//11
f 61//16 59//14 60//14
f 60//13 59//13 61//15
f 59//14 61//16 62//16
f 62//15 61//15 59//13
f 63//18 61//16 64//18
f 64//17 61//15 63//17
f 61//16 63//18 62//16
f 62//15 63//17 61//15
f 65//20 64//18 66//20
f 66//19 64//17 65//19
f 64//18 65//20 63//18
f 63//17 65//19 64//17
f 67//22 66//20 68//22
f 68//21 66//19 67//21
f 66//20 67//22 65//20
f 65//19 67//21 66//19
f 67//22 69//24 70//24
f 70//23 69//23 67//21
f 69//24 67//22 68//22
f 68//21 67//21 69//23
f 70//24 71//26 72//26
f 72//25 71//25 70//23
f 71//26 70//24 69//24
f 69//23 70//23 71//25
f 72//26 28//3 25//3
f 25//5 28//5 72//25
f 28//3 72//26 71//26
f 71//25 72//25 28//5
f 73//2 74//2 75//2
f 75//1 74//1 73//1
f 74//2 73//2 76//2
f 76//1 73//1 74//1
f 74//2 76//2 77//2
f 77//1 76//1 74//1
f 77//2 76//2 78//2
f 78//1 76//1 77//1
f 77//2 78//2 79//2
f 79//1 78//1 77//1
f 79//2 78//2 80//2
f 80//1 78//1 79//1
f 79//2 80//2 81//2
f 81//1 80//1 79//1
f 81//2 80//2 82//2
f 82//1 80//1 81//1
f 81//2 82//2 83//2
f 83//1 82//1 81//1
f 83//2 82//2 84//2
f 84//1 82//1 83//1
f 83//2 84//2 85//2
f 85//1 84//1 83//1
f 85//2 84//2 86//2
f 86//1 84//1 85//1
f 85//2 86//2 87//2
f 87//1 86//1 85//1
f 87//2 86//2 88//2
f 88//1 86//1 87//1
f 87//2 88//2 89//2
f 89//1 88//1 87//1
f 89//2 88//2 90//2
f 90//1 88//1 89//1
f 89//2 90//2 91//2
f 91//1 90//1 89//1
f 91//2 90//2 92//2
f 92//1 90//1 91//1
f 91//2 92//2 93//2
f 93//1 92//1 91//1
f 93//2 92//2 94//2
f 94//1 92//1 93//1
f 93//2 94//2 95//2
f 95//1 94//1 93//1
f 95//2 94//2 96//2
f 96//1 94//1 95//1
