# SSTK version 0.8.0
# 19
mtllib original-19.mtl
o #ID144
v -0.046177 0.002717 0.308181
v -0.050854 0.018663 0.300655
v -0.053984 0.003261 0.300655
v -0.043453 0.016116 0.308181
v -0.043453 0.016116 0.308181
v -0.046177 0.002717 0.308181
v -0.050854 0.018663 0.300655
v -0.053984 0.003261 0.300655
v -0.043844 0.032729 0.300655
v -0.037355 0.028354 0.308181
v -0.037355 0.028354 0.308181
v -0.043844 0.032729 0.300655
v -0.053021 -0.012426 0.300655
v -0.045339 -0.010931 0.308181
v -0.045339 -0.010931 0.308181
v -0.053021 -0.012426 0.300655
v -0.033433 0.044502 0.300655
v -0.028297 0.038596 0.308181
v -0.028297 0.038596 0.308181
v -0.033433 0.044502 0.300655
v -0.048031 -0.027329 0.300655
v -0.040998 -0.023896 0.308181
v -0.040998 -0.023896 0.308181
v -0.048031 -0.027329 0.300655
v -0.020329 0.053179 0.300655
v -0.016897 0.046145 0.308181
v -0.016897 0.046145 0.308181
v -0.020329 0.053179 0.300655
v -0.039354 -0.040432 0.300655
v -0.033449 -0.035297 0.308181
v -0.033449 -0.035297 0.308181
v -0.039354 -0.040432 0.300655
v -0.005426 0.058169 0.300655
v -0.003931 0.050487 0.308181
v -0.003931 0.050487 0.308181
v -0.005426 0.058169 0.300655
v -0.027581 -0.050844 0.300655
v -0.023206 -0.044354 0.308181
v -0.023206 -0.044354 0.308181
v -0.027581 -0.050844 0.300655
v 0.010260 0.059132 0.300655
v 0.009716 0.051324 0.308181
v 0.009716 0.051324 0.308181
v 0.010260 0.059132 0.300655
v -0.013515 -0.057853 0.300655
v -0.010968 -0.050453 0.308181
v -0.010968 -0.050453 0.308181
v -0.013515 -0.057853 0.300655
v 0.023115 0.048601 0.308181
v 0.025662 0.056002 0.300655
v 0.025662 0.056002 0.300655
v 0.023115 0.048601 0.308181
v 0.001887 -0.060983 0.300655
v 0.002431 -0.053176 0.308181
v 0.002431 -0.053176 0.308181
v 0.001887 -0.060983 0.300655
v 0.035353 0.042503 0.308181
v 0.039728 0.048992 0.300655
v 0.039728 0.048992 0.300655
v 0.035353 0.042503 0.308181
v 0.017573 -0.060021 0.300655
v 0.016078 -0.052338 0.308181
v 0.016078 -0.052338 0.308181
v 0.017573 -0.060021 0.300655
v 0.045596 0.033445 0.308181
v 0.051501 0.038581 0.300655
v 0.051501 0.038581 0.300655
v 0.045596 0.033445 0.308181
v 0.029044 -0.047997 0.308181
v 0.032476 -0.055031 0.300655
v 0.032476 -0.055031 0.300655
v 0.029044 -0.047997 0.308181
v 0.053145 0.022045 0.308181
v 0.060178 0.025477 0.300655
v 0.060178 0.025477 0.300655
v 0.053145 0.022045 0.308181
v 0.040444 -0.040448 0.308181
v 0.045580 -0.046354 0.300655
v 0.045580 -0.046354 0.300655
v 0.040444 -0.040448 0.308181
v 0.057486 0.009079 0.308181
v 0.065168 0.010574 0.300655
v 0.065168 0.010574 0.300655
v 0.057486 0.009079 0.308181
v 0.049502 -0.030205 0.308181
v 0.055992 -0.034581 0.300655
v 0.055992 -0.034581 0.300655
v 0.049502 -0.030205 0.308181
v 0.058324 -0.004568 0.308181
v 0.066131 -0.005113 0.300655
v 0.066131 -0.005113 0.300655
v 0.058324 -0.004568 0.308181
v 0.055601 -0.017968 0.308181
v 0.063001 -0.020514 0.300655
v 0.063001 -0.020514 0.300655
v 0.055601 -0.017968 0.308181
vt 0.0420091 0.05182031
vt 0.03631192 0.06251819
vt 0.03480447 0.05218548
vt 0.04332058 0.06080977
vt 0.04233366 0.05405796
vt 0.03885988 0.06566983
vt 0.03534281 0.05583786
vt 0.04539351 0.06261177
vt 0.03546532 0.04623575
vt 0.0422105 0.05630575
vt 0.03500571 0.05666772
vt 0.04261036 0.04722993
vt 0.04347803 0.05320941
vt 0.04264747 0.06530126
vt 0.03705098 0.05648555
vt 0.04834697 0.06087908
vt 0.03734825 0.03900788
vt 0.04204953 0.05017929
vt 0.03490792 0.04916082
vt 0.04417263 0.04134624
vt 0.04510315 0.04893424
vt 0.04740994 0.06083303
vt 0.03973469 0.05375292
vt 0.05178061 0.05509393
vt 0.04048496 0.03189256
vt 0.04277973 0.04379368
vt 0.036002 0.04132338
vt 0.04667991 0.03558886
vt 0.04634997 0.04164348
vt 0.05216229 0.05227925
vt 0.04269899 0.04786525
vt 0.05458304 0.04548366
vt 0.04479311 0.02671597
vt 0.044216 0.03882255
vt 0.03821218 0.03482329
vt 0.04994142 0.03176918
vt 0.04584813 0.03325068
vt 0.0549642 0.04123815
vt 0.04456007 0.04034863
vt 0.05489973 0.03402456
vt 0.04973672 0.02562671
vt 0.04581186 0.03709397
vt 0.04115883 0.03158132
vt 0.05327462 0.03191347
vt 0.05158036 0.0247474
vt 0.04414262 0.03431727
vt 0.0428393 0.02722211
vt 0.05418982 0.03147278
vt 0.05385177 0.03027873
vt 0.04641403 0.03984861
vt 0.04380457 0.03312323
vt 0.05515509 0.0373739
vt 0.04579136 0.02113349
vt 0.0418665 0.03260074
vt 0.0383286 0.02631399
vt 0.05044438 0.02664614
vt 0.05506992 0.04000168
vt 0.04473025 0.04632575
vt 0.04466578 0.03911216
vt 0.05378185 0.04709963
vt 0.0397528 0.0234988
vt 0.03917568 0.03560539
vt 0.03402738 0.03055217
vt 0.04575662 0.02749807
vt 0.04322357 0.0467406
vt 0.04903589 0.05737636
vt 0.04080282 0.05353618
vt 0.05268686 0.0511546
vt 0.03482803 0.02995504
vt 0.03712279 0.04185616
vt 0.03092785 0.03815986
vt 0.04160576 0.03242534
vt 0.04057612 0.05284077
vt 0.04288291 0.06473956
vt 0.03620545 0.05857986
vt 0.04825136 0.05992087
vt 0.03141325 0.03827942
vt 0.03611453 0.04945083
vt 0.02929015 0.04711248
vt 0.03855486 0.0392979
vt 0.03809867 0.05582044
vt 0.03726811 0.06791228
vt 0.03239917 0.06024262
vt 0.04369516 0.06463615
vt 0.02950031 0.04665234
vt 0.03624549 0.05672235
vt 0.02910045 0.05572816
vt 0.03670509 0.04629037
vt 0.03651128 0.05541988
vt 0.0330375 0.06703174
vt 0.02997765 0.05847793
vt 0.04002835 0.06525185
vt 0.03603245 0.05200632
vt 0.03033527 0.06270421
vt 0.02902379 0.05371475
vt 0.03753989 0.06233904
vt 0.1615448 0.6114374
vt 0.1443479 0.5268211
vt 0.1148099 0.6275185
vt 0.09504345 0.5302584
vt 0.2000559 0.6887197
vt 0.1590756 0.7163487
vt 0.1496374 0.4406371
vt 0.1011233 0.4311963
vt 0.257257 0.7534011
vt 0.224824 0.7906952
vt 0.1770527 0.3587588
vt 0.1326351 0.3370834
vt 0.3292498 0.8010739
vt 0.3075743 0.8454915
vt 0.2247255 0.2867661
vt 0.1874314 0.254333
vt 0.4111281 0.8284892
vt 0.4016873 0.8770033
vt 0.289407 0.229565
vt 0.2617779 0.1885847
vt 0.497312 0.8337787
vt 0.5007493 0.8830832
vt 0.3666892 0.1910538
vt 0.3506081 0.144319
vt 0.5980094 0.8633167
vt 0.5819283 0.8165819
vt 0.4513055 0.173857
vt 0.4478682 0.1245525
vt 0.6868396 0.819051
vt 0.6592106 0.7780707
vt 0.5374895 0.1791465
vt 0.5469303 0.1306324
vt 0.7611861 0.7533027
vt 0.7238921 0.7208696
vt 0.6410433 0.1621442
vt 0.6193678 0.2065618
vt 0.8159824 0.6705523
vt 0.7715649 0.6488769
vt 0.7237936 0.2169405
vt 0.6913605 0.2542346
vt 0.8474942 0.5764394
vt 0.7989801 0.5669986
vt 0.7895419 0.291287
vt 0.7485616 0.318916
vt 0.8535741 0.4773773
vt 0.8042696 0.4808146
vt 0.8338076 0.3801172
vt 0.7870728 0.3961983
vn -0.6914305766604211 0.0482031553443895 0.7208329997120568
vn -0.6553947581981516 0.22551612002552096 0.7208329838007007
vn -0.5746948652363008 0.38746044398244645 0.7208330016168487
vn -0.6803465629641032 -0.13239471225274685 0.7208329865027292
vn -0.4548304475253216 0.5230000546483772 0.7208329951117043
vn -0.6228979891448428 -0.3039701435020998 0.7208330229523506
vn -0.3039701245678584 0.6228980503446551 0.7208329780518009
vn -0.5230000546483774 -0.4548304475253215 0.7208329951117041
vn -0.13239471225274693 0.6803465629641031 0.7208329865027294
vn -0.3874604439824468 -0.5746948652363006 0.7208330016168486
vn 0.048203185274686346 0.6914305756605463 0.7208329986696639
vn -0.22551602511126156 -0.6553947729783585 0.7208330000566449
vn 0.22551612002552082 0.6553947581981514 0.7208329838007008
vn -0.048203115437326964 -0.691430577993586 0.7208330011019135
vn 0.38746044398244633 0.5746948652363004 0.7208330016168489
vn 0.13239481049991778 -0.6803465539566705 0.7208329769592774
vn 0.5230000546483771 0.4548304475253213 0.7208329951117045
vn 0.303970124567858 -0.6228980503446554 0.7208329780518009
vn 0.6228980503446551 0.30397012456785816 0.720832978051801
vn 0.45483052683825054 -0.523000030860739 0.7208329623260201
vn 0.680346562964103 0.13239471225274668 0.7208329865027294
vn 0.5746948652363004 -0.38746044398244656 0.7208330016168488
vn 0.6914305766604208 -0.04820315534438965 0.7208329997120572
vn 0.6553947729783582 -0.22551602511126148 0.7208330000566451
vn 0.6553947581981516 -0.22551612002552096 -0.7208329838007007
vn 0.6914305766604211 -0.0482031553443895 -0.7208329997120568
vn 0.5746948652363008 -0.38746044398244645 -0.7208330016168487
vn 0.6803465629641032 0.13239471225274685 -0.7208329865027292
vn 0.4548304475253216 -0.5230000546483772 -0.7208329951117043
vn 0.6228979891448428 0.3039701435020998 -0.7208330229523506
vn 0.3039701245678584 -0.6228980503446551 -0.7208329780518009
vn 0.5230000546483774 0.4548304475253215 -0.7208329951117041
vn 0.13239471225274693 -0.6803465629641031 -0.7208329865027294
vn 0.3874604439824468 0.5746948652363006 -0.7208330016168486
vn -0.048203185274686346 -0.6914305756605463 -0.7208329986696639
vn 0.22551602511126156 0.6553947729783585 -0.7208330000566449
vn -0.22551612002552082 -0.6553947581981514 -0.7208329838007008
vn 0.048203115437326964 0.691430577993586 -0.7208330011019135
vn -0.38746044398244633 -0.5746948652363004 -0.7208330016168489
vn -0.13239481049991778 0.6803465539566705 -0.7208329769592774
vn -0.5230000546483771 -0.4548304475253213 -0.7208329951117045
vn -0.303970124567858 0.6228980503446554 -0.7208329780518009
vn -0.6228980503446551 -0.30397012456785816 -0.720832978051801
vn -0.45483052683825054 0.523000030860739 -0.7208329623260201
vn -0.680346562964103 -0.13239471225274668 -0.7208329865027294
vn -0.5746948652363004 0.38746044398244656 -0.7208330016168488
vn -0.6914305766604208 0.04820315534438965 -0.7208329997120572
vn -0.6553947729783582 0.22551602511126148 -0.7208330000566451
usemtl material_0_0
f 5/97/25 6/98/26 7/99/25
f 8/100/26 7/99/25 6/98/26
f 11/101/27 5/97/25 12/102/27
f 7/99/25 12/102/27 5/97/25
f 15/103/28 16/104/28 6/98/26
f 8/100/26 6/98/26 16/104/28
f 19/105/29 11/101/27 20/106/29
f 12/102/27 20/106/29 11/101/27
f 23/107/30 24/108/30 15/103/28
f 16/104/28 15/103/28 24/108/30
f 27/109/31 19/105/29 28/110/31
f 20/106/29 28/110/31 19/105/29
f 31/111/32 32/112/32 23/107/30
f 24/108/30 23/107/30 32/112/32
f 35/113/33 27/109/31 36/114/33
f 28/110/31 36/114/33 27/109/31
f 39/115/34 40/116/34 31/111/32
f 32/112/32 31/111/32 40/116/34
f 43/117/35 35/113/33 44/118/35
f 36/114/33 44/118/35 35/113/33
f 47/119/36 48/120/36 39/115/34
f 40/116/34 39/115/34 48/120/36
f 51/121/37 52/122/37 44/118/35
f 43/117/35 44/118/35 52/122/37
f 55/123/38 56/124/38 47/119/36
f 48/120/36 47/119/36 56/124/38
f 59/125/39 60/126/39 51/121/37
f 52/122/37 51/121/37 60/126/39
f 63/127/40 64/128/40 55/123/38
f 56/124/38 55/123/38 64/128/40
f 67/129/41 68/130/41 59/125/39
f 60/126/39 59/125/39 68/130/41
f 71/131/42 64/128/40 72/132/42
f 63/127/40 72/132/42 64/128/40
f 75/133/43 76/134/43 67/129/41
f 68/130/41 67/129/41 76/134/43
f 79/135/44 71/131/42 80/136/44
f 72/132/42 80/136/44 71/131/42
f 83/137/45 84/138/45 75/133/43
f 76/134/43 75/133/43 84/138/45
f 87/139/46 79/135/44 88/140/46
f 80/136/44 88/140/46 79/135/44
f 91/141/47 92/142/47 83/137/45
f 84/138/45 83/137/45 92/142/47
f 95/143/48 87/139/46 96/144/48
f 88/140/46 96/144/48 87/139/46
f 91/141/47 95/143/48 92/142/47
f 96/144/48 92/142/47 95/143/48
usemtl material_1_0
f 1/1/1 2/2/2 3/3/1
f 2/2/2 1/1/1 4/4/2
f 4/5/2 9/6/3 2/7/2
f 9/6/3 4/5/2 10/8/3
f 13/9/4 1/10/1 3/11/1
f 1/10/1 13/9/4 14/12/4
f 10/13/3 17/14/5 9/15/3
f 17/14/5 10/13/3 18/16/5
f 21/17/6 14/18/4 13/19/4
f 14/18/4 21/17/6 22/20/6
f 18/21/5 25/22/7 17/23/5
f 25/22/7 18/21/5 26/24/7
f 29/25/8 22/26/6 21/27/6
f 22/26/6 29/25/8 30/28/8
f 26/29/7 33/30/9 25/31/7
f 33/30/9 26/29/7 34/32/9
f 37/33/10 30/34/8 29/35/8
f 30/34/8 37/33/10 38/36/10
f 34/37/9 41/38/11 33/39/9
f 41/38/11 34/37/9 42/40/11
f 45/41/12 38/42/10 37/43/10
f 38/42/10 45/41/12 46/44/12
f 49/45/13 41/46/11 42/47/11
f 41/46/11 49/45/13 50/48/13
f 53/49/14 46/50/12 45/51/12
f 46/50/12 53/49/14 54/52/14
f 57/53/15 50/54/13 49/55/13
f 50/54/13 57/53/15 58/56/15
f 61/57/16 54/58/14 53/59/14
f 54/58/14 61/57/16 62/60/16
f 65/61/17 58/62/15 57/63/15
f 58/62/15 65/61/17 66/64/17
f 61/65/16 69/66/18 62/67/16
f 69/66/18 61/65/16 70/68/18
f 73/69/19 66/70/17 65/71/17
f 66/70/17 73/69/19 74/72/19
f 70/73/18 77/74/20 69/75/18
f 77/74/20 70/73/18 78/76/20
f 81/77/21 74/78/19 73/79/19
f 74/78/19 81/77/21 82/80/21
f 78/81/20 85/82/22 77/83/20
f 85/82/22 78/81/20 86/84/22
f 89/85/23 82/86/21 81/87/21
f 82/86/21 89/85/23 90/88/23
f 86/89/22 93/90/24 85/91/22
f 93/90/24 86/89/22 94/92/24
f 94/93/24 89/94/23 93/95/24
f 89/94/23 94/93/24 90/96/23
