# SSTK version 0.8.0
# 4
mtllib original-4.mtl
o #ID24
v -0.393092 -0.823094 0.300655
v -0.393092 0.835287 -0.312527
v -0.393092 -0.823094 -0.312527
v -0.393092 0.835287 0.300655
v -0.393092 0.835287 0.300655
v -0.393092 -0.823094 0.300655
v -0.393092 0.835287 -0.312527
v -0.393092 -0.823094 -0.312527
v -0.393092 0.835287 -0.312527
v 0.415194 0.835287 0.300655
v 0.415194 0.835287 -0.312527
v -0.393092 0.835287 0.300655
v -0.393092 0.835287 0.300655
v -0.393092 0.835287 -0.312527
v 0.415194 0.835287 0.300655
v 0.415194 0.835287 -0.312527
v 0.415194 0.835287 -0.312527
v -0.393092 -0.823094 -0.312527
v -0.393092 0.835287 -0.312527
v 0.415194 -0.823094 -0.312527
v 0.415194 -0.823094 -0.312527
v 0.415194 0.835287 -0.312527
v -0.393092 -0.823094 -0.312527
v -0.393092 0.835287 -0.312527
v 0.415194 0.835287 -0.312527
v 0.415194 -0.823094 0.300655
v 0.415194 -0.823094 -0.312527
v 0.415194 0.835287 0.300655
v 0.415194 0.835287 0.300655
v 0.415194 0.835287 -0.312527
v 0.415194 -0.823094 0.300655
v 0.415194 -0.823094 -0.312527
vt 57.98528 0.004610898
vt 56.91244 0.9948594
vt 56.91244 0.004610898
vt 57.98528 0.9948594
vt 1.085485 1.477215
vt 0.01264407 0.9945731
vt 1.085485 0.9945731
vt 0.01264407 1.477215
vt 1.064582 0.7531819
vt 1.983448 0.1097745
vt 1.983449 0.7531819
vt 1.064581 0.1097745
vt 0.01264407 0.004324556
vt 1.085485 0.004324556
vt 0.2743118 0.9826664
vt 0.2743118 0.07199219
vt 0.9654066 0.9826664
vt 0.9654065 0.9826664
vt 0.9654066 0.07199219
vt 0.9654065 0.07199219
vn -1 0 4.235804918844036e-8
vn 0 1 0
vn -4.1614810181657966e-8 -2.650913557680065e-9 -1
vn 1 0 -4.235804918844036e-8
vn 0 -1 0
vn 4.1614810181657966e-8 2.650913557680065e-9 1
usemtl material_0_0
f 5/15/4 6/16/4 7/15/4
f 8/16/4 7/15/4 6/16/4
f 13/15/5 14/15/5 15/17/5
f 16/18/5 15/17/5 14/15/5
f 21/19/6 22/17/6 23/16/6
f 24/15/6 23/16/6 22/17/6
f 29/17/1 30/18/1 31/19/1
f 32/20/1 31/19/1 30/18/1
usemtl material_1_0
f 1/1/1 2/2/1 3/3/1
f 2/2/1 1/1/1 4/4/1
f 9/5/2 10/6/2 11/7/2
f 10/6/2 9/5/2 12/8/2
f 17/9/3 18/10/3 19/11/3
f 18/10/3 17/9/3 20/12/3
f 25/7/4 26/13/4 27/14/4
f 26/13/4 25/7/4 28/6/4
