# SSTK version 0.8.0
# 25
mtllib original-25.mtl
o group_11/ID198#ID198
v -0.265167 0.047166 0.310719
v -0.262822 0.051227 0.310719
v -0.263994 0.049196 0.310411
v -0.261730 0.053119 0.311624
v -0.266259 0.045274 0.311624
v -0.267197 0.043649 0.313064
v -0.260792 0.054743 0.313064
v -0.260072 0.055990 0.314940
v -0.267917 0.042402 0.314940
v -0.268369 0.041619 0.317124
v -0.259620 0.056774 0.317124
v -0.268524 0.041351 0.319469
v -0.259465 0.057041 0.319469
v -0.268369 0.041619 0.321813
v -0.259620 0.056774 0.321813
v -0.267917 0.042402 0.323998
v -0.260072 0.055990 0.323998
v -0.267197 0.043649 0.325874
v -0.260792 0.054743 0.325874
v -0.261730 0.053119 0.327314
v -0.266259 0.045274 0.327314
v -0.262822 0.051227 0.328219
v -0.265167 0.047166 0.328219
v -0.263994 0.049196 0.328527
v -0.263994 0.049196 0.328527
v -0.265167 0.047166 0.328219
v -0.262822 0.051227 0.328219
v -0.266259 0.045274 0.327314
v -0.261730 0.053119 0.327314
v -0.267197 0.043649 0.325874
v -0.260792 0.054743 0.325874
v -0.260072 0.055990 0.323998
v -0.267917 0.042402 0.323998
v -0.259620 0.056774 0.321813
v -0.268369 0.041619 0.321813
v -0.259465 0.057041 0.319469
v -0.268524 0.041351 0.319469
v -0.259620 0.056774 0.317124
v -0.268369 0.041619 0.317124
v -0.260072 0.055990 0.314940
v -0.267917 0.042402 0.314940
v -0.267197 0.043649 0.313064
v -0.260792 0.054743 0.313064
v -0.261730 0.053119 0.311624
v -0.266259 0.045274 0.311624
v -0.265167 0.047166 0.310719
v -0.262822 0.051227 0.310719
v -0.263994 0.049196 0.310411
v -0.206365 0.006866 0.323998
v -0.267197 0.043649 0.325874
v -0.267917 0.042402 0.323998
v -0.205646 0.008112 0.325874
v -0.205646 0.008112 0.325874
v -0.206365 0.006866 0.323998
v -0.267197 0.043649 0.325874
v -0.267917 0.042402 0.323998
v -0.204708 0.009737 0.327314
v -0.266259 0.045274 0.327314
v -0.204708 0.009737 0.327314
v -0.266259 0.045274 0.327314
v -0.203615 0.011629 0.328219
v -0.265167 0.047166 0.328219
v -0.203615 0.011629 0.328219
v -0.265167 0.047166 0.328219
v -0.263994 0.049196 0.328527
v -0.202443 0.013659 0.328527
v -0.263994 0.049196 0.328527
v -0.202443 0.013659 0.328527
v -0.201271 0.015690 0.328219
v -0.262822 0.051227 0.328219
v -0.201271 0.015690 0.328219
v -0.262822 0.051227 0.328219
v -0.200178 0.017582 0.327314
v -0.261730 0.053119 0.327314
v -0.200178 0.017582 0.327314
v -0.261730 0.053119 0.327314
v -0.199240 0.019207 0.325874
v -0.260792 0.054743 0.325874
v -0.199240 0.019207 0.325874
v -0.260792 0.054743 0.325874
v -0.260072 0.055990 0.323998
v -0.198521 0.020453 0.323998
v -0.198521 0.020453 0.323998
v -0.260072 0.055990 0.323998
v -0.259620 0.056774 0.321813
v -0.198068 0.021237 0.321813
v -0.198068 0.021237 0.321813
v -0.259620 0.056774 0.321813
v -0.197914 0.021504 0.319469
v -0.259465 0.057041 0.319469
v -0.197914 0.021504 0.319469
v -0.259465 0.057041 0.319469
v -0.259620 0.056774 0.317124
v -0.198068 0.021237 0.317124
v -0.198068 0.021237 0.317124
v -0.259620 0.056774 0.317124
v -0.260072 0.055990 0.314940
v -0.198521 0.020453 0.314940
v -0.198521 0.020453 0.314940
v -0.260072 0.055990 0.314940
v -0.199240 0.019207 0.313064
v -0.260792 0.054743 0.313064
v -0.199240 0.019207 0.313064
v -0.260792 0.054743 0.313064
v -0.200178 0.017582 0.311624
v -0.261730 0.053119 0.311624
v -0.261730 0.053119 0.311624
v -0.200178 0.017582 0.311624
v -0.201271 0.015690 0.310719
v -0.262822 0.051227 0.310719
v -0.262822 0.051227 0.310719
v -0.201271 0.015690 0.310719
v -0.202443 0.013659 0.310411
v -0.263994 0.049196 0.310411
v -0.263994 0.049196 0.310411
v -0.202443 0.013659 0.310411
v -0.203615 0.011629 0.310719
v -0.265167 0.047166 0.310719
v -0.265167 0.047166 0.310719
v -0.203615 0.011629 0.310719
v -0.204708 0.009737 0.311624
v -0.266259 0.045274 0.311624
v -0.266259 0.045274 0.311624
v -0.204708 0.009737 0.311624
v -0.267197 0.043649 0.313064
v -0.205646 0.008112 0.313064
v -0.205646 0.008112 0.313064
v -0.267197 0.043649 0.313064
v -0.206365 0.006866 0.314940
v -0.267917 0.042402 0.314940
v -0.206365 0.006866 0.314940
v -0.267917 0.042402 0.314940
v -0.206818 0.006082 0.317124
v -0.268369 0.041619 0.317124
v -0.206818 0.006082 0.317124
v -0.268369 0.041619 0.317124
v -0.268524 0.041351 0.319469
v -0.206972 0.005815 0.319469
v -0.206972 0.005815 0.319469
v -0.268524 0.041351 0.319469
v -0.206818 0.006082 0.321813
v -0.268369 0.041619 0.321813
v -0.206818 0.006082 0.321813
v -0.268369 0.041619 0.321813
v -0.201271 0.015690 0.310719
v -0.203615 0.011629 0.310719
v -0.202443 0.013659 0.310411
v -0.200178 0.017582 0.311624
v -0.204708 0.009737 0.311624
v -0.199240 0.019207 0.313064
v -0.205646 0.008112 0.313064
v -0.198521 0.020453 0.314940
v -0.206365 0.006866 0.314940
v -0.198068 0.021237 0.317124
v -0.206818 0.006082 0.317124
v -0.206972 0.005815 0.319469
v -0.197914 0.021504 0.319469
v -0.198068 0.021237 0.321813
v -0.206818 0.006082 0.321813
v -0.206365 0.006866 0.323998
v -0.198521 0.020453 0.323998
v -0.199240 0.019207 0.325874
v -0.205646 0.008112 0.325874
v -0.200178 0.017582 0.327314
v -0.204708 0.009737 0.327314
v -0.201271 0.015690 0.328219
v -0.203615 0.011629 0.328219
v -0.202443 0.013659 0.328527
v -0.202443 0.013659 0.328527
v -0.201271 0.015690 0.328219
v -0.203615 0.011629 0.328219
v -0.204708 0.009737 0.327314
v -0.200178 0.017582 0.327314
v -0.205646 0.008112 0.325874
v -0.199240 0.019207 0.325874
v -0.206365 0.006866 0.323998
v -0.198521 0.020453 0.323998
v -0.198068 0.021237 0.321813
v -0.206818 0.006082 0.321813
v -0.206972 0.005815 0.319469
v -0.197914 0.021504 0.319469
v -0.198068 0.021237 0.317124
v -0.206818 0.006082 0.317124
v -0.206365 0.006866 0.314940
v -0.198521 0.020453 0.314940
v -0.205646 0.008112 0.313064
v -0.199240 0.019207 0.313064
v -0.204708 0.009737 0.311624
v -0.200178 0.017582 0.311624
v -0.203615 0.011629 0.310719
v -0.201271 0.015690 0.310719
v -0.202443 0.013659 0.310411
vt 0.107874 0.5260672
vt 0.1112076 0.5286781
vt 0.1095408 0.5273727
vt 0.1127608 0.5298946
vt 0.1063207 0.5248507
vt 0.104987 0.5238061
vt 0.1140945 0.5309392
vt 0.115118 0.5317408
vt 0.1039635 0.5230045
vt 0.1033202 0.5225006
vt 0.1157613 0.5322447
vt 0.1031007 0.5223288
vt 0.1159808 0.5324166
vt 0.1914831 0.5001558
vt 0.1925065 0.5009574
vt 0.1938403 0.502002
vt 0.1953935 0.5032185
vt 0.1970603 0.5045239
vt 0.1987271 0.5058294
vt 0.2002803 0.5070459
vt 0.2016141 0.5080905
vt 0.2026375 0.5088921
vt 0.2032809 0.509396
vt 0.2035003 0.5095678
vt 0.1908397 0.4996519
vt 0.1906203 0.49948
vt -0.05152019 0.01164837
vt -0.05064244 0.01466319
vt -0.05064244 0.008633552
vt -0.04806899 0.01747256
vt -0.04806899 0.005824186
vt -0.04397523 0.01988502
vt -0.04397523 0.003411729
vt -0.03864014 0.001560586
vt -0.03864014 0.02173616
vt -0.0324273 0.0003969087
vt -0.0324273 0.02289984
vt -0.0257601 -1.458009e-34
vt -0.0257601 0.02329674
vt -0.01909289 0.0003969087
vt -0.01909289 0.02289984
vt -0.01288005 0.001560586
vt -0.01288005 0.02173616
vt -0.007544957 0.01988502
vt -0.007544957 0.003411729
vt -0.003451198 0.005824186
vt -0.003451198 0.01747256
vt -0.000877754 0.01466319
vt -0.000877754 0.008633552
vt 0 0.01164837
vt -0.008117473 0.09139492
vt -0.001392738 0.09139492
vt -0.008117473 -3.095421e-18
vt -0.001392738 -3.095421e-18
vt 0.008117473 0.09139492
vt 0.008117473 -6.190842e-18
vt 0.001392738 0.09139492
vt 0.001392738 1.287516e-15
vt 0.01730363 0.09139492
vt 0.01730363 1.291478e-15
vt 0.0105789 0.09139492
vt 0.0105789 -6.490822e-16
vt 0.02553971 -6.523196e-16
vt 0.01881498 1.28824e-15
vt 0.02553971 0.09139492
vt 0.01881498 0.09139492
vt 0.03226445 0.09139492
vt 0.03226445 1.288167e-15
vt 0.02553971 -5.539664e-18
vt 0.03701955 0.09139492
vt 0.03701955 -4.459626e-18
vt 0.03029482 0.09139492
vt 0.03029482 6.423937e-16
vt 0.03948098 0.09139492
vt 0.03948098 6.422906e-16
vt 0.03275624 0.09139492
vt 0.03275624 -4.562655e-18
vt 0.03275624 -2.086891e-18
vt 0.03948098 -2.086891e-18
vt 0.03029482 6.456888e-16
vt 0.03701955 -1.16455e-18
vt 0.03226445 6.466845e-16
vt 0.02553971 -1.688003e-19
vt 0.01881498 6.470221e-16
vt 0.02553971 1.688003e-19
vt 0.0105789 1.29391e-15
vt 0.01730363 6.470571e-16
vt 0.008117473 1.293176e-15
vt 0.001392738 6.463222e-16
vt -0.008117473 6.457911e-16
vt -0.001392738 6.457911e-16
vt -0.01730363 -3.056399e-19
vt -0.01730363 0.09139492
vt -0.0105789 6.465477e-16
vt -0.0105789 0.09139492
vt -0.02553971 -3.376005e-19
vt -0.02553971 0.09139492
vt -0.01881498 -3.376005e-19
vt -0.01881498 0.09139492
vt -0.03226445 -1.293316e-15
vt -0.03226445 0.09139492
vt -0.02553971 3.903506e-19
vt -0.03701955 -6.455432e-16
vt -0.03701955 0.09139492
vt -0.03029482 -1.292396e-15
vt -0.03029482 0.09139492
vt -0.03948098 0.09139492
vt -0.03275624 0.09139492
vt -0.03948098 1.296837e-15
vt -0.03275624 -6.43723e-16
vt -0.03275624 1.296748e-15
vt -0.03948098 6.498951e-16
vt -0.03029482 6.508174e-16
vt -0.03701955 3.964112e-18
vt -0.03226445 6.492488e-16
vt -0.02553971 2.39553e-18
vt -0.01881498 6.495864e-16
vt -0.02553971 2.733131e-18
vt -0.01730363 1.485925e-18
vt -0.0105789 1.485925e-18
vt 0.05152019 0.01164837
vt 0.05064244 0.008633552
vt 0.05064244 0.01466319
vt 0.04806899 0.01747256
vt 0.04806899 0.005824186
vt 0.04397523 0.01988502
vt 0.04397523 0.003411729
vt 0.03864014 0.02173616
vt 0.03864014 0.001560586
vt 0.0324273 0.0003969087
vt 0.0324273 0.02289984
vt 0.0257601 0.02329674
vt 0.0257601 6.519267e-16
vt 0.01909289 0.0003969087
vt 0.01909289 0.02289984
vt 0.01288005 0.02173616
vt 0.01288005 0.001560586
vt 0.007544957 0.01988502
vt 0.007544957 0.003411729
vt 0.003451198 0.01747256
vt 0.003451198 0.005824186
vt 0.000877754 0.01466319
vt 0.000877754 0.008633552
vt 4.55742e-17 0.01164837
vn -0.8660254028383274 0.5000000016387113 3.6732058544878414e-8
vn -0.43301269844551815 -0.7500000274847889 0.4999999617577449
vn -0.35355339153816073 -0.6123724866033797 0.7071067366268388
vn -0.249999994030135 -0.43301275328171 0.8660253798130431
vn -0.1294094743478637 -0.22414385453271962 0.96592583588194
vn 6.362180706877329e-8 3.673204825636875e-8 1
vn 6.362181656801874e-8 3.673206470954441e-8 1
vn 0.12940959725576298 0.22414392549359952 0.9659258029488708
vn 0.2500001042263316 0.43301281690348203 0.8660253161912387
vn 0.3535534815129673 0.612372538550326 0.7071066466520375
vn 0.4330127620673061 0.7500000642168179 0.4999998515615894
vn 0.48296294414535446 0.836516334763402 0.25881888697785366
vn 0.5000000016387087 0.8660254028383273 -6.362175499354631e-8
vn 0.5000000016387087 0.8660254028383273 -6.362176342345518e-8
vn 0.4829629112123012 0.8365163157495109 -0.258819009885679
vn 0.43301269844551815 0.7500000274847889 -0.4999999617577449
vn 0.35355339153816073 0.6123724866033797 -0.7071067366268388
vn 0.249999994030135 0.43301275328171 -0.8660253798130431
vn 0.1294094743478637 0.22414385453271962 -0.96592583588194
vn -6.362180677470822e-8 -3.6732047747033104e-8 -1
vn -6.362182132209696e-8 -3.673207294384939e-8 -1
vn -0.12940959725576298 -0.22414392549359952 -0.9659258029488708
vn -0.2500001042263316 -0.43301281690348203 -0.8660253161912387
vn -0.3535534815129673 -0.612372538550326 -0.7071066466520375
vn -0.4330127620673061 -0.7500000642168179 -0.4999998515615894
vn -0.48296294414535446 -0.836516334763402 -0.25881888697785366
vn -0.5000000016387087 -0.8660254028383273 6.362176811960855e-8
vn -0.5000000016387087 -0.8660254028383273 6.362176812851966e-8
vn -0.4829629112123012 -0.8365163157495109 0.258819009885679
vn 0.8660254028383274 -0.5000000016387113 -3.6732058544878414e-8
vn -6.362180706877329e-8 -3.673204825636875e-8 -1
vn -6.362181656801874e-8 -3.673206470954441e-8 -1
vn -0.5000000016387087 -0.8660254028383273 6.362175499354631e-8
vn -0.5000000016387087 -0.8660254028383273 6.362176342345518e-8
vn 6.362182132209696e-8 3.673207294384939e-8 1
vn 6.362180677470822e-8 3.6732047747033104e-8 1
vn 0.5000000016387087 0.8660254028383273 -6.362176812851966e-8
vn 0.5000000016387087 0.8660254028383273 -6.362176811960855e-8
usemtl material_0_0
f 1/1/1 2/2/1 3/3/1
f 2/2/1 1/1/1 4/4/1
f 4/4/1 1/1/1 5/5/1
f 4/4/1 5/5/1 6/6/1
f 4/4/1 6/6/1 7/7/1
f 7/7/1 6/6/1 8/8/1
f 8/8/1 6/6/1 9/9/1
f 8/8/1 9/9/1 10/10/1
f 8/8/1 10/10/1 11/11/1
f 11/11/1 10/10/1 12/12/1
f 11/11/1 12/12/1 13/13/1
f 13/13/1 12/12/1 14/10/1
f 13/13/1 14/10/1 15/11/1
f 15/11/1 14/10/1 16/9/1
f 15/11/1 16/9/1 17/8/1
f 17/8/1 16/9/1 18/6/1
f 17/8/1 18/6/1 19/7/1
f 19/7/1 18/6/1 20/4/1
f 20/4/1 18/6/1 21/5/1
f 20/4/1 21/5/1 22/2/1
f 22/2/1 21/5/1 23/1/1
f 22/2/1 23/1/1 24/3/1
f 49/14/2 50/6/3 51/9/2
f 50/6/3 49/14/2 52/15/3
f 50/6/3 57/16/4 58/5/4
f 57/16/4 50/6/3 52/15/3
f 58/5/4 61/17/5 62/1/5
f 61/17/5 58/5/4 57/16/4
f 65/3/6 61/17/5 66/18/7
f 61/17/5 65/3/6 62/1/5
f 65/3/6 69/19/8 70/2/8
f 69/19/8 65/3/6 66/18/7
f 70/2/8 73/20/9 74/4/9
f 73/20/9 70/2/8 69/19/8
f 74/4/9 77/21/10 78/7/10
f 77/21/10 74/4/9 73/20/9
f 77/21/10 81/8/11 78/7/10
f 81/8/11 77/21/10 82/22/11
f 82/22/11 85/11/12 81/8/11
f 85/11/12 82/22/11 86/23/12
f 85/11/12 89/24/13 90/13/14
f 89/24/13 85/11/12 86/23/12
f 89/24/13 93/11/15 90/13/14
f 93/11/15 89/24/13 94/23/15
f 94/23/15 97/8/16 93/11/15
f 97/8/16 94/23/15 98/22/16
f 97/8/16 101/21/17 102/7/17
f 101/21/17 97/8/16 98/22/16
f 105/20/18 102/7/17 101/21/17
f 102/7/17 105/20/18 106/4/18
f 109/19/19 106/4/18 105/20/18
f 106/4/18 109/19/19 110/2/19
f 113/18/20 110/2/19 109/19/19
f 110/2/19 113/18/20 114/3/21
f 117/17/22 114/3/21 113/18/20
f 114/3/21 117/17/22 118/1/22
f 121/16/23 118/1/22 117/17/22
f 118/1/22 121/16/23 122/5/23
f 121/16/23 125/6/24 122/5/23
f 125/6/24 121/16/23 126/15/24
f 125/6/24 129/14/25 130/9/25
f 129/14/25 125/6/24 126/15/24
f 130/9/25 133/25/26 134/10/26
f 133/25/26 130/9/25 129/14/25
f 133/25/26 137/12/27 134/10/26
f 137/12/27 133/25/26 138/26/28
f 137/12/27 141/25/29 142/10/29
f 141/25/29 137/12/27 138/26/28
f 141/25/29 51/9/2 142/10/29
f 51/9/2 141/25/29 49/14/2
f 145/19/30 146/17/30 147/18/30
f 146/17/30 145/19/30 148/20/30
f 146/17/30 148/20/30 149/16/30
f 149/16/30 148/20/30 150/21/30
f 149/16/30 150/21/30 151/15/30
f 151/15/30 150/21/30 152/22/30
f 151/15/30 152/22/30 153/14/30
f 153/14/30 152/22/30 154/23/30
f 153/14/30 154/23/30 155/25/30
f 155/25/30 154/23/30 156/26/30
f 156/26/30 154/23/30 157/24/30
f 156/26/30 157/24/30 158/23/30
f 156/26/30 158/23/30 159/25/30
f 159/25/30 158/23/30 160/14/30
f 160/14/30 158/23/30 161/22/30
f 160/14/30 161/22/30 162/21/30
f 160/14/30 162/21/30 163/15/30
f 163/15/30 162/21/30 164/20/30
f 163/15/30 164/20/30 165/16/30
f 165/16/30 164/20/30 166/19/30
f 165/16/30 166/19/30 167/17/30
f 167/17/30 166/19/30 168/18/30
usemtl material_1_0
f 25/27/30 26/28/30 27/29/30
f 26/28/30 28/30/30 27/29/30
f 27/29/30 28/30/30 29/31/30
f 28/30/30 30/32/30 29/31/30
f 29/31/30 30/32/30 31/33/30
f 31/33/30 30/32/30 32/34/30
f 30/32/30 33/35/30 32/34/30
f 32/34/30 33/35/30 34/36/30
f 33/35/30 35/37/30 34/36/30
f 34/36/30 35/37/30 36/38/30
f 35/37/30 37/39/30 36/38/30
f 36/38/30 37/39/30 38/40/30
f 37/39/30 39/41/30 38/40/30
f 38/40/30 39/41/30 40/42/30
f 39/41/30 41/43/30 40/42/30
f 41/43/30 42/44/30 40/42/30
f 40/42/30 42/44/30 43/45/30
f 43/45/30 42/44/30 44/46/30
f 42/44/30 45/47/30 44/46/30
f 45/47/30 46/48/30 44/46/30
f 44/46/30 46/48/30 47/49/30
f 48/50/30 47/49/30 46/48/30
f 53/51/17 54/52/16 55/53/17
f 56/54/16 55/53/17 54/52/16
f 53/55/17 55/56/17 59/57/18
f 60/58/18 59/57/18 55/56/17
f 59/59/18 60/60/18 63/61/19
f 64/62/19 63/61/19 60/60/18
f 64/63/19 67/64/31 63/65/19
f 68/66/32 63/65/19 67/64/31
f 68/67/32 67/68/31 71/65/22
f 72/69/22 71/65/22 67/68/31
f 71/70/22 72/71/22 75/72/23
f 76/73/23 75/72/23 72/71/22
f 75/74/23 76/75/23 79/76/24
f 80/77/24 79/76/24 76/75/23
f 83/76/25 79/74/24 84/78/25
f 80/79/24 84/78/25 79/74/24
f 87/72/26 83/70/25 88/80/26
f 84/81/25 88/80/26 83/70/25
f 87/67/26 88/82/26 91/65/33
f 92/83/34 91/65/33 88/82/26
f 95/66/29 91/65/33 96/84/29
f 92/85/34 96/84/29 91/65/33
f 99/61/2 95/59/29 100/86/2
f 96/87/29 100/86/2 95/59/29
f 99/55/2 100/88/2 103/57/3
f 104/89/3 103/57/3 100/88/2
f 107/90/4 108/51/4 104/91/3
f 103/52/3 104/91/3 108/51/4
f 111/92/5 112/93/5 107/94/4
f 108/95/4 107/94/4 112/93/5
f 115/96/35 116/97/36 111/98/5
f 112/99/5 111/98/5 116/97/36
f 119/100/8 120/101/8 115/102/35
f 116/97/36 115/102/35 120/101/8
f 123/103/9 124/104/9 119/105/8
f 120/106/8 119/105/8 124/104/9
f 127/107/10 124/108/9 128/109/10
f 123/110/9 128/109/10 124/108/9
f 127/108/10 128/111/10 131/107/11
f 132/112/11 131/107/11 128/111/10
f 131/106/11 132/113/11 135/104/12
f 136/114/12 135/104/12 132/113/11
f 139/101/37 135/97/12 140/115/38
f 136/116/12 140/115/38 135/97/12
f 139/99/37 140/117/38 143/97/15
f 144/118/15 143/97/15 140/117/38
f 54/93/16 143/95/15 56/119/16
f 144/120/15 56/119/16 143/95/15
f 169/121/1 170/122/1 171/123/1
f 171/123/1 170/122/1 172/124/1
f 170/122/1 173/125/1 172/124/1
f 172/124/1 173/125/1 174/126/1
f 173/125/1 175/127/1 174/126/1
f 174/126/1 175/127/1 176/128/1
f 175/127/1 177/129/1 176/128/1
f 177/129/1 178/130/1 176/128/1
f 176/128/1 178/130/1 179/131/1
f 179/131/1 178/130/1 180/132/1
f 178/130/1 181/133/1 180/132/1
f 181/133/1 182/134/1 180/132/1
f 180/132/1 182/134/1 183/135/1
f 183/135/1 182/134/1 184/136/1
f 182/134/1 185/137/1 184/136/1
f 184/136/1 185/137/1 186/138/1
f 185/137/1 187/139/1 186/138/1
f 186/138/1 187/139/1 188/140/1
f 187/139/1 189/141/1 188/140/1
f 188/140/1 189/141/1 190/142/1
f 189/141/1 191/143/1 190/142/1
f 192/144/1 190/142/1 191/143/1
