# SSTK version 0.8.0
# 15
mtllib original-15.mtl
o group_5/ID116#ID116
v 0.415194 0.758100 0.300655
v 0.282835 0.672373 0.300655
v 0.282835 0.758100 0.300655
v 0.415194 0.672373 0.300655
v 0.415194 0.672373 0.300655
v 0.415194 0.758100 0.314591
v 0.415194 0.672373 0.314591
v 0.415194 0.758100 0.300655
v 0.415194 0.672373 0.314591
v 0.282835 0.672373 0.300655
v 0.415194 0.672373 0.300655
v 0.295377 0.672373 0.314591
v 0.295377 0.758100 0.314591
v 0.282835 0.672373 0.300655
v 0.295377 0.672373 0.314591
v 0.282835 0.758100 0.300655
v 0.295377 0.758100 0.314591
v 0.415194 0.758100 0.300655
v 0.282835 0.758100 0.300655
v 0.415194 0.758100 0.314591
v 0.415194 0.672373 0.314591
v 0.295377 0.758100 0.314591
v 0.295377 0.672373 0.314591
v 0.415194 0.758100 0.314591
vt 75.54519 0.9553977
vt 76.50128 0.03664186
vt 76.50128 0.9553977
vt 75.54519 0.03664186
vt 1.081593 0.03664768
vt 0.9809282 0.9554036
vt 0.9809282 0.03664768
vt 1.081593 0.9554036
vt 0.02484484 -0.1127083
vt 0.9809282 -0.1127083
vt 0.1154434 0.03664768
vt 76.63671 0.9553977
vt 76.63671 0.03664185
vt 0.1154434 0.9554036
vt 0.9809282 1.10476
vt 0.02484484 1.10476
vn -2.120728507977669e-8 3.274345829091287e-8 -1
vn 1 0 -2.120727447613539e-8
vn 0 -1 -3.274344195764468e-8
vn -0.743294224433394 0 0.668964644748853
vn 0 1 3.274344195764468e-8
vn 2.3427255634769327e-8 -3.274345829091287e-8 1
usemtl material_0_0
f 1/1/1 2/2/1 3/3/1
f 2/2/1 1/1/1 4/4/1
f 5/5/2 6/6/2 7/7/2
f 6/6/2 5/5/2 8/8/2
f 9/7/3 10/9/3 11/10/3
f 10/9/3 9/7/3 12/11/3
f 13/12/4 14/2/4 15/13/4
f 14/2/4 13/12/4 16/3/4
f 17/14/5 18/15/5 19/16/5
f 18/15/5 17/14/5 20/6/5
f 21/7/6 22/14/6 23/11/6
f 22/14/6 21/7/6 24/6/6
