# SSTK version 0.8.0
# 23
mtllib original-23.mtl
o group_9/ID175#ID175
v -0.074478 0.051227 0.310719
v -0.072134 0.047166 0.310719
v -0.073306 0.049196 0.310411
v -0.071041 0.045274 0.311624
v -0.075570 0.053119 0.311624
v -0.076508 0.054743 0.313064
v -0.070103 0.043649 0.313064
v -0.077228 0.055990 0.314940
v -0.069383 0.042402 0.314940
v -0.077681 0.056774 0.317124
v -0.068931 0.041619 0.317124
v -0.077835 0.057041 0.319469
v -0.068777 0.041351 0.319469
v -0.068931 0.041619 0.321813
v -0.077681 0.056774 0.321813
v -0.077228 0.055990 0.323998
v -0.069383 0.042402 0.323998
v -0.076508 0.054743 0.325874
v -0.070103 0.043649 0.325874
v -0.075570 0.053119 0.327314
v -0.071041 0.045274 0.327314
v -0.074478 0.051227 0.328219
v -0.072134 0.047166 0.328219
v -0.073306 0.049196 0.328527
v -0.073306 0.049196 0.328527
v -0.074478 0.051227 0.328219
v -0.072134 0.047166 0.328219
v -0.071041 0.045274 0.327314
v -0.075570 0.053119 0.327314
v -0.070103 0.043649 0.325874
v -0.076508 0.054743 0.325874
v -0.069383 0.042402 0.323998
v -0.077228 0.055990 0.323998
v -0.068931 0.041619 0.321813
v -0.077681 0.056774 0.321813
v -0.077835 0.057041 0.319469
v -0.068777 0.041351 0.319469
v -0.068931 0.041619 0.317124
v -0.077681 0.056774 0.317124
v -0.069383 0.042402 0.314940
v -0.077228 0.055990 0.314940
v -0.070103 0.043649 0.313064
v -0.076508 0.054743 0.313064
v -0.071041 0.045274 0.311624
v -0.075570 0.053119 0.311624
v -0.074478 0.051227 0.310719
v -0.072134 0.047166 0.310719
v -0.073306 0.049196 0.310411
v -0.138780 0.020453 0.323998
v -0.076508 0.054743 0.325874
v -0.077228 0.055990 0.323998
v -0.138060 0.019207 0.325874
v -0.138060 0.019207 0.325874
v -0.138780 0.020453 0.323998
v -0.076508 0.054743 0.325874
v -0.077228 0.055990 0.323998
v -0.137122 0.017582 0.327314
v -0.075570 0.053119 0.327314
v -0.137122 0.017582 0.327314
v -0.075570 0.053119 0.327314
v -0.136029 0.015690 0.328219
v -0.074478 0.051227 0.328219
v -0.136029 0.015690 0.328219
v -0.074478 0.051227 0.328219
v -0.134857 0.013659 0.328527
v -0.073306 0.049196 0.328527
v -0.134857 0.013659 0.328527
v -0.073306 0.049196 0.328527
v -0.133685 0.011629 0.328219
v -0.072134 0.047166 0.328219
v -0.133685 0.011629 0.328219
v -0.072134 0.047166 0.328219
v -0.132593 0.009737 0.327314
v -0.071041 0.045274 0.327314
v -0.132593 0.009737 0.327314
v -0.071041 0.045274 0.327314
v -0.070103 0.043649 0.325874
v -0.131655 0.008112 0.325874
v -0.070103 0.043649 0.325874
v -0.131655 0.008112 0.325874
v -0.130935 0.006866 0.323998
v -0.069383 0.042402 0.323998
v -0.130935 0.006866 0.323998
v -0.069383 0.042402 0.323998
v -0.068931 0.041619 0.321813
v -0.130482 0.006082 0.321813
v -0.130482 0.006082 0.321813
v -0.068931 0.041619 0.321813
v -0.130328 0.005815 0.319469
v -0.068777 0.041351 0.319469
v -0.130328 0.005815 0.319469
v -0.068777 0.041351 0.319469
v -0.130482 0.006082 0.317124
v -0.068931 0.041619 0.317124
v -0.130482 0.006082 0.317124
v -0.068931 0.041619 0.317124
v -0.069383 0.042402 0.314940
v -0.130935 0.006866 0.314940
v -0.130935 0.006866 0.314940
v -0.069383 0.042402 0.314940
v -0.131655 0.008112 0.313064
v -0.070103 0.043649 0.313064
v -0.131655 0.008112 0.313064
v -0.070103 0.043649 0.313064
v -0.132593 0.009737 0.311624
v -0.071041 0.045274 0.311624
v -0.071041 0.045274 0.311624
v -0.132593 0.009737 0.311624
v -0.072134 0.047166 0.310719
v -0.133685 0.011629 0.310719
v -0.133685 0.011629 0.310719
v -0.072134 0.047166 0.310719
v -0.134857 0.013659 0.310411
v -0.073306 0.049196 0.310411
v -0.073306 0.049196 0.310411
v -0.134857 0.013659 0.310411
v -0.136029 0.015690 0.310719
v -0.074478 0.051227 0.310719
v -0.074478 0.051227 0.310719
v -0.136029 0.015690 0.310719
v -0.137122 0.017582 0.311624
v -0.075570 0.053119 0.311624
v -0.075570 0.053119 0.311624
v -0.137122 0.017582 0.311624
v -0.076508 0.054743 0.313064
v -0.138060 0.019207 0.313064
v -0.138060 0.019207 0.313064
v -0.076508 0.054743 0.313064
v -0.138780 0.020453 0.314940
v -0.077228 0.055990 0.314940
v -0.138780 0.020453 0.314940
v -0.077228 0.055990 0.314940
v -0.077681 0.056774 0.317124
v -0.139232 0.021237 0.317124
v -0.139232 0.021237 0.317124
v -0.077681 0.056774 0.317124
v -0.077835 0.057041 0.319469
v -0.139386 0.021504 0.319469
v -0.139386 0.021504 0.319469
v -0.077835 0.057041 0.319469
v -0.139232 0.021237 0.321813
v -0.077681 0.056774 0.321813
v -0.139232 0.021237 0.321813
v -0.077681 0.056774 0.321813
v -0.133685 0.011629 0.310719
v -0.136029 0.015690 0.310719
v -0.134857 0.013659 0.310411
v -0.132593 0.009737 0.311624
v -0.137122 0.017582 0.311624
v -0.131655 0.008112 0.313064
v -0.138060 0.019207 0.313064
v -0.130935 0.006866 0.314940
v -0.138780 0.020453 0.314940
v -0.130482 0.006082 0.317124
v -0.139232 0.021237 0.317124
v -0.139386 0.021504 0.319469
v -0.130328 0.005815 0.319469
v -0.130482 0.006082 0.321813
v -0.139232 0.021237 0.321813
v -0.138780 0.020453 0.323998
v -0.130935 0.006866 0.323998
v -0.131655 0.008112 0.325874
v -0.138060 0.019207 0.325874
v -0.132593 0.009737 0.327314
v -0.137122 0.017582 0.327314
v -0.133685 0.011629 0.328219
v -0.136029 0.015690 0.328219
v -0.134857 0.013659 0.328527
v -0.134857 0.013659 0.328527
v -0.133685 0.011629 0.328219
v -0.136029 0.015690 0.328219
v -0.137122 0.017582 0.327314
v -0.132593 0.009737 0.327314
v -0.138060 0.019207 0.325874
v -0.131655 0.008112 0.325874
v -0.138780 0.020453 0.323998
v -0.130935 0.006866 0.323998
v -0.130482 0.006082 0.321813
v -0.139232 0.021237 0.321813
v -0.139386 0.021504 0.319469
v -0.130328 0.005815 0.319469
v -0.130482 0.006082 0.317124
v -0.139232 0.021237 0.317124
v -0.138780 0.020453 0.314940
v -0.130935 0.006866 0.314940
v -0.138060 0.019207 0.313064
v -0.131655 0.008112 0.313064
v -0.137122 0.017582 0.311624
v -0.132593 0.009737 0.311624
v -0.136029 0.015690 0.310719
v -0.133685 0.011629 0.310719
v -0.134857 0.013659 0.310411
vt 0.3790129 0.5286781
vt 0.3823465 0.5260672
vt 0.3806797 0.5273727
vt 0.3838997 0.5248507
vt 0.3774597 0.5298946
vt 0.3761259 0.5309392
vt 0.3852335 0.5238061
vt 0.3751024 0.5317408
vt 0.3862569 0.5230045
vt 0.3744591 0.5322447
vt 0.3869003 0.5225006
vt 0.3742396 0.5324166
vt 0.3871197 0.5223288
vt 0.2875829 0.5088921
vt 0.2886064 0.5080905
vt 0.2899401 0.5070459
vt 0.2914933 0.5058294
vt 0.2931601 0.5045239
vt 0.2948269 0.5032185
vt 0.2963802 0.502002
vt 0.2977139 0.5009574
vt 0.2987374 0.5001558
vt 0.2993807 0.4996519
vt 0.2996002 0.49948
vt 0.2869396 0.509396
vt 0.2867201 0.5095678
vt -0.05152019 0.01164837
vt -0.05064244 0.01466319
vt -0.05064244 0.008633552
vt -0.04806899 0.005824186
vt -0.04806899 0.01747256
vt -0.04397523 0.003411729
vt -0.04397523 0.01988502
vt -0.03864014 0.001560586
vt -0.03864014 0.02173616
vt -0.0324273 0.0003969087
vt -0.0324273 0.02289984
vt -0.0257601 0.02329674
vt -0.0257601 -6.468533e-16
vt -0.01909289 0.0003969087
vt -0.01909289 0.02289984
vt -0.01288005 0.001560586
vt -0.01288005 0.02173616
vt -0.007544957 0.003411729
vt -0.007544957 0.01988502
vt -0.003451198 0.005824186
vt -0.003451198 0.01747256
vt -0.000877754 0.01466319
vt -0.000877754 0.008633552
vt 1.1444e-14 0.01164837
vt -0.008117473 0.09139492
vt -0.001392738 0.09139492
vt -0.008117473 2.585866e-15
vt -0.001392738 -1.54771e-18
vt 0.008117473 0.09139492
vt 0.008117473 2.581222e-15
vt 0.001392738 0.09139492
vt 0.001392738 -6.190842e-18
vt 0.01730363 0.09139492
vt 0.01730363 -5.200739e-18
vt 0.0105789 0.09139492
vt 0.0105789 -5.200739e-18
vt 0.02553971 0.09139492
vt 0.02553971 -5.124621e-18
vt 0.01881498 0.09139492
vt 0.01881498 -5.124621e-18
vt 0.03226445 0.09139492
vt 0.03226445 -4.64134e-18
vt 0.02553971 1.289065e-15
vt 0.03701955 0.09139492
vt 0.03701955 1.291229e-15
vt 0.03029482 0.09139492
vt 0.03029482 -2.47757e-18
vt 0.03948098 -3.04177e-18
vt 0.03275624 1.290665e-15
vt 0.03948098 0.09139492
vt 0.03275624 0.09139492
vt 0.03948098 1.291098e-15
vt 0.03275624 -2.608614e-18
vt 0.03029482 2.587122e-15
vt 0.03701955 -2.911374e-19
vt 0.03226445 2.587244e-15
vt 0.02553971 1.293538e-15
vt 0.02553971 1.293622e-15
vt 0.01881498 -8.440014e-20
vt 0.0105789 1.293707e-15
vt 0.01730363 0
vt 0.008117473 1.293441e-15
vt 0.001392738 -2.655451e-19
vt -0.008117473 -1.062181e-18
vt -0.001392738 -1.062181e-18
vt -0.01730363 0.09139492
vt -0.0105789 0.09139492
vt -0.01730363 1.292993e-15
vt -0.0105789 -7.131598e-19
vt -0.02553971 -3.165005e-19
vt -0.02553971 0.09139492
vt -0.01881498 1.29339e-15
vt -0.01881498 0.09139492
vt -0.03226445 3.270505e-19
vt -0.03226445 0.09139492
vt -0.02553971 3.270505e-19
vt -0.03701955 2.588141e-15
vt -0.03701955 0.09139492
vt -0.03029482 7.278435e-19
vt -0.03029482 0.09139492
vt -0.03948098 0.09139492
vt -0.03275624 0.09139492
vt -0.03948098 1.295793e-15
vt -0.03275624 2.5895e-15
vt -0.03275624 1.297509e-15
vt -0.03948098 3.802212e-18
vt -0.03701955 9.91028e-19
vt -0.03029482 9.91028e-19
vt -0.03226445 1.296102e-15
vt -0.02553971 2.39553e-18
vt -0.01881498 1.29234e-15
vt -0.02553971 -1.366565e-18
vt -0.01730363 0
vt -0.0105789 0
vt 0.05152019 0.01164837
vt 0.05064244 0.008633552
vt 0.05064244 0.01466319
vt 0.04806899 0.01747256
vt 0.04806899 0.005824186
vt 0.04397523 0.01988502
vt 0.04397523 0.003411729
vt 0.03864014 0.02173616
vt 0.03864014 0.001560586
vt 0.0324273 0.0003969087
vt 0.0324273 0.02289984
vt 0.0257601 0.02329674
vt 0.0257601 -1.293707e-15
vt 0.01909289 0.0003969087
vt 0.01909289 0.02289984
vt 0.01288005 0.02173616
vt 0.01288005 0.001560586
vt 0.007544957 0.01988502
vt 0.007544957 0.003411729
vt 0.003451198 0.01747256
vt 0.003451198 0.005824186
vt 0.000877754 0.01466319
vt 0.000877754 0.008633552
vt 4.55742e-17 0.01164837
vn 0.8660254028383279 0.5000000016387106 -3.6732037950409324e-8
vn -0.43301269844552337 0.7500000274847791 0.49999996175775513
vn -0.35355339153816867 0.6123724866033655 0.7071067366268471
vn -0.249999994030145 0.43301275328169253 0.866025379813049
vn -0.129409474347875 0.22414385453270003 0.965925835881943
vn 6.362180819148101e-8 -3.673209132090246e-8 1
vn 6.362179154107174e-8 -3.673206248154776e-8 1
vn 0.12940959725575127 -0.22414392549361936 0.9659258029488678
vn 0.2500001042263208 -0.4330128169035001 0.8660253161912328
vn 0.35355348151295823 -0.6123725385503408 0.7071066466520293
vn 0.43301276206729944 -0.7500000642168285 0.49999985156157917
vn 0.4829629441453507 -0.8365163347634078 0.2588188869778423
vn 0.500000001638708 -0.8660254028383279 -6.362176213751178e-8
vn 0.500000001638708 -0.8660254028383279 -6.362181562197823e-8
vn 0.4829629112123035 -0.8365163157495061 -0.2588190098856904
vn 0.43301269844552337 -0.7500000274847791 -0.49999996175775513
vn 0.35355339153816867 -0.6123724866033655 -0.7071067366268471
vn 0.249999994030145 -0.43301275328169253 -0.866025379813049
vn 0.129409474347875 -0.22414385453270003 -0.965925835881943
vn -6.362179094848159e-8 3.673206145515151e-8 -1
vn -6.362180877961616e-8 3.673209233958242e-8 -1
vn -0.12940959725575127 0.22414392549361936 -0.9659258029488678
vn -0.2500001042263208 0.4330128169035001 -0.8660253161912328
vn -0.35355348151295823 0.6123725385503408 -0.7071066466520293
vn -0.43301276206729944 0.7500000642168285 -0.49999985156157917
vn -0.4829629441453507 0.8365163347634078 -0.2588188869778423
vn -0.500000001638708 0.8660254028383279 6.362178466479308e-8
vn -0.500000001638708 0.8660254028383279 6.362177525466345e-8
vn -0.4829629112123035 0.8365163157495061 0.2588190098856904
vn -0.8660254028383279 -0.5000000016387106 3.6732037950409324e-8
vn -6.362180819148101e-8 3.673209132090246e-8 -1
vn -6.362179154107174e-8 3.673206248154776e-8 -1
vn -0.500000001638708 0.8660254028383279 6.362176213751178e-8
vn -0.500000001638708 0.8660254028383279 6.362181562197823e-8
vn 6.362180877961616e-8 -3.673209233958242e-8 1
vn 6.362179094848159e-8 -3.673206145515151e-8 1
vn 0.500000001638708 -0.8660254028383279 -6.362177525466345e-8
vn 0.500000001638708 -0.8660254028383279 -6.362178466479308e-8
usemtl material_0_0
f 1/1/1 2/2/1 3/3/1
f 2/2/1 1/1/1 4/4/1
f 4/4/1 1/1/1 5/5/1
f 4/4/1 5/5/1 6/6/1
f 4/4/1 6/6/1 7/7/1
f 7/7/1 6/6/1 8/8/1
f 7/7/1 8/8/1 9/9/1
f 9/9/1 8/8/1 10/10/1
f 9/9/1 10/10/1 11/11/1
f 11/11/1 10/10/1 12/12/1
f 11/11/1 12/12/1 13/13/1
f 13/13/1 12/12/1 14/11/1
f 14/11/1 12/12/1 15/10/1
f 14/11/1 15/10/1 16/8/1
f 14/11/1 16/8/1 17/9/1
f 17/9/1 16/8/1 18/6/1
f 17/9/1 18/6/1 19/7/1
f 19/7/1 18/6/1 20/5/1
f 19/7/1 20/5/1 21/4/1
f 21/4/1 20/5/1 22/1/1
f 21/4/1 22/1/1 23/2/1
f 23/2/1 22/1/1 24/3/1
f 49/14/2 50/6/3 51/8/2
f 50/6/3 49/14/2 52/15/3
f 50/6/3 57/16/4 58/5/4
f 57/16/4 50/6/3 52/15/3
f 58/5/4 61/17/5 62/1/5
f 61/17/5 58/5/4 57/16/4
f 62/1/5 65/18/6 66/3/7
f 65/18/6 62/1/5 61/17/5
f 66/3/7 69/19/8 70/2/8
f 69/19/8 66/3/7 65/18/6
f 70/2/8 73/20/9 74/4/9
f 73/20/9 70/2/8 69/19/8
f 77/7/10 73/20/9 78/21/10
f 73/20/9 77/7/10 74/4/9
f 77/7/10 81/22/11 82/9/11
f 81/22/11 77/7/10 78/21/10
f 81/22/11 85/11/12 82/9/11
f 85/11/12 81/22/11 86/23/12
f 85/11/12 89/24/13 90/13/14
f 89/24/13 85/11/12 86/23/12
f 90/13/14 93/23/15 94/11/15
f 93/23/15 90/13/14 89/24/13
f 93/23/15 97/9/16 94/11/15
f 97/9/16 93/23/15 98/22/16
f 97/9/16 101/21/17 102/7/17
f 101/21/17 97/9/16 98/22/16
f 105/20/18 102/7/17 101/21/17
f 102/7/17 105/20/18 106/4/18
f 105/20/18 109/2/19 106/4/18
f 109/2/19 105/20/18 110/19/19
f 113/18/20 109/2/19 110/19/19
f 109/2/19 113/18/20 114/3/21
f 117/17/22 114/3/21 113/18/20
f 114/3/21 117/17/22 118/1/22
f 121/16/23 118/1/22 117/17/22
f 118/1/22 121/16/23 122/5/23
f 121/16/23 125/6/24 122/5/23
f 125/6/24 121/16/23 126/15/24
f 125/6/24 129/14/25 130/8/25
f 129/14/25 125/6/24 126/15/24
f 129/14/25 133/10/26 130/8/25
f 133/10/26 129/14/25 134/25/26
f 134/25/26 137/12/27 133/10/26
f 137/12/27 134/25/26 138/26/28
f 137/12/27 141/25/29 142/10/29
f 141/25/29 137/12/27 138/26/28
f 141/25/29 51/8/2 142/10/29
f 51/8/2 141/25/29 49/14/2
f 145/19/30 146/17/30 147/18/30
f 146/17/30 145/19/30 148/20/30
f 146/17/30 148/20/30 149/16/30
f 149/16/30 148/20/30 150/21/30
f 149/16/30 150/21/30 151/15/30
f 151/15/30 150/21/30 152/22/30
f 151/15/30 152/22/30 153/14/30
f 153/14/30 152/22/30 154/23/30
f 153/14/30 154/23/30 155/25/30
f 155/25/30 154/23/30 156/26/30
f 156/26/30 154/23/30 157/24/30
f 156/26/30 157/24/30 158/23/30
f 156/26/30 158/23/30 159/25/30
f 159/25/30 158/23/30 160/14/30
f 160/14/30 158/23/30 161/22/30
f 160/14/30 161/22/30 162/21/30
f 160/14/30 162/21/30 163/15/30
f 163/15/30 162/21/30 164/20/30
f 163/15/30 164/20/30 165/16/30
f 165/16/30 164/20/30 166/19/30
f 165/16/30 166/19/30 167/17/30
f 167/17/30 166/19/30 168/18/30
usemtl material_1_0
f 25/27/30 26/28/30 27/29/30
f 27/29/30 26/28/30 28/30/30
f 26/28/30 29/31/30 28/30/30
f 28/30/30 29/31/30 30/32/30
f 29/31/30 31/33/30 30/32/30
f 30/32/30 31/33/30 32/34/30
f 31/33/30 33/35/30 32/34/30
f 32/34/30 33/35/30 34/36/30
f 33/35/30 35/37/30 34/36/30
f 35/37/30 36/38/30 34/36/30
f 34/36/30 36/38/30 37/39/30
f 37/39/30 36/38/30 38/40/30
f 36/38/30 39/41/30 38/40/30
f 38/40/30 39/41/30 40/42/30
f 39/41/30 41/43/30 40/42/30
f 40/42/30 41/43/30 42/44/30
f 41/43/30 43/45/30 42/44/30
f 42/44/30 43/45/30 44/46/30
f 43/45/30 45/47/30 44/46/30
f 45/47/30 46/48/30 44/46/30
f 44/46/30 46/48/30 47/49/30
f 48/50/30 47/49/30 46/48/30
f 53/51/17 54/52/16 55/53/17
f 56/54/16 55/53/17 54/52/16
f 53/55/17 55/56/17 59/57/18
f 60/58/18 59/57/18 55/56/17
f 59/59/18 60/60/18 63/61/19
f 64/62/19 63/61/19 60/60/18
f 63/63/19 64/64/19 67/65/31
f 68/66/32 67/65/31 64/64/19
f 67/67/31 68/68/32 71/63/22
f 72/69/22 71/63/22 68/68/32
f 71/70/22 72/71/22 75/72/23
f 76/73/23 75/72/23 72/71/22
f 76/74/23 79/75/24 75/76/23
f 80/77/24 75/76/23 79/75/24
f 80/76/24 79/78/24 83/77/25
f 84/79/25 83/77/25 79/78/24
f 87/72/26 83/70/25 88/80/26
f 84/81/25 88/80/26 83/70/25
f 87/67/26 88/82/26 91/63/33
f 92/83/34 91/63/33 88/82/26
f 91/63/33 92/84/34 95/65/29
f 96/85/29 95/65/29 92/84/34
f 99/61/2 95/59/29 100/86/2
f 96/87/29 100/86/2 95/59/29
f 99/55/2 100/88/2 103/57/3
f 104/89/3 103/57/3 100/88/2
f 107/90/4 108/51/4 104/91/3
f 103/52/3 104/91/3 108/51/4
f 111/92/5 108/93/4 112/94/5
f 107/95/4 112/94/5 108/93/4
f 115/96/35 116/97/36 112/98/5
f 111/99/5 112/98/5 116/97/36
f 119/100/8 120/101/8 115/102/35
f 116/97/36 115/102/35 120/101/8
f 123/103/9 124/104/9 119/105/8
f 120/106/8 119/105/8 124/104/9
f 127/107/10 124/108/9 128/109/10
f 123/110/9 128/109/10 124/108/9
f 127/108/10 128/111/10 131/107/11
f 132/112/11 131/107/11 128/111/10
f 135/104/12 131/106/11 136/113/12
f 132/114/11 136/113/12 131/106/11
f 139/101/37 135/97/12 140/115/38
f 136/116/12 140/115/38 135/97/12
f 139/99/37 140/117/38 143/97/15
f 144/118/15 143/97/15 140/117/38
f 54/92/16 143/93/15 56/119/16
f 144/120/15 56/119/16 143/93/15
f 169/121/1 170/122/1 171/123/1
f 171/123/1 170/122/1 172/124/1
f 170/122/1 173/125/1 172/124/1
f 172/124/1 173/125/1 174/126/1
f 173/125/1 175/127/1 174/126/1
f 174/126/1 175/127/1 176/128/1
f 175/127/1 177/129/1 176/128/1
f 177/129/1 178/130/1 176/128/1
f 176/128/1 178/130/1 179/131/1
f 179/131/1 178/130/1 180/132/1
f 178/130/1 181/133/1 180/132/1
f 181/133/1 182/134/1 180/132/1
f 180/132/1 182/134/1 183/135/1
f 183/135/1 182/134/1 184/136/1
f 182/134/1 185/137/1 184/136/1
f 184/136/1 185/137/1 186/138/1
f 185/137/1 187/139/1 186/138/1
f 186/138/1 187/139/1 188/140/1
f 187/139/1 189/141/1 188/140/1
f 188/140/1 189/141/1 190/142/1
f 189/141/1 191/143/1 190/142/1
f 192/144/1 190/142/1 191/143/1
