# SSTK version 0.8.0
# 58
mtllib original-58.mtl
o #ID149
v 0.276323 0.606567 0.541919
v 0.274827 0.598066 0.541919
v 0.273668 0.605031 0.541919
v 0.275328 0.600169 0.541919
v 0.276834 0.601942 0.541919
v 0.279507 0.607502 0.541919
v 0.277986 0.602646 0.541919
v 0.279436 0.603148 0.541919
v 0.283228 0.603550 0.541919
v 0.283029 0.607813 0.541919
v 0.286853 0.607486 0.541919
v 0.286927 0.603108 0.541919
v 0.290196 0.606505 0.541919
v 0.288391 0.602555 0.541919
v 0.289598 0.601780 0.541919
v 0.290565 0.600789 0.541919
v 0.292942 0.604887 0.541919
v 0.291309 0.599586 0.541919
v 0.292128 0.596545 0.541919
v 0.296765 0.596894 0.541919
v 0.294970 0.602653 0.541919
v 0.296254 0.599942 0.541919
v 0.270557 0.600418 0.541919
v 0.270486 0.595345 0.541919
v 0.270165 0.597742 0.541919
v 0.271449 0.593192 0.541919
v 0.271735 0.602915 0.541919
v 0.273066 0.591325 0.541919
v 0.275350 0.589789 0.541919
v 0.275182 0.596271 0.541919
v 0.276248 0.594825 0.541919
v 0.278124 0.588682 0.541919
v 0.278769 0.593538 0.541919
v 0.282406 0.587508 0.541919
v 0.283540 0.592219 0.541919
v 0.288912 0.585725 0.541919
v 0.288510 0.590970 0.541919
v 0.291630 0.589888 0.541919
v 0.290882 0.584750 0.541919
v 0.292203 0.583569 0.541919
v 0.294403 0.588221 0.541919
v 0.292951 0.582176 0.541919
v 0.293200 0.580565 0.541919
v 0.294157 0.573173 0.541919
v 0.296192 0.575466 0.541919
v 0.296342 0.586161 0.541919
v 0.297445 0.578131 0.541919
v 0.297482 0.583734 0.541919
v 0.297862 0.580963 0.541919
v 0.273331 0.582783 0.541919
v 0.269320 0.578910 0.541919
v 0.268769 0.582384 0.541919
v 0.270776 0.575815 0.541919
v 0.273044 0.573276 0.541919
v 0.273870 0.580287 0.541919
v 0.276036 0.571465 0.541919
v 0.274839 0.578283 0.541919
v 0.276351 0.576694 0.541919
v 0.279791 0.570380 0.541919
v 0.278516 0.575441 0.541919
v 0.281165 0.574628 0.541919
v 0.284350 0.570019 0.541919
v 0.284126 0.574357 0.541919
v 0.286731 0.574563 0.541919
v 0.288068 0.570377 0.541919
v 0.289012 0.575180 0.541919
v 0.291393 0.571452 0.541919
v 0.290860 0.576155 0.541919
v 0.292166 0.577436 0.541919
v 0.292942 0.578935 0.541919
v 0.293200 0.580565 0.541919
v 0.292942 0.578935 0.541919
v 0.294157 0.573173 0.541919
v 0.292166 0.577436 0.541919
v 0.291393 0.571452 0.541919
v 0.290860 0.576155 0.541919
v 0.289012 0.575180 0.541919
v 0.288068 0.570377 0.541919
v 0.286731 0.574563 0.541919
v 0.284350 0.570019 0.541919
v 0.284126 0.574357 0.541919
v 0.281165 0.574628 0.541919
v 0.279791 0.570380 0.541919
v 0.278516 0.575441 0.541919
v 0.276351 0.576694 0.541919
v 0.276036 0.571465 0.541919
v 0.274839 0.578283 0.541919
v 0.273870 0.580287 0.541919
v 0.273044 0.573276 0.541919
v 0.273331 0.582783 0.541919
v 0.270776 0.575815 0.541919
v 0.269320 0.578910 0.541919
v 0.268769 0.582384 0.541919
v 0.297862 0.580963 0.541919
v 0.297482 0.583734 0.541919
v 0.297445 0.578131 0.541919
v 0.296342 0.586161 0.541919
v 0.296192 0.575466 0.541919
v 0.294403 0.588221 0.541919
v 0.292951 0.582176 0.541919
v 0.292203 0.583569 0.541919
v 0.291630 0.589888 0.541919
v 0.290882 0.584750 0.541919
v 0.288912 0.585725 0.541919
v 0.288510 0.590970 0.541919
v 0.283540 0.592219 0.541919
v 0.282406 0.587508 0.541919
v 0.278769 0.593538 0.541919
v 0.278124 0.588682 0.541919
v 0.276248 0.594825 0.541919
v 0.275350 0.589789 0.541919
v 0.275182 0.596271 0.541919
v 0.274827 0.598066 0.541919
v 0.273668 0.605031 0.541919
v 0.273066 0.591325 0.541919
v 0.271735 0.602915 0.541919
v 0.271449 0.593192 0.541919
v 0.270557 0.600418 0.541919
v 0.270486 0.595345 0.541919
v 0.270165 0.597742 0.541919
v 0.296254 0.599942 0.541919
v 0.294970 0.602653 0.541919
v 0.296765 0.596894 0.541919
v 0.292942 0.604887 0.541919
v 0.292128 0.596545 0.541919
v 0.291309 0.599586 0.541919
v 0.290565 0.600789 0.541919
v 0.290196 0.606505 0.541919
v 0.289598 0.601780 0.541919
v 0.288391 0.602555 0.541919
v 0.286927 0.603108 0.541919
v 0.286853 0.607486 0.541919
v 0.283228 0.603550 0.541919
v 0.283029 0.607813 0.541919
v 0.279507 0.607502 0.541919
v 0.279436 0.603148 0.541919
v 0.277986 0.602646 0.541919
v 0.276834 0.601942 0.541919
v 0.276323 0.606567 0.541919
v 0.275328 0.600169 0.541919
vn 0 0 -1
vn 0 0 1
usemtl material_0_0
f 1//1 2//1 3//1
f 2//1 1//1 4//1
f 4//1 1//1 5//1
f 5//1 1//1 6//1
f 5//1 6//1 7//1
f 7//1 6//1 8//1
f 8//1 6//1 9//1
f 9//1 6//1 10//1
f 9//1 10//1 11//1
f 9//1 11//1 12//1
f 12//1 11//1 13//1
f 12//1 13//1 14//1
f 14//1 13//1 15//1
f 15//1 13//1 16//1
f 16//1 13//1 17//1
f 16//1 17//1 18//1
f 18//1 17//1 19//1
f 19//1 17//1 20//1
f 20//1 17//1 21//1
f 20//1 21//1 22//1
f 23//1 24//1 25//1
f 24//1 23//1 26//1
f 26//1 23//1 27//1
f 26//1 27//1 28//1
f 28//1 27//1 3//1
f 28//1 3//1 29//1
f 29//1 3//1 2//1
f 29//1 2//1 30//1
f 29//1 30//1 31//1
f 29//1 31//1 32//1
f 32//1 31//1 33//1
f 32//1 33//1 34//1
f 34//1 33//1 35//1
f 34//1 35//1 36//1
f 36//1 35//1 37//1
f 36//1 37//1 38//1
f 36//1 38//1 39//1
f 39//1 38//1 40//1
f 40//1 38//1 41//1
f 40//1 41//1 42//1
f 42//1 41//1 43//1
f 43//1 41//1 44//1
f 44//1 41//1 45//1
f 45//1 41//1 46//1
f 45//1 46//1 47//1
f 47//1 46//1 48//1
f 47//1 48//1 49//1
f 50//1 51//1 52//1
f 51//1 50//1 53//1
f 53//1 50//1 54//1
f 54//1 50//1 55//1
f 54//1 55//1 56//1
f 56//1 55//1 57//1
f 56//1 57//1 58//1
f 56//1 58//1 59//1
f 59//1 58//1 60//1
f 59//1 60//1 61//1
f 59//1 61//1 62//1
f 62//1 61//1 63//1
f 62//1 63//1 64//1
f 62//1 64//1 65//1
f 65//1 64//1 66//1
f 65//1 66//1 67//1
f 67//1 66//1 68//1
f 67//1 68//1 69//1
f 67//1 69//1 44//1
f 44//1 69//1 70//1
f 44//1 70//1 43//1
f 71//2 72//2 73//2
f 72//2 74//2 73//2
f 73//2 74//2 75//2
f 74//2 76//2 75//2
f 76//2 77//2 75//2
f 75//2 77//2 78//2
f 77//2 79//2 78//2
f 78//2 79//2 80//2
f 79//2 81//2 80//2
f 81//2 82//2 80//2
f 80//2 82//2 83//2
f 82//2 84//2 83//2
f 84//2 85//2 83//2
f 83//2 85//2 86//2
f 85//2 87//2 86//2
f 87//2 88//2 86//2
f 86//2 88//2 89//2
f 88//2 90//2 89//2
f 89//2 90//2 91//2
f 91//2 90//2 92//2
f 93//2 92//2 90//2
f 94//2 95//2 96//2
f 95//2 97//2 96//2
f 96//2 97//2 98//2
f 97//2 99//2 98//2
f 98//2 99//2 73//2
f 73//2 99//2 71//2
f 71//2 99//2 100//2
f 100//2 99//2 101//2
f 99//2 102//2 101//2
f 101//2 102//2 103//2
f 103//2 102//2 104//2
f 102//2 105//2 104//2
f 105//2 106//2 104//2
f 104//2 106//2 107//2
f 106//2 108//2 107//2
f 107//2 108//2 109//2
f 108//2 110//2 109//2
f 109//2 110//2 111//2
f 110//2 112//2 111//2
f 112//2 113//2 111//2
f 113//2 114//2 111//2
f 111//2 114//2 115//2
f 114//2 116//2 115//2
f 115//2 116//2 117//2
f 116//2 118//2 117//2
f 117//2 118//2 119//2
f 120//2 119//2 118//2
f 121//2 122//2 123//2
f 122//2 124//2 123//2
f 123//2 124//2 125//2
f 125//2 124//2 126//2
f 126//2 124//2 127//2
f 124//2 128//2 127//2
f 127//2 128//2 129//2
f 129//2 128//2 130//2
f 130//2 128//2 131//2
f 128//2 132//2 131//2
f 131//2 132//2 133//2
f 132//2 134//2 133//2
f 134//2 135//2 133//2
f 133//2 135//2 136//2
f 136//2 135//2 137//2
f 137//2 135//2 138//2
f 135//2 139//2 138//2
f 138//2 139//2 140//2
f 140//2 139//2 113//2
f 114//2 113//2 139//2
