# SSTK version 0.8.0
# 47
mtllib original-47.mtl
o #ID87
v 0.212367 0.575461 0.542693
v 0.212679 0.582504 0.542693
v 0.212542 0.586281 0.542693
v 0.215297 0.575723 0.542693
v 0.213302 0.581619 0.542693
v 0.214486 0.581270 0.542693
v 0.217304 0.581943 0.542693
v 0.217902 0.576508 0.542693
v 0.217328 0.596951 0.542693
v 0.212542 0.602535 0.542693
v 0.212542 0.596951 0.542693
v 0.217328 0.602535 0.542693
v 0.205736 0.580472 0.542693
v 0.205511 0.596951 0.542693
v 0.205511 0.585408 0.542693
v 0.205511 0.602535 0.542693
v 0.205511 0.607796 0.542693
v 0.212542 0.611884 0.542693
v 0.206119 0.578929 0.542693
v 0.206721 0.577742 0.542693
v 0.207634 0.576826 0.542693
v 0.208952 0.576097 0.542693
v 0.210566 0.575620 0.542693
v 0.202295 0.602535 0.542693
v 0.202295 0.596951 0.542693
v 0.205511 0.602535 0.542693
v 0.205511 0.596951 0.542693
v 0.202295 0.602535 0.542693
v 0.202295 0.596951 0.542693
v 0.212542 0.602535 0.542693
v 0.212542 0.596951 0.542693
v 0.212542 0.611884 0.542693
v 0.212542 0.586281 0.542693
v 0.212367 0.575461 0.542693
v 0.210566 0.575620 0.542693
v 0.208952 0.576097 0.542693
v 0.207634 0.576826 0.542693
v 0.206721 0.577742 0.542693
v 0.206119 0.578929 0.542693
v 0.205736 0.580472 0.542693
v 0.205511 0.607796 0.542693
v 0.205511 0.585408 0.542693
v 0.217328 0.602535 0.542693
v 0.217328 0.596951 0.542693
v 0.217902 0.576508 0.542693
v 0.215297 0.575723 0.542693
v 0.217304 0.581943 0.542693
v 0.214486 0.581270 0.542693
v 0.213302 0.581619 0.542693
v 0.212679 0.582504 0.542693
vn 0 0 1
vn 0 0 -1
usemtl material_0_0
f 1//1 2//1 3//1
f 2//1 1//1 4//1
f 2//1 4//1 5//1
f 5//1 4//1 6//1
f 6//1 4//1 7//1
f 7//1 4//1 8//1
f 9//1 10//1 11//1
f 10//1 9//1 12//1
f 13//1 14//1 15//1
f 14//1 13//1 16//1
f 16//1 13//1 17//1
f 17//1 13//1 18//1
f 18//1 13//1 19//1
f 18//1 19//1 20//1
f 18//1 20//1 21//1
f 18//1 21//1 22//1
f 18//1 22//1 23//1
f 18//1 23//1 1//1
f 18//1 1//1 3//1
f 18//1 3//1 11//1
f 18//1 11//1 10//1
f 14//1 24//1 25//1
f 24//1 14//1 16//1
f 26//2 27//2 28//2
f 29//2 28//2 27//2
f 30//2 31//2 32//2
f 31//2 33//2 32//2
f 33//2 34//2 32//2
f 34//2 35//2 32//2
f 35//2 36//2 32//2
f 36//2 37//2 32//2
f 37//2 38//2 32//2
f 38//2 39//2 32//2
f 39//2 40//2 32//2
f 32//2 40//2 41//2
f 41//2 40//2 26//2
f 26//2 40//2 27//2
f 42//2 27//2 40//2
f 43//2 44//2 30//2
f 31//2 30//2 44//2
f 45//2 46//2 47//2
f 47//2 46//2 48//2
f 48//2 46//2 49//2
f 49//2 46//2 50//2
f 46//2 34//2 50//2
f 33//2 50//2 34//2
