# SSTK version 0.8.0
# 44
mtllib original-44.mtl
o #ID69
v 0.160905 0.594243 0.543746
v 0.161335 0.591566 0.539473
v 0.161335 0.591566 0.543746
v 0.160905 0.594243 0.539473
v 0.160905 0.594243 0.539473
v 0.160905 0.594243 0.543746
v 0.161335 0.591566 0.539473
v 0.161335 0.591566 0.543746
v 0.150864 0.591566 0.543746
v 0.161335 0.591566 0.539473
v 0.150864 0.591566 0.539473
v 0.161335 0.591566 0.543746
v 0.161335 0.591566 0.543746
v 0.150864 0.591566 0.543746
v 0.161335 0.591566 0.539473
v 0.150864 0.591566 0.539473
v 0.159764 0.596190 0.543746
v 0.159764 0.596190 0.539473
v 0.159764 0.596190 0.539473
v 0.159764 0.596190 0.543746
v 0.151219 0.594134 0.539473
v 0.150864 0.591566 0.543746
v 0.150864 0.591566 0.539473
v 0.151219 0.594134 0.543746
v 0.151219 0.594134 0.543746
v 0.151219 0.594134 0.539473
v 0.150864 0.591566 0.543746
v 0.150864 0.591566 0.539473
v 0.158107 0.597378 0.539473
v 0.158107 0.597378 0.543746
v 0.158107 0.597378 0.543746
v 0.158107 0.597378 0.539473
v 0.152335 0.596103 0.539473
v 0.152335 0.596103 0.543746
v 0.152335 0.596103 0.543746
v 0.152335 0.596103 0.539473
v 0.156125 0.597774 0.539473
v 0.156125 0.597774 0.543746
v 0.156125 0.597774 0.543746
v 0.156125 0.597774 0.539473
v 0.154030 0.597356 0.543746
v 0.154030 0.597356 0.539473
v 0.154030 0.597356 0.543746
v 0.154030 0.597356 0.539473
vn -0.9412351775644128 -0.3377518919492357 0
vn -0.9873400112321726 -0.15861810180446995 0
vn 0 1 0
vn -0.7387829444245086 -0.6739434405255779 0
vn 0.9471921678129472 -0.32066648910325796 0
vn 0.9905649327551844 -0.13704420453166533 0
vn -0.39796089175135146 -0.9174023809847395 0
vn 0.7485720999438681 -0.6630533999502813 0
vn -0.00013501049876974753 -0.9999999908860827 0
vn 0.40466639308904245 -0.9144643843826311 0
vn 0.9412351775644128 0.3377518919492357 0
vn 0.9873400112321726 0.15861810180446995 0
vn 0 -1 0
vn 0.7387829444245086 0.6739434405255779 0
vn -0.9471921678129472 0.32066648910325796 0
vn -0.9905649327551844 0.13704420453166533 0
vn 0.39796089175135146 0.9174023809847395 0
vn -0.7485720999438681 0.6630533999502813 0
vn 0.00013501049876974753 0.9999999908860827 0
vn -0.40466639308904245 0.9144643843826311 0
usemtl material_0_0
f 5//11 6//11 7//12
f 8//12 7//12 6//11
f 13//13 14//13 15//13
f 16//13 15//13 14//13
f 19//14 20//14 5//11
f 6//11 5//11 20//14
f 25//15 26//15 27//16
f 28//16 27//16 26//15
f 31//17 20//14 32//17
f 19//14 32//17 20//14
f 35//18 36//18 25//15
f 26//15 25//15 36//18
f 39//19 31//17 40//19
f 32//17 40//19 31//17
f 35//18 43//20 36//18
f 44//20 36//18 43//20
f 43//20 39//19 44//20
f 40//19 44//20 39//19
usemtl material_1_0
f 1//1 2//2 3//2
f 2//2 1//1 4//1
f 9//3 10//3 11//3
f 10//3 9//3 12//3
f 17//4 4//1 1//1
f 4//1 17//4 18//4
f 21//5 22//6 23//6
f 22//6 21//5 24//5
f 17//4 29//7 18//4
f 29//7 17//4 30//7
f 33//8 24//5 21//5
f 24//5 33//8 34//8
f 30//7 37//9 29//7
f 37//9 30//7 38//9
f 41//10 33//8 42//10
f 33//8 41//10 34//8
f 38//9 42//10 37//9
f 42//10 38//9 41//10
