# SSTK version 0.8.0
# 35
mtllib original-35.mtl
o #ID13
v 0.143775 0.592210 0.539473
v 0.143723 0.586461 0.539473
v 0.143560 0.589098 0.539473
v 0.144214 0.584062 0.539473
v 0.144420 0.594966 0.539473
v 0.145032 0.581899 0.539473
v 0.145495 0.597365 0.539473
v 0.146177 0.579973 0.539473
v 0.147000 0.599406 0.539473
v 0.148060 0.577999 0.539473
v 0.148834 0.601037 0.539473
v 0.150391 0.576589 0.539473
v 0.150895 0.602202 0.539473
v 0.150740 0.587278 0.539473
v 0.150864 0.591566 0.539473
v 0.151219 0.594134 0.539473
v 0.153184 0.602901 0.539473
v 0.152335 0.596103 0.539473
v 0.154030 0.597356 0.539473
v 0.155701 0.603134 0.539473
v 0.156125 0.597774 0.539473
v 0.158499 0.602890 0.539473
v 0.158107 0.597378 0.539473
v 0.159764 0.596190 0.539473
v 0.160986 0.602158 0.539473
v 0.160905 0.594243 0.539473
v 0.161335 0.591566 0.539473
v 0.163161 0.600939 0.539473
v 0.168291 0.587278 0.539473
v 0.165025 0.599232 0.539473
v 0.166510 0.597022 0.539473
v 0.167549 0.594293 0.539473
v 0.168143 0.591045 0.539473
v 0.151201 0.584507 0.539473
v 0.153170 0.575743 0.539473
v 0.152435 0.582429 0.539473
v 0.154255 0.581129 0.539473
v 0.156399 0.575461 0.539473
v 0.156474 0.580696 0.539473
v 0.160397 0.575963 0.539473
v 0.157988 0.580921 0.539473
v 0.159241 0.581594 0.539473
v 0.160226 0.582765 0.539473
v 0.160936 0.584486 0.539473
v 0.162123 0.576590 0.539473
v 0.167917 0.583314 0.539473
v 0.163666 0.577468 0.539473
v 0.165021 0.578586 0.539473
v 0.166181 0.579933 0.539473
v 0.166181 0.579933 0.539473
v 0.167917 0.583314 0.539473
v 0.165021 0.578586 0.539473
v 0.163666 0.577468 0.539473
v 0.162123 0.576590 0.539473
v 0.160936 0.584486 0.539473
v 0.160397 0.575963 0.539473
v 0.160226 0.582765 0.539473
v 0.159241 0.581594 0.539473
v 0.157988 0.580921 0.539473
v 0.156474 0.580696 0.539473
v 0.156399 0.575461 0.539473
v 0.154255 0.581129 0.539473
v 0.153170 0.575743 0.539473
v 0.152435 0.582429 0.539473
v 0.151201 0.584507 0.539473
v 0.150740 0.587278 0.539473
v 0.150391 0.576589 0.539473
v 0.168143 0.591045 0.539473
v 0.167549 0.594293 0.539473
v 0.168291 0.587278 0.539473
v 0.166510 0.597022 0.539473
v 0.165025 0.599232 0.539473
v 0.163161 0.600939 0.539473
v 0.161335 0.591566 0.539473
v 0.150864 0.591566 0.539473
v 0.160986 0.602158 0.539473
v 0.160905 0.594243 0.539473
v 0.159764 0.596190 0.539473
v 0.158499 0.602890 0.539473
v 0.158107 0.597378 0.539473
v 0.156125 0.597774 0.539473
v 0.155701 0.603134 0.539473
v 0.154030 0.597356 0.539473
v 0.153184 0.602901 0.539473
v 0.152335 0.596103 0.539473
v 0.151219 0.594134 0.539473
v 0.150895 0.602202 0.539473
v 0.148834 0.601037 0.539473
v 0.148060 0.577999 0.539473
v 0.147000 0.599406 0.539473
v 0.146177 0.579973 0.539473
v 0.145495 0.597365 0.539473
v 0.145032 0.581899 0.539473
v 0.144420 0.594966 0.539473
v 0.144214 0.584062 0.539473
v 0.143775 0.592210 0.539473
v 0.143723 0.586461 0.539473
v 0.143560 0.589098 0.539473
vn 0 0 -1
vn 0 0 1
usemtl material_0_0
f 1//1 2//1 3//1
f 2//1 1//1 4//1
f 4//1 1//1 5//1
f 4//1 5//1 6//1
f 6//1 5//1 7//1
f 6//1 7//1 8//1
f 8//1 7//1 9//1
f 8//1 9//1 10//1
f 10//1 9//1 11//1
f 10//1 11//1 12//1
f 12//1 11//1 13//1
f 12//1 13//1 14//1
f 14//1 13//1 15//1
f 15//1 13//1 16//1
f 16//1 13//1 17//1
f 16//1 17//1 18//1
f 18//1 17//1 19//1
f 19//1 17//1 20//1
f 19//1 20//1 21//1
f 21//1 20//1 22//1
f 21//1 22//1 23//1
f 23//1 22//1 24//1
f 24//1 22//1 25//1
f 24//1 25//1 26//1
f 26//1 25//1 27//1
f 27//1 25//1 28//1
f 15//1 29//1 14//1
f 29//1 15//1 27//1
f 29//1 27//1 28//1
f 29//1 28//1 30//1
f 29//1 30//1 31//1
f 29//1 31//1 32//1
f 29//1 32//1 33//1
f 12//1 34//1 35//1
f 34//1 12//1 14//1
f 35//1 34//1 36//1
f 35//1 36//1 37//1
f 35//1 37//1 38//1
f 38//1 37//1 39//1
f 38//1 39//1 40//1
f 40//1 39//1 41//1
f 40//1 41//1 42//1
f 40//1 42//1 43//1
f 40//1 43//1 44//1
f 40//1 44//1 45//1
f 45//1 44//1 46//1
f 45//1 46//1 47//1
f 47//1 46//1 48//1
f 48//1 46//1 49//1
f 50//2 51//2 52//2
f 52//2 51//2 53//2
f 53//2 51//2 54//2
f 51//2 55//2 54//2
f 54//2 55//2 56//2
f 55//2 57//2 56//2
f 57//2 58//2 56//2
f 58//2 59//2 56//2
f 59//2 60//2 56//2
f 56//2 60//2 61//2
f 60//2 62//2 61//2
f 61//2 62//2 63//2
f 62//2 64//2 63//2
f 64//2 65//2 63//2
f 66//2 67//2 65//2
f 63//2 65//2 67//2
f 68//2 69//2 70//2
f 69//2 71//2 70//2
f 71//2 72//2 70//2
f 72//2 73//2 70//2
f 73//2 74//2 70//2
f 74//2 75//2 70//2
f 66//2 70//2 75//2
f 73//2 76//2 74//2
f 74//2 76//2 77//2
f 77//2 76//2 78//2
f 76//2 79//2 78//2
f 78//2 79//2 80//2
f 80//2 79//2 81//2
f 79//2 82//2 81//2
f 81//2 82//2 83//2
f 82//2 84//2 83//2
f 83//2 84//2 85//2
f 85//2 84//2 86//2
f 84//2 87//2 86//2
f 86//2 87//2 75//2
f 75//2 87//2 66//2
f 66//2 87//2 67//2
f 87//2 88//2 67//2
f 67//2 88//2 89//2
f 88//2 90//2 89//2
f 89//2 90//2 91//2
f 90//2 92//2 91//2
f 91//2 92//2 93//2
f 92//2 94//2 93//2
f 93//2 94//2 95//2
f 94//2 96//2 95//2
f 95//2 96//2 97//2
f 98//2 97//2 96//2
