# SSTK version 0.8.0
# 103
mtllib original-103.mtl
o #ID311
v -0.066851 0.182379 0.596484
v -0.066797 0.180980 0.596484
v -0.066846 0.180438 0.596484
v -0.066606 0.182602 0.596484
v -0.066648 0.181481 0.596484
v -0.066508 0.181749 0.596484
v -0.066326 0.182782 0.596484
v -0.066321 0.181993 0.596484
v -0.066018 0.182921 0.596484
v -0.066078 0.182204 0.596484
v -0.065768 0.182370 0.596484
v -0.065688 0.183020 0.596484
v -0.065393 0.182477 0.596484
v -0.065334 0.183080 0.596484
v -0.064955 0.182513 0.596484
v -0.064959 0.183100 0.596484
v -0.064424 0.183054 0.596484
v -0.064580 0.182479 0.596484
v -0.064241 0.182377 0.596484
v -0.063943 0.182918 0.596484
v -0.063957 0.182218 0.596484
v -0.063746 0.182015 0.596484
v -0.063537 0.182700 0.596484
v -0.063587 0.181746 0.596484
v -0.063457 0.181393 0.596484
v -0.063230 0.182411 0.596484
v -0.062838 0.181562 0.596484
v -0.063003 0.182036 0.596484
v -0.062760 0.180474 0.596484
v -0.064955 0.179862 0.596484
v -0.064955 0.180470 0.596484
v -0.063432 0.179862 0.596484
v -0.063432 0.178897 0.596484
v -0.063274 0.178198 0.596484
v -0.062760 0.178551 0.596484
v -0.067533 0.180768 0.596484
v -0.067533 0.180023 0.596484
v -0.067553 0.180396 0.596484
v -0.067474 0.181127 0.596484
v -0.067473 0.179669 0.596484
v -0.067375 0.181474 0.596484
v -0.067374 0.179332 0.596484
v -0.067237 0.181808 0.596484
v -0.067235 0.179014 0.596484
v -0.067061 0.182115 0.596484
v -0.067057 0.178723 0.596484
v -0.066840 0.178468 0.596484
v -0.066786 0.179802 0.596484
v -0.066586 0.178250 0.596484
v -0.066607 0.179279 0.596484
v -0.066475 0.179061 0.596484
v -0.066293 0.178068 0.596484
v -0.066315 0.178873 0.596484
v -0.066127 0.178714 0.596484
v -0.065972 0.177925 0.596484
v -0.065913 0.178586 0.596484
v -0.065634 0.177823 0.596484
v -0.065443 0.178417 0.596484
v -0.065279 0.177762 0.596484
v -0.064945 0.178360 0.596484
v -0.064906 0.177742 0.596484
v -0.064504 0.178403 0.596484
v -0.064347 0.177792 0.596484
v -0.064075 0.178532 0.596484
v -0.063803 0.177945 0.596484
v -0.063702 0.178709 0.596484
v -0.063432 0.178897 0.596484
v -0.063702 0.178709 0.596484
v -0.063274 0.178198 0.596484
v -0.063803 0.177945 0.596484
v -0.064075 0.178532 0.596484
v -0.064347 0.177792 0.596484
v -0.064504 0.178403 0.596484
v -0.064906 0.177742 0.596484
v -0.064945 0.178360 0.596484
v -0.065279 0.177762 0.596484
v -0.065443 0.178417 0.596484
v -0.065634 0.177823 0.596484
v -0.065913 0.178586 0.596484
v -0.065972 0.177925 0.596484
v -0.066127 0.178714 0.596484
v -0.066293 0.178068 0.596484
v -0.066315 0.178873 0.596484
v -0.066475 0.179061 0.596484
v -0.066586 0.178250 0.596484
v -0.066607 0.179279 0.596484
v -0.066786 0.179802 0.596484
v -0.066840 0.178468 0.596484
v -0.066846 0.180438 0.596484
v -0.067057 0.178723 0.596484
v -0.066851 0.182379 0.596484
v -0.067061 0.182115 0.596484
v -0.067235 0.179014 0.596484
v -0.067237 0.181808 0.596484
v -0.067374 0.179332 0.596484
v -0.067375 0.181474 0.596484
v -0.067473 0.179669 0.596484
v -0.067474 0.181127 0.596484
v -0.067533 0.180023 0.596484
v -0.067533 0.180768 0.596484
v -0.067553 0.180396 0.596484
v -0.062760 0.178551 0.596484
v -0.062760 0.180474 0.596484
v -0.063432 0.179862 0.596484
v -0.064955 0.179862 0.596484
v -0.064955 0.180470 0.596484
v -0.063003 0.182036 0.596484
v -0.063230 0.182411 0.596484
v -0.062838 0.181562 0.596484
v -0.063457 0.181393 0.596484
v -0.063537 0.182700 0.596484
v -0.063587 0.181746 0.596484
v -0.063746 0.182015 0.596484
v -0.063943 0.182918 0.596484
v -0.063957 0.182218 0.596484
v -0.064241 0.182377 0.596484
v -0.064424 0.183054 0.596484
v -0.064580 0.182479 0.596484
v -0.064955 0.182513 0.596484
v -0.064959 0.183100 0.596484
v -0.065334 0.183080 0.596484
v -0.065393 0.182477 0.596484
v -0.065688 0.183020 0.596484
v -0.065768 0.182370 0.596484
v -0.066018 0.182921 0.596484
v -0.066078 0.182204 0.596484
v -0.066321 0.181993 0.596484
v -0.066326 0.182782 0.596484
v -0.066508 0.181749 0.596484
v -0.066606 0.182602 0.596484
v -0.066648 0.181481 0.596484
v -0.066797 0.180980 0.596484
vn 0 0 -1
vn 0 0 1
usemtl material_0_0
f 1//1 2//1 3//1
f 2//1 1//1 4//1
f 2//1 4//1 5//1
f 5//1 4//1 6//1
f 6//1 4//1 7//1
f 6//1 7//1 8//1
f 8//1 7//1 9//1
f 8//1 9//1 10//1
f 10//1 9//1 11//1
f 11//1 9//1 12//1
f 11//1 12//1 13//1
f 13//1 12//1 14//1
f 13//1 14//1 15//1
f 15//1 14//1 16//1
f 15//1 16//1 17//1
f 15//1 17//1 18//1
f 18//1 17//1 19//1
f 19//1 17//1 20//1
f 19//1 20//1 21//1
f 21//1 20//1 22//1
f 22//1 20//1 23//1
f 22//1 23//1 24//1
f 24//1 23//1 25//1
f 25//1 23//1 26//1
f 25//1 26//1 27//1
f 27//1 26//1 28//1
f 29//1 30//1 31//1
f 30//1 29//1 32//1
f 32//1 29//1 33//1
f 33//1 29//1 34//1
f 34//1 29//1 35//1
f 36//1 37//1 38//1
f 37//1 36//1 39//1
f 37//1 39//1 40//1
f 40//1 39//1 41//1
f 40//1 41//1 42//1
f 42//1 41//1 43//1
f 42//1 43//1 44//1
f 44//1 43//1 45//1
f 44//1 45//1 46//1
f 46//1 45//1 1//1
f 46//1 1//1 3//1
f 46//1 3//1 47//1
f 47//1 3//1 48//1
f 47//1 48//1 49//1
f 49//1 48//1 50//1
f 49//1 50//1 51//1
f 49//1 51//1 52//1
f 52//1 51//1 53//1
f 52//1 53//1 54//1
f 52//1 54//1 55//1
f 55//1 54//1 56//1
f 55//1 56//1 57//1
f 57//1 56//1 58//1
f 57//1 58//1 59//1
f 59//1 58//1 60//1
f 59//1 60//1 61//1
f 61//1 60//1 62//1
f 61//1 62//1 63//1
f 63//1 62//1 64//1
f 63//1 64//1 65//1
f 65//1 64//1 66//1
f 65//1 66//1 34//1
f 34//1 66//1 33//1
f 67//2 68//2 69//2
f 69//2 68//2 70//2
f 68//2 71//2 70//2
f 70//2 71//2 72//2
f 71//2 73//2 72//2
f 72//2 73//2 74//2
f 73//2 75//2 74//2
f 74//2 75//2 76//2
f 75//2 77//2 76//2
f 76//2 77//2 78//2
f 77//2 79//2 78//2
f 78//2 79//2 80//2
f 79//2 81//2 80//2
f 80//2 81//2 82//2
f 81//2 83//2 82//2
f 83//2 84//2 82//2
f 82//2 84//2 85//2
f 84//2 86//2 85//2
f 86//2 87//2 85//2
f 85//2 87//2 88//2
f 87//2 89//2 88//2
f 88//2 89//2 90//2
f 89//2 91//2 90//2
f 91//2 92//2 90//2
f 90//2 92//2 93//2
f 92//2 94//2 93//2
f 93//2 94//2 95//2
f 94//2 96//2 95//2
f 95//2 96//2 97//2
f 96//2 98//2 97//2
f 97//2 98//2 99//2
f 98//2 100//2 99//2
f 101//2 99//2 100//2
f 102//2 103//2 69//2
f 69//2 103//2 67//2
f 67//2 103//2 104//2
f 104//2 103//2 105//2
f 106//2 105//2 103//2
f 107//2 108//2 109//2
f 109//2 108//2 110//2
f 108//2 111//2 110//2
f 110//2 111//2 112//2
f 112//2 111//2 113//2
f 111//2 114//2 113//2
f 113//2 114//2 115//2
f 115//2 114//2 116//2
f 114//2 117//2 116//2
f 116//2 117//2 118//2
f 118//2 117//2 119//2
f 117//2 120//2 119//2
f 120//2 121//2 119//2
f 119//2 121//2 122//2
f 121//2 123//2 122//2
f 122//2 123//2 124//2
f 123//2 125//2 124//2
f 124//2 125//2 126//2
f 126//2 125//2 127//2
f 125//2 128//2 127//2
f 127//2 128//2 129//2
f 128//2 130//2 129//2
f 129//2 130//2 131//2
f 131//2 130//2 132//2
f 130//2 91//2 132//2
f 89//2 132//2 91//2
