# SSTK version 0.8.0
# 93
mtllib original-93.mtl
o instance_7/_5/ID245#ID245
v -0.125613 0.247649 0.596331
v -0.125317 0.239160 0.596331
v -0.127168 0.239401 0.596331
v -0.124901 0.241449 0.596331
v -0.124035 0.245765 0.596331
v -0.117627 0.247649 0.596331
v -0.117627 0.245765 0.596331
v -0.124797 0.239785 0.596331
v -0.123419 0.242205 0.596331
v -0.124112 0.240282 0.596331
v -0.123299 0.240607 0.596331
v -0.122652 0.242394 0.596331
v -0.122392 0.240715 0.596331
v -0.121866 0.242457 0.596331
v -0.121662 0.240654 0.596331
v -0.120856 0.242366 0.596331
v -0.121005 0.240471 0.596331
v -0.120421 0.240167 0.596331
v -0.119927 0.242093 0.596331
v -0.119911 0.239740 0.596331
v -0.119081 0.241637 0.596331
v -0.119496 0.239208 0.596331
v -0.119200 0.238587 0.596331
v -0.119023 0.237877 0.596331
v -0.118317 0.241000 0.596331
v -0.118963 0.237078 0.596331
v -0.125448 0.236191 0.596331
v -0.127346 0.235052 0.596331
v -0.127519 0.236016 0.596331
v -0.127024 0.234189 0.596331
v -0.126554 0.233426 0.596331
v -0.125936 0.232762 0.596331
v -0.125193 0.232225 0.596331
v -0.125066 0.234867 0.596331
v -0.124349 0.231842 0.596331
v -0.124380 0.233918 0.596331
v -0.123456 0.233347 0.596331
v -0.123404 0.231612 0.596331
v -0.122359 0.233156 0.596331
v -0.122359 0.231535 0.596331
v -0.121675 0.233224 0.596331
v -0.121093 0.231657 0.596331
v -0.121045 0.233425 0.596331
v -0.119968 0.232023 0.596331
v -0.120470 0.233760 0.596331
v -0.119949 0.234230 0.596331
v -0.118985 0.232632 0.596331
v -0.119518 0.234811 0.596331
v -0.119210 0.235479 0.596331
v -0.119025 0.236235 0.596331
v -0.118142 0.233485 0.596331
v -0.117684 0.240219 0.596331
v -0.117586 0.234316 0.596331
v -0.117233 0.239335 0.596331
v -0.117189 0.235221 0.596331
v -0.116961 0.238346 0.596331
v -0.116950 0.236200 0.596331
v -0.116871 0.237253 0.596331
v -0.116871 0.237253 0.596331
v -0.116961 0.238346 0.596331
v -0.116950 0.236200 0.596331
v -0.117189 0.235221 0.596331
v -0.117233 0.239335 0.596331
v -0.117586 0.234316 0.596331
v -0.117684 0.240219 0.596331
v -0.118142 0.233485 0.596331
v -0.118317 0.241000 0.596331
v -0.118963 0.237078 0.596331
v -0.118985 0.232632 0.596331
v -0.119025 0.236235 0.596331
v -0.119210 0.235479 0.596331
v -0.119518 0.234811 0.596331
v -0.119949 0.234230 0.596331
v -0.119968 0.232023 0.596331
v -0.120470 0.233760 0.596331
v -0.121045 0.233425 0.596331
v -0.121093 0.231657 0.596331
v -0.121675 0.233224 0.596331
v -0.122359 0.231535 0.596331
v -0.122359 0.233156 0.596331
v -0.123404 0.231612 0.596331
v -0.123456 0.233347 0.596331
v -0.124349 0.231842 0.596331
v -0.124380 0.233918 0.596331
v -0.125066 0.234867 0.596331
v -0.125193 0.232225 0.596331
v -0.125448 0.236191 0.596331
v -0.125936 0.232762 0.596331
v -0.126554 0.233426 0.596331
v -0.127024 0.234189 0.596331
v -0.127346 0.235052 0.596331
v -0.127519 0.236016 0.596331
v -0.119023 0.237877 0.596331
v -0.119081 0.241637 0.596331
v -0.119200 0.238587 0.596331
v -0.119496 0.239208 0.596331
v -0.119911 0.239740 0.596331
v -0.119927 0.242093 0.596331
v -0.120421 0.240167 0.596331
v -0.120856 0.242366 0.596331
v -0.121005 0.240471 0.596331
v -0.121662 0.240654 0.596331
v -0.121866 0.242457 0.596331
v -0.122392 0.240715 0.596331
v -0.122652 0.242394 0.596331
v -0.123299 0.240607 0.596331
v -0.123419 0.242205 0.596331
v -0.124112 0.240282 0.596331
v -0.124797 0.239785 0.596331
v -0.124901 0.241449 0.596331
v -0.125317 0.239160 0.596331
v -0.117627 0.245765 0.596331
v -0.117627 0.247649 0.596331
v -0.124035 0.245765 0.596331
v -0.125613 0.247649 0.596331
v -0.127168 0.239401 0.596331
vn 0 0 -1
vn 0 0 1
usemtl material_0_0
f 1//1 2//1 3//1
f 2//1 1//1 4//1
f 4//1 1//1 5//1
f 5//1 1//1 6//1
f 5//1 6//1 7//1
f 4//1 8//1 2//1
f 8//1 4//1 9//1
f 8//1 9//1 10//1
f 10//1 9//1 11//1
f 11//1 9//1 12//1
f 11//1 12//1 13//1
f 13//1 12//1 14//1
f 13//1 14//1 15//1
f 15//1 14//1 16//1
f 15//1 16//1 17//1
f 17//1 16//1 18//1
f 18//1 16//1 19//1
f 18//1 19//1 20//1
f 20//1 19//1 21//1
f 20//1 21//1 22//1
f 22//1 21//1 23//1
f 23//1 21//1 24//1
f 24//1 21//1 25//1
f 24//1 25//1 26//1
f 27//1 28//1 29//1
f 28//1 27//1 30//1
f 30//1 27//1 31//1
f 31//1 27//1 32//1
f 32//1 27//1 33//1
f 33//1 27//1 34//1
f 33//1 34//1 35//1
f 35//1 34//1 36//1
f 35//1 36//1 37//1
f 35//1 37//1 38//1
f 38//1 37//1 39//1
f 38//1 39//1 40//1
f 40//1 39//1 41//1
f 40//1 41//1 42//1
f 42//1 41//1 43//1
f 42//1 43//1 44//1
f 44//1 43//1 45//1
f 44//1 45//1 46//1
f 44//1 46//1 47//1
f 47//1 46//1 48//1
f 47//1 48//1 49//1
f 47//1 49//1 50//1
f 47//1 50//1 26//1
f 47//1 26//1 51//1
f 51//1 26//1 25//1
f 51//1 25//1 52//1
f 51//1 52//1 53//1
f 53//1 52//1 54//1
f 53//1 54//1 55//1
f 55//1 54//1 56//1
f 55//1 56//1 57//1
f 57//1 56//1 58//1
f 59//2 60//2 61//2
f 61//2 60//2 62//2
f 60//2 63//2 62//2
f 62//2 63//2 64//2
f 63//2 65//2 64//2
f 64//2 65//2 66//2
f 65//2 67//2 66//2
f 67//2 68//2 66//2
f 66//2 68//2 69//2
f 68//2 70//2 69//2
f 70//2 71//2 69//2
f 71//2 72//2 69//2
f 72//2 73//2 69//2
f 69//2 73//2 74//2
f 73//2 75//2 74//2
f 75//2 76//2 74//2
f 74//2 76//2 77//2
f 76//2 78//2 77//2
f 77//2 78//2 79//2
f 78//2 80//2 79//2
f 79//2 80//2 81//2
f 80//2 82//2 81//2
f 81//2 82//2 83//2
f 82//2 84//2 83//2
f 84//2 85//2 83//2
f 83//2 85//2 86//2
f 85//2 87//2 86//2
f 86//2 87//2 88//2
f 88//2 87//2 89//2
f 89//2 87//2 90//2
f 90//2 87//2 91//2
f 92//2 91//2 87//2
f 68//2 67//2 93//2
f 67//2 94//2 93//2
f 93//2 94//2 95//2
f 95//2 94//2 96//2
f 96//2 94//2 97//2
f 94//2 98//2 97//2
f 97//2 98//2 99//2
f 98//2 100//2 99//2
f 99//2 100//2 101//2
f 101//2 100//2 102//2
f 100//2 103//2 102//2
f 102//2 103//2 104//2
f 103//2 105//2 104//2
f 104//2 105//2 106//2
f 105//2 107//2 106//2
f 106//2 107//2 108//2
f 108//2 107//2 109//2
f 107//2 110//2 109//2
f 111//2 109//2 110//2
f 112//2 113//2 114//2
f 113//2 115//2 114//2
f 114//2 115//2 110//2
f 110//2 115//2 111//2
f 116//2 111//2 115//2
