# SSTK version 0.8.0
# 4
mtllib original-4.mtl
o #ID705
v 0.088435 0.581929 0.543404
v 0.088435 0.573989 0.539287
v 0.088435 0.573989 0.543404
v 0.088435 0.581929 0.539287
v 0.088435 0.581929 0.543404
v 0.087394 0.581929 0.539287
v 0.088435 0.581929 0.539287
v 0.087394 0.581929 0.543404
v 0.087394 0.591045 0.543404
v 0.087394 0.581929 0.539287
v 0.087394 0.581929 0.543404
v 0.087394 0.591045 0.539287
v 0.087394 0.591045 0.543404
v 0.093275 0.591045 0.539287
v 0.087394 0.591045 0.539287
v 0.093275 0.591045 0.543404
v 0.093275 0.591045 0.539287
v 0.093275 0.581929 0.543404
v 0.093275 0.581929 0.539287
v 0.093275 0.591045 0.543404
v 0.093275 0.581929 0.543404
v 0.092258 0.581929 0.539287
v 0.093275 0.581929 0.539287
v 0.092258 0.581929 0.543404
v 0.092258 0.581929 0.539287
v 0.092258 0.573989 0.543404
v 0.092258 0.573989 0.539287
v 0.092258 0.581929 0.543404
vn -1 0 0
vn 0 -1 0
vn 0 1 0
vn 1 0 0
usemtl material_0_0
f 1//1 2//1 3//1
f 2//1 1//1 4//1
f 5//2 6//2 7//2
f 6//2 5//2 8//2
f 9//1 10//1 11//1
f 10//1 9//1 12//1
f 13//3 14//3 15//3
f 14//3 13//3 16//3
f 17//4 18//4 19//4
f 18//4 17//4 20//4
f 21//2 22//2 23//2
f 22//2 21//2 24//2
f 25//4 26//4 27//4
f 26//4 25//4 28//4
