# SSTK version 0.8.0
# 61
mtllib original-61.mtl
o #ID167
v 0.321172 0.573908 0.541919
v 0.318726 0.572101 0.539473
v 0.321172 0.573908 0.539473
v 0.318726 0.572101 0.541919
v 0.318726 0.572101 0.541919
v 0.321172 0.573908 0.541919
v 0.318726 0.572101 0.539473
v 0.321172 0.573908 0.539473
v 0.321172 0.573908 0.541919
v 0.321496 0.572157 0.539473
v 0.321496 0.572157 0.541919
v 0.321172 0.573908 0.539473
v 0.321172 0.573908 0.539473
v 0.321172 0.573908 0.541919
v 0.321496 0.572157 0.539473
v 0.321496 0.572157 0.541919
v 0.316373 0.570916 0.539473
v 0.316373 0.570916 0.541919
v 0.316373 0.570916 0.541919
v 0.316373 0.570916 0.539473
v 0.322070 0.570642 0.539473
v 0.322070 0.570642 0.541919
v 0.322070 0.570642 0.539473
v 0.322070 0.570642 0.541919
v 0.313983 0.570262 0.539473
v 0.313983 0.570262 0.541919
v 0.313983 0.570262 0.541919
v 0.313983 0.570262 0.539473
v 0.326757 0.570642 0.541919
v 0.322070 0.570642 0.539473
v 0.326757 0.570642 0.539473
v 0.322070 0.570642 0.541919
v 0.322070 0.570642 0.541919
v 0.326757 0.570642 0.541919
v 0.322070 0.570642 0.539473
v 0.326757 0.570642 0.539473
v 0.311424 0.570044 0.539473
v 0.311424 0.570044 0.541919
v 0.311424 0.570044 0.541919
v 0.311424 0.570044 0.539473
v 0.326049 0.572197 0.539473
v 0.326757 0.570642 0.541919
v 0.326757 0.570642 0.539473
v 0.326049 0.572197 0.541919
v 0.326049 0.572197 0.541919
v 0.326049 0.572197 0.539473
v 0.326757 0.570642 0.541919
v 0.326757 0.570642 0.539473
v 0.309369 0.570177 0.539473
v 0.309369 0.570177 0.541919
v 0.309369 0.570177 0.541919
v 0.309369 0.570177 0.539473
v 0.325622 0.573821 0.539473
v 0.325622 0.573821 0.541919
v 0.325622 0.573821 0.541919
v 0.325622 0.573821 0.539473
v 0.307566 0.570577 0.539473
v 0.307566 0.570577 0.541919
v 0.307566 0.570577 0.541919
v 0.307566 0.570577 0.539473
v 0.325336 0.581736 0.539473
v 0.325336 0.581736 0.541919
v 0.325336 0.581736 0.541919
v 0.325336 0.581736 0.539473
v 0.306016 0.571243 0.539473
v 0.306016 0.571243 0.541919
v 0.306016 0.571243 0.541919
v 0.306016 0.571243 0.539473
v 0.325336 0.587720 0.539473
v 0.325336 0.587720 0.541919
v 0.325336 0.587720 0.541919
v 0.325336 0.587720 0.539473
v 0.304718 0.572175 0.539473
v 0.304718 0.572175 0.541919
v 0.304718 0.572175 0.541919
v 0.304718 0.572175 0.539473
v 0.325111 0.591858 0.539473
v 0.325111 0.591858 0.541919
v 0.325111 0.591858 0.541919
v 0.325111 0.591858 0.539473
v 0.303693 0.573315 0.541919
v 0.303693 0.573315 0.539473
v 0.303693 0.573315 0.539473
v 0.303693 0.573315 0.541919
v 0.324563 0.593544 0.539473
v 0.324563 0.593544 0.541919
v 0.324563 0.593544 0.541919
v 0.324563 0.593544 0.539473
v 0.302961 0.574603 0.541919
v 0.302961 0.574603 0.539473
v 0.302961 0.574603 0.539473
v 0.302961 0.574603 0.541919
v 0.323715 0.594912 0.539473
v 0.323715 0.594912 0.541919
v 0.323715 0.594912 0.541919
v 0.323715 0.594912 0.539473
v 0.302521 0.576039 0.541919
v 0.302521 0.576039 0.539473
v 0.302521 0.576039 0.539473
v 0.302521 0.576039 0.541919
v 0.322437 0.596018 0.541919
v 0.322437 0.596018 0.539473
v 0.322437 0.596018 0.541919
v 0.322437 0.596018 0.539473
v 0.302375 0.577623 0.541919
v 0.302375 0.577623 0.539473
v 0.302375 0.577623 0.539473
v 0.302375 0.577623 0.541919
v 0.320599 0.596919 0.541919
v 0.320599 0.596919 0.539473
v 0.320599 0.596919 0.541919
v 0.320599 0.596919 0.539473
v 0.302596 0.579483 0.541919
v 0.302596 0.579483 0.539473
v 0.302596 0.579483 0.539473
v 0.302596 0.579483 0.541919
v 0.318162 0.597517 0.541919
v 0.318162 0.597517 0.539473
v 0.318162 0.597517 0.541919
v 0.318162 0.597517 0.539473
v 0.303260 0.581175 0.541919
v 0.303260 0.581175 0.539473
v 0.303260 0.581175 0.539473
v 0.303260 0.581175 0.541919
v 0.315089 0.597717 0.541919
v 0.315089 0.597717 0.539473
v 0.315089 0.597717 0.541919
v 0.315089 0.597717 0.539473
v 0.304282 0.582624 0.541919
v 0.304282 0.582624 0.539473
v 0.304282 0.582624 0.539473
v 0.304282 0.582624 0.541919
v 0.311879 0.597483 0.541919
v 0.311879 0.597483 0.539473
v 0.311879 0.597483 0.541919
v 0.311879 0.597483 0.539473
v 0.305578 0.583756 0.539473
v 0.305578 0.583756 0.541919
v 0.305578 0.583756 0.541919
v 0.305578 0.583756 0.539473
v 0.309081 0.596782 0.541919
v 0.309081 0.596782 0.539473
v 0.309081 0.596782 0.541919
v 0.309081 0.596782 0.539473
v 0.307102 0.584609 0.539473
v 0.307102 0.584609 0.541919
v 0.307102 0.584609 0.541919
v 0.307102 0.584609 0.539473
v 0.306794 0.595647 0.541919
v 0.306794 0.595647 0.539473
v 0.306794 0.595647 0.541919
v 0.306794 0.595647 0.539473
v 0.308807 0.585226 0.539473
v 0.308807 0.585226 0.541919
v 0.308807 0.585226 0.541919
v 0.308807 0.585226 0.539473
v 0.305117 0.594114 0.541919
v 0.305117 0.594114 0.539473
v 0.305117 0.594114 0.541919
v 0.305117 0.594114 0.539473
v 0.312796 0.585900 0.539473
v 0.312796 0.585900 0.541919
v 0.312796 0.585900 0.541919
v 0.312796 0.585900 0.539473
v 0.303939 0.592110 0.539473
v 0.303939 0.592110 0.541919
v 0.303939 0.592110 0.539473
v 0.303939 0.592110 0.541919
v 0.317514 0.586610 0.539473
v 0.317514 0.586610 0.541919
v 0.317514 0.586610 0.541919
v 0.317514 0.586610 0.539473
v 0.303148 0.589564 0.539473
v 0.303148 0.589564 0.541919
v 0.303148 0.589564 0.539473
v 0.303148 0.589564 0.541919
v 0.320798 0.587445 0.539473
v 0.320798 0.587445 0.541919
v 0.320798 0.587445 0.541919
v 0.320798 0.587445 0.539473
v 0.307535 0.588966 0.541919
v 0.303148 0.589564 0.539473
v 0.307535 0.588966 0.539473
v 0.303148 0.589564 0.541919
v 0.303148 0.589564 0.541919
v 0.307535 0.588966 0.541919
v 0.303148 0.589564 0.539473
v 0.307535 0.588966 0.539473
v 0.320823 0.588617 0.541919
v 0.320798 0.587445 0.539473
v 0.320798 0.587445 0.541919
v 0.320823 0.588617 0.539473
v 0.320823 0.588617 0.539473
v 0.320823 0.588617 0.541919
v 0.320798 0.587445 0.539473
v 0.320798 0.587445 0.541919
v 0.308455 0.591356 0.539473
v 0.307535 0.588966 0.541919
v 0.307535 0.588966 0.539473
v 0.308455 0.591356 0.541919
v 0.308455 0.591356 0.541919
v 0.308455 0.591356 0.539473
v 0.307535 0.588966 0.541919
v 0.307535 0.588966 0.539473
v 0.320505 0.590954 0.541919
v 0.320505 0.590954 0.539473
v 0.320505 0.590954 0.539473
v 0.320505 0.590954 0.541919
v 0.309767 0.592893 0.539473
v 0.309767 0.592893 0.541919
v 0.309767 0.592893 0.541919
v 0.309767 0.592893 0.539473
v 0.319552 0.592481 0.541919
v 0.319552 0.592481 0.539473
v 0.319552 0.592481 0.539473
v 0.319552 0.592481 0.541919
v 0.311689 0.593725 0.541919
v 0.311689 0.593725 0.539473
v 0.311689 0.593725 0.541919
v 0.311689 0.593725 0.539473
v 0.317414 0.593622 0.539473
v 0.317414 0.593622 0.541919
v 0.317414 0.593622 0.541919
v 0.317414 0.593622 0.539473
v 0.314441 0.594002 0.541919
v 0.314441 0.594002 0.539473
v 0.314441 0.594002 0.541919
v 0.314441 0.594002 0.539473
vn 0.5942470006917746 -0.8042826009362818 0
vn 0.5238045041112103 -0.8518385066858677 0
vn -0.9833051932923641 -0.18196399875872843 0
vn -0.9631135508695694 -0.26909531421303046 0
vn 0.3586010983317839 -0.9334908956573913 0
vn -0.935217374957886 -0.3540740905190339 0
vn 0.17524089736366083 -0.9845255851887136 0
vn 0 -1 0
vn 0.010162269621993267 -0.9999483628048649 0
vn 0.9420750276075845 0.3354022098289882 0
vn 0.9102414941857917 0.4140777973550589 0
vn -0.1409772059856331 -0.9900128420341244 0
vn 0.9892632691457448 0.14614439544188373 0
vn -0.30694688297787764 -0.9517266472208105 0
vn 0.999836157517858 0.018101329230890195 0
vn -0.4920244796729417 -0.8705813640335812 0
vn 0.9996333072031467 0.0270786101951222 0
vn -0.6673433753337883 -0.7447501724726933 0
vn 0.9830566875652523 0.18330179768140314 0
vn -0.8110773392121435 -0.5849389282793116 0
vn 0.9070334861475581 0.421058493569489 0
vn -0.9183062150367687 -0.3958708064821702 0
vn 0.7610054218410808 0.6487455186191877 0
vn -0.9811265541232886 -0.19336671066696412 0
vn 0.5518262873509003 0.8339590808837815 0
vn -0.9999144575956459 0.013079659445318595 0
vn 0.3411315834957272 0.940015554521146 0
vn -0.969870811810757 0.24361980296671962 0
vn 0.15219600472370082 0.9883503306753851 0
vn -0.8804086959667683 0.47421569782757567 0
vn -0.003934716838563937 0.9999922589717384 0
vn -0.7426166920622516 0.6697166928414723 0
vn -0.15842459659384167 0.9873710787713394 0
vn -0.5762249352882406 0.8172911500512305 0
vn -0.3456557915169845 0.938361376970923 0
vn -0.4159796998308417 0.9093738996302033 0
vn -0.5651128915426983 0.8250135876531068 0
vn -0.25441109136813056 0.9670961671875641 0
vn -0.7771069121642216 0.6293686098516427 0
vn -0.157662508753797 0.9874930548279612 0
vn -0.914536224177393 0.40450401069378417 0
vn -0.19791670831128155 0.9802188411631493 0
vn -0.9549156968435738 0.2968770990186881 0
vn -0.2464280943046991 0.9691610776013213 0
vn -0.13511319580836467 -0.9908301692613374 0
vn -0.9983788635447434 -0.05691787792167435 0
vn -0.9997737300751646 0.02127178063989765 0
vn 0.8592575003947684 -0.5115433002350188 0
vn 0.9333455984711004 -0.35897909941196215 0
vn -0.9404986518926166 -0.33979741874854014 0
vn 0.5941503189218785 -0.804354025616227 0
vn -0.6826159241891445 -0.7307773258957889 0
vn 0.25169420346836097 -0.9678068133364361 0
vn -0.30377310182036515 -0.9527444057093352 0
vn -0.013368970418775068 -0.9999106313215905 0
vn -0.5238045041112103 0.8518385066858677 0
vn -0.5942470006917746 0.8042826009362818 0
vn 0.9833051932923641 0.18196399875872843 0
vn 0.9631135508695694 0.26909531421303046 0
vn -0.3586010983317839 0.9334908956573913 0
vn 0.935217374957886 0.3540740905190339 0
vn -0.17524089736366083 0.9845255851887136 0
vn 0 1 0
vn -0.010162269621993267 0.9999483628048649 0
vn -0.9420750276075845 -0.3354022098289882 0
vn -0.9102414941857917 -0.4140777973550589 0
vn 0.1409772059856331 0.9900128420341244 0
vn -0.9892632691457448 -0.14614439544188373 0
vn 0.30694688297787764 0.9517266472208105 0
vn -0.999836157517858 -0.018101329230890195 0
vn 0.4920244796729417 0.8705813640335812 0
vn -0.9996333072031467 -0.0270786101951222 0
vn 0.6673433753337883 0.7447501724726933 0
vn -0.9830566875652523 -0.18330179768140314 0
vn 0.8110773392121435 0.5849389282793116 0
vn -0.9070334861475581 -0.421058493569489 0
vn 0.9183062150367687 0.3958708064821702 0
vn -0.7610054218410808 -0.6487455186191877 0
vn 0.9811265541232886 0.19336671066696412 0
vn -0.5518262873509003 -0.8339590808837815 0
vn 0.9999144575956459 -0.013079659445318595 0
vn -0.3411315834957272 -0.940015554521146 0
vn 0.969870811810757 -0.24361980296671962 0
vn -0.15219600472370082 -0.9883503306753851 0
vn 0.8804086959667683 -0.47421569782757567 0
vn 0.003934716838563937 -0.9999922589717384 0
vn 0.7426166920622516 -0.6697166928414723 0
vn 0.15842459659384167 -0.9873710787713394 0
vn 0.5762249352882406 -0.8172911500512305 0
vn 0.3456557915169845 -0.938361376970923 0
vn 0.4159796998308417 -0.9093738996302033 0
vn 0.5651128915426983 -0.8250135876531068 0
vn 0.25441109136813056 -0.9670961671875641 0
vn 0.7771069121642216 -0.6293686098516427 0
vn 0.157662508753797 -0.9874930548279612 0
vn 0.914536224177393 -0.40450401069378417 0
vn 0.19791670831128155 -0.9802188411631493 0
vn 0.9549156968435738 -0.2968770990186881 0
vn 0.2464280943046991 -0.9691610776013213 0
vn 0.13511319580836467 0.9908301692613374 0
vn 0.9983788635447434 0.05691787792167435 0
vn 0.9997737300751646 -0.02127178063989765 0
vn -0.8592575003947684 0.5115433002350188 0
vn -0.9333455984711004 0.35897909941196215 0
vn 0.9404986518926166 0.33979741874854014 0
vn -0.5941503189218785 0.804354025616227 0
vn 0.6826159241891445 0.7307773258957889 0
vn -0.25169420346836097 0.9678068133364361 0
vn 0.30377310182036515 0.9527444057093352 0
vn 0.013368970418775068 0.9999106313215905 0
usemtl material_0_0
f 5//56 6//57 7//56
f 8//57 7//56 6//57
f 13//58 14//58 15//59
f 16//59 15//59 14//58
f 19//60 5//56 20//60
f 7//56 20//60 5//56
f 15//59 16//59 23//61
f 24//61 23//61 16//59
f 27//62 19//60 28//62
f 20//60 28//62 19//60
f 33//63 34//63 35//63
f 36//63 35//63 34//63
f 39//64 27//62 40//64
f 28//62 40//64 27//62
f 45//65 46//65 47//66
f 48//66 47//66 46//65
f 51//67 39//64 52//67
f 40//64 52//67 39//64
f 55//68 56//68 45//65
f 46//65 45//65 56//68
f 59//69 51//67 60//69
f 52//67 60//69 51//67
f 63//70 64//70 55//68
f 56//68 55//68 64//70
f 67//71 59//69 68//71
f 60//69 68//71 59//69
f 71//72 72//72 63//70
f 64//70 63//70 72//72
f 75//73 67//71 76//73
f 68//71 76//73 67//71
f 79//74 80//74 71//72
f 72//72 71//72 80//74
f 83//75 84//75 76//73
f 75//73 76//73 84//75
f 87//76 88//76 79//74
f 80//74 79//74 88//76
f 91//77 92//77 83//75
f 84//75 83//75 92//77
f 95//78 96//78 87//76
f 88//76 87//76 96//78
f 99//79 100//79 91//77
f 92//77 91//77 100//79
f 95//78 103//80 96//78
f 104//80 96//78 103//80
f 107//81 108//81 99//79
f 100//79 99//79 108//81
f 103//80 111//82 104//80
f 112//82 104//80 111//82
f 115//83 116//83 107//81
f 108//81 107//81 116//83
f 111//82 119//84 112//82
f 120//84 112//82 119//84
f 123//85 124//85 115//83
f 116//83 115//83 124//85
f 119//84 127//86 120//84
f 128//86 120//84 127//86
f 131//87 132//87 123//85
f 124//85 123//85 132//87
f 127//86 135//88 128//86
f 136//88 128//86 135//88
f 139//89 132//87 140//89
f 131//87 140//89 132//87
f 135//88 143//90 136//88
f 144//90 136//88 143//90
f 147//91 139//89 148//91
f 140//89 148//91 139//89
f 143//90 151//92 144//90
f 152//92 144//90 151//92
f 155//93 147//91 156//93
f 148//91 156//93 147//91
f 151//92 159//94 152//92
f 160//94 152//92 159//94
f 163//95 155//93 164//95
f 156//93 164//95 155//93
f 160//94 159//94 167//96
f 168//96 167//96 159//94
f 171//97 163//95 172//97
f 164//95 172//97 163//95
f 167//96 168//96 175//98
f 176//98 175//98 168//96
f 179//99 171//97 180//99
f 172//97 180//99 171//97
f 185//100 186//100 187//100
f 188//100 187//100 186//100
f 193//101 194//101 195//102
f 196//102 195//102 194//101
f 201//103 202//103 203//104
f 204//104 203//104 202//103
f 207//105 208//105 193//101
f 194//101 193//101 208//105
f 211//106 212//106 201//103
f 202//103 201//103 212//106
f 215//107 216//107 207//105
f 208//105 207//105 216//107
f 211//106 219//108 212//106
f 220//108 212//106 219//108
f 223//109 216//107 224//109
f 215//107 224//109 216//107
f 219//108 227//110 220//108
f 228//110 220//108 227//110
f 227//110 223//109 228//110
f 224//109 228//110 223//109
usemtl material_1_0
f 1//1 2//2 3//1
f 2//2 1//1 4//2
f 9//3 10//4 11//4
f 10//4 9//3 12//3
f 4//2 17//5 2//2
f 17//5 4//2 18//5
f 11//4 21//6 22//6
f 21//6 11//4 10//4
f 18//5 25//7 17//5
f 25//7 18//5 26//7
f 29//8 30//8 31//8
f 30//8 29//8 32//8
f 26//7 37//9 25//7
f 37//9 26//7 38//9
f 41//10 42//11 43//11
f 42//11 41//10 44//10
f 38//9 49//12 37//9
f 49//12 38//9 50//12
f 53//13 44//10 41//10
f 44//10 53//13 54//13
f 50//12 57//14 49//12
f 57//14 50//12 58//14
f 61//15 54//13 53//13
f 54//13 61//15 62//15
f 58//14 65//16 57//14
f 65//16 58//14 66//16
f 69//17 62//15 61//15
f 62//15 69//17 70//17
f 66//16 73//18 65//16
f 73//18 66//16 74//18
f 77//19 70//17 69//17
f 70//17 77//19 78//19
f 81//20 73//18 74//18
f 73//18 81//20 82//20
f 85//21 78//19 77//19
f 78//19 85//21 86//21
f 89//22 82//20 81//20
f 82//20 89//22 90//22
f 93//23 86//21 85//21
f 86//21 93//23 94//23
f 97//24 90//22 89//22
f 90//22 97//24 98//24
f 101//25 93//23 102//25
f 93//23 101//25 94//23
f 105//26 98//24 97//24
f 98//24 105//26 106//26
f 109//27 102//25 110//27
f 102//25 109//27 101//25
f 113//28 106//26 105//26
f 106//26 113//28 114//28
f 117//29 110//27 118//29
f 110//27 117//29 109//27
f 121//30 114//28 113//28
f 114//28 121//30 122//30
f 125//31 118//29 126//31
f 118//29 125//31 117//29
f 129//32 122//30 121//30
f 122//30 129//32 130//32
f 133//33 126//31 134//33
f 126//31 133//33 125//31
f 129//32 137//34 130//32
f 137//34 129//32 138//34
f 141//35 134//33 142//35
f 134//33 141//35 133//33
f 138//34 145//36 137//34
f 145//36 138//34 146//36
f 149//37 142//35 150//37
f 142//35 149//37 141//35
f 146//36 153//38 145//36
f 153//38 146//36 154//38
f 157//39 150//37 158//39
f 150//37 157//39 149//37
f 154//38 161//40 153//38
f 161//40 154//38 162//40
f 157//39 165//41 166//41
f 165//41 157//39 158//39
f 162//40 169//42 161//40
f 169//42 162//40 170//42
f 166//41 173//43 174//43
f 173//43 166//41 165//41
f 170//42 177//44 169//42
f 177//44 170//42 178//44
f 181//45 182//45 183//45
f 182//45 181//45 184//45
f 189//46 190//47 191//47
f 190//47 189//46 192//46
f 197//48 198//49 199//49
f 198//49 197//48 200//48
f 205//50 192//46 189//46
f 192//46 205//50 206//50
f 209//51 200//48 197//48
f 200//48 209//51 210//51
f 213//52 206//50 205//50
f 206//50 213//52 214//52
f 217//53 209//51 218//53
f 209//51 217//53 210//51
f 213//52 221//54 214//52
f 221//54 213//52 222//54
f 225//55 218//53 226//55
f 218//53 225//55 217//53
f 222//54 226//55 221//54
f 226//55 222//54 225//55
