# SSTK version 0.8.0
# 50
mtllib original-50.mtl
o #ID105
v 0.228896 0.576059 0.542987
v 0.221891 0.576059 0.539473
v 0.228896 0.576059 0.539473
v 0.221891 0.576059 0.542987
v 0.221891 0.576059 0.542987
v 0.228896 0.576059 0.542987
v 0.221891 0.576059 0.539473
v 0.228896 0.576059 0.539473
v 0.228896 0.584236 0.539473
v 0.228896 0.576059 0.542987
v 0.228896 0.576059 0.539473
v 0.228896 0.584236 0.542987
v 0.228896 0.584236 0.542987
v 0.228896 0.584236 0.539473
v 0.228896 0.576059 0.542987
v 0.228896 0.576059 0.539473
v 0.221891 0.602535 0.542987
v 0.221891 0.576059 0.539473
v 0.221891 0.576059 0.542987
v 0.221891 0.602535 0.539473
v 0.221891 0.602535 0.539473
v 0.221891 0.602535 0.542987
v 0.221891 0.576059 0.539473
v 0.221891 0.576059 0.542987
v 0.229043 0.589833 0.539473
v 0.229043 0.589833 0.542987
v 0.229043 0.589833 0.542987
v 0.229043 0.589833 0.539473
v 0.221891 0.602535 0.542987
v 0.228398 0.602535 0.539473
v 0.221891 0.602535 0.539473
v 0.228398 0.602535 0.542987
v 0.228398 0.602535 0.542987
v 0.221891 0.602535 0.542987
v 0.228398 0.602535 0.539473
v 0.221891 0.602535 0.539473
v 0.229482 0.593112 0.539473
v 0.229482 0.593112 0.542987
v 0.229482 0.593112 0.542987
v 0.229482 0.593112 0.539473
v 0.228398 0.602535 0.539473
v 0.228398 0.598771 0.542987
v 0.228398 0.598771 0.539473
v 0.228398 0.602535 0.542987
v 0.228398 0.602535 0.542987
v 0.228398 0.602535 0.539473
v 0.228398 0.598771 0.542987
v 0.228398 0.598771 0.539473
v 0.230177 0.594903 0.539473
v 0.230177 0.594903 0.542987
v 0.230177 0.594903 0.542987
v 0.230177 0.594903 0.539473
v 0.229984 0.600983 0.542987
v 0.228398 0.598771 0.539473
v 0.228398 0.598771 0.542987
v 0.229984 0.600983 0.539473
v 0.229984 0.600983 0.539473
v 0.229984 0.600983 0.542987
v 0.228398 0.598771 0.539473
v 0.228398 0.598771 0.542987
v 0.231090 0.596041 0.539473
v 0.231090 0.596041 0.542987
v 0.231090 0.596041 0.542987
v 0.231090 0.596041 0.539473
v 0.231402 0.602286 0.539473
v 0.231402 0.602286 0.542987
v 0.231402 0.602286 0.542987
v 0.231402 0.602286 0.539473
v 0.232224 0.596649 0.542987
v 0.232224 0.596649 0.539473
v 0.232224 0.596649 0.542987
v 0.232224 0.596649 0.539473
v 0.232826 0.602922 0.539473
v 0.232826 0.602922 0.542987
v 0.232826 0.602922 0.542987
v 0.232826 0.602922 0.539473
v 0.233583 0.596851 0.542987
v 0.233583 0.596851 0.539473
v 0.233583 0.596851 0.542987
v 0.233583 0.596851 0.539473
v 0.234431 0.603134 0.539473
v 0.234431 0.603134 0.542987
v 0.234431 0.603134 0.542987
v 0.234431 0.603134 0.539473
v 0.235166 0.596564 0.542987
v 0.235166 0.596564 0.539473
v 0.235166 0.596564 0.542987
v 0.235166 0.596564 0.539473
v 0.236780 0.602803 0.539473
v 0.236780 0.602803 0.542987
v 0.236780 0.602803 0.542987
v 0.236780 0.602803 0.539473
v 0.236874 0.595704 0.542987
v 0.236874 0.595704 0.539473
v 0.236874 0.595704 0.542987
v 0.236874 0.595704 0.539473
v 0.239043 0.601812 0.539473
v 0.239043 0.601812 0.542987
v 0.239043 0.601812 0.542987
v 0.239043 0.601812 0.539473
v 0.239043 0.601812 0.539473
v 0.236874 0.595704 0.542987
v 0.236874 0.595704 0.539473
v 0.239043 0.601812 0.542987
v 0.239043 0.601812 0.542987
v 0.239043 0.601812 0.539473
v 0.236874 0.595704 0.542987
v 0.236874 0.595704 0.539473
vn 0 -1 0
vn 0.999914436520789 -0.013081270477779756 0
vn 1 0 0
vn -1 0 0
vn 0.9968256483144955 -0.07961549385883226 0
vn 0 1 0
vn 0.9685148203563172 -0.24895590523257446 0
vn 0.8662304543633684 -0.4996446736766361 0
vn -0.7485873633382338 0.66303616752807 0
vn -0.8127267807126769 0.5826449861728912 0
vn 0.6389234893573427 -0.7692702871861344 0
vn -0.54923133537001 0.835670353816429 0
vn 0.3144724951049508 -0.9492665852238066 0
vn -0.27208909009905613 0.9622720649842578 0
vn -0.01558332957214551 -0.99987857254741 0
vn 0.004194389014729819 0.9999912035117073 0
vn -0.3172818007660883 -0.9483313022897791 0
vn 0.27275558828693175 0.9620833586848124 0
vn -0.449819294926792 -0.893119589927107 0
vn 0.4012159058808104 0.9159835134260009 0
vn 0.9423495231336019 -0.334630208214789 0
vn -0.999914436520789 0.013081270477779756 0
vn -0.9968256483144955 0.07961549385883226 0
vn -0.9685148203563172 0.24895590523257446 0
vn -0.8662304543633684 0.4996446736766361 0
vn 0.7485873633382338 -0.66303616752807 0
vn 0.8127267807126769 -0.5826449861728912 0
vn -0.6389234893573427 0.7692702871861344 0
vn 0.54923133537001 -0.835670353816429 0
vn -0.3144724951049508 0.9492665852238066 0
vn 0.27208909009905613 -0.9622720649842578 0
vn 0.01558332957214551 0.99987857254741 0
vn -0.004194389014729819 -0.9999912035117073 0
vn 0.3172818007660883 0.9483313022897791 0
vn -0.27275558828693175 -0.9620833586848124 0
vn 0.449819294926792 0.893119589927107 0
vn -0.4012159058808104 -0.9159835134260009 0
vn -0.9423495231336019 0.334630208214789 0
usemtl material_0_0
f 5//6 6//6 7//6
f 8//6 7//6 6//6
f 13//22 14//22 15//4
f 16//4 15//4 14//22
f 21//3 22//3 23//3
f 24//3 23//3 22//3
f 27//23 28//23 13//22
f 14//22 13//22 28//23
f 33//1 34//1 35//1
f 36//1 35//1 34//1
f 39//24 40//24 27//23
f 28//23 27//23 40//24
f 45//4 46//4 47//4
f 48//4 47//4 46//4
f 51//25 52//25 39//24
f 40//24 39//24 52//25
f 57//26 58//26 59//27
f 60//27 59//27 58//26
f 63//28 64//28 51//25
f 52//25 51//25 64//28
f 67//29 58//26 68//29
f 57//26 68//29 58//26
f 63//28 71//30 64//28
f 72//30 64//28 71//30
f 75//31 67//29 76//31
f 68//29 76//31 67//29
f 71//30 79//32 72//30
f 80//32 72//30 79//32
f 83//33 75//31 84//33
f 76//31 84//33 75//31
f 79//32 87//34 80//32
f 88//34 80//32 87//34
f 91//35 83//33 92//35
f 84//33 92//35 83//33
f 87//34 95//36 88//34
f 96//36 88//34 95//36
f 99//37 91//35 100//37
f 92//35 100//37 91//35
f 105//38 106//38 107//38
f 108//38 107//38 106//38
usemtl material_1_0
f 1//1 2//1 3//1
f 2//1 1//1 4//1
f 9//2 10//3 11//3
f 10//3 9//2 12//2
f 17//4 18//4 19//4
f 18//4 17//4 20//4
f 25//5 12//2 9//2
f 12//2 25//5 26//5
f 29//6 30//6 31//6
f 30//6 29//6 32//6
f 37//7 26//5 25//5
f 26//5 37//7 38//7
f 41//3 42//3 43//3
f 42//3 41//3 44//3
f 49//8 38//7 37//7
f 38//7 49//8 50//8
f 53//9 54//10 55//10
f 54//10 53//9 56//9
f 61//11 50//8 49//8
f 50//8 61//11 62//11
f 53//9 65//12 56//9
f 65//12 53//9 66//12
f 69//13 61//11 70//13
f 61//11 69//13 62//11
f 66//12 73//14 65//12
f 73//14 66//12 74//14
f 77//15 70//13 78//15
f 70//13 77//15 69//13
f 74//14 81//16 73//14
f 81//16 74//14 82//16
f 85//17 78//15 86//17
f 78//15 85//17 77//15
f 82//16 89//18 81//16
f 89//18 82//16 90//18
f 93//19 86//17 94//19
f 86//17 93//19 85//17
f 90//18 97//20 89//18
f 97//20 90//18 98//20
f 101//21 102//21 103//21
f 102//21 101//21 104//21
