# SSTK version 0.8.0
# 143
mtllib original-143.mtl
o #ID649
v 0.010910 0.224469 0.547738
v 0.010910 0.225062 0.551740
v 0.010910 0.225062 0.547738
v 0.010910 0.224469 0.549499
v 0.010910 0.224469 0.551259
v 0.010910 0.224469 0.552332
v 0.010910 0.233027 0.551740
v 0.010910 0.233916 0.551740
v 0.010910 0.235880 0.552332
v 0.010910 0.235287 0.547738
v 0.010910 0.235880 0.549499
v 0.010910 0.235880 0.547738
v 0.010910 0.235287 0.551740
v 0.010910 0.235880 0.551259
v 0.010910 0.224469 0.552332
v 0.023358 0.224469 0.549768
v 0.023358 0.224469 0.552332
v 0.021096 0.224469 0.549768
v 0.021096 0.224469 0.546553
v 0.012688 0.224469 0.551259
v 0.010910 0.224469 0.551259
v 0.012688 0.224469 0.549499
v 0.010910 0.224469 0.546553
v 0.010910 0.224469 0.549499
v 0.010910 0.224469 0.547738
v 0.009724 0.224469 0.547145
v 0.009724 0.224469 0.546553
v 0.021506 0.227025 0.552332
v 0.017430 0.226192 0.552332
v 0.021506 0.226192 0.552332
v 0.017134 0.226192 0.552332
v 0.021506 0.234157 0.552332
v 0.017430 0.233324 0.552332
v 0.021506 0.233324 0.552332
v 0.017134 0.233324 0.552332
v 0.023358 0.224469 0.552332
v 0.021802 0.225895 0.552332
v 0.010910 0.224469 0.552332
v 0.023358 0.235880 0.552332
v 0.021802 0.227322 0.552332
v 0.021802 0.228748 0.552332
v 0.017134 0.227322 0.552332
v 0.021802 0.229341 0.552332
v 0.021802 0.231008 0.552332
v 0.016171 0.229341 0.552332
v 0.021802 0.231601 0.552332
v 0.021802 0.233027 0.552332
v 0.015578 0.231601 0.552332
v 0.021802 0.234454 0.552332
v 0.017134 0.234454 0.552332
v 0.017134 0.225895 0.552332
v 0.010910 0.235880 0.552332
v 0.015578 0.228748 0.552332
v 0.017134 0.227025 0.552332
v 0.017430 0.227025 0.552332
v 0.017134 0.233027 0.552332
v 0.017134 0.234157 0.552332
v 0.017430 0.234157 0.552332
v 0.016171 0.231008 0.552332
v 0.021209 0.231008 0.552332
v 0.009724 0.235880 0.546553
v 0.010910 0.235880 0.547738
v 0.010910 0.235880 0.546553
v 0.009724 0.235880 0.547145
v 0.021096 0.235880 0.549768
v 0.021096 0.235880 0.546553
v 0.012688 0.235880 0.549499
v 0.010910 0.235880 0.549499
v 0.023358 0.235880 0.552332
v 0.023358 0.235880 0.549768
v 0.010910 0.235880 0.552332
v 0.012688 0.235880 0.551259
v 0.010910 0.235880 0.551259
v 0.010910 0.235880 0.547738
v 0.010317 0.235287 0.547442
v 0.010910 0.235287 0.547738
v 0.009724 0.235880 0.547145
v 0.009724 0.235287 0.547145
v 0.010910 0.235287 0.551740
v 0.011354 0.235287 0.546553
v 0.011354 0.235287 0.551740
v 0.010910 0.235287 0.546553
v 0.010910 0.235287 0.547738
v 0.010317 0.235287 0.547442
v 0.009724 0.235287 0.546553
v 0.009724 0.235287 0.547145
v 0.010910 0.235287 0.551740
v 0.011354 0.233916 0.551740
v 0.010910 0.233916 0.551740
v 0.011354 0.235287 0.551740
v 0.010910 0.233916 0.551740
v 0.011354 0.233027 0.551740
v 0.010910 0.233027 0.551740
v 0.011354 0.233916 0.551740
v 0.010910 0.233027 0.551740
v 0.011354 0.225062 0.551740
v 0.010910 0.225062 0.551740
v 0.011354 0.233027 0.551740
v 0.009724 0.225062 0.546553
v 0.010910 0.225062 0.547738
v 0.010910 0.225062 0.546553
v 0.009724 0.225062 0.547145
v 0.011354 0.225062 0.551740
v 0.011354 0.225062 0.546553
v 0.010910 0.225062 0.551740
v 0.009724 0.225062 0.547145
v 0.010910 0.224469 0.547738
v 0.009724 0.224469 0.547145
v 0.010910 0.225062 0.547738
v 0.009724 0.225062 0.547145
v 0.009724 0.224469 0.546553
v 0.009724 0.225062 0.546553
v 0.009724 0.224469 0.547145
v 0.010910 0.225062 0.546553
v 0.009724 0.224469 0.546553
v 0.010910 0.224469 0.546553
v 0.009724 0.225062 0.546553
v 0.010910 0.225062 0.546553
v 0.021096 0.224469 0.546553
v 0.010910 0.224469 0.546553
v 0.011354 0.225062 0.546553
v 0.021096 0.225120 0.546553
v 0.011354 0.227174 0.546553
v 0.010910 0.235880 0.546553
v 0.011354 0.235287 0.546553
v 0.010910 0.235287 0.546553
v 0.021096 0.235229 0.546553
v 0.011354 0.233085 0.546553
v 0.021096 0.235880 0.546553
v 0.023358 0.235229 0.546553
v 0.023358 0.225120 0.546553
v 0.011354 0.227915 0.546553
v 0.011354 0.228609 0.546553
v 0.011354 0.229350 0.546553
v 0.011354 0.229804 0.546553
v 0.011354 0.230545 0.546553
v 0.011354 0.231069 0.546553
v 0.011354 0.231810 0.546553
v 0.011354 0.232344 0.546553
v 0.021096 0.225120 0.549117
v 0.021096 0.224469 0.546553
v 0.021096 0.225120 0.546553
v 0.021096 0.224469 0.549768
v 0.021096 0.225120 0.549117
v 0.023358 0.224469 0.549768
v 0.021096 0.224469 0.549768
v 0.023358 0.225120 0.549117
v 0.023358 0.235229 0.546553
v 0.023358 0.234637 0.547145
v 0.023358 0.225120 0.546553
v 0.023358 0.235229 0.549117
v 0.023358 0.234637 0.549363
v 0.023358 0.235880 0.549768
v 0.023358 0.235287 0.550013
v 0.023358 0.235880 0.552332
v 0.023358 0.235287 0.551740
v 0.023358 0.225062 0.551740
v 0.023358 0.225712 0.547145
v 0.023358 0.225120 0.549117
v 0.023358 0.225712 0.549363
v 0.023358 0.224469 0.549768
v 0.023358 0.225062 0.550013
v 0.023358 0.224469 0.552332
v 0.012688 0.236473 0.551259
v 0.010910 0.235880 0.551259
v 0.012688 0.235880 0.551259
v 0.012688 0.224469 0.551259
v 0.009724 0.223876 0.551259
v 0.012688 0.223876 0.551259
v 0.010317 0.224469 0.551259
v 0.009724 0.236473 0.551259
v 0.010910 0.224469 0.551259
v 0.010317 0.225062 0.551259
v 0.010317 0.235287 0.551259
v 0.010317 0.235880 0.551259
v 0.012688 0.224469 0.551259
v 0.012688 0.223876 0.549499
v 0.012688 0.224469 0.549499
v 0.012688 0.223876 0.551259
v 0.009724 0.223876 0.549499
v 0.010317 0.224469 0.549499
v 0.012688 0.223876 0.549499
v 0.009724 0.236473 0.549499
v 0.010317 0.225062 0.549499
v 0.010317 0.235287 0.549499
v 0.010317 0.235880 0.549499
v 0.010910 0.235880 0.549499
v 0.012688 0.236473 0.549499
v 0.012688 0.235880 0.549499
v 0.012688 0.224469 0.549499
v 0.010910 0.224469 0.549499
v 0.009724 0.235287 0.546553
v 0.009724 0.235880 0.547145
v 0.009724 0.235880 0.546553
v 0.009724 0.235287 0.547145
v 0.012688 0.236473 0.551259
v 0.012688 0.235880 0.549499
v 0.012688 0.236473 0.549499
v 0.012688 0.235880 0.551259
v 0.023358 0.235229 0.549117
v 0.021096 0.235880 0.549768
v 0.023358 0.235880 0.549768
v 0.021096 0.235229 0.549117
v 0.021096 0.235880 0.549768
v 0.021096 0.235229 0.546553
v 0.021096 0.235880 0.546553
v 0.021096 0.235229 0.549117
v 0.011354 0.230545 0.546553
v 0.011354 0.231069 0.546701
v 0.011354 0.231069 0.546553
v 0.011354 0.230545 0.546701
v 0.011354 0.231810 0.546701
v 0.011354 0.225062 0.551740
v 0.011354 0.227174 0.546553
v 0.011354 0.225062 0.546553
v 0.011354 0.227174 0.546701
v 0.011354 0.228609 0.546701
v 0.011354 0.229350 0.546701
v 0.011354 0.232344 0.546701
v 0.011354 0.233085 0.546701
v 0.011354 0.235287 0.546553
v 0.011354 0.233085 0.546553
v 0.011354 0.235287 0.551740
v 0.011354 0.233027 0.551740
v 0.011354 0.233916 0.551740
v 0.011354 0.232344 0.546553
v 0.011354 0.231810 0.546553
v 0.011354 0.229804 0.546553
v 0.011354 0.229350 0.546553
v 0.011354 0.229804 0.546701
v 0.011354 0.227915 0.546701
v 0.011354 0.228609 0.546553
v 0.011354 0.227915 0.546553
v 0.021096 0.235229 0.546553
v 0.023358 0.235229 0.549117
v 0.023358 0.235229 0.546553
v 0.021096 0.235229 0.549117
v 0.021096 0.225120 0.549117
v 0.023358 0.225120 0.546553
v 0.023358 0.225120 0.549117
v 0.021096 0.225120 0.546553
v 0.009724 0.223876 0.551259
v 0.012688 0.223876 0.549499
v 0.012688 0.223876 0.551259
v 0.009724 0.223876 0.549499
v 0.010317 0.235287 0.549499
v 0.010317 0.225062 0.551259
v 0.010317 0.225062 0.549499
v 0.010317 0.235287 0.551259
v 0.009724 0.236473 0.549499
v 0.012688 0.236473 0.551259
v 0.012688 0.236473 0.549499
v 0.009724 0.236473 0.551259
v 0.009724 0.236473 0.551259
v 0.009724 0.223876 0.549499
v 0.009724 0.236473 0.549499
v 0.009724 0.223876 0.551259
v 0.008242 0.233085 0.546701
v 0.011354 0.233085 0.546553
v 0.011354 0.233085 0.546701
v 0.008242 0.233085 0.546553
v 0.008242 0.233085 0.546701
v 0.011354 0.232344 0.546701
v 0.008242 0.232344 0.546701
v 0.011354 0.233085 0.546701
v 0.008242 0.232344 0.546553
v 0.011354 0.232344 0.546701
v 0.011354 0.232344 0.546553
v 0.008242 0.232344 0.546701
v 0.008242 0.231810 0.546701
v 0.011354 0.231810 0.546553
v 0.011354 0.231810 0.546701
v 0.008242 0.231810 0.546553
v 0.008242 0.231810 0.546701
v 0.011354 0.231069 0.546701
v 0.008242 0.231069 0.546701
v 0.011354 0.231810 0.546701
v 0.008242 0.231069 0.546553
v 0.011354 0.231069 0.546701
v 0.011354 0.231069 0.546553
v 0.008242 0.231069 0.546701
v 0.008242 0.230545 0.546701
v 0.011354 0.230545 0.546553
v 0.011354 0.230545 0.546701
v 0.008242 0.230545 0.546553
v 0.008242 0.230545 0.546701
v 0.011354 0.229804 0.546701
v 0.008242 0.229804 0.546701
v 0.011354 0.230545 0.546701
v 0.008242 0.229804 0.546553
v 0.011354 0.229804 0.546701
v 0.011354 0.229804 0.546553
v 0.008242 0.229804 0.546701
v 0.008242 0.229350 0.546701
v 0.011354 0.229350 0.546553
v 0.011354 0.229350 0.546701
v 0.008242 0.229350 0.546553
v 0.008242 0.229350 0.546701
v 0.011354 0.228609 0.546701
v 0.008242 0.228609 0.546701
v 0.011354 0.229350 0.546701
v 0.008242 0.228609 0.546553
v 0.011354 0.228609 0.546701
v 0.011354 0.228609 0.546553
v 0.008242 0.228609 0.546701
v 0.008242 0.227915 0.546701
v 0.011354 0.227915 0.546553
v 0.011354 0.227915 0.546701
v 0.008242 0.227915 0.546553
v 0.008242 0.227915 0.546701
v 0.011354 0.227174 0.546701
v 0.008242 0.227174 0.546701
v 0.011354 0.227915 0.546701
v 0.008242 0.227174 0.546553
v 0.011354 0.227174 0.546701
v 0.011354 0.227174 0.546553
v 0.008242 0.227174 0.546701
v 0.008242 0.233085 0.546701
v 0.008242 0.232344 0.546553
v 0.008242 0.233085 0.546553
v 0.008242 0.232344 0.546701
v 0.008242 0.231810 0.546701
v 0.008242 0.231069 0.546553
v 0.008242 0.231810 0.546553
v 0.008242 0.231069 0.546701
v 0.008242 0.230545 0.546553
v 0.008242 0.229804 0.546701
v 0.008242 0.229804 0.546553
v 0.008242 0.230545 0.546701
v 0.008242 0.229350 0.546701
v 0.008242 0.228609 0.546553
v 0.008242 0.229350 0.546553
v 0.008242 0.228609 0.546701
v 0.008242 0.227915 0.546701
v 0.008242 0.227174 0.546553
v 0.008242 0.227915 0.546553
v 0.008242 0.227174 0.546701
vn -1 0 0
vn 0 -1 2.9802437406800664e-8
vn 0 2.9802437406800664e-8 1
vn 0 1 -2.9802437406800664e-8
vn -0.4472135954999581 2.6656168641578423e-8 0.8944271909999154
vn 0 -0.0004194536074854167 -0.9999999120293318
vn 0 -2.9802437406800664e-8 -1
vn 0 0.00007215010737464432 -0.9999999973971812
vn 0 1 -2.980243737418409e-8
vn 0.4472135954999581 -2.665616772511743e-8 -0.8944271909999154
vn 1 0 0
vn 0 -0.7071068022600527 -0.7071067601130415
vn -0.000017559719997271333 0.0000015264055623582828 -1
vn 0 0.7071067601130415 -0.7071068022600527
usemtl material_0_0
f 1//1 2//1 3//1
f 2//1 1//1 4//1
f 2//1 4//1 5//1
f 2//1 5//1 6//1
f 2//1 6//1 7//1
f 7//1 6//1 8//1
f 8//1 6//1 9//1
f 10//1 11//1 12//1
f 11//1 10//1 13//1
f 11//1 13//1 14//1
f 14//1 13//1 9//1
f 9//1 13//1 8//1
f 15//2 16//2 17//2
f 16//2 15//2 18//2
f 18//2 15//2 19//2
f 19//2 15//2 20//2
f 20//2 15//2 21//2
f 19//2 22//2 23//2
f 22//2 19//2 20//2
f 23//2 22//2 24//2
f 23//2 24//2 25//2
f 23//2 25//2 26//2
f 23//2 26//2 27//2
f 21//2 22//2 20//2
f 22//2 21//2 24//2
f 28//3 29//3 30//3
f 29//3 28//3 31//3
f 32//3 33//3 34//3
f 33//3 32//3 35//3
f 36//3 37//3 38//3
f 37//3 36//3 39//3
f 37//3 39//3 40//3
f 40//3 39//3 41//3
f 40//3 41//3 42//3
f 41//3 39//3 43//3
f 43//3 39//3 44//3
f 43//3 44//3 45//3
f 44//3 39//3 46//3
f 46//3 39//3 47//3
f 46//3 47//3 48//3
f 47//3 39//3 49//3
f 49//3 39//3 50//3
f 38//3 51//3 52//3
f 51//3 38//3 37//3
f 52//3 51//3 31//3
f 52//3 31//3 53//3
f 53//3 31//3 54//3
f 54//3 31//3 28//3
f 54//3 28//3 55//3
f 53//3 54//3 42//3
f 53//3 42//3 41//3
f 52//3 53//3 48//3
f 52//3 48//3 56//3
f 56//3 48//3 47//3
f 52//3 56//3 35//3
f 52//3 35//3 57//3
f 57//3 35//3 32//3
f 57//3 32//3 58//3
f 52//3 57//3 50//3
f 52//3 50//3 39//3
f 44//3 59//3 45//3
f 59//3 44//3 60//3
f 61//4 62//4 63//4
f 62//4 61//4 64//4
f 63//4 65//4 66//4
f 65//4 63//4 67//4
f 67//4 63//4 68//4
f 68//4 63//4 62//4
f 65//4 69//4 70//4
f 69//4 65//4 71//4
f 71//4 65//4 72//4
f 72//4 65//4 67//4
f 71//4 72//4 73//4
f 68//4 72//4 67//4
f 72//4 68//4 73//4
f 74//5 75//5 76//5
f 75//5 77//5 78//5
f 77//5 75//5 74//5
f 79//2 80//2 81//2
f 80//2 79//2 82//2
f 82//2 79//2 83//2
f 82//2 83//2 84//2
f 82//2 84//2 85//2
f 85//2 84//2 86//2
f 87//6 88//6 89//6
f 88//6 87//6 90//6
f 91//7 92//7 93//7
f 92//7 91//7 94//7
f 95//8 96//8 97//8
f 96//8 95//8 98//8
f 99//9 100//9 101//9
f 100//9 99//9 102//9
f 101//9 103//9 104//9
f 103//9 101//9 105//9
f 105//9 101//9 100//9
f 106//10 107//10 108//10
f 107//10 106//10 109//10
f 110//11 111//11 112//11
f 111//11 110//11 113//11
f 114//3 115//3 116//3
f 115//3 114//3 117//3
f 118//7 119//7 120//7
f 119//7 118//7 121//7
f 119//7 121//7 122//7
f 122//7 121//7 123//7
f 124//7 125//7 126//7
f 125//7 127//7 128//7
f 127//7 125//7 129//7
f 129//7 125//7 124//7
f 122//7 130//7 131//7
f 130//7 122//7 123//7
f 130//7 123//7 132//7
f 130//7 132//7 133//7
f 130//7 133//7 134//7
f 130//7 134//7 135//7
f 130//7 135//7 136//7
f 130//7 136//7 137//7
f 130//7 137//7 138//7
f 130//7 138//7 139//7
f 130//7 139//7 128//7
f 130//7 128//7 127//7
f 140//11 141//11 142//11
f 141//11 140//11 143//11
f 144//12 145//12 146//12
f 145//12 144//12 147//12
f 148//11 149//11 150//11
f 149//11 148//11 151//11
f 149//11 151//11 152//11
f 152//11 151//11 153//11
f 152//11 153//11 154//11
f 154//11 153//11 155//11
f 154//11 155//11 156//11
f 156//11 155//11 157//11
f 150//11 158//11 159//11
f 158//11 150//11 149//11
f 159//11 158//11 160//11
f 159//11 160//11 161//11
f 161//11 160//11 162//11
f 161//11 162//11 163//11
f 163//11 162//11 157//11
f 163//11 157//11 155//11
f 164//3 165//3 166//3
f 167//3 168//3 169//3
f 168//3 167//3 170//3
f 168//3 170//3 171//3
f 170//3 167//3 172//3
f 171//3 170//3 173//3
f 171//3 173//3 174//3
f 171//3 174//3 175//3
f 171//3 175//3 165//3
f 171//3 165//3 164//3
f 176//11 177//11 178//11
f 177//11 176//11 179//11
f 180//13 181//13 182//13
f 181//13 180//13 183//13
f 181//13 183//13 184//13
f 184//13 183//13 185//13
f 185//13 183//13 186//13
f 186//13 183//13 187//13
f 187//13 188//13 189//13
f 188//13 187//13 183//13
f 181//13 190//13 182//13
f 190//13 181//13 191//13
f 192//1 193//1 194//1
f 193//1 192//1 195//1
f 196//11 197//11 198//11
f 197//11 196//11 199//11
f 200//14 201//14 202//14
f 201//14 200//14 203//14
f 204//11 205//11 206//11
f 205//11 204//11 207//11
f 208//1 209//1 210//1
f 209//1 208//1 211//1
f 209//1 211//1 212//1
f 213//1 214//1 215//1
f 214//1 213//1 216//1
f 216//1 213//1 217//1
f 217//1 213//1 218//1
f 218//1 213//1 211//1
f 211//1 213//1 219//1
f 219//1 213//1 220//1
f 220//1 221//1 222//1
f 221//1 220//1 223//1
f 223//1 220//1 213//1
f 223//1 213//1 224//1
f 223//1 224//1 225//1
f 212//1 226//1 227//1
f 226//1 212//1 219//1
f 219//1 212//1 211//1
f 218//1 228//1 229//1
f 228//1 218//1 230//1
f 230//1 218//1 211//1
f 231//1 232//1 233//1
f 232//1 231//1 217//1
f 217//1 231//1 216//1
f 234//4 235//4 236//4
f 235//4 234//4 237//4
f 238//2 239//2 240//2
f 239//2 238//2 241//2
f 214//1 231//1 233//1
f 231//1 214//1 216//1
f 232//1 218//1 229//1
f 218//1 232//1 217//1
f 230//1 208//1 228//1
f 208//1 230//1 211//1
f 209//1 227//1 210//1
f 227//1 209//1 212//1
f 226//1 220//1 222//1
f 220//1 226//1 219//1
f 242//2 243//2 244//2
f 243//2 242//2 245//2
f 246//11 247//11 248//11
f 247//11 246//11 249//11
f 250//4 251//4 252//4
f 251//4 250//4 253//4
f 254//11 255//11 256//11
f 255//11 254//11 257//11
f 258//2 259//2 260//2
f 259//2 258//2 261//2
f 262//7 263//7 264//7
f 263//7 262//7 265//7
f 266//4 267//4 268//4
f 267//4 266//4 269//4
f 270//2 271//2 272//2
f 271//2 270//2 273//2
f 274//7 275//7 276//7
f 275//7 274//7 277//7
f 278//4 279//4 280//4
f 279//4 278//4 281//4
f 282//2 283//2 284//2
f 283//2 282//2 285//2
f 286//7 287//7 288//7
f 287//7 286//7 289//7
f 290//4 291//4 292//4
f 291//4 290//4 293//4
f 294//2 295//2 296//2
f 295//2 294//2 297//2
f 298//7 299//7 300//7
f 299//7 298//7 301//7
f 302//4 303//4 304//4
f 303//4 302//4 305//4
f 306//2 307//2 308//2
f 307//2 306//2 309//2
f 310//7 311//7 312//7
f 311//7 310//7 313//7
f 314//4 315//4 316//4
f 315//4 314//4 317//4
f 318//11 319//11 320//11
f 319//11 318//11 321//11
f 322//11 323//11 324//11
f 323//11 322//11 325//11
f 326//11 327//11 328//11
f 327//11 326//11 329//11
f 330//11 331//11 332//11
f 331//11 330//11 333//11
f 334//11 335//11 336//11
f 335//11 334//11 337//11
