# SSTK version 0.8.0
# 19
mtllib original-19.mtl
o mesh38/mesh38-geometry#mesh38-geometry
v 0.386705 0.136263 0.400240
v 0.382936 0.110436 0.400238
v 0.382915 0.136260 0.400238
v 0.386725 0.110439 0.400240
v 0.382915 0.136260 0.400530
v 0.386705 0.136263 0.400532
v 0.386725 0.110439 0.400532
v 0.382936 0.110436 0.400530
vt -8.923274 -6.946847
vt -8.920368 -6.983171
vt -8.920368 -6.946847
vt -8.923274 -6.983171
vt 3.897584 116.901597
vt 3.87731 116.902867
vt 3.87731 116.901597
vt -8.920368 116.901597
vt -8.923274 116.902867
vt -8.923274 116.901597
vt -3.87731 116.901597
vt -3.897584 116.902867
vt -3.897584 116.901597
vt 8.923274 116.902867
vt 8.920368 116.901597
vt 8.923274 116.901597
vt 3.897584 116.902867
vt -8.920368 116.902867
vt -3.87731 116.902867
vt 8.920368 116.902867
vt 8.920368 -6.983171
vt 8.923274 -6.946847
vt 8.920368 -6.946847
vt 8.923274 -6.983171
vn 0.0005652669567531929 -1.0619960539759596e-7 -0.9999998402366155
vn -0.9999995219762342 -0.0007978225805097954 -0.0005652666921226232
vn -0.0007978223930158204 0.9999996817395087 -5.571822967907938e-7
vn 0.9999995219762342 0.0007978225805097954 0.0005652666921226232
vn 0.0007978223930158204 -0.9999996817395087 5.571822967907938e-7
vn -0.0005652669567531929 1.0619960539759596e-7 0.9999998402366155
usemtl material_0_0
f 1/1/1 2/2/1 3/3/1
f 2/2/1 1/1/1 4/4/1
f 2/5/2 5/6/2 3/7/2
f 3/8/3 6/9/3 1/10/3
f 1/11/4 7/12/4 4/13/4
f 7/14/5 2/15/5 4/16/5
f 5/6/2 2/5/2 8/17/2
f 6/9/3 3/8/3 5/18/3
f 7/12/4 1/11/4 6/19/4
f 2/15/5 7/14/5 8/20/5
f 8/21/6 6/22/6 5/23/6
f 6/22/6 8/21/6 7/24/6
usemtl material_1_0
f 3//6 2//6 1//6
f 4//6 1//6 2//6
f 3//4 5//4 2//4
f 1//5 6//5 3//5
f 4//2 7//2 1//2
f 4//3 2//3 7//3
f 8//4 2//4 5//4
f 5//5 3//5 6//5
f 6//2 1//2 7//2
f 8//3 7//3 2//3
f 5//1 6//1 8//1
f 7//1 8//1 6//1
