# SSTK version 0.8.0
# 20
mtllib original-20.mtl
o mesh39/mesh39-geometry#mesh39-geometry
v 0.283659 0.136181 0.400474
v 0.283680 0.110357 0.400181
v 0.283680 0.110357 0.400474
v 0.283659 0.136181 0.400181
v 0.297883 0.110369 0.400190
v 0.287450 0.132826 0.400476
v 0.297862 0.136192 0.400190
v 0.287466 0.113717 0.400184
v 0.297882 0.110369 0.400482
v 0.297862 0.136192 0.400482
v 0.287456 0.125035 0.400476
v 0.287450 0.132826 0.400184
v 0.287459 0.121677 0.400184
v 0.297880 0.113726 0.400190
v 0.287465 0.113717 0.400476
v 0.297864 0.132834 0.400482
v 0.297865 0.132834 0.400190
v 0.297880 0.113726 0.400482
v 0.287459 0.121677 0.400476
v 0.287457 0.125035 0.400184
v 0.297871 0.125043 0.400482
v 0.297871 0.125043 0.400190
v 0.297873 0.121686 0.400482
v 0.297874 0.121686 0.400190
vt 3.87731 116.902867
vt 3.897584 116.901597
vt 3.897584 116.902867
vt 3.87731 116.901597
vt 8.855146 116.901597
vt 8.844255 116.902867
vt 8.844255 116.901597
vt 8.84716 -6.95157
vt 8.844255 -6.946847
vt 8.844255 -6.983171
vt -8.844255 116.902867
vt -8.855146 116.901597
vt -8.844255 116.901597
vt -8.84716 -6.978449
vt -8.844255 -6.983171
vt -8.844255 -6.946847
vt 8.855146 116.902867
vt -8.855146 -6.983171
vt 8.855146 -6.946847
vt 8.84716 -6.962529
vt -8.855146 116.902867
vt -8.855146 -6.946847
vt -8.84716 -6.95157
vt -8.84716 -6.967252
vt -3.894948 116.901597
vt -3.897584 116.902867
vt -3.897584 116.901597
vt 8.84716 -6.978449
vt 8.855146 -6.983171
vt -8.855146 -6.978449
vt 8.855146 -6.95157
vt -3.886063 116.902867
vt -3.879946 116.901597
vt -3.879946 116.902867
vt -3.87731 116.901597
vt -3.87731 116.902867
vt -8.855146 -6.95157
vt -3.888699 116.901597
vt -3.894948 116.902867
vt 8.855146 -6.978449
vt -8.84716 116.901597
vt 8.84716 116.901597
vt 8.84716 116.902867
vt 8.84716 -6.967252
vt -3.886063 116.901597
vt -8.84716 -6.962529
vt -3.888699 116.902867
vt -8.84716 116.902867
vt 8.855146 -6.962529
vt -8.855146 -6.962529
vt 8.855146 -6.967252
vt -8.855146 -6.967252
vn -0.9999995219762342 -0.0007978225805097954 -0.0005652666921226232
vn 0.0007978223930158204 -0.9999996817395087 5.571822967907938e-7
vn -0.0005652669567531929 1.0619960539759596e-7 0.9999998402366155
vn -0.0007978223930158204 0.9999996817395087 -5.571822967907938e-7
vn 0.0005652669567531929 -1.0619960539759596e-7 -0.9999998402366155
vn 0.9999995219762342 0.0007978225805097954 0.0005652666921226232
usemtl material_0_0
f 1/1/1 2/2/1 3/3/1
f 2/2/1 1/1/1 4/4/1
f 5/5/2 3/6/2 2/7/2
f 6/8/3 1/9/3 3/10/3
f 1/11/4 7/12/4 4/13/4
f 8/14/5 2/15/5 4/16/5
f 3/6/2 5/5/2 9/17/2
f 2/15/5 8/14/5 5/18/5
f 1/9/3 6/8/3 10/19/3
f 6/8/3 3/10/3 11/20/3
f 7/12/4 1/11/4 10/21/4
f 7/22/5 12/23/5 4/16/5
f 8/14/5 4/16/5 13/24/5
f 14/25/6 9/26/6 5/27/6
f 15/28/3 3/10/3 9/29/3
f 5/18/5 8/14/5 14/30/5
f 10/19/3 6/8/3 16/31/3
f 3/10/3 15/28/3 11/20/3
f 11/32/6 12/33/6 6/34/6
f 16/34/6 7/35/6 10/36/6
f 12/23/5 7/22/5 17/37/5
f 13/24/5 4/16/5 12/23/5
f 13/38/6 15/39/6 8/25/6
f 9/26/6 14/25/6 18/39/6
f 15/28/3 9/29/3 18/40/3
f 8/41/4 18/21/4 14/12/4
f 12/42/2 16/17/2 6/43/2
f 19/44/3 11/20/3 15/28/3
f 12/33/6 11/32/6 20/45/6
f 7/35/6 16/34/6 17/33/6
f 16/17/2 12/42/2 17/5/2
f 13/24/5 12/23/5 20/46/5
f 15/39/6 13/38/6 19/47/6
f 18/21/4 8/41/4 15/48/4
f 11/20/3 19/44/3 21/49/3
f 11/48/4 22/12/4 20/41/4
f 22/50/5 13/24/5 20/46/5
f 13/42/2 23/17/2 19/43/2
f 21/49/3 19/44/3 23/51/3
f 22/12/4 11/48/4 21/21/4
f 13/24/5 22/50/5 24/52/5
f 23/17/2 13/42/2 24/5/2
f 23/47/6 22/45/6 21/32/6
f 22/45/6 23/47/6 24/38/6
usemtl material_1_0
f 3//6 2//6 1//6
f 4//6 1//6 2//6
f 2//4 3//4 5//4
f 3//5 1//5 6//5
f 4//2 7//2 1//2
f 4//3 2//3 8//3
f 9//4 5//4 3//4
f 5//3 8//3 2//3
f 10//5 6//5 1//5
f 11//5 3//5 6//5
f 10//2 1//2 7//2
f 4//3 12//3 7//3
f 13//3 4//3 8//3
f 5//1 9//1 14//1
f 9//5 3//5 15//5
f 14//3 8//3 5//3
f 16//5 6//5 10//5
f 11//5 15//5 3//5
f 6//1 12//1 11//1
f 10//1 7//1 16//1
f 17//3 7//3 12//3
f 12//3 4//3 13//3
f 8//1 15//1 13//1
f 18//1 14//1 9//1
f 18//5 9//5 15//5
f 14//2 18//2 8//2
f 6//4 16//4 12//4
f 15//5 11//5 19//5
f 20//1 11//1 12//1
f 17//1 16//1 7//1
f 17//4 12//4 16//4
f 20//3 12//3 13//3
f 19//1 13//1 15//1
f 15//2 8//2 18//2
f 21//5 19//5 11//5
f 20//2 22//2 11//2
f 20//3 13//3 22//3
f 19//4 23//4 13//4
f 23//5 19//5 21//5
f 21//2 11//2 22//2
f 24//3 22//3 13//3
f 24//4 13//4 23//4
f 21//1 22//1 23//1
f 24//1 23//1 22//1
