mtllib new-7.mtl
v -0.019476 0.691434 -0.418904
v -0.019476 0.686838 -0.419818
v -0.019476 0.695870 -0.417398
v -0.019476 0.702420 -0.403396
v -0.019476 0.682163 -0.420125
v -0.019476 0.700073 -0.415326
v -0.019476 0.677487 -0.419818
v -0.019476 0.708276 -0.381544
v -0.019476 0.672892 -0.418904
v -0.019476 0.719201 -0.384472
v -0.019476 0.669643 -0.394613
v -0.019476 0.713346 -0.406323
v -0.013861 0.708276 -0.381544
v -0.019476 0.663788 -0.416465
v -0.019476 0.703968 -0.412723
v -0.019476 0.725056 -0.362620
v -0.019476 0.675498 -0.372762
v 0.040699 0.669643 -0.394613
v 0.035084 0.708276 -0.381544
v -0.013861 0.712677 -0.365116
v -0.019476 0.707491 -0.409633
v -0.019476 0.714131 -0.359693
v -0.013861 0.719201 -0.384472
v -0.019476 0.716762 -0.393576
v 0.040699 0.663788 -0.416465
v 0.040699 0.702420 -0.403396
v 0.040699 0.713346 -0.406323
v 0.040699 0.708276 -0.381544
v -0.013861 0.723603 -0.368044
v -0.019476 0.710580 -0.406111
v 0.040699 0.714131 -0.359693
v 0.040699 0.719201 -0.384472
v -0.019476 0.715256 -0.398013
v 0.040699 0.675498 -0.372762
v 0.035084 0.712677 -0.365116
v 0.035084 0.719201 -0.384472
v 0.035084 0.723603 -0.368044
v -0.019476 0.713184 -0.402215
v 0.040699 0.725056 -0.362620
v 0.040699 0.716762 -0.393576
v 0.040699 0.672892 -0.418904
v 0.040699 0.700073 -0.415326
v 0.040699 0.715256 -0.398013
v 0.040699 0.677487 -0.419818
v 0.040699 0.695870 -0.417398
v 0.040699 0.713184 -0.402215
v 0.040699 0.682163 -0.420125
v 0.040699 0.691434 -0.418904
v 0.040699 0.703968 -0.412723
v 0.040699 0.710580 -0.406111
v 0.040699 0.686838 -0.419818
v 0.040699 0.707491 -0.409633
vn -1.000000 0.000000 0.000000
vn 1.000000 0.000000 0.000000
vn 0.000000 0.258819 0.965926
vn 0.000000 -0.258819 -0.965926
vn 0.000000 0.965926 -0.258819
vn 0.000000 -0.965926 0.258819
vn 0.000000 -0.200481 0.979698
vn 0.000000 0.200481 -0.979698
usemtl material-0
f 4//2 2//2 1//2
f 4//2 1//2 3//2
f 4//2 5//2 2//2
f 4//2 3//2 6//2
f 4//2 7//2 5//2
f 4//2 6//2 8//2
f 4//2 9//2 7//2
f 8//2 6//2 10//2
f 4//2 8//2 11//2
f 4//2 14//2 9//2
f 10//2 6//2 15//2
f 10//3 17//3 8//3
f 17//2 11//2 8//2
f 14//2 4//2 11//2
f 18//3 4//3 11//3
f 10//2 15//2 21//2
f 17//5 18//5 11//5
f 4//3 18//3 26//3
f 10//2 21//2 30//2
f 10//2 33//2 24//2
f 18//5 17//5 34//5
f 18//1 34//1 26//1
f 10//2 30//2 38//2
f 10//2 38//2 33//2
f 28//1 26//1 34//1
usemtl material-1
f 1//1 2//1 4//1
f 3//1 1//1 4//1
f 2//1 5//1 4//1
f 6//1 3//1 4//1
f 5//1 7//1 4//1
f 8//1 6//1 4//1
f 7//1 9//1 4//1
f 10//1 6//1 8//1
f 8//2 4//2 12//2
f 8//5 13//5 4//5
f 9//1 14//1 4//1
f 15//1 6//1 10//1
f 10//2 16//2 8//2
f 8//4 17//4 10//4
f 10//2 8//2 12//2
f 11//1 4//1 14//1
f 11//4 4//4 18//4
f 11//2 14//2 4//2
f 12//2 4//2 14//2
f 19//5 4//5 13//5
f 20//5 13//5 8//5
f 21//1 15//1 10//1
f 22//2 8//2 16//2
f 16//6 10//6 23//6
f 24//2 10//2 12//2
f 11//6 18//6 17//6
f 14//6 25//6 11//6
f 26//4 18//4 4//4
f 18//6 11//6 25//6
f 12//7 14//7 27//7
f 19//5 28//5 4//5
f 13//4 23//4 19//4
f 20//1 29//1 13//1
f 22//5 20//5 8//5
f 30//1 21//1 10//1
f 22//4 16//4 31//4
f 23//6 10//6 32//6
f 29//6 16//6 23//6
f 24//1 33//1 10//1
f 10//6 24//6 32//6
f 12//6 27//6 24//6
f 34//6 17//6 18//6
f 25//7 27//7 14//7
f 18//2 25//2 26//2
f 18//1 26//1 25//1
f 26//5 4//5 28//5
f 35//5 28//5 19//5
f 36//4 19//4 23//4
f 23//1 13//1 29//1
f 29//3 20//3 37//3
f 31//5 20//5 22//5
f 38//1 30//1 10//1
f 39//4 31//4 16//4
f 23//6 32//6 36//6
f 37//6 16//6 29//6
f 33//1 38//1 10//1
f 32//6 24//6 40//6
f 40//6 24//6 27//6
f 27//1 25//1 26//1
f 41//2 26//2 25//2
f 28//2 26//2 42//2
f 28//1 27//1 26//1
f 31//5 28//5 35//5
f 35//2 19//2 37//2
f 36//2 37//2 19//2
f 35//3 37//3 20//3
f 20//5 31//5 35//5
f 39//1 32//1 31//1
f 16//6 37//6 39//6
f 39//6 36//6 32//6
f 40//2 32//2 43//2
f 40//1 27//1 32//1
f 44//2 26//2 41//2
f 42//2 26//2 45//2
f 32//2 28//2 42//2
f 32//1 27//1 28//1
f 28//1 31//1 32//1
f 37//6 36//6 39//6
f 43//2 32//2 46//2
f 47//2 26//2 44//2
f 45//2 26//2 48//2
f 49//2 32//2 42//2
f 46//2 32//2 50//2
f 51//2 26//2 47//2
f 48//2 26//2 51//2
f 52//2 32//2 49//2
f 50//2 32//2 52//2
usemtl material-2
f 11//1 8//1 4//1
f 8//1 11//1 17//1
f 11//5 25//5 14//5
f 25//5 11//5 18//5
f 26//2 34//2 18//2
f 34//2 26//2 28//2
usemtl material-3
f 12//1 4//1 8//1
f 4//6 13//6 8//6
f 8//1 16//1 10//1
f 12//1 8//1 10//1
f 4//1 14//1 11//1
f 14//1 4//1 12//1
f 13//6 4//6 19//6
f 8//6 13//6 20//6
f 16//1 8//1 22//1
f 23//5 10//5 16//5
f 12//1 10//1 24//1
f 27//8 14//8 12//8
f 4//6 28//6 19//6
f 19//3 23//3 13//3
f 13//2 29//2 20//2
f 8//6 20//6 22//6
f 31//3 16//3 22//3
f 32//5 10//5 23//5
f 23//5 16//5 29//5
f 32//5 24//5 10//5
f 24//5 27//5 12//5
f 14//8 27//8 25//8
f 25//2 26//2 18//2
f 28//6 4//6 26//6
f 19//6 28//6 35//6
f 23//3 19//3 36//3
f 29//2 13//2 23//2
f 37//4 20//4 29//4
f 22//6 20//6 31//6
f 16//3 31//3 39//3
f 36//5 32//5 23//5
f 29//5 16//5 37//5
f 40//5 24//5 32//5
f 27//5 24//5 40//5
f 26//2 25//2 27//2
f 26//2 27//2 28//2
f 35//6 28//6 31//6
f 37//1 19//1 35//1
f 19//1 37//1 36//1
f 20//4 37//4 35//4
f 35//6 31//6 20//6
f 31//2 32//2 39//2
f 39//5 37//5 16//5
f 32//5 36//5 39//5
f 32//2 27//2 40//2
f 28//2 27//2 32//2
f 32//2 31//2 28//2
f 39//5 36//5 37//5
usemtl material-4
f 26//1 25//1 18//1
f 25//1 26//1 41//1
f 42//1 26//1 28//1
f 43//1 32//1 40//1
f 41//1 26//1 44//1
f 45//1 26//1 42//1
f 42//1 28//1 32//1
f 46//1 32//1 43//1
f 44//1 26//1 47//1
f 48//1 26//1 45//1
f 42//1 32//1 49//1
f 50//1 32//1 46//1
f 47//1 26//1 51//1
f 51//1 26//1 48//1
f 49//1 32//1 52//1
f 52//1 32//1 50//1