# SSTK version 0.8.0
# 174
mtllib original-174.mtl
o mesh117/mesh117-geometry#mesh117-geometry
v -0.401543 -0.165384 0.125485
v -0.403965 -0.165384 0.138121
v -0.403965 -0.165384 0.125485
v -0.401543 -0.165384 0.138121
v -0.401543 -0.165384 0.132190
v -0.401543 -0.165384 0.135190
v -0.398707 -0.165384 0.128967
v -0.400413 -0.165384 0.134009
v -0.398853 -0.165384 0.132311
v -0.395725 -0.165384 0.128967
v -0.398112 -0.165384 0.138121
v -0.395500 -0.165384 0.138121
vn 0 -1 0
vn 0 1 0
usemtl material_0_0
f 1//1 2//1 3//1
f 2//1 1//1 4//1
f 3//2 2//2 1//2
f 4//2 1//2 2//2
f 4//1 1//1 5//1
f 5//2 1//2 4//2
f 4//1 5//1 6//1
f 6//2 5//2 4//2
f 7//1 6//1 5//1
f 5//2 6//2 7//2
f 6//1 7//1 8//1
f 8//2 7//2 6//2
f 8//1 7//1 9//1
f 9//2 7//2 8//2
f 9//1 7//1 10//1
f 10//2 7//2 9//2
f 9//1 11//1 8//1
f 8//2 11//2 9//2
f 11//1 9//1 12//1
f 12//2 9//2 11//2
