# SSTK version 0.8.0
# 112
mtllib original-112.mtl
o mesh74/mesh74-geometry#mesh74-geometry
v 0.422608 -0.165384 0.256344
v 0.420424 -0.165384 0.258893
v 0.420424 -0.165384 0.256344
v 0.422608 -0.165384 0.258893
v 0.420424 -0.165384 0.263763
v 0.420424 -0.165384 0.252077
v 0.420344 -0.165384 0.268702
v 0.419522 -0.165384 0.268629
v 0.420486 -0.165384 0.265487
v 0.418785 -0.165384 0.268412
v 0.421681 -0.165384 0.268583
v 0.418183 -0.165384 0.268079
v 0.420771 -0.165384 0.265891
v 0.417766 -0.165384 0.267661
v 0.421311 -0.165384 0.266051
v 0.417492 -0.165384 0.267119
v 0.422597 -0.165384 0.265743
v 0.417317 -0.165384 0.266415
v 0.422870 -0.165384 0.268224
v 0.417215 -0.165384 0.264162
v 0.417215 -0.165384 0.258893
v 0.417215 -0.165384 0.256344
v 0.417215 -0.165384 0.253943
v 0.415747 -0.165384 0.258893
v 0.415747 -0.165384 0.256344
vn 0 -1 0
vn 0 1 0
usemtl material_0_0
f 1//1 2//1 3//1
f 2//1 1//1 4//1
f 3//2 2//2 1//2
f 4//2 1//2 2//2
f 5//1 3//1 2//1
f 2//2 3//2 5//2
f 5//1 6//1 3//1
f 3//2 6//2 5//2
f 7//1 6//1 5//1
f 5//2 6//2 7//2
f 8//1 6//1 7//1
f 7//2 6//2 8//2
f 7//1 5//1 9//1
f 9//2 5//2 7//2
f 10//1 6//1 8//1
f 8//2 6//2 10//2
f 7//1 9//1 11//1
f 11//2 9//2 7//2
f 12//1 6//1 10//1
f 10//2 6//2 12//2
f 11//1 9//1 13//1
f 13//2 9//2 11//2
f 14//1 6//1 12//1
f 12//2 6//2 14//2
f 11//1 13//1 15//1
f 15//2 13//2 11//2
f 16//1 6//1 14//1
f 14//2 6//2 16//2
f 11//1 15//1 17//1
f 17//2 15//2 11//2
f 18//1 6//1 16//1
f 16//2 6//2 18//2
f 11//1 17//1 19//1
f 19//2 17//2 11//2
f 20//1 6//1 18//1
f 18//2 6//2 20//2
f 21//1 6//1 20//1
f 20//2 6//2 21//2
f 22//1 6//1 21//1
f 21//2 6//2 22//2
f 6//1 22//1 23//1
f 23//2 22//2 6//2
f 24//1 22//1 21//1
f 21//2 22//2 24//2
f 22//1 24//1 25//1
f 25//2 24//2 22//2
