# SSTK version 0.8.0
# 192
mtllib original-192.mtl
o mesh128/mesh128-geometry#mesh128-geometry
v 0.170541 -0.165384 0.169545
v 0.159105 -0.165384 0.177249
v 0.159105 -0.165384 0.174495
v 0.162564 -0.165384 0.175838
v 0.170541 -0.165384 0.172788
v 0.170541 -0.165384 0.182222
v 0.170541 -0.165384 0.179001
vn 0 -1 0
vn 0 1 0
usemtl material_0_0
f 1//1 2//1 3//1
f 2//1 1//1 4//1
f 3//2 2//2 1//2
f 4//2 1//2 2//2
f 4//1 1//1 5//1
f 5//2 1//2 4//2
f 4//1 6//1 2//1
f 2//2 6//2 4//2
f 6//1 4//1 7//1
f 7//2 4//2 6//2
