# SSTK version 0.8.0
# 128
mtllib original-128.mtl
o mesh84/mesh84-geometry#mesh84-geometry
v -0.336594 -0.165384 0.251788
v -0.333226 -0.165384 0.254610
v -0.336594 -0.165384 0.268470
v -0.325158 -0.165384 0.251788
v -0.333226 -0.165384 0.268470
v -0.325158 -0.165384 0.254610
v -0.333226 -0.165384 0.258559
v -0.333226 -0.165384 0.261381
v -0.326262 -0.165384 0.258559
v -0.326262 -0.165384 0.261381
vn 0 -1 0
vn 0 1 0
usemtl material_0_0
f 1//1 2//1 3//1
f 2//1 1//1 4//1
f 3//2 2//2 1//2
f 4//2 1//2 2//2
f 2//1 5//1 3//1
f 3//2 5//2 2//2
f 2//1 4//1 6//1
f 6//2 4//2 2//2
f 5//1 2//1 7//1
f 7//2 2//2 5//2
f 5//1 7//1 8//1
f 8//2 7//2 5//2
f 9//1 8//1 7//1
f 7//2 8//2 9//2
f 8//1 9//1 10//1
f 10//2 9//2 8//2
