# SSTK version 0.8.0
# 226
mtllib original-226.mtl
o mesh152/mesh152-geometry#mesh152-geometry
v -0.137441 -0.165384 -0.006158
v -0.136485 -0.165384 0.002900
v -0.139079 -0.165384 0.002524
v -0.135017 -0.165384 -0.003166
v -0.128986 -0.165384 -0.006158
v -0.135518 -0.165384 -0.000332
v -0.128986 -0.165384 -0.003166
v -0.135921 -0.165384 0.002367
v -0.135321 -0.165384 0.001986
v -0.134437 -0.165384 -0.000733
v -0.134686 -0.165384 0.001758
v -0.134016 -0.165384 0.001682
v -0.133333 -0.165384 -0.000867
v -0.133016 -0.165384 0.001874
v -0.132309 -0.165384 -0.000770
v -0.132223 -0.165384 0.002450
v -0.131367 -0.165384 -0.000480
v -0.131707 -0.165384 0.003410
v -0.131535 -0.165384 0.004755
v -0.131384 -0.165384 0.010029
v -0.130334 -0.165384 0.009339
v -0.131708 -0.165384 0.006187
v -0.130506 -0.165384 0.000004
v -0.132229 -0.165384 0.007207
v -0.129725 -0.165384 0.000681
v -0.132592 -0.165384 0.010443
v -0.129441 -0.165384 0.008373
v -0.133000 -0.165384 0.007817
v -0.129078 -0.165384 0.001512
v -0.133925 -0.165384 0.008020
v -0.128918 -0.165384 0.007538
v -0.133959 -0.165384 0.010581
v -0.128616 -0.165384 0.002459
v -0.134750 -0.165384 0.007862
v -0.128545 -0.165384 0.006646
v -0.135060 -0.165384 0.010503
v -0.128339 -0.165384 0.003521
v -0.135472 -0.165384 0.007389
v -0.128321 -0.165384 0.005700
v -0.136010 -0.165384 0.006645
v -0.128246 -0.165384 0.004698
v -0.136055 -0.165384 0.010271
v -0.136280 -0.165384 0.005676
v -0.136944 -0.165384 0.009883
v -0.137725 -0.165384 0.009340
v -0.138380 -0.165384 0.008667
v -0.138889 -0.165384 0.007887
v -0.139251 -0.165384 0.007000
v -0.139466 -0.165384 0.006006
vn 0 -1 0
vn 0 1 0
usemtl material_0_0
f 1//1 2//1 3//1
f 2//1 1//1 4//1
f 3//2 2//2 1//2
f 4//2 1//2 2//2
f 4//1 1//1 5//1
f 5//2 1//2 4//2
f 2//1 4//1 6//1
f 6//2 4//2 2//2
f 4//1 5//1 7//1
f 7//2 5//2 4//2
f 2//1 6//1 8//1
f 8//2 6//2 2//2
f 6//1 9//1 8//1
f 8//2 9//2 6//2
f 9//1 6//1 10//1
f 10//2 6//2 9//2
f 9//1 10//1 11//1
f 11//2 10//2 9//2
f 11//1 10//1 12//1
f 12//2 10//2 11//2
f 12//1 10//1 13//1
f 13//2 10//2 12//2
f 12//1 13//1 14//1
f 14//2 13//2 12//2
f 14//1 13//1 15//1
f 15//2 13//2 14//2
f 14//1 15//1 16//1
f 16//2 15//2 14//2
f 16//1 15//1 17//1
f 17//2 15//2 16//2
f 16//1 17//1 18//1
f 18//2 17//2 16//2
f 18//1 17//1 19//1
f 19//2 17//2 18//2
f 19//1 17//1 20//1
f 20//2 17//2 19//2
f 20//1 17//1 21//1
f 21//2 17//2 20//2
f 20//1 22//1 19//1
f 19//2 22//2 20//2
f 21//1 17//1 23//1
f 23//2 17//2 21//2
f 20//1 24//1 22//1
f 22//2 24//2 20//2
f 21//1 23//1 25//1
f 25//2 23//2 21//2
f 26//1 24//1 20//1
f 20//2 24//2 26//2
f 21//1 25//1 27//1
f 27//2 25//2 21//2
f 26//1 28//1 24//1
f 24//2 28//2 26//2
f 27//1 25//1 29//1
f 29//2 25//2 27//2
f 26//1 30//1 28//1
f 28//2 30//2 26//2
f 27//1 29//1 31//1
f 31//2 29//2 27//2
f 32//1 30//1 26//1
f 26//2 30//2 32//2
f 31//1 29//1 33//1
f 33//2 29//2 31//2
f 32//1 34//1 30//1
f 30//2 34//2 32//2
f 31//1 33//1 35//1
f 35//2 33//2 31//2
f 36//1 34//1 32//1
f 32//2 34//2 36//2
f 35//1 33//1 37//1
f 37//2 33//2 35//2
f 36//1 38//1 34//1
f 34//2 38//2 36//2
f 35//1 37//1 39//1
f 39//2 37//2 35//2
f 36//1 40//1 38//1
f 38//2 40//2 36//2
f 39//1 37//1 41//1
f 41//2 37//2 39//2
f 42//1 40//1 36//1
f 36//2 40//2 42//2
f 42//1 43//1 40//1
f 40//2 43//2 42//2
f 44//1 43//1 42//1
f 42//2 43//2 44//2
f 45//1 43//1 44//1
f 44//2 43//2 45//2
f 46//1 43//1 45//1
f 45//2 43//2 46//2
f 47//1 43//1 46//1
f 46//2 43//2 47//2
f 48//1 43//1 47//1
f 47//2 43//2 48//2
f 43//1 48//1 49//1
f 49//2 48//2 43//2
