# SSTK version 0.8.0
# 100
mtllib original-100.mtl
o Q1/Q/mesh66/mesh66-geometry#mesh66-geometry
v -0.365355 -0.165384 0.046906
v -0.365250 -0.165384 0.049279
v -0.366300 -0.165384 0.048829
v -0.363731 -0.165384 0.047617
v -0.364217 -0.165384 0.049876
v -0.363475 -0.165384 0.052735
v -0.365378 -0.165384 0.052914
v -0.362180 -0.165384 0.048613
v -0.365594 -0.165384 0.050115
v -0.361748 -0.165384 0.052197
v -0.366531 -0.165384 0.050024
v -0.361613 -0.165384 0.047771
v -0.367197 -0.165384 0.052773
v -0.359506 -0.165384 0.053677
v -0.367382 -0.165384 0.049752
v -0.361208 -0.165384 0.046770
v -0.368149 -0.165384 0.049299
v -0.360964 -0.165384 0.045609
v -0.368808 -0.165384 0.052348
v -0.360883 -0.165384 0.044289
v -0.368832 -0.165384 0.048664
v -0.360769 -0.165384 0.036940
v -0.369392 -0.165384 0.047847
v -0.360963 -0.165384 0.042935
v -0.359586 -0.165384 0.037933
v -0.369792 -0.165384 0.046845
v -0.361202 -0.165384 0.041764
v -0.359472 -0.165384 0.050513
v -0.370032 -0.165384 0.045659
v -0.361600 -0.165384 0.040776
v -0.358635 -0.165384 0.039182
v -0.358016 -0.165384 0.054303
v -0.370210 -0.165384 0.051641
v -0.362143 -0.165384 0.036231
v -0.358607 -0.165384 0.049321
v -0.358178 -0.165384 0.051310
v -0.370112 -0.165384 0.044289
v -0.362158 -0.165384 0.039970
v -0.357956 -0.165384 0.040657
v -0.356775 -0.165384 0.051924
v -0.370208 -0.165384 0.036940
v -0.362844 -0.165384 0.039345
v -0.358016 -0.165384 0.048090
v -0.371398 -0.165384 0.037933
v -0.370032 -0.165384 0.042940
v -0.363628 -0.165384 0.038899
v -0.357563 -0.165384 0.046320
v -0.371404 -0.165384 0.050650
v -0.368823 -0.165384 0.036231
v -0.363710 -0.165384 0.035805
v -0.357548 -0.165384 0.042360
v -0.372354 -0.165384 0.039182
v -0.369792 -0.165384 0.041771
v -0.364511 -0.165384 0.038631
v -0.357413 -0.165384 0.044289
v -0.372357 -0.165384 0.049403
v -0.369392 -0.165384 0.040783
v -0.365469 -0.165384 0.035663
v -0.373036 -0.165384 0.040657
v -0.368832 -0.165384 0.039976
v -0.365492 -0.165384 0.038542
v -0.373038 -0.165384 0.047927
v -0.368143 -0.165384 0.039349
v -0.366473 -0.165384 0.038632
v -0.373446 -0.165384 0.042360
v -0.367244 -0.165384 0.035805
v -0.373446 -0.165384 0.046223
v -0.367357 -0.165384 0.038901
v -0.373583 -0.165384 0.044289
vn 0 -1 0
vn 0 1 0
usemtl material_0_0
f 1//1 2//1 3//1
f 2//1 1//1 4//1
f 3//2 2//2 1//2
f 4//2 1//2 2//2
f 2//1 4//1 5//1
f 5//2 4//2 2//2
f 6//1 5//1 4//1
f 4//2 5//2 6//2
f 7//1 5//1 6//1
f 6//2 5//2 7//2
f 6//1 4//1 8//1
f 8//2 4//2 6//2
f 7//1 9//1 5//1
f 5//2 9//2 7//2
f 6//1 8//1 10//1
f 10//2 8//2 6//2
f 7//1 11//1 9//1
f 9//2 11//2 7//2
f 10//1 8//1 12//1
f 12//2 8//2 10//2
f 13//1 11//1 7//1
f 7//2 11//2 13//2
f 10//1 12//1 14//1
f 14//2 12//2 10//2
f 13//1 15//1 11//1
f 11//2 15//2 13//2
f 14//1 12//1 16//1
f 16//2 12//2 14//2
f 13//1 17//1 15//1
f 15//2 17//2 13//2
f 14//1 16//1 18//1
f 18//2 16//2 14//2
f 19//1 17//1 13//1
f 13//2 17//2 19//2
f 14//1 18//1 20//1
f 20//2 18//2 14//2
f 19//1 21//1 17//1
f 17//2 21//2 19//2
f 14//1 20//1 22//1
f 22//2 20//2 14//2
f 19//1 23//1 21//1
f 21//2 23//2 19//2
f 24//1 22//1 20//1
f 20//2 22//2 24//2
f 14//1 22//1 25//1
f 25//2 22//2 14//2
f 19//1 26//1 23//1
f 23//2 26//2 19//2
f 27//1 22//1 24//1
f 24//2 22//2 27//2
f 14//1 25//1 28//1
f 28//2 25//2 14//2
f 19//1 29//1 26//1
f 26//2 29//2 19//2
f 30//1 22//1 27//1
f 27//2 22//2 30//2
f 28//1 25//1 31//1
f 31//2 25//2 28//2
f 28//1 32//1 14//1
f 14//2 32//2 28//2
f 33//1 29//1 19//1
f 19//2 29//2 33//2
f 30//1 34//1 22//1
f 22//2 34//2 30//2
f 28//1 31//1 35//1
f 35//2 31//2 28//2
f 32//1 28//1 36//1
f 36//2 28//2 32//2
f 33//1 37//1 29//1
f 29//2 37//2 33//2
f 38//1 34//1 30//1
f 30//2 34//2 38//2
f 35//1 31//1 39//1
f 39//2 31//2 35//2
f 32//1 36//1 40//1
f 40//2 36//2 32//2
f 33//1 41//1 37//1
f 37//2 41//2 33//2
f 42//1 34//1 38//1
f 38//2 34//2 42//2
f 35//1 39//1 43//1
f 43//2 39//2 35//2
f 33//1 44//1 41//1
f 41//2 44//2 33//2
f 41//1 45//1 37//1
f 37//2 45//2 41//2
f 46//1 34//1 42//1
f 42//2 34//2 46//2
f 43//1 39//1 47//1
f 47//2 39//2 43//2
f 48//1 44//1 33//1
f 33//2 44//2 48//2
f 45//1 41//1 49//1
f 49//2 41//2 45//2
f 46//1 50//1 34//1
f 34//2 50//2 46//2
f 47//1 39//1 51//1
f 51//2 39//2 47//2
f 48//1 52//1 44//1
f 44//2 52//2 48//2
f 45//1 49//1 53//1
f 53//2 49//2 45//2
f 54//1 50//1 46//1
f 46//2 50//2 54//2
f 47//1 51//1 55//1
f 55//2 51//2 47//2
f 56//1 52//1 48//1
f 48//2 52//2 56//2
f 53//1 49//1 57//1
f 57//2 49//2 53//2
f 54//1 58//1 50//1
f 50//2 58//2 54//2
f 56//1 59//1 52//1
f 52//2 59//2 56//2
f 57//1 49//1 60//1
f 60//2 49//2 57//2
f 61//1 58//1 54//1
f 54//2 58//2 61//2
f 62//1 59//1 56//1
f 56//2 59//2 62//2
f 60//1 49//1 63//1
f 63//2 49//2 60//2
f 64//1 58//1 61//1
f 61//2 58//2 64//2
f 62//1 65//1 59//1
f 59//2 65//2 62//2
f 63//1 49//1 66//1
f 66//2 49//2 63//2
f 64//1 66//1 58//1
f 58//2 66//2 64//2
f 67//1 65//1 62//1
f 62//2 65//2 67//2
f 63//1 66//1 68//1
f 68//2 66//2 63//2
f 68//1 66//1 64//1
f 64//2 66//2 68//2
f 65//1 67//1 69//1
f 69//2 67//2 65//2
