# SSTK version 0.8.0
# 183
mtllib original-183.mtl
o mesh122/mesh122-geometry#mesh122-geometry
v 0.472279 -0.165384 -0.022476
v 0.469860 -0.165384 -0.009856
v 0.469860 -0.165384 -0.022476
v 0.472279 -0.165384 -0.009856
v 0.472279 -0.165384 -0.015778
v 0.472279 -0.165384 -0.012783
v 0.475111 -0.165384 -0.018998
v 0.473406 -0.165384 -0.013962
v 0.474964 -0.165384 -0.015658
v 0.478089 -0.165384 -0.018998
v 0.475705 -0.165384 -0.009856
v 0.478313 -0.165384 -0.009856
vn 0 -1 0
vn 0 1 0
usemtl material_0_0
f 1//1 2//1 3//1
f 2//1 1//1 4//1
f 3//2 2//2 1//2
f 4//2 1//2 2//2
f 4//1 1//1 5//1
f 5//2 1//2 4//2
f 4//1 5//1 6//1
f 6//2 5//2 4//2
f 7//1 6//1 5//1
f 5//2 6//2 7//2
f 6//1 7//1 8//1
f 8//2 7//2 6//2
f 8//1 7//1 9//1
f 9//2 7//2 8//2
f 9//1 7//1 10//1
f 10//2 7//2 9//2
f 9//1 11//1 8//1
f 8//2 11//2 9//2
f 11//1 9//1 12//1
f 12//2 9//2 11//2
