# SSTK version 0.8.0
# 297
mtllib original-297.mtl
o left_arrow4/left_arrow/mesh100/mesh100-geometry#mesh100-geometry
v 0.485453 -0.165469 0.300276
v 0.461021 -0.165469 0.297448
v 0.461021 -0.165469 0.300276
v 0.485453 -0.165469 0.297448
v 0.461021 -0.165469 0.291792
v 0.461021 -0.165469 0.305931
v 0.451674 -0.165469 0.298862
vn 0 1 0
vn 0 -1 0
usemtl material_0_0
f 1//1 2//1 3//1
f 2//1 1//1 4//1
f 3//2 2//2 1//2
f 4//2 1//2 2//2
f 5//1 3//1 2//1
f 2//2 3//2 5//2
f 5//1 6//1 3//1
f 3//2 6//2 5//2
f 6//1 5//1 7//1
f 7//2 5//2 6//2
