# SSTK version 0.8.0
# 268
mtllib original-268.mtl
o mesh178/mesh178-geometry#mesh178-geometry
v 0.136144 -0.165384 -0.034405
v 0.135598 -0.165384 -0.023412
v 0.134773 -0.165384 -0.032155
v 0.135744 -0.165384 -0.026048
v 0.135684 -0.165384 -0.021523
v 0.136184 -0.165384 -0.028539
v 0.136098 -0.165384 -0.012534
v 0.137013 -0.165384 -0.031214
v 0.134565 -0.165384 -0.015213
v 0.135945 -0.165384 -0.019589
v 0.138329 -0.165384 -0.034405
v 0.133663 -0.165384 -0.029705
v 0.136356 -0.165384 -0.017680
v 0.133447 -0.165384 -0.017996
v 0.136895 -0.165384 -0.015868
v 0.133170 -0.165384 -0.028215
v 0.138295 -0.165384 -0.012534
v 0.132818 -0.165384 -0.026681
v 0.132764 -0.165384 -0.020784
v 0.132607 -0.165384 -0.025103
v 0.132537 -0.165384 -0.023481
vn 0 -1 0
vn 0 1 0
usemtl material_0_0
f 1//1 2//1 3//1
f 2//1 1//1 4//1
f 3//2 2//2 1//2
f 4//2 1//2 2//2
f 5//1 3//1 2//1
f 2//2 3//2 5//2
f 4//1 1//1 6//1
f 6//2 1//2 4//2
f 7//1 3//1 5//1
f 5//2 3//2 7//2
f 6//1 1//1 8//1
f 8//2 1//2 6//2
f 9//1 3//1 7//1
f 7//2 3//2 9//2
f 7//1 5//1 10//1
f 10//2 5//2 7//2
f 8//1 1//1 11//1
f 11//2 1//2 8//2
f 9//1 12//1 3//1
f 3//2 12//2 9//2
f 7//1 10//1 13//1
f 13//2 10//2 7//2
f 14//1 12//1 9//1
f 9//2 12//2 14//2
f 7//1 13//1 15//1
f 15//2 13//2 7//2
f 14//1 16//1 12//1
f 12//2 16//2 14//2
f 7//1 15//1 17//1
f 17//2 15//2 7//2
f 14//1 18//1 16//1
f 16//2 18//2 14//2
f 19//1 18//1 14//1
f 14//2 18//2 19//2
f 19//1 20//1 18//1
f 18//2 20//2 19//2
f 20//1 19//1 21//1
f 21//2 19//2 20//2
