# SSTK version 0.8.0
# 202
mtllib original-202.mtl
o mesh135/mesh135-geometry#mesh135-geometry
v -0.399112 -0.165384 0.258136
v -0.398818 -0.165384 0.262215
v -0.398885 -0.165384 0.264770
v -0.398388 -0.165384 0.257126
v -0.398885 -0.165384 0.268502
v -0.398617 -0.165384 0.260719
v -0.402082 -0.165384 0.268502
v -0.398300 -0.165384 0.259901
v -0.399112 -0.165384 0.256417
v -0.397741 -0.165384 0.256531
v -0.402082 -0.165384 0.256417
v -0.397883 -0.165384 0.259382
v -0.397366 -0.165384 0.259104
v -0.397091 -0.165384 0.256241
v -0.396746 -0.165384 0.259012
v -0.396359 -0.165384 0.256144
v -0.396023 -0.165384 0.259143
v -0.395286 -0.165384 0.256295
v -0.395243 -0.165384 0.259535
v -0.394253 -0.165384 0.256747
vn 0 -1 0
vn 0 1 0
usemtl material_0_0
f 1//1 2//1 3//1
f 2//1 1//1 4//1
f 3//2 2//2 1//2
f 4//2 1//2 2//2
f 5//1 1//1 3//1
f 3//2 1//2 5//2
f 2//1 4//1 6//1
f 6//2 4//2 2//2
f 7//1 1//1 5//1
f 5//2 1//2 7//2
f 6//1 4//1 8//1
f 8//2 4//2 6//2
f 7//1 9//1 1//1
f 1//2 9//2 7//2
f 8//1 4//1 10//1
f 10//2 4//2 8//2
f 9//1 7//1 11//1
f 11//2 7//2 9//2
f 8//1 10//1 12//1
f 12//2 10//2 8//2
f 12//1 10//1 13//1
f 13//2 10//2 12//2
f 13//1 10//1 14//1
f 14//2 10//2 13//2
f 13//1 14//1 15//1
f 15//2 14//2 13//2
f 15//1 14//1 16//1
f 16//2 14//2 15//2
f 15//1 16//1 17//1
f 17//2 16//2 15//2
f 17//1 16//1 18//1
f 18//2 16//2 17//2
f 17//1 18//1 19//1
f 19//2 18//2 17//2
f 19//1 18//1 20//1
f 20//2 18//2 19//2
