# SSTK version 0.8.0
# 148
mtllib original-148.mtl
o mesh98/mesh98-geometry#mesh98-geometry
v 0.440139 -0.165384 0.121386
v 0.440118 -0.165384 0.124010
v 0.440050 -0.165384 0.122806
v 0.440322 -0.165384 0.125105
v 0.440407 -0.165384 0.120128
v 0.440662 -0.165384 0.126092
v 0.440854 -0.165384 0.119033
v 0.441137 -0.165384 0.126971
v 0.441479 -0.165384 0.118101
v 0.441919 -0.165384 0.127872
v 0.442241 -0.165384 0.117357
v 0.442887 -0.165384 0.128516
v 0.443097 -0.165384 0.116825
v 0.443032 -0.165384 0.123637
v 0.443084 -0.165384 0.121680
v 0.443224 -0.165384 0.124902
v 0.443231 -0.165384 0.120508
v 0.450322 -0.165384 0.123637
v 0.444042 -0.165384 0.128902
v 0.444048 -0.165384 0.116506
v 0.447433 -0.165384 0.121680
v 0.443736 -0.165384 0.125851
v 0.443695 -0.165384 0.119609
v 0.448192 -0.165384 0.117402
v 0.444492 -0.165384 0.126444
v 0.444399 -0.165384 0.119037
v 0.447288 -0.165384 0.116845
v 0.448966 -0.165384 0.118181
v 0.445383 -0.165384 0.129031
v 0.445093 -0.165384 0.116400
v 0.447255 -0.165384 0.120458
v 0.449583 -0.165384 0.119190
v 0.445414 -0.165384 0.126641
v 0.445269 -0.165384 0.118846
v 0.446781 -0.165384 0.119569
v 0.450014 -0.165384 0.120435
v 0.447044 -0.165384 0.128802
v 0.446255 -0.165384 0.116511
v 0.450261 -0.165384 0.121918
v 0.446043 -0.165384 0.126539
v 0.446092 -0.165384 0.119027
v 0.446563 -0.165384 0.126232
v 0.446972 -0.165384 0.125697
v 0.447267 -0.165384 0.124912
v 0.447760 -0.165384 0.128516
v 0.450167 -0.165384 0.125446
v 0.448401 -0.165384 0.128115
v 0.448964 -0.165384 0.127605
v 0.449446 -0.165384 0.126990
vn 0 -1 0
vn 0 1 0
usemtl material_0_0
f 1//1 2//1 3//1
f 2//1 1//1 4//1
f 3//2 2//2 1//2
f 4//2 1//2 2//2
f 4//1 1//1 5//1
f 5//2 1//2 4//2
f 4//1 5//1 6//1
f 6//2 5//2 4//2
f 6//1 5//1 7//1
f 7//2 5//2 6//2
f 6//1 7//1 8//1
f 8//2 7//2 6//2
f 8//1 7//1 9//1
f 9//2 7//2 8//2
f 8//1 9//1 10//1
f 10//2 9//2 8//2
f 10//1 9//1 11//1
f 11//2 9//2 10//2
f 10//1 11//1 12//1
f 12//2 11//2 10//2
f 12//1 11//1 13//1
f 13//2 11//2 12//2
f 12//1 13//1 14//1
f 14//2 13//2 12//2
f 14//1 13//1 15//1
f 15//2 13//2 14//2
f 16//1 12//1 14//1
f 14//2 12//2 16//2
f 15//1 13//1 17//1
f 17//2 13//2 15//2
f 15//1 18//1 14//1
f 14//2 18//2 15//2
f 12//1 16//1 19//1
f 19//2 16//2 12//2
f 17//1 13//1 20//1
f 20//2 13//2 17//2
f 18//1 15//1 21//1
f 21//2 15//2 18//2
f 19//1 16//1 22//1
f 22//2 16//2 19//2
f 17//1 20//1 23//1
f 23//2 20//2 17//2
f 18//1 21//1 24//1
f 24//2 21//2 18//2
f 19//1 22//1 25//1
f 25//2 22//2 19//2
f 23//1 20//1 26//1
f 26//2 20//2 23//2
f 21//1 27//1 24//1
f 24//2 27//2 21//2
f 18//1 24//1 28//1
f 28//2 24//2 18//2
f 19//1 25//1 29//1
f 29//2 25//2 19//2
f 26//1 20//1 30//1
f 30//2 20//2 26//2
f 31//1 27//1 21//1
f 21//2 27//2 31//2
f 18//1 28//1 32//1
f 32//2 28//2 18//2
f 29//1 25//1 33//1
f 33//2 25//2 29//2
f 26//1 30//1 34//1
f 34//2 30//2 26//2
f 35//1 27//1 31//1
f 31//2 27//2 35//2
f 18//1 32//1 36//1
f 36//2 32//2 18//2
f 29//1 33//1 37//1
f 37//2 33//2 29//2
f 34//1 30//1 38//1
f 38//2 30//2 34//2
f 35//1 38//1 27//1
f 27//2 38//2 35//2
f 18//1 36//1 39//1
f 39//2 36//2 18//2
f 37//1 33//1 40//1
f 40//2 33//2 37//2
f 34//1 38//1 41//1
f 41//2 38//2 34//2
f 41//1 38//1 35//1
f 35//2 38//2 41//2
f 37//1 40//1 42//1
f 42//2 40//2 37//2
f 37//1 42//1 43//1
f 43//2 42//2 37//2
f 37//1 43//1 44//1
f 44//2 43//2 37//2
f 37//1 44//1 45//1
f 45//2 44//2 37//2
f 45//1 44//1 46//1
f 46//2 44//2 45//2
f 45//1 46//1 47//1
f 47//2 46//2 45//2
f 47//1 46//1 48//1
f 48//2 46//2 47//2
f 48//1 46//1 49//1
f 49//2 46//2 48//2
