# SSTK version 0.8.0
# 188
mtllib original-188.mtl
o P1/P/mesh126/mesh126-geometry#mesh126-geometry
v 0.237864 -0.165384 0.034565
v 0.241233 -0.165384 0.037387
v 0.237864 -0.165384 0.051247
v 0.243269 -0.165384 0.034565
v 0.241233 -0.165384 0.051247
v 0.242860 -0.165384 0.037387
v 0.241233 -0.165384 0.042121
v 0.245284 -0.165384 0.037501
v 0.241233 -0.165384 0.044954
v 0.245807 -0.165384 0.034628
v 0.243076 -0.165384 0.042121
v 0.246032 -0.165384 0.037760
v 0.243429 -0.165384 0.044954
v 0.247275 -0.165384 0.034815
v 0.244737 -0.165384 0.042056
v 0.246638 -0.165384 0.038241
v 0.245446 -0.165384 0.044895
v 0.247039 -0.165384 0.038912
v 0.245739 -0.165384 0.041859
v 0.247173 -0.165384 0.039743
v 0.246922 -0.165384 0.044715
v 0.247803 -0.165384 0.044421
v 0.246338 -0.165384 0.041524
v 0.247077 -0.165384 0.040437
v 0.248592 -0.165384 0.035411
v 0.246791 -0.165384 0.041040
v 0.248669 -0.165384 0.043925
v 0.249676 -0.165384 0.036448
v 0.249453 -0.165384 0.043215
v 0.250086 -0.165384 0.042280
v 0.250099 -0.165384 0.037123
v 0.250504 -0.165384 0.041111
v 0.250401 -0.165384 0.037889
v 0.250583 -0.165384 0.038747
v 0.250643 -0.165384 0.039697
vn 0 -1 0
vn 0 1 0
usemtl material_0_0
f 1//1 2//1 3//1
f 2//1 1//1 4//1
f 3//2 2//2 1//2
f 4//2 1//2 2//2
f 2//1 5//1 3//1
f 3//2 5//2 2//2
f 2//1 4//1 6//1
f 6//2 4//2 2//2
f 5//1 2//1 7//1
f 7//2 2//2 5//2
f 6//1 4//1 8//1
f 8//2 4//2 6//2
f 5//1 7//1 9//1
f 9//2 7//2 5//2
f 8//1 4//1 10//1
f 10//2 4//2 8//2
f 11//1 9//1 7//1
f 7//2 9//2 11//2
f 8//1 10//1 12//1
f 12//2 10//2 8//2
f 9//1 11//1 13//1
f 13//2 11//2 9//2
f 12//1 10//1 14//1
f 14//2 10//2 12//2
f 13//1 11//1 15//1
f 15//2 11//2 13//2
f 12//1 14//1 16//1
f 16//2 14//2 12//2
f 13//1 15//1 17//1
f 17//2 15//2 13//2
f 16//1 14//1 18//1
f 18//2 14//2 16//2
f 17//1 15//1 19//1
f 19//2 15//2 17//2
f 18//1 14//1 20//1
f 20//2 14//2 18//2
f 17//1 19//1 21//1
f 21//2 19//2 17//2
f 22//1 20//1 14//1
f 14//2 20//2 22//2
f 21//1 19//1 23//1
f 23//2 19//2 21//2
f 22//1 24//1 20//1
f 20//2 24//2 22//2
f 22//1 14//1 25//1
f 25//2 14//2 22//2
f 21//1 23//1 26//1
f 26//2 23//2 21//2
f 21//1 24//1 22//1
f 22//2 24//2 21//2
f 22//1 25//1 27//1
f 27//2 25//2 22//2
f 21//1 26//1 24//1
f 24//2 26//2 21//2
f 27//1 25//1 28//1
f 28//2 25//2 27//2
f 27//1 28//1 29//1
f 29//2 28//2 27//2
f 29//1 28//1 30//1
f 30//2 28//2 29//2
f 30//1 28//1 31//1
f 31//2 28//2 30//2
f 30//1 31//1 32//1
f 32//2 31//2 30//2
f 32//1 31//1 33//1
f 33//2 31//2 32//2
f 32//1 33//1 34//1
f 34//2 33//2 32//2
f 32//1 34//1 35//1
f 35//2 34//2 32//2
