# SSTK version 0.8.0
# 170
mtllib original-170.mtl
o mesh113/mesh113-geometry#mesh113-geometry
v -0.401194 -0.165384 0.107681
v -0.401013 -0.165384 0.109705
v -0.401081 -0.165384 0.109978
v -0.400401 -0.165384 0.107529
v -0.401857 -0.165384 0.107934
v -0.400806 -0.165384 0.109487
v -0.400924 -0.165384 0.112911
v -0.400256 -0.165384 0.109287
v -0.402245 -0.165384 0.112349
v -0.401021 -0.165384 0.110217
v -0.399478 -0.165384 0.107479
v -0.402392 -0.165384 0.108289
v -0.400840 -0.165384 0.110418
v -0.399435 -0.165384 0.109220
v -0.402720 -0.165384 0.111942
v -0.398530 -0.165384 0.113529
v -0.397841 -0.165384 0.107632
v -0.402803 -0.165384 0.108718
v -0.400111 -0.165384 0.110709
v -0.398764 -0.165384 0.109291
v -0.403060 -0.165384 0.111463
v -0.398578 -0.165384 0.111099
v -0.398267 -0.165384 0.109504
v -0.403096 -0.165384 0.109194
v -0.396935 -0.165384 0.111588
v -0.397924 -0.165384 0.109851
v -0.403263 -0.165384 0.110912
v -0.397720 -0.165384 0.113848
v -0.397711 -0.165384 0.110323
v -0.403272 -0.165384 0.109717
v -0.397591 -0.165384 0.114053
v -0.397203 -0.165384 0.107823
v -0.403331 -0.165384 0.110289
v -0.397548 -0.165384 0.114305
v -0.395427 -0.165384 0.109901
v -0.397472 -0.165384 0.116820
v -0.396686 -0.165384 0.108091
v -0.396757 -0.165384 0.116537
v -0.397627 -0.165384 0.114669
v -0.396264 -0.165384 0.108433
v -0.395875 -0.165384 0.112176
v -0.397866 -0.165384 0.114952
v -0.395914 -0.165384 0.108849
v -0.396168 -0.165384 0.116141
v -0.398313 -0.165384 0.116990
v -0.395708 -0.165384 0.115666
v -0.398457 -0.165384 0.115210
v -0.395544 -0.165384 0.112531
v -0.399280 -0.165384 0.117046
v -0.395380 -0.165384 0.115148
v -0.399280 -0.165384 0.115296
v -0.395307 -0.165384 0.112950
v -0.400039 -0.165384 0.115205
v -0.395183 -0.165384 0.114585
v -0.400167 -0.165384 0.116999
v -0.395164 -0.165384 0.113432
v -0.400607 -0.165384 0.114930
v -0.395117 -0.165384 0.113978
v -0.400955 -0.165384 0.116856
v -0.401002 -0.165384 0.114479
v -0.401237 -0.165384 0.113857
v -0.401647 -0.165384 0.116619
v -0.402241 -0.165384 0.116288
v -0.402739 -0.165384 0.115874
v -0.403143 -0.165384 0.115393
v -0.403452 -0.165384 0.114844
v -0.403667 -0.165384 0.114228
vn 0 -1 0
vn 0 1 0
usemtl material_0_0
f 1//1 2//1 3//1
f 2//1 1//1 4//1
f 3//2 2//2 1//2
f 4//2 1//2 2//2
f 3//1 5//1 1//1
f 1//2 5//2 3//2
f 2//1 4//1 6//1
f 6//2 4//2 2//2
f 7//1 5//1 3//1
f 3//2 5//2 7//2
f 6//1 4//1 8//1
f 8//2 4//2 6//2
f 9//1 5//1 7//1
f 7//2 5//2 9//2
f 7//1 3//1 10//1
f 10//2 3//2 7//2
f 8//1 4//1 11//1
f 11//2 4//2 8//2
f 9//1 12//1 5//1
f 5//2 12//2 9//2
f 7//1 10//1 13//1
f 13//2 10//2 7//2
f 8//1 11//1 14//1
f 14//2 11//2 8//2
f 15//1 12//1 9//1
f 9//2 12//2 15//2
f 7//1 13//1 16//1
f 16//2 13//2 7//2
f 14//1 11//1 17//1
f 17//2 11//2 14//2
f 15//1 18//1 12//1
f 12//2 18//2 15//2
f 16//1 13//1 19//1
f 19//2 13//2 16//2
f 14//1 17//1 20//1
f 20//2 17//2 14//2
f 21//1 18//1 15//1
f 15//2 18//2 21//2
f 16//1 19//1 22//1
f 22//2 19//2 16//2
f 20//1 17//1 23//1
f 23//2 17//2 20//2
f 21//1 24//1 18//1
f 18//2 24//2 21//2
f 16//1 22//1 25//1
f 25//2 22//2 16//2
f 23//1 17//1 26//1
f 26//2 17//2 23//2
f 27//1 24//1 21//1
f 21//2 24//2 27//2
f 16//1 25//1 28//1
f 28//2 25//2 16//2
f 26//1 17//1 29//1
f 29//2 17//2 26//2
f 27//1 30//1 24//1
f 24//2 30//2 27//2
f 28//1 25//1 31//1
f 31//2 25//2 28//2
f 29//1 17//1 32//1
f 32//2 17//2 29//2
f 30//1 27//1 33//1
f 33//2 27//2 30//2
f 31//1 25//1 34//1
f 34//2 25//2 31//2
f 29//1 32//1 35//1
f 35//2 32//2 29//2
f 34//1 25//1 36//1
f 36//2 25//2 34//2
f 35//1 32//1 37//1
f 37//2 32//2 35//2
f 36//1 25//1 38//1
f 38//2 25//2 36//2
f 36//1 39//1 34//1
f 34//2 39//2 36//2
f 35//1 37//1 40//1
f 40//2 37//2 35//2
f 38//1 25//1 41//1
f 41//2 25//2 38//2
f 36//1 42//1 39//1
f 39//2 42//2 36//2
f 35//1 40//1 43//1
f 43//2 40//2 35//2
f 38//1 41//1 44//1
f 44//2 41//2 38//2
f 45//1 42//1 36//1
f 36//2 42//2 45//2
f 44//1 41//1 46//1
f 46//2 41//2 44//2
f 45//1 47//1 42//1
f 42//2 47//2 45//2
f 46//1 41//1 48//1
f 48//2 41//2 46//2
f 49//1 47//1 45//1
f 45//2 47//2 49//2
f 46//1 48//1 50//1
f 50//2 48//2 46//2
f 49//1 51//1 47//1
f 47//2 51//2 49//2
f 50//1 48//1 52//1
f 52//2 48//2 50//2
f 49//1 53//1 51//1
f 51//2 53//2 49//2
f 50//1 52//1 54//1
f 54//2 52//2 50//2
f 55//1 53//1 49//1
f 49//2 53//2 55//2
f 54//1 52//1 56//1
f 56//2 52//2 54//2
f 55//1 57//1 53//1
f 53//2 57//2 55//2
f 54//1 56//1 58//1
f 58//2 56//2 54//2
f 59//1 57//1 55//1
f 55//2 57//2 59//2
f 59//1 60//1 57//1
f 57//2 60//2 59//2
f 59//1 61//1 60//1
f 60//2 61//2 59//2
f 62//1 61//1 59//1
f 59//2 61//2 62//2
f 63//1 61//1 62//1
f 62//2 61//2 63//2
f 64//1 61//1 63//1
f 63//2 61//2 64//2
f 65//1 61//1 64//1
f 64//2 61//2 65//2
f 66//1 61//1 65//1
f 65//2 61//2 66//2
f 61//1 66//1 67//1
f 67//2 66//2 61//2
