# SSTK version 0.8.0
# 173
mtllib original-173.mtl
o mesh116/mesh116-geometry#mesh116-geometry
v -0.411623 -0.165384 0.129076
v -0.411739 -0.165384 0.133380
v -0.412381 -0.165384 0.129470
v -0.411605 -0.165384 0.132125
v -0.411639 -0.165384 0.138011
v -0.410760 -0.165384 0.128839
v -0.412389 -0.165384 0.137615
v -0.411603 -0.165384 0.134770
v -0.411436 -0.165384 0.131655
v -0.413032 -0.165384 0.130023
v -0.410788 -0.165384 0.138248
v -0.411201 -0.165384 0.131290
v -0.413037 -0.165384 0.137060
v -0.411432 -0.165384 0.135285
v -0.410570 -0.165384 0.130821
v -0.413556 -0.165384 0.130717
v -0.411192 -0.165384 0.135681
v -0.409791 -0.165384 0.128760
v -0.413559 -0.165384 0.136366
v -0.410551 -0.165384 0.136186
v -0.409757 -0.165384 0.130665
v -0.413931 -0.165384 0.131536
v -0.409835 -0.165384 0.138327
v -0.408998 -0.165384 0.128805
v -0.413932 -0.165384 0.135550
v -0.409722 -0.165384 0.136354
v -0.409140 -0.165384 0.130755
v -0.414156 -0.165384 0.132482
v -0.408996 -0.165384 0.138275
v -0.408649 -0.165384 0.131027
v -0.414156 -0.165384 0.134612
v -0.409095 -0.165384 0.136256
v -0.408291 -0.165384 0.128940
v -0.414230 -0.165384 0.133552
v -0.408593 -0.165384 0.135961
v -0.408299 -0.165384 0.131477
v -0.408246 -0.165384 0.138118
v -0.408102 -0.165384 0.132104
v -0.408218 -0.165384 0.135428
v -0.407669 -0.165384 0.129165
v -0.407587 -0.165384 0.137857
v -0.405714 -0.165384 0.131673
v -0.407973 -0.165384 0.134613
v -0.407132 -0.165384 0.129480
v -0.405594 -0.165384 0.135018
v -0.406674 -0.165384 0.129887
v -0.407016 -0.165384 0.137491
v -0.406284 -0.165384 0.130388
v -0.406533 -0.165384 0.137023
v -0.405965 -0.165384 0.130983
v -0.406135 -0.165384 0.136455
v -0.405822 -0.165384 0.135786
vn 0 -1 0
vn 0 1 0
usemtl material_0_0
f 1//1 2//1 3//1
f 2//1 1//1 4//1
f 3//2 2//2 1//2
f 4//2 1//2 2//2
f 5//1 3//1 2//1
f 2//2 3//2 5//2
f 4//1 1//1 6//1
f 6//2 1//2 4//2
f 7//1 3//1 5//1
f 5//2 3//2 7//2
f 5//1 2//1 8//1
f 8//2 2//2 5//2
f 4//1 6//1 9//1
f 9//2 6//2 4//2
f 7//1 10//1 3//1
f 3//2 10//2 7//2
f 5//1 8//1 11//1
f 11//2 8//2 5//2
f 9//1 6//1 12//1
f 12//2 6//2 9//2
f 13//1 10//1 7//1
f 7//2 10//2 13//2
f 11//1 8//1 14//1
f 14//2 8//2 11//2
f 12//1 6//1 15//1
f 15//2 6//2 12//2
f 13//1 16//1 10//1
f 10//2 16//2 13//2
f 11//1 14//1 17//1
f 17//2 14//2 11//2
f 15//1 6//1 18//1
f 18//2 6//2 15//2
f 19//1 16//1 13//1
f 13//2 16//2 19//2
f 11//1 17//1 20//1
f 20//2 17//2 11//2
f 15//1 18//1 21//1
f 21//2 18//2 15//2
f 19//1 22//1 16//1
f 16//2 22//2 19//2
f 11//1 20//1 23//1
f 23//2 20//2 11//2
f 21//1 18//1 24//1
f 24//2 18//2 21//2
f 25//1 22//1 19//1
f 19//2 22//2 25//2
f 23//1 20//1 26//1
f 26//2 20//2 23//2
f 21//1 24//1 27//1
f 27//2 24//2 21//2
f 25//1 28//1 22//1
f 22//2 28//2 25//2
f 23//1 26//1 29//1
f 29//2 26//2 23//2
f 27//1 24//1 30//1
f 30//2 24//2 27//2
f 31//1 28//1 25//1
f 25//2 28//2 31//2
f 29//1 26//1 32//1
f 32//2 26//2 29//2
f 30//1 24//1 33//1
f 33//2 24//2 30//2
f 28//1 31//1 34//1
f 34//2 31//2 28//2
f 29//1 32//1 35//1
f 35//2 32//2 29//2
f 30//1 33//1 36//1
f 36//2 33//2 30//2
f 29//1 35//1 37//1
f 37//2 35//2 29//2
f 36//1 33//1 38//1
f 38//2 33//2 36//2
f 37//1 35//1 39//1
f 39//2 35//2 37//2
f 38//1 33//1 40//1
f 40//2 33//2 38//2
f 37//1 39//1 41//1
f 41//2 39//2 37//2
f 38//1 40//1 42//1
f 42//2 40//2 38//2
f 41//1 39//1 43//1
f 43//2 39//2 41//2
f 42//1 40//1 44//1
f 44//2 40//2 42//2
f 41//1 43//1 45//1
f 45//2 43//2 41//2
f 42//1 44//1 46//1
f 46//2 44//2 42//2
f 41//1 45//1 47//1
f 47//2 45//2 41//2
f 42//1 46//1 48//1
f 48//2 46//2 42//2
f 47//1 45//1 49//1
f 49//2 45//2 47//2
f 42//1 48//1 50//1
f 50//2 48//2 42//2
f 49//1 45//1 51//1
f 51//2 45//2 49//2
f 51//1 45//1 52//1
f 52//2 45//2 51//2
