# SSTK version 0.8.0
# 211
mtllib original-211.mtl
o mesh141/mesh141-geometry#mesh141-geometry
v 0.348556 -0.165384 -0.027346
v 0.344174 -0.165384 -0.024353
v 0.344174 -0.165384 -0.027346
v 0.348556 -0.165384 -0.024353
v 0.344174 -0.165384 -0.020017
v 0.344174 -0.165384 -0.031681
v 0.341261 -0.165384 -0.020017
v 0.341261 -0.165384 -0.024353
v 0.341261 -0.165384 -0.027346
v 0.341261 -0.165384 -0.031681
v 0.336892 -0.165384 -0.024353
v 0.336892 -0.165384 -0.027346
vn 0 -1 0
vn 0 1 0
usemtl material_0_0
f 1//1 2//1 3//1
f 2//1 1//1 4//1
f 3//2 2//2 1//2
f 4//2 1//2 2//2
f 5//1 3//1 2//1
f 2//2 3//2 5//2
f 5//1 6//1 3//1
f 3//2 6//2 5//2
f 7//1 6//1 5//1
f 5//2 6//2 7//2
f 8//1 6//1 7//1
f 7//2 6//2 8//2
f 9//1 6//1 8//1
f 8//2 6//2 9//2
f 6//1 9//1 10//1
f 10//2 9//2 6//2
f 11//1 9//1 8//1
f 8//2 9//2 11//2
f 9//1 11//1 12//1
f 12//2 11//2 9//2
