# SSTK version 0.8.0
# 193
mtllib original-193.mtl
o mesh129/mesh129-geometry#mesh129-geometry
v 0.166803 -0.165384 0.209020
v 0.163605 -0.165384 0.212218
v 0.163605 -0.165384 0.209020
v 0.165153 -0.165384 0.212218
v 0.165659 -0.165384 0.214937
v 0.166218 -0.165384 0.214259
v 0.165033 -0.165384 0.213083
v 0.166564 -0.165384 0.213498
v 0.164904 -0.165384 0.215506
v 0.166743 -0.165384 0.212549
v 0.164720 -0.165384 0.213743
v 0.166803 -0.165384 0.211307
v 0.164171 -0.165384 0.214240
v 0.163969 -0.165384 0.215939
v 0.163343 -0.165384 0.214619
vn 0 -1 0
vn 0 1 0
usemtl material_0_0
f 1//1 2//1 3//1
f 2//1 1//1 4//1
f 3//2 2//2 1//2
f 4//2 1//2 2//2
f 4//1 1//1 5//1
f 5//2 1//2 4//2
f 5//1 1//1 6//1
f 6//2 1//2 5//2
f 5//1 7//1 4//1
f 4//2 7//2 5//2
f 6//1 1//1 8//1
f 8//2 1//2 6//2
f 9//1 7//1 5//1
f 5//2 7//2 9//2
f 8//1 1//1 10//1
f 10//2 1//2 8//2
f 9//1 11//1 7//1
f 7//2 11//2 9//2
f 10//1 1//1 12//1
f 12//2 1//2 10//2
f 9//1 13//1 11//1
f 11//2 13//2 9//2
f 14//1 13//1 9//1
f 9//2 13//2 14//2
f 13//1 14//1 15//1
f 15//2 14//2 13//2
