# SSTK version 0.8.0
# 247
mtllib original-247.mtl
o W1/W/mesh165/mesh165-geometry#mesh165-geometry
v -0.302129 -0.165384 0.036469
v -0.301594 -0.165384 0.053151
v -0.305577 -0.165384 0.036469
v -0.299614 -0.165384 0.047928
v -0.297941 -0.165384 0.053151
v -0.296565 -0.165384 0.036469
v -0.294630 -0.165384 0.040679
v -0.292559 -0.165384 0.036469
v -0.291307 -0.165384 0.053151
v -0.289635 -0.165384 0.048121
v -0.287734 -0.165384 0.053151
v -0.287074 -0.165384 0.036469
v -0.283683 -0.165384 0.036469
vn 0 -1 0
vn 0 1 0
usemtl material_0_0
f 1//1 2//1 3//1
f 2//1 1//1 4//1
f 3//2 2//2 1//2
f 4//2 1//2 2//2
f 2//1 4//1 5//1
f 5//2 4//2 2//2
f 5//1 4//1 6//1
f 6//2 4//2 5//2
f 5//1 6//1 7//1
f 7//2 6//2 5//2
f 7//1 6//1 8//1
f 8//2 6//2 7//2
f 7//1 8//1 9//1
f 9//2 8//2 7//2
f 9//1 8//1 10//1
f 10//2 8//2 9//2
f 9//1 10//1 11//1
f 11//2 10//2 9//2
f 11//1 10//1 12//1
f 12//2 10//2 11//2
f 11//1 12//1 13//1
f 13//2 12//2 11//2
