# SSTK version 0.8.0
# 49
mtllib original-49.mtl
o mesh33/mesh33-geometry#mesh33-geometry
v 0.004125 -0.165384 -0.006299
v -0.006811 -0.165384 -0.003329
v -0.006811 -0.165384 -0.006299
v 0.000461 -0.165384 -0.003329
v 0.001371 -0.165384 -0.000154
v 0.002759 -0.165384 -0.002356
v 0.000138 -0.165384 0.002416
v 0.004125 -0.165384 -0.003977
v -0.000609 -0.165384 -0.001864
v -0.000762 -0.165384 0.005143
v -0.001310 -0.165384 0.007799
v -0.001485 -0.165384 0.010156
v -0.001566 -0.165384 -0.000305
v -0.002410 -0.165384 0.001350
v -0.003141 -0.165384 0.003101
v -0.003736 -0.165384 0.004890
v -0.004172 -0.165384 0.006662
v -0.004450 -0.165384 0.008418
v -0.004569 -0.165384 0.010156
vn 0 -1 0
vn 0 1 0
usemtl material_0_0
f 1//1 2//1 3//1
f 2//1 1//1 4//1
f 3//2 2//2 1//2
f 4//2 1//2 2//2
f 4//1 1//1 5//1
f 5//2 1//2 4//2
f 5//1 1//1 6//1
f 6//2 1//2 5//2
f 7//1 4//1 5//1
f 5//2 4//2 7//2
f 6//1 1//1 8//1
f 8//2 1//2 6//2
f 7//1 9//1 4//1
f 4//2 9//2 7//2
f 10//1 9//1 7//1
f 7//2 9//2 10//2
f 11//1 9//1 10//1
f 10//2 9//2 11//2
f 12//1 9//1 11//1
f 11//2 9//2 12//2
f 12//1 13//1 9//1
f 9//2 13//2 12//2
f 12//1 14//1 13//1
f 13//2 14//2 12//2
f 12//1 15//1 14//1
f 14//2 15//2 12//2
f 12//1 16//1 15//1
f 15//2 16//2 12//2
f 12//1 17//1 16//1
f 16//2 17//2 12//2
f 12//1 18//1 17//1
f 17//2 18//2 12//2
f 18//1 12//1 19//1
f 19//2 12//2 18//2
