# SSTK version 0.8.0
# 10
mtllib original-10.mtl
o #ID56
v 0.157871 0.657495 -0.572500
v 0.169870 0.657495 -0.621182
v 0.017437 0.657495 -0.589552
v 0.017437 0.657495 -0.589552
v 0.169870 0.657495 -0.621182
v 0.157871 0.657495 -0.572500
v 0.313444 0.657495 -0.566731
v 0.313444 0.657495 -0.566731
v 0.017437 0.657495 -0.639690
v 0.017437 0.657495 -0.639690
v 0.290144 0.657495 -0.522336
v 0.290144 0.657495 -0.522336
v -0.134995 0.657495 -0.621182
v -0.134995 0.657495 -0.621182
v 0.439815 0.657495 -0.479504
v 0.439815 0.657495 -0.479504
v -0.122997 0.657495 -0.572500
v -0.122997 0.657495 -0.572500
v 0.406567 0.657495 -0.441974
v 0.406567 0.657495 -0.441974
v -0.278569 0.657495 -0.566731
v -0.278569 0.657495 -0.566731
v 0.541639 0.657495 -0.364568
v 0.541639 0.657495 -0.364568
v -0.255269 0.657495 -0.522336
v -0.255269 0.657495 -0.522336
v 0.500376 0.657495 -0.336086
v 0.500376 0.657495 -0.336086
v -0.404940 0.657495 -0.479504
v -0.404940 0.657495 -0.479504
v 0.612999 0.657495 -0.228604
v 0.612999 0.657495 -0.228604
v -0.371692 0.657495 -0.441974
v -0.371692 0.657495 -0.441974
v 0.566118 0.657495 -0.210825
v 0.566118 0.657495 -0.210825
v -0.506765 0.657495 -0.364568
v -0.506765 0.657495 -0.364568
v 0.649746 0.657495 -0.079514
v 0.649746 0.657495 -0.079514
v -0.465501 0.657495 -0.336086
v -0.465501 0.657495 -0.336086
v 0.599973 0.657495 -0.073470
v 0.599973 0.657495 -0.073470
v -0.578124 0.657495 -0.228604
v -0.578124 0.657495 -0.228604
v 0.649746 0.657495 0.074039
v 0.649746 0.657495 0.074039
v -0.531244 0.657495 -0.210825
v -0.531244 0.657495 -0.210825
v 0.599973 0.657495 0.067995
v 0.599973 0.657495 0.067995
v -0.614871 0.657495 -0.079514
v -0.614871 0.657495 -0.079514
v 0.612999 0.657495 0.223129
v 0.612999 0.657495 0.223129
v -0.565098 0.657495 -0.073470
v -0.565098 0.657495 -0.073470
v 0.566118 0.657495 0.205350
v 0.566118 0.657495 0.205350
v -0.614871 0.657495 0.074039
v -0.614871 0.657495 0.074039
v 0.541639 0.657495 0.359093
v 0.612999 0.657495 0.223129
v 0.566118 0.657495 0.205350
v 0.566118 0.657495 0.205350
v 0.612999 0.657495 0.223129
v 0.541639 0.657495 0.359093
v -0.565098 0.657495 0.067995
v -0.565098 0.657495 0.067995
v 0.541639 0.657495 0.359093
v 0.566118 0.657495 0.205350
v 0.500376 0.657495 0.330611
v 0.500376 0.657495 0.330611
v 0.566118 0.657495 0.205350
v 0.541639 0.657495 0.359093
v -0.578124 0.657495 0.223129
v -0.578124 0.657495 0.223129
v 0.439815 0.657495 0.474028
v 0.541639 0.657495 0.359093
v 0.500376 0.657495 0.330611
v 0.500376 0.657495 0.330611
v 0.541639 0.657495 0.359093
v 0.439815 0.657495 0.474028
v -0.531244 0.657495 0.205350
v -0.531244 0.657495 0.205350
v 0.439815 0.657495 0.474028
v 0.500376 0.657495 0.330611
v 0.406567 0.657495 0.436499
v 0.406567 0.657495 0.436499
v 0.500376 0.657495 0.330611
v 0.439815 0.657495 0.474028
v -0.506765 0.657495 0.359093
v -0.531244 0.657495 0.205350
v -0.578124 0.657495 0.223129
v -0.578124 0.657495 0.223129
v -0.531244 0.657495 0.205350
v -0.506765 0.657495 0.359093
v 0.313444 0.657495 0.561256
v 0.313444 0.657495 0.561256
v -0.506765 0.657495 0.359093
v -0.465501 0.657495 0.330611
v -0.531244 0.657495 0.205350
v -0.531244 0.657495 0.205350
v -0.465501 0.657495 0.330611
v -0.506765 0.657495 0.359093
v 0.290144 0.657495 0.516861
v 0.290144 0.657495 0.516861
v -0.404940 0.657495 0.474028
v -0.465501 0.657495 0.330611
v -0.506765 0.657495 0.359093
v -0.506765 0.657495 0.359093
v -0.465501 0.657495 0.330611
v -0.404940 0.657495 0.474028
v 0.169870 0.657495 0.615707
v 0.169870 0.657495 0.615707
v -0.404940 0.657495 0.474028
v -0.371692 0.657495 0.436499
v -0.465501 0.657495 0.330611
v -0.465501 0.657495 0.330611
v -0.371692 0.657495 0.436499
v -0.404940 0.657495 0.474028
v 0.157871 0.657495 0.567025
v 0.157871 0.657495 0.567025
v -0.278569 0.657495 0.561256
v -0.278569 0.657495 0.561256
v 0.017437 0.657495 0.634215
v 0.017437 0.657495 0.634215
v -0.255269 0.657495 0.516861
v -0.255269 0.657495 0.516861
v 0.017437 0.657495 0.584077
v 0.017437 0.657495 0.584077
v -0.134995 0.657495 0.615707
v -0.134995 0.657495 0.615707
v -0.122997 0.657495 0.567025
v -0.122997 0.657495 0.567025
vn 0 1 0
vn 0 -1 0
vn 0.0000019709709999951517 1 0.000001017588000441586
vn -2.8620789999990675e-7 1 7.546683004438433e-7
vn 2.8620789999990675e-7 -1 -7.546683004438433e-7
vn -0.0000019709709999951517 -1 -0.000001017588000441586
vn 0.0000021887099999933133 1 0.0000011487240004405797
vn 9.495289999999137e-8 1 4.152375004440515e-7
vn -0.0000021887099999933133 -1 -0.0000011487240004405797
vn -9.495289999999137e-8 -1 -4.152375004440515e-7
vn 2.590795999999897e-7 1 1.0940140044408485e-7
vn 0.00000230869799999275 1 9.748929004410279e-7
vn -0.00000230869799999275 -1 -9.748929004410279e-7
vn -2.590795999999897e-7 -1 -1.0940140044408485e-7
vn 0.0000020266359999948885 1 9.680359004416477e-7
vn -0.0000020266359999948885 -1 -9.680359004416477e-7
vn -0.0000019709739999951516 1 0.000001017589000441586
vn 2.8620789999990675e-7 1 7.546683004438433e-7
vn -2.8620789999990675e-7 -1 -7.546683004438433e-7
vn 0.0000019709739999951516 -1 -0.000001017589000441586
vn -0.000002188712999993313 1 0.0000011487250004405797
vn -9.495294999999138e-8 1 4.1523740044405157e-7
vn 9.495294999999138e-8 -1 -4.1523740044405157e-7
vn 0.000002188712999993313 -1 -0.0000011487250004405797
vn -2.590796999999897e-7 1 1.0940150044408486e-7
vn -0.0000023086999999927503 1 9.748940004410278e-7
vn 0.0000023086999999927503 -1 -9.748940004410278e-7
vn 2.590796999999897e-7 -1 -1.0940150044408486e-7
vn -0.0000020266379999948886 1 9.680366004416477e-7
vn 0.0000020266379999948886 -1 -9.680366004416477e-7
usemtl material_0_0
f 1//1 2//1 3//1
f 4//2 5//2 6//2
f 7//1 2//1 1//1
f 6//2 5//2 8//2
f 3//1 2//1 9//1
f 10//2 5//2 4//2
f 11//1 7//1 1//1
f 6//2 8//2 12//2
f 3//1 9//1 13//1
f 14//2 10//2 4//2
f 15//1 7//1 11//1
f 12//2 8//2 16//2
f 17//1 3//1 13//1
f 14//2 4//2 18//2
f 19//1 15//1 11//1
f 12//2 16//2 20//2
f 21//1 17//1 13//1
f 14//2 18//2 22//2
f 23//1 15//1 19//1
f 20//2 16//2 24//2
f 25//1 17//1 21//1
f 22//2 18//2 26//2
f 27//1 23//1 19//1
f 20//2 24//2 28//2
f 29//1 25//1 21//1
f 22//2 26//2 30//2
f 31//1 23//1 27//1
f 28//2 24//2 32//2
f 33//1 25//1 29//1
f 30//2 26//2 34//2
f 35//1 31//1 27//1
f 28//2 32//2 36//2
f 37//1 33//1 29//1
f 30//2 34//2 38//2
f 39//1 31//1 35//1
f 36//2 32//2 40//2
f 41//1 33//1 37//1
f 38//2 34//2 42//2
f 43//1 39//1 35//1
f 36//2 40//2 44//2
f 45//1 41//1 37//1
f 38//2 42//2 46//2
f 47//1 39//1 43//1
f 44//2 40//2 48//2
f 49//1 41//1 45//1
f 46//2 42//2 50//2
f 47//1 43//1 51//1
f 52//2 44//2 48//2
f 53//1 49//1 45//1
f 46//2 50//2 54//2
f 55//1 47//1 51//1
f 52//2 48//2 56//2
f 57//1 49//1 53//1
f 54//2 50//2 58//2
f 55//1 51//1 59//1
f 60//2 52//2 56//2
f 61//1 57//1 53//1
f 54//2 58//2 62//2
f 63//3 64//4 65//4
f 66//5 67//5 68//6
f 61//1 69//1 57//1
f 58//2 70//2 62//2
f 71//7 72//8 73//7
f 74//9 75//10 76//9
f 77//1 69//1 61//1
f 62//2 70//2 78//2
f 79//11 80//12 81//12
f 82//13 83//13 84//14
f 77//1 85//1 69//1
f 70//2 86//2 78//2
f 87//1 88//15 89//1
f 90//2 91//16 92//2
f 93//17 94//18 95//18
f 96//19 97//19 98//20
f 99//1 87//1 89//1
f 90//2 92//2 100//2
f 101//21 102//21 103//22
f 104//23 105//24 106//24
f 99//1 89//1 107//1
f 108//2 90//2 100//2
f 109//25 110//26 111//26
f 112//27 113//27 114//28
f 115//1 99//1 107//1
f 108//2 100//2 116//2
f 117//1 118//1 119//29
f 120//30 121//2 122//2
f 115//1 107//1 123//1
f 124//2 108//2 116//2
f 125//1 118//1 117//1
f 122//2 121//2 126//2
f 127//1 115//1 123//1
f 124//2 116//2 128//2
f 125//1 129//1 118//1
f 121//2 130//2 126//2
f 127//1 123//1 131//1
f 132//2 124//2 128//2
f 133//1 129//1 125//1
f 126//2 130//2 134//2
f 127//1 131//1 135//1
f 136//2 132//2 128//2
f 133//1 135//1 129//1
f 130//2 136//2 134//2
f 127//1 135//1 133//1
f 134//2 136//2 128//2
