# SSTK version 0.8.0
# 7
mtllib original-7.mtl
o #ID38
v 0.156613 0.494830 -0.567394
v 0.168504 0.494830 -0.615639
v 0.017437 0.494830 -0.584293
v 0.017437 0.494830 -0.584293
v 0.168504 0.494830 -0.615639
v 0.156613 0.494830 -0.567394
v 0.310791 0.494830 -0.561677
v 0.168504 0.494830 -0.615639
v 0.156613 0.494830 -0.567394
v 0.156613 0.494830 -0.567394
v 0.168504 0.494830 -0.615639
v 0.310791 0.494830 -0.561677
v 0.017437 0.494830 -0.584293
v 0.168504 0.494830 -0.615639
v 0.017437 0.494830 -0.633982
v 0.017437 0.494830 -0.633982
v 0.168504 0.494830 -0.615639
v 0.017437 0.494830 -0.584293
v 0.287699 0.494830 -0.517679
v 0.287699 0.494830 -0.517679
v 0.017437 0.494830 -0.584293
v 0.017437 0.494830 -0.633982
v -0.133629 0.494830 -0.615639
v -0.133629 0.494830 -0.615639
v 0.017437 0.494830 -0.633982
v 0.017437 0.494830 -0.584293
v 0.436030 0.494830 -0.475231
v 0.310791 0.494830 -0.561677
v 0.287699 0.494830 -0.517679
v 0.287699 0.494830 -0.517679
v 0.310791 0.494830 -0.561677
v 0.436030 0.494830 -0.475231
v -0.121738 0.494830 -0.567394
v 0.017437 0.494830 -0.584293
v -0.133629 0.494830 -0.615639
v -0.133629 0.494830 -0.615639
v 0.017437 0.494830 -0.584293
v -0.121738 0.494830 -0.567394
v 0.403080 0.494830 -0.438038
v 0.436030 0.494830 -0.475231
v 0.287699 0.494830 -0.517679
v 0.287699 0.494830 -0.517679
v 0.436030 0.494830 -0.475231
v 0.403080 0.494830 -0.438038
v -0.275917 0.494830 -0.561677
v -0.121738 0.494830 -0.567394
v -0.133629 0.494830 -0.615639
v -0.133629 0.494830 -0.615639
v -0.121738 0.494830 -0.567394
v -0.275917 0.494830 -0.561677
v 0.536941 0.494830 -0.361325
v 0.436030 0.494830 -0.475231
v 0.403080 0.494830 -0.438038
v 0.403080 0.494830 -0.438038
v 0.436030 0.494830 -0.475231
v 0.536941 0.494830 -0.361325
v -0.252825 0.494830 -0.517679
v -0.252825 0.494830 -0.517679
v 0.496048 0.494830 -0.333099
v 0.536941 0.494830 -0.361325
v 0.403080 0.494830 -0.438038
v 0.403080 0.494830 -0.438038
v 0.536941 0.494830 -0.361325
v 0.496048 0.494830 -0.333099
v -0.401155 0.494830 -0.475231
v -0.252825 0.494830 -0.517679
v -0.275917 0.494830 -0.561677
v -0.275917 0.494830 -0.561677
v -0.252825 0.494830 -0.517679
v -0.401155 0.494830 -0.475231
v 0.607661 0.494830 -0.226580
v 0.536941 0.494830 -0.361325
v 0.496048 0.494830 -0.333099
v 0.496048 0.494830 -0.333099
v 0.536941 0.494830 -0.361325
v 0.607661 0.494830 -0.226580
v -0.368205 0.494830 -0.438038
v -0.252825 0.494830 -0.517679
v -0.401155 0.494830 -0.475231
v -0.401155 0.494830 -0.475231
v -0.252825 0.494830 -0.517679
v -0.368205 0.494830 -0.438038
v 0.561201 0.494830 -0.208960
v 0.607661 0.494830 -0.226580
v 0.496048 0.494830 -0.333099
v 0.496048 0.494830 -0.333099
v 0.607661 0.494830 -0.226580
v 0.561201 0.494830 -0.208960
v -0.502066 0.494830 -0.361325
v -0.368205 0.494830 -0.438038
v -0.401155 0.494830 -0.475231
v -0.401155 0.494830 -0.475231
v -0.368205 0.494830 -0.438038
v -0.502066 0.494830 -0.361325
v 0.644079 0.494830 -0.078826
v 0.607661 0.494830 -0.226580
v 0.561201 0.494830 -0.208960
v 0.561201 0.494830 -0.208960
v 0.607661 0.494830 -0.226580
v 0.644079 0.494830 -0.078826
v -0.461173 0.494830 -0.333099
v -0.368205 0.494830 -0.438038
v -0.502066 0.494830 -0.361325
v -0.502066 0.494830 -0.361325
v -0.368205 0.494830 -0.438038
v -0.461173 0.494830 -0.333099
v 0.594752 0.494830 -0.072836
v 0.594752 0.494830 -0.072836
v -0.572786 0.494830 -0.226580
v -0.461173 0.494830 -0.333099
v -0.502066 0.494830 -0.361325
v -0.502066 0.494830 -0.361325
v -0.461173 0.494830 -0.333099
v -0.572786 0.494830 -0.226580
v -0.526326 0.494830 -0.208960
v -0.461173 0.494830 -0.333099
v -0.572786 0.494830 -0.226580
v -0.572786 0.494830 -0.226580
v -0.461173 0.494830 -0.333099
v -0.526326 0.494830 -0.208960
v -0.609204 0.494830 -0.078826
v -0.526326 0.494830 -0.208960
v -0.572786 0.494830 -0.226580
v -0.572786 0.494830 -0.226580
v -0.526326 0.494830 -0.208960
v -0.609204 0.494830 -0.078826
v -0.559878 0.494830 -0.072836
v -0.559878 0.494830 -0.072836
vn 8.583143999996646e-7 1 2.1155510044400655e-7
vn -8.583143999996646e-7 -1 -2.1155510044400655e-7
vn 0 1 0
vn 0 -1 0
vn 8.1441659999973e-7 1 0
vn -8.1441659999973e-7 -1 0
vn -8.1441649999973e-7 1 0
vn 8.1441649999973e-7 -1 0
vn -7.21129999999761e-7 1 -3.7847869955578525e-7
vn 7.21129999999761e-7 -1 3.7847869955578525e-7
vn -8.583142999996647e-7 1 2.115550004440065e-7
vn 8.583142999996647e-7 -1 -2.115550004440065e-7
vn -6.616850999997414e-7 1 -5.862015995556816e-7
vn 6.616850999997414e-7 -1 5.862015995556816e-7
vn -6.095993999997979e-7 1 -5.400576995557316e-7
vn 6.095993999997979e-7 -1 5.400576995557316e-7
vn -5.021699999998036e-7 1 -7.275193995556265e-7
vn 5.021699999998036e-7 -1 7.275193995556265e-7
vn 7.21129999999761e-7 1 -3.7847869955578525e-7
vn -7.21129999999761e-7 -1 3.7847869955578525e-7
vn 4.626409999998465e-7 1 6.70251800443867e-7
vn -4.626409999998465e-7 -1 -6.70251800443867e-7
vn 6.616850999997414e-7 1 -5.862015995556816e-7
vn -6.616850999997414e-7 -1 5.862015995556816e-7
vn 3.134716999998775e-7 1 8.265555004437663e-7
vn -3.134716999998775e-7 -1 -8.265555004437663e-7
vn 6.095995999997979e-7 1 -5.400577995557317e-7
vn -6.095995999997979e-7 -1 5.400577995557317e-7
vn 5.021704999998038e-7 1 -7.275189995556265e-7
vn -5.021704999998038e-7 -1 7.275189995556265e-7
vn -4.6264159999984653e-7 1 6.702515004438669e-7
vn 4.6264159999984653e-7 -1 -6.702515004438669e-7
vn -3.134717999998775e-7 1 8.265556004437662e-7
vn 3.134717999998775e-7 -1 -8.265556004437662e-7
usemtl material_0_0
f 1//1 2//1 3//1
f 4//2 5//2 6//2
f 7//3 8//3 9//3
f 10//4 11//4 12//4
f 13//5 14//5 15//5
f 16//6 17//6 18//6
f 19//3 7//3 9//3
f 10//4 12//4 20//4
f 21//7 22//7 23//7
f 24//8 25//8 26//8
f 27//9 28//9 29//9
f 30//10 31//10 32//10
f 33//11 34//11 35//11
f 36//12 37//12 38//12
f 39//13 40//13 41//13
f 42//14 43//14 44//14
f 45//3 46//3 47//3
f 48//4 49//4 50//4
f 51//15 52//15 53//15
f 54//16 55//16 56//16
f 57//3 46//3 45//3
f 50//4 49//4 58//4
f 59//17 60//17 61//17
f 62//18 63//18 64//18
f 65//19 66//19 67//19
f 68//20 69//20 70//20
f 71//21 72//21 73//21
f 74//22 75//22 76//22
f 77//23 78//23 79//23
f 80//24 81//24 82//24
f 83//25 84//25 85//25
f 86//26 87//26 88//26
f 89//27 90//27 91//27
f 92//28 93//28 94//28
f 95//3 96//3 97//3
f 98//4 99//4 100//4
f 101//29 102//29 103//29
f 104//30 105//30 106//30
f 107//3 95//3 97//3
f 98//4 100//4 108//4
f 109//31 110//31 111//31
f 112//32 113//32 114//32
f 115//33 116//33 117//33
f 118//34 119//34 120//34
f 121//3 122//3 123//3
f 124//4 125//4 126//4
f 127//3 122//3 121//3
f 126//4 125//4 128//4
