# SSTK version 0.8.0
# 13
mtllib original-13.mtl
o #ID1327
v 0.312578 -0.602039 0.369879
v 0.425194 -0.602039 0.257263
v 0.312578 -0.602039 0.257263
v 0.425194 -0.602039 0.352257
v 0.425043 -0.602039 0.354557
v 0.424593 -0.602039 0.356818
v 0.423852 -0.602039 0.359001
v 0.422833 -0.602039 0.361068
v 0.421552 -0.602039 0.362984
v 0.420032 -0.602039 0.364718
v 0.418299 -0.602039 0.366237
v 0.416383 -0.602039 0.367518
v 0.414315 -0.602039 0.368537
v 0.412133 -0.602039 0.369278
v 0.409872 -0.602039 0.369728
v 0.407572 -0.602039 0.369879
v 0.407572 -0.602039 0.369879
v 0.312578 -0.602039 0.369879
v 0.409872 -0.602039 0.369728
v 0.412133 -0.602039 0.369278
v 0.414315 -0.602039 0.368537
v 0.416383 -0.602039 0.367518
v 0.418299 -0.602039 0.366237
v 0.420032 -0.602039 0.364718
v 0.421552 -0.602039 0.362984
v 0.422833 -0.602039 0.361068
v 0.423852 -0.602039 0.359001
v 0.424593 -0.602039 0.356818
v 0.425043 -0.602039 0.354557
v 0.425194 -0.602039 0.352257
v 0.425194 -0.602039 0.257263
v 0.312578 -0.602039 0.257263
v 0.312578 -0.602039 0.257263
v 0.425194 -0.488390 0.207005
v 0.262320 -0.488390 0.207005
v 0.425194 -0.602039 0.257263
v 0.425194 -0.602039 0.257263
v 0.312578 -0.602039 0.257263
v 0.425194 -0.488390 0.207005
v 0.262320 -0.488390 0.207005
v 0.312578 -0.602039 0.369879
v 0.262320 -0.488390 0.207005
v 0.312578 -0.602039 0.257263
v 0.262320 -0.488390 0.369879
v 0.262320 -0.488390 0.369879
v 0.312578 -0.602039 0.369879
v 0.262320 -0.488390 0.207005
v 0.312578 -0.602039 0.257263
v 0.262320 -0.488390 -0.344873
v -0.289558 -0.488390 -0.507747
v 0.262320 -0.488390 -0.507747
v -0.289558 -0.488390 -0.344873
v -0.452432 -0.488390 -0.344873
v 0.425194 -0.488390 0.207005
v 0.425194 -0.488390 -0.344873
v -0.289558 -0.488390 0.207005
v 0.262320 -0.488390 0.207005
v -0.289558 -0.488390 0.369879
v 0.262320 -0.488390 0.369879
v -0.452432 -0.488390 0.207005
v -0.289558 -0.488390 0.207005
v -0.452432 -0.488390 -0.344873
v -0.452432 -0.488390 0.207005
v 0.262320 -0.488390 0.369879
v 0.262320 -0.488390 0.207005
v -0.289558 -0.488390 0.369879
v 0.425194 -0.488390 0.207005
v 0.262320 -0.488390 -0.344873
v 0.425194 -0.488390 -0.344873
v -0.289558 -0.488390 -0.344873
v -0.289558 -0.488390 -0.507747
v 0.262320 -0.488390 -0.507747
v 0.312578 -0.602039 -0.395131
v 0.262320 -0.488390 -0.507747
v 0.312578 -0.602039 -0.507747
v 0.262320 -0.488390 -0.344873
v 0.262320 -0.488390 -0.344873
v 0.312578 -0.602039 -0.395131
v 0.262320 -0.488390 -0.507747
v 0.312578 -0.602039 -0.507747
v 0.425194 -0.488390 -0.344873
v 0.312578 -0.602039 -0.395131
v 0.262320 -0.488390 -0.344873
v 0.425194 -0.602039 -0.395131
v 0.425194 -0.602039 -0.395131
v 0.425194 -0.488390 -0.344873
v 0.312578 -0.602039 -0.395131
v 0.262320 -0.488390 -0.344873
v -0.289558 -0.488390 0.207005
v -0.339817 -0.602039 0.369879
v -0.339817 -0.602039 0.257263
v -0.289558 -0.488390 0.369879
v -0.289558 -0.488390 0.369879
v -0.289558 -0.488390 0.207005
v -0.339817 -0.602039 0.369879
v -0.339817 -0.602039 0.257263
v -0.339817 -0.602039 0.257263
v -0.452432 -0.488390 0.207005
v -0.452432 -0.602039 0.257263
v -0.289558 -0.488390 0.207005
v -0.289558 -0.488390 0.207005
v -0.339817 -0.602039 0.257263
v -0.452432 -0.488390 0.207005
v -0.452432 -0.602039 0.257263
v -0.289558 -0.488390 -0.344873
v -0.452432 -0.602039 -0.395131
v -0.452432 -0.488390 -0.344873
v -0.339817 -0.602039 -0.395131
v -0.339817 -0.602039 -0.395131
v -0.289558 -0.488390 -0.344873
v -0.452432 -0.602039 -0.395131
v -0.452432 -0.488390 -0.344873
v -0.339817 -0.602039 -0.507747
v -0.289558 -0.488390 -0.344873
v -0.339817 -0.602039 -0.395131
v -0.289558 -0.488390 -0.507747
v -0.289558 -0.488390 -0.507747
v -0.339817 -0.602039 -0.507747
v -0.289558 -0.488390 -0.344873
v -0.339817 -0.602039 -0.395131
v 0.312578 -0.602039 -0.395131
v 0.407572 -0.602039 -0.507747
v 0.312578 -0.602039 -0.507747
v 0.409872 -0.602039 -0.507596
v 0.412133 -0.602039 -0.507147
v 0.414315 -0.602039 -0.506406
v 0.416383 -0.602039 -0.505386
v 0.418299 -0.602039 -0.504106
v 0.420032 -0.602039 -0.502586
v 0.421552 -0.602039 -0.500853
v 0.422833 -0.602039 -0.498936
v 0.423852 -0.602039 -0.496869
v 0.424593 -0.602039 -0.494686
v 0.425043 -0.602039 -0.492425
v 0.425194 -0.602039 -0.490125
v 0.425194 -0.602039 -0.395131
v 0.425194 -0.602039 -0.395131
v 0.312578 -0.602039 -0.395131
v 0.425194 -0.602039 -0.490125
v 0.425043 -0.602039 -0.492425
v 0.424593 -0.602039 -0.494686
v 0.423852 -0.602039 -0.496869
v 0.422833 -0.602039 -0.498936
v 0.421552 -0.602039 -0.500853
v 0.420032 -0.602039 -0.502586
v 0.418299 -0.602039 -0.504106
v 0.416383 -0.602039 -0.505386
v 0.414315 -0.602039 -0.506406
v 0.412133 -0.602039 -0.507147
v 0.409872 -0.602039 -0.507596
v 0.407572 -0.602039 -0.507747
v 0.312578 -0.602039 -0.507747
v -0.339817 -0.602039 0.369879
v -0.452432 -0.602039 0.257263
v -0.339817 -0.602039 0.257263
v -0.452432 -0.602039 0.352257
v -0.452282 -0.602039 0.354557
v -0.451832 -0.602039 0.356818
v -0.451091 -0.602039 0.359001
v -0.450071 -0.602039 0.361068
v -0.448791 -0.602039 0.362984
v -0.447271 -0.602039 0.364718
v -0.445538 -0.602039 0.366237
v -0.443621 -0.602039 0.367518
v -0.441554 -0.602039 0.368537
v -0.439371 -0.602039 0.369278
v -0.437111 -0.602039 0.369728
v -0.434810 -0.602039 0.369879
v -0.434810 -0.602039 0.369879
v -0.339817 -0.602039 0.369879
v -0.437111 -0.602039 0.369728
v -0.439371 -0.602039 0.369278
v -0.441554 -0.602039 0.368537
v -0.443621 -0.602039 0.367518
v -0.445538 -0.602039 0.366237
v -0.447271 -0.602039 0.364718
v -0.448791 -0.602039 0.362984
v -0.450071 -0.602039 0.361068
v -0.451091 -0.602039 0.359001
v -0.451832 -0.602039 0.356818
v -0.452282 -0.602039 0.354557
v -0.452432 -0.602039 0.352257
v -0.452432 -0.602039 0.257263
v -0.339817 -0.602039 0.257263
v -0.339817 -0.602039 -0.395131
v -0.434810 -0.602039 -0.507747
v -0.339817 -0.602039 -0.507747
v -0.437111 -0.602039 -0.507596
v -0.439371 -0.602039 -0.507147
v -0.441554 -0.602039 -0.506406
v -0.443621 -0.602039 -0.505386
v -0.445538 -0.602039 -0.504106
v -0.447271 -0.602039 -0.502586
v -0.448791 -0.602039 -0.500853
v -0.450071 -0.602039 -0.498936
v -0.451091 -0.602039 -0.496869
v -0.451832 -0.602039 -0.494686
v -0.452282 -0.602039 -0.492425
v -0.452432 -0.602039 -0.490125
v -0.452432 -0.602039 -0.395131
v -0.452432 -0.602039 -0.395131
v -0.339817 -0.602039 -0.395131
v -0.452432 -0.602039 -0.490125
v -0.452282 -0.602039 -0.492425
v -0.451832 -0.602039 -0.494686
v -0.451091 -0.602039 -0.496869
v -0.450071 -0.602039 -0.498936
v -0.448791 -0.602039 -0.500853
v -0.447271 -0.602039 -0.502586
v -0.445538 -0.602039 -0.504106
v -0.443621 -0.602039 -0.505386
v -0.441554 -0.602039 -0.506406
v -0.439371 -0.602039 -0.507147
v -0.437111 -0.602039 -0.507596
v -0.434810 -0.602039 -0.507747
v -0.339817 -0.602039 -0.507747
vn 0 1 0
vn 0 -1 0
vn 0 0.4044416933329142 0.9145637849237224
vn 0 -0.4044416933329142 -0.9145637849237224
vn -0.9145637849237224 -0.4044416933329142 0
vn 0.9145637849237224 0.4044416933329142 0
vn 0 0.4044416933329142 -0.9145637849237224
vn 0 -0.4044416933329142 0.9145637849237224
vn 0.9145637849237224 -0.4044416933329142 0
vn -0.9145637849237224 0.4044416933329142 0
usemtl material_0_0
f 1//1 2//1 3//1
f 2//1 1//1 4//1
f 4//1 1//1 5//1
f 5//1 1//1 6//1
f 6//1 1//1 7//1
f 7//1 1//1 8//1
f 8//1 1//1 9//1
f 9//1 1//1 10//1
f 10//1 1//1 11//1
f 11//1 1//1 12//1
f 12//1 1//1 13//1
f 13//1 1//1 14//1
f 14//1 1//1 15//1
f 15//1 1//1 16//1
f 17//2 18//2 19//2
f 19//2 18//2 20//2
f 20//2 18//2 21//2
f 21//2 18//2 22//2
f 22//2 18//2 23//2
f 23//2 18//2 24//2
f 24//2 18//2 25//2
f 25//2 18//2 26//2
f 26//2 18//2 27//2
f 27//2 18//2 28//2
f 28//2 18//2 29//2
f 29//2 18//2 30//2
f 30//2 18//2 31//2
f 32//2 31//2 18//2
f 33//3 34//3 35//3
f 34//3 33//3 36//3
f 37//4 38//4 39//4
f 40//4 39//4 38//4
f 41//5 42//5 43//5
f 42//5 41//5 44//5
f 45//6 46//6 47//6
f 48//6 47//6 46//6
f 49//2 50//2 51//2
f 50//2 49//2 52//2
f 52//2 49//2 53//2
f 54//2 49//2 55//2
f 49//2 54//2 53//2
f 53//2 54//2 56//2
f 56//2 54//2 57//2
f 56//2 57//2 58//2
f 58//2 57//2 59//2
f 60//2 53//2 56//2
f 61//1 62//1 63//1
f 64//1 65//1 66//1
f 66//1 65//1 61//1
f 65//1 67//1 61//1
f 61//1 67//1 62//1
f 62//1 67//1 68//1
f 69//1 68//1 67//1
f 62//1 68//1 70//1
f 70//1 68//1 71//1
f 72//1 71//1 68//1
f 73//5 74//5 75//5
f 74//5 73//5 76//5
f 77//6 78//6 79//6
f 80//6 79//6 78//6
f 81//7 82//7 83//7
f 82//7 81//7 84//7
f 85//8 86//8 87//8
f 88//8 87//8 86//8
f 89//9 90//9 91//9
f 90//9 89//9 92//9
f 93//10 94//10 95//10
f 96//10 95//10 94//10
f 97//3 98//3 99//3
f 98//3 97//3 100//3
f 101//4 102//4 103//4
f 104//4 103//4 102//4
f 105//7 106//7 107//7
f 106//7 105//7 108//7
f 109//8 110//8 111//8
f 112//8 111//8 110//8
f 113//9 114//9 115//9
f 114//9 113//9 116//9
f 117//10 118//10 119//10
f 120//10 119//10 118//10
f 121//1 122//1 123//1
f 122//1 121//1 124//1
f 124//1 121//1 125//1
f 125//1 121//1 126//1
f 126//1 121//1 127//1
f 127//1 121//1 128//1
f 128//1 121//1 129//1
f 129//1 121//1 130//1
f 130//1 121//1 131//1
f 131//1 121//1 132//1
f 132//1 121//1 133//1
f 133//1 121//1 134//1
f 134//1 121//1 135//1
f 135//1 121//1 136//1
f 137//2 138//2 139//2
f 139//2 138//2 140//2
f 140//2 138//2 141//2
f 141//2 138//2 142//2
f 142//2 138//2 143//2
f 143//2 138//2 144//2
f 144//2 138//2 145//2
f 145//2 138//2 146//2
f 146//2 138//2 147//2
f 147//2 138//2 148//2
f 148//2 138//2 149//2
f 149//2 138//2 150//2
f 150//2 138//2 151//2
f 152//2 151//2 138//2
f 153//2 154//2 155//2
f 154//2 153//2 156//2
f 156//2 153//2 157//2
f 157//2 153//2 158//2
f 158//2 153//2 159//2
f 159//2 153//2 160//2
f 160//2 153//2 161//2
f 161//2 153//2 162//2
f 162//2 153//2 163//2
f 163//2 153//2 164//2
f 164//2 153//2 165//2
f 165//2 153//2 166//2
f 166//2 153//2 167//2
f 167//2 153//2 168//2
f 169//1 170//1 171//1
f 171//1 170//1 172//1
f 172//1 170//1 173//1
f 173//1 170//1 174//1
f 174//1 170//1 175//1
f 175//1 170//1 176//1
f 176//1 170//1 177//1
f 177//1 170//1 178//1
f 178//1 170//1 179//1
f 179//1 170//1 180//1
f 180//1 170//1 181//1
f 181//1 170//1 182//1
f 182//1 170//1 183//1
f 184//1 183//1 170//1
f 185//2 186//2 187//2
f 186//2 185//2 188//2
f 188//2 185//2 189//2
f 189//2 185//2 190//2
f 190//2 185//2 191//2
f 191//2 185//2 192//2
f 192//2 185//2 193//2
f 193//2 185//2 194//2
f 194//2 185//2 195//2
f 195//2 185//2 196//2
f 196//2 185//2 197//2
f 197//2 185//2 198//2
f 198//2 185//2 199//2
f 199//2 185//2 200//2
f 201//1 202//1 203//1
f 203//1 202//1 204//1
f 204//1 202//1 205//1
f 205//1 202//1 206//1
f 206//1 202//1 207//1
f 207//1 202//1 208//1
f 208//1 202//1 209//1
f 209//1 202//1 210//1
f 210//1 202//1 211//1
f 211//1 202//1 212//1
f 212//1 202//1 213//1
f 213//1 202//1 214//1
f 214//1 202//1 215//1
f 216//1 215//1 202//1
