# SSTK version 0.8.0
# 7
mtllib original-7.mtl
o #ID1291
v 0.383058 0.277528 0.425848
v 0.378121 0.157146 0.432283
v 0.383058 0.157146 0.425848
v 0.378121 0.277528 0.432283
v 0.378121 0.277528 0.432283
v 0.383058 0.277528 0.425848
v 0.378121 0.157146 0.432283
v 0.383058 0.157146 0.425848
v 0.325087 0.277528 0.369879
v 0.347502 0.277528 0.395329
v 0.387220 0.277528 0.369879
v 0.325087 0.277528 0.410315
v 0.351675 0.277528 0.393601
v 0.356154 0.277528 0.393011
v 0.343918 0.277528 0.398079
v 0.341168 0.277528 0.401663
v 0.339439 0.277528 0.405837
v 0.338849 0.277528 0.410315
v 0.326146 0.277528 0.418356
v 0.339439 0.277528 0.414794
v 0.341168 0.277528 0.418967
v 0.329249 0.277528 0.425848
v 0.343918 0.277528 0.422551
v 0.347502 0.277528 0.425301
v 0.351675 0.277528 0.427030
v 0.334186 0.277528 0.432283
v 0.356154 0.277528 0.427620
v 0.364806 0.277528 0.395329
v 0.387220 0.277528 0.410315
v 0.360632 0.277528 0.393601
v 0.368390 0.277528 0.398079
v 0.371140 0.277528 0.401663
v 0.372868 0.277528 0.405837
v 0.373458 0.277528 0.410315
v 0.372868 0.277528 0.414794
v 0.386162 0.277528 0.418356
v 0.371140 0.277528 0.418967
v 0.383058 0.277528 0.425848
v 0.368390 0.277528 0.422551
v 0.364806 0.277528 0.425301
v 0.360632 0.277528 0.427030
v 0.378121 0.277528 0.432283
v 0.340621 0.277528 0.437220
v 0.371687 0.277528 0.437220
v 0.348113 0.277528 0.440323
v 0.364194 0.277528 0.440323
v 0.356154 0.277528 0.441382
v 0.356154 0.277528 0.441382
v 0.348113 0.277528 0.440323
v 0.364194 0.277528 0.440323
v 0.371687 0.277528 0.437220
v 0.340621 0.277528 0.437220
v 0.378121 0.277528 0.432283
v 0.334186 0.277528 0.432283
v 0.356154 0.277528 0.427620
v 0.360632 0.277528 0.427030
v 0.383058 0.277528 0.425848
v 0.364806 0.277528 0.425301
v 0.368390 0.277528 0.422551
v 0.371140 0.277528 0.418967
v 0.386162 0.277528 0.418356
v 0.372868 0.277528 0.414794
v 0.387220 0.277528 0.410315
v 0.373458 0.277528 0.410315
v 0.372868 0.277528 0.405837
v 0.371140 0.277528 0.401663
v 0.368390 0.277528 0.398079
v 0.364806 0.277528 0.395329
v 0.356154 0.277528 0.393011
v 0.387220 0.277528 0.369879
v 0.360632 0.277528 0.393601
v 0.351675 0.277528 0.427030
v 0.329249 0.277528 0.425848
v 0.347502 0.277528 0.425301
v 0.343918 0.277528 0.422551
v 0.341168 0.277528 0.418967
v 0.326146 0.277528 0.418356
v 0.339439 0.277528 0.414794
v 0.338849 0.277528 0.410315
v 0.325087 0.277528 0.410315
v 0.339439 0.277528 0.405837
v 0.341168 0.277528 0.401663
v 0.343918 0.277528 0.398079
v 0.347502 0.277528 0.395329
v 0.351675 0.277528 0.393601
v 0.325087 0.277528 0.369879
v 0.371687 0.277528 0.437220
v 0.371687 0.157146 0.437220
v 0.371687 0.277528 0.437220
v 0.371687 0.157146 0.437220
v 0.387220 0.157146 0.369879
v 0.364806 0.157146 0.395329
v 0.325087 0.157146 0.369879
v 0.387220 0.157146 0.410315
v 0.360632 0.157146 0.393601
v 0.356154 0.157146 0.393011
v 0.368390 0.157146 0.398079
v 0.371140 0.157146 0.401663
v 0.372868 0.157146 0.405837
v 0.373458 0.157146 0.410315
v 0.386162 0.157146 0.418356
v 0.372868 0.157146 0.414794
v 0.371140 0.157146 0.418967
v 0.383058 0.157146 0.425848
v 0.368390 0.157146 0.422551
v 0.364806 0.157146 0.425301
v 0.360632 0.157146 0.427030
v 0.378121 0.157146 0.432283
v 0.356154 0.157146 0.427620
v 0.347502 0.157146 0.395329
v 0.325087 0.157146 0.410315
v 0.351675 0.157146 0.393601
v 0.343918 0.157146 0.398079
v 0.341168 0.157146 0.401663
v 0.339439 0.157146 0.405837
v 0.338849 0.157146 0.410315
v 0.339439 0.157146 0.414794
v 0.326146 0.157146 0.418356
v 0.341168 0.157146 0.418967
v 0.329249 0.157146 0.425848
v 0.343918 0.157146 0.422551
v 0.347502 0.157146 0.425301
v 0.351675 0.157146 0.427030
v 0.334186 0.157146 0.432283
v 0.371687 0.157146 0.437220
v 0.340621 0.157146 0.437220
v 0.364194 0.157146 0.440323
v 0.348113 0.157146 0.440323
v 0.356154 0.157146 0.441382
v 0.356154 0.157146 0.441382
v 0.364194 0.157146 0.440323
v 0.348113 0.157146 0.440323
v 0.340621 0.157146 0.437220
v 0.371687 0.157146 0.437220
v 0.334186 0.157146 0.432283
v 0.378121 0.157146 0.432283
v 0.356154 0.157146 0.427620
v 0.351675 0.157146 0.427030
v 0.329249 0.157146 0.425848
v 0.347502 0.157146 0.425301
v 0.343918 0.157146 0.422551
v 0.341168 0.157146 0.418967
v 0.326146 0.157146 0.418356
v 0.339439 0.157146 0.414794
v 0.325087 0.157146 0.410315
v 0.338849 0.157146 0.410315
v 0.339439 0.157146 0.405837
v 0.341168 0.157146 0.401663
v 0.343918 0.157146 0.398079
v 0.347502 0.157146 0.395329
v 0.356154 0.157146 0.393011
v 0.325087 0.157146 0.369879
v 0.351675 0.157146 0.393601
v 0.360632 0.157146 0.427030
v 0.383058 0.157146 0.425848
v 0.364806 0.157146 0.425301
v 0.368390 0.157146 0.422551
v 0.371140 0.157146 0.418967
v 0.386162 0.157146 0.418356
v 0.372868 0.157146 0.414794
v 0.373458 0.157146 0.410315
v 0.387220 0.157146 0.410315
v 0.372868 0.157146 0.405837
v 0.371140 0.157146 0.401663
v 0.368390 0.157146 0.398079
v 0.364806 0.157146 0.395329
v 0.360632 0.157146 0.393601
v 0.387220 0.157146 0.369879
v 0.386162 0.277528 0.418356
v 0.386162 0.157146 0.418356
v 0.386162 0.277528 0.418356
v 0.386162 0.157146 0.418356
v 0.325087 0.277528 0.410315
v 0.325087 0.157146 0.369879
v 0.325087 0.157146 0.410315
v 0.325087 0.277528 0.369879
v 0.325087 0.277528 0.369879
v 0.325087 0.277528 0.410315
v 0.325087 0.157146 0.369879
v 0.325087 0.157146 0.410315
v 0.326146 0.277528 0.418356
v 0.326146 0.157146 0.418356
v 0.326146 0.277528 0.418356
v 0.326146 0.157146 0.418356
v 0.329249 0.277528 0.425848
v 0.329249 0.157146 0.425848
v 0.329249 0.277528 0.425848
v 0.329249 0.157146 0.425848
v 0.334186 0.277528 0.432283
v 0.334186 0.157146 0.432283
v 0.334186 0.277528 0.432283
v 0.334186 0.157146 0.432283
v 0.340621 0.157146 0.437220
v 0.340621 0.277528 0.437220
v 0.340621 0.277528 0.437220
v 0.340621 0.157146 0.437220
v 0.348113 0.157146 0.440323
v 0.348113 0.277528 0.440323
v 0.348113 0.277528 0.440323
v 0.348113 0.157146 0.440323
v 0.356154 0.157146 0.441382
v 0.356154 0.277528 0.441382
v 0.356154 0.277528 0.441382
v 0.356154 0.157146 0.441382
v 0.364194 0.157146 0.440323
v 0.364194 0.277528 0.440323
v 0.364194 0.277528 0.440323
v 0.364194 0.157146 0.440323
v 0.387220 0.277528 0.410315
v 0.387220 0.157146 0.410315
v 0.387220 0.277528 0.410315
v 0.387220 0.157146 0.410315
v 0.387220 0.277528 0.369879
v 0.387220 0.157146 0.369879
v 0.387220 0.277528 0.369879
v 0.387220 0.157146 0.369879
vn 0.866025402838329 0 0.5000000016387101
vn 0.7071067811865476 0 0.7071067811865476
vn 0 1 0
vn 0.5000000016387101 0 0.866025402838329
vn 0 -1 0
vn 0.9659258358036645 0 0.25881900959356163
vn -0.9978589230889555 0 0.06540313151333016
vn -1 0 0
vn -0.9659258358036645 0 0.25881900959356163
vn -0.866025402838329 0 0.5000000016387101
vn -0.7071067811865476 0 0.7071067811865476
vn -0.5000000016387101 0 0.866025402838329
vn -0.25881900959356163 0 0.9659258358036645
vn 0 0 1
vn 0.25881900959356163 0 0.9659258358036645
vn 0.9978589230889555 0 0.06540313151333016
vn 1 0 0
vn -0.7071067811865476 0 -0.7071067811865476
vn -0.866025402838329 0 -0.5000000016387101
vn -0.5000000016387101 0 -0.866025402838329
vn -0.9659258358036645 0 -0.25881900959356163
vn 0.9978589230889555 0 -0.06540313151333016
vn 0.9659258358036645 0 -0.25881900959356163
vn 0.866025402838329 0 -0.5000000016387101
vn 0.7071067811865476 0 -0.7071067811865476
vn 0.5000000016387101 0 -0.866025402838329
vn 0.25881900959356163 0 -0.9659258358036645
vn 0 0 -1
vn -0.25881900959356163 0 -0.9659258358036645
vn -0.9978589230889555 0 -0.06540313151333016
usemtl material_0_0
f 1//1 2//2 3//1
f 2//2 1//1 4//2
f 9//3 10//3 11//3
f 10//3 9//3 12//3
f 11//3 10//3 13//3
f 11//3 13//3 14//3
f 10//3 12//3 15//3
f 15//3 12//3 16//3
f 16//3 12//3 17//3
f 17//3 12//3 18//3
f 18//3 12//3 19//3
f 18//3 19//3 20//3
f 20//3 19//3 21//3
f 21//3 19//3 22//3
f 21//3 22//3 23//3
f 23//3 22//3 24//3
f 24//3 22//3 25//3
f 25//3 22//3 26//3
f 25//3 26//3 27//3
f 11//3 28//3 29//3
f 28//3 11//3 30//3
f 30//3 11//3 14//3
f 29//3 28//3 31//3
f 29//3 31//3 32//3
f 29//3 32//3 33//3
f 29//3 33//3 34//3
f 29//3 34//3 35//3
f 29//3 35//3 36//3
f 36//3 35//3 37//3
f 36//3 37//3 38//3
f 38//3 37//3 39//3
f 38//3 39//3 40//3
f 38//3 40//3 41//3
f 38//3 41//3 42//3
f 42//3 41//3 27//3
f 42//3 27//3 26//3
f 42//3 26//3 43//3
f 42//3 43//3 44//3
f 44//3 43//3 45//3
f 44//3 45//3 46//3
f 46//3 45//3 47//3
f 2//2 87//4 88//4
f 87//4 2//2 4//2
f 91//5 92//5 93//5
f 92//5 91//5 94//5
f 93//5 92//5 95//5
f 93//5 95//5 96//5
f 92//5 94//5 97//5
f 97//5 94//5 98//5
f 98//5 94//5 99//5
f 99//5 94//5 100//5
f 100//5 94//5 101//5
f 100//5 101//5 102//5
f 102//5 101//5 103//5
f 103//5 101//5 104//5
f 103//5 104//5 105//5
f 105//5 104//5 106//5
f 106//5 104//5 107//5
f 107//5 104//5 108//5
f 107//5 108//5 109//5
f 93//5 110//5 111//5
f 110//5 93//5 112//5
f 112//5 93//5 96//5
f 111//5 110//5 113//5
f 111//5 113//5 114//5
f 111//5 114//5 115//5
f 111//5 115//5 116//5
f 111//5 116//5 117//5
f 111//5 117//5 118//5
f 118//5 117//5 119//5
f 118//5 119//5 120//5
f 120//5 119//5 121//5
f 120//5 121//5 122//5
f 120//5 122//5 123//5
f 120//5 123//5 124//5
f 124//5 123//5 109//5
f 124//5 109//5 108//5
f 124//5 108//5 125//5
f 124//5 125//5 126//5
f 126//5 125//5 127//5
f 126//5 127//5 128//5
f 128//5 127//5 129//5
f 169//6 3//1 170//6
f 3//1 169//6 1//1
f 173//7 174//8 175//7
f 174//8 173//7 176//8
f 181//9 175//7 182//9
f 175//7 181//9 173//7
f 185//10 182//9 186//10
f 182//9 185//10 181//9
f 189//11 186//10 190//11
f 186//10 189//11 185//10
f 193//12 189//11 190//11
f 189//11 193//12 194//12
f 197//13 194//12 193//12
f 194//12 197//13 198//13
f 201//14 198//13 197//13
f 198//13 201//14 202//14
f 205//15 202//14 201//14
f 202//14 205//15 206//15
f 88//4 206//15 205//15
f 206//15 88//4 87//4
f 209//16 170//6 210//16
f 170//6 209//16 169//6
f 213//17 210//16 214//17
f 210//16 213//17 209//16
usemtl material_1_0
f 5//18 6//19 7//18
f 8//19 7//18 6//19
f 48//5 49//5 50//5
f 50//5 49//5 51//5
f 49//5 52//5 51//5
f 51//5 52//5 53//5
f 52//5 54//5 53//5
f 54//5 55//5 53//5
f 55//5 56//5 53//5
f 53//5 56//5 57//5
f 56//5 58//5 57//5
f 58//5 59//5 57//5
f 59//5 60//5 57//5
f 57//5 60//5 61//5
f 60//5 62//5 61//5
f 61//5 62//5 63//5
f 62//5 64//5 63//5
f 64//5 65//5 63//5
f 65//5 66//5 63//5
f 66//5 67//5 63//5
f 67//5 68//5 63//5
f 69//5 70//5 71//5
f 71//5 70//5 68//5
f 63//5 68//5 70//5
f 55//5 54//5 72//5
f 54//5 73//5 72//5
f 72//5 73//5 74//5
f 74//5 73//5 75//5
f 75//5 73//5 76//5
f 73//5 77//5 76//5
f 76//5 77//5 78//5
f 78//5 77//5 79//5
f 77//5 80//5 79//5
f 79//5 80//5 81//5
f 81//5 80//5 82//5
f 82//5 80//5 83//5
f 83//5 80//5 84//5
f 69//5 85//5 70//5
f 85//5 84//5 70//5
f 80//5 86//5 84//5
f 70//5 84//5 86//5
f 5//18 7//18 89//20
f 90//20 89//20 7//18
f 130//3 131//3 132//3
f 132//3 131//3 133//3
f 131//3 134//3 133//3
f 133//3 134//3 135//3
f 134//3 136//3 135//3
f 136//3 137//3 135//3
f 137//3 138//3 135//3
f 135//3 138//3 139//3
f 138//3 140//3 139//3
f 140//3 141//3 139//3
f 141//3 142//3 139//3
f 139//3 142//3 143//3
f 142//3 144//3 143//3
f 143//3 144//3 145//3
f 144//3 146//3 145//3
f 146//3 147//3 145//3
f 147//3 148//3 145//3
f 148//3 149//3 145//3
f 149//3 150//3 145//3
f 151//3 152//3 153//3
f 153//3 152//3 150//3
f 145//3 150//3 152//3
f 137//3 136//3 154//3
f 136//3 155//3 154//3
f 154//3 155//3 156//3
f 156//3 155//3 157//3
f 157//3 155//3 158//3
f 155//3 159//3 158//3
f 158//3 159//3 160//3
f 160//3 159//3 161//3
f 159//3 162//3 161//3
f 161//3 162//3 163//3
f 163//3 162//3 164//3
f 164//3 162//3 165//3
f 165//3 162//3 166//3
f 151//3 167//3 152//3
f 167//3 166//3 152//3
f 162//3 168//3 166//3
f 152//3 166//3 168//3
f 6//19 171//21 8//19
f 172//21 8//19 171//21
f 177//17 178//22 179//17
f 180//22 179//17 178//22
f 178//22 183//23 180//22
f 184//23 180//22 183//23
f 183//23 187//24 184//23
f 188//24 184//23 187//24
f 187//24 191//25 188//24
f 192//25 188//24 191//25
f 195//26 196//26 191//25
f 192//25 191//25 196//26
f 199//27 200//27 195//26
f 196//26 195//26 200//27
f 203//28 204//28 199//27
f 200//27 199//27 204//28
f 207//29 208//29 203//28
f 204//28 203//28 208//29
f 89//20 90//20 207//29
f 208//29 207//29 90//20
f 171//21 211//30 172//21
f 212//30 172//21 211//30
f 211//30 215//8 212//30
f 216//8 212//30 215//8
