# SSTK version 0.8.0
# 28
mtllib original-28.mtl
o #ID87
v 0.358203 0.277528 0.393133
v 0.353686 0.157146 0.393188
v 0.358203 0.157146 0.393133
v 0.353686 0.277528 0.393188
v 0.353686 0.277528 0.393188
v 0.358203 0.277528 0.393133
v 0.353686 0.157146 0.393188
v 0.358203 0.157146 0.393133
v 0.342298 0.277528 0.399950
v 0.372220 0.277528 0.416742
v 0.340087 0.277528 0.403889
v 0.345453 0.277528 0.396717
v 0.349337 0.277528 0.394411
v 0.353686 0.277528 0.393188
v 0.358203 0.277528 0.393133
v 0.362580 0.277528 0.394249
v 0.366519 0.277528 0.396459
v 0.369752 0.277528 0.399615
v 0.372059 0.277528 0.403499
v 0.373281 0.277528 0.407848
v 0.373336 0.277528 0.412364
v 0.373336 0.277528 0.412364
v 0.373281 0.277528 0.407848
v 0.372220 0.277528 0.416742
v 0.372059 0.277528 0.403499
v 0.369752 0.277528 0.399615
v 0.366519 0.277528 0.396459
v 0.362580 0.277528 0.394249
v 0.358203 0.277528 0.393133
v 0.353686 0.277528 0.393188
v 0.349337 0.277528 0.394411
v 0.345453 0.277528 0.396717
v 0.342298 0.277528 0.399950
v 0.340087 0.277528 0.403889
v 0.349337 0.157146 0.394411
v 0.349337 0.277528 0.394411
v 0.349337 0.277528 0.394411
v 0.349337 0.157146 0.394411
v 0.338971 0.157146 0.408267
v 0.342298 0.157146 0.399950
v 0.340087 0.157146 0.403889
v 0.339026 0.157146 0.412784
v 0.345453 0.157146 0.396717
v 0.340249 0.157146 0.417133
v 0.349337 0.157146 0.394411
v 0.342555 0.157146 0.421017
v 0.353686 0.157146 0.393188
v 0.345788 0.157146 0.424172
v 0.358203 0.157146 0.393133
v 0.349727 0.157146 0.426382
v 0.362580 0.157146 0.394249
v 0.354105 0.157146 0.427498
v 0.366519 0.157146 0.396459
v 0.358622 0.157146 0.427443
v 0.369752 0.157146 0.399615
v 0.362971 0.157146 0.426221
v 0.372059 0.157146 0.403499
v 0.366855 0.157146 0.423914
v 0.373281 0.157146 0.407848
v 0.370010 0.157146 0.420681
v 0.373336 0.157146 0.412364
v 0.372220 0.157146 0.416742
v 0.372220 0.157146 0.416742
v 0.370010 0.157146 0.420681
v 0.373336 0.157146 0.412364
v 0.373281 0.157146 0.407848
v 0.366855 0.157146 0.423914
v 0.372059 0.157146 0.403499
v 0.362971 0.157146 0.426221
v 0.369752 0.157146 0.399615
v 0.358622 0.157146 0.427443
v 0.366519 0.157146 0.396459
v 0.354105 0.157146 0.427498
v 0.362580 0.157146 0.394249
v 0.349727 0.157146 0.426382
v 0.358203 0.157146 0.393133
v 0.345788 0.157146 0.424172
v 0.353686 0.157146 0.393188
v 0.342555 0.157146 0.421017
v 0.349337 0.157146 0.394411
v 0.340249 0.157146 0.417133
v 0.345453 0.157146 0.396717
v 0.339026 0.157146 0.412784
v 0.342298 0.157146 0.399950
v 0.338971 0.157146 0.408267
v 0.340087 0.157146 0.403889
v 0.362580 0.277528 0.394249
v 0.362580 0.157146 0.394249
v 0.362580 0.277528 0.394249
v 0.362580 0.157146 0.394249
v 0.373336 0.277528 0.412364
v 0.372220 0.157146 0.416742
v 0.372220 0.277528 0.416742
v 0.373336 0.157146 0.412364
v 0.373336 0.157146 0.412364
v 0.373336 0.277528 0.412364
v 0.372220 0.157146 0.416742
v 0.372220 0.277528 0.416742
v 0.338971 0.277528 0.408267
v 0.339026 0.277528 0.412784
v 0.340249 0.277528 0.417133
v 0.342555 0.277528 0.421017
v 0.345788 0.277528 0.424172
v 0.349727 0.277528 0.426382
v 0.354105 0.277528 0.427498
v 0.358622 0.277528 0.427443
v 0.362971 0.277528 0.426221
v 0.366855 0.277528 0.423914
v 0.370010 0.277528 0.420681
v 0.370010 0.277528 0.420681
v 0.366855 0.277528 0.423914
v 0.362971 0.277528 0.426221
v 0.358622 0.277528 0.427443
v 0.354105 0.277528 0.427498
v 0.349727 0.277528 0.426382
v 0.345788 0.277528 0.424172
v 0.342555 0.277528 0.421017
v 0.340249 0.277528 0.417133
v 0.339026 0.277528 0.412784
v 0.338971 0.277528 0.408267
v 0.342298 0.157146 0.399950
v 0.340087 0.277528 0.403889
v 0.340087 0.157146 0.403889
v 0.342298 0.277528 0.399950
v 0.342298 0.277528 0.399950
v 0.342298 0.157146 0.399950
v 0.340087 0.277528 0.403889
v 0.340087 0.157146 0.403889
v 0.345453 0.157146 0.396717
v 0.345453 0.277528 0.396717
v 0.345453 0.277528 0.396717
v 0.345453 0.157146 0.396717
v 0.366519 0.277528 0.396459
v 0.366519 0.157146 0.396459
v 0.366519 0.277528 0.396459
v 0.366519 0.157146 0.396459
v 0.369752 0.277528 0.399615
v 0.369752 0.157146 0.399615
v 0.369752 0.277528 0.399615
v 0.369752 0.157146 0.399615
v 0.372059 0.277528 0.403499
v 0.372059 0.157146 0.403499
v 0.372059 0.277528 0.403499
v 0.372059 0.157146 0.403499
v 0.373281 0.157146 0.407848
v 0.373281 0.277528 0.407848
v 0.373281 0.157146 0.407848
v 0.373281 0.277528 0.407848
v 0.338971 0.277528 0.408267
v 0.338971 0.157146 0.408267
v 0.338971 0.277528 0.408267
v 0.338971 0.157146 0.408267
v 0.339026 0.277528 0.412784
v 0.339026 0.157146 0.412784
v 0.339026 0.277528 0.412784
v 0.339026 0.157146 0.412784
v 0.340249 0.277528 0.417133
v 0.340249 0.157146 0.417133
v 0.340249 0.277528 0.417133
v 0.340249 0.157146 0.417133
v 0.342555 0.157146 0.421017
v 0.342555 0.277528 0.421017
v 0.342555 0.277528 0.421017
v 0.342555 0.157146 0.421017
v 0.345788 0.157146 0.424172
v 0.345788 0.277528 0.424172
v 0.345788 0.277528 0.424172
v 0.345788 0.157146 0.424172
v 0.349727 0.157146 0.426382
v 0.349727 0.277528 0.426382
v 0.349727 0.277528 0.426382
v 0.349727 0.157146 0.426382
v 0.354105 0.157146 0.427498
v 0.354105 0.277528 0.427498
v 0.354105 0.277528 0.427498
v 0.354105 0.157146 0.427498
v 0.358622 0.157146 0.427443
v 0.358622 0.277528 0.427443
v 0.358622 0.277528 0.427443
v 0.358622 0.157146 0.427443
v 0.362971 0.157146 0.426221
v 0.362971 0.277528 0.426221
v 0.362971 0.277528 0.426221
v 0.362971 0.157146 0.426221
v 0.366855 0.277528 0.423914
v 0.366855 0.157146 0.423914
v 0.366855 0.157146 0.423914
v 0.366855 0.277528 0.423914
v 0.370010 0.277528 0.420681
v 0.370010 0.157146 0.420681
v 0.370010 0.157146 0.420681
v 0.370010 0.277528 0.420681
vn -0.11840398194626829 0 0.9929655064800931
vn 0.14262895836816467 0 0.9897762273538462
vn -0.14262895836816467 0 -0.9897762273538462
vn 0.11840398194626829 0 -0.9929655064800931
vn 0 -1 0
vn 0 1 0
vn 0.39394193075421086 0 0.9191353301846494
vn -0.39394193075421086 0 -0.9191353301846494
vn -0.3713678141716782 0 0.9284858354317258
vn 0.3713678141716782 0 -0.9284858354317258
vn -0.9929655064800931 0 -0.11840398194626829
vn -0.9284858354317258 0 -0.3713678141716782
vn 0.9929655064800931 0 0.11840398194626829
vn 0.9284858354317258 0 0.3713678141716782
vn 0.8007314067624139 0 0.5990235506424482
vn -0.8007314067624139 0 -0.5990235506424482
vn 0.6184084119650394 0 0.7858568801065993
vn -0.6184084119650394 0 -0.7858568801065993
vn -0.5990235506424482 0 0.8007314067624139
vn 0.5990235506424482 0 -0.8007314067624139
vn -0.7858568801065993 0 0.6184084119650394
vn 0.7858568801065993 0 -0.6184084119650394
vn -0.9191353301846494 0 0.39394193075421086
vn 0.9191353301846494 0 -0.39394193075421086
vn -0.9897762273538462 0 0.14262895836816467
vn 0.9897762273538462 0 -0.14262895836816467
usemtl material_0_0
f 1//1 2//2 3//1
f 2//2 1//1 4//2
f 5//3 6//4 7//3
f 8//4 7//3 6//4
f 9//5 10//5 11//5
f 10//5 9//5 12//5
f 10//5 12//5 13//5
f 10//5 13//5 14//5
f 10//5 14//5 15//5
f 10//5 15//5 16//5
f 10//5 16//5 17//5
f 10//5 17//5 18//5
f 10//5 18//5 19//5
f 10//5 19//5 20//5
f 10//5 20//5 21//5
f 22//6 23//6 24//6
f 23//6 25//6 24//6
f 25//6 26//6 24//6
f 26//6 27//6 24//6
f 27//6 28//6 24//6
f 28//6 29//6 24//6
f 29//6 30//6 24//6
f 30//6 31//6 24//6
f 31//6 32//6 24//6
f 32//6 33//6 24//6
f 34//6 24//6 33//6
f 4//2 35//7 2//2
f 35//7 4//2 36//7
f 37//8 5//3 38//8
f 7//3 38//8 5//3
f 39//6 40//6 41//6
f 40//6 39//6 42//6
f 40//6 42//6 43//6
f 43//6 42//6 44//6
f 43//6 44//6 45//6
f 45//6 44//6 46//6
f 45//6 46//6 47//6
f 47//6 46//6 48//6
f 47//6 48//6 49//6
f 49//6 48//6 50//6
f 49//6 50//6 51//6
f 51//6 50//6 52//6
f 51//6 52//6 53//6
f 53//6 52//6 54//6
f 53//6 54//6 55//6
f 55//6 54//6 56//6
f 55//6 56//6 57//6
f 57//6 56//6 58//6
f 57//6 58//6 59//6
f 59//6 58//6 60//6
f 59//6 60//6 61//6
f 61//6 60//6 62//6
f 63//5 64//5 65//5
f 65//5 64//5 66//5
f 64//5 67//5 66//5
f 66//5 67//5 68//5
f 67//5 69//5 68//5
f 68//5 69//5 70//5
f 69//5 71//5 70//5
f 70//5 71//5 72//5
f 71//5 73//5 72//5
f 72//5 73//5 74//5
f 73//5 75//5 74//5
f 74//5 75//5 76//5
f 75//5 77//5 76//5
f 76//5 77//5 78//5
f 77//5 79//5 78//5
f 78//5 79//5 80//5
f 79//5 81//5 80//5
f 80//5 81//5 82//5
f 81//5 83//5 82//5
f 82//5 83//5 84//5
f 83//5 85//5 84//5
f 86//5 84//5 85//5
f 87//9 3//1 88//9
f 3//1 87//9 1//1
f 6//4 89//10 8//4
f 90//10 8//4 89//10
f 91//11 92//12 93//12
f 92//12 91//11 94//11
f 95//13 96//13 97//14
f 98//14 97//14 96//13
f 10//5 99//5 11//5
f 99//5 10//5 100//5
f 100//5 10//5 101//5
f 101//5 10//5 102//5
f 102//5 10//5 103//5
f 103//5 10//5 104//5
f 104//5 10//5 105//5
f 105//5 10//5 106//5
f 106//5 10//5 107//5
f 107//5 10//5 108//5
f 108//5 10//5 109//5
f 110//6 24//6 111//6
f 111//6 24//6 112//6
f 112//6 24//6 113//6
f 113//6 24//6 114//6
f 114//6 24//6 115//6
f 115//6 24//6 116//6
f 116//6 24//6 117//6
f 117//6 24//6 118//6
f 118//6 24//6 119//6
f 119//6 24//6 120//6
f 34//6 120//6 24//6
f 121//15 122//14 123//14
f 122//14 121//15 124//15
f 125//16 126//16 127//12
f 128//12 127//12 126//16
f 129//17 124//15 121//15
f 124//15 129//17 130//17
f 131//18 132//18 125//16
f 126//16 125//16 132//18
f 35//7 130//17 129//17
f 130//17 35//7 36//7
f 37//8 38//8 131//18
f 132//18 131//18 38//8
f 133//19 88//9 134//19
f 88//9 133//19 87//9
f 89//10 135//20 90//10
f 136//20 90//10 135//20
f 137//21 134//19 138//21
f 134//19 137//21 133//19
f 135//20 139//22 136//20
f 140//22 136//20 139//22
f 141//23 138//21 142//23
f 138//21 141//23 137//21
f 139//22 143//24 140//22
f 144//24 140//22 143//24
f 141//23 145//25 146//25
f 145//25 141//23 142//23
f 144//24 143//24 147//26
f 148//26 147//26 143//24
f 146//25 94//11 91//11
f 94//11 146//25 145//25
f 147//26 148//26 95//13
f 96//13 95//13 148//26
f 123//14 149//13 150//13
f 149//13 123//14 122//14
f 127//12 128//12 151//11
f 152//11 151//11 128//12
f 150//13 153//26 154//26
f 153//26 150//13 149//13
f 151//11 152//11 155//25
f 156//25 155//25 152//11
f 154//26 157//24 158//24
f 157//24 154//26 153//26
f 155//25 156//25 159//23
f 160//23 159//23 156//25
f 157//24 161//22 158//24
f 161//22 157//24 162//22
f 163//21 159//23 164//21
f 160//23 164//21 159//23
f 162//22 165//20 161//22
f 165//20 162//22 166//20
f 167//19 163//21 168//19
f 164//21 168//19 163//21
f 166//20 169//10 165//20
f 169//10 166//20 170//10
f 171//9 167//19 172//9
f 168//19 172//9 167//19
f 170//10 173//4 169//10
f 173//4 170//10 174//4
f 175//1 171//9 176//1
f 172//9 176//1 171//9
f 174//4 177//3 173//4
f 177//3 174//4 178//3
f 179//2 175//1 180//2
f 176//1 180//2 175//1
f 178//3 181//8 177//3
f 181//8 178//3 182//8
f 183//7 179//2 184//7
f 180//2 184//7 179//2
f 185//18 181//8 182//8
f 181//8 185//18 186//18
f 187//17 188//17 184//7
f 183//7 184//7 188//17
f 189//16 186//18 185//18
f 186//18 189//16 190//16
f 191//15 192//15 187//17
f 188//17 187//17 192//15
f 93//12 190//16 189//16
f 190//16 93//12 92//12
f 97//14 98//14 191//15
f 192//15 191//15 98//14
