# SSTK version 0.8.0
# 3
mtllib original-3.mtl
o #ID1267
v -0.295450 -0.121812 0.232773
v -0.325087 -0.118743 0.230418
v -0.325087 -0.121812 0.232773
v -0.295450 -0.118743 0.230418
v -0.295450 -0.118743 0.230418
v -0.295450 -0.121812 0.232773
v -0.325087 -0.118743 0.230418
v -0.325087 -0.121812 0.232773
v -0.325087 -0.115169 0.228937
v -0.295450 -0.115169 0.228937
v -0.295450 -0.115169 0.228937
v -0.325087 -0.115169 0.228937
v -0.325087 -0.125648 0.239416
v -0.325087 -0.125648 0.247086
v -0.325087 -0.126152 0.243251
v -0.325087 -0.124167 0.235842
v -0.325087 -0.124167 0.250660
v -0.325087 -0.121812 0.232773
v -0.325087 -0.121812 0.253729
v -0.325087 -0.118743 0.230418
v -0.325087 -0.118743 0.256084
v -0.325087 -0.115169 0.257565
v -0.325087 -0.115169 0.228937
v -0.325087 -0.111334 0.258070
v -0.325087 -0.111334 0.228432
v -0.325087 -0.107498 0.228937
v -0.325087 -0.107498 0.257565
v -0.325087 -0.103924 0.230418
v -0.325087 -0.103924 0.256084
v -0.325087 -0.100855 0.253729
v -0.325087 -0.100855 0.232773
v -0.325087 -0.098500 0.235842
v -0.325087 -0.098500 0.250660
v -0.325087 -0.097020 0.239416
v -0.325087 -0.097020 0.247086
v -0.325087 -0.096515 0.243251
v -0.325087 -0.096515 0.243251
v -0.325087 -0.097020 0.239416
v -0.325087 -0.097020 0.247086
v -0.325087 -0.098500 0.250660
v -0.325087 -0.098500 0.235842
v -0.325087 -0.100855 0.253729
v -0.325087 -0.100855 0.232773
v -0.325087 -0.103924 0.230418
v -0.325087 -0.103924 0.256084
v -0.325087 -0.107498 0.257565
v -0.325087 -0.107498 0.228937
v -0.325087 -0.111334 0.258070
v -0.325087 -0.111334 0.228432
v -0.325087 -0.115169 0.228937
v -0.325087 -0.115169 0.257565
v -0.325087 -0.118743 0.230418
v -0.325087 -0.118743 0.256084
v -0.325087 -0.121812 0.253729
v -0.325087 -0.121812 0.232773
v -0.325087 -0.124167 0.250660
v -0.325087 -0.124167 0.235842
v -0.325087 -0.125648 0.247086
v -0.325087 -0.125648 0.239416
v -0.325087 -0.126152 0.243251
v -0.325087 -0.124167 0.235842
v -0.295450 -0.124167 0.235842
v -0.295450 -0.124167 0.235842
v -0.325087 -0.124167 0.235842
v -0.325087 -0.111334 0.228432
v -0.295450 -0.111334 0.228432
v -0.295450 -0.111334 0.228432
v -0.325087 -0.111334 0.228432
v -0.295450 -0.098500 0.250660
v -0.325087 -0.097020 0.247086
v -0.295450 -0.097020 0.247086
v -0.325087 -0.098500 0.250660
v -0.325087 -0.098500 0.250660
v -0.295450 -0.098500 0.250660
v -0.325087 -0.097020 0.247086
v -0.295450 -0.097020 0.247086
v -0.295450 -0.100855 0.253729
v -0.325087 -0.100855 0.253729
v -0.325087 -0.100855 0.253729
v -0.295450 -0.100855 0.253729
v -0.325087 -0.103924 0.256084
v -0.295450 -0.103924 0.256084
v -0.295450 -0.103924 0.256084
v -0.325087 -0.103924 0.256084
v -0.325087 -0.107498 0.257565
v -0.295450 -0.107498 0.257565
v -0.295450 -0.107498 0.257565
v -0.325087 -0.107498 0.257565
v -0.325087 -0.111334 0.258070
v -0.295450 -0.111334 0.258070
v -0.295450 -0.111334 0.258070
v -0.325087 -0.111334 0.258070
v -0.325087 -0.115169 0.257565
v -0.295450 -0.115169 0.257565
v -0.295450 -0.115169 0.257565
v -0.325087 -0.115169 0.257565
v -0.325087 -0.118743 0.256084
v -0.295450 -0.118743 0.256084
v -0.295450 -0.118743 0.256084
v -0.325087 -0.118743 0.256084
v -0.325087 -0.121812 0.253729
v -0.295450 -0.121812 0.253729
v -0.295450 -0.121812 0.253729
v -0.325087 -0.121812 0.253729
v -0.295450 -0.124167 0.250660
v -0.325087 -0.124167 0.250660
v -0.295450 -0.124167 0.250660
v -0.325087 -0.124167 0.250660
v -0.295450 -0.125648 0.247086
v -0.325087 -0.125648 0.247086
v -0.295450 -0.125648 0.247086
v -0.325087 -0.125648 0.247086
v -0.295450 -0.126152 0.243251
v -0.325087 -0.126152 0.243251
v -0.295450 -0.126152 0.243251
v -0.325087 -0.126152 0.243251
v -0.295450 -0.125648 0.239416
v -0.325087 -0.125648 0.239416
v -0.295450 -0.125648 0.239416
v -0.325087 -0.125648 0.239416
v -0.325087 -0.107498 0.228937
v -0.295450 -0.107498 0.228937
v -0.295450 -0.107498 0.228937
v -0.325087 -0.107498 0.228937
v -0.325087 -0.103924 0.230418
v -0.295450 -0.103924 0.230418
v -0.295450 -0.103924 0.230418
v -0.325087 -0.103924 0.230418
v -0.325087 -0.100855 0.232773
v -0.295450 -0.100855 0.232773
v -0.295450 -0.100855 0.232773
v -0.325087 -0.100855 0.232773
v -0.295450 -0.098500 0.235842
v -0.325087 -0.098500 0.235842
v -0.325087 -0.098500 0.235842
v -0.295450 -0.098500 0.235842
v -0.295450 -0.097020 0.239416
v -0.325087 -0.097020 0.239416
v -0.325087 -0.097020 0.239416
v -0.295450 -0.097020 0.239416
v -0.295450 -0.096515 0.243251
v -0.325087 -0.096515 0.243251
v -0.325087 -0.096515 0.243251
v -0.295450 -0.096515 0.243251
vn 0 0.7071067811865476 0.7071067811865476
vn 0 0.5000000016387101 0.866025402838329
vn 0 0.25881900959356163 0.9659258358036645
vn 1 0 0
vn 0 0.866025402838329 0.5000000016387101
vn 0 0 1
vn 0 -0.866025402838329 -0.5000000016387101
vn 0 -0.9659258358036645 -0.25881900959356163
vn 0 -0.7071067811865476 -0.7071067811865476
vn 0 -0.5000000016387101 -0.866025402838329
vn 0 -0.25881900959356163 -0.9659258358036645
vn 0 0 -1
vn 0 0.25881900959356163 -0.9659258358036645
vn 0 0.5000000016387101 -0.866025402838329
vn 0 0.7071067811865476 -0.7071067811865476
vn 0 0.866025402838329 -0.5000000016387101
vn 0 0.9659258358036645 -0.25881900959356163
vn 0 1 0
vn 0 0.9659258358036645 0.25881900959356163
vn 0 -0.25881900959356163 0.9659258358036645
vn 0 -0.5000000016387101 0.866025402838329
vn 0 -0.7071067811865476 0.7071067811865476
vn 0 -0.866025402838329 0.5000000016387101
vn 0 -0.9659258358036645 0.25881900959356163
vn 0 -1 0
vn -1 0 0
usemtl material_0_0
f 1//1 2//2 3//1
f 2//2 1//1 4//2
f 4//2 9//3 2//2
f 9//3 4//2 10//3
f 13//4 14//4 15//4
f 14//4 13//4 16//4
f 14//4 16//4 17//4
f 17//4 16//4 18//4
f 17//4 18//4 19//4
f 19//4 18//4 20//4
f 19//4 20//4 21//4
f 21//4 20//4 22//4
f 22//4 20//4 23//4
f 22//4 23//4 24//4
f 24//4 23//4 25//4
f 24//4 25//4 26//4
f 24//4 26//4 27//4
f 27//4 26//4 28//4
f 27//4 28//4 29//4
f 29//4 28//4 30//4
f 30//4 28//4 31//4
f 30//4 31//4 32//4
f 30//4 32//4 33//4
f 33//4 32//4 34//4
f 33//4 34//4 35//4
f 35//4 34//4 36//4
f 61//5 1//1 3//1
f 1//1 61//5 62//5
f 10//3 65//6 9//3
f 65//6 10//3 66//6
f 69//7 70//8 71//8
f 70//8 69//7 72//7
f 77//9 72//7 69//7
f 72//7 77//9 78//9
f 77//9 81//10 78//9
f 81//10 77//9 82//10
f 82//10 85//11 81//10
f 85//11 82//10 86//11
f 86//11 89//12 85//11
f 89//12 86//11 90//12
f 90//12 93//13 89//12
f 93//13 90//12 94//13
f 94//13 97//14 93//13
f 97//14 94//13 98//14
f 98//14 101//15 97//14
f 101//15 98//14 102//15
f 101//15 105//16 106//16
f 105//16 101//15 102//15
f 106//16 109//17 110//17
f 109//17 106//16 105//16
f 110//17 113//18 114//18
f 113//18 110//17 109//17
f 114//18 117//19 118//19
f 117//19 114//18 113//18
f 118//19 62//5 61//5
f 62//5 118//19 117//19
f 66//6 121//20 65//6
f 121//20 66//6 122//20
f 122//20 125//21 121//20
f 125//21 122//20 126//21
f 126//21 129//22 125//21
f 129//22 126//21 130//22
f 133//23 129//22 130//22
f 129//22 133//23 134//23
f 137//24 134//23 133//23
f 134//23 137//24 138//24
f 141//25 138//24 137//24
f 138//24 141//25 142//25
f 71//8 142//25 141//25
f 142//25 71//8 70//8
usemtl material_1_0
f 5//10 6//9 7//10
f 8//9 7//10 6//9
f 11//11 5//10 12//11
f 7//10 12//11 5//10
f 37//26 38//26 39//26
f 39//26 38//26 40//26
f 38//26 41//26 40//26
f 40//26 41//26 42//26
f 41//26 43//26 42//26
f 43//26 44//26 42//26
f 42//26 44//26 45//26
f 45//26 44//26 46//26
f 44//26 47//26 46//26
f 46//26 47//26 48//26
f 47//26 49//26 48//26
f 49//26 50//26 48//26
f 48//26 50//26 51//26
f 50//26 52//26 51//26
f 51//26 52//26 53//26
f 53//26 52//26 54//26
f 52//26 55//26 54//26
f 54//26 55//26 56//26
f 55//26 57//26 56//26
f 56//26 57//26 58//26
f 57//26 59//26 58//26
f 60//26 58//26 59//26
f 63//7 64//7 6//9
f 8//9 6//9 64//7
f 67//12 11//11 68//12
f 12//11 68//12 11//11
f 73//5 74//5 75//19
f 76//19 75//19 74//5
f 79//1 80//1 73//5
f 74//5 73//5 80//1
f 83//2 80//1 84//2
f 79//1 84//2 80//1
f 87//3 83//2 88//3
f 84//2 88//3 83//2
f 91//6 87//3 92//6
f 88//3 92//6 87//3
f 95//20 91//6 96//20
f 92//6 96//20 91//6
f 99//21 95//20 100//21
f 96//20 100//21 95//20
f 103//22 99//21 104//22
f 100//21 104//22 99//21
f 103//22 104//22 107//23
f 108//23 107//23 104//22
f 107//23 108//23 111//24
f 112//24 111//24 108//23
f 111//24 112//24 115//25
f 116//25 115//25 112//24
f 115//25 116//25 119//8
f 120//8 119//8 116//25
f 119//8 120//8 63//7
f 64//7 63//7 120//8
f 123//13 67//12 124//13
f 68//12 124//13 67//12
f 127//14 123//13 128//14
f 124//13 128//14 123//13
f 131//15 127//14 132//15
f 128//14 132//15 127//14
f 135//16 136//16 132//15
f 131//15 132//15 136//16
f 139//17 140//17 135//16
f 136//16 135//16 140//17
f 143//18 144//18 139//17
f 140//17 139//17 144//18
f 75//19 76//19 143//18
f 144//18 143//18 76//19
