# SSTK version 0.8.0
# 142
mtllib original-142.mtl
o #ID917
v 0.054078 -0.203897 -0.125374
v 0.053827 -0.205345 -0.125128
v 0.053827 -0.203897 -0.125128
v 0.054078 -0.205345 -0.125374
v 0.054078 -0.205345 -0.125374
v 0.054078 -0.203897 -0.125374
v 0.053827 -0.205345 -0.125128
v 0.053827 -0.203897 -0.125128
v 0.056036 -0.203897 -0.125529
v 0.056036 -0.205345 -0.125529
v 0.056036 -0.205345 -0.125529
v 0.056036 -0.203897 -0.125529
v 0.053382 -0.205828 -0.125367
v 0.053864 -0.205828 -0.125841
v 0.053382 -0.205828 -0.125367
v 0.053864 -0.205828 -0.125841
v 0.053743 -0.203897 -0.124700
v 0.053743 -0.205345 -0.124700
v 0.053743 -0.203897 -0.124700
v 0.053743 -0.205345 -0.124700
v 0.054291 -0.203414 -0.124907
v 0.054272 -0.203414 -0.124888
v 0.054272 -0.203414 -0.124888
v 0.054291 -0.203414 -0.124907
v 0.065139 -0.203897 -0.125529
v 0.065139 -0.205345 -0.125529
v 0.065139 -0.205345 -0.125529
v 0.065139 -0.203897 -0.125529
v 0.056017 -0.205828 -0.126012
v 0.056017 -0.205828 -0.126012
v 0.056056 -0.203414 -0.125047
v 0.056056 -0.203414 -0.125047
v 0.053250 -0.205828 -0.124692
v 0.053250 -0.205828 -0.124692
v 0.053841 -0.203897 -0.124271
v 0.053841 -0.205345 -0.124271
v 0.053841 -0.203897 -0.124271
v 0.053841 -0.205345 -0.124271
v 0.054237 -0.203414 -0.124708
v 0.054237 -0.203414 -0.124708
v 0.066780 -0.203414 -0.124896
v 0.065117 -0.203414 -0.125047
v 0.066840 -0.203414 -0.124844
v 0.066880 -0.203414 -0.124673
v 0.054276 -0.203414 -0.124534
v 0.066843 -0.203414 -0.124504
v 0.054332 -0.203414 -0.124487
v 0.066805 -0.203414 -0.124472
v 0.055920 -0.203414 -0.124342
v 0.065120 -0.203414 -0.124342
v 0.060317 -0.203414 -0.124342
v 0.060317 -0.203414 -0.124342
v 0.055920 -0.203414 -0.124342
v 0.065120 -0.203414 -0.124342
v 0.066805 -0.203414 -0.124472
v 0.054332 -0.203414 -0.124487
v 0.066843 -0.203414 -0.124504
v 0.054276 -0.203414 -0.124534
v 0.066880 -0.203414 -0.124673
v 0.066840 -0.203414 -0.124844
v 0.066780 -0.203414 -0.124896
v 0.065117 -0.203414 -0.125047
v 0.066977 -0.203897 -0.125362
v 0.066977 -0.205345 -0.125362
v 0.066977 -0.205345 -0.125362
v 0.066977 -0.203897 -0.125362
v 0.065161 -0.205828 -0.126012
v 0.065161 -0.205828 -0.126012
v 0.053406 -0.205828 -0.124007
v 0.053406 -0.205828 -0.124007
v 0.054135 -0.205345 -0.124020
v 0.054135 -0.203897 -0.124020
v 0.054135 -0.203897 -0.124020
v 0.054135 -0.205345 -0.124020
v 0.067275 -0.203897 -0.125107
v 0.067275 -0.203897 -0.125107
v 0.055898 -0.203897 -0.123859
v 0.055898 -0.203897 -0.123859
v 0.060317 -0.203897 -0.123859
v 0.065139 -0.203897 -0.123859
v 0.065139 -0.203897 -0.123859
v 0.060317 -0.203897 -0.123859
v 0.067000 -0.203897 -0.124003
v 0.067000 -0.203897 -0.124003
v 0.067281 -0.203897 -0.124243
v 0.067281 -0.203897 -0.124243
v 0.067374 -0.203897 -0.124677
v 0.067374 -0.203897 -0.124677
v 0.067275 -0.205345 -0.125107
v 0.067275 -0.205345 -0.125107
v 0.067174 -0.205828 -0.125829
v 0.067174 -0.205828 -0.125829
v 0.053939 -0.205828 -0.123553
v 0.053939 -0.205828 -0.123553
v 0.055898 -0.205345 -0.123859
v 0.055898 -0.205345 -0.123859
v 0.060317 -0.205345 -0.123859
v 0.065139 -0.205345 -0.123859
v 0.065139 -0.205345 -0.123859
v 0.060317 -0.205345 -0.123859
v 0.067000 -0.205345 -0.124003
v 0.067000 -0.205345 -0.124003
v 0.067281 -0.205345 -0.124243
v 0.067281 -0.205345 -0.124243
v 0.067374 -0.205345 -0.124677
v 0.067374 -0.205345 -0.124677
v 0.067709 -0.205828 -0.125371
v 0.067709 -0.205828 -0.125371
v 0.055876 -0.205828 -0.123376
v 0.055876 -0.205828 -0.123376
v 0.060317 -0.205828 -0.123376
v 0.065158 -0.205828 -0.123376
v 0.065158 -0.205828 -0.123376
v 0.060317 -0.205828 -0.123376
v 0.067194 -0.205828 -0.123534
v 0.067194 -0.205828 -0.123534
v 0.067718 -0.205828 -0.123982
v 0.067718 -0.205828 -0.123982
v 0.067869 -0.205828 -0.124680
v 0.067869 -0.205828 -0.124680
vt 0.2804504 0.2278611
vt 0.2809606 0.227342
vt 0.2801282 0.2319184
vt 0.2804647 0.22642
vt 0.2794824 0.2274195
vt 0.2818466 0.227169
vt 0.2814185 0.2283027
vt 0.2814565 0.2282641
vt 0.2801282 0.250773
vt 0.2791282 0.2318788
vt 0.2811282 0.2319581
vt 0.2818627 0.2261469
vt 0.2827357 0.2273718
vt 0.2818305 0.228191
vt 0.2814414 0.254172
vt 0.2811282 0.2507277
vt 0.2815483 0.254297
vt 0.2819016 0.2543785
vt 0.28219 0.228273
vt 0.282252 0.2543029
vt 0.2822879 0.2283878
vt 0.2823187 0.2542249
vt 0.2825889 0.2316777
vt 0.2825889 0.2507344
vt 0.2825889 0.2407849
vt 0.2804743 0.2545798
vt 0.2791282 0.2508184
vt 0.2832814 0.2264707
vt 0.2832548 0.2279804
vt 0.2810024 0.2551973
vt 0.2835889 0.231632
vt 0.2835889 0.2407849
vt 0.2835889 0.250773
vt 0.2832906 0.2546275
vt 0.2827923 0.2552092
vt 0.2818944 0.2554032
vt 0.2795072 0.2549875
vt 0.2842217 0.2275731
vt 0.2804564 0.2560976
vt 0.2845889 0.2315864
vt 0.2845889 0.2407849
vt 0.2845889 0.2508117
vt 0.2842624 0.2550301
vt 0.2833327 0.2561156
vt 0.2818871 0.2564278
vn -0.38581579379483016 0.3685373940727229 -0.8457696863972791
vn -0.798063099314871 0.42289689963694727 -0.4292475996314953
vn -0.8186420315093155 0.3687097141915394 -0.4403162169476548
vn -0.37422631112234667 0.4323868128509298 -0.8203635243819509
vn 0.37422631112234667 -0.4323868128509298 0.8203635243819509
vn 0.38581579379483016 -0.3685373940727229 0.8457696863972791
vn 0.798063099314871 -0.42289689963694727 0.4292475996314953
vn 0.8186420315093155 -0.3687097141915394 0.4403162169476548
vn -0.036649171368989715 0.379491314175483 -0.9244691345325335
vn -0.03653700899315862 0.38632238935420876 -0.9216398746025961
vn 0.03653700899315862 -0.38632238935420876 0.9216398746025961
vn 0.036649171368989715 -0.379491314175483 0.9244691345325335
vn -0.27101960077812715 0.9514721027317812 -0.14577110041852487
vn -0.12192719610008067 0.9558729694257918 -0.26728379145075704
vn 0.27101960077812715 -0.9514721027317812 0.14577110041852487
vn 0.12192719610008067 -0.9558729694257918 0.26728379145075704
vn -0.9286891595952187 0.3705706838774608 0.014622349363820692
vn -0.9131814695442056 0.4072994864160303 0.014378179520468942
vn 0.9286891595952187 -0.3705706838774608 -0.014622349363820692
vn 0.9131814695442056 -0.4072994864160303 -0.014378179520468942
vn -0.18031470180739342 0.9006895090281063 -0.3952784039620928
vn -0.3786986883070761 0.9028281721237451 -0.20368749371082487
vn 0.3786986883070761 -0.9028281721237451 0.20368749371082487
vn 0.18031470180739342 -0.9006895090281063 0.3952784039620928
vn 0.04193256007394463 0.3790674006684543 -0.9244185016301363
vn 0.0417857095970904 0.3868843962695515 -0.9211809911177131
vn -0.0417857095970904 -0.3868843962695515 0.9211809911177131
vn -0.04193256007394463 -0.3790674006684543 0.9244185016301363
vn -0.014823180579486225 0.9273456362529497 -0.3739122146174417
vn 0.014823180579486225 -0.9273456362529497 0.3739122146174417
vn -0.015475699058966641 0.9205271440253557 -0.3903719762625875
vn 0.015475699058966641 -0.9205271440253557 0.3903719762625875
vn -0.33304859366322104 0.942895082059922 0.005243899900226468
vn 0.33304859366322104 -0.942895082059922 -0.005243899900226468
vn -0.7951792109144352 0.3685744050589621 0.4815007066089609
vn -0.7736475800270154 0.42662868898587875 0.46846278790586265
vn 0.7951792109144352 -0.3685744050589621 -0.4815007066089609
vn 0.7736475800270154 -0.42662868898587875 -0.46846278790586265
vn -0.4188872918371128 0.9080142823054594 0.006595442871474124
vn 0.4188872918371128 -0.9080142823054594 -0.006595442871474124
vn 0.1673769034221589 0.9024545184514274 -0.39693930811575173
vn 0.0177537107214719 0.9200549373890166 -0.39138691590510655
vn 0.36918169330984807 0.9019939836544529 -0.22385649594336887
vn 0.42043808864448073 0.907316375494493 -0.0029678909198408913
vn -0.3694678087489073 0.9019102213570132 0.22372190529767996
vn 0.37137691218373103 0.9016934295817802 0.2214230072642059
vn -0.16721409458094164 0.9024977707519386 0.3969095871369921
vn 0.1651302953768158 0.9021226747431005 0.39863098883945264
vn -0.017871630393596686 0.9200306202623374 0.39143870862086866
vn 0.015077749686096386 0.9206101808338202 0.39019169187660063
vn 0 0.9238795391929064 0.38268341623423263
vn 0 -0.9238795391929064 -0.38268341623423263
vn 0.017871630393596686 -0.9200306202623374 -0.39143870862086866
vn -0.015077749686096386 -0.9206101808338202 -0.39019169187660063
vn -0.1651302953768158 -0.9021226747431005 -0.39863098883945264
vn 0.16721409458094164 -0.9024977707519386 -0.3969095871369921
vn -0.37137691218373103 -0.9016934295817802 -0.2214230072642059
vn 0.3694678087489073 -0.9019102213570132 -0.22372190529767996
vn -0.42043808864448073 -0.907316375494493 0.0029678909198408913
vn -0.36918169330984807 -0.9019939836544529 0.22385649594336887
vn -0.1673769034221589 -0.9024545184514274 0.39693930811575173
vn -0.0177537107214719 -0.9200549373890166 0.39138691590510655
vn 0.3611745041186408 0.3686451042038315 -0.8565359097674773
vn 0.3518189988479054 0.4243643986103424 -0.8343489972677741
vn -0.3518189988479054 -0.4243643986103424 0.8343489972677741
vn -0.3611745041186408 -0.3686451042038315 0.8565359097674773
vn 0.016899839512586366 0.927852973239498 -0.3725630892547897
vn -0.016899839512586366 -0.927852973239498 0.3725630892547897
vn -0.2584421890977044 0.9532667597867668 0.156493193398388
vn 0.2584421890977044 -0.9532667597867668 -0.156493193398388
vn -0.35158217590870244 0.4241910709333578 0.8345369428154235
vn -0.3608980080069085 0.36865190817893706 0.8566495190056863
vn 0.3608980080069085 -0.36865190817893706 -0.8566495190056863
vn 0.35158217590870244 -0.4241910709333578 -0.8345369428154235
vn 0.7948823459290204 0.3685833749275295 -0.48198376721359515
vn -0.7948823459290204 -0.3685833749275295 0.48198376721359515
vn -0.04220532787700772 0.37904578093341984 0.9244149535005198
vn 0.04220532787700772 -0.37904578093341984 -0.9244149535005198
vn 0 0.38268341623423263 0.9238795391929064
vn 0.03572345010802052 0.37956650114773266 0.9244745027954248
vn -0.03572345010802052 -0.37956650114773266 -0.9244745027954248
vn 0 -0.38268341623423263 -0.9238795391929064
vn 0.3557600989413523 0.3685984989031486 0.8588188974443827
vn -0.3557600989413523 -0.3685984989031486 -0.8588188974443827
vn 0.7984584807917919 0.3685546911338218 0.4760582885476492
vn -0.7984584807917919 -0.3685546911338218 -0.4760582885476492
vn 0.9289143398386364 0.3702366158784522 -0.006557248281222734
vn -0.9289143398386364 -0.3702366158784522 0.006557248281222734
vn 0.7735065018085744 0.4262696009966824 -0.46902230109664456
vn -0.7735065018085744 -0.4262696009966824 0.46902230109664456
vn 0.11870339457521345 0.9521882564846644 -0.2815084871349639
vn -0.11870339457521345 -0.9521882564846644 0.2815084871349639
vn -0.11871429926856499 0.9521043941337943 0.2817873982638219
vn 0.11871429926856499 -0.9521043941337943 -0.2817873982638219
vn -0.04205655834407175 0.3869136847657221 0.9211563637305357
vn 0.04205655834407175 -0.3869136847657221 -0.9211563637305357
vn 0.03561689157974858 0.38622491713058715 0.921716740881746
vn -0.03561689157974858 -0.38622491713058715 -0.921716740881746
vn 0.3462933015940072 0.4257258019596393 0.8359656038479957
vn -0.3462933015940072 -0.4257258019596393 -0.8359656038479957
vn 0.7764467707087441 0.4275769838697676 0.46293448253591507
vn -0.7764467707087441 -0.4275769838697676 -0.46293448253591507
vn 0.9125030893655157 0.4090190952332138 -0.006441399924930702
vn -0.9125030893655157 -0.4090190952332138 0.006441399924930702
vn 0.25880210061169684 0.9530978022527133 -0.15692690037090773
vn -0.25880210061169684 -0.9530978022527133 0.15692690037090773
vn -0.01700663003565434 0.9278792019452955 0.37249290078093006
vn 0.01700663003565434 -0.9278792019452955 -0.37249290078093006
vn 0.014457730086626285 0.9272569055558391 0.3741465022417711
vn -0.014457730086626285 -0.9272569055558391 -0.3741465022417711
vn 0.11614069952335973 0.9528404960895521 0.2803681988493717
vn -0.11614069952335973 -0.9528404960895521 -0.2803681988493717
vn 0.25830390989058866 0.95370913651801 0.15400640589698397
vn -0.25830390989058866 -0.95370913651801 -0.15400640589698397
vn 0.3301139985694965 0.9439381959095741 -0.00233028998990201
vn -0.3301139985694965 -0.9439381959095741 0.00233028998990201
usemtl material_0_0
f 1/1/1 2/2/2 3/2/3
f 2/2/2 1/1/1 4/1/4
f 5/1/5 6/1/6 7/2/7
f 8/2/8 7/2/7 6/1/6
f 9/3/9 4/1/4 1/1/1
f 4/1/4 9/3/9 10/3/10
f 11/3/11 12/3/12 5/1/5
f 6/1/6 5/1/5 12/3/12
f 13/4/13 4/1/4 14/5/14
f 4/1/4 13/4/13 2/2/2
f 7/2/7 15/4/15 5/1/5
f 16/5/16 5/1/5 15/4/15
f 17/6/17 2/2/2 18/6/18
f 2/2/2 17/6/17 3/2/3
f 8/2/8 19/6/19 7/2/7
f 20/6/20 7/2/7 19/6/19
f 3/2/3 21/7/21 1/1/1
f 21/7/21 3/2/3 22/8/22
f 23/8/23 8/2/8 24/7/24
f 6/1/6 24/7/24 8/2/8
f 25/9/25 10/3/10 9/3/9
f 10/3/10 25/9/25 26/9/26
f 27/9/27 28/9/28 11/3/11
f 12/3/12 11/3/11 28/9/28
f 14/5/14 10/3/10 29/10/29
f 10/3/10 14/5/14 4/1/4
f 5/1/5 16/5/16 11/3/11
f 30/10/30 11/3/11 16/5/16
f 1/1/1 31/11/31 9/3/9
f 31/11/31 1/1/1 21/7/21
f 24/7/24 6/1/6 32/11/32
f 12/3/12 32/11/32 6/1/6
f 33/12/33 2/2/2 13/4/13
f 2/2/2 33/12/33 18/6/18
f 20/6/20 34/12/34 7/2/7
f 15/4/15 7/2/7 34/12/34
f 35/13/35 18/6/18 36/13/36
f 18/6/18 35/13/35 17/6/17
f 19/6/19 37/13/37 20/6/20
f 38/13/38 20/6/20 37/13/37
f 17/6/17 22/8/22 3/2/3
f 22/8/22 17/6/17 39/14/39
f 40/14/40 19/6/19 23/8/23
f 8/2/8 23/8/23 19/6/19
f 31/11/31 41/15/41 42/16/42
f 41/15/41 31/11/31 21/7/21
f 41/15/41 21/7/21 22/8/22
f 41/15/41 22/8/22 43/17/43
f 43/17/43 22/8/22 39/14/39
f 43/17/43 39/14/39 44/18/44
f 44/18/44 39/14/39 45/19/45
f 44/18/44 45/19/45 46/20/46
f 46/20/46 45/19/45 47/21/47
f 46/20/46 47/21/47 48/22/48
f 48/22/48 47/21/47 49/23/49
f 48/22/48 49/23/49 50/24/50
f 50/24/50 49/23/49 51/25/51
f 52/25/52 53/23/53 54/24/54
f 54/24/54 53/23/53 55/22/55
f 53/23/53 56/21/56 55/22/55
f 55/22/55 56/21/56 57/20/57
f 56/21/56 58/19/58 57/20/57
f 57/20/57 58/19/58 59/18/59
f 58/19/58 40/14/40 59/18/59
f 59/18/59 40/14/40 60/17/60
f 40/14/40 23/8/23 60/17/60
f 60/17/60 23/8/23 61/15/61
f 23/8/23 24/7/24 61/15/61
f 24/7/24 32/11/32 61/15/61
f 62/16/62 61/15/61 32/11/32
f 63/26/63 26/9/26 25/9/25
f 26/9/26 63/26/63 64/26/64
f 65/26/65 66/26/66 27/9/27
f 28/9/28 27/9/27 66/26/66
f 10/3/10 67/27/67 29/10/29
f 67/27/67 10/3/10 26/9/26
f 27/9/27 11/3/11 68/27/68
f 30/10/30 68/27/68 11/3/11
f 31/11/31 25/9/25 9/3/9
f 25/9/25 31/11/31 42/16/42
f 62/16/62 32/11/32 28/9/28
f 12/3/12 28/9/28 32/11/32
f 33/12/33 36/13/36 18/6/18
f 36/13/36 33/12/33 69/28/69
f 70/28/70 34/12/34 38/13/38
f 20/6/20 38/13/38 34/12/34
f 71/29/71 35/13/35 36/13/36
f 35/13/35 71/29/71 72/29/72
f 73/29/73 74/29/74 37/13/37
f 38/13/38 37/13/37 74/29/74
f 17/6/17 45/19/45 39/14/39
f 45/19/45 17/6/17 35/13/35
f 37/13/37 19/6/19 58/19/58
f 40/14/40 58/19/58 19/6/19
f 41/15/41 75/30/75 63/26/63
f 75/30/75 41/15/41 43/17/43
f 60/17/60 61/15/61 76/30/76
f 66/26/66 76/30/76 61/15/61
f 42/16/42 63/26/63 25/9/25
f 63/26/63 42/16/42 41/15/41
f 61/15/61 62/16/62 66/26/66
f 28/9/28 66/26/66 62/16/62
f 35/13/35 47/21/47 45/19/45
f 47/21/47 35/13/35 72/29/72
f 73/29/73 37/13/37 56/21/56
f 58/19/58 56/21/56 37/13/37
f 72/29/72 49/23/49 47/21/47
f 49/23/49 72/29/72 77/31/77
f 78/31/78 73/29/73 53/23/53
f 56/21/56 53/23/53 73/29/73
f 77/31/77 51/25/51 49/23/49
f 51/25/51 77/31/77 50/24/50
f 50/24/50 77/31/77 79/32/79
f 50/24/50 79/32/79 80/33/80
f 81/33/81 82/32/82 54/24/54
f 82/32/82 78/31/78 54/24/54
f 54/24/54 78/31/78 52/25/52
f 53/23/53 52/25/52 78/31/78
f 50/24/50 83/34/83 48/22/48
f 83/34/83 50/24/50 80/33/80
f 81/33/81 54/24/54 84/34/84
f 55/22/55 84/34/84 54/24/54
f 48/22/48 85/35/85 46/20/46
f 85/35/85 48/22/48 83/34/83
f 84/34/84 55/22/55 86/35/86
f 57/20/57 86/35/86 55/22/55
f 44/18/44 85/35/85 87/36/87
f 85/35/85 44/18/44 46/20/46
f 57/20/57 59/18/59 86/35/86
f 88/36/88 86/35/86 59/18/59
f 43/17/43 87/36/87 75/30/75
f 87/36/87 43/17/43 44/18/44
f 59/18/59 60/17/60 88/36/88
f 76/30/76 88/36/88 60/17/60
f 75/30/75 64/26/64 63/26/63
f 64/26/64 75/30/75 89/30/89
f 90/30/90 76/30/76 65/26/65
f 66/26/66 65/26/65 76/30/76
f 26/9/26 91/37/91 67/27/67
f 91/37/91 26/9/26 64/26/64
f 65/26/65 27/9/27 92/37/92
f 68/27/68 92/37/92 27/9/27
f 69/28/69 71/29/71 36/13/36
f 71/29/71 69/28/69 93/38/93
f 94/38/94 70/28/70 74/29/74
f 38/13/38 74/29/74 70/28/70
f 95/31/95 72/29/72 71/29/71
f 72/29/72 95/31/95 77/31/77
f 78/31/78 96/31/96 73/29/73
f 74/29/74 73/29/73 96/31/96
f 97/32/79 77/31/77 95/31/95
f 77/31/77 97/32/79 79/32/79
f 79/32/79 97/32/79 98/33/97
f 79/32/79 98/33/97 80/33/80
f 81/33/81 99/33/98 82/32/82
f 99/33/98 100/32/82 82/32/82
f 82/32/82 100/32/82 78/31/78
f 96/31/96 78/31/78 100/32/82
f 101/34/99 80/33/80 98/33/97
f 80/33/80 101/34/99 83/34/83
f 84/34/84 102/34/100 81/33/81
f 99/33/98 81/33/81 102/34/100
f 103/35/101 83/34/83 101/34/99
f 83/34/83 103/35/101 85/35/85
f 86/35/86 104/35/102 84/34/84
f 102/34/100 84/34/84 104/35/102
f 87/36/87 103/35/101 105/36/103
f 103/35/101 87/36/87 85/35/85
f 86/35/86 88/36/88 104/35/102
f 106/36/104 104/35/102 88/36/88
f 75/30/75 105/36/103 89/30/89
f 105/36/103 75/30/75 87/36/87
f 88/36/88 76/30/76 106/36/104
f 90/30/90 106/36/104 76/30/76
f 64/26/64 107/39/105 91/37/91
f 107/39/105 64/26/64 89/30/89
f 90/30/90 65/26/65 108/39/106
f 92/37/92 108/39/106 65/26/65
f 93/38/93 95/31/95 71/29/71
f 95/31/95 93/38/93 109/40/107
f 110/40/108 94/38/94 96/31/96
f 74/29/74 96/31/96 94/38/94
f 109/40/107 97/32/79 95/31/95
f 97/32/79 109/40/107 98/33/97
f 98/33/97 109/40/107 111/41/51
f 98/33/97 111/41/51 112/42/109
f 113/42/110 114/41/52 99/33/98
f 114/41/52 110/40/108 99/33/98
f 99/33/98 110/40/108 100/32/82
f 96/31/96 100/32/82 110/40/108
f 98/33/97 115/43/111 101/34/99
f 115/43/111 98/33/97 112/42/109
f 113/42/110 99/33/98 116/43/112
f 102/34/100 116/43/112 99/33/98
f 101/34/99 117/44/113 103/35/101
f 117/44/113 101/34/99 115/43/111
f 116/43/112 102/34/100 118/44/114
f 104/35/102 118/44/114 102/34/100
f 105/36/103 117/44/113 119/45/115
f 117/44/113 105/36/103 103/35/101
f 104/35/102 106/36/104 118/44/114
f 120/45/116 118/44/114 106/36/104
f 89/30/89 119/45/115 107/39/105
f 119/45/115 89/30/89 105/36/103
f 106/36/104 90/30/90 120/45/116
f 108/39/106 120/45/116 90/30/90
