# SSTK version 0.8.0
# 118
mtllib original-118.mtl
o #ID721
v -0.158722 -0.132908 -0.134218
v -0.158331 -0.132908 -0.021310
v -0.213621 -0.132908 -0.090078
v -0.103432 -0.132908 -0.065450
v -0.103432 -0.132908 -0.065450
v -0.158722 -0.132908 -0.134218
v -0.158331 -0.132908 -0.021310
v -0.213621 -0.132908 -0.090078
vt 0.4219728 1
vt 1.804779e-16 0
vt 1.804779e-16 1
vt 0.4219728 0
vn 0 -1 0
vn 0 1 0
usemtl material_0_0
f 1/1/1 2/2/1 3/3/1
f 2/2/1 1/1/1 4/4/1
f 5/4/2 6/1/2 7/2/2
f 8/3/2 7/2/2 6/1/2
