# SSTK version 0.8.0
# 139
mtllib original-139.mtl
o #ID889
v -0.215298 0.137913 -0.080130
v 0.150811 0.137913 -0.262903
v -0.215298 0.137913 -0.262903
v 0.150811 0.137913 -0.080130
v 0.150811 0.137913 -0.080130
v -0.215298 0.137913 -0.080130
v 0.150811 0.137913 -0.262903
v -0.215298 0.137913 -0.262903
vt 0.4533875 0.02769677
vt 0.02769677 0.8803875
vt 0.02769677 0.02769677
vt 0.4533875 0.8803875
vn 0 1 0
vn 0 -1 0
usemtl material_0_0
f 1/1/1 2/2/1 3/3/1
f 2/2/1 1/1/1 4/4/1
f 5/4/2 6/1/2 7/2/2
f 8/3/2 7/2/2 6/1/2
