# SSTK version 0.8.0
# 11
mtllib original-11.mtl
o #ID1315
v -0.334587 0.359672 0.369879
v 0.307348 0.359672 0.346579
v -0.334587 0.359672 0.346579
v 0.307348 0.359672 0.369879
v 0.307348 0.359672 0.369879
v -0.334587 0.359672 0.369879
v 0.307348 0.359672 0.346579
v -0.334587 0.359672 0.346579
v 0.307348 0.359672 0.346579
v 0.307348 -0.282262 0.369879
v 0.307348 -0.282262 0.346579
v 0.307348 0.359672 0.369879
v 0.307348 0.359672 0.369879
v 0.307348 0.359672 0.346579
v 0.307348 -0.282262 0.369879
v 0.307348 -0.282262 0.346579
vn 0 1 0
vn 1 0 0
vn 0 -1 0
vn -1 0 0
usemtl material_0_0
f 5//3 6//3 7//3
f 8//3 7//3 6//3
f 13//4 14//4 15//4
f 16//4 15//4 14//4
usemtl material_1_0
f 1//1 2//1 3//1
f 2//1 1//1 4//1
f 9//2 10//2 11//2
f 10//2 9//2 12//2
