# SSTK version 0.8.0
# 3
mtllib original-3.mtl
o mesh3/mesh3-geometry#mesh3-geometry
v 0.352050 0.465119 0.027664
v 0.352050 0.460838 0.027664
v 0.352068 0.462979 0.027945
v 0.352000 0.467114 0.026839
v 0.394941 0.462979 0.025323
v 0.394924 0.465119 0.025041
v 0.394874 0.467114 0.024217
v 0.352000 0.458844 0.026839
v 0.394924 0.460838 0.025041
v 0.394794 0.468827 0.022905
v 0.351920 0.468827 0.025527
v 0.394874 0.458844 0.024217
v 0.394794 0.457131 0.022905
v 0.351920 0.457131 0.025527
v 0.351815 0.470141 0.023818
v 0.394689 0.455817 0.021195
v 0.394689 0.470141 0.021195
v 0.351815 0.455817 0.023818
v 0.351693 0.470967 0.021827
v 0.351693 0.454990 0.021827
v 0.394567 0.454990 0.019204
v 0.394567 0.470967 0.019204
v 0.351563 0.471249 0.019690
v 0.351563 0.454709 0.019690
v 0.394437 0.454709 0.017068
v 0.394437 0.471249 0.017068
v 0.376695 0.454709 0.018153
v 0.351432 0.470967 0.017554
v 0.351432 0.454990 0.017554
v 0.394306 0.454990 0.014931
v 0.394306 0.470967 0.014931
v 0.351310 0.470141 0.015563
v 0.351310 0.455817 0.015563
v 0.394184 0.455817 0.012941
v 0.394184 0.470141 0.012941
v 0.351206 0.468827 0.013853
v 0.351206 0.457131 0.013853
v 0.394080 0.457131 0.011231
v 0.394080 0.468827 0.011231
v 0.393999 0.467114 0.009919
v 0.351126 0.467114 0.012541
v 0.351126 0.458844 0.012541
v 0.393999 0.458844 0.009919
v 0.393949 0.465119 0.009094
v 0.393949 0.460838 0.009094
v 0.351075 0.465119 0.011717
v 0.351075 0.460838 0.011717
v 0.393932 0.462979 0.008813
v 0.351058 0.462979 0.011435
v 0.376190 0.462979 0.009898
vt 0.021434 0.348028
vt 0.021434 0.346432
vt 0.021539 0.34723
vt 0.021126 0.348771
vt 0.130808 0.346266
vt 0.146818 0.347071
vt 0.130808 0.347071
vt 0.130808 0.341448
vt 0.146818 0.342253
vt 0.130808 0.342253
vt 0.130808 0.313333
vt 0.146818 0.314138
vt 0.130808 0.314138
vt 0.021126 0.345689
vt 0.146818 0.346266
vt 0.146818 0.341448
vt 0.146818 0.313333
vt 0.146818 0.264643
vt 0.130808 0.263838
vt 0.146818 0.263838
vt 0.020636 0.34941
vt 0.130808 0.327459
vt 0.146818 0.328264
vt 0.130808 0.328264
vt -0.021434 0.346432
vt -0.021434 0.348028
vt -0.021539 0.34723
vt -0.021126 0.345689
vt -0.021126 0.348771
vt 0.130808 0.264643
vt -0.020636 0.34505
vt -0.020636 0.34941
vt 0.020636 0.34505
vt 0.146818 0.327459
vt 0.146818 0.196335
vt 0.130808 0.19714
vt 0.130808 0.196335
vt -0.019998 0.34456
vt 0.019998 0.3499
vt 0.130808 0.286309
vt 0.146818 0.287114
vt 0.130808 0.287114
vt 0.146818 0.286309
vt 0.146818 0.19714
vt 0.146818 0.226425
vt 0.130808 0.225621
vt 0.146818 0.225621
vt -0.019998 0.3499
vt 0.019998 0.34456
vt 0.130808 0.226425
vt 0.146818 0.115425
vt 0.130808 0.11623
vt 0.130808 0.115425
vt 0.130808 0.149529
vt 0.146818 0.150333
vt 0.130808 0.150333
vt -0.019255 0.344253
vt 0.019255 0.350207
vt 0.146818 0.11623
vt 0.146818 0.149529
vt 0.019255 0.344253
vt -0.019255 0.350207
vt 0.146818 0.026621
vt 0.130808 0.027426
vt 0.130808 0.026621
vt 0.130808 0.063219
vt 0.146818 0.064024
vt 0.130808 0.064024
vt 0.018457 0.350313
vt -0.018457 0.344148
vt 0.146818 0.027426
vt 0.140193 0.063219
vt 0.018457 0.344148
vt 0.146818 0.063219
vt -0.018457 0.350313
vt -0.146818 0.064024
vt -0.130808 0.063219
vt -0.130808 0.064024
vt -0.130808 0.027426
vt -0.140193 0.026621
vt -0.130808 0.026621
vt 0.017659 0.350207
vt -0.146818 0.027426
vt -0.146818 0.026621
vt -0.017659 0.344253
vt -0.146818 0.063219
vt 0.017659 0.344253
vt -0.017659 0.350207
vt -0.146818 0.150333
vt -0.130808 0.149529
vt -0.130808 0.150333
vt -0.130808 0.11623
vt -0.146818 0.115425
vt -0.130808 0.115425
vt 0.016915 0.3499
vt -0.016915 0.34456
vt -0.146818 0.149529
vt -0.146818 0.11623
vt 0.016915 0.34456
vt -0.016915 0.3499
vt -0.146818 0.226425
vt -0.130808 0.225621
vt -0.130808 0.226425
vt -0.130808 0.19714
vt -0.146818 0.196335
vt -0.130808 0.196335
vt 0.016277 0.34505
vt -0.016277 0.34505
vt -0.146818 0.225621
vt 0.016277 0.34941
vt -0.146818 0.19714
vt -0.016277 0.34941
vt -0.146818 0.286309
vt -0.130808 0.287114
vt -0.146818 0.287114
vt 0.015787 0.348771
vt -0.130808 0.264643
vt -0.146818 0.263838
vt -0.130808 0.263838
vt -0.015787 0.345689
vt -0.130808 0.286309
vt -0.015787 0.348771
vt 0.015787 0.345689
vt -0.146818 0.264643
vt -0.146818 0.327459
vt -0.130808 0.328264
vt -0.146818 0.328264
vt -0.015479 0.346432
vt 0.015479 0.348028
vt -0.130808 0.314138
vt -0.146818 0.313333
vt -0.130808 0.313333
vt -0.130808 0.327459
vt -0.015479 0.348028
vt -0.146818 0.314138
vt 0.015479 0.346432
vt -0.146818 0.346266
vt -0.130808 0.347071
vt -0.146818 0.347071
vt -0.015374 0.34723
vt -0.130808 0.342253
vt -0.146818 0.341448
vt -0.130808 0.341448
vt 0.015374 0.34723
vt -0.140193 0.346266
vt -0.146818 0.342253
vt -0.130808 0.346266
vt -0.140193 0.342253
vn -0.9981347902902297 0 0.061048672485806185
vn 0.058968372961569045 -0.25881915716992204 0.9641241490970529
vn 0.061048672485806144 0 0.9981347902902297
vn -0.061048672485806144 0 -0.9981347902902297
vn -0.058968372961569045 0.25881915716992204 -0.9641241490970529
vn 0.058968372961569045 0.25881915716992204 0.9641241490970529
vn -0.058968372961569045 -0.25881915716992204 -0.9641241490970529
vn 0.05286938737086271 0.5000000141737506 0.8644100957909266
vn -0.05286938737086271 -0.5000000141737506 -0.8644100957909266
vn 0.04316838732264468 0.7071068047232903 0.7057878272186199
vn -0.04316838732264468 -0.7071068047232903 -0.7057878272186199
vn 0.05286938737086271 -0.5000000141737506 0.8644100957909266
vn -0.05286938737086271 0.5000000141737506 -0.8644100957909266
vn 0.9981347902902297 0 -0.061048672485806185
vn 0.030524274732529173 0.8660251142655261 0.499067901305459
vn -0.030524274732529173 -0.8660251142655261 -0.499067901305459
vn 0.04316838732264468 -0.7071068047232903 0.7057878272186199
vn -0.04316838732264468 0.7071068047232903 -0.7057878272186199
vn 0.030524274732529173 -0.8660251142655261 0.499067901305459
vn -0.030524274732529173 0.8660251142655261 -0.499067901305459
vn 0.01580059129570847 0.9659258366706482 0.2583362525214267
vn -0.01580059129570847 -0.9659258366706482 -0.2583362525214267
vn 0.01580059129570847 -0.9659258366706482 0.2583362525214267
vn -0.01580059129570847 0.9659258366706482 -0.2583362525214267
vn 0 1 0
vn 0 -1 0
vn 0.007968411518355277 -0.9914449283606708 0.13028222613149784
vn -0.007968411518355277 0.9914449283606708 -0.13028222613149784
vn -0.007968411518355277 -0.9914449283606708 -0.13028222613149784
vn 0.007968411518355277 0.9914449283606708 0.13028222613149784
vn -0.06052651511516049 0.1305260435408196 -0.98959562091068
vn 0.06052651511516049 -0.1305260435408196 0.98959562091068
vn -0.06052651511516049 -0.1305260435408196 -0.98959562091068
vn 0.06052651511516049 0.1305260435408196 0.98959562091068
usemtl material_0_0
f 1/1/1 2/2/1 3/3/1
f 2/2/1 1/1/1 4/4/1
f 2/5/2 5/6/3 3/7/3
f 3/7/4 5/6/4 2/5/5
f 3/8/3 6/9/6 1/10/6
f 1/10/7 6/9/7 3/8/4
f 1/11/6 7/12/8 4/13/8
f 4/13/9 7/12/9 1/11/7
f 2/2/1 4/4/1 8/14/1
f 5/6/3 2/5/2 9/15/2
f 9/15/5 2/5/5 5/6/4
f 6/9/6 3/8/3 5/16/3
f 5/16/4 3/8/4 6/9/7
f 7/12/8 1/11/6 6/17/6
f 6/17/7 1/11/7 7/12/9
f 10/18/10 4/19/8 7/20/8
f 7/20/9 4/19/9 10/18/11
f 8/14/1 4/4/1 11/21/1
f 8/22/12 9/23/2 2/24/2
f 2/24/5 9/23/5 8/22/13
f 9/25/14 6/26/14 5/27/14
f 6/26/14 12/28/14 7/29/14
f 4/19/8 10/18/10 11/30/10
f 11/30/11 10/18/11 4/19/9
f 7/29/14 13/31/14 10/32/14
f 8/14/1 11/21/1 14/33/1
f 9/23/2 8/22/12 12/34/12
f 12/34/13 8/22/13 9/23/5
f 6/26/14 9/25/14 12/28/14
f 7/29/14 12/28/14 13/31/14
f 10/35/10 15/36/15 11/37/10
f 11/37/11 15/36/16 10/35/11
f 10/32/14 13/31/14 16/38/14
f 14/33/1 11/21/1 15/39/1
f 14/40/17 12/41/12 8/42/12
f 8/42/13 12/41/13 14/40/18
f 12/41/12 14/40/17 13/43/17
f 13/43/18 14/40/18 12/41/13
f 15/36/15 10/35/10 17/44/15
f 17/44/16 10/35/11 15/36/16
f 13/45/17 18/46/19 16/47/19
f 16/47/20 18/46/20 13/45/18
f 10/32/14 16/38/14 17/48/14
f 14/33/1 15/39/1 18/49/1
f 18/46/19 13/45/17 14/50/17
f 14/50/18 13/45/18 18/46/20
f 17/51/15 19/52/21 15/53/15
f 15/53/16 19/52/22 17/51/16
f 20/54/23 16/55/19 18/56/19
f 18/56/20 16/55/20 20/54/24
f 17/48/14 16/38/14 21/57/14
f 18/49/1 15/39/1 19/58/1
f 19/52/21 17/51/15 22/59/21
f 22/59/22 17/51/16 19/52/22
f 16/55/19 20/54/23 21/60/23
f 21/60/24 20/54/24 16/55/20
f 18/49/1 19/58/1 20/61/1
f 17/48/14 21/57/14 22/62/14
f 22/63/21 23/64/25 19/65/21
f 19/65/22 23/64/26 22/63/22
f 24/66/26 21/67/23 20/68/23
f 20/68/24 21/67/24 24/66/25
f 20/61/1 19/58/1 23/69/1
f 22/62/14 21/57/14 25/70/14
f 23/64/25 22/63/21 26/71/25
f 26/71/26 22/63/22 23/64/26
f 21/67/23 24/66/26 27/72/26
f 27/72/25 24/66/25 21/67/24
f 20/61/1 23/69/1 24/73/1
f 21/67/23 27/72/26 25/74/27
f 25/74/28 27/72/25 21/67/24
f 22/62/14 25/70/14 26/75/14
f 26/76/25 28/77/24 23/78/25
f 23/78/26 28/77/23 26/76/26
f 29/79/22 27/80/26 24/81/26
f 24/81/25 27/80/25 29/79/21
f 24/73/1 23/69/1 28/82/1
f 27/80/26 30/83/22 25/84/29
f 25/84/30 30/83/21 27/80/25
f 26/75/14 25/70/14 30/85/14
f 28/77/24 26/76/25 31/86/24
f 31/86/23 26/76/26 28/77/23
f 27/80/26 29/79/22 30/83/22
f 30/83/21 29/79/21 27/80/25
f 24/73/1 28/82/1 29/87/1
f 26/75/14 30/85/14 31/88/14
f 31/89/24 32/90/20 28/91/24
f 28/91/23 32/90/19 31/89/23
f 33/92/16 30/93/22 29/94/22
f 29/94/21 30/93/21 33/92/15
f 29/87/1 28/82/1 32/95/1
f 31/88/14 30/85/14 34/96/14
f 32/90/20 31/89/24 35/97/20
f 35/97/19 31/89/23 32/90/19
f 30/93/22 33/92/16 34/98/16
f 34/98/15 33/92/15 30/93/21
f 29/87/1 32/95/1 33/99/1
f 31/88/14 34/96/14 35/100/14
f 35/101/20 36/102/18 32/103/20
f 32/103/19 36/102/17 35/101/19
f 37/104/11 34/105/16 33/106/16
f 33/106/15 34/105/15 37/104/10
f 33/99/1 32/95/1 37/107/1
f 35/100/14 34/96/14 38/108/14
f 36/102/18 35/101/20 39/109/18
f 39/109/17 35/101/19 36/102/17
f 37/107/1 32/95/1 36/110/1
f 34/105/16 37/104/11 38/111/11
f 38/111/10 37/104/10 34/105/15
f 35/100/14 38/108/14 39/112/14
f 40/113/13 36/114/18 39/115/18
f 39/115/17 36/114/17 40/113/12
f 37/107/1 36/110/1 41/116/1
f 42/117/9 38/118/11 37/119/11
f 37/119/10 38/118/10 42/117/8
f 39/112/14 38/108/14 43/120/14
f 36/114/18 40/113/13 41/121/13
f 41/121/12 40/113/12 36/114/17
f 39/112/14 43/120/14 40/122/14
f 37/107/1 41/116/1 42/123/1
f 38/118/11 42/117/9 43/124/9
f 43/124/8 42/117/8 38/118/10
f 44/125/5 41/126/13 40/127/13
f 40/127/12 41/126/12 44/125/2
f 40/122/14 43/120/14 45/128/14
f 42/123/1 41/116/1 46/129/1
f 47/130/7 43/131/9 42/132/9
f 42/132/8 43/131/8 47/130/6
f 41/126/13 44/125/5 46/133/5
f 46/133/2 44/125/2 41/126/12
f 40/122/14 45/128/14 44/134/14
f 43/131/9 47/130/7 45/135/7
f 45/135/6 47/130/6 43/131/8
f 42/123/1 46/129/1 47/136/1
f 48/137/31 46/138/5 44/139/5
f 44/139/2 46/138/2 48/137/32
f 44/134/14 45/128/14 48/140/14
f 49/141/33 45/142/7 47/143/7
f 47/143/6 45/142/6 49/141/34
f 47/136/1 46/129/1 49/144/1
f 50/145/31 46/138/5 48/137/31
f 48/137/32 46/138/2 50/145/32
f 45/142/7 49/141/33 48/146/33
f 48/146/34 49/141/34 45/142/6
f 46/138/5 50/145/31 49/147/31
f 49/147/32 50/145/32 46/138/2
f 48/146/33 49/141/33 50/148/33
f 50/148/34 49/141/34 48/146/34
usemtl material_1_0
f 3//14 2//14 1//14
f 4//14 1//14 2//14
f 8//14 4//14 2//14
f 11//14 4//14 8//14
f 5//1 6//1 9//1
f 7//1 12//1 6//1
f 10//1 13//1 7//1
f 14//14 11//14 8//14
f 12//1 9//1 6//1
f 13//1 12//1 7//1
f 16//1 13//1 10//1
f 15//14 11//14 14//14
f 17//1 16//1 10//1
f 18//14 15//14 14//14
f 21//1 16//1 17//1
f 19//14 15//14 18//14
f 20//14 19//14 18//14
f 22//1 21//1 17//1
f 23//14 19//14 20//14
f 25//1 21//1 22//1
f 24//14 23//14 20//14
f 26//1 25//1 22//1
f 28//14 23//14 24//14
f 30//1 25//1 26//1
f 29//14 28//14 24//14
f 31//1 30//1 26//1
f 32//14 28//14 29//14
f 34//1 30//1 31//1
f 33//14 32//14 29//14
f 35//1 34//1 31//1
f 37//14 32//14 33//14
f 38//1 34//1 35//1
f 36//14 32//14 37//14
f 39//1 38//1 35//1
f 41//14 36//14 37//14
f 43//1 38//1 39//1
f 40//1 43//1 39//1
f 42//14 41//14 37//14
f 45//1 43//1 40//1
f 46//14 41//14 42//14
f 44//1 45//1 40//1
f 47//14 46//14 42//14
f 48//1 45//1 44//1
f 49//14 46//14 47//14
