mtllib new-2.mtl
v 0.719511 -0.104337 -0.253907
v 0.719511 -0.151928 -0.267532
v 0.719511 -0.151928 -0.253907
v 0.719511 -0.104337 -0.267532
v -0.732515 -0.151928 -0.253907
v 0.739055 0.699515 -0.253907
v 0.719511 0.638122 -0.267532
v -0.188594 0.136281 -0.267532
v -0.738388 -0.151928 -0.253907
v 0.739055 -0.195172 -0.253907
v 0.719511 0.638122 -0.253907
v 0.121763 0.136281 -0.267532
v 0.719511 -0.178004 -0.267532
v -0.738388 -0.178004 -0.267532
v -0.738388 0.638122 -0.253907
v -0.663242 -0.172424 -0.253907
v 0.654469 -0.172620 -0.253907
v -0.732515 0.638122 -0.267532
v -0.754230 0.699515 -0.253907
v 0.121763 0.328092 -0.267532
v -0.738388 0.638122 -0.267532
v 0.074283 0.136281 -0.267532
v -0.754230 -0.195172 -0.253907
v 0.654465 -0.195172 -0.253907
v 0.031399 0.328092 -0.267532
v -0.188594 0.328092 -0.267532
v -0.013390 0.136281 -0.267532
v -0.663242 -0.195172 -0.253907
v 0.654465 -0.187676 -0.243645
v -0.101978 0.328092 -0.267532
v 0.074283 0.288273 -0.267532
v -0.144338 0.288273 -0.267532
v -0.063348 0.136281 -0.267532
v -0.663242 -0.195172 -0.222767
v 0.654465 -0.195172 -0.243645
v -0.037074 0.210158 -0.267532
v -0.144338 0.136281 -0.267532
v 0.654465 -0.195172 -0.222780
vn -1.000000 0.000000 0.000000
vn 1.000000 0.000000 0.000000
vn 0.000000 0.000000 -1.000000
vn -0.571898 0.000000 0.820325
vn 0.000000 -1.000000 0.000000
vn 0.000000 1.000000 0.000000
vn 0.000000 -0.216664 0.976246
vn 0.000000 0.621651 0.783294
vn 0.000000 0.000000 1.000000
vn -1.000000 0.000177 -0.000117
vn -1.000000 0.000009 0.000006
vn 0.652084 0.000000 0.758147
vn 1.000000 -0.000177 0.000117
vn 1.000000 -0.000009 -0.000006
vn 0.571898 0.000000 -0.820325
vn 0.000000 0.216664 -0.976246
vn 0.000000 -0.621651 -0.783294
vn -0.652084 0.000000 -0.758147
vt 14.174619 0.809755
vt 3.443748 0.467429
vt 14.174619 0.467429
vt 3.400345 0.467429
vt 3.400345 6.150415
vt 14.174619 6.150415
vt 7.463477 2.540570
vt 9.757096 2.540570
vt 3.400345 0.279860
vt 9.757096 3.920304
vt 14.174619 0.279860
vt 9.406208 2.540570
vt 3.443748 6.150415
vt 9.089281 3.920304
vt 7.463477 3.920304
vt -7.396429 6.150415
vt -7.242009 6.592026
vt -7.396429 0.279860
vt 8.758280 2.540570
vt 8.103590 3.920304
vt -7.242009 0.156366
vt 8.389075 2.540570
vt 7.790541 2.540570
vt -45.467487 20.317888
vt -44.411064 1.440707
vt -44.411064 2.495821
vt 85.047714 2.495821
vt 85.047714 1.440707
vt 44.780861 7.830525
vt -44.411064 18.956758
vt 58.542576 7.830525
vt 85.047714 18.956758
vt -44.411064 0.862582
vt 20.402073 0.862582
vt -45.467487 0.481950
vt -85.047714 13.703453
vt -19.699636 15.097701
vt -85.914330 15.097701
vt 58.542576 12.083129
vt 85.047714 0.862582
vt 20.402073 18.956758
vt 56.437248 7.830525
vt -85.914330 13.970488
vt -20.402073 14.456426
vt -85.047714 14.456426
vt -20.662489 13.703453
vt 20.662489 18.956758
vt 54.535686 12.083129
vt 44.780861 12.083129
vt -44.378574 0.862582
vt -43.452057 20.317888
vt -44.378574 18.956758
vt 52.549679 7.830525
vt -82.163452 13.970488
vt -23.734192 13.970488
vt -20.402073 13.703453
vt 48.621544 12.083129
vt -43.452057 0.481950
vt 50.334454 7.830525
vt -19.699636 13.970488
vt 46.743248 7.830525
vt 1.201476 0.392420
vt 1.118714 0.392420
vt 1.201476 0.561294
vt 1.035089 0.605535
vt 1.096357 0.474503
vt 1.160994 0.605535
vt 1.071555 0.392420
vt 0.995103 0.392420
vt 0.995103 0.561294
usemtl material-0
f 1//1 2//1 3//1
f 2//1 1//1 4//1
f 3//2 2//2 1//2
f 4//2 1//2 2//2
f 1//3 6//3 3//3
f 1//1 7//1 4//1
f 4//2 7//2 1//2
f 4//4 2//4 6//4
f 6//3 10//3 3//3
f 11//3 6//3 1//3
f 7//1 1//1 11//1
f 11//2 1//2 7//2
f 7//4 4//4 6//4
f 2//4 13//4 6//4
f 3//3 10//3 17//3
f 10//4 6//4 13//4
f 15//3 6//3 11//3
f 11//5 18//5 7//5
f 7//6 18//6 11//6
f 6//7 19//7 7//7
f 15//3 9//3 19//3
f 9//3 16//3 23//3
f 16//3 3//3 17//3
f 24//3 17//3 10//3
f 13//8 14//8 10//8
f 6//3 15//3 19//3
f 15//5 18//5 11//5
f 11//6 18//6 15//6
f 7//7 19//7 18//7
f 20//9 22//9 12//9
f 19//3 9//3 23//3
f 28//3 23//3 16//3
f 24//10 29//10 17//10
f 28//8 24//8 10//8
f 10//8 14//8 28//8
f 18//5 15//5 21//5
f 21//6 15//6 18//6
f 21//7 18//7 19//7
f 25//9 31//9 20//9
f 22//9 20//9 31//9
f 8//9 32//9 26//9
f 31//9 27//9 22//9
f 23//8 28//8 14//8
f 35//11 29//11 24//11
f 35//11 29//11 24//11
f 36//9 31//9 25//9
f 32//9 8//9 37//9
f 26//9 32//9 30//9
f 31//9 33//9 27//9
f 32//9 36//9 30//9
f 33//9 31//9 36//9
f 32//9 37//9 33//9
f 36//9 32//9 33//9
usemtl material-1
f 1/1/9 5/2/9 3/3/9
f 5/2/9 1/1/9 9/4/9
usemtl material-2
f 3/3/3 5/2/3 1/1/3
f 8/7/9 2/3/9 4/1/9
f 9/4/3 1/1/3 5/2/3
f 7/6/9 12/8/9 4/1/9
f 14/9/9 2/3/9 8/7/9
f 8/7/9 4/1/9 12/8/9
f 12/8/9 7/6/9 20/10/9
f 2/3/9 14/9/9 13/11/9
f 14/9/9 8/7/9 21/5/9
f 8/7/9 12/8/9 22/12/9
f 21/5/9 7/6/9 18/13/9
f 20/10/9 7/6/9 25/14/9
f 21/5/9 8/7/9 26/15/9
f 21/16/12 19/17/12 14/18/12
f 8/7/9 22/12/9 27/19/9
f 21/5/9 26/15/9 7/6/9
f 25/14/9 7/6/9 30/20/9
f 23/21/12 14/18/12 19/17/12
f 8/7/9 27/19/9 33/22/9
f 30/20/9 7/6/9 26/15/9
f 8/7/9 33/22/9 37/23/9
usemtl material-3
f 3//9 6//9 1//9
f 3//9 10//9 6//9
f 1//9 6//9 11//9
f 17//9 10//9 3//9
f 11//9 6//9 15//9
f 19//9 9//9 15//9
f 23//9 16//9 9//9
f 17//9 3//9 16//9
f 10//9 17//9 24//9
f 19//9 15//9 6//9
f 23//9 9//9 19//9
f 16//9 23//9 28//9
f 17//13 29//13 24//13
f 24//14 29//14 35//14
f 24//14 29//14 35//14
f 24//5 34//5 28//5
f 28//6 34//6 24//6
f 38//5 24//5 35//5
f 35//6 24//6 38//6
usemtl material-4
f 6/24/15 2/25/15 4/26/15
f 4/27/3 2/28/3 8/29/3
f 6/24/15 4/26/15 7/30/15
f 4/27/3 12/31/3 7/32/3
f 6/24/15 13/33/15 2/25/15
f 8/29/3 2/28/3 14/34/3
f 12/31/3 4/27/3 8/29/3
f 13/33/15 6/24/15 10/35/15
f 7/36/16 19/37/16 6/38/16
f 20/39/3 7/32/3 12/31/3
f 13/40/3 14/34/3 2/28/3
f 21/41/3 8/29/3 14/34/3
f 22/42/3 12/31/3 8/29/3
f 10/43/17 14/44/17 13/45/17
f 18/46/16 19/37/16 7/36/16
f 18/47/3 7/32/3 21/41/3
f 25/48/3 7/32/3 20/39/3
f 26/49/3 8/29/3 21/41/3
f 14/50/18 19/51/18 21/52/18
f 27/53/3 22/42/3 8/29/3
f 10/43/17 24/54/17 28/55/17
f 28/55/17 14/44/17 10/43/17
f 19/37/16 18/46/16 21/56/16
f 7/32/3 26/49/3 21/41/3
f 30/57/3 7/32/3 25/48/3
f 19/51/18 14/50/18 23/58/18
f 33/59/3 27/53/3 8/29/3
f 14/44/17 28/55/17 23/60/17
f 26/49/3 7/32/3 30/57/3
f 37/61/3 33/59/3 8/29/3
usemtl material-5
f 12//3 22//3 20//3
f 20//3 31//3 25//3
f 31//3 20//3 22//3
f 26//3 32//3 8//3
f 25//3 31//3 36//3
f 37//3 8//3 32//3
f 30//3 32//3 26//3
f 27//3 33//3 31//3
f 30//3 36//3 32//3
f 36//3 31//3 33//3
f 33//3 32//3 36//3
usemtl material-6
f 22/62/3 27/63/3 31/64/3
f 30/65/9 36/66/9 25/67/9
f 25/67/3 36/66/3 30/65/3
f 33/68/3 37/69/3 32/70/3