mtllib new-4.mtl
v 0.180974 -0.172603 0.620830
v 0.180974 -0.172603 0.385794
v -0.197283 -0.172603 0.599085
v 0.646136 -0.172603 0.359454
v 0.157602 -0.172603 0.400746
v -0.220330 -0.172603 0.385794
v -0.197283 -0.172603 0.400746
v 0.157602 -0.172603 0.548457
v -0.657438 -0.172603 0.359672
v -0.197283 -0.172603 0.548457
v -0.019841 -0.172603 0.548457
vn 0.000000 1.000000 0.000000
vn 0.000000 -1.000000 0.000000
vt 61.168091 7.683235
vt 81.794128 8.267235
vt 43.373638 7.683235
vt 23.991554 8.262387
vt 44.395565 7.351745
vt 52.263649 4.076884
vt 60.131733 7.351745
vt 60.131733 4.076884
vt 44.395565 4.076884
usemtl material-0
f 4/2/1 6/3/1 2/1/1
f 9/4/1 6/3/1 4/2/1
f 7/5/1 11/6/1 5/7/1
f 5/7/2 11/6/2 7/5/2
f 5/7/1 11/6/1 8/8/1
f 8/8/2 11/6/2 5/7/2
f 11/6/1 7/5/1 10/9/1
f 10/9/2 7/5/2 11/6/2
usemtl material-1
f 1//2 5//2 2//2
f 2//2 6//2 4//2
f 5//2 7//2 2//2
f 5//2 1//2 8//2
f 3//2 6//2 7//2
f 4//2 6//2 9//2
f 2//2 7//2 6//2
f 10//2 3//2 7//2
usemtl material-3
f 2//1 5//1 1//1
f 2//1 7//1 5//1
f 8//1 1//1 5//1
f 7//1 6//1 3//1
f 6//1 7//1 2//1
f 7//1 3//1 10//1