# SSTK version 0.8.0
# 63
mtllib original-63.mtl
o mesh57/mesh57-geometry#mesh57-geometry
v 0.107787 0.299852 -0.253766
v 0.107787 0.298672 -0.253766
v 0.107524 0.299269 -0.253766
v 0.108573 0.300046 -0.253766
v 0.108573 0.298473 -0.253766
v 0.112263 0.300046 -0.253766
v 0.110690 0.298473 -0.253766
v 0.110690 0.278112 -0.253766
v 0.112263 0.278112 -0.253766
v 0.114043 0.276539 -0.253766
v 0.112263 0.290362 -0.253766
v 0.108910 0.276539 -0.253766
v 0.114043 0.278112 -0.253766
v 0.112263 0.288077 -0.253766
v 0.108910 0.278112 -0.253766
v 0.114829 0.277916 -0.253766
v 0.113654 0.291657 -0.253766
v 0.108124 0.276736 -0.253766
v 0.114829 0.276736 -0.253766
v 0.115172 0.290906 -0.253766
v 0.108124 0.277916 -0.253766
v 0.115092 0.277326 -0.253766
v 0.115110 0.292582 -0.253766
v 0.107862 0.277326 -0.253766
v 0.116632 0.293137 -0.253766
v 0.116518 0.291538 -0.253766
v 0.118118 0.291749 -0.253766
v 0.118220 0.293322 -0.253766
v 0.119915 0.291500 -0.253766
v 0.119890 0.293158 -0.253766
v 0.121324 0.292666 -0.253766
v 0.121364 0.290756 -0.253766
v 0.122522 0.291847 -0.253766
v 0.122420 0.289463 -0.253766
v 0.122771 0.287759 -0.253766
v 0.123483 0.290700 -0.253766
v 0.122771 0.278112 -0.253766
v 0.124345 0.278112 -0.253766
v 0.126108 0.276539 -0.253766
v 0.124129 0.289318 -0.253766
v 0.121011 0.278112 -0.253766
v 0.126106 0.278112 -0.253766
v 0.124345 0.287871 -0.253766
v 0.121008 0.276539 -0.253766
v 0.126892 0.277916 -0.253766
v 0.120210 0.277916 -0.253766
v 0.126893 0.276736 -0.253766
v 0.120209 0.276736 -0.253766
v 0.127154 0.277326 -0.253766
v 0.119943 0.277326 -0.253766
vn 0 0 -1
vn 0 0 1
usemtl material_0_0
f 1//1 2//1 3//1
f 2//1 1//1 4//1
f 3//2 2//2 1//2
f 4//2 1//2 2//2
f 2//1 4//1 5//1
f 5//2 4//2 2//2
f 5//1 4//1 6//1
f 6//2 4//2 5//2
f 5//1 6//1 7//1
f 7//2 6//2 5//2
f 7//1 6//1 8//1
f 8//2 6//2 7//2
f 9//1 8//1 6//1
f 6//2 8//2 9//2
f 10//1 8//1 9//1
f 9//2 8//2 10//2
f 9//1 6//1 11//1
f 11//2 6//2 9//2
f 12//1 8//1 10//1
f 10//2 8//2 12//2
f 10//1 9//1 13//1
f 13//2 9//2 10//2
f 9//1 11//1 14//1
f 14//2 11//2 9//2
f 12//1 15//1 8//1
f 8//2 15//2 12//2
f 10//1 13//1 16//1
f 16//2 13//2 10//2
f 17//1 14//1 11//1
f 11//2 14//2 17//2
f 18//1 15//1 12//1
f 12//2 15//2 18//2
f 10//1 16//1 19//1
f 19//2 16//2 10//2
f 14//1 17//1 20//1
f 20//2 17//2 14//2
f 18//1 21//1 15//1
f 15//2 21//2 18//2
f 19//1 16//1 22//1
f 22//2 16//2 19//2
f 20//1 17//1 23//1
f 23//2 17//2 20//2
f 21//1 18//1 24//1
f 24//2 18//2 21//2
f 20//1 23//1 25//1
f 25//2 23//2 20//2
f 20//1 25//1 26//1
f 26//2 25//2 20//2
f 26//1 25//1 27//1
f 27//2 25//2 26//2
f 27//1 25//1 28//1
f 28//2 25//2 27//2
f 27//1 28//1 29//1
f 29//2 28//2 27//2
f 29//1 28//1 30//1
f 30//2 28//2 29//2
f 29//1 30//1 31//1
f 31//2 30//2 29//2
f 29//1 31//1 32//1
f 32//2 31//2 29//2
f 32//1 31//1 33//1
f 33//2 31//2 32//2
f 32//1 33//1 34//1
f 34//2 33//2 32//2
f 34//1 33//1 35//1
f 35//2 33//2 34//2
f 35//1 33//1 36//1
f 36//2 33//2 35//2
f 35//1 36//1 37//1
f 37//2 36//2 35//2
f 38//1 37//1 36//1
f 36//2 37//2 38//2
f 39//1 37//1 38//1
f 38//2 37//2 39//2
f 38//1 36//1 40//1
f 40//2 36//2 38//2
f 39//1 41//1 37//1
f 37//2 41//2 39//2
f 39//1 38//1 42//1
f 42//2 38//2 39//2
f 38//1 40//1 43//1
f 43//2 40//2 38//2
f 44//1 41//1 39//1
f 39//2 41//2 44//2
f 39//1 42//1 45//1
f 45//2 42//2 39//2
f 44//1 46//1 41//1
f 41//2 46//2 44//2
f 39//1 45//1 47//1
f 47//2 45//2 39//2
f 48//1 46//1 44//1
f 44//2 46//2 48//2
f 47//1 45//1 49//1
f 49//2 45//2 47//2
f 46//1 48//1 50//1
f 50//2 48//2 46//2
