# SSTK version 0.8.0
# 12
mtllib original-12.mtl
o mesh10/mesh10-geometry#mesh10-geometry
v 0.155071 -0.194750 0.296846
v 0.155511 -0.194750 0.287756
v 0.156181 -0.194750 0.296044
v 0.155317 -0.194750 0.291481
v 0.155076 -0.194750 0.278655
v 0.154736 -0.194750 0.294141
v 0.156191 -0.194750 0.279466
v 0.155317 -0.194750 0.284024
v 0.153815 -0.194750 0.297327
v 0.157143 -0.194750 0.294921
v 0.154736 -0.194750 0.281357
v 0.154300 -0.194750 0.295072
v 0.157162 -0.194750 0.280601
v 0.153816 -0.194750 0.278169
v 0.153767 -0.194750 0.295738
v 0.157937 -0.194750 0.293482
v 0.154300 -0.194750 0.280424
v 0.152411 -0.194750 0.297487
v 0.157947 -0.194750 0.282021
v 0.153767 -0.194750 0.279758
v 0.153137 -0.194750 0.296137
v 0.158504 -0.194750 0.291807
v 0.152411 -0.194750 0.278007
v 0.152411 -0.194750 0.296270
v 0.158508 -0.194750 0.283685
v 0.153137 -0.194750 0.279358
v 0.150998 -0.194750 0.297327
v 0.158844 -0.194750 0.289895
v 0.152411 -0.194750 0.279224
v 0.151680 -0.194750 0.296137
v 0.158845 -0.194750 0.285594
v 0.151680 -0.194750 0.279358
v 0.151046 -0.194750 0.295738
v 0.158957 -0.194750 0.287747
v 0.150997 -0.194750 0.278169
v 0.150510 -0.194750 0.295072
v 0.151046 -0.194750 0.279758
v 0.149736 -0.194750 0.296846
v 0.150510 -0.194750 0.280424
v 0.150072 -0.194750 0.294141
v 0.149731 -0.194750 0.278655
v 0.149487 -0.194750 0.291481
v 0.150072 -0.194750 0.281357
v 0.148623 -0.194750 0.296044
v 0.149487 -0.194750 0.284024
v 0.149292 -0.194750 0.287756
v 0.148612 -0.194750 0.279466
v 0.147660 -0.194750 0.294921
v 0.147641 -0.194750 0.280601
v 0.146866 -0.194750 0.293482
v 0.146855 -0.194750 0.282021
v 0.146299 -0.194750 0.291807
v 0.146294 -0.194750 0.283685
v 0.145959 -0.194750 0.289895
v 0.145958 -0.194750 0.285594
v 0.145845 -0.194750 0.287747
vn 0 -1 0
vn 0 1 0
usemtl material_0_0
f 1//1 2//1 3//1
f 2//1 1//1 4//1
f 3//2 2//2 1//2
f 4//2 1//2 2//2
f 5//1 3//1 2//1
f 2//2 3//2 5//2
f 4//1 1//1 6//1
f 6//2 1//2 4//2
f 7//1 3//1 5//1
f 5//2 3//2 7//2
f 5//1 2//1 8//1
f 8//2 2//2 5//2
f 6//1 1//1 9//1
f 9//2 1//2 6//2
f 7//1 10//1 3//1
f 3//2 10//2 7//2
f 5//1 8//1 11//1
f 11//2 8//2 5//2
f 6//1 9//1 12//1
f 12//2 9//2 6//2
f 13//1 10//1 7//1
f 7//2 10//2 13//2
f 5//1 11//1 14//1
f 14//2 11//2 5//2
f 12//1 9//1 15//1
f 15//2 9//2 12//2
f 13//1 16//1 10//1
f 10//2 16//2 13//2
f 14//1 11//1 17//1
f 17//2 11//2 14//2
f 15//1 9//1 18//1
f 18//2 9//2 15//2
f 19//1 16//1 13//1
f 13//2 16//2 19//2
f 14//1 17//1 20//1
f 20//2 17//2 14//2
f 15//1 18//1 21//1
f 21//2 18//2 15//2
f 19//1 22//1 16//1
f 16//2 22//2 19//2
f 14//1 20//1 23//1
f 23//2 20//2 14//2
f 21//1 18//1 24//1
f 24//2 18//2 21//2
f 25//1 22//1 19//1
f 19//2 22//2 25//2
f 23//1 20//1 26//1
f 26//2 20//2 23//2
f 24//1 18//1 27//1
f 27//2 18//2 24//2
f 25//1 28//1 22//1
f 22//2 28//2 25//2
f 23//1 26//1 29//1
f 29//2 26//2 23//2
f 24//1 27//1 30//1
f 30//2 27//2 24//2
f 31//1 28//1 25//1
f 25//2 28//2 31//2
f 23//1 29//1 32//1
f 32//2 29//2 23//2
f 30//1 27//1 33//1
f 33//2 27//2 30//2
f 28//1 31//1 34//1
f 34//2 31//2 28//2
f 23//1 32//1 35//1
f 35//2 32//2 23//2
f 33//1 27//1 36//1
f 36//2 27//2 33//2
f 35//1 32//1 37//1
f 37//2 32//2 35//2
f 36//1 27//1 38//1
f 38//2 27//2 36//2
f 35//1 37//1 39//1
f 39//2 37//2 35//2
f 36//1 38//1 40//1
f 40//2 38//2 36//2
f 35//1 39//1 41//1
f 41//2 39//2 35//2
f 40//1 38//1 42//1
f 42//2 38//2 40//2
f 41//1 39//1 43//1
f 43//2 39//2 41//2
f 42//1 38//1 44//1
f 44//2 38//2 42//2
f 41//1 43//1 45//1
f 45//2 43//2 41//2
f 42//1 44//1 46//1
f 46//2 44//2 42//2
f 41//1 45//1 47//1
f 47//2 45//2 41//2
f 47//1 46//1 44//1
f 44//2 46//2 47//2
f 47//1 45//1 46//1
f 46//2 45//2 47//2
f 47//1 44//1 48//1
f 48//2 44//2 47//2
f 47//1 48//1 49//1
f 49//2 48//2 47//2
f 49//1 48//1 50//1
f 50//2 48//2 49//2
f 49//1 50//1 51//1
f 51//2 50//2 49//2
f 51//1 50//1 52//1
f 52//2 50//2 51//2
f 51//1 52//1 53//1
f 53//2 52//2 51//2
f 53//1 52//1 54//1
f 54//2 52//2 53//2
f 53//1 54//1 55//1
f 55//2 54//2 53//2
f 55//1 54//1 56//1
f 56//2 54//2 55//2
