# SSTK version 0.8.0
# 53
mtllib original-53.mtl
o mesh47/mesh47-geometry#mesh47-geometry
v -0.075497 0.292566 -0.253766
v -0.075497 0.291386 -0.253766
v -0.075759 0.291983 -0.253766
v -0.074710 0.292760 -0.253766
v -0.074710 0.291187 -0.253766
v -0.071807 0.292760 -0.253766
v -0.073380 0.291187 -0.253766
v -0.073380 0.278112 -0.253766
v -0.071807 0.278112 -0.253766
v -0.070027 0.276539 -0.253766
v -0.071807 0.290381 -0.253766
v -0.075159 0.276539 -0.253766
v -0.070027 0.278112 -0.253766
v -0.071807 0.288002 -0.253766
v -0.075159 0.278112 -0.253766
v -0.069240 0.277916 -0.253766
v -0.070344 0.291668 -0.253766
v -0.075946 0.276736 -0.253766
v -0.069240 0.276736 -0.253766
v -0.069240 0.290643 -0.253766
v -0.075946 0.277916 -0.253766
v -0.068978 0.277326 -0.253766
v -0.068861 0.292587 -0.253766
v -0.076208 0.277326 -0.253766
v -0.067653 0.291472 -0.253766
v -0.067357 0.293138 -0.253766
v -0.065850 0.291749 -0.253766
v -0.065831 0.293322 -0.253766
v -0.064132 0.291491 -0.253766
v -0.064208 0.293158 -0.253766
v -0.062802 0.292666 -0.253766
v -0.062722 0.290717 -0.253766
v -0.061613 0.291847 -0.253766
v -0.061711 0.289427 -0.253766
v -0.061373 0.287772 -0.253766
v -0.060643 0.290700 -0.253766
v -0.061373 0.278112 -0.253766
v -0.059800 0.278112 -0.253766
v -0.058470 0.276539 -0.253766
v -0.060011 0.289374 -0.253766
v -0.062685 0.276539 -0.253766
v -0.058470 0.278112 -0.253766
v -0.059800 0.288021 -0.253766
v -0.062685 0.278112 -0.253766
v -0.057683 0.277916 -0.253766
v -0.063485 0.276736 -0.253766
v -0.057683 0.276736 -0.253766
v -0.063485 0.277916 -0.253766
v -0.057421 0.277326 -0.253766
v -0.063752 0.277326 -0.253766
vn 0 0 -1
vn 0 0 1
usemtl material_0_0
f 1//1 2//1 3//1
f 2//1 1//1 4//1
f 3//2 2//2 1//2
f 4//2 1//2 2//2
f 2//1 4//1 5//1
f 5//2 4//2 2//2
f 5//1 4//1 6//1
f 6//2 4//2 5//2
f 5//1 6//1 7//1
f 7//2 6//2 5//2
f 7//1 6//1 8//1
f 8//2 6//2 7//2
f 9//1 8//1 6//1
f 6//2 8//2 9//2
f 10//1 8//1 9//1
f 9//2 8//2 10//2
f 9//1 6//1 11//1
f 11//2 6//2 9//2
f 12//1 8//1 10//1
f 10//2 8//2 12//2
f 10//1 9//1 13//1
f 13//2 9//2 10//2
f 9//1 11//1 14//1
f 14//2 11//2 9//2
f 12//1 15//1 8//1
f 8//2 15//2 12//2
f 10//1 13//1 16//1
f 16//2 13//2 10//2
f 17//1 14//1 11//1
f 11//2 14//2 17//2
f 18//1 15//1 12//1
f 12//2 15//2 18//2
f 10//1 16//1 19//1
f 19//2 16//2 10//2
f 14//1 17//1 20//1
f 20//2 17//2 14//2
f 18//1 21//1 15//1
f 15//2 21//2 18//2
f 19//1 16//1 22//1
f 22//2 16//2 19//2
f 20//1 17//1 23//1
f 23//2 17//2 20//2
f 21//1 18//1 24//1
f 24//2 18//2 21//2
f 20//1 23//1 25//1
f 25//2 23//2 20//2
f 25//1 23//1 26//1
f 26//2 23//2 25//2
f 25//1 26//1 27//1
f 27//2 26//2 25//2
f 27//1 26//1 28//1
f 28//2 26//2 27//2
f 27//1 28//1 29//1
f 29//2 28//2 27//2
f 29//1 28//1 30//1
f 30//2 28//2 29//2
f 29//1 30//1 31//1
f 31//2 30//2 29//2
f 29//1 31//1 32//1
f 32//2 31//2 29//2
f 32//1 31//1 33//1
f 33//2 31//2 32//2
f 32//1 33//1 34//1
f 34//2 33//2 32//2
f 34//1 33//1 35//1
f 35//2 33//2 34//2
f 35//1 33//1 36//1
f 36//2 33//2 35//2
f 35//1 36//1 37//1
f 37//2 36//2 35//2
f 38//1 37//1 36//1
f 36//2 37//2 38//2
f 39//1 37//1 38//1
f 38//2 37//2 39//2
f 38//1 36//1 40//1
f 40//2 36//2 38//2
f 41//1 37//1 39//1
f 39//2 37//2 41//2
f 39//1 38//1 42//1
f 42//2 38//2 39//2
f 38//1 40//1 43//1
f 43//2 40//2 38//2
f 41//1 44//1 37//1
f 37//2 44//2 41//2
f 39//1 42//1 45//1
f 45//2 42//2 39//2
f 46//1 44//1 41//1
f 41//2 44//2 46//2
f 39//1 45//1 47//1
f 47//2 45//2 39//2
f 46//1 48//1 44//1
f 44//2 48//2 46//2
f 47//1 45//1 49//1
f 49//2 45//2 47//2
f 48//1 46//1 50//1
f 50//2 46//2 48//2
