# SSTK version 0.8.0
# 14
mtllib original-14.mtl
o mesh12/mesh12-geometry#mesh12-geometry
v 0.109030 -0.194750 0.296846
v 0.109470 -0.194750 0.287756
v 0.110140 -0.194750 0.296044
v 0.109276 -0.194750 0.291481
v 0.109035 -0.194750 0.278655
v 0.108695 -0.194750 0.294141
v 0.110150 -0.194750 0.279466
v 0.109276 -0.194750 0.284024
v 0.107774 -0.194750 0.297327
v 0.111102 -0.194750 0.294921
v 0.108695 -0.194750 0.281357
v 0.108259 -0.194750 0.295072
v 0.111121 -0.194750 0.280601
v 0.107775 -0.194750 0.278169
v 0.107726 -0.194750 0.295738
v 0.111896 -0.194750 0.293482
v 0.108259 -0.194750 0.280424
v 0.106370 -0.194750 0.297487
v 0.111906 -0.194750 0.282021
v 0.107726 -0.194750 0.279758
v 0.107096 -0.194750 0.296137
v 0.112463 -0.194750 0.291807
v 0.106370 -0.194750 0.278007
v 0.106370 -0.194750 0.296270
v 0.112467 -0.194750 0.283685
v 0.107096 -0.194750 0.279358
v 0.104957 -0.194750 0.297327
v 0.112803 -0.194750 0.289895
v 0.106370 -0.194750 0.279224
v 0.105639 -0.194750 0.296137
v 0.112804 -0.194750 0.285594
v 0.105639 -0.194750 0.279358
v 0.105005 -0.194750 0.295738
v 0.112916 -0.194750 0.287747
v 0.104956 -0.194750 0.278169
v 0.104469 -0.194750 0.295072
v 0.105005 -0.194750 0.279758
v 0.103695 -0.194750 0.296846
v 0.104469 -0.194750 0.280424
v 0.104031 -0.194750 0.294141
v 0.103690 -0.194750 0.278655
v 0.103446 -0.194750 0.291481
v 0.104031 -0.194750 0.281357
v 0.102582 -0.194750 0.296044
v 0.103446 -0.194750 0.284024
v 0.103251 -0.194750 0.287756
v 0.102571 -0.194750 0.279466
v 0.101619 -0.194750 0.294921
v 0.101600 -0.194750 0.280601
v 0.100825 -0.194750 0.293482
v 0.100814 -0.194750 0.282021
v 0.100258 -0.194750 0.291807
v 0.100253 -0.194750 0.283685
v 0.099918 -0.194750 0.289895
v 0.099917 -0.194750 0.285594
v 0.099804 -0.194750 0.287747
vn 0 -1 0
vn 0 1 0
usemtl material_0_0
f 1//1 2//1 3//1
f 2//1 1//1 4//1
f 3//2 2//2 1//2
f 4//2 1//2 2//2
f 5//1 3//1 2//1
f 2//2 3//2 5//2
f 4//1 1//1 6//1
f 6//2 1//2 4//2
f 7//1 3//1 5//1
f 5//2 3//2 7//2
f 5//1 2//1 8//1
f 8//2 2//2 5//2
f 6//1 1//1 9//1
f 9//2 1//2 6//2
f 7//1 10//1 3//1
f 3//2 10//2 7//2
f 5//1 8//1 11//1
f 11//2 8//2 5//2
f 6//1 9//1 12//1
f 12//2 9//2 6//2
f 13//1 10//1 7//1
f 7//2 10//2 13//2
f 5//1 11//1 14//1
f 14//2 11//2 5//2
f 12//1 9//1 15//1
f 15//2 9//2 12//2
f 13//1 16//1 10//1
f 10//2 16//2 13//2
f 14//1 11//1 17//1
f 17//2 11//2 14//2
f 15//1 9//1 18//1
f 18//2 9//2 15//2
f 19//1 16//1 13//1
f 13//2 16//2 19//2
f 14//1 17//1 20//1
f 20//2 17//2 14//2
f 15//1 18//1 21//1
f 21//2 18//2 15//2
f 19//1 22//1 16//1
f 16//2 22//2 19//2
f 14//1 20//1 23//1
f 23//2 20//2 14//2
f 21//1 18//1 24//1
f 24//2 18//2 21//2
f 25//1 22//1 19//1
f 19//2 22//2 25//2
f 23//1 20//1 26//1
f 26//2 20//2 23//2
f 24//1 18//1 27//1
f 27//2 18//2 24//2
f 25//1 28//1 22//1
f 22//2 28//2 25//2
f 23//1 26//1 29//1
f 29//2 26//2 23//2
f 24//1 27//1 30//1
f 30//2 27//2 24//2
f 31//1 28//1 25//1
f 25//2 28//2 31//2
f 23//1 29//1 32//1
f 32//2 29//2 23//2
f 30//1 27//1 33//1
f 33//2 27//2 30//2
f 28//1 31//1 34//1
f 34//2 31//2 28//2
f 23//1 32//1 35//1
f 35//2 32//2 23//2
f 33//1 27//1 36//1
f 36//2 27//2 33//2
f 35//1 32//1 37//1
f 37//2 32//2 35//2
f 36//1 27//1 38//1
f 38//2 27//2 36//2
f 35//1 37//1 39//1
f 39//2 37//2 35//2
f 36//1 38//1 40//1
f 40//2 38//2 36//2
f 35//1 39//1 41//1
f 41//2 39//2 35//2
f 40//1 38//1 42//1
f 42//2 38//2 40//2
f 41//1 39//1 43//1
f 43//2 39//2 41//2
f 42//1 38//1 44//1
f 44//2 38//2 42//2
f 41//1 43//1 45//1
f 45//2 43//2 41//2
f 42//1 44//1 46//1
f 46//2 44//2 42//2
f 41//1 45//1 47//1
f 47//2 45//2 41//2
f 47//1 46//1 44//1
f 44//2 46//2 47//2
f 47//1 45//1 46//1
f 46//2 45//2 47//2
f 47//1 44//1 48//1
f 48//2 44//2 47//2
f 47//1 48//1 49//1
f 49//2 48//2 47//2
f 49//1 48//1 50//1
f 50//2 48//2 49//2
f 49//1 50//1 51//1
f 51//2 50//2 49//2
f 51//1 50//1 52//1
f 52//2 50//2 51//2
f 51//1 52//1 53//1
f 53//2 52//2 51//2
f 53//1 52//1 54//1
f 54//2 52//2 53//2
f 53//1 54//1 55//1
f 55//2 54//2 53//2
f 55//1 54//1 56//1
f 56//2 54//2 55//2
