# SSTK version 0.8.0
# 7
mtllib original-7.mtl
o mesh6/mesh6-geometry#mesh6-geometry
v 0.113090 -0.194750 0.322804
v 0.113090 -0.194750 0.321624
v 0.113352 -0.194750 0.322221
v 0.112303 -0.194750 0.322998
v 0.112303 -0.194750 0.321425
v 0.109400 -0.194750 0.322998
v 0.110973 -0.194750 0.321425
v 0.110973 -0.194750 0.308350
v 0.109400 -0.194750 0.308350
v 0.107620 -0.194750 0.306777
v 0.109400 -0.194750 0.320619
v 0.112752 -0.194750 0.306777
v 0.107620 -0.194750 0.308350
v 0.109400 -0.194750 0.318240
v 0.112752 -0.194750 0.308350
v 0.106833 -0.194750 0.308154
v 0.107937 -0.194750 0.321906
v 0.113539 -0.194750 0.306974
v 0.106833 -0.194750 0.306974
v 0.106833 -0.194750 0.320882
v 0.113539 -0.194750 0.308154
v 0.106571 -0.194750 0.307564
v 0.106454 -0.194750 0.322825
v 0.113801 -0.194750 0.307564
v 0.105246 -0.194750 0.321710
v 0.104950 -0.194750 0.323376
v 0.103443 -0.194750 0.321987
v 0.103424 -0.194750 0.323560
v 0.101725 -0.194750 0.321729
v 0.101801 -0.194750 0.323396
v 0.100395 -0.194750 0.322904
v 0.100315 -0.194750 0.320955
v 0.099206 -0.194750 0.322085
v 0.099304 -0.194750 0.319665
v 0.098966 -0.194750 0.318010
v 0.098236 -0.194750 0.320938
v 0.098966 -0.194750 0.308350
v 0.097393 -0.194750 0.308350
v 0.096063 -0.194750 0.306777
v 0.097604 -0.194750 0.319612
v 0.100278 -0.194750 0.306777
v 0.096063 -0.194750 0.308350
v 0.097393 -0.194750 0.318259
v 0.100278 -0.194750 0.308350
v 0.095276 -0.194750 0.308154
v 0.101078 -0.194750 0.306974
v 0.095276 -0.194750 0.306974
v 0.101078 -0.194750 0.308154
v 0.095014 -0.194750 0.307564
v 0.101345 -0.194750 0.307564
vn 0 -1 0
vn 0 1 0
usemtl material_0_0
f 1//1 2//1 3//1
f 2//1 1//1 4//1
f 3//2 2//2 1//2
f 4//2 1//2 2//2
f 2//1 4//1 5//1
f 5//2 4//2 2//2
f 5//1 4//1 6//1
f 6//2 4//2 5//2
f 5//1 6//1 7//1
f 7//2 6//2 5//2
f 7//1 6//1 8//1
f 8//2 6//2 7//2
f 9//1 8//1 6//1
f 6//2 8//2 9//2
f 10//1 8//1 9//1
f 9//2 8//2 10//2
f 9//1 6//1 11//1
f 11//2 6//2 9//2
f 12//1 8//1 10//1
f 10//2 8//2 12//2
f 10//1 9//1 13//1
f 13//2 9//2 10//2
f 9//1 11//1 14//1
f 14//2 11//2 9//2
f 12//1 15//1 8//1
f 8//2 15//2 12//2
f 10//1 13//1 16//1
f 16//2 13//2 10//2
f 17//1 14//1 11//1
f 11//2 14//2 17//2
f 18//1 15//1 12//1
f 12//2 15//2 18//2
f 10//1 16//1 19//1
f 19//2 16//2 10//2
f 14//1 17//1 20//1
f 20//2 17//2 14//2
f 18//1 21//1 15//1
f 15//2 21//2 18//2
f 19//1 16//1 22//1
f 22//2 16//2 19//2
f 20//1 17//1 23//1
f 23//2 17//2 20//2
f 21//1 18//1 24//1
f 24//2 18//2 21//2
f 20//1 23//1 25//1
f 25//2 23//2 20//2
f 25//1 23//1 26//1
f 26//2 23//2 25//2
f 25//1 26//1 27//1
f 27//2 26//2 25//2
f 27//1 26//1 28//1
f 28//2 26//2 27//2
f 27//1 28//1 29//1
f 29//2 28//2 27//2
f 29//1 28//1 30//1
f 30//2 28//2 29//2
f 29//1 30//1 31//1
f 31//2 30//2 29//2
f 29//1 31//1 32//1
f 32//2 31//2 29//2
f 32//1 31//1 33//1
f 33//2 31//2 32//2
f 32//1 33//1 34//1
f 34//2 33//2 32//2
f 34//1 33//1 35//1
f 35//2 33//2 34//2
f 35//1 33//1 36//1
f 36//2 33//2 35//2
f 35//1 36//1 37//1
f 37//2 36//2 35//2
f 38//1 37//1 36//1
f 36//2 37//2 38//2
f 39//1 37//1 38//1
f 38//2 37//2 39//2
f 38//1 36//1 40//1
f 40//2 36//2 38//2
f 41//1 37//1 39//1
f 39//2 37//2 41//2
f 39//1 38//1 42//1
f 42//2 38//2 39//2
f 38//1 40//1 43//1
f 43//2 40//2 38//2
f 41//1 44//1 37//1
f 37//2 44//2 41//2
f 39//1 42//1 45//1
f 45//2 42//2 39//2
f 46//1 44//1 41//1
f 41//2 44//2 46//2
f 39//1 45//1 47//1
f 47//2 45//2 39//2
f 46//1 48//1 44//1
f 44//2 48//2 46//2
f 47//1 45//1 49//1
f 49//2 45//2 47//2
f 48//1 46//1 50//1
f 50//2 46//2 48//2
