# SSTK version 0.8.0
# 10
mtllib original-10.mtl
o mesh8/mesh8-geometry#mesh8-geometry
v 0.204523 -0.194750 0.292094
v 0.204347 -0.194750 0.288674
v 0.204642 -0.194750 0.290661
v 0.204165 -0.194750 0.293401
v 0.203462 -0.194750 0.286976
v 0.203569 -0.194750 0.294581
v 0.202734 -0.194750 0.295636
v 0.202721 -0.194750 0.286199
v 0.201796 -0.194750 0.296446
v 0.201865 -0.194750 0.285644
v 0.201589 -0.194750 0.291652
v 0.201425 -0.194750 0.293367
v 0.201443 -0.194750 0.290176
v 0.200775 -0.194750 0.297024
v 0.200895 -0.194750 0.285311
v 0.200931 -0.194750 0.294774
v 0.201007 -0.194750 0.288848
v 0.199973 -0.194750 0.295910
v 0.200500 -0.194750 0.288014
v 0.199673 -0.194750 0.297371
v 0.199809 -0.194750 0.285200
v 0.198677 -0.194750 0.296288
v 0.199865 -0.194750 0.287418
v 0.198489 -0.194750 0.297487
v 0.199100 -0.194750 0.287061
v 0.198014 -0.194750 0.296186
v 0.198114 -0.194750 0.285429
v 0.197303 -0.194750 0.297375
v 0.198206 -0.194750 0.286942
v 0.197418 -0.194750 0.295879
v 0.197084 -0.194750 0.287161
v 0.196422 -0.194750 0.294653
v 0.196288 -0.194750 0.286117
v 0.196212 -0.194750 0.297038
v 0.195820 -0.194750 0.287820
v 0.195774 -0.194750 0.292739
v 0.195197 -0.194750 0.281959
v 0.195217 -0.194750 0.296476
v 0.196936 -0.194750 0.280194
v 0.195558 -0.194750 0.290269
v 0.197365 -0.194750 0.283280
v 0.198761 -0.194750 0.281172
v 0.194318 -0.194750 0.295689
v 0.198918 -0.194750 0.278906
v 0.193953 -0.194750 0.283773
v 0.199783 -0.194750 0.280208
v 0.193459 -0.194750 0.294537
v 0.200976 -0.194750 0.279430
v 0.193065 -0.194750 0.285691
v 0.201144 -0.194750 0.278096
v 0.192846 -0.194750 0.293179
v 0.202339 -0.194750 0.278840
v 0.192532 -0.194750 0.287715
v 0.203612 -0.194750 0.277763
v 0.192477 -0.194750 0.291615
v 0.203874 -0.194750 0.278438
v 0.192355 -0.194750 0.289845
vn 0 -1 0
vn 0 1 0
usemtl material_0_0
f 1//1 2//1 3//1
f 2//1 1//1 4//1
f 3//2 2//2 1//2
f 4//2 1//2 2//2
f 2//1 4//1 5//1
f 5//2 4//2 2//2
f 5//1 4//1 6//1
f 6//2 4//2 5//2
f 5//1 6//1 7//1
f 7//2 6//2 5//2
f 5//1 7//1 8//1
f 8//2 7//2 5//2
f 8//1 7//1 9//1
f 9//2 7//2 8//2
f 8//1 9//1 10//1
f 10//2 9//2 8//2
f 10//1 9//1 11//1
f 11//2 9//2 10//2
f 9//1 12//1 11//1
f 11//2 12//2 9//2
f 10//1 11//1 13//1
f 13//2 11//2 10//2
f 12//1 9//1 14//1
f 14//2 9//2 12//2
f 10//1 13//1 15//1
f 15//2 13//2 10//2
f 12//1 14//1 16//1
f 16//2 14//2 12//2
f 15//1 13//1 17//1
f 17//2 13//2 15//2
f 16//1 14//1 18//1
f 18//2 14//2 16//2
f 15//1 17//1 19//1
f 19//2 17//2 15//2
f 18//1 14//1 20//1
f 20//2 14//2 18//2
f 15//1 19//1 21//1
f 21//2 19//2 15//2
f 18//1 20//1 22//1
f 22//2 20//2 18//2
f 21//1 19//1 23//1
f 23//2 19//2 21//2
f 22//1 20//1 24//1
f 24//2 20//2 22//2
f 21//1 23//1 25//1
f 25//2 23//2 21//2
f 22//1 24//1 26//1
f 26//2 24//2 22//2
f 21//1 25//1 27//1
f 27//2 25//2 21//2
f 26//1 24//1 28//1
f 28//2 24//2 26//2
f 27//1 25//1 29//1
f 29//2 25//2 27//2
f 26//1 28//1 30//1
f 30//2 28//2 26//2
f 27//1 29//1 31//1
f 31//2 29//2 27//2
f 30//1 28//1 32//1
f 32//2 28//2 30//2
f 27//1 31//1 33//1
f 33//2 31//2 27//2
f 32//1 28//1 34//1
f 34//2 28//2 32//2
f 33//1 31//1 35//1
f 35//2 31//2 33//2
f 32//1 34//1 36//1
f 36//2 34//2 32//2
f 37//1 33//1 35//1
f 35//2 33//2 37//2
f 36//1 34//1 38//1
f 38//2 34//2 36//2
f 39//1 33//1 37//1
f 37//2 33//2 39//2
f 37//1 35//1 40//1
f 40//2 35//2 37//2
f 36//1 38//1 40//1
f 40//2 38//2 36//2
f 39//1 41//1 33//1
f 33//2 41//2 39//2
f 37//1 40//1 38//1
f 38//2 40//2 37//2
f 39//1 42//1 41//1
f 41//2 42//2 39//2
f 37//1 38//1 43//1
f 43//2 38//2 37//2
f 44//1 42//1 39//1
f 39//2 42//2 44//2
f 37//1 43//1 45//1
f 45//2 43//2 37//2
f 44//1 46//1 42//1
f 42//2 46//2 44//2
f 45//1 43//1 47//1
f 47//2 43//2 45//2
f 44//1 48//1 46//1
f 46//2 48//2 44//2
f 45//1 47//1 49//1
f 49//2 47//2 45//2
f 50//1 48//1 44//1
f 44//2 48//2 50//2
f 49//1 47//1 51//1
f 51//2 47//2 49//2
f 50//1 52//1 48//1
f 48//2 52//2 50//2
f 49//1 51//1 53//1
f 53//2 51//2 49//2
f 54//1 52//1 50//1
f 50//2 52//2 54//2
f 53//1 51//1 55//1
f 55//2 51//2 53//2
f 52//1 54//1 56//1
f 56//2 54//2 52//2
f 53//1 55//1 57//1
f 57//2 55//2 53//2
