# SSTK version 0.8.0
# 42
mtllib original-42.mtl
o draw_front_1_1/draw_front_1/Group16/draw_front1/draw_front/mesh34/mesh34-geometry#mesh34-geometry
v 0.526827 -0.040588 0.314087
v 0.526827 0.287822 0.360840
v 0.526827 -0.040588 0.360840
v 0.526827 0.287822 0.314087
v -0.503959 -0.040588 0.360840
v -0.503959 0.287822 0.314087
v -0.503959 0.287822 0.360840
v -0.503959 -0.040588 0.314087
vt 0.033629 0
vt 0 0.23622
vt 0 0
vt 0.033629 0.23622
vt 0.741429 0.23622
vt 0.741429 0
vt -0.741429 0.033629
vt -0.741429 0
vt -0.741429 0.23622
vt 0 0.033629
vt 0.741429 0.033629
vt -0.033629 0
vt -0.033629 0.23622
vn 1 0 0
vn -1 0 0
vn 0 0 1
vn 0 0 -1
vn 0 -1 0
vn 0 1 0
usemtl material_0_0
f 1/1/1 2/2/1 3/3/1
f 2/2/1 1/1/1 4/4/1
f 3/3/2 2/2/2 1/1/2
f 4/4/2 1/1/2 2/2/2
f 2/5/3 5/3/3 3/6/3
f 3/6/4 5/3/4 2/5/4
f 5/3/5 1/7/5 3/8/5
f 3/8/6 1/7/6 5/3/6
f 1/8/4 6/2/4 4/9/4
f 4/9/3 6/2/3 1/8/3
f 6/10/6 2/6/6 4/11/6
f 4/11/5 2/6/5 6/10/5
f 5/3/3 2/5/3 7/2/3
f 7/2/4 2/5/4 5/3/4
f 1/7/5 5/3/5 8/10/5
f 8/10/6 5/3/6 1/7/6
f 6/2/4 1/8/4 8/3/4
f 8/3/3 1/8/3 6/2/3
f 2/6/6 6/10/6 7/3/6
f 7/3/5 6/10/5 2/6/5
f 7/2/2 8/12/2 5/3/2
f 5/3/1 8/12/1 7/2/1
f 8/12/2 7/2/2 6/13/2
f 6/13/1 7/2/1 8/12/1
