# SSTK version 0.8.0
# 71
mtllib original-71.mtl
o mesh70/mesh70-geometry#mesh70-geometry
v 0.211455 -0.170675 0.173734
v 0.154676 -0.170675 0.174725
v 0.155504 -0.170675 0.222163
v 0.154041 -0.172259 0.172372
v 0.152976 -0.172241 0.222734
v 0.212283 -0.170675 0.221172
v 0.152129 -0.172241 0.174243
v 0.212007 -0.172259 0.171360
v 0.154952 -0.172259 0.224537
v 0.212917 -0.172259 0.223525
v 0.213982 -0.172241 0.173163
v 0.150739 -0.182762 0.169672
v 0.215212 -0.182762 0.168546
v 0.148942 -0.182762 0.171417
v 0.149959 -0.182762 0.229701
v 0.214829 -0.172241 0.221654
v 0.217070 -0.182762 0.170227
v 0.151816 -0.182762 0.231382
v 0.216289 -0.182762 0.230256
v 0.218087 -0.182762 0.228512
vn 0.16087305438258218 0.9467533200467003 -0.27888709427682207
vn -0.31467710116980574 0.9264102978442011 -0.20674206646830873
vn -0.1608750474879079 0.9467532794674081 0.27888608232300044
vn -0.20457297303830682 0.6152749189098475 -0.7613058996636957
vn -0.7172831515798781 0.6666191408733049 0.20279004285461036
vn 0.3146751690968838 0.9264104978248798 0.2067441110980095
vn -0.7059663669430577 0.5952643094029916 -0.3837601994686257
vn 0.3550199506504553 0.5790969195026384 -0.7338988979843909
vn -0.3121339376386108 0.6967148608030035 0.6458798709593505
vn 0.18161099704691444 0.7211599882735782 0.6685399891292056
vn 0.737791971362974 0.6386189752123244 -0.21869799151134695
vn -0.4631050992070797 0.35455407595311417 -0.8122961740113236
vn 0.2080999766961335 0.3118919650730921 -0.9270478961854742
vn -0.9139419751937873 0.3374859908399554 -0.22541799388170491
vn -0.7392747928740835 0.5061498581897363 0.44416787555550497
vn 0.661244726884163 0.666195724839238 0.3448748575553323
vn 0.7859659374854507 0.3689599706534785 -0.49611096054007997
vn -0.18267702982257555 0.5745010937890347 0.7978581302527438
vn 0.4054180739855619 0.5819441062001536 0.7049661286506904
vn 0.8914999674379642 0.4064669851537937 0.20003099269386812
vn 0.1608750474879079 -0.9467532794674081 -0.27888608232300044
vn 0.31467710116980574 -0.9264102978442011 0.20674206646830873
vn -0.16087305438258218 -0.9467533200467003 0.27888709427682207
vn 0.20457297303830682 -0.6152749189098475 0.7613058996636957
vn 0.7172831515798781 -0.6666191408733049 -0.20279004285461036
vn -0.3146751690968838 -0.9264104978248798 -0.2067441110980095
vn 0.7059663669430577 -0.5952643094029916 0.3837601994686257
vn -0.3550199506504553 -0.5790969195026384 0.7338988979843909
vn 0.3121339376386108 -0.6967148608030035 -0.6458798709593505
vn -0.18161099704691444 -0.7211599882735782 -0.6685399891292056
vn -0.737791971362974 -0.6386189752123244 0.21869799151134695
vn 0.4631050992070797 -0.35455407595311417 0.8122961740113236
vn -0.2080999766961335 -0.3118919650730921 0.9270478961854742
vn 0.9139419751937873 -0.3374859908399554 0.22541799388170491
vn 0.7392747928740835 -0.5061498581897363 -0.44416787555550497
vn -0.661244726884163 -0.666195724839238 -0.3448748575553323
vn -0.7859659374854507 -0.3689599706534785 0.49611096054007997
vn 0.18267702982257555 -0.5745010937890347 -0.7978581302527438
vn -0.4054180739855619 -0.5819441062001536 -0.7049661286506904
vn -0.8914999674379642 -0.4064669851537937 -0.20003099269386812
usemtl material_0_0
f 1//1 2//2 3//3
f 4//4 2//2 1//1
f 2//2 5//5 3//3
f 1//1 3//3 6//6
f 4//4 7//7 2//2
f 8//8 4//4 1//1
f 7//7 5//5 2//2
f 3//3 5//5 9//9
f 6//6 3//3 10//10
f 11//11 1//1 6//6
f 12//12 7//7 4//4
f 4//4 8//8 13//13
f 8//8 1//1 11//11
f 7//7 14//14 5//5
f 15//15 9//9 5//5
f 3//3 9//9 10//10
f 6//6 10//10 16//16
f 11//11 6//6 16//16
f 14//14 7//7 12//12
f 12//12 4//4 13//13
f 8//8 17//17 13//13
f 8//8 11//11 17//17
f 5//5 14//14 15//15
f 15//15 18//18 9//9
f 18//18 10//10 9//9
f 10//10 19//19 16//16
f 16//16 20//20 11//11
f 11//11 20//20 17//17
f 18//18 19//19 10//10
f 16//16 19//19 20//20
usemtl material_1_0
f 3//21 2//22 1//23
f 1//23 2//22 4//24
f 3//21 5//25 2//22
f 6//26 3//21 1//23
f 2//22 7//27 4//24
f 1//23 4//24 8//28
f 2//22 5//25 7//27
f 9//29 5//25 3//21
f 10//30 3//21 6//26
f 6//26 1//23 11//31
f 4//24 7//27 12//32
f 13//33 8//28 4//24
f 11//31 1//23 8//28
f 5//25 14//34 7//27
f 5//25 9//29 15//35
f 10//30 9//29 3//21
f 16//36 10//30 6//26
f 16//36 6//26 11//31
f 12//32 7//27 14//34
f 13//33 4//24 12//32
f 13//33 17//37 8//28
f 17//37 11//31 8//28
f 15//35 14//34 5//25
f 9//29 18//38 15//35
f 9//29 10//30 18//38
f 16//36 19//39 10//30
f 11//31 20//40 16//36
f 17//37 20//40 11//31
f 10//30 19//39 18//38
f 20//40 19//39 16//36
