# SSTK version 0.8.0
# 82
mtllib original-82.mtl
o mesh81/mesh81-geometry#mesh81-geometry
v 0.386350 -0.170675 0.233990
v 0.329572 -0.170675 0.234981
v 0.330400 -0.170675 0.282419
v 0.328937 -0.172259 0.232628
v 0.327872 -0.172241 0.282990
v 0.387178 -0.170675 0.281428
v 0.327025 -0.172241 0.234499
v 0.386903 -0.172259 0.231616
v 0.329847 -0.172259 0.284793
v 0.387813 -0.172259 0.283781
v 0.388878 -0.172241 0.233419
v 0.325635 -0.182762 0.229928
v 0.390108 -0.182762 0.228802
v 0.323838 -0.182762 0.231673
v 0.324855 -0.182762 0.289957
v 0.389725 -0.172241 0.281910
v 0.391966 -0.182762 0.230483
v 0.326712 -0.182762 0.291638
v 0.391185 -0.182762 0.290512
v 0.392983 -0.182762 0.288768
vn 0.16087506519865521 0.94675238369515 -0.27888911302680813
vn -0.314678934414938 0.9264088069188231 -0.20674595691021888
vn -0.16087491288987796 0.9467524873549689 0.2788888489880042
vn -0.2045730092823982 0.6152710279176159 -0.7613090345440175
vn -0.7172822296974771 0.6666192134735048 0.202793064941042
vn 0.3146739765987986 0.9264109311060641 0.20674398462517404
vn -0.7059668962574662 0.5952619125256731 -0.3837629436056558
vn 0.3550241182221635 0.5790951928372836 -0.7338982443863215
vn -0.3121310600510565 0.6967131340410011 0.6458831242617892
vn 0.181607984135726 0.7211589370035243 0.6685419415998555
vn 0.7377941477281682 0.6386171278700011 -0.2186960437894039
vn -0.46310393749463424 0.35455395214567903 -0.8122968903638901
vn 0.20810093339012745 0.311891900168253 -0.927047703266447
vn -0.9139422836360912 0.3374851047363248 -0.2254180699570437
vn -0.7392729008376362 0.5061499321075834 0.4441709404211349
vn 0.66123989181984 0.6661978910087014 0.34487994357695606
vn 0.7859689339428507 0.3689589689906603 -0.4961069583044444
vn -0.18267896308003725 0.5745008838916597 0.7978578387505534
vn 0.4054118670585785 0.581942809171091 0.7049707688281383
vn 0.8914986865268296 0.40646785707576494 0.20003492966273023
vn 0.16087491288987796 -0.9467524873549689 -0.2788888489880042
vn 0.314678934414938 -0.9264088069188231 0.20674595691021888
vn -0.16087506519865521 -0.94675238369515 0.27888911302680813
vn 0.2045730092823982 -0.6152710279176159 0.7613090345440175
vn 0.7172822296974771 -0.6666192134735048 -0.202793064941042
vn -0.3146739765987986 -0.9264109311060641 -0.20674398462517404
vn 0.7059668962574662 -0.5952619125256731 0.3837629436056558
vn -0.3550241182221635 -0.5790951928372836 0.7338982443863215
vn 0.3121310600510565 -0.6967131340410011 -0.6458831242617892
vn -0.181607984135726 -0.7211589370035243 -0.6685419415998555
vn -0.7377941477281682 -0.6386171278700011 0.2186960437894039
vn 0.46310393749463424 -0.35455395214567903 0.8122968903638901
vn -0.20810093339012745 -0.311891900168253 0.927047703266447
vn 0.9139422836360912 -0.3374851047363248 0.2254180699570437
vn 0.7392729008376362 -0.5061499321075834 -0.4441709404211349
vn -0.66123989181984 -0.6661978910087014 -0.34487994357695606
vn -0.7859689339428507 -0.3689589689906603 0.4961069583044444
vn 0.18267896308003725 -0.5745008838916597 -0.7978578387505534
vn -0.4054118670585785 -0.581942809171091 -0.7049707688281383
vn -0.8914986865268296 -0.40646785707576494 -0.20003492966273023
usemtl material_0_0
f 1//1 2//2 3//3
f 4//4 2//2 1//1
f 2//2 5//5 3//3
f 1//1 3//3 6//6
f 4//4 7//7 2//2
f 8//8 4//4 1//1
f 7//7 5//5 2//2
f 3//3 5//5 9//9
f 6//6 3//3 10//10
f 11//11 1//1 6//6
f 12//12 7//7 4//4
f 4//4 8//8 13//13
f 8//8 1//1 11//11
f 7//7 14//14 5//5
f 15//15 9//9 5//5
f 3//3 9//9 10//10
f 6//6 10//10 16//16
f 11//11 6//6 16//16
f 14//14 7//7 12//12
f 12//12 4//4 13//13
f 8//8 17//17 13//13
f 8//8 11//11 17//17
f 5//5 14//14 15//15
f 15//15 18//18 9//9
f 18//18 10//10 9//9
f 10//10 19//19 16//16
f 16//16 20//20 11//11
f 11//11 20//20 17//17
f 18//18 19//19 10//10
f 16//16 19//19 20//20
usemtl material_1_0
f 3//21 2//22 1//23
f 1//23 2//22 4//24
f 3//21 5//25 2//22
f 6//26 3//21 1//23
f 2//22 7//27 4//24
f 1//23 4//24 8//28
f 2//22 5//25 7//27
f 9//29 5//25 3//21
f 10//30 3//21 6//26
f 6//26 1//23 11//31
f 4//24 7//27 12//32
f 13//33 8//28 4//24
f 11//31 1//23 8//28
f 5//25 14//34 7//27
f 5//25 9//29 15//35
f 10//30 9//29 3//21
f 16//36 10//30 6//26
f 16//36 6//26 11//31
f 12//32 7//27 14//34
f 13//33 4//24 12//32
f 13//33 17//37 8//28
f 17//37 11//31 8//28
f 15//35 14//34 5//25
f 9//29 18//38 15//35
f 9//29 10//30 18//38
f 16//36 19//39 10//30
f 11//31 20//40 16//36
f 17//37 20//40 11//31
f 10//30 19//39 18//38
f 20//40 19//39 16//36
