# SSTK version 0.8.0
# 58
mtllib original-58.mtl
o mesh57/mesh57-geometry#mesh57-geometry
v 0.118526 -0.170675 0.112976
v 0.061747 -0.170675 0.113968
v 0.062575 -0.170675 0.161406
v 0.061113 -0.172259 0.111615
v 0.060048 -0.172241 0.161976
v 0.119354 -0.170675 0.160414
v 0.059201 -0.172241 0.113485
v 0.119078 -0.172259 0.110603
v 0.062023 -0.172259 0.163779
v 0.119989 -0.172259 0.162767
v 0.121054 -0.172241 0.112406
v 0.057811 -0.182762 0.108914
v 0.122284 -0.182762 0.107789
v 0.056013 -0.182762 0.110659
v 0.057031 -0.182762 0.168943
v 0.121901 -0.172241 0.160897
v 0.124141 -0.182762 0.109470
v 0.058888 -0.182762 0.170624
v 0.123361 -0.182762 0.169499
v 0.125159 -0.182762 0.167754
vn 0.16087491288987796 0.9467524873549689 -0.2788888489880042
vn -0.31467803343753226 0.9264090984397728 -0.20674602196873007
vn -0.1608750474879079 0.9467532794674081 0.27888608232300044
vn -0.20457096711460598 0.6152719010932042 -0.7613088776173239
vn -0.7172830061216519 0.66661900568926 0.20279100173071984
vn 0.31467703611265346 0.9264101063157563 0.2067430237260375
vn -0.7059649309499264 0.5952629417776321 -0.38376496246414277
vn 0.35502298371243346 0.579094973432571 -0.733898966330551
vn -0.3121341551069914 0.6967143462141657 0.6458803209535122
vn 0.18161099704691444 0.7211599882735782 0.6685399891292056
vn 0.7377944575430058 0.6386163960377614 -0.21869713562496135
vn -0.46310020718876355 0.35455315862534587 -0.8122993634187549
vn 0.20810093339012745 0.311891900168253 -0.927047703266447
vn -0.9139413984433497 0.337486147130999 -0.22542009827450563
vn -0.7392748386950532 0.5061488895616143 0.444168903085243
vn 0.6612453798733469 0.6661943827164581 0.34487619812505255
vn 0.7859681617644468 0.36895907593750454 -0.4961081021067476
vn -0.18267892227725957 0.5744997555728115 0.7978586605423286
vn 0.40541773830354255 0.5819426243570301 0.7049675449446541
vn 0.8914996107811615 0.40646682254109523 0.20003291266784975
vn 0.1608750474879079 -0.9467532794674081 -0.27888608232300044
vn 0.31467803343753226 -0.9264090984397728 0.20674602196873007
vn -0.16087491288987796 -0.9467524873549689 0.2788888489880042
vn 0.20457096711460598 -0.6152719010932042 0.7613088776173239
vn 0.7172830061216519 -0.66661900568926 -0.20279100173071984
vn -0.31467703611265346 -0.9264101063157563 -0.2067430237260375
vn 0.7059649309499264 -0.5952629417776321 0.38376496246414277
vn -0.35502298371243346 -0.579094973432571 0.733898966330551
vn 0.3121341551069914 -0.6967143462141657 -0.6458803209535122
vn -0.18161099704691444 -0.7211599882735782 -0.6685399891292056
vn -0.7377944575430058 -0.6386163960377614 0.21869713562496135
vn 0.46310020718876355 -0.35455315862534587 0.8122993634187549
vn -0.20810093339012745 -0.311891900168253 0.927047703266447
vn 0.9139413984433497 -0.337486147130999 0.22542009827450563
vn 0.7392748386950532 -0.5061488895616143 -0.444168903085243
vn -0.6612453798733469 -0.6661943827164581 -0.34487619812505255
vn -0.7859681617644468 -0.36895907593750454 0.4961081021067476
vn 0.18267892227725957 -0.5744997555728115 -0.7978586605423286
vn -0.40541773830354255 -0.5819426243570301 -0.7049675449446541
vn -0.8914996107811615 -0.40646682254109523 -0.20003291266784975
usemtl material_0_0
f 1//1 2//2 3//3
f 4//4 2//2 1//1
f 2//2 5//5 3//3
f 1//1 3//3 6//6
f 4//4 7//7 2//2
f 8//8 4//4 1//1
f 7//7 5//5 2//2
f 3//3 5//5 9//9
f 6//6 3//3 10//10
f 11//11 1//1 6//6
f 12//12 7//7 4//4
f 4//4 8//8 13//13
f 8//8 1//1 11//11
f 7//7 14//14 5//5
f 15//15 9//9 5//5
f 3//3 9//9 10//10
f 6//6 10//10 16//16
f 11//11 6//6 16//16
f 14//14 7//7 12//12
f 12//12 4//4 13//13
f 8//8 17//17 13//13
f 8//8 11//11 17//17
f 5//5 14//14 15//15
f 15//15 18//18 9//9
f 18//18 10//10 9//9
f 10//10 19//19 16//16
f 16//16 20//20 11//11
f 11//11 20//20 17//17
f 18//18 19//19 10//10
f 16//16 19//19 20//20
usemtl material_1_0
f 3//21 2//22 1//23
f 1//23 2//22 4//24
f 3//21 5//25 2//22
f 6//26 3//21 1//23
f 2//22 7//27 4//24
f 1//23 4//24 8//28
f 2//22 5//25 7//27
f 9//29 5//25 3//21
f 10//30 3//21 6//26
f 6//26 1//23 11//31
f 4//24 7//27 12//32
f 13//33 8//28 4//24
f 11//31 1//23 8//28
f 5//25 14//34 7//27
f 5//25 9//29 15//35
f 10//30 9//29 3//21
f 16//36 10//30 6//26
f 16//36 6//26 11//31
f 12//32 7//27 14//34
f 13//33 4//24 12//32
f 13//33 17//37 8//28
f 17//37 11//31 8//28
f 15//35 14//34 5//25
f 9//29 18//38 15//35
f 9//29 10//30 18//38
f 16//36 19//39 10//30
f 11//31 20//40 16//36
f 17//37 20//40 11//31
f 10//30 19//39 18//38
f 20//40 19//39 16//36
