# SSTK version 0.8.0
# 20
mtllib original-20.mtl
o mesh19/mesh19-geometry#mesh19-geometry
v -0.450971 -0.170675 0.060161
v -0.507750 -0.170675 0.061152
v -0.506921 -0.170675 0.108590
v -0.508384 -0.172259 0.058799
v -0.509449 -0.172241 0.109161
v -0.450143 -0.170675 0.107599
v -0.510296 -0.172241 0.060670
v -0.450419 -0.172259 0.057788
v -0.507474 -0.172259 0.110964
v -0.449508 -0.172259 0.109952
v -0.448443 -0.172241 0.059590
v -0.511686 -0.182762 0.056099
v -0.447213 -0.182762 0.054973
v -0.513484 -0.182762 0.057844
v -0.512466 -0.182762 0.116128
v -0.447596 -0.172241 0.108082
v -0.445356 -0.182762 0.056655
v -0.510609 -0.182762 0.117809
v -0.446136 -0.182762 0.116684
v -0.444338 -0.182762 0.114939
vn 0.1608699797155034 0.9467538806214439 -0.27888696483444764
vn -0.31467597372801875 0.9264109226548818 -0.20674098273940286
vn -0.16087099870072535 0.9467539923535413 0.2788859977475773
vn -0.20457699125218579 0.6152759736904924 -0.7613039674462625
vn -0.7172797824386744 0.66662279780367 0.2027899384908805
vn 0.3146748775785948 0.9264106395883486 0.20674391956815444
vn -0.7059686845358458 0.595263734004674 -0.3837568285171482
vn 0.3550209894812608 0.5790999828421365 -0.7338959782557634
vn -0.31213191502521903 0.6967158103261136 0.6458798241657007
vn 0.18161099704691444 0.7211599882735782 0.6685399891292056
vn 0.7377888681552965 0.6386218858766826 -0.2186999609177737
vn -0.4631078319833513 0.3545538713669924 -0.8122947052975037
vn 0.20810807739447185 0.31189711599315545 -0.9270443447636842
vn -0.9139409875768002 0.3374879954125258 -0.22541899693587963
vn -0.7392728550175183 0.5061509007362258 0.4441699128916261
vn 0.661245182976486 0.6661961843465026 0.34487309543157174
vn 0.7859682714986387 0.36896412745203844 -0.4961041713702857
vn -0.1826769890201999 0.5744999654696806 0.7978589520446892
vn 0.4054190093706523 0.5819460134508092 0.7049640162941859
vn 0.8914984910695102 0.4064707679576925 0.20002988580877165
vn 0.16087099870072535 -0.9467539923535413 -0.2788859977475773
vn 0.31467597372801875 -0.9264109226548818 0.20674098273940286
vn -0.1608699797155034 -0.9467538806214439 0.27888696483444764
vn 0.20457699125218579 -0.6152759736904924 0.7613039674462625
vn 0.7172797824386744 -0.66662279780367 -0.2027899384908805
vn -0.3146748775785948 -0.9264106395883486 -0.20674391956815444
vn 0.7059686845358458 -0.595263734004674 0.3837568285171482
vn -0.3550209894812608 -0.5790999828421365 0.7338959782557634
vn 0.31213191502521903 -0.6967158103261136 -0.6458798241657007
vn -0.18161099704691444 -0.7211599882735782 -0.6685399891292056
vn -0.7377888681552965 -0.6386218858766826 0.2186999609177737
vn 0.4631078319833513 -0.3545538713669924 0.8122947052975037
vn -0.20810807739447185 -0.31189711599315545 0.9270443447636842
vn 0.9139409875768002 -0.3374879954125258 0.22541899693587963
vn 0.7392728550175183 -0.5061509007362258 -0.4441699128916261
vn -0.661245182976486 -0.6661961843465026 -0.34487309543157174
vn -0.7859682714986387 -0.36896412745203844 0.4961041713702857
vn 0.1826769890201999 -0.5744999654696806 -0.7978589520446892
vn -0.4054190093706523 -0.5819460134508092 -0.7049640162941859
vn -0.8914984910695102 -0.4064707679576925 -0.20002988580877165
usemtl material_0_0
f 1//1 2//2 3//3
f 4//4 2//2 1//1
f 2//2 5//5 3//3
f 1//1 3//3 6//6
f 4//4 7//7 2//2
f 8//8 4//4 1//1
f 7//7 5//5 2//2
f 3//3 5//5 9//9
f 6//6 3//3 10//10
f 11//11 1//1 6//6
f 12//12 7//7 4//4
f 4//4 8//8 13//13
f 8//8 1//1 11//11
f 7//7 14//14 5//5
f 15//15 9//9 5//5
f 3//3 9//9 10//10
f 6//6 10//10 16//16
f 11//11 6//6 16//16
f 14//14 7//7 12//12
f 12//12 4//4 13//13
f 8//8 17//17 13//13
f 8//8 11//11 17//17
f 5//5 14//14 15//15
f 15//15 18//18 9//9
f 18//18 10//10 9//9
f 10//10 19//19 16//16
f 16//16 20//20 11//11
f 11//11 20//20 17//17
f 18//18 19//19 10//10
f 16//16 19//19 20//20
usemtl material_1_0
f 3//21 2//22 1//23
f 1//23 2//22 4//24
f 3//21 5//25 2//22
f 6//26 3//21 1//23
f 2//22 7//27 4//24
f 1//23 4//24 8//28
f 2//22 5//25 7//27
f 9//29 5//25 3//21
f 10//30 3//21 6//26
f 6//26 1//23 11//31
f 4//24 7//27 12//32
f 13//33 8//28 4//24
f 11//31 1//23 8//28
f 5//25 14//34 7//27
f 5//25 9//29 15//35
f 10//30 9//29 3//21
f 16//36 10//30 6//26
f 16//36 6//26 11//31
f 12//32 7//27 14//34
f 13//33 4//24 12//32
f 13//33 17//37 8//28
f 17//37 11//31 8//28
f 15//35 14//34 5//25
f 9//29 18//38 15//35
f 9//29 10//30 18//38
f 16//36 19//39 10//30
f 11//31 20//40 16//36
f 17//37 20//40 11//31
f 10//30 19//39 18//38
f 20//40 19//39 16//36
