# SSTK version 0.8.0
# 46
mtllib original-46.mtl
o mesh45/mesh45-geometry#mesh45-geometry
v 0.237570 -0.170675 0.048157
v 0.180791 -0.170675 0.049148
v 0.181619 -0.170675 0.096586
v 0.180156 -0.172259 0.046795
v 0.179091 -0.172241 0.097157
v 0.238398 -0.170675 0.095595
v 0.178244 -0.172241 0.048665
v 0.238122 -0.172259 0.045783
v 0.181067 -0.172259 0.098959
v 0.239032 -0.172259 0.097948
v 0.240097 -0.172241 0.047586
v 0.176854 -0.182762 0.044094
v 0.241327 -0.182762 0.042969
v 0.175057 -0.182762 0.045839
v 0.176074 -0.182762 0.104123
v 0.240944 -0.172241 0.096077
v 0.243185 -0.182762 0.044650
v 0.177931 -0.182762 0.105804
v 0.242404 -0.182762 0.104679
v 0.244202 -0.182762 0.102934
vn 0.16087491288987796 0.9467524873549689 -0.2788888489880042
vn -0.3146789994733847 0.9264089984496546 -0.20674499965401222
vn -0.1608759767410356 0.9467528631213212 0.278886959679363
vn -0.20457291328953878 0.6152727392099367 -0.7613076773114349
vn -0.7172830061216519 0.66661900568926 0.20279100173071984
vn 0.31467703611265346 0.9264101063157563 0.2067430237260375
vn -0.7059662453342554 0.5952632068632269 -0.3837621333633129
vn 0.35502298371243346 0.579094973432571 -0.733898966330551
vn -0.3121321483594106 0.696714331155019 0.645881306993594
vn 0.18161208547892635 0.721160339426814 0.668539314659802
vn 0.7377941477281682 0.6386171278700011 -0.2186960437894039
vn -0.4631029877641245 0.3545549906321254 -0.8122969785378957
vn 0.20810004160076323 0.31189106234936875 -0.9270481853239037
vn -0.9139411935960706 0.33748807148858706 -0.22541804774929572
vn -0.7392720273575011 0.506152018730662 0.44417001643695586
vn 0.6612451674025009 0.6661951686556558 0.3448750873094504
vn 0.7859677718390907 0.36895889289383166 -0.49610885598309284
vn -0.18267591744347395 0.5745007403665136 0.7978586394246243
vn 0.4054180739855619 0.5819441062001536 0.7049661286506904
vn 0.8914994055525326 0.40646718490623246 0.20003309099717412
vn 0.1608759767410356 -0.9467528631213212 -0.278886959679363
vn 0.3146789994733847 -0.9264089984496546 0.20674499965401222
vn -0.16087491288987796 -0.9467524873549689 0.2788888489880042
vn 0.20457291328953878 -0.6152727392099367 0.7613076773114349
vn 0.7172830061216519 -0.66661900568926 -0.20279100173071984
vn -0.31467703611265346 -0.9264101063157563 -0.2067430237260375
vn 0.7059662453342554 -0.5952632068632269 0.3837621333633129
vn -0.35502298371243346 -0.579094973432571 0.733898966330551
vn 0.3121321483594106 -0.696714331155019 -0.645881306993594
vn -0.18161208547892635 -0.721160339426814 -0.668539314659802
vn -0.7377941477281682 -0.6386171278700011 0.2186960437894039
vn 0.4631029877641245 -0.3545549906321254 0.8122969785378957
vn -0.20810004160076323 -0.31189106234936875 0.9270481853239037
vn 0.9139411935960706 -0.33748807148858706 0.22541804774929572
vn 0.7392720273575011 -0.506152018730662 -0.44417001643695586
vn -0.6612451674025009 -0.6661951686556558 -0.3448750873094504
vn -0.7859677718390907 -0.36895889289383166 0.49610885598309284
vn 0.18267591744347395 -0.5745007403665136 -0.7978586394246243
vn -0.4054180739855619 -0.5819441062001536 -0.7049661286506904
vn -0.8914994055525326 -0.40646718490623246 -0.20003309099717412
usemtl material_0_0
f 1//1 2//2 3//3
f 4//4 2//2 1//1
f 2//2 5//5 3//3
f 1//1 3//3 6//6
f 4//4 7//7 2//2
f 8//8 4//4 1//1
f 7//7 5//5 2//2
f 3//3 5//5 9//9
f 6//6 3//3 10//10
f 11//11 1//1 6//6
f 12//12 7//7 4//4
f 4//4 8//8 13//13
f 8//8 1//1 11//11
f 7//7 14//14 5//5
f 15//15 9//9 5//5
f 3//3 9//9 10//10
f 6//6 10//10 16//16
f 11//11 6//6 16//16
f 14//14 7//7 12//12
f 12//12 4//4 13//13
f 8//8 17//17 13//13
f 8//8 11//11 17//17
f 5//5 14//14 15//15
f 15//15 18//18 9//9
f 18//18 10//10 9//9
f 10//10 19//19 16//16
f 16//16 20//20 11//11
f 11//11 20//20 17//17
f 18//18 19//19 10//10
f 16//16 19//19 20//20
usemtl material_1_0
f 3//21 2//22 1//23
f 1//23 2//22 4//24
f 3//21 5//25 2//22
f 6//26 3//21 1//23
f 2//22 7//27 4//24
f 1//23 4//24 8//28
f 2//22 5//25 7//27
f 9//29 5//25 3//21
f 10//30 3//21 6//26
f 6//26 1//23 11//31
f 4//24 7//27 12//32
f 13//33 8//28 4//24
f 11//31 1//23 8//28
f 5//25 14//34 7//27
f 5//25 9//29 15//35
f 10//30 9//29 3//21
f 16//36 10//30 6//26
f 16//36 6//26 11//31
f 12//32 7//27 14//34
f 13//33 4//24 12//32
f 13//33 17//37 8//28
f 17//37 11//31 8//28
f 15//35 14//34 5//25
f 9//29 18//38 15//35
f 9//29 10//30 18//38
f 16//36 19//39 10//30
f 11//31 20//40 16//36
f 17//37 20//40 11//31
f 10//30 19//39 18//38
f 20//40 19//39 16//36
