# SSTK version 0.8.0
# 16
mtllib original-16.mtl
o mesh15/mesh15-geometry#mesh15-geometry
v 0.387180 -0.170675 -0.063584
v 0.339902 -0.170675 -0.062759
v 0.340522 -0.170675 -0.027235
v 0.339267 -0.172259 -0.065112
v 0.337994 -0.172241 -0.026664
v 0.387800 -0.170675 -0.028060
v 0.337356 -0.172241 -0.063241
v 0.387732 -0.172259 -0.065958
v 0.339970 -0.172259 -0.024861
v 0.388435 -0.172259 -0.025707
v 0.389708 -0.172241 -0.064155
v 0.335965 -0.182762 -0.067812
v 0.390938 -0.182762 -0.068772
v 0.334168 -0.182762 -0.066068
v 0.334907 -0.182762 -0.023728
v 0.390346 -0.172241 -0.027578
v 0.392795 -0.182762 -0.067091
v 0.336764 -0.182762 -0.022047
v 0.391736 -0.182762 -0.023007
v 0.393534 -0.182762 -0.024751
vn 0.16087203539691916 0.9467532083155515 -0.27888806136416533
vn -0.3146751690968838 0.9264104978248798 -0.2067441110980095
vn -0.160873983636784 0.9467529037015067 0.2788879716330509
vn -0.2045710268636553 0.6152740807959518 -0.761307099972571
vn -0.7377922811767498 0.6386182433809713 0.21869908334743937
vn 0.3146739765987986 0.9264109311060641 0.20674398462517404
vn -0.7059641307128006 0.5952651102163217 -0.38376307105565793
vn 0.3550210302019953 0.5790960492642822 -0.7338990624335298
vn -0.35501989569232983 0.5790958298570374 0.7338997843744038
vn 0.2045710268636553 0.6152740807959518 0.761307099972571
vn 0.73779135434541 0.6386193067151963 -0.2186991050365033
vn -0.46310215444065783 0.3545531182404709 -0.8122982708946139
vn 0.20810297479175985 0.31189296221931617 -0.9270468877035726
vn -0.9139419751937873 0.3374859908399554 -0.22541799388170491
vn -0.7859659374854507 0.3689599706534785 0.49611096054007997
vn 0.7059638597895906 0.5952648817753465 0.38376392378123025
vn 0.7859674818491433 0.3689597567624381 -0.4961086729392249
vn -0.2080999766961335 0.3118919650730921 0.9270478961854742
vn 0.4631009927267674 0.354552994431568 0.8122989872424383
vn 0.9139417691744388 0.3374859147643993 0.2254189430680862
vn 0.160873983636784 -0.9467529037015067 -0.2788879716330509
vn 0.3146751690968838 -0.9264104978248798 0.2067441110980095
vn -0.16087203539691916 -0.9467532083155515 0.27888806136416533
vn 0.2045710268636553 -0.6152740807959518 0.761307099972571
vn 0.7377922811767498 -0.6386182433809713 -0.21869908334743937
vn -0.3146739765987986 -0.9264109311060641 -0.20674398462517404
vn 0.7059641307128006 -0.5952651102163217 0.38376307105565793
vn -0.3550210302019953 -0.5790960492642822 0.7338990624335298
vn 0.35501989569232983 -0.5790958298570374 -0.7338997843744038
vn -0.2045710268636553 -0.6152740807959518 -0.761307099972571
vn -0.73779135434541 -0.6386193067151963 0.2186991050365033
vn 0.46310215444065783 -0.3545531182404709 0.8122982708946139
vn -0.20810297479175985 -0.31189296221931617 0.9270468877035726
vn 0.9139419751937873 -0.3374859908399554 0.22541799388170491
vn 0.7859659374854507 -0.3689599706534785 -0.49611096054007997
vn -0.7059638597895906 -0.5952648817753465 -0.38376392378123025
vn -0.7859674818491433 -0.3689597567624381 0.4961086729392249
vn 0.2080999766961335 -0.3118919650730921 -0.9270478961854742
vn -0.4631009927267674 -0.354552994431568 -0.8122989872424383
vn -0.9139417691744388 -0.3374859147643993 -0.2254189430680862
usemtl material_0_0
f 1//1 2//2 3//3
f 4//4 2//2 1//1
f 2//2 5//5 3//3
f 1//1 3//3 6//6
f 4//4 7//7 2//2
f 8//8 4//4 1//1
f 7//7 5//5 2//2
f 3//3 5//5 9//9
f 6//6 3//3 10//10
f 11//11 1//1 6//6
f 12//12 7//7 4//4
f 4//4 8//8 13//13
f 8//8 1//1 11//11
f 7//7 14//14 5//5
f 15//15 9//9 5//5
f 3//3 9//9 10//10
f 6//6 10//10 16//16
f 11//11 6//6 16//16
f 14//14 7//7 12//12
f 12//12 4//4 13//13
f 8//8 17//17 13//13
f 8//8 11//11 17//17
f 5//5 14//14 15//15
f 15//15 18//18 9//9
f 18//18 10//10 9//9
f 10//10 19//19 16//16
f 16//16 20//20 11//11
f 11//11 20//20 17//17
f 18//18 19//19 10//10
f 16//16 19//19 20//20
usemtl material_1_0
f 3//21 2//22 1//23
f 1//23 2//22 4//24
f 3//21 5//25 2//22
f 6//26 3//21 1//23
f 2//22 7//27 4//24
f 1//23 4//24 8//28
f 2//22 5//25 7//27
f 9//29 5//25 3//21
f 10//30 3//21 6//26
f 6//26 1//23 11//31
f 4//24 7//27 12//32
f 13//33 8//28 4//24
f 11//31 1//23 8//28
f 5//25 14//34 7//27
f 5//25 9//29 15//35
f 10//30 9//29 3//21
f 16//36 10//30 6//26
f 16//36 6//26 11//31
f 12//32 7//27 14//34
f 13//33 4//24 12//32
f 13//33 17//37 8//28
f 17//37 11//31 8//28
f 15//35 14//34 5//25
f 9//29 18//38 15//35
f 9//29 10//30 18//38
f 16//36 19//39 10//30
f 11//31 20//40 16//36
f 17//37 20//40 11//31
f 10//30 19//39 18//38
f 20//40 19//39 16//36
