# SSTK version 0.8.0
# 28
mtllib original-28.mtl
o mesh27/mesh27-geometry#mesh27-geometry
v -0.085038 -0.170675 -0.008961
v -0.141817 -0.170675 -0.007970
v -0.140989 -0.170675 0.039468
v -0.142452 -0.172259 -0.010323
v -0.143517 -0.172241 0.040039
v -0.084210 -0.170675 0.038477
v -0.144363 -0.172241 -0.008452
v -0.084486 -0.172259 -0.011335
v -0.141541 -0.172259 0.041842
v -0.083576 -0.172259 0.040830
v -0.145754 -0.182762 -0.013024
v -0.081281 -0.182762 -0.014149
v -0.082510 -0.172241 -0.009532
v -0.147551 -0.182762 -0.011279
v -0.146534 -0.182762 0.047006
v -0.081664 -0.172241 0.038959
v -0.079423 -0.182762 -0.012468
v -0.144676 -0.182762 0.048686
v -0.080203 -0.182762 0.047561
v -0.078406 -0.182762 0.045816
vn 0.16087896167332688 0.9467517744525115 -0.2788889335594606
vn -0.3146800305664462 0.9264090899867514 -0.2067430200819842
vn -0.16087695085957981 0.9467527108111151 0.2788869148130288
vn -0.2045748594622342 0.6152735773225794 -0.7613064770016625
vn -0.7172847461995967 0.6666177641273452 0.20278892824619227
vn 0.31468289489939216 0.9264076905900736 0.2067449309494788
vn -0.7059670178683783 0.5952630150664047 -0.38376100971318317
vn 0.3550220547941082 0.5790940893773886 -0.7339001132701523
vn -0.3121319467590341 0.6967138811601301 0.6458818898306437
vn 0.18161100660310392 0.721159026220261 0.6685410243071493
vn -0.46310410168979904 0.354553077853837 -0.8122971783666708
vn 0.2080960868055319 0.31189013010234384 -0.9270493867108525
vn 0.7377969282046155 0.6386139378561614 -0.21869597871858598
vn -0.913940781556755 0.33748791933617833 -0.2254199461218216
vn -0.739270917153979 0.5061519432783388 0.4441719502240953
vn 0.6612457145796308 0.6661937124438749 0.3448768511372157
vn 0.7859643029947989 0.3689631422379015 -0.4961111912543739
vn -0.1826719693196973 0.5744989035111937 0.7978608659968852
vn 0.4054150453377698 0.5819450650792113 0.7049670788368253
vn 0.8914970049259666 0.4064720022459611 0.20003400110528788
vn 0.16087695085957981 -0.9467527108111151 -0.2788869148130288
vn 0.3146800305664462 -0.9264090899867514 0.2067430200819842
vn -0.16087896167332688 -0.9467517744525115 0.2788889335594606
vn 0.7172847461995967 -0.6666177641273452 -0.20278892824619227
vn -0.31468289489939216 -0.9264076905900736 -0.2067449309494788
vn 0.7059670178683783 -0.5952630150664047 0.38376100971318317
vn 0.2045748594622342 -0.6152735773225794 0.7613064770016625
vn -0.3550220547941082 -0.5790940893773886 0.7339001132701523
vn 0.3121319467590341 -0.6967138811601301 -0.6458818898306437
vn -0.18161100660310392 -0.721159026220261 -0.6685410243071493
vn 0.46310410168979904 -0.354553077853837 0.8122971783666708
vn -0.2080960868055319 -0.31189013010234384 0.9270493867108525
vn -0.7377969282046155 -0.6386139378561614 0.21869597871858598
vn 0.913940781556755 -0.33748791933617833 0.2254199461218216
vn 0.739270917153979 -0.5061519432783388 -0.4441719502240953
vn -0.6612457145796308 -0.6661937124438749 -0.3448768511372157
vn -0.7859643029947989 -0.3689631422379015 0.4961111912543739
vn 0.1826719693196973 -0.5744989035111937 -0.7978608659968852
vn -0.4054150453377698 -0.5819450650792113 -0.7049670788368253
vn -0.8914970049259666 -0.4064720022459611 -0.20003400110528788
usemtl material_0_0
f 1//1 2//2 3//3
f 4//4 2//2 1//1
f 2//2 5//5 3//3
f 1//1 3//3 6//6
f 4//4 7//7 2//2
f 8//8 4//4 1//1
f 7//7 5//5 2//2
f 3//3 5//5 9//9
f 6//6 3//3 10//10
f 11//11 7//7 4//4
f 4//4 8//8 12//12
f 8//8 1//1 13//13
f 7//7 14//14 5//5
f 15//15 9//9 5//5
f 3//3 9//9 10//10
f 6//6 10//10 16//16
f 14//14 7//7 11//11
f 11//11 4//4 12//12
f 8//8 17//17 12//12
f 13//13 1//1 6//6
f 8//8 13//13 17//17
f 5//5 14//14 15//15
f 15//15 18//18 9//9
f 18//18 10//10 9//9
f 10//10 19//19 16//16
f 13//13 6//6 16//16
f 13//13 20//20 17//17
f 18//18 19//19 10//10
f 16//16 19//19 20//20
f 16//16 20//20 13//13
usemtl material_1_0
f 3//21 2//22 1//23
f 3//21 5//24 2//22
f 6//25 3//21 1//23
f 2//22 7//26 4//27
f 1//23 2//22 4//27
f 1//23 4//27 8//28
f 2//22 5//24 7//26
f 9//29 5//24 3//21
f 10//30 3//21 6//25
f 4//27 7//26 11//31
f 12//32 8//28 4//27
f 13//33 1//23 8//28
f 5//24 14//34 7//26
f 5//24 9//29 15//35
f 10//30 9//29 3//21
f 16//36 10//30 6//25
f 11//31 7//26 14//34
f 12//32 4//27 11//31
f 12//32 17//37 8//28
f 6//25 1//23 13//33
f 17//37 13//33 8//28
f 15//35 14//34 5//24
f 9//29 18//38 15//35
f 9//29 10//30 18//38
f 16//36 19//39 10//30
f 16//36 6//25 13//33
f 17//37 20//40 13//33
f 10//30 19//39 18//38
f 20//40 19//39 16//36
f 13//33 20//40 16//36
