# SSTK version 0.8.0
# 41
mtllib original-41.mtl
o mesh40/mesh40-geometry#mesh40-geometry
v -0.107242 -0.170675 0.054175
v -0.164021 -0.170675 0.055166
v -0.163193 -0.170675 0.102604
v -0.164656 -0.172259 0.052813
v -0.165721 -0.172241 0.103175
v -0.106414 -0.170675 0.101613
v -0.166567 -0.172241 0.054684
v -0.106690 -0.172259 0.051802
v -0.163745 -0.172259 0.104978
v -0.105779 -0.172259 0.103966
v -0.104714 -0.172241 0.053604
v -0.167957 -0.182762 0.050113
v -0.103484 -0.182762 0.048988
v -0.169755 -0.182762 0.051858
v -0.168738 -0.182762 0.110142
v -0.103868 -0.172241 0.102096
v -0.101627 -0.182762 0.050669
v -0.166880 -0.182762 0.111823
v -0.102407 -0.182762 0.110698
v -0.100610 -0.182762 0.108953
vn 0.16087594958462237 0.9467517033065245 -0.27889091260104004
vn -0.3146829599583266 0.9264078821196998 -0.20674397369296812
vn -0.16087690599305535 0.94675244677389 0.2788878370344501
vn -0.20457705737425755 0.6152731725552313 -0.7613062135106415
vn -0.7172849334377546 0.6666169381396176 0.20279098118150482
vn 0.31468205898338136 0.9264081736441117 0.20674403875169278
vn -0.7059683599500615 0.5952613035041724 -0.3837611956672194
vn 0.3550189118131358 0.5790938561528145 -0.7339018176984443
vn -0.3121321642257283 0.6967133665699122 0.6458823398255925
vn 0.1816129310807207 0.7211597263311138 0.6685397462995768
vn 0.7377945904938664 0.6386156455422319 -0.2186988786131894
vn -0.4631033161544899 0.3545532420487945 -0.8122975545447638
vn 0.20809806330635386 0.3118920948819562 -0.927048282021109
vn -0.9139396903344369 0.3374888856503477 -0.22542292362109084
vn -0.7392717448148964 0.5061508252846105 0.4441718466787896
vn 0.6612449393552456 0.6661949389012664 0.34487596837039175
vn 0.7859638131335887 0.3689619122776554 -0.49611288204694376
vn -0.18267505576102125 0.5745001753644817 0.7978592435441776
vn 0.4054150453377698 0.5819450650792113 0.7049670788368253
vn 0.8914957182927463 0.4064738715567157 0.20003593678985415
vn 0.16087690599305535 -0.94675244677389 -0.2788878370344501
vn 0.3146829599583266 -0.9264078821196998 0.20674397369296812
vn -0.16087594958462237 -0.9467517033065245 0.27889091260104004
vn 0.20457705737425755 -0.6152731725552313 0.7613062135106415
vn 0.7172849334377546 -0.6666169381396176 -0.20279098118150482
vn -0.31468205898338136 -0.9264081736441117 -0.20674403875169278
vn 0.7059683599500615 -0.5952613035041724 0.3837611956672194
vn -0.3550189118131358 -0.5790938561528145 0.7339018176984443
vn 0.3121321642257283 -0.6967133665699122 -0.6458823398255925
vn -0.1816129310807207 -0.7211597263311138 -0.6685397462995768
vn -0.7377945904938664 -0.6386156455422319 0.2186988786131894
vn 0.4631033161544899 -0.3545532420487945 0.8122975545447638
vn -0.20809806330635386 -0.3118920948819562 0.927048282021109
vn 0.9139396903344369 -0.3374888856503477 0.22542292362109084
vn 0.7392717448148964 -0.5061508252846105 -0.4441718466787896
vn -0.6612449393552456 -0.6661949389012664 -0.34487596837039175
vn -0.7859638131335887 -0.3689619122776554 0.49611288204694376
vn 0.18267505576102125 -0.5745001753644817 -0.7978592435441776
vn -0.4054150453377698 -0.5819450650792113 -0.7049670788368253
vn -0.8914957182927463 -0.4064738715567157 -0.20003593678985415
usemtl material_0_0
f 1//1 2//2 3//3
f 4//4 2//2 1//1
f 2//2 5//5 3//3
f 1//1 3//3 6//6
f 4//4 7//7 2//2
f 8//8 4//4 1//1
f 7//7 5//5 2//2
f 3//3 5//5 9//9
f 6//6 3//3 10//10
f 11//11 1//1 6//6
f 12//12 7//7 4//4
f 4//4 8//8 13//13
f 8//8 1//1 11//11
f 7//7 14//14 5//5
f 15//15 9//9 5//5
f 3//3 9//9 10//10
f 6//6 10//10 16//16
f 11//11 6//6 16//16
f 14//14 7//7 12//12
f 12//12 4//4 13//13
f 8//8 17//17 13//13
f 8//8 11//11 17//17
f 5//5 14//14 15//15
f 15//15 18//18 9//9
f 18//18 10//10 9//9
f 10//10 19//19 16//16
f 16//16 20//20 11//11
f 11//11 20//20 17//17
f 18//18 19//19 10//10
f 16//16 19//19 20//20
usemtl material_1_0
f 3//21 2//22 1//23
f 1//23 2//22 4//24
f 3//21 5//25 2//22
f 6//26 3//21 1//23
f 2//22 7//27 4//24
f 1//23 4//24 8//28
f 2//22 5//25 7//27
f 9//29 5//25 3//21
f 10//30 3//21 6//26
f 6//26 1//23 11//31
f 4//24 7//27 12//32
f 13//33 8//28 4//24
f 11//31 1//23 8//28
f 5//25 14//34 7//27
f 5//25 9//29 15//35
f 10//30 9//29 3//21
f 16//36 10//30 6//26
f 16//36 6//26 11//31
f 12//32 7//27 14//34
f 13//33 4//24 12//32
f 13//33 17//37 8//28
f 17//37 11//31 8//28
f 15//35 14//34 5//25
f 9//29 18//38 15//35
f 9//29 10//30 18//38
f 16//36 19//39 10//30
f 11//31 20//40 16//36
f 17//37 20//40 11//31
f 10//30 19//39 18//38
f 20//40 19//39 16//36
