# SSTK version 0.8.0
# 25
mtllib original-25.mtl
o mesh24/mesh24-geometry#mesh24-geometry
v -0.291043 -0.170675 -0.005365
v -0.347821 -0.170675 -0.004374
v -0.346993 -0.170675 0.043064
v -0.348456 -0.172259 -0.006727
v -0.349521 -0.172241 0.043635
v -0.290215 -0.170675 0.042073
v -0.350368 -0.172241 -0.004857
v -0.290490 -0.172259 -0.007739
v -0.347545 -0.172259 0.045437
v -0.289580 -0.172259 0.044426
v -0.288515 -0.172241 -0.005936
v -0.351758 -0.182762 -0.009428
v -0.287285 -0.182762 -0.010553
v -0.353555 -0.182762 -0.007683
v -0.352538 -0.182762 0.050601
v -0.287668 -0.172241 0.042555
v -0.285427 -0.182762 -0.008872
v -0.350681 -0.182762 0.052282
v -0.286208 -0.182762 0.051157
v -0.284410 -0.182762 0.049412
vn 0.16087495775601124 0.9467527513931742 -0.27888792676710783
vn -0.314685954404998 0.9264068657724557 -0.20674397004476497
vn -0.16087896167332688 0.9467517744525115 0.2788889335594606
vn -0.2045780155224598 0.6152730466841517 -0.76130605776448
vn -0.7172871934419814 0.6666141797762026 0.20279205469008404
vn 0.31467806720501534 0.9264101978511311 0.20674104415317274
vn -0.7059720196157859 0.5952590165395696 -0.3837580106629084
vn 0.3550239675873783 0.5790969471301884 -0.7338969329974148
vn -0.3121350894122017 0.6967121995756766 0.645882185015239
vn 0.18161497697213044 0.7211609085604085 0.6685379152327404
vn 0.737793837912245 0.6386178597004613 -0.2186949519543645
vn -0.46310804396632205 0.3545550336605701 -0.8122940771171726
vn 0.20810093339012745 0.311891900168253 -0.927047703266447
vn -0.9139409875768002 0.3374879954125258 -0.22541899693587963
vn -0.7392740110384699 0.5061500075575789 0.44416900663210956
vn 0.6612462018212985 0.666196203332106 0.3448711052593332
vn 0.785968361631593 0.36896116976257837 -0.49610622826324113
vn -0.1826779964515713 0.5745009888406057 0.7978579845020076
vn 0.4054200310630813 0.5819440445882634 0.704965054014072
vn 0.8914966425571672 0.40647283702596804 0.200033919797016
vn 0.16087896167332688 -0.9467517744525115 -0.2788889335594606
vn 0.314685954404998 -0.9264068657724557 0.20674397004476497
vn -0.16087495775601124 -0.9467527513931742 0.27888792676710783
vn 0.2045780155224598 -0.6152730466841517 0.76130605776448
vn 0.7172871934419814 -0.6666141797762026 -0.20279205469008404
vn -0.31467806720501534 -0.9264101978511311 -0.20674104415317274
vn 0.7059720196157859 -0.5952590165395696 0.3837580106629084
vn -0.3550239675873783 -0.5790969471301884 0.7338969329974148
vn 0.3121350894122017 -0.6967121995756766 -0.645882185015239
vn -0.18161497697213044 -0.7211609085604085 -0.6685379152327404
vn -0.737793837912245 -0.6386178597004613 0.2186949519543645
vn 0.46310804396632205 -0.3545550336605701 0.8122940771171726
vn -0.20810093339012745 -0.311891900168253 0.927047703266447
vn 0.9139409875768002 -0.3374879954125258 0.22541899693587963
vn 0.7392740110384699 -0.5061500075575789 -0.44416900663210956
vn -0.6612462018212985 -0.666196203332106 -0.3448711052593332
vn -0.785968361631593 -0.36896116976257837 0.49610622826324113
vn 0.1826779964515713 -0.5745009888406057 -0.7978579845020076
vn -0.4054200310630813 -0.5819440445882634 -0.704965054014072
vn -0.8914966425571672 -0.40647283702596804 -0.200033919797016
usemtl material_0_0
f 1//1 2//2 3//3
f 4//4 2//2 1//1
f 2//2 5//5 3//3
f 1//1 3//3 6//6
f 4//4 7//7 2//2
f 8//8 4//4 1//1
f 7//7 5//5 2//2
f 3//3 5//5 9//9
f 6//6 3//3 10//10
f 11//11 1//1 6//6
f 12//12 7//7 4//4
f 4//4 8//8 13//13
f 8//8 1//1 11//11
f 7//7 14//14 5//5
f 15//15 9//9 5//5
f 3//3 9//9 10//10
f 6//6 10//10 16//16
f 11//11 6//6 16//16
f 14//14 7//7 12//12
f 12//12 4//4 13//13
f 8//8 17//17 13//13
f 8//8 11//11 17//17
f 5//5 14//14 15//15
f 15//15 18//18 9//9
f 18//18 10//10 9//9
f 10//10 19//19 16//16
f 16//16 20//20 11//11
f 11//11 20//20 17//17
f 18//18 19//19 10//10
f 16//16 19//19 20//20
usemtl material_1_0
f 3//21 2//22 1//23
f 1//23 2//22 4//24
f 3//21 5//25 2//22
f 6//26 3//21 1//23
f 2//22 7//27 4//24
f 1//23 4//24 8//28
f 2//22 5//25 7//27
f 9//29 5//25 3//21
f 10//30 3//21 6//26
f 6//26 1//23 11//31
f 4//24 7//27 12//32
f 13//33 8//28 4//24
f 11//31 1//23 8//28
f 5//25 14//34 7//27
f 5//25 9//29 15//35
f 10//30 9//29 3//21
f 16//36 10//30 6//26
f 16//36 6//26 11//31
f 12//32 7//27 14//34
f 13//33 4//24 12//32
f 13//33 17//37 8//28
f 17//37 11//31 8//28
f 15//35 14//34 5//25
f 9//29 18//38 15//35
f 9//29 10//30 18//38
f 16//36 19//39 10//30
f 11//31 20//40 16//36
f 17//37 20//40 11//31
f 10//30 19//39 18//38
f 20//40 19//39 16//36
