# SSTK version 0.8.0
# 106
mtllib original-106.mtl
o mesh104/mesh104-geometry#mesh104-geometry
v -0.379914 -0.143215 -0.220404
v -0.528758 -0.143215 -0.217806
v -0.528649 -0.142058 -0.211564
v -0.380000 -0.146509 -0.225332
v -0.532019 -0.145487 -0.211505
v -0.379805 -0.142058 -0.214162
v -0.528844 -0.146509 -0.222734
v -0.376588 -0.148939 -0.222961
v -0.532105 -0.146403 -0.216451
v -0.531933 -0.146403 -0.206559
v -0.528540 -0.143215 -0.205322
v -0.376521 -0.146403 -0.219167
v -0.380058 -0.151438 -0.228626
v -0.376632 -0.152753 -0.225510
v -0.532172 -0.148939 -0.220246
v -0.531867 -0.148939 -0.202764
v -0.379696 -0.143215 -0.207920
v -0.376435 -0.145486 -0.214221
v -0.528901 -0.151438 -0.226028
v -0.532233 -0.157585 -0.223755
v -0.531805 -0.157585 -0.199255
v -0.528454 -0.146509 -0.200393
v -0.376349 -0.146403 -0.209275
v -0.376649 -0.157585 -0.226471
v -0.380078 -0.157253 -0.229782
v -0.376649 -0.186383 -0.226471
v -0.532216 -0.152753 -0.222794
v -0.531822 -0.152753 -0.200216
v -0.379610 -0.146509 -0.202991
v -0.376238 -0.152753 -0.202932
v -0.528922 -0.157253 -0.227184
v -0.532233 -0.186383 -0.223755
v -0.528397 -0.151438 -0.197100
v -0.376283 -0.148939 -0.205480
v -0.380078 -0.186383 -0.229782
v -0.376221 -0.186383 -0.201971
v -0.528922 -0.186383 -0.227184
v -0.531805 -0.186383 -0.199255
v -0.528376 -0.157253 -0.195944
v -0.379553 -0.151438 -0.199698
v -0.376221 -0.157585 -0.201971
v -0.379533 -0.186383 -0.198542
v -0.379533 -0.157253 -0.198542
v -0.528376 -0.186383 -0.195944
vn 0.3835390373239115 0.85724908342277 -0.3435430334317201
vn -0.3956488672625969 0.8490837151384051 -0.3500268825684508
vn -0.3883219644403884 0.9215189156142128 -0.002989999726198262
vn 0.3777388182664986 0.658768683060534 -0.6506436869695418
vn -0.9596964111431476 0.28103812039942644 -0.0006110002617583727
vn 0.38831990934265037 0.9215197848615554 0.0029889993021868094
vn -0.4004801025739806 0.6439481649328547 -0.6518791669642027
vn 0.8250203850795922 0.41790419505745546 -0.3803911775481942
vn -0.8359633058915691 0.498649182463249 -0.22916008385312747
vn -0.8286910594312389 0.5272460378125055 0.1878370134711076
vn -0.3835440246471151 0.8572460550879191 0.3435450220767191
vn 0.9581218561432838 0.2666509599638279 -0.10440198432461743
vn 0.3741988381813023 0.36219584337188226 -0.8536916308292442
vn 0.920134330193024 0.16703305994032538 -0.354193127103289
vn -0.9309882186328335 0.24841605833790978 -0.26748906281700513
vn -0.9217098188540829 0.28368194424728377 0.26452894801146964
vn 0.3956482212510971 0.8490834748173763 0.3500281957398471
vn 0.8314312336708711 0.5552751560581611 0.019789005561631535
vn -0.403906830756207 0.3428318563476542 -0.8481306446189161
vn -0.9508424570253893 0.021307010241280858 -0.30894114849352555
vn -0.953654187939987 0.037139007319114875 0.29860405884695274
vn -0.37774408792051334 0.6587691533295265 0.6506401514374888
vn 0.929083580533259 0.3384368472010438 0.14921193263314045
vn 0.818366866555882 0.07320298806341194 -0.5700149070525219
vn 0.36818193689840784 0.09566698360392409 -0.9248188414980868
vn 0.8487083470670431 -0.47248919321764393 -0.23758809715822715
vn -0.840589197695675 0.17815604189998996 -0.5115371203068948
vn -0.822723877255777 0.24605496329044763 0.5124279235496028
vn 0.4004779107396911 0.6439508564733515 0.6518778547065465
vn 0.9642102819809276 0.09011702635450292 0.2493540729229859
vn -0.4002491426222033 0.08531603040096514 -0.9124263251281238
vn -0.9151113724783153 -0.3365571369890476 -0.22203709037588631
vn -0.37419915763180256 0.3621961525755236 0.8536913596184146
vn 0.8387077373968742 0.36592788542635024 0.4033188737190654
vn 0.2220479544319896 -0.3365569309328034 -0.9151088122041342
vn 0.9151153784712087 -0.3365561391920754 0.22202209182336063
vn -0.29830495286707537 -0.819431870527726 -0.48943392266822267
vn -0.582408900662599 -0.7313058752662867 0.3549529394581669
vn -0.368181972121078 0.09566599275612346 0.9248189299722508
vn 0.40390182285233445 0.3428328496366307 0.8481326280167443
vn 0.8378370642478622 0.03660100280667481 0.5446920417686214
vn 0.29830610832197785 -0.8194312975548148 0.48943417772508385
vn 0.4002471661158166 0.08531403540814742 0.9124273786875509
vn -0.22204692900561288 -0.33655789239337197 0.9151087074150851
vn 0.3883219644403884 -0.9215189156142128 0.002989999726198262
vn 0.3956488672625969 -0.8490837151384051 0.3500268825684508
vn -0.3835390373239115 -0.85724908342277 0.3435430334317201
vn -0.3777388182664986 -0.658768683060534 0.6506436869695418
vn 0.9596964111431476 -0.28103812039942644 0.0006110002617583727
vn -0.38831990934265037 -0.9215197848615554 -0.0029889993021868094
vn 0.4004801025739806 -0.6439481649328547 0.6518791669642027
vn -0.8250203850795922 -0.41790419505745546 0.3803911775481942
vn 0.8359633058915691 -0.498649182463249 0.22916008385312747
vn 0.8286910594312389 -0.5272460378125055 -0.1878370134711076
vn 0.3835440246471151 -0.8572460550879191 -0.3435450220767191
vn -0.9581218561432838 -0.2666509599638279 0.10440198432461743
vn -0.3741988381813023 -0.36219584337188226 0.8536916308292442
vn -0.920134330193024 -0.16703305994032538 0.354193127103289
vn 0.9309882186328335 -0.24841605833790978 0.26748906281700513
vn 0.9217098188540829 -0.28368194424728377 -0.26452894801146964
vn -0.3956482212510971 -0.8490834748173763 -0.3500281957398471
vn -0.8314312336708711 -0.5552751560581611 -0.019789005561631535
vn 0.403906830756207 -0.3428318563476542 0.8481306446189161
vn 0.9508424570253893 -0.021307010241280858 0.30894114849352555
vn 0.953654187939987 -0.037139007319114875 -0.29860405884695274
vn 0.37774408792051334 -0.6587691533295265 -0.6506401514374888
vn -0.929083580533259 -0.3384368472010438 -0.14921193263314045
vn -0.818366866555882 -0.07320298806341194 0.5700149070525219
vn -0.36818193689840784 -0.09566698360392409 0.9248188414980868
vn -0.8487083470670431 0.47248919321764393 0.23758809715822715
vn 0.840589197695675 -0.17815604189998996 0.5115371203068948
vn 0.822723877255777 -0.24605496329044763 -0.5124279235496028
vn -0.4004779107396911 -0.6439508564733515 -0.6518778547065465
vn -0.9642102819809276 -0.09011702635450292 -0.2493540729229859
vn 0.4002491426222033 -0.08531603040096514 0.9124263251281238
vn 0.9151113724783153 0.3365571369890476 0.22203709037588631
vn 0.37419915763180256 -0.3621961525755236 -0.8536913596184146
vn -0.8387077373968742 -0.36592788542635024 -0.4033188737190654
vn -0.2220479544319896 0.3365569309328034 0.9151088122041342
vn -0.9151153784712087 0.3365561391920754 -0.22202209182336063
vn 0.29830495286707537 0.819431870527726 0.48943392266822267
vn 0.582408900662599 0.7313058752662867 -0.3549529394581669
vn 0.368181972121078 -0.09566599275612346 -0.9248189299722508
vn -0.40390182285233445 -0.3428328496366307 -0.8481326280167443
vn -0.8378370642478622 -0.03660100280667481 -0.5446920417686214
vn -0.29830610832197785 0.8194312975548148 -0.48943417772508385
vn -0.4002471661158166 -0.08531403540814742 -0.9124273786875509
vn 0.22204692900561288 0.33655789239337197 -0.9151087074150851
usemtl material_0_0
f 1//1 2//2 3//3
f 4//4 2//2 1//1
f 3//3 2//2 5//5
f 1//1 3//3 6//6
f 4//4 7//7 2//2
f 1//1 8//8 4//4
f 2//2 9//9 5//5
f 3//3 5//5 10//10
f 6//6 3//3 11//11
f 6//6 12//12 1//1
f 7//7 4//4 13//13
f 2//2 7//7 9//9
f 1//1 12//12 8//8
f 4//4 8//8 14//14
f 5//5 9//9 15//15
f 5//5 16//16 10//10
f 3//3 10//10 11//11
f 6//6 11//11 17//17
f 6//6 18//18 12//12
f 4//4 14//14 13//13
f 19//19 7//7 13//13
f 9//9 7//7 15//15
f 12//12 14//14 8//8
f 5//5 15//15 20//20
f 5//5 21//21 16//16
f 11//11 10//10 16//16
f 17//17 11//11 22//22
f 6//6 17//17 18//18
f 18//18 23//23 12//12
f 13//13 14//14 24//24
f 7//7 19//19 15//15
f 19//19 13//13 25//25
f 12//12 26//26 14//14
f 15//15 27//27 20//20
f 5//5 20//20 21//21
f 16//16 21//21 28//28
f 11//11 16//16 22//22
f 17//17 22//22 29//29
f 17//17 23//23 18//18
f 23//23 30//30 12//12
f 14//14 26//26 24//24
f 25//25 13//13 24//24
f 15//15 19//19 27//27
f 31//31 19//19 25//25
f 12//12 30//30 26//26
f 27//27 31//31 20//20
f 20//20 32//32 21//21
f 28//28 21//21 33//33
f 22//22 16//16 28//28
f 22//22 33//33 29//29
f 17//17 29//29 23//23
f 23//23 34//34 30//30
f 25//25 24//24 26//26
f 19//19 31//31 27//27
f 31//31 25//25 35//35
f 30//30 36//36 26//26
f 31//31 37//37 20//20
f 20//20 37//37 32//32
f 21//21 32//32 38//38
f 21//21 39//39 33//33
f 22//22 28//28 33//33
f 33//33 40//40 29//29
f 23//23 29//29 34//34
f 34//34 40//40 30//30
f 25//25 26//26 35//35
f 31//31 35//35 37//37
f 30//30 41//41 36//36
f 26//26 36//36 42//42
f 37//37 38//38 32//32
f 38//38 39//39 21//21
f 33//33 39//39 40//40
f 29//29 40//40 34//34
f 40//40 43//43 30//30
f 35//35 26//26 37//37
f 30//30 43//43 41//41
f 41//41 42//42 36//36
f 37//37 26//26 42//42
f 37//37 42//42 38//38
f 38//38 44//44 39//39
f 39//39 43//43 40//40
f 43//43 42//42 41//41
f 38//38 42//42 44//44
f 39//39 44//44 43//43
f 44//44 42//42 43//43
usemtl material_1_0
f 3//45 2//46 1//47
f 1//47 2//46 4//48
f 5//49 2//46 3//45
f 6//50 3//45 1//47
f 2//46 7//51 4//48
f 4//48 8//52 1//47
f 5//49 9//53 2//46
f 10//54 5//49 3//45
f 11//55 3//45 6//50
f 1//47 12//56 6//50
f 13//57 4//48 7//51
f 9//53 7//51 2//46
f 8//52 12//56 1//47
f 14//58 8//52 4//48
f 15//59 9//53 5//49
f 10//54 16//60 5//49
f 11//55 10//54 3//45
f 17//61 11//55 6//50
f 12//56 18//62 6//50
f 13//57 14//58 4//48
f 13//57 7//51 19//63
f 15//59 7//51 9//53
f 8//52 14//58 12//56
f 20//64 15//59 5//49
f 16//60 21//65 5//49
f 16//60 10//54 11//55
f 22//66 11//55 17//61
f 18//62 17//61 6//50
f 12//56 23//67 18//62
f 24//68 14//58 13//57
f 15//59 19//63 7//51
f 25//69 13//57 19//63
f 14//58 26//70 12//56
f 20//64 27//71 15//59
f 21//65 20//64 5//49
f 28//72 21//65 16//60
f 22//66 16//60 11//55
f 29//73 22//66 17//61
f 18//62 23//67 17//61
f 12//56 30//74 23//67
f 24//68 26//70 14//58
f 24//68 13//57 25//69
f 27//71 19//63 15//59
f 25//69 19//63 31//75
f 26//70 30//74 12//56
f 20//64 31//75 27//71
f 21//65 32//76 20//64
f 33//77 21//65 28//72
f 28//72 16//60 22//66
f 29//73 33//77 22//66
f 23//67 29//73 17//61
f 30//74 34//78 23//67
f 26//70 24//68 25//69
f 27//71 31//75 19//63
f 35//79 25//69 31//75
f 26//70 36//80 30//74
f 20//64 37//81 31//75
f 32//76 37//81 20//64
f 38//82 32//76 21//65
f 33//77 39//83 21//65
f 33//77 28//72 22//66
f 29//73 40//84 33//77
f 34//78 29//73 23//67
f 30//74 40//84 34//78
f 35//79 26//70 25//69
f 37//81 35//79 31//75
f 36//80 41//85 30//74
f 42//86 36//80 26//70
f 32//76 38//82 37//81
f 21//65 39//83 38//82
f 40//84 39//83 33//77
f 34//78 40//84 29//73
f 30//74 43//87 40//84
f 37//81 26//70 35//79
f 41//85 43//87 30//74
f 36//80 42//86 41//85
f 42//86 26//70 37//81
f 38//82 42//86 37//81
f 39//83 44//88 38//82
f 40//84 43//87 39//83
f 41//85 42//86 43//87
f 44//88 42//86 38//82
f 43//87 44//88 39//83
f 43//87 42//86 44//88
