# SSTK version 0.8.0
# 53
mtllib original-53.mtl
o mesh52/mesh52-geometry#mesh52-geometry
v -0.224810 -0.170675 0.118969
v -0.281589 -0.170675 0.119961
v -0.280761 -0.170675 0.167399
v -0.282224 -0.172259 0.117608
v -0.283289 -0.172241 0.167969
v -0.223982 -0.170675 0.166407
v -0.284136 -0.172241 0.119478
v -0.224258 -0.172259 0.116596
v -0.281313 -0.172259 0.169772
v -0.223348 -0.172259 0.168761
v -0.222283 -0.172241 0.118399
v -0.285526 -0.182762 0.114907
v -0.221053 -0.182762 0.113782
v -0.287323 -0.182762 0.116652
v -0.286306 -0.182762 0.174936
v -0.221436 -0.172241 0.166890
v -0.219195 -0.182762 0.115463
v -0.284449 -0.182762 0.176617
v -0.219976 -0.182762 0.175492
v -0.218178 -0.182762 0.173747
vn 0.160873983636784 0.9467529037015067 -0.2788879716330509
vn -0.31467690599752596 0.9264097232564439 -0.20674493823971407
vn -0.160873983636784 0.9467529037015067 0.2788879716330509
vn -0.20457099698932865 0.6152729909450274 -0.7613079887958304
vn -0.7172817933149224 0.6666188079134848 0.20279594156425648
vn 0.31467806720501534 0.9264101978511311 0.20674104415317274
vn -0.7059692540893229 0.5952622142441361 -0.38375813812052706
vn 0.3550221647118615 0.579096268670618 -0.7338983404907463
vn -0.31213306679929265 0.6967131491029003 0.6458821382246052
vn 0.18161496741482708 0.7211618706098699 0.6685368800517923
vn 0.7377932208993813 0.6386181912058275 -0.21869606547881462
vn -0.4631117742460323 0.35455582716400397 -0.8122916040306838
vn 0.20810093339012745 0.311891900168253 -0.927047703266447
vn -0.9139467095144227 0.33747989273658907 -0.22540792835714435
vn -0.7392760405322887 0.5061470277505239 0.44416902435245575
vn 0.6612474331390317 0.6661954363801381 0.34487022590145266
vn 0.7859671995280166 0.36896109366558205 -0.4961081259435133
vn -0.18268408772555939 0.5745012758775897 0.7978563831335197
vn 0.40542198813816366 0.5819439829734833 0.7049639793741642
vn 0.8914979291843106 0.4064709677121833 0.20003198411055997
vn 0.160873983636784 -0.9467529037015067 -0.2788879716330509
vn 0.31467690599752596 -0.9264097232564439 0.20674493823971407
vn -0.160873983636784 -0.9467529037015067 0.2788879716330509
vn 0.20457099698932865 -0.6152729909450274 0.7613079887958304
vn 0.7172817933149224 -0.6666188079134848 -0.20279594156425648
vn -0.31467806720501534 -0.9264101978511311 -0.20674104415317274
vn 0.7059692540893229 -0.5952622142441361 0.38375813812052706
vn -0.3550221647118615 -0.579096268670618 0.7338983404907463
vn 0.31213306679929265 -0.6967131491029003 -0.6458821382246052
vn -0.18161496741482708 -0.7211618706098699 -0.6685368800517923
vn -0.7377932208993813 -0.6386181912058275 0.21869606547881462
vn 0.4631117742460323 -0.35455582716400397 0.8122916040306838
vn -0.20810093339012745 -0.311891900168253 0.927047703266447
vn 0.9139467095144227 -0.33747989273658907 0.22540792835714435
vn 0.7392760405322887 -0.5061470277505239 -0.44416902435245575
vn -0.6612474331390317 -0.6661954363801381 -0.34487022590145266
vn -0.7859671995280166 -0.36896109366558205 0.4961081259435133
vn 0.18268408772555939 -0.5745012758775897 -0.7978563831335197
vn -0.40542198813816366 -0.5819439829734833 -0.7049639793741642
vn -0.8914979291843106 -0.4064709677121833 -0.20003198411055997
usemtl material_0_0
f 1//1 2//2 3//3
f 4//4 2//2 1//1
f 2//2 5//5 3//3
f 1//1 3//3 6//6
f 4//4 7//7 2//2
f 8//8 4//4 1//1
f 7//7 5//5 2//2
f 3//3 5//5 9//9
f 6//6 3//3 10//10
f 11//11 1//1 6//6
f 12//12 7//7 4//4
f 4//4 8//8 13//13
f 8//8 1//1 11//11
f 7//7 14//14 5//5
f 15//15 9//9 5//5
f 3//3 9//9 10//10
f 6//6 10//10 16//16
f 11//11 6//6 16//16
f 14//14 7//7 12//12
f 12//12 4//4 13//13
f 8//8 17//17 13//13
f 8//8 11//11 17//17
f 5//5 14//14 15//15
f 15//15 18//18 9//9
f 18//18 10//10 9//9
f 10//10 19//19 16//16
f 16//16 20//20 11//11
f 11//11 20//20 17//17
f 18//18 19//19 10//10
f 16//16 19//19 20//20
usemtl material_1_0
f 3//21 2//22 1//23
f 1//23 2//22 4//24
f 3//21 5//25 2//22
f 6//26 3//21 1//23
f 2//22 7//27 4//24
f 1//23 4//24 8//28
f 2//22 5//25 7//27
f 9//29 5//25 3//21
f 10//30 3//21 6//26
f 6//26 1//23 11//31
f 4//24 7//27 12//32
f 13//33 8//28 4//24
f 11//31 1//23 8//28
f 5//25 14//34 7//27
f 5//25 9//29 15//35
f 10//30 9//29 3//21
f 16//36 10//30 6//26
f 16//36 6//26 11//31
f 12//32 7//27 14//34
f 13//33 4//24 12//32
f 13//33 17//37 8//28
f 17//37 11//31 8//28
f 15//35 14//34 5//25
f 9//29 18//38 15//35
f 9//29 10//30 18//38
f 16//36 19//39 10//30
f 11//31 20//40 16//36
f 17//37 20//40 11//31
f 10//30 19//39 18//38
f 20//40 19//39 16//36
