# SSTK version 0.8.0
# 59
mtllib original-59.mtl
o mesh58/mesh58-geometry#mesh58-geometry
v 0.187387 -0.170675 0.111774
v 0.130609 -0.170675 0.112766
v 0.131437 -0.170675 0.160204
v 0.129974 -0.172259 0.110413
v 0.128909 -0.172241 0.160774
v 0.188215 -0.170675 0.159212
v 0.128062 -0.172241 0.112283
v 0.187940 -0.172259 0.109401
v 0.130884 -0.172259 0.162577
v 0.188850 -0.172259 0.161565
v 0.189915 -0.172241 0.111204
v 0.126672 -0.182762 0.107712
v 0.191145 -0.182762 0.106587
v 0.124874 -0.182762 0.109457
v 0.125892 -0.182762 0.167741
v 0.190762 -0.172241 0.159695
v 0.193003 -0.182762 0.108268
v 0.127749 -0.182762 0.169422
v 0.192222 -0.182762 0.168297
v 0.194020 -0.182762 0.166552
vn 0.16087404621268514 0.9467522719640968 -0.278890080113976
vn -0.31467809849583367 0.9264092899707853 -0.2067450647122491
vn -0.16087495775601124 0.9467527513931742 0.27888792676710783
vn -0.20457192526487733 0.6152717752261875 -0.7613087218753226
vn -0.7172830061216519 0.66661900568926 0.20279100173071984
vn 0.3146751040394735 0.9264103062944582 0.20674506835509956
vn -0.7059649309499264 0.5952629417776321 -0.38376496246414277
vn 0.3550180378513152 0.5790940617418538 -0.7339020782471759
vn -0.312134170973724 0.6967133816297364 0.6458813537861298
vn 0.18160895115391823 0.7211588060349902 0.6685418201870106
vn 0.7377921198218766 0.6386181037154202 -0.21870003551820083
vn -0.4630998310128186 0.3545528706220857 -0.812299703588237
vn 0.2080999766961335 0.3118919650730921 -0.9270478961854742
vn -0.9139408839793248 0.33748695715755217 -0.22542097138382391
vn -0.7392748386950532 0.5061488895616143 0.444168903085243
vn 0.6612429172292537 0.6661959166092645 0.3448779568300769
vn 0.7859650653628224 0.3689590306835566 -0.4961130412580025
vn -0.18267892227725957 0.5744997555728115 0.7978586605423286
vn 0.4054160670296737 0.5819430962158607 0.7049681165562657
vn 0.8915007190658801 0.40646487191277747 0.20003193696494578
vn 0.16087495775601124 -0.9467527513931742 -0.27888792676710783
vn 0.31467809849583367 -0.9264092899707853 0.2067450647122491
vn -0.16087404621268514 -0.9467522719640968 0.278890080113976
vn 0.20457192526487733 -0.6152717752261875 0.7613087218753226
vn 0.7172830061216519 -0.66661900568926 -0.20279100173071984
vn -0.3146751040394735 -0.9264103062944582 -0.20674506835509956
vn 0.7059649309499264 -0.5952629417776321 0.38376496246414277
vn -0.3550180378513152 -0.5790940617418538 0.7339020782471759
vn 0.312134170973724 -0.6967133816297364 -0.6458813537861298
vn -0.18160895115391823 -0.7211588060349902 -0.6685418201870106
vn -0.7377921198218766 -0.6386181037154202 0.21870003551820083
vn 0.4630998310128186 -0.3545528706220857 0.812299703588237
vn -0.2080999766961335 -0.3118919650730921 0.9270478961854742
vn 0.9139408839793248 -0.33748695715755217 0.22542097138382391
vn 0.7392748386950532 -0.5061488895616143 -0.444168903085243
vn -0.6612429172292537 -0.6661959166092645 -0.3448779568300769
vn -0.7859650653628224 -0.3689590306835566 0.4961130412580025
vn 0.18267892227725957 -0.5744997555728115 -0.7978586605423286
vn -0.4054160670296737 -0.5819430962158607 -0.7049681165562657
vn -0.8915007190658801 -0.40646487191277747 -0.20003193696494578
usemtl material_0_0
f 1//1 2//2 3//3
f 4//4 2//2 1//1
f 2//2 5//5 3//3
f 1//1 3//3 6//6
f 4//4 7//7 2//2
f 8//8 4//4 1//1
f 7//7 5//5 2//2
f 3//3 5//5 9//9
f 6//6 3//3 10//10
f 11//11 1//1 6//6
f 12//12 7//7 4//4
f 4//4 8//8 13//13
f 8//8 1//1 11//11
f 7//7 14//14 5//5
f 15//15 9//9 5//5
f 3//3 9//9 10//10
f 6//6 10//10 16//16
f 11//11 6//6 16//16
f 14//14 7//7 12//12
f 12//12 4//4 13//13
f 8//8 17//17 13//13
f 8//8 11//11 17//17
f 5//5 14//14 15//15
f 15//15 18//18 9//9
f 18//18 10//10 9//9
f 10//10 19//19 16//16
f 16//16 20//20 11//11
f 11//11 20//20 17//17
f 18//18 19//19 10//10
f 16//16 19//19 20//20
usemtl material_1_0
f 3//21 2//22 1//23
f 1//23 2//22 4//24
f 3//21 5//25 2//22
f 6//26 3//21 1//23
f 2//22 7//27 4//24
f 1//23 4//24 8//28
f 2//22 5//25 7//27
f 9//29 5//25 3//21
f 10//30 3//21 6//26
f 6//26 1//23 11//31
f 4//24 7//27 12//32
f 13//33 8//28 4//24
f 11//31 1//23 8//28
f 5//25 14//34 7//27
f 5//25 9//29 15//35
f 10//30 9//29 3//21
f 16//36 10//30 6//26
f 16//36 6//26 11//31
f 12//32 7//27 14//34
f 13//33 4//24 12//32
f 13//33 17//37 8//28
f 17//37 11//31 8//28
f 15//35 14//34 5//25
f 9//29 18//38 15//35
f 9//29 10//30 18//38
f 16//36 19//39 10//30
f 11//31 20//40 16//36
f 17//37 20//40 11//31
f 10//30 19//39 18//38
f 20//40 19//39 16//36
