# SSTK version 0.8.0
# 4
mtllib original-4.mtl
o Group4/mesh11/mesh11-geometry#mesh11-geometry
v -0.028545 -0.121446 0.684558
v 0.041142 -0.121446 0.694495
v -0.028545 -0.121446 0.694495
v 0.041142 -0.121446 0.684730
v -0.029853 -0.121446 0.694495
v -0.031072 -0.121446 0.693990
v 0.039834 -0.121446 0.684558
v 0.042361 -0.121446 0.693990
v 0.039834 -0.121446 0.694667
v -0.032119 -0.121446 0.693187
v 0.043408 -0.121446 0.693187
v -0.028545 -0.121446 0.694667
v -0.032922 -0.121446 0.692140
v 0.044211 -0.121446 0.692140
v -0.033427 -0.121446 0.690921
v 0.044716 -0.121446 0.690921
v -0.033600 -0.121446 0.689613
v 0.044889 -0.121446 0.689613
v -0.033427 -0.121446 0.688304
v 0.044716 -0.121446 0.688304
v -0.032922 -0.121446 0.687085
v 0.044211 -0.121446 0.687085
v -0.032119 -0.121446 0.686038
v 0.043408 -0.121446 0.686038
v -0.031072 -0.121446 0.685235
v 0.042361 -0.121446 0.685235
v -0.029853 -0.121446 0.684730
vn 0 -1 0
vn 0 1 0
usemtl material_0_0
f 1//1 2//1 3//1
f 2//1 1//1 4//1
f 2//1 5//1 3//1
f 3//1 6//1 1//1
f 4//1 1//1 7//1
f 4//1 8//1 2//1
f 9//1 5//1 2//1
f 6//1 3//1 5//1
f 1//1 6//1 10//1
f 8//1 4//1 11//1
f 5//1 9//1 12//1
f 1//1 10//1 13//1
f 11//1 4//1 14//1
f 1//1 13//1 15//1
f 14//1 4//1 16//1
f 1//1 15//1 17//1
f 16//1 4//1 18//1
f 1//1 17//1 19//1
f 18//1 4//1 20//1
f 1//1 19//1 21//1
f 20//1 4//1 22//1
f 1//1 21//1 23//1
f 22//1 4//1 24//1
f 1//1 23//1 25//1
f 24//1 4//1 26//1
f 1//1 25//1 27//1
usemtl material_1_0
f 3//2 2//2 1//2
f 4//2 1//2 2//2
f 3//2 5//2 2//2
f 1//2 6//2 3//2
f 7//2 1//2 4//2
f 2//2 8//2 4//2
f 2//2 5//2 9//2
f 5//2 3//2 6//2
f 10//2 6//2 1//2
f 11//2 4//2 8//2
f 12//2 9//2 5//2
f 13//2 10//2 1//2
f 14//2 4//2 11//2
f 15//2 13//2 1//2
f 16//2 4//2 14//2
f 17//2 15//2 1//2
f 18//2 4//2 16//2
f 19//2 17//2 1//2
f 20//2 4//2 18//2
f 21//2 19//2 1//2
f 22//2 4//2 20//2
f 23//2 21//2 1//2
f 24//2 4//2 22//2
f 25//2 23//2 1//2
f 26//2 4//2 24//2
f 27//2 25//2 1//2
