# SSTK version 0.8.0
# 28
mtllib original-28.mtl
o #ID61
v 0.162234 -0.193706 -0.332701
v 0.168372 -0.191920 -0.335176
v 0.162171 -0.192902 -0.335176
v 0.168623 -0.192694 -0.332701
v 0.173667 -0.189222 -0.335176
v 0.174145 -0.189880 -0.332701
v 0.162234 -0.193706 -0.337651
v 0.168623 -0.192694 -0.337651
v 0.087041 -0.192902 -0.335176
v 0.086978 -0.193706 -0.332701
v 0.169282 -0.194721 -0.331172
v 0.162400 -0.195811 -0.331172
v 0.177869 -0.185020 -0.335176
v 0.178528 -0.185498 -0.332701
v 0.174145 -0.189880 -0.337651
v 0.175398 -0.191605 -0.331172
v 0.169282 -0.194721 -0.339181
v 0.162400 -0.195811 -0.339181
v 0.086978 -0.193706 -0.337651
v 0.080840 -0.191920 -0.335176
v 0.080588 -0.192694 -0.332701
v 0.086812 -0.195811 -0.331172
v 0.170096 -0.197227 -0.331172
v 0.086607 -0.198414 -0.331172
v 0.162604 -0.198414 -0.331172
v 0.079115 -0.197227 -0.331172
v 0.176947 -0.193736 -0.331172
v 0.182384 -0.188300 -0.331172
v 0.180252 -0.186751 -0.331172
v 0.185874 -0.181449 -0.331172
v 0.183369 -0.180635 -0.331172
v 0.187061 -0.173957 -0.331172
v 0.184459 -0.173752 -0.331172
v 0.187061 0.512834 -0.331172
v 0.184459 0.512834 -0.331172
v 0.187061 0.516839 -0.331172
v 0.184459 0.516839 -0.331172
v 0.072265 -0.193736 -0.331172
v 0.079930 -0.194721 -0.331172
v 0.073813 -0.191605 -0.331172
v 0.066828 -0.188300 -0.331172
v 0.068959 -0.186751 -0.331172
v 0.063337 -0.181449 -0.331172
v 0.065843 -0.180635 -0.331172
v 0.062151 -0.173957 -0.331172
v 0.064753 -0.173752 -0.331172
v 0.062151 0.512834 -0.331172
v 0.064753 0.512834 -0.331172
v 0.064753 0.516839 -0.331172
v 0.062151 0.516839 -0.331172
v 0.180567 -0.179724 -0.335176
v 0.181341 -0.179976 -0.332701
v 0.178528 -0.185498 -0.337651
v 0.175398 -0.191605 -0.339181
v 0.079115 -0.197227 -0.339181
v 0.162604 -0.198414 -0.339181
v 0.086607 -0.198414 -0.339181
v 0.170096 -0.197227 -0.339181
v 0.086812 -0.195811 -0.339181
v 0.072265 -0.193736 -0.339181
v 0.079930 -0.194721 -0.339181
v 0.073813 -0.191605 -0.339181
v 0.066828 -0.188300 -0.339181
v 0.068959 -0.186751 -0.339181
v 0.063337 -0.181449 -0.339181
v 0.065843 -0.180635 -0.339181
v 0.062151 -0.173957 -0.339181
v 0.064753 -0.173752 -0.339181
v 0.062151 0.512834 -0.339181
v 0.064753 0.512834 -0.339181
v 0.062151 0.516839 -0.339181
v 0.064753 0.516839 -0.339181
v 0.176947 -0.193736 -0.339181
v 0.182384 -0.188300 -0.339181
v 0.180252 -0.186751 -0.339181
v 0.185874 -0.181449 -0.339181
v 0.183369 -0.180635 -0.339181
v 0.187061 -0.173957 -0.339181
v 0.184459 -0.173752 -0.339181
v 0.187061 0.512834 -0.339181
v 0.184459 0.512834 -0.339181
v 0.184459 0.516839 -0.339181
v 0.187061 0.516839 -0.339181
v 0.080588 -0.192694 -0.337651
v 0.075545 -0.189222 -0.335176
v 0.075066 -0.189880 -0.332701
v 0.189166 0.514364 -0.332701
v 0.189166 -0.174123 -0.332701
v 0.189166 0.516839 -0.332701
v 0.182353 0.516839 -0.332701
v 0.182353 0.516839 -0.337651
v 0.181549 0.516839 -0.335176
v 0.184459 0.516839 -0.331172
v 0.184459 0.516839 -0.339181
v 0.187061 0.516839 -0.331172
v 0.187061 0.516839 -0.339181
v 0.189166 0.516839 -0.332701
v 0.189166 0.516839 -0.337651
v 0.189970 0.516839 -0.335176
v 0.182353 -0.173587 -0.332701
v 0.182353 0.514364 -0.332701
v 0.182353 0.516839 -0.332701
v 0.070684 -0.185498 -0.332701
v 0.067870 -0.179976 -0.332701
v 0.066858 -0.173587 -0.332701
v 0.066858 0.514364 -0.332701
v 0.066858 0.516839 -0.332701
v 0.060045 0.516839 -0.332701
v 0.060045 0.516839 -0.337651
v 0.059241 0.516839 -0.335176
v 0.062151 0.516839 -0.331172
v 0.062151 0.516839 -0.339181
v 0.064753 0.516839 -0.331172
v 0.064753 0.516839 -0.339181
v 0.066858 0.516839 -0.332701
v 0.066858 0.516839 -0.337651
v 0.067662 0.516839 -0.335176
v 0.060045 0.514364 -0.332701
v 0.060045 -0.174123 -0.332701
v 0.060045 0.516839 -0.332701
v 0.061310 -0.182108 -0.332701
v 0.065103 -0.189553 -0.332701
v 0.071012 -0.195461 -0.332701
v 0.078457 -0.199254 -0.332701
v 0.086441 -0.200519 -0.332701
v 0.162770 -0.200519 -0.332701
v 0.170755 -0.199254 -0.332701
v 0.178200 -0.195461 -0.332701
v 0.184108 -0.189553 -0.332701
v 0.187902 -0.182108 -0.332701
v 0.181549 -0.173523 -0.335176
v 0.181341 -0.179976 -0.337651
v 0.060045 0.514364 -0.337651
v 0.060045 -0.174123 -0.337651
v 0.060045 0.516839 -0.337651
v 0.066858 -0.173587 -0.337651
v 0.066858 0.514364 -0.337651
v 0.066858 0.516839 -0.337651
v 0.067870 -0.179976 -0.337651
v 0.070684 -0.185498 -0.337651
v 0.075066 -0.189880 -0.337651
v 0.182353 -0.173587 -0.337651
v 0.182353 0.514364 -0.337651
v 0.182353 0.516839 -0.337651
v 0.189166 0.514364 -0.337651
v 0.189166 -0.174123 -0.337651
v 0.189166 0.516839 -0.337651
v 0.187902 -0.182108 -0.337651
v 0.184108 -0.189553 -0.337651
v 0.178200 -0.195461 -0.337651
v 0.170755 -0.199254 -0.337651
v 0.162770 -0.200519 -0.337651
v 0.086441 -0.200519 -0.337651
v 0.078457 -0.199254 -0.337651
v 0.071012 -0.195461 -0.337651
v 0.065103 -0.189553 -0.337651
v 0.061310 -0.182108 -0.337651
v 0.071343 -0.185020 -0.335176
v 0.189970 -0.174186 -0.335176
v 0.189970 0.516839 -0.335176
v 0.181549 0.516839 -0.335176
v 0.068645 -0.179724 -0.335176
v 0.067662 -0.173523 -0.335176
v 0.067662 0.516839 -0.335176
v 0.059241 0.516839 -0.335176
v 0.059241 -0.174186 -0.335176
v 0.060536 -0.182359 -0.335176
v 0.064445 -0.190031 -0.335176
v 0.070533 -0.196120 -0.335176
v 0.078205 -0.200029 -0.335176
v 0.086378 -0.201323 -0.335176
v 0.162833 -0.201323 -0.335176
v 0.171006 -0.200029 -0.335176
v 0.178678 -0.196120 -0.335176
v 0.184767 -0.190031 -0.335176
v 0.188676 -0.182359 -0.335176
vn -0.0629890881331317 0.8003522762791883 0.5962118823294942
vn -0.3090170042518809 0.9510565130859434 0
vn -0.07845910261221348 0.9969173331913164 0
vn -0.24561469622027227 0.7559243883671929 0.6068374906614692
vn -0.5877852808425821 0.8090169736320784 0
vn -0.46718698426922123 0.6430276783484417 0.606837479567012
vn -0.0629890881331317 0.8003522762791885 -0.5962118823294937
vn -0.24561469622027232 0.7559243883671933 -0.6068374906614689
vn 0.07845910261221348 0.9969173331913164 0
vn 0.0629890881331317 0.8003522762791883 0.5962118823294942
vn -0.08590056251613086 0.2643748077438561 0.9605868281367443
vn -0.023085890917357927 0.2933340116561356 0.9557312379776388
vn -0.8090169736320784 0.5877852808425821 0
vn -0.6430276783484418 0.4671869842692211 0.606837479567012
vn -0.46718698426922123 0.6430276783484419 -0.6068374795670117
vn -0.16339260620586696 0.22489060854164208 0.9605868364843566
vn -0.08590056251613087 0.2643748077438566 -0.9605868281367443
vn -0.023085890917357927 0.29333401165613604 -0.9557312379776386
vn 0.0629890881331317 0.8003522762791885 -0.5962118823294937
vn 0.3090170042518809 0.9510565130859434 0
vn 0.24561469622027227 0.7559243883671929 0.6068374906614692
vn 0.023085890917357927 0.2933340116561356 0.9557312379776388
vn 0.10303700102633714 -0.31711520315874037 0.9427732093908319
vn -0.025274511316824316 -0.32114311673183965 0.9466933493235578
vn 0.025274511316824316 -0.32114311673183965 0.9466933493235578
vn -0.10303700102633714 -0.31711520315874037 0.9427732093908319
vn 0.1959880014551394 -0.26975430200282746 0.9427732069997469
vn 0.26975430200282724 -0.19598800145513962 0.942773206999747
vn -0.2248906085416423 0.16339260620586674 0.9605868364843566
vn 0.31711520315874014 -0.10303700102633735 0.942773209390832
vn -0.26437480774385635 0.08590056251613067 0.9605868281367445
vn 0.32114311673183943 -0.025274511316824528 0.9466933493235579
vn -0.2933340116561358 0.023085890917357715 0.9557312379776387
vn 0.3090170042518809 0 0.9510565130859434
vn -0.3090170042518809 0 0.9510565130859434
vn -0.1959880014551394 -0.26975430200282746 0.9427732069997469
vn 0.08590056251613086 0.2643748077438561 0.9605868281367443
vn 0.16339260620586696 0.22489060854164208 0.9605868364843566
vn -0.26975430200282724 -0.19598800145513962 0.942773206999747
vn 0.2248906085416423 0.16339260620586674 0.9605868364843566
vn -0.31711520315874014 -0.10303700102633735 0.942773209390832
vn 0.26437480774385635 0.08590056251613067 0.9605868281367445
vn -0.32114311673183943 -0.025274511316824528 0.9466933493235579
vn 0.2933340116561358 0.023085890917357715 0.9557312379776387
vn -0.9510565130859434 0.3090170042518809 0
vn -0.7559243883671932 0.24561469622027218 0.6068374906614691
vn -0.6430276783484418 0.46718698426922134 -0.6068374795670117
vn -0.16339260620586696 0.22489060854164253 -0.9605868364843566
vn -0.10303700102633714 -0.3171152031587399 -0.9427732093908321
vn 0.025274511316824316 -0.3211431167318392 -0.946693349323558
vn -0.025274511316824316 -0.3211431167318392 -0.946693349323558
vn 0.10303700102633714 -0.3171152031587399 -0.9427732093908321
vn 0.023085890917357927 0.29333401165613604 -0.9557312379776386
vn -0.1959880014551394 -0.269754302002827 -0.9427732069997471
vn 0.08590056251613087 0.2643748077438566 -0.9605868281367443
vn 0.16339260620586696 0.22489060854164253 -0.9605868364843566
vn -0.26975430200282724 -0.19598800145513917 -0.942773206999747
vn 0.2248906085416423 0.16339260620586718 -0.9605868364843566
vn -0.31711520315874014 -0.10303700102633694 -0.942773209390832
vn 0.26437480774385635 0.08590056251613108 -0.9605868281367445
vn -0.32114311673183943 -0.025274511316824105 -0.9466933493235579
vn 0.2933340116561358 0.02308589091735814 -0.9557312379776387
vn -0.3090170042518809 0 -0.9510565130859434
vn 0.3090170042518809 0 -0.9510565130859434
vn 0.1959880014551394 -0.269754302002827 -0.9427732069997471
vn 0.26975430200282724 -0.19598800145513917 -0.942773206999747
vn -0.2248906085416423 0.16339260620586718 -0.9605868364843566
vn 0.31711520315874014 -0.10303700102633694 -0.942773209390832
vn -0.26437480774385635 0.08590056251613108 -0.9605868281367445
vn 0.32114311673183943 -0.025274511316824105 -0.9466933493235579
vn -0.2933340116561358 0.02308589091735814 -0.9557312379776387
vn 0.24561469622027232 0.7559243883671933 -0.6068374906614689
vn 0.5877852808425821 0.8090169736320784 0
vn 0.46718698426922123 0.6430276783484417 0.606837479567012
vn 0.8090169736320784 0 0.5877852808425821
vn 0.8110377989499317 -0.06383005991735795 0.581500999247118
vn 0 1 0
vn -0.8003522762791884 0.06298908813313156 0.596211882329494
vn -0.8090169736320784 0 0.5877852808425821
vn 0.6430276783484418 0.4671869842692211 0.606837479567012
vn 0.7559243883671932 0.24561469622027218 0.6068374906614691
vn 0.8003522762791884 0.06298908813313156 0.596211882329494
vn -0.8110377989499317 -0.06383005991735795 0.581500999247118
vn -0.7765551246401023 -0.2523181080060563 0.5773194183183511
vn -0.6605772228947977 -0.47993751663404677 0.5773194200091841
vn -0.47993751663404666 -0.6605772228947978 0.5773194200091841
vn -0.2523181080060562 -0.7765551246401025 0.577319418318351
vn -0.06383005991735782 -0.8110377989499318 0.5815009992471177
vn 0.06383005991735782 -0.8110377989499318 0.5815009992471177
vn 0.2523181080060562 -0.7765551246401025 0.577319418318351
vn 0.47993751663404666 -0.6605772228947978 0.5773194200091841
vn 0.6605772228947977 -0.47993751663404677 0.5773194200091841
vn 0.7765551246401023 -0.2523181080060563 0.5773194183183511
vn -0.9969173331913164 0.07845910261221348 0
vn -0.755924388367193 0.2456146962202724 -0.606837490661469
vn -0.8090169736320784 0 -0.5877852808425821
vn -0.8110377989499317 -0.0638300599173577 -0.581500999247118
vn 0.8003522762791884 0.06298908813313184 -0.596211882329494
vn 0.8090169736320784 0 -0.5877852808425821
vn 0.755924388367193 0.2456146962202724 -0.606837490661469
vn 0.6430276783484418 0.46718698426922134 -0.6068374795670117
vn 0.46718698426922123 0.6430276783484419 -0.6068374795670117
vn -0.8003522762791884 0.06298908813313184 -0.596211882329494
vn 0.8110377989499317 -0.0638300599173577 -0.581500999247118
vn 0.7765551246401023 -0.2523181080060561 -0.5773194183183513
vn 0.6605772228947977 -0.47993751663404655 -0.5773194200091843
vn 0.47993751663404666 -0.6605772228947976 -0.5773194200091843
vn 0.2523181080060562 -0.7765551246401022 -0.5773194183183514
vn 0.06383005991735782 -0.8110377989499316 -0.5815009992471182
vn -0.06383005991735782 -0.8110377989499316 -0.5815009992471182
vn -0.2523181080060562 -0.7765551246401022 -0.5773194183183514
vn -0.47993751663404666 -0.6605772228947976 -0.5773194200091843
vn -0.6605772228947977 -0.47993751663404655 -0.5773194200091843
vn -0.7765551246401023 -0.2523181080060561 -0.5773194183183513
vn 0.8090169736320784 0.5877852808425821 0
vn 0.9969173331913164 -0.07845910261221348 0
vn 1 0 0
vn -1 0 0
vn 0.9510565130859434 0.3090170042518809 0
vn 0.9969173331913164 0.07845910261221348 0
vn -0.9969173331913164 -0.07845910261221348 0
vn -0.9510565130859434 -0.3090170042518809 0
vn -0.8090169736320784 -0.5877852808425821 0
vn -0.5877852808425821 -0.8090169736320784 0
vn -0.3090170042518809 -0.9510565130859434 0
vn -0.07845910261221348 -0.9969173331913164 0
vn 0.07845910261221348 -0.9969173331913164 0
vn 0.3090170042518809 -0.9510565130859434 0
vn 0.5877852808425821 -0.8090169736320784 0
vn 0.8090169736320784 -0.5877852808425821 0
vn 0.9510565130859434 -0.3090170042518809 0
usemtl material_0_0
f 1//1 2//2 3//3
f 2//2 1//1 4//4
f 4//4 5//5 2//2
f 5//5 4//4 6//6
f 2//2 7//7 3//3
f 7//7 2//2 8//8
f 1//1 9//9 10//10
f 9//9 1//1 3//3
f 11//11 1//1 12//12
f 1//1 11//11 4//4
f 13//13 6//6 14//14
f 6//6 13//13 5//5
f 5//5 8//8 2//2
f 8//8 5//5 15//15
f 16//16 4//4 11//11
f 4//4 16//16 6//6
f 7//7 17//17 18//18
f 17//17 7//7 8//8
f 9//9 7//7 19//19
f 7//7 9//9 3//3
f 10//10 20//20 21//21
f 20//20 10//10 9//9
f 1//1 22//22 12//12
f 22//22 1//1 10//10
f 23//23 24//24 25//25
f 24//24 23//23 26//26
f 26//26 23//23 12//12
f 12//12 23//23 27//27
f 12//12 27//27 11//11
f 11//11 27//27 16//16
f 16//16 27//27 28//28
f 16//16 28//28 29//29
f 29//29 28//28 30//30
f 29//29 30//30 31//31
f 31//31 30//30 32//32
f 31//31 32//32 33//33
f 33//33 32//32 34//34
f 33//33 34//34 35//35
f 35//35 34//34 36//34
f 35//35 36//34 37//35
f 26//26 22//22 38//36
f 22//22 26//26 12//12
f 38//36 22//22 39//37
f 38//36 39//37 40//38
f 38//36 40//38 41//39
f 41//39 40//38 42//40
f 41//39 42//40 43//41
f 43//41 42//40 44//42
f 43//41 44//42 45//43
f 45//43 44//42 46//44
f 45//43 46//44 47//35
f 47//35 46//44 48//34
f 47//35 48//34 49//34
f 47//35 49//34 50//35
f 51//45 14//14 52//46
f 14//14 51//45 13//13
f 53//47 5//5 13//13
f 5//5 53//47 15//15
f 29//29 6//6 16//16
f 6//6 29//29 14//14
f 8//8 54//48 17//17
f 54//48 8//8 15//15
f 55//49 56//50 57//51
f 56//50 55//49 58//52
f 58//52 55//49 59//53
f 59//53 55//49 60//54
f 59//53 60//54 61//55
f 61//55 60//54 62//56
f 62//56 60//54 63//57
f 62//56 63//57 64//58
f 64//58 63//57 65//59
f 64//58 65//59 66//60
f 66//60 65//59 67//61
f 66//60 67//61 68//62
f 68//62 67//61 69//63
f 68//62 69//63 70//64
f 70//64 69//63 71//63
f 70//64 71//63 72//64
f 58//52 18//18 73//65
f 18//18 58//52 59//53
f 73//65 18//18 17//17
f 73//65 17//17 54//48
f 73//65 54//48 74//66
f 74//66 54//48 75//67
f 74//66 75//67 76//68
f 76//68 75//67 77//69
f 76//68 77//69 78//70
f 78//70 77//69 79//71
f 78//70 79//71 80//64
f 80//64 79//71 81//63
f 80//64 81//63 82//63
f 80//64 82//63 83//64
f 19//19 18//18 59//53
f 18//18 19//19 7//7
f 20//20 19//19 84//72
f 19//19 20//20 9//9
f 21//21 85//73 86//74
f 85//73 21//21 20//20
f 10//10 39//37 22//22
f 39//37 10//10 21//21
f 87//75 32//32 88//76
f 32//32 87//75 34//34
f 34//34 87//75 36//34
f 36//34 87//75 89//75
f 90//77 91//77 92//77
f 91//77 90//77 93//77
f 91//77 93//77 94//77
f 94//77 93//77 95//77
f 94//77 95//77 96//77
f 96//77 95//77 97//77
f 96//77 97//77 98//77
f 98//77 97//77 99//77
f 35//35 100//78 33//33
f 100//78 35//35 101//79
f 101//79 35//35 37//35
f 101//79 37//35 102//79
f 33//33 52//46 31//31
f 52//46 33//33 100//78
f 31//31 14//14 29//29
f 14//14 31//31 52//46
f 21//21 40//38 39//37
f 40//38 21//21 86//74
f 86//74 42//40 40//38
f 42//40 86//74 103//80
f 103//80 44//42 42//40
f 44//42 103//80 104//81
f 104//81 46//44 44//42
f 46//44 104//81 105//82
f 105//82 48//34 46//44
f 48//34 105//82 106//75
f 48//34 106//75 49//34
f 49//34 106//75 107//75
f 108//77 109//77 110//77
f 109//77 108//77 111//77
f 109//77 111//77 112//77
f 112//77 111//77 113//77
f 112//77 113//77 114//77
f 114//77 113//77 115//77
f 114//77 115//77 116//77
f 116//77 115//77 117//77
f 45//43 118//79 119//83
f 118//79 45//43 47//35
f 118//79 47//35 50//35
f 118//79 50//35 120//79
f 43//41 119//83 121//84
f 119//83 43//41 45//43
f 41//39 121//84 122//85
f 121//84 41//39 43//41
f 38//36 122//85 123//86
f 122//85 38//36 41//39
f 26//26 123//86 124//87
f 123//86 26//26 38//36
f 24//24 124//87 125//88
f 124//87 24//24 26//26
f 25//25 125//88 126//89
f 125//88 25//25 24//24
f 127//90 25//25 126//89
f 25//25 127//90 23//23
f 128//91 23//23 127//90
f 23//23 128//91 27//27
f 129//92 27//27 128//91
f 27//27 129//92 28//28
f 130//93 28//28 129//92
f 28//28 130//93 30//30
f 88//76 30//30 130//93
f 30//30 88//76 32//32
f 131//94 52//46 100//78
f 52//46 131//94 51//45
f 132//95 13//13 51//45
f 13//13 132//95 53//47
f 15//15 75//67 54//48
f 75//67 15//15 53//47
f 133//96 67//61 134//97
f 67//61 133//96 69//63
f 69//63 133//96 71//63
f 71//63 133//96 135//96
f 70//64 136//98 68//62
f 136//98 70//64 137//99
f 137//99 70//64 72//64
f 137//99 72//64 138//99
f 68//62 139//100 66//60
f 139//100 68//62 136//98
f 66//60 140//101 64//58
f 140//101 66//60 139//100
f 64//58 141//102 62//56
f 141//102 64//58 140//101
f 62//56 84//72 61//55
f 84//72 62//56 141//102
f 61//55 19//19 59//53
f 19//19 61//55 84//72
f 53//47 77//69 75//67
f 77//69 53//47 132//95
f 132//95 79//71 77//69
f 79//71 132//95 142//103
f 142//103 81//63 79//71
f 81//63 142//103 143//96
f 81//63 143//96 82//63
f 82//63 143//96 144//96
f 78//70 145//99 146//104
f 145//99 78//70 80//64
f 145//99 80//64 83//64
f 145//99 83//64 147//99
f 76//68 146//104 148//105
f 146//104 76//68 78//70
f 74//66 148//105 149//106
f 148//105 74//66 76//68
f 73//65 149//106 150//107
f 149//106 73//65 74//66
f 58//52 150//107 151//108
f 150//107 58//52 73//65
f 56//50 151//108 152//109
f 151//108 56//50 58//52
f 57//51 152//109 153//110
f 152//109 57//51 56//50
f 154//111 57//51 153//110
f 57//51 154//111 55//49
f 155//112 55//49 154//111
f 55//49 155//112 60//54
f 156//113 60//54 155//112
f 60//54 156//113 63//57
f 157//114 63//57 156//113
f 63//57 157//114 65//59
f 134//97 65//59 157//114
f 65//59 134//97 67//61
f 85//73 84//72 141//102
f 84//72 85//73 20//20
f 85//73 103//80 86//74
f 103//80 85//73 158//115
f 88//76 89//75 87//75
f 89//75 88//76 159//116
f 89//75 159//116 160//117
f 146//104 145//99 159//116
f 159//116 147//99 160//117
f 147//99 159//116 145//99
f 144//96 131//94 161//118
f 131//94 144//96 142//103
f 142//103 144//96 143//96
f 161//118 101//79 102//79
f 101//79 161//118 100//78
f 100//78 161//118 131//94
f 158//115 104//81 103//80
f 104//81 158//115 162//119
f 162//119 105//82 104//81
f 105//82 162//119 163//120
f 163//120 106//75 105//82
f 106//75 164//117 107//75
f 164//117 106//75 163//120
f 136//98 164//117 163//120
f 164//117 136//98 138//99
f 138//99 136//98 137//99
f 165//118 134//97 166//121
f 134//97 165//118 135//96
f 134//97 135//96 133//96
f 165//118 118//79 120//79
f 118//79 165//118 119//83
f 119//83 165//118 166//121
f 166//121 121//84 119//83
f 121//84 166//121 167//122
f 167//122 122//85 121//84
f 122//85 167//122 168//123
f 168//123 123//86 122//85
f 123//86 168//123 169//124
f 170//125 123//86 169//124
f 123//86 170//125 124//87
f 171//126 124//87 170//125
f 124//87 171//126 125//88
f 172//127 125//88 171//126
f 125//88 172//127 126//89
f 172//127 127//90 126//89
f 127//90 172//127 173//128
f 173//128 128//91 127//90
f 128//91 173//128 174//129
f 174//129 129//92 128//91
f 129//92 174//129 175//130
f 175//130 130//93 129//92
f 130//93 175//130 176//131
f 176//131 88//76 130//93
f 88//76 176//131 159//116
f 142//103 51//45 131//94
f 51//45 142//103 132//95
f 139//100 163//120 162//119
f 163//120 139//100 136//98
f 140//101 162//119 158//115
f 162//119 140//101 139//100
f 141//102 158//115 85//73
f 158//115 141//102 140//101
f 148//105 159//116 176//131
f 159//116 148//105 146//104
f 149//106 176//131 175//130
f 176//131 149//106 148//105
f 150//107 175//130 174//129
f 175//130 150//107 149//106
f 150//107 173//128 151//108
f 173//128 150//107 174//129
f 151//108 172//127 152//109
f 172//127 151//108 173//128
f 153//110 172//127 171//126
f 172//127 153//110 152//109
f 154//111 171//126 170//125
f 171//126 154//111 153//110
f 155//112 170//125 169//124
f 170//125 155//112 154//111
f 156//113 169//124 168//123
f 169//124 156//113 155//112
f 157//114 168//123 167//122
f 168//123 157//114 156//113
f 134//97 167//122 166//121
f 167//122 134//97 157//114
