# SSTK version 0.8.0
# 141
mtllib original-141.mtl
o mesh27/mesh27-geometry#mesh27-geometry
v -0.117525 -0.172549 -0.199248
v -0.114699 -0.175571 -0.198369
v -0.117525 -0.194394 -0.192901
v -0.113400 -0.172549 -0.199248
v -0.114699 -0.194394 -0.192901
v -0.117525 -0.192967 -0.187988
v -0.117525 -0.171122 -0.194335
v -0.108420 -0.188379 -0.194649
v -0.114699 -0.192967 -0.187988
v -0.113400 -0.171122 -0.194335
v -0.107335 -0.184711 -0.195714
v -0.108420 -0.186951 -0.189736
v -0.114699 -0.174144 -0.193457
v -0.107335 -0.183284 -0.190801
v -0.106617 -0.188379 -0.194649
v -0.106617 -0.186951 -0.189736
v -0.101468 -0.172549 -0.199248
v -0.101468 -0.171122 -0.194335
v -0.100292 -0.175571 -0.198369
v -0.097267 -0.172549 -0.199248
v -0.100292 -0.174144 -0.193457
v -0.097267 -0.171122 -0.194335
v -0.100292 -0.194394 -0.192901
v -0.100292 -0.192967 -0.187988
v -0.097267 -0.192967 -0.187988
v -0.097267 -0.194394 -0.192901
vn 0 -0.2789910997964245 -0.9602936874906456
vn 0 0.2789910997964245 0.9602936874906456
vn -1 0 0
vn 1 0 0
vn 0 0.9602936874906456 -0.2789910997964245
vn 0 -0.9602936874906456 0.2789910997964245
vn -0.904748089700836 -0.4090342687073516 0.11883543749963668
vn 0.904748089700836 0.4090342687073516 -0.11883543749963668
vn 0.9019132858264376 0.4147673130926483 -0.12050104082398555
vn -0.9019132858264376 -0.4147673130926483 0.12050104082398555
vn -0.9073819640354266 0.4036181555886406 -0.11726191121773478
vn 0.9073819640354266 -0.4036181555886406 0.11726191121773478
vn 0.9035479507533561 -0.4114733517698871 0.1195440566179085
vn -0.9035479507533561 0.4114733517698871 -0.1195440566179085
usemtl material_0_0
f 1//1 2//1 3//1
f 2//1 1//1 4//1
f 3//2 2//2 1//2
f 4//2 1//2 2//2
f 5//1 3//1 2//1
f 2//2 3//2 5//2
f 6//3 1//3 3//3
f 3//4 1//4 6//4
f 7//5 4//5 1//5
f 1//6 4//6 7//6
f 2//1 4//1 8//1
f 8//2 4//2 2//2
f 9//6 3//6 5//6
f 5//5 3//5 9//5
f 2//4 9//4 5//4
f 5//3 9//3 2//3
f 1//3 6//3 7//3
f 7//4 6//4 1//4
f 3//6 9//6 6//6
f 6//5 9//5 3//5
f 4//5 7//5 10//5
f 10//6 7//6 4//6
f 8//1 4//1 11//1
f 11//2 4//2 8//2
f 12//7 2//7 8//7
f 8//8 2//8 12//8
f 9//4 2//4 13//4
f 13//3 2//3 9//3
f 9//2 7//2 6//2
f 6//1 7//1 9//1
f 7//2 13//2 10//2
f 10//1 13//1 7//1
f 14//9 4//9 10//9
f 10//10 4//10 14//10
f 4//9 14//9 11//9
f 11//10 14//10 4//10
f 8//1 11//1 15//1
f 15//2 11//2 8//2
f 2//7 12//7 13//7
f 13//8 12//8 2//8
f 8//6 16//6 12//6
f 12//5 16//5 8//5
f 7//2 9//2 13//2
f 13//1 9//1 7//1
f 10//2 13//2 12//2
f 12//1 13//1 10//1
f 10//2 12//2 14//2
f 14//1 12//1 10//1
f 14//11 17//11 11//11
f 11//12 17//12 14//12
f 15//1 11//1 17//1
f 17//2 11//2 15//2
f 16//6 8//6 15//6
f 15//5 8//5 16//5
f 14//2 12//2 16//2
f 16//1 12//1 14//1
f 17//11 14//11 18//11
f 18//12 14//12 17//12
f 15//1 17//1 19//1
f 19//2 17//2 15//2
f 19//13 16//13 15//13
f 15//14 16//14 19//14
f 14//2 16//2 18//2
f 18//1 16//1 14//1
f 18//5 20//5 17//5
f 17//6 20//6 18//6
f 19//1 17//1 20//1
f 20//2 17//2 19//2
f 16//13 19//13 21//13
f 21//14 19//14 16//14
f 18//2 16//2 21//2
f 21//1 16//1 18//1
f 20//5 18//5 22//5
f 22//6 18//6 20//6
f 19//1 20//1 23//1
f 23//2 20//2 19//2
f 19//3 24//3 21//3
f 21//4 24//4 19//4
f 18//2 21//2 22//2
f 22//1 21//1 18//1
f 25//4 20//4 22//4
f 22//3 20//3 25//3
f 23//1 20//1 26//1
f 26//2 20//2 23//2
f 24//3 19//3 23//3
f 23//4 19//4 24//4
f 25//2 21//2 24//2
f 24//1 21//1 25//1
f 22//2 21//2 25//2
f 25//1 21//1 22//1
f 20//4 25//4 26//4
f 26//3 25//3 20//3
f 25//6 23//6 26//6
f 26//5 23//5 25//5
f 23//6 25//6 24//6
f 24//5 25//5 23//5
