# SSTK version 0.8.0
# 103
mtllib original-103.mtl
o mesh60/mesh60-geometry#mesh60-geometry
v 0.270073 -0.234849 0.641671
v 0.268663 -0.234849 0.637913
v 0.268663 -0.234849 0.640648
v 0.269961 -0.234849 0.638794
v 0.268663 -0.234849 0.624240
v 0.268663 -0.235587 0.640648
v 0.271363 -0.234849 0.639497
v 0.269961 -0.235587 0.638794
v 0.268663 -0.234849 0.650271
v 0.268663 -0.234849 0.626836
v 0.270073 -0.235587 0.641671
v 0.271571 -0.234849 0.642491
v 0.271363 -0.235587 0.639497
v 0.268663 -0.235587 0.637913
v 0.268455 -0.234849 0.623340
v 0.268663 -0.235587 0.626836
v 0.271043 -0.234849 0.625971
v 0.268663 -0.235587 0.650271
v 0.272808 -0.234849 0.639958
v 0.272808 -0.235587 0.639958
v 0.265409 -0.234849 0.623340
v 0.268455 -0.235587 0.623340
v 0.271086 -0.234849 0.623193
v 0.271571 -0.235587 0.642491
v 0.265409 -0.235587 0.650271
v 0.273206 -0.234849 0.643030
v 0.265409 -0.234849 0.650271
v 0.268663 -0.235587 0.624240
v 0.271043 -0.235587 0.625971
v 0.273301 -0.234849 0.625729
v 0.271086 -0.235587 0.623193
v 0.273206 -0.235587 0.643030
v 0.274236 -0.234849 0.640111
v 0.274236 -0.235587 0.640111
v 0.265409 -0.235587 0.623340
v 0.273301 -0.235587 0.625729
v 0.272419 -0.234849 0.622901
v 0.275032 -0.235587 0.643209
v 0.275032 -0.234849 0.643209
v 0.274578 -0.234849 0.625839
v 0.273959 -0.234849 0.622804
v 0.272419 -0.235587 0.622901
v 0.275420 -0.234849 0.639999
v 0.274578 -0.235587 0.625839
v 0.276655 -0.234849 0.643045
v 0.275420 -0.235587 0.639999
v 0.273959 -0.235587 0.622804
v 0.275709 -0.234849 0.626172
v 0.275651 -0.234849 0.622975
v 0.276655 -0.235587 0.643045
v 0.276430 -0.234849 0.639664
v 0.276430 -0.235587 0.639664
v 0.275651 -0.235587 0.622975
v 0.275709 -0.235587 0.626172
v 0.278098 -0.234849 0.642552
v 0.277264 -0.234849 0.639104
v 0.276694 -0.234849 0.626727
v 0.277196 -0.234849 0.623487
v 0.277196 -0.235587 0.623487
v 0.278098 -0.235587 0.642552
v 0.277264 -0.235587 0.639104
v 0.276694 -0.235587 0.626727
v 0.279360 -0.234849 0.641730
v 0.277923 -0.234849 0.638320
v 0.277533 -0.234849 0.627503
v 0.278606 -0.235587 0.624342
v 0.277923 -0.235587 0.638320
v 0.279360 -0.235587 0.641730
v 0.278422 -0.234849 0.637320
v 0.277533 -0.235587 0.627503
v 0.278606 -0.234849 0.624342
v 0.278422 -0.235587 0.637320
v 0.280441 -0.235587 0.640579
v 0.278779 -0.234849 0.636111
v 0.278203 -0.235587 0.628516
v 0.278203 -0.234849 0.628516
v 0.279896 -0.235587 0.625538
v 0.278779 -0.235587 0.636111
v 0.280441 -0.234849 0.640579
v 0.279065 -0.234849 0.633067
v 0.278682 -0.234849 0.629781
v 0.279896 -0.234849 0.625538
v 0.278682 -0.235587 0.629781
v 0.279065 -0.235587 0.633067
v 0.281308 -0.235587 0.639128
v 0.280936 -0.235587 0.627009
v 0.280936 -0.234849 0.627009
v 0.278969 -0.235587 0.631298
v 0.281308 -0.234849 0.639128
v 0.278969 -0.234849 0.631298
v 0.281927 -0.235587 0.637407
v 0.281739 -0.235587 0.628792
v 0.281739 -0.234849 0.628792
v 0.281927 -0.234849 0.637407
v 0.282299 -0.235587 0.635416
v 0.282252 -0.235587 0.630852
v 0.282252 -0.234849 0.630852
v 0.282299 -0.234849 0.635416
v 0.282423 -0.235587 0.633154
v 0.282423 -0.234849 0.633154
vn 0 1 0
vn 0 -1 0
vn -0.5872120838442024 0 0.8094331155737015
vn -0.5348568171597633 0 0.8449427111572285
vn 0.5872120838442024 0 -0.8094331155737015
vn 0.5348568171597633 0 -0.8449427111572285
vn 0.505929054724831 0 -0.8625750933021652
vn 0.5613663016095641 0 -0.8275674446334871
vn -0.505929054724831 0 0.8625750933021652
vn -0.5613663016095641 0 0.8275674446334871
vn 1 0 0
vn -1 0 0
vn 0.37720492664779415 0 -0.9261298199024974
vn -0.37720492664779415 0 0.9261298199024974
vn -0.39826105055824795 0 0.9172721164454094
vn 0.39826105055824795 0 -0.9172721164454094
vn 0.20642201192572246 0 -0.978463056529237
vn -0.20642201192572246 0 0.978463056529237
vn 0.9743910777169482 0 -0.22486001793472332
vn -0.9743910777169482 0 0.22486001793472332
vn 0.34174314337870765 0 0.939793394291341
vn 0.22585498476088714 0 0.9741609342704416
vn -0.34174314337870765 0 -0.939793394291341
vn -0.22585498476088714 0 -0.9741609342704416
vn 0 0 1
vn 0 0 -1
vn -0.30679608647953965 0 -0.9517752682859746
vn -0.396686975785236 0 -0.9179539439657981
vn 0.30679608647953965 0 0.9517752682859746
vn 0.396686975785236 0 0.9179539439657981
vn -0.20660201373603865 0 0.9784250650510818
vn 0.20660201373603865 0 -0.9784250650510818
vn 0.006461000823900416 0 -0.9999791275163465
vn -0.006461000823900416 0 0.9999791275163465
vn 0.010129996862228893 0 0.9999486902654412
vn -0.010129996862228893 0 -0.9999486902654412
vn -0.13898002589024397 0 -0.9902951844796313
vn 0.13898002589024397 0 0.9902951844796313
vn 0.0014649998928894666 0 0.9999989268870811
vn -0.0014649998928894666 0 -0.9999989268870811
vn -0.18525490584366228 0 0.9826905005447321
vn 0.18525490584366228 0 -0.9826905005447321
vn -0.20626291706396663 0 -0.978496606557357
vn 0.20626291706396663 0 0.978496606557357
vn 0.018779993245063006 0 -0.9998236403754992
vn -0.018779993245063006 0 0.9998236403754992
vn 0.21356592446206624 0 0.9769286544618615
vn -0.21356592446206624 0 -0.9769286544618615
vn -0.3888318837966368 0 0.9213087246646257
vn 0.3888318837966368 0 -0.9213087246646257
vn -0.44054320194284735 0 -0.8977314115156847
vn 0.44054320194284735 0 0.8977314115156847
vn 0.20903195931141047 0 -0.9779088096476239
vn -0.20903195931141047 0 0.9779088096476239
vn 0.43808602587226625 0 0.8989330530887403
vn -0.43808602587226625 0 -0.8989330530887403
vn -0.5888398209632796 0 0.8082497542516995
vn 0.5888398209632796 0 -0.8082497542516995
vn 0.41922514116381904 0 -0.9078823057071749
vn -0.41922514116381904 0 0.9078823057071749
vn -0.6679627437047484 0 -0.7441947144547755
vn 0.6679627437047484 0 0.7441947144547755
vn 0.6419546629501383 0 0.7667425974318725
vn -0.6419546629501383 0 -0.7667425974318725
vn -0.8357960521469889 0 -0.5490400342557068
vn 0.8357960521469889 0 0.5490400342557068
vn -0.7620495969288323 0 0.6475186575077233
vn 0.7620495969288323 0 -0.6475186575077233
vn 0.6022708570495234 0 -0.7982918105234655
vn -0.6022708570495234 0 0.7982918105234655
vn 0.7982367595292169 0 0.6023438185424462
vn -0.7982367595292169 0 -0.6023438185424462
vn -0.9304027297506103 0 -0.3665388935332957
vn 0.9304027297506103 0 0.3665388935332957
vn -0.8901738905455604 0 0.45562094397753555
vn 0.8901738905455604 0 -0.45562094397753555
vn 0.7523171406494642 0 -0.6588011231661755
vn -0.7523171406494642 0 0.6588011231661755
vn -0.9819395524197798 0 -0.18919491376261305
vn 0.9819395524197798 0 0.18919491376261305
vn 0.9038704742898861 0 0.42780622448367467
vn -0.9038704742898861 0 -0.42780622448367467
vn -0.999805127422172 0 -0.019741002515931708
vn 0.999805127422172 0 0.019741002515931708
vn -0.962586691373098 0 0.27097391311968044
vn 0.962586691373098 0 -0.27097391311968044
vn 0.8681419548479381 0 -0.49631597418660683
vn -0.8681419548479381 0 0.49631597418660683
vn -0.9927396487245975 0 0.12028295743854459
vn 0.9927396487245975 0 -0.12028295743854459
vn 0.9651091172680033 0 0.26184803181650174
vn -0.9651091172680033 0 -0.26184803181650174
vn 0.9448948597298961 0 -0.3273739514011768
vn -0.9448948597298961 0 0.3273739514011768
vn 0.9928584860202335 0 0.11929805839832262
vn -0.9928584860202335 0 -0.11929805839832262
vn 0.9873780710690075 0 -0.15838101139986963
vn -0.9873780710690075 0 0.15838101139986963
vn 0.9999529150915017 0 -0.009703999176009205
vn -0.9999529150915017 0 0.009703999176009205
usemtl material_0_0
f 1//1 2//1 3//1
f 2//1 1//1 4//1
f 3//2 2//2 1//2
f 4//2 1//2 2//2
f 5//1 3//1 2//1
f 2//2 3//2 5//2
f 6//3 1//4 3//3
f 3//5 1//6 6//5
f 4//1 1//1 7//1
f 7//2 1//2 4//2
f 8//7 2//8 4//7
f 4//9 2//10 8//9
f 5//1 9//1 3//1
f 3//2 9//2 5//2
f 5//1 2//1 10//1
f 10//2 2//2 5//2
f 1//4 6//3 11//4
f 11//6 6//5 1//6
f 9//11 6//11 3//11
f 3//12 6//12 9//12
f 7//1 1//1 12//1
f 12//2 1//2 7//2
f 13//13 4//7 7//13
f 7//14 4//9 13//14
f 2//8 8//7 14//8
f 14//10 8//9 2//10
f 4//7 13//13 8//7
f 8//9 13//14 4//9
f 15//1 9//1 5//1
f 5//2 9//2 15//2
f 2//11 16//11 10//11
f 10//12 16//12 2//12
f 5//1 10//1 17//1
f 17//2 10//2 5//2
f 6//2 8//2 11//2
f 11//1 8//1 6//1
f 11//4 12//15 1//4
f 1//6 12//16 11//6
f 6//11 9//11 18//11
f 18//12 9//12 6//12
f 7//1 12//1 19//1
f 19//2 12//2 7//2
f 7//13 20//17 13//13
f 13//14 20//18 7//14
f 8//2 6//2 14//2
f 14//1 6//1 8//1
f 16//11 2//11 14//11
f 14//12 2//12 16//12
f 11//2 8//2 13//2
f 13//1 8//1 11//1
f 21//1 9//1 15//1
f 15//2 9//2 21//2
f 5//19 22//19 15//19
f 15//20 22//20 5//20
f 16//21 17//22 10//21
f 10//23 17//24 16//23
f 5//1 17//1 23//1
f 23//2 17//2 5//2
f 12//15 11//4 24//15
f 24//16 11//6 12//16
f 9//25 25//25 18//25
f 18//26 25//26 9//26
f 18//2 14//2 6//2
f 6//1 14//1 18//1
f 19//1 12//1 26//1
f 26//2 12//2 19//2
f 20//17 7//13 19//17
f 19//18 7//14 20//18
f 24//2 13//2 20//2
f 20//1 13//1 24//1
f 18//2 16//2 14//2
f 14//1 16//1 18//1
f 11//2 13//2 24//2
f 24//1 13//1 11//1
f 9//1 21//1 27//1
f 27//2 21//2 9//2
f 22//26 21//26 15//26
f 15//25 21//25 22//25
f 22//19 5//19 28//19
f 28//20 5//20 22//20
f 17//22 16//21 29//22
f 29//24 16//23 17//24
f 23//1 17//1 30//1
f 30//2 17//2 23//2
f 31//27 5//28 23//27
f 23//29 5//30 31//29
f 32//31 12//15 24//15
f 24//16 12//16 32//32
f 25//25 9//25 27//25
f 27//26 9//26 25//26
f 25//2 22//2 18//2
f 18//1 22//1 25//1
f 12//15 32//31 26//31
f 26//32 32//32 12//16
f 19//1 26//1 33//1
f 33//2 26//2 19//2
f 19//17 34//33 20//17
f 20//18 34//34 19//18
f 24//2 20//2 32//2
f 32//1 20//1 24//1
f 18//2 28//2 16//2
f 16//1 28//1 18//1
f 21//12 25//12 27//12
f 27//11 25//11 21//11
f 21//26 22//26 35//26
f 35//25 22//25 21//25
f 5//28 31//27 28//28
f 28//30 31//29 5//30
f 18//2 22//2 28//2
f 28//1 22//1 18//1
f 16//2 31//2 29//2
f 29//1 31//1 16//1
f 36//35 17//22 29//22
f 29//24 17//24 36//36
f 17//22 36//35 30//35
f 30//36 36//36 17//24
f 23//1 30//1 37//1
f 37//2 30//2 23//2
f 37//37 31//27 23//27
f 23//29 31//29 37//38
f 22//2 25//2 35//2
f 35//1 25//1 22//1
f 38//39 26//31 32//31
f 32//32 26//32 38//40
f 33//1 26//1 39//1
f 39//2 26//2 33//2
f 34//33 19//17 33//33
f 33//34 19//18 34//34
f 32//2 20//2 34//2
f 34//1 20//1 32//1
f 31//2 16//2 28//2
f 28//1 16//1 31//1
f 25//12 21//12 35//12
f 35//11 21//11 25//11
f 29//2 31//2 36//2
f 36//1 31//1 29//1
f 36//35 40//41 30//35
f 30//36 40//42 36//36
f 37//1 30//1 41//1
f 41//2 30//2 37//2
f 31//27 37//37 42//37
f 42//38 37//38 31//29
f 26//31 38//39 39//39
f 39//40 38//40 26//32
f 32//2 34//2 38//2
f 38//1 34//1 32//1
f 33//1 39//1 43//1
f 43//2 39//2 33//2
f 43//43 34//33 33//33
f 33//34 34//34 43//44
f 36//2 31//2 42//2
f 42//1 31//1 36//1
f 40//41 36//35 44//41
f 44//42 36//36 40//42
f 41//1 30//1 40//1
f 40//2 30//2 41//2
f 41//45 42//37 37//37
f 37//38 42//38 41//46
f 38//39 45//47 39//39
f 39//40 45//48 38//40
f 38//2 34//2 46//2
f 46//1 34//1 38//1
f 43//1 39//1 45//1
f 45//2 39//2 43//2
f 34//33 43//43 46//43
f 46//44 43//44 34//34
f 36//2 42//2 47//2
f 47//1 42//1 36//1
f 36//2 47//2 44//2
f 44//1 47//1 36//1
f 44//41 48//49 40//41
f 40//42 48//50 44//42
f 41//1 40//1 49//1
f 49//2 40//2 41//2
f 42//37 41//45 47//45
f 47//46 41//46 42//38
f 45//47 38//39 50//47
f 50//48 38//40 45//48
f 38//2 46//2 50//2
f 50//1 46//1 38//1
f 43//1 45//1 51//1
f 51//2 45//2 43//2
f 43//43 52//51 46//43
f 46//44 52//52 43//44
f 44//2 47//2 53//2
f 53//1 47//1 44//1
f 48//49 44//41 54//49
f 54//50 44//42 48//50
f 49//1 40//1 48//1
f 48//2 40//2 49//2
f 53//53 41//45 49//53
f 49//54 41//46 53//54
f 41//45 53//53 47//45
f 47//46 53//54 41//46
f 50//47 55//55 45//47
f 45//48 55//56 50//48
f 50//2 46//2 52//2
f 52//1 46//1 50//1
f 51//1 45//1 56//1
f 56//2 45//2 51//2
f 52//51 43//43 51//51
f 51//52 43//44 52//52
f 44//2 53//2 54//2
f 54//1 53//1 44//1
f 54//49 57//57 48//49
f 48//50 57//58 54//50
f 49//1 48//1 58//1
f 58//2 48//2 49//2
f 49//53 59//59 53//53
f 53//54 59//60 49//54
f 55//55 50//47 60//55
f 60//56 50//48 55//56
f 56//1 45//1 55//1
f 55//2 45//2 56//2
f 50//2 52//2 61//2
f 61//1 52//1 50//1
f 61//61 51//51 56//61
f 56//62 51//52 61//62
f 51//51 61//61 52//51
f 52//52 61//62 51//52
f 54//2 53//2 59//2
f 59//1 53//1 54//1
f 57//57 54//49 62//57
f 62//58 54//50 57//58
f 58//1 48//1 57//1
f 57//2 48//2 58//2
f 59//59 49//53 58//59
f 58//60 49//54 59//60
f 50//2 61//2 60//2
f 60//1 61//1 50//1
f 60//55 63//63 55//55
f 55//56 63//64 60//56
f 56//1 55//1 64//1
f 64//2 55//2 56//2
f 64//65 61//61 56//61
f 56//62 61//62 64//66
f 54//2 59//2 62//2
f 62//1 59//1 54//1
f 62//57 65//67 57//57
f 57//58 65//68 62//58
f 58//1 57//1 65//1
f 65//2 57//2 58//2
f 58//59 66//69 59//59
f 59//60 66//70 58//60
f 60//2 61//2 67//2
f 67//1 61//1 60//1
f 63//63 60//55 68//63
f 68//64 60//56 63//64
f 69//1 55//1 63//1
f 63//2 55//2 69//2
f 64//1 55//1 69//1
f 69//2 55//2 64//2
f 61//61 64//65 67//65
f 67//66 64//66 61//62
f 62//2 59//2 70//2
f 70//1 59//1 62//1
f 65//67 62//57 70//67
f 70//68 62//58 65//68
f 58//1 65//1 71//1
f 71//2 65//2 58//2
f 66//69 58//59 71//69
f 71//70 58//60 66//70
f 70//2 59//2 66//2
f 66//1 59//1 70//1
f 60//2 67//2 72//2
f 72//1 67//1 60//1
f 60//2 72//2 68//2
f 68//1 72//1 60//1
f 73//71 63//63 68//63
f 68//64 63//64 73//72
f 69//1 63//1 74//1
f 74//2 63//2 69//2
f 69//73 67//65 64//65
f 64//66 67//66 69//74
f 75//75 65//67 70//67
f 70//68 65//68 75//76
f 71//1 65//1 76//1
f 76//2 65//2 71//2
f 71//69 77//77 66//69
f 66//70 77//78 71//70
f 70//2 66//2 75//2
f 75//1 66//1 70//1
f 67//65 69//73 72//73
f 72//74 69//74 67//66
f 68//2 72//2 78//2
f 78//1 72//1 68//1
f 63//63 73//71 79//71
f 79//72 73//72 63//64
f 68//2 77//2 73//2
f 73//1 77//1 68//1
f 74//1 63//1 80//1
f 80//2 63//2 74//2
f 74//79 72//73 69//73
f 69//74 72//74 74//80
f 65//67 75//75 76//75
f 76//76 75//76 65//68
f 71//1 76//1 81//1
f 81//2 76//2 71//2
f 77//77 71//69 82//77
f 82//78 71//70 77//78
f 83//2 66//2 77//2
f 77//1 66//1 83//1
f 75//2 66//2 83//2
f 83//1 66//1 75//1
f 72//73 74//79 78//79
f 78//80 74//80 72//74
f 68//2 78//2 84//2
f 84//1 78//1 68//1
f 85//81 79//71 73//71
f 73//72 79//72 85//82
f 82//1 63//1 79//1
f 79//2 63//2 82//2
f 84//2 77//2 68//2
f 68//1 77//1 84//1
f 73//2 77//2 86//2
f 86//1 77//1 73//1
f 82//1 80//1 63//1
f 63//2 80//2 82//2
f 80//83 78//79 74//79
f 74//80 78//80 80//84
f 83//85 76//75 75//75
f 75//76 76//76 83//86
f 76//75 83//85 81//85
f 81//86 83//86 76//76
f 71//1 81//1 82//1
f 82//2 81//2 71//2
f 87//87 77//77 82//77
f 82//78 77//78 87//88
f 83//2 77//2 88//2
f 88//1 77//1 83//1
f 78//79 80//83 84//83
f 84//84 80//84 78//80
f 79//71 85//81 89//81
f 89//82 85//82 79//72
f 73//2 86//2 85//2
f 85//1 86//1 73//1
f 82//1 79//1 87//1
f 87//2 79//2 82//2
f 88//2 77//2 84//2
f 84//1 77//1 88//1
f 77//77 87//87 86//87
f 86//88 87//88 77//78
f 82//1 90//1 80//1
f 80//2 90//2 82//2
f 88//89 81//85 83//85
f 83//86 81//86 88//90
f 82//1 81//1 90//1
f 90//2 81//2 82//2
f 90//89 84//83 80//83
f 80//84 84//84 90//90
f 91//91 89//81 85//81
f 85//82 89//82 91//92
f 87//1 79//1 89//1
f 89//2 79//2 87//2
f 85//2 86//2 92//2
f 92//1 86//1 85//1
f 84//83 90//89 88//89
f 88//90 90//90 84//84
f 93//93 86//87 87//87
f 87//88 86//88 93//94
f 81//85 88//89 90//89
f 90//90 88//90 81//86
f 89//81 91//91 94//91
f 94//92 91//92 89//82
f 85//2 92//2 91//2
f 91//1 92//1 85//1
f 87//1 89//1 93//1
f 93//2 89//2 87//2
f 86//87 93//93 92//93
f 92//94 93//94 86//88
f 95//95 94//91 91//91
f 91//92 94//92 95//96
f 93//1 89//1 94//1
f 94//2 89//2 93//2
f 91//2 92//2 96//2
f 96//1 92//1 91//1
f 97//97 92//93 93//93
f 93//94 92//94 97//98
f 94//91 95//95 98//95
f 98//96 95//96 94//92
f 91//2 96//2 95//2
f 95//1 96//1 91//1
f 93//1 94//1 97//1
f 97//2 94//2 93//2
f 92//93 97//97 96//97
f 96//98 97//98 92//94
f 99//99 98//95 95//95
f 95//96 98//96 99//100
f 97//1 94//1 98//1
f 98//2 94//2 97//2
f 95//2 96//2 99//2
f 99//1 96//1 95//1
f 100//99 96//97 97//97
f 97//98 96//98 100//100
f 98//95 99//99 100//99
f 100//100 99//100 98//96
f 97//1 98//1 100//1
f 100//2 98//2 97//2
f 96//97 100//99 99//99
f 99//100 100//100 96//98
