# SSTK version 0.8.0
# 166
mtllib original-166.mtl
o mesh159/mesh159-geometry#mesh159-geometry
v -0.419137 -0.215824 0.442119
v -0.419135 -0.215824 0.443469
v -0.419186 -0.215824 0.442792
v -0.418992 -0.215824 0.441519
v -0.419186 -0.215609 0.442792
v -0.419137 -0.215609 0.442119
v -0.418992 -0.215609 0.441519
v -0.418983 -0.215824 0.444064
v -0.419135 -0.215609 0.443469
v -0.418750 -0.215609 0.440992
v -0.418750 -0.215824 0.440992
v -0.418983 -0.215609 0.444064
v -0.418731 -0.215824 0.444576
v -0.418411 -0.215609 0.440538
v -0.418731 -0.215609 0.444576
v -0.418411 -0.215824 0.440538
v -0.418377 -0.215824 0.445007
v -0.417993 -0.215824 0.440173
v -0.418377 -0.215609 0.445007
v -0.418196 -0.215824 0.442113
v -0.417993 -0.215609 0.440173
v -0.418196 -0.215609 0.442113
v -0.418196 -0.215824 0.442860
v -0.417514 -0.215824 0.439913
v -0.418033 -0.215824 0.441485
v -0.417934 -0.215609 0.445349
v -0.418196 -0.215609 0.442860
v -0.418156 -0.215824 0.443359
v -0.414880 -0.215824 0.442113
v -0.418033 -0.215609 0.441485
v -0.417514 -0.215609 0.439913
v -0.417670 -0.215824 0.440968
v -0.417934 -0.215824 0.445349
v -0.418156 -0.215609 0.443359
v -0.413931 -0.215609 0.442860
v -0.413931 -0.215824 0.442860
v -0.417670 -0.215609 0.440968
v -0.416974 -0.215824 0.439756
v -0.417418 -0.215824 0.440767
v -0.417411 -0.215609 0.445592
v -0.418035 -0.215609 0.443790
v -0.414880 -0.215609 0.442113
v -0.418035 -0.215824 0.443790
v -0.414566 -0.215824 0.440388
v -0.417418 -0.215609 0.440767
v -0.416974 -0.215609 0.439756
v -0.417411 -0.215824 0.445592
v -0.417845 -0.215609 0.444150
v -0.414566 -0.215609 0.440388
v -0.417845 -0.215824 0.444150
v -0.414917 -0.215824 0.440089
v -0.414289 -0.215824 0.440766
v -0.413931 -0.215824 0.442331
v -0.414979 -0.215609 0.441433
v -0.416372 -0.215824 0.439704
v -0.417127 -0.215824 0.440622
v -0.417127 -0.215609 0.440622
v -0.416809 -0.215609 0.445738
v -0.417595 -0.215609 0.444440
v -0.414289 -0.215609 0.440766
v -0.414917 -0.215609 0.440089
v -0.414979 -0.215824 0.441433
v -0.414090 -0.215824 0.441216
v -0.413931 -0.215609 0.442331
v -0.413971 -0.215824 0.441737
v -0.416372 -0.215609 0.439704
v -0.416795 -0.215824 0.440536
v -0.417595 -0.215824 0.444440
v -0.416809 -0.215824 0.445738
v -0.417300 -0.215609 0.444658
v -0.414090 -0.215609 0.441216
v -0.415099 -0.215824 0.441158
v -0.415335 -0.215609 0.439875
v -0.413971 -0.215609 0.441737
v -0.415099 -0.215609 0.441158
v -0.416795 -0.215609 0.440536
v -0.415820 -0.215824 0.439747
v -0.416424 -0.215824 0.440507
v -0.417300 -0.215824 0.444658
v -0.416128 -0.215609 0.445787
v -0.416955 -0.215609 0.444813
v -0.415266 -0.215824 0.440927
v -0.415335 -0.215824 0.439875
v -0.415266 -0.215609 0.440927
v -0.416424 -0.215609 0.440507
v -0.415820 -0.215609 0.439747
v -0.415746 -0.215824 0.440612
v -0.416955 -0.215824 0.444813
v -0.416128 -0.215824 0.445787
v -0.416566 -0.215609 0.444906
v -0.415481 -0.215609 0.440743
v -0.415746 -0.215609 0.440612
v -0.416566 -0.215824 0.444906
v -0.415577 -0.215609 0.445752
v -0.416139 -0.215609 0.444937
v -0.415481 -0.215824 0.440743
v -0.416139 -0.215824 0.444937
v -0.415577 -0.215824 0.445752
v -0.415546 -0.215609 0.444878
v -0.415546 -0.215824 0.444878
v -0.415051 -0.215609 0.445647
v -0.415051 -0.215824 0.445647
v -0.414950 -0.215609 0.444702
v -0.414950 -0.215824 0.444702
v -0.414045 -0.215609 0.445300
v -0.414045 -0.215824 0.445300
v -0.414437 -0.215609 0.444468
v -0.414437 -0.215824 0.444468
v -0.414045 -0.215824 0.444238
v -0.414097 -0.215609 0.444238
v -0.414097 -0.215824 0.444238
v -0.414045 -0.215609 0.444238
vn 0 -1 0
vn 0 1 0
vn -0.9869032884827293 0 0.16131304715358502
vn -0.999999065654941 0 0.0013670000897503941
vn 0.999999065654941 0 -0.0013670000897503941
vn 0.9869032884827293 0 -0.16131304715358502
vn -0.9880686734646008 0 -0.15401394910170954
vn 0.9880686734646008 0 0.15401394910170954
vn -0.9447148815922785 0 -0.3278929589028828
vn 0.9447148815922785 0 0.3278929589028828
vn -0.8597001253438576 0 -0.5107990744742551
vn 0.8597001253438576 0 0.5107990744742551
vn -0.9381294380020019 0 0.3462847925538286
vn 0.9381294380020019 0 -0.3462847925538286
vn -0.7335661091986592 0 -0.6796181011679582
vn 0.7335661091986592 0 0.6796181011679582
vn -0.8405609567909652 0 0.5417169721530397
vn 0.8405609567909652 0 -0.5417169721530397
vn -0.5712978637874662 0 -0.8207428043131891
vn 0.5712978637874662 0 0.8207428043131891
vn -0.6958018253676796 0 0.7182338197376985
vn 0.6958018253676796 0 -0.7182338197376985
vn -0.3802270697758562 0 -0.9248931697280861
vn 0.3802270697758562 0 0.9248931697280861
vn -0.5191911060590719 0 0.8546581745874531
vn 0.5191911060590719 0 -0.8546581745874531
vn 0.9077214919080255 0 0.4195732273730871
vn 0.9681135260407772 0 0.25051187735693026
vn -0.9681135260407772 0 -0.25051187735693026
vn -0.9077214919080255 0 -0.4195732273730871
vn 0.9967823290079976 0 -0.08015602645710401
vn 0.9844667784310094 0 -0.17557096048512624
vn -0.9844667784310094 0 0.17557096048512624
vn -0.9967823290079976 0 0.08015602645710401
vn 0 0 -1
vn 0 0 1
vn -0.18308096977653832 0 -0.9830978377077646
vn 0.18308096977653832 0 0.9830978377077646
vn 0.7289519061368783 0 0.684564911852347
vn -0.7289519061368783 0 -0.684564911852347
vn -0.33096589994819614 0 0.9436427147344915
vn 0.33096589994819614 0 -0.9436427147344915
vn 0.9289628581947594 0 -0.3701729434934746
vn -0.9289628581947594 0 0.3701729434934746
vn 0.5373141255918183 0 0.8433821971321778
vn -0.5373141255918183 0 -0.8433821971321778
vn 0.9994434331938583 0 -0.03335901445896756
vn 1 0 0
vn -1 0 0
vn -0.9994434331938583 0 0.03335901445896756
vn -0.9615816999456891 0 0.274518914338445
vn -0.9895497351153831 0 0.1441919614024125
vn 0.9895497351153831 0 -0.1441919614024125
vn 0.9615816999456891 0 -0.274518914338445
vn -0.004586002220733132 0 -0.999989484236525
vn 0.004586002220733132 0 0.999989484236525
vn 0.3495380616011953 0 0.9369221651194294
vn -0.3495380616011953 0 -0.9369221651194294
vn -0.15431104959519357 0 0.9880223175479539
vn 0.15431104959519357 0 -0.9880223175479539
vn 0.8259107738978715 0 -0.5638008456533379
vn -0.8259107738978715 0 0.5638008456533379
vn 0.5558880921126101 0 -0.8312571377422284
vn 0.7322408036873651 0 -0.6810458174126623
vn -0.5558880921126101 0 0.8312571377422284
vn -0.7322408036873651 0 0.6810458174126623
vn 0.8655717821317148 0 -0.5007848739502097
vn -0.8655717821317148 0 0.5007848739502097
vn 0.679650814762215 0 -0.7335358000759452
vn -0.679650814762215 0 0.7335358000759452
vn 0.35754409819020394 0 -0.9338962564703608
vn -0.35754409819020394 0 0.9338962564703608
vn 0.9492988898689941 0 -0.3143749635284194
vn -0.9492988898689941 0 0.3143749635284194
vn 0.989432687567879 0 -0.14499295421572708
vn -0.989432687567879 0 0.14499295421572708
vn -0.8687739058435925 0 0.4952089463300002
vn 0.8687739058435925 0 -0.4952089463300002
vn 0.16711798379849716 0 -0.9859369044168725
vn -0.16711798379849716 0 0.9859369044168725
vn 0.16556109003860214 0 0.9861995363339155
vn -0.16556109003860214 0 -0.9861995363339155
vn -0.0040899985109054335 0 0.9999916359211114
vn 0.0040899985109054335 0 -0.9999916359211114
vn 0.5051722985801547 0 -0.8630185100837892
vn -0.5051722985801547 0 0.8630185100837892
vn -0.03801001362984219 0 0.9992773583264355
vn 0.03801001362984219 0 -0.9992773583264355
vn 0.32321785759848537 0 -0.9463245830736118
vn -0.32321785759848537 0 0.9463245830736118
vn -0.7354020464167401 0 0.6776310427703787
vn 0.7354020464167401 0 -0.6776310427703787
vn -0.301952946171155 0 0.9533228300521075
vn 0.301952946171155 0 -0.9533228300521075
vn 0.12974197256813869 0 0.9915477903531066
vn -0.12974197256813869 0 -0.9915477903531066
vn 0.15333098265934014 0 -0.9881748882443437
vn -0.15333098265934014 0 0.9881748882443437
vn -0.5506820560734785 0 0.8347150849952851
vn 0.5506820560734785 0 -0.8347150849952851
vn -0.013208996795167542 0 -0.9999127573961967
vn 0.013208996795167542 0 0.9999127573961967
vn 0.26164809256156135 0 0.9651633414396221
vn -0.26164809256156135 0 -0.9651633414396221
vn -0.19243898824178574 0 -0.9813089400410443
vn 0.19243898824178574 0 0.9813089400410443
vn -0.3505500058829302 0 -0.9365440157170818
vn 0.3505500058829302 0 0.9365440157170818
vn 0.32644087040218406 0 0.9452176247463144
vn -0.32644087040218406 0 -0.9452176247463144
vn -0.4893630802142005 0 -0.8720801429474644
vn 0.4893630802142005 0 0.8720801429474644
vn -0.5601500920379892 0 -0.8283911361125444
vn 0.5601500920379892 0 0.8283911361125444
usemtl material_0_0
f 1//1 2//1 3//1
f 2//1 1//1 4//1
f 3//2 2//2 1//2
f 4//2 1//2 2//2
f 2//3 5//4 3//4
f 3//5 5//5 2//6
f 3//4 6//7 1//7
f 1//8 6//8 3//5
f 1//7 7//9 4//9
f 4//10 7//10 1//8
f 2//1 4//1 8//1
f 8//2 4//2 2//2
f 5//4 2//3 9//3
f 9//6 2//6 5//5
f 6//7 3//4 5//4
f 5//5 3//5 6//8
f 7//9 1//7 6//7
f 6//8 1//8 7//10
f 10//11 4//9 7//9
f 7//10 4//10 10//12
f 8//1 4//1 11//1
f 11//2 4//2 8//2
f 8//13 9//3 2//3
f 2//6 9//6 8//14
f 9//2 6//2 5//2
f 5//1 6//1 9//1
f 6//2 9//2 7//2
f 7//1 9//1 6//1
f 4//9 10//11 11//11
f 11//12 10//12 4//10
f 7//2 12//2 10//2
f 10//1 12//1 7//1
f 8//1 11//1 13//1
f 13//2 11//2 8//2
f 9//3 8//13 12//13
f 12//14 8//14 9//6
f 7//2 9//2 12//2
f 12//1 9//1 7//1
f 14//15 11//11 10//11
f 10//12 11//12 14//16
f 10//2 12//2 15//2
f 15//1 12//1 10//1
f 13//1 11//1 16//1
f 16//2 11//2 13//2
f 13//17 12//13 8//13
f 8//14 12//14 13//18
f 11//11 14//15 16//15
f 16//16 14//16 11//12
f 10//2 15//2 14//2
f 14//1 15//1 10//1
f 12//13 13//17 15//17
f 15//18 13//18 12//14
f 13//1 16//1 17//1
f 17//2 16//2 13//2
f 14//15 18//19 16//15
f 16//16 18//20 14//16
f 14//2 15//2 19//2
f 19//1 15//1 14//1
f 17//21 15//17 13//17
f 13//18 15//18 17//22
f 17//1 16//1 20//1
f 20//2 16//2 17//2
f 18//19 14//15 21//19
f 21//20 14//16 18//20
f 20//1 16//1 18//1
f 18//2 16//2 20//2
f 15//17 17//21 19//21
f 19//22 17//22 15//18
f 14//2 19//2 22//2
f 22//1 19//1 14//1
f 23//1 17//1 20//1
f 20//2 17//2 23//2
f 14//2 22//2 21//2
f 21//1 22//1 14//1
f 21//19 24//23 18//19
f 18//20 24//24 21//20
f 20//1 18//1 25//1
f 25//2 18//2 20//2
f 17//21 26//25 19//21
f 19//22 26//26 17//22
f 22//2 19//2 27//2
f 27//1 19//1 22//1
f 28//1 17//1 23//1
f 23//2 17//2 28//2
f 29//1 23//1 20//1
f 20//2 23//2 29//2
f 21//2 22//2 30//2
f 30//1 22//1 21//1
f 24//23 21//19 31//23
f 31//24 21//20 24//24
f 32//1 18//1 24//1
f 24//2 18//2 32//2
f 25//1 18//1 32//1
f 32//2 18//2 25//2
f 25//27 22//28 20//28
f 20//29 22//29 25//30
f 26//25 17//21 33//25
f 33//26 17//22 26//26
f 34//2 19//2 26//2
f 26//1 19//1 34//1
f 19//2 34//2 27//2
f 27//1 34//1 19//1
f 35//2 22//2 27//2
f 27//1 22//1 35//1
f 17//1 28//1 33//1
f 33//2 28//2 17//2
f 23//31 34//32 28//32
f 28//33 34//33 23//34
f 23//1 29//1 36//1
f 36//2 29//2 23//2
f 22//35 29//35 20//35
f 20//36 29//36 22//36
f 22//28 25//27 30//27
f 30//30 25//30 22//29
f 21//2 30//2 37//2
f 37//1 30//1 21//1
f 21//2 37//2 31//2
f 31//1 37//1 21//1
f 31//23 38//37 24//23
f 24//24 38//38 31//24
f 32//1 24//1 39//1
f 39//2 24//2 32//2
f 32//39 30//27 25//27
f 25//30 30//30 32//40
f 33//25 40//41 26//25
f 26//26 40//42 33//26
f 34//2 26//2 41//2
f 41//1 26//1 34//1
f 34//32 23//31 27//31
f 27//34 23//34 34//33
f 22//2 35//2 42//2
f 42//1 35//1 22//1
f 23//36 35//36 27//36
f 27//35 35//35 23//35
f 33//1 28//1 43//1
f 43//2 28//2 33//2
f 41//43 28//32 34//32
f 34//33 28//33 41//44
f 36//1 29//1 44//1
f 44//2 29//2 36//2
f 35//36 23//36 36//36
f 36//35 23//35 35//35
f 29//35 22//35 42//35
f 42//36 22//36 29//36
f 30//27 32//39 37//39
f 37//40 32//40 30//30
f 31//2 37//2 45//2
f 45//1 37//1 31//1
f 38//37 31//23 46//37
f 46//38 31//24 38//38
f 39//1 24//1 38//1
f 38//2 24//2 39//2
f 45//45 32//39 39//45
f 39//46 32//40 45//46
f 40//41 33//25 47//41
f 47//42 33//26 40//42
f 48//2 26//2 40//2
f 40//1 26//1 48//1
f 41//2 26//2 48//2
f 48//1 26//1 41//1
f 42//2 35//2 49//2
f 49//1 35//1 42//1
f 28//32 41//43 43//43
f 43//44 41//44 28//33
f 33//1 43//1 50//1
f 50//2 43//2 33//2
f 29//1 51//1 44//1
f 44//2 51//2 29//2
f 36//1 44//1 52//1
f 52//2 44//2 36//2
f 53//47 35//48 36//48
f 36//49 35//49 53//50
f 54//51 29//52 42//52
f 42//53 29//53 54//54
f 32//39 45//45 37//39
f 37//40 45//46 32//40
f 31//2 45//2 46//2
f 46//1 45//1 31//1
f 46//37 55//55 38//37
f 38//38 55//56 46//38
f 39//1 38//1 56//1
f 56//2 38//2 39//2
f 39//45 57//57 45//45
f 45//46 57//58 39//46
f 33//1 50//1 47//1
f 47//2 50//2 33//2
f 47//41 58//59 40//41
f 40//42 58//60 47//42
f 48//2 40//2 59//2
f 59//1 40//1 48//1
f 48//61 43//43 41//43
f 41//44 43//44 48//62
f 49//2 35//2 60//2
f 60//1 35//1 49//1
f 61//2 42//2 49//2
f 49//1 42//1 61//1
f 43//43 48//61 50//61
f 50//62 48//62 43//44
f 62//1 51//1 29//1
f 29//2 51//2 62//2
f 61//63 44//64 51//63
f 51//65 44//66 61//65
f 44//64 60//67 52//67
f 52//68 60//68 44//66
f 36//1 52//1 63//1
f 63//2 52//2 36//2
f 35//48 53//47 64//47
f 64//50 53//50 35//49
f 36//1 65//1 53//1
f 53//2 65//2 36//2
f 29//52 54//51 62//51
f 62//54 54//54 29//53
f 61//2 54//2 42//2
f 42//1 54//1 61//1
f 46//2 45//2 57//2
f 57//1 45//1 46//1
f 55//55 46//37 66//55
f 66//56 46//38 55//56
f 67//1 38//1 55//1
f 55//2 38//2 67//2
f 56//1 38//1 67//1
f 67//2 38//2 56//2
f 57//57 39//45 56//57
f 56//58 39//46 57//58
f 47//1 50//1 68//1
f 68//2 50//2 47//2
f 58//59 47//41 69//59
f 69//60 47//42 58//60
f 70//2 40//2 58//2
f 58//1 40//1 70//1
f 59//2 40//2 70//2
f 70//1 40//1 59//1
f 59//69 50//61 48//61
f 48//62 50//62 59//70
f 60//2 35//2 71//2
f 71//1 35//1 60//1
f 60//67 44//64 49//64
f 49//66 44//66 60//68
f 44//64 61//63 49//64
f 49//66 61//65 44//66
f 72//1 51//1 62//1
f 62//2 51//2 72//2
f 51//63 73//71 61//63
f 61//65 73//72 51//65
f 71//73 52//67 60//67
f 60//68 52//68 71//74
f 52//67 71//73 63//73
f 63//74 71//74 52//68
f 36//1 63//1 65//1
f 65//2 63//2 36//2
f 65//75 64//47 53//47
f 53//50 64//50 65//76
f 74//2 35//2 64//2
f 64//1 35//1 74//1
f 75//77 62//51 54//51
f 54//54 62//54 75//78
f 61//2 75//2 54//2
f 54//1 75//1 61//1
f 46//2 57//2 76//2
f 76//1 57//1 46//1
f 46//2 76//2 66//2
f 66//1 76//1 46//1
f 66//55 77//79 55//55
f 55//56 77//80 66//56
f 67//1 55//1 78//1
f 78//2 55//2 67//2
f 76//81 56//57 67//81
f 67//82 56//58 76//82
f 56//57 76//81 57//57
f 57//58 76//82 56//58
f 50//61 59//69 68//69
f 68//70 59//70 50//62
f 47//1 68//1 79//1
f 79//2 68//2 47//2
f 47//1 79//1 69//1
f 69//2 79//2 47//2
f 69//59 80//83 58//59
f 58//60 80//84 69//60
f 70//2 58//2 81//2
f 81//1 58//1 70//1
f 79//85 59//69 70//85
f 70//86 59//70 79//86
f 71//2 35//2 74//2
f 74//1 35//1 71//1
f 82//1 51//1 72//1
f 72//2 51//2 82//2
f 62//51 75//77 72//77
f 72//78 75//78 62//54
f 73//71 51//63 83//71
f 83//72 51//65 73//72
f 73//2 84//2 61//2
f 61//1 84//1 73//1
f 74//75 63//73 71//73
f 71//74 63//74 74//76
f 63//73 74//75 65//75
f 65//76 74//76 63//74
f 64//47 65//75 74//75
f 74//76 65//76 64//50
f 61//2 84//2 75//2
f 75//1 84//1 61//1
f 66//2 76//2 85//2
f 85//1 76//1 66//1
f 77//79 66//55 86//79
f 86//80 66//56 77//80
f 87//1 55//1 77//1
f 77//2 55//2 87//2
f 78//1 55//1 87//1
f 87//2 55//2 78//2
f 85//87 67//81 78//87
f 78//88 67//82 85//88
f 67//81 85//87 76//81
f 76//82 85//88 67//82
f 59//69 79//85 68//69
f 68//70 79//86 59//70
f 69//1 79//1 88//1
f 88//2 79//2 69//2
f 80//83 69//59 89//83
f 89//84 69//60 80//84
f 90//2 58//2 80//2
f 80//1 58//1 90//1
f 81//2 58//2 90//2
f 90//1 58//1 81//1
f 88//89 70//85 81//89
f 81//90 70//86 88//90
f 70//85 88//89 79//85
f 79//86 88//90 70//86
f 82//1 83//1 51//1
f 51//2 83//2 82//2
f 72//77 84//91 82//91
f 82//92 84//92 72//78
f 84//91 72//77 75//77
f 75//78 72//78 84//92
f 83//71 86//79 73//71
f 73//72 86//80 83//72
f 73//2 91//2 84//2
f 84//1 91//1 73//1
f 66//2 85//2 92//2
f 92//1 85//1 66//1
f 66//2 92//2 86//2
f 86//1 92//1 66//1
f 86//79 83//71 77//79
f 77//80 83//72 86//80
f 87//1 77//1 83//1
f 83//2 77//2 87//2
f 92//93 78//87 87//93
f 87//94 78//88 92//94
f 78//87 92//93 85//87
f 85//88 92//94 78//88
f 69//1 88//1 93//1
f 93//2 88//2 69//2
f 69//1 93//1 89//1
f 89//2 93//2 69//2
f 89//83 94//95 80//83
f 80//84 94//96 89//84
f 90//2 80//2 95//2
f 95//1 80//1 90//1
f 93//97 81//89 90//97
f 90//98 81//90 93//98
f 81//89 93//97 88//89
f 88//90 93//98 81//90
f 96//1 83//1 82//1
f 82//2 83//2 96//2
f 84//91 96//99 82//91
f 82//92 96//100 84//92
f 86//2 92//2 73//2
f 73//1 92//1 86//1
f 73//2 92//2 91//2
f 91//1 92//1 73//1
f 96//99 84//91 91//99
f 91//100 84//92 96//100
f 87//1 83//1 96//1
f 96//2 83//2 87//2
f 87//93 91//99 92//93
f 92//94 91//100 87//94
f 89//1 93//1 97//1
f 97//2 93//2 89//2
f 94//95 89//83 98//95
f 98//96 89//84 94//96
f 99//2 80//2 94//2
f 94//1 80//1 99//1
f 95//2 80//2 99//2
f 99//1 80//1 95//1
f 97//101 90//97 95//101
f 95//102 90//98 97//102
f 90//97 97//101 93//97
f 93//98 97//102 90//98
f 91//99 87//93 96//99
f 96//100 87//94 91//100
f 89//1 97//1 100//1
f 100//2 97//2 89//2
f 89//1 100//1 98//1
f 98//2 100//2 89//2
f 98//95 101//103 94//95
f 94//96 101//104 98//96
f 99//2 94//2 101//2
f 101//1 94//1 99//1
f 100//105 95//101 99//105
f 99//106 95//102 100//106
f 95//101 100//105 97//101
f 97//102 100//106 95//102
f 98//1 100//1 102//1
f 102//2 100//2 98//2
f 101//103 98//95 102//103
f 102//104 98//96 101//104
f 99//2 101//2 103//2
f 103//1 101//1 99//1
f 99//105 104//107 100//105
f 100//106 104//108 99//106
f 102//1 100//1 104//1
f 104//2 100//2 102//2
f 102//103 105//109 101//103
f 101//104 105//110 102//104
f 103//2 101//2 105//2
f 105//1 101//1 103//1
f 104//107 99//105 103//107
f 103//108 99//106 104//108
f 102//1 104//1 106//1
f 106//2 104//2 102//2
f 105//109 102//103 106//109
f 106//110 102//104 105//110
f 103//2 105//2 107//2
f 107//1 105//1 103//1
f 103//107 108//111 104//107
f 104//108 108//112 103//108
f 106//1 104//1 108//1
f 108//2 104//2 106//2
f 109//48 105//48 106//48
f 106//49 105//49 109//49
f 107//2 105//2 110//2
f 110//1 105//1 107//1
f 108//111 103//107 107//111
f 107//112 103//108 108//112
f 106//1 108//1 111//1
f 111//2 108//2 106//2
f 105//48 109//48 112//48
f 112//49 109//49 105//49
f 106//1 111//1 109//1
f 109//2 111//2 106//2
f 110//2 105//2 112//2
f 112//1 105//1 110//1
f 111//113 107//111 110//113
f 110//114 107//112 111//114
f 107//111 111//113 108//111
f 108//112 111//114 107//112
f 109//35 110//35 112//35
f 112//36 110//36 109//36
f 110//35 109//35 111//35
f 111//36 109//36 110//36
