# SSTK version 0.8.0
# 10
mtllib original-10.mtl
o Group8/mesh12/mesh12-geometry#mesh12-geometry
v 0.516129 -0.507699 -0.428311
v -0.530497 -0.507699 0.574436
v -0.530497 -0.507699 -0.428311
v 0.516129 -0.507699 0.574436
v -0.530497 -0.018971 -0.428311
v -0.569910 -0.507699 0.613849
v -0.569910 -0.507699 -0.467725
v 0.555543 -0.507699 0.613849
v 0.516129 -0.018971 0.574436
v -0.530497 -0.018971 0.574436
v 0.555543 -0.507699 -0.467725
v 0.516129 -0.018971 -0.428311
v -0.569910 -0.018971 0.613849
v 0.555543 -0.018971 -0.467725
v 0.555543 -0.018971 0.613849
v -0.569910 -0.018971 -0.467725
vn 0 -1 0
vn 0 1 0
vn 1 0 0
vn -1 0 0
vn 0 0 1
vn 0 0 -1
usemtl material_0_0
f 1//1 2//1 3//1
f 2//1 1//1 4//1
f 3//2 2//2 1//2
f 4//2 1//2 2//2
f 5//3 2//3 3//3
f 3//4 2//4 5//4
f 6//1 3//1 2//1
f 2//2 3//2 6//2
f 7//1 1//1 3//1
f 3//2 1//2 7//2
f 1//5 5//5 3//5
f 3//6 5//6 1//6
f 1//1 8//1 4//1
f 4//2 8//2 1//2
f 9//4 1//4 4//4
f 4//3 1//3 9//3
f 2//6 9//6 4//6
f 4//5 9//5 2//5
f 4//1 8//1 2//1
f 2//2 8//2 4//2
f 2//3 5//3 10//3
f 10//4 5//4 2//4
f 3//1 6//1 7//1
f 7//2 6//2 3//2
f 6//1 2//1 8//1
f 8//2 2//2 6//2
f 11//1 1//1 7//1
f 7//2 1//2 11//2
f 5//5 1//5 12//5
f 12//6 1//6 5//6
f 1//1 11//1 8//1
f 8//2 11//2 1//2
f 1//4 9//4 12//4
f 12//3 9//3 1//3
f 9//6 2//6 10//6
f 10//5 2//5 9//5
f 5//2 13//2 10//2
f 10//1 13//1 5//1
f 13//4 7//4 6//4
f 6//3 7//3 13//3
f 8//5 13//5 6//5
f 6//6 13//6 8//6
f 7//6 14//6 11//6
f 11//5 14//5 7//5
f 12//2 14//2 5//2
f 5//1 14//1 12//1
f 14//3 8//3 11//3
f 11//4 8//4 14//4
f 15//2 12//2 9//2
f 9//1 12//1 15//1
f 10//2 13//2 9//2
f 9//1 13//1 10//1
f 5//2 16//2 13//2
f 13//1 16//1 5//1
f 7//4 13//4 16//4
f 16//3 13//3 7//3
f 13//5 8//5 15//5
f 15//6 8//6 13//6
f 14//6 7//6 16//6
f 16//5 7//5 14//5
f 14//2 12//2 15//2
f 15//1 12//1 14//1
f 16//2 5//2 14//2
f 14//1 5//1 16//1
f 8//3 14//3 15//3
f 15//4 14//4 8//4
f 15//2 9//2 13//2
f 13//1 9//1 15//1
