# SSTK version 0.8.0
# 3
mtllib original-3.mtl
o nozzle/object__5_1/object__8/mesh3/mesh3-geometry#mesh3-geometry
v -0.035063 -0.136053 0.964955
v -0.039157 -0.145899 0.951403
v -0.035063 -0.155740 0.937858
v -0.027630 -0.129608 0.973826
v -0.027630 -0.162249 0.928899
v -0.014815 -0.124539 0.980802
v -0.014815 -0.167351 0.921877
v 0.000258 -0.122792 0.983206
v 0.000258 -0.169089 0.919484
v 0.015319 -0.124539 0.980802
v 0.015319 -0.167351 0.921877
v 0.028302 -0.129620 0.973808
v 0.028302 -0.162249 0.928899
v 0.035584 -0.136053 0.964955
v 0.035584 -0.155579 0.938080
v 0.039726 -0.145899 0.951403
vn 0.0000140000009481011 -0.8090200547880537 0.587781039805415
vn 0.000003000000203445021 -0.809020054863697 0.5877810398603723
vn 0.0000059999982075428025 -0.8090187583113453 0.5877828244040217
vn -0.0000059999982075428025 0.8090187583113453 -0.5877828244040217
vn -0.000003000000203445021 0.809020054863697 -0.5877810398603723
vn -0.0000140000009481011 0.8090200547880537 -0.587781039805415
vn 0.000003999999690008036 -0.8090179373027305 0.5877839544479206
vn -0.000003999999690008036 0.8090179373027305 -0.5877839544479206
vn -0.0000019999991119115914 -0.80901664076069 0.5877857389970331
vn 0.0000019999991119115914 0.80901664076069 -0.5877857389970331
vn 0 -0.8090171162905558 0.5877850844899972
vn 0 0.8090171162905558 -0.5877850844899972
vn -0.0000010000001437425313 -0.8090171162901515 0.5877850844897035
vn 0.0000010000001437425313 0.8090171162901515 -0.5877850844897035
vn 0.0000010000001437425313 -0.8090171162901515 0.5877850844897035
vn -0.0000010000001437425313 0.8090171162901515 -0.5877850844897035
vn -0.000002000000287482062 -0.8090171162889378 0.5877850844888217
vn 0.000002000000287482062 0.8090171162889378 -0.5877850844888217
vn -0.000006000000862350187 -0.8090171162759937 0.5877850844794172
vn 0.000006000000862350187 0.8090171162759937 -0.5877850844794172
vn -0.0000019999998450160183 -0.8090179373075846 0.5877839544514474
vn 0.0000019999998450160183 0.8090179373075846 -0.5877839544514474
vn 0.000002000001020583781 -0.8090184128353248 0.5877832999408982
vn -0.000002000001020583781 0.8090184128353248 -0.5877832999408982
vn 0.000003999998805068535 -0.8090187583194355 0.5877828244098995
vn -0.000003999998805068535 0.8090187583194355 -0.5877828244098995
usemtl material_0_0
f 1//1 2//2 3//3
f 3//4 2//5 1//6
f 4//7 1//1 3//3
f 3//4 1//6 4//8
f 4//7 3//3 5//9
f 5//10 3//4 4//8
f 6//11 4//7 5//9
f 5//10 4//8 6//12
f 6//11 5//9 7//13
f 7//14 5//10 6//12
f 8//13 6//11 7//13
f 7//14 6//12 8//14
f 8//13 7//13 9//15
f 9//16 7//14 8//14
f 10//15 8//13 9//15
f 9//16 8//14 10//16
f 10//15 9//15 11//17
f 11//18 9//16 10//16
f 12//19 10//15 11//17
f 11//18 10//16 12//20
f 12//19 11//17 13//21
f 13//22 11//18 12//20
f 14//23 12//19 13//21
f 13//22 12//20 14//24
f 14//23 13//21 15//3
f 15//4 13//22 14//24
f 16//25 14//23 15//3
f 15//4 14//24 16//26
