# SSTK version 0.8.0
# 32
mtllib original-32.mtl
o Component_16_5/Component_16/mesh24/mesh24-geometry#mesh24-geometry
v -0.745065 0.349076 -0.191332
v 0.790027 0.295306 -0.325765
v 0.790027 0.349076 -0.191332
v -0.745065 0.295306 -0.325765
v 0.790027 0.381469 -0.204289
v -0.745065 0.381469 -0.204289
v -0.745065 0.3277 -0.338721
v 0.790027 0.3277 -0.338721
vn 0.0 -0.9284858679033078 0.371367732986916
vn 0.0 0.9284858679033078 -0.371367732986916
vn 1.0 0.0 0.0
vn -1.0 0.0 0.0
vn 0.0 0.371367732986916 0.9284858679033078
vn 0.0 -0.371367732986916 -0.9284858679033078
usemtl material_0_0
f 1//1 2//1 3//1
f 2//1 1//1 4//1
f 3//2 2//2 1//2
f 4//2 1//2 2//2
f 2//3 5//3 3//3
f 3//4 5//4 2//4
f 3//5 6//5 1//5
f 1//6 6//6 3//6
f 1//4 7//4 4//4
f 4//3 7//3 1//3
f 7//6 2//6 4//6
f 4//5 2//5 7//5
f 5//3 2//3 8//3
f 8//4 2//4 5//4
f 6//5 3//5 5//5
f 5//6 3//6 6//6
f 7//4 1//4 6//4
f 6//3 1//3 7//3
f 2//6 7//6 8//6
f 8//5 7//5 2//5
f 8//2 6//2 5//2
f 5//1 6//1 8//1
f 6//2 8//2 7//2
f 7//1 8//1 6//1
