# SSTK version 0.8.0
# 10
mtllib original-10.mtl
o #ID56
v 0.460675 -0.458664 0.745992
v 0.460675 0.399432 0.746261
v 0.460675 -0.454562 0.746261
v 0.460675 0.410103 0.745562
v 0.460675 -0.461885 0.745351
v 0.460675 0.419782 0.743636
v 0.460675 -0.464996 0.744295
v 0.460675 -0.467942 0.742843
v 0.460675 0.429127 0.740464
v 0.460675 -0.470673 0.741018
v 0.460675 -0.473143 0.738852
v 0.460675 0.437978 0.736099
v 0.460675 -0.475308 0.736382
v 0.460675 -0.477133 0.733651
v 0.460675 0.446183 0.730617
v 0.460675 -0.478586 0.730705
v 0.460675 -0.479642 0.727595
v 0.460675 0.453603 0.724110
v 0.460675 -0.480283 0.724373
v 0.460675 -0.480552 0.720271
v 0.460675 0.460110 0.716690
v 0.460675 -0.480552 -0.687374
v 0.460675 0.465592 0.708485
v 0.460675 0.469957 0.699634
v 0.460675 0.473129 0.690290
v 0.460675 0.475054 0.680611
v 0.460675 0.475754 0.669939
v 0.460675 0.475754 -0.637042
v 0.460675 0.475054 -0.647713
v 0.460675 0.473129 -0.657392
v 0.460675 0.469957 -0.666736
v 0.460675 0.465592 -0.675588
v 0.460675 0.460110 -0.683793
v 0.460675 0.453603 -0.691213
v 0.460675 -0.480283 -0.691475
v 0.460675 0.446183 -0.697719
v 0.460675 -0.479642 -0.694697
v 0.460675 -0.478586 -0.697807
v 0.460675 0.437978 -0.703202
v 0.460675 -0.477133 -0.700754
v 0.460675 -0.475308 -0.703484
v 0.460675 0.429127 -0.707566
v 0.460675 -0.473143 -0.705954
v 0.460675 -0.470673 -0.708120
v 0.460675 0.419782 -0.710738
v 0.460675 -0.467942 -0.709944
v 0.460675 -0.464996 -0.711398
v 0.460675 0.410103 -0.712664
v 0.460675 -0.461885 -0.712454
v 0.460675 -0.458664 -0.713094
v 0.460675 0.399432 -0.713363
v 0.460675 -0.454562 -0.713363
v 0.460675 -0.454562 -0.713363
v 0.460675 -0.458664 -0.713094
v 0.460675 0.399432 -0.713363
v 0.460675 0.410103 -0.712664
v 0.460675 -0.461885 -0.712454
v 0.460675 -0.464996 -0.711398
v 0.460675 0.419782 -0.710738
v 0.460675 -0.467942 -0.709944
v 0.460675 -0.470673 -0.708120
v 0.460675 0.429127 -0.707566
v 0.460675 -0.473143 -0.705954
v 0.460675 -0.475308 -0.703484
v 0.460675 0.437978 -0.703202
v 0.460675 -0.477133 -0.700754
v 0.460675 -0.478586 -0.697807
v 0.460675 0.446183 -0.697719
v 0.460675 -0.479642 -0.694697
v 0.460675 -0.480283 -0.691475
v 0.460675 0.453603 -0.691213
v 0.460675 -0.480552 -0.687374
v 0.460675 0.460110 -0.683793
v 0.460675 0.465592 -0.675588
v 0.460675 0.469957 -0.666736
v 0.460675 0.473129 -0.657392
v 0.460675 0.475054 -0.647713
v 0.460675 0.475754 -0.637042
v 0.460675 0.475754 0.669939
v 0.460675 0.475054 0.680611
v 0.460675 0.473129 0.690290
v 0.460675 0.469957 0.699634
v 0.460675 0.465592 0.708485
v 0.460675 0.460110 0.716690
v 0.460675 -0.480552 0.720271
v 0.460675 0.453603 0.724110
v 0.460675 -0.480283 0.724373
v 0.460675 -0.479642 0.727595
v 0.460675 0.446183 0.730617
v 0.460675 -0.478586 0.730705
v 0.460675 -0.477133 0.733651
v 0.460675 0.437978 0.736099
v 0.460675 -0.475308 0.736382
v 0.460675 -0.473143 0.738852
v 0.460675 0.429127 0.740464
v 0.460675 -0.470673 0.741018
v 0.460675 -0.467942 0.742843
v 0.460675 0.419782 0.743636
v 0.460675 -0.464996 0.744295
v 0.460675 -0.461885 0.745351
v 0.460675 0.410103 0.745562
v 0.460675 -0.458664 0.745992
v 0.460675 0.399432 0.746261
v 0.460675 -0.454562 0.746261
v 0.334846 0.446183 -0.697719
v 0.460675 0.437978 -0.703202
v 0.334846 0.437978 -0.703202
v 0.460675 0.446183 -0.697719
v 0.460675 0.446183 -0.697719
v 0.334846 0.446183 -0.697719
v 0.460675 0.437978 -0.703202
v 0.334846 0.437978 -0.703202
v 0.334846 0.453603 -0.691213
v 0.460675 0.453603 -0.691213
v 0.460675 0.453603 -0.691213
v 0.334846 0.453603 -0.691213
v 0.460675 0.460110 -0.683793
v 0.334846 0.460110 -0.683793
v 0.460675 0.460110 -0.683793
v 0.334846 0.460110 -0.683793
v 0.460675 0.465592 -0.675588
v 0.334846 0.465592 -0.675588
v 0.460675 0.465592 -0.675588
v 0.334846 0.465592 -0.675588
v 0.460675 0.469957 -0.666736
v 0.334846 0.469957 -0.666736
v 0.460675 0.469957 -0.666736
v 0.334846 0.469957 -0.666736
v 0.460675 0.473129 -0.657392
v 0.334846 0.473129 -0.657392
v 0.460675 0.473129 -0.657392
v 0.334846 0.473129 -0.657392
v 0.334846 0.475054 -0.647713
v 0.460675 0.475054 -0.647713
v 0.460675 0.475054 -0.647713
v 0.334846 0.475054 -0.647713
v 0.334846 0.475754 -0.637042
v 0.460675 0.475754 -0.637042
v 0.460675 0.475754 -0.637042
v 0.334846 0.475754 -0.637042
v 0.460675 0.475754 0.669939
v 0.334846 0.475754 -0.637042
v 0.334846 0.475754 0.669939
v 0.460675 0.475754 -0.637042
v 0.460675 0.475754 -0.637042
v 0.460675 0.475754 0.669939
v 0.334846 0.475754 -0.637042
v 0.334846 0.475754 0.669939
v 0.460675 0.475054 0.680611
v 0.334846 0.475754 0.669939
v 0.334846 0.475054 0.680611
v 0.460675 0.475754 0.669939
v 0.460675 0.475754 0.669939
v 0.460675 0.475054 0.680611
v 0.334846 0.475754 0.669939
v 0.334846 0.475054 0.680611
v 0.460675 0.473129 0.690290
v 0.334846 0.473129 0.690290
v 0.460675 0.473129 0.690290
v 0.334846 0.473129 0.690290
v 0.334846 0.469957 0.699634
v 0.460675 0.469957 0.699634
v 0.460675 0.469957 0.699634
v 0.334846 0.469957 0.699634
v 0.460675 0.465592 0.708485
v 0.334846 0.465592 0.708485
v 0.460675 0.465592 0.708485
v 0.334846 0.465592 0.708485
v 0.460675 0.460110 0.716690
v 0.334846 0.460110 0.716690
v 0.460675 0.460110 0.716690
v 0.334846 0.460110 0.716690
v 0.334846 0.453603 0.724110
v 0.460675 0.453603 0.724110
v 0.460675 0.453603 0.724110
v 0.334846 0.453603 0.724110
v 0.334846 0.446183 0.730617
v 0.460675 0.446183 0.730617
v 0.334846 0.446183 0.730617
v 0.460675 0.446183 0.730617
v 0.334846 0.437978 0.736099
v 0.460675 0.437978 0.736099
v 0.334846 0.437978 0.736099
v 0.460675 0.437978 0.736099
v 0.334846 0.429127 0.740464
v 0.460675 0.429127 0.740464
v 0.334846 0.429127 0.740464
v 0.460675 0.429127 0.740464
v 0.334846 0.419782 0.743636
v 0.460675 0.419782 0.743636
v 0.334846 0.419782 0.743636
v 0.460675 0.419782 0.743636
v 0.334846 0.410103 0.745562
v 0.460675 0.410103 0.745562
v 0.334846 0.410103 0.745562
v 0.460675 0.410103 0.745562
v 0.334846 0.399432 0.746261
v 0.460675 0.399432 0.746261
v 0.334846 0.399432 0.746261
v 0.460675 0.399432 0.746261
v 0.460675 0.399432 0.746261
v 0.334846 -0.454562 0.746261
v 0.460675 -0.454562 0.746261
v 0.334846 0.399432 0.746261
v 0.334846 0.399432 0.746261
v 0.460675 0.399432 0.746261
v 0.334846 -0.454562 0.746261
v 0.460675 -0.454562 0.746261
v 0.460675 -0.454562 0.746261
v 0.334846 -0.458664 0.745992
v 0.460675 -0.458664 0.745992
v 0.334846 -0.454562 0.746261
v 0.334846 -0.454562 0.746261
v 0.460675 -0.454562 0.746261
v 0.334846 -0.458664 0.745992
v 0.460675 -0.458664 0.745992
v 0.334846 -0.461885 0.745351
v 0.460675 -0.461885 0.745351
v 0.334846 -0.461885 0.745351
v 0.460675 -0.461885 0.745351
v 0.334846 -0.464996 0.744295
v 0.460675 -0.464996 0.744295
v 0.334846 -0.464996 0.744295
v 0.460675 -0.464996 0.744295
v 0.334846 -0.467942 0.742843
v 0.460675 -0.467942 0.742843
v 0.334846 -0.467942 0.742843
v 0.460675 -0.467942 0.742843
v 0.334846 -0.470673 0.741018
v 0.460675 -0.470673 0.741018
v 0.334846 -0.470673 0.741018
v 0.460675 -0.470673 0.741018
v 0.334846 -0.473143 0.738852
v 0.460675 -0.473143 0.738852
v 0.334846 -0.473143 0.738852
v 0.460675 -0.473143 0.738852
v 0.460675 -0.475308 0.736382
v 0.334846 -0.475308 0.736382
v 0.460675 -0.475308 0.736382
v 0.334846 -0.475308 0.736382
v 0.460675 -0.477133 0.733651
v 0.334846 -0.477133 0.733651
v 0.460675 -0.477133 0.733651
v 0.334846 -0.477133 0.733651
v 0.460675 -0.478586 0.730705
v 0.334846 -0.478586 0.730705
v 0.460675 -0.478586 0.730705
v 0.334846 -0.478586 0.730705
v 0.334846 -0.479642 0.727595
v 0.460675 -0.479642 0.727595
v 0.460675 -0.479642 0.727595
v 0.334846 -0.479642 0.727595
v 0.334846 -0.480283 0.724373
v 0.460675 -0.480283 0.724373
v 0.460675 -0.480283 0.724373
v 0.334846 -0.480283 0.724373
v 0.460675 -0.480552 0.720271
v 0.334846 -0.480552 0.720271
v 0.460675 -0.480552 0.720271
v 0.334846 -0.480552 0.720271
v 0.334846 -0.480552 -0.687374
v 0.460675 -0.480552 0.720271
v 0.334846 -0.480552 0.720271
v 0.460675 -0.480552 -0.687374
v 0.460675 -0.480552 -0.687374
v 0.334846 -0.480552 -0.687374
v 0.460675 -0.480552 0.720271
v 0.334846 -0.480552 0.720271
v 0.460675 -0.480283 -0.691475
v 0.334846 -0.480552 -0.687374
v 0.334846 -0.480283 -0.691475
v 0.460675 -0.480552 -0.687374
v 0.460675 -0.480552 -0.687374
v 0.460675 -0.480283 -0.691475
v 0.334846 -0.480552 -0.687374
v 0.334846 -0.480283 -0.691475
v 0.334846 -0.479642 -0.694697
v 0.460675 -0.479642 -0.694697
v 0.460675 -0.479642 -0.694697
v 0.334846 -0.479642 -0.694697
v 0.460675 -0.478586 -0.697807
v 0.334846 -0.478586 -0.697807
v 0.460675 -0.478586 -0.697807
v 0.334846 -0.478586 -0.697807
v 0.334846 -0.477133 -0.700754
v 0.460675 -0.477133 -0.700754
v 0.460675 -0.477133 -0.700754
v 0.334846 -0.477133 -0.700754
v 0.460675 -0.475308 -0.703484
v 0.334846 -0.475308 -0.703484
v 0.460675 -0.475308 -0.703484
v 0.334846 -0.475308 -0.703484
v 0.460675 -0.473143 -0.705954
v 0.334846 -0.473143 -0.705954
v 0.460675 -0.473143 -0.705954
v 0.334846 -0.473143 -0.705954
v 0.334846 -0.470673 -0.708120
v 0.460675 -0.470673 -0.708120
v 0.460675 -0.470673 -0.708120
v 0.334846 -0.470673 -0.708120
v 0.334846 -0.467942 -0.709944
v 0.460675 -0.467942 -0.709944
v 0.460675 -0.467942 -0.709944
v 0.334846 -0.467942 -0.709944
v 0.334846 -0.464996 -0.711398
v 0.460675 -0.464996 -0.711398
v 0.460675 -0.464996 -0.711398
v 0.334846 -0.464996 -0.711398
v 0.334846 -0.461885 -0.712454
v 0.460675 -0.461885 -0.712454
v 0.460675 -0.461885 -0.712454
v 0.334846 -0.461885 -0.712454
v 0.334846 -0.458664 -0.713094
v 0.460675 -0.458664 -0.713094
v 0.460675 -0.458664 -0.713094
v 0.334846 -0.458664 -0.713094
v 0.334846 -0.454562 -0.713363
v 0.460675 -0.454562 -0.713363
v 0.460675 -0.454562 -0.713363
v 0.334846 -0.454562 -0.713363
v 0.334846 0.399432 -0.713363
v 0.460675 -0.454562 -0.713363
v 0.334846 -0.454562 -0.713363
v 0.460675 0.399432 -0.713363
v 0.460675 0.399432 -0.713363
v 0.334846 0.399432 -0.713363
v 0.460675 -0.454562 -0.713363
v 0.334846 -0.454562 -0.713363
v 0.334846 0.410103 -0.712664
v 0.460675 0.399432 -0.713363
v 0.334846 0.399432 -0.713363
v 0.460675 0.410103 -0.712664
v 0.460675 0.410103 -0.712664
v 0.334846 0.410103 -0.712664
v 0.460675 0.399432 -0.713363
v 0.334846 0.399432 -0.713363
v 0.334846 0.419782 -0.710738
v 0.460675 0.419782 -0.710738
v 0.460675 0.419782 -0.710738
v 0.334846 0.419782 -0.710738
v 0.334846 0.429127 -0.707566
v 0.460675 0.429127 -0.707566
v 0.460675 0.429127 -0.707566
v 0.334846 0.429127 -0.707566
vn 1 0 0
vn 0 0.6087614302095282 -0.7933533393698231
vn 0 0.5000000016387102 -0.8660254028383289
vn 0 0.7071067811865477 -0.7071067811865474
vn 0 0.7933533393698233 -0.6087614302095278
vn 0 0.8660254028383291 -0.5000000016387098
vn 0 0.9238795391929066 -0.3826834162342324
vn 0 0.9659258358036645 -0.25881900959356136
vn 0 0.9914448610250888 -0.1305261948688553
vn 0 0.9978589230889556 -0.06540313151332994
vn 0 1 0
vn 0 0.9914448610250888 0.13052619486885575
vn 0 0.9978589230889554 0.06540313151333037
vn 0 0.9659258358036644 0.2588190095935618
vn 0 0.9238795391929063 0.3826834162342328
vn 0 0.8660254028383289 0.5000000016387102
vn 0 0.7933533393698231 0.6087614302095282
vn 0 0.7071067811865474 0.7071067811865477
vn 0 0.6087614302095278 0.7933533393698233
vn 0 0.5000000016387098 0.8660254028383291
vn 0 0.3826834162342324 0.9238795391929066
vn 0 0.25881900959356136 0.9659258358036645
vn 0 0.1305261948688553 0.9914448610250888
vn 0 0.06540313151332994 0.9978589230889556
vn 0 0 1
vn 0 -0.06540313151333037 0.9978589230889554
vn 0 -0.13052619486885575 0.9914448610250888
vn 0 -0.2588190095935618 0.9659258358036644
vn 0 -0.3826834162342328 0.9238795391929063
vn 0 -0.5000000016387102 0.8660254028383289
vn 0 -0.6087614302095282 0.7933533393698231
vn 0 -0.7071067811865477 0.7071067811865474
vn 0 -0.7933533393698233 0.6087614302095278
vn 0 -0.8660254028383291 0.5000000016387098
vn 0 -0.9238795391929066 0.3826834162342324
vn 0 -0.9659258358036645 0.25881900959356136
vn 0 -0.9914448610250888 0.1305261948688553
vn 0 -0.9978589230889556 0.06540313151332994
vn 0 -1 0
vn 0 -0.9914448610250888 -0.13052619486885575
vn 0 -0.9978589230889554 -0.06540313151333037
vn 0 -0.9659258358036644 -0.2588190095935618
vn 0 -0.9238795391929063 -0.3826834162342328
vn 0 -0.8660254028383289 -0.5000000016387102
vn 0 -0.7933533393698231 -0.6087614302095282
vn 0 -0.7071067811865474 -0.7071067811865477
vn 0 -0.6087614302095278 -0.7933533393698233
vn 0 -0.5000000016387098 -0.8660254028383291
vn 0 -0.3826834162342324 -0.9238795391929066
vn 0 -0.25881900959356136 -0.9659258358036645
vn 0 -0.1305261948688553 -0.9914448610250888
vn 0 -0.06540313151332994 -0.9978589230889556
vn 0 0 -1
vn 0 0.13052619486885575 -0.9914448610250888
vn 0 0.06540313151333037 -0.9978589230889554
vn 0 0.2588190095935618 -0.9659258358036644
vn 0 0.3826834162342328 -0.9238795391929063
vn -1 0 0
usemtl material_0_0
f 1//1 2//1 3//1
f 2//1 1//1 4//1
f 4//1 1//1 5//1
f 4//1 5//1 6//1
f 6//1 5//1 7//1
f 6//1 7//1 8//1
f 6//1 8//1 9//1
f 9//1 8//1 10//1
f 9//1 10//1 11//1
f 9//1 11//1 12//1
f 12//1 11//1 13//1
f 12//1 13//1 14//1
f 12//1 14//1 15//1
f 15//1 14//1 16//1
f 15//1 16//1 17//1
f 15//1 17//1 18//1
f 18//1 17//1 19//1
f 18//1 19//1 20//1
f 18//1 20//1 21//1
f 21//1 20//1 22//1
f 21//1 22//1 23//1
f 23//1 22//1 24//1
f 24//1 22//1 25//1
f 25//1 22//1 26//1
f 26//1 22//1 27//1
f 27//1 22//1 28//1
f 28//1 22//1 29//1
f 29//1 22//1 30//1
f 30//1 22//1 31//1
f 31//1 22//1 32//1
f 32//1 22//1 33//1
f 33//1 22//1 34//1
f 34//1 22//1 35//1
f 34//1 35//1 36//1
f 36//1 35//1 37//1
f 36//1 37//1 38//1
f 36//1 38//1 39//1
f 39//1 38//1 40//1
f 39//1 40//1 41//1
f 39//1 41//1 42//1
f 42//1 41//1 43//1
f 42//1 43//1 44//1
f 42//1 44//1 45//1
f 45//1 44//1 46//1
f 45//1 46//1 47//1
f 45//1 47//1 48//1
f 48//1 47//1 49//1
f 48//1 49//1 50//1
f 48//1 50//1 51//1
f 51//1 50//1 52//1
f 105//2 106//3 107//3
f 106//3 105//2 108//2
f 113//4 108//2 105//2
f 108//2 113//4 114//4
f 117//5 113//4 118//5
f 113//4 117//5 114//4
f 121//6 118//5 122//6
f 118//5 121//6 117//5
f 125//7 122//6 126//7
f 122//6 125//7 121//6
f 129//8 126//7 130//8
f 126//7 129//8 125//7
f 133//9 129//8 130//8
f 129//8 133//9 134//9
f 137//10 134//9 133//9
f 134//9 137//10 138//10
f 141//11 142//11 143//11
f 142//11 141//11 144//11
f 149//12 150//13 151//12
f 150//13 149//12 152//13
f 157//14 151//12 158//14
f 151//12 157//14 149//12
f 161//15 157//14 158//14
f 157//14 161//15 162//15
f 165//16 161//15 166//16
f 161//15 165//16 162//15
f 169//17 166//16 170//17
f 166//16 169//17 165//16
f 173//18 169//17 170//17
f 169//17 173//18 174//18
f 174//18 177//19 178//19
f 177//19 174//18 173//18
f 178//19 181//20 182//20
f 181//20 178//19 177//19
f 182//20 185//21 186//21
f 185//21 182//20 181//20
f 186//21 189//22 190//22
f 189//22 186//21 185//21
f 190//22 193//23 194//23
f 193//23 190//22 189//22
f 194//23 197//24 198//24
f 197//24 194//23 193//23
f 201//25 202//25 203//25
f 202//25 201//25 204//25
f 209//26 210//27 211//27
f 210//27 209//26 212//26
f 211//27 217//28 218//28
f 217//28 211//27 210//27
f 218//28 221//29 222//29
f 221//29 218//28 217//28
f 222//29 225//30 226//30
f 225//30 222//29 221//29
f 226//30 229//31 230//31
f 229//31 226//30 225//30
f 230//31 233//32 234//32
f 233//32 230//31 229//31
f 237//33 233//32 238//33
f 233//32 237//33 234//32
f 241//34 238//33 242//34
f 238//33 241//34 237//33
f 245//35 242//34 246//35
f 242//34 245//35 241//34
f 249//36 245//35 246//35
f 245//35 249//36 250//36
f 253//37 250//36 249//36
f 250//36 253//37 254//37
f 257//38 253//37 258//38
f 253//37 257//38 254//37
f 261//39 262//39 263//39
f 262//39 261//39 264//39
f 269//40 270//41 271//40
f 270//41 269//40 272//41
f 277//42 269//40 271//40
f 269//40 277//42 278//42
f 281//43 277//42 282//43
f 277//42 281//43 278//42
f 285//44 281//43 282//43
f 281//43 285//44 286//44
f 289//45 285//44 290//45
f 285//44 289//45 286//44
f 293//46 290//45 294//46
f 290//45 293//46 289//45
f 297//47 293//46 294//46
f 293//46 297//47 298//47
f 301//48 298//47 297//47
f 298//47 301//48 302//48
f 305//49 302//48 301//48
f 302//48 305//49 306//49
f 309//50 306//49 305//49
f 306//49 309//50 310//50
f 313//51 310//50 309//50
f 310//50 313//51 314//51
f 317//52 314//51 313//51
f 314//51 317//52 318//52
f 321//53 322//53 323//53
f 322//53 321//53 324//53
f 329//54 330//55 331//55
f 330//55 329//54 332//54
f 337//56 332//54 329//54
f 332//54 337//56 338//56
f 341//57 338//56 337//56
f 338//56 341//57 342//57
f 107//3 342//57 341//57
f 342//57 107//3 106//3
usemtl material_1_0
f 53//58 54//58 55//58
f 55//58 54//58 56//58
f 54//58 57//58 56//58
f 57//58 58//58 56//58
f 56//58 58//58 59//58
f 58//58 60//58 59//58
f 60//58 61//58 59//58
f 59//58 61//58 62//58
f 61//58 63//58 62//58
f 63//58 64//58 62//58
f 62//58 64//58 65//58
f 64//58 66//58 65//58
f 66//58 67//58 65//58
f 65//58 67//58 68//58
f 67//58 69//58 68//58
f 69//58 70//58 68//58
f 68//58 70//58 71//58
f 70//58 72//58 71//58
f 71//58 72//58 73//58
f 73//58 72//58 74//58
f 74//58 72//58 75//58
f 75//58 72//58 76//58
f 76//58 72//58 77//58
f 77//58 72//58 78//58
f 78//58 72//58 79//58
f 79//58 72//58 80//58
f 80//58 72//58 81//58
f 81//58 72//58 82//58
f 82//58 72//58 83//58
f 83//58 72//58 84//58
f 72//58 85//58 84//58
f 84//58 85//58 86//58
f 85//58 87//58 86//58
f 87//58 88//58 86//58
f 86//58 88//58 89//58
f 88//58 90//58 89//58
f 90//58 91//58 89//58
f 89//58 91//58 92//58
f 91//58 93//58 92//58
f 93//58 94//58 92//58
f 92//58 94//58 95//58
f 94//58 96//58 95//58
f 96//58 97//58 95//58
f 95//58 97//58 98//58
f 97//58 99//58 98//58
f 99//58 100//58 98//58
f 98//58 100//58 101//58
f 100//58 102//58 101//58
f 101//58 102//58 103//58
f 104//58 103//58 102//58
f 109//31 110//31 111//30
f 112//30 111//30 110//31
f 115//32 116//32 109//31
f 110//31 109//31 116//32
f 115//32 119//33 116//32
f 120//33 116//32 119//33
f 119//33 123//34 120//33
f 124//34 120//33 123//34
f 123//34 127//35 124//34
f 128//35 124//34 127//35
f 127//35 131//36 128//35
f 132//36 128//35 131//36
f 135//37 136//37 131//36
f 132//36 131//36 136//37
f 139//38 140//38 135//37
f 136//37 135//37 140//38
f 145//39 146//39 147//39
f 148//39 147//39 146//39
f 153//41 154//40 155//41
f 156//40 155//41 154//40
f 154//40 159//42 156//40
f 160//42 156//40 159//42
f 163//43 164//43 159//42
f 160//42 159//42 164//43
f 163//43 167//44 164//43
f 168//44 164//43 167//44
f 167//44 171//45 168//44
f 172//45 168//44 171//45
f 175//46 176//46 171//45
f 172//45 171//45 176//46
f 176//46 175//46 179//47
f 180//47 179//47 175//46
f 179//47 180//47 183//48
f 184//48 183//48 180//47
f 183//48 184//48 187//49
f 188//49 187//49 184//48
f 187//49 188//49 191//50
f 192//50 191//50 188//49
f 191//50 192//50 195//51
f 196//51 195//51 192//50
f 195//51 196//51 199//52
f 200//52 199//52 196//51
f 205//53 206//53 207//53
f 208//53 207//53 206//53
f 213//55 214//55 215//54
f 216//54 215//54 214//55
f 215//54 216//54 219//56
f 220//56 219//56 216//54
f 219//56 220//56 223//57
f 224//57 223//57 220//56
f 223//57 224//57 227//3
f 228//3 227//3 224//57
f 227//3 228//3 231//2
f 232//2 231//2 228//3
f 231//2 232//2 235//4
f 236//4 235//4 232//2
f 236//4 239//5 235//4
f 240//5 235//4 239//5
f 239//5 243//6 240//5
f 244//6 240//5 243//6
f 243//6 247//7 244//6
f 248//7 244//6 247//7
f 251//8 252//8 247//7
f 248//7 247//7 252//8
f 255//9 256//9 251//8
f 252//8 251//8 256//9
f 255//9 259//10 256//9
f 260//10 256//9 259//10
f 265//11 266//11 267//11
f 268//11 267//11 266//11
f 273//13 274//12 275//13
f 276//12 275//13 274//12
f 279//14 280//14 274//12
f 276//12 274//12 280//14
f 279//14 283//15 280//14
f 284//15 280//14 283//15
f 287//16 288//16 283//15
f 284//15 283//15 288//16
f 287//16 291//17 288//16
f 292//17 288//16 291//17
f 291//17 295//18 292//17
f 296//18 292//17 295//18
f 299//19 300//19 295//18
f 296//18 295//18 300//19
f 303//20 304//20 299//19
f 300//19 299//19 304//20
f 307//21 308//21 303//20
f 304//20 303//20 308//21
f 311//22 312//22 307//21
f 308//21 307//21 312//22
f 315//23 316//23 311//22
f 312//22 311//22 316//23
f 319//24 320//24 315//23
f 316//23 315//23 320//24
f 325//25 326//25 327//25
f 328//25 327//25 326//25
f 333//27 334//27 335//26
f 336//26 335//26 334//27
f 339//28 340//28 333//27
f 334//27 333//27 340//28
f 343//29 344//29 339//28
f 340//28 339//28 344//29
f 111//30 112//30 343//29
f 344//29 343//29 112//30
