# SSTK version 0.8.0
# 86
mtllib original-86.mtl
o Table_Top_1_1/Table_Top_1/mesh98/mesh98-geometry#mesh98-geometry
v 0.800024 0.497977 -0.245099
v 0.800024 0.497977 0.262532
v 0.800024 0.472596 -0.245099
v -0.824394 0.497977 -0.245099
v 0.800024 0.472596 0.262532
v -0.824394 0.497977 0.262532
v -0.824394 0.472596 0.262532
v -0.824394 0.472596 -0.245099
vt 1.5 0
vt 0 0
vt 1.5 0.075
vt -1.5 0
vt -1.5 4.8
vt 0 0.075
vt 4.8 0
vt 0 4.8
vt -4.8 0.075
vt 4.8 0.075
vt -4.8 0
vt 1.5 4.8
vt -1.5 0.075
vn 1 0 0
vn -1 0 0
vn 0 1 0
vn 0 -1 0
vn 0 0 -1
vn 0 0 1
usemtl material_0_0
f 1/1/1 2/2/1 3/3/1
f 3/3/2 2/2/2 1/1/2
f 1/4/3 4/5/3 2/2/3
f 2/2/4 4/5/4 1/4/4
f 5/6/1 3/3/1 2/2/1
f 2/2/2 3/3/2 5/6/2
f 1/2/5 3/6/5 4/7/5
f 4/7/6 3/6/6 1/2/6
f 6/8/3 2/2/3 4/5/3
f 4/5/4 2/2/4 6/8/4
f 5/2/4 7/8/4 3/1/4
f 3/1/3 7/8/3 5/2/3
f 5/6/6 2/2/6 7/9/6
f 7/9/5 2/2/5 5/6/5
f 8/10/5 4/7/5 3/6/5
f 3/6/6 4/7/6 8/10/6
f 6/11/6 7/9/6 2/2/6
f 2/2/5 7/9/5 6/11/5
f 6/2/2 4/4/2 7/6/2
f 7/6/1 4/4/1 6/2/1
f 8/12/4 3/1/4 7/8/4
f 7/8/3 3/1/3 8/12/3
f 8/13/2 7/6/2 4/4/2
f 4/4/1 7/6/1 8/13/1
