# SSTK version 0.8.0
# 35
mtllib original-35.mtl
o Mid_Table1/Mid_Table/mesh41/mesh41-geometry#mesh41-geometry
v -0.748637 0.237367 0.245611
v -0.748637 0.237367 -0.228178
v -0.748637 0.211986 0.245611
v 0.723492 0.237367 0.245611
v -0.748637 0.211986 -0.228178
v 0.723492 0.237367 -0.228178
v 0.723492 0.211986 -0.228178
v 0.723492 0.211986 0.245611
vt 0 0
vt -0.116667 0
vt 0 0.015625
vt 0 0.958333
vt 0 0.052083
vt -0.116667 0.958333
vt -0.116667 0.015625
vt -0.383333 0
vt -0.383333 0.015625
vt -0.020833 0
vt -0.116667 0.052083
vt 0.116667 0.958333
vt 0.116667 0.052083
vt 0.383333 0.015625
vt 0.383333 0
vt 0.020833 0.015625
vt -0.020833 0.015625
vt 0.020833 0
vt 0.116667 0
vt 0.116667 0.015625
vn -1 0 0
vn 1 0 0
vn 0 1 0
vn 0 -1 0
vn 0 0 1
vn 0 0 -1
usemtl material_0_0
f 1/1/1 2/2/1 3/3/1
f 3/3/2 2/2/2 1/1/2
f 1/4/3 4/5/3 2/6/3
f 2/6/4 4/5/4 1/4/4
f 5/7/1 3/3/1 2/2/1
f 2/2/2 3/3/2 5/7/2
f 1/8/5 3/9/5 4/10/5
f 4/10/6 3/9/6 1/8/6
f 6/11/3 2/6/3 4/5/3
f 4/5/4 2/6/4 6/11/4
f 5/12/4 7/13/4 3/4/4
f 3/4/3 7/13/3 5/12/3
f 5/14/6 2/15/6 7/16/6
f 7/16/5 2/15/5 5/14/5
f 8/17/5 4/10/5 3/9/5
f 3/9/6 4/10/6 8/17/6
f 6/18/6 7/16/6 2/15/6
f 2/15/5 7/16/5 6/18/5
f 6/19/2 4/1/2 7/20/2
f 7/20/1 4/1/1 6/19/1
f 8/5/4 3/4/4 7/13/4
f 7/13/3 3/4/3 8/5/3
f 8/3/2 7/20/2 4/1/2
f 4/1/1 7/20/1 8/3/1
