# SSTK version 0.8.0
# 23
mtllib original-23.mtl
o Draw_Top_Base1/Draw_Top_Base/mesh21/mesh21-geometry#mesh21-geometry
v 0.122796 0.252173 -0.211257
v 0.122796 0.244770 -0.211257
v 0.122796 0.252173 0.237151
v 0.131256 0.244770 -0.211257
v 0.122796 0.244770 0.237151
v 0.681189 0.252173 0.237151
v 0.672729 0.244770 -0.211257
v 0.131256 0.244770 0.237151
v 0.672729 0.244770 0.237151
v 0.681189 0.252173 -0.211257
v 0.681189 0.244770 -0.211257
v 0.131256 0.244770 -0.228178
v 0.681189 0.244770 0.237151
v 0.672729 0.244770 -0.228178
v 0.131256 0.237367 0.237151
v 0.672729 0.237367 -0.228178
v 0.131256 0.237367 -0.228178
v 0.672729 0.237367 0.237151
vt -0.200758 0
vt -0.200758 0.003788
vt 0 0
vt 0.242424 0.003788
vt 0.242424 0
vt 0.238636 0.003788
vt 0 0.003788
vt 0 0.242424
vt 0 -0.007576
vt -0.200758 0.242424
vt -0.003788 0.003788
vt 0.200758 0.242424
vt 0.200758 0.238636
vt -0.242424 0.003788
vt -0.238636 0.003788
vt -0.242424 0
vt 0.003788 0.003788
vt 0.007576 0
vt -0.200758 -0.007576
vt -0.007576 0.003788
vt -0.200758 0.238636
vt -0.200758 -0.003788
vt -0.208333 0.238636
vt 0 0.238636
vt 0.007576 0.003788
vt -0.007576 0
vt 0.200758 0
vt 0.200758 0.003788
vt 0.200758 -0.003788
vt 0.200758 -0.007576
vt 0 -0.003788
vt -0.208333 -0.003788
vt -0.208333 0.003788
vt -0.238636 0.007576
vt 0.208333 0.007576
vt -0.003788 0.007576
vt 0.208333 0.003788
vt -0.208333 0.007576
vt 0.003788 0.007576
vt 0 0.007576
vt 0.238636 0.007576
vt 0.208333 -0.003788
vt 0.208333 0.238636
vn -1 0 0
vn 1 0 0
vn 0 0 -1
vn 0 0 1
vn 0 1 0
vn 0 -1 0
usemtl material_0_0
f 1/1/1 2/2/1 3/3/1
f 3/3/2 2/2/2 1/1/2
f 2/4/3 1/5/3 4/6/3
f 4/6/4 1/5/4 2/4/4
f 5/7/1 3/3/1 2/2/1
f 2/2/2 3/3/2 5/7/2
f 3/8/5 6/9/5 1/10/5
f 1/10/6 6/9/6 3/8/6
f 4/6/3 1/5/3 7/11/3
f 7/11/4 1/5/4 4/6/4
f 2/12/6 4/13/6 5/8/6
f 5/8/5 4/13/5 2/12/5
f 5/14/4 8/15/4 3/16/4
f 3/16/3 8/15/3 5/14/3
f 3/16/4 9/17/4 6/18/4
f 6/18/3 9/17/3 3/16/3
f 10/19/5 1/10/5 6/9/5
f 6/9/6 1/10/6 10/19/6
f 7/11/3 1/5/3 11/20/3
f 11/20/4 1/5/4 7/11/4
f 4/21/5 7/22/5 12/23/5
f 12/23/6 7/22/6 4/21/6
f 8/24/6 5/8/6 4/13/6
f 4/13/5 5/8/5 8/24/5
f 8/15/4 9/17/4 3/16/4
f 3/16/3 9/17/3 8/15/3
f 13/25/4 6/18/4 9/17/4
f 9/17/3 6/18/3 13/25/3
f 10/26/3 11/20/3 1/5/3
f 1/5/4 11/20/4 10/26/4
f 10/27/2 6/3/2 11/28/2
f 11/28/1 6/3/1 10/27/1
f 7/29/6 11/30/6 9/31/6
f 9/31/5 11/30/5 7/29/5
f 14/32/5 12/23/5 7/22/5
f 7/22/6 12/23/6 14/32/6
f 4/2/1 12/33/1 8/7/1
f 8/7/2 12/33/2 4/2/2
f 15/34/4 9/17/4 8/15/4
f 8/15/3 9/17/3 15/34/3
f 13/7/2 11/28/2 6/3/2
f 6/3/1 11/28/1 13/7/1
f 13/9/6 9/31/6 11/30/6
f 11/30/5 9/31/5 13/9/5
f 9/7/2 16/35/2 7/28/2
f 7/28/1 16/35/1 9/7/1
f 14/11/3 16/36/3 12/6/3
f 12/6/4 16/36/4 14/11/4
f 14/37/2 7/28/2 16/35/2
f 16/35/1 7/28/1 14/37/1
f 17/38/1 8/7/1 12/33/1
f 12/33/2 8/7/2 17/38/2
f 18/39/4 9/17/4 15/34/4
f 15/34/3 9/17/3 18/39/3
f 15/40/1 8/7/1 17/38/1
f 17/38/2 8/7/2 15/40/2
f 18/40/2 16/35/2 9/7/2
f 9/7/1 16/35/1 18/40/1
f 17/41/3 12/6/3 16/36/3
f 16/36/4 12/6/4 17/41/4
f 18/31/6 15/24/6 16/42/6
f 16/42/5 15/24/5 18/31/5
f 17/43/6 16/42/6 15/24/6
f 15/24/5 16/42/5 17/43/5
