# SSTK version 0.8.0
# 97
mtllib original-97.mtl
o Door_Panel1/Door_Panel/mesh112/mesh112-geometry#mesh112-geometry
v -0.469440 0.121337 0.220216
v -0.080257 -0.458812 0.220216
v -0.080257 0.121337 0.220216
v -0.469440 -0.458812 0.220216
v -0.080257 0.121337 0.213870
v -0.469440 -0.458812 0.213870
v -0.080257 -0.458812 0.213870
v -0.469440 0.121337 0.213870
v -0.080257 -0.476942 0.213870
v -0.486361 0.139467 0.213870
v -0.063336 -0.476942 0.213870
v -0.063336 0.139467 0.213870
v -0.469440 -0.476942 0.213870
v -0.486361 -0.476942 0.209640
v -0.063336 0.139467 0.209640
v -0.486361 -0.476942 0.213870
v -0.063336 -0.476942 0.209640
v -0.486361 0.139467 0.209640
v -0.469440 -0.476942 0.209640
v -0.080257 0.121337 0.209640
v -0.469440 -0.458812 0.209640
v -0.080257 -0.476942 0.209640
v -0.469440 0.121337 0.209640
v -0.080257 -0.458812 0.209640
v -0.080257 0.121337 0.203295
v -0.469440 -0.458812 0.203295
v -0.469440 0.121337 0.203295
v -0.080257 -0.458812 0.203295
vt -0.559896 0.6875
vt -0.080729 0.020833
vt -0.080729 0.6875
vt -0.559896 0.020833
vt 0 0.020833
vt 0.007812 0.6875
vt 0 0.6875
vt 0.007812 0.080729
vt 0 0.559896
vt 0 0.080729
vt -0.007812 0.020833
vt -0.007812 0.559896
vt 0.007812 0.020833
vt 0.007812 0.559896
vt -0.007812 0.6875
vt -0.007812 0.080729
vt -0.080729 0
vt -0.580729 0.708333
vt -0.059896 0
vt -0.059896 0.708333
vt -0.559896 0
vt -0.013021 0.580729
vt -0.007812 0.059896
vt 0.013021 0.059896
vt 0.007812 0.580729
vt 0.007812 0.059896
vt -0.580729 0
vt -0.013021 0.059896
vt 0.007812 0
vt 0.013021 0.708333
vt 0.007812 0.708333
vt 0.013021 0.580729
vt -0.007812 0.708333
vt -0.013021 0
vt -0.007812 0
vt -0.007812 0.580729
vt -0.013021 0.559896
vt 0.013021 0
vt 0.059896 0.708333
vt 0.080729 0.6875
vt 0.580729 0.708333
vt -0.013021 0.708333
vt 0.580729 0
vt 0.559896 0.020833
vt 0.559896 0
vt -0.013021 0.080729
vt 0.080729 0
vt 0.059896 0
vt 0.559896 0.6875
vt 0.080729 0.020833
vt 0.020833 0.080729
vt 0.013021 0.559896
vt 0.013021 0.080729
vt -0.013021 0.6875
vt -0.020833 0.020833
vt -0.013021 0.020833
vt -0.020833 0.559896
vt 0.013021 0.020833
vt 0.020833 0.6875
vt 0.013021 0.6875
vt 0.020833 0.559896
vt -0.020833 0.6875
vt -0.020833 0.080729
vt 0.020833 0.020833
vn 0 0 1
vn 0 0 -1
vn 1 0 0
vn -1 0 0
vn 0 1 0
vn 0 -1 0
usemtl material_0_0
f 1/1/1 2/2/1 3/3/1
f 2/2/1 1/1/1 4/4/1
f 3/3/2 2/2/2 1/1/2
f 4/4/2 1/1/2 2/2/2
f 2/5/3 5/6/3 3/7/3
f 3/7/4 5/6/4 2/5/4
f 5/8/5 1/9/5 3/10/5
f 3/10/6 1/9/6 5/8/6
f 1/7/4 6/11/4 4/5/4
f 4/5/3 6/11/3 1/7/3
f 6/12/6 2/10/6 4/9/6
f 4/9/5 2/10/5 6/12/5
f 5/6/3 2/5/3 7/13/3
f 7/13/4 2/5/4 5/6/4
f 1/9/5 5/8/5 8/14/5
f 8/14/6 5/8/6 1/9/6
f 6/11/4 1/7/4 8/15/4
f 8/15/3 1/7/3 6/11/3
f 2/10/6 6/12/6 7/16/6
f 7/16/5 6/12/5 2/10/5
f 9/17/1 5/3/1 7/2/1
f 7/2/2 5/3/2 9/17/2
f 8/1/1 7/2/1 5/3/1
f 5/3/2 7/2/2 8/1/2
f 5/3/1 10/18/1 8/1/1
f 8/1/2 10/18/2 5/3/2
f 8/1/1 10/18/1 6/4/1
f 6/4/2 10/18/2 8/1/2
f 7/2/1 8/1/1 6/4/1
f 6/4/2 8/1/2 7/2/2
f 6/4/1 9/17/1 7/2/1
f 7/2/2 9/17/2 6/4/2
f 5/3/1 9/17/1 11/19/1
f 11/19/2 9/17/2 5/3/2
f 5/3/1 12/20/1 10/18/1
f 10/18/2 12/20/2 5/3/2
f 6/4/1 10/18/1 13/21/1
f 13/21/2 10/18/2 6/4/2
f 9/17/1 6/4/1 13/21/1
f 13/21/2 6/4/2 9/17/2
f 9/16/6 14/22/6 11/23/6
f 11/23/5 14/22/5 9/16/5
f 12/20/1 5/3/1 11/19/1
f 11/19/2 5/3/2 12/20/2
f 15/24/5 10/25/5 12/26/5
f 12/26/6 10/25/6 15/24/6
f 13/21/1 10/18/1 16/27/1
f 16/27/2 10/18/2 13/21/2
f 13/12/6 14/22/6 9/16/6
f 9/16/5 14/22/5 13/12/5
f 11/23/6 14/22/6 17/28/6
f 17/28/5 14/22/5 11/23/5
f 11/29/3 15/30/3 12/31/3
f 12/31/4 15/30/4 11/29/4
f 10/25/5 15/24/5 18/32/5
f 18/32/6 15/24/6 10/25/6
f 10/33/4 14/34/4 16/35/4
f 16/35/3 14/34/3 10/33/3
f 14/22/6 13/12/6 16/36/6
f 16/36/5 13/12/5 14/22/5
f 17/28/6 14/22/6 19/37/6
f 19/37/5 14/22/5 17/28/5
f 15/30/3 11/29/3 17/38/3
f 17/38/4 11/29/4 15/30/4
f 15/39/2 20/40/2 18/41/2
f 18/41/1 20/40/1 15/39/1
f 14/34/4 10/33/4 18/42/4
f 18/42/3 10/33/3 14/34/3
f 14/43/2 21/44/2 19/45/2
f 19/45/1 21/44/1 14/43/1
f 17/28/6 19/37/6 22/46/6
f 22/46/5 19/37/5 17/28/5
f 22/47/2 15/39/2 17/48/2
f 17/48/1 15/39/1 22/47/1
f 15/39/2 22/47/2 20/40/2
f 20/40/1 22/47/1 15/39/1
f 18/41/2 20/40/2 23/49/2
f 23/49/1 20/40/1 18/41/1
f 18/41/2 23/49/2 14/43/2
f 14/43/1 23/49/1 18/41/1
f 21/44/2 14/43/2 23/49/2
f 23/49/1 14/43/1 21/44/1
f 24/50/2 19/45/2 21/44/2
f 21/44/1 19/45/1 24/50/1
f 19/45/2 24/50/2 22/47/2
f 22/47/1 24/50/1 19/45/1
f 20/40/2 22/47/2 24/50/2
f 24/50/1 22/47/1 20/40/1
f 25/51/5 23/52/5 20/53/5
f 20/53/6 23/52/6 25/51/6
f 20/40/2 21/44/2 23/49/2
f 23/49/1 21/44/1 20/40/1
f 23/54/4 26/55/4 21/56/4
f 21/56/3 26/55/3 23/54/3
f 26/57/6 24/46/6 21/37/6
f 21/37/5 24/46/5 26/57/5
f 21/44/2 20/40/2 24/50/2
f 24/50/1 20/40/1 21/44/1
f 24/58/3 25/59/3 20/60/3
f 20/60/4 25/59/4 24/58/4
f 23/52/5 25/51/5 27/61/5
f 27/61/6 25/51/6 23/52/6
f 26/55/4 23/54/4 27/62/4
f 27/62/3 23/54/3 26/55/3
f 24/46/6 26/57/6 28/63/6
f 28/63/5 26/57/5 24/46/5
f 25/59/3 24/58/3 28/64/3
f 28/64/4 24/58/4 25/59/4
f 25/40/2 26/44/2 27/49/2
f 27/49/1 26/44/1 25/40/1
f 26/44/2 25/40/2 28/50/2
f 28/50/1 25/40/1 26/44/1
