# SSTK version 0.8.0
# 28
mtllib original-28.mtl
o mesh67/mesh67-geometry#mesh67-geometry
v 0.365074 0.459784 -0.690554
v 0.364310 0.457073 -0.687843
v 0.364436 0.455966 -0.686736
v 0.363847 0.459999 -0.690768
v 0.364436 0.452832 -0.689871
v 0.364310 0.454832 -0.685602
v 0.365074 0.456649 -0.693688
v 0.363933 0.457931 -0.688701
v 0.364310 0.453939 -0.690978
v 0.364310 0.451697 -0.688736
v 0.363903 0.451874 -0.682643
v 0.363847 0.456864 -0.693903
v 0.366174 0.456292 -0.693331
v 0.363345 0.458482 -0.689252
v 0.365119 0.452095 -0.682865
v 0.363933 0.453954 -0.684724
v 0.363933 0.450819 -0.687858
v 0.362494 0.460070 -0.690840
v 0.366174 0.459426 -0.690196
v 0.365119 0.448961 -0.686000
v 0.363933 0.454797 -0.691836
v 0.363903 0.448739 -0.685778
v 0.363345 0.453392 -0.684162
v 0.362494 0.456936 -0.693975
v 0.367148 0.455791 -0.692830
v 0.366208 0.449331 -0.686370
v 0.362583 0.458665 -0.689435
v 0.363345 0.455347 -0.692386
v 0.366208 0.452465 -0.683235
v 0.362561 0.448665 -0.685704
v 0.363345 0.450257 -0.687296
v 0.362561 0.451800 -0.682569
v 0.361189 0.459998 -0.690767
v 0.367148 0.458926 -0.689696
v 0.361763 0.458496 -0.689266
v 0.362583 0.455531 -0.692570
v 0.362583 0.453204 -0.683974
v 0.361189 0.456863 -0.693902
v 0.367943 0.458314 -0.689084
v 0.367170 0.449849 -0.686888
v 0.367170 0.452983 -0.683753
v 0.361763 0.455361 -0.692400
v 0.361227 0.448739 -0.685778
v 0.362583 0.450070 -0.687109
v 0.361790 0.453386 -0.684156
v 0.359999 0.459780 -0.690550
v 0.361177 0.457987 -0.688757
v 0.367943 0.455179 -0.692218
v 0.361227 0.451874 -0.682644
v 0.361790 0.450251 -0.687290
v 0.361177 0.454852 -0.691891
v 0.359999 0.456646 -0.693685
v 0.368512 0.457622 -0.688392
v 0.367956 0.453616 -0.684385
v 0.367956 0.450481 -0.687520
v 0.360016 0.448963 -0.686002
v 0.361199 0.450796 -0.687835
v 0.361199 0.453930 -0.684700
v 0.358924 0.459418 -0.690187
v 0.360825 0.457138 -0.687908
v 0.368512 0.454487 -0.691526
v 0.360016 0.452097 -0.682867
v 0.360825 0.454004 -0.691043
v 0.358924 0.456283 -0.693322
v 0.358928 0.452470 -0.683240
v 0.360708 0.455951 -0.686720
v 0.368853 0.456850 -0.687620
v 0.368518 0.454329 -0.685099
v 0.368518 0.451194 -0.688233
v 0.358928 0.449335 -0.686374
v 0.360831 0.451664 -0.688703
v 0.360831 0.454798 -0.685568
v 0.360708 0.452816 -0.689855
v 0.357962 0.458910 -0.689680
v 0.357962 0.452991 -0.683761
v 0.368853 0.453715 -0.690754
v 0.357962 0.449857 -0.686896
v 0.357962 0.455775 -0.692814
v 0.368967 0.455998 -0.686768
v 0.368854 0.455123 -0.685893
v 0.368854 0.451988 -0.689027
v 0.357171 0.455159 -0.692198
v 0.357171 0.458294 -0.689064
v 0.357171 0.453627 -0.684397
v 0.368967 0.452863 -0.689902
v 0.357171 0.450492 -0.687531
v 0.356606 0.454471 -0.691510
v 0.356606 0.451208 -0.688247
v 0.356606 0.457606 -0.688376
v 0.356606 0.454343 -0.685112
v 0.356267 0.453711 -0.690750
v 0.356267 0.452004 -0.689043
v 0.356267 0.455138 -0.685908
v 0.356267 0.456846 -0.687616
v 0.356154 0.452879 -0.689918
v 0.356154 0.456014 -0.686784
vn 0 0.7071067811865472 0.7071067811865478
vn 0 -0.7071067811865472 -0.7071067811865478
vn -0.9819131356966633 -0.13387791816865513 0.13387791816865502
vn -0.9999995295506231 -0.0006858930428238616 0.0006858930428238611
vn 0.9999995295506231 0.0006858930428238616 -0.0006858930428238611
vn 0.9819131356966633 0.13387791816865513 -0.13387791816865502
vn 0.330352921141965 0.6674080264324707 -0.6674080264324703
vn 0.15783707565804442 0.698243316311627 -0.6982433163116265
vn -0.330352921141965 -0.6674080264324707 0.6674080264324703
vn -0.15783707565804442 -0.698243316311627 0.6982433163116265
vn -0.9826918196124871 0.1309900524213561 -0.13099005242135603
vn 0.9826918196124871 -0.1309900524213561 0.13099005242135603
vn 0.5055030498210791 0.6101092798104238 -0.6101092798104235
vn -0.5055030498210791 -0.6101092798104238 0.6101092798104235
vn -0.8896531418431459 -0.32289107080300267 0.3228910708030025
vn 0.8896531418431459 0.32289107080300267 -0.3228910708030025
vn -0.8934081348720898 0.31766484267571554 -0.3176648426757153
vn 0.8934081348720898 -0.31766484267571554 0.3176648426757153
vn -0.0019410008262940703 0.7071054491784776 -0.7071054491784772
vn 0.0019410008262940703 -0.7071054491784776 0.7071054491784772
vn -0.7975930865859365 -0.42652389630026527 0.426523896300265
vn 0.7975930865859365 0.42652389630026527 -0.426523896300265
vn 0.1644600094648825 -0.6974786395606718 0.6974786395606714
vn 0.34315799515635764 -0.6641696283180487 0.6641696283180483
vn -0.1644600094648825 0.6974786395606718 -0.6974786395606714
vn -0.34315799515635764 0.6641696283180487 -0.6641696283180483
vn 0.6655138002097755 0.527774280223252 -0.5277742802232517
vn -0.6655138002097755 -0.527774280223252 0.5277742802232517
vn -0.0005230000903139169 -0.7071066844794024 0.707106684479402
vn 0.0005230000903139169 0.7071066844794024 -0.707106684479402
vn -0.803708043915776 0.4207453981596691 -0.4207453981596689
vn 0.803708043915776 -0.4207453981596691 0.4207453981596689
vn -0.16494711992034616 0.6974211237229567 -0.6974211237229563
vn 0.16494711992034616 -0.6974211237229567 0.6974211237229563
vn 0.5221194050696173 -0.6030718559383076 0.6030718559383071
vn -0.5221194050696173 0.6030718559383076 -0.6030718559383071
vn -0.3224610132425481 -0.6693350786185458 0.6693350786185454
vn 0.3224610132425481 0.6693350786185458 -0.6693350786185454
vn -0.32865421326902816 0.667827226197209 -0.6678272261972086
vn 0.32865421326902816 -0.667827226197209 0.6678272261972086
vn 0.8051612264994674 0.41935390742299844 -0.41935390742299816
vn -0.8051612264994674 -0.41935390742299844 0.41935390742299816
vn 0.6817931872661372 -0.5172804122511707 0.5172804122511704
vn -0.6817931872661372 0.5172804122511707 -0.5172804122511704
vn 0.28074914053657524 -0.6786677832665902 0.6786677832665897
vn -0.28074914053657524 0.6786677832665902 -0.6786677832665897
vn -0.16625598847564158 -0.6972657120122815 0.697265712012281
vn 0.16625598847564158 0.6972657120122815 -0.697265712012281
vn -0.3418452056221871 0.6645080343355997 -0.6645080343355994
vn 0.3418452056221871 -0.6645080343355997 0.6645080343355994
vn 0.8850858599296849 -0.32910714102897454 0.3291071410289743
vn 0.7755609152250567 -0.446377232156431 0.4463772321564307
vn -0.7755609152250567 0.446377232156431 -0.4463772321564307
vn -0.8850858599296849 0.32910714102897454 -0.3291071410289743
vn 0.30817408889963155 0.672691880035311 -0.6726918800353106
vn -0.30817408889963155 -0.672691880035311 0.6726918800353106
vn 0.9152968964780185 0.28480834898024626 -0.2848083489802461
vn -0.9152968964780185 -0.28480834898024626 0.2848083489802461
vn 0.81702519965476 -0.40771915771097855 0.40771915771097833
vn -0.81702519965476 0.40771915771097855 -0.40771915771097833
vn -0.34571407251909764 -0.6635065109184162 0.6635065109184157
vn 0.34571407251909764 0.6635065109184162 -0.6635065109184157
vn -0.5167951968209876 0.6053605225577386 -0.6053605225577383
vn 0.5167951968209876 -0.6053605225577386 0.6053605225577383
vn 0.9843149919471122 -0.12474773871328591 0.12474773871328584
vn -0.9843149919471122 0.12474773871328591 -0.12474773871328584
vn 0.8901028221337376 0.3222708224688948 -0.3222708224688946
vn 0.7930529172983507 0.43073603887100936 -0.4307360388710091
vn -0.7930529172983507 -0.43073603887100936 0.4307360388710091
vn -0.8901028221337376 -0.3222708224688948 0.3222708224688946
vn 0.9803683078418192 0.1394237802158729 -0.13942378021587282
vn -0.9803683078418192 -0.1394237802158729 0.13942378021587282
vn 0.9211707030177365 -0.2751767939905266 0.2751767939905264
vn -0.9211707030177365 0.2751767939905266 -0.2751767939905264
vn -0.523956265653851 -0.6022747843310691 0.6022747843310686
vn 0.523956265653851 0.6022747843310691 -0.6022747843310686
vn 0.9832422170944519 0.12890838320913622 -0.12890838320913614
vn -0.9832422170944519 -0.12890838320913622 0.12890838320913614
vn -0.6724498910934982 0.523359887633903 -0.5233598876339026
vn 0.6724498910934982 -0.523359887633903 0.5233598876339026
vn 0.9999961552292949 0.001960806801836608 -0.0019608068018366065
vn -0.9999961552292949 -0.001960806801836608 0.0019608068018366065
vn -0.6821911201049449 -0.5170180246615979 0.5170180246615975
vn 0.6821911201049449 0.5170180246615979 -0.5170180246615975
vn 0.9999983817979564 0.0012720851913896323 -0.0012720851913896316
vn -0.9999983817979564 -0.0012720851913896323 0.0012720851913896316
vn 0.9818183268707411 -0.13422513367610966 0.13422513367610958
vn -0.9818183268707411 0.13422513367610966 -0.13422513367610958
vn -0.8070699769724399 0.41751530047993773 -0.4175153004799375
vn 0.8070699769724399 -0.41751530047993773 0.4175153004799375
vn -0.8165822960305507 -0.40816256186075817 0.4081625618607579
vn 0.8165822960305507 0.40816256186075817 -0.4081625618607579
vn -0.9147988181691127 0.28560735483911726 -0.2856073548391171
vn 0.9147988181691127 -0.28560735483911726 0.2856073548391171
vn -0.9207110868721502 -0.2759448264696262 0.27594482646962604
vn 0.9207110868721502 0.2759448264696262 -0.27594482646962604
vn -0.9799432051017634 0.14091010392247127 -0.1409101039224712
vn 0.9799432051017634 -0.14091010392247127 0.1409101039224712
vn -0.9816565503445753 -0.13481546121567098 0.1348154612156709
vn 0.9816565503445753 0.13481546121567098 -0.1348154612156709
vn -0.9999972151966473 0.001668771846315771 -0.00166877184631577
vn 0.9999972151966473 -0.001668771846315771 0.00166877184631577
usemtl material_0_0
f 1//1 2//1 3//1
f 2//1 1//1 4//1
f 3//2 2//2 1//2
f 4//2 1//2 2//2
f 2//3 5//4 3//4
f 3//5 5//5 2//6
f 6//1 1//1 3//1
f 3//2 1//2 6//2
f 7//7 4//8 1//7
f 1//9 4//10 7//9
f 2//1 4//1 8//1
f 8//2 4//2 2//2
f 5//4 2//3 9//3
f 9//6 2//6 5//5
f 10//11 3//4 5//4
f 5//5 3//5 10//12
f 11//1 1//1 6//1
f 6//2 1//2 11//2
f 3//4 10//11 6//11
f 6//12 10//12 3//5
f 4//8 7//7 12//8
f 12//10 7//9 4//10
f 1//7 13//13 7//7
f 7//9 13//14 1//9
f 8//1 4//1 14//1
f 14//2 4//2 8//2
f 8//15 9//3 2//3
f 2//6 9//6 8//16
f 9//2 7//2 5//2
f 5//1 7//1 9//1
f 7//2 10//2 5//2
f 5//1 10//1 7//1
f 15//1 1//1 11//1
f 11//2 1//2 15//2
f 11//1 6//1 16//1
f 16//2 6//2 11//2
f 17//17 6//11 10//11
f 10//12 6//12 17//18
f 7//2 9//2 12//2
f 12//1 9//1 7//1
f 12//8 18//19 4//8
f 4//10 18//20 12//10
f 13//13 1//7 19//13
f 19//14 1//9 13//14
f 13//2 20//2 7//2
f 7//1 20//1 13//1
f 14//1 4//1 18//1
f 18//2 4//2 14//2
f 14//21 21//15 8//15
f 8//16 21//16 14//22
f 9//3 8//15 21//15
f 21//16 8//16 9//6
f 7//2 22//2 10//2
f 10//1 22//1 7//1
f 15//1 19//1 1//1
f 1//2 19//2 15//2
f 22//23 15//24 11//23
f 11//25 15//26 22//25
f 6//11 17//17 16//17
f 16//18 17//18 6//12
f 11//1 16//1 23//1
f 23//2 16//2 11//2
f 10//2 22//2 17//2
f 17//1 22//1 10//1
f 12//2 9//2 21//2
f 21//1 9//1 12//1
f 18//19 12//8 24//19
f 24//20 12//10 18//20
f 19//13 25//27 13//13
f 13//14 25//28 19//14
f 13//2 26//2 20//2
f 20//1 26//1 13//1
f 7//2 20//2 22//2
f 22//1 20//1 7//1
f 14//1 18//1 27//1
f 27//2 18//2 14//2
f 21//15 14//21 28//21
f 28//22 14//22 21//16
f 29//1 19//1 15//1
f 15//2 19//2 29//2
f 15//24 22//23 20//24
f 20//26 22//25 15//26
f 11//23 30//29 22//23
f 22//25 30//30 11//25
f 31//31 16//17 17//17
f 17//18 16//18 31//32
f 16//17 31//31 23//31
f 23//32 31//32 16//18
f 11//1 23//1 32//1
f 32//2 23//2 11//2
f 17//2 22//2 31//2
f 31//1 22//1 17//1
f 12//2 21//2 28//2
f 28//1 21//1 12//1
f 12//2 28//2 24//2
f 24//1 28//1 12//1
f 24//19 33//33 18//19
f 18//20 33//34 24//20
f 25//27 19//13 34//27
f 34//28 19//14 25//28
f 25//2 26//2 13//2
f 13//1 26//1 25//1
f 29//35 20//24 26//35
f 26//36 20//26 29//36
f 27//1 18//1 35//1
f 35//2 18//2 27//2
f 36//37 14//37 27//37
f 27//38 14//38 36//38
f 14//37 36//37 28//37
f 28//38 36//38 14//38
f 29//1 34//1 19//1
f 19//2 34//2 29//2
f 20//24 29//35 15//24
f 15//26 29//36 20//26
f 30//29 11//23 32//29
f 32//30 11//25 30//30
f 31//2 22//2 30//2
f 30//1 22//1 31//1
f 31//39 37//39 23//39
f 23//40 37//40 31//40
f 32//1 23//1 37//1
f 37//2 23//2 32//2
f 24//2 28//2 36//2
f 36//1 28//1 24//1
f 33//33 24//19 38//33
f 38//34 24//20 33//34
f 35//1 18//1 33//1
f 33//2 18//2 35//2
f 39//41 25//27 34//27
f 34//28 25//28 39//42
f 25//2 40//2 26//2
f 26//1 40//1 25//1
f 26//35 41//43 29//35
f 29//36 41//44 26//36
f 42//45 27//45 35//45
f 35//46 27//46 42//46
f 27//45 42//45 36//45
f 36//46 42//46 27//46
f 41//1 34//1 29//1
f 29//2 34//2 41//2
f 32//29 43//47 30//29
f 30//30 43//48 32//30
f 31//2 30//2 44//2
f 44//1 30//1 31//1
f 37//39 31//39 44//39
f 44//40 31//40 37//40
f 32//1 37//1 45//1
f 45//2 37//2 32//2
f 24//2 36//2 42//2
f 42//1 36//1 24//1
f 24//2 42//2 38//2
f 38//1 42//1 24//1
f 38//33 46//49 33//33
f 33//34 46//50 38//34
f 35//1 33//1 47//1
f 47//2 33//2 35//2
f 25//27 39//41 48//41
f 48//42 39//42 25//28
f 41//1 39//1 34//1
f 34//2 39//2 41//2
f 48//2 40//2 25//2
f 25//1 40//1 48//1
f 41//43 26//35 40//43
f 40//44 26//36 41//44
f 47//51 42//52 35//52
f 35//53 42//53 47//54
f 43//47 32//29 49//47
f 49//48 32//30 43//48
f 50//2 30//2 43//2
f 43//1 30//1 50//1
f 44//2 30//2 50//2
f 50//1 30//1 44//1
f 44//55 45//55 37//55
f 37//56 45//56 44//56
f 32//1 45//1 49//1
f 49//2 45//2 32//2
f 38//2 42//2 51//2
f 51//1 42//1 38//1
f 46//49 38//33 52//49
f 52//50 38//34 46//50
f 47//1 33//1 46//1
f 46//2 33//2 47//2
f 53//57 48//41 39//41
f 39//42 48//42 53//58
f 54//1 39//1 41//1
f 41//2 39//2 54//2
f 48//2 55//2 40//2
f 40//1 55//1 48//1
f 55//59 41//43 40//43
f 40//44 41//44 55//60
f 42//52 47//51 51//51
f 51//54 47//54 42//53
f 49//47 56//61 43//47
f 43//48 56//62 49//48
f 50//2 43//2 57//2
f 57//1 43//1 50//1
f 45//55 44//55 50//55
f 50//56 44//56 45//56
f 49//1 45//1 58//1
f 58//2 45//2 49//2
f 38//2 51//2 52//2
f 52//1 51//1 38//1
f 52//49 59//63 46//49
f 46//50 59//64 52//50
f 47//1 46//1 60//1
f 60//2 46//2 47//2
f 48//41 53//57 61//57
f 61//58 53//58 48//42
f 54//1 53//1 39//1
f 39//2 53//2 54//2
f 41//43 55//59 54//59
f 54//60 55//60 41//44
f 61//2 55//2 48//2
f 48//1 55//1 61//1
f 60//65 51//51 47//51
f 47//54 51//54 60//66
f 56//61 49//47 62//61
f 62//62 49//48 56//62
f 57//2 43//2 56//2
f 56//1 43//1 57//1
f 57//67 45//68 50//68
f 50//69 45//69 57//70
f 45//68 57//67 58//67
f 58//70 57//70 45//69
f 49//1 58//1 62//1
f 62//2 58//2 49//2
f 52//2 51//2 63//2
f 63//1 51//1 52//1
f 59//63 52//49 64//63
f 64//64 52//50 59//64
f 65//1 46//1 59//1
f 59//2 46//2 65//2
f 60//1 46//1 66//1
f 66//2 46//2 60//2
f 67//71 61//57 53//57
f 53//58 61//58 67//72
f 68//1 53//1 54//1
f 54//2 53//2 68//2
f 69//73 54//59 55//59
f 55//60 54//60 69//74
f 61//2 69//2 55//2
f 55//1 69//1 61//1
f 51//51 60//65 63//65
f 63//66 60//66 51//54
f 62//61 70//75 56//61
f 56//62 70//76 62//62
f 57//2 56//2 71//2
f 71//1 56//1 57//1
f 71//77 58//67 57//67
f 57//70 58//70 71//78
f 62//1 58//1 72//1
f 72//2 58//2 62//2
f 52//2 63//2 73//2
f 73//1 63//1 52//1
f 52//2 70//2 64//2
f 64//1 70//1 52//1
f 64//63 74//79 59//63
f 59//64 74//80 64//64
f 62//1 46//1 65//1
f 65//2 46//2 62//2
f 65//1 59//1 75//1
f 75//2 59//2 65//2
f 66//1 46//1 62//1
f 62//2 46//2 66//2
f 66//81 63//65 60//65
f 60//66 63//66 66//82
f 61//57 67//71 76//71
f 76//72 67//72 61//58
f 68//1 67//1 53//1
f 53//2 67//2 68//2
f 54//59 69//73 68//73
f 68//74 69//74 54//60
f 76//2 69//2 61//2
f 61//1 69//1 76//1
f 70//75 62//61 65//75
f 65//76 62//62 70//76
f 52//2 56//2 70//2
f 70//1 56//1 52//1
f 71//2 56//2 73//2
f 73//1 56//1 71//1
f 58//67 71//77 72//77
f 72//78 71//78 58//70
f 62//1 72//1 66//1
f 66//2 72//2 62//2
f 63//65 66//81 73//81
f 73//82 66//82 63//66
f 52//2 73//2 56//2
f 56//1 73//1 52//1
f 64//2 70//2 77//2
f 77//1 70//1 64//1
f 74//79 64//63 78//79
f 78//80 64//64 74//80
f 75//1 59//1 74//1
f 74//2 59//2 75//2
f 77//83 65//75 75//83
f 75//84 65//76 77//84
f 79//85 76//71 67//71
f 67//72 76//72 79//86
f 80//1 67//1 68//1
f 68//2 67//2 80//2
f 81//87 68//73 69//73
f 69//74 68//74 81//88
f 76//2 81//2 69//2
f 69//1 81//1 76//1
f 65//75 77//83 70//75
f 70//76 77//84 65//76
f 73//81 72//77 71//77
f 71//78 72//78 73//82
f 72//77 73//81 66//81
f 66//82 73//82 72//78
f 64//2 77//2 78//2
f 78//1 77//1 64//1
f 82//89 74//79 78//79
f 78//80 74//80 82//90
f 75//1 74//1 83//1
f 83//2 74//2 75//2
f 84//91 77//83 75//83
f 75//84 77//84 84//92
f 76//71 79//85 85//85
f 85//86 79//86 76//72
f 67//1 80//1 79//1
f 79//2 80//2 67//2
f 68//73 81//87 80//87
f 80//88 81//88 68//74
f 81//2 76//2 85//2
f 85//1 76//1 81//1
f 78//2 77//2 86//2
f 86//1 77//1 78//1
f 74//79 82//89 83//89
f 83//90 82//90 74//80
f 78//2 86//2 82//2
f 82//1 86//1 78//1
f 75//1 83//1 84//1
f 84//2 83//2 75//2
f 77//83 84//91 86//91
f 86//92 84//92 77//84
f 80//87 85//85 79//85
f 79//86 85//86 80//88
f 85//85 80//87 81//87
f 81//88 80//88 85//86
f 87//93 83//89 82//89
f 82//90 83//90 87//94
f 82//2 86//2 88//2
f 88//1 86//1 82//1
f 84//1 83//1 89//1
f 89//2 83//2 84//2
f 90//95 86//91 84//91
f 84//92 86//92 90//96
f 83//89 87//93 89//93
f 89//94 87//94 83//90
f 82//2 88//2 87//2
f 87//1 88//1 82//1
f 86//91 90//95 88//95
f 88//96 90//96 86//92
f 84//1 89//1 90//1
f 90//2 89//2 84//2
f 91//97 89//93 87//93
f 87//94 89//94 91//98
f 87//2 88//2 92//2
f 92//1 88//1 87//1
f 93//99 88//95 90//95
f 90//96 88//96 93//100
f 90//1 89//1 94//1
f 94//2 89//2 90//2
f 89//93 91//97 94//97
f 94//98 91//98 89//94
f 87//2 92//2 91//2
f 91//1 92//1 87//1
f 88//95 93//99 92//99
f 92//100 93//100 88//96
f 90//1 94//1 93//1
f 93//2 94//2 90//2
f 95//101 94//97 91//97
f 91//98 94//98 95//102
f 91//2 92//2 95//2
f 95//1 92//1 91//1
f 96//101 92//99 93//99
f 93//100 92//100 96//102
f 93//1 94//1 96//1
f 96//2 94//2 93//2
f 94//97 95//101 96//101
f 96//102 95//102 94//98
f 92//99 96//101 95//101
f 95//102 96//102 92//100
