# SSTK version 0.8.0
# 31
mtllib original-31.mtl
o mesh70/mesh70-geometry#mesh70-geometry
v 0.317125 0.462530 -0.693300
v 0.317125 0.460271 -0.691041
v 0.317427 0.461396 -0.692166
v 0.316221 0.463472 -0.694241
v 0.317427 0.458261 -0.695300
v 0.317125 0.459396 -0.696435
v 0.316221 0.460337 -0.697376
v 0.316623 0.461412 -0.692182
v 0.317125 0.457137 -0.694176
v 0.314876 0.464105 -0.694875
v 0.316383 0.462337 -0.693107
v 0.316221 0.459328 -0.690098
v 0.316623 0.458277 -0.695316
v 0.314876 0.460970 -0.698009
v 0.315663 0.463124 -0.693894
v 0.316380 0.460475 -0.691244
v 0.316221 0.456194 -0.693233
v 0.316383 0.459202 -0.696241
v 0.315663 0.459990 -0.697029
v 0.313253 0.464316 -0.695086
v 0.314609 0.463663 -0.694433
v 0.316380 0.457340 -0.694379
v 0.315652 0.459683 -0.690453
v 0.314893 0.455554 -0.692593
v 0.314609 0.460528 -0.697567
v 0.313253 0.461181 -0.698220
v 0.315652 0.456549 -0.693588
v 0.314893 0.458689 -0.689459
v 0.311718 0.464101 -0.694871
v 0.313364 0.463842 -0.694612
v 0.313364 0.460708 -0.697747
v 0.314584 0.459145 -0.689915
v 0.313320 0.455341 -0.692380
v 0.314584 0.456010 -0.693049
v 0.311718 0.460966 -0.698005
v 0.312084 0.463663 -0.694433
v 0.313320 0.458476 -0.689246
v 0.312084 0.460528 -0.697567
v 0.310418 0.463456 -0.694226
v 0.311009 0.463124 -0.693894
v 0.313320 0.458965 -0.689735
v 0.311749 0.455554 -0.692593
v 0.313320 0.455831 -0.692870
v 0.311009 0.459990 -0.697029
v 0.310418 0.460321 -0.697360
v 0.312058 0.459143 -0.689913
v 0.311749 0.458689 -0.689459
v 0.309531 0.459376 -0.696415
v 0.310281 0.462329 -0.693099
v 0.310429 0.456194 -0.693233
v 0.312058 0.456008 -0.693047
v 0.310281 0.459195 -0.696234
v 0.309531 0.462511 -0.693280
v 0.310998 0.459676 -0.690445
v 0.310429 0.459328 -0.690098
v 0.310998 0.456541 -0.693580
v 0.309235 0.458261 -0.695300
v 0.310038 0.458246 -0.695285
v 0.310038 0.461380 -0.692150
v 0.309533 0.460271 -0.691041
v 0.310278 0.457322 -0.694361
v 0.309235 0.461396 -0.692166
v 0.309533 0.457137 -0.694176
v 0.310278 0.460457 -0.691227
vn 0 0.7071067811865472 0.7071067811865478
vn 0 -0.7071067811865472 -0.7071067811865478
vn 0.9243490647013957 -0.2697951135451265 0.2697951135451263
vn 0.9999996831923466 -0.0005628566453316882 0.0005628566453316878
vn -0.9999996831923466 0.0005628566453316882 -0.0005628566453316878
vn -0.9243490647013957 0.2697951135451265 -0.2697951135451263
vn 0.9244670662058957 0.26959288149046545 -0.2695928814904653
vn -0.9244670662058957 -0.26959288149046545 0.2695928814904653
vn 0.7038695120207338 0.5022786627200554 -0.5022786627200551
vn -0.7038695120207338 -0.5022786627200554 0.5022786627200551
vn 0.3752549667220485 0.6554325708837008 -0.6554325708837003
vn -0.3752549667220485 -0.6554325708837008 0.6554325708837003
vn 0.7077960542668564 -0.4995121347696518 0.49951213476965145
vn -0.7077960542668564 0.4995121347696518 -0.49951213476965145
vn -0.9295242521165663 -0.2607533937719107 0.2607533937719106
vn -0.9999999946955034 -0.0000728319755380988 0.00007283197553809876
vn 0.9999999946955034 0.0000728319755380988 -0.00007283197553809876
vn 0.9295242521165663 0.2607533937719107 -0.2607533937719106
vn -0.006914002817096885 0.7070898799180504 -0.70708987991805
vn 0.006914002817096885 -0.7070898799180504 0.70708987991805
vn -0.7250760348705291 -0.48696239262207475 0.48696239262207447
vn 0.7250760348705291 0.48696239262207475 -0.48696239262207447
vn -0.9290095640701369 0.2616689032596483 -0.26166890325964814
vn 0.9290095640701369 -0.2616689032596483 0.26166890325964814
vn 0.3833472408805534 -0.6530868598085815 0.653086859808581
vn -0.3833472408805534 0.6530868598085815 -0.653086859808581
vn -0.40170719590335696 -0.6475458782045728 0.6475458782045723
vn 0.40170719590335696 0.6475458782045728 -0.6475458782045723
vn -0.7218929541230081 0.4893212455982045 -0.48932124559820417
vn 0.7218929541230081 -0.4893212455982045 0.48932124559820417
vn -0.39288121889088795 0.6502477788669526 -0.6502477788669522
vn 0.39288121889088795 -0.6502477788669526 0.6502477788669522
vn -0.002777001259575392 -0.7071040546708826 0.7071040546708821
vn 0.002777001259575392 0.7071040546708826 -0.7071040546708821
vn -0.39746401905957285 0.648853740666189 -0.6488537406661886
vn 0.39746401905957285 -0.648853740666189 0.6488537406661886
vn -0.00016400004854415419 -0.7071067716773701 0.7071067716773697
vn 0.00016400004854415419 0.7071067716773701 -0.7071067716773697
vn -0.7161710338743894 0.4935073708868434 -0.4935073708868431
vn 0.7161710338743894 -0.4935073708868434 0.4935073708868431
vn 0.39517625790131006 -0.6495520476417259 0.6495520476417255
vn -0.39517625790131006 0.6495520476417259 -0.6495520476417255
vn -0.0008489999567420174 0.7071065263448902 -0.7071065263448898
vn 0.0008489999567420174 -0.7071065263448902 0.7071065263448898
vn -0.3848580289585297 -0.6526424356208214 0.6526424356208209
vn 0.3848580289585297 0.6526424356208214 -0.6526424356208209
vn 0.7218283542956263 -0.4893688930320704 0.48936889303207004
vn -0.7218283542956263 0.4893688930320704 -0.48936889303207004
vn -0.9265112775881841 0.26606094461787405 -0.2660609446178739
vn 0.9265112775881841 -0.26606094461787405 0.2660609446178739
vn 0.9298369276809302 -0.2601953957326 0.2601953957325998
vn -0.9298369276809302 0.2601953957326 -0.2601953957325998
vn 0.39599498214327955 0.6493026929396429 -0.6493026929396425
vn -0.39599498214327955 -0.6493026929396429 0.6493026929396425
vn -0.7103553949309879 -0.49769228087867745 0.4976922808786771
vn 0.7103553949309879 0.49769228087867745 -0.4976922808786771
vn -0.9999999985955008 -0.00003747664775314171 0.000037476647753141684
vn 0.9999999985955008 0.00003747664775314171 -0.000037476647753141684
vn 0.9999990227980828 0.0009885349967344063 -0.0009885349967344056
vn -0.9999990227980828 -0.0009885349967344063 0.0009885349967344056
vn 0.7212162287050061 0.48981994214840235 -0.489819942148402
vn -0.7212162287050061 -0.48981994214840235 0.489819942148402
vn -0.92549125096954 -0.26783011815219365 0.2678301181521935
vn 0.92549125096954 0.26783011815219365 -0.2678301181521935
vn 0.9288173046710082 0.26200993735322703 -0.26200993735322686
vn -0.9288173046710082 -0.26200993735322703 0.26200993735322686
usemtl material_0_0
f 1//1 2//1 3//1
f 2//1 1//1 4//1
f 3//2 2//2 1//2
f 4//2 1//2 2//2
f 2//3 5//4 3//4
f 3//5 5//5 2//6
f 3//4 6//7 1//7
f 1//8 6//8 3//5
f 1//7 7//9 4//9
f 4//10 7//10 1//8
f 2//1 4//1 8//1
f 8//2 4//2 2//2
f 5//4 2//3 9//3
f 9//6 2//6 5//5
f 6//7 3//4 5//4
f 5//5 3//5 6//8
f 7//9 1//7 6//7
f 6//8 1//8 7//10
f 7//9 10//11 4//9
f 4//10 10//12 7//10
f 8//1 4//1 11//1
f 11//2 4//2 8//2
f 8//1 12//1 2//1
f 2//2 12//2 8//2
f 12//13 9//3 2//3
f 2//6 9//6 12//14
f 9//2 6//2 5//2
f 5//1 6//1 9//1
f 13//2 7//2 6//2
f 6//1 7//1 13//1
f 10//11 7//9 14//11
f 14//12 7//10 10//12
f 15//1 4//1 10//1
f 10//2 4//2 15//2
f 11//1 4//1 15//1
f 15//2 4//2 11//2
f 11//15 13//16 8//16
f 8//17 13//17 11//18
f 12//1 8//1 16//1
f 16//2 8//2 12//2
f 9//3 12//13 17//13
f 17//14 12//14 9//6
f 6//2 9//2 17//2
f 17//1 9//1 6//1
f 7//2 13//2 18//2
f 18//1 13//1 7//1
f 6//2 17//2 13//2
f 13//1 17//1 6//1
f 7//2 19//2 14//2
f 14//1 19//1 7//1
f 14//11 20//19 10//11
f 10//12 20//20 14//12
f 15//1 10//1 21//1
f 21//2 10//2 15//2
f 15//21 18//15 11//15
f 11//18 18//18 15//22
f 13//16 11//15 18//15
f 18//18 11//18 13//17
f 22//23 8//16 13//16
f 13//17 8//17 22//24
f 8//16 22//23 16//23
f 16//24 22//24 8//17
f 12//1 16//1 23//1
f 23//2 16//2 12//2
f 12//13 24//25 17//13
f 17//14 24//26 12//14
f 7//2 18//2 19//2
f 19//1 18//1 7//1
f 13//2 17//2 22//2
f 22//1 17//1 13//1
f 14//2 19//2 25//2
f 25//1 19//1 14//1
f 20//19 14//11 26//19
f 26//20 14//12 20//20
f 21//1 10//1 20//1
f 20//2 10//2 21//2
f 25//27 15//21 21//27
f 21//28 15//22 25//28
f 18//15 15//21 19//21
f 19//22 15//22 18//18
f 27//29 16//23 22//23
f 22//24 16//24 27//30
f 16//23 27//29 23//29
f 23//30 27//30 16//24
f 12//1 23//1 28//1
f 28//2 23//2 12//2
f 24//25 12//13 28//25
f 28//26 12//14 24//26
f 27//2 17//2 24//2
f 24//1 17//1 27//1
f 22//2 17//2 27//2
f 27//1 17//1 22//1
f 15//21 25//27 19//21
f 19//22 25//28 15//22
f 14//2 25//2 26//2
f 26//1 25//1 14//1
f 26//19 29//31 20//19
f 20//20 29//32 26//20
f 21//1 20//1 30//1
f 30//2 20//2 21//2
f 21//27 31//33 25//27
f 25//28 31//34 21//28
f 27//29 32//35 23//29
f 23//30 32//36 27//30
f 28//1 23//1 32//1
f 32//2 23//2 28//2
f 28//25 33//37 24//25
f 24//26 33//38 28//26
f 27//2 24//2 34//2
f 34//1 24//1 27//1
f 26//2 25//2 31//2
f 31//1 25//1 26//1
f 29//31 26//19 35//31
f 35//32 26//20 29//32
f 36//1 20//1 29//1
f 29//2 20//2 36//2
f 30//1 20//1 36//1
f 36//2 20//2 30//2
f 31//33 21//27 30//33
f 30//34 21//28 31//34
f 32//35 27//29 34//35
f 34//36 27//30 32//36
f 28//1 32//1 37//1
f 37//2 32//2 28//2
f 33//37 28//25 37//37
f 37//38 28//26 33//38
f 34//2 24//2 33//2
f 33//1 24//1 34//1
f 26//2 31//2 38//2
f 38//1 31//1 26//1
f 26//2 38//2 35//2
f 35//1 38//1 26//1
f 35//31 39//39 29//31
f 29//32 39//40 35//32
f 36//1 29//1 40//1
f 40//2 29//2 36//2
f 38//41 30//33 36//41
f 36//42 30//34 38//42
f 30//33 38//41 31//33
f 31//34 38//42 30//34
f 34//35 41//43 32//35
f 32//36 41//44 34//36
f 37//1 32//1 41//1
f 41//2 32//2 37//2
f 37//37 42//45 33//37
f 33//38 42//46 37//38
f 34//2 33//2 43//2
f 43//1 33//1 34//1
f 35//2 38//2 44//2
f 44//1 38//1 35//1
f 39//39 35//31 45//39
f 45//40 35//32 39//40
f 40//1 29//1 39//1
f 39//2 29//2 40//2
f 44//47 36//41 40//47
f 40//48 36//42 44//48
f 36//41 44//47 38//41
f 38//42 44//48 36//42
f 41//43 34//35 43//43
f 43//44 34//36 41//44
f 37//1 41//1 46//1
f 46//2 41//2 37//2
f 42//45 37//37 47//45
f 47//46 37//38 42//46
f 43//2 33//2 42//2
f 42//1 33//1 43//1
f 35//2 44//2 45//2
f 45//1 44//1 35//1
f 48//49 39//39 45//39
f 45//40 39//40 48//50
f 40//1 39//1 49//1
f 49//2 39//2 40//2
f 49//51 44//47 40//47
f 40//48 44//48 49//52
f 43//43 46//53 41//43
f 41//44 46//54 43//44
f 37//1 46//1 47//1
f 47//2 46//2 37//2
f 47//45 50//55 42//45
f 42//46 50//56 47//46
f 43//2 42//2 51//2
f 51//1 42//1 43//1
f 45//2 44//2 52//2
f 52//1 44//1 45//1
f 39//39 48//49 53//49
f 53//50 48//50 39//40
f 45//2 52//2 48//2
f 48//1 52//1 45//1
f 49//1 39//1 53//1
f 53//2 39//2 49//2
f 44//47 49//51 52//51
f 52//52 49//52 44//48
f 46//53 43//43 51//53
f 51//54 43//44 46//54
f 47//1 46//1 54//1
f 54//2 46//2 47//2
f 50//55 47//45 55//55
f 55//56 47//46 50//56
f 56//2 42//2 50//2
f 50//1 42//1 56//1
f 51//2 42//2 56//2
f 56//1 42//1 51//1
f 57//57 53//49 48//49
f 48//50 53//50 57//58
f 48//2 52//2 58//2
f 58//1 52//1 48//1
f 49//1 53//1 59//1
f 59//2 53//2 49//2
f 59//59 52//51 49//51
f 49//52 52//52 59//60
f 51//53 54//61 46//53
f 46//54 54//62 51//54
f 47//1 54//1 55//1
f 55//2 54//2 47//2
f 60//63 50//55 55//55
f 55//56 50//56 60//64
f 56//2 50//2 61//2
f 61//1 50//1 56//1
f 54//61 51//53 56//61
f 56//62 51//54 54//62
f 53//49 57//57 62//57
f 62//58 57//58 53//50
f 48//2 63//2 57//2
f 57//1 63//1 48//1
f 52//51 59//59 58//59
f 58//60 59//60 52//52
f 48//2 58//2 63//2
f 63//1 58//1 48//1
f 59//1 53//1 60//1
f 60//2 53//2 59//2
f 55//1 54//1 64//1
f 64//2 54//2 55//2
f 50//55 60//63 63//63
f 63//64 60//64 50//56
f 55//1 64//1 60//1
f 60//2 64//2 55//2
f 61//2 50//2 63//2
f 63//1 50//1 61//1
f 61//65 54//61 56//61
f 56//62 54//62 61//66
f 63//63 62//57 57//57
f 57//58 62//58 63//64
f 60//1 53//1 62//1
f 62//2 53//2 60//2
f 64//65 58//59 59//59
f 59//60 58//60 64//66
f 61//2 63//2 58//2
f 58//1 63//1 61//1
f 60//1 64//1 59//1
f 59//2 64//2 60//2
f 54//61 61//65 64//65
f 64//66 61//66 54//62
f 62//57 63//63 60//63
f 60//64 63//64 62//58
f 58//59 64//65 61//65
f 61//66 64//66 58//60
