# SSTK version 0.8.0
# 20
mtllib original-20.mtl
o mesh36/mesh36-geometry#mesh36-geometry
v 0.049229 -0.122858 0.712337
v 0.047195 -0.134504 0.724489
v 0.047195 -0.122858 0.712337
v 0.049229 -0.134504 0.724489
v 0.047195 -0.119657 0.715404
v 0.049229 -0.129676 0.719452
v 0.049229 -0.131303 0.727556
v 0.047195 -0.131303 0.727556
v 0.049229 -0.119657 0.715404
v 0.049229 -0.126476 0.722519
v 0.049229 -0.131009 0.720842
v 0.054010 -0.122943 0.718833
v 0.054010 -0.126144 0.715765
v 0.049229 -0.127808 0.723909
v 0.050029 -0.127269 0.723347
v 0.050029 -0.130470 0.720280
v 0.056542 -0.126144 0.715765
v 0.051576 -0.126438 0.722480
v 0.051576 -0.129639 0.719413
v 0.056542 -0.122943 0.718833
v 0.054540 -0.131303 0.727556
v 0.054540 -0.134504 0.724489
v 0.057212 -0.131303 0.727556
v 0.057212 -0.134504 0.724489
vn 0 -0.7219882883733707 -0.6919052763577472
vn 0 0.7219882883733707 0.6919052763577472
vn -1 0 0
vn 1 0 0
vn 0 0.6919052763577472 -0.7219882883733707
vn 0 -0.6919052763577472 0.7219882883733707
vn -0.7299230536516665 0.4729375453045587 -0.4935001661490344
vn 0.7299230536516665 -0.4729375453045587 0.4935001661490344
vn 0.6973548028376909 -0.4959065589685622 0.5174678383543899
vn -0.6973548028376909 0.4959065589685622 -0.5174678383543899
vn -0.7909297070967676 -0.42338169425555006 0.44178970042444554
vn 0.7909297070967676 0.42338169425555006 -0.44178970042444554
vn 0.7131887550124631 -0.4850062524936191 0.5060936027711362
vn -0.7131887550124631 0.4850062524936191 -0.5060936027711362
vn 0.7802826859799269 0.4327362399661659 -0.45155096786508564
vn -0.7802826859799269 -0.4327362399661659 0.45155096786508564
usemtl material_0_0
f 1//1 2//1 3//1
f 2//1 1//1 4//1
f 3//2 2//2 1//2
f 4//2 1//2 2//2
f 2//3 5//3 3//3
f 3//4 5//4 2//4
f 5//5 1//5 3//5
f 3//6 1//6 5//6
f 4//1 1//1 6//1
f 6//2 1//2 4//2
f 7//6 2//6 4//6
f 4//5 2//5 7//5
f 5//3 2//3 8//3
f 8//4 2//4 5//4
f 1//5 5//5 9//5
f 9//6 5//6 1//6
f 1//4 10//4 6//4
f 6//3 10//3 1//3
f 4//1 6//1 11//1
f 11//2 6//2 4//2
f 2//6 7//6 8//6
f 8//5 7//5 2//5
f 11//4 7//4 4//4
f 4//3 7//3 11//3
f 7//2 5//2 8//2
f 8//1 5//1 7//1
f 5//2 7//2 9//2
f 9//1 7//1 5//1
f 10//4 1//4 9//4
f 9//3 1//3 10//3
f 12//7 6//7 10//7
f 10//8 6//8 12//8
f 13//1 11//1 6//1
f 6//2 11//2 13//2
f 7//4 11//4 14//4
f 14//3 11//3 7//3
f 9//2 7//2 14//2
f 14//1 7//1 9//1
f 9//2 14//2 10//2
f 10//1 14//1 9//1
f 6//7 12//7 13//7
f 13//8 12//8 6//8
f 10//2 15//2 12//2
f 12//1 15//1 10//1
f 11//1 13//1 16//1
f 16//2 13//2 11//2
f 11//9 15//9 14//9
f 14//10 15//10 11//10
f 15//2 10//2 14//2
f 14//1 10//1 15//1
f 12//5 17//5 13//5
f 13//6 17//6 12//6
f 12//2 15//2 18//2
f 18//1 15//1 12//1
f 16//1 13//1 19//1
f 19//2 13//2 16//2
f 15//9 11//9 16//9
f 16//10 11//10 15//10
f 17//5 12//5 20//5
f 20//6 12//6 17//6
f 19//1 13//1 17//1
f 17//2 13//2 19//2
f 21//2 18//2 15//2
f 15//1 18//1 21//1
f 12//2 18//2 20//2
f 20//1 18//1 12//1
f 19//1 22//1 16//1
f 16//2 22//2 19//2
f 22//11 15//11 16//11
f 16//12 15//12 22//12
f 18//13 17//13 20//13
f 20//14 17//14 18//14
f 17//13 18//13 19//13
f 19//14 18//14 17//14
f 18//2 21//2 23//2
f 23//1 21//1 18//1
f 15//11 22//11 21//11
f 21//12 22//12 15//12
f 22//1 19//1 24//1
f 24//2 19//2 22//2
f 23//15 19//15 18//15
f 18//16 19//16 23//16
f 22//6 23//6 21//6
f 21//5 23//5 22//5
f 19//15 23//15 24//15
f 24//16 23//16 19//16
f 23//6 22//6 24//6
f 24//5 22//5 23//5
