# SSTK version 0.8.0
# 6
mtllib original-6.mtl
o mesh5/mesh5-geometry#mesh5-geometry
v -0.554551 -0.086282 -0.085572
v -0.554742 -0.090908 -0.082711
v -0.555353 -0.086906 -0.085186
v -0.554527 -0.089168 -0.083787
v -0.554607 -0.095507 -0.079867
v -0.555353 -0.084574 -0.081416
v -0.553629 -0.085836 -0.085848
v -0.554742 -0.088576 -0.078941
v -0.555397 -0.094869 -0.080262
v -0.554527 -0.092606 -0.081661
v -0.554551 -0.083950 -0.081802
v -0.556004 -0.087690 -0.084701
v -0.553882 -0.087941 -0.084546
v -0.554527 -0.086836 -0.080017
v -0.554527 -0.090275 -0.077890
v -0.554607 -0.093175 -0.076097
v -0.553683 -0.095962 -0.079586
v -0.556004 -0.085359 -0.080930
v -0.553629 -0.083504 -0.082077
v -0.553407 -0.087516 -0.084809
v -0.556028 -0.094074 -0.080753
v -0.555397 -0.092537 -0.076492
v -0.553683 -0.093631 -0.075815
v -0.553882 -0.091507 -0.077129
v -0.553882 -0.093838 -0.080899
v -0.556469 -0.088619 -0.084126
v -0.552590 -0.085569 -0.086013
v -0.553882 -0.085609 -0.080776
v -0.556028 -0.091743 -0.076983
v -0.553407 -0.094275 -0.080629
v -0.552625 -0.093904 -0.075646
v -0.556469 -0.086288 -0.080356
v -0.552590 -0.083237 -0.082243
v -0.552840 -0.087213 -0.084996
v -0.553407 -0.085184 -0.081038
v -0.556480 -0.093149 -0.081325
v -0.556480 -0.090818 -0.077555
v -0.553407 -0.091943 -0.076859
v -0.552625 -0.096236 -0.079417
v -0.556748 -0.089692 -0.083463
v -0.551432 -0.085479 -0.086068
v -0.551432 -0.086970 -0.085146
v -0.552840 -0.084881 -0.081226
v -0.552840 -0.094587 -0.080436
v -0.551432 -0.093995 -0.075590
v -0.552840 -0.092255 -0.076666
v -0.556748 -0.087360 -0.079693
v -0.551432 -0.083148 -0.082298
v -0.551432 -0.084638 -0.081376
v -0.556751 -0.092094 -0.081978
v -0.556751 -0.089762 -0.078207
v -0.551432 -0.094836 -0.080282
v -0.551432 -0.096327 -0.079360
v -0.551432 -0.092505 -0.076512
v -0.556841 -0.090908 -0.082711
v -0.550270 -0.085568 -0.086013
v -0.550034 -0.084881 -0.081226
v -0.550270 -0.093907 -0.075644
v -0.556841 -0.088576 -0.078941
v -0.550270 -0.083237 -0.082243
v -0.550034 -0.087213 -0.084996
v -0.550041 -0.094591 -0.080433
v -0.550270 -0.096239 -0.079415
v -0.550041 -0.092260 -0.076663
v -0.549231 -0.085835 -0.085848
v -0.549471 -0.085184 -0.081038
v -0.549231 -0.093642 -0.075808
v -0.549231 -0.083503 -0.082078
v -0.549471 -0.087516 -0.084809
v -0.549231 -0.095974 -0.079579
v -0.549478 -0.091954 -0.076852
v -0.549478 -0.094285 -0.080623
v -0.548313 -0.086279 -0.085574
v -0.548998 -0.087941 -0.084546
v -0.548998 -0.085609 -0.080776
v -0.548313 -0.093201 -0.076081
v -0.549004 -0.091525 -0.077117
v -0.548313 -0.083948 -0.081803
v -0.549004 -0.093856 -0.080888
v -0.548313 -0.095532 -0.079851
v -0.547516 -0.086901 -0.085189
v -0.548357 -0.089168 -0.083787
v -0.548357 -0.086836 -0.080017
v -0.547516 -0.092583 -0.076463
v -0.548359 -0.090298 -0.077876
v -0.547516 -0.084569 -0.081419
v -0.548144 -0.090908 -0.082711
v -0.548144 -0.088576 -0.078941
v -0.548359 -0.092629 -0.081647
v -0.547516 -0.094915 -0.080234
v -0.546872 -0.085353 -0.080934
v -0.546872 -0.094135 -0.080716
v -0.546872 -0.087684 -0.084704
v -0.546872 -0.091803 -0.076946
v -0.546413 -0.086282 -0.080360
v -0.546413 -0.090875 -0.077519
v -0.546413 -0.093207 -0.081290
v -0.546413 -0.088613 -0.084130
v -0.546137 -0.087356 -0.079695
v -0.546137 -0.089800 -0.078184
v -0.546137 -0.092131 -0.081955
v -0.546137 -0.089688 -0.083466
v -0.546045 -0.088576 -0.078941
v -0.546045 -0.090908 -0.082711
vn 0 -0.5259429185711567 -0.850519868318697
vn 0 0.5259429185711567 0.850519868318697
vn -0.7502768556609547 0.5622989021890236 -0.34771336536942277
vn -0.58813203760887 0.6878706387883432 -0.42536418588188085
vn 0.7502768556609547 -0.5622989021890236 0.34771336536942277
vn 0.58813203760887 -0.6878706387883432 0.42536418588188085
vn 0.9657310238888381 -0.22074815050610175 0.1365058370427863
vn 0.9999991986216088 0.0010767582004505836 -0.0006658437640732506
vn -0.9999991986216088 -0.0010767582004505836 0.0006658437640732506
vn -0.9657310238888381 0.22074815050610175 -0.1365058370427863
vn -0.8735680812074482 0.4139496953419315 -0.25597745451867254
vn 0.8735680812074482 -0.4139496953419315 0.25597745451867254
vn -0.3944139999199848 0.7815706529888707 -0.48330622906566034
vn 0.3944139999199848 -0.7815706529888707 0.48330622906566034
vn 0.9655830396051106 0.22121593997427458 -0.13679510783742865
vn -0.9655830396051106 -0.22121593997427458 0.13679510783742865
vn -0.5993901251085497 -0.6808046189314794 0.4209947134631506
vn -0.7630346390754323 -0.5497399758998607 0.3399471995305229
vn 0.5993901251085497 0.6808046189314794 -0.4209947134631506
vn 0.7630346390754323 0.5497399758998607 -0.3399471995305229
vn 0.8305151606323957 -0.4737361828548106 0.2929481131768889
vn -0.8305151606323957 0.4737361828548106 -0.2929481131768889
vn -0.3988049615312359 -0.7799571419722883 0.48230846907812985
vn 0.3988049615312359 0.7799571419722883 -0.48230846907812985
vn 0.8347751435663964 0.46828859285219404 -0.28957944244751604
vn -0.8347751435663964 -0.46828859285219404 0.28957944244751604
vn -0.9523129684452659 0.2595131250030928 -0.16047725097999058
vn 0.9523129684452659 -0.2595131250030928 0.16047725097999058
vn -0.19080097931090606 0.8348947480256314 -0.5162806852993985
vn 0.19080097931090606 -0.8348947480256314 0.5162806852993985
vn 0.6331408044453004 -0.6583335420517729 0.4070990900946896
vn -0.6331408044453004 0.6583335420517729 -0.4070990900946896
vn -0.8804209696859371 -0.40331049158878957 0.2493984031859129
vn 0.8804209696859371 0.40331049158878957 -0.2493984031859129
vn -0.19105201291917653 -0.8348532195423738 0.5162550049919749
vn 0.19105201291917653 0.8348532195423738 -0.5162550049919749
vn -0.9541189210071769 -0.2546694026174361 0.15748199880170027
vn 0.9541189210071769 0.2546694026174361 -0.15748199880170027
vn 0.6434191568980623 0.6510849244396167 -0.402616703210442
vn -0.6434191568980623 -0.6510849244396167 0.402616703210442
vn -0.9900340789062736 0.11977700301746835 -0.07406748377229967
vn 0.9900340789062736 -0.11977700301746835 0.07406748377229967
vn -0.0002880000326455118 0.8505198330459283 -0.5259428967592465
vn 0.0002880000326455118 -0.8505198330459283 0.5259428967592465
vn 0.37162709324705906 -0.7896074122637844 0.4882759855479604
vn -0.37162709324705906 0.7896074122637844 -0.4882759855479604
vn 0.38007991569847277 0.7866914579939674 -0.48647282308672457
vn -0.38007991569847277 -0.7866914579939674 0.48647282308672457
vn -0.00023800003010758937 -0.8505198442302669 0.5259429036753974
vn 0.00023800003010758937 0.8505198442302669 -0.5259429036753974
vn -0.0006589999589337283 -0.8505196836363905 0.5259428043676502
vn 0.0006589999589337283 0.8505196836363905 -0.5259428043676502
vn -0.9902533172344752 -0.11845872582845501 0.07325228993838485
vn 0.9902533172344752 0.11845872582845501 -0.07325228993838485
vn -0.9999999899180033 0.00012077380138487174 -0.00007468388212124766
vn 0.9999999899180033 -0.00012077380138487174 0.00007468388212124766
vn 0.19003508736981717 0.8350210993828311 -0.5163588182202701
vn -0.19003508736981717 -0.8350210993828311 0.5163588182202701
vn -0.3736170713323011 -0.7889277994942461 0.48785572784814235
vn 0.3736170713323011 0.7889277994942461 -0.48785572784814235
vn 0.0006979999380332799 0.8505196611303675 -0.5259427904504169
vn -0.0006979999380332799 -0.8505196611303675 0.5259427904504169
vn 0.18887312507866943 -0.8352117850053717 0.5164767340463247
vn -0.18887312507866943 0.8352117850053717 -0.5164767340463247
vn -0.37702800151647403 0.7877530842815299 -0.487129309606218
vn 0.37702800151647403 -0.7877530842815299 0.487129309606218
vn 0.3939771596901423 0.781730017195578 -0.4834047764119523
vn -0.3939771596901423 -0.781730017195578 0.4834047764119523
vn -0.6355279706751786 -0.6566675469232881 0.40606887507815775
vn 0.6355279706751786 0.6566675469232881 -0.40606887507815775
vn 0.39187401368828845 -0.7824943449142024 0.4838774199868436
vn -0.39187401368828845 0.7824943449142024 -0.4838774199868436
vn -0.6384070431554649 0.6546442350231585 -0.4048177031707483
vn 0.6384070431554649 -0.6546442350231585 0.4048177031707483
vn 0.5891122459659439 0.6872636106556673 -0.42498881293687796
vn -0.5891122459659439 -0.6872636106556673 0.42498881293687796
vn -0.8320578723572316 -0.47177386982267255 0.29173466163775774
vn 0.8320578723572316 0.47177386982267255 -0.29173466163775774
vn 0.5866770729535521 -0.6887688292921541 0.4259196072807262
vn -0.5866770729535521 0.6887688292921541 -0.4259196072807262
vn -0.8322190646715907 0.47156815306487887 -0.29160745088581275
vn 0.8322190646715907 -0.47156815306487887 0.29160745088581275
vn 0.7524833836559802 0.5601619398668012 -0.34639191452213336
vn -0.7524833836559802 -0.5601619398668012 0.34639191452213336
vn -0.966119267252688 -0.21951580267071663 0.13574378004520135
vn 0.966119267252688 0.21951580267071663 -0.13574378004520135
vn 0.7507329289077986 -0.5618583879347581 0.3474409609716059
vn -0.7507329289077986 0.5618583879347581 -0.3474409609716059
vn -0.96558682610522 0.22120398378725478 -0.13678771439239532
vn 0.96558682610522 -0.22120398378725478 0.13678771439239532
vn 0.8755911191519963 0.4108461662505896 -0.2540582998828172
vn -0.8755911191519963 -0.4108461662505896 0.2540582998828172
vn -0.9999996110383474 0.0007501581159313453 -0.0004638814019273848
vn 0.9999996110383474 -0.0007501581159313453 0.0004638814019273848
vn 0.8749822223481398 -0.41178348773300466 0.2546379190245492
vn -0.8749822223481398 0.41178348773300466 -0.2546379190245492
vn 0.9533358301083071 0.25678206896715805 -0.15878842555000935
vn -0.9533358301083071 -0.25678206896715805 0.15878842555000935
vn 0.9533025949162642 -0.25687131014854103 0.1588436103483211
vn -0.9533025949162642 0.25687131014854103 -0.1588436103483211
vn 0.9902856523537762 0.11826302682295385 -0.07313127394575646
vn -0.9902856523537762 -0.11826302682295385 0.07313127394575646
vn 0.9903137129425835 -0.11809293016160871 0.07302608988382041
vn -0.9903137129425835 0.11809293016160871 -0.07302608988382041
vn 0.9999999959500012 0.00007654677598735292 -0.00004733485515110325
vn -0.9999999959500012 -0.00007654677598735292 0.00004733485515110325
usemtl material_0_0
f 1//1 2//1 3//1
f 2//1 1//1 4//1
f 3//2 2//2 1//2
f 4//2 1//2 2//2
f 5//1 3//1 2//1
f 2//2 3//2 5//2
f 6//3 1//4 3//3
f 3//5 1//6 6//5
f 4//1 1//1 7//1
f 7//2 1//2 4//2
f 4//7 8//8 2//8
f 2//9 8//9 4//10
f 9//1 3//1 5//1
f 5//2 3//2 9//2
f 5//1 2//1 10//1
f 10//2 2//2 5//2
f 1//4 6//3 11//4
f 11//6 6//5 1//6
f 12//11 6//3 3//3
f 3//5 6//5 12//12
f 11//4 7//13 1//4
f 1//6 7//14 11//6
f 4//1 7//1 13//1
f 13//2 7//2 4//2
f 8//8 4//7 14//7
f 14//10 4//10 8//9
f 15//15 2//8 8//8
f 8//9 2//9 15//16
f 9//1 12//1 3//1
f 3//2 12//2 9//2
f 16//17 9//18 5//17
f 5//19 9//20 16//19
f 2//8 15//15 10//15
f 10//16 15//16 2//9
f 5//1 10//1 17//1
f 17//2 10//2 5//2
f 8//2 11//2 6//2
f 6//1 11//1 8//1
f 6//3 12//11 18//11
f 18//12 12//12 6//5
f 7//13 11//4 19//13
f 19//14 11//6 7//14
f 13//1 7//1 20//1
f 20//2 7//2 13//2
f 13//21 14//7 4//7
f 4//10 14//10 13//22
f 11//2 8//2 14//2
f 14//1 8//1 11//1
f 8//2 16//2 15//2
f 15//1 16//1 8//1
f 21//1 12//1 9//1
f 9//2 12//2 21//2
f 9//18 16//17 22//18
f 22//20 16//19 9//20
f 5//17 23//23 16//17
f 16//19 23//24 5//19
f 24//25 10//15 15//15
f 15//16 10//16 24//26
f 17//1 10//1 25//1
f 25//2 10//2 17//2
f 23//23 5//17 17//23
f 17//24 5//19 23//24
f 6//2 16//2 8//2
f 8//1 16//1 6//1
f 26//27 18//11 12//11
f 12//12 18//12 26//28
f 18//2 22//2 6//2
f 6//1 22//1 18//1
f 11//2 14//2 19//2
f 19//1 14//1 11//1
f 19//13 27//29 7//13
f 7//14 27//30 19//14
f 20//1 7//1 27//1
f 27//2 7//2 20//2
f 20//31 28//21 13//21
f 13//22 28//22 20//32
f 14//7 13//21 28//21
f 28//22 13//22 14//10
f 15//2 16//2 23//2
f 23//1 16//1 15//1
f 21//1 26//1 12//1
f 12//2 26//2 21//2
f 9//18 29//33 21//33
f 21//34 29//34 9//20
f 6//2 22//2 16//2
f 16//1 22//1 6//1
f 29//33 9//18 22//18
f 22//20 9//20 29//34
f 10//15 24//25 25//25
f 25//26 24//26 10//16
f 15//2 23//2 24//2
f 24//1 23//1 15//1
f 17//1 25//1 30//1
f 30//2 25//2 17//2
f 17//23 31//35 23//23
f 23//24 31//36 17//24
f 18//11 26//27 32//27
f 32//28 26//28 18//12
f 18//2 29//2 22//2
f 22//1 29//1 18//1
f 19//2 14//2 28//2
f 28//1 14//1 19//1
f 27//29 19//13 33//29
f 33//30 19//14 27//30
f 20//1 27//1 34//1
f 34//2 27//2 20//2
f 28//21 20//31 35//31
f 35//32 20//32 28//22
f 36//1 26//1 21//1
f 21//2 26//2 36//2
f 37//37 21//33 29//33
f 29//34 21//34 37//38
f 38//39 25//25 24//25
f 24//26 25//26 38//40
f 24//2 23//2 38//2
f 38//1 23//1 24//1
f 25//25 38//39 30//39
f 30//40 38//40 25//26
f 17//1 30//1 39//1
f 39//2 30//2 17//2
f 31//35 17//23 39//35
f 39//36 17//24 31//36
f 38//2 23//2 31//2
f 31//1 23//1 38//1
f 40//41 32//27 26//27
f 26//28 32//28 40//42
f 32//2 29//2 18//2
f 18//1 29//1 32//1
f 19//2 28//2 35//2
f 35//1 28//1 19//1
f 19//2 35//2 33//2
f 33//1 35//1 19//1
f 33//29 41//43 27//29
f 27//30 41//44 33//30
f 34//1 27//1 42//1
f 42//2 27//2 34//2
f 43//45 20//31 34//45
f 34//46 20//32 43//46
f 20//31 43//45 35//31
f 35//32 43//46 20//32
f 36//1 40//1 26//1
f 26//2 40//2 36//2
f 21//33 37//37 36//37
f 36//38 37//38 21//34
f 32//2 37//2 29//2
f 29//1 37//1 32//1
f 38//39 44//47 30//39
f 30//40 44//48 38//40
f 39//1 30//1 44//1
f 44//2 30//2 39//2
f 39//35 45//49 31//35
f 31//36 45//50 39//36
f 38//2 31//2 46//2
f 46//1 31//1 38//1
f 32//27 40//41 47//41
f 47//42 40//42 32//28
f 33//2 35//2 43//2
f 43//1 35//1 33//1
f 41//43 33//29 48//43
f 48//44 33//30 41//44
f 42//1 27//1 41//1
f 41//2 27//2 42//2
f 49//51 34//45 42//51
f 42//52 34//46 49//52
f 34//45 49//51 43//45
f 43//46 49//52 34//46
f 50//1 40//1 36//1
f 36//2 40//2 50//2
f 51//53 36//37 37//37
f 37//38 36//38 51//54
f 47//2 37//2 32//2
f 32//1 37//1 47//1
f 44//47 38//39 46//47
f 46//48 38//40 44//48
f 39//1 44//1 52//1
f 52//2 44//2 39//2
f 45//49 39//35 53//49
f 53//50 39//36 45//50
f 54//2 31//2 45//2
f 45//1 31//1 54//1
f 46//2 31//2 54//2
f 54//1 31//1 46//1
f 55//55 47//41 40//41
f 40//42 47//42 55//56
f 33//2 43//2 49//2
f 49//1 43//1 33//1
f 33//2 49//2 48//2
f 48//1 49//1 33//1
f 48//43 56//57 41//43
f 41//44 56//58 48//44
f 42//1 41//1 56//1
f 56//2 41//2 42//2
f 42//51 57//59 49//51
f 49//52 57//60 42//52
f 40//1 50//1 55//1
f 55//2 50//2 40//2
f 36//37 51//53 50//53
f 50//54 51//54 36//38
f 47//2 51//2 37//2
f 37//1 51//1 47//1
f 46//47 52//61 44//47
f 44//48 52//62 46//48
f 39//1 52//1 53//1
f 53//2 52//2 39//2
f 53//49 58//63 45//49
f 45//50 58//64 53//50
f 54//2 45//2 58//2
f 58//1 45//1 54//1
f 52//61 46//47 54//61
f 54//62 46//48 52//62
f 47//41 55//55 59//55
f 59//56 55//56 47//42
f 48//2 49//2 57//2
f 57//1 49//1 48//1
f 56//57 48//43 60//57
f 60//58 48//44 56//58
f 42//1 56//1 61//1
f 61//2 56//2 42//2
f 57//59 42//51 61//59
f 61//60 42//52 57//60
f 50//53 59//55 55//55
f 55//56 59//56 50//54
f 59//55 50//53 51//53
f 51//54 50//54 59//56
f 51//2 47//2 59//2
f 59//1 47//1 51//1
f 53//1 52//1 62//1
f 62//2 52//2 53//2
f 58//63 53//49 63//63
f 63//64 53//50 58//64
f 54//2 58//2 64//2
f 64//1 58//1 54//1
f 54//61 62//65 52//61
f 52//62 62//66 54//62
f 48//2 57//2 60//2
f 60//1 57//1 48//1
f 60//57 65//67 56//57
f 56//58 65//68 60//58
f 61//1 56//1 65//1
f 65//2 56//2 61//2
f 61//59 66//69 57//59
f 57//60 66//70 61//60
f 53//1 62//1 63//1
f 63//2 62//2 53//2
f 63//63 67//71 58//63
f 58//64 67//72 63//64
f 64//2 58//2 67//2
f 67//1 58//1 64//1
f 62//65 54//61 64//65
f 64//66 54//62 62//66
f 60//2 57//2 68//2
f 68//1 57//1 60//1
f 65//67 60//57 68//67
f 68//68 60//58 65//68
f 61//1 65//1 69//1
f 69//2 65//2 61//2
f 66//69 61//59 69//69
f 69//70 61//60 66//70
f 68//2 57//2 66//2
f 66//1 57//1 68//1
f 63//1 62//1 70//1
f 70//2 62//2 63//2
f 67//71 63//63 70//71
f 70//72 63//64 67//72
f 64//2 67//2 71//2
f 71//1 67//1 64//1
f 64//65 72//73 62//65
f 62//66 72//74 64//66
f 68//67 73//75 65//67
f 65//68 73//76 68//68
f 69//1 65//1 74//1
f 74//2 65//2 69//2
f 74//77 66//69 69//69
f 69//70 66//70 74//78
f 68//2 66//2 75//2
f 75//1 66//1 68//1
f 70//1 62//1 72//1
f 72//2 62//2 70//2
f 70//71 76//79 67//71
f 67//72 76//80 70//72
f 71//2 67//2 77//2
f 77//1 67//1 71//1
f 72//73 64//65 71//73
f 71//74 64//66 72//74
f 73//75 68//67 78//75
f 78//76 68//68 73//76
f 74//1 65//1 73//1
f 73//2 65//2 74//2
f 66//69 74//77 75//77
f 75//78 74//78 66//70
f 68//2 75//2 78//2
f 78//1 75//1 68//1
f 70//1 72//1 79//1
f 79//2 72//2 70//2
f 76//79 70//71 80//79
f 80//80 70//72 76//80
f 77//2 67//2 76//2
f 76//1 67//1 77//1
f 77//81 72//73 71//73
f 71//74 72//74 77//82
f 78//75 81//83 73//75
f 73//76 81//84 78//76
f 74//1 73//1 82//1
f 82//2 73//2 74//2
f 82//85 75//77 74//77
f 74//78 75//78 82//86
f 78//2 75//2 83//2
f 83//1 75//1 78//1
f 72//73 77//81 79//81
f 79//82 77//82 72//74
f 70//1 79//1 80//1
f 80//2 79//2 70//2
f 80//79 84//87 76//79
f 76//80 84//88 80//80
f 77//2 76//2 85//2
f 85//1 76//1 77//1
f 81//83 78//75 86//83
f 86//84 78//76 81//84
f 87//1 73//1 81//1
f 81//2 73//2 87//2
f 82//1 73//1 87//1
f 87//2 73//2 82//2
f 75//77 82//85 83//85
f 83//86 82//86 75//78
f 78//2 83//2 88//2
f 88//1 83//1 78//1
f 85//89 79//81 77//81
f 77//82 79//82 85//90
f 80//1 79//1 89//1
f 89//2 79//2 80//2
f 84//87 80//79 90//87
f 90//88 80//80 84//88
f 88//2 76//2 84//2
f 84//1 76//1 88//1
f 85//2 76//2 88//2
f 88//1 76//1 85//1
f 78//2 88//2 86//2
f 86//1 88//1 78//1
f 91//91 81//83 86//83
f 86//84 81//84 91//92
f 90//1 87//1 81//1
f 81//2 87//2 90//2
f 87//93 83//85 82//85
f 82//86 83//86 87//94
f 83//85 87//93 88//93
f 88//94 87//94 83//86
f 79//81 85//89 89//89
f 89//90 85//90 79//82
f 80//1 89//1 87//1
f 87//2 89//2 80//2
f 80//1 87//1 90//1
f 90//2 87//2 80//2
f 92//95 84//87 90//87
f 90//88 84//88 92//96
f 86//2 88//2 84//2
f 84//1 88//1 86//1
f 88//93 89//89 85//89
f 85//90 89//90 88//94
f 81//83 91//91 93//91
f 93//92 91//92 81//84
f 86//2 94//2 91//2
f 91//1 94//1 86//1
f 90//1 81//1 93//1
f 93//2 81//2 90//2
f 89//89 88//93 87//93
f 87//94 88//94 89//90
f 84//87 92//95 94//95
f 94//96 92//96 84//88
f 90//1 93//1 92//1
f 92//2 93//2 90//2
f 86//2 84//2 94//2
f 94//1 84//1 86//1
f 95//97 93//91 91//91
f 91//92 93//92 95//98
f 91//2 94//2 96//2
f 96//1 94//1 91//1
f 97//99 94//95 92//95
f 92//96 94//96 97//100
f 92//1 93//1 98//1
f 98//2 93//2 92//2
f 93//91 95//97 98//97
f 98//98 95//98 93//92
f 91//2 96//2 95//2
f 95//1 96//1 91//1
f 94//95 97//99 96//99
f 96//100 97//100 94//96
f 92//1 98//1 97//1
f 97//2 98//2 92//2
f 99//101 98//97 95//97
f 95//98 98//98 99//102
f 95//2 96//2 100//2
f 100//1 96//1 95//1
f 101//103 96//99 97//99
f 97//100 96//100 101//104
f 97//1 98//1 102//1
f 102//2 98//2 97//2
f 98//97 99//101 102//101
f 102//102 99//102 98//98
f 95//2 100//2 99//2
f 99//1 100//1 95//1
f 96//99 101//103 100//103
f 100//104 101//104 96//100
f 97//1 102//1 101//1
f 101//2 102//2 97//2
f 103//105 102//101 99//101
f 99//102 102//102 103//106
f 99//2 100//2 103//2
f 103//1 100//1 99//1
f 104//105 100//103 101//103
f 101//104 100//104 104//106
f 101//1 102//1 104//1
f 104//2 102//2 101//2
f 102//101 103//105 104//105
f 104//106 103//106 102//102
f 100//103 104//105 103//105
f 103//106 104//106 100//104
