mtllib new-0.mtl
v -0.068594 -0.146693 0.579415
v -0.068594 -0.146693 0.414436
v -0.068594 -0.220016 0.524847
v -0.068594 -0.150359 0.415529
v 0.114716 -0.146693 0.414436
v 0.114716 -0.220016 0.579415
v -0.068594 -0.220016 0.580508
v 0.114716 -0.220016 0.524847
v -0.068594 -0.143026 0.524847
v 0.114716 -0.150359 0.415529
v 0.114716 -0.146693 0.579415
v 0.114716 -0.220016 0.579840
v 0.114716 -0.150359 0.580508
v -0.068594 -0.150359 0.580508
v 0.114716 -0.143026 0.524847
vn 0.000000 -1.000000 0.000000
vn 0.000000 1.000000 0.000000
vn -1.000000 0.000000 0.000000
vn 1.000000 0.000000 0.000000
vn 0.000000 0.000000 -1.000000
vn 0.000000 0.000000 1.000000
usemtl material-7
f 1//4 3//4 2//4
f 2//3 3//3 1//3
f 4//2 13//2 10//2
f 10//1 13//1 4//1
f 4//3 7//3 14//3
f 14//4 7//4 4//4
f 5//3 6//3 11//3
f 11//4 6//4 5//4
f 8//5 9//5 15//5
f 15//6 9//6 8//6
f 13//2 4//2 14//2
f 14//1 4//1 13//1
f 13//4 12//4 10//4
f 10//3 12//3 13//3