# SSTK version 0.8.0
# 97
mtllib original-97.mtl
o mesh96/mesh96-geometry#mesh96-geometry
v 0.646307 0.593878 -0.542226
v 0.645682 0.609782 -0.519345
v 0.646307 0.605482 -0.517340
v 0.645682 0.598178 -0.544231
v 0.609645 0.605482 -0.517340
v 0.645682 0.589578 -0.540221
v 0.610270 0.598178 -0.544231
v 0.643851 0.613789 -0.521213
v 0.610270 0.601183 -0.515335
v 0.610270 0.609782 -0.519345
v 0.645682 0.601183 -0.515335
v 0.609645 0.593878 -0.542226
v 0.612101 0.602184 -0.546100
v 0.643851 0.602184 -0.546100
v 0.610270 0.589578 -0.540221
v 0.643851 0.585571 -0.538353
v 0.612101 0.613789 -0.521213
v 0.640938 0.617230 -0.522818
v 0.612101 0.597176 -0.513466
v 0.612101 0.585571 -0.538353
v 0.643851 0.597176 -0.513466
v 0.615014 0.617230 -0.522818
v 0.615014 0.605625 -0.547704
v 0.640938 0.605625 -0.547704
v 0.640938 0.582130 -0.536748
v 0.637142 0.608265 -0.548935
v 0.615014 0.593735 -0.511862
v 0.615014 0.582130 -0.536748
v 0.640938 0.593735 -0.511862
v 0.618811 0.619870 -0.524049
v 0.637142 0.619870 -0.524049
v 0.618811 0.608265 -0.548935
v 0.637142 0.591095 -0.510631
v 0.632720 0.609925 -0.549709
v 0.623232 0.609925 -0.549709
v 0.618811 0.591095 -0.510631
v 0.618811 0.579490 -0.535517
v 0.637142 0.579490 -0.535517
v 0.623232 0.621530 -0.524823
v 0.632720 0.621530 -0.524823
v 0.632720 0.589435 -0.509857
v 0.623232 0.589435 -0.509857
v 0.627976 0.610491 -0.549973
v 0.627976 0.622096 -0.525087
v 0.623232 0.577830 -0.534743
v 0.632720 0.577830 -0.534743
v 0.627976 0.588869 -0.509593
v 0.627976 0.577264 -0.534479
vn 0.9914455518166438 0.11829194652607852 -0.05516097506445925
vn -0.9914455518166438 -0.11829194652607852 0.05516097506445925
vn 0 0.4226211954038148 0.9063064190412923
vn 0 -0.4226211954038148 -0.9063064190412923
vn 0.9914455518166438 -0.11829194652607852 0.05516097506445925
vn -0.9914455518166438 0.11829194652607852 -0.05516097506445925
vn 0 -0.42262201679499906 -0.9063060360166028
vn 0 0.42262201679499906 0.9063060360166028
vn 0.9238794690601927 0.3468281760871376 -0.1617310821120233
vn -0.9238794690601927 -0.3468281760871376 0.1617310821120233
vn -0.991438002773548 -0.11834400033106737 0.055185000154380014
vn 0.991438002773548 0.11834400033106737 -0.055185000154380014
vn -0.991438002773548 0.11834400033106737 -0.055185000154380014
vn 0.991438002773548 -0.11834400033106737 0.055185000154380014
vn 0.9238804057794499 -0.3468261523302415 0.1617300710338035
vn -0.9238804057794499 0.3468261523302415 -0.1617300710338035
vn -0.9238794690601927 0.3468281760871376 -0.1617310821120233
vn 0.9238794690601927 -0.3468281760871376 0.1617310821120233
vn 0.7933505835251671 0.5517277103667524 -0.25727686494074414
vn -0.7933505835251671 -0.5517277103667524 0.25727686494074414
vn -0.9238804057794499 -0.3468261523302415 0.1617300710338035
vn 0.9238804057794499 0.3468261523302415 -0.1617300710338035
vn -0.7933789032391181 0.5516939327151363 -0.2572619686242035
vn 0.7933789032391181 -0.5516939327151363 0.2572619686242035
vn 0.7933505835251671 -0.5517277103667524 0.25727686494074414
vn -0.7933505835251671 0.5517277103667524 -0.25727686494074414
vn 0.608764841734859 0.719018813071311 -0.3352869128329578
vn -0.608764841734859 -0.719018813071311 0.3352869128329578
vn -0.7933789032391181 -0.5516939327151363 0.2572619686242035
vn 0.7933789032391181 0.5516939327151363 -0.2572619686242035
vn -0.608764841734859 0.719018813071311 -0.3352869128329578
vn 0.608764841734859 -0.719018813071311 0.3352869128329578
vn 0.6087599438425064 -0.7190229336708566 0.3352869690701137
vn -0.6087599438425064 0.7190229336708566 -0.3352869690701137
vn 0.3826788754537361 0.8373187274871288 -0.3904538729232935
vn -0.3826788754537361 -0.8373187274871288 0.3904538729232935
vn -0.6087599438425064 -0.7190229336708566 0.3352869690701137
vn 0.6087599438425064 0.7190229336708566 -0.3352869690701137
vn -0.3826788754537361 0.8373187274871288 -0.3904538729232935
vn 0.3826788754537361 -0.8373187274871288 0.3904538729232935
vn 0.382685085890807 -0.8373171879295842 0.3904510876338279
vn -0.382685085890807 0.8373171879295842 -0.3904510876338279
vn 0.13052001107736433 0.8985530762611015 -0.4190070355615474
vn -0.13052001107736433 -0.8985530762611015 0.4190070355615474
vn -0.13052001107736433 0.8985530762611015 -0.4190070355615474
vn 0.13052001107736433 -0.8985530762611015 0.4190070355615474
vn -0.382685085890807 -0.8373171879295842 0.3904510876338279
vn 0.382685085890807 0.8373171879295842 -0.3904510876338279
usemtl material_0_0
f 1//1 2//1 3//1
f 2//1 1//1 4//1
f 3//2 2//2 1//2
f 4//2 1//2 2//2
f 5//3 3//3 2//3
f 2//4 3//4 5//4
f 3//5 6//5 1//5
f 1//6 6//6 3//6
f 1//7 7//7 4//7
f 4//8 7//8 1//8
f 4//9 8//9 2//9
f 2//10 8//10 4//10
f 9//3 3//3 5//3
f 5//4 3//4 9//4
f 5//3 2//3 10//3
f 10//4 2//4 5//4
f 6//5 3//5 11//5
f 11//6 3//6 6//6
f 6//7 12//7 1//7
f 1//8 12//8 6//8
f 1//7 12//7 7//7
f 7//8 12//8 1//8
f 4//7 7//7 13//7
f 13//8 7//8 4//8
f 8//9 4//9 14//9
f 14//10 4//10 8//10
f 10//3 2//3 8//3
f 8//4 2//4 10//4
f 9//3 11//3 3//3
f 3//4 11//4 9//4
f 5//11 15//11 9//11
f 9//12 15//12 5//12
f 10//13 12//13 5//13
f 5//14 12//14 10//14
f 11//15 16//15 6//15
f 6//16 16//16 11//16
f 6//7 15//7 12//7
f 12//8 15//8 6//8
f 12//13 10//13 7//13
f 7//14 10//14 12//14
f 7//17 17//17 13//17
f 13//18 17//18 7//18
f 4//7 13//7 14//7
f 14//8 13//8 4//8
f 14//19 18//19 8//19
f 8//20 18//20 14//20
f 10//3 8//3 17//3
f 17//4 8//4 10//4
f 19//3 11//3 9//3
f 9//4 11//4 19//4
f 15//11 5//11 12//11
f 12//12 5//12 15//12
f 20//21 9//21 15//21
f 15//22 9//22 20//22
f 16//15 11//15 21//15
f 21//16 11//16 16//16
f 16//7 15//7 6//7
f 6//8 15//8 16//8
f 17//17 7//17 10//17
f 10//18 7//18 17//18
f 22//23 13//23 17//23
f 17//24 13//24 22//24
f 14//7 13//7 23//7
f 23//8 13//8 14//8
f 18//19 14//19 24//19
f 24//20 14//20 18//20
f 17//3 8//3 18//3
f 18//4 8//4 17//4
f 19//3 21//3 11//3
f 11//4 21//4 19//4
f 9//21 20//21 19//21
f 19//22 20//22 9//22
f 16//7 20//7 15//7
f 15//8 20//8 16//8
f 21//25 25//25 16//25
f 16//26 25//26 21//26
f 13//23 22//23 23//23
f 23//24 22//24 13//24
f 17//3 18//3 22//3
f 22//4 18//4 17//4
f 14//7 23//7 24//7
f 24//8 23//8 14//8
f 26//27 18//27 24//27
f 24//28 18//28 26//28
f 27//3 21//3 19//3
f 19//4 21//4 27//4
f 28//29 19//29 20//29
f 20//30 19//30 28//30
f 25//7 20//7 16//7
f 16//8 20//8 25//8
f 25//25 21//25 29//25
f 29//26 21//26 25//26
f 30//31 23//31 22//31
f 22//32 23//32 30//32
f 22//3 18//3 31//3
f 31//4 18//4 22//4
f 24//7 23//7 32//7
f 32//8 23//8 24//8
f 18//27 26//27 31//27
f 31//28 26//28 18//28
f 24//7 32//7 26//7
f 26//8 32//8 24//8
f 27//3 29//3 21//3
f 21//4 29//4 27//4
f 19//29 28//29 27//29
f 27//30 28//30 19//30
f 25//7 28//7 20//7
f 20//8 28//8 25//8
f 33//33 25//33 29//33
f 29//34 25//34 33//34
f 23//31 30//31 32//31
f 32//32 30//32 23//32
f 22//3 31//3 30//3
f 30//4 31//4 22//4
f 34//35 31//35 26//35
f 26//36 31//36 34//36
f 26//7 32//7 35//7
f 35//8 32//8 26//8
f 36//3 29//3 27//3
f 27//4 29//4 36//4
f 37//37 27//37 28//37
f 28//38 27//38 37//38
f 38//7 28//7 25//7
f 25//8 28//8 38//8
f 25//33 33//33 38//33
f 38//34 33//34 25//34
f 36//3 33//3 29//3
f 29//4 33//4 36//4
f 39//39 32//39 30//39
f 30//40 32//40 39//40
f 30//3 31//3 40//3
f 40//4 31//4 30//4
f 31//35 34//35 40//35
f 40//36 34//36 31//36
f 26//7 35//7 34//7
f 34//8 35//8 26//8
f 32//39 39//39 35//39
f 35//40 39//40 32//40
f 27//37 37//37 36//37
f 36//38 37//38 27//38
f 38//7 37//7 28//7
f 28//8 37//8 38//8
f 41//41 38//41 33//41
f 33//42 38//42 41//42
f 42//3 33//3 36//3
f 36//4 33//4 42//4
f 30//3 40//3 39//3
f 39//4 40//4 30//4
f 43//43 40//43 34//43
f 34//44 40//44 43//44
f 34//7 35//7 43//7
f 43//8 35//8 34//8
f 44//45 35//45 39//45
f 39//46 35//46 44//46
f 45//47 36//47 37//47
f 37//48 36//48 45//48
f 46//7 37//7 38//7
f 38//8 37//8 46//8
f 38//41 41//41 46//41
f 46//42 41//42 38//42
f 42//3 41//3 33//3
f 33//4 41//4 42//4
f 36//47 45//47 42//47
f 42//48 45//48 36//48
f 39//3 40//3 44//3
f 44//4 40//4 39//4
f 40//43 43//43 44//43
f 44//44 43//44 40//44
f 35//45 44//45 43//45
f 43//46 44//46 35//46
f 46//7 45//7 37//7
f 37//8 45//8 46//8
f 47//46 46//46 41//46
f 41//45 46//45 47//45
f 41//3 42//3 47//3
f 47//4 42//4 41//4
f 48//44 42//44 45//44
f 45//43 42//43 48//43
f 45//7 46//7 48//7
f 48//8 46//8 45//8
f 46//46 47//46 48//46
f 48//45 47//45 46//45
f 42//44 48//44 47//44
f 47//43 48//43 42//43
