# SSTK version 0.8.0
# 95
mtllib original-95.mtl
o mesh94/mesh94-geometry#mesh94-geometry
v -0.581725 0.610371 -0.549917
v 0.628120 0.593758 -0.542170
v -0.581725 0.593758 -0.542170
v 0.628120 0.610371 -0.549917
v -0.581725 0.605344 -0.517324
v -0.581725 0.621958 -0.525071
v 0.628120 0.621958 -0.525071
v 0.628120 0.605344 -0.517324
vn 0 -0.42261999098783987 -0.906306980673457
vn 0 0.42261999098783987 0.906306980673457
vn 0 -0.9063050913551046 0.422624042600294
vn 0 0.9063050913551046 -0.422624042600294
vn -1 0 0
vn 1 0 0
vn 0 0.9063047083285343 -0.4226248639887748
vn 0 -0.9063047083285343 0.4226248639887748
vn 0 0.422624042600294 0.9063050913551046
vn 0 -0.422624042600294 -0.9063050913551046
usemtl material_0_0
f 1//1 2//1 3//1
f 2//1 1//1 4//1
f 3//2 2//2 1//2
f 4//2 1//2 2//2
f 2//3 5//3 3//3
f 3//4 5//4 2//4
f 3//5 6//5 1//5
f 1//6 6//6 3//6
f 1//7 7//7 4//7
f 4//8 7//8 1//8
f 7//6 2//6 4//6
f 4//5 2//5 7//5
f 5//3 2//3 8//3
f 8//4 2//4 5//4
f 6//5 3//5 5//5
f 5//6 3//6 6//6
f 7//7 1//7 6//7
f 6//8 1//8 7//8
f 2//6 7//6 8//6
f 8//5 7//5 2//5
f 7//9 5//9 8//9
f 8//10 5//10 7//10
f 5//9 7//9 6//9
f 6//10 7//10 5//10
