# SSTK version 0.8.0
# 33
mtllib original-33.mtl
o image_1/ID241#ID241
v 0.052661 -0.391370 0.358932
v 0.054345 -0.422195 0.366098
v 0.065148 -0.391370 0.355998
v 0.066832 -0.422195 0.363164
v 0.065148 -0.391370 0.355998
v 0.054345 -0.422195 0.366098
v 0.052661 -0.391370 0.358932
v 0.066832 -0.422195 0.363164
vt 0 1
vt 0 0
vt 1 1
vt 1 0
vn 0.22250030810492277 0.2322746631710649 0.9468590675184891
vn -0.22250030810492277 -0.2322746631710649 -0.9468590675184891
usemtl material_0_0
f 1/1/1 2/2/1 3/3/1
f 4/4/1 3/3/1 2/2/1
f 5/3/2 6/2/2 7/1/2
f 6/2/2 5/3/2 8/4/2
