# SSTK version 0.8.0
# 18
mtllib original-18.mtl
o #ID70
v -0.045971 -0.057644 -0.259578
v 0.054477 -0.043549 -0.250878
v 0.054477 -0.057644 -0.250878
v -0.045971 -0.043549 -0.259578
v -0.142103 -0.057644 -0.229176
v -0.142103 -0.043549 -0.229176
v 0.106872 -0.043549 0.223709
v -0.089708 -0.043549 0.245411
v 0.010740 -0.043549 0.254111
v 0.184052 -0.043549 0.158832
v 0.003907 -0.043549 0.192213
v 0.076871 -0.043549 0.169137
v 0.230530 -0.043549 0.069359
v 0.135451 -0.043549 0.119896
v 0.170728 -0.043549 0.051985
v 0.239229 -0.043549 -0.031089
v 0.177331 -0.043549 -0.024256
v 0.154255 -0.043549 -0.097220
v 0.208827 -0.043549 -0.127221
v 0.105014 -0.043549 -0.155800
v 0.143951 -0.043549 -0.204401
v 0.037103 -0.043549 -0.191077
v -0.039138 -0.043549 -0.197680
v 0.054477 -0.043549 -0.250878
v -0.179181 -0.043549 0.198934
v -0.072334 -0.043549 0.185610
v -0.244058 -0.043549 0.121754
v -0.140245 -0.043549 0.150333
v -0.189486 -0.043549 0.091753
v -0.274460 -0.043549 0.025622
v -0.212562 -0.043549 0.018789
v -0.265760 -0.043549 -0.074826
v -0.205959 -0.043549 -0.057452
v -0.170682 -0.043549 -0.125363
v -0.219283 -0.043549 -0.164299
v -0.112102 -0.043549 -0.174604
v -0.142103 -0.043549 -0.229176
v -0.045971 -0.043549 -0.259578
v 0.143951 -0.043549 -0.204401
v 0.143951 -0.057644 -0.204401
v -0.219283 -0.057644 -0.164299
v -0.219283 -0.043549 -0.164299
v 0.239229 -0.043549 -0.031089
v 0.230530 -0.057644 0.069359
v 0.239229 -0.057644 -0.031089
v 0.230530 -0.043549 0.069359
v 0.208827 -0.043549 -0.127221
v 0.208827 -0.057644 -0.127221
v -0.265760 -0.043549 -0.074826
v -0.265760 -0.057644 -0.074826
v -0.274460 -0.043549 0.025622
v -0.274460 -0.057644 0.025622
v -0.244058 -0.043549 0.121754
v -0.244058 -0.057644 0.121754
v -0.179181 -0.043549 0.198934
v -0.179181 -0.057644 0.198934
v -0.089708 -0.057644 0.245411
v -0.089708 -0.043549 0.245411
v 0.010740 -0.057644 0.254111
v 0.010740 -0.043549 0.254111
v 0.106872 -0.057644 0.223709
v 0.106872 -0.043549 0.223709
v 0.184052 -0.057644 0.158832
v 0.184052 -0.043549 0.158832
vn -0.10973429527497948 0 -0.9939609572012893
vn 0.27899110455293125 0 -0.9602936861087525
vn -0.48175364485754335 0 -0.8763066961209826
vn 0 1 0
vn 0.6252426687540388 0 -0.7804303973893681
vn -0.7804303973893681 0 -0.6252426687540388
vn 0.9939609572012893 0 -0.10973429527498114
vn 0.9602936861087525 0 0.27899110455293125
vn 0.8763066961209826 0 -0.48175364485754335
vn -0.9602936861087525 0 -0.27899110455293125
vn -0.9939609572012895 0 0.10973429527497915
vn -0.8763066961209826 0 0.48175364485754335
vn -0.6252426687540388 0 0.7804303973893681
vn -0.27899110455293125 0 0.9602936861087525
vn 0.10973429527497879 0 0.9939609572012895
vn 0.48175364485754335 0 0.8763066961209826
vn 0.7804303973893681 0 0.6252426687540388
usemtl material_0_0
f 1//1 2//2 3//2
f 2//2 1//1 4//1
f 5//3 4//1 1//1
f 4//1 5//3 6//3
f 7//4 8//4 9//4
f 8//4 7//4 10//4
f 8//4 10//4 11//4
f 11//4 10//4 12//4
f 12//4 10//4 13//4
f 12//4 13//4 14//4
f 14//4 13//4 15//4
f 15//4 13//4 16//4
f 15//4 16//4 17//4
f 17//4 16//4 18//4
f 18//4 16//4 19//4
f 18//4 19//4 20//4
f 20//4 19//4 21//4
f 20//4 21//4 22//4
f 22//4 21//4 23//4
f 23//4 21//4 24//4
f 11//4 25//4 8//4
f 25//4 11//4 26//4
f 25//4 26//4 27//4
f 27//4 26//4 28//4
f 27//4 28//4 29//4
f 27//4 29//4 30//4
f 30//4 29//4 31//4
f 30//4 31//4 32//4
f 32//4 31//4 33//4
f 32//4 33//4 34//4
f 32//4 34//4 35//4
f 35//4 34//4 36//4
f 35//4 36//4 23//4
f 35//4 23//4 37//4
f 37//4 23//4 24//4
f 37//4 24//4 38//4
f 3//2 39//5 40//5
f 39//5 3//2 2//2
f 41//6 6//3 5//3
f 6//3 41//6 42//6
f 43//7 44//8 45//7
f 44//8 43//7 46//8
f 47//9 45//7 48//9
f 45//7 47//9 43//7
f 39//5 48//9 40//5
f 48//9 39//5 47//9
f 49//10 41//6 50//10
f 41//6 49//10 42//6
f 51//11 50//10 52//11
f 50//10 51//11 49//10
f 53//12 52//11 54//12
f 52//11 53//12 51//11
f 55//13 54//12 56//13
f 54//12 55//13 53//12
f 55//13 57//14 58//14
f 57//14 55//13 56//13
f 58//14 59//15 60//15
f 59//15 58//14 57//14
f 60//15 61//16 62//16
f 61//16 60//15 59//15
f 62//16 63//17 64//17
f 63//17 62//16 61//16
f 46//8 63//17 44//8
f 63//17 46//8 64//17
