# SSTK version 0.8.0
# 13
mtllib original-13.mtl
o #ID36
v -0.117185 -0.474644 0.387720
v -0.108673 -0.552567 0.398394
v -0.120752 -0.514444 0.393172
v -0.098517 -0.439226 0.382868
v -0.082789 -0.583209 0.402591
v -0.067590 -0.413581 0.379355
v -0.047040 -0.601704 0.405125
v -0.029111 -0.401615 0.377716
v -0.006868 -0.605237 0.405609
v 0.011061 -0.405148 0.378200
v 0.031610 -0.593271 0.403969
v 0.046810 -0.423644 0.380733
v 0.062538 -0.567627 0.400457
v 0.072694 -0.454285 0.384931
v 0.081206 -0.532208 0.395605
v 0.084772 -0.492408 0.390153
vn 0 -0.13571560493406218 -0.99074783601953
usemtl material_0_0
f 1//1 2//1 3//1
f 2//1 1//1 4//1
f 2//1 4//1 5//1
f 5//1 4//1 6//1
f 5//1 6//1 7//1
f 7//1 6//1 8//1
f 7//1 8//1 9//1
f 9//1 8//1 10//1
f 9//1 10//1 11//1
f 11//1 10//1 12//1
f 11//1 12//1 13//1
f 13//1 12//1 14//1
f 13//1 14//1 15//1
f 15//1 14//1 16//1
