# SSTK version 0.8.0
# 3
mtllib original-3.mtl
o #ID195
v 0.016583 -0.767083 0.313395
v 0.146851 -0.799971 0.271008
v 0.016583 -0.799971 0.313395
v 0.146851 -0.767083 0.271008
v -0.119663 -0.767083 0.299132
v -0.119663 -0.799971 0.299132
v -0.319008 -0.767083 -0.148102
v -0.318896 -0.767083 0.119892
v -0.347434 -0.767083 -0.014093
v -0.238533 -0.767083 -0.258963
v -0.275385 -0.767083 -0.014123
v -0.253176 -0.767083 -0.118825
v -0.190301 -0.767083 -0.205441
v -0.119924 -0.767083 -0.327508
v -0.097631 -0.767083 -0.258995
v 0.016310 -0.767083 -0.341884
v 0.008809 -0.767083 -0.270227
v 0.110615 -0.767083 -0.237195
v 0.146614 -0.767083 -0.299606
v 0.190185 -0.767083 -0.165611
v 0.248456 -0.767083 -0.207984
v 0.233759 -0.767083 -0.067851
v 0.233804 -0.767083 0.039180
v -0.238329 -0.767083 0.230686
v -0.253088 -0.767083 0.090560
v -0.190141 -0.767083 0.177124
v -0.119663 -0.767083 0.299132
v -0.097427 -0.767083 0.230601
v 0.016583 -0.767083 0.313395
v 0.009022 -0.767083 0.241744
v 0.110801 -0.767083 0.208627
v 0.146851 -0.767083 0.271008
v 0.190311 -0.767083 0.136976
v 0.248617 -0.767083 0.179301
v 0.304227 -0.767083 -0.082860
v 0.304284 -0.767083 0.054131
v 0.248617 -0.799971 0.179301
v 0.248617 -0.767083 0.179301
v 0.146851 -0.799971 0.271008
v 0.016583 -0.861049 0.313395
v 0.146851 -0.861049 0.271008
v 0.016583 -0.799971 0.313395
v -0.238329 -0.767083 0.230686
v -0.238329 -0.799971 0.230686
v -0.119663 -0.861049 0.299132
v -0.119663 -0.799971 0.299132
v -0.318896 -0.799971 0.119892
v -0.318896 -0.767083 0.119892
v -0.347434 -0.799971 -0.014093
v -0.347434 -0.767083 -0.014093
v -0.319008 -0.799971 -0.148102
v -0.319008 -0.767083 -0.148102
v -0.238533 -0.799971 -0.258963
v -0.238533 -0.767083 -0.258963
v -0.119924 -0.767083 -0.327508
v -0.119924 -0.799971 -0.327508
v 0.016310 -0.767083 -0.341884
v 0.016310 -0.799971 -0.341884
v 0.146614 -0.767083 -0.299606
v 0.146614 -0.799971 -0.299606
v 0.248456 -0.767083 -0.207984
v 0.248456 -0.799971 -0.207984
v 0.304227 -0.799971 -0.082860
v 0.304227 -0.767083 -0.082860
v 0.304284 -0.799971 0.054131
v 0.304284 -0.767083 0.054131
v 0.248617 -0.799971 0.179301
v 0.248617 -0.861049 0.179301
v -0.238329 -0.861049 0.230686
v -0.238329 -0.799971 0.230686
v -0.318896 -0.799971 0.119892
v -0.318896 -0.861049 0.119892
v -0.347434 -0.799971 -0.014093
v -0.347434 -0.861049 -0.014093
v -0.319008 -0.799971 -0.148102
v -0.319008 -0.861049 -0.148102
v -0.238533 -0.799971 -0.258963
v -0.238533 -0.861049 -0.258963
v -0.119924 -0.861049 -0.327508
v -0.119924 -0.799971 -0.327508
v 0.016310 -0.861049 -0.341884
v 0.016310 -0.799971 -0.341884
v 0.146614 -0.861049 -0.299606
v 0.146614 -0.799971 -0.299606
v 0.248456 -0.861049 -0.207984
v 0.248456 -0.799971 -0.207984
v 0.304227 -0.799971 -0.082860
v 0.304227 -0.861049 -0.082860
v 0.304284 -0.799971 0.054131
v 0.304284 -0.861049 0.054131
vn -0.10494310291149689 0 -0.9944782275903817
vn -0.500360991332094 0 -0.8658168850011903
vn 0.30862039595209634 0 -0.9511852875241348
vn 0 -1 0
vn -0.8092619919646719 0 -0.5874478941671094
vn 0.500360991332094 0 0.8658168850011903
vn 0.10494310291149689 0 0.9944782275903817
vn 0.6688206748674149 0 -0.7434237720640197
vn -0.30862039595209634 0 0.9511852875241348
vn 0.913375795053207 0 -0.40711749779507406
vn 0.9999999130755922 0 -0.00041695180545189224
vn 0.9137149743485992 0 0.40635568859207416
vn 0.6694403846156576 0 0.7428657829282758
vn 0.30941349776850835 0 0.9509275931419054
vn -0.10411379905112765 0 0.9945653909357299
vn -0.4996388933409003 0 0.8662337884549878
vn -0.8087718406482712 0 0.5881225295586009
vn -0.9780608280816476 0 0.20831950598117702
vn -0.9782342112183509 0 -0.2075038023796453
vn 0.8092619919646719 0 0.5874478941671094
vn -0.6688206748674149 0 0.7434237720640197
vn -0.913375795053207 0 0.40711749779507406
vn -0.9999999130755922 0 0.00041695180545189224
vn -0.9137149743485992 0 -0.40635568859207416
vn -0.6694403846156576 0 -0.7428657829282758
vn -0.30941349776850835 0 -0.9509275931419054
vn 0.10411379905112765 0 -0.9945653909357299
vn 0.4996388933409003 0 -0.8662337884549878
vn 0.8087718406482712 0 -0.5881225295586009
vn 0.9780608280816476 0 -0.20831950598117702
vn 0.9782342112183509 0 0.2075038023796453
usemtl material_0_0
f 1//1 2//2 3//1
f 2//2 1//1 4//2
f 5//3 3//1 6//3
f 3//1 5//3 1//1
f 7//4 8//4 9//4
f 8//4 7//4 10//4
f 8//4 10//4 11//4
f 11//4 10//4 12//4
f 12//4 10//4 13//4
f 13//4 10//4 14//4
f 13//4 14//4 15//4
f 15//4 14//4 16//4
f 15//4 16//4 17//4
f 17//4 16//4 18//4
f 18//4 16//4 19//4
f 18//4 19//4 20//4
f 20//4 19//4 21//4
f 20//4 21//4 22//4
f 22//4 21//4 23//4
f 11//4 24//4 8//4
f 24//4 11//4 25//4
f 24//4 25//4 26//4
f 24//4 26//4 27//4
f 27//4 26//4 28//4
f 27//4 28//4 29//4
f 29//4 28//4 30//4
f 29//4 30//4 31//4
f 29//4 31//4 32//4
f 32//4 31//4 33//4
f 32//4 33//4 34//4
f 34//4 33//4 23//4
f 34//4 23//4 21//4
f 34//4 21//4 35//4
f 34//4 35//4 36//4
f 4//2 37//5 2//2
f 37//5 4//2 38//5
f 39//6 40//7 41//6
f 40//7 39//6 42//7
f 43//8 6//3 44//8
f 6//3 43//8 5//3
f 42//7 45//9 40//7
f 45//9 42//7 46//9
f 47//10 43//8 44//8
f 43//8 47//10 48//10
f 49//11 48//10 47//10
f 48//10 49//11 50//11
f 51//12 50//11 49//11
f 50//11 51//12 52//12
f 53//13 52//12 51//12
f 52//12 53//13 54//13
f 55//14 53//13 56//14
f 53//13 55//14 54//13
f 57//15 56//14 58//15
f 56//14 57//15 55//14
f 59//16 58//15 60//16
f 58//15 59//16 57//15
f 61//17 60//16 62//17
f 60//16 61//17 59//16
f 61//17 63//18 64//18
f 63//18 61//17 62//17
f 64//18 65//19 66//19
f 65//19 64//18 63//18
f 66//19 37//5 38//5
f 37//5 66//19 65//19
f 67//20 41//6 68//20
f 41//6 67//20 39//6
f 46//9 69//21 45//9
f 69//21 46//9 70//21
f 71//22 69//21 70//21
f 69//21 71//22 72//22
f 73//23 72//22 71//22
f 72//22 73//23 74//23
f 75//24 74//23 73//23
f 74//23 75//24 76//24
f 77//25 76//24 75//24
f 76//24 77//25 78//25
f 77//25 79//26 78//25
f 79//26 77//25 80//26
f 80//26 81//27 79//26
f 81//27 80//26 82//27
f 82//27 83//28 81//27
f 83//28 82//27 84//28
f 84//28 85//29 83//28
f 85//29 84//28 86//29
f 85//29 87//30 88//30
f 87//30 85//29 86//29
f 88//30 89//31 90//31
f 89//31 88//30 87//30
f 90//31 67//20 68//20
f 67//20 90//31 89//31
