mtllib new-4.mtl
v 0.090392 -0.142724 0.636749
v -0.178143 -0.142724 0.636749
v 0.090392 -0.144497 0.636749
v -0.178143 -0.144497 0.636749
v -0.178143 -0.142724 0.644371
v -0.178143 -0.145025 0.644371
v 0.090392 -0.145025 0.644371
v -0.043875 -0.145025 0.697727
v -0.043875 -0.145025 0.644371
v -0.176960 -0.142724 0.644872
v -0.044702 -0.142724 0.644872
vn 0.000000 0.000000 -1.000000
vn 0.000000 0.000000 1.000000
vn 0.000000 1.000000 0.000000
vn 0.000000 -1.000000 0.000000
vn 0.000000 -0.212790 0.977098
vn 0.000000 0.212790 -0.977098
usemtl material-0
f 3//2 2//2 4//2
f 4//1 2//1 3//1
f 2//3 5//3 1//3
f 9//2 5//2 6//2
f 5//2 9//2 7//2
usemtl material-1
f 1//4 5//4 2//4
f 6//1 5//1 9//1
f 6//3 8//3 9//3
f 9//4 8//4 6//4
f 7//1 9//1 5//1
f 6//5 9//5 10//5
f 11//5 10//5 9//5
usemtl material-2
f 10//6 9//6 6//6
f 9//6 10//6 11//6