# SSTK version 0.8.0
# 41
mtllib original-41.mtl
o mesh39/mesh39-geometry#mesh39-geometry
v 0.252525 -0.150260 0.249342
v 0.182554 -0.142725 0.249342
v 0.182554 -0.150260 0.249342
v 0.252525 -0.142724 0.249342
v 0.182554 -0.142724 0.328224
v 0.252525 -0.142724 0.328224
v 0.182554 -0.150260 0.328224
v 0.252525 -0.150260 0.328224
vn 0 0 1
vn 1 9.999999999995e-7 0
vn -1 -9.999999999995e-7 0
vn 0 -1 0
vn 0 0 -1
vn 0 1 0
usemtl material_0_0
f 1//1 2//1 3//1
f 2//1 1//1 4//1
f 5//2 3//2 2//2
f 1//3 6//3 4//3
f 4//4 5//4 2//4
f 3//2 5//2 7//2
f 6//3 1//3 8//3
f 5//4 4//4 6//4
f 5//5 8//5 7//5
f 8//5 5//5 6//5
usemtl material_1_0
f 3//5 2//5 1//5
f 4//5 1//5 2//5
f 2//3 3//3 5//3
f 4//2 6//2 1//2
f 2//6 5//6 4//6
f 7//3 5//3 3//3
f 8//2 1//2 6//2
f 6//6 4//6 5//6
f 7//1 8//1 5//1
f 6//1 5//1 8//1
