# SSTK version 0.8.0
# 62
mtllib original-62.mtl
o mesh60/mesh60-geometry#mesh60-geometry
v 0.188747 -0.150261 -0.006328
v 0.188747 -0.142724 -0.053712
v 0.188747 -0.142724 -0.006328
v 0.188747 -0.150261 -0.053712
v 0.245641 -0.142724 -0.053712
v 0.245641 -0.142724 -0.006328
v 0.245641 -0.150261 -0.006328
v 0.245641 -0.150261 -0.053712
vn 1 0 0
vn 0 -1 0
vn 0 0 -1
vn 0 0 1
vn -1 0 0
vn 0 1 0
usemtl material_0_0
f 1//1 2//1 3//1
f 2//1 1//1 4//1
f 5//2 3//2 2//2
f 6//3 1//3 3//3
f 4//4 5//4 2//4
f 3//2 5//2 6//2
f 1//3 6//3 7//3
f 5//4 4//4 8//4
f 5//5 7//5 6//5
f 7//5 5//5 8//5
usemtl material_1_0
f 3//5 2//5 1//5
f 4//5 1//5 2//5
f 2//6 3//6 5//6
f 3//4 1//4 6//4
f 2//3 5//3 4//3
f 6//6 5//6 3//6
f 7//4 6//4 1//4
f 8//3 4//3 5//3
f 6//1 7//1 5//1
f 8//1 5//1 7//1
