# SSTK version 0.8.0
# 64
mtllib original-64.mtl
o mesh62/mesh62-geometry#mesh62-geometry
v -0.096583 -0.142724 0.160391
v -0.026613 -0.150261 0.160391
v -0.096583 -0.150261 0.160391
v -0.026613 -0.142724 0.160391
v -0.096583 -0.142724 0.081509
v -0.026613 -0.142724 0.081509
v -0.096583 -0.150261 0.081509
v -0.026613 -0.150261 0.081509
vn 0 0 -1
vn 1 0 0
vn 0 -1 0
vn -1 0 0
vn 0 0 1
vn 0 1 0
usemtl material_0_0
f 1//1 2//1 3//1
f 2//1 1//1 4//1
f 3//2 5//2 1//2
f 5//3 4//3 1//3
f 6//4 2//4 4//4
f 5//2 3//2 7//2
f 4//3 5//3 6//3
f 2//4 6//4 8//4
f 8//5 5//5 7//5
f 5//5 8//5 6//5
usemtl material_1_0
f 3//5 2//5 1//5
f 4//5 1//5 2//5
f 1//4 5//4 3//4
f 1//6 4//6 5//6
f 4//2 2//2 6//2
f 7//4 3//4 5//4
f 6//6 5//6 4//6
f 8//2 6//2 2//2
f 7//1 5//1 8//1
f 6//1 8//1 5//1
