# SSTK version 0.8.0
# 7
mtllib original-7.mtl
o #ID39
v -0.601307 0.767828 0.153913
v -0.536169 0.664636 0.301269
v -0.597615 0.664636 0.152924
v -0.539479 0.767828 0.303180
v -0.539479 0.767828 0.303180
v -0.601307 0.767828 0.153913
v -0.536169 0.664636 0.301269
v -0.597615 0.664636 0.152924
v -0.622396 0.767828 -0.006270
v -0.618574 0.664636 -0.006270
v -0.622396 0.767828 -0.006270
v -0.618574 0.664636 -0.006270
v -0.438421 0.664636 0.428657
v -0.441124 0.767828 0.431359
v -0.441124 0.767828 0.431359
v -0.438421 0.664636 0.428657
v -0.601307 0.767828 -0.166454
v -0.597615 0.664636 -0.165464
v -0.601307 0.767828 -0.166454
v -0.597615 0.664636 -0.165464
v -0.312945 0.767828 0.529714
v -0.311034 0.664636 0.526404
v -0.311034 0.664636 0.526404
v -0.312945 0.767828 0.529714
v -0.539479 0.767828 -0.315721
v -0.536169 0.664636 -0.313810
v -0.539479 0.767828 -0.315721
v -0.536169 0.664636 -0.313810
v -0.163678 0.767828 0.591543
v -0.162689 0.664636 0.587851
v -0.162689 0.664636 0.587851
v -0.163678 0.767828 0.591543
v -0.441124 0.767828 -0.443900
v -0.438421 0.664636 -0.441197
v -0.441124 0.767828 -0.443900
v -0.438421 0.664636 -0.441197
v -0.003494 0.767828 0.612631
v -0.003494 0.664636 0.608809
v -0.003494 0.664636 0.608809
v -0.003494 0.767828 0.612631
v -0.312945 0.767828 -0.542255
v -0.311034 0.664636 -0.538945
v -0.311034 0.664636 -0.538945
v -0.312945 0.767828 -0.542255
v 0.156689 0.767828 0.591543
v 0.155700 0.664636 0.587851
v 0.155700 0.664636 0.587851
v 0.156689 0.767828 0.591543
v -0.163678 0.767828 -0.604083
v -0.162689 0.664636 -0.600391
v -0.162689 0.664636 -0.600391
v -0.163678 0.767828 -0.604083
v 0.304045 0.664636 0.526404
v 0.305956 0.767828 0.529714
v 0.305956 0.767828 0.529714
v 0.304045 0.664636 0.526404
v -0.003494 0.767828 -0.625172
v -0.003494 0.664636 -0.621350
v -0.003494 0.664636 -0.621350
v -0.003494 0.767828 -0.625172
v 0.431432 0.664636 0.428657
v 0.434135 0.767828 0.431359
v 0.434135 0.767828 0.431359
v 0.431432 0.664636 0.428657
v 0.155700 0.664636 -0.600391
v 0.156689 0.767828 -0.604083
v 0.156689 0.767828 -0.604083
v 0.155700 0.664636 -0.600391
v 0.529180 0.664636 0.301269
v 0.532490 0.767828 0.303180
v 0.532490 0.767828 0.303180
v 0.529180 0.664636 0.301269
v 0.304045 0.664636 -0.538945
v 0.305956 0.767828 -0.542255
v 0.305956 0.767828 -0.542255
v 0.304045 0.664636 -0.538945
v 0.590627 0.664636 0.152924
v 0.594319 0.767828 0.153913
v 0.594319 0.767828 0.153913
v 0.590627 0.664636 0.152924
v 0.431432 0.664636 -0.441197
v 0.434135 0.767828 -0.443900
v 0.434135 0.767828 -0.443900
v 0.431432 0.664636 -0.441197
v 0.611585 0.664636 -0.006270
v 0.615407 0.767828 -0.006270
v 0.615407 0.767828 -0.006270
v 0.611585 0.664636 -0.006270
v 0.532490 0.767828 -0.315721
v 0.529180 0.664636 -0.313810
v 0.532490 0.767828 -0.315721
v 0.529180 0.664636 -0.313810
v 0.590627 0.664636 -0.165464
v 0.594319 0.767828 -0.166454
v 0.594319 0.767828 -0.166454
v 0.590627 0.664636 -0.165464
vn 0.9652640088558894 0.03701166033956639 -0.25864170237292783
vn 0.8654320315992109 0.037011661351393686 -0.4996574182438125
vn -0.8654320315992109 -0.037011661351393686 0.4996574182438125
vn -0.9652640088558894 -0.03701166033956639 0.25864170237292783
vn 0.9993148337393698 0.037011661249606316 0
vn -0.9993148337393698 -0.037011661249606316 0
vn 0.7066222955162926 0.037011659765151264 -0.706622295516292
vn -0.7066222955162926 -0.037011659765151264 0.706622295516292
vn 0.9652640088558891 0.03701166033956628 0.2586417023729287
vn -0.9652640088558891 -0.03701166033956628 -0.2586417023729287
vn 0.49965741824381327 0.03701166135139377 -0.8654320315992104
vn -0.49965741824381327 -0.03701166135139377 0.8654320315992104
vn 0.8654320315992104 0.037011661351393464 0.49965741824381327
vn -0.8654320315992104 -0.037011661351393464 -0.49965741824381327
vn 0.2586417023729287 0.03701166033956655 -0.9652640088558891
vn -0.2586417023729287 -0.03701166033956655 0.9652640088558891
vn 0.706622295516292 0.037011659765150945 0.7066222955162926
vn -0.706622295516292 -0.037011659765150945 -0.7066222955162926
vn 0 0.03701166124960654 -0.9993148337393698
vn 0 -0.03701166124960654 0.9993148337393698
vn 0.4996574182438125 0.03701166135139338 0.8654320315992109
vn -0.4996574182438125 -0.03701166135139338 -0.8654320315992109
vn -0.25864170237292783 0.03701166033956655 -0.9652640088558894
vn 0.25864170237292783 -0.03701166033956655 0.9652640088558894
vn 0.25864170237292783 0.03701166033956612 0.9652640088558894
vn -0.25864170237292783 -0.03701166033956612 -0.9652640088558894
vn -0.4996574182438125 0.03701166135139377 -0.8654320315992109
vn 0.4996574182438125 -0.03701166135139377 0.8654320315992109
vn 0 0.0370116612496061 0.99931483373937
vn 0 -0.0370116612496061 -0.99931483373937
vn -0.706622295516292 0.037011659765151264 -0.7066222955162926
vn 0.706622295516292 -0.037011659765151264 0.7066222955162926
vn -0.2586417023729287 0.03701166033956612 0.9652640088558891
vn 0.2586417023729287 -0.03701166033956612 -0.9652640088558891
vn -0.8654320315992104 0.037011661351393686 -0.49965741824381327
vn 0.8654320315992104 -0.037011661351393686 0.49965741824381327
vn -0.49965741824381327 0.03701166135139338 0.8654320315992104
vn 0.49965741824381327 -0.03701166135139338 -0.8654320315992104
vn -0.9652640088558891 0.03701166033956639 -0.2586417023729287
vn 0.9652640088558891 -0.03701166033956639 0.2586417023729287
vn -0.7066222955162926 0.037011659765150945 0.706622295516292
vn 0.7066222955162926 -0.037011659765150945 -0.706622295516292
vn -0.9993148337393698 0.037011661249606316 0
vn 0.9993148337393698 -0.037011661249606316 0
vn -0.8654320315992109 0.037011661351393464 0.4996574182438125
vn 0.8654320315992109 -0.037011661351393464 -0.4996574182438125
vn -0.9652640088558894 0.03701166033956628 0.25864170237292783
vn 0.9652640088558894 -0.03701166033956628 -0.25864170237292783
usemtl material_0_0
f 1//1 2//2 3//1
f 2//2 1//1 4//2
f 5//3 6//4 7//3
f 8//4 7//3 6//4
f 9//5 3//1 10//5
f 3//1 9//5 1//1
f 6//4 11//6 8//4
f 12//6 8//4 11//6
f 4//2 13//7 2//2
f 13//7 4//2 14//7
f 15//8 5//3 16//8
f 7//3 16//8 5//3
f 17//9 10//5 18//9
f 10//5 17//9 9//5
f 11//6 19//10 12//6
f 20//10 12//6 19//10
f 21//11 13//7 14//7
f 13//7 21//11 22//11
f 23//12 24//12 16//8
f 15//8 16//8 24//12
f 25//13 18//9 26//13
f 18//9 25//13 17//9
f 19//10 27//14 20//10
f 28//14 20//10 27//14
f 29//15 22//11 21//11
f 22//11 29//15 30//15
f 31//16 32//16 23//12
f 24//12 23//12 32//16
f 33//17 26//13 34//17
f 26//13 33//17 25//13
f 27//14 35//18 28//14
f 36//18 28//14 35//18
f 37//19 30//15 29//15
f 30//15 37//19 38//19
f 39//20 40//20 31//16
f 32//16 31//16 40//20
f 34//17 41//21 33//17
f 41//21 34//17 42//21
f 43//22 36//18 44//22
f 35//18 44//22 36//18
f 45//23 38//19 37//19
f 38//19 45//23 46//23
f 47//24 48//24 39//20
f 40//20 39//20 48//24
f 42//21 49//25 41//21
f 49//25 42//21 50//25
f 51//26 43//22 52//26
f 44//22 52//26 43//22
f 45//23 53//27 46//23
f 53//27 45//23 54//27
f 55//28 48//24 56//28
f 47//24 56//28 48//24
f 50//25 57//29 49//25
f 57//29 50//25 58//29
f 59//30 51//26 60//30
f 52//26 60//30 51//26
f 54//27 61//31 53//27
f 61//31 54//27 62//31
f 63//32 55//28 64//32
f 56//28 64//32 55//28
f 65//33 57//29 58//29
f 57//29 65//33 66//33
f 67//34 68//34 60//30
f 59//30 60//30 68//34
f 62//31 69//35 61//31
f 69//35 62//31 70//35
f 71//36 63//32 72//36
f 64//32 72//36 63//32
f 73//37 66//33 65//33
f 66//33 73//37 74//37
f 75//38 76//38 67//34
f 68//34 67//34 76//38
f 70//35 77//39 69//35
f 77//39 70//35 78//39
f 79//40 71//36 80//40
f 72//36 80//40 71//36
f 81//41 74//37 73//37
f 74//37 81//41 82//41
f 83//42 84//42 75//38
f 76//38 75//38 84//42
f 78//39 85//43 77//39
f 85//43 78//39 86//43
f 87//44 79//40 88//44
f 80//40 88//44 79//40
f 89//45 81//41 90//45
f 81//41 89//45 82//41
f 83//42 91//46 84//42
f 92//46 84//42 91//46
f 86//43 93//47 85//43
f 93//47 86//43 94//47
f 95//48 87//44 96//48
f 88//44 96//48 87//44
f 94//47 90//45 93//47
f 90//45 94//47 89//45
f 91//46 95//48 92//46
f 96//48 92//46 95//48
