mtllib new-3.mtl
v -0.465270 -0.156062 0.033305
v -0.577284 -0.156062 0.010902
v -0.577284 -0.156062 0.033305
v -0.465270 -0.156062 0.010902
v -0.577284 -0.156062 -0.056306
v -0.465270 -0.156062 0.078111
v -0.460618 -0.156062 0.376115
v -0.577284 -0.156062 -0.033903
v -0.577284 -0.156062 0.078111
v -0.465270 -0.156062 -0.033903
v -0.577284 -0.156062 0.100514
v -0.465270 -0.156062 0.100514
v -0.465270 -0.156062 -0.056306
v -0.577284 -0.156062 0.145320
v -0.465270 -0.156062 0.145320
v -0.460618 -0.156062 -0.094346
v -0.577284 -0.156062 0.167723
v -0.465270 -0.156062 0.167723
v -0.460618 -0.156062 0.353712
v -0.577284 -0.156062 0.212528
v -0.587091 -0.156062 -0.094346
v -0.465270 -0.156062 0.212528
v 0.569915 -0.156062 0.376115
v -0.460618 -0.167263 0.327757
v -0.577284 -0.156062 0.234931
v -0.587091 -0.156062 -0.134281
v -0.465270 -0.156062 0.234931
v 0.569915 -0.156062 0.353712
v -0.160407 -0.156062 0.415743
v -0.587091 -0.156062 0.376115
v -0.318256 -0.156062 -0.134281
v -0.587091 -0.156062 -0.201490
v 0.596290 -0.156062 0.634942
v -0.160407 -0.156062 0.550160
v 0.041219 -0.156062 0.415743
v 0.569915 -0.156062 -0.094346
v 0.043379 -0.156062 0.560592
v -0.158247 -0.156062 0.605397
v -0.613466 -0.156062 -0.227865
v -0.154479 -0.156062 -0.156684
v -0.318256 -0.156062 -0.201490
v 0.043379 -0.156062 0.605397
v 0.569915 -0.156062 -0.134281
v -0.158247 -0.156062 0.560592
v -0.613466 -0.156062 0.634942
v 0.596290 -0.156062 -0.227865
v 0.136759 -0.156062 -0.156684
v -0.046232 -0.156062 0.605397
v -0.046232 -0.156062 0.560592
v 0.569915 -0.156062 -0.201490
v 0.301080 -0.156062 -0.134281
v -0.068635 -0.156062 0.605397
v -0.613466 -0.156197 -0.230022
v -0.613466 -0.172169 -0.245067
v -0.154479 -0.156062 -0.201490
v 0.301080 -0.156062 -0.201490
v -0.068635 -0.156062 0.560592
v 0.596290 -0.156200 0.637044
v 0.596290 -0.156197 -0.230022
v -0.613466 -0.156200 0.637044
v 0.136759 -0.156062 -0.201490
v 0.596290 -0.172169 -0.245067
v -0.613466 -0.156601 -0.232145
v -0.613466 -0.156611 0.639110
v 0.596290 -0.156611 0.639110
v 0.596290 -0.156601 -0.232145
v -0.613466 -0.157268 -0.234200
v -0.613466 -0.157288 0.641106
v 0.596290 -0.157288 0.641106
v 0.596290 -0.157268 -0.234200
v -0.613466 -0.158186 -0.236156
v -0.613466 -0.158220 0.642995
v 0.596290 -0.158220 0.642995
v 0.596290 -0.158186 -0.236156
v -0.613466 -0.159342 -0.237982
v -0.613466 -0.159390 0.644747
v 0.596290 -0.159390 0.644747
v 0.596290 -0.159342 -0.237982
v -0.613466 -0.160717 -0.239648
v -0.613466 -0.160779 0.646331
v 0.596290 -0.160779 0.646331
v 0.596290 -0.160717 -0.239648
v -0.613466 -0.162290 -0.241130
v -0.613466 -0.162364 0.647720
v 0.596290 -0.162364 0.647720
v 0.596290 -0.162290 -0.241130
v -0.613466 -0.164036 -0.242403
v -0.613466 -0.164115 0.648891
v 0.596290 -0.164115 0.648891
v 0.596290 -0.164036 -0.242403
v -0.613466 -0.165927 -0.243448
v -0.613466 -0.166005 0.649823
v 0.596290 -0.166005 0.649823
v 0.596290 -0.165927 -0.243448
v -0.613466 -0.167934 -0.244248
v -0.613466 -0.168000 0.650500
v 0.596290 -0.168000 0.650500
v 0.596290 -0.167934 -0.244248
v -0.613466 -0.170026 -0.244790
v -0.613466 -0.170067 0.650911
v 0.596290 -0.170067 0.650911
v 0.596290 -0.170026 -0.244790
v -0.613466 -0.172169 0.651049
v 0.596290 -0.172169 0.651049
v 0.596384 -0.176832 -0.245067
v -0.613205 -0.176950 0.651049
v -0.613205 -0.176950 -0.245067
v 0.596384 -0.176832 0.651049
v 0.595835 -0.181464 -0.245067
v -0.612317 -0.181655 0.651049
v 0.595835 -0.181464 0.651049
v -0.612317 -0.181655 -0.245067
v 0.594652 -0.185975 -0.245067
v -0.610819 -0.186202 0.651049
v 0.594652 -0.185975 0.651049
v -0.610819 -0.186202 -0.245067
v 0.592858 -0.190281 -0.245067
v -0.608735 -0.190513 0.651049
v 0.592858 -0.190281 0.651049
v -0.608735 -0.190513 -0.245067
v 0.590487 -0.194297 -0.245067
v -0.606104 -0.194512 0.651049
v 0.590487 -0.194297 0.651049
v -0.606104 -0.194512 -0.245067
v 0.587585 -0.197949 -0.245067
v -0.602969 -0.198131 0.651049
v 0.587585 -0.197949 0.651049
v -0.602969 -0.198131 -0.245067
v 0.584208 -0.201165 -0.245067
v -0.599385 -0.201307 -0.245067
v 0.584208 -0.201165 0.651049
v -0.599385 -0.201307 0.651049
v 0.580418 -0.203885 -0.245067
v 0.580418 -0.203885 0.651049
v -0.595416 -0.203984 -0.245067
v -0.595416 -0.203984 0.651049
v 0.576291 -0.206057 -0.245067
v 0.576291 -0.206057 0.651049
v -0.591129 -0.206115 -0.245067
v -0.591129 -0.206115 0.651049
v 0.571903 -0.207638 -0.245067
v 0.571903 -0.207638 0.651049
v -0.586598 -0.207665 -0.245067
v -0.586598 -0.207665 0.651049
v 0.567339 -0.208599 -0.245067
v 0.567339 -0.208599 0.651049
v -0.581904 -0.208606 -0.245067
v -0.581904 -0.208606 0.651049
v 0.562686 -0.208921 -0.245067
v 0.562686 -0.208921 0.651049
v -0.577126 -0.208921 -0.245067
v -0.577126 -0.208921 0.651049
v 0.562686 -0.208921 -0.222664
v 0.562686 -0.208921 0.628646
v -0.577126 -0.208921 -0.222664
v -0.577126 -0.208921 0.628646
v 0.551287 -0.223270 0.620133
v 0.551287 -0.223270 -0.214151
v -0.565728 -0.223270 0.620133
v -0.565728 -0.223270 -0.214151
vn 0.000000 1.000000 0.000000
vn 1.000000 0.000000 0.000000
vn 0.000000 0.000000 1.000000
vn 0.000000 0.000000 -1.000000
vn -1.000000 0.000000 0.000000
vn 0.000000 0.998034 -0.062672
vn 0.000000 0.992144 -0.125098
vn 0.000000 0.997859 0.065403
vn 0.000000 0.991445 0.130526
vn 0.000000 0.968701 -0.248230
vn 0.000000 0.965926 0.258819
vn 0.000000 0.930039 -0.367462
vn 0.000000 0.923880 0.382683
vn 0.000000 0.876764 -0.480921
vn 0.000000 0.866025 0.500000
vn 0.000000 0.809714 -0.586824
vn 0.000000 0.793353 0.608761
vn 0.000000 0.729943 -0.683508
vn 0.000000 0.707107 0.707107
vn 0.000000 0.638704 -0.769453
vn 0.000000 0.608761 0.793353
vn 0.000000 0.537430 -0.843308
vn 0.000000 0.500000 0.866025
vn 0.000000 0.427712 -0.903915
vn 0.000000 0.382683 0.923880
vn 0.000000 0.311275 -0.950320
vn 0.000000 0.258819 0.965926
vn 0.000000 0.189947 -0.981794
vn 0.000000 0.128042 -0.991769
vn 0.000000 0.130526 0.991445
vn 0.000000 0.065403 0.997859
vn 0.000000 -1.000000 0.000000
vn 0.000000 0.918144 -0.396246
vn 0.000000 -0.918144 0.396246
vn 0.000000 -0.998034 0.062672
vn 0.000000 -0.992144 0.125098
vn 0.000000 -0.997859 -0.065403
vn 0.000000 -0.991445 -0.130526
vn 0.000000 -0.968701 0.248230
vn 0.000000 -0.130526 -0.991445
vn 0.000000 -0.258819 -0.965926
vn 0.000000 -0.965926 -0.258819
vn 0.000000 -0.500000 -0.866025
vn 0.000000 -0.930039 0.367462
vn 0.000000 -0.923880 -0.382683
vn 0.000000 -0.707107 -0.707107
vn 0.000000 -0.876764 0.480921
vn 0.000000 -0.866025 -0.500000
vn 0.000000 -0.809714 0.586824
vn 0.000000 -0.793353 -0.608761
vn 0.000000 -0.729943 0.683508
vn 0.000000 -0.638704 0.769453
vn 0.000000 -0.608761 -0.793353
vn 0.000000 -0.537430 0.843308
vn 0.000000 -0.427712 0.903915
vn 0.000000 -0.382683 -0.923880
vn 0.000000 -0.311275 0.950320
vn 0.000000 -0.189947 0.981794
vn 0.000000 -0.128042 0.991769
vn -0.998508 -0.054606 0.000000
vn -0.992742 -0.120261 0.000000
vn 0.998508 0.054606 0.000000
vn 0.992742 0.120261 0.000000
vn 0.000000 -0.065403 -0.997859
vn 0.999795 0.020246 0.000000
vn 0.998803 -0.048909 0.000000
vn -0.999795 -0.020246 0.000000
vn -0.998803 0.048909 0.000000
vn -0.968318 -0.249722 0.000000
vn 0.968318 0.249722 0.000000
vn 0.982514 -0.186187 0.000000
vn -0.982514 0.186187 0.000000
vn -0.927086 -0.374849 0.000000
vn 0.927086 0.374849 0.000000
vn 0.947449 -0.319907 0.000000
vn -0.947449 0.319907 0.000000
vn -0.869763 -0.493469 0.000000
vn 0.869763 0.493469 0.000000
vn 0.894277 -0.447514 0.000000
vn -0.894277 0.447514 0.000000
vn -0.797344 -0.603525 0.000000
vn 0.797344 0.603525 0.000000
vn 0.824015 -0.566568 0.000000
vn -0.824015 0.566568 0.000000
vn -0.711086 -0.703105 0.000000
vn 0.711086 0.703105 0.000000
vn 0.738006 -0.674795 0.000000
vn -0.738006 0.674795 0.000000
vn -0.612486 -0.790482 0.000000
vn 0.612486 0.790482 0.000000
vn 0.637892 -0.770126 0.000000
vn -0.637892 0.770126 0.000000
vn 0.525588 -0.850739 0.000000
vn -0.525588 0.850739 0.000000
vn -0.503255 -0.864138 0.000000
vn 0.503255 0.864138 0.000000
vn 0.403240 -0.915094 0.000000
vn -0.403240 0.915094 0.000000
vn -0.385289 -0.922796 0.000000
vn 0.385289 0.922796 0.000000
vn 0.273186 -0.961961 0.000000
vn -0.273186 0.961961 0.000000
vn -0.260636 -0.965437 0.000000
vn 0.260636 0.965437 0.000000
vn 0.137911 -0.990445 0.000000
vn -0.137911 0.990445 0.000000
vn -0.131459 -0.991322 0.000000
vn 0.131459 0.991322 0.000000
vn 0.069121 -0.997608 0.000000
vn -0.069121 0.997608 0.000000
vn -0.065872 -0.997828 0.000000
vn 0.065872 0.997828 0.000000
vn 0.783029 -0.621985 0.000000
vn -0.783029 0.621985 0.000000
vn 0.000000 -0.510237 -0.860034
vn 0.000000 0.510237 0.860034
vn 0.000000 -0.510237 0.860034
vn 0.000000 0.510237 -0.860034
vn -0.783029 -0.621985 0.000000
vn 0.783029 0.621985 0.000000
usemtl material-0
f 1//1 2//1 3//1
f 2//1 1//1 4//1
f 10//1 5//1 8//1
f 9//1 12//1 6//1
f 12//1 9//1 11//1
f 5//1 10//1 13//1
f 18//1 14//1 17//1
f 14//1 18//1 15//1
f 27//1 20//1 25//1
f 20//1 27//1 22//1
f 31//1 32//1 26//1
f 32//1 31//1 41//1
f 49//1 42//1 37//1
f 52//1 44//1 38//1
f 46//6 53//7 39//6
f 54//5 45//5 39//5
f 42//1 49//1 48//1
f 56//1 43//1 50//1
f 45//8 58//9 33//8
f 53//7 46//6 59//7
f 54//5 39//5 53//5
f 54//5 60//5 45//5
f 33//2 62//2 46//2
f 58//9 45//8 60//9
f 58//2 62//2 33//2
f 46//2 62//2 59//2
f 59//7 63//10 53//7
f 54//5 53//5 63//5
f 54//5 64//5 60//5
f 60//9 65//11 58//9
f 65//2 62//2 58//2
f 59//2 62//2 66//2
f 63//10 59//7 66//10
f 54//5 63//5 67//5
f 54//5 68//5 64//5
f 65//11 60//9 64//11
f 69//2 62//2 65//2
f 66//2 62//2 70//2
f 66//10 67//12 63//10
f 54//5 67//5 71//5
f 54//5 72//5 68//5
f 69//13 64//11 68//13
f 64//11 69//13 65//11
f 73//2 62//2 69//2
f 70//2 62//2 74//2
f 67//12 66//10 70//12
f 70//12 71//14 67//12
f 54//5 71//5 75//5
f 54//5 76//5 72//5
f 73//15 68//13 72//15
f 68//13 73//15 69//13
f 77//2 62//2 73//2
f 74//2 62//2 78//2
f 71//14 70//12 74//14
f 74//14 75//16 71//14
f 54//5 75//5 79//5
f 54//5 80//5 76//5
f 77//17 72//15 76//17
f 72//15 77//17 73//15
f 81//2 62//2 77//2
f 78//2 62//2 82//2
f 75//16 74//14 78//16
f 78//16 79//18 75//16
f 54//5 79//5 83//5
f 54//5 84//5 80//5
f 81//19 76//17 80//19
f 76//17 81//19 77//17
f 85//2 62//2 81//2
f 82//2 62//2 86//2
f 79//18 78//16 82//18
f 79//18 86//20 83//20
f 54//5 83//5 87//5
f 54//5 88//5 84//5
f 84//21 81//19 80//19
f 89//2 62//2 85//2
f 81//19 84//21 85//21
f 86//2 62//2 90//2
f 86//20 79//18 82//18
f 90//22 83//20 86//20
f 83//20 90//22 87//22
f 54//5 87//5 91//5
f 54//5 92//5 88//5
f 88//23 85//21 84//21
f 93//2 62//2 89//2
f 85//21 88//23 89//23
f 90//2 62//2 94//2
f 94//24 87//22 90//22
f 87//22 94//24 91//24
f 54//5 91//5 95//5
f 54//5 96//5 92//5
f 92//25 89//23 88//23
f 97//2 62//2 93//2
f 89//23 92//25 93//25
f 94//2 62//2 98//2
f 98//26 91//24 94//24
f 91//24 98//26 95//26
f 54//5 95//5 99//5
f 54//5 100//5 96//5
f 96//27 93//25 92//25
f 101//2 62//2 97//2
f 93//25 96//27 97//27
f 98//2 62//2 102//2
f 102//28 95//26 98//26
f 95//26 102//28 99//28
f 99//28 62//29 54//29
f 100//5 54//5 103//5
f 100//30 97//27 96//27
f 62//2 101//2 104//2
f 97//27 100//30 101//30
f 62//29 99//28 102//28
f 103//31 101//30 100//30
f 101//30 103//31 104//31
usemtl material-1
f 3//32 2//32 1//32
f 4//32 1//32 2//32
f 3//1 6//1 1//1
f 1//32 6//32 3//32
f 1//1 7//1 4//1
f 4//32 7//32 1//32
f 5//1 2//1 8//1
f 8//32 2//32 5//32
f 6//1 3//1 9//1
f 9//32 3//32 6//32
f 6//1 7//1 1//1
f 1//32 7//32 6//32
f 4//1 7//1 10//1
f 10//32 7//32 4//32
f 8//1 4//1 10//1
f 10//32 4//32 8//32
f 5//1 11//1 9//1
f 9//32 11//32 5//32
f 8//32 5//32 10//32
f 6//32 12//32 9//32
f 12//1 7//1 6//1
f 6//32 7//32 12//32
f 10//1 7//1 13//1
f 13//32 7//32 10//32
f 11//32 9//32 12//32
f 13//32 10//32 5//32
f 15//1 7//1 12//1
f 12//32 7//32 15//32
f 16//1 13//1 7//1
f 7//32 13//32 16//32
f 11//1 15//1 12//1
f 12//32 15//32 11//32
f 18//1 7//1 15//1
f 15//32 7//32 18//32
f 16//1 7//1 19//1
f 19//32 7//32 16//32
f 5//1 20//1 17//1
f 17//32 20//32 5//32
f 17//32 14//32 18//32
f 15//32 18//32 14//32
f 21//1 5//1 16//1
f 16//32 5//32 21//32
f 22//1 7//1 18//1
f 18//32 7//32 22//32
f 23//1 19//1 7//1
f 7//32 19//32 23//32
f 17//1 22//1 18//1
f 18//32 22//32 17//32
f 21//32 26//32 16//32
f 27//1 7//1 22//1
f 22//32 7//32 27//32
f 19//1 23//1 28//1
f 28//32 23//32 19//32
f 23//32 29//32 7//32
f 28//33 24//33 19//33
f 19//34 24//34 28//34
f 25//32 20//32 27//32
f 22//32 27//32 20//32
f 31//32 16//32 26//32
f 28//32 33//32 23//32
f 34//32 7//32 29//32
f 35//32 29//32 23//32
f 25//1 30//1 7//1
f 7//32 30//32 25//32
f 36//32 16//32 31//32
f 26//32 32//32 31//32
f 23//32 33//32 37//32
f 34//32 38//32 7//32
f 37//32 35//32 23//32
f 7//32 38//32 30//32
f 30//32 39//32 32//32
f 41//32 31//32 32//32
f 37//32 33//32 42//32
f 43//32 33//32 36//32
f 46//32 32//32 39//32
f 39//32 30//32 45//32
f 47//32 36//32 40//32
f 41//32 40//32 31//32
f 42//32 33//32 48//32
f 37//32 42//32 49//32
f 43//32 36//32 51//32
f 38//32 44//32 52//32
f 33//32 45//32 38//32
f 39//35 53//36 46//35
f 39//2 45//2 54//2
f 51//32 36//32 47//32
f 40//32 41//32 55//32
f 48//32 33//32 52//32
f 48//32 49//32 42//32
f 33//32 50//32 46//32
f 50//32 43//32 56//32
f 52//32 33//32 38//32
f 33//37 58//38 45//37
f 59//36 46//35 53//36
f 53//2 39//2 54//2
f 45//2 60//2 54//2
f 61//32 51//32 47//32
f 61//32 55//32 46//32
f 57//32 48//32 52//32
f 48//32 57//32 49//32
f 50//32 56//32 46//32
f 46//5 62//5 33//5
f 60//38 45//37 58//38
f 33//5 62//5 58//5
f 59//5 62//5 46//5
f 53//36 63//39 59//36
f 63//2 53//2 54//2
f 60//2 64//2 54//2
f 56//32 61//32 46//32
f 58//38 65//42 60//38
f 58//5 62//5 65//5
f 66//5 62//5 59//5
f 66//39 59//36 63//39
f 67//2 63//2 54//2
f 64//2 68//2 54//2
f 64//42 60//38 65//42
f 65//5 62//5 69//5
f 70//5 62//5 66//5
f 63//39 67//44 66//39
f 71//2 67//2 54//2
f 68//2 72//2 54//2
f 68//45 64//42 69//45
f 65//42 69//45 64//42
f 69//5 62//5 73//5
f 74//5 62//5 70//5
f 70//44 66//39 67//44
f 67//44 71//47 70//44
f 75//2 71//2 54//2
f 72//2 76//2 54//2
f 72//48 68//45 73//48
f 69//45 73//48 68//45
f 73//5 62//5 77//5
f 78//5 62//5 74//5
f 74//47 70//44 71//47
f 71//47 75//49 74//47
f 79//2 75//2 54//2
f 76//2 80//2 54//2
f 76//50 72//48 77//50
f 73//48 77//50 72//48
f 77//5 62//5 81//5
f 82//5 62//5 78//5
f 78//49 74//47 75//49
f 75//49 79//51 78//49
f 83//2 79//2 54//2
f 80//2 84//2 54//2
f 80//46 76//50 81//46
f 77//50 81//46 76//50
f 81//5 62//5 85//5
f 86//5 62//5 82//5
f 82//51 78//49 79//51
f 83//52 86//52 79//51
f 87//2 83//2 54//2
f 84//2 88//2 54//2
f 80//46 81//46 84//53
f 85//5 62//5 89//5
f 85//53 84//53 81//46
f 90//5 62//5 86//5
f 82//51 79//51 86//52
f 86//52 83//52 90//54
f 87//54 90//54 83//52
f 91//2 87//2 54//2
f 88//2 92//2 54//2
f 84//53 85//53 88//43
f 89//5 62//5 93//5
f 89//43 88//43 85//53
f 94//5 62//5 90//5
f 90//54 87//54 94//55
f 91//55 94//55 87//54
f 95//2 91//2 54//2
f 92//2 96//2 54//2
f 88//43 89//43 92//56
f 93//5 62//5 97//5
f 93//56 92//56 89//43
f 98//5 62//5 94//5
f 94//55 91//55 98//57
f 95//57 98//57 91//55
f 99//2 95//2 54//2
f 96//2 100//2 54//2
f 92//56 93//56 96//41
f 97//5 62//5 101//5
f 97//41 96//41 93//56
f 102//5 62//5 98//5
f 98//57 95//57 102//58
f 99//58 102//58 95//57
f 54//59 62//59 99//58
f 103//2 54//2 100//2
f 96//41 97//41 100//40
f 104//5 101//5 62//5
f 101//40 100//40 97//41
f 102//58 99//58 62//59
f 105//4 54//4 62//4
f 62//3 54//3 105//3
f 54//60 106//61 103//60
f 103//62 106//63 54//62
f 100//40 101//40 103//64
f 104//64 103//64 101//40
f 104//65 105//66 62//65
f 62//67 105//68 104//67
f 105//4 107//4 54//4
f 54//3 107//3 105//3
f 106//61 54//60 107//61
f 107//63 54//62 106//63
f 106//3 108//3 103//3
f 103//4 108//4 106//4
f 103//3 108//3 104//3
f 104//4 108//4 103//4
f 105//66 104//65 108//66
f 108//68 104//67 105//68
f 109//4 107//4 105//4
f 105//3 107//3 109//3
f 107//61 110//69 106//61
f 106//63 110//70 107//63
f 106//3 111//3 108//3
f 108//4 111//4 106//4
f 108//66 109//71 105//66
f 105//68 109//72 108//68
f 109//4 112//4 107//4
f 107//3 112//3 109//3
f 110//69 107//61 112//69
f 112//70 107//63 110//70
f 110//3 111//3 106//3
f 106//4 111//4 110//4
f 109//71 108//66 111//71
f 111//72 108//68 109//72
f 113//4 112//4 109//4
f 109//3 112//3 113//3
f 112//69 114//73 110//69
f 110//70 114//74 112//70
f 110//3 115//3 111//3
f 111//4 115//4 110//4
f 111//71 113//75 109//71
f 109//72 113//76 111//72
f 113//4 116//4 112//4
f 112//3 116//3 113//3
f 114//73 112//69 116//73
f 116//74 112//70 114//74
f 114//3 115//3 110//3
f 110//4 115//4 114//4
f 113//75 111//71 115//75
f 115//76 111//72 113//76
f 117//4 116//4 113//4
f 113//3 116//3 117//3
f 116//73 118//77 114//73
f 114//74 118//78 116//74
f 114//3 119//3 115//3
f 115//4 119//4 114//4
f 115//75 117//79 113//75
f 113//76 117//80 115//76
f 117//4 120//4 116//4
f 116//3 120//3 117//3
f 118//77 116//73 120//77
f 120//78 116//74 118//78
f 118//3 119//3 114//3
f 114//4 119//4 118//4
f 117//79 115//75 119//79
f 119//80 115//76 117//80
f 121//4 120//4 117//4
f 117//3 120//3 121//3
f 118//3 123//3 119//3
f 119//4 123//4 118//4
f 119//79 121//83 117//79
f 117//80 121//84 119//80
f 121//4 124//4 120//4
f 120//3 124//3 121//3
f 122//81 120//77 124//81
f 124//82 120//78 122//82
f 122//3 123//3 118//3
f 118//4 123//4 122//4
f 121//83 119//79 123//83
f 123//84 119//80 121//84
f 125//4 124//4 121//4
f 121//3 124//3 125//3
f 124//81 126//85 122//81
f 122//82 126//86 124//82
f 122//3 127//3 123//3
f 123//4 127//4 122//4
f 123//83 125//87 121//83
f 121//84 125//88 123//84
f 125//4 128//4 124//4
f 124//3 128//3 125//3
f 126//85 124//81 128//85
f 128//86 124//82 126//86
f 126//3 127//3 122//3
f 122//4 127//4 126//4
f 125//87 123//83 127//87
f 127//88 123//84 125//88
f 129//4 128//4 125//4
f 125//3 128//3 129//3
f 130//89 126//85 128//85
f 128//86 126//86 130//90
f 126//3 131//3 127//3
f 127//4 131//4 126//4
f 131//91 125//87 127//87
f 127//88 125//88 131//92
f 129//4 130//4 128//4
f 128//3 130//3 129//3
f 125//87 131//91 129//91
f 129//92 131//92 125//88
f 126//85 130//89 132//89
f 132//90 130//90 126//86
f 132//3 131//3 126//3
f 126//4 131//4 132//4
f 133//4 130//4 129//4
f 129//3 130//3 133//3
f 135//95 132//89 130//89
f 130//90 132//90 135//96
f 132//3 134//3 131//3
f 131//4 134//4 132//4
f 133//4 135//4 130//4
f 130//3 135//3 133//3
f 129//91 134//93 133//93
f 133//94 134//94 129//92
f 132//89 135//95 136//95
f 136//96 135//96 132//90
f 136//3 134//3 132//3
f 132//4 134//4 136//4
f 137//4 135//4 133//4
f 133//3 135//3 137//3
f 138//97 133//93 134//93
f 134//94 133//94 138//98
f 139//99 136//95 135//95
f 135//96 136//96 139//100
f 136//3 138//3 134//3
f 134//4 138//4 136//4
f 137//4 139//4 135//4
f 135//3 139//3 137//3
f 133//93 138//97 137//97
f 137//98 138//98 133//94
f 136//95 139//99 140//99
f 140//100 139//100 136//96
f 140//3 138//3 136//3
f 136//4 138//4 140//4
f 141//4 139//4 137//4
f 137//3 139//3 141//3
f 140//3 142//3 138//3
f 138//4 142//4 140//4
f 141//4 143//4 139//4
f 139//3 143//3 141//3
f 137//97 142//101 141//101
f 141//102 142//102 137//98
f 140//99 143//103 144//103
f 144//104 143//104 140//100
f 144//3 142//3 140//3
f 140//4 142//4 144//4
f 145//4 143//4 141//4
f 141//3 143//3 145//3
f 146//105 141//101 142//101
f 142//102 141//102 146//106
f 147//107 144//103 143//103
f 143//104 144//104 147//108
f 144//3 146//3 142//3
f 142//4 146//4 144//4
f 145//4 147//4 143//4
f 143//3 147//3 145//3
f 144//103 147//107 148//107
f 148//108 147//108 144//104
f 148//3 146//3 144//3
f 144//4 146//4 148//4
f 149//4 147//4 145//4
f 145//3 147//3 149//3
f 150//109 145//105 146//105
f 146//106 145//106 150//110
f 152//3 146//3 148//3
f 148//4 146//4 152//4
f 147//4 149//4 151//4
f 151//3 149//3 147//3
f 145//105 153//109 149//109
f 149//110 153//110 145//106
f 154//109 145//105 150//109
f 150//110 145//106 154//110
f 146//3 152//3 150//3
f 150//4 152//4 146//4
f 148//107 151//111 152//111
f 152//112 151//112 148//108
f 149//32 155//32 151//32
f 151//1 155//1 149//1
f 153//109 145//105 154//109
f 154//110 145//106 153//110
f 155//32 149//32 153//32
f 153//1 149//1 155//1
f 152//32 154//32 150//32
f 150//1 154//1 152//1
f 157//113 153//113 154//113
f 154//114 153//114 157//114
f 158//115 155//115 153//115
f 153//116 155//116 158//116
f 159//117 154//117 156//117
f 156//118 154//118 159//118
f 153//113 157//113 158//113
f 158//114 157//114 153//114
f 154//117 159//117 157//117
f 157//118 159//118 154//118
f 155//119 159//119 156//119
f 156//120 159//120 155//120
f 155//115 158//115 160//115
f 160//116 158//116 155//116
f 159//32 158//32 157//32
f 157//1 158//1 159//1
f 159//119 155//119 160//119
f 160//120 155//120 159//120
f 158//32 159//32 160//32
f 160//1 159//1 158//1
usemtl material-2
f 16//1 26//1 21//1
f 7//1 29//1 23//1
f 26//1 16//1 31//1
f 23//1 33//1 28//1
f 29//1 7//1 34//1
f 23//1 29//1 35//1
f 31//1 16//1 36//1
f 37//1 33//1 23//1
f 7//1 38//1 34//1
f 23//1 35//1 37//1
f 30//1 38//1 7//1
f 32//1 39//1 30//1
f 42//1 33//1 37//1
f 36//1 33//1 43//1
f 39//1 32//1 46//1
f 45//1 30//1 39//1
f 40//1 36//1 47//1
f 31//1 40//1 41//1
f 48//1 33//1 42//1
f 51//1 36//1 43//1
f 38//1 45//1 33//1
f 47//1 36//1 51//1
f 55//1 41//1 40//1
f 52//1 33//1 48//1
f 46//1 50//1 33//1
f 38//1 33//1 52//1
f 47//1 51//1 61//1
f 46//1 55//1 61//1
f 52//1 48//1 57//1
f 49//1 57//1 48//1
f 46//1 56//1 50//1
f 46//1 61//1 56//1