# SSTK version 0.8.0
# 86
mtllib original-86.mtl
o mesh75/mesh75-geometry#mesh75-geometry
v -0.090585 -0.155978 -0.013339
v -0.090589 -0.155978 -0.009167
v -0.090690 -0.155978 -0.011226
v -0.090287 -0.155978 -0.007419
v -0.090270 -0.155978 -0.015134
v -0.089783 -0.155978 -0.005981
v -0.089745 -0.155978 -0.016612
v -0.089078 -0.155978 -0.004854
v -0.089011 -0.155978 -0.017774
v -0.088217 -0.155978 -0.004003
v -0.088108 -0.155978 -0.018651
v -0.087244 -0.155978 -0.003396
v -0.087410 -0.155978 -0.012522
v -0.087081 -0.155978 -0.019278
v -0.087140 -0.155978 -0.008759
v -0.087102 -0.155978 -0.014886
v -0.086783 -0.155978 -0.013134
v -0.086962 -0.155978 -0.007391
v -0.086851 -0.155978 -0.015702
v -0.086982 -0.155978 -0.009985
v -0.086160 -0.155978 -0.003031
v -0.085928 -0.155978 -0.019654
v -0.086509 -0.155978 -0.010871
v -0.086430 -0.155978 -0.006375
v -0.086537 -0.155978 -0.016275
v -0.086083 -0.155978 -0.013570
v -0.085669 -0.155978 -0.005745
v -0.085766 -0.155978 -0.016951
v -0.085807 -0.155978 -0.011408
v -0.084965 -0.155978 -0.002910
v -0.084649 -0.155978 -0.019780
v -0.085312 -0.155978 -0.013832
v -0.084807 -0.155978 -0.005536
v -0.084841 -0.155978 -0.017176
v -0.084965 -0.155978 -0.011587
v -0.083851 -0.155978 -0.003006
v -0.084156 -0.155978 -0.017064
v -0.084469 -0.155978 -0.013920
v -0.084001 -0.155978 -0.005707
v -0.083749 -0.155978 -0.019714
v -0.084097 -0.155978 -0.011400
v -0.083342 -0.155978 -0.006223
v -0.083613 -0.155978 -0.016726
v -0.083513 -0.155978 -0.013825
v -0.082843 -0.155978 -0.003293
v -0.082929 -0.155978 -0.019516
v -0.083387 -0.155978 -0.010838
v -0.082903 -0.155978 -0.007130
v -0.083230 -0.155978 -0.016151
v -0.082628 -0.155978 -0.013542
v -0.082756 -0.155978 -0.008477
v -0.083027 -0.155978 -0.015328
v -0.082914 -0.155978 -0.009873
v -0.081941 -0.155978 -0.003772
v -0.079961 -0.155978 -0.015666
v -0.082191 -0.155978 -0.019187
v -0.081814 -0.155978 -0.013070
v -0.081534 -0.155978 -0.018726
v -0.081145 -0.155978 -0.004442
v -0.080972 -0.155978 -0.018140
v -0.081071 -0.155978 -0.012410
v -0.080524 -0.155978 -0.017434
v -0.080494 -0.155978 -0.005271
v -0.080186 -0.155978 -0.016610
v -0.080453 -0.155978 -0.011600
v -0.080029 -0.155978 -0.006226
v -0.080011 -0.155978 -0.010680
v -0.079750 -0.155978 -0.007305
v -0.079746 -0.155978 -0.009650
v -0.079657 -0.155978 -0.008511
vn 0 -1 0
vn 0 1 0
usemtl material_0_0
f 1//1 2//1 3//1
f 2//1 1//1 4//1
f 3//2 2//2 1//2
f 4//2 1//2 2//2
f 4//1 1//1 5//1
f 5//2 1//2 4//2
f 4//1 5//1 6//1
f 6//2 5//2 4//2
f 6//1 5//1 7//1
f 7//2 5//2 6//2
f 6//1 7//1 8//1
f 8//2 7//2 6//2
f 8//1 7//1 9//1
f 9//2 7//2 8//2
f 8//1 9//1 10//1
f 10//2 9//2 8//2
f 10//1 9//1 11//1
f 11//2 9//2 10//2
f 10//1 11//1 12//1
f 12//2 11//2 10//2
f 12//1 11//1 13//1
f 13//2 11//2 12//2
f 14//1 13//1 11//1
f 11//2 13//2 14//2
f 12//1 13//1 15//1
f 15//2 13//2 12//2
f 13//1 14//1 16//1
f 16//2 14//2 13//2
f 15//1 13//1 17//1
f 17//2 13//2 15//2
f 18//1 12//1 15//1
f 15//2 12//2 18//2
f 16//1 14//1 19//1
f 19//2 14//2 16//2
f 15//1 17//1 20//1
f 20//2 17//2 15//2
f 12//1 18//1 21//1
f 21//2 18//2 12//2
f 19//1 14//1 22//1
f 22//2 14//2 19//2
f 20//1 17//1 23//1
f 23//2 17//2 20//2
f 21//1 18//1 24//1
f 24//2 18//2 21//2
f 19//1 22//1 25//1
f 25//2 22//2 19//2
f 23//1 17//1 26//1
f 26//2 17//2 23//2
f 21//1 24//1 27//1
f 27//2 24//2 21//2
f 25//1 22//1 28//1
f 28//2 22//2 25//2
f 23//1 26//1 29//1
f 29//2 26//2 23//2
f 21//1 27//1 30//1
f 30//2 27//2 21//2
f 28//1 22//1 31//1
f 31//2 22//2 28//2
f 29//1 26//1 32//1
f 32//2 26//2 29//2
f 30//1 27//1 33//1
f 33//2 27//2 30//2
f 28//1 31//1 34//1
f 34//2 31//2 28//2
f 29//1 32//1 35//1
f 35//2 32//2 29//2
f 30//1 33//1 36//1
f 36//2 33//2 30//2
f 34//1 31//1 37//1
f 37//2 31//2 34//2
f 35//1 32//1 38//1
f 38//2 32//2 35//2
f 36//1 33//1 39//1
f 39//2 33//2 36//2
f 37//1 31//1 40//1
f 40//2 31//2 37//2
f 35//1 38//1 41//1
f 41//2 38//2 35//2
f 36//1 39//1 42//1
f 42//2 39//2 36//2
f 37//1 40//1 43//1
f 43//2 40//2 37//2
f 41//1 38//1 44//1
f 44//2 38//2 41//2
f 36//1 42//1 45//1
f 45//2 42//2 36//2
f 43//1 40//1 46//1
f 46//2 40//2 43//2
f 41//1 44//1 47//1
f 47//2 44//2 41//2
f 45//1 42//1 48//1
f 48//2 42//2 45//2
f 43//1 46//1 49//1
f 49//2 46//2 43//2
f 47//1 44//1 50//1
f 50//2 44//2 47//2
f 45//1 48//1 51//1
f 51//2 48//2 45//2
f 49//1 46//1 52//1
f 52//2 46//2 49//2
f 47//1 50//1 53//1
f 53//2 50//2 47//2
f 45//1 51//1 54//1
f 54//2 51//2 45//2
f 52//1 46//1 55//1
f 55//2 46//2 52//2
f 53//1 50//1 51//1
f 51//2 50//2 53//2
f 54//1 51//1 50//1
f 50//2 51//2 54//2
f 55//1 46//1 56//1
f 56//2 46//2 55//2
f 54//1 50//1 57//1
f 57//2 50//2 54//2
f 55//1 56//1 58//1
f 58//2 56//2 55//2
f 54//1 57//1 59//1
f 59//2 57//2 54//2
f 55//1 58//1 60//1
f 60//2 58//2 55//2
f 59//1 57//1 61//1
f 61//2 57//2 59//2
f 55//1 60//1 62//1
f 62//2 60//2 55//2
f 59//1 61//1 63//1
f 63//2 61//2 59//2
f 55//1 62//1 64//1
f 64//2 62//2 55//2
f 63//1 61//1 65//1
f 65//2 61//2 63//2
f 63//1 65//1 66//1
f 66//2 65//2 63//2
f 66//1 65//1 67//1
f 67//2 65//2 66//2
f 66//1 67//1 68//1
f 68//2 67//2 66//2
f 68//1 67//1 69//1
f 69//2 67//2 68//2
f 68//1 69//1 70//1
f 70//2 69//2 68//2
