# SSTK version 0.8.0
# 169
mtllib original-169.mtl
o mesh150/mesh150-geometry#mesh150-geometry
v -0.425064 -0.155978 0.093985
v -0.425439 -0.155978 0.097652
v -0.425576 -0.155978 0.094604
v -0.425294 -0.155978 0.096483
v -0.425414 -0.155978 0.105786
v -0.425113 -0.155978 0.096022
v -0.427812 -0.155978 0.105786
v -0.425414 -0.155978 0.101220
v -0.424859 -0.155978 0.095641
v -0.425576 -0.155978 0.093273
v -0.425288 -0.155978 0.098980
v -0.424398 -0.155978 0.093495
v -0.427812 -0.155978 0.093273
v -0.424755 -0.155978 0.101838
v -0.424204 -0.155978 0.095132
v -0.425098 -0.155978 0.099495
v -0.423615 -0.155978 0.093175
v -0.424833 -0.155978 0.099909
v -0.423399 -0.155978 0.094963
v -0.424161 -0.155978 0.100457
v -0.422750 -0.155978 0.093068
v -0.424129 -0.155978 0.102244
v -0.422622 -0.155978 0.095136
v -0.423775 -0.155978 0.100593
v -0.421991 -0.155978 0.093145
v -0.423483 -0.155978 0.102468
v -0.421982 -0.155978 0.095654
v -0.423356 -0.155978 0.100639
v -0.421291 -0.155978 0.093377
v -0.422767 -0.155978 0.102543
v -0.421732 -0.155978 0.096046
v -0.422590 -0.155978 0.100472
v -0.421553 -0.155978 0.096529
v -0.422007 -0.155978 0.102464
v -0.421410 -0.155978 0.097771
v -0.421965 -0.155978 0.099969
v -0.421306 -0.155978 0.102228
v -0.420663 -0.155978 0.101834
v -0.421549 -0.155978 0.099085
v -0.421722 -0.155978 0.099580
v -0.420651 -0.155978 0.093764
v -0.420079 -0.155978 0.101284
v -0.420070 -0.155978 0.094306
v -0.419593 -0.155978 0.100591
v -0.419588 -0.155978 0.094985
v -0.419246 -0.155978 0.099772
v -0.419244 -0.155978 0.095786
v -0.419038 -0.155978 0.098826
v -0.419038 -0.155978 0.096709
v -0.418969 -0.155978 0.097754
vn 0 -1 0
vn 0 1 0
usemtl material_0_0
f 1//1 2//1 3//1
f 2//1 1//1 4//1
f 3//2 2//2 1//2
f 4//2 1//2 2//2
f 5//1 3//1 2//1
f 2//2 3//2 5//2
f 4//1 1//1 6//1
f 6//2 1//2 4//2
f 7//1 3//1 5//1
f 5//2 3//2 7//2
f 5//1 2//1 8//1
f 8//2 2//2 5//2
f 6//1 1//1 9//1
f 9//2 1//2 6//2
f 7//1 10//1 3//1
f 3//2 10//2 7//2
f 11//1 8//1 2//1
f 2//2 8//2 11//2
f 9//1 1//1 12//1
f 12//2 1//2 9//2
f 10//1 7//1 13//1
f 13//2 7//2 10//2
f 8//1 11//1 14//1
f 14//2 11//2 8//2
f 9//1 12//1 15//1
f 15//2 12//2 9//2
f 14//1 11//1 16//1
f 16//2 11//2 14//2
f 15//1 12//1 17//1
f 17//2 12//2 15//2
f 14//1 16//1 18//1
f 18//2 16//2 14//2
f 15//1 17//1 19//1
f 19//2 17//2 15//2
f 14//1 18//1 20//1
f 20//2 18//2 14//2
f 19//1 17//1 21//1
f 21//2 17//2 19//2
f 14//1 20//1 22//1
f 22//2 20//2 14//2
f 19//1 21//1 23//1
f 23//2 21//2 19//2
f 22//1 20//1 24//1
f 24//2 20//2 22//2
f 23//1 21//1 25//1
f 25//2 21//2 23//2
f 22//1 24//1 26//1
f 26//2 24//2 22//2
f 23//1 25//1 27//1
f 27//2 25//2 23//2
f 26//1 24//1 28//1
f 28//2 24//2 26//2
f 27//1 25//1 29//1
f 29//2 25//2 27//2
f 26//1 28//1 30//1
f 30//2 28//2 26//2
f 27//1 29//1 31//1
f 31//2 29//2 27//2
f 30//1 28//1 32//1
f 32//2 28//2 30//2
f 31//1 29//1 33//1
f 33//2 29//2 31//2
f 30//1 32//1 34//1
f 34//2 32//2 30//2
f 33//1 29//1 35//1
f 35//2 29//2 33//2
f 34//1 32//1 36//1
f 36//2 32//2 34//2
f 35//1 29//1 37//1
f 37//2 29//2 35//2
f 34//1 36//1 37//1
f 37//2 36//2 34//2
f 37//1 29//1 38//1
f 38//2 29//2 37//2
f 37//1 39//1 35//1
f 35//2 39//2 37//2
f 37//1 36//1 40//1
f 40//2 36//2 37//2
f 38//1 29//1 41//1
f 41//2 29//2 38//2
f 37//1 40//1 39//1
f 39//2 40//2 37//2
f 38//1 41//1 42//1
f 42//2 41//2 38//2
f 42//1 41//1 43//1
f 43//2 41//2 42//2
f 42//1 43//1 44//1
f 44//2 43//2 42//2
f 44//1 43//1 45//1
f 45//2 43//2 44//2
f 44//1 45//1 46//1
f 46//2 45//2 44//2
f 46//1 45//1 47//1
f 47//2 45//2 46//2
f 46//1 47//1 48//1
f 48//2 47//2 46//2
f 48//1 47//1 49//1
f 49//2 47//2 48//2
f 48//1 49//1 50//1
f 50//2 49//2 48//2
