# SSTK version 0.8.0
# 14
mtllib original-14.mtl
o mesh10/mesh10-geometry#mesh10-geometry
v 0.552682 -0.155978 0.104543
v 0.552315 -0.155978 0.109383
v 0.552182 -0.155978 0.105360
v 0.552457 -0.155978 0.107841
v 0.552340 -0.155978 0.120123
v 0.552634 -0.155978 0.107231
v 0.549997 -0.155978 0.120123
v 0.552340 -0.155978 0.114094
v 0.552882 -0.155978 0.106729
v 0.552182 -0.155978 0.103602
v 0.552463 -0.155978 0.111137
v 0.553333 -0.155978 0.103895
v 0.549997 -0.155978 0.103602
v 0.552983 -0.155978 0.114911
v 0.553522 -0.155978 0.106057
v 0.552648 -0.155978 0.111816
v 0.554098 -0.155978 0.103472
v 0.552907 -0.155978 0.112364
v 0.554308 -0.155978 0.105833
v 0.553564 -0.155978 0.113086
v 0.554942 -0.155978 0.103332
v 0.553595 -0.155978 0.115446
v 0.555067 -0.155978 0.106061
v 0.553941 -0.155978 0.113267
v 0.555684 -0.155978 0.103434
v 0.554226 -0.155978 0.115742
v 0.555693 -0.155978 0.106746
v 0.554350 -0.155978 0.113327
v 0.556368 -0.155978 0.103740
v 0.554925 -0.155978 0.115840
v 0.555937 -0.155978 0.107263
v 0.555099 -0.155978 0.113106
v 0.556112 -0.155978 0.107901
v 0.555668 -0.155978 0.115736
v 0.556251 -0.155978 0.109541
v 0.555709 -0.155978 0.112443
v 0.556354 -0.155978 0.115425
v 0.556982 -0.155978 0.114905
v 0.556116 -0.155978 0.111275
v 0.555946 -0.155978 0.111930
v 0.556994 -0.155978 0.104251
v 0.557552 -0.155978 0.114178
v 0.557561 -0.155978 0.104966
v 0.558027 -0.155978 0.113263
v 0.558031 -0.155978 0.105863
v 0.558365 -0.155978 0.112182
v 0.558367 -0.155978 0.106921
v 0.558569 -0.155978 0.110934
v 0.558569 -0.155978 0.108139
v 0.558636 -0.155978 0.109518
vn 0 -1 0
vn 0 1 0
usemtl material_0_0
f 1//1 2//1 3//1
f 2//1 1//1 4//1
f 3//2 2//2 1//2
f 4//2 1//2 2//2
f 5//1 3//1 2//1
f 2//2 3//2 5//2
f 4//1 1//1 6//1
f 6//2 1//2 4//2
f 7//1 3//1 5//1
f 5//2 3//2 7//2
f 5//1 2//1 8//1
f 8//2 2//2 5//2
f 6//1 1//1 9//1
f 9//2 1//2 6//2
f 7//1 10//1 3//1
f 3//2 10//2 7//2
f 11//1 8//1 2//1
f 2//2 8//2 11//2
f 9//1 1//1 12//1
f 12//2 1//2 9//2
f 10//1 7//1 13//1
f 13//2 7//2 10//2
f 8//1 11//1 14//1
f 14//2 11//2 8//2
f 9//1 12//1 15//1
f 15//2 12//2 9//2
f 14//1 11//1 16//1
f 16//2 11//2 14//2
f 15//1 12//1 17//1
f 17//2 12//2 15//2
f 14//1 16//1 18//1
f 18//2 16//2 14//2
f 15//1 17//1 19//1
f 19//2 17//2 15//2
f 14//1 18//1 20//1
f 20//2 18//2 14//2
f 19//1 17//1 21//1
f 21//2 17//2 19//2
f 14//1 20//1 22//1
f 22//2 20//2 14//2
f 19//1 21//1 23//1
f 23//2 21//2 19//2
f 22//1 20//1 24//1
f 24//2 20//2 22//2
f 23//1 21//1 25//1
f 25//2 21//2 23//2
f 22//1 24//1 26//1
f 26//2 24//2 22//2
f 23//1 25//1 27//1
f 27//2 25//2 23//2
f 26//1 24//1 28//1
f 28//2 24//2 26//2
f 27//1 25//1 29//1
f 29//2 25//2 27//2
f 26//1 28//1 30//1
f 30//2 28//2 26//2
f 27//1 29//1 31//1
f 31//2 29//2 27//2
f 30//1 28//1 32//1
f 32//2 28//2 30//2
f 31//1 29//1 33//1
f 33//2 29//2 31//2
f 30//1 32//1 34//1
f 34//2 32//2 30//2
f 33//1 29//1 35//1
f 35//2 29//2 33//2
f 34//1 32//1 36//1
f 36//2 32//2 34//2
f 35//1 29//1 37//1
f 37//2 29//2 35//2
f 34//1 36//1 37//1
f 37//2 36//2 34//2
f 37//1 29//1 38//1
f 38//2 29//2 37//2
f 37//1 39//1 35//1
f 35//2 39//2 37//2
f 37//1 36//1 40//1
f 40//2 36//2 37//2
f 38//1 29//1 41//1
f 41//2 29//2 38//2
f 37//1 40//1 39//1
f 39//2 40//2 37//2
f 38//1 41//1 42//1
f 42//2 41//2 38//2
f 42//1 41//1 43//1
f 43//2 41//2 42//2
f 42//1 43//1 44//1
f 44//2 43//2 42//2
f 44//1 43//1 45//1
f 45//2 43//2 44//2
f 44//1 45//1 46//1
f 46//2 45//2 44//2
f 46//1 45//1 47//1
f 47//2 45//2 46//2
f 46//1 47//1 48//1
f 48//2 47//2 46//2
f 48//1 47//1 49//1
f 49//2 47//2 48//2
f 48//1 49//1 50//1
f 50//2 49//2 48//2
