# SSTK version 0.8.0
# 306
mtllib original-306.mtl
o mesh25/mesh25-geometry#mesh25-geometry
v 0.442242 -0.155978 0.174167
v 0.440079 -0.155978 0.176691
v 0.440079 -0.155978 0.174167
v 0.442242 -0.155978 0.176691
v 0.440079 -0.155978 0.181514
v 0.440079 -0.155978 0.169941
v 0.440000 -0.155978 0.186405
v 0.439185 -0.155978 0.186333
v 0.440141 -0.155978 0.183221
v 0.438456 -0.155978 0.186117
v 0.441324 -0.155978 0.186286
v 0.437860 -0.155978 0.185788
v 0.440422 -0.155978 0.183621
v 0.437447 -0.155978 0.185374
v 0.440958 -0.155978 0.183779
v 0.437175 -0.155978 0.184837
v 0.442231 -0.155978 0.183475
v 0.437002 -0.155978 0.184140
v 0.442501 -0.155978 0.185931
v 0.436901 -0.155978 0.181908
v 0.436901 -0.155978 0.176691
v 0.436901 -0.155978 0.174167
v 0.436901 -0.155978 0.171789
v 0.435447 -0.155978 0.176691
v 0.435447 -0.155978 0.174167
vn 0 -1 0
vn 0 1 0
usemtl material_0_0
f 1//1 2//1 3//1
f 2//1 1//1 4//1
f 3//2 2//2 1//2
f 4//2 1//2 2//2
f 5//1 3//1 2//1
f 2//2 3//2 5//2
f 5//1 6//1 3//1
f 3//2 6//2 5//2
f 7//1 6//1 5//1
f 5//2 6//2 7//2
f 8//1 6//1 7//1
f 7//2 6//2 8//2
f 7//1 5//1 9//1
f 9//2 5//2 7//2
f 10//1 6//1 8//1
f 8//2 6//2 10//2
f 7//1 9//1 11//1
f 11//2 9//2 7//2
f 12//1 6//1 10//1
f 10//2 6//2 12//2
f 11//1 9//1 13//1
f 13//2 9//2 11//2
f 14//1 6//1 12//1
f 12//2 6//2 14//2
f 11//1 13//1 15//1
f 15//2 13//2 11//2
f 16//1 6//1 14//1
f 14//2 6//2 16//2
f 11//1 15//1 17//1
f 17//2 15//2 11//2
f 18//1 6//1 16//1
f 16//2 6//2 18//2
f 11//1 17//1 19//1
f 19//2 17//2 11//2
f 20//1 6//1 18//1
f 18//2 6//2 20//2
f 21//1 6//1 20//1
f 20//2 6//2 21//2
f 22//1 6//1 21//1
f 21//2 6//2 22//2
f 6//1 22//1 23//1
f 23//2 22//2 6//2
f 24//1 22//1 21//1
f 21//2 22//2 24//2
f 22//1 24//1 25//1
f 25//2 24//2 22//2
