# SSTK version 0.8.0
# 279
mtllib original-279.mtl
o left_arrow3/left_arrow/mesh134/mesh134-geometry#mesh134-geometry
v -0.411194 -0.156062 0.027590
v -0.440430 -0.156062 0.024789
v -0.440430 -0.156062 0.027590
v -0.411194 -0.156062 0.024789
v -0.440430 -0.156062 0.019189
v -0.440430 -0.156062 0.033190
v -0.451615 -0.156062 0.026190
vn 0 1 0
vn 0 -1 0
usemtl material_0_0
f 1//1 2//1 3//1
f 2//1 1//1 4//1
f 3//2 2//2 1//2
f 4//2 1//2 2//2
f 5//1 3//1 2//1
f 2//2 3//2 5//2
f 5//1 6//1 3//1
f 3//2 6//2 5//2
f 6//1 5//1 7//1
f 7//2 5//2 6//2
