# SSTK version 0.8.0
# 259
mtllib original-259.mtl
o mesh230/mesh230-geometry#mesh230-geometry
v 0.516134 -0.155978 0.166972
v 0.519470 -0.155978 0.169767
v 0.516134 -0.155978 0.183493
v 0.528383 -0.155978 0.166972
v 0.519470 -0.155978 0.180709
v 0.528383 -0.155978 0.169767
v 0.528699 -0.155978 0.183493
v 0.519470 -0.155978 0.173429
v 0.528699 -0.155978 0.180709
v 0.519470 -0.155978 0.176213
v 0.527764 -0.155978 0.173429
v 0.527764 -0.155978 0.176213
vn 0 -1 0
vn 0 1 0
usemtl material_0_0
f 1//1 2//1 3//1
f 2//1 1//1 4//1
f 3//2 2//2 1//2
f 4//2 1//2 2//2
f 5//1 3//1 2//1
f 2//2 3//2 5//2
f 2//1 4//1 6//1
f 6//2 4//2 2//2
f 3//1 5//1 7//1
f 7//2 5//2 3//2
f 5//1 2//1 8//1
f 8//2 2//2 5//2
f 7//1 5//1 9//1
f 9//2 5//2 7//2
f 5//1 8//1 10//1
f 10//2 8//2 5//2
f 11//1 10//1 8//1
f 8//2 10//2 11//2
f 10//1 11//1 12//1
f 12//2 11//2 10//2
