# SSTK version 0.8.0
# 184
mtllib original-184.mtl
o mesh164/mesh164-geometry#mesh164-geometry
v 0.461753 -0.155978 -0.033276
v 0.461690 -0.155978 -0.031639
v 0.461618 -0.155978 -0.032352
v 0.461906 -0.155978 -0.030982
v 0.462159 -0.155978 -0.034138
v 0.462265 -0.155978 -0.030381
v 0.462820 -0.155978 -0.034870
v 0.462769 -0.155978 -0.029838
v 0.463254 -0.155978 -0.029485
v 0.463719 -0.155978 -0.035404
v 0.463890 -0.155978 -0.029162
v 0.464030 -0.155978 -0.032523
v 0.464131 -0.155978 -0.032960
v 0.464124 -0.155978 -0.032112
v 0.464843 -0.155978 -0.035730
v 0.465616 -0.155978 -0.028601
v 0.464431 -0.155978 -0.033299
v 0.464405 -0.155978 -0.031764
v 0.465173 -0.155978 -0.033638
v 0.465224 -0.155978 -0.031355
v 0.466179 -0.155978 -0.035839
v 0.466724 -0.155978 -0.030929
v 0.466153 -0.155978 -0.033750
v 0.467636 -0.155978 -0.028056
v 0.467085 -0.155978 -0.033645
v 0.468326 -0.155978 -0.030487
v 0.467282 -0.155978 -0.035775
v 0.468187 -0.155978 -0.027805
v 0.467752 -0.155978 -0.033328
v 0.468544 -0.155978 -0.027514
v 0.468241 -0.155978 -0.035581
v 0.469448 -0.155978 -0.030029
v 0.468192 -0.155978 -0.032771
v 0.468739 -0.155978 -0.027170
v 0.468446 -0.155978 -0.031943
v 0.468804 -0.155978 -0.026760
v 0.469053 -0.155978 -0.035259
v 0.469043 -0.155978 -0.023363
v 0.470970 -0.155978 -0.032054
v 0.470011 -0.155978 -0.023939
v 0.468650 -0.155978 -0.026113
v 0.469721 -0.155978 -0.034808
v 0.470234 -0.155978 -0.029479
v 0.468186 -0.155978 -0.025554
v 0.470245 -0.155978 -0.034249
v 0.470731 -0.155978 -0.024757
v 0.467818 -0.155978 -0.023021
v 0.470628 -0.155978 -0.033603
v 0.470829 -0.155978 -0.028759
v 0.467418 -0.155978 -0.025167
v 0.470869 -0.155978 -0.032872
v 0.471179 -0.155978 -0.025728
v 0.466349 -0.155978 -0.025038
v 0.471203 -0.155978 -0.027859
v 0.466324 -0.155978 -0.022907
v 0.471328 -0.155978 -0.026769
v 0.465317 -0.155978 -0.025183
v 0.465207 -0.155978 -0.022975
v 0.464521 -0.155978 -0.025618
v 0.464229 -0.155978 -0.023181
v 0.463957 -0.155978 -0.026361
v 0.463621 -0.155978 -0.027433
v 0.463387 -0.155978 -0.023523
v 0.462683 -0.155978 -0.024002
v 0.462112 -0.155978 -0.024613
v 0.461669 -0.155978 -0.025348
v 0.461353 -0.155978 -0.026209
v 0.461166 -0.155978 -0.027195
vn 0 -1 0
vn 0 1 0
usemtl material_0_0
f 1//1 2//1 3//1
f 2//1 1//1 4//1
f 3//2 2//2 1//2
f 4//2 1//2 2//2
f 4//1 1//1 5//1
f 5//2 1//2 4//2
f 4//1 5//1 6//1
f 6//2 5//2 4//2
f 6//1 5//1 7//1
f 7//2 5//2 6//2
f 6//1 7//1 8//1
f 8//2 7//2 6//2
f 8//1 7//1 9//1
f 9//2 7//2 8//2
f 9//1 7//1 10//1
f 10//2 7//2 9//2
f 9//1 10//1 11//1
f 11//2 10//2 9//2
f 11//1 10//1 12//1
f 12//2 10//2 11//2
f 12//1 10//1 13//1
f 13//2 10//2 12//2
f 14//1 11//1 12//1
f 12//2 11//2 14//2
f 13//1 10//1 15//1
f 15//2 10//2 13//2
f 11//1 14//1 16//1
f 16//2 14//2 11//2
f 13//1 15//1 17//1
f 17//2 15//2 13//2
f 16//1 14//1 18//1
f 18//2 14//2 16//2
f 17//1 15//1 19//1
f 19//2 15//2 17//2
f 16//1 18//1 20//1
f 20//2 18//2 16//2
f 19//1 15//1 21//1
f 21//2 15//2 19//2
f 16//1 20//1 22//1
f 22//2 20//2 16//2
f 19//1 21//1 23//1
f 23//2 21//2 19//2
f 16//1 22//1 24//1
f 24//2 22//2 16//2
f 23//1 21//1 25//1
f 25//2 21//2 23//2
f 24//1 22//1 26//1
f 26//2 22//2 24//2
f 25//1 21//1 27//1
f 27//2 21//2 25//2
f 24//1 26//1 28//1
f 28//2 26//2 24//2
f 25//1 27//1 29//1
f 29//2 27//2 25//2
f 28//1 26//1 30//1
f 30//2 26//2 28//2
f 29//1 27//1 31//1
f 31//2 27//2 29//2
f 30//1 26//1 32//1
f 32//2 26//2 30//2
f 29//1 31//1 33//1
f 33//2 31//2 29//2
f 30//1 32//1 34//1
f 34//2 32//2 30//2
f 33//1 31//1 35//1
f 35//2 31//2 33//2
f 34//1 32//1 36//1
f 36//2 32//2 34//2
f 35//1 31//1 37//1
f 37//2 31//2 35//2
f 36//1 32//1 38//1
f 38//2 32//2 36//2
f 35//1 37//1 39//1
f 39//2 37//2 35//2
f 38//1 32//1 40//1
f 40//2 32//2 38//2
f 38//1 41//1 36//1
f 36//2 41//2 38//2
f 39//1 37//1 42//1
f 42//2 37//2 39//2
f 40//1 32//1 43//1
f 43//2 32//2 40//2
f 38//1 44//1 41//1
f 41//2 44//2 38//2
f 39//1 42//1 45//1
f 45//2 42//2 39//2
f 40//1 43//1 46//1
f 46//2 43//2 40//2
f 47//1 44//1 38//1
f 38//2 44//2 47//2
f 39//1 45//1 48//1
f 48//2 45//2 39//2
f 46//1 43//1 49//1
f 49//2 43//2 46//2
f 47//1 50//1 44//1
f 44//2 50//2 47//2
f 39//1 48//1 51//1
f 51//2 48//2 39//2
f 46//1 49//1 52//1
f 52//2 49//2 46//2
f 47//1 53//1 50//1
f 50//2 53//2 47//2
f 52//1 49//1 54//1
f 54//2 49//2 52//2
f 55//1 53//1 47//1
f 47//2 53//2 55//2
f 52//1 54//1 56//1
f 56//2 54//2 52//2
f 55//1 57//1 53//1
f 53//2 57//2 55//2
f 58//1 57//1 55//1
f 55//2 57//2 58//2
f 58//1 59//1 57//1
f 57//2 59//2 58//2
f 60//1 59//1 58//1
f 58//2 59//2 60//2
f 60//1 61//1 59//1
f 59//2 61//2 60//2
f 60//1 62//1 61//1
f 61//2 62//2 60//2
f 63//1 62//1 60//1
f 60//2 62//2 63//2
f 64//1 62//1 63//1
f 63//2 62//2 64//2
f 65//1 62//1 64//1
f 64//2 62//2 65//2
f 66//1 62//1 65//1
f 65//2 62//2 66//2
f 67//1 62//1 66//1
f 66//2 62//2 67//2
f 62//1 67//1 68//1
f 68//2 67//2 62//2
