# SSTK version 0.8.0
# 174
mtllib original-174.mtl
o mesh155/mesh155-geometry#mesh155-geometry
v -0.415807 -0.155978 0.110899
v -0.418205 -0.155978 0.123413
v -0.418205 -0.155978 0.110899
v -0.415807 -0.155978 0.123413
v -0.415807 -0.155978 0.117540
v -0.415807 -0.155978 0.120510
v -0.412998 -0.155978 0.114348
v -0.414688 -0.155978 0.119341
v -0.413143 -0.155978 0.117659
v -0.410045 -0.155978 0.114348
v -0.412409 -0.155978 0.123413
v -0.409823 -0.155978 0.123413
vn 0 -1 0
vn 0 1 0
usemtl material_0_0
f 1//1 2//1 3//1
f 2//1 1//1 4//1
f 3//2 2//2 1//2
f 4//2 1//2 2//2
f 4//1 1//1 5//1
f 5//2 1//2 4//2
f 4//1 5//1 6//1
f 6//2 5//2 4//2
f 7//1 6//1 5//1
f 5//2 6//2 7//2
f 6//1 7//1 8//1
f 8//2 7//2 6//2
f 8//1 7//1 9//1
f 9//2 7//2 8//2
f 9//1 7//1 10//1
f 10//2 7//2 9//2
f 9//1 11//1 8//1
f 8//2 11//2 9//2
f 11//1 9//1 12//1
f 12//2 9//2 11//2
