# SSTK version 0.8.0
# 312
mtllib original-312.mtl
o mesh267/mesh267-geometry#mesh267-geometry
v 0.245843 -0.155978 0.241018
v 0.246129 -0.155978 0.244117
v 0.246069 -0.155978 0.245807
v 0.246677 -0.155978 0.240131
v 0.246069 -0.155978 0.251228
v 0.246311 -0.155978 0.243058
v 0.242902 -0.155978 0.251228
v 0.246656 -0.155978 0.242387
v 0.245843 -0.155978 0.239260
v 0.247207 -0.155978 0.241863
v 0.242902 -0.155978 0.239260
v 0.247613 -0.155978 0.239497
v 0.247903 -0.155978 0.241525
v 0.248649 -0.155978 0.239116
v 0.248683 -0.155978 0.241413
v 0.249788 -0.155978 0.238990
v 0.249279 -0.155978 0.241491
v 0.249782 -0.155978 0.241728
v 0.250175 -0.155978 0.242107
v 0.250791 -0.155978 0.239084
v 0.250441 -0.155978 0.242613
v 0.250593 -0.155978 0.243524
v 0.250644 -0.155978 0.245120
v 0.250644 -0.155978 0.251228
v 0.253811 -0.155978 0.251228
v 0.251703 -0.155978 0.239367
v 0.252465 -0.155978 0.239797
v 0.253016 -0.155978 0.240331
v 0.253394 -0.155978 0.240956
v 0.253636 -0.155978 0.241660
v 0.253811 -0.155978 0.243790
vn 0 -1 0
vn 0 1 0
usemtl material_0_0
f 1//1 2//1 3//1
f 2//1 1//1 4//1
f 3//2 2//2 1//2
f 4//2 1//2 2//2
f 5//1 1//1 3//1
f 3//2 1//2 5//2
f 2//1 4//1 6//1
f 6//2 4//2 2//2
f 7//1 1//1 5//1
f 5//2 1//2 7//2
f 6//1 4//1 8//1
f 8//2 4//2 6//2
f 7//1 9//1 1//1
f 1//2 9//2 7//2
f 8//1 4//1 10//1
f 10//2 4//2 8//2
f 9//1 7//1 11//1
f 11//2 7//2 9//2
f 10//1 4//1 12//1
f 12//2 4//2 10//2
f 10//1 12//1 13//1
f 13//2 12//2 10//2
f 13//1 12//1 14//1
f 14//2 12//2 13//2
f 13//1 14//1 15//1
f 15//2 14//2 13//2
f 15//1 14//1 16//1
f 16//2 14//2 15//2
f 15//1 16//1 17//1
f 17//2 16//2 15//2
f 17//1 16//1 18//1
f 18//2 16//2 17//2
f 18//1 16//1 19//1
f 19//2 16//2 18//2
f 19//1 16//1 20//1
f 20//2 16//2 19//2
f 19//1 20//1 21//1
f 21//2 20//2 19//2
f 21//1 20//1 22//1
f 22//2 20//2 21//2
f 22//1 20//1 23//1
f 23//2 20//2 22//2
f 23//1 20//1 24//1
f 24//2 20//2 23//2
f 24//1 20//1 25//1
f 25//2 20//2 24//2
f 25//1 20//1 26//1
f 26//2 20//2 25//2
f 25//1 26//1 27//1
f 27//2 26//2 25//2
f 25//1 27//1 28//1
f 28//2 27//2 25//2
f 25//1 28//1 29//1
f 29//2 28//2 25//2
f 25//1 29//1 30//1
f 30//2 29//2 25//2
f 25//1 30//1 31//1
f 31//2 30//2 25//2
