# SSTK version 0.8.0
# 236
mtllib original-236.mtl
o mesh210/mesh210-geometry#mesh210-geometry
v -0.356609 -0.155978 -0.016624
v -0.353670 -0.155978 -0.015093
v -0.356825 -0.155978 -0.015409
v -0.356242 -0.155978 -0.017654
v -0.355724 -0.155978 -0.018500
v -0.355056 -0.155978 -0.019161
v -0.354266 -0.155978 -0.019659
v -0.353383 -0.155978 -0.020015
v -0.353456 -0.155978 -0.016282
v -0.352994 -0.155978 -0.017076
v -0.352406 -0.155978 -0.020228
v -0.352306 -0.155978 -0.017524
v -0.351337 -0.155978 -0.020299
v -0.351416 -0.155978 -0.017674
v -0.350522 -0.155978 -0.017531
v -0.350180 -0.155978 -0.020217
v -0.349844 -0.155978 -0.017105
v -0.349154 -0.155978 -0.019970
v -0.349417 -0.155978 -0.016413
v -0.349275 -0.155978 -0.015476
v -0.347765 -0.155978 -0.011464
v -0.349438 -0.155978 -0.014513
v -0.348259 -0.155978 -0.019558
v -0.349838 -0.155978 -0.009357
v -0.347494 -0.155978 -0.018981
v -0.349929 -0.155978 -0.013538
v -0.347014 -0.155978 -0.012545
v -0.350827 -0.155978 -0.012507
v -0.346883 -0.155978 -0.018282
v -0.351737 -0.155978 -0.007532
v -0.346497 -0.155978 -0.013577
v -0.352385 -0.155978 -0.006653
v -0.346446 -0.155978 -0.017502
v -0.352554 -0.155978 -0.010833
v -0.346197 -0.155978 -0.014613
v -0.354774 -0.155978 -0.008609
v -0.346184 -0.155978 -0.016642
v -0.356115 -0.155978 -0.006872
v -0.346097 -0.155978 -0.015702
v -0.346097 -0.155978 -0.003711
v -0.356836 -0.155978 -0.005335
v -0.346097 -0.155978 -0.006653
v -0.357197 -0.155978 -0.003711
vn 0 -1 0
vn 0 1 0
usemtl material_0_0
f 1//1 2//1 3//1
f 2//1 1//1 4//1
f 3//2 2//2 1//2
f 4//2 1//2 2//2
f 2//1 4//1 5//1
f 5//2 4//2 2//2
f 2//1 5//1 6//1
f 6//2 5//2 2//2
f 2//1 6//1 7//1
f 7//2 6//2 2//2
f 2//1 7//1 8//1
f 8//2 7//2 2//2
f 2//1 8//1 9//1
f 9//2 8//2 2//2
f 9//1 8//1 10//1
f 10//2 8//2 9//2
f 10//1 8//1 11//1
f 11//2 8//2 10//2
f 10//1 11//1 12//1
f 12//2 11//2 10//2
f 12//1 11//1 13//1
f 13//2 11//2 12//2
f 12//1 13//1 14//1
f 14//2 13//2 12//2
f 14//1 13//1 15//1
f 15//2 13//2 14//2
f 15//1 13//1 16//1
f 16//2 13//2 15//2
f 15//1 16//1 17//1
f 17//2 16//2 15//2
f 17//1 16//1 18//1
f 18//2 16//2 17//2
f 17//1 18//1 19//1
f 19//2 18//2 17//2
f 19//1 18//1 20//1
f 20//2 18//2 19//2
f 21//1 20//1 18//1
f 18//2 20//2 21//2
f 21//1 22//1 20//1
f 20//2 22//2 21//2
f 21//1 18//1 23//1
f 23//2 18//2 21//2
f 24//1 22//1 21//1
f 21//2 22//2 24//2
f 21//1 23//1 25//1
f 25//2 23//2 21//2
f 24//1 26//1 22//1
f 22//2 26//2 24//2
f 21//1 25//1 27//1
f 27//2 25//2 21//2
f 24//1 28//1 26//1
f 26//2 28//2 24//2
f 27//1 25//1 29//1
f 29//2 25//2 27//2
f 30//1 28//1 24//1
f 24//2 28//2 30//2
f 27//1 29//1 31//1
f 31//2 29//2 27//2
f 32//1 28//1 30//1
f 30//2 28//2 32//2
f 31//1 29//1 33//1
f 33//2 29//2 31//2
f 28//1 32//1 34//1
f 34//2 32//2 28//2
f 31//1 33//1 35//1
f 35//2 33//2 31//2
f 32//1 36//1 34//1
f 34//2 36//2 32//2
f 35//1 33//1 37//1
f 37//2 33//2 35//2
f 32//1 38//1 36//1
f 36//2 38//2 32//2
f 35//1 37//1 39//1
f 39//2 37//2 35//2
f 40//1 38//1 32//1
f 32//2 38//2 40//2
f 40//1 41//1 38//1
f 38//2 41//2 40//2
f 40//1 32//1 42//1
f 42//2 32//2 40//2
f 41//1 40//1 43//1
f 43//2 40//2 41//2
