# SSTK version 0.8.0
# 177
mtllib original-177.mtl
o F1/F/mesh159/mesh159-geometry#mesh159-geometry
v -0.159430 -0.155978 0.089059
v -0.156095 -0.155978 0.091854
v -0.159430 -0.155978 0.105580
v -0.148105 -0.155978 0.089059
v -0.156095 -0.155978 0.105580
v -0.148105 -0.155978 0.091854
v -0.156095 -0.155978 0.095764
v -0.156095 -0.155978 0.098559
v -0.149198 -0.155978 0.095764
v -0.149198 -0.155978 0.098559
vn 0 -1 0
vn 0 1 0
usemtl material_0_0
f 1//1 2//1 3//1
f 2//1 1//1 4//1
f 3//2 2//2 1//2
f 4//2 1//2 2//2
f 2//1 5//1 3//1
f 3//2 5//2 2//2
f 2//1 4//1 6//1
f 6//2 4//2 2//2
f 5//1 2//1 7//1
f 7//2 2//2 5//2
f 5//1 7//1 8//1
f 8//2 7//2 5//2
f 9//1 8//1 7//1
f 7//2 8//2 9//2
f 8//1 9//1 10//1
f 10//2 9//2 8//2
