# SSTK version 0.8.0
# 79
mtllib original-79.mtl
o mesh13/mesh13-geometry#mesh13-geometry
v 0.194243 -0.137667 0.379801
v 0.194555 -0.141423 0.380586
v 0.194243 -0.141423 0.379801
v 0.194555 -0.137667 0.380586
v 0.131988 -0.141423 0.380491
v 0.193852 -0.137667 0.379074
v 0.131988 -0.137667 0.380491
v 0.194781 -0.141423 0.381414
v 0.132460 -0.141423 0.379613
v 0.193852 -0.141423 0.379074
v 0.132460 -0.137667 0.379613
v 0.194781 -0.137667 0.381414
v 0.131613 -0.141423 0.381437
v 0.193388 -0.137667 0.378416
v 0.133021 -0.137667 0.378820
v 0.131613 -0.137667 0.381437
v 0.194965 -0.141423 0.383145
v 0.131340 -0.141423 0.382436
v 0.133021 -0.141423 0.378820
v 0.193388 -0.141423 0.378416
v 0.131340 -0.137667 0.382436
v 0.194965 -0.137667 0.383145
v 0.192858 -0.141423 0.377839
v 0.133659 -0.137667 0.378124
v 0.194965 -0.141423 0.430486
v 0.131118 -0.141423 0.384524
v 0.131118 -0.137667 0.384524
v 0.133659 -0.141423 0.378124
v 0.192858 -0.137667 0.377839
v 0.194965 -0.137667 0.430486
v 0.131364 -0.141423 0.430466
v 0.131118 -0.141423 0.428151
v 0.192272 -0.141423 0.377353
v 0.134366 -0.141423 0.377538
v 0.134366 -0.137667 0.377538
v 0.131118 -0.137667 0.428151
v 0.131364 -0.137667 0.430466
v 0.194783 -0.141423 0.432197
v 0.131666 -0.141423 0.431574
v 0.192272 -0.137667 0.377353
v 0.131666 -0.137667 0.431574
v 0.194783 -0.137667 0.432197
v 0.191641 -0.141423 0.376966
v 0.135128 -0.141423 0.377071
v 0.135128 -0.137667 0.377071
v 0.194560 -0.141423 0.433016
v 0.132083 -0.141423 0.432624
v 0.132083 -0.137667 0.432624
v 0.191641 -0.137667 0.376966
v 0.194560 -0.137667 0.433016
v 0.190974 -0.141423 0.376685
v 0.135932 -0.141423 0.376732
v 0.135932 -0.137667 0.376732
v 0.194252 -0.141423 0.433791
v 0.132607 -0.141423 0.433597
v 0.132607 -0.137667 0.433597
v 0.190974 -0.137667 0.376685
v 0.194252 -0.137667 0.433791
v 0.189580 -0.141423 0.376457
v 0.137613 -0.141423 0.376457
v 0.137613 -0.137667 0.376457
v 0.193865 -0.141423 0.434510
v 0.133228 -0.141423 0.434476
v 0.133228 -0.137667 0.434476
v 0.189580 -0.137667 0.376457
v 0.193865 -0.137667 0.434510
v 0.193406 -0.141423 0.435160
v 0.133936 -0.141423 0.435248
v 0.193406 -0.137667 0.435160
v 0.133936 -0.137667 0.435248
v 0.192882 -0.137667 0.435730
v 0.192882 -0.141423 0.435730
v 0.134719 -0.141423 0.435898
v 0.134719 -0.137667 0.435898
v 0.192303 -0.137667 0.436211
v 0.192303 -0.141423 0.436211
v 0.135564 -0.141423 0.436416
v 0.135564 -0.137667 0.436416
v 0.191679 -0.137667 0.436593
v 0.191679 -0.141423 0.436593
v 0.136456 -0.141423 0.436792
v 0.136456 -0.137667 0.436792
v 0.191020 -0.137667 0.436871
v 0.191020 -0.141423 0.436871
v 0.138321 -0.141423 0.437097
v 0.189642 -0.141423 0.437097
v 0.138321 -0.137667 0.437097
v 0.189642 -0.137667 0.437097
vn 0.9068115161171734 0 -0.4215363261182522
vn 0.9486345066046117 0 -0.31637410273128425
vn -0.9068115161171734 0 0.4215363261182522
vn -0.9486345066046117 0 0.31637410273128425
vn 0 -1 0
vn 0 1 0
vn 0.8507339467626127 0 -0.5255965675551049
vn -0.8507339467626127 0 0.5255965675551049
vn 0.9828303045868692 0 -0.18451176760760304
vn -0.9828303045868692 0 0.18451176760760304
vn -0.9068115161171734 0 -0.4215363261182522
vn -0.8507339467626127 0 -0.5255965675551049
vn 0.9068115161171734 0 0.4215363261182522
vn 0.8507339467626127 0 0.5255965675551049
vn 0.7789070757297516 0 -0.6271393524394137
vn -0.7789070757297516 0 0.6271393524394137
vn 0.9986104382800538 0 -0.052699075495862384
vn -0.9986104382800538 0 0.052699075495862384
vn -0.9486345066046117 0 -0.31637410273128425
vn 0.9486345066046117 0 0.31637410273128425
vn -0.7789070757297516 0 -0.6271393524394137
vn 0.7789070757297516 0 0.6271393524394137
vn -0.9828303045868692 0 -0.18451176760760304
vn 0.9828303045868692 0 0.18451176760760304
vn 0.6898976611403493 0 -0.7239069119390116
vn -0.6898976611403493 0 0.7239069119390116
vn -0.6898976611403493 0 -0.7239069119390116
vn 0.6898976611403493 0 0.7239069119390116
vn 0.9986104382800538 0 0.052699075495862384
vn -0.9986104382800538 0 -0.052699075495862384
vn 0.5827351326783089 0 -0.8126621469850766
vn -0.5827351326783089 0 0.8126621469850766
vn -0.5827351326783089 0 -0.8126621469850766
vn 0.5827351326783089 0 0.8126621469850766
vn 0.45746522913467097 0 -0.8892275097705665
vn -0.45746522913467097 0 0.8892275097705665
vn -0.45746522913467097 0 -0.8892275097705665
vn 0.45746522913467097 0 0.8892275097705665
vn 0.27816421194870006 0 -0.9605335346519446
vn -0.27816421194870006 0 0.9605335346519446
vn -0.27816421194870006 0 -0.9605335346519446
vn 0.27816421194870006 0 0.9605335346519446
vn 0.08113642247391024 0 -0.9967030053873296
vn -0.08113642247391024 0 0.9967030053873296
vn -0.08113642247391024 0 -0.9967030053873296
vn 0.08113642247391024 0 0.9967030053873296
usemtl material_0_0
f 1//1 2//2 3//1
f 2//2 1//1 4//2
f 3//3 2//4 1//3
f 4//4 1//3 2//4
f 2//5 5//5 3//5
f 3//6 5//6 2//6
f 3//1 6//7 1//1
f 1//3 6//8 3//3
f 7//6 4//6 1//6
f 1//5 4//5 7//5
f 4//2 8//9 2//2
f 2//4 8//10 4//4
f 8//5 5//5 2//5
f 2//6 5//6 8//6
f 3//5 5//5 9//5
f 9//6 5//6 3//6
f 6//7 3//1 10//7
f 10//8 3//3 6//8
f 11//6 1//6 6//6
f 6//5 1//5 11//5
f 7//6 12//6 4//6
f 4//5 12//5 7//5
f 7//6 1//6 11//6
f 11//5 1//5 7//5
f 8//9 4//2 12//9
f 12//10 4//4 8//10
f 8//5 13//5 5//5
f 5//6 13//6 8//6
f 7//11 9//12 5//11
f 5//13 9//14 7//13
f 3//5 9//5 10//5
f 10//6 9//6 3//6
f 10//7 14//15 6//7
f 6//8 14//16 10//8
f 11//6 6//6 15//6
f 15//5 6//5 11//5
f 16//6 12//6 7//6
f 7//5 12//5 16//5
f 9//12 7//11 11//12
f 11//14 7//13 9//14
f 12//9 17//17 8//9
f 8//10 17//18 12//10
f 8//5 18//5 13//5
f 13//6 18//6 8//6
f 16//19 5//11 13//19
f 13//20 5//13 16//20
f 5//11 16//19 7//11
f 7//13 16//20 5//13
f 10//5 9//5 19//5
f 19//6 9//6 10//6
f 14//15 10//7 20//15
f 20//16 10//8 14//16
f 15//6 6//6 14//6
f 14//5 6//5 15//5
f 19//21 11//12 15//21
f 15//22 11//14 19//22
f 21//6 12//6 16//6
f 16//5 12//5 21//5
f 11//12 19//21 9//12
f 9//14 19//22 11//14
f 17//17 12//9 22//17
f 22//18 12//10 17//18
f 17//5 18//5 8//5
f 8//6 18//6 17//6
f 21//23 13//19 18//23
f 18//24 13//20 21//24
f 13//19 21//23 16//19
f 16//20 21//24 13//20
f 10//5 19//5 20//5
f 20//6 19//6 10//6
f 23//25 14//15 20//15
f 20//16 14//16 23//26
f 15//6 14//6 24//6
f 24//5 14//5 15//5
f 24//27 19//21 15//21
f 15//22 19//22 24//28
f 21//6 22//6 12//6
f 12//5 22//5 21//5
f 22//17 25//29 17//17
f 17//18 25//30 22//18
f 17//5 26//5 18//5
f 18//6 26//6 17//6
f 18//23 27//30 21//23
f 21//24 27//29 18//24
f 20//5 19//5 28//5
f 28//6 19//6 20//6
f 14//15 23//25 29//25
f 29//26 23//26 14//16
f 20//5 28//5 23//5
f 23//6 28//6 20//6
f 24//6 14//6 29//6
f 29//5 14//5 24//5
f 19//21 24//27 28//27
f 28//28 24//28 19//22
f 27//6 22//6 21//6
f 21//5 22//5 27//5
f 25//29 22//17 30//29
f 30//30 22//18 25//30
f 25//5 31//5 17//5
f 17//6 31//6 25//6
f 17//5 32//5 26//5
f 26//6 32//6 17//6
f 27//30 18//23 26//30
f 26//29 18//24 27//29
f 33//31 29//25 23//25
f 23//26 29//26 33//32
f 23//5 28//5 34//5
f 34//6 28//6 23//6
f 24//6 29//6 35//6
f 35//5 29//5 24//5
f 35//33 28//27 24//27
f 24//28 28//28 35//34
f 36//6 22//6 27//6
f 27//5 22//5 36//5
f 37//6 30//6 22//6
f 22//5 30//5 37//5
f 30//29 38//24 25//29
f 25//30 38//23 30//30
f 25//5 39//5 31//5
f 31//6 39//6 25//6
f 17//5 31//5 32//5
f 32//6 31//6 17//6
f 36//18 26//30 32//18
f 32//17 26//29 36//17
f 26//30 36//18 27//30
f 27//29 36//17 26//29
f 29//25 33//31 40//31
f 40//32 33//32 29//26
f 23//5 34//5 33//5
f 33//6 34//6 23//6
f 28//27 35//33 34//33
f 34//34 35//34 28//28
f 35//6 29//6 40//6
f 40//5 29//5 35//5
f 37//6 22//6 36//6
f 36//5 22//5 37//5
f 41//6 30//6 37//6
f 37//5 30//5 41//5
f 38//24 30//29 42//24
f 42//23 30//30 38//23
f 38//5 39//5 25//5
f 25//6 39//6 38//6
f 41//4 31//10 39//4
f 39//2 31//9 41//2
f 37//10 32//18 31//10
f 31//9 32//17 37//9
f 32//18 37//10 36//18
f 36//17 37//9 32//17
f 43//35 40//31 33//31
f 33//32 40//32 43//36
f 33//5 34//5 44//5
f 44//6 34//6 33//6
f 45//37 34//33 35//33
f 35//34 34//34 45//38
f 35//6 40//6 45//6
f 45//5 40//5 35//5
f 41//6 42//6 30//6
f 30//5 42//5 41//5
f 31//10 41//4 37//10
f 37//9 41//2 31//9
f 42//24 46//20 38//24
f 38//23 46//19 42//23
f 38//5 47//5 39//5
f 39//6 47//6 38//6
f 39//4 48//3 41//4
f 41//2 48//1 39//2
f 40//31 43//35 49//35
f 49//36 43//36 40//32
f 33//5 44//5 43//5
f 43//6 44//6 33//6
f 34//33 45//37 44//37
f 44//38 45//38 34//34
f 45//6 40//6 49//6
f 49//5 40//5 45//5
f 48//6 42//6 41//6
f 41//5 42//5 48//5
f 46//20 42//24 50//20
f 50//19 42//23 46//19
f 46//5 47//5 38//5
f 38//6 47//6 46//6
f 48//3 39//4 47//3
f 47//1 39//2 48//1
f 51//39 49//35 43//35
f 43//36 49//36 51//40
f 43//5 44//5 52//5
f 52//6 44//6 43//6
f 53//41 44//37 45//37
f 45//38 44//38 53//42
f 45//6 49//6 53//6
f 53//5 49//5 45//5
f 48//6 50//6 42//6
f 42//5 50//5 48//5
f 50//20 54//13 46//20
f 46//19 54//11 50//19
f 46//5 55//5 47//5
f 47//6 55//6 46//6
f 47//3 56//8 48//3
f 48//1 56//7 47//1
f 49//35 51//39 57//39
f 57//40 51//40 49//36
f 43//5 52//5 51//5
f 51//6 52//6 43//6
f 44//37 53//41 52//41
f 52//42 53//42 44//38
f 53//6 49//6 57//6
f 57//5 49//5 53//5
f 56//6 50//6 48//6
f 48//5 50//5 56//5
f 54//13 50//20 58//13
f 58//11 50//19 54//11
f 54//5 55//5 46//5
f 46//6 55//6 54//6
f 56//8 47//3 55//8
f 55//7 47//1 56//7
f 59//43 57//39 51//39
f 51//40 57//40 59//44
f 51//5 52//5 60//5
f 60//6 52//6 51//6
f 61//45 52//41 53//41
f 53//42 52//42 61//46
f 53//6 57//6 61//6
f 61//5 57//5 53//5
f 56//6 58//6 50//6
f 50//5 58//5 56//5
f 58//13 62//14 54//13
f 54//11 62//12 58//11
f 54//5 63//5 55//5
f 55//6 63//6 54//6
f 55//8 64//16 56//8
f 56//7 64//15 55//7
f 57//39 59//43 65//43
f 65//44 59//44 57//40
f 51//5 60//5 59//5
f 59//6 60//6 51//6
f 52//41 61//45 60//45
f 60//46 61//46 52//42
f 61//6 57//6 65//6
f 65//5 57//5 61//5
f 64//6 58//6 56//6
f 56//5 58//5 64//5
f 62//14 58//13 66//14
f 66//12 58//11 62//12
f 62//5 63//5 54//5
f 54//6 63//6 62//6
f 64//16 55//8 63//16
f 63//15 55//7 64//15
f 60//45 65//43 59//43
f 59//44 65//44 60//46
f 65//43 60//45 61//45
f 61//46 60//46 65//44
f 64//6 66//6 58//6
f 58//5 66//5 64//5
f 66//14 67//22 62//14
f 62//12 67//21 66//12
f 67//5 63//5 62//5
f 62//6 63//6 67//6
f 68//26 64//16 63//16
f 63//15 64//15 68//25
f 64//6 69//6 66//6
f 66//5 69//5 64//5
f 67//22 66//14 69//22
f 69//21 66//12 67//21
f 67//5 68//5 63//5
f 63//6 68//6 67//6
f 64//16 68//26 70//26
f 70//25 68//25 64//15
f 70//6 69//6 64//6
f 64//5 69//5 70//5
f 71//28 67//22 69//22
f 69//21 67//21 71//27
f 72//5 68//5 67//5
f 67//6 68//6 72//6
f 73//32 70//26 68//26
f 68//25 70//25 73//31
f 70//6 71//6 69//6
f 69//5 71//5 70//5
f 67//22 71//28 72//28
f 72//27 71//27 67//21
f 72//5 73//5 68//5
f 68//6 73//6 72//6
f 70//26 73//32 74//32
f 74//31 73//31 70//25
f 74//6 71//6 70//6
f 70//5 71//5 74//5
f 75//34 72//28 71//28
f 71//27 72//27 75//33
f 76//5 73//5 72//5
f 72//6 73//6 76//6
f 77//36 74//32 73//32
f 73//31 74//31 77//35
f 74//6 75//6 71//6
f 71//5 75//5 74//5
f 72//28 75//34 76//34
f 76//33 75//33 72//27
f 76//5 77//5 73//5
f 73//6 77//6 76//6
f 74//32 77//36 78//36
f 78//35 77//35 74//31
f 78//6 75//6 74//6
f 74//5 75//5 78//5
f 79//38 76//34 75//34
f 75//33 76//33 79//37
f 80//5 77//5 76//5
f 76//6 77//6 80//6
f 81//40 78//36 77//36
f 77//35 78//35 81//39
f 78//6 79//6 75//6
f 75//5 79//5 78//5
f 76//34 79//38 80//38
f 80//37 79//37 76//33
f 80//5 81//5 77//5
f 77//6 81//6 80//6
f 78//36 81//40 82//40
f 82//39 81//39 78//35
f 82//6 79//6 78//6
f 78//5 79//5 82//5
f 83//42 80//38 79//38
f 79//37 80//37 83//41
f 84//5 81//5 80//5
f 80//6 81//6 84//6
f 85//44 82//40 81//40
f 81//39 82//39 85//43
f 82//6 83//6 79//6
f 79//5 83//5 82//5
f 80//38 83//42 84//42
f 84//41 83//41 80//37
f 86//5 81//5 84//5
f 84//6 81//6 86//6
f 82//40 85//44 87//44
f 87//43 85//43 82//39
f 81//5 86//5 85//5
f 85//6 86//6 81//6
f 82//6 88//6 83//6
f 83//5 88//5 82//5
f 88//46 84//42 83//42
f 83//41 84//41 88//45
f 84//42 88//46 86//46
f 86//45 88//45 84//41
f 86//46 87//44 85//44
f 85//43 87//43 86//45
f 88//6 82//6 87//6
f 87//5 82//5 88//5
f 87//44 86//46 88//46
f 88//45 86//45 87//43
