# SSTK version 0.8.0
# 75
mtllib original-75.mtl
o mesh9/mesh9-geometry#mesh9-geometry
v -0.260785 -0.141423 0.436792
v -0.207599 -0.141423 0.437097
v -0.258921 -0.141423 0.437097
v -0.206221 -0.141423 0.436871
v -0.258921 -0.137667 0.437097
v -0.260785 -0.137667 0.436792
v -0.205562 -0.141423 0.436593
v -0.207599 -0.137667 0.437097
v -0.261677 -0.137667 0.436416
v -0.261677 -0.141423 0.436416
v -0.206221 -0.137667 0.436871
v -0.205562 -0.137667 0.436593
v -0.204938 -0.141423 0.436211
v -0.262522 -0.137667 0.435898
v -0.204938 -0.137667 0.436211
v -0.262522 -0.141423 0.435898
v -0.204359 -0.141423 0.435730
v -0.263305 -0.137667 0.435248
v -0.204359 -0.137667 0.435730
v -0.263305 -0.141423 0.435248
v -0.203835 -0.141423 0.435160
v -0.264013 -0.137667 0.434476
v -0.203835 -0.137667 0.435160
v -0.264013 -0.141423 0.434476
v -0.203376 -0.141423 0.434510
v -0.264635 -0.141423 0.433597
v -0.203376 -0.137667 0.434510
v -0.202990 -0.141423 0.433791
v -0.264635 -0.137667 0.433597
v -0.202990 -0.137667 0.433791
v -0.265158 -0.141423 0.432624
v -0.202682 -0.141423 0.433016
v -0.202682 -0.137667 0.433016
v -0.265158 -0.137667 0.432624
v -0.265575 -0.141423 0.431574
v -0.202458 -0.141423 0.432197
v -0.202458 -0.137667 0.432197
v -0.265575 -0.137667 0.431574
v -0.265878 -0.141423 0.430466
v -0.202276 -0.141423 0.430486
v -0.202276 -0.137667 0.430486
v -0.265878 -0.137667 0.430466
v -0.266123 -0.141423 0.428151
v -0.202276 -0.141423 0.383145
v -0.202276 -0.137667 0.383145
v -0.266123 -0.137667 0.428151
v -0.266123 -0.141423 0.384524
v -0.202460 -0.137667 0.381414
v -0.266123 -0.137667 0.384524
v -0.265902 -0.141423 0.382436
v -0.202460 -0.141423 0.381414
v -0.265902 -0.137667 0.382436
v -0.202686 -0.137667 0.380586
v -0.265629 -0.137667 0.381437
v -0.265629 -0.141423 0.381437
v -0.202686 -0.141423 0.380586
v -0.265253 -0.137667 0.380491
v -0.265253 -0.141423 0.380491
v -0.202998 -0.137667 0.379801
v -0.202998 -0.141423 0.379801
v -0.264781 -0.137667 0.379613
v -0.264781 -0.141423 0.379613
v -0.203389 -0.137667 0.379074
v -0.203389 -0.141423 0.379074
v -0.264221 -0.137667 0.378820
v -0.264221 -0.141423 0.378820
v -0.203853 -0.137667 0.378416
v -0.203853 -0.141423 0.378416
v -0.263582 -0.137667 0.378124
v -0.263582 -0.141423 0.378124
v -0.204383 -0.141423 0.377839
v -0.204383 -0.137667 0.377839
v -0.262875 -0.137667 0.377538
v -0.262875 -0.141423 0.377538
v -0.204969 -0.141423 0.377353
v -0.204969 -0.137667 0.377353
v -0.262113 -0.137667 0.377071
v -0.262113 -0.141423 0.377071
v -0.205600 -0.141423 0.376966
v -0.205600 -0.137667 0.376966
v -0.261309 -0.137667 0.376732
v -0.261309 -0.141423 0.376732
v -0.206267 -0.141423 0.376685
v -0.206267 -0.137667 0.376685
v -0.259628 -0.137667 0.376457
v -0.259628 -0.141423 0.376457
v -0.207661 -0.141423 0.376457
v -0.207661 -0.137667 0.376457
vn 0 -1 0
vn 0 1 0
vn 0.08113642247391024 0 0.9967030053873296
vn -0.08113642247391024 0 0.9967030053873296
vn 0.08113642247391024 0 -0.9967030053873296
vn -0.08113642247391024 0 -0.9967030053873296
vn -0.27816421194870006 0 0.9605335346519446
vn 0.27816421194870006 0 -0.9605335346519446
vn 0.27816421194870006 0 0.9605335346519446
vn -0.27816421194870006 0 -0.9605335346519446
vn -0.45746522913467097 0 0.8892275097705665
vn 0.45746522913467097 0 -0.8892275097705665
vn 0.45746522913467097 0 0.8892275097705665
vn -0.45746522913467097 0 -0.8892275097705665
vn -0.5827351326783089 0 0.8126621469850766
vn 0.5827351326783089 0 -0.8126621469850766
vn 0.5827351326783089 0 0.8126621469850766
vn -0.5827351326783089 0 -0.8126621469850766
vn -0.6898976611403493 0 0.7239069119390116
vn 0.6898976611403493 0 -0.7239069119390116
vn 0.6898976611403493 0 0.7239069119390116
vn -0.6898976611403493 0 -0.7239069119390116
vn -0.7789070757297516 0 0.6271393524394137
vn 0.7789070757297516 0 -0.6271393524394137
vn 0.7789070757297516 0 0.6271393524394137
vn -0.7789070757297516 0 -0.6271393524394137
vn -0.8507339467626127 0 0.5255965675551049
vn 0.8507339467626127 0 -0.5255965675551049
vn 0.8507339467626127 0 0.5255965675551049
vn -0.8507339467626127 0 -0.5255965675551049
vn 0.9068115161171734 0 0.4215363261182522
vn -0.9068115161171734 0 -0.4215363261182522
vn -0.9068115161171734 0 0.4215363261182522
vn 0.9068115161171734 0 -0.4215363261182522
vn 0.9486345066046117 0 0.31637410273128425
vn -0.9486345066046117 0 -0.31637410273128425
vn -0.9486345066046117 0 0.31637410273128425
vn 0.9486345066046117 0 -0.31637410273128425
vn 0.9828303045868692 0 0.18451176760760304
vn -0.9828303045868692 0 -0.18451176760760304
vn -0.9828303045868692 0 0.18451176760760304
vn 0.9828303045868692 0 -0.18451176760760304
vn 0.9986104382800538 0 0.052699075495862384
vn -0.9986104382800538 0 -0.052699075495862384
vn -0.9986104382800538 0 0.052699075495862384
vn 0.9986104382800538 0 -0.052699075495862384
usemtl material_0_0
f 1//1 2//1 3//1
f 2//1 1//1 4//1
f 3//2 2//2 1//2
f 4//2 1//2 2//2
f 2//3 5//4 3//4
f 3//5 5//5 2//6
f 3//4 6//7 1//7
f 1//8 6//8 3//5
f 4//1 1//1 7//1
f 7//2 1//2 4//2
f 4//9 8//3 2//3
f 2//6 8//6 4//10
f 5//4 2//3 8//3
f 8//6 2//6 5//5
f 6//7 3//4 5//4
f 5//5 3//5 6//8
f 9//11 1//7 6//7
f 6//8 1//8 9//12
f 7//1 1//1 10//1
f 10//2 1//2 7//2
f 7//13 11//9 4//9
f 4//10 11//10 7//14
f 8//3 4//9 11//9
f 11//10 4//10 8//6
f 8//2 6//2 5//2
f 5//1 6//1 8//1
f 1//7 9//11 10//11
f 10//12 9//12 1//8
f 6//2 12//2 9//2
f 9//1 12//1 6//1
f 7//1 10//1 13//1
f 13//2 10//2 7//2
f 11//9 7//13 12//13
f 12//14 7//14 11//10
f 6//2 8//2 11//2
f 11//1 8//1 6//1
f 14//15 10//11 9//11
f 9//12 10//12 14//16
f 6//2 11//2 12//2
f 12//1 11//1 6//1
f 9//2 12//2 15//2
f 15//1 12//1 9//1
f 13//1 10//1 16//1
f 16//2 10//2 13//2
f 13//17 12//13 7//13
f 7//14 12//14 13//18
f 10//11 14//15 16//15
f 16//16 14//16 10//12
f 9//2 15//2 14//2
f 14//1 15//1 9//1
f 12//13 13//17 15//17
f 15//18 13//18 12//14
f 13//1 16//1 17//1
f 17//2 16//2 13//2
f 18//19 16//15 14//15
f 14//16 16//16 18//20
f 14//2 15//2 19//2
f 19//1 15//1 14//1
f 17//21 15//17 13//17
f 13//18 15//18 17//22
f 17//1 16//1 20//1
f 20//2 16//2 17//2
f 16//15 18//19 20//19
f 20//20 18//20 16//16
f 14//2 19//2 18//2
f 18//1 19//1 14//1
f 15//17 17//21 19//21
f 19//22 17//22 15//18
f 17//1 20//1 21//1
f 21//2 20//2 17//2
f 22//23 20//19 18//19
f 18//20 20//20 22//24
f 18//2 19//2 23//2
f 23//1 19//1 18//1
f 21//25 19//21 17//21
f 17//22 19//22 21//26
f 21//1 20//1 24//1
f 24//2 20//2 21//2
f 20//19 22//23 24//23
f 24//24 22//24 20//20
f 18//2 23//2 22//2
f 22//1 23//1 18//1
f 19//21 21//25 23//25
f 23//26 21//26 19//22
f 21//1 24//1 25//1
f 25//2 24//2 21//2
f 22//23 26//27 24//23
f 24//24 26//28 22//24
f 22//2 23//2 27//2
f 27//1 23//1 22//1
f 21//25 27//29 23//25
f 23//26 27//30 21//26
f 25//1 24//1 28//1
f 28//2 24//2 25//2
f 27//29 21//25 25//29
f 25//30 21//26 27//30
f 26//27 22//23 29//27
f 29//28 22//24 26//28
f 28//1 24//1 26//1
f 26//2 24//2 28//2
f 22//2 27//2 30//2
f 30//1 27//1 22//1
f 30//31 25//29 28//31
f 28//32 25//30 30//32
f 25//29 30//31 27//29
f 27//30 30//32 25//30
f 22//2 30//2 29//2
f 29//1 30//1 22//1
f 29//27 31//33 26//27
f 26//28 31//34 29//28
f 28//1 26//1 32//1
f 32//2 26//2 28//2
f 28//31 33//35 30//31
f 30//32 33//36 28//32
f 29//2 30//2 33//2
f 33//1 30//1 29//1
f 31//33 29//27 34//33
f 34//34 29//28 31//34
f 32//1 26//1 31//1
f 31//2 26//2 32//2
f 33//35 28//31 32//35
f 32//36 28//32 33//36
f 29//2 33//2 34//2
f 34//1 33//1 29//1
f 34//33 35//37 31//33
f 31//34 35//38 34//34
f 32//1 31//1 36//1
f 36//2 31//2 32//2
f 32//35 37//39 33//35
f 33//36 37//40 32//36
f 34//2 33//2 37//2
f 37//1 33//1 34//1
f 35//37 34//33 38//37
f 38//38 34//34 35//38
f 36//1 31//1 35//1
f 35//2 31//2 36//2
f 37//39 32//35 36//39
f 36//40 32//36 37//40
f 34//2 37//2 38//2
f 38//1 37//1 34//1
f 38//37 39//41 35//37
f 35//38 39//42 38//38
f 36//1 35//1 40//1
f 40//2 35//2 36//2
f 36//39 41//43 37//39
f 37//40 41//44 36//40
f 38//2 37//2 41//2
f 41//1 37//1 38//1
f 39//41 38//37 42//41
f 42//42 38//38 39//42
f 40//1 35//1 39//1
f 39//2 35//2 40//2
f 41//43 36//39 40//43
f 40//44 36//40 41//44
f 38//2 41//2 42//2
f 42//1 41//1 38//1
f 42//41 43//45 39//41
f 39//42 43//46 42//42
f 40//1 39//1 44//1
f 44//2 39//2 40//2
f 40//43 45//46 41//43
f 41//44 45//45 40//44
f 42//2 41//2 45//2
f 45//1 41//1 42//1
f 43//45 42//41 46//45
f 46//46 42//42 43//46
f 44//1 39//1 43//1
f 43//2 39//2 44//2
f 45//46 40//43 44//46
f 44//45 40//44 45//45
f 42//2 45//2 46//2
f 46//1 45//1 42//1
f 46//45 47//44 43//45
f 43//46 47//43 46//46
f 44//1 43//1 47//1
f 47//2 43//2 44//2
f 44//46 48//42 45//46
f 45//45 48//41 44//45
f 46//2 45//2 49//2
f 49//1 45//1 46//1
f 47//44 46//45 49//44
f 49//43 46//46 47//43
f 44//1 47//1 50//1
f 50//2 47//2 44//2
f 48//42 44//46 51//42
f 51//41 44//45 48//41
f 52//2 45//2 48//2
f 48//1 45//1 52//1
f 49//2 45//2 52//2
f 52//1 45//1 49//1
f 49//44 50//40 47//44
f 47//43 50//39 49//43
f 44//1 50//1 51//1
f 51//2 50//2 44//2
f 51//42 53//38 48//42
f 48//41 53//37 51//41
f 52//2 48//2 54//2
f 54//1 48//1 52//1
f 50//40 49//44 52//40
f 52//39 49//43 50//39
f 51//1 50//1 55//1
f 55//2 50//2 51//2
f 53//38 51//42 56//38
f 56//37 51//41 53//37
f 57//2 48//2 53//2
f 53//1 48//1 57//1
f 54//2 48//2 57//2
f 57//1 48//1 54//1
f 55//36 52//40 54//36
f 54//35 52//39 55//35
f 52//40 55//36 50//40
f 50//39 55//35 52//39
f 51//1 55//1 58//1
f 58//2 55//2 51//2
f 51//1 58//1 56//1
f 56//2 58//2 51//2
f 56//38 59//34 53//38
f 53//37 59//33 56//37
f 57//2 53//2 59//2
f 59//1 53//1 57//1
f 58//32 54//36 57//32
f 57//31 54//35 58//31
f 54//36 58//32 55//36
f 55//35 58//31 54//35
f 56//1 58//1 60//1
f 60//2 58//2 56//2
f 59//34 56//38 60//34
f 60//33 56//37 59//33
f 57//2 59//2 61//2
f 61//1 59//1 57//1
f 57//32 62//30 58//32
f 58//31 62//29 57//31
f 60//1 58//1 62//1
f 62//2 58//2 60//2
f 60//34 63//28 59//34
f 59//33 63//27 60//33
f 61//2 59//2 63//2
f 63//1 59//1 61//1
f 62//30 57//32 61//30
f 61//29 57//31 62//29
f 60//1 62//1 64//1
f 64//2 62//2 60//2
f 63//28 60//34 64//28
f 64//27 60//33 63//27
f 61//2 63//2 65//2
f 65//1 63//1 61//1
f 61//30 66//26 62//30
f 62//29 66//25 61//29
f 64//1 62//1 66//1
f 66//2 62//2 64//2
f 64//28 67//24 63//28
f 63//27 67//23 64//27
f 65//2 63//2 67//2
f 67//1 63//1 65//1
f 66//26 61//30 65//26
f 65//25 61//29 66//25
f 64//1 66//1 68//1
f 68//2 66//2 64//2
f 67//24 64//28 68//24
f 68//23 64//27 67//23
f 65//2 67//2 69//2
f 69//1 67//1 65//1
f 69//22 66//26 65//26
f 65//25 66//25 69//21
f 68//1 66//1 70//1
f 70//2 66//2 68//2
f 71//20 67//24 68//24
f 68//23 67//23 71//19
f 69//2 67//2 72//2
f 72//1 67//1 69//1
f 66//26 69//22 70//22
f 70//21 69//21 66//25
f 68//1 70//1 71//1
f 71//2 70//2 68//2
f 67//24 71//20 72//20
f 72//19 71//19 67//23
f 69//2 72//2 73//2
f 73//1 72//1 69//1
f 73//18 70//22 69//22
f 69//21 70//21 73//17
f 71//1 70//1 74//1
f 74//2 70//2 71//2
f 75//16 72//20 71//20
f 71//19 72//19 75//15
f 73//2 72//2 76//2
f 76//1 72//1 73//1
f 70//22 73//18 74//18
f 74//17 73//17 70//21
f 71//1 74//1 75//1
f 75//2 74//2 71//2
f 72//20 75//16 76//16
f 76//15 75//15 72//19
f 73//2 76//2 77//2
f 77//1 76//1 73//1
f 77//14 74//18 73//18
f 73//17 74//17 77//13
f 75//1 74//1 78//1
f 78//2 74//2 75//2
f 79//12 76//16 75//16
f 75//15 76//15 79//11
f 77//2 76//2 80//2
f 80//1 76//1 77//1
f 74//18 77//14 78//14
f 78//13 77//13 74//17
f 75//1 78//1 79//1
f 79//2 78//2 75//2
f 76//16 79//12 80//12
f 80//11 79//11 76//15
f 77//2 80//2 81//2
f 81//1 80//1 77//1
f 81//10 78//14 77//14
f 77//13 78//13 81//9
f 79//1 78//1 82//1
f 82//2 78//2 79//2
f 83//8 80//12 79//12
f 79//11 80//11 83//7
f 81//2 80//2 84//2
f 84//1 80//1 81//1
f 78//14 81//10 82//10
f 82//9 81//9 78//13
f 79//1 82//1 83//1
f 83//2 82//2 79//2
f 80//12 83//8 84//8
f 84//7 83//7 80//11
f 81//2 84//2 85//2
f 85//1 84//1 81//1
f 85//6 82//10 81//10
f 81//9 82//9 85//3
f 83//1 82//1 86//1
f 86//2 82//2 83//2
f 87//5 84//8 83//8
f 83//7 84//7 87//4
f 85//2 84//2 88//2
f 88//1 84//1 85//1
f 82//10 85//6 86//6
f 86//3 85//3 82//9
f 83//1 86//1 87//1
f 87//2 86//2 83//2
f 84//8 87//5 88//5
f 88//4 87//4 84//7
f 88//5 86//6 85//6
f 85//3 86//3 88//4
f 86//6 88//5 87//5
f 87//4 88//4 86//3
