# SSTK version 0.8.0
# 76
mtllib original-76.mtl
o mesh10/mesh10-geometry#mesh10-geometry
v -0.456271 -0.141423 0.437097
v -0.419459 -0.141423 0.436905
v -0.420522 -0.141423 0.437097
v -0.457751 -0.141423 0.436912
v -0.420522 -0.133911 0.437097
v -0.456271 -0.133911 0.437097
v -0.457751 -0.133911 0.436912
v -0.458459 -0.141423 0.436684
v -0.419459 -0.133911 0.436905
v -0.458459 -0.133911 0.436684
v -0.418429 -0.141423 0.436594
v -0.459130 -0.133911 0.436370
v -0.459130 -0.141423 0.436370
v -0.418429 -0.133911 0.436594
v -0.417445 -0.141423 0.436168
v -0.459752 -0.133911 0.435976
v -0.417445 -0.133911 0.436168
v -0.459752 -0.141423 0.435976
v -0.416522 -0.141423 0.435633
v -0.460315 -0.133911 0.435508
v -0.416522 -0.133911 0.435633
v -0.460315 -0.141423 0.435508
v -0.415673 -0.141423 0.434997
v -0.460808 -0.133911 0.434975
v -0.415673 -0.133911 0.434997
v -0.460808 -0.141423 0.434975
v -0.414911 -0.141423 0.434269
v -0.461224 -0.141423 0.434385
v -0.414911 -0.133911 0.434269
v -0.461224 -0.133911 0.434385
v -0.461555 -0.141423 0.433749
v -0.414247 -0.141423 0.433460
v -0.461555 -0.133911 0.433749
v -0.414247 -0.133911 0.433460
v -0.461795 -0.141423 0.433077
v -0.413689 -0.133911 0.432581
v -0.461795 -0.133911 0.433077
v -0.413689 -0.141423 0.432581
v -0.461990 -0.141423 0.431674
v -0.413247 -0.133911 0.431645
v -0.461990 -0.133911 0.431674
v -0.413247 -0.141423 0.431645
v -0.461990 -0.141423 0.382712
v -0.412927 -0.133911 0.430665
v -0.461990 -0.133911 0.382712
v -0.412927 -0.141423 0.430665
v -0.412668 -0.141423 0.428632
v -0.412668 -0.133911 0.428632
v -0.461766 -0.141423 0.381093
v -0.412668 -0.141423 0.382507
v -0.412668 -0.133911 0.382507
v -0.461766 -0.133911 0.381093
v -0.461488 -0.141423 0.380318
v -0.412885 -0.141423 0.380941
v -0.412885 -0.133911 0.380941
v -0.461488 -0.133911 0.380318
v -0.461107 -0.141423 0.379585
v -0.413154 -0.141423 0.380192
v -0.413154 -0.133911 0.380192
v -0.461107 -0.133911 0.379585
v -0.460627 -0.141423 0.378904
v -0.413523 -0.141423 0.379482
v -0.413523 -0.133911 0.379482
v -0.460627 -0.133911 0.378904
v -0.460058 -0.133911 0.378289
v -0.413987 -0.141423 0.378824
v -0.413987 -0.133911 0.378824
v -0.460058 -0.141423 0.378289
v -0.459409 -0.133911 0.377750
v -0.414537 -0.133911 0.378229
v -0.414537 -0.141423 0.378229
v -0.459409 -0.141423 0.377750
v -0.458692 -0.133911 0.377295
v -0.415164 -0.133911 0.377707
v -0.415164 -0.141423 0.377707
v -0.458692 -0.141423 0.377295
v -0.457918 -0.133911 0.376933
v -0.415858 -0.133911 0.377268
v -0.415858 -0.141423 0.377268
v -0.457918 -0.141423 0.376933
v -0.457101 -0.133911 0.376671
v -0.416607 -0.133911 0.376918
v -0.416607 -0.141423 0.376918
v -0.457101 -0.141423 0.376671
v -0.455393 -0.133911 0.376457
v -0.417397 -0.133911 0.376664
v -0.417397 -0.141423 0.376664
v -0.455393 -0.141423 0.376457
v -0.419049 -0.133911 0.376457
v -0.419049 -0.141423 0.376457
vn 0 -1 0
vn 0 1 0
vn 0.23378927891787155 0 0.9722872893661942
vn 0.08930225261779601 0 0.9960045721167083
vn -0.08930225261779601 0 -0.9960045721167083
vn -0.23378927891787155 0 -0.9722872893661942
vn -0.06213230787291318 0 0.9980679216959063
vn 0.06213230787291318 0 -0.9980679216959063
vn -0.21669917245653755 0 0.9762384281806632
vn 0.21669917245653755 0 -0.9762384281806632
vn -0.36613898428185787 0 0.9305601776290717
vn 0.36613898428185787 0 -0.9305601776290717
vn 0.3440534586911504 0 0.938950061271981
vn -0.3440534586911504 0 -0.938950061271981
vn -0.4808904886048508 0 0.8767806669683064
vn 0.4808904886048508 0 -0.8767806669683064
vn 0.45059243489483297 0 0.892729778609152
vn -0.45059243489483297 0 -0.892729778609152
vn -0.5891030409646808 0 0.8080579231256665
vn 0.5891030409646808 0 -0.8080579231256665
vn 0.5520389165464002 0 0.8338183462950887
vn -0.5520389165464002 0 -0.8338183462950887
vn -0.688838350790933 0 0.7249149787938083
vn 0.688838350790933 0 -0.7249149787938083
vn 0.6469258277826982 0 0.7625529315055255
vn -0.6469258277826982 0 -0.7625529315055255
vn -0.7780595644790477 0 0.6281905078259896
vn 0.7780595644790477 0 -0.6281905078259896
vn 0.7336975396108385 0 0.6794762103039387
vn -0.7336975396108385 0 -0.6794762103039387
vn -0.8546970892556555 0 0.519127041886579
vn 0.8546970892556555 0 -0.519127041886579
vn 0.8107514411162386 0 0.585390554013252
vn -0.8107514411162386 0 -0.585390554013252
vn -0.9167680475081763 0 0.39942001335442173
vn 0.9167680475081763 0 -0.39942001335442173
vn 0.8764970788780875 0 0.4814071776762161
vn -0.8764970788780875 0 -0.4814071776762161
vn -0.9414742518494458 0 0.33708490488974185
vn 0.9414742518494458 0 -0.33708490488974185
vn 0.929440508881647 0 0.36897200496761945
vn -0.929440508881647 0 -0.36897200496761945
vn -0.9904960738765798 0 0.1375410034683513
vn -0.9976333181012472 0 0.06875872755000162
vn 0.9904960738765798 0 -0.1375410034683513
vn 0.9976333181012472 0 -0.06875872755000162
vn 0.9758103449288861 0 0.21861877945356867
vn -0.9758103449288861 0 -0.21861877945356867
vn -0.9976333181012472 0 -0.06875872755000162
vn 0.9976333181012472 0 0.06875872755000162
vn 0.998000549544104 0 0.06320524590306184
vn -0.998000549544104 0 -0.06320524590306184
vn -0.9904960738765798 0 -0.1375410034683513
vn 0.9904960738765798 0 0.1375410034683513
vn -0.9414742518494458 0 -0.33708490488974185
vn -0.9167680475081763 0 -0.39942001335442173
vn 0.9414742518494458 0 0.33708490488974185
vn 0.9167680475081763 0 0.39942001335442173
vn -0.8546970892556555 0 -0.519127041886579
vn 0.8546970892556555 0 0.519127041886579
vn -0.7780595644790477 0 -0.6281905078259896
vn 0.7780595644790477 0 0.6281905078259896
vn -0.688838350790933 0 -0.7249149787938083
vn 0.688838350790933 0 0.7249149787938083
vn -0.5891030409646808 0 -0.8080579231256665
vn 0.5891030409646808 0 0.8080579231256665
vn -0.4808904886048508 0 -0.8767806669683064
vn 0.4808904886048508 0 0.8767806669683064
vn -0.36613898428185787 0 -0.9305601776290717
vn 0.36613898428185787 0 0.9305601776290717
vn -0.21669917245653755 0 -0.9762384281806632
vn 0.21669917245653755 0 0.9762384281806632
vn -0.06213230787291318 0 -0.9980679216959063
vn 0.06213230787291318 0 0.9980679216959063
usemtl material_0_0
f 1//1 2//1 3//1
f 2//1 1//1 4//1
f 3//2 2//2 1//2
f 4//2 1//2 2//2
f 2//3 5//4 3//4
f 3//5 5//5 2//6
f 3//4 6//7 1//7
f 1//8 6//8 3//5
f 1//7 7//9 4//9
f 4//10 7//10 1//8
f 2//1 4//1 8//1
f 8//2 4//2 2//2
f 5//4 2//3 9//3
f 9//6 2//6 5//5
f 6//7 3//4 5//4
f 5//5 3//5 6//8
f 7//9 1//7 6//7
f 6//8 1//8 7//10
f 10//11 4//9 7//9
f 7//10 4//10 10//12
f 4//9 10//11 8//11
f 8//12 10//12 4//10
f 2//1 8//1 11//1
f 11//2 8//2 2//2
f 11//13 9//3 2//3
f 2//6 9//6 11//14
f 9//2 6//2 5//2
f 5//1 6//1 9//1
f 6//2 9//2 7//2
f 7//1 9//1 6//1
f 7//2 9//2 10//2
f 10//1 9//1 7//1
f 12//15 8//11 10//11
f 10//12 8//12 12//16
f 11//1 8//1 13//1
f 13//2 8//2 11//2
f 9//3 11//13 14//13
f 14//14 11//14 9//6
f 10//2 9//2 14//2
f 14//1 9//1 10//1
f 8//11 12//15 13//15
f 13//16 12//16 8//12
f 10//2 14//2 12//2
f 12//1 14//1 10//1
f 11//1 13//1 15//1
f 15//2 13//2 11//2
f 15//17 14//13 11//13
f 11//14 14//14 15//18
f 16//19 13//15 12//15
f 12//16 13//16 16//20
f 12//2 14//2 17//2
f 17//1 14//1 12//1
f 15//1 13//1 18//1
f 18//2 13//2 15//2
f 14//13 15//17 17//17
f 17//18 15//18 14//14
f 13//15 16//19 18//19
f 18//20 16//20 13//16
f 12//2 17//2 16//2
f 16//1 17//1 12//1
f 15//1 18//1 19//1
f 19//2 18//2 15//2
f 19//21 17//17 15//17
f 15//18 17//18 19//22
f 20//23 18//19 16//19
f 16//20 18//20 20//24
f 16//2 17//2 21//2
f 21//1 17//1 16//1
f 19//1 18//1 22//1
f 22//2 18//2 19//2
f 17//17 19//21 21//21
f 21//22 19//22 17//18
f 18//19 20//23 22//23
f 22//24 20//24 18//20
f 16//2 21//2 20//2
f 20//1 21//1 16//1
f 19//1 22//1 23//1
f 23//2 22//2 19//2
f 23//25 21//21 19//21
f 19//22 21//22 23//26
f 24//27 22//23 20//23
f 20//24 22//24 24//28
f 20//2 21//2 25//2
f 25//1 21//1 20//1
f 23//1 22//1 26//1
f 26//2 22//2 23//2
f 21//21 23//25 25//25
f 25//26 23//26 21//22
f 22//23 24//27 26//27
f 26//28 24//28 22//24
f 20//2 25//2 24//2
f 24//1 25//1 20//1
f 23//1 26//1 27//1
f 27//2 26//2 23//2
f 27//29 25//25 23//25
f 23//26 25//26 27//30
f 24//27 28//31 26//27
f 26//28 28//32 24//28
f 24//2 25//2 29//2
f 29//1 25//1 24//1
f 27//1 26//1 28//1
f 28//2 26//2 27//2
f 25//25 27//29 29//29
f 29//30 27//30 25//26
f 28//31 24//27 30//31
f 30//32 24//28 28//32
f 24//2 29//2 30//2
f 30//1 29//1 24//1
f 27//1 28//1 31//1
f 31//2 28//2 27//2
f 32//33 29//29 27//29
f 27//30 29//30 32//34
f 30//31 31//35 28//31
f 28//32 31//36 30//32
f 30//2 29//2 33//2
f 33//1 29//1 30//1
f 27//1 31//1 32//1
f 32//2 31//2 27//2
f 29//29 32//33 34//33
f 34//34 32//34 29//30
f 31//35 30//31 33//35
f 33//36 30//32 31//36
f 33//2 29//2 34//2
f 34//1 29//1 33//1
f 32//1 31//1 35//1
f 35//2 31//2 32//2
f 32//33 36//37 34//33
f 34//34 36//38 32//34
f 33//35 35//39 31//35
f 31//36 35//40 33//36
f 33//2 34//2 37//2
f 37//1 34//1 33//1
f 32//1 35//1 38//1
f 38//2 35//2 32//2
f 36//37 32//33 38//37
f 38//38 32//34 36//38
f 37//2 34//2 36//2
f 36//1 34//1 37//1
f 35//39 33//35 37//39
f 37//40 33//36 35//40
f 38//1 35//1 39//1
f 39//2 35//2 38//2
f 38//37 40//41 36//37
f 36//38 40//42 38//38
f 37//2 36//2 41//2
f 41//1 36//1 37//1
f 37//43 39//44 35//43
f 35//45 39//46 37//45
f 38//1 39//1 42//1
f 42//2 39//2 38//2
f 40//41 38//37 42//41
f 42//42 38//38 40//42
f 41//2 36//2 40//2
f 40//1 36//1 41//1
f 39//44 37//43 41//44
f 41//46 37//45 39//46
f 42//1 39//1 43//1
f 43//2 39//2 42//2
f 42//41 44//47 40//41
f 40//42 44//48 42//42
f 41//2 40//2 45//2
f 45//1 40//1 41//1
f 41//44 43//49 39//44
f 39//46 43//50 41//46
f 42//1 43//1 46//1
f 46//2 43//2 42//2
f 44//47 42//41 46//47
f 46//48 42//42 44//48
f 45//2 40//2 44//2
f 44//1 40//1 45//1
f 43//49 41//44 45//49
f 45//50 41//46 43//50
f 46//1 43//1 47//1
f 47//2 43//2 46//2
f 46//47 48//51 44//47
f 44//48 48//52 46//48
f 45//2 44//2 48//2
f 48//1 44//1 45//1
f 45//49 49//53 43//49
f 43//50 49//54 45//50
f 47//1 43//1 50//1
f 50//2 43//2 47//2
f 48//51 46//47 47//51
f 47//52 46//48 48//52
f 45//2 48//2 51//2
f 51//1 48//1 45//1
f 49//53 45//49 52//53
f 52//54 45//50 49//54
f 50//1 43//1 49//1
f 49//2 43//2 50//2
f 51//46 47//51 50//46
f 50//44 47//52 51//44
f 47//51 51//46 48//51
f 48//52 51//44 47//52
f 45//2 51//2 52//2
f 52//1 51//1 45//1
f 52//55 53//56 49//55
f 49//57 53//58 52//57
f 50//1 49//1 54//1
f 54//2 49//2 50//2
f 50//46 55//45 51//46
f 51//44 55//43 50//44
f 52//2 51//2 55//2
f 55//1 51//1 52//1
f 53//56 52//55 56//56
f 56//58 52//57 53//58
f 54//1 49//1 53//1
f 53//2 49//2 54//2
f 55//45 50//46 54//45
f 54//43 50//44 55//43
f 52//2 55//2 56//2
f 56//1 55//1 52//1
f 56//56 57//59 53//56
f 53//58 57//60 56//58
f 54//1 53//1 58//1
f 58//2 53//2 54//2
f 54//40 59//36 55//40
f 55//39 59//35 54//39
f 56//2 55//2 59//2
f 59//1 55//1 56//1
f 57//59 56//56 60//59
f 60//60 56//58 57//60
f 58//1 53//1 57//1
f 57//2 53//2 58//2
f 59//36 54//40 58//36
f 58//35 54//39 59//35
f 56//2 59//2 60//2
f 60//1 59//1 56//1
f 60//59 61//61 57//59
f 57//60 61//62 60//60
f 58//1 57//1 62//1
f 62//2 57//2 58//2
f 58//36 63//32 59//36
f 59//35 63//31 58//35
f 60//2 59//2 63//2
f 63//1 59//1 60//1
f 61//61 60//59 64//61
f 64//62 60//60 61//62
f 62//1 57//1 61//1
f 61//2 57//2 62//2
f 63//32 58//36 62//32
f 62//31 58//35 63//31
f 60//2 63//2 64//2
f 64//1 63//1 60//1
f 65//63 61//61 64//61
f 64//62 61//62 65//64
f 62//1 61//1 66//1
f 66//2 61//2 62//2
f 62//32 67//28 63//32
f 63//31 67//27 62//31
f 64//2 63//2 67//2
f 67//1 63//1 64//1
f 61//61 65//63 68//63
f 68//64 65//64 61//62
f 64//2 67//2 65//2
f 65//1 67//1 64//1
f 66//1 61//1 68//1
f 68//2 61//2 66//2
f 67//28 62//32 66//28
f 66//27 62//31 67//27
f 69//65 68//63 65//63
f 65//64 68//64 69//66
f 65//2 67//2 70//2
f 70//1 67//1 65//1
f 66//1 68//1 71//1
f 71//2 68//2 66//2
f 71//24 67//28 66//28
f 66//27 67//27 71//23
f 68//63 69//65 72//65
f 72//66 69//66 68//64
f 65//2 70//2 69//2
f 69//1 70//1 65//1
f 67//28 71//24 70//24
f 70//23 71//23 67//27
f 71//1 68//1 72//1
f 72//2 68//2 71//2
f 73//67 72//65 69//65
f 69//66 72//66 73//68
f 69//2 70//2 74//2
f 74//1 70//1 69//1
f 75//20 70//24 71//24
f 71//23 70//23 75//19
f 71//1 72//1 75//1
f 75//2 72//2 71//2
f 72//65 73//67 76//67
f 76//68 73//68 72//66
f 69//2 74//2 73//2
f 73//1 74//1 69//1
f 70//24 75//20 74//20
f 74//19 75//19 70//23
f 75//1 72//1 76//1
f 76//2 72//2 75//2
f 77//69 76//67 73//67
f 73//68 76//68 77//70
f 73//2 74//2 78//2
f 78//1 74//1 73//1
f 79//16 74//20 75//20
f 75//19 74//19 79//15
f 75//1 76//1 79//1
f 79//2 76//2 75//2
f 76//67 77//69 80//69
f 80//70 77//70 76//68
f 73//2 78//2 77//2
f 77//1 78//1 73//1
f 74//20 79//16 78//16
f 78//15 79//15 74//19
f 79//1 76//1 80//1
f 80//2 76//2 79//2
f 81//71 80//69 77//69
f 77//70 80//70 81//72
f 77//2 78//2 82//2
f 82//1 78//1 77//1
f 83//12 78//16 79//16
f 79//15 78//15 83//11
f 79//1 80//1 83//1
f 83//2 80//2 79//2
f 80//69 81//71 84//71
f 84//72 81//72 80//70
f 77//2 82//2 81//2
f 81//1 82//1 77//1
f 78//16 83//12 82//12
f 82//11 83//11 78//15
f 83//1 80//1 84//1
f 84//2 80//2 83//2
f 85//73 84//71 81//71
f 81//72 84//72 85//74
f 81//2 82//2 86//2
f 86//1 82//1 81//1
f 87//10 82//12 83//12
f 83//11 82//11 87//9
f 83//1 84//1 87//1
f 87//2 84//2 83//2
f 84//71 85//73 88//73
f 88//74 85//74 84//72
f 81//2 86//2 85//2
f 85//1 86//1 81//1
f 82//12 87//10 86//10
f 86//9 87//9 82//11
f 87//1 84//1 88//1
f 88//2 84//2 87//2
f 89//8 88//73 85//73
f 85//74 88//74 89//7
f 85//2 86//2 89//2
f 89//1 86//1 85//1
f 90//8 86//10 87//10
f 87//9 86//9 90//7
f 87//1 88//1 90//1
f 90//2 88//2 87//2
f 88//73 89//8 90//8
f 90//7 89//7 88//74
f 86//10 90//8 89//8
f 89//7 90//7 86//9
