# SSTK version 0.8.0
# 2
mtllib original-2.mtl
o #ID449
v -0.151563 0.540806 -0.426944
v -0.315859 0.546309 -0.424664
v -0.315859 0.540806 -0.426944
v -0.151563 0.546309 -0.424664
v -0.151563 0.546309 -0.424664
v -0.151563 0.540806 -0.426944
v -0.315859 0.546309 -0.424664
v -0.315859 0.540806 -0.426944
v -0.315859 0.552215 -0.423887
v -0.151563 0.552215 -0.423887
v -0.151563 0.552215 -0.423887
v -0.315859 0.552215 -0.423887
v -0.315859 0.540806 -0.426944
v -0.323465 0.546309 -0.424664
v -0.323465 0.540806 -0.426944
v -0.315859 0.546309 -0.424664
v -0.315859 0.546309 -0.424664
v -0.315859 0.540806 -0.426944
v -0.323465 0.546309 -0.424664
v -0.323465 0.540806 -0.426944
v -0.151563 0.536080 -0.430570
v -0.315859 0.536080 -0.430570
v -0.151563 0.536080 -0.430570
v -0.315859 0.536080 -0.430570
v -0.145478 0.540806 -0.426944
v -0.151563 0.546309 -0.424664
v -0.151563 0.540806 -0.426944
v -0.145478 0.546309 -0.424664
v -0.145478 0.546309 -0.424664
v -0.145478 0.540806 -0.426944
v -0.151563 0.546309 -0.424664
v -0.151563 0.540806 -0.426944
v -0.315859 0.558121 -0.424664
v -0.151563 0.558121 -0.424664
v -0.151563 0.558121 -0.424664
v -0.315859 0.558121 -0.424664
v -0.323465 0.552215 -0.423887
v -0.318902 0.552215 -0.423887
v -0.315859 0.552215 -0.423887
v -0.315859 0.552215 -0.423887
v -0.318902 0.552215 -0.423887
v -0.323465 0.552215 -0.423887
v -0.151563 0.552215 -0.423887
v -0.148521 0.552215 -0.423887
v -0.145478 0.552215 -0.423887
v -0.145478 0.552215 -0.423887
v -0.148521 0.552215 -0.423887
v -0.151563 0.552215 -0.423887
v -0.323465 0.530174 -0.440800
v -0.323465 0.530174 -0.452611
v -0.323465 0.529396 -0.446705
v -0.323465 0.532454 -0.435296
v -0.323465 0.532454 -0.458115
v -0.323465 0.536080 -0.430570
v -0.323465 0.536080 -0.462841
v -0.323465 0.540806 -0.426944
v -0.323465 0.540806 -0.466467
v -0.323465 0.546309 -0.468747
v -0.323465 0.546309 -0.424664
v -0.323465 0.552215 -0.423887
v -0.323465 0.552215 -0.469524
v -0.323465 0.558121 -0.424664
v -0.323465 0.558121 -0.468747
v -0.323465 0.563624 -0.426944
v -0.323465 0.563624 -0.466467
v -0.323465 0.568350 -0.430570
v -0.323465 0.568350 -0.462841
v -0.323465 0.571977 -0.435296
v -0.323465 0.571977 -0.458115
v -0.323465 0.574257 -0.440800
v -0.323465 0.574257 -0.452611
v -0.323465 0.575034 -0.446705
v -0.323465 0.575034 -0.446705
v -0.323465 0.574257 -0.440800
v -0.323465 0.574257 -0.452611
v -0.323465 0.571977 -0.458115
v -0.323465 0.571977 -0.435296
v -0.323465 0.568350 -0.462841
v -0.323465 0.568350 -0.430570
v -0.323465 0.563624 -0.466467
v -0.323465 0.563624 -0.426944
v -0.323465 0.558121 -0.468747
v -0.323465 0.558121 -0.424664
v -0.323465 0.552215 -0.469524
v -0.323465 0.552215 -0.423887
v -0.323465 0.546309 -0.468747
v -0.323465 0.546309 -0.424664
v -0.323465 0.540806 -0.426944
v -0.323465 0.540806 -0.466467
v -0.323465 0.536080 -0.462841
v -0.323465 0.536080 -0.430570
v -0.323465 0.532454 -0.458115
v -0.323465 0.532454 -0.435296
v -0.323465 0.530174 -0.452611
v -0.323465 0.530174 -0.440800
v -0.323465 0.529396 -0.446705
v -0.315859 0.536080 -0.430570
v -0.323465 0.536080 -0.430570
v -0.315859 0.536080 -0.430570
v -0.323465 0.536080 -0.430570
v -0.315859 0.529396 -0.422746
v -0.315859 0.530174 -0.440800
v -0.315859 0.529396 -0.446705
v -0.315859 0.532454 -0.435296
v -0.315859 0.536080 -0.430570
v -0.315859 0.540806 -0.426944
v -0.315859 0.546309 -0.424664
v -0.315859 0.552215 -0.423887
v -0.315859 0.552215 -0.423887
v -0.315859 0.529396 -0.422746
v -0.315859 0.546309 -0.424664
v -0.315859 0.540806 -0.426944
v -0.315859 0.536080 -0.430570
v -0.315859 0.532454 -0.435296
v -0.315859 0.530174 -0.440800
v -0.315859 0.529396 -0.446705
v -0.315859 0.532454 -0.435296
v -0.151563 0.532454 -0.435296
v -0.315859 0.532454 -0.435296
v -0.151563 0.532454 -0.435296
v -0.145478 0.536080 -0.430570
v -0.151563 0.536080 -0.430570
v -0.145478 0.536080 -0.430570
v -0.151563 0.536080 -0.430570
v -0.145478 0.530174 -0.452611
v -0.145478 0.530174 -0.440800
v -0.145478 0.529396 -0.446705
v -0.145478 0.532454 -0.458115
v -0.145478 0.532454 -0.435296
v -0.145478 0.536080 -0.462841
v -0.145478 0.536080 -0.430570
v -0.145478 0.540806 -0.466467
v -0.145478 0.540806 -0.426944
v -0.145478 0.546309 -0.468747
v -0.145478 0.546309 -0.424664
v -0.145478 0.552215 -0.469524
v -0.145478 0.552215 -0.423887
v -0.145478 0.558121 -0.468747
v -0.145478 0.558121 -0.424664
v -0.145478 0.563624 -0.466467
v -0.145478 0.563624 -0.426944
v -0.145478 0.568350 -0.462841
v -0.145478 0.568350 -0.430570
v -0.145478 0.571977 -0.458115
v -0.145478 0.571977 -0.435296
v -0.145478 0.574257 -0.452611
v -0.145478 0.574257 -0.440800
v -0.145478 0.575034 -0.446705
v -0.145478 0.575034 -0.446705
v -0.145478 0.574257 -0.452611
v -0.145478 0.574257 -0.440800
v -0.145478 0.571977 -0.435296
v -0.145478 0.571977 -0.458115
v -0.145478 0.568350 -0.430570
v -0.145478 0.568350 -0.462841
v -0.145478 0.563624 -0.426944
v -0.145478 0.563624 -0.466467
v -0.145478 0.558121 -0.424664
v -0.145478 0.558121 -0.468747
v -0.145478 0.552215 -0.423887
v -0.145478 0.552215 -0.469524
v -0.145478 0.546309 -0.424664
v -0.145478 0.546309 -0.468747
v -0.145478 0.540806 -0.426944
v -0.145478 0.540806 -0.466467
v -0.145478 0.536080 -0.430570
v -0.145478 0.536080 -0.462841
v -0.145478 0.532454 -0.435296
v -0.145478 0.532454 -0.458115
v -0.145478 0.530174 -0.440800
v -0.145478 0.530174 -0.452611
v -0.145478 0.529396 -0.446705
v -0.151563 0.530174 -0.440800
v -0.151563 0.529396 -0.422746
v -0.151563 0.529396 -0.446705
v -0.151563 0.532454 -0.435296
v -0.151563 0.536080 -0.430570
v -0.151563 0.540806 -0.426944
v -0.151563 0.546309 -0.424664
v -0.151563 0.552215 -0.423887
v -0.151563 0.552215 -0.423887
v -0.151563 0.546309 -0.424664
v -0.151563 0.529396 -0.422746
v -0.151563 0.540806 -0.426944
v -0.151563 0.536080 -0.430570
v -0.151563 0.532454 -0.435296
v -0.151563 0.530174 -0.440800
v -0.151563 0.529396 -0.446705
v -0.315859 0.563624 -0.426944
v -0.151563 0.563624 -0.426944
v -0.151563 0.563624 -0.426944
v -0.315859 0.563624 -0.426944
v -0.318902 0.552215 -0.423887
v -0.323465 0.558121 -0.424664
v -0.323465 0.552215 -0.423887
v -0.315859 0.558121 -0.424664
v -0.315859 0.552215 -0.423887
v -0.315859 0.552215 -0.423887
v -0.318902 0.552215 -0.423887
v -0.315859 0.558121 -0.424664
v -0.323465 0.558121 -0.424664
v -0.323465 0.552215 -0.423887
v -0.148521 0.552215 -0.423887
v -0.151563 0.558121 -0.424664
v -0.151563 0.552215 -0.423887
v -0.145478 0.558121 -0.424664
v -0.145478 0.552215 -0.423887
v -0.145478 0.552215 -0.423887
v -0.148521 0.552215 -0.423887
v -0.145478 0.558121 -0.424664
v -0.151563 0.558121 -0.424664
v -0.151563 0.552215 -0.423887
v -0.145478 0.552215 -0.469524
v -0.323465 0.546309 -0.468747
v -0.323465 0.552215 -0.469524
v -0.145478 0.546309 -0.468747
v -0.145478 0.546309 -0.468747
v -0.145478 0.552215 -0.469524
v -0.323465 0.546309 -0.468747
v -0.323465 0.552215 -0.469524
v -0.323465 0.540806 -0.466467
v -0.145478 0.540806 -0.466467
v -0.145478 0.540806 -0.466467
v -0.323465 0.540806 -0.466467
v -0.323465 0.536080 -0.462841
v -0.145478 0.536080 -0.462841
v -0.145478 0.536080 -0.462841
v -0.323465 0.536080 -0.462841
v -0.145478 0.532454 -0.458115
v -0.323465 0.532454 -0.458115
v -0.323465 0.532454 -0.458115
v -0.145478 0.532454 -0.458115
v -0.145478 0.530174 -0.452611
v -0.323465 0.530174 -0.452611
v -0.323465 0.530174 -0.452611
v -0.145478 0.530174 -0.452611
v -0.145478 0.529396 -0.446705
v -0.323465 0.529396 -0.446705
v -0.148521 0.529396 -0.446705
v -0.151563 0.529396 -0.446705
v -0.315859 0.529396 -0.446705
v -0.318902 0.529396 -0.446705
v -0.318902 0.529396 -0.446705
v -0.315859 0.529396 -0.446705
v -0.323465 0.529396 -0.446705
v -0.151563 0.529396 -0.446705
v -0.148521 0.529396 -0.446705
v -0.145478 0.529396 -0.446705
v -0.315859 0.530174 -0.440800
v -0.318902 0.529396 -0.446705
v -0.315859 0.529396 -0.446705
v -0.323465 0.529396 -0.446705
v -0.323465 0.530174 -0.440800
v -0.323465 0.530174 -0.440800
v -0.315859 0.530174 -0.440800
v -0.323465 0.529396 -0.446705
v -0.318902 0.529396 -0.446705
v -0.315859 0.529396 -0.446705
v -0.315859 0.532454 -0.435296
v -0.323465 0.532454 -0.435296
v -0.323465 0.532454 -0.435296
v -0.315859 0.532454 -0.435296
v -0.323465 0.563624 -0.426944
v -0.315859 0.563624 -0.426944
v -0.315859 0.563624 -0.426944
v -0.323465 0.563624 -0.426944
v -0.323465 0.568350 -0.430570
v -0.315859 0.568350 -0.430570
v -0.315859 0.568350 -0.430570
v -0.323465 0.568350 -0.430570
v -0.315859 0.571977 -0.435296
v -0.323465 0.571977 -0.435296
v -0.315859 0.571977 -0.435296
v -0.323465 0.571977 -0.435296
v -0.315859 0.574257 -0.440800
v -0.323465 0.574257 -0.440800
v -0.315859 0.574257 -0.440800
v -0.323465 0.574257 -0.440800
v -0.318902 0.575034 -0.446705
v -0.323465 0.575034 -0.446705
v -0.315859 0.575034 -0.446705
v -0.315859 0.575034 -0.446705
v -0.318902 0.575034 -0.446705
v -0.323465 0.575034 -0.446705
v -0.323465 0.575034 -0.446705
v -0.145478 0.574257 -0.452611
v -0.323465 0.574257 -0.452611
v -0.145478 0.575034 -0.446705
v -0.318902 0.575034 -0.446705
v -0.315859 0.575034 -0.446705
v -0.151563 0.575034 -0.446705
v -0.148521 0.575034 -0.446705
v -0.148521 0.575034 -0.446705
v -0.151563 0.575034 -0.446705
v -0.145478 0.575034 -0.446705
v -0.315859 0.575034 -0.446705
v -0.318902 0.575034 -0.446705
v -0.323465 0.575034 -0.446705
v -0.145478 0.574257 -0.452611
v -0.323465 0.574257 -0.452611
v -0.145478 0.571977 -0.458115
v -0.323465 0.571977 -0.458115
v -0.145478 0.571977 -0.458115
v -0.323465 0.571977 -0.458115
v -0.145478 0.568350 -0.462841
v -0.323465 0.568350 -0.462841
v -0.145478 0.568350 -0.462841
v -0.323465 0.568350 -0.462841
v -0.323465 0.563624 -0.466467
v -0.145478 0.563624 -0.466467
v -0.145478 0.563624 -0.466467
v -0.323465 0.563624 -0.466467
v -0.323465 0.558121 -0.468747
v -0.145478 0.558121 -0.468747
v -0.145478 0.558121 -0.468747
v -0.323465 0.558121 -0.468747
v -0.318902 0.529396 -0.422746
v -0.315859 0.529396 -0.446705
v -0.318902 0.529396 -0.446705
v -0.315859 0.529396 -0.422746
v -0.315859 0.529396 -0.422746
v -0.318902 0.529396 -0.422746
v -0.315859 0.529396 -0.446705
v -0.318902 0.529396 -0.446705
v -0.315859 0.530174 -0.440800
v -0.151563 0.530174 -0.440800
v -0.315859 0.530174 -0.440800
v -0.151563 0.530174 -0.440800
v -0.151563 0.532454 -0.435296
v -0.145478 0.532454 -0.435296
v -0.151563 0.532454 -0.435296
v -0.145478 0.532454 -0.435296
v -0.151563 0.574257 -0.440800
v -0.148521 0.575034 -0.446705
v -0.151563 0.575034 -0.446705
v -0.145478 0.575034 -0.446705
v -0.145478 0.574257 -0.440800
v -0.145478 0.574257 -0.440800
v -0.151563 0.574257 -0.440800
v -0.145478 0.575034 -0.446705
v -0.148521 0.575034 -0.446705
v -0.151563 0.575034 -0.446705
v -0.151563 0.571977 -0.435296
v -0.145478 0.571977 -0.435296
v -0.145478 0.571977 -0.435296
v -0.151563 0.571977 -0.435296
v -0.151563 0.568350 -0.430570
v -0.145478 0.568350 -0.430570
v -0.145478 0.568350 -0.430570
v -0.151563 0.568350 -0.430570
v -0.145478 0.563624 -0.426944
v -0.151563 0.563624 -0.426944
v -0.145478 0.563624 -0.426944
v -0.151563 0.563624 -0.426944
v -0.151563 0.530174 -0.440800
v -0.145478 0.530174 -0.440800
v -0.151563 0.530174 -0.440800
v -0.145478 0.530174 -0.440800
v -0.148521 0.529396 -0.446705
v -0.145478 0.529396 -0.446705
v -0.151563 0.529396 -0.446705
v -0.151563 0.529396 -0.446705
v -0.148521 0.529396 -0.446705
v -0.145478 0.529396 -0.446705
v -0.151563 0.529396 -0.422746
v -0.148521 0.529396 -0.446705
v -0.151563 0.529396 -0.446705
v -0.148521 0.529396 -0.422746
v -0.148521 0.529396 -0.422746
v -0.151563 0.529396 -0.422746
v -0.148521 0.529396 -0.446705
v -0.151563 0.529396 -0.446705
v -0.315859 0.568350 -0.430570
v -0.151563 0.568350 -0.430570
v -0.151563 0.568350 -0.430570
v -0.315859 0.568350 -0.430570
v -0.151563 0.571977 -0.435296
v -0.315859 0.571977 -0.435296
v -0.151563 0.571977 -0.435296
v -0.315859 0.571977 -0.435296
v -0.151563 0.574257 -0.440800
v -0.315859 0.574257 -0.440800
v -0.151563 0.574257 -0.440800
v -0.315859 0.574257 -0.440800
vn 0 -0.5000000016387103 0.8660254028383289
vn 0 -0.2588190095935619 0.9659258358036644
vn 0 0 1
vn 0 -0.7071067811865478 0.7071067811865474
vn 0 0.25881900959356136 0.9659258358036646
vn 0 -0.13052619486885578 0.9914448610250887
vn -1 0 0
vn 0 -0.8660254028383291 0.5000000016387098
vn 1 0 0
vn 0 0.5000000016387098 0.8660254028383291
vn 0 0.13052619486885522 0.9914448610250887
vn 0 0 -1
vn 0 -0.25881900959356136 -0.9659258358036646
vn 0 -0.5000000016387098 -0.8660254028383291
vn 0 -0.7071067811865474 -0.7071067811865478
vn 0 -0.8660254028383289 -0.5000000016387103
vn 0 -0.9659258358036644 -0.2588190095935619
vn 0 -0.9914448610250887 -0.13052619486885578
vn 0 -0.9990384786127189 -0.0438419690614373
vn 0 -0.9659258358036646 0.25881900959356136
vn 0 -0.9914448610250887 0.13052619486885522
vn 0 0.7071067811865474 0.7071067811865478
vn 0 0.8660254028383289 0.5000000016387103
vn 0 0.9659258358036644 0.2588190095935619
vn 0 0.9914448610250887 0.13052619486885578
vn 0 0.9914448610250887 -0.13052619486885522
vn 0 0.9659258358036646 -0.25881900959356136
vn 0 0.9990384786127189 -0.04384196906143676
vn 0 0.8660254028383291 -0.5000000016387098
vn 0 0.7071067811865478 -0.7071067811865474
vn 0 0.5000000016387103 -0.8660254028383289
vn 0 0.2588190095935619 -0.9659258358036644
vn 0 1 0
vn 0 0.13052619486885578 -0.9914448610250887
vn 0 -0.13052619486885522 -0.9914448610250887
vn 0 0.9990384786127189 0.0438419690614373
vn 0 -0.9990384786127189 0.04384196906143676
vn 0 -1 0
usemtl material_0_0
f 1//1 2//2 3//1
f 2//2 1//1 4//2
f 4//2 9//3 2//2
f 9//3 4//2 10//3
f 13//1 14//2 15//1
f 14//2 13//1 16//2
f 21//4 3//1 22//4
f 3//1 21//4 1//1
f 25//1 26//2 27//1
f 26//2 25//1 28//2
f 10//3 33//5 9//3
f 33//5 10//3 34//5
f 16//2 37//6 14//2
f 37//6 16//2 38//6
f 38//6 16//2 39//6
f 28//2 43//6 26//2
f 43//6 28//2 44//6
f 44//6 28//2 45//6
f 49//7 50//7 51//7
f 50//7 49//7 52//7
f 50//7 52//7 53//7
f 53//7 52//7 54//7
f 53//7 54//7 55//7
f 55//7 54//7 56//7
f 55//7 56//7 57//7
f 57//7 56//7 58//7
f 58//7 56//7 59//7
f 58//7 59//7 60//7
f 58//7 60//7 61//7
f 61//7 60//7 62//7
f 61//7 62//7 63//7
f 63//7 62//7 64//7
f 63//7 64//7 65//7
f 65//7 64//7 66//7
f 65//7 66//7 67//7
f 67//7 66//7 68//7
f 67//7 68//7 69//7
f 69//7 68//7 70//7
f 69//7 70//7 71//7
f 71//7 70//7 72//7
f 97//4 15//1 98//4
f 15//1 97//4 13//1
f 101//7 102//7 103//7
f 102//7 101//7 104//7
f 104//7 101//7 105//7
f 105//7 101//7 106//7
f 106//7 101//7 107//7
f 107//7 101//7 108//7
f 21//4 117//8 118//8
f 117//8 21//4 22//4
f 121//4 27//1 122//4
f 27//1 121//4 25//1
f 125//9 126//9 127//9
f 126//9 125//9 128//9
f 126//9 128//9 129//9
f 129//9 128//9 130//9
f 129//9 130//9 131//9
f 131//9 130//9 132//9
f 131//9 132//9 133//9
f 133//9 132//9 134//9
f 133//9 134//9 135//9
f 135//9 134//9 136//9
f 135//9 136//9 137//9
f 137//9 136//9 138//9
f 137//9 138//9 139//9
f 139//9 138//9 140//9
f 139//9 140//9 141//9
f 141//9 140//9 142//9
f 141//9 142//9 143//9
f 143//9 142//9 144//9
f 143//9 144//9 145//9
f 145//9 144//9 146//9
f 145//9 146//9 147//9
f 147//9 146//9 148//9
f 173//9 174//9 175//9
f 174//9 173//9 176//9
f 174//9 176//9 177//9
f 174//9 177//9 178//9
f 174//9 178//9 179//9
f 174//9 179//9 180//9
f 34//5 189//10 33//5
f 189//10 34//5 190//10
f 193//11 194//5 195//11
f 194//5 193//11 196//5
f 196//5 193//11 197//11
f 203//11 204//5 205//11
f 204//5 203//11 206//5
f 206//5 203//11 207//11
f 213//12 214//13 215//12
f 214//13 213//12 216//13
f 216//13 221//14 214//13
f 221//14 216//13 222//14
f 222//14 225//15 221//14
f 225//15 222//14 226//15
f 229//16 225//15 226//15
f 225//15 229//16 230//16
f 233//17 230//16 229//16
f 230//16 233//17 234//17
f 237//18 234//17 233//17
f 234//17 237//18 238//18
f 238//18 237//18 239//18
f 238//18 239//18 240//19
f 238//18 240//19 241//19
f 238//18 241//19 242//18
f 249//20 250//21 251//21
f 250//21 249//20 252//21
f 252//21 249//20 253//20
f 259//8 253//20 249//20
f 253//20 259//8 260//8
f 97//4 260//8 259//8
f 260//8 97//4 98//4
f 196//5 263//10 194//5
f 263//10 196//5 264//10
f 264//10 267//22 263//10
f 267//22 264//10 268//22
f 267//22 271//23 272//23
f 271//23 267//22 268//22
f 272//23 275//24 276//24
f 275//24 272//23 271//23
f 276//24 279//25 280//25
f 279//25 276//24 281//25
f 281//25 276//24 275//24
f 285//26 286//27 287//27
f 286//27 285//26 288//26
f 288//26 285//26 289//26
f 288//26 289//26 290//28
f 288//26 290//28 291//28
f 288//26 291//28 292//26
f 287//27 301//29 302//29
f 301//29 287//27 286//27
f 302//29 305//30 306//30
f 305//30 302//29 301//29
f 305//30 309//31 306//30
f 309//31 305//30 310//31
f 310//31 313//32 309//31
f 313//32 310//31 314//32
f 314//32 215//12 313//32
f 215//12 314//32 213//12
f 317//33 318//33 319//33
f 318//33 317//33 320//33
f 118//8 325//20 326//20
f 325//20 118//8 117//8
f 121//4 329//8 330//8
f 329//8 121//4 122//4
f 333//24 334//25 335//25
f 334//25 333//24 336//25
f 336//25 333//24 337//24
f 343//23 337//24 333//24
f 337//24 343//23 344//23
f 347//22 344//23 343//23
f 344//23 347//22 348//22
f 351//10 347//22 352//10
f 347//22 351//10 348//22
f 206//5 352//10 204//5
f 352//10 206//5 351//10
f 330//8 355//20 356//20
f 355//20 330//8 329//8
f 356//20 359//21 360//21
f 359//21 356//20 361//21
f 361//21 356//20 355//20
f 365//33 366//33 367//33
f 366//33 365//33 368//33
f 190//10 373//22 189//10
f 373//22 190//10 374//22
f 326//20 241//19 240//19
f 241//19 326//20 325//20
f 373//22 377//23 378//23
f 377//23 373//22 374//22
f 378//23 381//24 382//24
f 381//24 378//23 377//23
f 382//24 291//28 290//28
f 291//28 382//24 381//24
usemtl material_1_0
f 5//32 6//31 7//32
f 8//31 7//32 6//31
f 11//12 5//32 12//12
f 7//32 12//12 5//32
f 17//32 18//31 19//32
f 20//31 19//32 18//31
f 6//31 23//30 8//31
f 24//30 8//31 23//30
f 29//32 30//31 31//32
f 32//31 31//32 30//31
f 35//13 11//12 36//13
f 12//12 36//13 11//12
f 40//34 17//32 41//34
f 41//34 17//32 42//34
f 19//32 42//34 17//32
f 46//34 29//32 47//34
f 47//34 29//32 48//34
f 31//32 48//34 29//32
f 73//9 74//9 75//9
f 75//9 74//9 76//9
f 74//9 77//9 76//9
f 76//9 77//9 78//9
f 77//9 79//9 78//9
f 78//9 79//9 80//9
f 79//9 81//9 80//9
f 80//9 81//9 82//9
f 81//9 83//9 82//9
f 82//9 83//9 84//9
f 83//9 85//9 84//9
f 84//9 85//9 86//9
f 85//9 87//9 86//9
f 87//9 88//9 86//9
f 86//9 88//9 89//9
f 89//9 88//9 90//9
f 88//9 91//9 90//9
f 90//9 91//9 92//9
f 91//9 93//9 92//9
f 92//9 93//9 94//9
f 93//9 95//9 94//9
f 96//9 94//9 95//9
f 18//31 99//30 20//31
f 100//30 20//31 99//30
f 109//9 110//9 111//9
f 111//9 110//9 112//9
f 112//9 110//9 113//9
f 113//9 110//9 114//9
f 114//9 110//9 115//9
f 116//9 115//9 110//9
f 24//30 23//30 119//29
f 120//29 119//29 23//30
f 30//31 123//30 32//31
f 124//30 32//31 123//30
f 149//7 150//7 151//7
f 151//7 150//7 152//7
f 150//7 153//7 152//7
f 152//7 153//7 154//7
f 153//7 155//7 154//7
f 154//7 155//7 156//7
f 155//7 157//7 156//7
f 156//7 157//7 158//7
f 157//7 159//7 158//7
f 158//7 159//7 160//7
f 159//7 161//7 160//7
f 160//7 161//7 162//7
f 161//7 163//7 162//7
f 162//7 163//7 164//7
f 163//7 165//7 164//7
f 164//7 165//7 166//7
f 165//7 167//7 166//7
f 166//7 167//7 168//7
f 167//7 169//7 168//7
f 168//7 169//7 170//7
f 169//7 171//7 170//7
f 172//7 170//7 171//7
f 181//7 182//7 183//7
f 182//7 184//7 183//7
f 184//7 185//7 183//7
f 185//7 186//7 183//7
f 186//7 187//7 183//7
f 188//7 183//7 187//7
f 191//14 35//13 192//14
f 36//13 192//14 35//13
f 198//35 199//35 200//13
f 200//13 199//35 201//13
f 202//35 201//13 199//35
f 208//35 209//35 210//13
f 210//13 209//35 211//13
f 212//35 211//13 209//35
f 217//5 218//3 219//5
f 220//3 219//5 218//3
f 223//10 217//5 224//10
f 219//5 224//10 217//5
f 227//22 223//10 228//22
f 224//10 228//22 223//10
f 231//23 232//23 228//22
f 227//22 228//22 232//23
f 235//24 236//24 231//23
f 232//23 231//23 236//24
f 243//25 244//36 245//25
f 244//36 246//36 245//25
f 246//36 247//25 245//25
f 247//25 248//25 245//25
f 245//25 248//25 235//24
f 236//24 235//24 248//25
f 254//27 255//27 256//26
f 256//26 255//27 257//26
f 258//26 257//26 255//27
f 261//29 262//29 254//27
f 255//27 254//27 262//29
f 100//30 99//30 261//29
f 262//29 261//29 99//30
f 265//14 200//13 266//14
f 201//13 266//14 200//13
f 269//15 265//14 270//15
f 266//14 270//15 265//14
f 269//15 270//15 273//16
f 274//16 273//16 270//15
f 273//16 274//16 277//17
f 278//17 277//17 274//16
f 277//17 278//17 282//18
f 282//18 278//17 283//18
f 284//18 283//18 278//17
f 293//21 294//37 295//21
f 294//37 296//37 295//21
f 296//37 297//21 295//21
f 297//21 298//21 295//21
f 295//21 298//21 299//20
f 300//20 299//20 298//21
f 299//20 300//20 303//8
f 304//8 303//8 300//20
f 303//8 304//8 307//4
f 308//4 307//4 304//8
f 311//1 307//4 312//1
f 308//4 312//1 307//4
f 315//2 311//1 316//2
f 312//1 316//2 311//1
f 218//3 315//2 220//3
f 316//2 220//3 315//2
f 321//38 322//38 323//38
f 324//38 323//38 322//38
f 119//29 120//29 327//27
f 328//27 327//27 120//29
f 124//30 123//30 331//29
f 332//29 331//29 123//30
f 338//17 339//17 340//18
f 340//18 339//17 341//18
f 342//18 341//18 339//17
f 345//16 346//16 338//17
f 339//17 338//17 346//16
f 349//15 350//15 345//16
f 346//16 345//16 350//15
f 349//15 353//14 350//15
f 354//14 350//15 353//14
f 353//14 210//13 354//14
f 211//13 354//14 210//13
f 331//29 332//29 357//27
f 358//27 357//27 332//29
f 357//27 358//27 362//26
f 362//26 358//27 363//26
f 364//26 363//26 358//27
f 369//38 370//38 371//38
f 372//38 371//38 370//38
f 375//15 191//14 376//15
f 192//14 376//15 191//14
f 327//27 328//27 244//36
f 246//36 244//36 328//27
f 375//15 376//15 379//16
f 380//16 379//16 376//15
f 379//16 380//16 383//17
f 384//17 383//17 380//16
f 383//17 384//17 294//37
f 296//37 294//37 384//17
