# SSTK version 0.8.0
# 22
mtllib original-22.mtl
o #ID571
v -0.380219 0.632470 -0.405081
v -0.409978 0.632470 -0.405081
v 0.396288 0.632470 -0.405081
v 0.406216 0.632470 -0.434189
v -0.409978 0.632470 -0.434839
v 0.396288 0.632470 -0.434839
v -0.419906 0.632470 -0.434189
v 0.415974 0.632470 -0.432247
v -0.429664 0.632470 -0.432247
v 0.425396 0.632470 -0.429049
v -0.439086 0.632470 -0.429049
v 0.434320 0.632470 -0.424649
v -0.448009 0.632470 -0.424649
v 0.442592 0.632470 -0.419121
v -0.456282 0.632470 -0.419121
v 0.450073 0.632470 -0.412561
v -0.463762 0.632470 -0.412561
v 0.456633 0.632470 -0.405081
v 0.402332 0.632470 -0.404684
v 0.462160 0.632470 -0.396808
v 0.408272 0.632470 -0.403503
v 0.414008 0.632470 -0.401556
v 0.419440 0.632470 -0.398877
v 0.424476 0.632470 -0.395512
v 0.466561 0.632470 -0.387884
v 0.429030 0.632470 -0.391518
v 0.433024 0.632470 -0.386965
v 0.469759 0.632470 -0.378463
v 0.436389 0.632470 -0.381928
v 0.439068 0.632470 -0.376496
v 0.471700 0.632470 -0.368705
v 0.441014 0.632470 -0.370761
v 0.442196 0.632470 -0.364820
v 0.472351 0.632470 -0.358776
v 0.442592 0.632470 -0.358776
v 0.472351 0.632470 0.371427
v 0.442592 0.632470 0.371427
v 0.471700 0.632470 0.381355
v 0.442196 0.632470 0.377471
v 0.441014 0.632470 0.383411
v 0.469759 0.632470 0.391113
v 0.439068 0.632470 0.389147
v 0.436389 0.632470 0.394579
v 0.466561 0.632470 0.400535
v 0.433024 0.632470 0.399615
v 0.429030 0.632470 0.404169
v 0.462160 0.632470 0.409458
v 0.424476 0.632470 0.408162
v 0.419440 0.632470 0.411527
v 0.456633 0.632470 0.417731
v 0.414008 0.632470 0.414206
v 0.408272 0.632470 0.416153
v 0.402332 0.632470 0.417335
v 0.396288 0.632470 0.417731
v -0.409978 0.632470 0.417731
v 0.450073 0.632470 0.425211
v -0.463762 0.632470 0.425211
v -0.456282 0.632470 0.431771
v 0.442592 0.632470 0.431771
v -0.448009 0.632470 0.437299
v 0.434320 0.632470 0.437299
v -0.439086 0.632470 0.441700
v 0.425396 0.632470 0.441700
v -0.429664 0.632470 0.444898
v 0.415974 0.632470 0.444898
v -0.419906 0.632470 0.446839
v 0.406216 0.632470 0.446839
v 0.396288 0.632470 0.447490
v -0.409978 0.632470 0.447490
v -0.470323 0.632470 -0.405081
v -0.416022 0.632470 -0.404684
v -0.475850 0.632470 -0.396808
v -0.421962 0.632470 -0.403503
v -0.427698 0.632470 -0.401556
v -0.433130 0.632470 -0.398877
v -0.438166 0.632470 -0.395512
v -0.480251 0.632470 -0.387884
v -0.442720 0.632470 -0.391518
v -0.446713 0.632470 -0.386965
v -0.483449 0.632470 -0.378463
v -0.450079 0.632470 -0.381928
v -0.452757 0.632470 -0.376496
v -0.485390 0.632470 -0.368705
v -0.454704 0.632470 -0.370761
v -0.455886 0.632470 -0.364820
v -0.486041 0.632470 -0.358776
v -0.456282 0.632470 -0.358776
v -0.456282 0.632470 0.371427
v -0.486041 0.632470 0.371427
v -0.455886 0.632470 0.377471
v -0.485390 0.632470 0.381355
v -0.454704 0.632470 0.383411
v -0.483449 0.632470 0.391113
v -0.452757 0.632470 0.389147
v -0.450079 0.632470 0.394579
v -0.480251 0.632470 0.400535
v -0.446713 0.632470 0.399615
v -0.442720 0.632470 0.404169
v -0.475850 0.632470 0.409458
v -0.438166 0.632470 0.408162
v -0.433130 0.632470 0.411527
v -0.470323 0.632470 0.417731
v -0.427698 0.632470 0.414206
v -0.421962 0.632470 0.416153
v -0.416022 0.632470 0.417335
v -0.463762 0.632470 0.425211
v -0.409978 0.632470 0.417731
v -0.470323 0.632470 0.417731
v -0.416022 0.632470 0.417335
v -0.421962 0.632470 0.416153
v -0.427698 0.632470 0.414206
v -0.433130 0.632470 0.411527
v -0.475850 0.632470 0.409458
v -0.438166 0.632470 0.408162
v -0.442720 0.632470 0.404169
v -0.480251 0.632470 0.400535
v -0.446713 0.632470 0.399615
v -0.450079 0.632470 0.394579
v -0.483449 0.632470 0.391113
v -0.452757 0.632470 0.389147
v -0.454704 0.632470 0.383411
v -0.485390 0.632470 0.381355
v -0.455886 0.632470 0.377471
v -0.486041 0.632470 0.371427
v -0.456282 0.632470 0.371427
v -0.486041 0.632470 -0.358776
v -0.456282 0.632470 -0.358776
v -0.455886 0.632470 -0.364820
v -0.485390 0.632470 -0.368705
v -0.454704 0.632470 -0.370761
v -0.452757 0.632470 -0.376496
v -0.483449 0.632470 -0.378463
v -0.450079 0.632470 -0.381928
v -0.446713 0.632470 -0.386965
v -0.480251 0.632470 -0.387884
v -0.442720 0.632470 -0.391518
v -0.438166 0.632470 -0.395512
v -0.475850 0.632470 -0.396808
v -0.433130 0.632470 -0.398877
v -0.427698 0.632470 -0.401556
v -0.421962 0.632470 -0.403503
v -0.416022 0.632470 -0.404684
v -0.470323 0.632470 -0.405081
v -0.409978 0.632470 -0.405081
v 0.396288 0.632470 -0.405081
v -0.463762 0.632470 -0.412561
v -0.409978 0.632470 0.447490
v 0.396288 0.632470 0.447490
v -0.419906 0.632470 0.446839
v 0.406216 0.632470 0.446839
v 0.415974 0.632470 0.444898
v -0.429664 0.632470 0.444898
v 0.425396 0.632470 0.441700
v -0.439086 0.632470 0.441700
v 0.434320 0.632470 0.437299
v -0.448009 0.632470 0.437299
v 0.442592 0.632470 0.431771
v -0.456282 0.632470 0.431771
v 0.450073 0.632470 0.425211
v 0.456633 0.632470 0.417731
v 0.396288 0.632470 0.417731
v 0.402332 0.632470 0.417335
v 0.408272 0.632470 0.416153
v 0.414008 0.632470 0.414206
v 0.419440 0.632470 0.411527
v 0.462160 0.632470 0.409458
v 0.424476 0.632470 0.408162
v 0.429030 0.632470 0.404169
v 0.466561 0.632470 0.400535
v 0.433024 0.632470 0.399615
v 0.436389 0.632470 0.394579
v 0.469759 0.632470 0.391113
v 0.439068 0.632470 0.389147
v 0.441014 0.632470 0.383411
v 0.471700 0.632470 0.381355
v 0.442196 0.632470 0.377471
v 0.442592 0.632470 0.371427
v 0.472351 0.632470 0.371427
v 0.442592 0.632470 -0.358776
v 0.472351 0.632470 -0.358776
v 0.442196 0.632470 -0.364820
v 0.471700 0.632470 -0.368705
v 0.441014 0.632470 -0.370761
v 0.439068 0.632470 -0.376496
v 0.469759 0.632470 -0.378463
v 0.436389 0.632470 -0.381928
v 0.433024 0.632470 -0.386965
v 0.466561 0.632470 -0.387884
v 0.429030 0.632470 -0.391518
v 0.424476 0.632470 -0.395512
v 0.462160 0.632470 -0.396808
v 0.419440 0.632470 -0.398877
v 0.414008 0.632470 -0.401556
v 0.408272 0.632470 -0.403503
v 0.402332 0.632470 -0.404684
v 0.456633 0.632470 -0.405081
v 0.450073 0.632470 -0.412561
v -0.456282 0.632470 -0.419121
v 0.442592 0.632470 -0.419121
v -0.448009 0.632470 -0.424649
v 0.434320 0.632470 -0.424649
v -0.439086 0.632470 -0.429049
v 0.425396 0.632470 -0.429049
v -0.429664 0.632470 -0.432247
v 0.415974 0.632470 -0.432247
v -0.419906 0.632470 -0.434189
v 0.406216 0.632470 -0.434189
v -0.409978 0.632470 -0.434839
v 0.396288 0.632470 -0.434839
v -0.380219 0.632470 -0.405081
vn 0 -1 0
vn 0 1 0
usemtl material_0_0
f 1//1 2//1 3//1
f 4//1 5//1 6//1
f 5//1 4//1 7//1
f 7//1 4//1 8//1
f 7//1 8//1 9//1
f 9//1 8//1 10//1
f 9//1 10//1 11//1
f 11//1 10//1 12//1
f 11//1 12//1 13//1
f 13//1 12//1 14//1
f 13//1 14//1 15//1
f 15//1 14//1 16//1
f 15//1 16//1 17//1
f 17//1 16//1 18//1
f 17//1 18//1 3//1
f 3//1 18//1 19//1
f 19//1 18//1 20//1
f 19//1 20//1 21//1
f 21//1 20//1 22//1
f 22//1 20//1 23//1
f 23//1 20//1 24//1
f 24//1 20//1 25//1
f 24//1 25//1 26//1
f 26//1 25//1 27//1
f 27//1 25//1 28//1
f 27//1 28//1 29//1
f 29//1 28//1 30//1
f 30//1 28//1 31//1
f 30//1 31//1 32//1
f 32//1 31//1 33//1
f 33//1 31//1 34//1
f 33//1 34//1 35//1
f 35//1 34//1 36//1
f 35//1 36//1 37//1
f 37//1 36//1 38//1
f 37//1 38//1 39//1
f 39//1 38//1 40//1
f 40//1 38//1 41//1
f 40//1 41//1 42//1
f 42//1 41//1 43//1
f 43//1 41//1 44//1
f 43//1 44//1 45//1
f 45//1 44//1 46//1
f 46//1 44//1 47//1
f 46//1 47//1 48//1
f 48//1 47//1 49//1
f 49//1 47//1 50//1
f 49//1 50//1 51//1
f 51//1 50//1 52//1
f 52//1 50//1 53//1
f 53//1 50//1 54//1
f 54//1 50//1 55//1
f 55//1 50//1 56//1
f 55//1 56//1 57//1
f 57//1 56//1 58//1
f 58//1 56//1 59//1
f 58//1 59//1 60//1
f 60//1 59//1 61//1
f 60//1 61//1 62//1
f 62//1 61//1 63//1
f 62//1 63//1 64//1
f 64//1 63//1 65//1
f 64//1 65//1 66//1
f 66//1 65//1 67//1
f 66//1 67//1 68//1
f 66//1 68//1 69//1
f 17//1 2//1 70//1
f 2//1 17//1 3//1
f 70//1 2//1 71//1
f 70//1 71//1 72//1
f 72//1 71//1 73//1
f 72//1 73//1 74//1
f 72//1 74//1 75//1
f 72//1 75//1 76//1
f 72//1 76//1 77//1
f 77//1 76//1 78//1
f 77//1 78//1 79//1
f 77//1 79//1 80//1
f 80//1 79//1 81//1
f 80//1 81//1 82//1
f 80//1 82//1 83//1
f 83//1 82//1 84//1
f 83//1 84//1 85//1
f 83//1 85//1 86//1
f 86//1 85//1 87//1
f 86//1 87//1 88//1
f 86//1 88//1 89//1
f 89//1 88//1 90//1
f 89//1 90//1 91//1
f 91//1 90//1 92//1
f 91//1 92//1 93//1
f 93//1 92//1 94//1
f 93//1 94//1 95//1
f 93//1 95//1 96//1
f 96//1 95//1 97//1
f 96//1 97//1 98//1
f 96//1 98//1 99//1
f 99//1 98//1 100//1
f 99//1 100//1 101//1
f 99//1 101//1 102//1
f 102//1 101//1 103//1
f 102//1 103//1 104//1
f 102//1 104//1 105//1
f 102//1 105//1 55//1
f 102//1 55//1 57//1
usemtl material_1_0
f 106//2 107//2 108//2
f 107//2 109//2 108//2
f 109//2 110//2 108//2
f 110//2 111//2 108//2
f 111//2 112//2 108//2
f 108//2 112//2 113//2
f 112//2 114//2 113//2
f 114//2 115//2 113//2
f 113//2 115//2 116//2
f 115//2 117//2 116//2
f 117//2 118//2 116//2
f 116//2 118//2 119//2
f 118//2 120//2 119//2
f 120//2 121//2 119//2
f 119//2 121//2 122//2
f 121//2 123//2 122//2
f 122//2 123//2 124//2
f 123//2 125//2 124//2
f 124//2 125//2 126//2
f 125//2 127//2 126//2
f 127//2 128//2 126//2
f 126//2 128//2 129//2
f 128//2 130//2 129//2
f 130//2 131//2 129//2
f 129//2 131//2 132//2
f 131//2 133//2 132//2
f 133//2 134//2 132//2
f 132//2 134//2 135//2
f 134//2 136//2 135//2
f 136//2 137//2 135//2
f 135//2 137//2 138//2
f 137//2 139//2 138//2
f 139//2 140//2 138//2
f 140//2 141//2 138//2
f 141//2 142//2 138//2
f 138//2 142//2 143//2
f 142//2 144//2 143//2
f 145//2 146//2 144//2
f 143//2 144//2 146//2
f 147//2 148//2 149//2
f 148//2 150//2 149//2
f 150//2 151//2 149//2
f 149//2 151//2 152//2
f 151//2 153//2 152//2
f 152//2 153//2 154//2
f 153//2 155//2 154//2
f 154//2 155//2 156//2
f 155//2 157//2 156//2
f 156//2 157//2 158//2
f 157//2 159//2 158//2
f 158//2 159//2 106//2
f 106//2 159//2 107//2
f 159//2 160//2 107//2
f 107//2 160//2 161//2
f 161//2 160//2 162//2
f 162//2 160//2 163//2
f 163//2 160//2 164//2
f 164//2 160//2 165//2
f 160//2 166//2 165//2
f 165//2 166//2 167//2
f 167//2 166//2 168//2
f 166//2 169//2 168//2
f 168//2 169//2 170//2
f 170//2 169//2 171//2
f 169//2 172//2 171//2
f 171//2 172//2 173//2
f 173//2 172//2 174//2
f 172//2 175//2 174//2
f 174//2 175//2 176//2
f 176//2 175//2 177//2
f 175//2 178//2 177//2
f 177//2 178//2 179//2
f 178//2 180//2 179//2
f 179//2 180//2 181//2
f 180//2 182//2 181//2
f 181//2 182//2 183//2
f 183//2 182//2 184//2
f 182//2 185//2 184//2
f 184//2 185//2 186//2
f 186//2 185//2 187//2
f 185//2 188//2 187//2
f 187//2 188//2 189//2
f 189//2 188//2 190//2
f 188//2 191//2 190//2
f 190//2 191//2 192//2
f 192//2 191//2 193//2
f 193//2 191//2 194//2
f 194//2 191//2 195//2
f 191//2 196//2 195//2
f 195//2 196//2 145//2
f 145//2 196//2 146//2
f 196//2 197//2 146//2
f 146//2 197//2 198//2
f 197//2 199//2 198//2
f 198//2 199//2 200//2
f 199//2 201//2 200//2
f 200//2 201//2 202//2
f 201//2 203//2 202//2
f 202//2 203//2 204//2
f 203//2 205//2 204//2
f 204//2 205//2 206//2
f 205//2 207//2 206//2
f 206//2 207//2 208//2
f 209//2 208//2 207//2
f 145//2 144//2 210//2
