# SSTK version 0.8.0
# 10
mtllib original-10.mtl
o Group11/mesh14/mesh14-geometry#mesh14-geometry
v -0.250196 -0.021957 -0.256336
v -0.269805 -0.021957 0.145651
v -0.269805 -0.021957 -0.256336
v -0.250196 -0.021957 0.145651
v -0.269805 -0.002348 -0.256336
v -0.250196 -0.021957 0.165260
v -0.250196 -0.002348 0.145651
v -0.269805 -0.002348 0.145651
v -0.250196 -0.002348 -0.256336
v -0.220782 -0.021957 0.165260
v -0.250196 -0.002348 -0.275945
v -0.250196 -0.021957 -0.275945
v -0.220782 -0.002348 0.165260
v -0.250196 -0.002348 0.165260
v -0.220782 -0.021957 -0.275945
v -0.220782 -0.002348 -0.275945
vt -0.013889 0.298611
vt 0 0.013889
vt 0 0.298611
vt -0.013889 0.013889
vt -0.013889 0
vt -0.298611 0.013889
vt -0.298611 0
vt 0 0
vt 0.013889 0.013889
vt 0.013889 0
vt -0.034722 0
vt 0.013889 0.298611
vt -0.3125 0.013889
vt -0.013889 0.3125
vt 0.034722 0.013889
vt 0.034722 0
vt -0.3125 0
vt 0.013889 0.3125
vt -0.034722 0.3125
vt 0.3125 0
vt 0.034722 0.3125
vt 0.3125 0.013889
vt -0.034722 0.013889
vn 0 -1 0
vn 0 1 0
vn -1 0 0
vn 1 0 0
vn 0 0 -1
vn 0 0 1
usemtl material_0_0
f 1/1/1 2/2/1 3/3/1
f 2/2/1 1/1/1 4/4/1
f 3/3/2 2/2/2 1/1/2
f 4/4/2 1/1/2 2/2/2
f 2/5/3 5/6/3 3/7/3
f 3/7/4 5/6/4 2/5/4
f 5/2/5 1/5/5 3/8/5
f 3/8/6 1/5/6 5/2/6
f 4/4/1 1/1/1 6/5/1
f 6/5/2 1/1/2 4/4/2
f 7/9/6 2/8/6 4/10/6
f 4/10/5 2/8/5 7/9/5
f 5/6/3 2/5/3 8/4/3
f 8/4/4 2/5/4 5/6/4
f 1/5/5 5/2/5 9/4/5
f 9/4/6 5/2/6 1/5/6
f 6/5/1 1/1/1 10/11/1
f 10/11/2 1/1/2 6/5/2
f 6/8/3 7/4/3 4/5/3
f 4/5/4 7/4/4 6/8/4
f 2/8/6 7/9/6 8/2/6
f 8/2/5 7/9/5 2/8/5
f 8/2/2 9/12/2 5/3/2
f 5/3/1 9/12/1 8/2/1
f 11/13/3 1/7/3 9/6/3
f 9/6/4 1/7/4 11/13/4
f 10/11/1 1/1/1 12/14/1
f 12/14/2 1/1/2 10/11/2
f 13/15/6 6/10/6 10/16/6
f 10/16/5 6/10/5 13/15/5
f 7/4/3 6/8/3 14/2/3
f 14/2/4 6/8/4 7/4/4
f 9/12/2 8/2/2 7/9/2
f 7/9/1 8/2/1 9/12/1
f 1/7/3 11/13/3 12/17/3
f 12/17/4 11/13/4 1/7/4
f 9/12/2 13/16/2 11/18/2
f 11/18/1 13/16/1 9/12/1
f 10/11/1 12/14/1 15/19/1
f 15/19/2 12/14/2 10/11/2
f 6/10/6 13/15/6 14/9/6
f 14/9/5 13/15/5 6/10/5
f 15/20/4 13/2/4 10/8/4
f 10/8/3 13/2/3 15/20/3
f 13/16/2 7/9/2 14/10/2
f 14/10/1 7/9/1 13/16/1
f 7/9/2 13/16/2 9/12/2
f 9/12/1 13/16/1 7/9/1
f 11/4/5 15/11/5 12/5/5
f 12/5/6 15/11/6 11/4/6
f 11/18/2 13/16/2 16/21/2
f 16/21/1 13/16/1 11/18/1
f 13/2/4 15/20/4 16/22/4
f 16/22/3 15/20/3 13/2/3
f 15/11/5 11/4/5 16/23/5
f 16/23/6 11/4/6 15/11/6
