# SSTK version 0.8.0
# 22
mtllib original-22.mtl
o Group23/mesh57/mesh57-geometry#mesh57-geometry
v 0.323372 -0.914172 -0.310261
v 0.323372 -0.914172 -0.271043
v 0.284153 -0.914172 -0.310261
v 0.323372 -0.080784 -0.256336
v 0.284153 -0.914172 -0.271043
v 0.269446 0.154525 -0.310261
v 0.323372 0.154525 -0.310261
v 0.269446 -0.080784 -0.310261
v 0.323372 0.154525 -0.256336
v 0.269446 -0.080784 -0.256336
v 0.269446 -0.012152 -0.295555
v 0.308665 -0.012152 -0.256336
v 0.269446 0.125112 -0.295555
v 0.269446 0.154525 -0.256336
v 0.308665 0.125112 -0.256336
v 0.298860 -0.012152 -0.256336
v 0.269446 -0.012152 -0.285750
v 0.269446 0.125112 -0.285750
v 0.308665 0.125112 -0.295555
v 0.298860 0.125112 -0.256336
v 0.298860 -0.012152 -0.285750
v 0.308665 -0.012152 -0.295555
v 0.298860 0.125112 -0.285750
vt 0 0
vt -0.027778 0
vt 0 0.027778
vt 0.027778 0
vt 0.038194 0.590278
vt -0.027778 0.027778
vt -0.038194 0.756944
vt 0 0.756944
vt 0 0.00049
vt 0 0.59086
vt 0.027778 0.00049
vt -0.027778 0.00049
vt -0.038194 0.590278
vt 0.038194 0.756944
vt 0.038194 0.59086
vt -0.038194 0.59086
vt 0 0.590278
vt -0.010417 0.638889
vt 0 0.038194
vt 0.038194 0
vt 0.010417 0.638889
vt -0.010417 0.736111
vt 0.038194 0.038194
vt 0.010417 0.736111
vt 0.017361 0.638889
vt -0.017361 0.638889
vt -0.017361 0.736111
vt -0.038194 0.736111
vt -0.038194 0.638889
vt 0.017361 0.736111
vt 0.038194 0.017361
vt 0.038194 0.010417
vt 0.017361 0.017361
vt 0.010417 0.038194
vt 0.017361 0.038194
vt 0.038194 0.638889
vt 0.038194 0.736111
vt 0.010417 0.010417
vn 0 -1 0
vn 0 1 0
vn 1 0 0
vn -1 0 0
vn 0 0 -1
vn 0 0 1
vn 0 -0.01764400586599796 0.9998443324123013
vn 0 0.01764400586599796 -0.9998443324123013
vn -0.9998443324123013 -0.01764400586599774 0
vn 0.9998443324123013 0.01764400586599774 0
usemtl material_0_0
f 1/1/1 2/2/1 3/3/1
f 3/3/2 2/2/2 1/1/2
f 2/4/3 1/1/3 4/5/3
f 4/5/4 1/1/4 2/4/4
f 5/6/1 3/3/1 2/2/1
f 2/2/2 3/3/2 5/6/2
f 3/2/5 6/7/5 1/1/5
f 1/1/6 6/7/6 3/2/6
f 7/8/3 4/5/3 1/1/3
f 1/1/4 4/5/4 7/8/4
f 2/9/7 4/10/7 5/11/7
f 5/11/8 4/10/8 2/9/8
f 3/9/9 5/12/9 8/10/9
f 8/10/10 5/12/10 3/9/10
f 8/13/5 6/7/5 3/2/5
f 3/2/6 6/7/6 8/13/6
f 7/8/5 1/1/5 6/7/5
f 6/7/6 1/1/6 7/8/6
f 9/14/3 4/5/3 7/8/3
f 7/8/4 4/5/4 9/14/4
f 10/15/7 5/11/7 4/10/7
f 4/10/8 5/11/8 10/15/8
f 10/16/9 8/10/9 5/12/9
f 5/12/10 8/10/10 10/16/10
f 6/8/4 8/17/4 11/18/4
f 11/18/3 8/17/3 6/8/3
f 7/1/2 6/19/2 9/20/2
f 9/20/1 6/19/1 7/1/1
f 9/8/6 12/21/6 4/17/6
f 4/17/5 12/21/5 9/8/5
f 10/5/6 4/17/6 12/21/6
f 12/21/5 4/17/5 10/5/5
f 10/13/4 11/18/4 8/17/4
f 8/17/3 11/18/3 10/13/3
f 13/22/4 6/8/4 11/18/4
f 11/18/3 6/8/3 13/22/3
f 14/23/2 9/20/2 6/19/2
f 6/19/1 9/20/1 14/23/1
f 12/21/6 9/8/6 15/24/6
f 15/24/5 9/8/5 12/21/5
f 16/25/6 10/5/6 12/21/6
f 12/21/5 10/5/5 16/25/5
f 11/18/4 10/13/4 17/26/4
f 17/26/3 10/13/3 11/18/3
f 18/27/4 6/8/4 13/22/4
f 13/22/3 6/8/3 18/27/3
f 14/14/6 15/24/6 9/8/6
f 9/8/5 15/24/5 14/14/5
f 6/8/4 18/27/4 14/7/4
f 14/7/3 18/27/3 6/8/3
f 15/28/4 19/22/4 12/29/4
f 12/29/3 19/22/3 15/28/3
f 20/30/6 10/5/6 16/25/6
f 16/25/5 10/5/5 20/30/5
f 16/31/2 12/32/2 21/33/2
f 21/33/1 12/32/1 16/31/1
f 14/7/4 17/26/4 10/13/4
f 10/13/3 17/26/3 14/7/3
f 21/33/2 11/34/2 17/35/2
f 17/35/1 11/34/1 21/33/1
f 20/30/6 15/24/6 14/14/6
f 14/14/5 15/24/5 20/30/5
f 18/27/4 17/26/4 14/7/4
f 14/7/3 17/26/3 18/27/3
f 22/18/4 12/29/4 19/22/4
f 19/22/3 12/29/3 22/18/3
f 10/5/6 20/30/6 14/14/6
f 14/14/5 20/30/5 10/5/5
f 16/36/3 21/25/3 20/37/3
f 20/37/4 21/25/4 16/36/4
f 12/32/2 22/38/2 21/33/2
f 21/33/1 22/38/1 12/32/1
f 11/34/2 21/33/2 22/38/2
f 22/38/1 21/33/1 11/34/1
f 17/29/5 18/28/5 21/26/5
f 21/26/6 18/28/6 17/29/6
f 23/30/3 20/37/3 21/25/3
f 21/25/4 20/37/4 23/30/4
f 23/27/5 21/26/5 18/28/5
f 18/28/6 21/26/6 23/27/6
