# SSTK version 0.8.0
# 5
mtllib original-5.mtl
o Group6/mesh9/mesh9-geometry#mesh9-geometry
v -0.229974 0.073547 -0.040636
v 0.249225 0.031511 -0.040636
v -0.229974 0.031511 -0.040636
v 0.249225 0.073547 -0.040636
v 0.268834 0.031511 -0.040636
v -0.229974 0.035645 -0.011222
v -0.249583 0.082307 -0.040636
v 0.249225 0.069413 -0.011222
v -0.249583 0.031511 -0.040636
v 0.249225 0.035645 -0.011222
v -0.229974 0.069413 -0.011222
v -0.249583 0.073547 -0.040636
v 0.268834 0.073547 -0.040636
v 0.268834 0.022164 -0.040636
v 0.268834 0.035645 -0.011222
v -0.249583 0.069413 -0.011222
v -0.249583 0.035645 -0.011222
v -0.229974 0.082307 -0.040636
v 0.268834 0.069413 -0.011222
v -0.249583 0.022164 -0.040636
v 0.268834 0.086441 -0.011222
v -0.249583 0.022164 -0.011222
v -0.249583 0.086441 -0.011222
v -0.229974 0.086441 -0.011222
v 0.249225 0.082307 -0.040636
v 0.268834 0.022164 -0.011222
v 0.249225 0.086441 -0.011222
v -0.229974 0.124343 -0.040636
v 0.249225 0.124343 -0.040636
v 0.268834 0.082307 -0.040636
v -0.229974 0.120209 -0.011222
v 0.249225 0.120209 -0.011222
v -0.249583 0.120209 -0.011222
v 0.268834 0.124343 -0.040636
v 0.268834 0.120209 -0.011222
v -0.249583 0.124343 -0.040636
v -0.249583 0.133691 -0.011222
v 0.268834 0.133691 -0.011222
v -0.249583 0.133691 -0.040636
v 0.268834 0.133691 -0.040636
vt 0 0.036394
vt -0.33941 0.006621
vt 0 0.006621
vt -0.33941 0.036394
vt -0.353299 0.006621
vt 0.020833 0.009549
vt 0.013889 0.042599
vt -0.020833 0.033466
vt 0.013889 0.006621
vt -0.33941 0.021959
vt -0.353299 0.000921
vt -0.33941 0.000921
vt 0.020833 0.033466
vt 0.013889 0.000921
vt 0 0.021959
vt 0 0.000921
vt 0.013889 0.036394
vt -0.353299 0.036394
vt -0.020833 0.009549
vt -0.353299 0.005065
vt -0.33941 -0.015973
vt -0.33941 0.005065
vt -0.353299 0
vt -0.353299 0.021959
vt 0 0.009549
vt 0.33941 0.033466
vt 0 0.033466
vt 0.013889 -0.015973
vt 0 0.005065
vt 0 -0.015973
vt 0.013889 0.021959
vt 0.013889 0.005065
vt 0 0.042599
vt 0.33941 0.009549
vt -0.353299 -0.015973
vt 0.013889 0
vt 0 0
vt -0.013889 0.009549
vt 0.353299 0.009549
vt 0.353299 0.045527
vt -0.013889 0.033466
vt 0.020833 0
vt 0.020833 0.045527
vt 0.013889 0.005929
vt 0 0.026967
vt 0 0.005929
vt -0.33941 0.042599
vt -0.020833 0.045527
vt 0.353299 0.033466
vt 0.013889 -0.020833
vt -0.020833 0
vt -0.013889 0
vt 0.33941 0.045527
vt 0 0.045527
vt -0.013889 0.045527
vt 0.013889 0.026967
vt 0 0.072372
vt -0.33941 0.072372
vt -0.353299 0.042599
vt -0.353299 -0.020833
vt 0.353299 0
vt -0.353299 0.005929
vt -0.33941 0.026967
vt -0.353299 0.026967
vt 0.020833 0.069444
vt -0.020833 0.069444
vt -0.33941 0.005929
vt 0.33941 0.069444
vt 0 0.069444
vt 0.013889 -0.010966
vt 0 0.010072
vt 0 -0.010966
vt -0.353299 0.072372
vt -0.353299 0.010072
vt -0.33941 -0.010966
vt -0.33941 0.010072
vt 0.353299 0.069444
vt 0.013889 0.010072
vt -0.013889 0.069444
vt 0.013889 0.072372
vt -0.353299 -0.010966
vt 0.020833 0.078993
vt 0.353299 0.078993
vt 0.013889 0.078993
vt -0.020833 0.078993
vt 0 0.078993
vt -0.013889 0.078993
vt -0.353299 0.078993
vt 0.353299 -0.020833
vt -0.013889 -0.020833
vn 0 0 -1
vn 0 0 1
vn -1 0 0
vn 1 0 0
vn 0 0.990268081324284 -0.13917301142937502
vn 0 -0.990268081324284 0.13917301142937502
vn 0 -0.990268081324284 -0.13917301142937546
vn 0 0.990268081324284 0.13917301142937546
vn 0 -1 0
vn 0 1 0
usemtl material_0_0
f 1/1/1 2/2/1 3/3/1
f 2/2/1 1/1/1 4/4/1
f 3/3/2 2/2/2 1/1/2
f 4/4/2 1/1/2 2/2/2
f 5/5/1 3/3/1 2/2/1
f 2/2/2 3/3/2 5/5/2
f 6/6/3 1/1/3 3/3/3
f 3/3/4 1/1/4 6/6/4
f 1/1/1 7/7/1 4/4/1
f 4/4/2 7/7/2 1/1/2
f 8/8/4 2/3/4 4/1/4
f 4/1/3 2/3/3 8/8/3
f 5/5/1 9/9/1 3/3/1
f 3/3/2 9/9/2 5/5/2
f 10/10/5 5/11/5 2/12/5
f 2/12/6 5/11/6 10/10/6
f 1/1/3 6/6/3 11/13/3
f 11/13/4 6/6/4 1/1/4
f 9/14/5 6/15/5 3/16/5
f 3/16/6 6/15/6 9/14/6
f 7/7/1 1/1/1 12/17/1
f 12/17/2 1/1/2 7/7/2
f 4/4/1 7/7/1 13/18/1
f 13/18/2 7/7/2 4/4/2
f 2/3/4 8/8/4 10/19/4
f 10/19/3 8/8/3 2/3/3
f 13/20/7 8/21/7 4/22/7
f 4/22/8 8/21/8 13/20/8
f 14/23/1 9/9/1 5/5/1
f 5/5/2 9/9/2 14/23/2
f 5/11/5 10/10/5 15/24/5
f 15/24/6 10/10/6 5/11/6
f 6/25/2 8/26/2 11/27/2
f 11/27/1 8/26/1 6/25/1
f 16/28/7 1/29/7 11/30/7
f 11/30/8 1/29/8 16/28/8
f 6/15/5 9/14/5 17/31/5
f 17/31/6 9/14/6 6/15/6
f 1/29/7 16/28/7 12/32/7
f 12/32/8 16/28/8 1/29/8
f 16/13/3 7/33/3 12/1/3
f 12/1/4 7/33/4 16/13/4
f 13/18/1 7/7/1 18/33/1
f 18/33/2 7/7/2 13/18/2
f 8/26/2 6/25/2 10/34/2
f 10/34/1 6/25/1 8/26/1
f 8/21/7 13/20/7 19/35/7
f 19/35/8 13/20/8 8/21/8
f 9/9/1 14/23/1 20/36/1
f 20/36/2 14/23/2 9/9/2
f 15/19/4 14/37/4 5/3/4
f 5/3/3 14/37/3 15/19/3
f 17/38/2 15/39/2 10/34/2
f 10/34/1 15/39/1 17/38/1
f 8/26/2 21/40/2 11/27/2
f 11/27/1 21/40/1 8/26/1
f 11/27/2 21/40/2 16/41/2
f 16/41/1 21/40/1 11/27/1
f 9/3/3 22/42/3 17/6/3
f 17/6/4 22/42/4 9/3/4
f 17/38/2 10/34/2 6/25/2
f 6/25/1 10/34/1 17/38/1
f 7/33/3 16/13/3 23/43/3
f 23/43/4 16/13/4 7/33/4
f 7/44/5 24/45/5 18/46/5
f 18/46/6 24/45/6 7/44/6
f 13/18/1 18/33/1 25/47/1
f 25/47/2 18/33/2 13/18/2
f 13/1/4 21/48/4 19/8/4
f 19/8/3 21/48/3 13/1/3
f 21/40/2 8/26/2 19/49/2
f 19/49/1 8/26/1 21/40/1
f 14/23/9 22/50/9 20/36/9
f 20/36/10 22/50/10 14/23/10
f 22/42/3 9/3/3 20/37/3
f 20/37/4 9/3/4 22/42/4
f 14/37/4 15/19/4 26/51/4
f 26/51/3 15/19/3 14/37/3
f 22/52/2 15/39/2 17/38/2
f 17/38/1 15/39/1 22/52/1
f 16/41/2 21/40/2 27/53/2
f 27/53/1 21/40/1 16/41/1
f 16/41/2 24/54/2 23/55/2
f 23/55/1 24/54/1 16/41/1
f 24/45/5 7/44/5 23/56/5
f 23/56/6 7/44/6 24/45/6
f 24/43/3 28/57/3 18/33/3
f 18/33/4 28/57/4 24/43/4
f 18/33/1 29/58/1 25/47/1
f 25/47/2 29/58/2 18/33/2
f 30/59/1 13/18/1 25/47/1
f 25/47/2 13/18/2 30/59/2
f 21/48/4 13/1/4 30/33/4
f 30/33/3 13/1/3 21/48/3
f 22/50/9 14/23/9 26/60/9
f 26/60/10 14/23/10 22/50/10
f 15/39/2 22/52/2 26/61/2
f 26/61/1 22/52/1 15/39/1
f 30/62/5 27/63/5 21/64/5
f 21/64/6 27/63/6 30/62/6
f 24/54/2 16/41/2 27/53/2
f 27/53/1 16/41/1 24/54/1
f 28/57/3 24/43/3 31/65/3
f 31/65/4 24/43/4 28/57/4
f 29/58/1 18/33/1 28/57/1
f 28/57/2 18/33/2 29/58/2
f 32/66/4 25/33/4 29/57/4
f 29/57/3 25/33/3 32/66/3
f 27/63/5 30/62/5 25/67/5
f 25/67/6 30/62/6 27/63/6
f 32/68/2 24/54/2 27/53/2
f 27/53/1 24/54/1 32/68/1
f 24/54/2 32/68/2 31/69/2
f 31/69/1 32/68/1 24/54/1
f 33/70/7 28/71/7 31/72/7
f 31/72/8 28/71/8 33/70/8
f 29/58/1 28/57/1 34/73/1
f 34/73/2 28/57/2 29/58/2
f 25/33/4 32/66/4 27/48/4
f 27/48/3 32/66/3 25/33/3
f 34/74/7 32/75/7 29/76/7
f 29/76/8 32/75/8 34/74/8
f 31/69/2 32/68/2 35/77/2
f 35/77/1 32/68/1 31/69/1
f 28/71/7 33/70/7 36/78/7
f 36/78/8 33/70/8 28/71/8
f 31/69/2 35/77/2 33/79/2
f 33/79/1 35/77/1 31/69/1
f 34/73/1 28/57/1 36/80/1
f 36/80/2 28/57/2 34/73/2
f 32/75/7 34/74/7 35/81/7
f 35/81/8 34/74/8 32/75/8
f 37/82/3 36/57/3 33/65/3
f 33/65/4 36/57/4 37/82/4
f 33/79/2 35/77/2 38/83/2
f 38/83/1 35/77/1 33/79/1
f 34/73/1 36/80/1 39/84/1
f 39/84/2 36/80/2 34/73/2
f 34/57/4 38/85/4 35/66/4
f 35/66/3 38/85/3 34/57/3
f 36/57/3 37/82/3 39/86/3
f 39/86/4 37/82/4 36/57/4
f 33/79/2 38/83/2 37/87/2
f 37/87/1 38/83/1 33/79/1
f 34/73/1 39/84/1 40/88/1
f 40/88/2 39/84/2 34/73/2
f 38/85/4 34/57/4 40/86/4
f 40/86/3 34/57/3 38/85/3
f 38/89/10 39/52/10 37/90/10
f 37/90/9 39/52/9 38/89/9
f 39/52/10 38/89/10 40/61/10
f 40/61/9 38/89/9 39/52/9
