# SSTK version 0.8.0
# 17
mtllib original-17.mtl
o Group18/mesh34/mesh34-geometry#mesh34-geometry
v 0.323372 -0.914172 0.160358
v 0.323372 -0.914172 0.199576
v 0.284153 -0.914172 0.160358
v 0.323372 0.154525 0.145651
v 0.284153 -0.914172 0.199576
v 0.323372 -0.080784 0.145651
v 0.323372 0.154525 0.199576
v 0.269446 -0.080784 0.199576
v 0.269446 -0.080784 0.145651
v 0.308665 -0.012152 0.145651
v 0.308665 0.154525 0.194674
v 0.308665 0.125112 0.145651
v 0.269446 0.154525 0.199576
v 0.308665 0.154525 0.165260
v 0.269446 -0.017054 0.189772
v 0.298860 -0.012152 0.145651
v 0.298860 0.125112 0.145651
v 0.308665 -0.007250 0.165260
v 0.269446 0.154525 0.145651
v 0.308665 0.139819 0.165260
v 0.269446 0.154525 0.189858
v 0.269446 -0.017054 0.165260
v 0.298860 -0.012152 0.184869
v 0.308665 0.125112 0.184869
v 0.308665 -0.012152 0.165260
v 0.269446 0.139819 0.189858
v 0.269446 0.154525 0.170076
v 0.308665 0.139819 0.194674
v 0.269446 -0.007250 0.165260
v 0.308665 -0.017054 0.165260
v 0.298860 0.125112 0.184869
v 0.308665 -0.007250 0.184869
v 0.269446 -0.007250 0.189772
v 0.269446 0.139819 0.170076
v 0.308665 -0.017054 0.189772
v 0.308665 -0.012152 0.184869
v 0.308665 -0.007250 0.189772
vt 0 0.027778
vt 0 0
vt -0.027778 0.027778
vt -0.027778 0
vt -0.038194 0.756944
vt 0 0.00049
vt -0.027778 0.00049
vt 0 0.59086
vt -0.038194 0.590278
vt 0 0.756944
vt 0.027778 0.00049
vt 0.027778 0
vt 0.038194 0.590278
vt -0.038194 0.59086
vt 0 0.590278
vt -0.010417 0.638889
vt 0 0.038194
vt 0.010417 0.003472
vt 0.038194 0.59086
vt -0.010417 0.736111
vt 0.038194 0.756944
vt 0.010417 0.024306
vt 0.038194 0
vt 0.006944 0.635417
vt -0.017361 0.638889
vt -0.017361 0.736111
vt 0.038194 0.638889
vt 0.024306 0.642361
vt 0.038194 0.736111
vt 0.038194 0.038194
vt 0.024306 0.756944
vt 0.024306 0.746528
vt 0.003472 0.756944
vt 0.038194 0.006883
vt 0.024306 0.635417
vt 0.017361 0.038194
vt 0.017361 0.010417
vt 0.010417 0.038194
vt -0.010417 0.038194
vt -0.010417 0.010417
vt -0.017361 0.038194
vt 0.024306 0.638889
vt 0.010417 0.736111
vt 0.006883 0.746528
vt 0.038194 0.020895
vt 0.007377 0.756944
vt 0.035363 0.756944
vt 0.007377 0.746528
vt 0.003472 0.746528
vt 0.006883 0.756944
vt -0.038749 0.756944
vt -0.010762 0.756944
vt -0.038749 0.746528
vt 0.038194 0.024306
vt 0.038194 0.006944
vt -0.038194 0.638889
vt -0.038194 0.736111
vt -0.017361 0.010417
vt 0.010417 0.642361
vt 0.038194 0.642361
vt 0.010417 0.638889
vt 0.006944 0.642361
vt 0.020895 0.756944
vt 0.035363 0.746528
vt -0.010762 0.746528
vt 0.038194 0.635417
vt 0.010417 0.635417
vt 0.010417 0.006944
vt 0.010417 0.010417
vt -0.010417 0.642361
vt -0.010417 0.024306
vt -0.038194 0.024306
vt 0.020895 0.746528
vt -0.038194 0.642361
vt -0.038194 0.635417
vt -0.010417 0.635417
vt -0.010417 0.006944
vt -0.038194 0.006944
vn 0 -1 0
vn 0 1 0
vn 1 0 0
vn -1 0 0
vn 0 -0.017644005865997518 -0.9998443324123013
vn 0 0.017644005865997518 0.9998443324123013
vn -0.9998443324123013 -0.01764400586599774 0
vn 0.9998443324123013 0.01764400586599774 0
vn 0 0 1
vn 0 0 -1
vn 0.12186902344291042 0 0.9925461909276926
vn -0.12186902344291042 0 -0.9925461909276926
vn 0.12186902344291042 0 -0.9925461909276926
vn -0.12186902344291042 0 0.9925461909276926
usemtl material_0_0
f 1/1/1 2/2/1 3/3/1
f 3/3/2 2/2/2 1/1/2
f 1/4/3 4/5/3 2/2/3
f 2/2/4 4/5/4 1/4/4
f 5/4/1 3/3/1 2/2/1
f 2/2/2 3/3/2 5/4/2
f 1/6/5 3/7/5 6/8/5
f 6/8/6 3/7/6 1/6/6
f 6/9/3 4/5/3 1/4/3
f 1/4/4 4/5/4 6/9/4
f 7/10/3 2/2/3 4/5/3
f 4/5/4 2/2/4 7/10/4
f 5/6/7 8/8/7 3/11/7
f 3/11/8 8/8/8 5/6/8
f 5/12/9 2/2/9 8/13/9
f 8/13/10 2/2/10 5/12/10
f 9/14/5 6/8/5 3/7/5
f 3/7/6 6/8/6 9/14/6
f 4/10/10 6/15/10 10/16/10
f 10/16/9 6/15/9 4/10/9
f 7/10/9 8/13/9 2/2/9
f 2/2/10 8/13/10 7/10/10
f 4/17/2 11/18/2 7/2/2
f 7/2/1 11/18/1 4/17/1
f 9/19/7 3/11/7 8/8/7
f 8/8/8 3/11/8 9/19/8
f 9/9/10 10/16/10 6/15/10
f 6/15/9 10/16/9 9/9/9
f 12/20/10 4/10/10 10/16/10
f 10/16/9 4/10/9 12/20/9
f 13/21/9 8/13/9 7/10/9
f 7/10/10 8/13/10 13/21/10
f 11/18/2 4/17/2 14/22/2
f 14/22/1 4/17/1 11/18/1
f 13/23/2 7/2/2 11/18/2
f 11/18/1 7/2/1 13/23/1
f 9/13/4 8/15/4 15/24/4
f 15/24/3 8/15/3 9/13/3
f 10/16/10 9/9/10 16/25/10
f 16/25/9 9/9/9 10/16/9
f 17/26/10 4/10/10 12/20/10
f 12/20/9 4/10/9 17/26/9
f 10/27/4 18/28/4 12/29/4
f 12/29/3 18/28/3 10/27/3
f 13/10/4 15/24/4 8/15/4
f 8/15/3 15/24/3 13/10/3
f 19/30/2 14/22/2 4/17/2
f 4/17/1 14/22/1 19/30/1
f 14/31/4 20/32/4 11/33/4
f 11/33/3 20/32/3 14/31/3
f 21/34/2 13/23/2 11/18/2
f 11/18/1 13/23/1 21/34/1
f 22/35/4 9/13/4 15/24/4
f 15/24/3 9/13/3 22/35/3
f 19/5/10 16/25/10 9/9/10
f 9/9/9 16/25/9 19/5/9
f 16/36/2 23/37/2 10/38/2
f 10/38/1 23/37/1 16/36/1
f 4/10/10 17/26/10 19/5/10
f 19/5/9 17/26/9 4/10/9
f 12/39/1 24/40/1 17/41/1
f 17/41/2 24/40/2 12/39/2
f 25/42/4 18/28/4 10/27/4
f 10/27/3 18/28/3 25/42/3
f 12/29/4 18/28/4 24/43/4
f 24/43/3 18/28/3 12/29/3
f 26/44/4 15/24/4 13/10/4
f 13/10/3 15/24/3 26/44/3
f 27/45/2 14/22/2 19/30/2
f 19/30/1 14/22/1 27/45/1
f 14/46/11 27/47/11 20/48/11
f 20/48/12 27/47/12 14/46/12
f 28/49/4 11/33/4 20/32/4
f 20/32/3 11/33/3 28/49/3
f 26/44/4 13/10/4 21/50/4
f 21/50/3 13/10/3 26/44/3
f 21/51/13 11/52/13 26/53/13
f 26/53/14 11/52/14 21/51/14
f 29/28/4 9/13/4 22/35/4
f 22/35/3 9/13/3 29/28/3
f 22/54/2 15/55/2 30/22/2
f 30/22/1 15/55/1 22/54/1
f 17/26/10 16/25/10 19/5/10
f 19/5/9 16/25/9 17/26/9
f 9/13/4 29/28/4 19/21/4
f 19/21/3 29/28/3 9/13/3
f 16/56/3 17/57/3 23/16/3
f 23/16/4 17/57/4 16/56/4
f 10/38/2 23/37/2 25/22/2
f 25/22/1 23/37/1 10/38/1
f 31/58/1 17/41/1 24/40/1
f 24/40/2 17/41/2 31/58/2
f 18/28/4 25/42/4 32/59/4
f 32/59/3 25/42/3 18/28/3
f 18/59/9 29/60/9 25/61/9
f 25/61/10 29/60/10 18/59/10
f 32/59/4 24/43/4 18/28/4
f 18/28/3 24/43/3 32/59/3
f 15/24/4 26/44/4 33/62/4
f 33/62/3 26/44/3 15/24/3
f 19/21/4 29/28/4 27/63/4
f 27/63/3 29/28/3 19/21/3
f 34/64/11 20/48/11 27/47/11
f 27/47/12 20/48/12 34/64/12
f 28/65/13 26/53/13 11/52/13
f 11/52/14 26/53/14 28/65/14
f 28/18/2 20/22/2 26/34/2
f 26/34/1 20/22/1 28/18/1
f 22/66/9 30/67/9 29/60/9
f 29/60/10 30/67/10 22/66/10
f 35/68/2 30/22/2 15/55/2
f 15/55/1 30/22/1 35/68/1
f 31/20/3 23/16/3 17/57/3
f 17/57/4 23/16/4 31/20/4
f 36/69/2 25/22/2 23/37/2
f 23/37/1 25/22/1 36/69/1
f 24/20/10 32/70/10 31/26/10
f 31/26/9 32/70/9 24/20/9
f 36/61/4 32/59/4 25/42/4
f 25/42/3 32/59/3 36/61/3
f 18/71/1 32/40/1 29/72/1
f 29/72/2 32/40/2 18/71/2
f 25/61/9 29/60/9 30/67/9
f 30/67/10 29/60/10 25/61/10
f 34/73/4 33/62/4 26/44/4
f 26/44/3 33/62/3 34/73/3
f 33/74/10 37/70/10 15/75/10
f 15/75/9 37/70/9 33/74/9
f 27/63/4 29/28/4 34/73/4
f 34/73/3 29/28/3 27/63/3
f 34/45/2 26/34/2 20/22/2
f 20/22/1 26/34/1 34/45/1
f 30/35/4 35/24/4 36/61/4
f 36/61/3 35/24/3 30/35/3
f 35/76/10 15/75/10 37/70/10
f 37/70/9 15/75/9 35/76/9
f 31/26/10 32/70/10 23/25/10
f 23/25/9 32/70/9 31/26/9
f 25/42/4 30/35/4 36/61/4
f 36/61/3 30/35/3 25/42/3
f 36/16/10 23/25/10 32/70/10
f 32/70/9 23/25/9 36/16/9
f 36/61/4 37/62/4 32/59/4
f 32/59/3 37/62/3 36/61/3
f 37/77/1 29/72/1 32/40/1
f 32/40/2 29/72/2 37/77/2
f 29/28/4 33/62/4 34/73/4
f 34/73/3 33/62/3 29/28/3
f 33/78/1 29/72/1 37/77/1
f 37/77/2 29/72/2 33/78/2
f 37/62/4 36/61/4 35/24/4
f 35/24/3 36/61/3 37/62/3
