# SSTK version 0.8.0
# 37
mtllib original-37.mtl
o mesh8/mesh8-geometry/material_4/component_0#mesh8-geometry
v 0.048232 -0.466460 0.836816
v 0.045204 -0.466460 0.848118
v 0.048232 -0.431358 0.836816
v 0.048232 -0.466460 0.836816
v 0.025629 -0.466460 0.830759
v 0.045204 -0.466460 0.848118
v 0.045204 -0.431358 0.848118
v 0.048232 -0.431358 0.836816
v 0.045204 -0.466460 0.848118
v 0.022600 -0.466460 0.842061
v 0.045204 -0.466460 0.848118
v 0.025629 -0.466460 0.830759
v 0.045204 -0.431358 0.848118
v 0.022600 -0.431358 0.842061
v 0.048232 -0.431358 0.836816
v 0.045204 -0.431358 0.848118
v 0.045204 -0.466460 0.848118
v 0.022600 -0.431358 0.842061
v 0.022600 -0.466460 0.842061
v 0.022600 -0.431358 0.842061
v 0.045204 -0.466460 0.848118
v 0.022600 -0.466460 0.842061
v 0.025629 -0.466460 0.830759
v 0.022600 -0.431358 0.842061
v 0.025629 -0.431358 0.830759
v 0.022600 -0.431358 0.842061
v 0.025629 -0.466460 0.830759
v 0.025629 -0.431358 0.830759
v 0.048232 -0.431358 0.836816
v 0.022600 -0.431358 0.842061
v 0.048232 -0.431358 0.836816
v 0.045204 -0.466460 0.848118
v 0.048232 -0.466460 0.836816
v 0.045204 -0.466460 0.848118
v 0.025629 -0.466460 0.830759
v 0.048232 -0.466460 0.836816
v 0.045204 -0.466460 0.848118
v 0.048232 -0.431358 0.836816
v 0.045204 -0.431358 0.848118
v 0.025629 -0.466460 0.830759
v 0.045204 -0.466460 0.848118
v 0.022600 -0.466460 0.842061
v 0.048232 -0.431358 0.836816
v 0.022600 -0.431358 0.842061
v 0.045204 -0.431358 0.848118
v 0.022600 -0.431358 0.842061
v 0.045204 -0.466460 0.848118
v 0.045204 -0.431358 0.848118
v 0.045204 -0.466460 0.848118
v 0.022600 -0.431358 0.842061
v 0.022600 -0.466460 0.842061
v 0.022600 -0.431358 0.842061
v 0.025629 -0.466460 0.830759
v 0.022600 -0.466460 0.842061
v 0.025629 -0.466460 0.830759
v 0.022600 -0.431358 0.842061
v 0.025629 -0.431358 0.830759
v 0.022600 -0.431358 0.842061
v 0.048232 -0.431358 0.836816
v 0.025629 -0.431358 0.830759
vt 0 0
vt 0.014581999741494656 0.05906800180673599
vt 0.007290999870747328 0.037195999175310135
vt 0.014581999741494656 0.037195999175310135
vt -0.007290999870747328 -0.026799000799655914
vt -0.014581999741494656 -0.012218000367283821
vt -0.014581999741494656 -0.026799000799655914
vt 0.007290999870747328 0.05906800180673599
vt -0.007290999870747328 -0.012218000367283821
vt 0.014581999741494656 -0.026799000799655914
vt 0.007290999870747328 -0.012218000367283821
vt 0.007290999870747328 -0.026799000799655914
vt 0.012218000367283821 0.05906800180673599
vt 0.026799000799655914 0.037195999175310135
vt 0.026799000799655914 0.05906800180673599
vt 0.012218000367283821 0.037195999175310135
vt -0.007290999870747328 0.05906800180673599
vt -0.014581999741494656 0.037195999175310135
vt -0.007290999870747328 0.037195999175310135
vt -0.014581999741494656 0.05906800180673599
vt 0.014581999741494656 -0.012218000367283821
vn -0.408248047798009 0.5773500776849921 -0.7071070776524924
vn -0.408248047798009 -0.5773500776849919 -0.7071070776524926
vn 0.7071070776524925 0.5773500776849921 -0.4082480477980089
vn 0.7071070776524925 -0.5773500776849919 -0.4082480477980091
vn 0.408248047798009 0.5773500776849919 0.7071070776524926
vn 0.408248047798009 -0.5773500776849921 0.7071070776524924
vn -0.7071070776524925 -0.5773500776849921 0.4082480477980089
vn -0.7071070776524925 0.5773500776849919 0.4082480477980091
usemtl material_0_0
f 1/1/1 2/1/1 3/1/2
f 4/1/1 5/1/3 6/1/1
f 7/1/2 8/1/2 9/1/1
f 10/1/3 11/1/1 12/1/3
f 13/1/2 14/1/4 15/1/2
f 16/1/2 17/1/1 18/1/4
f 19/1/3 20/1/4 21/1/1
f 22/1/3 23/1/3 24/1/4
f 25/1/4 26/1/4 27/1/3
f 28/1/4 29/1/2 30/1/4
usemtl material_1_0
f 31/2/5 32/3/6 33/4/6
f 34/5/6 35/6/7 36/7/6
f 37/3/6 38/2/5 39/8/5
f 40/6/7 41/5/6 42/9/7
f 43/10/5 44/11/8 45/12/5
f 46/13/8 47/14/6 48/15/5
f 49/14/6 50/13/8 51/16/7
f 52/17/8 53/18/7 54/19/7
f 55/18/7 56/17/8 57/20/8
f 58/11/8 59/10/5 60/21/8
