# SSTK version 0.8.0
# 16
mtllib original-16.mtl
o mesh8/mesh8-geometry/material_0#mesh8-geometry
v 0.231161 -0.526154 0.304396
v 0.242462 0.526891 0.307425
v 0.242462 -0.526154 0.307425
v 0.242462 0.526891 0.307425
v 0.231161 -0.526154 0.304396
v 0.231161 0.526891 0.304396
v 0.187915 0.013839 0.510999
v 0.242462 -0.526154 0.307425
v 0.242462 0.526891 0.307425
v 0.091047 -0.526154 0.872515
v 0.231161 -0.526154 0.304396
v 0.242462 -0.526154 0.307425
v 0.079745 0.526891 0.869487
v 0.242462 0.526891 0.307425
v 0.231161 0.526891 0.304396
v 0.187310 0.008195 0.513257
v 0.242462 -0.526154 0.307425
v 0.187915 0.013839 0.510999
v 0.187915 0.013839 0.510999
v 0.242462 0.526891 0.307425
v 0.188122 0.019896 0.510228
v 0.231161 -0.526154 0.304396
v 0.091047 -0.526154 0.872515
v 0.079745 -0.526154 0.869487
v 0.242462 -0.526154 0.307425
v 0.187310 0.008195 0.513257
v 0.091047 -0.526154 0.872515
v 0.242462 0.526891 0.307425
v 0.079745 0.526891 0.869487
v 0.091047 0.526891 0.872515
v 0.188122 0.019896 0.510228
v 0.242462 0.526891 0.307425
v 0.187915 0.025953 0.510999
v 0.091047 -0.526154 0.872515
v 0.079745 0.526891 0.869487
v 0.079745 -0.526154 0.869487
v 0.091047 -0.526154 0.872515
v 0.187310 0.008195 0.513257
v 0.186348 0.003349 0.516849
v 0.079745 0.526891 0.869487
v 0.091047 -0.526154 0.872515
v 0.091047 0.526891 0.872515
v 0.091047 0.526891 0.872515
v 0.127943 0.049955 0.734820
v 0.242462 0.526891 0.307425
v 0.187915 0.025953 0.510999
v 0.242462 0.526891 0.307425
v 0.187310 0.031596 0.513257
v 0.091047 -0.526154 0.872515
v 0.186348 0.003349 0.516849
v 0.185092 -0.000370 0.521531
v 0.091047 -0.526154 0.872515
v 0.127943 -0.009283 0.734820
v 0.091047 0.526891 0.872515
v 0.091047 0.526891 0.872515
v 0.127943 -0.009283 0.734820
v 0.127943 0.049955 0.734820
v 0.134964 0.049955 0.708613
v 0.242462 0.526891 0.307425
v 0.127943 0.049955 0.734820
v 0.187310 0.031596 0.513257
v 0.242462 0.526891 0.307425
v 0.186348 0.036442 0.516849
v 0.091047 -0.526154 0.872515
v 0.185092 -0.000370 0.521531
v 0.183632 -0.002708 0.526982
v 0.127943 -0.009283 0.734820
v 0.091047 -0.526154 0.872515
v 0.134964 -0.009283 0.708613
v 0.182064 0.043296 0.532832
v 0.242462 0.526891 0.307425
v 0.134964 0.049955 0.708613
v 0.186348 0.036442 0.516849
v 0.242462 0.526891 0.307425
v 0.185092 0.040162 0.521531
v 0.091047 -0.526154 0.872515
v 0.183632 -0.002708 0.526982
v 0.182064 -0.003505 0.532832
v 0.091047 -0.526154 0.872515
v 0.182064 -0.003505 0.532832
v 0.134964 -0.009283 0.708613
v 0.183632 0.042500 0.526982
v 0.242462 0.526891 0.307425
v 0.182064 0.043296 0.532832
v 0.134964 0.049955 0.708613
v 0.180498 0.042500 0.538682
v 0.182064 0.043296 0.532832
v 0.185092 0.040162 0.521531
v 0.242462 0.526891 0.307425
v 0.183632 0.042500 0.526982
v 0.180498 -0.002708 0.538682
v 0.134964 -0.009283 0.708613
v 0.182064 -0.003505 0.532832
v 0.134964 0.049955 0.708613
v 0.179036 0.040162 0.544134
v 0.180498 0.042500 0.538682
v 0.134964 -0.009283 0.708613
v 0.180498 -0.002708 0.538682
v 0.134964 0.049955 0.708613
v 0.134964 0.049955 0.708613
v 0.177782 0.036442 0.548815
v 0.179036 0.040162 0.544134
v 0.134964 0.049955 0.708613
v 0.180498 -0.002708 0.538682
v 0.179036 -0.000370 0.544134
v 0.134964 0.049955 0.708613
v 0.176819 0.031596 0.552407
v 0.177782 0.036442 0.548815
v 0.134964 0.049955 0.708613
v 0.179036 -0.000370 0.544134
v 0.177782 0.003349 0.548815
v 0.134964 0.049955 0.708613
v 0.176214 0.025953 0.554665
v 0.176819 0.031596 0.552407
v 0.134964 0.049955 0.708613
v 0.177782 0.003349 0.548815
v 0.176819 0.008195 0.552407
v 0.134964 0.049955 0.708613
v 0.176819 0.008195 0.552407
v 0.176214 0.013839 0.554665
v 0.134964 0.049955 0.708613
v 0.176008 0.019896 0.555435
v 0.176214 0.025953 0.554665
v 0.134964 0.049955 0.708613
v 0.176214 0.013839 0.554665
v 0.176008 0.019896 0.555435
v 0.242462 -0.526154 0.307425
v 0.242462 0.526891 0.307425
v 0.231161 -0.526154 0.304396
v 0.231161 0.526891 0.304396
v 0.231161 -0.526154 0.304396
v 0.242462 0.526891 0.307425
v 0.242462 0.526891 0.307425
v 0.242462 -0.526154 0.307425
v 0.187915 0.013839 0.510999
v 0.242462 -0.526154 0.307425
v 0.231161 -0.526154 0.304396
v 0.091047 -0.526154 0.872515
v 0.231161 0.526891 0.304396
v 0.242462 0.526891 0.307425
v 0.079745 0.526891 0.869487
v 0.187915 0.013839 0.510999
v 0.242462 -0.526154 0.307425
v 0.187310 0.008195 0.513257
v 0.188122 0.019896 0.510228
v 0.242462 0.526891 0.307425
v 0.187915 0.013839 0.510999
v 0.079745 -0.526154 0.869487
v 0.091047 -0.526154 0.872515
v 0.231161 -0.526154 0.304396
v 0.091047 -0.526154 0.872515
v 0.187310 0.008195 0.513257
v 0.242462 -0.526154 0.307425
v 0.091047 0.526891 0.872515
v 0.079745 0.526891 0.869487
v 0.242462 0.526891 0.307425
v 0.187915 0.025953 0.510999
v 0.242462 0.526891 0.307425
v 0.188122 0.019896 0.510228
v 0.079745 -0.526154 0.869487
v 0.079745 0.526891 0.869487
v 0.091047 -0.526154 0.872515
v 0.186348 0.003349 0.516849
v 0.187310 0.008195 0.513257
v 0.091047 -0.526154 0.872515
v 0.091047 0.526891 0.872515
v 0.091047 -0.526154 0.872515
v 0.079745 0.526891 0.869487
v 0.242462 0.526891 0.307425
v 0.127943 0.049955 0.734820
v 0.091047 0.526891 0.872515
v 0.187310 0.031596 0.513257
v 0.242462 0.526891 0.307425
v 0.187915 0.025953 0.510999
v 0.185092 -0.000370 0.521531
v 0.186348 0.003349 0.516849
v 0.091047 -0.526154 0.872515
v 0.091047 0.526891 0.872515
v 0.127943 -0.009283 0.734820
v 0.091047 -0.526154 0.872515
v 0.127943 0.049955 0.734820
v 0.127943 -0.009283 0.734820
v 0.091047 0.526891 0.872515
v 0.127943 0.049955 0.734820
v 0.242462 0.526891 0.307425
v 0.134964 0.049955 0.708613
v 0.186348 0.036442 0.516849
v 0.242462 0.526891 0.307425
v 0.187310 0.031596 0.513257
v 0.183632 -0.002708 0.526982
v 0.185092 -0.000370 0.521531
v 0.091047 -0.526154 0.872515
v 0.134964 -0.009283 0.708613
v 0.091047 -0.526154 0.872515
v 0.127943 -0.009283 0.734820
v 0.134964 0.049955 0.708613
v 0.242462 0.526891 0.307425
v 0.182064 0.043296 0.532832
v 0.185092 0.040162 0.521531
v 0.242462 0.526891 0.307425
v 0.186348 0.036442 0.516849
v 0.182064 -0.003505 0.532832
v 0.183632 -0.002708 0.526982
v 0.091047 -0.526154 0.872515
v 0.134964 -0.009283 0.708613
v 0.182064 -0.003505 0.532832
v 0.091047 -0.526154 0.872515
v 0.182064 0.043296 0.532832
v 0.242462 0.526891 0.307425
v 0.183632 0.042500 0.526982
v 0.182064 0.043296 0.532832
v 0.180498 0.042500 0.538682
v 0.134964 0.049955 0.708613
v 0.183632 0.042500 0.526982
v 0.242462 0.526891 0.307425
v 0.185092 0.040162 0.521531
v 0.182064 -0.003505 0.532832
v 0.134964 -0.009283 0.708613
v 0.180498 -0.002708 0.538682
v 0.180498 0.042500 0.538682
v 0.179036 0.040162 0.544134
v 0.134964 0.049955 0.708613
v 0.134964 0.049955 0.708613
v 0.180498 -0.002708 0.538682
v 0.134964 -0.009283 0.708613
v 0.179036 0.040162 0.544134
v 0.177782 0.036442 0.548815
v 0.134964 0.049955 0.708613
v 0.179036 -0.000370 0.544134
v 0.180498 -0.002708 0.538682
v 0.134964 0.049955 0.708613
v 0.177782 0.036442 0.548815
v 0.176819 0.031596 0.552407
v 0.134964 0.049955 0.708613
v 0.177782 0.003349 0.548815
v 0.179036 -0.000370 0.544134
v 0.134964 0.049955 0.708613
v 0.176819 0.031596 0.552407
v 0.176214 0.025953 0.554665
v 0.134964 0.049955 0.708613
v 0.176819 0.008195 0.552407
v 0.177782 0.003349 0.548815
v 0.134964 0.049955 0.708613
v 0.176214 0.013839 0.554665
v 0.176819 0.008195 0.552407
v 0.134964 0.049955 0.708613
v 0.176214 0.025953 0.554665
v 0.176008 0.019896 0.555435
v 0.134964 0.049955 0.708613
v 0.176008 0.019896 0.555435
v 0.176214 0.013839 0.554665
v 0.134964 0.049955 0.708613
vt -0.07000000029802322 0
vt -0.07999999821186066 0.8999999761581421
vt -0.07999999821186066 0
vt -0.07000000029802322 0.8999999761581421
vt 0.31987500190734863 0.4615130126476288
vt 0.5 0
vt 0.5 0.8999999761581421
vt 0 -0.07999999821186066
vt -0.5 -0.07000000029802322
vt -0.5 -0.07999999821186066
vt 0 -0.07000000029802322
vt 0.5 -0.07999999821186066
vt 0.5 -0.07000000029802322
vt 0.31787699460983276 0.4566890001296997
vt 0.32055601477622986 0.46668899059295654
vt 0 0
vt 0.31987500190734863 0.47186601161956787
vt 0.07999999821186066 0
vt 0.07000000029802322 0.8999999761581421
vt 0.07000000029802322 0
vt 0.3146980106830597 0.45254701375961304
vt 0.07999999821186066 0.8999999761581421
vt 0 0.8999999761581421
vt 0.12183400243520737 0.4923799932003021
vt 0.31787699460983276 0.47668901085853577
vt 0.31055599451065063 0.44936901330947876
vt 0.12183400243520737 0.44175100326538086
vt 0.14502300322055817 0.4923799932003021
vt 0.3146980106830597 0.48083099722862244
vt 0.30573299527168274 0.4473710060119629
vt 0.14502300322055817 0.44175100326538086
vt 0.3005560040473938 0.4866890013217926
vt 0.31055599451065063 0.4840100109577179
vt 0.3005560040473938 0.44668900966644287
vt 0.30573299527168274 0.4860079884529114
vt 0.29537999629974365 0.4860079884529114
vt 0.29537999629974365 0.4473710060119629
vt 0.29055601358413696 0.4840100109577179
vt 0.2864139974117279 0.48083099722862244
vt 0.29055601358413696 0.44936901330947876
vt 0.28323599696159363 0.47668901085853577
vt 0.2864139974117279 0.45254701375961304
vt 0.28123798966407776 0.47186601161956787
vt 0.28323599696159363 0.4566890001296997
vt 0.28123798966407776 0.4615130126476288
vt 0.28055599331855774 0.46668899059295654
vn -0.408248047798009 -0.5773500776849919 -0.7071070776524926
vn 0.7071070776524925 0.5773500776849921 -0.4082480477980089
vn 0.7071070776524925 -0.5773500776849919 -0.4082480477980091
vn -0.408248047798009 0.5773500776849921 -0.7071070776524924
vn 0.9659258451755842 0 0.25881897461707376
vn 0.408248047798009 -0.5773500776849921 0.7071070776524924
vn -0.7071070776524925 0.5773500776849919 0.4082480477980091
vn -0.7071070776524925 -0.5773500776849921 0.4082480477980089
vn 0.408248047798009 0.5773500776849919 0.7071070776524926
vn -0.9659258451755842 0 -0.25881897461707376
usemtl material_0_0
f 1/1/1 2/2/2 3/3/3
f 4/2/2 5/1/1 6/4/4
f 7/5/5 8/6/3 9/7/2
f 10/8/6 11/9/1 12/10/3
f 13/11/7 14/12/2 15/13/4
f 16/14/5 17/6/3 18/5/5
f 19/5/5 20/7/2 21/15/5
f 22/9/1 23/8/6 24/11/8
f 25/6/3 26/14/5 27/16/6
f 28/12/2 29/11/7 30/8/9
f 31/15/5 32/7/2 33/17/5
f 34/18/6 35/19/7 36/20/8
f 37/16/6 38/14/5 39/21/5
f 40/19/7 41/18/6 42/22/9
f 43/23/9 44/24/5 45/7/2
f 46/17/5 47/7/2 48/25/5
f 49/16/6 50/21/5 51/26/5
f 52/16/6 53/27/5 54/23/9
f 55/23/9 56/27/5 57/24/5
f 58/28/5 59/7/2 60/24/5
f 61/25/5 62/7/2 63/29/5
f 64/16/6 65/26/5 66/30/5
f 67/27/5 68/16/6 69/31/5
f 70/32/5 71/7/2 72/28/5
f 73/29/5 74/7/2 75/33/5
f 76/16/6 77/30/5 78/34/5
f 79/16/6 80/34/5 81/31/5
f 82/35/5 83/7/2 84/32/5
f 85/28/5 86/36/5 87/32/5
f 88/33/5 89/7/2 90/35/5
f 91/37/5 92/31/5 93/34/5
f 94/28/5 95/38/5 96/36/5
f 97/31/5 98/37/5 99/28/5
f 100/28/5 101/39/5 102/38/5
f 103/28/5 104/37/5 105/40/5
f 106/28/5 107/41/5 108/39/5
f 109/28/5 110/40/5 111/42/5
f 112/28/5 113/43/5 114/41/5
f 115/28/5 116/42/5 117/44/5
f 118/28/5 119/44/5 120/45/5
f 121/28/5 122/46/5 123/43/5
f 124/28/5 125/45/5 126/46/5
usemtl material_1_0
f 127/16/7 128/16/8 129/16/9
f 130/16/6 131/16/9 132/16/8
f 133/16/8 134/16/7 135/16/10
f 136/16/7 137/16/9 138/16/4
f 139/16/6 140/16/8 141/16/3
f 142/16/10 143/16/7 144/16/10
f 145/16/10 146/16/8 147/16/10
f 148/16/2 149/16/4 150/16/9
f 151/16/4 152/16/10 153/16/7
f 154/16/1 155/16/3 156/16/8
f 157/16/10 158/16/8 159/16/10
f 160/16/2 161/16/3 162/16/4
f 163/16/10 164/16/10 165/16/4
f 166/16/1 167/16/4 168/16/3
f 169/16/8 170/16/10 171/16/1
f 172/16/10 173/16/8 174/16/10
f 175/16/10 176/16/10 177/16/4
f 178/16/1 179/16/10 180/16/4
f 181/16/10 182/16/10 183/16/1
f 184/16/10 185/16/8 186/16/10
f 187/16/10 188/16/8 189/16/10
f 190/16/10 191/16/10 192/16/4
f 193/16/10 194/16/4 195/16/10
f 196/16/10 197/16/8 198/16/10
f 199/16/10 200/16/8 201/16/10
f 202/16/10 203/16/10 204/16/4
f 205/16/10 206/16/10 207/16/4
f 208/16/10 209/16/8 210/16/10
f 211/16/10 212/16/10 213/16/10
f 214/16/10 215/16/8 216/16/10
f 217/16/10 218/16/10 219/16/10
f 220/16/10 221/16/10 222/16/10
f 223/16/10 224/16/10 225/16/10
f 226/16/10 227/16/10 228/16/10
f 229/16/10 230/16/10 231/16/10
f 232/16/10 233/16/10 234/16/10
f 235/16/10 236/16/10 237/16/10
f 238/16/10 239/16/10 240/16/10
f 241/16/10 242/16/10 243/16/10
f 244/16/10 245/16/10 246/16/10
f 247/16/10 248/16/10 249/16/10
f 250/16/10 251/16/10 252/16/10
