# SSTK version 0.8.0
# 7
mtllib original-7.mtl
o #ID55
v -0.231291 -0.895141 0.228944
v -0.221029 -0.919425 0.218682
v -0.177283 -0.895141 0.228944
v -0.231291 -0.895141 0.174936
v -0.221029 -0.919425 0.218682
v -0.231291 -0.895141 0.228944
v -0.221029 -0.919425 0.218682
v -0.187544 -0.919425 0.218682
v -0.177283 -0.895141 0.228944
v -0.231291 -0.895141 0.174936
v -0.221029 -0.919425 0.185197
v -0.221029 -0.919425 0.218682
v -0.187544 -0.919425 0.185197
v -0.187544 -0.919425 0.218682
v -0.221029 -0.919425 0.218682
v -0.177283 -0.895141 0.228944
v -0.187544 -0.919425 0.218682
v -0.187544 -0.919425 0.185197
v -0.231291 -0.895141 0.174936
v -0.177283 -0.895141 0.174936
v -0.221029 -0.919425 0.185197
v -0.221029 -0.919425 0.185197
v -0.177283 -0.895141 0.174936
v -0.177283 -0.895141 0.228944
v -0.187544 -0.919425 0.185197
v -0.221029 -0.919425 0.185197
v -0.177283 -0.895141 0.174936
v -0.187544 -0.919425 0.185197
vt 0.3617044 0.9791988
vt 0.3684369 0.9765783
vt 0.3617044 0.9654065
vt 0.3796087 0.9833107
vt 0.3658163 0.9833107
vt 0.3684369 0.968027
vt 0.3769881 0.9765783
vt 0.3769881 0.968027
vt 0.3658163 0.9612946
vt 0.3837206 0.9791988
vt 0.3837206 0.9654065
vt 0.3796087 0.9612946
vn 0 -0.3892409831503421 0.9211359601254069
vn -0.9211359601254069 -0.3892409831503421 0
vn 0 -1 0
vn 0.9211359601254069 -0.3892409831503421 0
vn 0 -0.3892409831503421 -0.9211359601254069
usemtl material_0_0
f 1/1/1 2/2/1 3/3/1
f 4/4/2 5/2/2 6/5/2
f 7/2/1 8/6/1 9/3/1
f 10/4/2 11/7/2 12/2/2
f 13/8/3 14/6/3 15/2/3
f 16/9/4 17/6/4 18/8/4
f 19/10/5 20/11/5 21/7/5
f 13/8/3 15/2/3 22/7/3
f 23/12/4 24/9/4 25/8/4
f 26/7/5 27/11/5 28/8/5
