# SSTK version 0.8.0
# 3
mtllib original-3.mtl
o #ID23
v -0.143694 0.404386 -0.441905
v 0.139885 0.429279 -0.441905
v 0.139885 0.404386 -0.441905
v 0.125154 0.404386 -0.418751
v -0.143694 0.429279 -0.441905
v 0.177880 0.404386 -0.379373
v -0.128963 0.404386 -0.418751
v -0.128963 0.429279 -0.418751
v -0.181689 0.429279 -0.379373
v 0.177880 0.429279 -0.379373
v 0.143002 0.404386 -0.379373
v -0.146811 0.404386 -0.379373
v -0.128963 0.404386 -0.418751
v 0.125154 0.404386 -0.418751
v -0.128963 0.429279 -0.418751
v 0.125154 0.429279 -0.418751
v -0.181689 0.404386 -0.379373
v 0.143002 0.429279 -0.379373
v 0.143002 0.429279 -0.379373
v 0.125154 0.404386 -0.418751
v 0.143002 0.404386 -0.379373
v -0.128963 0.429279 -0.418751
v -0.146811 0.404386 -0.379373
v -0.128963 0.404386 -0.418751
v 0.125154 0.429279 -0.418751
v -0.146811 0.429279 -0.379373
v 0.125154 0.429279 -0.418751
v -0.146811 0.429279 -0.379373
vt 0.4285462 0.8517271
vt 0.5009653 0.84537
vt 0.5009653 0.8517271
vt 0.4972033 0.85764
vt 0.4285462 0.84537
vt 0.4931364 0.8737237
vt 0.5109231 0.8822798
vt 0.4923726 0.8800347
vt 0.4923727 0.8800348
vt 0.5109232 0.8822799
vt 0.4946948 0.8866471
vt 0.4323082 0.85764
vt 0.4323082 0.8394572
vt 0.4894209 0.8733763
vt 0.4901848 0.8796873
vt 0.4708705 0.8756214
vt 0.5116869 0.8759688
vt 0.505417 0.8892811
vt 0.4878627 0.8862996
vt 0.4771405 0.8889336
vt 0.4323082 0.8331001
vt 0.4972033 0.8331001
vt 0.4855885 0.8675088
vt 0.4972033 0.8394572
vt 0.4708704 0.8756213
vt 0.4901847 0.8796872
vt 0.4716342 0.8819323
vt 0.4931365 0.8737238
vt 0.50801 0.8678563
vt 0.511687 0.8759689
vt 0.496969 0.8614992
vt 0.50801 0.8614992
vt 0.4745475 0.8611517
vt 0.4855885 0.8611517
vt 0.4716343 0.8819324
vt 0.4745475 0.8675088
vt 0.496969 0.8678563
vn -0.3878774967423353 -0.6116234948631609 -0.6895416942087498
vn 0.3878774967423353 0.6116234948631609 -0.6895416942087498
vn 0.3878774967423353 -0.6116234948631609 -0.6895416942087498
vn 0 -1 0
vn -0.3878774967423353 0.6116234948631609 -0.6895416942087498
vn 0.7157543860148143 -0.546405889323729 -0.43489799150249125
vn 0 1 0
vn -0.7157543860148143 0.546405889323729 -0.43489799150249125
vn 0.7157543860148143 0.546405889323729 -0.43489799150249125
vn 0 0 1
vn -0.7157543860148143 -0.546405889323729 -0.43489799150249125
vn -0.9108104454297687 0 0.412824820591042
vn 0.9108104454297687 0 0.412824820591042
usemtl material_0_0
f 1/1/1 2/2/2 3/3/3
f 3/3/3 4/4/4 1/1/1
f 5/5/5 2/2/2 1/1/1
f 2/6/2 6/7/6 3/8/3
f 3/9/3 6/10/6 4/11/4
f 1/1/1 4/4/4 7/12/4
f 5/5/5 8/13/7 2/2/2
f 5/14/5 1/15/1 9/16/8
f 10/17/9 6/7/6 2/6/2
f 4/11/4 6/10/6 11/18/4
f 1/15/1 7/19/4 12/20/4
f 13/21/10 14/22/10 15/13/10
f 5/14/5 9/16/8 8/23/7
f 2/2/2 8/13/7 16/24/7
f 9/25/8 1/26/1 17/27/11
f 2/28/2 18/29/7 10/30/9
f 19/29/12 20/31/12 21/32/12
f 22/23/13 23/33/13 24/34/13
f 1/15/1 12/20/4 17/35/11
f 15/13/10 14/22/10 25/24/10
f 8/23/7 9/16/8 26/36/7
f 2/28/2 16/37/7 18/29/7
f 27/37/12 20/31/12 19/29/12
f 28/36/13 23/33/13 22/23/13
