# SSTK version 0.8.0
# 4
mtllib original-4.mtl
o mesh2/mesh2-geometry#mesh2-geometry
v -0.622021 -0.211266 0.000416
v -0.619607 -0.211266 0.005191
v -0.621490 -0.211266 0.010113
v -0.617130 -0.211266 0.000416
v -0.621490 -0.210849 0.010113
v -0.622728 -0.211266 0.013168
v -0.622021 -0.210849 0.000416
v -0.617750 -0.211266 0.010113
v -0.619607 -0.210849 0.005191
v -0.623916 -0.211266 0.015861
v -0.616536 -0.211266 0.013168
v -0.617130 -0.210849 0.000416
v -0.628655 -0.211266 0.015861
v -0.617750 -0.210849 0.010113
v -0.623916 -0.210849 0.015861
v -0.616536 -0.210849 0.013168
v -0.610635 -0.210849 0.015861
v -0.628655 -0.210849 0.015861
v -0.610635 -0.211266 0.015861
v -0.622728 -0.210849 0.013168
v -0.615424 -0.211266 0.015861
v -0.615424 -0.210849 0.015861
vn 0 -1 0
vn 0 1 0
vn 0.9339966539194539 0 0.35728175221701997
vn -0.9339966539194539 0 -0.35728175221701997
vn 0 0 -1
vn 0 0 1
vn -0.9188252793782122 0 -0.3946645486682963
vn 0.9188252793782122 0 0.3946645486682963
vn -0.9355902530124448 0 0.35308763567719237
vn 0.9355902530124448 0 -0.35308763567719237
vn 0.9149497933401569 0 0.4035676841210209
vn -0.9149497933401569 0 -0.4035676841210209
vn 0.9218069660908547 0 -0.3876492193547844
vn -0.9218069660908547 0 0.3876492193547844
vn -0.9242990144643977 0 0.38166913925564294
vn 0.9242990144643977 0 -0.38166913925564294
usemtl material_0_0
f 1//1 2//1 3//1
f 2//1 1//1 4//1
f 3//2 2//2 1//2
f 4//2 1//2 2//2
f 2//3 5//3 3//3
f 3//4 5//4 2//4
f 6//1 1//1 3//1
f 3//2 1//2 6//2
f 7//5 4//5 1//5
f 1//6 4//6 7//6
f 2//1 4//1 8//1
f 8//2 4//2 2//2
f 5//3 2//3 9//3
f 9//4 2//4 5//4
f 5//5 8//5 3//5
f 3//6 8//6 5//6
f 10//1 1//1 6//1
f 6//2 1//2 10//2
f 6//1 3//1 11//1
f 11//2 3//2 6//2
f 4//5 7//5 12//5
f 12//6 7//6 4//6
f 13//7 7//7 1//7
f 1//8 7//8 13//8
f 11//1 8//1 4//1
f 4//2 8//2 11//2
f 8//9 9//9 2//9
f 2//10 9//10 8//10
f 9//2 7//2 5//2
f 5//1 7//1 9//1
f 8//5 5//5 14//5
f 14//6 5//6 8//6
f 11//1 3//1 8//1
f 8//2 3//2 11//2
f 1//1 10//1 13//1
f 13//2 10//2 1//2
f 6//11 15//11 10//11
f 10//12 15//12 6//12
f 16//6 6//6 11//6
f 11//5 6//5 16//5
f 7//2 9//2 12//2
f 12//1 9//1 7//1
f 17//13 4//13 12//13
f 12//14 4//14 17//14
f 7//7 13//7 18//7
f 18//8 13//8 7//8
f 11//1 4//1 19//1
f 19//2 4//2 11//2
f 9//9 8//9 14//9
f 14//10 8//10 9//10
f 7//2 20//2 5//2
f 5//1 20//1 7//1
f 5//2 16//2 14//2
f 14//1 16//1 5//1
f 15//6 13//6 10//6
f 10//5 13//5 15//5
f 15//11 6//11 20//11
f 20//12 6//12 15//12
f 6//6 16//6 20//6
f 20//5 16//5 6//5
f 21//15 16//15 11//15
f 11//16 16//16 21//16
f 12//2 9//2 14//2
f 14//1 9//1 12//1
f 4//13 17//13 19//13
f 19//14 17//14 4//14
f 12//2 16//2 17//2
f 17//1 16//1 12//1
f 13//6 15//6 18//6
f 18//5 15//5 13//5
f 15//2 7//2 18//2
f 18//1 7//1 15//1
f 11//1 19//1 21//1
f 21//2 19//2 11//2
f 7//2 15//2 20//2
f 20//1 15//1 7//1
f 5//2 20//2 16//2
f 16//1 20//1 5//1
f 14//2 16//2 12//2
f 12//1 16//1 14//1
f 16//15 21//15 22//15
f 22//16 21//16 16//16
f 17//6 21//6 19//6
f 19//5 21//5 17//5
f 17//2 16//2 22//2
f 22//1 16//1 17//1
f 21//6 17//6 22//6
f 22//5 17//5 21//5
