# SSTK version 0.8.0
# 100
mtllib original-100.mtl
o mesh171/mesh171-geometry#mesh171-geometry
v 0.572937 -0.211266 0.000416
v 0.577097 -0.211266 0.003418
v 0.572937 -0.211266 0.014741
v 0.579559 -0.211266 0.000416
v 0.577097 -0.211266 0.014741
v 0.572937 -0.210875 0.000416
v 0.578497 -0.211266 0.003418
v 0.577097 -0.211266 0.006986
v 0.577097 -0.210875 0.014741
v 0.572937 -0.210875 0.014741
v 0.579559 -0.210875 0.000416
v 0.579571 -0.211266 0.003537
v 0.578497 -0.210875 0.003418
v 0.577097 -0.210875 0.006986
v 0.577097 -0.211266 0.009987
v 0.577097 -0.210875 0.003418
v 0.580886 -0.211266 0.000508
v 0.579571 -0.210875 0.003537
v 0.578485 -0.211266 0.006986
v 0.577097 -0.210875 0.009987
v 0.580886 -0.210875 0.000508
v 0.580278 -0.211266 0.003896
v 0.580278 -0.210875 0.003896
v 0.578485 -0.210875 0.006986
v 0.579699 -0.211266 0.009987
v 0.579699 -0.210875 0.009987
v 0.582044 -0.211266 0.000786
v 0.580670 -0.211266 0.004456
v 0.579625 -0.211266 0.006854
v 0.582044 -0.210875 0.000786
v 0.581126 -0.211266 0.009884
v 0.580801 -0.211266 0.005175
v 0.580670 -0.210875 0.004456
v 0.579625 -0.210875 0.006854
v 0.580343 -0.211266 0.006460
v 0.581126 -0.210875 0.009884
v 0.583031 -0.211266 0.001247
v 0.582334 -0.211266 0.009576
v 0.580801 -0.210875 0.005175
v 0.580343 -0.210875 0.006460
v 0.582334 -0.210875 0.009576
v 0.583031 -0.210875 0.001247
v 0.580687 -0.211266 0.005902
v 0.580687 -0.210875 0.005902
v 0.583848 -0.211266 0.001894
v 0.583323 -0.211266 0.009061
v 0.583323 -0.210875 0.009061
v 0.583848 -0.210875 0.001894
v 0.584402 -0.210875 0.002572
v 0.584095 -0.211266 0.008341
v 0.584095 -0.210875 0.008341
v 0.584402 -0.211266 0.002572
v 0.584798 -0.210875 0.003338
v 0.584541 -0.210875 0.007665
v 0.584541 -0.211266 0.007665
v 0.584798 -0.211266 0.003338
v 0.585035 -0.210875 0.004192
v 0.584859 -0.210875 0.006905
v 0.584859 -0.211266 0.006905
v 0.585035 -0.211266 0.004192
v 0.585114 -0.210875 0.005133
v 0.585051 -0.210875 0.006061
v 0.585051 -0.211266 0.006061
v 0.585114 -0.211266 0.005133
vn 0 -1 0
vn 0 1 0
vn -1 0 0
vn 1 0 0
vn 0 0 -1
vn 0.03472632908405505 0 -0.9993968591447273
vn 0 0 1
vn -0.03472632908405505 0 0.9993968591447273
vn -0.05541944938814556 0 0.9984631613782828
vn 0.05541944938814556 0 -0.9984631613782828
vn 0.15142534938606225 0 -0.9884686962991337
vn -0.15142534938606225 0 0.9884686962991337
vn -0.2844455791045403 0 0.9586921886235867
vn 0.2844455791045403 0 -0.9586921886235867
vn -0.05734417987870265 0 -0.9983544686302751
vn 0.05734417987870265 0 0.9983544686302751
vn -0.6503398398693456 0 0.7596433983644654
vn 0.6503398398693456 0 -0.7596433983644654
vn 0.03598139403452524 0 0.9993524599876323
vn -0.03598139403452524 0 -0.9993524599876323
vn 0.3292659453652741 0 -0.9442372250778468
vn -0.3292659453652741 0 0.9442372250778468
vn -0.3015864138947221 0 -0.9534388469923603
vn 0.3015864138947221 0 0.9534388469923603
vn -0.9213773605020754 0 0.3886692161134304
vn 0.9213773605020754 0 -0.3886692161134304
vn 0.16006638588941835 0 0.9871062516812968
vn -0.16006638588941835 0 -0.9871062516812968
vn 0.5244102012639962 0 -0.8514657602101537
vn -0.5244102012639962 0 0.8514657602101537
vn -0.9999319656891484 0 0.011664647145790043
vn 0.9999319656891484 0 -0.011664647145790043
vn -0.6842175505622509 0 -0.729277960384512
vn 0.6842175505622509 0 0.729277960384512
vn 0.3557087332737641 0 0.934596863397676
vn -0.3557087332737641 0 -0.934596863397676
vn 0.7006778208600534 0 -0.7134778141994373
vn -0.7006778208600534 0 0.7134778141994373
vn -0.9369256052049847 0 -0.3495288404570831
vn 0.9369256052049847 0 0.3495288404570831
vn 0.575481063977409 0 0.8178151044114002
vn -0.575481063977409 0 -0.8178151044114002
vn 0.8354787285802152 0 -0.5495227875984646
vn -0.8354787285802152 0 0.5495227875984646
vn 0.7629341710522892 0 0.6464761794844079
vn -0.7629341710522892 0 -0.6464761794844079
vn 0.9306284765320124 0 -0.3659653517311519
vn -0.9306284765320124 0 0.3659653517311519
vn 0.8819445188801509 0 0.4713532280755687
vn -0.8819445188801509 0 -0.4713532280755687
vn 0.9842349685712828 0 -0.17686584362585644
vn -0.9842349685712828 0 0.17686584362585644
vn 0.952232971647371 0 0.30537250646974956
vn -0.952232971647371 0 -0.30537250646974956
vn 0.9999708584430392 0 -0.0076342821988156844
vn -0.9999708584430392 0 0.0076342821988156844
vn 0.9893819329568228 0 0.1453388824046103
vn -0.9893819329568228 0 -0.1453388824046103
usemtl material_0_0
f 1//1 2//1 3//1
f 2//1 1//1 4//1
f 3//2 2//2 1//2
f 4//2 1//2 2//2
f 2//1 5//1 3//1
f 3//2 5//2 2//2
f 3//3 6//3 1//3
f 1//4 6//4 3//4
f 6//5 4//6 1//5
f 1//7 4//8 6//7
f 2//1 4//1 7//1
f 7//2 4//2 2//2
f 5//1 2//1 8//1
f 8//2 2//2 5//2
f 9//7 3//7 5//7
f 5//5 3//5 9//5
f 6//3 3//3 10//3
f 10//4 3//4 6//4
f 4//6 6//5 11//6
f 11//8 6//7 4//8
f 7//1 4//1 12//1
f 12//2 4//2 7//2
f 13//9 2//7 7//9
f 7//10 2//5 13//10
f 2//4 14//4 8//4
f 8//3 14//3 2//3
f 5//1 8//1 15//1
f 15//2 8//2 5//2
f 3//7 9//7 10//7
f 10//5 9//5 3//5
f 15//4 9//4 5//4
f 5//3 9//3 15//3
f 9//2 6//2 10//2
f 10//1 6//1 9//1
f 6//2 16//2 11//2
f 11//1 16//1 6//1
f 11//6 17//11 4//6
f 4//8 17//12 11//8
f 12//1 4//1 17//1
f 17//2 4//2 12//2
f 18//13 7//9 12//13
f 12//14 7//10 18//14
f 2//7 13//9 16//7
f 16//5 13//10 2//5
f 7//9 18//13 13//9
f 13//10 18//14 7//10
f 14//4 2//4 16//4
f 16//3 2//3 14//3
f 14//5 19//15 8//5
f 8//7 19//16 14//7
f 19//1 15//1 8//1
f 8//2 15//2 19//2
f 9//4 15//4 20//4
f 20//3 15//3 9//3
f 6//2 9//2 16//2
f 16//1 9//1 6//1
f 11//2 16//2 13//2
f 13//1 16//1 11//1
f 17//11 11//6 21//11
f 21//12 11//8 17//12
f 12//1 17//1 22//1
f 22//2 17//2 12//2
f 12//13 23//17 18//13
f 18//14 23//18 12//14
f 11//2 13//2 18//2
f 18//1 13//1 11//1
f 16//2 20//2 14//2
f 14//1 20//1 16//1
f 19//15 14//5 24//15
f 24//16 14//7 19//16
f 15//1 19//1 25//1
f 25//2 19//2 15//2
f 15//7 26//19 20//7
f 20//5 26//20 15//5
f 16//2 9//2 20//2
f 20//1 9//1 16//1
f 11//2 18//2 21//2
f 21//1 18//1 11//1
f 21//11 27//21 17//11
f 17//12 27//22 21//12
f 22//1 17//1 28//1
f 28//2 17//2 22//2
f 23//17 12//13 22//17
f 22//18 12//14 23//18
f 21//2 18//2 23//2
f 23//1 18//1 21//1
f 26//2 14//2 20//2
f 20//1 14//1 26//1
f 14//2 26//2 24//2
f 24//1 26//1 14//1
f 24//15 29//23 19//15
f 19//16 29//24 24//16
f 25//1 19//1 29//1
f 29//2 19//2 25//2
f 26//19 15//7 25//19
f 25//20 15//5 26//20
f 27//21 21//11 30//21
f 30//22 21//12 27//22
f 31//1 17//1 27//1
f 27//2 17//2 31//2
f 28//1 17//1 32//1
f 32//2 17//2 28//2
f 28//25 23//17 22//17
f 22//18 23//18 28//26
f 21//2 23//2 33//2
f 33//1 23//1 21//1
f 24//2 26//2 34//2
f 34//1 26//1 24//1
f 29//23 24//15 34//23
f 34//24 24//16 29//24
f 25//1 29//1 35//1
f 35//2 29//2 25//2
f 25//19 36//27 26//19
f 26//20 36//28 25//20
f 21//2 36//2 30//2
f 30//1 36//1 21//1
f 30//21 37//29 27//21
f 27//22 37//30 30//22
f 31//1 32//1 17//1
f 17//2 32//2 31//2
f 31//1 27//1 38//1
f 38//2 27//2 31//2
f 32//31 33//25 28//25
f 28//26 33//26 32//32
f 23//17 28//25 33//25
f 33//26 28//26 23//18
f 21//2 33//2 39//2
f 39//1 33//1 21//1
f 34//2 26//2 40//2
f 40//1 26//1 34//1
f 34//23 35//33 29//23
f 29//24 35//34 34//24
f 25//1 35//1 31//1
f 31//2 35//2 25//2
f 36//27 25//19 31//27
f 31//28 25//20 36//28
f 40//2 26//2 36//2
f 36//1 26//1 40//1
f 39//2 36//2 21//2
f 21//1 36//1 39//1
f 30//2 36//2 41//2
f 41//1 36//1 30//1
f 37//29 30//21 42//29
f 42//30 30//22 37//30
f 38//1 27//1 37//1
f 37//2 27//2 38//2
f 31//1 43//1 32//1
f 32//2 43//2 31//2
f 41//35 31//27 38//35
f 38//36 31//28 41//36
f 33//25 32//31 39//31
f 39//32 32//32 33//26
f 35//33 34//23 40//33
f 40//34 34//24 35//34
f 31//1 35//1 43//1
f 43//2 35//2 31//2
f 31//27 41//35 36//27
f 36//28 41//36 31//28
f 40//2 36//2 44//2
f 44//1 36//1 40//1
f 44//2 36//2 39//2
f 39//1 36//1 44//1
f 30//2 41//2 42//2
f 42//1 41//1 30//1
f 42//29 45//37 37//29
f 37//30 45//38 42//30
f 38//1 37//1 46//1
f 46//2 37//2 38//2
f 43//39 39//31 32//31
f 32//32 39//32 43//40
f 38//35 47//41 41//35
f 41//36 47//42 38//36
f 44//39 35//33 40//33
f 40//34 35//34 44//40
f 35//33 44//39 43//39
f 43//40 44//40 35//34
f 39//31 43//39 44//39
f 44//40 43//40 39//32
f 42//2 41//2 47//2
f 47//1 41//1 42//1
f 45//37 42//29 48//37
f 48//38 42//30 45//38
f 46//1 37//1 45//1
f 45//2 37//2 46//2
f 47//41 38//35 46//41
f 46//42 38//36 47//42
f 42//2 47//2 48//2
f 48//1 47//1 42//1
f 49//43 45//37 48//37
f 48//38 45//38 49//44
f 46//1 45//1 50//1
f 50//2 45//2 46//2
f 50//45 47//41 46//41
f 46//42 47//42 50//46
f 48//2 47//2 51//2
f 51//1 47//1 48//1
f 45//37 49//43 52//43
f 52//44 49//44 45//38
f 48//2 51//2 49//2
f 49//1 51//1 48//1
f 50//1 45//1 52//1
f 52//2 45//2 50//2
f 47//41 50//45 51//45
f 51//46 50//46 47//42
f 53//47 52//43 49//43
f 49//44 52//44 53//48
f 49//2 51//2 54//2
f 54//1 51//1 49//1
f 50//1 52//1 55//1
f 55//2 52//2 50//2
f 55//49 51//45 50//45
f 50//46 51//46 55//50
f 52//43 53//47 56//47
f 56//48 53//48 52//44
f 49//2 54//2 53//2
f 53//1 54//1 49//1
f 51//45 55//49 54//49
f 54//50 55//50 51//46
f 55//1 52//1 56//1
f 56//2 52//2 55//2
f 57//51 56//47 53//47
f 53//48 56//48 57//52
f 53//2 54//2 58//2
f 58//1 54//1 53//1
f 59//53 54//49 55//49
f 55//50 54//50 59//54
f 55//1 56//1 59//1
f 59//2 56//2 55//2
f 56//47 57//51 60//51
f 60//52 57//52 56//48
f 53//2 58//2 57//2
f 57//1 58//1 53//1
f 54//49 59//53 58//53
f 58//54 59//54 54//50
f 59//1 56//1 60//1
f 60//2 56//2 59//2
f 61//55 60//51 57//51
f 57//52 60//52 61//56
f 57//2 58//2 62//2
f 62//1 58//1 57//1
f 63//57 58//53 59//53
f 59//54 58//54 63//58
f 59//1 60//1 63//1
f 63//2 60//2 59//2
f 60//51 61//55 64//55
f 64//56 61//56 60//52
f 57//2 62//2 61//2
f 61//1 62//1 57//1
f 58//53 63//57 62//57
f 62//58 63//58 58//54
f 63//1 60//1 64//1
f 64//2 60//2 63//2
f 62//57 64//55 61//55
f 61//56 64//56 62//58
f 64//55 62//57 63//57
f 63//58 62//58 64//56
