# SSTK version 0.8.0
# 88
mtllib original-88.mtl
o mesh144/mesh144-geometry#mesh144-geometry
v -0.037817 -0.211029 0.016214
v -0.069327 -0.211029 0.022141
v -0.069327 -0.211029 0.016214
v -0.056234 -0.211029 0.022141
v -0.069327 -0.210560 0.016214
v -0.050977 -0.211029 0.022141
v -0.056234 -0.210560 0.022141
v -0.069327 -0.210560 0.022141
v -0.037817 -0.210560 0.016214
v -0.037817 -0.211029 0.022141
v -0.050977 -0.211029 0.066445
v -0.056234 -0.211029 0.066445
v -0.037817 -0.210560 0.022141
v -0.050977 -0.210560 0.066445
v -0.056234 -0.210560 0.066445
v -0.050977 -0.210560 0.022141
vn 0 -1 0
vn 0 1 0
vn -1 0 0
vn 1 0 0
vn 0 0 -1
vn 0 0 1
usemtl material_0_0
f 1//1 2//1 3//1
f 2//1 1//1 4//1
f 3//2 2//2 1//2
f 4//2 1//2 2//2
f 2//3 5//3 3//3
f 3//4 5//4 2//4
f 5//5 1//5 3//5
f 3//6 1//6 5//6
f 4//1 1//1 6//1
f 6//2 1//2 4//2
f 7//6 2//6 4//6
f 4//5 2//5 7//5
f 5//3 2//3 8//3
f 8//4 2//4 5//4
f 1//5 5//5 9//5
f 9//6 5//6 1//6
f 6//1 1//1 10//1
f 10//2 1//2 6//2
f 4//1 6//1 11//1
f 11//2 6//2 4//2
f 2//6 7//6 8//6
f 8//5 7//5 2//5
f 12//3 7//3 4//3
f 4//4 7//4 12//4
f 7//2 5//2 8//2
f 8//1 5//1 7//1
f 5//2 7//2 9//2
f 9//1 7//1 5//1
f 13//4 1//4 9//4
f 9//3 1//3 13//3
f 1//4 13//4 10//4
f 10//3 13//3 1//3
f 13//6 6//6 10//6
f 10//5 6//5 13//5
f 6//4 14//4 11//4
f 11//3 14//3 6//3
f 11//1 12//1 4//1
f 4//2 12//2 11//2
f 7//3 12//3 15//3
f 15//4 12//4 7//4
f 9//2 7//2 16//2
f 16//1 7//1 9//1
f 9//2 16//2 13//2
f 13//1 16//1 9//1
f 6//6 13//6 16//6
f 16//5 13//5 6//5
f 14//4 6//4 16//4
f 16//3 6//3 14//3
f 14//6 12//6 11//6
f 11//5 12//5 14//5
f 12//6 14//6 15//6
f 15//5 14//5 12//5
f 14//2 7//2 15//2
f 15//1 7//1 14//1
f 16//2 7//2 14//2
f 14//1 7//1 16//1
