# SSTK version 0.8.0
# 181
mtllib original-181.mtl
o mesh269/mesh269-geometry#mesh269-geometry
v 0.460598 -0.215668 0.218615
v 0.460598 -0.211266 0.317625
v 0.460598 -0.215668 0.317625
v 0.460598 -0.211266 0.218615
v 0.363066 -0.211266 0.317625
v 0.363066 -0.215668 0.218615
v 0.411179 -0.211266 0.251779
v 0.363066 -0.215668 0.317625
v 0.394074 -0.211266 0.280388
v 0.363066 -0.211266 0.218615
v 0.431044 -0.211266 0.280388
v 0.427867 -0.211266 0.280388
v 0.411343 -0.211266 0.256590
v 0.397115 -0.211266 0.280388
vn 1 0 0
vn 0 0 1
vn 0 0 -1
vn 0 1 0
vn -1 0 0
vn 0 -1 0
usemtl material_0_0
f 1//1 2//1 3//1
f 2//1 1//1 4//1
f 5//2 3//2 2//2
f 6//3 4//3 1//3
f 7//4 2//4 4//4
f 3//2 5//2 8//2
f 2//4 9//4 5//4
f 4//3 6//3 10//3
f 2//4 7//4 11//4
f 10//4 7//4 4//4
f 5//5 6//5 8//5
f 2//4 12//4 9//4
f 7//4 5//4 9//4
f 6//5 5//5 10//5
f 2//4 11//4 12//4
f 7//4 10//4 5//4
f 12//4 14//4 9//4
f 14//4 12//4 13//4
usemtl material_1_0
f 3//5 2//5 1//5
f 4//5 1//5 2//5
f 2//3 3//3 5//3
f 1//2 4//2 6//2
f 4//6 2//6 7//6
f 8//3 5//3 3//3
f 5//6 9//6 2//6
f 10//2 6//2 4//2
f 11//6 7//6 2//6
f 4//6 7//6 10//6
f 8//1 6//1 5//1
f 9//6 12//6 2//6
f 9//6 5//6 7//6
f 10//1 5//1 6//1
f 7//6 11//6 13//6
f 12//6 11//6 2//6
f 5//6 10//6 7//6
f 9//6 14//6 12//6
f 7//6 13//6 9//6
f 12//6 13//6 11//6
f 13//6 12//6 14//6
f 14//6 9//6 13//6
usemtl material_2_0
f 13//4 11//4 7//4
f 9//4 13//4 7//4
f 11//4 13//4 12//4
f 13//4 9//4 14//4
