# SSTK version 0.8.0
# 51
mtllib original-51.mtl
o __1_1/__12/mesh104/mesh104-geometry#mesh104-geometry
v 0.293668 -0.211266 0.270769
v 0.288132 -0.211266 0.311121
v 0.285259 -0.211266 0.311121
v 0.296566 -0.211266 0.270769
v 0.288132 -0.210660 0.311121
v 0.293668 -0.210660 0.270769
v 0.285259 -0.210660 0.311121
v 0.296566 -0.210660 0.270769
vn 0 -1 0
vn 0 1 0
vn 0 0 1
vn 0 0 -1
vn -0.9789715643416244 0 -0.20399675539212042
vn 0.9789715643416244 0 0.20399675539212042
vn 0.9788490466193843 0 0.20458383106277553
vn -0.9788490466193843 0 -0.20458383106277553
usemtl material_0_0
f 1//1 2//1 3//1
f 2//1 1//1 4//1
f 3//2 2//2 1//2
f 4//2 1//2 2//2
f 5//3 3//3 2//3
f 2//4 3//4 5//4
f 3//5 6//5 1//5
f 1//6 6//6 3//6
f 6//4 4//4 1//4
f 1//3 4//3 6//3
f 4//7 5//7 2//7
f 2//8 5//8 4//8
f 3//3 5//3 7//3
f 7//4 5//4 3//4
f 6//5 3//5 7//5
f 7//6 3//6 6//6
f 4//4 6//4 8//4
f 8//3 6//3 4//3
f 5//7 4//7 8//7
f 8//8 4//8 5//8
f 5//2 6//2 7//2
f 7//1 6//1 5//1
f 6//2 5//2 8//2
f 8//1 5//1 6//1
