# SSTK version 0.8.0
# 105
mtllib original-105.mtl
o mesh189/mesh189-geometry#mesh189-geometry
v 0.392701 -0.211266 0.112153
v 0.386879 -0.211266 0.119600
v 0.386879 -0.211266 0.112153
v 0.388300 -0.211266 0.128258
v 0.386879 -0.210560 0.112153
v 0.391419 -0.211266 0.128258
v 0.386879 -0.210560 0.119600
v 0.392701 -0.210560 0.112153
v 0.392701 -0.211266 0.119600
v 0.391419 -0.210560 0.128258
v 0.388300 -0.210560 0.128258
v 0.392701 -0.210560 0.119600
vn 0 -1 0
vn 0 1 0
vn -0.9966856849800324 0 0.08134891121510822
vn -1 0 0
vn 1 0 0
vn 0.9966856849800324 0 -0.08134891121510822
vn 0 0 -1
vn 0 0 1
vn -0.9867991699913036 0 0.16194875147550283
vn 0.9867991699913036 0 -0.16194875147550283
vn 0.9972930236080757 0 0.07352975630764763
vn -0.9972930236080757 0 -0.07352975630764763
vn 0.9892098968715998 0 0.14650522151540787
vn -0.9892098968715998 0 -0.14650522151540787
usemtl material_0_0
f 1//1 2//1 3//1
f 2//1 1//1 4//1
f 3//2 2//2 1//2
f 4//2 1//2 2//2
f 2//3 5//4 3//4
f 3//5 5//5 2//6
f 5//7 1//7 3//7
f 3//8 1//8 5//8
f 4//1 1//1 6//1
f 6//2 1//2 4//2
f 4//9 7//3 2//3
f 2//6 7//6 4//10
f 5//4 2//3 7//3
f 7//6 2//6 5//5
f 1//7 5//7 8//7
f 8//8 5//8 1//8
f 6//1 1//1 9//1
f 9//2 1//2 6//2
f 10//8 4//8 6//8
f 6//7 4//7 10//7
f 7//3 4//9 11//9
f 11//10 4//10 7//6
f 11//2 5//2 7//2
f 7//1 5//1 11//1
f 5//2 11//2 8//2
f 8//1 11//1 5//1
f 12//11 1//5 8//5
f 8//4 1//4 12//12
f 1//5 12//11 9//11
f 9//12 12//12 1//4
f 9//11 10//13 6//13
f 6//14 10//14 9//12
f 4//8 10//8 11//8
f 11//7 10//7 4//7
f 8//2 11//2 10//2
f 10//1 11//1 8//1
f 8//2 10//2 12//2
f 12//1 10//1 8//1
f 10//13 9//11 12//11
f 12//12 9//12 10//14
