# SSTK version 0.8.0
# 53
mtllib original-53.mtl
o mesh21/mesh21-geometry#mesh21-geometry
v -0.641259 -0.211266 0.229693
v -0.641262 -0.211266 0.231794
v -0.641344 -0.211266 0.230777
v -0.641015 -0.211266 0.232673
v -0.641344 -0.210832 0.230777
v -0.641259 -0.210832 0.229693
v -0.641003 -0.211266 0.228706
v -0.641262 -0.210832 0.231794
v -0.641003 -0.210832 0.228706
v -0.640603 -0.211266 0.233415
v -0.641015 -0.210832 0.232673
v -0.640577 -0.210832 0.227815
v -0.640577 -0.211266 0.227815
v -0.640603 -0.210832 0.233415
v -0.640026 -0.211266 0.234020
v -0.639980 -0.210832 0.227022
v -0.640026 -0.210832 0.234020
v -0.639980 -0.211266 0.227022
v -0.638913 -0.211266 0.234664
v -0.639116 -0.211266 0.226255
v -0.638913 -0.210832 0.234664
v -0.639116 -0.210832 0.226255
v -0.638120 -0.211266 0.225707
v -0.636904 -0.210832 0.235308
v -0.638120 -0.210832 0.225707
v -0.636904 -0.211266 0.235308
v -0.636990 -0.211266 0.225378
v -0.635029 -0.210832 0.236044
v -0.636990 -0.210832 0.225378
v -0.636900 -0.211266 0.230204
v -0.635029 -0.211266 0.236044
v -0.636900 -0.210832 0.230204
v -0.635728 -0.211266 0.225269
v -0.634467 -0.210832 0.236587
v -0.636697 -0.210832 0.230806
v -0.635728 -0.210832 0.225269
v -0.636745 -0.211266 0.229611
v -0.636697 -0.211266 0.230806
v -0.634467 -0.211266 0.236587
v -0.633912 -0.210832 0.232061
v -0.636089 -0.210832 0.231318
v -0.636745 -0.210832 0.229611
v -0.636282 -0.211266 0.229150
v -0.636089 -0.211266 0.231318
v -0.633912 -0.211266 0.232061
v -0.634279 -0.211266 0.237250
v -0.634279 -0.210832 0.237250
v -0.636282 -0.210832 0.229150
v -0.634401 -0.211266 0.225352
v -0.635701 -0.211266 0.228889
v -0.633506 -0.210832 0.241957
v -0.635701 -0.210832 0.228889
v -0.634401 -0.210832 0.225352
v -0.633506 -0.211266 0.241957
v -0.634448 -0.211266 0.237955
v -0.631964 -0.211266 0.232856
v -0.634448 -0.210832 0.237955
v -0.631964 -0.210832 0.232856
v -0.633086 -0.211266 0.225600
v -0.635047 -0.211266 0.228802
v -0.635047 -0.210832 0.228802
v -0.634835 -0.210832 0.242289
v -0.631900 -0.210832 0.241149
v -0.633086 -0.210832 0.225600
v -0.633624 -0.211266 0.229074
v -0.634835 -0.211266 0.242289
v -0.631900 -0.211266 0.241149
v -0.634957 -0.211266 0.238480
v -0.631235 -0.211266 0.233356
v -0.634957 -0.210832 0.238480
v -0.631235 -0.210832 0.233356
v -0.633624 -0.210832 0.229074
v -0.631786 -0.211266 0.226014
v -0.632214 -0.211266 0.229889
v -0.635601 -0.210832 0.238769
v -0.636260 -0.211266 0.242399
v -0.631269 -0.210832 0.240611
v -0.632214 -0.210832 0.229889
v -0.631786 -0.210832 0.226014
v -0.635601 -0.211266 0.238769
v -0.631269 -0.211266 0.240611
v -0.630669 -0.210832 0.233926
v -0.636260 -0.210832 0.242399
v -0.630753 -0.210832 0.239982
v -0.630499 -0.211266 0.226594
v -0.630753 -0.211266 0.239982
v -0.630669 -0.211266 0.233926
v -0.636373 -0.210832 0.238866
v -0.637778 -0.211266 0.242283
v -0.636373 -0.211266 0.238866
v -0.630499 -0.210832 0.226594
v -0.630043 -0.210832 0.235100
v -0.630351 -0.210832 0.239263
v -0.637304 -0.210832 0.238757
v -0.637778 -0.210832 0.242283
v -0.637304 -0.211266 0.238757
v -0.630351 -0.211266 0.239263
v -0.630043 -0.211266 0.235100
v -0.639240 -0.211266 0.241937
v -0.638246 -0.211266 0.238433
v -0.629835 -0.210832 0.236567
v -0.630064 -0.210832 0.238454
v -0.630064 -0.211266 0.238454
v -0.638246 -0.210832 0.238433
v -0.639240 -0.210832 0.241937
v -0.639198 -0.211266 0.237892
v -0.629835 -0.211266 0.236567
v -0.639198 -0.210832 0.237892
v -0.640646 -0.211266 0.241358
v -0.640161 -0.211266 0.237135
v -0.640161 -0.210832 0.237135
v -0.640646 -0.210832 0.241358
v -0.641996 -0.211266 0.240549
v -0.641996 -0.210832 0.240549
vn 0 -1 0
vn 0 1 0
vn -0.9842801844096255 0 0.17661403845264856
vn -0.9999992764824502 0 0.0012029275024467352
vn 0.9999992764824502 0 -0.0012029275024467352
vn 0.9842801844096255 0 -0.17661403845264856
vn -0.9862425903705153 0 -0.16530442504438955
vn 0.9862425903705153 0 0.16530442504438955
vn -0.9246864287099926 0 0.3807295740542885
vn 0.9246864287099926 0 -0.3807295740542885
vn -0.9393125917784874 0 -0.3430624650502889
vn 0.9393125917784874 0 0.3430624650502889
vn -0.8546488396030707 0 -0.5192064723836989
vn 0.8546488396030707 0 0.5192064723836989
vn -0.8054344857651875 0 0.5926848143323467
vn 0.8054344857651875 0 -0.5926848143323467
vn -0.7351311737744796 0 -0.6779248906368286
vn 0.7351311737744796 0 0.6779248906368286
vn -0.6183291435091525 0 0.7859192517601523
vn 0.6183291435091525 0 -0.7859192517601523
vn -0.5763529452255762 0 -0.8172008826046409
vn 0.5763529452255762 0 0.8172008826046409
vn -0.4052623501058449 0 0.9142004307517513
vn 0.4052623501058449 0 -0.9142004307517513
vn -0.33542192274893684 0 0.9420680090839548
vn 0.33542192274893684 0 -0.9420680090839548
vn -0.3827969273142005 0 -0.9238325131964165
vn 0.3827969273142005 0 0.9238325131964165
vn -0.5397996615153222 0 0.8417935170978353
vn 0.5397996615153222 0 -0.8417935170978353
vn -0.18380399329443986 0 -0.9829629148899859
vn 0.18380399329443986 0 0.9829629148899859
vn -0.6942348581470488 0 0.7197485406262015
vn 0.6942348581470488 0 -0.7197485406262015
vn -0.012142783014678077 0 -0.999926273692545
vn 0.012142783014678077 0 0.999926273692545
vn 0.9477475102391101 0 -0.3190214049802428
vn -0.9477475102391101 0 0.3190214049802428
vn 0.9677597253366392 0 0.2518751953177456
vn -0.9677597253366392 0 -0.2518751953177456
vn -0.9998007589983926 0 0.019961019669291525
vn -0.9622736295986416 0 0.27208355661277334
vn 0.9622736295986416 0 -0.27208355661277334
vn 0.9998007589983926 0 -0.019961019669291525
vn 0.4917604569097969 0 -0.8707305283610237
vn 0.6443203577457093 0 -0.7647556973272192
vn -0.4917604569097969 0 0.8707305283610237
vn -0.6443203577457093 0 0.7647556973272192
vn 0.12423762553449592 0 -0.9922524942783214
vn -0.12423762553449592 0 0.9922524942783214
vn 0.566402484724546 0 0.8241287674252491
vn 0.7057507951737857 0 0.708460171859766
vn -0.7057507951737857 0 -0.708460171859766
vn -0.566402484724546 0 -0.8241287674252491
vn 0.35048263377193983 0 -0.9365692304492415
vn -0.35048263377193983 0 0.9365692304492415
vn 0.2731491658708855 0 0.9619716904275507
vn -0.2731491658708855 0 -0.9619716904275507
vn -0.9723530650238371 0 -0.23351556037821047
vn 0.9723530650238371 0 0.23351556037821047
vn 0.4745522731707495 0 -0.880227322927705
vn -0.4745522731707495 0 0.880227322927705
vn 0.24500221111934078 0 -0.9695225198759615
vn -0.24500221111934078 0 0.9695225198759615
vn -0.028234545463856286 0 0.9996013257506462
vn 0.028234545463856286 0 -0.9996013257506462
vn -0.5738688128010335 0 -0.8189472423143828
vn -0.7181544881281791 0 -0.6958837052132729
vn 0.7181544881281791 0 0.6958837052132729
vn 0.5738688128010335 0 0.8189472423143828
vn 0.6404527831498652 0 -0.7679975472327967
vn -0.6404527831498652 0 0.7679975472327967
vn 0.16032507097848436 0 0.9870642692427601
vn 0.34772203924151607 0 0.9375976660730985
vn -0.16032507097848436 0 -0.9870642692427601
vn -0.34772203924151607 0 -0.9375976660730985
vn 0.5530943918355617 0 0.8331185952312252
vn -0.5530943918355617 0 -0.8331185952312252
vn 0.3576059937424516 0 -0.9338725572793505
vn -0.3576059937424516 0 0.9338725572793505
vn -0.34849836838322545 0 0.937309387147184
vn 0.34849836838322545 0 -0.937309387147184
vn 0.0006938722642422263 0 0.9999997592706116
vn -0.0006938722642422263 0 -0.9999997592706116
vn -0.5001382383375453 0 0.8659455771309285
vn 0.5001382383375453 0 -0.8659455771309285
vn 0.7137783885263025 0 0.7003716242630013
vn -0.7137783885263025 0 -0.7003716242630013
vn -0.26972312586401614 0 -0.9629379187539268
vn 0.26972312586401614 0 0.9629379187539268
vn 0.8043270700128781 0 -0.5941868093827888
vn -0.8043270700128781 0 0.5941868093827888
vn 0.4106996706925142 0 -0.9117706841597073
vn -0.4106996706925142 0 0.9117706841597073
vn 0.8870280752785922 0 0.4617154899584333
vn -0.8870280752785922 0 -0.4617154899584333
vn -0.1538700086555739 0 0.9880910992597463
vn 0.1538700086555739 0 -0.9880910992597463
vn 0.8261274298191219 0 0.5634833357788426
vn -0.8261274298191219 0 -0.5634833357788426
vn -0.004364874798574852 0 -0.999990473888623
vn 0.004364874798574852 0 0.999990473888623
vn 0.9505435159189144 0 -0.3105914106096766
vn -0.9505435159189144 0 0.3105914106096766
vn 0.9109449687159987 0 0.41252789477926005
vn -0.9109449687159987 0 -0.41252789477926005
vn 0.22186325287745112 0 -0.9750777902416998
vn -0.22186325287745112 0 0.9750777902416998
vn -0.3064846043401934 0 0.9518756154574163
vn 0.3064846043401934 0 -0.9518756154574163
vn 0.9999482251563766 0 -0.010175804961388818
vn -0.9999482251563766 0 0.010175804961388818
vn 0.973446248113399 0 0.22891570945207446
vn -0.973446248113399 0 -0.22891570945207446
vn 0.4115574876730348 0 -0.9113838018860441
vn -0.4115574876730348 0 0.9113838018860441
vn -0.4484342472027467 0 0.8938158232744069
vn 0.4484342472027467 0 -0.8938158232744069
vn 0.5575650843863255 0 -0.830133228267168
vn -0.5575650843863255 0 0.830133228267168
vn 0.6181963162701561 0 -0.7860237366326853
vn -0.6181963162701561 0 0.7860237366326853
vn -0.5141571433518927 0 0.85769600205447
vn 0.5141571433518927 0 -0.85769600205447
vn -0.8807531385909357 0 -0.47357566329174466
vn 0.8807531385909357 0 0.47357566329174466
usemtl material_0_0
f 1//1 2//1 3//1
f 2//1 1//1 4//1
f 3//2 2//2 1//2
f 4//2 1//2 2//2
f 2//3 5//4 3//4
f 3//5 5//5 2//6
f 3//4 6//7 1//7
f 1//8 6//8 3//5
f 4//1 1//1 7//1
f 7//2 1//2 4//2
f 4//9 8//3 2//3
f 2//6 8//6 4//10
f 5//4 2//3 8//3
f 8//6 2//6 5//5
f 6//7 3//4 5//4
f 5//5 3//5 6//8
f 9//11 1//7 6//7
f 6//8 1//8 9//12
f 1//7 9//11 7//11
f 7//12 9//12 1//8
f 4//1 7//1 10//1
f 10//2 7//2 4//2
f 8//3 4//9 11//9
f 11//10 4//10 8//6
f 8//2 6//2 5//2
f 5//1 6//1 8//1
f 6//2 11//2 9//2
f 9//1 11//1 6//1
f 12//13 7//11 9//11
f 9//12 7//12 12//14
f 10//1 7//1 13//1
f 13//2 7//2 10//2
f 10//15 11//9 4//9
f 4//10 11//10 10//16
f 6//2 8//2 11//2
f 11//1 8//1 6//1
f 9//2 11//2 14//2
f 14//1 11//1 9//1
f 7//11 12//13 13//13
f 13//14 12//14 7//12
f 9//2 14//2 12//2
f 12//1 14//1 9//1
f 10//1 13//1 15//1
f 15//2 13//2 10//2
f 11//9 10//15 14//15
f 14//16 10//16 11//10
f 16//17 13//13 12//13
f 12//14 13//14 16//18
f 12//2 14//2 17//2
f 17//1 14//1 12//1
f 15//1 13//1 18//1
f 18//2 13//2 15//2
f 15//19 14//15 10//15
f 10//16 14//16 15//20
f 13//13 16//17 18//17
f 18//18 16//18 13//14
f 12//2 17//2 16//2
f 16//1 17//1 12//1
f 14//15 15//19 17//19
f 17//20 15//20 14//16
f 15//1 18//1 19//1
f 19//2 18//2 15//2
f 16//17 20//21 18//17
f 18//18 20//22 16//18
f 16//2 17//2 21//2
f 21//1 17//1 16//1
f 15//19 21//23 17//19
f 17//20 21//24 15//20
f 19//1 18//1 20//1
f 20//2 18//2 19//2
f 21//23 15//19 19//23
f 19//24 15//20 21//24
f 20//21 16//17 22//21
f 22//22 16//18 20//22
f 16//2 21//2 22//2
f 22//1 21//1 16//1
f 19//1 20//1 23//1
f 23//2 20//2 19//2
f 19//23 24//25 21//23
f 21//24 24//26 19//24
f 22//21 23//27 20//21
f 20//22 23//28 22//22
f 22//2 21//2 25//2
f 25//1 21//1 22//1
f 19//1 23//1 26//1
f 26//2 23//2 19//2
f 24//25 19//23 26//25
f 26//26 19//24 24//26
f 25//2 21//2 24//2
f 24//1 21//1 25//1
f 23//27 22//21 25//27
f 25//28 22//22 23//28
f 26//1 23//1 27//1
f 27//2 23//2 26//2
f 26//25 28//29 24//25
f 24//26 28//30 26//26
f 25//2 24//2 29//2
f 29//1 24//1 25//1
f 25//27 27//31 23//27
f 23//28 27//32 25//28
f 26//1 27//1 30//1
f 30//2 27//2 26//2
f 28//29 26//25 31//29
f 31//30 26//26 28//30
f 28//2 32//2 24//2
f 24//1 32//1 28//1
f 29//2 24//2 32//2
f 32//1 24//1 29//1
f 27//31 25//27 29//31
f 29//32 25//28 27//32
f 30//1 27//1 33//1
f 33//2 27//2 30//2
f 30//1 31//1 26//1
f 26//2 31//2 30//2
f 31//29 34//33 28//29
f 28//30 34//34 31//30
f 32//2 28//2 35//2
f 35//1 28//1 32//1
f 29//2 32//2 36//2
f 36//1 32//1 29//1
f 29//31 33//35 27//31
f 27//32 33//36 29//32
f 30//1 33//1 37//1
f 37//2 33//2 30//2
f 31//1 30//1 38//1
f 38//2 30//2 31//2
f 34//33 31//29 39//33
f 39//34 31//30 34//34
f 40//2 28//2 34//2
f 34//1 28//1 40//1
f 35//2 28//2 41//2
f 41//1 28//1 35//1
f 35//37 30//37 32//37
f 32//38 30//38 35//38
f 36//2 32//2 42//2
f 42//1 32//1 36//1
f 33//35 29//31 36//35
f 36//36 29//32 33//36
f 37//1 33//1 43//1
f 43//2 33//2 37//2
f 37//39 32//39 30//39
f 30//40 32//40 37//40
f 30//37 35//37 38//37
f 38//38 35//38 30//38
f 31//1 38//1 44//1
f 44//2 38//2 31//2
f 31//1 45//1 39//1
f 39//2 45//2 31//2
f 46//41 34//42 39//42
f 39//43 34//43 46//44
f 41//2 28//2 40//2
f 40//1 28//1 41//1
f 40//2 34//2 47//2
f 47//1 34//1 40//1
f 44//45 35//46 41//45
f 41//47 35//48 44//47
f 32//39 37//39 42//39
f 42//40 37//40 32//40
f 36//2 42//2 48//2
f 48//1 42//1 36//1
f 36//35 49//49 33//35
f 33//36 49//50 36//36
f 43//1 33//1 50//1
f 50//2 33//2 43//2
f 43//51 42//52 37//52
f 37//53 42//53 43//54
f 35//46 44//45 38//46
f 38//48 44//47 35//48
f 31//1 44//1 45//1
f 45//2 44//2 31//2
f 39//1 45//1 46//1
f 46//2 45//2 39//2
f 34//42 46//41 47//41
f 47//44 46//44 34//43
f 45//55 41//45 40//55
f 40//56 41//47 45//56
f 47//2 51//2 40//2
f 40//1 51//1 47//1
f 41//45 45//55 44//45
f 44//47 45//56 41//47
f 42//52 43//51 48//51
f 48//54 43//54 42//53
f 36//2 48//2 52//2
f 52//1 48//1 36//1
f 49//49 36//35 53//49
f 53//50 36//36 49//50
f 50//1 33//1 49//1
f 49//2 33//2 50//2
f 52//57 43//51 50//57
f 50//58 43//54 52//58
f 54//1 46//1 45//1
f 45//2 46//2 54//2
f 55//59 47//41 46//41
f 46//44 47//44 55//60
f 40//55 56//61 45//55
f 45//56 56//62 40//56
f 57//2 51//2 47//2
f 47//1 51//1 57//1
f 40//2 51//2 58//2
f 58//1 51//1 40//1
f 43//51 52//57 48//51
f 48//54 52//58 43//54
f 36//2 52//2 53//2
f 53//1 52//1 36//1
f 53//49 59//63 49//49
f 49//50 59//64 53//50
f 50//1 49//1 60//1
f 60//2 49//2 50//2
f 50//57 61//65 52//57
f 52//58 61//66 50//58
f 54//1 55//1 46//1
f 46//2 55//2 54//2
f 54//1 45//1 56//1
f 56//2 45//2 54//2
f 47//41 55//59 57//59
f 57//60 55//60 47//44
f 56//61 40//55 58//61
f 58//62 40//56 56//62
f 57//2 62//2 51//2
f 51//1 62//1 57//1
f 58//2 51//2 63//2
f 63//1 51//1 58//1
f 53//2 52//2 61//2
f 61//1 52//1 53//1
f 59//63 53//49 64//63
f 64//64 53//50 59//64
f 65//1 49//1 59//1
f 59//2 49//2 65//2
f 60//1 49//1 65//1
f 65//2 49//2 60//2
f 61//65 50//57 60//65
f 60//66 50//58 61//66
f 66//1 55//1 54//1
f 54//2 55//2 66//2
f 54//1 56//1 67//1
f 67//2 56//2 54//2
f 68//67 57//68 55//68
f 55//69 57//69 68//70
f 58//61 69//71 56//61
f 56//62 69//72 58//62
f 70//2 62//2 57//2
f 57//1 62//1 70//1
f 66//73 51//74 62//73
f 62//75 51//76 66//75
f 54//74 63//77 51//74
f 51//76 63//78 54//76
f 58//2 63//2 71//2
f 71//1 63//1 58//1
f 53//2 61//2 72//2
f 72//1 61//1 53//1
f 53//2 72//2 64//2
f 64//1 72//1 53//1
f 64//63 73//79 59//63
f 59//64 73//80 64//64
f 65//1 59//1 74//1
f 74//2 59//2 65//2
f 72//81 60//65 65//81
f 65//82 60//66 72//82
f 60//65 72//81 61//65
f 61//66 72//82 60//66
f 66//1 68//1 55//1
f 55//2 68//2 66//2
f 51//74 66//73 54//74
f 54//76 66//75 51//76
f 67//1 56//1 69//1
f 69//2 56//2 67//2
f 63//77 54//74 67//77
f 67//78 54//76 63//78
f 57//68 68//67 70//67
f 70//70 68//70 57//69
f 69//71 58//61 71//71
f 71//72 58//62 69//72
f 75//2 62//2 70//2
f 70//1 62//1 75//1
f 62//73 76//83 66//73
f 66//75 76//84 62//75
f 71//2 63//2 77//2
f 77//1 63//1 71//1
f 64//2 72//2 78//2
f 78//1 72//1 64//1
f 73//79 64//63 79//79
f 79//80 64//64 73//80
f 74//1 59//1 73//1
f 73//2 59//2 74//2
f 78//85 65//81 74//85
f 74//86 65//82 78//86
f 65//81 78//85 72//81
f 72//82 78//86 65//82
f 66//1 80//1 68//1
f 68//2 80//2 66//2
f 67//1 69//1 81//1
f 81//2 69//2 67//2
f 67//77 77//87 63//77
f 63//78 77//88 67//78
f 68//67 75//89 70//67
f 70//70 75//90 68//70
f 82//91 69//71 71//71
f 71//72 69//72 82//92
f 75//2 83//2 62//2
f 62//1 83//1 75//1
f 76//83 62//73 83//83
f 83//84 62//75 76//84
f 76//1 80//1 66//1
f 66//2 80//2 76//2
f 71//2 77//2 84//2
f 84//1 77//1 71//1
f 64//2 78//2 79//2
f 79//1 78//1 64//1
f 79//79 85//93 73//79
f 73//80 85//94 79//80
f 74//1 73//1 85//1
f 85//2 73//2 74//2
f 85//95 78//95 74//95
f 74//96 78//96 85//96
f 75//89 68//67 80//89
f 80//90 68//70 75//90
f 81//1 69//1 86//1
f 86//2 69//2 81//2
f 77//87 67//77 81//87
f 81//88 67//78 77//88
f 69//71 82//91 87//91
f 87//92 82//92 69//72
f 71//2 84//2 82//2
f 82//1 84//1 71//1
f 88//2 83//2 75//2
f 75//1 83//1 88//1
f 83//83 89//97 76//83
f 76//84 89//98 83//84
f 76//1 90//1 80//1
f 80//2 90//2 76//2
f 77//87 86//99 84//99
f 84//100 86//100 77//88
f 79//2 78//2 91//2
f 91//1 78//1 79//1
f 85//93 79//79 91//93
f 91//94 79//80 85//94
f 78//95 85//95 91//95
f 91//96 85//96 78//96
f 80//89 88//101 75//89
f 75//90 88//102 80//90
f 86//1 69//1 87//1
f 87//2 69//2 86//2
f 86//99 77//87 81//87
f 81//88 77//88 86//100
f 92//103 87//91 82//91
f 82//92 87//92 92//104
f 82//2 84//2 93//2
f 93//1 84//1 82//1
f 94//2 83//2 88//2
f 88//1 83//1 94//1
f 89//97 83//83 95//97
f 95//98 83//84 89//98
f 89//1 96//1 76//1
f 76//2 96//2 89//2
f 76//1 96//1 90//1
f 90//2 96//2 76//2
f 88//101 80//89 90//101
f 90//102 80//90 88//102
f 97//105 84//99 86//99
f 86//100 84//100 97//106
f 86//1 87//1 97//1
f 97//2 87//2 86//2
f 87//91 92//103 98//103
f 98//104 92//104 87//92
f 82//2 93//2 92//2
f 92//1 93//1 82//1
f 84//99 97//105 93//105
f 93//106 97//106 84//100
f 94//2 95//2 83//2
f 83//1 95//1 94//1
f 90//101 94//107 88//101
f 88//102 94//108 90//102
f 95//97 99//109 89//97
f 89//98 99//110 95//98
f 89//1 100//1 96//1
f 96//2 100//2 89//2
f 94//107 90//101 96//107
f 96//108 90//102 94//108
f 97//1 87//1 98//1
f 98//2 87//2 97//2
f 101//111 98//103 92//103
f 92//104 98//104 101//112
f 92//2 93//2 102//2
f 102//1 93//1 92//1
f 103//113 93//105 97//105
f 97//106 93//106 103//114
f 104//2 95//2 94//2
f 94//1 95//1 104//1
f 99//109 95//97 105//109
f 105//110 95//98 99//110
f 99//1 106//1 89//1
f 89//2 106//2 99//2
f 89//1 106//1 100//1
f 100//2 106//2 89//2
f 104//115 96//107 100//115
f 100//116 96//108 104//116
f 96//107 104//115 94//107
f 94//108 104//116 96//108
f 97//1 98//1 103//1
f 103//2 98//2 97//2
f 98//103 101//111 107//111
f 107//112 101//112 98//104
f 92//2 102//2 101//2
f 101//1 102//1 92//1
f 93//105 103//113 102//113
f 102//114 103//114 93//106
f 108//2 95//2 104//2
f 104//1 95//1 108//1
f 108//2 105//2 95//2
f 95//1 105//1 108//1
f 105//109 109//117 99//109
f 99//110 109//118 105//110
f 99//1 110//1 106//1
f 106//2 110//2 99//2
f 108//119 100//115 106//119
f 106//120 100//116 108//120
f 100//115 108//119 104//115
f 104//116 108//120 100//116
f 103//1 98//1 107//1
f 107//2 98//2 103//2
f 102//113 107//111 101//111
f 101//112 107//112 102//114
f 107//111 102//113 103//113
f 103//114 102//114 107//112
f 111//2 105//2 108//2
f 108//1 105//1 111//1
f 109//117 105//109 112//117
f 112//118 105//110 109//118
f 109//1 110//1 99//1
f 99//2 110//2 109//2
f 111//121 106//119 110//121
f 110//122 106//120 111//122
f 106//119 111//121 108//119
f 108//120 111//122 106//120
f 111//2 112//2 105//2
f 105//1 112//1 111//1
f 112//117 113//123 109//117
f 109//118 113//124 112//118
f 110//1 109//1 113//1
f 113//2 109//2 110//2
f 113//125 111//125 110//125
f 110//126 111//126 113//126
f 112//2 111//2 114//2
f 114//1 111//1 112//1
f 113//123 112//117 114//123
f 114//124 112//118 113//124
f 111//125 113//125 114//125
f 114//126 113//126 111//126
