# SSTK version 0.8.0
# 29
mtllib original-29.mtl
o mesh54/mesh54-geometry#mesh54-geometry
v -0.419284 -0.211266 0.241841
v -0.450994 -0.211266 0.248396
v -0.450994 -0.211266 0.241841
v -0.426282 -0.211266 0.248396
v -0.450994 -0.210560 0.241841
v -0.419284 -0.211266 0.248396
v -0.426282 -0.210560 0.248396
v -0.450994 -0.210560 0.248396
v -0.419284 -0.210560 0.241841
v -0.430880 -0.211266 0.254989
v -0.419284 -0.210560 0.248396
v -0.444106 -0.211266 0.286929
v -0.444106 -0.210560 0.286929
v -0.430880 -0.210560 0.254989
v -0.446795 -0.211266 0.290831
v -0.453535 -0.211266 0.290566
v -0.453535 -0.211266 0.297386
v -0.446795 -0.210560 0.290831
v -0.453535 -0.210560 0.290566
v -0.418547 -0.211266 0.297386
v -0.418547 -0.211266 0.290831
v -0.418547 -0.210560 0.297386
v -0.418547 -0.210560 0.290831
v -0.453535 -0.210560 0.297386
vn 0 -1 0
vn 0 1 0
vn -1 0 0
vn 1 0 0
vn 0 0 -1
vn 0 0 1
vn -0.8320681360986469 0 -0.5546734326514327
vn -0.8202558071299816 0 -0.5719968626395973
vn 0.8202558071299816 0 0.5719968626395973
vn 0.8320681360986469 0 0.5546734326514327
vn 0.8321841242331645 0 0.5544993988944271
vn 0.8406648843934026 0 0.5415556777911456
vn -0.8406648843934026 0 -0.5415556777911456
vn -0.8321841242331645 0 -0.5544993988944271
vn -0.8435018544994425 0 -0.537126262117206
vn 0.8435018544994425 0 0.537126262117206
vn 0.823496826238912 0 0.5673208767306551
vn -0.823496826238912 0 -0.5673208767306551
usemtl material_0_0
f 1//1 2//1 3//1
f 2//1 1//1 4//1
f 3//2 2//2 1//2
f 4//2 1//2 2//2
f 2//3 5//3 3//3
f 3//4 5//4 2//4
f 5//5 1//5 3//5
f 3//6 1//6 5//6
f 6//1 4//1 1//1
f 1//2 4//2 6//2
f 7//6 2//6 4//6
f 4//5 2//5 7//5
f 5//3 2//3 8//3
f 8//4 2//4 5//4
f 1//5 5//5 9//5
f 9//6 5//6 1//6
f 6//1 10//1 4//1
f 4//2 10//2 6//2
f 1//4 11//4 6//4
f 6//3 11//3 1//3
f 2//6 7//6 8//6
f 8//5 7//5 2//5
f 10//7 7//8 4//8
f 4//9 7//9 10//10
f 7//2 5//2 8//2
f 8//1 5//1 7//1
f 5//2 7//2 9//2
f 9//1 7//1 5//1
f 11//4 1//4 9//4
f 9//3 1//3 11//3
f 12//1 10//1 6//1
f 6//2 10//2 12//2
f 13//11 6//12 11//12
f 11//13 6//13 13//14
f 7//8 10//7 14//7
f 14//10 10//10 7//9
f 9//2 7//2 11//2
f 11//1 7//1 9//1
f 15//1 10//1 12//1
f 12//2 10//2 15//2
f 6//12 13//11 12//11
f 12//14 13//14 6//13
f 14//2 13//2 11//2
f 11//1 13//1 14//1
f 16//15 14//7 10//7
f 10//10 14//10 16//16
f 14//2 11//2 7//2
f 7//1 11//1 14//1
f 17//1 10//1 15//1
f 15//2 10//2 17//2
f 12//11 18//17 15//17
f 15//18 18//18 12//14
f 18//17 12//11 13//11
f 13//14 12//14 18//18
f 14//2 18//2 13//2
f 13//1 18//1 14//1
f 14//7 16//15 19//15
f 19//16 16//16 14//10
f 10//1 17//1 16//1
f 16//2 17//2 10//2
f 15//1 20//1 17//1
f 17//2 20//2 15//2
f 18//5 21//5 15//5
f 15//6 21//6 18//6
f 18//2 14//2 19//2
f 19//1 14//1 18//1
f 17//3 19//3 16//3
f 16//4 19//4 17//4
f 20//1 15//1 21//1
f 21//2 15//2 20//2
f 22//6 17//6 20//6
f 20//5 17//5 22//5
f 21//5 18//5 23//5
f 23//6 18//6 21//6
f 19//2 22//2 18//2
f 18//1 22//1 19//1
f 19//3 17//3 24//3
f 24//4 17//4 19//4
f 21//4 22//4 20//4
f 20//3 22//3 21//3
f 17//6 22//6 24//6
f 24//5 22//5 17//5
f 18//2 22//2 23//2
f 23//1 22//1 18//1
f 22//4 21//4 23//4
f 23//3 21//3 22//3
f 22//2 19//2 24//2
f 24//1 19//1 22//1
