# SSTK version 0.8.0
# 32
mtllib original-32.mtl
o mesh57/mesh57-geometry#mesh57-geometry
v -0.204755 -0.211266 0.242073
v -0.193902 -0.211266 0.297618
v -0.211090 -0.211266 0.242073
v -0.193212 -0.211266 0.282425
v -0.211090 -0.210560 0.242073
v -0.193212 -0.210560 0.282425
v -0.190888 -0.211266 0.291518
v -0.193902 -0.210560 0.297618
v -0.204755 -0.210560 0.242073
v -0.190888 -0.210560 0.291518
v -0.187883 -0.211266 0.297618
v -0.187883 -0.210560 0.297618
v -0.188529 -0.210560 0.282425
v -0.188529 -0.211266 0.282425
v -0.176544 -0.211266 0.242073
v -0.170577 -0.211266 0.242073
v -0.176544 -0.210560 0.242073
v -0.170577 -0.210560 0.242073
vn 0 -1 0
vn 0 1 0
vn -0.9553063537289931 0 0.29561760861798453
vn 0.9553063537289931 0 -0.29561760861798453
vn 0 0 -1
vn 0 0 1
vn 0.9614354396332165 0 -0.2750307172249741
vn 0.9652572633778388 0 -0.26130138824033405
vn -0.9652572633778388 0 0.26130138824033405
vn -0.9614354396332165 0 0.2750307172249741
vn 0.9688813781769254 0 -0.24752550378088647
vn -0.9688813781769254 0 0.24752550378088647
vn -0.9634192914333853 0 -0.26799863599278584
vn -0.9679343648796567 0 -0.2512032350209994
vn 0.9679343648796567 0 0.2512032350209994
vn 0.9634192914333853 0 0.26799863599278584
vn 0.9547318468903375 0 0.2974678142814196
vn -0.9547318468903375 0 -0.2974678142814196
vn -0.9586101465943531 0 -0.2847219465484759
vn 0.9586101465943531 0 0.2847219465484759
usemtl material_0_0
f 1//1 2//1 3//1
f 2//1 1//1 4//1
f 3//2 2//2 1//2
f 4//2 1//2 2//2
f 2//3 5//3 3//3
f 3//4 5//4 2//4
f 5//5 1//5 3//5
f 3//6 1//6 5//6
f 1//7 6//8 4//8
f 4//9 6//9 1//10
f 2//1 4//1 7//1
f 7//2 4//2 2//2
f 5//3 2//3 8//3
f 8//4 2//4 5//4
f 1//5 5//5 9//5
f 9//6 5//6 1//6
f 6//8 1//7 9//7
f 9//10 1//10 6//9
f 10//11 4//8 6//8
f 6//9 4//9 10//12
f 4//8 10//11 7//11
f 7//12 10//12 4//9
f 2//1 7//1 11//1
f 11//2 7//2 2//2
f 2//6 12//6 8//6
f 8//5 12//5 2//5
f 8//2 9//2 5//2
f 5//1 9//1 8//1
f 9//2 8//2 6//2
f 6//1 8//1 9//1
f 6//2 8//2 10//2
f 10//1 8//1 6//1
f 13//13 7//14 10//14
f 10//15 7//15 13//16
f 11//1 7//1 14//1
f 14//2 7//2 11//2
f 12//6 2//6 11//6
f 11//5 2//5 12//5
f 10//2 8//2 12//2
f 12//1 8//1 10//1
f 7//14 13//13 14//13
f 14//16 13//16 7//15
f 10//2 12//2 13//2
f 13//1 12//1 10//1
f 11//1 14//1 15//1
f 15//2 14//2 11//2
f 16//17 12//17 11//17
f 11//18 12//18 16//18
f 17//19 14//13 13//13
f 13//16 14//16 17//20
f 13//2 12//2 17//2
f 17//1 12//1 13//1
f 14//13 17//19 15//19
f 15//20 17//20 14//16
f 11//1 15//1 16//1
f 16//2 15//2 11//2
f 12//17 16//17 18//17
f 18//18 16//18 12//18
f 17//2 12//2 18//2
f 18//1 12//1 17//1
f 17//5 16//5 15//5
f 15//6 16//6 17//6
f 16//5 17//5 18//5
f 18//6 17//6 16//6
