# SSTK version 0.8.0
# 167
mtllib original-167.mtl
o mesh255/mesh255-geometry#mesh255-geometry
v 0.138515 -0.211266 0.330950
v 0.061354 -0.215668 0.330950
v 0.061354 -0.211266 0.330950
v 0.138515 -0.215668 0.330950
v 0.061354 -0.211266 0.429961
v 0.096337 -0.211266 0.339015
v 0.138515 -0.215668 0.429961
v 0.061354 -0.215668 0.429961
v 0.110887 -0.211266 0.339015
v 0.138515 -0.211266 0.429961
v 0.085097 -0.211266 0.381692
v 0.110887 -0.210560 0.339015
v 0.086203 -0.211266 0.398602
v 0.085097 -0.210560 0.381692
v 0.107898 -0.211266 0.362640
v 0.096337 -0.210560 0.339015
v 0.103443 -0.211266 0.366362
v 0.087908 -0.211266 0.423435
v 0.090709 -0.211266 0.377003
v 0.106518 -0.211266 0.379598
v 0.103443 -0.210560 0.366362
v 0.090818 -0.211266 0.394285
v 0.086203 -0.210560 0.398602
v 0.090709 -0.210560 0.377003
v 0.107898 -0.210560 0.362640
v 0.100256 -0.211266 0.385455
v 0.106518 -0.210560 0.379598
v 0.087908 -0.210560 0.423435
v 0.100256 -0.210560 0.385455
v 0.090818 -0.210560 0.394285
vn 0 0 -1
vn -1 0 0
vn 0 1 0
vn 1 0 0
vn 0 0 1
vn 0 -1 0
vn 0.9670235657003508 0 0.2546869124634778
vn -0.9648934721310083 0 -0.2626415569535163
vn -0.641202828052609 0 -0.7673714441503126
vn 0.9789281820818768 0 0.2042048342372723
vn 0.641202828052609 0 0.7673714441503126
vn -0.9204915749492678 0 -0.39076240920464245
vn 0.9950524882419324 0 0.09935061974411087
vn -0.6831695520254052 0 -0.7302597915710595
vn -0.9482299839722814 0 -0.31758447300824855
vn 0.6831695520254052 0 0.7302597915710595
vn -0.9670235657003508 0 -0.2546869124634778
vn 0.9648934721310083 0 0.2626415569535163
vn -0.9789281820818768 0 -0.2042048342372723
vn 0.9204915749492678 0 0.39076240920464245
vn -0.9950524882419324 0 -0.09935061974411087
vn 0.9482299839722814 0 0.31758447300824855
usemtl material_0_0
f 1//1 2//1 3//1
f 2//1 1//1 4//1
f 2//2 5//2 3//2
f 3//3 6//3 1//3
f 1//4 7//4 4//4
f 5//2 2//2 8//2
f 6//3 3//3 5//3
f 9//3 1//3 6//3
f 7//4 1//4 10//4
f 7//5 5//5 8//5
f 6//3 5//3 11//3
f 1//3 9//3 10//3
f 5//5 7//5 10//5
f 11//3 5//3 13//3
f 10//3 9//3 15//3
f 10//3 18//3 5//3
f 13//3 5//3 18//3
f 13//3 19//3 11//3
f 17//3 15//3 9//3
f 10//3 15//3 20//3
f 10//3 20//3 18//3
f 18//3 22//3 13//3
f 26//3 20//3 15//3
usemtl material_1_0
f 3//5 2//5 1//5
f 4//5 1//5 2//5
f 3//4 5//4 2//4
f 1//6 6//6 3//6
f 4//2 7//2 1//2
f 8//4 2//4 5//4
f 5//6 3//6 6//6
f 6//6 1//6 9//6
f 10//2 1//2 7//2
f 8//1 5//1 7//1
f 11//6 5//6 6//6
f 10//6 9//6 1//6
f 9//5 12//5 6//5
f 10//1 7//1 5//1
f 13//6 5//6 11//6
f 11//7 6//7 14//7
f 15//6 9//6 10//6
f 16//5 6//5 12//5
f 9//8 17//8 12//8
f 5//6 18//6 10//6
f 18//6 5//6 13//6
f 11//6 19//6 13//6
f 16//7 14//7 6//7
f 11//9 14//9 19//9
f 9//6 15//6 17//6
f 20//6 15//6 10//6
f 16//6 12//6 14//6
f 21//8 12//8 17//8
f 18//6 20//6 10//6
f 13//6 22//6 18//6
f 13//10 19//10 23//10
f 24//9 19//9 14//9
f 15//11 25//11 17//11
f 15//6 20//6 26//6
f 24//6 14//6 12//6
f 21//6 24//6 12//6
f 21//11 17//11 25//11
f 20//12 18//12 27//12
f 18//13 22//13 28//13
f 13//14 23//14 22//14
f 24//10 23//10 19//10
f 15//15 26//15 25//15
f 20//16 27//16 26//16
f 24//6 21//6 29//6
f 25//6 29//6 21//6
f 28//12 27//12 18//12
f 30//13 28//13 22//13
f 30//14 22//14 23//14
f 23//6 24//6 29//6
f 29//15 25//15 26//15
f 29//16 26//16 27//16
f 27//6 28//6 29//6
f 30//6 29//6 28//6
f 30//6 23//6 29//6
usemtl material_2_0
f 6//1 12//1 9//1
f 14//17 6//17 11//17
f 12//1 6//1 16//1
f 12//18 17//18 9//18
f 6//17 14//17 16//17
f 19//11 14//11 11//11
f 14//3 12//3 16//3
f 17//18 12//18 21//18
f 23//19 19//19 13//19
f 14//11 19//11 24//11
f 17//9 25//9 15//9
f 12//3 14//3 24//3
f 12//3 24//3 21//3
f 25//9 17//9 21//9
f 27//20 18//20 20//20
f 28//21 22//21 18//21
f 22//16 23//16 13//16
f 19//19 23//19 24//19
f 25//22 26//22 15//22
f 26//14 27//14 20//14
f 29//3 21//3 24//3
f 21//3 29//3 25//3
f 18//20 27//20 28//20
f 22//21 28//21 30//21
f 23//16 22//16 30//16
f 29//3 24//3 23//3
f 26//22 25//22 29//22
f 27//14 26//14 29//14
f 29//3 28//3 27//3
f 28//3 29//3 30//3
f 29//3 23//3 30//3
