mtllib new-6.mtl
v -0.163949 -0.167263 0.695017
v -0.004949 -0.167263 0.695017
v 0.154051 -0.167263 0.695017
v -0.004949 -0.166880 0.695016
v -0.163949 -0.166880 0.695016
v 0.154051 -0.167361 0.661382
v 0.154051 -0.166880 0.695016
v -0.163949 -0.166977 0.661381
v 0.155773 -0.167361 0.661269
v -0.004949 -0.166977 0.661381
v 0.157465 -0.167362 0.660933
v 0.155773 -0.166978 0.661268
v 0.154051 -0.166977 0.661381
v 0.154974 -0.167013 0.649202
v 0.159099 -0.167364 0.660378
v 0.157465 -0.166979 0.660931
v -0.165170 -0.167013 0.649202
v 0.160647 -0.167366 0.659615
v 0.159099 -0.166980 0.660377
v 0.160647 -0.166983 0.659614
v 0.162082 -0.167369 0.658656
v 0.162082 -0.166985 0.658655
v 0.163379 -0.167372 0.657518
v 0.163379 -0.166989 0.657517
vn 1.000000 0.000000 0.000000
vn -1.000000 0.000000 0.000000
vn 0.000000 -0.002895 -0.999996
vn 0.000000 0.002895 0.999996
vn 0.000000 0.999996 -0.002895
vn 0.707107 0.002047 0.707104
vn 0.500000 0.002507 0.866022
vn 0.258819 0.002796 0.965922
vn -0.258819 -0.002796 -0.965922
vn -0.500000 -0.002507 -0.866022
vn -0.707107 -0.002047 -0.707104
vn 0.000000 -0.999996 0.002895
vn -0.130526 -0.002870 -0.991441
vn -0.065403 -0.002889 -0.997855
vn -0.382683 -0.002675 -0.923876
vn 0.065403 0.002889 0.997855
vn 0.130526 0.002870 0.991441
vn -0.608761 -0.002297 -0.793350
vn 0.382683 0.002675 0.923876
vn 0.608761 0.002297 0.793350
usemtl material-1
f 2//3 1//3 4//3
f 2//3 4//3 3//3
f 5//3 4//3 1//3
f 5//12 8//12 4//12
f 3//2 7//2 6//2
f 4//12 10//12 7//12
f 10//12 4//12 8//12
f 9//13 6//14 12//13
f 13//2 6//2 7//2
f 13//12 7//12 10//12
f 10//12 8//12 14//12
f 11//9 9//13 16//9
f 13//14 12//13 6//14
f 12//13 16//9 9//13
f 13//12 10//12 14//12
f 14//12 8//12 17//12
f 15//15 11//9 19//15
f 16//9 19//15 11//9
f 12//12 13//12 14//12
f 18//10 15//15 20//10
f 19//15 20//10 15//15
f 20//10 22//18 18//10
f 21//18 18//10 22//18
f 23//11 21//18 24//11
f 22//18 24//11 21//18
usemtl material-5
f 4//4 1//4 2//4
f 3//4 4//4 2//4
f 1//4 4//4 5//4
f 4//5 8//5 5//5
f 6//1 7//1 3//1
f 7//5 10//5 4//5
f 8//5 4//5 10//5
f 12//17 6//16 9//17
f 7//1 6//1 13//1
f 10//5 7//5 13//5
f 14//5 8//5 10//5
f 16//8 9//17 11//8
f 6//16 12//17 13//16
f 9//17 16//8 12//17
f 14//5 10//5 13//5
f 17//5 8//5 14//5
f 19//19 11//8 15//19
f 11//8 19//19 16//8
f 14//5 13//5 12//5
f 20//7 15//19 18//7
f 15//19 20//7 19//19
f 18//7 22//20 20//7
f 22//20 18//7 21//20
f 24//6 21//20 23//6
f 21//20 24//6 22//20