# SSTK version 0.8.0
# 184
mtllib original-184.mtl
o mesh154/mesh154-geometry#mesh154-geometry
v -0.489411 -0.167846 0.197170
v -0.489345 -0.167838 0.199618
v -0.489393 -0.167837 0.200095
v -0.488893 -0.167847 0.196907
v -0.489740 -0.167827 0.202868
v -0.489204 -0.167840 0.199186
v -0.489873 -0.167845 0.197534
v -0.489270 -0.167826 0.203152
v -0.488975 -0.167841 0.198826
v -0.490134 -0.167829 0.202471
v -0.489290 -0.167834 0.200797
v -0.488666 -0.167842 0.198565
v -0.490267 -0.167844 0.198016
v -0.488980 -0.167832 0.201371
v -0.487683 -0.167848 0.196620
v -0.490445 -0.167830 0.201985
v -0.488723 -0.167826 0.203323
v -0.487479 -0.167843 0.198182
v -0.490577 -0.167841 0.198634
v -0.488472 -0.167831 0.201753
v -0.486251 -0.167849 0.196317
v -0.490667 -0.167832 0.201436
v -0.488099 -0.167826 0.203380
v -0.486181 -0.167844 0.197853
v -0.490778 -0.167839 0.199355
v -0.487774 -0.167831 0.201881
v -0.485254 -0.167850 0.195961
v -0.490801 -0.167834 0.200824
v -0.487322 -0.167826 0.203287
v -0.485254 -0.167845 0.197459
v -0.490845 -0.167836 0.200148
v -0.487030 -0.167831 0.201760
v -0.485247 -0.167852 0.195461
v -0.486597 -0.167827 0.203008
v -0.485254 -0.167843 0.198161
v -0.486374 -0.167832 0.201397
v -0.485141 -0.167831 0.201732
v -0.485883 -0.167829 0.202503
v -0.485309 -0.167839 0.199272
v -0.484757 -0.167863 0.192306
v -0.485842 -0.167834 0.200825
v -0.485474 -0.167837 0.200074
v -0.485315 -0.167864 0.191922
v -0.485042 -0.167829 0.202479
v -0.485343 -0.167855 0.194465
v -0.484868 -0.167826 0.203124
v -0.485632 -0.167858 0.193814
v -0.483790 -0.167831 0.201769
v -0.486054 -0.167865 0.191667
v -0.484369 -0.167861 0.192777
v -0.483661 -0.167829 0.202461
v -0.486281 -0.167859 0.193327
v -0.484112 -0.167859 0.193361
v -0.483446 -0.167826 0.203124
v -0.486987 -0.167865 0.191582
v -0.483877 -0.167842 0.198395
v -0.487183 -0.167860 0.193165
v -0.483945 -0.167857 0.194079
v -0.487961 -0.167865 0.191681
v -0.483877 -0.167851 0.195844
v -0.488019 -0.167859 0.193284
v -0.488602 -0.167858 0.193638
v -0.488810 -0.167864 0.191980
v -0.489000 -0.167856 0.194293
v -0.489279 -0.167853 0.195312
v -0.489504 -0.167862 0.192464
v -0.490013 -0.167860 0.193117
v -0.490371 -0.167857 0.193972
v -0.490611 -0.167853 0.195057
vn 0 -0.9999944440187541 0.0033334564077893954
vn 0 0.9999944440187541 -0.0033334564077893954
usemtl material_0_0
f 1//1 2//1 3//1
f 2//1 1//1 4//1
f 3//2 2//2 1//2
f 4//2 1//2 2//2
f 5//1 1//1 3//1
f 3//2 1//2 5//2
f 2//1 4//1 6//1
f 6//2 4//2 2//2
f 5//1 7//1 1//1
f 1//2 7//2 5//2
f 5//1 3//1 8//1
f 8//2 3//2 5//2
f 6//1 4//1 9//1
f 9//2 4//2 6//2
f 10//1 7//1 5//1
f 5//2 7//2 10//2
f 8//1 3//1 11//1
f 11//2 3//2 8//2
f 9//1 4//1 12//1
f 12//2 4//2 9//2
f 10//1 13//1 7//1
f 7//2 13//2 10//2
f 8//1 11//1 14//1
f 14//2 11//2 8//2
f 12//1 4//1 15//1
f 15//2 4//2 12//2
f 16//1 13//1 10//1
f 10//2 13//2 16//2
f 8//1 14//1 17//1
f 17//2 14//2 8//2
f 12//1 15//1 18//1
f 18//2 15//2 12//2
f 16//1 19//1 13//1
f 13//2 19//2 16//2
f 17//1 14//1 20//1
f 20//2 14//2 17//2
f 18//1 15//1 21//1
f 21//2 15//2 18//2
f 22//1 19//1 16//1
f 16//2 19//2 22//2
f 17//1 20//1 23//1
f 23//2 20//2 17//2
f 18//1 21//1 24//1
f 24//2 21//2 18//2
f 22//1 25//1 19//1
f 19//2 25//2 22//2
f 23//1 20//1 26//1
f 26//2 20//2 23//2
f 24//1 21//1 27//1
f 27//2 21//2 24//2
f 28//1 25//1 22//1
f 22//2 25//2 28//2
f 23//1 26//1 29//1
f 29//2 26//2 23//2
f 24//1 27//1 30//1
f 30//2 27//2 24//2
f 25//1 28//1 31//1
f 31//2 28//2 25//2
f 29//1 26//1 32//1
f 32//2 26//2 29//2
f 30//1 27//1 33//1
f 33//2 27//2 30//2
f 29//1 32//1 34//1
f 34//2 32//2 29//2
f 30//1 33//1 35//1
f 35//2 33//2 30//2
f 34//1 32//1 36//1
f 36//2 32//2 34//2
f 37//1 35//1 33//1
f 33//2 35//2 37//2
f 34//1 36//1 38//1
f 38//2 36//2 34//2
f 37//1 39//1 35//1
f 35//2 39//2 37//2
f 33//1 40//1 37//1
f 37//2 40//2 33//2
f 38//1 36//1 41//1
f 41//2 36//2 38//2
f 37//1 42//1 39//1
f 39//2 42//2 37//2
f 33//1 43//1 40//1
f 40//2 43//2 33//2
f 37//1 40//1 44//1
f 44//2 40//2 37//2
f 38//1 41//1 37//1
f 37//2 41//2 38//2
f 37//1 41//1 42//1
f 42//2 41//2 37//2
f 45//1 43//1 33//1
f 33//2 43//2 45//2
f 44//1 40//1 46//1
f 46//2 40//2 44//2
f 47//1 43//1 45//1
f 45//2 43//2 47//2
f 46//1 40//1 48//1
f 48//2 40//2 46//2
f 47//1 49//1 43//1
f 43//2 49//2 47//2
f 48//1 40//1 50//1
f 50//2 40//2 48//2
f 46//1 48//1 51//1
f 51//2 48//2 46//2
f 52//1 49//1 47//1
f 47//2 49//2 52//2
f 48//1 50//1 53//1
f 53//2 50//2 48//2
f 46//1 51//1 54//1
f 54//2 51//2 46//2
f 52//1 55//1 49//1
f 49//2 55//2 52//2
f 48//1 53//1 56//1
f 56//2 53//2 48//2
f 57//1 55//1 52//1
f 52//2 55//2 57//2
f 56//1 53//1 58//1
f 58//2 53//2 56//2
f 57//1 59//1 55//1
f 55//2 59//2 57//2
f 56//1 58//1 60//1
f 60//2 58//2 56//2
f 61//1 59//1 57//1
f 57//2 59//2 61//2
f 62//1 59//1 61//1
f 61//2 59//2 62//2
f 62//1 63//1 59//1
f 59//2 63//2 62//2
f 64//1 63//1 62//1
f 62//2 63//2 64//2
f 65//1 63//1 64//1
f 64//2 63//2 65//2
f 65//1 66//1 63//1
f 63//2 66//2 65//2
f 65//1 67//1 66//1
f 66//2 67//2 65//2
f 65//1 68//1 67//1
f 67//2 68//2 65//2
f 68//1 65//1 69//1
f 69//2 65//2 68//2
