# SSTK version 0.8.0
# 132
mtllib original-132.mtl
o _2_1/_2/mesh110/mesh110-geometry#mesh110-geometry
v -0.401917 -0.167920 0.154072
v -0.400213 -0.167915 0.155721
v -0.402079 -0.167915 0.155452
v -0.401623 -0.167924 0.152867
v -0.401196 -0.167927 0.151837
v -0.400637 -0.167930 0.150981
v -0.399958 -0.167933 0.150308
v -0.400009 -0.167920 0.153978
v -0.399761 -0.167923 0.153266
v -0.399172 -0.167934 0.149828
v -0.399416 -0.167925 0.152660
v -0.398990 -0.167926 0.152177
v -0.398278 -0.167935 0.149539
v -0.398498 -0.167927 0.151831
v -0.397318 -0.167928 0.151555
v -0.397278 -0.167935 0.149443
v -0.396194 -0.167928 0.151815
v -0.396269 -0.167935 0.149547
v -0.395371 -0.167934 0.149858
v -0.395305 -0.167925 0.152596
v -0.394584 -0.167932 0.150376
v -0.394727 -0.167921 0.153757
v -0.394534 -0.167916 0.155154
v -0.393908 -0.167930 0.151101
v -0.394236 -0.167900 0.160199
v -0.393514 -0.167904 0.158899
v -0.394746 -0.167911 0.156644
v -0.393366 -0.167927 0.151980
v -0.395357 -0.167894 0.161780
v -0.393031 -0.167908 0.157663
v -0.395381 -0.167906 0.158223
v -0.392978 -0.167924 0.152958
v -0.396619 -0.167900 0.160134
v -0.392758 -0.167912 0.156448
v -0.397036 -0.167887 0.163856
v -0.392745 -0.167920 0.154035
v -0.398639 -0.167892 0.162623
v -0.392668 -0.167916 0.155211
v -0.399134 -0.167879 0.166470
v -0.399900 -0.167874 0.167852
v -0.400010 -0.167886 0.164302
v -0.401015 -0.167881 0.165769
v -0.401725 -0.167876 0.167140
v -0.402210 -0.167872 0.168532
v -0.392647 -0.167866 0.170304
v -0.402379 -0.167869 0.169400
v -0.392647 -0.167874 0.167852
v -0.402422 -0.167866 0.170304
vn 0 -0.9999944440187541 0.0033334564077893954
vn 0 0.9999944440187541 -0.0033334564077893954
usemtl material_0_0
f 1//1 2//1 3//1
f 2//1 1//1 4//1
f 3//2 2//2 1//2
f 4//2 1//2 2//2
f 2//1 4//1 5//1
f 5//2 4//2 2//2
f 2//1 5//1 6//1
f 6//2 5//2 2//2
f 2//1 6//1 7//1
f 7//2 6//2 2//2
f 2//1 7//1 8//1
f 8//2 7//2 2//2
f 8//1 7//1 9//1
f 9//2 7//2 8//2
f 9//1 7//1 10//1
f 10//2 7//2 9//2
f 9//1 10//1 11//1
f 11//2 10//2 9//2
f 11//1 10//1 12//1
f 12//2 10//2 11//2
f 12//1 10//1 13//1
f 13//2 10//2 12//2
f 12//1 13//1 14//1
f 14//2 13//2 12//2
f 14//1 13//1 15//1
f 15//2 13//2 14//2
f 15//1 13//1 16//1
f 16//2 13//2 15//2
f 15//1 16//1 17//1
f 17//2 16//2 15//2
f 17//1 16//1 18//1
f 18//2 16//2 17//2
f 17//1 18//1 19//1
f 19//2 18//2 17//2
f 17//1 19//1 20//1
f 20//2 19//2 17//2
f 20//1 19//1 21//1
f 21//2 19//2 20//2
f 20//1 21//1 22//1
f 22//2 21//2 20//2
f 22//1 21//1 23//1
f 23//2 21//2 22//2
f 23//1 21//1 24//1
f 24//2 21//2 23//2
f 23//1 24//1 25//1
f 25//2 24//2 23//2
f 25//1 24//1 26//1
f 26//2 24//2 25//2
f 25//1 27//1 23//1
f 23//2 27//2 25//2
f 26//1 24//1 28//1
f 28//2 24//2 26//2
f 29//1 27//1 25//1
f 25//2 27//2 29//2
f 26//1 28//1 30//1
f 30//2 28//2 26//2
f 29//1 31//1 27//1
f 27//2 31//2 29//2
f 30//1 28//1 32//1
f 32//2 28//2 30//2
f 29//1 33//1 31//1
f 31//2 33//2 29//2
f 30//1 32//1 34//1
f 34//2 32//2 30//2
f 35//1 33//1 29//1
f 29//2 33//2 35//2
f 34//1 32//1 36//1
f 36//2 32//2 34//2
f 35//1 37//1 33//1
f 33//2 37//2 35//2
f 34//1 36//1 38//1
f 38//2 36//2 34//2
f 39//1 37//1 35//1
f 35//2 37//2 39//2
f 40//1 37//1 39//1
f 39//2 37//2 40//2
f 37//1 40//1 41//1
f 41//2 40//2 37//2
f 40//1 42//1 41//1
f 41//2 42//2 40//2
f 40//1 43//1 42//1
f 42//2 43//2 40//2
f 40//1 44//1 43//1
f 43//2 44//2 40//2
f 45//1 44//1 40//1
f 40//2 44//2 45//2
f 45//1 46//1 44//1
f 44//2 46//2 45//2
f 45//1 40//1 47//1
f 47//2 40//2 45//2
f 46//1 45//1 48//1
f 48//2 45//2 46//2
