# SSTK version 0.8.0
# 71
mtllib original-71.mtl
o mesh55/mesh55-geometry#mesh55-geometry
v 0.126961 -0.168071 0.079451
v 0.126659 -0.168063 0.081868
v 0.126424 -0.168070 0.079888
v 0.126760 -0.168065 0.081270
v 0.126764 -0.168055 0.084220
v 0.127065 -0.168067 0.080766
v 0.126302 -0.168057 0.083783
v 0.126730 -0.168061 0.082378
v 0.127606 -0.168072 0.079186
v 0.126033 -0.168068 0.080489
v 0.126946 -0.168060 0.082789
v 0.127298 -0.168067 0.080566
v 0.125975 -0.168059 0.083253
v 0.127326 -0.168054 0.084534
v 0.127591 -0.168068 0.080423
v 0.125795 -0.168065 0.081199
v 0.127456 -0.168059 0.083154
v 0.128358 -0.168068 0.080309
v 0.125780 -0.168061 0.082641
v 0.128192 -0.168053 0.084868
v 0.128318 -0.168072 0.079097
v 0.125715 -0.168063 0.081960
v 0.128421 -0.168058 0.083529
v 0.129092 -0.168072 0.079190
v 0.129508 -0.168051 0.085375
v 0.129107 -0.168068 0.080434
v 0.129427 -0.168056 0.083884
v 0.129768 -0.168071 0.079469
v 0.130058 -0.168055 0.084192
v 0.129403 -0.168067 0.080592
v 0.129907 -0.168051 0.085652
v 0.129647 -0.168067 0.080812
v 0.130174 -0.168049 0.085988
v 0.129843 -0.168066 0.081093
v 0.130619 -0.168054 0.084666
v 0.130324 -0.168070 0.079929
v 0.130325 -0.168048 0.086384
v 0.129993 -0.168065 0.081435
v 0.130376 -0.168047 0.086842
v 0.130159 -0.168062 0.082300
v 0.130569 -0.168040 0.088943
v 0.131097 -0.168062 0.082201
v 0.130981 -0.168042 0.088291
v 0.130324 -0.168045 0.087305
v 0.130734 -0.168068 0.080564
v 0.131011 -0.168052 0.085251
v 0.130167 -0.168044 0.087731
v 0.130994 -0.168065 0.081334
v 0.131235 -0.168044 0.087534
v 0.130010 -0.168038 0.089432
v 0.131242 -0.168050 0.085941
v 0.129902 -0.168042 0.088095
v 0.131319 -0.168047 0.086728
v 0.129529 -0.168041 0.088372
v 0.129337 -0.168037 0.089737
v 0.129067 -0.168041 0.088548
v 0.128585 -0.168037 0.089839
v 0.128540 -0.168041 0.088606
v 0.127941 -0.168041 0.088529
v 0.127663 -0.168037 0.089736
v 0.127405 -0.168042 0.088298
v 0.126967 -0.168043 0.087942
v 0.126903 -0.168038 0.089428
v 0.126661 -0.168044 0.087490
v 0.126465 -0.168046 0.086921
v 0.126298 -0.168040 0.088914
v 0.126356 -0.168049 0.086211
v 0.125839 -0.168042 0.088192
v 0.125545 -0.168045 0.087312
v 0.125433 -0.168048 0.086325
vn 0 -0.9999944440187541 0.0033334564077893954
vn 0 0.9999944440187541 -0.0033334564077893954
usemtl material_0_0
f 1//1 2//1 3//1
f 2//1 1//1 4//1
f 3//2 2//2 1//2
f 4//2 1//2 2//2
f 5//1 3//1 2//1
f 2//2 3//2 5//2
f 4//1 1//1 6//1
f 6//2 1//2 4//2
f 7//1 3//1 5//1
f 5//2 3//2 7//2
f 5//1 2//1 8//1
f 8//2 2//2 5//2
f 6//1 1//1 9//1
f 9//2 1//2 6//2
f 7//1 10//1 3//1
f 3//2 10//2 7//2
f 5//1 8//1 11//1
f 11//2 8//2 5//2
f 6//1 9//1 12//1
f 12//2 9//2 6//2
f 13//1 10//1 7//1
f 7//2 10//2 13//2
f 5//1 11//1 14//1
f 14//2 11//2 5//2
f 12//1 9//1 15//1
f 15//2 9//2 12//2
f 13//1 16//1 10//1
f 10//2 16//2 13//2
f 14//1 11//1 17//1
f 17//2 11//2 14//2
f 15//1 9//1 18//1
f 18//2 9//2 15//2
f 19//1 16//1 13//1
f 13//2 16//2 19//2
f 14//1 17//1 20//1
f 20//2 17//2 14//2
f 18//1 9//1 21//1
f 21//2 9//2 18//2
f 16//1 19//1 22//1
f 22//2 19//2 16//2
f 20//1 17//1 23//1
f 23//2 17//2 20//2
f 18//1 21//1 24//1
f 24//2 21//2 18//2
f 20//1 23//1 25//1
f 25//2 23//2 20//2
f 18//1 24//1 26//1
f 26//2 24//2 18//2
f 25//1 23//1 27//1
f 27//2 23//2 25//2
f 26//1 24//1 28//1
f 28//2 24//2 26//2
f 25//1 27//1 29//1
f 29//2 27//2 25//2
f 26//1 28//1 30//1
f 30//2 28//2 26//2
f 25//1 29//1 31//1
f 31//2 29//2 25//2
f 30//1 28//1 32//1
f 32//2 28//2 30//2
f 31//1 29//1 33//1
f 33//2 29//2 31//2
f 32//1 28//1 34//1
f 34//2 28//2 32//2
f 33//1 29//1 35//1
f 35//2 29//2 33//2
f 34//1 28//1 36//1
f 36//2 28//2 34//2
f 33//1 35//1 37//1
f 37//2 35//2 33//2
f 34//1 36//1 38//1
f 38//2 36//2 34//2
f 37//1 35//1 39//1
f 39//2 35//2 37//2
f 38//1 36//1 40//1
f 40//2 36//2 38//2
f 39//1 35//1 41//1
f 41//2 35//2 39//2
f 40//1 36//1 42//1
f 42//2 36//2 40//2
f 41//1 35//1 43//1
f 43//2 35//2 41//2
f 41//1 44//1 39//1
f 39//2 44//2 41//2
f 42//1 36//1 45//1
f 45//2 36//2 42//2
f 43//1 35//1 46//1
f 46//2 35//2 43//2
f 41//1 47//1 44//1
f 44//2 47//2 41//2
f 42//1 45//1 48//1
f 48//2 45//2 42//2
f 43//1 46//1 49//1
f 49//2 46//2 43//2
f 50//1 47//1 41//1
f 41//2 47//2 50//2
f 49//1 46//1 51//1
f 51//2 46//2 49//2
f 50//1 52//1 47//1
f 47//2 52//2 50//2
f 49//1 51//1 53//1
f 53//2 51//2 49//2
f 50//1 54//1 52//1
f 52//2 54//2 50//2
f 55//1 54//1 50//1
f 50//2 54//2 55//2
f 55//1 56//1 54//1
f 54//2 56//2 55//2
f 57//1 56//1 55//1
f 55//2 56//2 57//2
f 57//1 58//1 56//1
f 56//2 58//2 57//2
f 57//1 59//1 58//1
f 58//2 59//2 57//2
f 60//1 59//1 57//1
f 57//2 59//2 60//2
f 60//1 61//1 59//1
f 59//2 61//2 60//2
f 60//1 62//1 61//1
f 61//2 62//2 60//2
f 63//1 62//1 60//1
f 60//2 62//2 63//2
f 63//1 64//1 62//1
f 62//2 64//2 63//2
f 63//1 65//1 64//1
f 64//2 65//2 63//2
f 66//1 65//1 63//1
f 63//2 65//2 66//2
f 66//1 67//1 65//1
f 65//2 67//2 66//2
f 68//1 67//1 66//1
f 66//2 67//2 68//2
f 69//1 67//1 68//1
f 68//2 67//2 69//2
f 67//1 69//1 70//1
f 70//2 69//2 67//2
