# SSTK version 0.8.0
# 368
mtllib original-368.mtl
o mesh315/mesh315-geometry#mesh315-geometry
v -0.545578 -0.198399 0.059578
v -0.545578 -0.211998 0.058060
v -0.545578 -0.198399 0.058060
v -0.545578 -0.203370 0.059569
v -0.545578 -0.199677 0.059578
v -0.545578 -0.211998 0.059726
v -0.545578 -0.202478 0.059620
v -0.545578 -0.204257 0.059617
v -0.545578 -0.199021 0.060150
v -0.545578 -0.207212 0.059726
v -0.545578 -0.201698 0.059774
v -0.545578 -0.205021 0.059761
v -0.545578 -0.201031 0.060030
v -0.545578 -0.207703 0.060211
v -0.545578 -0.200477 0.060388
v -0.545578 -0.205660 0.060001
v -0.545578 -0.198552 0.060791
v -0.545578 -0.206175 0.060337
v -0.545578 -0.200042 0.060813
v -0.545578 -0.208101 0.060814
v -0.545578 -0.198271 0.061538
v -0.545578 -0.206572 0.060742
v -0.545578 -0.199731 0.061269
v -0.545578 -0.206856 0.061187
v -0.545578 -0.199545 0.061755
v -0.545578 -0.208365 0.061519
v -0.545578 -0.198177 0.062429
v -0.545578 -0.207026 0.061672
v -0.545578 -0.199482 0.062272
v -0.545578 -0.208453 0.062309
v -0.545578 -0.199541 0.062790
v -0.545578 -0.207083 0.062198
v -0.545578 -0.198339 0.063614
v -0.545578 -0.207024 0.062734
v -0.545578 -0.199716 0.063271
v -0.545578 -0.208292 0.063421
v -0.545578 -0.200008 0.063714
v -0.545578 -0.206848 0.063229
v -0.545578 -0.198825 0.064651
v -0.545578 -0.206554 0.063685
v -0.545578 -0.200417 0.064119
v -0.545578 -0.207809 0.064480
v -0.545578 -0.200944 0.064457
v -0.545578 -0.206143 0.064100
v -0.545578 -0.201588 0.064699
v -0.545578 -0.205609 0.064447
v -0.545578 -0.199606 0.065496
v -0.545578 -0.204945 0.064694
v -0.545578 -0.202351 0.064844
v -0.545578 -0.207025 0.065390
v -0.545578 -0.203232 0.064892
v -0.545578 -0.204153 0.064842
v -0.545578 -0.205958 0.066054
v -0.545578 -0.200653 0.066105
v -0.545578 -0.204675 0.066460
v -0.545578 -0.201890 0.066473
v -0.545578 -0.203241 0.066595
vn 1 0 0
vn -1 0 0
usemtl material_0_0
f 1//1 2//1 3//1
f 2//1 1//1 4//1
f 3//2 2//2 1//2
f 4//2 1//2 2//2
f 4//1 1//1 5//1
f 5//2 1//2 4//2
f 4//1 6//1 2//1
f 2//2 6//2 4//2
f 4//1 5//1 7//1
f 7//2 5//2 4//2
f 6//1 4//1 8//1
f 8//2 4//2 6//2
f 7//1 5//1 9//1
f 9//2 5//2 7//2
f 6//1 8//1 10//1
f 10//2 8//2 6//2
f 7//1 9//1 11//1
f 11//2 9//2 7//2
f 12//1 10//1 8//1
f 8//2 10//2 12//2
f 11//1 9//1 13//1
f 13//2 9//2 11//2
f 10//1 12//1 14//1
f 14//2 12//2 10//2
f 13//1 9//1 15//1
f 15//2 9//2 13//2
f 14//1 12//1 16//1
f 16//2 12//2 14//2
f 15//1 9//1 17//1
f 17//2 9//2 15//2
f 14//1 16//1 18//1
f 18//2 16//2 14//2
f 15//1 17//1 19//1
f 19//2 17//2 15//2
f 14//1 18//1 20//1
f 20//2 18//2 14//2
f 19//1 17//1 21//1
f 21//2 17//2 19//2
f 20//1 18//1 22//1
f 22//2 18//2 20//2
f 19//1 21//1 23//1
f 23//2 21//2 19//2
f 20//1 22//1 24//1
f 24//2 22//2 20//2
f 23//1 21//1 25//1
f 25//2 21//2 23//2
f 20//1 24//1 26//1
f 26//2 24//2 20//2
f 25//1 21//1 27//1
f 27//2 21//2 25//2
f 26//1 24//1 28//1
f 28//2 24//2 26//2
f 25//1 27//1 29//1
f 29//2 27//2 25//2
f 26//1 28//1 30//1
f 30//2 28//2 26//2
f 29//1 27//1 31//1
f 31//2 27//2 29//2
f 30//1 28//1 32//1
f 32//2 28//2 30//2
f 31//1 27//1 33//1
f 33//2 27//2 31//2
f 30//1 32//1 34//1
f 34//2 32//2 30//2
f 31//1 33//1 35//1
f 35//2 33//2 31//2
f 30//1 34//1 36//1
f 36//2 34//2 30//2
f 35//1 33//1 37//1
f 37//2 33//2 35//2
f 36//1 34//1 38//1
f 38//2 34//2 36//2
f 37//1 33//1 39//1
f 39//2 33//2 37//2
f 36//1 38//1 40//1
f 40//2 38//2 36//2
f 37//1 39//1 41//1
f 41//2 39//2 37//2
f 36//1 40//1 42//1
f 42//2 40//2 36//2
f 41//1 39//1 43//1
f 43//2 39//2 41//2
f 42//1 40//1 44//1
f 44//2 40//2 42//2
f 43//1 39//1 45//1
f 45//2 39//2 43//2
f 42//1 44//1 46//1
f 46//2 44//2 42//2
f 45//1 39//1 47//1
f 47//2 39//2 45//2
f 42//1 46//1 48//1
f 48//2 46//2 42//2
f 45//1 47//1 49//1
f 49//2 47//2 45//2
f 42//1 48//1 50//1
f 50//2 48//2 42//2
f 49//1 47//1 51//1
f 51//2 47//2 49//2
f 50//1 48//1 52//1
f 52//2 48//2 50//2
f 51//1 47//1 50//1
f 50//2 47//2 51//2
f 50//1 52//1 51//1
f 51//2 52//2 50//2
f 50//1 47//1 53//1
f 53//2 47//2 50//2
f 53//1 47//1 54//1
f 54//2 47//2 53//2
f 53//1 54//1 55//1
f 55//2 54//2 53//2
f 55//1 54//1 56//1
f 56//2 54//2 55//2
f 55//1 56//1 57//1
f 57//2 56//2 55//2
