# SSTK version 0.8.0
# 186
mtllib original-186.mtl
o __1_19/__19/mesh156/mesh156-geometry#mesh156-geometry
v -0.304796 -0.167989 0.120464
v -0.306216 -0.167984 0.122186
v -0.306216 -0.167991 0.120032
v -0.305423 -0.167982 0.122578
v -0.306216 -0.167909 0.144492
v -0.304819 -0.167980 0.123242
v -0.306216 -0.167995 0.118813
v -0.306216 -0.167959 0.129541
v -0.304396 -0.167977 0.124218
v -0.307285 -0.167909 0.144492
v -0.306216 -0.167951 0.132021
v -0.303704 -0.167986 0.121336
v -0.307285 -0.167918 0.141941
v -0.304400 -0.167957 0.130292
v -0.306216 -0.167925 0.139787
v -0.304148 -0.167972 0.125545
v -0.307285 -0.167925 0.139787
v -0.304997 -0.167948 0.132732
v -0.306216 -0.167918 0.141913
v -0.302272 -0.167974 0.125148
v -0.307285 -0.167952 0.131667
v -0.307801 -0.167925 0.139634
v -0.304264 -0.167946 0.133531
v -0.305249 -0.167926 0.139373
v -0.303168 -0.167984 0.122095
v -0.307285 -0.167960 0.129215
v -0.308279 -0.167926 0.139330
v -0.303631 -0.167955 0.130873
v -0.305307 -0.167918 0.141747
v -0.302751 -0.167981 0.122983
v -0.307285 -0.167984 0.122158
v -0.308346 -0.167962 0.128602
v -0.308520 -0.167919 0.141607
v -0.303897 -0.167943 0.134510
v -0.304486 -0.167920 0.141375
v -0.302452 -0.167978 0.124001
v -0.307285 -0.167991 0.120032
v -0.308418 -0.167954 0.131213
v -0.309121 -0.167930 0.138271
v -0.303775 -0.167938 0.135763
v -0.304466 -0.167929 0.138498
v -0.307285 -0.167995 0.118813
v -0.308232 -0.167982 0.122569
v -0.309045 -0.167965 0.127812
v -0.309499 -0.167921 0.141084
v -0.303753 -0.167922 0.140797
v -0.308869 -0.167989 0.120507
v -0.309435 -0.167968 0.126827
v -0.309575 -0.167934 0.137035
v -0.303109 -0.167924 0.140014
v -0.303947 -0.167933 0.137261
v -0.308955 -0.167980 0.123348
v -0.309575 -0.167956 0.130448
v -0.309868 -0.167940 0.135252
v -0.303018 -0.167952 0.131568
v -0.309412 -0.167976 0.124400
v -0.309565 -0.167972 0.125630
v -0.310294 -0.167923 0.140278
v -0.302584 -0.167927 0.139073
v -0.309494 -0.167988 0.120909
v -0.310009 -0.167986 0.121421
v -0.310972 -0.167927 0.139093
v -0.302545 -0.167950 0.132390
v -0.310343 -0.167959 0.129637
v -0.311463 -0.167932 0.137566
v -0.302209 -0.167931 0.138023
v -0.310609 -0.167983 0.122329
v -0.311693 -0.167938 0.135734
v -0.302196 -0.167946 0.133353
v -0.310912 -0.167962 0.128563
v -0.301984 -0.167935 0.136863
v -0.311038 -0.167980 0.123366
v -0.301980 -0.167943 0.134430
v -0.311264 -0.167967 0.127277
v -0.301908 -0.167939 0.135593
v -0.311295 -0.167976 0.124532
v -0.311381 -0.167972 0.125828
vn 0 -0.9999944440187541 0.0033334564077893954
vn 0 0.9999944440187541 -0.0033334564077893954
usemtl material_0_0
f 1//1 2//1 3//1
f 2//1 1//1 4//1
f 3//2 2//2 1//2
f 4//2 1//2 2//2
f 5//1 3//1 2//1
f 2//2 3//2 5//2
f 4//1 1//1 6//1
f 6//2 1//2 4//2
f 5//1 7//1 3//1
f 3//2 7//2 5//2
f 5//1 2//1 8//1
f 8//2 2//2 5//2
f 6//1 1//1 9//1
f 9//2 1//2 6//2
f 10//1 7//1 5//1
f 5//2 7//2 10//2
f 5//1 8//1 11//1
f 11//2 8//2 5//2
f 9//1 1//1 12//1
f 12//2 1//2 9//2
f 13//1 7//1 10//1
f 10//2 7//2 13//2
f 14//1 11//1 8//1
f 8//2 11//2 14//2
f 5//1 11//1 15//1
f 15//2 11//2 5//2
f 9//1 12//1 16//1
f 16//2 12//2 9//2
f 17//1 7//1 13//1
f 13//2 7//2 17//2
f 11//1 14//1 18//1
f 18//2 14//2 11//2
f 5//1 15//1 19//1
f 19//2 15//2 5//2
f 16//1 12//1 20//1
f 20//2 12//2 16//2
f 21//1 7//1 17//1
f 17//2 7//2 21//2
f 13//1 22//1 17//1
f 17//2 22//2 13//2
f 18//1 14//1 23//1
f 23//2 14//2 18//2
f 24//1 19//1 15//1
f 15//2 19//2 24//2
f 20//1 12//1 25//1
f 25//2 12//2 20//2
f 26//1 7//1 21//1
f 21//2 7//2 26//2
f 13//1 27//1 22//1
f 22//2 27//2 13//2
f 23//1 14//1 28//1
f 28//2 14//2 23//2
f 19//1 24//1 29//1
f 29//2 24//2 19//2
f 20//1 25//1 30//1
f 30//2 25//2 20//2
f 31//1 7//1 26//1
f 26//2 7//2 31//2
f 21//1 32//1 26//1
f 26//2 32//2 21//2
f 33//1 27//1 13//1
f 13//2 27//2 33//2
f 23//1 28//1 34//1
f 34//2 28//2 23//2
f 29//1 24//1 35//1
f 35//2 24//2 29//2
f 20//1 30//1 36//1
f 36//2 30//2 20//2
f 37//1 7//1 31//1
f 31//2 7//2 37//2
f 38//1 32//1 21//1
f 21//2 32//2 38//2
f 33//1 39//1 27//1
f 27//2 39//2 33//2
f 34//1 28//1 40//1
f 40//2 28//2 34//2
f 35//1 24//1 41//1
f 41//2 24//2 35//2
f 7//1 37//1 42//1
f 42//2 37//2 7//2
f 43//1 37//1 31//1
f 31//2 37//2 43//2
f 38//1 44//1 32//1
f 32//2 44//2 38//2
f 45//1 39//1 33//1
f 33//2 39//2 45//2
f 40//1 28//1 46//1
f 46//2 28//2 40//2
f 35//1 41//1 46//1
f 46//2 41//2 35//2
f 43//1 47//1 37//1
f 37//2 47//2 43//2
f 38//1 48//1 44//1
f 44//2 48//2 38//2
f 45//1 49//1 39//1
f 39//2 49//2 45//2
f 46//1 28//1 50//1
f 50//2 28//2 46//2
f 46//1 51//1 40//1
f 40//2 51//2 46//2
f 46//1 41//1 51//1
f 51//2 41//2 46//2
f 52//1 47//1 43//1
f 43//2 47//2 52//2
f 53//1 48//1 38//1
f 38//2 48//2 53//2
f 45//1 54//1 49//1
f 49//2 54//2 45//2
f 50//1 28//1 55//1
f 55//2 28//2 50//2
f 56//1 47//1 52//1
f 52//2 47//2 56//2
f 48//1 53//1 57//1
f 57//2 53//2 48//2
f 58//1 54//1 45//1
f 45//2 54//2 58//2
f 50//1 55//1 59//1
f 59//2 55//2 50//2
f 56//1 60//1 47//1
f 47//2 60//2 56//2
f 53//1 61//1 57//1
f 57//2 61//2 53//2
f 62//1 54//1 58//1
f 58//2 54//2 62//2
f 59//1 55//1 63//1
f 63//2 55//2 59//2
f 57//1 60//1 56//1
f 56//2 60//2 57//2
f 64//1 61//1 53//1
f 53//2 61//2 64//2
f 57//1 61//1 60//1
f 60//2 61//2 57//2
f 65//1 54//1 62//1
f 62//2 54//2 65//2
f 59//1 63//1 66//1
f 66//2 63//2 59//2
f 64//1 67//1 61//1
f 61//2 67//2 64//2
f 54//1 65//1 68//1
f 68//2 65//2 54//2
f 66//1 63//1 69//1
f 69//2 63//2 66//2
f 70//1 67//1 64//1
f 64//2 67//2 70//2
f 66//1 69//1 71//1
f 71//2 69//2 66//2
f 70//1 72//1 67//1
f 67//2 72//2 70//2
f 71//1 69//1 73//1
f 73//2 69//2 71//2
f 74//1 72//1 70//1
f 70//2 72//2 74//2
f 71//1 73//1 75//1
f 75//2 73//2 71//2
f 74//1 76//1 72//1
f 72//2 76//2 74//2
f 76//1 74//1 77//1
f 77//2 74//2 76//2
