# SSTK version 0.8.0
# 133
mtllib original-133.mtl
o _7_1_1_1/_7_1_1/mesh111/mesh111-geometry#mesh111-geometry
v 0.238371 -0.167878 0.183189
v 0.228798 -0.167870 0.185640
v 0.228798 -0.167878 0.183189
v 0.236041 -0.167870 0.185640
v 0.236965 -0.167863 0.187631
v 0.238371 -0.167872 0.185173
v 0.235572 -0.167853 0.190785
v 0.234698 -0.167862 0.188104
v 0.234342 -0.167841 0.194335
v 0.233433 -0.167852 0.191075
v 0.233428 -0.167829 0.197984
v 0.232982 -0.167820 0.200715
v 0.232732 -0.167810 0.203695
v 0.232350 -0.167841 0.194361
v 0.231552 -0.167830 0.197771
v 0.231052 -0.167819 0.200988
v 0.230866 -0.167810 0.203695
vn 0 -0.9999944440187541 0.0033334564077893954
vn 0 0.9999944440187541 -0.0033334564077893954
usemtl material_0_0
f 1//1 2//1 3//1
f 2//1 1//1 4//1
f 3//2 2//2 1//2
f 4//2 1//2 2//2
f 4//1 1//1 5//1
f 5//2 1//2 4//2
f 5//1 1//1 6//1
f 6//2 1//2 5//2
f 7//1 4//1 5//1
f 5//2 4//2 7//2
f 7//1 8//1 4//1
f 4//2 8//2 7//2
f 9//1 8//1 7//1
f 7//2 8//2 9//2
f 9//1 10//1 8//1
f 8//2 10//2 9//2
f 11//1 10//1 9//1
f 9//2 10//2 11//2
f 12//1 10//1 11//1
f 11//2 10//2 12//2
f 13//1 10//1 12//1
f 12//2 10//2 13//2
f 13//1 14//1 10//1
f 10//2 14//2 13//2
f 13//1 15//1 14//1
f 14//2 15//2 13//2
f 13//1 16//1 15//1
f 15//2 16//2 13//2
f 16//1 13//1 17//1
f 17//2 13//2 16//2
