# SSTK version 0.8.0
# 221
mtllib original-221.mtl
o mesh186/mesh186-geometry#mesh186-geometry
v 0.504282 -0.168113 0.065853
v 0.504235 -0.168104 0.068538
v 0.504178 -0.168107 0.067406
v 0.504405 -0.168100 0.069587
v 0.504594 -0.168117 0.064424
v 0.504689 -0.168097 0.070552
v 0.505104 -0.168121 0.063214
v 0.505086 -0.168094 0.071434
v 0.505587 -0.168092 0.072169
v 0.505578 -0.168108 0.067267
v 0.505618 -0.168111 0.066310
v 0.505617 -0.168104 0.068303
v 0.505801 -0.168124 0.062314
v 0.506181 -0.168090 0.072693
v 0.505737 -0.168114 0.065478
v 0.505735 -0.168101 0.069189
v 0.505935 -0.168116 0.064771
v 0.505931 -0.168099 0.069924
v 0.506661 -0.168126 0.061756
v 0.506206 -0.168097 0.070509
v 0.506214 -0.168118 0.064190
v 0.506869 -0.168089 0.073008
v 0.506548 -0.168120 0.063737
v 0.506540 -0.168096 0.070956
v 0.506917 -0.168121 0.063413
v 0.506913 -0.168095 0.071275
v 0.507659 -0.168127 0.061570
v 0.507651 -0.168088 0.073113
v 0.507320 -0.168121 0.063219
v 0.507327 -0.168094 0.071466
v 0.507757 -0.168122 0.063154
v 0.507780 -0.168094 0.071530
v 0.508339 -0.168127 0.061671
v 0.508289 -0.168089 0.073021
v 0.508202 -0.168121 0.063220
v 0.508230 -0.168094 0.071466
v 0.508613 -0.168121 0.063417
v 0.508642 -0.168095 0.071276
v 0.508956 -0.168126 0.061974
v 0.508873 -0.168090 0.072744
v 0.508990 -0.168120 0.063746
v 0.509017 -0.168096 0.070959
v 0.509511 -0.168124 0.062479
v 0.509402 -0.168091 0.072282
v 0.509334 -0.168118 0.064206
v 0.509353 -0.168097 0.070515
v 0.509621 -0.168116 0.064796
v 0.509631 -0.168099 0.069935
v 0.510004 -0.168121 0.063186
v 0.509875 -0.168093 0.071636
v 0.509825 -0.168114 0.065514
v 0.509830 -0.168101 0.069211
v 0.509948 -0.168111 0.066359
v 0.509949 -0.168104 0.068343
v 0.509989 -0.168108 0.067331
v 0.510384 -0.168078 0.076303
v 0.509777 -0.168085 0.074091
v 0.511260 -0.168126 0.061826
v 0.509667 -0.168075 0.077057
v 0.510004 -0.168126 0.061826
v 0.510878 -0.168081 0.075319
v 0.509512 -0.168082 0.074941
v 0.511164 -0.168086 0.073835
v 0.509081 -0.168080 0.075579
v 0.511260 -0.168094 0.071583
v 0.508743 -0.168074 0.077535
v 0.508459 -0.168079 0.075978
v 0.507628 -0.168073 0.077694
v 0.507621 -0.168078 0.076111
v 0.506944 -0.168073 0.077637
v 0.506836 -0.168079 0.075978
v 0.506329 -0.168074 0.077467
v 0.506236 -0.168080 0.075579
v 0.505932 -0.168082 0.075069
v 0.505783 -0.168075 0.077183
v 0.505775 -0.168084 0.074325
v 0.505306 -0.168076 0.076786
v 0.504920 -0.168078 0.076274
v 0.504649 -0.168080 0.075647
v 0.504493 -0.168082 0.074905
v 0.504451 -0.168085 0.074049
vn 0 -0.9999944440187541 0.0033334564077893954
vn 0 0.9999944440187541 -0.0033334564077893954
usemtl material_0_0
f 1//1 2//1 3//1
f 2//1 1//1 4//1
f 3//2 2//2 1//2
f 4//2 1//2 2//2
f 4//1 1//1 5//1
f 5//2 1//2 4//2
f 4//1 5//1 6//1
f 6//2 5//2 4//2
f 6//1 5//1 7//1
f 7//2 5//2 6//2
f 6//1 7//1 8//1
f 8//2 7//2 6//2
f 8//1 7//1 9//1
f 9//2 7//2 8//2
f 9//1 7//1 10//1
f 10//2 7//2 9//2
f 7//1 11//1 10//1
f 10//2 11//2 7//2
f 9//1 10//1 12//1
f 12//2 10//2 9//2
f 11//1 7//1 13//1
f 13//2 7//2 11//2
f 9//1 12//1 14//1
f 14//2 12//2 9//2
f 11//1 13//1 15//1
f 15//2 13//2 11//2
f 14//1 12//1 16//1
f 16//2 12//2 14//2
f 15//1 13//1 17//1
f 17//2 13//2 15//2
f 14//1 16//1 18//1
f 18//2 16//2 14//2
f 17//1 13//1 19//1
f 19//2 13//2 17//2
f 14//1 18//1 20//1
f 20//2 18//2 14//2
f 17//1 19//1 21//1
f 21//2 19//2 17//2
f 14//1 20//1 22//1
f 22//2 20//2 14//2
f 21//1 19//1 23//1
f 23//2 19//2 21//2
f 22//1 20//1 24//1
f 24//2 20//2 22//2
f 23//1 19//1 25//1
f 25//2 19//2 23//2
f 22//1 24//1 26//1
f 26//2 24//2 22//2
f 25//1 19//1 27//1
f 27//2 19//2 25//2
f 22//1 26//1 28//1
f 28//2 26//2 22//2
f 25//1 27//1 29//1
f 29//2 27//2 25//2
f 28//1 26//1 30//1
f 30//2 26//2 28//2
f 29//1 27//1 31//1
f 31//2 27//2 29//2
f 28//1 30//1 32//1
f 32//2 30//2 28//2
f 31//1 27//1 33//1
f 33//2 27//2 31//2
f 28//1 32//1 34//1
f 34//2 32//2 28//2
f 31//1 33//1 35//1
f 35//2 33//2 31//2
f 34//1 32//1 36//1
f 36//2 32//2 34//2
f 35//1 33//1 37//1
f 37//2 33//2 35//2
f 34//1 36//1 38//1
f 38//2 36//2 34//2
f 37//1 33//1 39//1
f 39//2 33//2 37//2
f 34//1 38//1 40//1
f 40//2 38//2 34//2
f 37//1 39//1 41//1
f 41//2 39//2 37//2
f 40//1 38//1 42//1
f 42//2 38//2 40//2
f 41//1 39//1 43//1
f 43//2 39//2 41//2
f 40//1 42//1 44//1
f 44//2 42//2 40//2
f 41//1 43//1 45//1
f 45//2 43//2 41//2
f 44//1 42//1 46//1
f 46//2 42//2 44//2
f 45//1 43//1 47//1
f 47//2 43//2 45//2
f 44//1 46//1 48//1
f 48//2 46//2 44//2
f 47//1 43//1 49//1
f 49//2 43//2 47//2
f 44//1 48//1 50//1
f 50//2 48//2 44//2
f 47//1 49//1 51//1
f 51//2 49//2 47//2
f 50//1 48//1 52//1
f 52//2 48//2 50//2
f 51//1 49//1 53//1
f 53//2 49//2 51//2
f 50//1 52//1 54//1
f 54//2 52//2 50//2
f 53//1 49//1 55//1
f 55//2 49//2 53//2
f 56//1 50//1 54//1
f 54//2 50//2 56//2
f 56//1 55//1 49//1
f 49//2 55//2 56//2
f 56//1 57//1 50//1
f 50//2 57//2 56//2
f 56//1 54//1 55//1
f 55//2 54//2 56//2
f 49//1 58//1 56//1
f 56//2 58//2 49//2
f 59//1 57//1 56//1
f 56//2 57//2 59//2
f 58//1 49//1 60//1
f 60//2 49//2 58//2
f 56//1 58//1 61//1
f 61//2 58//2 56//2
f 59//1 62//1 57//1
f 57//2 62//2 59//2
f 61//1 58//1 63//1
f 63//2 58//2 61//2
f 59//1 64//1 62//1
f 62//2 64//2 59//2
f 63//1 58//1 65//1
f 65//2 58//2 63//2
f 66//1 64//1 59//1
f 59//2 64//2 66//2
f 66//1 67//1 64//1
f 64//2 67//2 66//2
f 68//1 67//1 66//1
f 66//2 67//2 68//2
f 68//1 69//1 67//1
f 67//2 69//2 68//2
f 70//1 69//1 68//1
f 68//2 69//2 70//2
f 70//1 71//1 69//1
f 69//2 71//2 70//2
f 72//1 71//1 70//1
f 70//2 71//2 72//2
f 72//1 73//1 71//1
f 71//2 73//2 72//2
f 72//1 74//1 73//1
f 73//2 74//2 72//2
f 75//1 74//1 72//1
f 72//2 74//2 75//2
f 75//1 76//1 74//1
f 74//2 76//2 75//2
f 77//1 76//1 75//1
f 75//2 76//2 77//2
f 78//1 76//1 77//1
f 77//2 76//2 78//2
f 79//1 76//1 78//1
f 78//2 76//2 79//2
f 80//1 76//1 79//1
f 79//2 76//2 80//2
f 76//1 80//1 81//1
f 81//2 80//2 76//2
