# SSTK version 0.8.0
# 72
mtllib original-72.mtl
o mesh56/mesh56-geometry#mesh56-geometry
v 0.133004 -0.168062 0.082137
v 0.134058 -0.168037 0.089676
v 0.132025 -0.168062 0.082137
v 0.134118 -0.168048 0.086495
v 0.134126 -0.168029 0.092044
v 0.133977 -0.168036 0.089988
v 0.134507 -0.168042 0.088238
v 0.133831 -0.168028 0.092422
v 0.134386 -0.168031 0.091497
v 0.133700 -0.168033 0.090937
v 0.134895 -0.168037 0.089789
v 0.133488 -0.168027 0.092642
v 0.134880 -0.168048 0.086523
v 0.133402 -0.168032 0.091334
v 0.136025 -0.168062 0.082137
v 0.133190 -0.168031 0.091440
v 0.136933 -0.168062 0.082137
v 0.133084 -0.168027 0.092716
v 0.132918 -0.168031 0.091476
v 0.132499 -0.168028 0.092560
v 0.132398 -0.168032 0.091363
vn 0 -0.9999944440187541 0.0033334564077893954
vn 0 0.9999944440187541 -0.0033334564077893954
usemtl material_0_0
f 1//1 2//1 3//1
f 2//1 1//1 4//1
f 3//2 2//2 1//2
f 4//2 1//2 2//2
f 5//1 2//1 4//1
f 4//2 2//2 5//2
f 5//1 6//1 2//1
f 2//2 6//2 5//2
f 5//1 4//1 7//1
f 7//2 4//2 5//2
f 8//1 6//1 5//1
f 5//2 6//2 8//2
f 5//1 7//1 9//1
f 9//2 7//2 5//2
f 8//1 10//1 6//1
f 6//2 10//2 8//2
f 9//1 7//1 11//1
f 11//2 7//2 9//2
f 12//1 10//1 8//1
f 8//2 10//2 12//2
f 11//1 7//1 13//1
f 13//2 7//2 11//2
f 12//1 14//1 10//1
f 10//2 14//2 12//2
f 11//1 13//1 15//1
f 15//2 13//2 11//2
f 12//1 16//1 14//1
f 14//2 16//2 12//2
f 11//1 15//1 17//1
f 17//2 15//2 11//2
f 18//1 16//1 12//1
f 12//2 16//2 18//2
f 18//1 19//1 16//1
f 16//2 19//2 18//2
f 20//1 19//1 18//1
f 18//2 19//2 20//2
f 19//1 20//1 21//1
f 21//2 20//2 19//2
