# SSTK version 0.8.0
# 333
mtllib original-333.mtl
o mesh284/mesh284-geometry#mesh284-geometry
v -0.251053 -0.166714 -0.104703
v -0.251053 -0.164678 -0.106402
v -0.251053 -0.165584 -0.105419
v -0.251053 -0.167990 -0.104304
v -0.251053 -0.164057 -0.107587
v -0.251053 -0.169327 -0.104250
v -0.251053 -0.163764 -0.108892
v -0.251053 -0.170632 -0.104543
v -0.251053 -0.163819 -0.110228
v -0.251053 -0.171816 -0.105163
v -0.251053 -0.164218 -0.111505
v -0.251053 -0.172800 -0.106070
v -0.251053 -0.164933 -0.112634
v -0.251053 -0.173515 -0.107199
v -0.251053 -0.165917 -0.113541
v -0.251053 -0.173914 -0.108476
v -0.251053 -0.167101 -0.114161
v -0.251053 -0.173969 -0.109812
v -0.251053 -0.168406 -0.114454
v -0.251053 -0.173676 -0.111117
v -0.251053 -0.169742 -0.114400
v -0.251053 -0.173055 -0.112302
v -0.251053 -0.171019 -0.114001
v -0.251053 -0.172149 -0.113285
vn 1 0 0
vn -1 0 0
usemtl material_0_0
f 1//1 2//1 3//1
f 2//1 1//1 4//1
f 2//1 4//1 5//1
f 5//1 4//1 6//1
f 5//1 6//1 7//1
f 7//1 6//1 8//1
f 7//1 8//1 9//1
f 9//1 8//1 10//1
f 9//1 10//1 11//1
f 11//1 10//1 12//1
f 11//1 12//1 13//1
f 13//1 12//1 14//1
f 13//1 14//1 15//1
f 15//1 14//1 16//1
f 15//1 16//1 17//1
f 17//1 16//1 18//1
f 17//1 18//1 19//1
f 19//1 18//1 20//1
f 19//1 20//1 21//1
f 21//1 20//1 22//1
f 21//1 22//1 23//1
f 23//1 22//1 24//1
usemtl material_1_0
f 3//2 2//2 1//2
f 4//2 1//2 2//2
f 5//2 4//2 2//2
f 6//2 4//2 5//2
f 7//2 6//2 5//2
f 8//2 6//2 7//2
f 9//2 8//2 7//2
f 10//2 8//2 9//2
f 11//2 10//2 9//2
f 12//2 10//2 11//2
f 13//2 12//2 11//2
f 14//2 12//2 13//2
f 15//2 14//2 13//2
f 16//2 14//2 15//2
f 17//2 16//2 15//2
f 18//2 16//2 17//2
f 19//2 18//2 17//2
f 20//2 18//2 19//2
f 21//2 20//2 19//2
f 22//2 20//2 21//2
f 23//2 22//2 21//2
f 24//2 22//2 23//2
