# SSTK version 0.8.0
# 64
mtllib original-64.mtl
o mesh48/mesh48-geometry#mesh48-geometry
v 0.125766 -0.168130 0.061779
v 0.126744 -0.168126 0.063005
v 0.125766 -0.168095 0.072167
v 0.128555 -0.168130 0.061779
v 0.126744 -0.168095 0.072167
v 0.128636 -0.168126 0.063005
v 0.126744 -0.168114 0.066718
v 0.129680 -0.168130 0.061878
v 0.126744 -0.168110 0.067944
v 0.129549 -0.168126 0.063097
v 0.128656 -0.168114 0.066718
v 0.129895 -0.168125 0.063325
v 0.128641 -0.168110 0.067944
v 0.130180 -0.168129 0.062063
v 0.129365 -0.168110 0.067886
v 0.130167 -0.168124 0.063710
v 0.129467 -0.168114 0.066594
v 0.130342 -0.168122 0.064221
v 0.129967 -0.168110 0.067714
v 0.130593 -0.168128 0.062364
v 0.129769 -0.168115 0.066439
v 0.130401 -0.168120 0.064826
v 0.130003 -0.168115 0.066222
v 0.130449 -0.168111 0.067428
v 0.130810 -0.168113 0.067026
v 0.130301 -0.168117 0.065625
v 0.130177 -0.168116 0.065949
v 0.130925 -0.168127 0.062793
v 0.131072 -0.168114 0.066542
v 0.131185 -0.168125 0.063366
v 0.131260 -0.168116 0.066007
v 0.131354 -0.168123 0.064043
v 0.131372 -0.168118 0.065421
v 0.131410 -0.168120 0.064784
vn 0 -0.9999944440187541 0.0033334564077893954
vn 0 0.9999944440187541 -0.0033334564077893954
usemtl material_0_0
f 1//1 2//1 3//1
f 2//1 1//1 4//1
f 3//2 2//2 1//2
f 4//2 1//2 2//2
f 2//1 5//1 3//1
f 3//2 5//2 2//2
f 2//1 4//1 6//1
f 6//2 4//2 2//2
f 5//1 2//1 7//1
f 7//2 2//2 5//2
f 6//1 4//1 8//1
f 8//2 4//2 6//2
f 5//1 7//1 9//1
f 9//2 7//2 5//2
f 6//1 8//1 10//1
f 10//2 8//2 6//2
f 11//1 9//1 7//1
f 7//2 9//2 11//2
f 10//1 8//1 12//1
f 12//2 8//2 10//2
f 9//1 11//1 13//1
f 13//2 11//2 9//2
f 12//1 8//1 14//1
f 14//2 8//2 12//2
f 13//1 11//1 15//1
f 15//2 11//2 13//2
f 12//1 14//1 16//1
f 16//2 14//2 12//2
f 15//1 11//1 17//1
f 17//2 11//2 15//2
f 16//1 14//1 18//1
f 18//2 14//2 16//2
f 15//1 17//1 19//1
f 19//2 17//2 15//2
f 18//1 14//1 20//1
f 20//2 14//2 18//2
f 19//1 17//1 21//1
f 21//2 17//2 19//2
f 18//1 20//1 22//1
f 22//2 20//2 18//2
f 19//1 21//1 23//1
f 23//2 21//2 19//2
f 22//1 20//1 24//1
f 24//2 20//2 22//2
f 19//1 23//1 24//1
f 24//2 23//2 19//2
f 24//1 20//1 25//1
f 25//2 20//2 24//2
f 24//1 26//1 22//1
f 22//2 26//2 24//2
f 24//1 23//1 27//1
f 27//2 23//2 24//2
f 25//1 20//1 28//1
f 28//2 20//2 25//2
f 24//1 27//1 26//1
f 26//2 27//2 24//2
f 25//1 28//1 29//1
f 29//2 28//2 25//2
f 29//1 28//1 30//1
f 30//2 28//2 29//2
f 29//1 30//1 31//1
f 31//2 30//2 29//2
f 31//1 30//1 32//1
f 32//2 30//2 31//2
f 31//1 32//1 33//1
f 33//2 32//2 31//2
f 33//1 32//1 34//1
f 34//2 32//2 33//2
