# SSTK version 0.8.0
# 248
mtllib original-248.mtl
o mesh211/mesh211-geometry#mesh211-geometry
v -0.427623 -0.167544 0.382261
v -0.428992 -0.167539 0.383749
v -0.428992 -0.167544 0.382261
v -0.427623 -0.167539 0.383749
v -0.428992 -0.167517 0.390349
v -0.428992 -0.167557 0.378317
v -0.429113 -0.167506 0.393615
v -0.429605 -0.167507 0.393368
v -0.428920 -0.167514 0.391401
v -0.429953 -0.167508 0.392986
v -0.428455 -0.167506 0.393697
v -0.430180 -0.167510 0.392501
v -0.428686 -0.167512 0.391773
v -0.430305 -0.167513 0.391668
v -0.428220 -0.167512 0.391912
v -0.430346 -0.167517 0.390243
v -0.427426 -0.167506 0.393527
v -0.430346 -0.167539 0.383749
v -0.427623 -0.167512 0.391837
v -0.430346 -0.167544 0.382261
v -0.430346 -0.167553 0.379465
v -0.431345 -0.167539 0.383749
v -0.431345 -0.167544 0.382261
vn 0 -0.9999944440187541 0.0033334564077893954
vn 0 0.9999944440187541 -0.0033334564077893954
usemtl material_0_0
f 1//1 2//1 3//1
f 2//1 1//1 4//1
f 3//2 2//2 1//2
f 4//2 1//2 2//2
f 5//1 3//1 2//1
f 2//2 3//2 5//2
f 5//1 6//1 3//1
f 3//2 6//2 5//2
f 7//1 6//1 5//1
f 5//2 6//2 7//2
f 8//1 6//1 7//1
f 7//2 6//2 8//2
f 7//1 5//1 9//1
f 9//2 5//2 7//2
f 10//1 6//1 8//1
f 8//2 6//2 10//2
f 7//1 9//1 11//1
f 11//2 9//2 7//2
f 12//1 6//1 10//1
f 10//2 6//2 12//2
f 11//1 9//1 13//1
f 13//2 9//2 11//2
f 14//1 6//1 12//1
f 12//2 6//2 14//2
f 11//1 13//1 15//1
f 15//2 13//2 11//2
f 16//1 6//1 14//1
f 14//2 6//2 16//2
f 11//1 15//1 17//1
f 17//2 15//2 11//2
f 18//1 6//1 16//1
f 16//2 6//2 18//2
f 17//1 15//1 19//1
f 19//2 15//2 17//2
f 20//1 6//1 18//1
f 18//2 6//2 20//2
f 6//1 20//1 21//1
f 21//2 20//2 6//2
f 22//1 20//1 18//1
f 18//2 20//2 22//2
f 20//1 22//1 23//1
f 23//2 22//2 20//2
