# SSTK version 0.8.0
# 48
mtllib original-48.mtl
o ___1_1_1/___1_1_2/mesh36/mesh36-geometry#mesh36-geometry
v 0.231312 -0.167925 0.141620
v 0.233320 -0.167916 0.144426
v 0.230848 -0.167918 0.143632
v 0.233642 -0.167921 0.142994
v 0.234147 -0.167913 0.145262
v 0.232835 -0.167903 0.148309
v 0.234903 -0.167932 0.139466
v 0.231645 -0.167907 0.147104
v 0.233441 -0.167932 0.139466
v 0.234671 -0.167921 0.142980
v 0.235529 -0.167903 0.148309
v 0.235004 -0.167916 0.144426
v 0.237052 -0.167925 0.141620
v 0.236739 -0.167907 0.147104
v 0.236247 -0.167917 0.144128
v 0.237516 -0.167918 0.143632
vn 0 -0.9999944440187541 0.0033334564077893954
vn 0 0.9999944440187541 -0.0033334564077893954
usemtl material_0_0
f 1//1 2//1 3//1
f 2//1 1//1 4//1
f 3//2 2//2 1//2
f 4//2 1//2 2//2
f 5//1 2//1 4//1
f 4//2 2//2 5//2
f 6//1 2//1 5//1
f 5//2 2//2 6//2
f 4//1 7//1 5//1
f 5//2 7//2 4//2
f 2//1 6//1 8//1
f 8//2 6//2 2//2
f 7//1 4//1 9//1
f 9//2 4//2 7//2
f 5//1 7//1 10//1
f 10//2 7//2 5//2
f 10//1 11//1 5//1
f 5//2 11//2 10//2
f 11//1 10//1 12//1
f 12//2 10//2 11//2
f 13//1 12//1 10//1
f 10//2 12//2 13//2
f 11//1 12//1 14//1
f 14//2 12//2 11//2
f 12//1 13//1 15//1
f 15//2 13//2 12//2
f 15//1 13//1 16//1
f 16//2 13//2 15//2
