# SSTK version 0.8.0
# 173
mtllib original-173.mtl
o mesh145/mesh145-geometry#mesh145-geometry
v 0.384568 -0.167945 0.141761
v 0.384761 -0.167937 0.144264
v 0.384705 -0.167933 0.145427
v 0.385019 -0.167949 0.140764
v 0.384705 -0.167914 0.151337
v 0.384931 -0.167941 0.143195
v 0.383343 -0.167914 0.151337
v 0.385134 -0.167943 0.142599
v 0.384568 -0.167951 0.140049
v 0.385435 -0.167951 0.140177
v 0.383343 -0.167951 0.140049
v 0.385438 -0.167944 0.142148
v 0.385852 -0.167952 0.139890
v 0.385817 -0.167945 0.141866
v 0.386240 -0.167945 0.141771
v 0.386308 -0.167952 0.139794
v 0.386740 -0.167945 0.141875
v 0.387003 -0.167952 0.139948
v 0.387239 -0.167944 0.142186
v 0.387708 -0.167950 0.140411
vn 0 -0.9999944440187541 0.0033334564077893954
vn 0 0.9999944440187541 -0.0033334564077893954
usemtl material_0_0
f 1//1 2//1 3//1
f 2//1 1//1 4//1
f 3//2 2//2 1//2
f 4//2 1//2 2//2
f 5//1 1//1 3//1
f 3//2 1//2 5//2
f 2//1 4//1 6//1
f 6//2 4//2 2//2
f 7//1 1//1 5//1
f 5//2 1//2 7//2
f 6//1 4//1 8//1
f 8//2 4//2 6//2
f 7//1 9//1 1//1
f 1//2 9//2 7//2
f 8//1 4//1 10//1
f 10//2 4//2 8//2
f 9//1 7//1 11//1
f 11//2 7//2 9//2
f 8//1 10//1 12//1
f 12//2 10//2 8//2
f 12//1 10//1 13//1
f 13//2 10//2 12//2
f 12//1 13//1 14//1
f 14//2 13//2 12//2
f 14//1 13//1 15//1
f 15//2 13//2 14//2
f 15//1 13//1 16//1
f 16//2 13//2 15//2
f 15//1 16//1 17//1
f 17//2 16//2 15//2
f 17//1 16//1 18//1
f 18//2 16//2 17//2
f 17//1 18//1 19//1
f 19//2 18//2 17//2
f 19//1 18//1 20//1
f 20//2 18//2 19//2
