# SSTK version 0.8.0
# 151
mtllib original-151.mtl
o _3_1/_3/mesh127/mesh127-geometry#mesh127-geometry
v -0.356682 -0.167922 0.153589
v -0.355086 -0.167917 0.155253
v -0.356902 -0.167918 0.154799
v -0.356357 -0.167926 0.152523
v -0.355926 -0.167929 0.151601
v -0.355388 -0.167931 0.150824
v -0.354762 -0.167933 0.150207
v -0.354758 -0.167922 0.153616
v -0.354064 -0.167935 0.149766
v -0.354178 -0.167926 0.152447
v -0.353384 -0.167928 0.151745
v -0.353295 -0.167936 0.149502
v -0.352413 -0.167929 0.151511
v -0.352453 -0.167936 0.149414
v -0.351290 -0.167935 0.149596
v -0.351442 -0.167928 0.151742
v -0.350667 -0.167926 0.152432
v -0.350224 -0.167934 0.150144
v -0.350161 -0.167923 0.153474
v -0.349325 -0.167931 0.151006
v -0.349992 -0.167918 0.154757
v -0.349278 -0.167907 0.158257
v -0.350050 -0.167916 0.155585
v -0.348665 -0.167927 0.152135
v -0.350163 -0.167904 0.159022
v -0.348640 -0.167910 0.157265
v -0.350224 -0.167913 0.156298
v -0.348260 -0.167923 0.153435
v -0.350143 -0.167896 0.161297
v -0.348254 -0.167914 0.156099
v -0.350514 -0.167911 0.156896
v -0.348998 -0.167902 0.159676
v -0.348125 -0.167918 0.154813
v -0.350579 -0.167898 0.160798
v -0.349785 -0.167894 0.161906
v -0.350920 -0.167910 0.157378
v -0.349530 -0.167892 0.162592
v -0.351071 -0.167899 0.160441
v -0.349326 -0.167887 0.164195
v -0.351906 -0.167907 0.158016
v -0.348811 -0.167872 0.168751
v -0.352221 -0.167900 0.160156
v -0.349381 -0.167884 0.165079
v -0.348125 -0.167898 0.160787
v -0.353008 -0.167907 0.158229
v -0.349546 -0.167881 0.165888
v -0.348193 -0.167875 0.167753
v -0.353300 -0.167907 0.158200
v -0.349564 -0.167869 0.169579
v -0.347752 -0.167879 0.166652
v -0.353502 -0.167899 0.160439
v -0.349822 -0.167879 0.166624
v -0.347581 -0.167893 0.162294
v -0.350208 -0.167877 0.167284
v -0.347487 -0.167883 0.165447
v -0.350410 -0.167867 0.170170
v -0.347399 -0.167887 0.164138
v -0.350675 -0.167875 0.167830
v -0.351191 -0.167873 0.168220
v -0.351350 -0.167866 0.170525
v -0.351757 -0.167873 0.168454
v -0.352372 -0.167872 0.168531
v -0.352382 -0.167865 0.170643
v -0.353314 -0.167866 0.170541
v -0.353370 -0.167873 0.168292
v -0.354164 -0.167867 0.170236
v -0.354203 -0.167876 0.167575
v -0.354845 -0.167880 0.166315
v -0.354931 -0.167868 0.169726
v -0.355267 -0.167886 0.164450
v -0.355615 -0.167871 0.169013
v -0.356189 -0.167874 0.168138
v -0.356625 -0.167877 0.167143
v -0.356923 -0.167881 0.166027
v -0.357083 -0.167885 0.164790
vn 0 -0.9999944440187541 0.0033334564077893954
vn 0 0.9999944440187541 -0.0033334564077893954
usemtl material_0_0
f 1//1 2//1 3//1
f 2//1 1//1 4//1
f 3//2 2//2 1//2
f 4//2 1//2 2//2
f 2//1 4//1 5//1
f 5//2 4//2 2//2
f 2//1 5//1 6//1
f 6//2 5//2 2//2
f 2//1 6//1 7//1
f 7//2 6//2 2//2
f 2//1 7//1 8//1
f 8//2 7//2 2//2
f 8//1 7//1 9//1
f 9//2 7//2 8//2
f 8//1 9//1 10//1
f 10//2 9//2 8//2
f 10//1 9//1 11//1
f 11//2 9//2 10//2
f 11//1 9//1 12//1
f 12//2 9//2 11//2
f 11//1 12//1 13//1
f 13//2 12//2 11//2
f 13//1 12//1 14//1
f 14//2 12//2 13//2
f 13//1 14//1 15//1
f 15//2 14//2 13//2
f 13//1 15//1 16//1
f 16//2 15//2 13//2
f 16//1 15//1 17//1
f 17//2 15//2 16//2
f 17//1 15//1 18//1
f 18//2 15//2 17//2
f 17//1 18//1 19//1
f 19//2 18//2 17//2
f 19//1 18//1 20//1
f 20//2 18//2 19//2
f 19//1 20//1 21//1
f 21//2 20//2 19//2
f 22//1 21//1 20//1
f 20//2 21//2 22//2
f 22//1 23//1 21//1
f 21//2 23//2 22//2
f 22//1 20//1 24//1
f 24//2 20//2 22//2
f 25//1 23//1 22//1
f 22//2 23//2 25//2
f 22//1 24//1 26//1
f 26//2 24//2 22//2
f 23//1 25//1 27//1
f 27//2 25//2 23//2
f 26//1 24//1 28//1
f 28//2 24//2 26//2
f 29//1 27//1 25//1
f 25//2 27//2 29//2
f 26//1 28//1 30//1
f 30//2 28//2 26//2
f 29//1 31//1 27//1
f 27//2 31//2 29//2
f 29//1 25//1 32//1
f 32//2 25//2 29//2
f 30//1 28//1 33//1
f 33//2 28//2 30//2
f 34//1 31//1 29//1
f 29//2 31//2 34//2
f 29//1 32//1 35//1
f 35//2 32//2 29//2
f 34//1 36//1 31//1
f 31//2 36//2 34//2
f 35//1 32//1 37//1
f 37//2 32//2 35//2
f 38//1 36//1 34//1
f 34//2 36//2 38//2
f 37//1 32//1 39//1
f 39//2 32//2 37//2
f 38//1 40//1 36//1
f 36//2 40//2 38//2
f 41//1 39//1 32//1
f 32//2 39//2 41//2
f 42//1 40//1 38//1
f 38//2 40//2 42//2
f 41//1 43//1 39//1
f 39//2 43//2 41//2
f 41//1 32//1 44//1
f 44//2 32//2 41//2
f 42//1 45//1 40//1
f 40//2 45//2 42//2
f 41//1 46//1 43//1
f 43//2 46//2 41//2
f 41//1 44//1 47//1
f 47//2 44//2 41//2
f 42//1 48//1 45//1
f 45//2 48//2 42//2
f 49//1 46//1 41//1
f 41//2 46//2 49//2
f 47//1 44//1 50//1
f 50//2 44//2 47//2
f 48//1 42//1 51//1
f 51//2 42//2 48//2
f 49//1 52//1 46//1
f 46//2 52//2 49//2
f 50//1 44//1 53//1
f 53//2 44//2 50//2
f 49//1 54//1 52//1
f 52//2 54//2 49//2
f 50//1 53//1 55//1
f 55//2 53//2 50//2
f 56//1 54//1 49//1
f 49//2 54//2 56//2
f 55//1 53//1 57//1
f 57//2 53//2 55//2
f 56//1 58//1 54//1
f 54//2 58//2 56//2
f 56//1 59//1 58//1
f 58//2 59//2 56//2
f 60//1 59//1 56//1
f 56//2 59//2 60//2
f 60//1 61//1 59//1
f 59//2 61//2 60//2
f 60//1 62//1 61//1
f 61//2 62//2 60//2
f 63//1 62//1 60//1
f 60//2 62//2 63//2
f 64//1 62//1 63//1
f 63//2 62//2 64//2
f 64//1 65//1 62//1
f 62//2 65//2 64//2
f 66//1 65//1 64//1
f 64//2 65//2 66//2
f 66//1 67//1 65//1
f 65//2 67//2 66//2
f 66//1 68//1 67//1
f 67//2 68//2 66//2
f 69//1 68//1 66//1
f 66//2 68//2 69//2
f 69//1 70//1 68//1
f 68//2 70//2 69//2
f 71//1 70//1 69//1
f 69//2 70//2 71//2
f 72//1 70//1 71//1
f 71//2 70//2 72//2
f 73//1 70//1 72//1
f 72//2 70//2 73//2
f 74//1 70//1 73//1
f 73//2 70//2 74//2
f 70//1 74//1 75//1
f 75//2 74//2 70//2
