# SSTK version 0.8.0
# 109
mtllib original-109.mtl
o mesh88/mesh88-geometry#mesh88-geometry
v 0.192665 -0.168112 0.066415
v 0.192799 -0.168104 0.068834
v 0.192771 -0.168101 0.069512
v 0.193029 -0.168113 0.066049
v 0.192531 -0.168092 0.072431
v 0.192883 -0.168106 0.068248
v 0.192303 -0.168110 0.066986
v 0.192905 -0.168090 0.072874
v 0.193023 -0.168107 0.067754
v 0.192228 -0.168094 0.071868
v 0.192799 -0.168099 0.070189
v 0.193219 -0.168109 0.067350
v 0.192044 -0.168107 0.067692
v 0.192883 -0.168097 0.070775
v 0.193431 -0.168114 0.065788
v 0.192011 -0.168096 0.071194
v 0.193023 -0.168096 0.071271
v 0.193458 -0.168110 0.067037
v 0.191889 -0.168105 0.068534
v 0.193332 -0.168089 0.073191
v 0.193871 -0.168114 0.065631
v 0.191881 -0.168098 0.070409
v 0.193219 -0.168094 0.071676
v 0.193726 -0.168110 0.066814
v 0.191837 -0.168101 0.069512
v 0.193458 -0.168093 0.071991
v 0.194023 -0.168111 0.066679
v 0.193814 -0.168089 0.073381
v 0.194349 -0.168115 0.065579
v 0.193726 -0.168092 0.072216
v 0.194349 -0.168111 0.066635
v 0.194023 -0.168092 0.072351
v 0.194876 -0.168114 0.065642
v 0.194349 -0.168088 0.073444
v 0.194671 -0.168111 0.066680
v 0.194349 -0.168092 0.072395
v 0.194965 -0.168110 0.066814
v 0.194673 -0.168092 0.072350
v 0.195353 -0.168114 0.065833
v 0.195023 -0.168089 0.073329
v 0.195232 -0.168110 0.067039
v 0.194968 -0.168092 0.072215
v 0.195472 -0.168109 0.067354
v 0.195235 -0.168093 0.071989
v 0.195779 -0.168113 0.066151
v 0.195643 -0.168090 0.072984
v 0.195669 -0.168107 0.067756
v 0.195474 -0.168094 0.071673
v 0.195810 -0.168106 0.068242
v 0.195670 -0.168096 0.071264
v 0.196155 -0.168111 0.066596
v 0.196165 -0.168092 0.072430
v 0.195895 -0.168104 0.068813
v 0.195811 -0.168097 0.070760
v 0.195923 -0.168102 0.069469
v 0.195895 -0.168099 0.070162
v 0.196462 -0.168109 0.067153
v 0.196546 -0.168094 0.071690
v 0.196681 -0.168107 0.067807
v 0.196779 -0.168097 0.070703
v 0.196812 -0.168105 0.068557
v 0.196856 -0.168102 0.069405
vn 0 -0.9999944440187541 0.0033334564077893954
vn 0 0.9999944440187541 -0.0033334564077893954
usemtl material_0_0
f 1//1 2//1 3//1
f 2//1 1//1 4//1
f 3//2 2//2 1//2
f 4//2 1//2 2//2
f 5//1 1//1 3//1
f 3//2 1//2 5//2
f 2//1 4//1 6//1
f 6//2 4//2 2//2
f 5//1 7//1 1//1
f 1//2 7//2 5//2
f 5//1 3//1 8//1
f 8//2 3//2 5//2
f 6//1 4//1 9//1
f 9//2 4//2 6//2
f 10//1 7//1 5//1
f 5//2 7//2 10//2
f 8//1 3//1 11//1
f 11//2 3//2 8//2
f 9//1 4//1 12//1
f 12//2 4//2 9//2
f 10//1 13//1 7//1
f 7//2 13//2 10//2
f 8//1 11//1 14//1
f 14//2 11//2 8//2
f 12//1 4//1 15//1
f 15//2 4//2 12//2
f 16//1 13//1 10//1
f 10//2 13//2 16//2
f 8//1 14//1 17//1
f 17//2 14//2 8//2
f 12//1 15//1 18//1
f 18//2 15//2 12//2
f 16//1 19//1 13//1
f 13//2 19//2 16//2
f 8//1 17//1 20//1
f 20//2 17//2 8//2
f 18//1 15//1 21//1
f 21//2 15//2 18//2
f 22//1 19//1 16//1
f 16//2 19//2 22//2
f 20//1 17//1 23//1
f 23//2 17//2 20//2
f 18//1 21//1 24//1
f 24//2 21//2 18//2
f 19//1 22//1 25//1
f 25//2 22//2 19//2
f 20//1 23//1 26//1
f 26//2 23//2 20//2
f 24//1 21//1 27//1
f 27//2 21//2 24//2
f 20//1 26//1 28//1
f 28//2 26//2 20//2
f 27//1 21//1 29//1
f 29//2 21//2 27//2
f 28//1 26//1 30//1
f 30//2 26//2 28//2
f 27//1 29//1 31//1
f 31//2 29//2 27//2
f 28//1 30//1 32//1
f 32//2 30//2 28//2
f 31//1 29//1 33//1
f 33//2 29//2 31//2
f 28//1 32//1 34//1
f 34//2 32//2 28//2
f 31//1 33//1 35//1
f 35//2 33//2 31//2
f 34//1 32//1 36//1
f 36//2 32//2 34//2
f 35//1 33//1 37//1
f 37//2 33//2 35//2
f 34//1 36//1 38//1
f 38//2 36//2 34//2
f 37//1 33//1 39//1
f 39//2 33//2 37//2
f 34//1 38//1 40//1
f 40//2 38//2 34//2
f 37//1 39//1 41//1
f 41//2 39//2 37//2
f 40//1 38//1 42//1
f 42//2 38//2 40//2
f 41//1 39//1 43//1
f 43//2 39//2 41//2
f 40//1 42//1 44//1
f 44//2 42//2 40//2
f 43//1 39//1 45//1
f 45//2 39//2 43//2
f 40//1 44//1 46//1
f 46//2 44//2 40//2
f 43//1 45//1 47//1
f 47//2 45//2 43//2
f 46//1 44//1 48//1
f 48//2 44//2 46//2
f 47//1 45//1 49//1
f 49//2 45//2 47//2
f 46//1 48//1 50//1
f 50//2 48//2 46//2
f 49//1 45//1 51//1
f 51//2 45//2 49//2
f 46//1 50//1 52//1
f 52//2 50//2 46//2
f 49//1 51//1 53//1
f 53//2 51//2 49//2
f 52//1 50//1 54//1
f 54//2 50//2 52//2
f 53//1 51//1 55//1
f 55//2 51//2 53//2
f 52//1 54//1 56//1
f 56//2 54//2 52//2
f 52//1 55//1 51//1
f 51//2 55//2 52//2
f 52//1 56//1 55//1
f 55//2 56//2 52//2
f 52//1 51//1 57//1
f 57//2 51//2 52//2
f 52//1 57//1 58//1
f 58//2 57//2 52//2
f 58//1 57//1 59//1
f 59//2 57//2 58//2
f 58//1 59//1 60//1
f 60//2 59//2 58//2
f 60//1 59//1 61//1
f 61//2 59//2 60//2
f 60//1 61//1 62//1
f 62//2 61//2 60//2
