# SSTK version 0.8.0
# 141
mtllib original-141.mtl
o T1/T/mesh118/mesh118-geometry#mesh118-geometry
v -0.255823 -0.167864 0.192054
v -0.267545 -0.167855 0.194506
v -0.267545 -0.167864 0.192054
v -0.262673 -0.167855 0.194506
v -0.260716 -0.167855 0.194506
v -0.255823 -0.167855 0.194506
v -0.262673 -0.167794 0.212830
v -0.260716 -0.167794 0.212830
vn 0 -0.9999944440187541 0.0033334564077893954
vn 0 0.9999944440187541 -0.0033334564077893954
usemtl material_0_0
f 1//1 2//1 3//1
f 2//1 1//1 4//1
f 3//2 2//2 1//2
f 4//2 1//2 2//2
f 4//1 1//1 5//1
f 5//2 1//2 4//2
f 5//1 1//1 6//1
f 6//2 1//2 5//2
f 4//1 5//1 7//1
f 7//2 5//2 4//2
f 8//1 7//1 5//1
f 5//2 7//2 8//2
