# SSTK version 0.8.0
# 4
mtllib original-4.mtl
o mesh2/mesh2-geometry#mesh2-geometry
v -0.505302 -0.168094 0.055543
v -0.503353 -0.168086 0.058000
v -0.505366 -0.168024 0.076318
v -0.494609 -0.168094 0.055576
v -0.503402 -0.168033 0.073872
v -0.494617 -0.168085 0.058027
v -0.494330 -0.168024 0.076352
v -0.503372 -0.168064 0.064363
v -0.494323 -0.168033 0.073900
v -0.503380 -0.168056 0.066801
v -0.495191 -0.168064 0.064389
v -0.495199 -0.168056 0.066826
vn -0.0000018846440441166265 -0.9999944439932112 0.0033334635376291093
vn 0.0000018846440441166265 0.9999944439932112 -0.0033334635376291093
usemtl material_0_0
f 1//1 2//1 3//1
f 2//1 1//1 4//1
f 3//2 2//2 1//2
f 4//2 1//2 2//2
f 5//1 3//1 2//1
f 2//2 3//2 5//2
f 2//1 4//1 6//1
f 6//2 4//2 2//2
f 3//1 5//1 7//1
f 7//2 5//2 3//2
f 5//1 2//1 8//1
f 8//2 2//2 5//2
f 7//1 5//1 9//1
f 9//2 5//2 7//2
f 5//1 8//1 10//1
f 10//2 8//2 5//2
f 11//1 10//1 8//1
f 8//2 10//2 11//2
f 10//1 11//1 12//1
f 12//2 11//2 10//2
