# SSTK version 0.8.0
# 131
mtllib original-131.mtl
o __1_10/__10/mesh109/mesh109-geometry#mesh109-geometry
v -0.067579 -0.167622 0.320123
v -0.078598 -0.167634 0.316440
v -0.078598 -0.167644 0.313586
v -0.069871 -0.167617 0.321478
v -0.067579 -0.167613 0.322801
v -0.078598 -0.167591 0.329418
v -0.078598 -0.167600 0.326564
vn 0 -0.9999944440187541 0.0033334564077893954
vn 0 0.9999944440187541 -0.0033334564077893954
usemtl material_0_0
f 1//1 2//1 3//1
f 2//1 1//1 4//1
f 3//2 2//2 1//2
f 4//2 1//2 2//2
f 5//1 4//1 1//1
f 1//2 4//2 5//2
f 6//1 4//1 5//1
f 5//2 4//2 6//2
f 4//1 6//1 7//1
f 7//2 6//2 4//2
