# SSTK version 0.8.0
# 280
mtllib original-280.mtl
o C1/C/mesh238/mesh238-geometry#mesh238-geometry
v -0.357956 -0.167657 0.312162
v -0.357774 -0.167638 0.317910
v -0.357890 -0.167632 0.319935
v -0.357281 -0.167660 0.311317
v -0.358165 -0.167605 0.327805
v -0.357426 -0.167645 0.315945
v -0.358537 -0.167654 0.313152
v -0.357550 -0.167602 0.328719
v -0.356792 -0.167651 0.314208
v -0.358690 -0.167609 0.326738
v -0.357753 -0.167623 0.322417
v -0.356513 -0.167663 0.310617
v -0.359025 -0.167650 0.314287
v -0.357340 -0.167616 0.324562
v -0.355817 -0.167655 0.312863
v -0.359126 -0.167613 0.325518
v -0.356846 -0.167600 0.329479
v -0.355678 -0.167664 0.310068
v -0.359411 -0.167646 0.315547
v -0.356638 -0.167610 0.326289
v -0.355210 -0.167657 0.312361
v -0.359687 -0.167642 0.316911
v -0.356041 -0.167598 0.330078
v -0.354802 -0.167666 0.309676
v -0.359712 -0.167622 0.322829
v -0.356172 -0.167608 0.326965
v -0.354532 -0.167658 0.312002
v -0.359852 -0.167637 0.318378
v -0.355630 -0.167606 0.327517
v -0.353885 -0.167667 0.309441
v -0.359908 -0.167632 0.319949
v -0.355125 -0.167596 0.330505
v -0.352967 -0.167659 0.311715
v -0.354423 -0.167604 0.328250
v -0.352927 -0.167667 0.309363
v -0.354097 -0.167595 0.330761
v -0.351611 -0.167658 0.311974
v -0.353119 -0.167603 0.328494
v -0.351861 -0.167666 0.309462
v -0.352957 -0.167595 0.330847
v -0.350884 -0.167665 0.309759
v -0.352328 -0.167603 0.328411
v -0.350506 -0.167656 0.312750
v -0.351847 -0.167596 0.330736
v -0.349995 -0.167664 0.310255
v -0.351600 -0.167604 0.328161
v -0.350046 -0.167654 0.313344
v -0.350825 -0.167597 0.330402
v -0.349643 -0.167651 0.314092
v -0.350936 -0.167606 0.327745
v -0.349195 -0.167662 0.310950
v -0.350334 -0.167607 0.327162
v -0.349013 -0.167645 0.316052
v -0.349892 -0.167599 0.329847
v -0.348495 -0.167659 0.311824
v -0.349811 -0.167610 0.326416
v -0.347086 -0.167647 0.315414
v -0.349048 -0.167601 0.329068
v -0.347911 -0.167655 0.312860
v -0.349379 -0.167613 0.325508
v -0.347441 -0.167651 0.314056
v -0.349039 -0.167617 0.324439
v -0.348310 -0.167604 0.328079
v -0.348791 -0.167621 0.323208
v -0.346834 -0.167618 0.323903
v -0.347695 -0.167608 0.326888
v -0.347203 -0.167613 0.325496
vn 0 -0.9999944440187541 0.0033334564077893954
vn 0 0.9999944440187541 -0.0033334564077893954
usemtl material_0_0
f 1//1 2//1 3//1
f 2//1 1//1 4//1
f 3//2 2//2 1//2
f 4//2 1//2 2//2
f 5//1 1//1 3//1
f 3//2 1//2 5//2
f 2//1 4//1 6//1
f 6//2 4//2 2//2
f 5//1 7//1 1//1
f 1//2 7//2 5//2
f 5//1 3//1 8//1
f 8//2 3//2 5//2
f 6//1 4//1 9//1
f 9//2 4//2 6//2
f 10//1 7//1 5//1
f 5//2 7//2 10//2
f 8//1 3//1 11//1
f 11//2 3//2 8//2
f 9//1 4//1 12//1
f 12//2 4//2 9//2
f 10//1 13//1 7//1
f 7//2 13//2 10//2
f 8//1 11//1 14//1
f 14//2 11//2 8//2
f 9//1 12//1 15//1
f 15//2 12//2 9//2
f 16//1 13//1 10//1
f 10//2 13//2 16//2
f 8//1 14//1 17//1
f 17//2 14//2 8//2
f 15//1 12//1 18//1
f 18//2 12//2 15//2
f 16//1 19//1 13//1
f 13//2 19//2 16//2
f 17//1 14//1 20//1
f 20//2 14//2 17//2
f 15//1 18//1 21//1
f 21//2 18//2 15//2
f 16//1 22//1 19//1
f 19//2 22//2 16//2
f 17//1 20//1 23//1
f 23//2 20//2 17//2
f 21//1 18//1 24//1
f 24//2 18//2 21//2
f 25//1 22//1 16//1
f 16//2 22//2 25//2
f 23//1 20//1 26//1
f 26//2 20//2 23//2
f 21//1 24//1 27//1
f 27//2 24//2 21//2
f 25//1 28//1 22//1
f 22//2 28//2 25//2
f 23//1 26//1 29//1
f 29//2 26//2 23//2
f 27//1 24//1 30//1
f 30//2 24//2 27//2
f 28//1 25//1 31//1
f 31//2 25//2 28//2
f 23//1 29//1 32//1
f 32//2 29//2 23//2
f 27//1 30//1 33//1
f 33//2 30//2 27//2
f 32//1 29//1 34//1
f 34//2 29//2 32//2
f 33//1 30//1 35//1
f 35//2 30//2 33//2
f 32//1 34//1 36//1
f 36//2 34//2 32//2
f 33//1 35//1 37//1
f 37//2 35//2 33//2
f 36//1 34//1 38//1
f 38//2 34//2 36//2
f 37//1 35//1 39//1
f 39//2 35//2 37//2
f 36//1 38//1 40//1
f 40//2 38//2 36//2
f 37//1 39//1 41//1
f 41//2 39//2 37//2
f 40//1 38//1 42//1
f 42//2 38//2 40//2
f 37//1 41//1 43//1
f 43//2 41//2 37//2
f 40//1 42//1 44//1
f 44//2 42//2 40//2
f 43//1 41//1 45//1
f 45//2 41//2 43//2
f 44//1 42//1 46//1
f 46//2 42//2 44//2
f 43//1 45//1 47//1
f 47//2 45//2 43//2
f 44//1 46//1 48//1
f 48//2 46//2 44//2
f 47//1 45//1 49//1
f 49//2 45//2 47//2
f 48//1 46//1 50//1
f 50//2 46//2 48//2
f 49//1 45//1 51//1
f 51//2 45//2 49//2
f 48//1 50//1 52//1
f 52//2 50//2 48//2
f 49//1 51//1 53//1
f 53//2 51//2 49//2
f 48//1 52//1 54//1
f 54//2 52//2 48//2
f 53//1 51//1 55//1
f 55//2 51//2 53//2
f 54//1 52//1 56//1
f 56//2 52//2 54//2
f 53//1 55//1 57//1
f 57//2 55//2 53//2
f 54//1 56//1 58//1
f 58//2 56//2 54//2
f 57//1 55//1 59//1
f 59//2 55//2 57//2
f 58//1 56//1 60//1
f 60//2 56//2 58//2
f 57//1 59//1 61//1
f 61//2 59//2 57//2
f 58//1 60//1 62//1
f 62//2 60//2 58//2
f 58//1 62//1 63//1
f 63//2 62//2 58//2
f 63//1 62//1 64//1
f 64//2 62//2 63//2
f 63//1 64//1 65//1
f 65//2 64//2 63//2
f 63//1 65//1 66//1
f 66//2 65//2 63//2
f 66//1 65//1 67//1
f 67//2 65//2 66//2
