# SSTK version 0.8.0
# 17
mtllib original-17.mtl
o mesh11/mesh11-geometry#mesh11-geometry
v -0.272822 -0.168093 0.055611
v -0.270854 -0.168085 0.058054
v -0.272729 -0.168024 0.076386
v -0.262845 -0.168093 0.055566
v -0.270772 -0.168024 0.076377
v -0.262834 -0.168085 0.058018
v -0.270825 -0.168063 0.064488
v -0.270814 -0.168055 0.066939
v -0.263885 -0.168064 0.064457
v -0.263874 -0.168055 0.066908
vn 0.0000025568006871924233 -0.9999944439656518 0.0033334713572361926
vn -0.0000025568006871924233 0.9999944439656518 -0.0033334713572361926
usemtl material_0_0
f 1//1 2//1 3//1
f 2//1 1//1 4//1
f 3//2 2//2 1//2
f 4//2 1//2 2//2
f 2//1 5//1 3//1
f 3//2 5//2 2//2
f 2//1 4//1 6//1
f 6//2 4//2 2//2
f 5//1 2//1 7//1
f 7//2 2//2 5//2
f 5//1 7//1 8//1
f 8//2 7//2 5//2
f 9//1 8//1 7//1
f 7//2 8//2 9//2
f 8//1 9//1 10//1
f 10//2 9//2 8//2
