# SSTK version 0.8.0
# 370
mtllib original-370.mtl
o mesh317/mesh317-geometry#mesh317-geometry
v -0.545578 -0.198399 0.082786
v -0.545578 -0.199695 0.081111
v -0.545578 -0.198399 0.081111
v -0.545578 -0.199695 0.082786
v -0.545578 -0.205444 0.081111
v -0.545578 -0.194965 0.081111
v -0.545578 -0.208288 0.080963
v -0.545578 -0.208073 0.080361
v -0.545578 -0.206360 0.081199
v -0.545578 -0.207741 0.079935
v -0.545578 -0.208360 0.081768
v -0.545578 -0.207319 0.079657
v -0.545578 -0.206684 0.081486
v -0.545578 -0.206593 0.079505
v -0.545578 -0.206805 0.082055
v -0.545578 -0.205351 0.079454
v -0.545578 -0.208212 0.083027
v -0.545578 -0.199695 0.079454
v -0.545578 -0.206740 0.082786
v -0.545578 -0.198399 0.079454
v -0.545578 -0.195965 0.079454
v -0.545578 -0.199695 0.078232
v -0.545578 -0.198399 0.078232
vn 1 0 0
vn -1 0 0
usemtl material_0_0
f 1//1 2//1 3//1
f 2//1 1//1 4//1
f 3//2 2//2 1//2
f 4//2 1//2 2//2
f 5//1 3//1 2//1
f 2//2 3//2 5//2
f 5//1 6//1 3//1
f 3//2 6//2 5//2
f 7//1 6//1 5//1
f 5//2 6//2 7//2
f 8//1 6//1 7//1
f 7//2 6//2 8//2
f 7//1 5//1 9//1
f 9//2 5//2 7//2
f 10//1 6//1 8//1
f 8//2 6//2 10//2
f 7//1 9//1 11//1
f 11//2 9//2 7//2
f 12//1 6//1 10//1
f 10//2 6//2 12//2
f 11//1 9//1 13//1
f 13//2 9//2 11//2
f 14//1 6//1 12//1
f 12//2 6//2 14//2
f 11//1 13//1 15//1
f 15//2 13//2 11//2
f 16//1 6//1 14//1
f 14//2 6//2 16//2
f 11//1 15//1 17//1
f 17//2 15//2 11//2
f 18//1 6//1 16//1
f 16//2 6//2 18//2
f 17//1 15//1 19//1
f 19//2 15//2 17//2
f 20//1 6//1 18//1
f 18//2 6//2 20//2
f 6//1 20//1 21//1
f 21//2 20//2 6//2
f 22//1 20//1 18//1
f 18//2 20//2 22//2
f 20//1 22//1 23//1
f 23//2 22//2 20//2
