# SSTK version 0.8.0
# 259
mtllib original-259.mtl
o mesh219/mesh219-geometry#mesh219-geometry
v -0.485096 -0.167544 0.382537
v -0.486466 -0.167539 0.384025
v -0.486466 -0.167544 0.382537
v -0.485096 -0.167539 0.384025
v -0.486466 -0.167517 0.390626
v -0.486466 -0.167557 0.378594
v -0.486587 -0.167506 0.393892
v -0.487079 -0.167507 0.393644
v -0.486394 -0.167513 0.391678
v -0.487427 -0.167508 0.393263
v -0.485929 -0.167505 0.393974
v -0.487654 -0.167509 0.392778
v -0.486159 -0.167512 0.392050
v -0.487779 -0.167512 0.391945
v -0.485694 -0.167511 0.392188
v -0.487820 -0.167517 0.390520
v -0.484900 -0.167506 0.393804
v -0.487820 -0.167539 0.384025
v -0.485096 -0.167512 0.392114
v -0.487820 -0.167544 0.382537
v -0.487820 -0.167553 0.379742
v -0.488819 -0.167539 0.384025
v -0.488819 -0.167544 0.382537
vn 0 -0.9999944440187541 0.0033334564077893954
vn 0 0.9999944440187541 -0.0033334564077893954
usemtl material_0_0
f 1//1 2//1 3//1
f 2//1 1//1 4//1
f 3//2 2//2 1//2
f 4//2 1//2 2//2
f 5//1 3//1 2//1
f 2//2 3//2 5//2
f 5//1 6//1 3//1
f 3//2 6//2 5//2
f 7//1 6//1 5//1
f 5//2 6//2 7//2
f 8//1 6//1 7//1
f 7//2 6//2 8//2
f 7//1 5//1 9//1
f 9//2 5//2 7//2
f 10//1 6//1 8//1
f 8//2 6//2 10//2
f 7//1 9//1 11//1
f 11//2 9//2 7//2
f 12//1 6//1 10//1
f 10//2 6//2 12//2
f 11//1 9//1 13//1
f 13//2 9//2 11//2
f 14//1 6//1 12//1
f 12//2 6//2 14//2
f 11//1 13//1 15//1
f 15//2 13//2 11//2
f 16//1 6//1 14//1
f 14//2 6//2 16//2
f 11//1 15//1 17//1
f 17//2 15//2 11//2
f 18//1 6//1 16//1
f 16//2 6//2 18//2
f 17//1 15//1 19//1
f 19//2 15//2 17//2
f 20//1 6//1 18//1
f 18//2 6//2 20//2
f 6//1 20//1 21//1
f 21//2 20//2 6//2
f 22//1 20//1 18//1
f 18//2 20//2 22//2
f 20//1 22//1 23//1
f 23//2 22//2 20//2
