# SSTK version 0.8.0
# 363
mtllib original-363.mtl
o mesh311/mesh311-geometry#mesh311-geometry
v -0.545578 -0.169296 0.521065
v -0.545578 -0.172453 0.520509
v -0.545578 -0.169866 0.520079
v -0.545578 -0.171671 0.520696
v -0.545578 -0.175526 0.520704
v -0.545578 -0.171013 0.521254
v -0.545578 -0.174955 0.519855
v -0.545578 -0.173119 0.520641
v -0.545578 -0.168949 0.522247
v -0.545578 -0.170652 0.519361
v -0.545578 -0.173656 0.521037
v -0.545578 -0.170752 0.521682
v -0.545578 -0.174262 0.519255
v -0.545578 -0.175937 0.521733
v -0.545578 -0.170565 0.522221
v -0.545578 -0.171579 0.518924
v -0.545578 -0.174134 0.521973
v -0.545578 -0.170416 0.523629
v -0.545578 -0.173463 0.518897
v -0.545578 -0.176373 0.523323
v -0.545578 -0.168833 0.523555
v -0.545578 -0.172573 0.518778
v -0.545578 -0.174623 0.523745
v -0.545578 -0.168954 0.524975
v -0.545578 -0.177035 0.525740
v -0.545578 -0.170580 0.525002
v -0.545578 -0.175087 0.525590
v -0.545578 -0.169319 0.526216
v -0.545578 -0.175489 0.526749
v -0.545578 -0.170786 0.525546
v -0.545578 -0.177397 0.526471
v -0.545578 -0.171073 0.525994
v -0.545578 -0.177836 0.526962
v -0.545578 -0.171441 0.526353
v -0.545578 -0.176108 0.527779
v -0.545578 -0.169920 0.527236
v -0.545578 -0.178353 0.527239
v -0.545578 -0.171888 0.526629
v -0.545578 -0.178951 0.527332
v -0.545578 -0.173017 0.526934
v -0.545578 -0.181696 0.527687
v -0.545578 -0.172888 0.528656
v -0.545578 -0.180844 0.528443
v -0.545578 -0.179556 0.527236
v -0.545578 -0.170749 0.527989
v -0.545578 -0.176873 0.528498
v -0.545578 -0.180113 0.526948
v -0.545578 -0.171756 0.528466
v -0.545578 -0.179855 0.528908
v -0.545578 -0.182335 0.526661
v -0.545578 -0.177774 0.528922
v -0.545578 -0.180589 0.526463
v -0.545578 -0.178803 0.529063
v -0.545578 -0.180951 0.525777
v -0.545578 -0.182734 0.525426
v -0.545578 -0.181180 0.524930
v -0.545578 -0.182867 0.524046
v -0.545578 -0.181256 0.523962
v -0.545578 -0.181156 0.522863
v -0.545578 -0.182733 0.522353
v -0.545578 -0.180854 0.521879
v -0.545578 -0.180388 0.521075
v -0.545578 -0.182330 0.520958
v -0.545578 -0.179798 0.520514
v -0.545578 -0.179054 0.520154
v -0.545578 -0.181658 0.519847
v -0.545578 -0.178127 0.519954
v -0.545578 -0.180715 0.519005
v -0.545578 -0.179566 0.518465
v -0.545578 -0.178275 0.518260
vn 1 0 0
vn -1 0 0
usemtl material_0_0
f 1//1 2//1 3//1
f 2//1 1//1 4//1
f 3//2 2//2 1//2
f 4//2 1//2 2//2
f 5//1 3//1 2//1
f 2//2 3//2 5//2
f 4//1 1//1 6//1
f 6//2 1//2 4//2
f 7//1 3//1 5//1
f 5//2 3//2 7//2
f 5//1 2//1 8//1
f 8//2 2//2 5//2
f 6//1 1//1 9//1
f 9//2 1//2 6//2
f 7//1 10//1 3//1
f 3//2 10//2 7//2
f 5//1 8//1 11//1
f 11//2 8//2 5//2
f 6//1 9//1 12//1
f 12//2 9//2 6//2
f 13//1 10//1 7//1
f 7//2 10//2 13//2
f 5//1 11//1 14//1
f 14//2 11//2 5//2
f 12//1 9//1 15//1
f 15//2 9//2 12//2
f 13//1 16//1 10//1
f 10//2 16//2 13//2
f 14//1 11//1 17//1
f 17//2 11//2 14//2
f 15//1 9//1 18//1
f 18//2 9//2 15//2
f 19//1 16//1 13//1
f 13//2 16//2 19//2
f 14//1 17//1 20//1
f 20//2 17//2 14//2
f 18//1 9//1 21//1
f 21//2 9//2 18//2
f 16//1 19//1 22//1
f 22//2 19//2 16//2
f 20//1 17//1 23//1
f 23//2 17//2 20//2
f 18//1 21//1 24//1
f 24//2 21//2 18//2
f 20//1 23//1 25//1
f 25//2 23//2 20//2
f 18//1 24//1 26//1
f 26//2 24//2 18//2
f 25//1 23//1 27//1
f 27//2 23//2 25//2
f 26//1 24//1 28//1
f 28//2 24//2 26//2
f 25//1 27//1 29//1
f 29//2 27//2 25//2
f 26//1 28//1 30//1
f 30//2 28//2 26//2
f 25//1 29//1 31//1
f 31//2 29//2 25//2
f 30//1 28//1 32//1
f 32//2 28//2 30//2
f 31//1 29//1 33//1
f 33//2 29//2 31//2
f 32//1 28//1 34//1
f 34//2 28//2 32//2
f 33//1 29//1 35//1
f 35//2 29//2 33//2
f 34//1 28//1 36//1
f 36//2 28//2 34//2
f 33//1 35//1 37//1
f 37//2 35//2 33//2
f 34//1 36//1 38//1
f 38//2 36//2 34//2
f 37//1 35//1 39//1
f 39//2 35//2 37//2
f 38//1 36//1 40//1
f 40//2 36//2 38//2
f 39//1 35//1 41//1
f 41//2 35//2 39//2
f 40//1 36//1 42//1
f 42//2 36//2 40//2
f 41//1 35//1 43//1
f 43//2 35//2 41//2
f 41//1 44//1 39//1
f 39//2 44//2 41//2
f 42//1 36//1 45//1
f 45//2 36//2 42//2
f 43//1 35//1 46//1
f 46//2 35//2 43//2
f 41//1 47//1 44//1
f 44//2 47//2 41//2
f 42//1 45//1 48//1
f 48//2 45//2 42//2
f 43//1 46//1 49//1
f 49//2 46//2 43//2
f 50//1 47//1 41//1
f 41//2 47//2 50//2
f 49//1 46//1 51//1
f 51//2 46//2 49//2
f 50//1 52//1 47//1
f 47//2 52//2 50//2
f 49//1 51//1 53//1
f 53//2 51//2 49//2
f 50//1 54//1 52//1
f 52//2 54//2 50//2
f 55//1 54//1 50//1
f 50//2 54//2 55//2
f 55//1 56//1 54//1
f 54//2 56//2 55//2
f 57//1 56//1 55//1
f 55//2 56//2 57//2
f 57//1 58//1 56//1
f 56//2 58//2 57//2
f 57//1 59//1 58//1
f 58//2 59//2 57//2
f 60//1 59//1 57//1
f 57//2 59//2 60//2
f 60//1 61//1 59//1
f 59//2 61//2 60//2
f 60//1 62//1 61//1
f 61//2 62//2 60//2
f 63//1 62//1 60//1
f 60//2 62//2 63//2
f 63//1 64//1 62//1
f 62//2 64//2 63//2
f 63//1 65//1 64//1
f 64//2 65//2 63//2
f 66//1 65//1 63//1
f 63//2 65//2 66//2
f 66//1 67//1 65//1
f 65//2 67//2 66//2
f 68//1 67//1 66//1
f 66//2 67//2 68//2
f 69//1 67//1 68//1
f 68//2 67//2 69//2
f 67//1 69//1 70//1
f 70//2 69//2 67//2
