# SSTK version 0.8.0
# 149
mtllib original-149.mtl
o mesh125/mesh125-geometry#mesh125-geometry
v 0.019719 -0.167544 0.386136
v 0.019521 -0.167525 0.391639
v 0.019158 -0.167541 0.386825
v 0.019597 -0.167530 0.390066
v 0.019708 -0.167510 0.396192
v 0.019808 -0.167535 0.388738
v 0.025513 -0.167525 0.391639
v 0.019146 -0.167512 0.395524
v 0.019596 -0.167522 0.392515
v 0.020357 -0.167545 0.385645
v 0.024083 -0.167530 0.390066
v 0.018701 -0.167538 0.387691
v 0.019746 -0.167520 0.393282
v 0.020020 -0.167537 0.388185
v 0.024499 -0.167541 0.386793
v 0.018695 -0.167515 0.394685
v 0.020362 -0.167508 0.396668
v 0.020304 -0.167538 0.387707
v 0.023952 -0.167544 0.386118
v 0.024946 -0.167539 0.387642
v 0.018375 -0.167535 0.388717
v 0.019971 -0.167518 0.393939
v 0.020642 -0.167540 0.387321
v 0.023909 -0.167535 0.388820
v 0.025265 -0.167535 0.388647
v 0.018372 -0.167518 0.393692
v 0.020270 -0.167516 0.394488
v 0.021073 -0.167546 0.385350
v 0.023569 -0.167538 0.387930
v 0.025457 -0.167531 0.389810
v 0.018179 -0.167531 0.389902
v 0.020627 -0.167514 0.394920
v 0.021018 -0.167541 0.387045
v 0.023330 -0.167545 0.385637
v 0.025521 -0.167527 0.391129
v 0.018178 -0.167522 0.392546
v 0.021106 -0.167508 0.396954
v 0.021881 -0.167541 0.386825
v 0.023219 -0.167539 0.387446
v 0.018114 -0.167527 0.391246
v 0.021027 -0.167513 0.395229
v 0.021866 -0.167547 0.385252
v 0.022822 -0.167540 0.387101
v 0.021467 -0.167513 0.395415
v 0.022635 -0.167546 0.385348
v 0.021942 -0.167507 0.397050
v 0.022376 -0.167541 0.386894
v 0.021950 -0.167512 0.395476
v 0.022611 -0.167507 0.396990
v 0.022644 -0.167513 0.395338
v 0.023217 -0.167508 0.396810
v 0.023228 -0.167514 0.394924
v 0.023761 -0.167509 0.396511
v 0.023703 -0.167517 0.394206
v 0.024068 -0.167520 0.393159
v 0.024242 -0.167510 0.396093
v 0.025475 -0.167519 0.393404
v 0.024657 -0.167512 0.395566
v 0.025000 -0.167514 0.394942
v 0.025273 -0.167517 0.394222
vn 0 -0.9999944440187541 0.0033334564077893954
vn 0 0.9999944440187541 -0.0033334564077893954
usemtl material_0_0
f 1//1 2//1 3//1
f 2//1 1//1 4//1
f 3//2 2//2 1//2
f 4//2 1//2 2//2
f 5//1 3//1 2//1
f 2//2 3//2 5//2
f 4//1 1//1 6//1
f 6//2 1//2 4//2
f 4//1 7//1 2//1
f 2//2 7//2 4//2
f 8//1 3//1 5//1
f 5//2 3//2 8//2
f 5//1 2//1 9//1
f 9//2 2//2 5//2
f 6//1 1//1 10//1
f 10//2 1//2 6//2
f 7//1 4//1 11//1
f 11//2 4//2 7//2
f 8//1 12//1 3//1
f 3//2 12//2 8//2
f 5//1 9//1 13//1
f 13//2 9//2 5//2
f 6//1 10//1 14//1
f 14//2 10//2 6//2
f 7//1 11//1 15//1
f 15//2 11//2 7//2
f 16//1 12//1 8//1
f 8//2 12//2 16//2
f 5//1 13//1 17//1
f 17//2 13//2 5//2
f 14//1 10//1 18//1
f 18//2 10//2 14//2
f 11//1 19//1 15//1
f 15//2 19//2 11//2
f 7//1 15//1 20//1
f 20//2 15//2 7//2
f 16//1 21//1 12//1
f 12//2 21//2 16//2
f 17//1 13//1 22//1
f 22//2 13//2 17//2
f 18//1 10//1 23//1
f 23//2 10//2 18//2
f 24//1 19//1 11//1
f 11//2 19//2 24//2
f 7//1 20//1 25//1
f 25//2 20//2 7//2
f 26//1 21//1 16//1
f 16//2 21//2 26//2
f 17//1 22//1 27//1
f 27//2 22//2 17//2
f 23//1 10//1 28//1
f 28//2 10//2 23//2
f 29//1 19//1 24//1
f 24//2 19//2 29//2
f 7//1 25//1 30//1
f 30//2 25//2 7//2
f 26//1 31//1 21//1
f 21//2 31//2 26//2
f 17//1 27//1 32//1
f 32//2 27//2 17//2
f 23//1 28//1 33//1
f 33//2 28//2 23//2
f 29//1 34//1 19//1
f 19//2 34//2 29//2
f 7//1 30//1 35//1
f 35//2 30//2 7//2
f 36//1 31//1 26//1
f 26//2 31//2 36//2
f 17//1 32//1 37//1
f 37//2 32//2 17//2
f 33//1 28//1 38//1
f 38//2 28//2 33//2
f 39//1 34//1 29//1
f 29//2 34//2 39//2
f 31//1 36//1 40//1
f 40//2 36//2 31//2
f 37//1 32//1 41//1
f 41//2 32//2 37//2
f 38//1 28//1 42//1
f 42//2 28//2 38//2
f 43//1 34//1 39//1
f 39//2 34//2 43//2
f 37//1 41//1 44//1
f 44//2 41//2 37//2
f 38//1 42//1 45//1
f 45//2 42//2 38//2
f 43//1 45//1 34//1
f 34//2 45//2 43//2
f 37//1 44//1 46//1
f 46//2 44//2 37//2
f 38//1 45//1 47//1
f 47//2 45//2 38//2
f 47//1 45//1 43//1
f 43//2 45//2 47//2
f 46//1 44//1 48//1
f 48//2 44//2 46//2
f 46//1 48//1 49//1
f 49//2 48//2 46//2
f 49//1 48//1 50//1
f 50//2 48//2 49//2
f 49//1 50//1 51//1
f 51//2 50//2 49//2
f 51//1 50//1 52//1
f 52//2 50//2 51//2
f 51//1 52//1 53//1
f 53//2 52//2 51//2
f 53//1 52//1 54//1
f 54//2 52//2 53//2
f 53//1 54//1 55//1
f 55//2 54//2 53//2
f 53//1 55//1 56//1
f 56//2 55//2 53//2
f 56//1 55//1 57//1
f 57//2 55//2 56//2
f 56//1 57//1 58//1
f 58//2 57//2 56//2
f 58//1 57//1 59//1
f 59//2 57//2 58//2
f 59//1 57//1 60//1
f 60//2 57//2 59//2
