# SSTK version 0.8.0
# 214
mtllib original-214.mtl
o mesh180/mesh180-geometry#mesh180-geometry
v -0.263913 -0.167924 0.127983
v -0.263770 -0.167936 0.124594
v -0.263714 -0.167931 0.125916
v -0.263937 -0.167939 0.123448
v -0.264162 -0.167921 0.128888
v -0.264216 -0.167943 0.122479
v -0.264511 -0.167919 0.129707
v -0.264607 -0.167945 0.121686
v -0.264955 -0.167916 0.130386
v -0.265081 -0.167947 0.121069
v -0.265490 -0.167915 0.130871
v -0.265298 -0.167932 0.125661
v -0.265410 -0.167926 0.127514
v -0.265612 -0.167949 0.120628
v -0.265747 -0.167922 0.128679
v -0.265411 -0.167938 0.123967
v -0.266115 -0.167914 0.131162
v -0.265752 -0.167941 0.122855
v -0.266255 -0.167920 0.129296
v -0.266199 -0.167950 0.120364
v -0.266831 -0.167913 0.131258
v -0.266259 -0.167943 0.122238
v -0.266882 -0.167919 0.129501
v -0.266841 -0.167950 0.120275
v -0.267497 -0.167914 0.131171
v -0.266872 -0.167944 0.122033
v -0.267502 -0.167920 0.129297
v -0.267495 -0.167950 0.120364
v -0.268103 -0.167915 0.130910
v -0.267506 -0.167943 0.122238
v -0.268011 -0.167922 0.128686
v -0.268093 -0.167949 0.120632
v -0.268352 -0.167926 0.127572
v -0.268016 -0.167941 0.122855
v -0.268650 -0.167916 0.130473
v -0.268353 -0.167938 0.124017
v -0.268465 -0.167931 0.125859
v -0.268637 -0.167947 0.121077
v -0.269126 -0.167945 0.121700
v -0.269136 -0.167918 0.129863
v -0.269530 -0.167943 0.122488
v -0.269536 -0.167921 0.129083
v -0.269818 -0.167939 0.123427
v -0.269821 -0.167924 0.128139
v -0.269991 -0.167936 0.124518
v -0.269992 -0.167927 0.127031
v -0.270049 -0.167932 0.125760
vn 0 -0.9999944440111681 0.0033334586835315487
vn 0 0.9999944440111681 -0.0033334586835315487
usemtl material_0_0
f 1//1 2//1 3//1
f 2//1 1//1 4//1
f 3//2 2//2 1//2
f 4//2 1//2 2//2
f 4//1 1//1 5//1
f 5//2 1//2 4//2
f 4//1 5//1 6//1
f 6//2 5//2 4//2
f 6//1 5//1 7//1
f 7//2 5//2 6//2
f 6//1 7//1 8//1
f 8//2 7//2 6//2
f 8//1 7//1 9//1
f 9//2 7//2 8//2
f 8//1 9//1 10//1
f 10//2 9//2 8//2
f 10//1 9//1 11//1
f 11//2 9//2 10//2
f 10//1 11//1 12//1
f 12//2 11//2 10//2
f 12//1 11//1 13//1
f 13//2 11//2 12//2
f 12//1 14//1 10//1
f 10//2 14//2 12//2
f 13//1 11//1 15//1
f 15//2 11//2 13//2
f 14//1 12//1 16//1
f 16//2 12//2 14//2
f 15//1 11//1 17//1
f 17//2 11//2 15//2
f 14//1 16//1 18//1
f 18//2 16//2 14//2
f 15//1 17//1 19//1
f 19//2 17//2 15//2
f 14//1 18//1 20//1
f 20//2 18//2 14//2
f 19//1 17//1 21//1
f 21//2 17//2 19//2
f 20//1 18//1 22//1
f 22//2 18//2 20//2
f 19//1 21//1 23//1
f 23//2 21//2 19//2
f 20//1 22//1 24//1
f 24//2 22//2 20//2
f 23//1 21//1 25//1
f 25//2 21//2 23//2
f 24//1 22//1 26//1
f 26//2 22//2 24//2
f 23//1 25//1 27//1
f 27//2 25//2 23//2
f 24//1 26//1 28//1
f 28//2 26//2 24//2
f 27//1 25//1 29//1
f 29//2 25//2 27//2
f 28//1 26//1 30//1
f 30//2 26//2 28//2
f 27//1 29//1 31//1
f 31//2 29//2 27//2
f 28//1 30//1 32//1
f 32//2 30//2 28//2
f 31//1 29//1 33//1
f 33//2 29//2 31//2
f 32//1 30//1 34//1
f 34//2 30//2 32//2
f 33//1 29//1 35//1
f 35//2 29//2 33//2
f 32//1 34//1 36//1
f 36//2 34//2 32//2
f 33//1 35//1 37//1
f 37//2 35//2 33//2
f 32//1 36//1 38//1
f 38//2 36//2 32//2
f 37//1 35//1 38//1
f 38//2 35//2 37//2
f 38//1 36//1 37//1
f 37//2 36//2 38//2
f 38//1 35//1 39//1
f 39//2 35//2 38//2
f 39//1 35//1 40//1
f 40//2 35//2 39//2
f 39//1 40//1 41//1
f 41//2 40//2 39//2
f 41//1 40//1 42//1
f 42//2 40//2 41//2
f 41//1 42//1 43//1
f 43//2 42//2 41//2
f 43//1 42//1 44//1
f 44//2 42//2 43//2
f 43//1 44//1 45//1
f 45//2 44//2 43//2
f 45//1 44//1 46//1
f 46//2 44//2 45//2
f 45//1 46//1 47//1
f 47//2 46//2 45//2
