# SSTK version 0.8.0
# 332
mtllib original-332.mtl
o mesh283/mesh283-geometry#mesh283-geometry
v -0.398281 -0.164176 -0.106569
v -0.398281 -0.166212 -0.104870
v -0.398281 -0.165083 -0.105585
v -0.398281 -0.167489 -0.104471
v -0.398281 -0.163556 -0.107753
v -0.398281 -0.168825 -0.104416
v -0.398281 -0.163263 -0.109058
v -0.398281 -0.170130 -0.104709
v -0.398281 -0.163317 -0.110395
v -0.398281 -0.171315 -0.105330
v -0.398281 -0.163716 -0.111671
v -0.398281 -0.172298 -0.106236
v -0.398281 -0.164432 -0.112801
v -0.398281 -0.173014 -0.107366
v -0.398281 -0.165415 -0.113707
v -0.398281 -0.173412 -0.108643
v -0.398281 -0.166600 -0.114328
v -0.398281 -0.173467 -0.109979
v -0.398281 -0.167905 -0.114621
v -0.398281 -0.173174 -0.111284
v -0.398281 -0.169241 -0.114566
v -0.398281 -0.172553 -0.112468
v -0.398281 -0.170517 -0.114167
v -0.398281 -0.171647 -0.113452
vn -1 0 0
vn 1 0 0
usemtl material_0_0
f 1//1 2//1 3//1
f 2//1 1//1 4//1
f 4//1 1//1 5//1
f 4//1 5//1 6//1
f 6//1 5//1 7//1
f 6//1 7//1 8//1
f 8//1 7//1 9//1
f 8//1 9//1 10//1
f 10//1 9//1 11//1
f 10//1 11//1 12//1
f 12//1 11//1 13//1
f 12//1 13//1 14//1
f 14//1 13//1 15//1
f 14//1 15//1 16//1
f 16//1 15//1 17//1
f 16//1 17//1 18//1
f 18//1 17//1 19//1
f 18//1 19//1 20//1
f 20//1 19//1 21//1
f 20//1 21//1 22//1
f 22//1 21//1 23//1
f 22//1 23//1 24//1
usemtl material_1_0
f 3//2 2//2 1//2
f 4//2 1//2 2//2
f 5//2 1//2 4//2
f 6//2 5//2 4//2
f 7//2 5//2 6//2
f 8//2 7//2 6//2
f 9//2 7//2 8//2
f 10//2 9//2 8//2
f 11//2 9//2 10//2
f 12//2 11//2 10//2
f 13//2 11//2 12//2
f 14//2 13//2 12//2
f 15//2 13//2 14//2
f 16//2 15//2 14//2
f 17//2 15//2 16//2
f 18//2 17//2 16//2
f 19//2 17//2 18//2
f 20//2 19//2 18//2
f 21//2 19//2 20//2
f 22//2 21//2 20//2
f 23//2 21//2 22//2
f 24//2 23//2 22//2
