# SSTK version 0.8.0
# 270
mtllib original-270.mtl
o Y1/Y/mesh229/mesh229-geometry#mesh229-geometry
v -0.215514 -0.167843 0.198461
v -0.216270 -0.167823 0.204328
v -0.217128 -0.167831 0.202131
v -0.210369 -0.167863 0.192353
v -0.216270 -0.167794 0.213129
v -0.212649 -0.167863 0.192353
v -0.218227 -0.167794 0.213129
v -0.218227 -0.167823 0.204328
v -0.218631 -0.167842 0.198617
v -0.221546 -0.167863 0.192353
v -0.223927 -0.167863 0.192353
vn 0 -0.9999944440187541 0.0033334564077893954
vn 0 0.9999944440187541 -0.0033334564077893954
usemtl material_0_0
f 1//1 2//1 3//1
f 2//1 1//1 4//1
f 3//2 2//2 1//2
f 4//2 1//2 2//2
f 5//1 3//1 2//1
f 2//2 3//2 5//2
f 4//1 1//1 6//1
f 6//2 1//2 4//2
f 7//1 3//1 5//1
f 5//2 3//2 7//2
f 8//1 3//1 7//1
f 7//2 3//2 8//2
f 8//1 9//1 3//1
f 3//2 9//2 8//2
f 8//1 10//1 9//1
f 9//2 10//2 8//2
f 10//1 8//1 11//1
f 11//2 8//2 10//2
