# SSTK version 0.8.0
# 375
mtllib original-375.mtl
o mesh322/mesh322-geometry#mesh322-geometry
v -0.545578 -0.198399 0.121759
v -0.545578 -0.211998 0.120241
v -0.545578 -0.198399 0.120241
v -0.545578 -0.203370 0.121750
v -0.545578 -0.199677 0.121759
v -0.545578 -0.211998 0.121908
v -0.545578 -0.202478 0.121801
v -0.545578 -0.204257 0.121798
v -0.545578 -0.199021 0.122331
v -0.545578 -0.207212 0.121908
v -0.545578 -0.201698 0.121955
v -0.545578 -0.205021 0.121942
v -0.545578 -0.201031 0.122211
v -0.545578 -0.207703 0.122392
v -0.545578 -0.200477 0.122569
v -0.545578 -0.205660 0.122182
v -0.545578 -0.198552 0.122972
v -0.545578 -0.206175 0.122519
v -0.545578 -0.200042 0.122994
v -0.545578 -0.208101 0.122995
v -0.545578 -0.198271 0.123720
v -0.545578 -0.206572 0.122923
v -0.545578 -0.199731 0.123450
v -0.545578 -0.206856 0.123368
v -0.545578 -0.199545 0.123936
v -0.545578 -0.208365 0.123700
v -0.545578 -0.198177 0.124611
v -0.545578 -0.207026 0.123853
v -0.545578 -0.199482 0.124453
v -0.545578 -0.208453 0.124490
v -0.545578 -0.199541 0.124971
v -0.545578 -0.207083 0.124379
v -0.545578 -0.198339 0.125796
v -0.545578 -0.207024 0.124915
v -0.545578 -0.199716 0.125452
v -0.545578 -0.208292 0.125602
v -0.545578 -0.200008 0.125895
v -0.545578 -0.206848 0.125410
v -0.545578 -0.198825 0.126832
v -0.545578 -0.206554 0.125866
v -0.545578 -0.200417 0.126300
v -0.545578 -0.207809 0.126661
v -0.545578 -0.200944 0.126638
v -0.545578 -0.206143 0.126282
v -0.545578 -0.201588 0.126880
v -0.545578 -0.205609 0.126628
v -0.545578 -0.199606 0.127677
v -0.545578 -0.204945 0.126875
v -0.545578 -0.202351 0.127025
v -0.545578 -0.207025 0.127571
v -0.545578 -0.203232 0.127073
v -0.545578 -0.204153 0.127024
v -0.545578 -0.205958 0.128235
v -0.545578 -0.200653 0.128286
v -0.545578 -0.204675 0.128641
v -0.545578 -0.201890 0.128654
v -0.545578 -0.203241 0.128776
vn 1 0 0
vn -1 0 0
usemtl material_0_0
f 1//1 2//1 3//1
f 2//1 1//1 4//1
f 3//2 2//2 1//2
f 4//2 1//2 2//2
f 4//1 1//1 5//1
f 5//2 1//2 4//2
f 4//1 6//1 2//1
f 2//2 6//2 4//2
f 4//1 5//1 7//1
f 7//2 5//2 4//2
f 6//1 4//1 8//1
f 8//2 4//2 6//2
f 7//1 5//1 9//1
f 9//2 5//2 7//2
f 6//1 8//1 10//1
f 10//2 8//2 6//2
f 7//1 9//1 11//1
f 11//2 9//2 7//2
f 12//1 10//1 8//1
f 8//2 10//2 12//2
f 11//1 9//1 13//1
f 13//2 9//2 11//2
f 10//1 12//1 14//1
f 14//2 12//2 10//2
f 13//1 9//1 15//1
f 15//2 9//2 13//2
f 14//1 12//1 16//1
f 16//2 12//2 14//2
f 15//1 9//1 17//1
f 17//2 9//2 15//2
f 14//1 16//1 18//1
f 18//2 16//2 14//2
f 15//1 17//1 19//1
f 19//2 17//2 15//2
f 14//1 18//1 20//1
f 20//2 18//2 14//2
f 19//1 17//1 21//1
f 21//2 17//2 19//2
f 20//1 18//1 22//1
f 22//2 18//2 20//2
f 19//1 21//1 23//1
f 23//2 21//2 19//2
f 20//1 22//1 24//1
f 24//2 22//2 20//2
f 23//1 21//1 25//1
f 25//2 21//2 23//2
f 20//1 24//1 26//1
f 26//2 24//2 20//2
f 25//1 21//1 27//1
f 27//2 21//2 25//2
f 26//1 24//1 28//1
f 28//2 24//2 26//2
f 25//1 27//1 29//1
f 29//2 27//2 25//2
f 26//1 28//1 30//1
f 30//2 28//2 26//2
f 29//1 27//1 31//1
f 31//2 27//2 29//2
f 30//1 28//1 32//1
f 32//2 28//2 30//2
f 31//1 27//1 33//1
f 33//2 27//2 31//2
f 30//1 32//1 34//1
f 34//2 32//2 30//2
f 31//1 33//1 35//1
f 35//2 33//2 31//2
f 30//1 34//1 36//1
f 36//2 34//2 30//2
f 35//1 33//1 37//1
f 37//2 33//2 35//2
f 36//1 34//1 38//1
f 38//2 34//2 36//2
f 37//1 33//1 39//1
f 39//2 33//2 37//2
f 36//1 38//1 40//1
f 40//2 38//2 36//2
f 37//1 39//1 41//1
f 41//2 39//2 37//2
f 36//1 40//1 42//1
f 42//2 40//2 36//2
f 41//1 39//1 43//1
f 43//2 39//2 41//2
f 42//1 40//1 44//1
f 44//2 40//2 42//2
f 43//1 39//1 45//1
f 45//2 39//2 43//2
f 42//1 44//1 46//1
f 46//2 44//2 42//2
f 45//1 39//1 47//1
f 47//2 39//2 45//2
f 42//1 46//1 48//1
f 48//2 46//2 42//2
f 45//1 47//1 49//1
f 49//2 47//2 45//2
f 42//1 48//1 50//1
f 50//2 48//2 42//2
f 49//1 47//1 51//1
f 51//2 47//2 49//2
f 50//1 48//1 52//1
f 52//2 48//2 50//2
f 51//1 47//1 50//1
f 50//2 47//2 51//2
f 50//1 52//1 51//1
f 51//2 52//2 50//2
f 50//1 47//1 53//1
f 53//2 47//2 50//2
f 53//1 47//1 54//1
f 54//2 47//2 53//2
f 53//1 54//1 55//1
f 55//2 54//2 53//2
f 55//1 54//1 56//1
f 56//2 54//2 55//2
f 55//1 56//1 57//1
f 57//2 56//2 55//2
