# SSTK version 0.8.0
# 6
mtllib original-6.mtl
o mesh4/mesh4-geometry#mesh4-geometry
v -0.481910 -0.168057 0.066637
v -0.481983 -0.168043 0.070697
v -0.482061 -0.168049 0.068922
v -0.481737 -0.168038 0.072255
v -0.481473 -0.168063 0.064658
v -0.481323 -0.168034 0.073594
v -0.480743 -0.168069 0.063060
v -0.480742 -0.168030 0.074715
v -0.479714 -0.168072 0.061921
v -0.480136 -0.168054 0.067462
v -0.479972 -0.168058 0.066269
v -0.480194 -0.168049 0.068856
v -0.479701 -0.168061 0.065277
v -0.480023 -0.168027 0.075600
v -0.478485 -0.168075 0.061239
v -0.480147 -0.168045 0.070269
v -0.479323 -0.168064 0.064487
v -0.479996 -0.168041 0.071475
v -0.478861 -0.168066 0.063884
v -0.479194 -0.168025 0.076234
v -0.478334 -0.168067 0.063454
v -0.479740 -0.168037 0.072474
v -0.477154 -0.168076 0.061015
v -0.479381 -0.168035 0.073266
v -0.477744 -0.168068 0.063197
v -0.478938 -0.168033 0.073869
v -0.477090 -0.168069 0.063112
v -0.478258 -0.168024 0.076616
v -0.476321 -0.168075 0.061095
v -0.478431 -0.168031 0.074300
v -0.476249 -0.168068 0.063306
v -0.477860 -0.168030 0.074560
v -0.475569 -0.168074 0.061330
v -0.477213 -0.168023 0.076745
v -0.475544 -0.168066 0.063882
v -0.477226 -0.168030 0.074648
v -0.474896 -0.168073 0.061719
v -0.476245 -0.168031 0.074420
v -0.475003 -0.168063 0.064837
v -0.476369 -0.168023 0.076656
v -0.474658 -0.168058 0.066167
v -0.475594 -0.168024 0.076383
v -0.474303 -0.168071 0.062264
v -0.475438 -0.168033 0.073732
v -0.472891 -0.168060 0.065790
v -0.474886 -0.168026 0.075927
v -0.473800 -0.168069 0.062950
v -0.474849 -0.168037 0.072565
v -0.473397 -0.168066 0.063767
v -0.474247 -0.168028 0.075287
v -0.473094 -0.168063 0.064713
v -0.474521 -0.168043 0.070901
v -0.472737 -0.168041 0.071232
v -0.473699 -0.168031 0.074485
v -0.473265 -0.168034 0.073542
v -0.472944 -0.168037 0.072458
vn -0.0000018846440441166265 -0.9999944439932112 0.0033334635376291093
vn 0.0000018846440441166265 0.9999944439932112 -0.0033334635376291093
usemtl material_0_0
f 1//1 2//1 3//1
f 2//1 1//1 4//1
f 3//2 2//2 1//2
f 4//2 1//2 2//2
f 4//1 1//1 5//1
f 5//2 1//2 4//2
f 4//1 5//1 6//1
f 6//2 5//2 4//2
f 6//1 5//1 7//1
f 7//2 5//2 6//2
f 6//1 7//1 8//1
f 8//2 7//2 6//2
f 8//1 7//1 9//1
f 9//2 7//2 8//2
f 8//1 9//1 10//1
f 10//2 9//2 8//2
f 10//1 9//1 11//1
f 11//2 9//2 10//2
f 8//1 10//1 12//1
f 12//2 10//2 8//2
f 11//1 9//1 13//1
f 13//2 9//2 11//2
f 12//1 14//1 8//1
f 8//2 14//2 12//2
f 13//1 9//1 15//1
f 15//2 9//2 13//2
f 14//1 12//1 16//1
f 16//2 12//2 14//2
f 13//1 15//1 17//1
f 17//2 15//2 13//2
f 14//1 16//1 18//1
f 18//2 16//2 14//2
f 17//1 15//1 19//1
f 19//2 15//2 17//2
f 14//1 18//1 20//1
f 20//2 18//2 14//2
f 19//1 15//1 21//1
f 21//2 15//2 19//2
f 20//1 18//1 22//1
f 22//2 18//2 20//2
f 21//1 15//1 23//1
f 23//2 15//2 21//2
f 20//1 22//1 24//1
f 24//2 22//2 20//2
f 21//1 23//1 25//1
f 25//2 23//2 21//2
f 20//1 24//1 26//1
f 26//2 24//2 20//2
f 25//1 23//1 27//1
f 27//2 23//2 25//2
f 20//1 26//1 28//1
f 28//2 26//2 20//2
f 27//1 23//1 29//1
f 29//2 23//2 27//2
f 28//1 26//1 30//1
f 30//2 26//2 28//2
f 27//1 29//1 31//1
f 31//2 29//2 27//2
f 28//1 30//1 32//1
f 32//2 30//2 28//2
f 31//1 29//1 33//1
f 33//2 29//2 31//2
f 28//1 32//1 34//1
f 34//2 32//2 28//2
f 31//1 33//1 35//1
f 35//2 33//2 31//2
f 34//1 32//1 36//1
f 36//2 32//2 34//2
f 35//1 33//1 37//1
f 37//2 33//2 35//2
f 34//1 36//1 38//1
f 38//2 36//2 34//2
f 35//1 37//1 39//1
f 39//2 37//2 35//2
f 34//1 38//1 40//1
f 40//2 38//2 34//2
f 39//1 37//1 41//1
f 41//2 37//2 39//2
f 40//1 38//1 42//1
f 42//2 38//2 40//2
f 41//1 37//1 43//1
f 43//2 37//2 41//2
f 42//1 38//1 44//1
f 44//2 38//2 42//2
f 41//1 43//1 45//1
f 45//2 43//2 41//2
f 42//1 44//1 46//1
f 46//2 44//2 42//2
f 45//1 43//1 47//1
f 47//2 43//2 45//2
f 46//1 44//1 48//1
f 48//2 44//2 46//2
f 45//1 47//1 49//1
f 49//2 47//2 45//2
f 46//1 48//1 50//1
f 50//2 48//2 46//2
f 45//1 49//1 51//1
f 51//2 49//2 45//2
f 50//1 48//1 52//1
f 52//2 48//2 50//2
f 50//1 52//1 53//1
f 53//2 52//2 50//2
f 50//1 53//1 54//1
f 54//2 53//2 50//2
f 54//1 53//1 55//1
f 55//2 53//2 54//2
f 55//1 53//1 56//1
f 56//2 53//2 55//2
