# SSTK version 0.8.0
# 152
mtllib original-152.mtl
o __1_17/__17/mesh128/mesh128-geometry#mesh128-geometry
v 0.053671 -0.167842 0.210428
v 0.049666 -0.167835 0.212540
v 0.049666 -0.167842 0.210428
v 0.051855 -0.167835 0.212540
v 0.051855 -0.167761 0.234860
v 0.053671 -0.167754 0.236972
v 0.049666 -0.167754 0.236972
v 0.049666 -0.167761 0.234860
vn 0 -0.9999944440187541 0.0033334564077893954
vn 0 0.9999944440187541 -0.0033334564077893954
usemtl material_0_0
f 1//1 2//1 3//1
f 2//1 1//1 4//1
f 3//2 2//2 1//2
f 4//2 1//2 2//2
f 4//1 1//1 5//1
f 5//2 1//2 4//2
f 6//1 5//1 1//1
f 1//2 5//2 6//2
f 7//1 5//1 6//1
f 6//2 5//2 7//2
f 5//1 7//1 8//1
f 8//2 7//2 5//2
