# SSTK version 0.8.0
# 3
mtllib original-3.mtl
o Lever/mesh1/mesh1-geometry#mesh1-geometry
v 0.079118 0.136640 0.422740
v 0.067426 0.134485 0.412891
v 0.074614 0.134485 0.425340
v 0.071930 0.136640 0.410290
v 0.063559 0.131059 0.415124
v 0.088784 0.136640 0.417159
v 0.083951 0.137374 0.419949
v 0.086100 0.134485 0.402109
v 0.070746 0.131059 0.427573
v 0.089967 0.131059 0.399877
v 0.093288 0.134485 0.414559
v 0.076763 0.137374 0.407500
v 0.081596 0.136640 0.404710
v 0.067779 0.126593 0.429286
v 0.092935 0.126593 0.398163
v 0.097155 0.131059 0.412326
v 0.060591 0.126593 0.416837
v 0.065913 0.121393 0.430363
v 0.100123 0.126593 0.410612
v 0.094801 0.121393 0.397086
v 0.058726 0.121393 0.417914
v 0.065277 0.115812 0.430730
v 0.101988 0.121393 0.409535
v 0.095437 0.115812 0.396719
v 0.058090 0.115812 0.418281
v 0.071502 -0.020751 0.427137
v 0.102624 0.115812 0.409168
v 0.089212 -0.020751 0.400313
v 0.064314 -0.020751 0.414688
v 0.072062 -0.024325 0.426813
v 0.096400 -0.020751 0.412762
v 0.088652 -0.024325 0.400636
v 0.064875 -0.024325 0.414364
v 0.073380 -0.027624 0.426052
v 0.095839 -0.024325 0.413085
v 0.087334 -0.027624 0.401397
v 0.066192 -0.027624 0.413603
v 0.075370 -0.030437 0.424903
v 0.094522 -0.027624 0.413846
v 0.085343 -0.030437 0.402546
v 0.068183 -0.030437 0.412454
v 0.070720 -0.032585 0.410989
v 0.092531 -0.030437 0.414995
v 0.082806 -0.032585 0.404011
v 0.077908 -0.032585 0.423438
v 0.089994 -0.032585 0.416460
v 0.073642 -0.033930 0.409302
v 0.079884 -0.033930 0.405698
v 0.087072 -0.033930 0.418147
v 0.080830 -0.033930 0.421751
v 0.076763 -0.034389 0.407500
v 0.083951 -0.034389 0.419949
vn -0.22414394191176013 0.9659257496745788 0.12940996646263506
vn -0.4330130955239984 0.8660251910477763 0.25000005515076823
vn -0.612372153202672 0.7071071769033884 0.35355308845156913
vn 0.5000001748438417 0 0.8660253028382762
vn 0 1 0
vn -0.5000001748438417 0 -0.8660253028382762
vn -0.7499999031866438 0.49999993545776256 0.4330129441047443
vn 0.22414394191176013 0.9659257496745788 -0.12940996646263506
vn 0.4330130955239984 0.8660251910477763 -0.25000005515076823
vn 0.612372153202672 0.7071071769033884 -0.35355308845156913
vn 0.7499999031866438 0.49999993545776256 -0.4330129441047443
vn -0.8365161872181993 0.2588190579255234 0.4829631080905364
vn 0.8365161872181993 0.2588190579255234 -0.4829631080905364
vn -0.8653615224776345 0.03914797839742725 0.49961672430232473
vn 0.8653615224776345 0.03914797839742725 -0.49961672430232473
vn -0.8602210740086932 -0.1155830099441269 0.4966490427289539
vn 0.8602210740086932 -0.1155830099441269 -0.4966490427289539
vn -0.8258946146066917 -0.30088285959680733 0.47683077749292996
vn 0.8258946146066917 -0.30088285959680733 -0.47683077749292996
vn -0.7343630007273866 -0.5300450005250096 0.4239850004199572
vn 0.7343630007273866 -0.5300450005250096 -0.4239850004199572
vn -0.59606219788851 -0.7254512408447736 0.3441371142511319
vn 0.59606219788851 -0.7254512408447736 -0.3441371142511319
vn -0.4198009613109353 -0.874655919391277 0.2423719776628784
vn 0.4198009613109353 -0.874655919391277 -0.2423719776628784
vn -0.21680400209768708 -0.968157009367403 0.1251720012111017
vn 0.21680400209768708 -0.968157009367403 -0.1251720012111017
vn 0 -1 0
vn 0.4330130955239984 -0.8660251910477763 -0.25000005515076823
vn 0.22414394191176013 -0.9659257496745788 -0.12940996646263506
vn 0.612372153202672 -0.7071071769033884 -0.35355308845156913
vn 0.7499999031866438 -0.49999993545776256 -0.4330129441047443
vn -0.22414394191176013 -0.9659257496745788 0.12940996646263506
vn -0.4330130955239984 -0.8660251910477763 0.25000005515076823
vn -0.612372153202672 -0.7071071769033884 0.35355308845156913
vn -0.7499999031866438 -0.49999993545776256 0.4330129441047443
vn 0.8365161872181993 -0.2588190579255234 -0.4829631080905364
vn -0.8365161872181993 -0.2588190579255234 0.4829631080905364
vn 0.8653615224776345 -0.03914797839742725 -0.49961672430232473
vn -0.8653615224776345 -0.03914797839742725 0.49961672430232473
vn 0.8602210740086932 0.1155830099441269 -0.4966490427289539
vn -0.8602210740086932 0.1155830099441269 0.4966490427289539
vn 0.8258946146066917 0.30088285959680733 -0.47683077749292996
vn -0.8258946146066917 0.30088285959680733 0.47683077749292996
vn 0.7343630007273866 0.5300450005250096 -0.4239850004199572
vn -0.7343630007273866 0.5300450005250096 0.4239850004199572
vn 0.59606219788851 0.7254512408447736 -0.3441371142511319
vn -0.59606219788851 0.7254512408447736 0.3441371142511319
vn 0.4198009613109353 0.874655919391277 -0.2423719776628784
vn -0.4198009613109353 0.874655919391277 0.2423719776628784
vn 0.21680400209768708 0.968157009367403 -0.1251720012111017
vn -0.21680400209768708 0.968157009367403 0.1251720012111017
usemtl material_0_0
f 1//1 2//2 3//2
f 2//2 1//1 4//1
f 5//3 3//2 2//2
f 6//4 1//4 3//4
f 7//5 4//1 1//1
f 4//6 8//6 2//6
f 3//2 5//3 9//3
f 2//6 10//6 5//6
f 1//4 6//4 7//4
f 6//4 3//4 11//4
f 4//1 7//5 12//5
f 4//6 13//6 8//6
f 2//6 8//6 10//6
f 5//3 14//7 9//3
f 11//4 3//4 9//4
f 5//6 10//6 15//6
f 6//8 12//5 7//5
f 11//9 13//8 6//8
f 13//6 4//6 12//6
f 13//8 11//9 8//9
f 8//9 16//10 10//10
f 14//7 5//3 17//7
f 16//4 9//4 14//4
f 11//4 9//4 16//4
f 16//10 15//11 10//10
f 5//6 15//6 17//6
f 12//5 6//8 13//8
f 16//10 8//9 11//9
f 17//7 18//12 14//7
f 16//4 14//4 19//4
f 15//11 16//10 19//11
f 17//6 15//6 20//6
f 18//12 17//7 21//12
f 19//4 14//4 18//4
f 19//11 20//13 15//11
f 17//6 20//6 21//6
f 21//12 22//14 18//12
f 19//4 18//4 23//4
f 20//13 19//11 23//13
f 21//6 20//6 24//6
f 22//14 21//12 25//14
f 23//4 18//4 22//4
f 23//13 24//15 20//13
f 21//6 24//6 25//6
f 25//14 26//16 22//14
f 23//4 22//4 27//4
f 24//15 23//13 27//15
f 25//6 24//6 28//6
f 26//16 25//14 29//16
f 27//4 22//4 26//4
f 27//15 28//17 24//15
f 25//6 28//6 29//6
f 29//16 30//18 26//16
f 27//4 26//4 31//4
f 28//17 27//15 31//17
f 29//6 28//6 32//6
f 30//18 29//16 33//18
f 31//4 26//4 30//4
f 31//17 32//19 28//17
f 29//6 32//6 33//6
f 33//18 34//20 30//18
f 31//4 30//4 35//4
f 32//19 31//17 35//19
f 33//6 32//6 36//6
f 34//20 33//18 37//20
f 35//4 30//4 34//4
f 35//19 36//21 32//19
f 33//6 36//6 37//6
f 37//20 38//22 34//20
f 35//4 34//4 39//4
f 36//21 35//19 39//21
f 37//6 36//6 40//6
f 38//22 37//20 41//22
f 39//4 34//4 38//4
f 39//21 40//23 36//21
f 37//6 40//6 41//6
f 42//24 38//22 41//22
f 39//4 38//4 43//4
f 40//23 39//21 43//23
f 41//6 40//6 44//6
f 38//22 42//24 45//24
f 41//6 44//6 42//6
f 43//4 38//4 45//4
f 46//25 40//23 43//23
f 40//23 46//25 44//25
f 47//26 45//24 42//24
f 42//6 44//6 48//6
f 43//4 45//4 46//4
f 49//27 44//25 46//25
f 45//24 47//26 50//26
f 42//6 48//6 47//6
f 44//25 49//27 48//27
f 46//4 45//4 50//4
f 46//4 50//4 49//4
f 51//28 50//26 47//26
f 47//6 48//6 51//6
f 52//28 48//27 49//27
f 49//4 50//4 52//4
f 50//26 51//28 52//28
f 48//27 52//28 51//28
usemtl material_1_0
f 3//29 2//29 1//30
f 4//30 1//30 2//29
f 2//29 3//29 5//31
f 3//6 1//6 6//6
f 1//30 4//30 7//28
f 2//4 8//4 4//4
f 9//31 5//31 3//29
f 5//4 10//4 2//4
f 7//6 6//6 1//6
f 11//6 3//6 6//6
f 12//28 7//28 4//30
f 8//4 13//4 4//4
f 10//4 8//4 2//4
f 9//31 14//32 5//31
f 9//6 3//6 11//6
f 15//4 10//4 5//4
f 7//28 12//28 6//33
f 6//33 13//33 11//34
f 12//4 4//4 13//4
f 8//34 11//34 13//33
f 10//35 16//35 8//34
f 17//32 5//31 14//32
f 14//6 9//6 16//6
f 16//6 9//6 11//6
f 10//35 15//36 16//35
f 17//4 15//4 5//4
f 13//33 6//33 12//28
f 11//34 8//34 16//35
f 14//32 18//37 17//32
f 19//6 14//6 16//6
f 19//36 16//35 15//36
f 20//4 15//4 17//4
f 21//37 17//32 18//37
f 18//6 14//6 19//6
f 15//36 20//38 19//36
f 21//4 20//4 17//4
f 18//37 22//39 21//37
f 23//6 18//6 19//6
f 23//38 19//36 20//38
f 24//4 20//4 21//4
f 25//39 21//37 22//39
f 22//6 18//6 23//6
f 20//38 24//40 23//38
f 25//4 24//4 21//4
f 22//39 26//41 25//39
f 27//6 22//6 23//6
f 27//40 23//38 24//40
f 28//4 24//4 25//4
f 29//41 25//39 26//41
f 26//6 22//6 27//6
f 24//40 28//42 27//40
f 29//4 28//4 25//4
f 26//41 30//43 29//41
f 31//6 26//6 27//6
f 31//42 27//40 28//42
f 32//4 28//4 29//4
f 33//43 29//41 30//43
f 30//6 26//6 31//6
f 28//42 32//44 31//42
f 33//4 32//4 29//4
f 30//43 34//45 33//43
f 35//6 30//6 31//6
f 35//44 31//42 32//44
f 36//4 32//4 33//4
f 37//45 33//43 34//45
f 34//6 30//6 35//6
f 32//44 36//46 35//44
f 37//4 36//4 33//4
f 34//45 38//47 37//45
f 39//6 34//6 35//6
f 39//46 35//44 36//46
f 40//4 36//4 37//4
f 41//47 37//45 38//47
f 38//6 34//6 39//6
f 36//46 40//48 39//46
f 41//4 40//4 37//4
f 41//47 38//47 42//49
f 43//6 38//6 39//6
f 43//48 39//46 40//48
f 44//4 40//4 41//4
f 45//49 42//49 38//47
f 42//4 44//4 41//4
f 45//6 38//6 43//6
f 43//48 40//48 46//50
f 44//50 46//50 40//48
f 42//49 45//49 47//51
f 48//4 44//4 42//4
f 46//6 45//6 43//6
f 46//50 44//50 49//52
f 50//51 47//51 45//49
f 47//4 48//4 42//4
f 48//52 49//52 44//50
f 50//6 45//6 46//6
f 49//6 50//6 46//6
f 47//51 50//51 51//5
f 51//4 48//4 47//4
f 49//52 48//52 52//5
f 52//6 50//6 49//6
f 52//5 51//5 50//51
f 51//5 52//5 48//52
