# SSTK version 0.8.0
# 17
mtllib original-17.mtl
o Group9/mesh15/mesh15-geometry#mesh15-geometry
v 0.046912 0.395216 0.399611
v 0.046300 0.395174 0.398665
v 0.046115 0.395187 0.398310
v 0.046927 0.395073 0.400029
v 0.045718 0.395187 0.397622
v 0.046442 0.395136 0.399015
v 0.045011 0.395217 0.396314
v 0.046541 0.395073 0.399361
v 0.046818 0.395317 0.399168
v 0.045446 0.395166 0.397209
v 0.046882 0.394937 0.400324
v 0.045447 0.395343 0.396722
v 0.044589 0.395056 0.396027
v 0.046597 0.394985 0.399701
v 0.046646 0.395379 0.398701
v 0.045142 0.395102 0.396856
v 0.046601 0.394874 0.400012
v 0.045698 0.395385 0.397041
v 0.044836 0.395012 0.396576
v 0.046783 0.394785 0.400574
v 0.045947 0.395399 0.397435
v 0.044335 0.394927 0.395940
v 0.046544 0.394745 0.400269
v 0.046394 0.395399 0.398209
v 0.044563 0.394912 0.396379
v 0.046631 0.394615 0.400777
v 0.044077 0.394775 0.395913
v 0.046426 0.394597 0.400472
v 0.044239 0.394747 0.396269
v 0.046426 0.394429 0.400933
v 0.043827 0.394605 0.395948
v 0.046246 0.394429 0.400621
v 0.044000 0.394595 0.396277
v 0.046194 0.394248 0.401031
v 0.043593 0.394422 0.396047
v 0.046021 0.394257 0.400706
v 0.043778 0.394424 0.396361
v 0.045780 0.394104 0.400711
v 0.043597 0.394256 0.396511
v 0.045943 0.394077 0.401066
v 0.043388 0.394236 0.396204
v 0.045461 0.393942 0.400603
v 0.043477 0.394107 0.396714
v 0.045684 0.393924 0.401040
v 0.043236 0.394066 0.396407
v 0.045185 0.393840 0.400407
v 0.043419 0.393977 0.396971
v 0.045430 0.393796 0.400953
v 0.043137 0.393914 0.396656
v 0.044878 0.393749 0.400126
v 0.043423 0.393866 0.397281
v 0.045011 0.393635 0.400669
v 0.043092 0.393778 0.396951
v 0.044573 0.393686 0.399771
v 0.043478 0.393778 0.397621
v 0.044301 0.393664 0.399358
v 0.043577 0.393715 0.397966
v 0.043903 0.393664 0.398670
v 0.043107 0.393636 0.397370
v 0.043719 0.393677 0.398315
v 0.043201 0.393534 0.397813
v 0.044575 0.393510 0.400256
v 0.043374 0.393473 0.398282
v 0.044322 0.393467 0.399940
v 0.043627 0.393452 0.398775
v 0.044074 0.393452 0.399549
vn 0.5090369315073038 -0.809016891143953 -0.2938929604556762
vn -0.5090369315073038 0.809016891143953 0.2938929604556762
usemtl material_0_0
f 1//1 2//1 3//1
f 2//1 1//1 4//1
f 3//2 2//2 1//2
f 4//2 1//2 2//2
f 5//1 1//1 3//1
f 3//2 1//2 5//2
f 2//1 4//1 6//1
f 6//2 4//2 2//2
f 7//1 1//1 5//1
f 5//2 1//2 7//2
f 6//1 4//1 8//1
f 8//2 4//2 6//2
f 7//1 9//1 1//1
f 1//2 9//2 7//2
f 7//1 5//1 10//1
f 10//2 5//2 7//2
f 8//1 4//1 11//1
f 11//2 4//2 8//2
f 12//1 9//1 7//1
f 7//2 9//2 12//2
f 7//1 10//1 13//1
f 13//2 10//2 7//2
f 8//1 11//1 14//1
f 14//2 11//2 8//2
f 12//1 15//1 9//1
f 9//2 15//2 12//2
f 13//1 10//1 16//1
f 16//2 10//2 13//2
f 14//1 11//1 17//1
f 17//2 11//2 14//2
f 18//1 15//1 12//1
f 12//2 15//2 18//2
f 13//1 16//1 19//1
f 19//2 16//2 13//2
f 17//1 11//1 20//1
f 20//2 11//2 17//2
f 21//1 15//1 18//1
f 18//2 15//2 21//2
f 13//1 19//1 22//1
f 22//2 19//2 13//2
f 17//1 20//1 23//1
f 23//2 20//2 17//2
f 15//1 21//1 24//1
f 24//2 21//2 15//2
f 22//1 19//1 25//1
f 25//2 19//2 22//2
f 23//1 20//1 26//1
f 26//2 20//2 23//2
f 22//1 25//1 27//1
f 27//2 25//2 22//2
f 23//1 26//1 28//1
f 28//2 26//2 23//2
f 27//1 25//1 29//1
f 29//2 25//2 27//2
f 28//1 26//1 30//1
f 30//2 26//2 28//2
f 27//1 29//1 31//1
f 31//2 29//2 27//2
f 28//1 30//1 32//1
f 32//2 30//2 28//2
f 31//1 29//1 33//1
f 33//2 29//2 31//2
f 32//1 30//1 34//1
f 34//2 30//2 32//2
f 31//1 33//1 35//1
f 35//2 33//2 31//2
f 32//1 34//1 36//1
f 36//2 34//2 32//2
f 35//1 33//1 37//1
f 37//2 33//2 35//2
f 36//1 34//1 38//1
f 38//2 34//2 36//2
f 35//1 37//1 39//1
f 39//2 37//2 35//2
f 38//1 34//1 40//1
f 40//2 34//2 38//2
f 35//1 39//1 41//1
f 41//2 39//2 35//2
f 38//1 40//1 42//1
f 42//2 40//2 38//2
f 41//1 39//1 43//1
f 43//2 39//2 41//2
f 42//1 40//1 44//1
f 44//2 40//2 42//2
f 41//1 43//1 45//1
f 45//2 43//2 41//2
f 42//1 44//1 46//1
f 46//2 44//2 42//2
f 45//1 43//1 47//1
f 47//2 43//2 45//2
f 46//1 44//1 48//1
f 48//2 44//2 46//2
f 45//1 47//1 49//1
f 49//2 47//2 45//2
f 46//1 48//1 50//1
f 50//2 48//2 46//2
f 49//1 47//1 51//1
f 51//2 47//2 49//2
f 50//1 48//1 52//1
f 52//2 48//2 50//2
f 49//1 51//1 53//1
f 53//2 51//2 49//2
f 50//1 52//1 54//1
f 54//2 52//2 50//2
f 53//1 51//1 55//1
f 55//2 51//2 53//2
f 54//1 52//1 56//1
f 56//2 52//2 54//2
f 53//1 55//1 57//1
f 57//2 55//2 53//2
f 56//1 52//1 58//1
f 58//2 52//2 56//2
f 53//1 57//1 59//1
f 59//2 57//2 53//2
f 58//1 52//1 59//1
f 59//2 52//2 58//2
f 59//1 57//1 60//1
f 60//2 57//2 59//2
f 59//1 52//1 61//1
f 61//2 52//2 59//2
f 59//1 60//1 58//1
f 58//2 60//2 59//2
f 61//1 52//1 62//1
f 62//2 52//2 61//2
f 61//1 62//1 63//1
f 63//2 62//2 61//2
f 63//1 62//1 64//1
f 64//2 62//2 63//2
f 63//1 64//1 65//1
f 65//2 64//2 63//2
f 65//1 64//1 66//1
f 66//2 64//2 65//2
