# SSTK version 0.8.0
# 48
mtllib original-48.mtl
o mesh131/mesh131-geometry/material_0#mesh131-geometry
v -0.340063 -0.767435 0.182788
v -0.318501 -0.749467 0.182788
v -0.340063 0.770688 0.182788
v -0.318501 -0.749467 0.182788
v -0.340063 -0.767435 0.182788
v 0.375092 -0.767435 0.182788
v -0.318501 0.752719 0.182788
v -0.340063 0.770688 0.182788
v -0.318501 -0.749467 0.182788
v -0.340063 0.770688 0.182788
v -0.340063 -0.767435 0.204350
v -0.340063 -0.767435 0.182788
v -0.340063 -0.767435 0.204350
v 0.375092 -0.767435 0.182788
v -0.340063 -0.767435 0.182788
v -0.318501 -0.749467 0.182788
v 0.375092 -0.767435 0.182788
v 0.353530 -0.749467 0.182788
v -0.340063 0.770688 0.182788
v -0.318501 0.752719 0.182788
v 0.375092 0.770688 0.182788
v -0.318501 -0.749467 0.182788
v -0.318501 0.752719 0.154038
v -0.318501 0.752719 0.182788
v -0.340063 -0.767435 0.204350
v -0.340063 0.770688 0.182788
v -0.340063 0.770688 0.204350
v 0.375092 -0.767435 0.182788
v -0.340063 -0.767435 0.204350
v 0.375092 -0.767435 0.204350
v 0.353530 -0.749467 0.182788
v 0.375092 -0.767435 0.182788
v 0.353530 0.752719 0.182788
v 0.353530 -0.749467 0.154038
v -0.318501 -0.749467 0.182788
v 0.353530 -0.749467 0.182788
v 0.375092 0.770688 0.182788
v -0.318501 0.752719 0.182788
v 0.353530 0.752719 0.182788
v 0.375092 0.770688 0.182788
v -0.340063 0.770688 0.204350
v -0.340063 0.770688 0.182788
v -0.318501 0.752719 0.154038
v -0.318501 -0.749467 0.182788
v -0.318501 -0.749467 0.154038
v 0.353530 0.752719 0.154038
v -0.318501 0.752719 0.182788
v -0.318501 0.752719 0.154038
v -0.340063 0.770688 0.204350
v -0.404750 0.838969 0.204350
v -0.340063 -0.767435 0.204350
v -0.340063 -0.767435 0.204350
v 0.439780 -0.835716 0.204350
v 0.375092 -0.767435 0.204350
v 0.375092 0.770688 0.204350
v 0.375092 -0.767435 0.182788
v 0.375092 -0.767435 0.204350
v 0.375092 0.770688 0.182788
v 0.353530 0.752719 0.182788
v 0.375092 -0.767435 0.182788
v 0.353530 0.752719 0.182788
v 0.353530 -0.749467 0.154038
v 0.353530 -0.749467 0.182788
v -0.318501 -0.749467 0.182788
v 0.353530 -0.749467 0.154038
v -0.318501 -0.749467 0.154038
v -0.318501 0.752719 0.182788
v 0.353530 0.752719 0.154038
v 0.353530 0.752719 0.182788
v -0.340063 0.770688 0.204350
v 0.375092 0.770688 0.182788
v 0.375092 0.770688 0.204350
v -0.404750 0.838969 0.204350
v -0.340063 0.770688 0.204350
v 0.439780 0.838969 0.204350
v -0.404750 -0.835716 0.204350
v -0.340063 -0.767435 0.204350
v -0.404750 0.838969 0.204350
v -0.340063 -0.767435 0.204350
v -0.404750 -0.835716 0.204350
v 0.439780 -0.835716 0.204350
v 0.375092 -0.767435 0.204350
v 0.439780 -0.835716 0.204350
v 0.375092 0.770688 0.204350
v 0.375092 -0.767435 0.182788
v 0.375092 0.770688 0.204350
v 0.375092 0.770688 0.182788
v 0.353530 -0.749467 0.154038
v 0.353530 0.752719 0.182788
v 0.353530 0.752719 0.154038
v 0.439780 0.838969 0.204350
v -0.340063 0.770688 0.204350
v 0.375092 0.770688 0.204350
v 0.439780 0.838969 0.204350
v -0.404750 0.838969 -0.363462
v -0.404750 0.838969 0.204350
v -0.404750 0.838969 0.204350
v -0.404750 -0.835716 -0.363462
v -0.404750 -0.835716 0.204350
v -0.404750 -0.835716 -0.363462
v 0.439780 -0.835716 0.204350
v -0.404750 -0.835716 0.204350
v 0.439780 0.838969 0.204350
v 0.375092 0.770688 0.204350
v 0.439780 -0.835716 0.204350
v -0.404750 0.838969 -0.363462
v 0.439780 0.838969 0.204350
v 0.439780 0.838969 -0.363462
v -0.404750 -0.835716 -0.363462
v -0.404750 0.838969 0.204350
v -0.404750 0.838969 -0.363462
v 0.439780 -0.835716 0.204350
v -0.404750 -0.835716 -0.363462
v 0.439780 -0.835716 -0.363462
v 0.439780 -0.835716 0.204350
v 0.439780 0.838969 -0.363462
v 0.439780 0.838969 0.204350
v 0.439780 0.838969 -0.363462
v -0.404750 -0.835716 -0.363462
v -0.404750 0.838969 -0.363462
v -0.404750 -0.835716 -0.363462
v 0.439780 0.838969 -0.363462
v 0.439780 -0.835716 -0.363462
v 0.439780 0.838969 -0.363462
v 0.439780 -0.835716 0.204350
v 0.439780 -0.835716 -0.363462
v -0.340063 0.770688 0.182788
v -0.318501 -0.749467 0.182788
v -0.340063 -0.767435 0.182788
v 0.375092 -0.767435 0.182788
v -0.340063 -0.767435 0.182788
v -0.318501 -0.749467 0.182788
v -0.318501 -0.749467 0.182788
v -0.340063 0.770688 0.182788
v -0.318501 0.752719 0.182788
v -0.340063 -0.767435 0.182788
v -0.340063 -0.767435 0.204350
v -0.340063 0.770688 0.182788
v -0.340063 -0.767435 0.182788
v 0.375092 -0.767435 0.182788
v -0.340063 -0.767435 0.204350
v 0.353530 -0.749467 0.182788
v 0.375092 -0.767435 0.182788
v -0.318501 -0.749467 0.182788
v 0.375092 0.770688 0.182788
v -0.318501 0.752719 0.182788
v -0.340063 0.770688 0.182788
v -0.318501 0.752719 0.182788
v -0.318501 0.752719 0.154038
v -0.318501 -0.749467 0.182788
v -0.340063 0.770688 0.204350
v -0.340063 0.770688 0.182788
v -0.340063 -0.767435 0.204350
v 0.375092 -0.767435 0.204350
v -0.340063 -0.767435 0.204350
v 0.375092 -0.767435 0.182788
v 0.353530 0.752719 0.182788
v 0.375092 -0.767435 0.182788
v 0.353530 -0.749467 0.182788
v 0.353530 -0.749467 0.182788
v -0.318501 -0.749467 0.182788
v 0.353530 -0.749467 0.154038
v 0.353530 0.752719 0.182788
v -0.318501 0.752719 0.182788
v 0.375092 0.770688 0.182788
v -0.340063 0.770688 0.182788
v -0.340063 0.770688 0.204350
v 0.375092 0.770688 0.182788
v -0.318501 -0.749467 0.154038
v -0.318501 -0.749467 0.182788
v -0.318501 0.752719 0.154038
v -0.318501 0.752719 0.154038
v -0.318501 0.752719 0.182788
v 0.353530 0.752719 0.154038
v -0.340063 -0.767435 0.204350
v -0.404750 0.838969 0.204350
v -0.340063 0.770688 0.204350
v 0.375092 -0.767435 0.204350
v 0.439780 -0.835716 0.204350
v -0.340063 -0.767435 0.204350
v 0.375092 -0.767435 0.204350
v 0.375092 -0.767435 0.182788
v 0.375092 0.770688 0.204350
v 0.375092 -0.767435 0.182788
v 0.353530 0.752719 0.182788
v 0.375092 0.770688 0.182788
v 0.353530 -0.749467 0.182788
v 0.353530 -0.749467 0.154038
v 0.353530 0.752719 0.182788
v -0.318501 -0.749467 0.154038
v 0.353530 -0.749467 0.154038
v -0.318501 -0.749467 0.182788
v 0.353530 0.752719 0.182788
v 0.353530 0.752719 0.154038
v -0.318501 0.752719 0.182788
v 0.375092 0.770688 0.204350
v 0.375092 0.770688 0.182788
v -0.340063 0.770688 0.204350
v 0.439780 0.838969 0.204350
v -0.340063 0.770688 0.204350
v -0.404750 0.838969 0.204350
v -0.404750 0.838969 0.204350
v -0.340063 -0.767435 0.204350
v -0.404750 -0.835716 0.204350
v 0.439780 -0.835716 0.204350
v -0.404750 -0.835716 0.204350
v -0.340063 -0.767435 0.204350
v 0.375092 0.770688 0.204350
v 0.439780 -0.835716 0.204350
v 0.375092 -0.767435 0.204350
v 0.375092 0.770688 0.182788
v 0.375092 0.770688 0.204350
v 0.375092 -0.767435 0.182788
v 0.353530 0.752719 0.154038
v 0.353530 0.752719 0.182788
v 0.353530 -0.749467 0.154038
v 0.375092 0.770688 0.204350
v -0.340063 0.770688 0.204350
v 0.439780 0.838969 0.204350
v -0.404750 0.838969 0.204350
v -0.404750 0.838969 -0.363462
v 0.439780 0.838969 0.204350
v -0.404750 -0.835716 0.204350
v -0.404750 -0.835716 -0.363462
v -0.404750 0.838969 0.204350
v -0.404750 -0.835716 0.204350
v 0.439780 -0.835716 0.204350
v -0.404750 -0.835716 -0.363462
v 0.439780 -0.835716 0.204350
v 0.375092 0.770688 0.204350
v 0.439780 0.838969 0.204350
v 0.439780 0.838969 -0.363462
v 0.439780 0.838969 0.204350
v -0.404750 0.838969 -0.363462
v -0.404750 0.838969 -0.363462
v -0.404750 0.838969 0.204350
v -0.404750 -0.835716 -0.363462
v 0.439780 -0.835716 -0.363462
v -0.404750 -0.835716 -0.363462
v 0.439780 -0.835716 0.204350
v 0.439780 0.838969 0.204350
v 0.439780 0.838969 -0.363462
v 0.439780 -0.835716 0.204350
v -0.404750 0.838969 -0.363462
v -0.404750 -0.835716 -0.363462
v 0.439780 0.838969 -0.363462
v 0.439780 -0.835716 -0.363462
v 0.439780 0.838969 -0.363462
v -0.404750 -0.835716 -0.363462
v 0.439780 -0.835716 -0.363462
v 0.439780 -0.835716 0.204350
v 0.439780 0.838969 -0.363462
vt 0 0
vn 0 0 1
vn 1 0 0
vn 0 1 0
vn 0 -1 0
vn -1 0 0
vn 0 0 -1
usemtl material_0_0
f 1/1/1 2/1/1 3/1/1
f 4/1/1 5/1/1 6/1/1
f 7/1/1 8/1/1 9/1/1
f 10/1/2 11/1/2 12/1/2
f 13/1/3 14/1/3 15/1/3
f 16/1/1 17/1/1 18/1/1
f 19/1/1 20/1/1 21/1/1
f 22/1/2 23/1/2 24/1/2
f 25/1/2 26/1/2 27/1/2
f 28/1/3 29/1/3 30/1/3
f 31/1/1 32/1/1 33/1/1
f 34/1/3 35/1/3 36/1/3
f 37/1/1 38/1/1 39/1/1
f 40/1/4 41/1/4 42/1/4
f 43/1/2 44/1/2 45/1/2
f 46/1/4 47/1/4 48/1/4
f 49/1/1 50/1/1 51/1/1
f 52/1/1 53/1/1 54/1/1
f 55/1/5 56/1/5 57/1/5
f 58/1/1 59/1/1 60/1/1
f 61/1/5 62/1/5 63/1/5
f 64/1/3 65/1/3 66/1/3
f 67/1/4 68/1/4 69/1/4
f 70/1/4 71/1/4 72/1/4
f 73/1/1 74/1/1 75/1/1
f 76/1/1 77/1/1 78/1/1
f 79/1/1 80/1/1 81/1/1
f 82/1/1 83/1/1 84/1/1
f 85/1/5 86/1/5 87/1/5
f 88/1/5 89/1/5 90/1/5
f 91/1/1 92/1/1 93/1/1
f 94/1/3 95/1/3 96/1/3
f 97/1/5 98/1/5 99/1/5
f 100/1/4 101/1/4 102/1/4
f 103/1/1 104/1/1 105/1/1
f 106/1/3 107/1/3 108/1/3
f 109/1/5 110/1/5 111/1/5
f 112/1/4 113/1/4 114/1/4
f 115/1/2 116/1/2 117/1/2
f 118/1/6 119/1/6 120/1/6
f 121/1/6 122/1/6 123/1/6
f 124/1/2 125/1/2 126/1/2
usemtl material_1_0
f 127/1/6 128/1/6 129/1/6
f 130/1/6 131/1/6 132/1/6
f 133/1/6 134/1/6 135/1/6
f 136/1/5 137/1/5 138/1/5
f 139/1/4 140/1/4 141/1/4
f 142/1/6 143/1/6 144/1/6
f 145/1/6 146/1/6 147/1/6
f 148/1/5 149/1/5 150/1/5
f 151/1/5 152/1/5 153/1/5
f 154/1/4 155/1/4 156/1/4
f 157/1/6 158/1/6 159/1/6
f 160/1/4 161/1/4 162/1/4
f 163/1/6 164/1/6 165/1/6
f 166/1/3 167/1/3 168/1/3
f 169/1/5 170/1/5 171/1/5
f 172/1/3 173/1/3 174/1/3
f 175/1/6 176/1/6 177/1/6
f 178/1/6 179/1/6 180/1/6
f 181/1/2 182/1/2 183/1/2
f 184/1/6 185/1/6 186/1/6
f 187/1/2 188/1/2 189/1/2
f 190/1/4 191/1/4 192/1/4
f 193/1/3 194/1/3 195/1/3
f 196/1/3 197/1/3 198/1/3
f 199/1/6 200/1/6 201/1/6
f 202/1/6 203/1/6 204/1/6
f 205/1/6 206/1/6 207/1/6
f 208/1/6 209/1/6 210/1/6
f 211/1/2 212/1/2 213/1/2
f 214/1/2 215/1/2 216/1/2
f 217/1/6 218/1/6 219/1/6
f 220/1/4 221/1/4 222/1/4
f 223/1/2 224/1/2 225/1/2
f 226/1/3 227/1/3 228/1/3
f 229/1/6 230/1/6 231/1/6
f 232/1/4 233/1/4 234/1/4
f 235/1/2 236/1/2 237/1/2
f 238/1/3 239/1/3 240/1/3
f 241/1/5 242/1/5 243/1/5
f 244/1/1 245/1/1 246/1/1
f 247/1/1 248/1/1 249/1/1
f 250/1/5 251/1/5 252/1/5
