# SSTK version 0.8.0
# 14
mtllib original-14.mtl
o Group6/mesh12/mesh12-geometry#mesh12-geometry
v 0.057644 0.400294 0.393362
v 0.057171 0.400263 0.392733
v 0.057021 0.400271 0.392425
v 0.057602 0.400224 0.393717
v 0.056620 0.400304 0.391526
v 0.057260 0.400239 0.393034
v 0.057613 0.400344 0.393001
v 0.056327 0.400242 0.391398
v 0.057288 0.400199 0.393328
v 0.056885 0.400348 0.391713
v 0.056858 0.400264 0.392185
v 0.057493 0.400140 0.394049
v 0.057509 0.400374 0.392636
v 0.056673 0.400243 0.391991
v 0.057256 0.400143 0.393617
v 0.057122 0.400375 0.391960
v 0.056466 0.400209 0.391845
v 0.057170 0.400075 0.393885
v 0.057331 0.400384 0.392267
v 0.056023 0.400167 0.391333
v 0.057324 0.400045 0.394339
v 0.056237 0.400161 0.391745
v 0.057033 0.399999 0.394119
v 0.055726 0.400084 0.391332
v 0.057096 0.399941 0.394586
v 0.055999 0.400102 0.391695
v 0.056848 0.399914 0.394320
v 0.055764 0.400035 0.391696
v 0.056807 0.399826 0.394791
v 0.055436 0.399992 0.391396
v 0.056613 0.399821 0.394487
v 0.055533 0.399962 0.391749
v 0.056366 0.399671 0.394980
v 0.055153 0.399891 0.391525
v 0.056285 0.399705 0.394632
v 0.055305 0.399880 0.391854
v 0.055931 0.399593 0.394705
v 0.054730 0.399720 0.391847
v 0.055883 0.399522 0.395062
v 0.054878 0.399707 0.392186
v 0.055551 0.399487 0.394706
v 0.054327 0.399531 0.392310
v 0.055530 0.399423 0.395059
v 0.054526 0.399533 0.392646
v 0.055146 0.399384 0.394634
v 0.054401 0.399473 0.392797
v 0.055183 0.399334 0.395009
v 0.053444 0.399531 0.390781
v 0.054980 0.399336 0.394641
v 0.052965 0.399420 0.390636
v 0.054908 0.399299 0.394745
v 0.055038 0.400198 0.389439
v 0.054273 0.399435 0.392812
v 0.055017 0.399296 0.394955
v 0.055220 0.400198 0.389755
v 0.054161 0.399420 0.392708
v 0.054931 0.399283 0.394882
v 0.055216 0.400255 0.389396
v 0.055347 0.400255 0.389623
v 0.055328 0.400272 0.389485
vn 0.26761686645894933 -0.9510565254219612 -0.1545079229004112
vn -0.26761686645894933 0.9510565254219612 0.1545079229004112
usemtl material_0_0
f 1//1 2//1 3//1
f 2//1 1//1 4//1
f 3//2 2//2 1//2
f 4//2 1//2 2//2
f 5//1 1//1 3//1
f 3//2 1//2 5//2
f 2//1 4//1 6//1
f 6//2 4//2 2//2
f 5//1 7//1 1//1
f 1//2 7//2 5//2
f 5//1 3//1 8//1
f 8//2 3//2 5//2
f 6//1 4//1 9//1
f 9//2 4//2 6//2
f 10//1 7//1 5//1
f 5//2 7//2 10//2
f 8//1 3//1 11//1
f 11//2 3//2 8//2
f 9//1 4//1 12//1
f 12//2 4//2 9//2
f 10//1 13//1 7//1
f 7//2 13//2 10//2
f 8//1 11//1 14//1
f 14//2 11//2 8//2
f 9//1 12//1 15//1
f 15//2 12//2 9//2
f 16//1 13//1 10//1
f 10//2 13//2 16//2
f 8//1 14//1 17//1
f 17//2 14//2 8//2
f 15//1 12//1 18//1
f 18//2 12//2 15//2
f 13//1 16//1 19//1
f 19//2 16//2 13//2
f 8//1 17//1 20//1
f 20//2 17//2 8//2
f 18//1 12//1 21//1
f 21//2 12//2 18//2
f 20//1 17//1 22//1
f 22//2 17//2 20//2
f 18//1 21//1 23//1
f 23//2 21//2 18//2
f 20//1 22//1 24//1
f 24//2 22//2 20//2
f 23//1 21//1 25//1
f 25//2 21//2 23//2
f 24//1 22//1 26//1
f 26//2 22//2 24//2
f 23//1 25//1 27//1
f 27//2 25//2 23//2
f 24//1 26//1 28//1
f 28//2 26//2 24//2
f 27//1 25//1 29//1
f 29//2 25//2 27//2
f 24//1 28//1 30//1
f 30//2 28//2 24//2
f 27//1 29//1 31//1
f 31//2 29//2 27//2
f 30//1 28//1 32//1
f 32//2 28//2 30//2
f 31//1 29//1 33//1
f 33//2 29//2 31//2
f 30//1 32//1 34//1
f 34//2 32//2 30//2
f 31//1 33//1 35//1
f 35//2 33//2 31//2
f 34//1 32//1 36//1
f 36//2 32//2 34//2
f 35//1 33//1 37//1
f 37//2 33//2 35//2
f 34//1 36//1 38//1
f 38//2 36//2 34//2
f 37//1 33//1 39//1
f 39//2 33//2 37//2
f 38//1 36//1 40//1
f 40//2 36//2 38//2
f 37//1 39//1 41//1
f 41//2 39//2 37//2
f 38//1 40//1 42//1
f 42//2 40//2 38//2
f 41//1 39//1 43//1
f 43//2 39//2 41//2
f 42//1 40//1 44//1
f 44//2 40//2 42//2
f 41//1 43//1 45//1
f 45//2 43//2 41//2
f 42//1 44//1 46//1
f 46//2 44//2 42//2
f 45//1 43//1 47//1
f 47//2 43//2 45//2
f 42//1 46//1 48//1
f 48//2 46//2 42//2
f 45//1 47//1 49//1
f 49//2 47//2 45//2
f 50//1 48//1 46//1
f 46//2 48//2 50//2
f 49//1 47//1 51//1
f 51//2 47//2 49//2
f 52//1 48//1 50//1
f 50//2 48//2 52//2
f 50//1 46//1 53//1
f 53//2 46//2 50//2
f 51//1 47//1 54//1
f 54//2 47//2 51//2
f 52//1 55//1 48//1
f 48//2 55//2 52//2
f 50//1 53//1 56//1
f 56//2 53//2 50//2
f 51//1 54//1 57//1
f 57//2 54//2 51//2
f 58//1 55//1 52//1
f 52//2 55//2 58//2
f 58//1 59//1 55//1
f 55//2 59//2 58//2
f 59//1 58//1 60//1
f 60//2 58//2 59//2
