# SSTK version 0.8.0
# 18
mtllib original-18.mtl
o _0_1/_0/mesh16/mesh16-geometry#mesh16-geometry
v 0.064043 0.401285 0.387635
v 0.063577 0.401285 0.386860
v 0.063875 0.401285 0.387376
v 0.063412 0.401285 0.386529
v 0.064219 0.401285 0.387841
v 0.063308 0.401285 0.386210
v 0.064534 0.401285 0.388103
v 0.063264 0.401285 0.385903
v 0.064066 0.401285 0.387226
v 0.064251 0.401285 0.387499
v 0.063801 0.401285 0.386767
v 0.064843 0.401285 0.388274
v 0.063680 0.401285 0.386529
v 0.064467 0.401285 0.387728
v 0.063281 0.401285 0.385609
v 0.064688 0.401285 0.387906
v 0.063593 0.401285 0.386292
v 0.065037 0.401285 0.388318
v 0.063539 0.401285 0.386055
v 0.064891 0.401285 0.388025
v 0.063518 0.401285 0.385819
v 0.065238 0.401285 0.388319
v 0.063337 0.401285 0.385397
v 0.065134 0.401285 0.388080
v 0.063537 0.401285 0.385600
v 0.065437 0.401285 0.388277
v 0.063431 0.401285 0.385214
v 0.065324 0.401285 0.388060
v 0.063600 0.401285 0.385415
v 0.065626 0.401285 0.388193
v 0.063564 0.401285 0.385061
v 0.065506 0.401285 0.387985
v 0.063708 0.401285 0.385263
v 0.065798 0.401285 0.388068
v 0.063736 0.401285 0.384936
v 0.065657 0.401285 0.387867
v 0.063860 0.401285 0.385145
v 0.065764 0.401285 0.387716
v 0.063926 0.401285 0.384851
v 0.065931 0.401285 0.387914
v 0.064040 0.401285 0.385071
v 0.065827 0.401285 0.387531
v 0.064228 0.401285 0.385049
v 0.066025 0.401285 0.387732
v 0.064125 0.401285 0.384809
v 0.065845 0.401285 0.387311
v 0.064475 0.401285 0.385105
v 0.066081 0.401285 0.387520
v 0.064325 0.401285 0.384810
v 0.065824 0.401285 0.387075
v 0.064676 0.401285 0.385225
v 0.066098 0.401285 0.387226
v 0.064519 0.401285 0.384854
v 0.065769 0.401285 0.386838
v 0.064896 0.401285 0.385402
v 0.065682 0.401285 0.386600
v 0.064831 0.401285 0.385028
v 0.065561 0.401285 0.386362
v 0.065111 0.401285 0.385631
v 0.065296 0.401285 0.385903
v 0.066054 0.401285 0.386920
v 0.065145 0.401285 0.385286
v 0.065951 0.401285 0.386602
v 0.065320 0.401285 0.385495
v 0.065787 0.401285 0.386272
v 0.065489 0.401285 0.385756
vn 0 1 0
vn 0 -1 0
usemtl material_0_0
f 1//1 2//1 3//1
f 2//1 1//1 4//1
f 4//1 1//1 5//1
f 4//1 5//1 6//1
f 6//1 5//1 7//1
f 6//1 7//1 8//1
f 8//1 7//1 9//1
f 9//1 7//1 10//1
f 11//1 8//1 9//1
f 10//1 7//1 12//1
f 13//1 8//1 11//1
f 10//1 12//1 14//1
f 8//1 13//1 15//1
f 14//1 12//1 16//1
f 15//1 13//1 17//1
f 16//1 12//1 18//1
f 15//1 17//1 19//1
f 16//1 18//1 20//1
f 15//1 19//1 21//1
f 20//1 18//1 22//1
f 15//1 21//1 23//1
f 20//1 22//1 24//1
f 23//1 21//1 25//1
f 24//1 22//1 26//1
f 23//1 25//1 27//1
f 24//1 26//1 28//1
f 27//1 25//1 29//1
f 28//1 26//1 30//1
f 27//1 29//1 31//1
f 28//1 30//1 32//1
f 31//1 29//1 33//1
f 32//1 30//1 34//1
f 31//1 33//1 35//1
f 32//1 34//1 36//1
f 35//1 33//1 37//1
f 36//1 34//1 38//1
f 35//1 37//1 39//1
f 38//1 34//1 40//1
f 39//1 37//1 41//1
f 38//1 40//1 42//1
f 39//1 41//1 43//1
f 42//1 40//1 44//1
f 39//1 43//1 45//1
f 42//1 44//1 46//1
f 45//1 43//1 47//1
f 46//1 44//1 48//1
f 45//1 47//1 49//1
f 46//1 48//1 50//1
f 49//1 47//1 51//1
f 50//1 48//1 52//1
f 49//1 51//1 53//1
f 50//1 52//1 54//1
f 53//1 51//1 55//1
f 54//1 52//1 56//1
f 53//1 55//1 57//1
f 56//1 52//1 58//1
f 57//1 55//1 59//1
f 58//1 52//1 60//1
f 57//1 59//1 60//1
f 57//1 60//1 52//1
f 57//1 52//1 61//1
f 57//1 61//1 62//1
f 62//1 61//1 63//1
f 62//1 63//1 64//1
f 64//1 63//1 65//1
f 64//1 65//1 66//1
usemtl material_1_0
f 3//2 2//2 1//2
f 4//2 1//2 2//2
f 5//2 1//2 4//2
f 6//2 5//2 4//2
f 7//2 5//2 6//2
f 8//2 7//2 6//2
f 9//2 7//2 8//2
f 10//2 7//2 9//2
f 9//2 8//2 11//2
f 12//2 7//2 10//2
f 11//2 8//2 13//2
f 14//2 12//2 10//2
f 15//2 13//2 8//2
f 16//2 12//2 14//2
f 17//2 13//2 15//2
f 18//2 12//2 16//2
f 19//2 17//2 15//2
f 20//2 18//2 16//2
f 21//2 19//2 15//2
f 22//2 18//2 20//2
f 23//2 21//2 15//2
f 24//2 22//2 20//2
f 25//2 21//2 23//2
f 26//2 22//2 24//2
f 27//2 25//2 23//2
f 28//2 26//2 24//2
f 29//2 25//2 27//2
f 30//2 26//2 28//2
f 31//2 29//2 27//2
f 32//2 30//2 28//2
f 33//2 29//2 31//2
f 34//2 30//2 32//2
f 35//2 33//2 31//2
f 36//2 34//2 32//2
f 37//2 33//2 35//2
f 38//2 34//2 36//2
f 39//2 37//2 35//2
f 40//2 34//2 38//2
f 41//2 37//2 39//2
f 42//2 40//2 38//2
f 43//2 41//2 39//2
f 44//2 40//2 42//2
f 45//2 43//2 39//2
f 46//2 44//2 42//2
f 47//2 43//2 45//2
f 48//2 44//2 46//2
f 49//2 47//2 45//2
f 50//2 48//2 46//2
f 51//2 47//2 49//2
f 52//2 48//2 50//2
f 53//2 51//2 49//2
f 54//2 52//2 50//2
f 55//2 51//2 53//2
f 56//2 52//2 54//2
f 57//2 55//2 53//2
f 58//2 52//2 56//2
f 59//2 55//2 57//2
f 60//2 52//2 58//2
f 60//2 59//2 57//2
f 52//2 60//2 57//2
f 61//2 52//2 57//2
f 62//2 61//2 57//2
f 63//2 61//2 62//2
f 64//2 63//2 62//2
f 65//2 63//2 64//2
f 66//2 65//2 64//2
