# SSTK version 0.8.0
# 16
mtllib original-16.mtl
o Group8/mesh14/mesh14-geometry#mesh14-geometry
v 0.043598 0.392943 0.400220
v 0.042779 0.392937 0.398818
v 0.043291 0.392979 0.399589
v 0.043755 0.392835 0.400789
v 0.042508 0.392884 0.398494
v 0.042226 0.392810 0.398210
v 0.043069 0.392767 0.399787
v 0.043784 0.392717 0.401163
v 0.042803 0.392757 0.399355
v 0.043277 0.392743 0.400215
v 0.041783 0.392652 0.397876
v 0.043408 0.392670 0.400640
v 0.042454 0.392716 0.398862
v 0.043753 0.392553 0.401559
v 0.042805 0.392577 0.399853
v 0.041909 0.392566 0.398330
v 0.043460 0.392549 0.401063
v 0.042510 0.392476 0.399618
v 0.041345 0.392441 0.397697
v 0.043664 0.392356 0.401948
v 0.042710 0.392367 0.400267
v 0.041674 0.392479 0.398163
v 0.043434 0.392380 0.401483
v 0.042472 0.392344 0.399918
v 0.041465 0.392384 0.398062
v 0.043337 0.392178 0.401872
v 0.042530 0.392138 0.400586
v 0.040932 0.392191 0.397671
v 0.043517 0.392136 0.402301
v 0.042390 0.392202 0.400164
v 0.041273 0.392281 0.398013
v 0.043176 0.391956 0.402203
v 0.042267 0.392056 0.400354
v 0.041090 0.392169 0.398005
v 0.043232 0.391811 0.402700
v 0.042282 0.391903 0.400801
v 0.040566 0.391916 0.397794
v 0.042951 0.391716 0.402476
v 0.042108 0.391908 0.400485
v 0.040918 0.392049 0.398036
v 0.042864 0.391474 0.402990
v 0.041946 0.391783 0.400551
v 0.040755 0.391921 0.398107
v 0.042662 0.391456 0.402690
v 0.041998 0.391687 0.400904
v 0.040611 0.391790 0.398218
v 0.042599 0.391268 0.403101
v 0.041768 0.391664 0.400570
v 0.040354 0.391724 0.397956
v 0.042507 0.391335 0.402756
v 0.041668 0.391478 0.400908
v 0.040501 0.391667 0.398365
v 0.042350 0.391229 0.402776
v 0.041575 0.391552 0.400543
v 0.040201 0.391553 0.398162
v 0.042348 0.391103 0.403119
v 0.041365 0.391446 0.400470
v 0.040424 0.391553 0.398549
v 0.042222 0.391141 0.402795
v 0.041315 0.391293 0.400806
v 0.040382 0.391446 0.398769
v 0.042159 0.391068 0.402889
v 0.041156 0.391357 0.400355
v 0.040106 0.391402 0.398413
v 0.042251 0.391054 0.403086
v 0.040964 0.391293 0.400199
v 0.040379 0.391357 0.399009
v 0.042184 0.391037 0.403015
v 0.040963 0.391151 0.400588
v 0.040069 0.391271 0.398709
v 0.040790 0.391255 0.400004
v 0.040420 0.391293 0.399256
v 0.040635 0.391242 0.399769
v 0.040505 0.391255 0.399509
v 0.040083 0.391165 0.399023
v 0.040140 0.391090 0.399330
v 0.040643 0.391060 0.400283
v 0.040240 0.391045 0.399628
v 0.040384 0.391030 0.399918
vn 0.5090369315073038 -0.809016891143953 -0.2938929604556762
vn -0.5090369315073038 0.809016891143953 0.2938929604556762
usemtl material_0_0
f 1//1 2//1 3//1
f 2//1 1//1 4//1
f 3//2 2//2 1//2
f 4//2 1//2 2//2
f 2//1 4//1 5//1
f 5//2 4//2 2//2
f 5//1 4//1 6//1
f 6//2 4//2 5//2
f 6//1 4//1 7//1
f 7//2 4//2 6//2
f 7//1 4//1 8//1
f 8//2 4//2 7//2
f 9//1 6//1 7//1
f 7//2 6//2 9//2
f 7//1 8//1 10//1
f 10//2 8//2 7//2
f 6//1 9//1 11//1
f 11//2 9//2 6//2
f 10//1 8//1 12//1
f 12//2 8//2 10//2
f 11//1 9//1 13//1
f 13//2 9//2 11//2
f 12//1 8//1 14//1
f 14//2 8//2 12//2
f 15//1 13//1 9//1
f 9//2 13//2 15//2
f 11//1 13//1 16//1
f 16//2 13//2 11//2
f 12//1 14//1 17//1
f 17//2 14//2 12//2
f 13//1 15//1 18//1
f 18//2 15//2 13//2
f 11//1 16//1 19//1
f 19//2 16//2 11//2
f 17//1 14//1 20//1
f 20//2 14//2 17//2
f 18//1 15//1 21//1
f 21//2 15//2 18//2
f 19//1 16//1 22//1
f 22//2 16//2 19//2
f 17//1 20//1 23//1
f 23//2 20//2 17//2
f 18//1 21//1 24//1
f 24//2 21//2 18//2
f 19//1 22//1 25//1
f 25//2 22//2 19//2
f 23//1 20//1 26//1
f 26//2 20//2 23//2
f 24//1 21//1 27//1
f 27//2 21//2 24//2
f 19//1 25//1 28//1
f 28//2 25//2 19//2
f 26//1 20//1 29//1
f 29//2 20//2 26//2
f 24//1 27//1 30//1
f 30//2 27//2 24//2
f 28//1 25//1 31//1
f 31//2 25//2 28//2
f 26//1 29//1 32//1
f 32//2 29//2 26//2
f 30//1 27//1 33//1
f 33//2 27//2 30//2
f 28//1 31//1 34//1
f 34//2 31//2 28//2
f 32//1 29//1 35//1
f 35//2 29//2 32//2
f 33//1 27//1 36//1
f 36//2 27//2 33//2
f 28//1 34//1 37//1
f 37//2 34//2 28//2
f 32//1 35//1 38//1
f 38//2 35//2 32//2
f 33//1 36//1 39//1
f 39//2 36//2 33//2
f 37//1 34//1 40//1
f 40//2 34//2 37//2
f 38//1 35//1 41//1
f 41//2 35//2 38//2
f 39//1 36//1 42//1
f 42//2 36//2 39//2
f 37//1 40//1 43//1
f 43//2 40//2 37//2
f 38//1 41//1 44//1
f 44//2 41//2 38//2
f 42//1 36//1 45//1
f 45//2 36//2 42//2
f 37//1 43//1 46//1
f 46//2 43//2 37//2
f 44//1 41//1 47//1
f 47//2 41//2 44//2
f 42//1 45//1 48//1
f 48//2 45//2 42//2
f 37//1 46//1 49//1
f 49//2 46//2 37//2
f 44//1 47//1 50//1
f 50//2 47//2 44//2
f 48//1 45//1 51//1
f 51//2 45//2 48//2
f 49//1 46//1 52//1
f 52//2 46//2 49//2
f 50//1 47//1 53//1
f 53//2 47//2 50//2
f 48//1 51//1 54//1
f 54//2 51//2 48//2
f 49//1 52//1 55//1
f 55//2 52//2 49//2
f 53//1 47//1 56//1
f 56//2 47//2 53//2
f 54//1 51//1 57//1
f 57//2 51//2 54//2
f 55//1 52//1 58//1
f 58//2 52//2 55//2
f 53//1 56//1 59//1
f 59//2 56//2 53//2
f 57//1 51//1 60//1
f 60//2 51//2 57//2
f 55//1 58//1 61//1
f 61//2 58//2 55//2
f 59//1 56//1 62//1
f 62//2 56//2 59//2
f 57//1 60//1 63//1
f 63//2 60//2 57//2
f 55//1 61//1 64//1
f 64//2 61//2 55//2
f 62//1 56//1 65//1
f 65//2 56//2 62//2
f 63//1 60//1 66//1
f 66//2 60//2 63//2
f 64//1 61//1 67//1
f 67//2 61//2 64//2
f 62//1 65//1 68//1
f 68//2 65//2 62//2
f 66//1 60//1 69//1
f 69//2 60//2 66//2
f 64//1 67//1 70//1
f 70//2 67//2 64//2
f 66//1 69//1 71//1
f 71//2 69//2 66//2
f 70//1 67//1 72//1
f 72//2 67//2 70//2
f 71//1 69//1 73//1
f 73//2 69//2 71//2
f 70//1 72//1 74//1
f 74//2 72//2 70//2
f 73//1 69//1 75//1
f 75//2 69//2 73//2
f 70//1 74//1 75//1
f 75//2 74//2 70//2
f 75//1 69//1 76//1
f 76//2 69//2 75//2
f 75//1 74//1 73//1
f 73//2 74//2 75//2
f 76//1 69//1 77//1
f 77//2 69//2 76//2
f 76//1 77//1 78//1
f 78//2 77//2 76//2
f 78//1 77//1 79//1
f 79//2 77//2 78//2
