# SSTK version 0.8.0
# 12
mtllib original-12.mtl
o #ID61
v -0.203404 0.037005 0.787013
v -0.222553 0.037005 0.787013
v -0.212979 0.035745 0.787013
v -0.194483 0.040701 0.787013
v -0.231475 0.040701 0.787013
v -0.186821 0.046580 0.787013
v -0.239137 0.046580 0.787013
v -0.180942 0.054241 0.787013
v -0.245015 0.054241 0.787013
v -0.177247 0.063163 0.787013
v -0.248711 0.063163 0.787013
v -0.175986 0.072737 0.787013
v -0.249971 0.072737 0.787013
v -0.177247 0.082312 0.787013
v -0.248711 0.082312 0.787013
v -0.180942 0.091233 0.787013
v -0.245015 0.091233 0.787013
v -0.186821 0.098895 0.787013
v -0.239137 0.098895 0.787013
v -0.194483 0.104774 0.787013
v -0.231475 0.104774 0.787013
v -0.203404 0.108469 0.787013
v -0.222553 0.108469 0.787013
v -0.212979 0.109730 0.787013
v -0.203404 0.108469 0.787013
v -0.212979 0.109730 0.755113
v -0.212979 0.109730 0.787013
v -0.203404 0.108469 0.755113
v -0.222553 0.108469 0.755113
v -0.222553 0.108469 0.787013
v -0.231475 0.104774 0.755113
v -0.231475 0.104774 0.787013
v -0.239137 0.098895 0.755113
v -0.239137 0.098895 0.787013
v -0.245015 0.091233 0.755113
v -0.245015 0.091233 0.787013
v -0.248711 0.082312 0.787013
v -0.248711 0.082312 0.755113
v -0.249971 0.072737 0.787013
v -0.249971 0.072737 0.755113
v -0.248711 0.063163 0.787013
v -0.248711 0.063163 0.755113
v -0.245015 0.054241 0.755113
v -0.245015 0.054241 0.787013
v -0.239137 0.046580 0.787013
v -0.239137 0.046580 0.755113
v -0.231475 0.040701 0.755113
v -0.231475 0.040701 0.787013
v -0.222553 0.037005 0.755113
v -0.222553 0.037005 0.787013
v -0.212979 0.035745 0.755113
v -0.212979 0.035745 0.787013
v -0.203404 0.037005 0.755113
v -0.203404 0.037005 0.787013
v -0.194483 0.040701 0.755113
v -0.194483 0.040701 0.787013
v -0.186821 0.046580 0.755113
v -0.186821 0.046580 0.787013
v -0.180942 0.054241 0.787013
v -0.180942 0.054241 0.755113
v -0.177247 0.063163 0.787013
v -0.177247 0.063163 0.755113
v -0.175986 0.072737 0.787013
v -0.175986 0.072737 0.755113
v -0.177247 0.082312 0.787013
v -0.177247 0.082312 0.755113
v -0.180942 0.091233 0.787013
v -0.180942 0.091233 0.755113
v -0.186821 0.098895 0.787013
v -0.186821 0.098895 0.755113
v -0.194483 0.104774 0.755113
v -0.194483 0.104774 0.787013
v -0.222553 0.037005 0.755113
v -0.203404 0.037005 0.755113
v -0.212979 0.035745 0.755113
v -0.231475 0.040701 0.755113
v -0.194483 0.040701 0.755113
v -0.239137 0.046580 0.755113
v -0.186821 0.046580 0.755113
v -0.245015 0.054241 0.755113
v -0.180942 0.054241 0.755113
v -0.248711 0.063163 0.755113
v -0.177247 0.063163 0.755113
v -0.249971 0.072737 0.755113
v -0.175986 0.072737 0.755113
v -0.248711 0.082312 0.755113
v -0.177247 0.082312 0.755113
v -0.245015 0.091233 0.755113
v -0.180942 0.091233 0.755113
v -0.239137 0.098895 0.755113
v -0.186821 0.098895 0.755113
v -0.231475 0.104774 0.755113
v -0.194483 0.104774 0.755113
v -0.222553 0.108469 0.755113
v -0.203404 0.108469 0.755113
v -0.212979 0.109730 0.755113
vn 0 0 1
vn 0.25881900959356163 0.9659258358036645 0
vn 0 1 0
vn -0.25881900959356163 0.9659258358036645 0
vn -0.5000000016387101 0.866025402838329 0
vn -0.7071067811865476 0.7071067811865476 0
vn -0.866025402838329 0.5000000016387101 0
vn -0.9659258358036645 0.25881900959356163 0
vn -1 0 0
vn -0.9659258358036645 -0.25881900959356163 0
vn -0.866025402838329 -0.5000000016387101 0
vn -0.7071067811865476 -0.7071067811865476 0
vn -0.5000000016387101 -0.866025402838329 0
vn -0.25881900959356163 -0.9659258358036645 0
vn 0 -1 0
vn 0.25881900959356163 -0.9659258358036645 0
vn 0.5000000016387101 -0.866025402838329 0
vn 0.7071067811865476 -0.7071067811865476 0
vn 0.866025402838329 -0.5000000016387101 0
vn 0.9659258358036645 -0.25881900959356163 0
vn 1 0 0
vn 0.9659258358036645 0.25881900959356163 0
vn 0.866025402838329 0.5000000016387101 0
vn 0.7071067811865476 0.7071067811865476 0
vn 0.5000000016387101 0.866025402838329 0
vn 0 0 -1
usemtl material_0_0
f 1//1 2//1 3//1
f 2//1 1//1 4//1
f 2//1 4//1 5//1
f 5//1 4//1 6//1
f 5//1 6//1 7//1
f 7//1 6//1 8//1
f 7//1 8//1 9//1
f 9//1 8//1 10//1
f 9//1 10//1 11//1
f 11//1 10//1 12//1
f 11//1 12//1 13//1
f 13//1 12//1 14//1
f 13//1 14//1 15//1
f 15//1 14//1 16//1
f 15//1 16//1 17//1
f 17//1 16//1 18//1
f 17//1 18//1 19//1
f 19//1 18//1 20//1
f 19//1 20//1 21//1
f 21//1 20//1 22//1
f 21//1 22//1 23//1
f 23//1 22//1 24//1
f 25//2 26//3 27//3
f 26//3 25//2 28//2
f 27//3 29//4 30//4
f 29//4 27//3 26//3
f 30//4 31//5 32//5
f 31//5 30//4 29//4
f 32//5 33//6 34//6
f 33//6 32//5 31//5
f 34//6 35//7 36//7
f 35//7 34//6 33//6
f 35//7 37//8 36//7
f 37//8 35//7 38//8
f 38//8 39//9 37//8
f 39//9 38//8 40//9
f 40//9 41//10 39//9
f 41//10 40//9 42//10
f 41//10 43//11 44//11
f 43//11 41//10 42//10
f 43//11 45//12 44//11
f 45//12 43//11 46//12
f 47//13 45//12 46//12
f 45//12 47//13 48//13
f 49//14 48//13 47//13
f 48//13 49//14 50//14
f 51//15 50//14 49//14
f 50//14 51//15 52//15
f 53//16 52//15 51//15
f 52//15 53//16 54//16
f 55//17 54//16 53//16
f 54//16 55//17 56//17
f 57//18 56//17 55//17
f 56//17 57//18 58//18
f 57//18 59//19 58//18
f 59//19 57//18 60//19
f 60//19 61//20 59//19
f 61//20 60//19 62//20
f 62//20 63//21 61//20
f 63//21 62//20 64//21
f 64//21 65//22 63//21
f 65//22 64//21 66//22
f 66//22 67//23 65//22
f 67//23 66//22 68//23
f 68//23 69//24 67//23
f 69//24 68//23 70//24
f 69//24 71//25 72//25
f 71//25 69//24 70//24
f 72//25 28//2 25//2
f 28//2 72//25 71//25
f 73//26 74//26 75//26
f 74//26 73//26 76//26
f 74//26 76//26 77//26
f 77//26 76//26 78//26
f 77//26 78//26 79//26
f 79//26 78//26 80//26
f 79//26 80//26 81//26
f 81//26 80//26 82//26
f 81//26 82//26 83//26
f 83//26 82//26 84//26
f 83//26 84//26 85//26
f 85//26 84//26 86//26
f 85//26 86//26 87//26
f 87//26 86//26 88//26
f 87//26 88//26 89//26
f 89//26 88//26 90//26
f 89//26 90//26 91//26
f 91//26 90//26 92//26
f 91//26 92//26 93//26
f 93//26 92//26 94//26
f 93//26 94//26 95//26
f 95//26 94//26 96//26
