# SSTK version 0.8.0
# 41
mtllib original-41.mtl
o #ID140
v -0.392886 -0.494726 -0.763236
v -0.392927 -0.494726 -0.733861
v -0.399781 -0.494726 -0.750009
v -0.390616 -0.494726 -0.746889
v -0.382339 -0.494726 -0.773784
v -0.385080 -0.494726 -0.757509
v -0.376612 -0.494726 -0.765977
v -0.369111 -0.494726 -0.780679
v -0.365992 -0.494726 -0.771513
v -0.353806 -0.494726 -0.783394
v -0.352963 -0.494726 -0.773825
v 0.373343 -0.494726 -0.783394
v 0.372500 -0.494726 -0.773825
v 0.385529 -0.494726 -0.771513
v 0.388648 -0.494726 -0.780679
v 0.396149 -0.494726 -0.765977
v 0.401876 -0.494726 -0.773784
v 0.404617 -0.494726 -0.757509
v 0.412424 -0.494726 -0.763236
v 0.410153 -0.494726 -0.746889
v 0.412464 -0.494726 -0.733861
v 0.419319 -0.494726 -0.750009
v -0.402497 -0.494726 -0.734703
v -0.399781 -0.494726 0.695243
v -0.402497 -0.494726 0.679938
v -0.392886 -0.494726 0.708471
v -0.392927 -0.494726 0.679095
v -0.390616 -0.494726 0.692124
v -0.382339 -0.494726 0.719018
v -0.385080 -0.494726 0.702743
v -0.376612 -0.494726 0.711212
v -0.369111 -0.494726 0.725913
v -0.365992 -0.494726 0.716748
v -0.353806 -0.494726 0.728629
v -0.352963 -0.494726 0.719059
v 0.373343 -0.494726 0.728629
v 0.372500 -0.494726 0.719059
v 0.385529 -0.494726 0.716748
v 0.388648 -0.494726 0.725913
v 0.396149 -0.494726 0.711212
v 0.401876 -0.494726 0.719018
v 0.404617 -0.494726 0.702743
v 0.412424 -0.494726 0.708471
v 0.410153 -0.494726 0.692124
v 0.412464 -0.494726 0.679095
v 0.419319 -0.494726 0.695243
v 0.422034 -0.494726 -0.734703
v 0.422034 -0.494726 0.679938
v 0.401876 -0.494726 -0.773784
v 0.388648 -0.504296 -0.780679
v 0.401876 -0.504296 -0.773784
v 0.388648 -0.494726 -0.780679
v 0.412424 -0.504296 -0.763236
v 0.412424 -0.494726 -0.763236
v 0.419319 -0.504296 -0.750009
v 0.419319 -0.494726 -0.750009
v 0.422034 -0.504296 -0.734703
v 0.422034 -0.494726 -0.734703
v 0.422034 -0.504296 0.679938
v 0.422034 -0.494726 0.679938
v 0.419319 -0.504296 0.695243
v 0.419319 -0.494726 0.695243
v 0.412424 -0.504296 0.708471
v 0.412424 -0.494726 0.708471
v 0.401876 -0.494726 0.719018
v 0.401876 -0.504296 0.719018
v 0.388648 -0.494726 0.725913
v 0.388648 -0.504296 0.725913
v 0.373343 -0.494726 0.728629
v 0.373343 -0.504296 0.728629
v -0.353806 -0.504296 0.728629
v -0.353806 -0.494726 0.728629
v -0.369111 -0.504296 0.725913
v -0.369111 -0.494726 0.725913
v -0.382339 -0.494726 0.719018
v -0.382339 -0.504296 0.719018
v -0.392886 -0.494726 0.708471
v -0.392886 -0.504296 0.708471
v -0.399781 -0.504296 0.695243
v -0.399781 -0.494726 0.695243
v -0.402497 -0.504296 0.679938
v -0.402497 -0.494726 0.679938
v -0.402497 -0.504296 -0.734703
v -0.402497 -0.494726 -0.734703
v -0.399781 -0.504296 -0.750009
v -0.399781 -0.494726 -0.750009
v -0.392886 -0.504296 -0.763236
v -0.392886 -0.494726 -0.763236
v -0.382339 -0.494726 -0.773784
v -0.382339 -0.504296 -0.773784
v -0.369111 -0.504296 -0.780679
v -0.369111 -0.494726 -0.780679
v -0.353806 -0.494726 -0.783394
v -0.353806 -0.504296 -0.783394
v 0.373343 -0.494726 -0.783394
v 0.373343 -0.504296 -0.783394
vn 0 -1 0
vn -0.5915263018880987 0 0.8062857025735914
vn -0.32220249120727296 0 0.9466707741658803
vn -0.8062857025735914 0 0.5915263018880987
vn -0.9466707741658803 0 0.32220249120727296
vn -0.9961477275529427 0 0.0876909624254877
vn -0.9961477275529427 0 -0.0876909624254877
vn -0.9466707741658803 0 -0.32220249120727296
vn -0.8062857025735914 0 -0.5915263018880987
vn -0.5915263018880987 0 -0.8062857025735914
vn -0.32220249120727296 0 -0.9466707741658803
vn -0.0876909624254877 0 -0.9961477275529427
vn 0.0876909624254877 0 -0.9961477275529427
vn 0.32220249120727296 0 -0.9466707741658803
vn 0.5915263018880987 0 -0.8062857025735914
vn 0.8062857025735914 0 -0.5915263018880987
vn 0.9466707741658803 0 -0.32220249120727296
vn 0.9961477275529427 0 -0.0876909624254877
vn 0.9961477275529427 0 0.0876909624254877
vn 0.9466707741658803 0 0.32220249120727296
vn 0.8062857025735914 0 0.5915263018880987
vn 0.5915263018880987 0 0.8062857025735914
vn 0.32220249120727296 0 0.9466707741658803
vn 0.0876909624254877 0 0.9961477275529427
vn -0.0876909624254877 0 0.9961477275529427
usemtl material_0_0
f 1//1 2//1 3//1
f 2//1 1//1 4//1
f 4//1 1//1 5//1
f 4//1 5//1 6//1
f 6//1 5//1 7//1
f 7//1 5//1 8//1
f 7//1 8//1 9//1
f 9//1 8//1 10//1
f 9//1 10//1 11//1
f 11//1 10//1 12//1
f 11//1 12//1 13//1
f 13//1 12//1 14//1
f 14//1 12//1 15//1
f 14//1 15//1 16//1
f 16//1 15//1 17//1
f 16//1 17//1 18//1
f 18//1 17//1 19//1
f 18//1 19//1 20//1
f 20//1 19//1 21//1
f 21//1 19//1 22//1
f 23//1 24//1 25//1
f 24//1 23//1 3//1
f 24//1 3//1 26//1
f 26//1 3//1 27//1
f 27//1 3//1 2//1
f 26//1 27//1 28//1
f 26//1 28//1 29//1
f 29//1 28//1 30//1
f 29//1 30//1 31//1
f 29//1 31//1 32//1
f 32//1 31//1 33//1
f 32//1 33//1 34//1
f 34//1 33//1 35//1
f 34//1 35//1 36//1
f 36//1 35//1 37//1
f 36//1 37//1 38//1
f 36//1 38//1 39//1
f 39//1 38//1 40//1
f 39//1 40//1 41//1
f 41//1 40//1 42//1
f 41//1 42//1 43//1
f 43//1 42//1 44//1
f 43//1 44//1 45//1
f 43//1 45//1 46//1
f 46//1 45//1 21//1
f 46//1 21//1 22//1
f 46//1 22//1 47//1
f 46//1 47//1 48//1
f 49//2 50//3 51//2
f 50//3 49//2 52//3
f 49//2 53//4 54//4
f 53//4 49//2 51//2
f 54//4 55//5 56//5
f 55//5 54//4 53//4
f 56//5 57//6 58//6
f 57//6 56//5 55//5
f 58//6 59//7 60//7
f 59//7 58//6 57//6
f 60//7 61//8 62//8
f 61//8 60//7 59//7
f 62//8 63//9 64//9
f 63//9 62//8 61//8
f 65//10 63//9 66//10
f 63//9 65//10 64//9
f 67//11 66//10 68//11
f 66//10 67//11 65//10
f 69//12 68//11 70//12
f 68//11 69//12 67//11
f 71//13 69//12 70//12
f 69//12 71//13 72//13
f 73//14 72//13 71//13
f 72//13 73//14 74//14
f 75//15 73//14 76//15
f 73//14 75//15 74//14
f 77//16 76//15 78//16
f 76//15 77//16 75//15
f 79//17 77//16 78//16
f 77//16 79//17 80//17
f 81//18 80//17 79//17
f 80//17 81//18 82//18
f 83//19 82//18 81//18
f 82//18 83//19 84//19
f 85//20 84//19 83//19
f 84//19 85//20 86//20
f 87//21 86//20 85//20
f 86//20 87//21 88//21
f 89//22 87//21 90//22
f 87//21 89//22 88//21
f 91//23 89//22 90//22
f 89//22 91//23 92//23
f 93//24 91//23 94//24
f 91//23 93//24 92//23
f 95//25 94//24 96//25
f 94//24 95//25 93//24
f 50//3 95//25 96//25
f 95//25 50//3 52//3
