# SSTK version 0.8.0
# 56
mtllib original-56.mtl
o mesh17/mesh17-geometry#mesh17-geometry
v -0.076847 0.02339 -0.73106
v -0.063766 0.471937 0.556991
v -0.076847 0.476239 0.569345
v -0.063766 0.027692 -0.718706
v 0.068046 0.471937 0.556991
v -0.076847 0.311817 0.626603
v 0.081128 0.02339 -0.73106
v 0.081128 0.476239 0.569345
v -0.076847 -0.141032 -0.673802
v 0.081128 0.311817 0.626603
v 0.081128 -0.141032 -0.673802
v 0.068046 0.027692 -0.718706
v -0.099517 -0.147769 -0.693147
v -0.099517 0.348466 0.731845
v 0.102958 -0.147769 -0.693147
v 0.102958 0.348466 0.731845
v -0.099517 0.025173 -0.753372
v -0.099517 0.366747 0.723554
v -0.099517 0.034385 -0.751565
v 0.102958 0.025173 -0.753372
v 0.102958 0.366747 0.723554
v -0.099517 0.380517 0.055613
v -0.099517 0.04341 -0.74898
v 0.102958 0.034385 -0.751565
v 0.102958 0.380517 0.055613
v 0.102958 0.384566 0.714309
v -0.099517 0.341872 -0.064217
v -0.099517 0.384566 0.714309
v -0.099517 0.052181 -0.745635
v 0.102958 0.04341 -0.74898
v 0.102958 0.341872 -0.064217
v -0.099517 0.301553 -0.183494
v -0.099517 0.417481 0.175971
v -0.099517 0.060635 -0.741555
v 0.102958 0.052181 -0.745635
v 0.102958 0.301553 -0.183494
v 0.102958 0.417481 0.175971
v -0.099517 0.401871 0.704138
v -0.099517 0.259569 -0.302195
v -0.099517 0.068711 -0.736769
v 0.102958 0.060635 -0.741555
v 0.102958 0.259569 -0.302195
v 0.102958 0.401871 0.704138
v -0.099517 0.215927 -0.420296
v -0.099517 0.418617 0.693068
v 0.102958 0.452756 0.296836
v -0.099517 0.07635 -0.731312
v 0.102958 0.068711 -0.736769
v 0.102958 0.215927 -0.420296
v 0.102958 0.418617 0.693068
v -0.099517 0.170637 -0.537775
v -0.099517 0.452756 0.296836
v -0.099517 0.083496 -0.725225
v 0.102958 0.07635 -0.731312
v 0.102958 0.170637 -0.537775
v -0.099517 0.123706 -0.654609
v -0.099517 0.434755 0.68113
v 0.102958 0.486337 0.418182
v 0.102958 0.434755 0.68113
v -0.099517 0.090097 -0.71855
v 0.102958 0.083496 -0.725225
v 0.102958 0.123706 -0.654609
v -0.099517 0.110161 -0.687012
v -0.099517 0.450241 0.668357
v -0.099517 0.486337 0.418182
v 0.102958 0.465031 0.654785
v 0.102958 0.450241 0.668357
v -0.099517 0.096105 -0.711337
v 0.102958 0.090097 -0.71855
v 0.102958 0.110161 -0.687012
v -0.099517 0.106174 -0.695511
v -0.099517 0.465031 0.654785
v 0.102958 0.518215 0.539987
v 0.102958 0.479085 0.640452
v -0.099517 0.101477 -0.703639
v 0.102958 0.096105 -0.711337
v 0.102958 0.106174 -0.695511
v -0.099517 0.479085 0.640452
v -0.099517 0.518215 0.539987
v 0.102958 0.492363 0.625397
v 0.102958 0.101477 -0.703639
v -0.099517 0.492363 0.625397
v -0.099517 0.527186 0.576334
v 0.102958 0.504829 0.609663
v -0.099517 0.504829 0.609663
v 0.102958 0.527186 0.576334
v -0.099517 0.516447 0.593293
v 0.102958 0.516447 0.593293
vn 0.0 -0.944376220481181 0.3288670767797832
vn 0.0 0.944376220481181 -0.3288670767797832
vn 1.0 0.0 0.0
vn -1.0 0.0 0.0
vn 0.0 -0.3288670767797832 -0.944376220481181
vn 0.0 0.3288670767797832 0.944376220481181
vn 0.0 0.41305503067739174 0.9107060676376869
vn 0.0 0.43693986396294543 0.899490719952153
vn 0.0 -0.41305503067739174 -0.9107060676376869
vn 0.0 -0.43693986396294543 -0.899490719952153
vn 0.0 0.2341609619342117 -0.9721978419571011
vn 0.0 0.19248806183246878 -0.9812993152203764
vn 0.0 -0.2341609619342117 0.9721978419571011
vn 0.0 -0.19248806183246878 0.9812993152203764
vn 0.0 0.48378027233910126 0.875189492678874
vn 0.0 -0.48378027233910126 -0.875189492678874
vn 0.0 0.31615306502115254 -0.9487081951146678
vn 0.0 -0.31615306502115254 0.9487081951146678
vn 0.0 0.9538561247491277 -0.3002640392697347
vn 0.0 0.9495595251401185 -0.3135868431801196
vn 0.0 -0.9538561247491277 0.3002640392697347
vn 0.0 -0.9495595251401185 0.3135868431801196
vn 0.0 0.39584596670836597 -0.9183169227672543
vn 0.0 -0.39584596670836597 0.9183169227672543
vn 0.0 0.529273982407727 0.8484509717987627
vn 0.0 -0.529273982407727 -0.8484509717987627
vn 0.0 0.9450769286311008 -0.32684797531758586
vn 0.0 -0.9450769286311008 0.32684797531758586
vn 0.0 0.9579656585595459 -0.2868828977484986
vn 0.0 -0.9579656585595459 0.2868828977484986
vn 0.0 0.4726579769626507 -0.881245957048073
vn 0.0 -0.4726579769626507 0.881245957048073
vn 0.0 0.9404091460897509 -0.3400450528249829
vn 0.0 -0.9404091460897509 0.3400450528249829
vn 0.0 0.9618876669132679 -0.2734449053102841
vn 0.0 -0.9618876669132679 0.2734449053102841
vn 0.0 0.5460328479885717 -0.8377637667728831
vn 0.0 -0.5460328479885717 0.8377637667728831
vn 0.0 0.5732932045656708 0.8193502923651298
vn 0.0 -0.5732932045656708 -0.8193502923651298
vn 0.0 0.9355572428360761 -0.3531750916711982
vn 0.0 -0.9355572428360761 0.3531750916711982
vn 0.0 0.615435311966085 -0.7881873995346587
vn 0.0 -0.615435311966085 0.7881873995346587
vn 0.0 0.930521999916253 -0.36623599996703876
vn 0.0 -0.930521999916253 0.36623599996703876
vn 0.0 0.9656210010829441 -0.2599540002915385
vn 0.0 -0.9656210010829441 0.2599540002915385
vn 0.0 0.6803610723053768 -0.7328770778865157
vn 0.0 -0.6803610723053768 0.7328770778865157
vn 0.0 0.6157166942619492 0.7879676087296593
vn 0.0 -0.6157166942619492 -0.7879676087296593
vn 0.0 0.9253040687075309 -0.37922602815905054
vn 0.0 -0.9253040687075309 0.37922602815905054
vn 0.0 0.7403369580728684 -0.6722359619295979
vn 0.0 -0.7403369580728684 0.6722359619295979
vn 0.0 0.9226271515978024 -0.3856930633736182
vn 0.0 -0.9226271515978024 0.3856930633736182
vn 0.0 0.6564251439192593 0.754391165398018
vn 0.0 -0.6564251439192593 -0.754391165398018
vn 0.0 0.9691651594427039 -0.24641204053860336
vn 0.0 -0.9691651594427039 0.24641204053860336
vn 0.0 0.7949275250716642 -0.6067044007450734
vn 0.0 -0.7949275250716642 0.6067044007450734
vn 0.0 0.9053398130726973 -0.42468791231384634
vn 0.0 0.8864052250915554 -0.4629101175502529
vn 0.0 -0.8864052250915554 0.4629101175502529
vn 0.0 -0.9053398130726973 0.42468791231384634
vn 0.0 0.6953064137057008 0.7187134276328198
vn 0.0 -0.6953064137057008 -0.7187134276328198
vn 0.0 0.7322509274244174 0.6810349325005881
vn 0.0 -0.7322509274244174 -0.6810349325005881
vn 0.0 0.8437354327072965 -0.5367592752754546
vn 0.0 -0.8437354327072965 0.5367592752754546
vn 0.0 0.9708660135508624 -0.2396230033445381
vn 0.0 -0.9708660135508624 0.2396230033445381
vn 0.0 0.7671566953433415 0.6414597452606701
vn 0.0 -0.7671566953433415 -0.6414597452606701
vn 0.0 0.7999263139391427 0.6000982355145997
vn 0.0 -0.7999263139391427 -0.6000982355145997
vn 0.0 0.8304681547245363 0.5570661037869954
vn 0.0 0.8448772759669566 0.5349601747370127
vn 0.0 -0.8448772759669566 -0.5349601747370127
vn 0.0 -0.8304681547245363 -0.5570661037869954
usemtl material_0_0
f 1//1 2//1 3//1
f 2//1 1//1 4//1
f 3//2 2//2 1//2
f 4//2 1//2 2//2
f 5//1 3//1 2//1
f 2//2 3//2 5//2
f 6//3 1//3 3//3
f 3//4 1//4 6//4
f 4//1 1//1 7//1
f 7//2 1//2 4//2
f 4//1 5//1 2//1
f 2//2 5//2 4//2
f 5//1 8//1 3//1
f 3//2 8//2 5//2
f 1//3 6//3 9//3
f 9//4 6//4 1//4
f 3//5 10//5 6//5
f 6//6 10//6 3//6
f 1//6 11//6 7//6
f 7//5 11//5 1//5
f 7//1 12//1 4//1
f 4//2 12//2 7//2
f 5//1 4//1 12//1
f 12//2 4//2 5//2
f 8//1 5//1 7//1
f 7//2 5//2 8//2
f 10//5 3//5 8//5
f 8//6 3//6 10//6
f 6//1 13//1 9//1
f 9//2 13//2 6//2
f 11//6 1//6 9//6
f 9//5 1//5 11//5
f 14//1 6//1 10//1
f 10//2 6//2 14//2
f 10//4 7//4 11//4
f 11//3 7//3 10//3
f 7//1 5//1 12//1
f 12//2 5//2 7//2
f 7//4 10//4 8//4
f 8//3 10//3 7//3
f 6//1 14//1 13//1
f 13//2 14//2 6//2
f 15//1 9//1 13//1
f 13//2 9//2 15//2
f 15//1 11//1 9//1
f 9//2 11//2 15//2
f 10//1 16//1 14//1
f 14//2 16//2 10//2
f 15//1 10//1 11//1
f 11//2 10//2 15//2
f 14//4 17//4 13//4
f 13//3 17//3 14//3
f 17//5 15//5 13//5
f 13//6 15//6 17//6
f 16//1 10//1 15//1
f 15//2 10//2 16//2
f 16//7 18//8 14//7
f 14//9 18//10 16//9
f 17//4 14//4 19//4
f 19//3 14//3 17//3
f 15//5 17//5 20//5
f 20//6 17//6 15//6
f 20//3 16//3 15//3
f 15//4 16//4 20//4
f 18//8 16//7 21//8
f 21//10 16//9 18//10
f 22//4 14//4 18//4
f 18//3 14//3 22//3
f 19//4 14//4 23//4
f 23//3 14//3 19//3
f 24//11 17//12 19//11
f 19//13 17//14 24//13
f 17//12 24//11 20//12
f 20//14 24//13 17//14
f 16//3 20//3 24//3
f 24//4 20//4 16//4
f 16//3 25//3 21//3
f 21//4 25//4 16//4
f 26//15 18//8 21//8
f 21//10 18//10 26//16
f 27//4 14//4 22//4
f 22//3 14//3 27//3
f 22//4 18//4 28//4
f 28//3 18//3 22//3
f 23//4 14//4 29//4
f 29//3 14//3 23//3
f 30//17 19//11 23//17
f 23//18 19//13 30//18
f 19//11 30//17 24//11
f 24//13 30//18 19//13
f 16//3 24//3 30//3
f 30//4 24//4 16//4
f 16//3 31//3 25//3
f 25//4 31//4 16//4
f 21//3 25//3 26//3
f 26//4 25//4 21//4
f 18//8 26//15 28//15
f 28//16 26//16 18//10
f 32//4 14//4 27//4
f 27//3 14//3 32//3
f 25//19 27//20 22//19
f 22//21 27//22 25//21
f 22//4 28//4 33//4
f 33//3 28//3 22//3
f 29//4 14//4 34//4
f 34//3 14//3 29//3
f 35//23 23//17 29//23
f 29//24 23//18 35//24
f 23//17 35//23 30//17
f 30//18 35//24 23//18
f 16//3 30//3 35//3
f 35//4 30//4 16//4
f 16//3 36//3 31//3
f 31//4 36//4 16//4
f 27//20 25//19 31//20
f 31//22 25//21 27//22
f 26//3 25//3 37//3
f 37//4 25//4 26//4
f 26//15 38//25 28//15
f 28//16 38//26 26//16
f 39//4 14//4 32//4
f 32//3 14//3 39//3
f 31//20 32//27 27//20
f 27//22 32//28 31//22
f 22//19 37//29 25//19
f 25//21 37//30 22//21
f 33//4 28//4 38//4
f 38//3 28//3 33//3
f 37//29 22//19 33//29
f 33//30 22//21 37//30
f 34//4 14//4 40//4
f 40//3 14//3 34//3
f 41//31 29//23 34//31
f 34//32 29//24 41//32
f 29//23 41//31 35//23
f 35//24 41//32 29//24
f 16//3 35//3 41//3
f 41//4 35//4 16//4
f 16//3 42//3 36//3
f 36//4 42//4 16//4
f 32//27 31//20 36//27
f 36//28 31//22 32//28
f 26//3 37//3 43//3
f 43//4 37//4 26//4
f 38//25 26//15 43//25
f 43//26 26//16 38//26
f 44//4 14//4 39//4
f 39//3 14//3 44//3
f 36//27 39//33 32//27
f 32//28 39//34 36//28
f 33//4 38//4 45//4
f 45//3 38//3 33//3
f 33//29 46//35 37//29
f 37//30 46//36 33//30
f 40//4 14//4 47//4
f 47//3 14//3 40//3
f 48//37 34//31 40//37
f 40//38 34//32 48//38
f 34//31 48//37 41//31
f 41//32 48//38 34//32
f 16//3 41//3 48//3
f 48//4 41//4 16//4
f 16//3 49//3 42//3
f 42//4 49//4 16//4
f 39//33 36//27 42//33
f 42//34 36//28 39//34
f 43//3 37//3 50//3
f 50//4 37//4 43//4
f 43//25 45//39 38//25
f 38//26 45//40 43//26
f 51//4 14//4 44//4
f 44//3 14//3 51//3
f 42//33 44//41 39//33
f 39//34 44//42 42//34
f 33//4 45//4 52//4
f 52//3 45//3 33//3
f 46//35 33//29 52//35
f 52//36 33//30 46//36
f 50//3 37//3 46//3
f 46//4 37//4 50//4
f 47//4 14//4 53//4
f 53//3 14//3 47//3
f 54//43 40//37 47//43
f 47//44 40//38 54//44
f 40//37 54//43 48//37
f 48//38 54//44 40//38
f 16//3 48//3 54//3
f 54//4 48//4 16//4
f 16//3 55//3 49//3
f 49//4 55//4 16//4
f 44//41 42//33 49//41
f 49//42 42//34 44//42
f 45//39 43//25 50//39
f 50//40 43//26 45//40
f 56//4 14//4 51//4
f 51//3 14//3 56//3
f 49//41 51//45 44//41
f 44//42 51//46 49//42
f 52//4 45//4 57//4
f 57//3 45//3 52//3
f 52//35 58//47 46//35
f 46//36 58//48 52//36
f 50//3 46//3 59//3
f 59//4 46//4 50//4
f 53//4 14//4 60//4
f 60//3 14//3 53//3
f 61//49 47//43 53//49
f 53//50 47//44 61//50
f 47//43 61//49 54//43
f 54//44 61//50 47//44
f 16//3 54//3 61//3
f 61//4 54//4 16//4
f 16//3 62//3 55//3
f 55//4 62//4 16//4
f 51//45 49//41 55//45
f 55//46 49//42 51//46
f 59//51 45//39 50//39
f 50//40 45//40 59//52
f 63//4 14//4 56//4
f 56//3 14//3 63//3
f 55//45 56//53 51//45
f 51//46 56//54 55//46
f 45//39 59//51 57//51
f 57//52 59//52 45//40
f 52//4 57//4 64//4
f 64//3 57//3 52//3
f 58//47 52//35 65//47
f 65//48 52//36 58//48
f 66//3 46//3 58//3
f 58//4 46//4 66//4
f 59//3 46//3 67//3
f 67//4 46//4 59//4
f 60//4 14//4 68//4
f 68//3 14//3 60//3
f 60//55 61//49 53//49
f 53//50 61//50 60//56
f 16//3 61//3 69//3
f 69//4 61//4 16//4
f 16//3 70//3 62//3
f 62//4 70//4 16//4
f 56//53 55//45 62//53
f 62//54 55//46 56//54
f 71//4 14//4 63//4
f 63//3 14//3 71//3
f 62//53 63//57 56//53
f 56//54 63//58 62//54
f 67//59 57//51 59//51
f 59//52 57//52 67//60
f 57//51 67//59 64//59
f 64//60 67//60 57//52
f 52//4 64//4 72//4
f 72//3 64//3 52//3
f 52//4 72//4 65//4
f 65//3 72//3 52//3
f 65//47 73//61 58//47
f 58//48 73//62 65//48
f 67//3 46//3 66//3
f 66//4 46//4 67//4
f 66//3 58//3 74//3
f 74//4 58//4 66//4
f 68//4 14//4 75//4
f 75//3 14//3 68//3
f 68//63 69//55 60//55
f 60//56 69//56 68//64
f 61//49 60//55 69//55
f 69//56 60//56 61//50
f 16//3 69//3 76//3
f 76//4 69//4 16//4
f 16//3 77//3 70//3
f 70//4 77//4 16//4
f 63//57 62//53 70//57
f 70//58 62//54 63//58
f 75//4 14//4 71//4
f 71//3 14//3 75//3
f 63//65 77//66 71//66
f 71//67 77//67 63//68
f 67//59 72//69 64//59
f 64//60 72//70 67//60
f 65//4 72//4 78//4
f 78//3 72//3 65//3
f 73//61 65//47 79//61
f 79//62 65//48 73//62
f 80//3 58//3 73//3
f 73//4 58//4 80//4
f 72//69 67//59 66//69
f 66//70 67//60 72//70
f 74//3 58//3 80//3
f 80//4 58//4 74//4
f 74//71 72//69 66//69
f 66//70 72//70 74//72
f 75//73 76//63 68//63
f 68//64 76//64 75//74
f 69//55 68//63 76//63
f 76//64 68//64 69//56
f 16//3 76//3 81//3
f 81//4 76//4 16//4
f 16//3 81//3 77//3
f 77//4 81//4 16//4
f 77//66 63//65 70//65
f 70//68 63//68 77//67
f 71//66 81//73 75//73
f 75//74 81//74 71//67
f 81//73 71//66 77//66
f 77//67 71//67 81//74
f 72//69 74//71 78//71
f 78//72 74//72 72//70
f 65//4 78//4 82//4
f 82//3 78//3 65//3
f 65//4 82//4 79//4
f 79//3 82//3 65//3
f 83//75 73//61 79//61
f 79//62 73//62 83//76
f 80//3 73//3 84//3
f 84//4 73//4 80//4
f 80//77 78//71 74//71
f 74//72 78//72 80//78
f 76//63 75//73 81//73
f 81//74 75//74 76//64
f 78//71 80//77 82//77
f 82//78 80//78 78//72
f 79//4 82//4 85//4
f 85//3 82//3 79//3
f 73//61 83//75 86//75
f 86//76 83//76 73//62
f 79//4 87//4 83//4
f 83//3 87//3 79//3
f 84//3 73//3 88//3
f 88//4 73//4 84//4
f 84//79 82//77 80//77
f 80//78 82//78 84//80
f 82//77 84//79 85//79
f 85//80 84//80 82//78
f 79//4 85//4 87//4
f 87//3 85//3 79//3
f 87//81 86//82 83//82
f 83//83 86//83 87//84
f 88//3 73//3 86//3
f 86//4 73//4 88//4
f 88//81 85//79 84//79
f 84//80 85//80 88//84
f 85//79 88//81 87//81
f 87//84 88//84 85//80
f 86//82 87//81 88//81
f 88//84 87//84 86//83
