# SSTK version 0.8.0
# 29
mtllib original-29.mtl
o #ID54
v 0.000233 -0.101819 0.086497
v 0.000233 -0.212751 0.049905
v 0.000233 -0.212751 0.044897
v 0.000233 -0.104356 0.093263
v 0.000233 -0.219978 0.049905
v 0.000233 -0.212751 0.049905
v 0.000233 -0.219978 0.049905
v 0.000233 -0.104356 0.093263
v 0.000233 -0.101819 0.086497
v 0.000233 -0.212751 0.044897
v 0.000233 -0.219978 0.049905
v -0.026866 -0.212751 0.052615
v -0.028673 -0.219978 0.049905
v 0.000233 -0.104356 0.093263
v 0.000233 -0.104356 0.093263
v 0.000233 -0.219978 0.049905
v -0.026866 -0.212751 0.052615
v -0.028673 -0.219978 0.049905
v 0.000233 -0.217440 0.043139
v 0.000233 -0.217440 0.043139
v -0.027089 -0.212751 0.049905
v 0.000233 -0.212751 0.044897
v -0.027501 -0.212751 0.044897
v 0.000233 -0.212751 0.049905
v 0.000233 -0.212751 0.049905
v -0.027089 -0.212751 0.049905
v 0.000233 -0.212751 0.044897
v -0.027501 -0.212751 0.044897
v 0.000233 -0.212751 0.044897
v -0.027501 -0.212751 0.044897
v 0.000233 -0.101819 0.086497
v 0.000233 -0.101819 0.086497
v -0.027501 -0.212751 0.044897
v 0.000233 -0.212751 0.044897
v 0.000233 -0.104356 0.093263
v -0.027089 -0.212751 0.049905
v -0.026866 -0.212751 0.052615
v -0.027501 -0.212751 0.044897
v 0.000233 -0.101819 0.086497
v 0.000233 -0.101819 0.086497
v 0.000233 -0.104356 0.093263
v -0.027501 -0.212751 0.044897
v -0.027089 -0.212751 0.049905
v -0.026866 -0.212751 0.052615
v -0.026866 -0.212751 0.052615
v -0.028673 -0.212751 0.052615
v -0.028673 -0.219978 0.049905
v -0.028673 -0.219978 0.049905
v -0.028673 -0.212751 0.052615
v -0.026866 -0.212751 0.052615
v 0.000233 -0.219978 0.049905
v -0.006739 -0.219978 0.005562
v 0.000233 -0.219978 0.002674
v -0.014220 -0.219978 0.006547
v -0.021701 -0.219978 0.005562
v -0.028673 -0.219978 0.049905
v -0.028673 -0.219978 0.002674
v 0.000233 -0.219978 0.049905
v -0.014220 -0.219978 0.006547
v -0.028673 -0.219978 0.049905
v -0.021701 -0.219978 0.005562
v -0.028673 -0.219978 0.002674
v -0.006739 -0.219978 0.005562
v 0.000233 -0.219978 0.002674
v 0.000233 -0.212751 0.002674
v 0.000233 -0.219978 0.049905
v 0.000233 -0.219978 0.002674
v 0.000233 -0.217440 0.043139
v 0.000233 -0.212751 0.044897
v 0.000233 -0.212751 0.044897
v 0.000233 -0.212751 0.002674
v 0.000233 -0.217440 0.043139
v 0.000233 -0.219978 0.049905
v 0.000233 -0.219978 0.002674
v -0.028673 -0.212751 0.052615
v -0.021701 -0.212751 0.005562
v -0.028673 -0.212751 0.002674
v -0.027501 -0.212751 0.044897
v -0.014220 -0.212751 0.006547
v -0.027089 -0.212751 0.049905
v -0.026866 -0.212751 0.052615
v -0.006739 -0.212751 0.005562
v 0.000233 -0.212751 0.044897
v 0.000233 -0.212751 0.002674
v -0.027501 -0.212751 0.044897
v -0.014220 -0.212751 0.006547
v 0.000233 -0.212751 0.044897
v -0.006739 -0.212751 0.005562
v 0.000233 -0.212751 0.002674
v -0.026866 -0.212751 0.052615
v -0.028673 -0.212751 0.052615
v -0.027089 -0.212751 0.049905
v -0.021701 -0.212751 0.005562
v -0.028673 -0.212751 0.002674
v -0.028673 -0.212751 0.052615
v -0.028673 -0.219978 0.002674
v -0.028673 -0.219978 0.049905
v -0.028673 -0.212751 0.002674
v -0.028673 -0.212751 0.002674
v -0.028673 -0.212751 0.052615
v -0.028673 -0.219978 0.002674
v -0.028673 -0.219978 0.049905
v -0.006739 -0.212751 0.005562
v -0.014220 -0.219978 0.006547
v -0.014220 -0.212751 0.006547
v -0.006739 -0.219978 0.005562
v -0.006739 -0.219978 0.005562
v -0.006739 -0.212751 0.005562
v -0.014220 -0.219978 0.006547
v -0.014220 -0.212751 0.006547
v 0.000233 -0.212751 0.002674
v 0.000233 -0.219978 0.002674
v 0.000233 -0.219978 0.002674
v 0.000233 -0.212751 0.002674
v -0.021701 -0.212751 0.005562
v -0.028673 -0.219978 0.002674
v -0.028673 -0.212751 0.002674
v -0.021701 -0.219978 0.005562
v -0.021701 -0.219978 0.005562
v -0.021701 -0.212751 0.005562
v -0.028673 -0.219978 0.002674
v -0.028673 -0.212751 0.002674
vn 1 0 0
vn -1 0 0
vn 0 -0.3511233977527751 0.9363291940073994
vn 0 0.3511233977527751 -0.9363291940073994
vn 0 1 0
vn 0 -1 0
vn -0.973679597803977 0.21340919951867995 0.08002845981950496
vn 0.973679597803977 -0.21340919951867995 -0.08002845981950496
vn -0.25881900959356163 0 -0.9659258358036645
vn 0 0 -1
vn 0.25881900959356163 0 0.9659258358036645
vn 0 0 1
vn -0.38268341623423263 0 -0.9238795391929066
vn 0.38268341623423263 0 0.9238795391929066
vn 0.25881900959356163 0 -0.9659258358036645
vn 0.38268341623423263 0 -0.9238795391929066
vn -0.25881900959356163 0 0.9659258358036645
vn -0.38268341623423263 0 0.9238795391929066
usemtl material_0_0
f 1//1 2//1 3//1
f 2//1 1//1 4//1
f 4//1 5//1 2//1
f 6//2 7//2 8//2
f 8//2 9//2 6//2
f 10//2 6//2 9//2
f 11//3 12//3 13//3
f 12//3 11//3 14//3
f 15//4 16//4 17//4
f 18//4 17//4 16//4
f 19//1 2//1 5//1
f 2//1 19//1 3//1
f 10//2 20//2 6//2
f 7//2 6//2 20//2
f 21//5 22//5 23//5
f 22//5 21//5 24//5
f 25//6 26//6 27//6
f 28//6 27//6 26//6
f 29//4 30//4 31//4
f 32//3 33//3 34//3
f 35//7 36//7 37//7
f 36//7 35//7 38//7
f 38//7 35//7 39//7
f 40//8 41//8 42//8
f 42//8 41//8 43//8
f 44//8 43//8 41//8
f 45//3 46//3 47//3
f 48//4 49//4 50//4
f 51//6 52//6 53//6
f 52//6 51//6 54//6
f 55//6 56//6 57//6
f 56//6 55//6 54//6
f 56//6 54//6 51//6
f 58//5 59//5 60//5
f 59//5 61//5 60//5
f 62//5 60//5 61//5
f 59//5 58//5 63//5
f 64//5 63//5 58//5
f 65//1 66//1 67//1
f 66//1 65//1 68//1
f 68//1 65//1 69//1
f 70//2 71//2 72//2
f 72//2 71//2 73//2
f 74//2 73//2 71//2
f 75//5 76//5 77//5
f 76//5 75//5 78//5
f 76//5 78//5 79//5
f 78//5 75//5 80//5
f 80//5 75//5 81//5
f 82//5 83//5 84//5
f 83//5 82//5 79//5
f 83//5 79//5 78//5
f 85//6 86//6 87//6
f 86//6 88//6 87//6
f 89//6 87//6 88//6
f 90//6 91//6 92//6
f 92//6 91//6 85//6
f 86//6 85//6 93//6
f 85//6 91//6 93//6
f 94//6 93//6 91//6
f 95//2 96//2 97//2
f 96//2 95//2 98//2
f 99//1 100//1 101//1
f 102//1 101//1 100//1
f 103//9 104//10 105//10
f 104//10 103//9 106//9
f 107//11 108//11 109//12
f 110//12 109//12 108//11
f 111//13 106//9 103//9
f 106//9 111//13 112//13
f 113//14 114//14 107//11
f 108//11 107//11 114//14
f 115//15 116//16 117//16
f 116//16 115//15 118//15
f 119//17 120//17 121//18
f 122//18 121//18 120//17
f 105//10 118//15 115//15
f 118//15 105//10 104//10
f 109//12 110//12 119//17
f 120//17 119//17 110//12
