# SSTK version 0.8.0
# 15
mtllib original-15.mtl
o #ID120
v -0.255258 -0.548927 0.394958
v -0.255258 -0.520488 0.374275
v -0.255258 -0.551513 0.389787
v -0.255258 -0.517903 0.379446
v 0.226818 -0.548927 0.394958
v -0.255258 -0.551513 0.389787
v 0.226818 -0.551513 0.389787
v -0.255258 -0.548927 0.394958
v -0.255258 -0.548927 0.394958
v -0.249477 -0.543757 0.392373
v -0.255258 -0.517903 0.379446
v 0.226818 -0.548927 0.394958
v -0.164624 -0.543757 0.392373
v -0.153062 -0.543757 0.392373
v -0.164624 -0.523073 0.382031
v -0.068209 -0.543757 0.392373
v -0.056647 -0.543757 0.392373
v -0.068209 -0.523073 0.382031
v 0.028206 -0.543757 0.392373
v 0.039769 -0.543757 0.392373
v 0.028206 -0.523073 0.382031
v 0.124622 -0.543757 0.392373
v 0.136184 -0.543757 0.392373
v 0.136184 -0.523073 0.382031
v 0.221037 -0.543757 0.392373
v 0.221037 -0.523073 0.382031
v -0.249477 -0.523073 0.382031
v 0.226818 -0.517903 0.379446
v -0.153062 -0.523073 0.382031
v -0.056647 -0.523073 0.382031
v 0.039769 -0.523073 0.382031
v 0.124622 -0.523073 0.382031
v -0.255258 -0.517903 0.379446
v 0.226818 -0.520488 0.374275
v -0.255258 -0.520488 0.374275
v 0.226818 -0.517903 0.379446
v 0.226818 -0.520488 0.374275
v 0.226818 -0.548927 0.394958
v 0.226818 -0.551513 0.389787
v 0.226818 -0.517903 0.379446
vn -1 0 0
vn 0 -0.8944271909999157 0.44721359549995787
vn 0 0.44721359549995787 0.8944271909999157
vn 0 0.8944271909999157 -0.44721359549995787
vn 1 0 0
usemtl material_0_0
f 1//1 2//1 3//1
f 2//1 1//1 4//1
f 5//2 6//2 7//2
f 6//2 5//2 8//2
f 9//3 10//3 11//3
f 10//3 9//3 12//3
f 10//3 12//3 13//3
f 13//3 12//3 14//3
f 13//3 14//3 15//3
f 14//3 12//3 16//3
f 16//3 12//3 17//3
f 16//3 17//3 18//3
f 17//3 12//3 19//3
f 19//3 12//3 20//3
f 19//3 20//3 21//3
f 20//3 12//3 22//3
f 22//3 12//3 23//3
f 22//3 23//3 24//3
f 23//3 12//3 25//3
f 25//3 12//3 26//3
f 11//3 27//3 28//3
f 27//3 11//3 10//3
f 28//3 27//3 15//3
f 28//3 15//3 29//3
f 29//3 15//3 14//3
f 28//3 29//3 18//3
f 28//3 18//3 30//3
f 30//3 18//3 17//3
f 28//3 30//3 21//3
f 28//3 21//3 31//3
f 31//3 21//3 20//3
f 28//3 31//3 32//3
f 28//3 32//3 24//3
f 24//3 32//3 22//3
f 28//3 24//3 26//3
f 28//3 26//3 12//3
f 33//4 34//4 35//4
f 34//4 33//4 36//4
f 37//5 38//5 39//5
f 38//5 37//5 40//5
