# SSTK version 0.8.0
# 38
mtllib original-38.mtl
o #ID211
v -0.044145 0.809055 -0.134040
v -0.014220 0.739682 -0.137980
v -0.044145 0.739682 -0.134040
v -0.014220 0.809055 -0.137980
v -0.014220 0.809055 -0.137980
v -0.044145 0.809055 -0.134040
v -0.014220 0.739682 -0.137980
v -0.044145 0.739682 -0.134040
v -0.125902 0.739682 -0.052284
v -0.125902 0.739682 0.007567
v -0.129842 0.739682 -0.022358
v -0.114351 0.739682 -0.080169
v -0.114351 0.739682 0.035452
v -0.112499 0.739682 -0.022358
v -0.109150 0.739682 -0.047795
v -0.095977 0.739682 -0.104115
v -0.099332 0.739682 -0.071498
v -0.083713 0.739682 -0.091852
v -0.072031 0.739682 -0.122490
v -0.063359 0.739682 -0.107470
v -0.044145 0.739682 -0.134040
v -0.039656 0.739682 -0.117288
v -0.014220 0.739682 -0.137980
v -0.014220 0.739682 -0.120637
v 0.015705 0.739682 -0.134040
v 0.011216 0.739682 -0.117288
v 0.034919 0.739682 -0.107470
v 0.043591 0.739682 -0.122490
v 0.055273 0.739682 -0.091852
v 0.067537 0.739682 -0.104115
v 0.070891 0.739682 -0.071498
v 0.085911 0.739682 -0.080169
v 0.080710 0.739682 -0.047795
v 0.084058 0.739682 -0.022358
v -0.109150 0.739682 0.003078
v -0.095977 0.739682 0.059398
v -0.099332 0.739682 0.026781
v -0.083713 0.739682 0.047135
v -0.072031 0.739682 0.077773
v -0.063359 0.739682 0.062753
v -0.044145 0.739682 0.089324
v -0.039656 0.739682 0.072571
v -0.014220 0.739682 0.093263
v -0.014220 0.739682 0.075920
v 0.011216 0.739682 0.072571
v 0.015705 0.739682 0.089324
v 0.034919 0.739682 0.062753
v 0.043591 0.739682 0.077773
v 0.055273 0.739682 0.047135
v 0.067537 0.739682 0.059398
v 0.070891 0.739682 0.026781
v 0.085911 0.739682 0.035452
v 0.080710 0.739682 0.003078
v 0.097462 0.739682 -0.052284
v 0.097462 0.739682 0.007567
v 0.101402 0.739682 -0.022358
v 0.101402 0.739682 -0.022358
v 0.097462 0.739682 -0.052284
v 0.097462 0.739682 0.007567
v 0.085911 0.739682 0.035452
v 0.085911 0.739682 -0.080169
v 0.084058 0.739682 -0.022358
v 0.080710 0.739682 0.003078
v 0.070891 0.739682 0.026781
v 0.067537 0.739682 0.059398
v 0.055273 0.739682 0.047135
v 0.043591 0.739682 0.077773
v 0.034919 0.739682 0.062753
v 0.015705 0.739682 0.089324
v 0.011216 0.739682 0.072571
v -0.014220 0.739682 0.093263
v -0.014220 0.739682 0.075920
v -0.039656 0.739682 0.072571
v -0.044145 0.739682 0.089324
v -0.063359 0.739682 0.062753
v -0.072031 0.739682 0.077773
v -0.083713 0.739682 0.047135
v -0.095977 0.739682 0.059398
v -0.099332 0.739682 0.026781
v -0.109150 0.739682 0.003078
v -0.112499 0.739682 -0.022358
v -0.114351 0.739682 0.035452
v 0.080710 0.739682 -0.047795
v 0.070891 0.739682 -0.071498
v 0.067537 0.739682 -0.104115
v 0.055273 0.739682 -0.091852
v 0.043591 0.739682 -0.122490
v 0.034919 0.739682 -0.107470
v 0.015705 0.739682 -0.134040
v 0.011216 0.739682 -0.117288
v -0.014220 0.739682 -0.120637
v -0.014220 0.739682 -0.137980
v -0.039656 0.739682 -0.117288
v -0.044145 0.739682 -0.134040
v -0.063359 0.739682 -0.107470
v -0.072031 0.739682 -0.122490
v -0.083713 0.739682 -0.091852
v -0.095977 0.739682 -0.104115
v -0.099332 0.739682 -0.071498
v -0.109150 0.739682 -0.047795
v -0.114351 0.739682 -0.080169
v -0.125902 0.739682 0.007567
v -0.125902 0.739682 -0.052284
v -0.129842 0.739682 -0.022358
v -0.072031 0.809055 -0.122490
v -0.072031 0.739682 -0.122490
v -0.072031 0.809055 -0.122490
v -0.072031 0.739682 -0.122490
v -0.125902 0.809055 0.007567
v -0.125902 0.809055 -0.052284
v -0.129842 0.809055 -0.022358
v -0.114351 0.809055 0.035452
v -0.114351 0.809055 -0.080169
v -0.112499 0.809055 -0.022358
v -0.109150 0.809055 0.003078
v -0.095977 0.809055 0.059398
v -0.099332 0.809055 0.026781
v -0.083713 0.809055 0.047135
v -0.072031 0.809055 0.077773
v -0.063359 0.809055 0.062753
v -0.044145 0.809055 0.089324
v -0.039656 0.809055 0.072571
v -0.014220 0.809055 0.093263
v -0.014220 0.809055 0.075920
v 0.015705 0.809055 0.089324
v 0.011216 0.809055 0.072571
v 0.034919 0.809055 0.062753
v 0.043591 0.809055 0.077773
v 0.055273 0.809055 0.047135
v 0.067537 0.809055 0.059398
v 0.070891 0.809055 0.026781
v 0.085911 0.809055 0.035452
v 0.080710 0.809055 0.003078
v 0.084058 0.809055 -0.022358
v -0.109150 0.809055 -0.047795
v -0.095977 0.809055 -0.104115
v -0.099332 0.809055 -0.071498
v -0.083713 0.809055 -0.091852
v -0.072031 0.809055 -0.122490
v -0.063359 0.809055 -0.107470
v -0.044145 0.809055 -0.134040
v -0.039656 0.809055 -0.117288
v -0.014220 0.809055 -0.137980
v -0.014220 0.809055 -0.120637
v 0.011216 0.809055 -0.117288
v 0.015705 0.809055 -0.134040
v 0.034919 0.809055 -0.107470
v 0.043591 0.809055 -0.122490
v 0.055273 0.809055 -0.091852
v 0.067537 0.809055 -0.104115
v 0.070891 0.809055 -0.071498
v 0.085911 0.809055 -0.080169
v 0.080710 0.809055 -0.047795
v 0.097462 0.809055 0.007567
v 0.097462 0.809055 -0.052284
v 0.101402 0.809055 -0.022358
v 0.101402 0.809055 -0.022358
v 0.097462 0.809055 0.007567
v 0.097462 0.809055 -0.052284
v 0.085911 0.809055 -0.080169
v 0.085911 0.809055 0.035452
v 0.084058 0.809055 -0.022358
v 0.080710 0.809055 -0.047795
v 0.070891 0.809055 -0.071498
v 0.067537 0.809055 -0.104115
v 0.055273 0.809055 -0.091852
v 0.043591 0.809055 -0.122490
v 0.034919 0.809055 -0.107470
v 0.015705 0.809055 -0.134040
v 0.011216 0.809055 -0.117288
v -0.014220 0.809055 -0.137980
v -0.014220 0.809055 -0.120637
v -0.039656 0.809055 -0.117288
v -0.044145 0.809055 -0.134040
v -0.063359 0.809055 -0.107470
v -0.072031 0.809055 -0.122490
v -0.083713 0.809055 -0.091852
v -0.095977 0.809055 -0.104115
v -0.099332 0.809055 -0.071498
v -0.109150 0.809055 -0.047795
v -0.112499 0.809055 -0.022358
v -0.114351 0.809055 -0.080169
v 0.080710 0.809055 0.003078
v 0.070891 0.809055 0.026781
v 0.067537 0.809055 0.059398
v 0.055273 0.809055 0.047135
v 0.043591 0.809055 0.077773
v 0.034919 0.809055 0.062753
v 0.015705 0.809055 0.089324
v 0.011216 0.809055 0.072571
v -0.014220 0.809055 0.075920
v -0.014220 0.809055 0.093263
v -0.039656 0.809055 0.072571
v -0.044145 0.809055 0.089324
v -0.063359 0.809055 0.062753
v -0.072031 0.809055 0.077773
v -0.083713 0.809055 0.047135
v -0.095977 0.809055 0.059398
v -0.099332 0.809055 0.026781
v -0.109150 0.809055 0.003078
v -0.114351 0.809055 0.035452
v -0.125902 0.809055 -0.052284
v -0.125902 0.809055 0.007567
v -0.129842 0.809055 -0.022358
v 0.015705 0.739682 -0.134040
v 0.015705 0.809055 -0.134040
v 0.015705 0.809055 -0.134040
v 0.015705 0.739682 -0.134040
v 0.101402 0.739682 -0.022358
v 0.097462 0.809055 0.007567
v 0.097462 0.739682 0.007567
v 0.101402 0.809055 -0.022358
v 0.101402 0.809055 -0.022358
v 0.101402 0.739682 -0.022358
v 0.097462 0.809055 0.007567
v 0.097462 0.739682 0.007567
v 0.085911 0.809055 0.035452
v 0.085911 0.739682 0.035452
v 0.085911 0.809055 0.035452
v 0.085911 0.739682 0.035452
v 0.067537 0.809055 0.059398
v 0.067537 0.739682 0.059398
v 0.067537 0.809055 0.059398
v 0.067537 0.739682 0.059398
v 0.043591 0.739682 0.077773
v 0.043591 0.809055 0.077773
v 0.043591 0.809055 0.077773
v 0.043591 0.739682 0.077773
v 0.015705 0.739682 0.089324
v 0.015705 0.809055 0.089324
v 0.015705 0.809055 0.089324
v 0.015705 0.739682 0.089324
v -0.014220 0.739682 0.093263
v -0.014220 0.809055 0.093263
v -0.014220 0.809055 0.093263
v -0.014220 0.739682 0.093263
v -0.044145 0.739682 0.089324
v -0.044145 0.809055 0.089324
v -0.044145 0.809055 0.089324
v -0.044145 0.739682 0.089324
v -0.072031 0.739682 0.077773
v -0.072031 0.809055 0.077773
v -0.072031 0.809055 0.077773
v -0.072031 0.739682 0.077773
v -0.095977 0.739682 0.059398
v -0.095977 0.809055 0.059398
v -0.095977 0.809055 0.059398
v -0.095977 0.739682 0.059398
v -0.114351 0.809055 0.035452
v -0.114351 0.739682 0.035452
v -0.114351 0.739682 0.035452
v -0.114351 0.809055 0.035452
v -0.125902 0.809055 0.007567
v -0.125902 0.739682 0.007567
v -0.125902 0.739682 0.007567
v -0.125902 0.809055 0.007567
v -0.129842 0.809055 -0.022358
v -0.129842 0.739682 -0.022358
v -0.129842 0.739682 -0.022358
v -0.129842 0.809055 -0.022358
v -0.125902 0.809055 -0.052284
v -0.125902 0.739682 -0.052284
v -0.125902 0.739682 -0.052284
v -0.125902 0.809055 -0.052284
v -0.114351 0.809055 -0.080169
v -0.114351 0.739682 -0.080169
v -0.114351 0.739682 -0.080169
v -0.114351 0.809055 -0.080169
v -0.095977 0.809055 -0.104115
v -0.095977 0.739682 -0.104115
v -0.095977 0.739682 -0.104115
v -0.095977 0.809055 -0.104115
v 0.043591 0.739682 -0.122490
v 0.043591 0.809055 -0.122490
v 0.043591 0.809055 -0.122490
v 0.043591 0.739682 -0.122490
v 0.067537 0.739682 -0.104115
v 0.067537 0.809055 -0.104115
v 0.067537 0.809055 -0.104115
v 0.067537 0.739682 -0.104115
v 0.085911 0.809055 -0.080169
v 0.085911 0.739682 -0.080169
v 0.085911 0.809055 -0.080169
v 0.085911 0.739682 -0.080169
v 0.097462 0.809055 -0.052284
v 0.097462 0.739682 -0.052284
v 0.097462 0.809055 -0.052284
v 0.097462 0.739682 -0.052284
vn -0.2588190095935614 0 -0.9659258358036646
vn 0 0 -1
vn 0 0 1
vn 0.2588190095935614 0 0.9659258358036646
vn 0 -1 0
vn 0 1 0
vn -0.5000000016387098 0 -0.8660254028383291
vn 0.5000000016387098 0 0.8660254028383291
vn 0.25881900959356186 0 -0.9659258358036644
vn -0.25881900959356186 0 0.9659258358036644
vn 1 0 0
vn 0.9659258358036644 0 0.25881900959356186
vn -1 0 0
vn -0.9659258358036644 0 -0.25881900959356186
vn 0.8660254028383289 0 0.5000000016387103
vn -0.8660254028383289 0 -0.5000000016387103
vn 0.7071067811865475 0 0.7071067811865477
vn -0.7071067811865475 0 -0.7071067811865477
vn -0.5000000016387103 0 0.8660254028383289
vn 0.5000000016387103 0 -0.8660254028383289
vn -0.7071067811865477 0 0.7071067811865475
vn 0.7071067811865477 0 -0.7071067811865475
vn -0.8660254028383291 0 0.5000000016387098
vn 0.8660254028383291 0 -0.5000000016387098
vn -0.9659258358036646 0 0.2588190095935614
vn 0.9659258358036646 0 -0.2588190095935614
usemtl material_0_0
f 1//1 2//2 3//1
f 2//2 1//1 4//2
f 5//3 6//4 7//3
f 8//4 7//3 6//4
f 9//5 10//5 11//5
f 10//5 9//5 12//5
f 10//5 12//5 13//5
f 13//5 12//5 14//5
f 14//5 12//5 15//5
f 15//5 12//5 16//5
f 15//5 16//5 17//5
f 17//5 16//5 18//5
f 18//5 16//5 19//5
f 18//5 19//5 20//5
f 20//5 19//5 21//5
f 20//5 21//5 22//5
f 22//5 21//5 23//5
f 22//5 23//5 24//5
f 24//5 23//5 25//5
f 24//5 25//5 26//5
f 26//5 25//5 27//5
f 27//5 25//5 28//5
f 27//5 28//5 29//5
f 29//5 28//5 30//5
f 29//5 30//5 31//5
f 31//5 30//5 32//5
f 31//5 32//5 33//5
f 33//5 32//5 34//5
f 13//5 35//5 36//5
f 35//5 13//5 14//5
f 36//5 35//5 37//5
f 36//5 37//5 38//5
f 36//5 38//5 39//5
f 39//5 38//5 40//5
f 39//5 40//5 41//5
f 41//5 40//5 42//5
f 41//5 42//5 43//5
f 43//5 42//5 44//5
f 43//5 44//5 45//5
f 43//5 45//5 46//5
f 46//5 45//5 47//5
f 46//5 47//5 48//5
f 48//5 47//5 49//5
f 48//5 49//5 50//5
f 50//5 49//5 51//5
f 50//5 51//5 52//5
f 52//5 51//5 53//5
f 52//5 53//5 34//5
f 52//5 34//5 32//5
f 52//5 32//5 54//5
f 52//5 54//5 55//5
f 55//5 54//5 56//5
f 57//6 58//6 59//6
f 59//6 58//6 60//6
f 58//6 61//6 60//6
f 61//6 62//6 60//6
f 62//6 63//6 60//6
f 63//6 64//6 60//6
f 60//6 64//6 65//6
f 64//6 66//6 65//6
f 65//6 66//6 67//6
f 66//6 68//6 67//6
f 67//6 68//6 69//6
f 68//6 70//6 69//6
f 69//6 70//6 71//6
f 70//6 72//6 71//6
f 72//6 73//6 71//6
f 71//6 73//6 74//6
f 73//6 75//6 74//6
f 74//6 75//6 76//6
f 75//6 77//6 76//6
f 76//6 77//6 78//6
f 77//6 79//6 78//6
f 79//6 80//6 78//6
f 81//6 82//6 80//6
f 78//6 80//6 82//6
f 62//6 61//6 83//6
f 83//6 61//6 84//6
f 61//6 85//6 84//6
f 84//6 85//6 86//6
f 85//6 87//6 86//6
f 86//6 87//6 88//6
f 87//6 89//6 88//6
f 88//6 89//6 90//6
f 90//6 89//6 91//6
f 89//6 92//6 91//6
f 91//6 92//6 93//6
f 92//6 94//6 93//6
f 93//6 94//6 95//6
f 94//6 96//6 95//6
f 95//6 96//6 97//6
f 96//6 98//6 97//6
f 97//6 98//6 99//6
f 99//6 98//6 100//6
f 98//6 101//6 100//6
f 100//6 101//6 81//6
f 81//6 101//6 82//6
f 82//6 101//6 102//6
f 101//6 103//6 102//6
f 104//6 102//6 103//6
f 105//7 3//1 106//7
f 3//1 105//7 1//1
f 6//4 107//8 8//4
f 108//8 8//4 107//8
f 109//6 110//6 111//6
f 110//6 109//6 112//6
f 110//6 112//6 113//6
f 113//6 112//6 114//6
f 114//6 112//6 115//6
f 115//6 112//6 116//6
f 115//6 116//6 117//6
f 117//6 116//6 118//6
f 118//6 116//6 119//6
f 118//6 119//6 120//6
f 120//6 119//6 121//6
f 120//6 121//6 122//6
f 122//6 121//6 123//6
f 122//6 123//6 124//6
f 124//6 123//6 125//6
f 124//6 125//6 126//6
f 126//6 125//6 127//6
f 127//6 125//6 128//6
f 127//6 128//6 129//6
f 129//6 128//6 130//6
f 129//6 130//6 131//6
f 131//6 130//6 132//6
f 131//6 132//6 133//6
f 133//6 132//6 134//6
f 113//6 135//6 136//6
f 135//6 113//6 114//6
f 136//6 135//6 137//6
f 136//6 137//6 138//6
f 136//6 138//6 139//6
f 139//6 138//6 140//6
f 139//6 140//6 141//6
f 141//6 140//6 142//6
f 141//6 142//6 143//6
f 143//6 142//6 144//6
f 143//6 144//6 145//6
f 143//6 145//6 146//6
f 146//6 145//6 147//6
f 146//6 147//6 148//6
f 148//6 147//6 149//6
f 148//6 149//6 150//6
f 150//6 149//6 151//6
f 150//6 151//6 152//6
f 152//6 151//6 153//6
f 152//6 153//6 134//6
f 152//6 134//6 132//6
f 152//6 132//6 154//6
f 152//6 154//6 155//6
f 155//6 154//6 156//6
f 157//5 158//5 159//5
f 159//5 158//5 160//5
f 158//5 161//5 160//5
f 161//5 162//5 160//5
f 162//5 163//5 160//5
f 163//5 164//5 160//5
f 160//5 164//5 165//5
f 164//5 166//5 165//5
f 165//5 166//5 167//5
f 166//5 168//5 167//5
f 167//5 168//5 169//5
f 168//5 170//5 169//5
f 169//5 170//5 171//5
f 170//5 172//5 171//5
f 172//5 173//5 171//5
f 171//5 173//5 174//5
f 173//5 175//5 174//5
f 174//5 175//5 176//5
f 175//5 177//5 176//5
f 176//5 177//5 178//5
f 177//5 179//5 178//5
f 179//5 180//5 178//5
f 181//5 182//5 180//5
f 178//5 180//5 182//5
f 162//5 161//5 183//5
f 183//5 161//5 184//5
f 161//5 185//5 184//5
f 184//5 185//5 186//5
f 185//5 187//5 186//5
f 186//5 187//5 188//5
f 187//5 189//5 188//5
f 188//5 189//5 190//5
f 190//5 189//5 191//5
f 189//5 192//5 191//5
f 191//5 192//5 193//5
f 192//5 194//5 193//5
f 193//5 194//5 195//5
f 194//5 196//5 195//5
f 195//5 196//5 197//5
f 196//5 198//5 197//5
f 197//5 198//5 199//5
f 199//5 198//5 200//5
f 198//5 201//5 200//5
f 200//5 201//5 181//5
f 181//5 201//5 182//5
f 182//5 201//5 202//5
f 201//5 203//5 202//5
f 204//5 202//5 203//5
f 4//2 205//9 2//2
f 205//9 4//2 206//9
f 207//10 5//3 208//10
f 7//3 208//10 5//3
f 209//11 210//12 211//12
f 210//12 209//11 212//11
f 213//13 214//13 215//14
f 216//14 215//14 214//13
f 211//12 217//15 218//15
f 217//15 211//12 210//12
f 215//14 216//14 219//16
f 220//16 219//16 216//14
f 218//15 221//17 222//17
f 221//17 218//15 217//15
f 219//16 220//16 223//18
f 224//18 223//18 220//16
f 221//17 225//8 222//17
f 225//8 221//17 226//8
f 227//7 223//18 228//7
f 224//18 228//7 223//18
f 226//8 229//4 225//8
f 229//4 226//8 230//4
f 231//1 227//7 232//1
f 228//7 232//1 227//7
f 230//4 233//3 229//4
f 233//3 230//4 234//3
f 235//2 231//1 236//2
f 232//1 236//2 231//1
f 234//3 237//10 233//3
f 237//10 234//3 238//10
f 239//9 235//2 240//9
f 236//2 240//9 235//2
f 238//10 241//19 237//10
f 241//19 238//10 242//19
f 243//20 239//9 244//20
f 240//9 244//20 239//9
f 242//19 245//21 241//19
f 245//21 242//19 246//21
f 247//22 243//20 248//22
f 244//20 248//22 243//20
f 249//23 245//21 246//21
f 245//21 249//23 250//23
f 251//24 252//24 248//22
f 247//22 248//22 252//24
f 253//25 250//23 249//23
f 250//23 253//25 254//25
f 255//26 256//26 251//24
f 252//24 251//24 256//26
f 257//13 254//25 253//25
f 254//25 257//13 258//13
f 259//11 260//11 255//26
f 256//26 255//26 260//11
f 261//14 258//13 257//13
f 258//13 261//14 262//14
f 263//12 264//12 259//11
f 260//11 259//11 264//12
f 265//16 262//14 261//14
f 262//14 265//16 266//16
f 267//15 268//15 263//12
f 264//12 263//12 268//15
f 269//18 266//16 265//16
f 266//16 269//18 270//18
f 271//17 272//17 267//15
f 268//15 267//15 272//17
f 269//18 106//7 270//18
f 106//7 269//18 105//7
f 107//8 272//17 108//8
f 271//17 108//8 272//17
f 206//9 273//20 205//9
f 273//20 206//9 274//20
f 275//19 207//10 276//19
f 208//10 276//19 207//10
f 274//20 277//22 273//20
f 277//22 274//20 278//22
f 279//21 275//19 280//21
f 276//19 280//21 275//19
f 277//22 281//24 282//24
f 281//24 277//22 278//22
f 279//21 280//21 283//23
f 284//23 283//23 280//21
f 282//24 285//26 286//26
f 285//26 282//24 281//24
f 283//23 284//23 287//25
f 288//25 287//25 284//23
f 286//26 212//11 209//11
f 212//11 286//26 285//26
f 287//25 288//25 213//13
f 214//13 213//13 288//25
