# SSTK version 0.8.0
# 22
mtllib original-22.mtl
o #ID164
v -0.152966 -0.433878 0.217957
v -0.210437 -0.364505 0.173858
v -0.210437 -0.433878 0.173858
v -0.152966 -0.364505 0.217957
v -0.254535 -0.433878 0.116388
v -0.254535 -0.364505 0.116388
v -0.086040 -0.433878 0.245678
v -0.086040 -0.364505 0.245678
v -0.152966 -0.364505 -0.262674
v -0.014220 -0.364505 -0.277267
v -0.086040 -0.364505 -0.290395
v -0.080195 -0.364505 -0.268582
v -0.141675 -0.364505 -0.243116
v -0.210437 -0.364505 -0.218575
v -0.194468 -0.364505 -0.202606
v -0.254535 -0.364505 -0.161104
v -0.234978 -0.364505 -0.149813
v -0.282257 -0.364505 -0.094179
v -0.260443 -0.364505 -0.088334
v -0.291712 -0.364505 -0.022358
v -0.269129 -0.364505 -0.022358
v -0.260443 -0.364505 0.043617
v -0.282257 -0.364505 0.049462
v -0.234978 -0.364505 0.105096
v -0.254535 -0.364505 0.116388
v -0.194468 -0.364505 0.157889
v -0.210437 -0.364505 0.173858
v -0.141675 -0.364505 0.198399
v -0.152966 -0.364505 0.217957
v -0.080195 -0.364505 0.223865
v -0.086040 -0.364505 0.245678
v -0.014220 -0.364505 0.232550
v 0.057600 -0.364505 -0.290395
v -0.014220 -0.364505 -0.299850
v 0.124526 -0.364505 -0.262674
v 0.051755 -0.364505 -0.268582
v 0.113234 -0.364505 -0.243116
v 0.181996 -0.364505 -0.218575
v 0.166028 -0.364505 -0.202606
v 0.226095 -0.364505 -0.161104
v 0.206537 -0.364505 -0.149813
v 0.253816 -0.364505 -0.094179
v 0.232003 -0.364505 -0.088334
v 0.263272 -0.364505 -0.022358
v 0.240689 -0.364505 -0.022358
v 0.232003 -0.364505 0.043617
v 0.253816 -0.364505 0.049462
v 0.206537 -0.364505 0.105096
v 0.226095 -0.364505 0.116388
v 0.166028 -0.364505 0.157889
v 0.181996 -0.364505 0.173858
v 0.113234 -0.364505 0.198399
v 0.124526 -0.364505 0.217957
v 0.051755 -0.364505 0.223865
v 0.057600 -0.364505 0.245678
v -0.014220 -0.364505 0.255134
v -0.282257 -0.433878 0.049462
v -0.282257 -0.364505 0.049462
v -0.014220 -0.433878 0.255134
v -0.014220 -0.364505 0.255134
v -0.291712 -0.364505 -0.022358
v -0.282257 -0.433878 -0.094179
v -0.291712 -0.433878 -0.022358
v -0.282257 -0.364505 -0.094179
v 0.057600 -0.433878 0.245678
v 0.057600 -0.364505 0.245678
v 0.124526 -0.433878 0.217957
v 0.124526 -0.364505 0.217957
v 0.181996 -0.433878 0.173858
v 0.181996 -0.364505 0.173858
v 0.226095 -0.364505 0.116388
v 0.226095 -0.433878 0.116388
v 0.253816 -0.364505 0.049462
v 0.253816 -0.433878 0.049462
v 0.263272 -0.364505 -0.022358
v 0.263272 -0.433878 -0.022358
v 0.253816 -0.364505 -0.094179
v 0.253816 -0.433878 -0.094179
v 0.226095 -0.364505 -0.161104
v 0.226095 -0.433878 -0.161104
v 0.181996 -0.364505 -0.218575
v 0.181996 -0.433878 -0.218575
v 0.124526 -0.433878 -0.262674
v 0.124526 -0.364505 -0.262674
v 0.057600 -0.433878 -0.290395
v 0.057600 -0.364505 -0.290395
v -0.014220 -0.433878 -0.299850
v -0.014220 -0.364505 -0.299850
v -0.086040 -0.433878 -0.290395
v -0.086040 -0.364505 -0.290395
v -0.152966 -0.433878 -0.262674
v -0.152966 -0.364505 -0.262674
v -0.210437 -0.433878 -0.218575
v -0.210437 -0.364505 -0.218575
v -0.254535 -0.364505 -0.161104
v -0.254535 -0.433878 -0.161104
vn -0.5000000016387101 0 0.866025402838329
vn -0.7071067811865476 0 0.7071067811865476
vn -0.866025402838329 0 0.5000000016387101
vn -0.25881900959356163 0 0.9659258358036645
vn 0 1 0
vn -0.9659258358036645 0 0.25881900959356163
vn 0 0 1
vn -1 0 0
vn -0.9659258358036645 0 -0.25881900959356163
vn 0.25881900959356163 0 0.9659258358036645
vn 0.5000000016387101 0 0.866025402838329
vn 0.7071067811865476 0 0.7071067811865476
vn 0.866025402838329 0 0.5000000016387101
vn 0.9659258358036645 0 0.25881900959356163
vn 1 0 0
vn 0.9659258358036645 0 -0.25881900959356163
vn 0.866025402838329 0 -0.5000000016387101
vn 0.7071067811865476 0 -0.7071067811865476
vn 0.5000000016387101 0 -0.866025402838329
vn 0.25881900959356163 0 -0.9659258358036645
vn 0 0 -1
vn -0.25881900959356163 0 -0.9659258358036645
vn -0.5000000016387101 0 -0.866025402838329
vn -0.7071067811865476 0 -0.7071067811865476
vn -0.866025402838329 0 -0.5000000016387101
usemtl material_0_0
f 1//1 2//2 3//2
f 2//2 1//1 4//1
f 2//2 5//3 3//2
f 5//3 2//2 6//3
f 7//4 4//1 1//1
f 4//1 7//4 8//4
f 9//5 10//5 11//5
f 10//5 9//5 12//5
f 12//5 9//5 13//5
f 13//5 9//5 14//5
f 13//5 14//5 15//5
f 15//5 14//5 16//5
f 15//5 16//5 17//5
f 17//5 16//5 18//5
f 17//5 18//5 19//5
f 19//5 18//5 20//5
f 19//5 20//5 21//5
f 21//5 20//5 22//5
f 22//5 20//5 23//5
f 22//5 23//5 24//5
f 24//5 23//5 25//5
f 24//5 25//5 26//5
f 26//5 25//5 27//5
f 26//5 27//5 28//5
f 28//5 27//5 29//5
f 28//5 29//5 30//5
f 30//5 29//5 31//5
f 30//5 31//5 32//5
f 11//5 33//5 34//5
f 33//5 11//5 35//5
f 35//5 11//5 10//5
f 35//5 10//5 36//5
f 35//5 36//5 37//5
f 35//5 37//5 38//5
f 38//5 37//5 39//5
f 38//5 39//5 40//5
f 40//5 39//5 41//5
f 40//5 41//5 42//5
f 42//5 41//5 43//5
f 42//5 43//5 44//5
f 44//5 43//5 45//5
f 44//5 45//5 46//5
f 44//5 46//5 47//5
f 47//5 46//5 48//5
f 47//5 48//5 49//5
f 49//5 48//5 50//5
f 49//5 50//5 51//5
f 51//5 50//5 52//5
f 51//5 52//5 53//5
f 53//5 52//5 54//5
f 53//5 54//5 55//5
f 55//5 54//5 32//5
f 55//5 32//5 31//5
f 55//5 31//5 56//5
f 6//3 57//6 5//3
f 57//6 6//3 58//6
f 59//7 8//4 7//4
f 8//4 59//7 60//7
f 61//8 62//9 63//8
f 62//9 61//8 64//9
f 58//6 63//8 57//6
f 63//8 58//6 61//8
f 65//10 60//7 59//7
f 60//7 65//10 66//10
f 67//11 66//10 65//10
f 66//10 67//11 68//11
f 69//12 68//11 67//11
f 68//11 69//12 70//12
f 71//13 69//12 72//13
f 69//12 71//13 70//12
f 73//14 72//13 74//14
f 72//13 73//14 71//13
f 75//15 74//14 76//15
f 74//14 75//15 73//14
f 77//16 76//15 78//16
f 76//15 77//16 75//15
f 79//17 78//16 80//17
f 78//16 79//17 77//16
f 81//18 80//17 82//18
f 80//17 81//18 79//17
f 81//18 83//19 84//19
f 83//19 81//18 82//18
f 84//19 85//20 86//20
f 85//20 84//19 83//19
f 86//20 87//21 88//21
f 87//21 86//20 85//20
f 88//21 89//22 90//22
f 89//22 88//21 87//21
f 90//22 91//23 92//23
f 91//23 90//22 89//22
f 92//23 93//24 94//24
f 93//24 92//23 91//23
f 95//25 93//24 96//25
f 93//24 95//25 94//24
f 64//9 96//25 62//9
f 96//25 64//9 95//25
