# SSTK version 0.8.0
# 3
mtllib original-3.mtl
o #ID14
v 0.412278 0.577812 -0.045483
v 0.285991 0.566250 -0.045483
v 0.285991 0.577812 -0.045483
v 0.396237 0.566250 -0.045483
v 0.396237 0.210510 -0.045483
v 0.253460 0.115325 -0.045483
v 0.251710 0.081805 -0.045483
v 0.251710 0.115325 -0.045483
v 0.412955 0.189303 -0.045483
v 0.414542 0.577663 -0.045483
v 0.415433 0.191105 -0.045483
v 0.416767 0.577221 -0.045483
v 0.417756 0.193105 -0.045483
v 0.418915 0.576492 -0.045483
v 0.419906 0.195288 -0.045483
v 0.420950 0.575488 -0.045483
v 0.421871 0.197639 -0.045483
v 0.422836 0.574228 -0.045483
v 0.423638 0.200143 -0.045483
v 0.424542 0.572732 -0.045483
v 0.425193 0.202783 -0.045483
v 0.426038 0.571026 -0.045483
v 0.426527 0.205542 -0.045483
v 0.427298 0.569140 -0.045483
v 0.427631 0.208401 -0.045483
v 0.428301 0.567106 -0.045483
v 0.428498 0.211340 -0.045483
v 0.429031 0.564957 -0.045483
v 0.429121 0.214341 -0.045483
v 0.429473 0.562732 -0.045483
v 0.429496 0.217382 -0.045483
v 0.429622 0.560468 -0.045483
v 0.429622 0.220444 -0.045483
v 0.429622 0.220444 -0.045483
v 0.429622 0.560468 -0.045483
v 0.429496 0.217382 -0.045483
v 0.429473 0.562732 -0.045483
v 0.429121 0.214341 -0.045483
v 0.429031 0.564957 -0.045483
v 0.428498 0.211340 -0.045483
v 0.428301 0.567106 -0.045483
v 0.427631 0.208401 -0.045483
v 0.427298 0.569140 -0.045483
v 0.426527 0.205542 -0.045483
v 0.426038 0.571026 -0.045483
v 0.425193 0.202783 -0.045483
v 0.424542 0.572732 -0.045483
v 0.423638 0.200143 -0.045483
v 0.422836 0.574228 -0.045483
v 0.421871 0.197639 -0.045483
v 0.420950 0.575488 -0.045483
v 0.419906 0.195288 -0.045483
v 0.418915 0.576492 -0.045483
v 0.417756 0.193105 -0.045483
v 0.416767 0.577221 -0.045483
v 0.415433 0.191105 -0.045483
v 0.414542 0.577663 -0.045483
v 0.412955 0.189303 -0.045483
v 0.412278 0.577812 -0.045483
v 0.396237 0.210510 -0.045483
v 0.253460 0.115325 -0.045483
v 0.251710 0.081805 -0.045483
v 0.251710 0.115325 -0.045483
v 0.396237 0.566250 -0.045483
v 0.285991 0.566250 -0.045483
v 0.285991 0.577812 -0.045483
v 0.416767 0.577221 -0.045483
v 0.414542 0.577663 -0.068607
v 0.416767 0.577221 -0.068607
v 0.414542 0.577663 -0.045483
v 0.414542 0.577663 -0.045483
v 0.416767 0.577221 -0.045483
v 0.414542 0.577663 -0.068607
v 0.416767 0.577221 -0.068607
v 0.418915 0.576492 -0.045483
v 0.418915 0.576492 -0.068607
v 0.418915 0.576492 -0.045483
v 0.418915 0.576492 -0.068607
v 0.420950 0.575488 -0.045483
v 0.420950 0.575488 -0.068607
v 0.420950 0.575488 -0.045483
v 0.420950 0.575488 -0.068607
v 0.422836 0.574228 -0.045483
v 0.422836 0.574228 -0.068607
v 0.422836 0.574228 -0.045483
v 0.422836 0.574228 -0.068607
v 0.424542 0.572732 -0.045483
v 0.424542 0.572732 -0.068607
v 0.424542 0.572732 -0.045483
v 0.424542 0.572732 -0.068607
v 0.426038 0.571026 -0.068607
v 0.426038 0.571026 -0.045483
v 0.426038 0.571026 -0.068607
v 0.426038 0.571026 -0.045483
v 0.427298 0.569140 -0.068607
v 0.427298 0.569140 -0.045483
v 0.427298 0.569140 -0.068607
v 0.427298 0.569140 -0.045483
v 0.428301 0.567106 -0.068607
v 0.428301 0.567106 -0.045483
v 0.428301 0.567106 -0.068607
v 0.428301 0.567106 -0.045483
v 0.429031 0.564957 -0.068607
v 0.429031 0.564957 -0.045483
v 0.429031 0.564957 -0.068607
v 0.429031 0.564957 -0.045483
v 0.429473 0.562732 -0.068607
v 0.429473 0.562732 -0.045483
v 0.429473 0.562732 -0.068607
v 0.429473 0.562732 -0.045483
v 0.429622 0.560468 -0.068607
v 0.429622 0.560468 -0.045483
v 0.429622 0.560468 -0.068607
v 0.429622 0.560468 -0.045483
v 0.429622 0.560468 -0.045483
v 0.429622 0.220444 -0.068607
v 0.429622 0.220444 -0.045483
v 0.429622 0.560468 -0.068607
v 0.429622 0.560468 -0.068607
v 0.429622 0.560468 -0.045483
v 0.429622 0.220444 -0.068607
v 0.429622 0.220444 -0.045483
v 0.429622 0.220444 -0.045483
v 0.429496 0.217382 -0.068607
v 0.429496 0.217382 -0.045483
v 0.429622 0.220444 -0.068607
v 0.429622 0.220444 -0.068607
v 0.429622 0.220444 -0.045483
v 0.429496 0.217382 -0.068607
v 0.429496 0.217382 -0.045483
v 0.429121 0.214341 -0.068607
v 0.429121 0.214341 -0.045483
v 0.429121 0.214341 -0.068607
v 0.429121 0.214341 -0.045483
v 0.428498 0.211340 -0.068607
v 0.428498 0.211340 -0.045483
v 0.428498 0.211340 -0.068607
v 0.428498 0.211340 -0.045483
v 0.427631 0.208401 -0.068607
v 0.427631 0.208401 -0.045483
v 0.427631 0.208401 -0.068607
v 0.427631 0.208401 -0.045483
v 0.426527 0.205542 -0.068607
v 0.426527 0.205542 -0.045483
v 0.426527 0.205542 -0.068607
v 0.426527 0.205542 -0.045483
v 0.425193 0.202783 -0.068607
v 0.425193 0.202783 -0.045483
v 0.425193 0.202783 -0.068607
v 0.425193 0.202783 -0.045483
v 0.423638 0.200143 -0.068607
v 0.423638 0.200143 -0.045483
v 0.423638 0.200143 -0.068607
v 0.423638 0.200143 -0.045483
v 0.421871 0.197639 -0.068607
v 0.421871 0.197639 -0.045483
v 0.421871 0.197639 -0.068607
v 0.421871 0.197639 -0.045483
v 0.419906 0.195288 -0.068607
v 0.419906 0.195288 -0.045483
v 0.419906 0.195288 -0.068607
v 0.419906 0.195288 -0.045483
v 0.417756 0.193105 -0.068607
v 0.417756 0.193105 -0.045483
v 0.417756 0.193105 -0.068607
v 0.417756 0.193105 -0.045483
v 0.415433 0.191105 -0.045483
v 0.415433 0.191105 -0.068607
v 0.415433 0.191105 -0.045483
v 0.415433 0.191105 -0.068607
v 0.412955 0.189303 -0.045483
v 0.412955 0.189303 -0.068607
v 0.412955 0.189303 -0.045483
v 0.412955 0.189303 -0.068607
v 0.251710 0.081805 -0.045483
v 0.412955 0.189303 -0.068607
v 0.251710 0.081805 -0.068607
v 0.412955 0.189303 -0.045483
v 0.412955 0.189303 -0.045483
v 0.251710 0.081805 -0.045483
v 0.412955 0.189303 -0.068607
v 0.251710 0.081805 -0.068607
v 0.251710 0.115325 -0.068607
v 0.251710 0.081805 -0.045483
v 0.251710 0.081805 -0.068607
v 0.251710 0.115325 -0.045483
v 0.251710 0.115325 -0.045483
v 0.251710 0.115325 -0.068607
v 0.251710 0.081805 -0.045483
v 0.251710 0.081805 -0.068607
v 0.253460 0.115325 -0.045483
v 0.251710 0.115325 -0.068607
v 0.253460 0.115325 -0.068607
v 0.251710 0.115325 -0.045483
v 0.251710 0.115325 -0.045483
v 0.253460 0.115325 -0.045483
v 0.251710 0.115325 -0.068607
v 0.253460 0.115325 -0.068607
v 0.396237 0.210510 -0.045483
v 0.253460 0.115325 -0.068607
v 0.396237 0.210510 -0.068607
v 0.253460 0.115325 -0.045483
v 0.253460 0.115325 -0.045483
v 0.396237 0.210510 -0.045483
v 0.253460 0.115325 -0.068607
v 0.396237 0.210510 -0.068607
v 0.396237 0.566250 -0.068607
v 0.396237 0.210510 -0.045483
v 0.396237 0.210510 -0.068607
v 0.396237 0.566250 -0.045483
v 0.396237 0.566250 -0.045483
v 0.396237 0.566250 -0.068607
v 0.396237 0.210510 -0.045483
v 0.396237 0.210510 -0.068607
v 0.285991 0.566250 -0.045483
v 0.396237 0.566250 -0.068607
v 0.285991 0.566250 -0.068607
v 0.396237 0.566250 -0.045483
v 0.396237 0.566250 -0.045483
v 0.285991 0.566250 -0.045483
v 0.396237 0.566250 -0.068607
v 0.285991 0.566250 -0.068607
v 0.285991 0.577812 -0.068607
v 0.285991 0.566250 -0.045483
v 0.285991 0.566250 -0.068607
v 0.285991 0.577812 -0.045483
v 0.285991 0.577812 -0.045483
v 0.285991 0.577812 -0.068607
v 0.285991 0.566250 -0.045483
v 0.285991 0.566250 -0.068607
v 0.412278 0.577812 -0.045483
v 0.285991 0.577812 -0.068607
v 0.412278 0.577812 -0.068607
v 0.285991 0.577812 -0.045483
v 0.285991 0.577812 -0.045483
v 0.412278 0.577812 -0.045483
v 0.285991 0.577812 -0.068607
v 0.412278 0.577812 -0.068607
v 0.412278 0.577812 -0.068607
v 0.412278 0.577812 -0.045483
v 0.412278 0.577812 -0.045483
v 0.412278 0.577812 -0.068607
vn 0 0 -1
vn 0 0 1
vn -0.2588188912922948 -0.9659258675023811 0
vn -0.13052599827627304 -0.991444886906974 0
vn 0.13052599827627304 0.991444886906974 0
vn 0.2588188912922948 0.9659258675023811 0
vn -0.3826832955235526 -0.9238795891928955 0
vn 0.3826832955235526 0.9238795891928955 0
vn -0.4999998833374392 -0.8660254711395892 0
vn 0.4999998833374392 0.8660254711395892 0
vn -0.608761318972275 -0.7933534247251574 0
vn 0.608761318972275 0.7933534247251574 0
vn -0.7071066811865431 -0.7071068811865378 0
vn 0.7071066811865431 0.7071068811865378 0
vn -0.79335329107353 -0.6087614931504775 0
vn 0.79335329107353 0.6087614931504775 0
vn -0.8660253595370575 -0.5000000766387045 0
vn 0.8660253595370575 0.5000000766387045 0
vn -0.9238795038375645 -0.3826835015895716 0
vn 0.9238795038375645 0.3826835015895716 0
vn -0.965925810803663 -0.2588191028948335 0
vn 0.965925810803663 0.2588191028948335 0
vn -0.9914448610250887 -0.1305261948688555 0
vn 0.9914448610250887 0.1305261948688555 0
vn -0.9978589224363243 -0.06540314147055466 0
vn 0.9978589224363243 0.06540314147055466 0
vn -1 0 0
vn 1 0 0
vn -0.9991616768519151 0.04093828905156191 0
vn -0.9966481136319063 0.08180793111894864 0
vn 0.9991616768519151 -0.04093828905156191 0
vn 0.9966481136319063 -0.08180793111894864 0
vn -0.9866149306616394 0.1630674050677461 0
vn 0.9866149306616394 -0.1630674050677461 0
vn -0.9699676900550522 0.2432337975061567 0
vn 0.9699676900550522 -0.2432337975061567 0
vn -0.9468179997120916 0.32176959990215626 0
vn 0.9468179997120916 -0.32176959990215626 0
vn -0.9173211047386746 0.39814820205674406 0
vn 0.9173211047386746 -0.39814820205674406 0
vn -0.8816746512667375 0.47185782743711796 0
vn 0.8816746512667375 -0.47185782743711796 0
vn -0.840117672263125 0.542404182092274 0
vn 0.840117672263125 -0.542404182092274 0
vn -0.7929287153308606 0.6093144117807744 0
vn 0.7929287153308606 -0.6093144117807744 0
vn -0.7404241396005421 0.6721399359484577 0
vn 0.7404241396005421 -0.6721399359484577 0
vn -0.682955957257831 0.7304595542848621 0
vn 0.682955957257831 -0.7304595542848621 0
vn -0.6209093689426978 0.7838823607909422 0
vn 0.6209093689426978 -0.7838823607909422 0
vn -0.5882980715683638 0.8086441609193404 0
vn 0.5882980715683638 -0.8086441609193404 0
vn -0.5547003808405937 0.8320501712609043 0
vn 0.5547003808405937 -0.8320501712609043 0
vn 0 -1 0
vn 0 1 0
vn 2.8896139999998794e-7 -1 0
vn -2.8896139999998794e-7 1 0
vn -0.06540291245438565 -0.9978589374468135 0
vn 0.06540291245438565 0.9978589374468135 0
usemtl material_0_0
f 1//1 2//1 3//1
f 2//1 1//1 4//1
f 4//1 1//1 5//1
f 6//1 7//1 8//1
f 7//1 6//1 9//1
f 9//1 6//1 5//1
f 9//1 5//1 1//1
f 9//1 1//1 10//1
f 9//1 10//1 11//1
f 11//1 10//1 12//1
f 11//1 12//1 13//1
f 13//1 12//1 14//1
f 13//1 14//1 15//1
f 15//1 14//1 16//1
f 15//1 16//1 17//1
f 17//1 16//1 18//1
f 17//1 18//1 19//1
f 19//1 18//1 20//1
f 19//1 20//1 21//1
f 21//1 20//1 22//1
f 21//1 22//1 23//1
f 23//1 22//1 24//1
f 23//1 24//1 25//1
f 25//1 24//1 26//1
f 25//1 26//1 27//1
f 27//1 26//1 28//1
f 27//1 28//1 29//1
f 29//1 28//1 30//1
f 29//1 30//1 31//1
f 31//1 30//1 32//1
f 31//1 32//1 33//1
f 34//2 35//2 36//2
f 35//2 37//2 36//2
f 36//2 37//2 38//2
f 37//2 39//2 38//2
f 38//2 39//2 40//2
f 39//2 41//2 40//2
f 40//2 41//2 42//2
f 41//2 43//2 42//2
f 42//2 43//2 44//2
f 43//2 45//2 44//2
f 44//2 45//2 46//2
f 45//2 47//2 46//2
f 46//2 47//2 48//2
f 47//2 49//2 48//2
f 48//2 49//2 50//2
f 49//2 51//2 50//2
f 50//2 51//2 52//2
f 51//2 53//2 52//2
f 52//2 53//2 54//2
f 53//2 55//2 54//2
f 54//2 55//2 56//2
f 55//2 57//2 56//2
f 56//2 57//2 58//2
f 57//2 59//2 58//2
f 59//2 60//2 58//2
f 60//2 61//2 58//2
f 58//2 61//2 62//2
f 63//2 62//2 61//2
f 60//2 59//2 64//2
f 64//2 59//2 65//2
f 66//2 65//2 59//2
f 67//3 68//4 69//3
f 68//4 67//3 70//4
f 71//5 72//6 73//5
f 74//6 73//5 72//6
f 75//7 69//3 76//7
f 69//3 75//7 67//3
f 72//6 77//8 74//6
f 78//8 74//6 77//8
f 79//9 76//7 80//9
f 76//7 79//9 75//7
f 77//8 81//10 78//8
f 82//10 78//8 81//10
f 83//11 80//9 84//11
f 80//9 83//11 79//9
f 81//10 85//12 82//10
f 86//12 82//10 85//12
f 87//13 84//11 88//13
f 84//11 87//13 83//11
f 85//12 89//14 86//12
f 90//14 86//12 89//14
f 87//13 91//15 92//15
f 91//15 87//13 88//13
f 90//14 89//14 93//16
f 94//16 93//16 89//14
f 92//15 95//17 96//17
f 95//17 92//15 91//15
f 93//16 94//16 97//18
f 98//18 97//18 94//16
f 96//17 99//19 100//19
f 99//19 96//17 95//17
f 97//18 98//18 101//20
f 102//20 101//20 98//18
f 100//19 103//21 104//21
f 103//21 100//19 99//19
f 101//20 102//20 105//22
f 106//22 105//22 102//20
f 104//21 107//23 108//23
f 107//23 104//21 103//21
f 105//22 106//22 109//24
f 110//24 109//24 106//22
f 108//23 111//25 112//25
f 111//25 108//23 107//23
f 109//24 110//24 113//26
f 114//26 113//26 110//24
f 115//27 116//27 117//27
f 116//27 115//27 118//27
f 119//28 120//28 121//28
f 122//28 121//28 120//28
f 123//29 124//30 125//30
f 124//30 123//29 126//29
f 127//31 128//31 129//32
f 130//32 129//32 128//31
f 125//30 131//33 132//33
f 131//33 125//30 124//30
f 129//32 130//32 133//34
f 134//34 133//34 130//32
f 132//33 135//35 136//35
f 135//35 132//33 131//33
f 133//34 134//34 137//36
f 138//36 137//36 134//34
f 136//35 139//37 140//37
f 139//37 136//35 135//35
f 137//36 138//36 141//38
f 142//38 141//38 138//36
f 140//37 143//39 144//39
f 143//39 140//37 139//37
f 141//38 142//38 145//40
f 146//40 145//40 142//38
f 144//39 147//41 148//41
f 147//41 144//39 143//39
f 145//40 146//40 149//42
f 150//42 149//42 146//40
f 148//41 151//43 152//43
f 151//43 148//41 147//41
f 149//42 150//42 153//44
f 154//44 153//44 150//42
f 152//43 155//45 156//45
f 155//45 152//43 151//43
f 153//44 154//44 157//46
f 158//46 157//46 154//44
f 156//45 159//47 160//47
f 159//47 156//45 155//45
f 157//46 158//46 161//48
f 162//48 161//48 158//46
f 160//47 163//49 164//49
f 163//49 160//47 159//47
f 161//48 162//48 165//50
f 166//50 165//50 162//48
f 167//51 163//49 168//51
f 163//49 167//51 164//49
f 166//50 169//52 165//50
f 170//52 165//50 169//52
f 171//53 168//51 172//53
f 168//51 171//53 167//51
f 169//52 173//54 170//52
f 174//54 170//52 173//54
f 175//55 176//55 177//55
f 176//55 175//55 178//55
f 179//56 180//56 181//56
f 182//56 181//56 180//56
f 183//28 184//28 185//28
f 184//28 183//28 186//28
f 187//27 188//27 189//27
f 190//27 189//27 188//27
f 191//57 192//57 193//57
f 192//57 191//57 194//57
f 195//58 196//58 197//58
f 198//58 197//58 196//58
f 199//56 200//56 201//56
f 200//56 199//56 202//56
f 203//55 204//55 205//55
f 206//55 205//55 204//55
f 207//28 208//28 209//28
f 208//28 207//28 210//28
f 211//27 212//27 213//27
f 214//27 213//27 212//27
f 215//58 216//58 217//58
f 216//58 215//58 218//58
f 219//57 220//57 221//57
f 222//57 221//57 220//57
f 223//28 224//28 225//28
f 224//28 223//28 226//28
f 227//27 228//27 229//27
f 230//27 229//27 228//27
f 231//59 232//59 233//59
f 232//59 231//59 234//59
f 235//60 236//60 237//60
f 238//60 237//60 236//60
f 70//4 239//61 68//4
f 239//61 70//4 240//61
f 241//62 71//5 242//62
f 73//5 242//62 71//5
