# SSTK version 0.8.0
# 17
mtllib original-17.mtl
o top1/top/mesh47/mesh47-geometry#mesh47-geometry
v -0.431434 0.185093 -0.244925
v -0.431556 0.183227 -1.064650
v -0.431556 0.183227 -0.244925
v -0.431434 0.185093 -1.064650
v -0.431556 0.173695 -1.064650
v 0.311915 0.183227 -0.244925
v -0.431069 0.186927 -0.244925
v 0.311915 0.183227 -1.064650
v -0.431556 0.173695 -0.244925
v 0.311915 0.173695 -1.064650
v 0.311915 0.173695 -0.244925
v 0.311793 0.185093 -0.244925
v -0.431069 0.186927 -1.064650
v 0.311793 0.185093 -1.064650
v -0.430468 0.188698 -0.244925
v 0.311428 0.186927 -0.244925
v -0.430468 0.188698 -1.064650
v 0.311428 0.186927 -1.064650
v -0.429641 0.190376 -0.244925
v 0.310827 0.188698 -0.244925
v -0.429641 0.190376 -1.064650
v 0.310827 0.188698 -1.064650
v -0.428602 0.191931 -0.244925
v 0.310000 0.190376 -0.244925
v -0.428602 0.191931 -1.064650
v 0.310000 0.190376 -1.064650
v -0.427369 0.193337 -0.244925
v 0.308961 0.191931 -0.244925
v -0.427369 0.193337 -1.064650
v 0.308961 0.191931 -1.064650
v -0.425963 0.194570 -0.244925
v 0.307728 0.193337 -0.244925
v -0.425963 0.194570 -1.064650
v 0.307728 0.193337 -1.064650
v -0.424408 0.195609 -0.244925
v 0.306322 0.194570 -0.244925
v -0.424408 0.195609 -1.064650
v 0.306322 0.194570 -1.064650
v -0.422730 0.196436 -0.244925
v 0.304767 0.195609 -0.244925
v 0.304767 0.195609 -1.064650
v -0.422730 0.196436 -1.064650
v -0.420959 0.197037 -0.244925
v 0.303089 0.196436 -0.244925
v 0.303089 0.196436 -1.064650
v -0.420959 0.197037 -1.064650
v -0.419125 0.197402 -0.244925
v 0.301318 0.197037 -0.244925
v 0.301318 0.197037 -1.064650
v -0.419125 0.197402 -1.064650
v -0.417259 0.197524 -0.244925
v 0.299484 0.197402 -0.244925
v 0.299484 0.197402 -1.064650
v -0.417259 0.197524 -1.064650
v -0.417259 0.202290 -0.244925
v 0.297618 0.197524 -0.244925
v 0.297618 0.197524 -1.064650
v -0.417259 0.202290 -1.064650
v 0.297618 0.202290 -0.244925
v 0.297618 0.202290 -1.064650
vt 2.891114 2.408372
vt 2.884978 5.13853
vt 2.884978 2.408372
vt 2.891114 5.13853
vt 0 0.031678
vt -2.6875 0.031678
vt 0 0.037907
vt -2.6875 0.037907
vt 2.853728 5.13853
vt -2.6875 0.031746
vt 0 0.031746
vt -2.6875 0
vt 2.4375 0.031746
vt 0.000401 0.037962
vt 2.897246 2.408372
vt 0 0.037312
vt -2.6875 0.037312
vt 0 0.04354
vt -2.4375 0.031746
vt -0.000401 0.037962
vt 2.853728 2.408372
vt 0 0
vt -2.4375 0
vt 2.4375 0
vt 2.437099 0.037962
vt 2.897246 5.13853
vt -2.6875 0.04354
vt 0.001597 0.044071
vt -2.437099 0.037962
vt -2.4375 2.730159
vt 0 2.730159
vt 2.6875 0
vt 0.006136 2.730159
vt 0 -0.130273
vt 0 -0.124044
vt 2.6875 -0.130273
vt 2.903377 2.408372
vt 0 0.042253
vt -2.6875 0.042253
vt 0 0.048482
vt -0.001597 0.044071
vt 2.435903 0.044071
vt 2.6875 0.031746
vt 0.006136 0
vt 2.6875 -0.124044
vt 2.903377 5.13853
vt -2.6875 0.048482
vt 0.003568 0.049969
vt -2.435903 0.044071
vt 0.012272 2.730159
vt 0 -0.445769
vt 0 -0.43954
vt 2.6875 -0.445769
vt 2.18394 2.408372
vt 2.177809 5.13853
vt 2.177809 2.408372
vt 0 0.046419
vt -2.6875 0.046419
vt 0 0.052648
vt -0.003568 0.049969
vt 2.433932 0.049969
vt 0.012272 0
vt 2.6875 -0.43954
vt 2.18394 5.13853
vt -2.6875 0.052648
vt 0.00628 0.055556
vt -2.433932 0.049969
vt 0.018408 2.730159
vt 0 -0.753692
vt 0 -0.747463
vt 2.6875 -0.753692
vt 2.190076 2.408372
vt 0 0.049737
vt -2.6875 0.049737
vt 0 0.055966
vt -0.00628 0.055556
vt 2.43122 0.055556
vt 0.018408 0
vt 2.6875 -0.747463
vt 2.190076 5.13853
vt -2.6875 0.055966
vt 0.009687 0.060735
vt -2.43122 0.055556
vt 0.024544 2.730159
vt 0 -1.048772
vt 0 -1.042543
vt 2.6875 -1.048772
vt 2.196208 2.408372
vt 0 0.052151
vt -2.6875 0.052151
vt 0 0.05838
vt -0.009687 0.060735
vt 2.427813 0.060735
vt 0.024544 0
vt 2.6875 -1.042543
vt 2.196208 5.13853
vt -2.6875 0.05838
vt 0.013729 0.065418
vt -2.427813 0.060735
vt 0.03068 2.730159
vt 0 -1.325961
vt 0 -1.319732
vt 2.6875 -1.325961
vt 1.523364 2.408372
vt 1.517228 5.13853
vt 1.517228 2.408372
vt 0 0.053619
vt -2.6875 0.053619
vt 0 0.059848
vt -0.013729 0.065418
vt 2.423771 0.065418
vt 0.03068 0
vt 2.6875 -1.319732
vt 1.523364 5.13853
vt -2.6875 0.059848
vt 0.018339 0.069525
vt -2.423771 0.065418
vt 0.036816 2.730159
vt 0 -1.580515
vt 0 -1.574286
vt 2.6875 -1.580515
vt 1.529496 2.408372
vt 0 0.054117
vt -2.6875 0.054117
vt 0 0.060345
vt -0.018339 0.069525
vt 2.419161 0.069525
vt 0.036816 0
vt 2.6875 -1.574286
vt 1.529496 5.13853
vt -2.6875 0.060345
vt 0.023437 0.072985
vt -2.419161 0.069525
vt 0.042951 0
vt 0.042951 2.730159
vt 0 -1.801851
vt 2.6875 -1.801851
vt 0 -1.808079
vt 2.6875 -1.808079
vt 0.244162 2.408372
vt 0.238031 5.13853
vt 0.238031 2.408372
vt 0 0.053635
vt -2.6875 0.053635
vt 0 0.059864
vt -0.023437 0.072985
vt 2.414062 0.072985
vt 0.049087 0
vt 2.6875 -2.004761
vt 0 -2.004761
vt 2.6875 -1.998532
vt 0.244162 5.13853
vt -2.6875 0.059864
vt 0.028937 0.07574
vt -2.414062 0.072985
vt 0.049087 2.730159
vt 0 -1.998532
vt 0.250298 2.408372
vt 0 0.052182
vt -2.6875 0.052182
vt 0 0.058411
vt -0.028937 0.07574
vt 2.408563 0.07574
vt 0.055223 0
vt 2.6875 -2.167193
vt 0 -2.167193
vt 2.6875 -2.160964
vt 0.250298 5.13853
vt -2.6875 0.058411
vt 0.034743 0.077742
vt -2.408563 0.07574
vt 0.055223 2.730159
vt 0 -2.160964
vt 0.25643 2.408372
vt 0 0.049783
vt -2.6875 0.049783
vt 0 0.056012
vt -0.034743 0.077742
vt 2.402757 0.077742
vt 0.061359 0
vt 2.6875 -2.292597
vt 0 -2.292597
vt 2.6875 -2.286369
vt 0.25643 5.13853
vt -2.6875 0.056012
vt 0.040757 0.078958
vt -2.402757 0.077742
vt 0.061359 2.730159
vt 0 -2.286369
vt -0.696087 2.408372
vt -0.702223 5.13853
vt -0.702223 2.408372
vt 0 0.046479
vt -2.6875 0.046479
vt 0 0.052708
vt -0.040757 0.078958
vt 2.396743 0.078958
vt 0.067495 0
vt 2.6875 -2.378828
vt 0 -2.378828
vt 2.6875 -2.372599
vt -0.696087 5.13853
vt -2.6875 0.052708
vt 0.046875 0.079365
vt -2.396743 0.078958
vt 0.067495 2.730159
vt 0 -2.372599
vt 0 0.095238
vt -2.6875 0.079365
vt 0 0.079365
vt -0.046875 0.079365
vt 2.390625 0.079365
vt 0.073631 0
vt 2.6875 -2.42441
vt 0 -2.42441
vt 2.6875 -2.418181
vt -2.6875 0.095238
vt 0.046875 0.095238
vt -2.390625 0.079365
vt 0.073631 2.730159
vt 0 -2.418181
vt 2.390625 0
vt 0.046875 2.730159
vt 0.046875 0
vt -0.046875 0.095238
vt 2.390625 0.095238
vt 2.6875 0.079365
vt 2.390625 2.730159
vt -2.390625 0.095238
vt 2.6875 0.095238
vt 0 0.030762
vt 2.6875 0.030762
vn -0.9914448886106773 0.1305259853353411 0
vn -0.9978589320009053 0.06540299554311302 0
vn 0.9978589320009053 -0.06540299554311302 0
vn 0.9914448886106773 -0.1305259853353411 0
vn -1 0 0
vn 1 0 0
vn 0 0 1
vn 0 0 -1
vn -0.965925849201117 0.2588189595935754 0
vn 0.965925849201117 -0.2588189595935754 0
vn 0 -1 0
vn 0 1 0
vn 0.9978589320009053 0.06540299554311302 0
vn 0.9914448886106773 0.1305259853353411 0
vn -0.9978589320009053 -0.06540299554311302 0
vn -0.9914448886106773 -0.1305259853353411 0
vn -0.9238797538373538 0.38268289803626016 0
vn 0.9238797538373538 -0.38268289803626016 0
vn 0.965925849201117 0.2588189595935754 0
vn -0.965925849201117 -0.2588189595935754 0
vn -0.8660253028382762 0.5000001748438417 0
vn 0.8660253028382762 -0.5000001748438417 0
vn 0.9238797538373538 0.38268289803626016 0
vn -0.9238797538373538 -0.38268289803626016 0
vn -0.7933534213778813 0.6087613233345314 0
vn 0.7933534213778813 -0.6087613233345314 0
vn 0.8660253028382762 0.5000001748438417 0
vn -0.8660253028382762 -0.5000001748438417 0
vn -0.7071067811865476 0.7071067811865476 0
vn 0.7071067811865476 -0.7071067811865476 0
vn 0.7933534213778813 0.6087613233345314 0
vn -0.7933534213778813 -0.6087613233345314 0
vn -0.6087613233345314 0.7933534213778813 0
vn 0.6087613233345314 -0.7933534213778813 0
vn 0.7071067811865476 0.7071067811865476 0
vn -0.7071067811865476 -0.7071067811865476 0
vn -0.5000001748438417 0.8660253028382762 0
vn 0.5000001748438417 -0.8660253028382762 0
vn 0.6087613233345314 0.7933534213778813 0
vn -0.6087613233345314 -0.7933534213778813 0
vn -0.38268289803626016 0.9238797538373538 0
vn 0.38268289803626016 -0.9238797538373538 0
vn 0.5000001748438417 0.8660253028382762 0
vn -0.5000001748438417 -0.8660253028382762 0
vn -0.2588189595935754 0.965925849201117 0
vn 0.2588189595935754 -0.965925849201117 0
vn 0.38268289803626016 0.9238797538373538 0
vn -0.38268289803626016 -0.9238797538373538 0
vn -0.1305259853353411 0.9914448886106773 0
vn 0.1305259853353411 -0.9914448886106773 0
vn 0.2588189595935754 0.965925849201117 0
vn -0.2588189595935754 -0.965925849201117 0
vn -0.06540299554311302 0.9978589320009053 0
vn 0.06540299554311302 -0.9978589320009053 0
vn 0.1305259853353411 0.9914448886106773 0
vn -0.1305259853353411 -0.9914448886106773 0
vn 0.06540299554311302 0.9978589320009053 0
vn -0.06540299554311302 -0.9978589320009053 0
usemtl material_0_0
f 1/1/1 2/2/2 3/3/2
f 2/2/2 1/1/1 4/4/1
f 3/5/3 2/6/3 1/7/4
f 4/8/4 1/7/4 2/6/3
f 5/9/5 3/3/5 2/2/5
f 2/10/6 3/11/6 5/12/6
f 3/11/7 6/13/7 1/14/7
f 1/14/8 6/13/8 3/11/8
f 7/15/9 4/4/1 1/1/1
f 1/16/4 4/17/4 7/18/10
f 8/19/8 2/11/8 4/20/8
f 4/20/7 2/11/7 8/19/7
f 3/3/5 5/9/5 9/21/5
f 9/22/6 5/12/6 3/11/6
f 2/11/8 10/23/8 5/22/8
f 5/22/7 10/23/7 2/11/7
f 3/11/7 11/24/7 6/13/7
f 6/13/8 11/24/8 3/11/8
f 1/14/7 6/13/7 12/25/7
f 12/25/8 6/13/8 1/14/8
f 4/4/1 7/15/9 13/26/9
f 13/27/10 7/18/10 4/17/4
f 1/14/7 12/25/7 7/28/7
f 7/28/8 12/25/8 1/14/8
f 10/23/8 2/11/8 8/19/8
f 8/19/7 2/11/7 10/23/7
f 8/19/8 4/20/8 14/29/8
f 14/29/7 4/20/7 8/19/7
f 10/30/11 9/22/11 5/31/11
f 5/31/12 9/22/12 10/30/12
f 11/24/7 3/11/7 9/22/7
f 9/22/8 3/11/8 11/24/8
f 11/22/5 6/11/5 10/32/5
f 8/22/13 12/33/14 6/31/13
f 6/34/15 12/35/16 8/36/15
f 15/37/17 13/26/9 7/15/9
f 7/38/10 13/39/10 15/40/18
f 14/29/8 4/20/8 13/41/8
f 13/41/7 4/20/7 14/29/7
f 7/28/7 12/25/7 16/42/7
f 16/42/8 12/25/8 7/28/8
f 8/43/5 10/32/5 6/11/5
f 12/33/14 8/22/13 14/44/14
f 14/45/16 8/36/15 12/35/16
f 9/22/11 10/30/11 11/23/11
f 11/23/12 10/30/12 9/22/12
f 13/26/9 15/37/17 17/46/17
f 17/47/18 15/40/18 13/39/10
f 7/28/7 16/42/7 15/48/7
f 15/48/8 16/42/8 7/28/8
f 14/29/8 13/41/8 18/49/8
f 18/49/7 13/41/7 14/29/7
f 14/44/14 16/50/19 12/33/14
f 12/51/16 16/52/20 14/53/16
f 19/54/21 17/55/17 15/56/17
f 15/57/18 17/58/18 19/59/22
f 18/49/8 13/41/8 17/60/8
f 17/60/7 13/41/7 18/49/7
f 15/48/7 16/42/7 20/61/7
f 20/61/8 16/42/8 15/48/8
f 16/50/19 14/44/14 18/62/19
f 18/63/20 14/53/16 16/52/20
f 17/55/17 19/54/21 21/64/21
f 21/65/22 19/59/22 17/58/18
f 15/48/7 20/61/7 19/66/7
f 19/66/8 20/61/8 15/48/8
f 18/49/8 17/60/8 22/67/8
f 22/67/7 17/60/7 18/49/7
f 18/62/19 20/68/23 16/50/19
f 16/69/20 20/70/24 18/71/20
f 23/72/25 21/64/21 19/54/21
f 19/73/22 21/74/22 23/75/26
f 22/67/8 17/60/8 21/76/8
f 21/76/7 17/60/7 22/67/7
f 19/66/7 20/61/7 24/77/7
f 24/77/8 20/61/8 19/66/8
f 20/68/23 18/62/19 22/78/23
f 22/79/24 18/71/20 20/70/24
f 21/64/21 23/72/25 25/80/25
f 25/81/26 23/75/26 21/74/22
f 19/66/7 24/77/7 23/82/7
f 23/82/8 24/77/8 19/66/8
f 22/67/8 21/76/8 26/83/8
f 26/83/7 21/76/7 22/67/7
f 22/78/23 24/84/27 20/68/23
f 20/85/24 24/86/28 22/87/24
f 27/88/29 25/80/25 23/72/25
f 23/89/26 25/90/26 27/91/30
f 26/83/8 21/76/8 25/92/8
f 25/92/7 21/76/7 26/83/7
f 23/82/7 24/77/7 28/93/7
f 28/93/8 24/77/8 23/82/8
f 24/84/27 22/78/23 26/94/27
f 26/95/28 22/87/24 24/86/28
f 25/80/25 27/88/29 29/96/29
f 29/97/30 27/91/30 25/90/26
f 23/82/7 28/93/7 27/98/7
f 27/98/8 28/93/8 23/82/8
f 26/83/8 25/92/8 30/99/8
f 30/99/7 25/92/7 26/83/7
f 26/94/27 28/100/31 24/84/27
f 24/101/28 28/102/32 26/103/28
f 31/104/33 29/105/29 27/106/29
f 27/107/30 29/108/30 31/109/34
f 30/99/8 25/92/8 29/110/8
f 29/110/7 25/92/7 30/99/7
f 27/98/7 28/93/7 32/111/7
f 32/111/8 28/93/8 27/98/8
f 28/100/31 26/94/27 30/112/31
f 30/113/32 26/103/28 28/102/32
f 29/105/29 31/104/33 33/114/33
f 33/115/34 31/109/34 29/108/30
f 27/98/7 32/111/7 31/116/7
f 31/116/8 32/111/8 27/98/8
f 30/99/8 29/110/8 34/117/8
f 34/117/7 29/110/7 30/99/7
f 30/112/31 32/118/35 28/100/31
f 28/119/32 32/120/36 30/121/32
f 35/122/37 33/114/33 31/104/33
f 31/123/34 33/124/34 35/125/38
f 34/117/8 29/110/8 33/126/8
f 33/126/7 29/110/7 34/117/7
f 31/116/7 32/111/7 36/127/7
f 36/127/8 32/111/8 31/116/8
f 32/118/35 30/112/31 34/128/35
f 34/129/36 30/121/32 32/120/36
f 33/114/33 35/122/37 37/130/37
f 37/131/38 35/125/38 33/124/34
f 31/116/7 36/127/7 35/132/7
f 35/132/8 36/127/8 31/116/8
f 34/117/8 33/126/8 38/133/8
f 38/133/7 33/126/7 34/117/7
f 32/118/35 38/134/39 36/135/39
f 36/136/40 38/137/40 32/138/36
f 38/134/39 32/118/35 34/128/35
f 34/139/36 32/138/36 38/137/40
f 39/140/41 37/141/37 35/142/37
f 35/143/38 37/144/38 39/145/42
f 38/133/8 33/126/8 37/146/8
f 37/146/7 33/126/7 38/133/7
f 35/132/7 36/127/7 40/147/7
f 40/147/8 36/127/8 35/132/8
f 41/148/43 36/135/39 38/134/39
f 38/149/40 36/150/40 41/151/44
f 37/141/37 39/140/41 42/152/41
f 42/153/42 39/145/42 37/144/38
f 35/132/7 40/147/7 39/154/7
f 39/154/8 40/147/8 35/132/8
f 38/133/8 37/146/8 41/155/8
f 41/155/7 37/146/7 38/133/7
f 36/135/39 41/148/43 40/156/43
f 40/157/44 41/151/44 36/150/40
f 43/158/45 42/152/41 39/140/41
f 39/159/42 42/160/42 43/161/46
f 41/155/8 37/146/8 42/162/8
f 42/162/7 37/146/7 41/155/7
f 39/154/7 40/147/7 44/163/7
f 44/163/8 40/147/8 39/154/8
f 45/164/47 40/156/43 41/148/43
f 41/165/44 40/166/44 45/167/48
f 42/152/41 43/158/45 46/168/45
f 46/169/46 43/161/46 42/160/42
f 39/154/7 44/163/7 43/170/7
f 43/170/8 44/163/8 39/154/8
f 41/155/8 42/162/8 45/171/8
f 45/171/7 42/162/7 41/155/7
f 40/156/43 45/164/47 44/172/47
f 44/173/48 45/167/48 40/166/44
f 47/174/49 46/168/45 43/158/45
f 43/175/46 46/176/46 47/177/50
f 45/171/8 42/162/8 46/178/8
f 46/178/7 42/162/7 45/171/7
f 43/170/7 44/163/7 48/179/7
f 48/179/8 44/163/8 43/170/8
f 49/180/51 44/172/47 45/164/47
f 45/181/48 44/182/48 49/183/52
f 46/168/45 47/174/49 50/184/49
f 50/185/50 47/177/50 46/176/46
f 43/170/7 48/179/7 47/186/7
f 47/186/8 48/179/8 43/170/8
f 45/171/8 46/178/8 49/187/8
f 49/187/7 46/178/7 45/171/7
f 44/172/47 49/180/51 48/188/51
f 48/189/52 49/183/52 44/182/48
f 51/190/53 50/191/49 47/192/49
f 47/193/50 50/194/50 51/195/54
f 49/187/8 46/178/8 50/196/8
f 50/196/7 46/178/7 49/187/7
f 47/186/7 48/179/7 52/197/7
f 52/197/8 48/179/8 47/186/8
f 53/198/55 48/188/51 49/180/51
f 49/199/52 48/200/52 53/201/56
f 50/191/49 51/190/53 54/202/53
f 54/203/54 51/195/54 50/194/50
f 47/186/7 52/197/7 51/204/7
f 51/204/8 52/197/8 47/186/8
f 49/187/8 50/196/8 53/205/8
f 53/205/7 50/196/7 49/187/7
f 48/188/51 53/198/55 52/206/55
f 52/207/56 53/201/56 48/200/52
f 55/208/5 54/209/5 51/210/5
f 51/210/6 54/209/6 55/208/6
f 53/205/8 50/196/8 54/211/8
f 54/211/7 50/196/7 53/205/7
f 51/204/7 52/197/7 56/212/7
f 56/212/8 52/197/8 51/204/8
f 57/213/57 52/206/55 53/198/55
f 53/214/56 52/215/56 57/216/58
f 54/209/5 55/208/5 58/217/5
f 58/217/6 55/208/6 54/209/6
f 51/204/7 56/212/7 55/218/7
f 55/218/8 56/212/8 51/204/8
f 53/205/8 54/211/8 57/219/8
f 57/219/7 54/211/7 53/205/7
f 52/206/55 57/213/57 56/220/57
f 56/221/58 57/216/58 52/215/56
f 59/222/12 58/223/12 55/224/12
f 55/224/11 58/223/11 59/222/11
f 57/219/8 54/211/8 58/225/8
f 58/225/7 54/211/7 57/219/7
f 55/218/7 56/212/7 59/226/7
f 59/226/8 56/212/8 55/218/8
f 57/227/6 59/208/6 56/210/6
f 56/210/5 59/208/5 57/227/5
f 58/223/12 59/222/12 60/228/12
f 60/228/11 59/222/11 58/223/11
f 57/219/8 58/225/8 60/229/8
f 60/229/7 58/225/7 57/219/7
f 59/208/6 57/227/6 60/230/6
f 60/230/5 57/227/5 59/208/5
usemtl material_1_0
f 10/32/6 6/231/6 11/22/6
f 6/231/6 10/32/6 8/232/6
