# SSTK version 0.8.0
# 51
mtllib original-51.mtl
o front_apron1/front_apron/mesh94/mesh94-geometry#mesh94-geometry
v 0.207067 -0.016939 -0.297349
v 0.207067 0.173695 -0.283052
v 0.207067 -0.016939 -0.283052
v 0.207067 0.173695 -0.297349
v 0.126047 0.021188 -0.283052
v -0.326708 -0.016939 -0.283052
v 0.235662 0.173695 -0.297349
v -0.326708 0.173695 -0.283052
v 0.126047 0.135568 -0.283052
v 0.235662 -0.016939 -0.311647
v 0.235662 -0.016939 -0.297349
v 0.235662 0.173695 -0.311647
v -0.245688 0.135568 -0.283052
v -0.245688 0.021188 -0.283052
v 0.126047 0.135568 -0.311647
v -0.326708 -0.016939 -0.297349
v -0.326708 0.173695 -0.297349
v 0.126047 0.021188 -0.311647
v -0.355303 -0.016939 -0.297349
v -0.355303 0.173695 -0.297349
v -0.245688 0.021188 -0.311647
v -0.245688 0.135568 -0.311647
v -0.355303 -0.016939 -0.311647
v -0.355303 0.173695 -0.311647
vt 0.046875 0
vt 0 0.615234
vt 0 0
vt 0.046875 0.615234
vt 1.578125 0.123047
vt 1.84375 0
vt 1.84375 0.615234
vt -1.84375 0
vt -0.09375 0
vt -1.84375 0.046143
vt 1.9375 0.615234
vt 1.84375 0.046143
vt 0.09375 0
vt 1.578125 0.492187
vt -1.9375 0.092285
vt 1.9375 0
vt 1.9375 0.092285
vt 1.9375 0.046143
vt 0.09375 0.615234
vt 0.359375 0.492187
vt 0.359375 0.123047
vt -0.09375 0.492188
vt 0 0.123047
vt 0 0.492187
vt -0.09375 0.046143
vt -1.9375 0.046143
vt 0.09375 0.046143
vt 1.578125 0
vt 0.359375 0
vt 1.578125 0.092285
vt -1.578125 0
vt -1.578125 0.092285
vt -0.359375 0
vt -0.09375 0.123047
vt 0 0.046143
vt -0.046875 0.615234
vt -0.046875 0
vt -1.9375 0
vt -1.578125 0.123047
vt -1.9375 0.615234
vt 0.09375 0.123047
vt 0.359375 0.092285
vt -0.359375 0.092285
vt -1.578125 0.492188
vt 0 0.092285
vt -0.359375 0.123047
vt 0.09375 0.492188
vt -0.359375 0.492188
vt -0.09375 0.615234
vt 1.593199 0.063908
vt 0.374449 -0.035335
vt 1.593199 -0.035335
vt -0.374449 -0.035335
vt -1.593199 0.063908
vt -1.593199 -0.035335
vt 0.374449 0.063908
vt -0.374449 0.063908
vn 1 0 0
vn -1 0 0
vn 0 0 1
vn 0 0 -1
vn 0 -1 0
vn 0 1 0
usemtl material_0_0
f 1/1/1 2/2/1 3/3/1
f 2/2/1 1/1/1 4/4/1
f 3/3/2 2/2/2 1/1/2
f 4/4/2 1/1/2 2/2/2
f 5/5/3 3/6/3 2/7/3
f 2/7/4 3/6/4 5/5/4
f 3/8/5 6/9/5 1/10/5
f 1/10/6 6/9/6 3/8/6
f 1/6/3 7/11/3 4/7/3
f 4/7/4 7/11/4 1/6/4
f 2/6/6 4/12/6 8/13/6
f 8/13/5 4/12/5 2/6/5
f 3/6/3 5/5/3 6/13/3
f 6/13/4 5/5/4 3/6/4
f 5/5/3 2/7/3 9/14/3
f 9/14/4 2/7/4 5/5/4
f 6/9/5 10/15/5 1/10/5
f 1/10/6 10/15/6 6/9/6
f 7/11/3 1/6/3 11/16/3
f 11/16/4 1/6/4 7/11/4
f 12/17/6 4/12/6 7/18/6
f 7/18/5 4/12/5 12/17/5
f 12/17/6 8/13/6 4/12/6
f 4/12/5 8/13/5 12/17/5
f 8/19/3 13/20/3 2/7/3
f 2/7/4 13/20/4 8/19/4
f 14/21/3 6/13/3 5/5/3
f 5/5/4 6/13/4 14/21/4
f 9/14/3 2/7/3 13/20/3
f 13/20/4 2/7/4 9/14/4
f 15/22/2 5/23/2 9/24/2
f 9/24/1 5/23/1 15/22/1
f 16/25/5 10/15/5 6/9/5
f 6/9/6 10/15/6 16/25/6
f 1/10/5 10/15/5 11/26/5
f 11/26/6 10/15/6 1/10/6
f 10/13/1 7/4/1 11/1/1
f 11/1/2 7/4/2 10/13/2
f 7/4/1 10/13/1 12/19/1
f 12/19/2 10/13/2 7/4/2
f 12/17/6 17/27/6 8/13/6
f 8/13/5 17/27/5 12/17/5
f 8/19/3 14/21/3 13/20/3
f 13/20/4 14/21/4 8/19/4
f 6/13/3 14/21/3 8/19/3
f 8/19/4 14/21/4 6/13/4
f 5/28/5 14/29/5 18/30/5
f 9/31/6 15/32/6 13/33/6
f 5/23/2 15/22/2 18/34/2
f 18/34/1 15/22/1 5/23/1
f 19/35/5 10/15/5 16/25/5
f 16/25/6 10/15/6 19/35/6
f 6/3/2 17/36/2 16/37/2
f 16/37/1 17/36/1 6/3/1
f 10/38/4 18/39/4 12/40/4
f 12/40/3 18/39/3 10/38/3
f 12/17/6 20/35/6 17/27/6
f 17/27/5 20/35/5 12/17/5
f 17/36/2 6/3/2 8/2/2
f 8/2/1 6/3/1 17/36/1
f 21/41/1 13/24/1 14/23/1
f 14/23/2 13/24/2 21/41/2
f 21/42/5 18/30/5 14/29/5
f 22/43/6 13/33/6 15/32/6
f 12/40/4 18/39/4 15/44/4
f 15/44/3 18/39/3 12/40/3
f 10/15/5 19/35/5 23/45/5
f 23/45/6 19/35/6 10/15/6
f 17/19/3 19/3/3 16/13/3
f 16/13/4 19/3/4 17/19/4
f 18/39/4 10/38/4 21/46/4
f 21/46/3 10/38/3 18/39/3
f 20/35/6 12/17/6 24/45/6
f 24/45/5 12/17/5 20/35/5
f 19/3/3 17/19/3 20/2/3
f 20/2/4 17/19/4 19/3/4
f 13/24/1 21/41/1 22/47/1
f 22/47/2 21/41/2 13/24/2
f 22/48/4 24/2/4 15/44/4
f 15/44/3 24/2/3 22/48/3
f 12/40/4 15/44/4 24/2/4
f 24/2/3 15/44/3 12/40/3
f 19/37/2 24/49/2 23/9/2
f 23/9/1 24/49/1 19/37/1
f 23/3/4 21/46/4 10/38/4
f 10/38/3 21/46/3 23/3/3
f 24/49/2 19/37/2 20/36/2
f 20/36/1 19/37/1 24/49/1
f 21/46/4 24/2/4 22/48/4
f 22/48/3 24/2/3 21/46/3
f 21/46/4 23/3/4 24/2/4
f 24/2/3 23/3/3 21/46/3
usemtl material_1_0
f 18/50/6 14/51/6 5/52/6
f 13/53/5 15/54/5 9/55/5
f 14/51/6 18/50/6 21/56/6
f 15/54/5 13/53/5 22/57/5
