mtllib new-0.mtl
v 0.652568 -0.189297 -0.229039
v 0.652568 -0.190147 -0.222310
v 0.652568 -0.190165 -0.225730
v 0.652568 -0.189245 -0.219011
v -0.662033 -0.190165 -0.225730
v -0.662033 -0.189297 -0.229039
v 0.652568 -0.187603 -0.232010
v -0.662033 -0.190147 -0.222310
v -0.662033 -0.187603 -0.232010
v 0.652568 -0.187519 -0.216057
v -0.662033 -0.189245 -0.219011
v -0.662033 -0.185197 -0.234441
v 0.652568 -0.185197 -0.234441
v -0.662033 -0.187519 -0.216057
v 0.652568 -0.185088 -0.213652
v 0.652568 -0.182244 -0.236166
v -0.662033 -0.185088 -0.213652
v -0.662033 -0.182244 -0.236166
v 0.652568 -0.182117 -0.211957
v -0.662033 -0.182117 -0.211957
v 0.652568 -0.178944 -0.237069
v -0.662033 -0.178944 -0.237069
v 0.652568 -0.178808 -0.211089
v -0.662033 -0.178808 -0.211089
v 0.652568 -0.175524 -0.237087
v -0.662033 -0.175524 -0.237087
v 0.652568 -0.175388 -0.211107
v -0.662033 -0.175388 -0.211107
v 0.652568 -0.172216 -0.236219
v -0.662033 -0.172216 -0.236219
v 0.652568 -0.169245 -0.234524
v 0.652568 -0.172089 -0.212009
v -0.662033 -0.172089 -0.212009
v 0.652568 -0.166813 -0.232118
v 0.652568 -0.164167 -0.222446
v -0.662033 -0.169245 -0.234524
v 0.652568 -0.165088 -0.229165
v 0.652568 -0.169136 -0.213735
v 0.652568 -0.165035 -0.219137
v 0.652568 -0.164185 -0.225866
v -0.662033 -0.169136 -0.213735
v 0.652568 -0.166730 -0.216166
v -0.662033 -0.165088 -0.229165
v -0.662033 -0.166813 -0.232118
v -0.662033 -0.165035 -0.219137
v -0.662033 -0.164167 -0.222446
v -0.662033 -0.164185 -0.225866
v -0.662033 -0.166730 -0.216166
vn 1.000000 0.000000 0.000000
vn -1.000000 0.000000 0.000000
vn 0.000000 0.992115 0.125333
vn 0.000000 0.990748 -0.135716
vn 0.000000 0.925871 0.377841
vn 0.000000 0.921863 -0.387516
vn 0.000000 0.796530 0.604599
vn 0.000000 0.612907 0.790155
vn 0.000000 0.790155 -0.612907
vn 0.000000 0.387516 0.921863
vn 0.000000 0.604599 -0.796530
vn 0.000000 0.377841 -0.925871
vn 0.000000 0.135716 0.990748
vn 0.000000 0.125333 -0.992115
vn 0.000000 -0.125333 0.992115
vn 0.000000 -0.135716 -0.990748
vn 0.000000 -0.377841 0.925871
vn 0.000000 -0.387516 -0.921863
vn 0.000000 -0.604599 0.796530
vn 0.000000 -0.790155 0.612907
vn 0.000000 -0.612907 -0.790155
vn 0.000000 -0.921863 0.387516
vn 0.000000 -0.925871 -0.377841
vn 0.000000 -0.992115 -0.125333
vn 0.000000 -0.990748 0.135716
vn 0.000000 -0.796530 -0.604599
vt 112.937500 -91.618195
vt 0.062500 -91.911873
vt 112.937500 -91.911873
vt -112.937500 89.510948
vt -0.062500 89.804634
vt -112.937500 89.804634
vt 112.937500 -87.471802
vt 0.062500 -87.765488
vt 112.937500 -87.765488
vt 0.062500 -91.618195
vt -0.062500 89.510948
vt -0.062500 81.587357
vt -112.937500 81.293671
vt -0.062500 81.293671
vt -112.937500 81.587357
vt 0.062500 -87.471802
vt -0.062500 67.820045
vt -112.937500 67.526360
vt -0.062500 67.526360
vt 112.937500 -77.354347
vt 0.062500 -77.648033
vt 112.937500 -77.648033
vt -112.937500 67.820045
vt 0.062500 -77.354347
vt -0.062500 49.147232
vt -112.937500 49.440914
vt -112.937500 49.147232
vt 0.062500 -61.955311
vt 112.937500 -62.248997
vt 112.937500 -61.955311
vt 0.062500 -62.248997
vt -0.062500 49.440914
vt 112.937500 -42.617802
vt 0.062500 -42.324120
vt 0.062500 -42.617802
vt -0.062500 27.408792
vt -112.937500 27.702477
vt -112.937500 27.408792
vt 112.937500 -42.324120
vt -0.062500 27.702477
vt 112.937500 -20.092283
vt 0.062500 -19.798599
vt 0.062500 -20.092283
vt -0.062500 3.792484
vt -112.937500 4.086168
vt -112.937500 3.792484
vt 112.937500 -19.798599
vt -0.062500 4.086168
vt 112.937500 3.792484
vt 0.062500 4.086168
vt 0.062500 3.792484
vt -0.062500 -20.092283
vt -112.937500 -19.798599
vt -112.937500 -20.092283
vt 112.937500 4.086168
vt -0.062500 -19.798599
vt 112.937500 27.408792
vt 0.062500 27.702477
vt 0.062500 27.408792
vt -0.062500 -42.617802
vt -112.937500 -42.324120
vt -112.937500 -42.617802
vt 112.937500 27.702477
vt -0.062500 -42.324120
vt -0.062500 -62.248997
vt -112.937500 -61.955311
vt -112.937500 -62.248997
vt 112.937500 49.147232
vt 0.062500 49.440914
vt 0.062500 49.147232
vt -0.062500 -61.955311
vt 112.937500 49.440914
vt 112.937500 89.804634
vt 0.062500 89.510948
vt 112.937500 89.510948
vt -112.937500 -91.911873
vt -0.062500 -91.618195
vt -112.937500 -91.618195
vt -112.937500 -87.765488
vt -0.062500 -87.471802
vt -0.062500 -87.765488
vt 112.937500 67.820045
vt 0.062500 67.526360
vt 112.937500 67.526360
vt 112.937500 81.587357
vt 0.062500 81.293671
vt 112.937500 81.293671
vt 0.062500 89.804634
vt 0.062500 81.587357
vt -0.062500 -91.911873
vt 0.062500 67.820045
usemtl material-0
f 1//1 2//1 3//1
f 2//1 1//1 4//1
f 3//2 2//2 1//2
f 4//2 1//2 2//2
f 3//3 5//3 2//4
f 1//5 6//5 3//3
f 4//1 1//1 7//1
f 7//2 1//2 4//2
f 2//4 8//4 4//6
f 8//4 2//4 5//3
f 5//3 3//3 6//5
f 6//5 1//5 9//7
f 7//7 9//7 1//5
f 4//1 7//1 10//1
f 10//2 7//2 4//2
f 11//6 4//6 8//4
f 8//2 6//2 5//2
f 5//1 6//1 8//1
f 6//2 11//2 9//2
f 9//1 11//1 6//1
f 9//7 7//7 12//8
f 10//1 7//1 13//1
f 13//2 7//2 10//2
f 4//6 11//6 10//9
f 6//2 8//2 11//2
f 11//1 8//1 6//1
f 9//2 11//2 14//2
f 14//1 11//1 9//1
f 13//8 12//8 7//7
f 9//2 14//2 12//2
f 12//1 14//1 9//1
f 10//1 13//1 15//1
f 15//2 13//2 10//2
f 14//9 10//9 11//6
f 13//8 16//10 12//8
f 12//2 14//2 17//2
f 17//1 14//1 12//1
f 15//1 13//1 16//1
f 16//2 13//2 15//2
f 15//11 10//9 17//11
f 14//9 17//11 10//9
f 18//10 12//8 16//10
f 12//2 17//2 18//2
f 18//1 17//1 12//1
f 15//1 16//1 19//1
f 19//2 16//2 15//2
f 17//11 20//12 15//11
f 16//10 21//13 18//10
f 18//2 17//2 20//2
f 20//1 17//1 18//1
f 19//1 16//1 21//1
f 21//2 16//2 19//2
f 19//12 15//11 20//12
f 22//13 18//10 21//13
f 18//2 20//2 22//2
f 22//1 20//1 18//1
f 19//1 21//1 23//1
f 23//2 21//2 19//2
f 20//12 24//14 19//12
f 21//13 25//15 22//13
f 22//2 20//2 24//2
f 24//1 20//1 22//1
f 23//1 21//1 25//1
f 25//2 21//2 23//2
f 23//14 19//12 24//14
f 26//15 22//13 25//15
f 22//2 24//2 26//2
f 26//1 24//1 22//1
f 23//1 25//1 27//1
f 27//2 25//2 23//2
f 24//14 28//16 23//14
f 25//15 29//17 26//15
f 26//2 24//2 28//2
f 28//1 24//1 26//1
f 27//1 25//1 29//1
f 29//2 25//2 27//2
f 27//16 23//14 28//16
f 30//17 26//15 29//17
f 26//2 28//2 30//2
f 30//1 28//1 26//1
f 27//1 29//1 32//1
f 32//2 29//2 27//2
f 28//16 33//18 27//16
f 29//17 31//19 30//17
f 32//1 29//1 31//1
f 31//2 29//2 32//2
f 30//2 28//2 33//2
f 33//1 28//1 30//1
f 32//18 27//16 33//18
f 36//19 30//17 31//19
f 38//1 31//1 34//1
f 34//2 31//2 38//2
f 31//19 34//20 36//19
f 32//1 31//1 38//1
f 38//2 31//2 32//2
f 30//2 33//2 36//2
f 36//1 33//1 30//1
f 33//18 41//21 32//18
f 42//1 34//1 37//1
f 37//2 34//2 42//2
f 38//1 34//1 42//1
f 42//2 34//2 38//2
f 44//20 36//19 34//20
f 38//21 32//18 41//21
f 39//1 40//1 35//1
f 35//2 40//2 39//2
f 39//23 45//23 35//24
f 35//24 46//24 40//25
f 36//2 33//2 41//2
f 41//1 33//1 36//1
f 39//1 37//1 40//1
f 40//2 37//2 39//2
f 42//1 37//1 39//1
f 39//2 37//2 42//2
f 43//22 37//22 47//25
f 38//21 41//21 42//26
f 36//2 41//2 44//2
f 44//1 41//1 36//1
f 42//26 48//26 39//23
f 46//24 35//24 45//23
f 45//23 39//23 48//26
f 47//25 40//25 46//24
f 44//2 48//2 43//2
f 43//1 48//1 44//1
f 43//2 45//2 47//2
f 47//1 45//1 43//1
f 48//26 42//26 41//21
f 44//2 41//2 48//2
f 48//1 41//1 44//1
f 47//2 45//2 46//2
f 46//1 45//1 47//1
f 43//2 48//2 45//2
f 45//1 48//1 43//1
usemtl material-1
f 2/1/25 5/2/24 3/3/24
f 3/4/24 6/5/23 1/6/23
f 4/7/22 8/8/25 2/9/25
f 5/2/24 2/1/25 8/10/25
f 6/5/23 3/4/24 5/11/24
f 9/12/26 1/13/23 6/14/23
f 1/13/23 9/12/26 7/15/26
f 8/8/25 4/7/22 11/16/22
f 12/17/21 7/18/26 9/19/26
f 10/20/20 11/21/22 4/22/22
f 7/18/26 12/17/21 13/23/21
f 11/21/22 10/20/20 14/24/20
f 12/25/21 16/26/18 13/27/21
f 17/28/19 10/29/20 15/30/19
f 10/29/20 17/28/19 14/31/20
f 16/26/18 12/25/21 18/32/18
f 15/33/19 20/34/17 17/35/19
f 18/36/18 21/37/16 16/38/18
f 20/34/17 15/33/19 19/39/17
f 21/37/16 18/36/18 22/40/16
f 19/41/17 24/42/15 20/43/17
f 22/44/16 25/45/14 21/46/16
f 24/42/15 19/41/17 23/47/15
f 25/45/14 22/44/16 26/48/14
f 23/49/15 28/50/13 24/51/15
f 26/52/14 29/53/12 25/54/14
f 28/50/13 23/49/15 27/55/13
f 29/53/12 26/52/14 30/56/12
f 27/57/13 33/58/10 28/59/13
f 30/60/12 31/61/11 29/62/12
f 33/58/10 27/57/13 32/63/10
f 31/61/11 30/60/12 36/64/11
f 36/65/11 34/66/9 31/67/11
f 32/68/10 41/69/8 33/70/10
f 34/66/9 36/65/11 44/71/9
f 41/69/8 32/68/10 38/72/8
f 35/73/3 45/74/5 39/75/5
f 40/76/4 46/77/3 35/78/3
f 47/80/4 37/79/6 43/81/6
f 42/82/7 41/83/8 38/84/8
f 39/85/5 48/86/7 42/87/7
f 45/74/5 35/73/3 46/88/3
f 48/86/7 39/85/5 45/89/5
f 46/77/3 40/76/4 47/90/4
f 41/83/8 42/82/7 48/91/7