# SSTK version 0.8.0
# 182
mtllib original-182.mtl
o mesh10/mesh10-geometry#mesh10-geometry
v -0.580742 -0.146274 -0.233463
v -0.589397 -0.141782 -0.222323
v -0.580742 -0.144693 -0.221924
v -0.589397 -0.143363 -0.233861
v -0.647099 -0.161481 -0.219624
v -0.571777 -0.148041 -0.233221
v -0.589397 0.644401 -0.341771
v -0.597595 -0.137777 -0.222871
v -0.571777 -0.146460 -0.221682
v -0.580742 0.647312 -0.342170
v -0.597595 0.640395 -0.341223
v -0.597595 -0.139357 -0.234410
v -0.562656 -0.147052 -0.221601
v -0.605196 -0.132746 -0.223560
v -0.562656 -0.148633 -0.233139
v -0.571777 0.649078 -0.342412
v -0.580742 0.648892 -0.330631
v -0.589397 0.645981 -0.330233
v 0.553191 -0.147052 -0.221601
v -0.612068 -0.126775 -0.224378
v -0.571777 0.650659 -0.330873
v -0.597595 0.641976 -0.329684
v -0.605196 0.635364 -0.340534
v -0.605196 -0.134326 -0.235099
v 0.637634 -0.161481 -0.219624
v 0.553191 -0.148633 -0.233139
v -0.618095 -0.119966 -0.225311
v -0.562656 0.649671 -0.342493
v -0.562656 0.651251 -0.330955
v -0.647099 0.665680 -0.332931
v 0.562312 -0.146460 -0.221682
v -0.647099 -0.160592 -0.213134
v -0.612068 -0.128355 -0.235917
v -0.618095 -0.121546 -0.236850
v -0.623173 -0.112436 -0.226343
v -0.605196 0.636944 -0.328995
v -0.612068 0.629393 -0.339716
v 0.571277 -0.144693 -0.221924
v 0.637634 -0.160592 -0.213134
v 0.562312 -0.148041 -0.233221
v 0.553191 0.649671 -0.342493
v -0.623173 -0.114017 -0.237881
v -0.627216 -0.104314 -0.227455
v 0.553191 0.651251 -0.330955
v -0.612068 0.630973 -0.328177
v 0.579933 -0.141782 -0.222323
v 0.637634 0.665680 -0.332931
v -0.647099 0.666569 -0.326441
v -0.632535 -0.077820 -0.231084
v -0.618095 0.622584 -0.338783
v -0.623173 0.615054 -0.337752
v -0.627216 -0.105894 -0.238994
v -0.630154 -0.095738 -0.228630
v -0.618095 0.624165 -0.327244
v 0.588131 -0.137777 -0.222871
v 0.571277 -0.146274 -0.233463
v 0.637634 0.666569 -0.326441
v 0.623070 0.582019 -0.321471
v -0.631937 -0.086856 -0.229846
v -0.632535 0.582019 -0.321471
v 0.562312 0.649078 -0.342412
v -0.627216 0.606932 -0.336639
v -0.630154 -0.097319 -0.240169
v 0.562312 0.650659 -0.330873
v -0.623173 0.616635 -0.326213
v 0.595731 -0.132746 -0.223560
v 0.579933 -0.143363 -0.233861
v 0.622472 0.591055 -0.322709
v 0.623070 -0.077820 -0.231084
v -0.632535 -0.079400 -0.242623
v -0.631937 0.591055 -0.322709
v -0.632535 0.580438 -0.333010
v -0.627216 0.608513 -0.325100
v -0.630154 0.598357 -0.335464
v -0.631937 -0.088437 -0.241385
v 0.571277 0.648892 -0.330631
v 0.602603 -0.126775 -0.224378
v 0.588131 -0.139357 -0.234410
v 0.571277 0.647312 -0.342170
v 0.620689 0.599937 -0.323926
v 0.622472 0.589475 -0.334248
v 0.622472 -0.086856 -0.229846
v 0.623070 0.580438 -0.333010
v -0.630154 0.599937 -0.323926
v -0.631937 0.589475 -0.334248
v 0.579933 0.645981 -0.330233
v 0.608630 -0.119966 -0.225311
v 0.595731 -0.134326 -0.235099
v 0.579933 0.644401 -0.341771
v 0.617751 0.608513 -0.325100
v 0.620689 0.598357 -0.335464
v 0.620689 -0.095738 -0.228630
v 0.623070 -0.079400 -0.242623
v 0.588131 0.641976 -0.329684
v 0.613708 -0.112436 -0.226343
v 0.608630 -0.121546 -0.236850
v 0.602603 -0.128355 -0.235917
v 0.588131 0.640395 -0.341223
v 0.613708 0.616635 -0.326213
v 0.617751 0.606932 -0.336639
v 0.622472 -0.088437 -0.241385
v 0.617751 -0.104314 -0.227455
v 0.595731 0.636944 -0.328995
v 0.613708 -0.114017 -0.237881
v 0.602603 0.629393 -0.339716
v 0.595731 0.635364 -0.340534
v 0.608630 0.624165 -0.327244
v 0.613708 0.615054 -0.337752
v 0.620689 -0.097319 -0.240169
v 0.602603 0.630973 -0.328177
v 0.617751 -0.105894 -0.238994
v 0.608630 0.622584 -0.338783
vt 0.116355 0.074074
vt 0.174533 0.074074
vt 0.116355 0
vt 0.174533 0
vt 0.099614 1.27153
vt 0.521655 1.379301
vt 0.466604 1.397989
vt 0.058178 0
vt 0.232711 0.074074
vt 0.578674 1.36796
vt 0.414464 1.423701
vt 0.058178 0.074074
vt 0.232711 0
vt 0.636686 1.364157
vt 0.366125 1.456
vt 0 0
vt 0.581776 0
vt 0.523599 0
vt 0.581776 0.074074
vt 0.465421 0
vt 0.523599 0.074074
vt 0.290888 0.074074
vt 7.733685 1.364157
vt 0 0.074074
vt 0.322416 1.494332
vt 0.639954 0
vt 0.639954 0.074074
vt 0.465421 0.074074
vt 0.290888 0
vt 8.270757 1.27153
vt 0.349066 0.074074
vt 0.284084 1.538041
vt 0.698132 0.074074
vt 0.521655 6.47379
vt 0.099614 6.581561
vt 0.466604 6.455103
vt 0.578674 6.485132
vt 0.414464 6.42939
vt 0.407243 0
vt 7.791696 1.36796
vt 0.349066 0
vt 0.407243 0.074074
vt 0.251786 1.586379
vt 0.698132 0
vt 0.636686 6.488934
vt 0.366125 6.397091
vt 7.848715 1.379301
vt 6.770454 0.355967
vt 6.729173 0.361622
vt 7.491108 5.61687
vt 0.226073 1.63852
vt 7.733685 6.488934
vt 0.322416 6.358759
vt 7.903766 1.397989
vt 7.449827 5.622524
vt 0.192241 1.808602
vt 0.207385 1.693571
vt 8.270757 6.581561
vt 0.284084 6.31505
vt 7.955907 1.423701
vt 8.178129 6.044489
vt 0.196044 1.75059
vt 0.192241 6.044489
vt 7.791696 6.485132
vt 0.251786 6.266712
vt 8.004245 1.456
vt 8.174327 6.102501
vt 8.178129 1.808602
vt 0.196044 6.102501
vt 7.418219 5.084767
vt 7.491608 5.074714
vt 6.843343 0.88807
vt 7.848715 6.47379
vt 0.226073 6.214571
vt 8.047954 1.494332
vt 8.162985 6.15952
vt 8.174327 1.75059
vt 6.916732 0.878017
vt 0.207385 6.15952
vt 7.903766 6.455103
vt 8.086286 1.538041
vt 8.144298 6.214571
vt 8.162985 1.693571
vt 7.955907 6.42939
vt 8.118585 1.586379
vt 8.118585 6.266712
vt 8.144298 1.63852
vt 8.004245 6.397091
vt 8.086286 6.31505
vt 8.047954 6.358759
vt -104.404743 -90.903286
vt -8.595257 -89.903286
vt -104.404743 -89.903286
vt -8.595257 -90.903286
vt 8.63938 1
vt 9.424778 0
vt 9.424778 1
vt 8.63938 0
vt 7.853982 1
vt 7.068583 1
vt 7.853982 0
vt 6.283185 1
vt 7.068583 0
vt 5.497787 1
vt 6.283185 0
vt 4.712389 1
vt 5.497787 0
vt 0.785398 1
vt 0 1
vt 3.926991 0
vt 3.926991 1
vt 4.712389 0
vt 0.785398 0
vt 1.570796 1
vt 3.141593 0
vt 3.141593 1
vt 1.570796 0
vt 2.356194 1
vt 2.356194 0
vt -101.136708 68.508634
vt -92.385135 11.988945
vt -100.14596 68.64435
vt -93.375883 11.853229
vn 0.25881899079083226 0.9569889659488977 -0.13109099533558585
vn 0.38268293361637995 0.9153318412183147 -0.1253849782495951
vn 0 -0.13571597067449626 -0.9907477859192416
vn 0.13052597606904343 0.9822718199078454 -0.1345549753303567
vn 0.4999999214355185 0.8580128651813071 -0.1175329815321616
vn 0.06540297291784447 0.9886265906281032 -0.13542494392304769
vn 0.25881899079083226 -0.9569889659488977 0.13109099533558585
vn 0.38268293361637995 -0.9153318412183147 0.1253849782495951
vn 0.4999999214355185 -0.8580128651813071 0.1175329815321616
vn 0.6087612373590966 0.786013306470578 -0.10767004198109591
vn 0.13052597606904343 -0.9822718199078454 0.1345549753303567
vn 0 -0.9907477859192416 0.13571597067449626
vn 0.7071066783022434 0.7005646812785209 -0.09596495634080102
vn 0.06540297291784447 -0.9886265906281032 0.13542494392304769
vn 0.6087612373590966 -0.786013306470578 0.10767004198109591
vn 0 0.9907477859192416 -0.13571597067449626
vn 0.7933532748279355 0.6031292089318349 -0.08261802861996409
vn 1 0 0
vn 0.8660252560555602 0.49537414646605704 -0.06785802006341411
vn 0.7071066783022434 -0.7005646812785209 0.09596495634080102
vn -1 0 0
vn 0.9238795302327849 0.37914280721635796 -0.051935973591992375
vn -0.13052597606904343 -0.9822718199078454 0.1345549753303567
vn -0.06540297291784447 -0.9886265906281032 0.13542494392304769
vn 0.7933532748279355 -0.6031292089318349 0.08261802861996409
vn 0.9659259318404049 0.25642398190569876 -0.0351259975213692
vn 0.99144481282416 0.12931897558574357 -0.017713996655757173
vn 0.9978589261280075 0.06479799520297218 -0.008875999342905354
vn 0.8660252560555602 -0.49537414646605704 0.06785802006341411
vn 0.9238795302327849 -0.37914280721635796 0.051935973591992375
vn -0.99144481282416 -0.12931897558574357 0.017713996655757173
vn -0.9978589261280075 -0.06479799520297218 0.008875999342905354
vn 0.9978589261280075 -0.06479799520297218 0.008875999342905354
vn 0.99144481282416 -0.12931897558574357 0.017713996655757173
vn -0.25881899079083226 -0.9569889659488977 0.13109099533558585
vn 0.9659259318404049 -0.25642398190569876 0.0351259975213692
vn -0.9659259318404049 -0.25642398190569876 0.0351259975213692
vn -0.38268293361637995 -0.9153318412183147 0.1253849782495951
vn -0.9238795302327849 -0.37914280721635796 0.051935973591992375
vn -0.4999999214355185 -0.8580128651813071 0.1175329815321616
vn -0.8660252560555602 -0.49537414646605704 0.06785802006341411
vn -0.6087612373590966 -0.786013306470578 0.10767004198109591
vn -0.7933532748279355 -0.6031292089318349 0.08261802861996409
vn -0.7071066783022434 -0.7005646812785209 0.09596495634080102
vn 0 0.13571597067449626 0.9907477859192416
vn -0.25881899079083226 0.9569889659488977 -0.13109099533558585
vn -0.38268293361637995 0.9153318412183147 -0.1253849782495951
vn -0.4999999214355185 0.8580128651813071 -0.1175329815321616
vn -0.13052597606904343 0.9822718199078454 -0.1345549753303567
vn -0.06540297291784447 0.9886265906281032 -0.13542494392304769
vn -0.6087612373590966 0.786013306470578 -0.10767004198109591
vn -0.7071066783022434 0.7005646812785209 -0.09596495634080102
vn -0.7933532748279355 0.6031292089318349 -0.08261802861996409
vn -0.8660252560555602 0.49537414646605704 -0.06785802006341411
vn -0.9238795302327849 0.37914280721635796 -0.051935973591992375
vn -0.99144481282416 0.12931897558574357 -0.017713996655757173
vn -0.9978589261280075 0.06479799520297218 -0.008875999342905354
vn -0.9659259318404049 0.25642398190569876 -0.0351259975213692
usemtl material_0_0
f 1//1 2//2 3//1
f 2//2 1//1 4//2
f 2//3 3//3 5//3
f 3//1 6//4 1//1
f 4//2 8//5 2//2
f 3//3 9//3 5//3
f 8//3 2//3 5//3
f 6//4 3//1 9//4
f 8//5 4//2 12//5
f 9//3 13//3 5//3
f 14//3 8//3 5//3
f 9//4 15//6 6//4
f 17//7 7//8 10//7
f 18//8 11//9 7//8
f 12//5 14//10 8//5
f 13//3 19//3 5//3
f 15//6 9//4 13//6
f 20//3 14//3 5//3
f 21//11 10//7 16//11
f 7//8 17//7 18//8
f 10//7 21//11 17//7
f 11//9 18//8 22//9
f 14//10 12//5 24//10
f 5//3 19//3 25//3
f 19//12 13//12 26//12
f 15//12 26//12 13//12
f 24//10 20//13 14//10
f 27//3 20//3 5//3
f 16//11 29//14 21//11
f 18//3 30//3 17//3
f 17//3 30//3 21//3
f 22//3 30//3 18//3
f 22//9 23//15 11//9
f 31//3 25//3 19//3
f 32//16 25//16 5//16
f 5//12 25//12 32//12
f 19//14 26//14 31//11
f 20//13 24//10 33//13
f 20//13 34//17 27//17
f 35//3 27//3 5//3
f 29//14 16//11 28//14
f 21//3 30//3 29//3
f 36//3 30//3 22//3
f 23//15 22//9 36//15
f 38//3 25//3 31//3
f 25//16 32//16 39//16
f 39//12 32//12 25//12
f 30//18 32//18 5//18
f 40//11 31//11 26//14
f 34//17 20//13 33//13
f 42//19 27//17 34//17
f 27//17 42//19 35//19
f 43//3 35//3 5//3
f 28//12 44//12 29//12
f 29//16 44//16 28//16
f 29//3 30//3 44//3
f 45//3 30//3 36//3
f 36//15 37//20 23//15
f 46//3 25//3 38//3
f 31//11 40//11 38//7
f 39//21 47//21 25//21
f 25//18 47//18 39//18
f 32//18 30//18 48//18
f 30//3 49//3 5//3
f 44//12 28//12 41//12
f 41//16 28//16 44//16
f 52//22 35//19 42//19
f 35//19 52//22 43//22
f 53//3 43//3 5//3
f 30//3 47//3 44//3
f 54//3 30//3 45//3
f 37//20 36//15 45//20
f 55//3 25//3 46//3
f 38//7 56//7 46//8
f 56//7 38//7 40//11
f 47//21 39//21 57//21
f 57//18 39//18 47//18
f 25//3 58//3 47//3
f 30//12 57//12 48//12
f 48//16 57//16 30//16
f 49//3 59//3 5//3
f 49//3 30//3 60//3
f 61//23 44//24 41//24
f 41//6 44//6 61//4
f 37//20 54//25 50//25
f 63//26 43//22 52//22
f 43//22 63//26 53//26
f 59//3 53//3 5//3
f 44//3 47//3 64//3
f 57//12 30//12 47//12
f 47//16 30//16 57//16
f 65//3 30//3 54//3
f 54//25 37//20 45//20
f 66//3 25//3 55//3
f 46//8 67//8 55//9
f 67//8 46//8 56//7
f 68//3 47//3 58//3
f 58//3 25//3 69//3
f 59//27 70//28 49//28
f 60//3 30//3 71//3
f 49//18 72//18 60//18
f 44//24 61//23 64//23
f 64//4 61//4 44//6
f 65//29 50//25 54//25
f 50//25 65//29 51//29
f 51//29 73//30 62//30
f 75//27 53//26 63//26
f 53//26 75//27 59//27
f 64//3 47//3 76//3
f 73//3 30//3 65//3
f 77//3 25//3 66//3
f 55//9 78//9 66//15
f 78//9 55//9 67//8
f 80//3 47//3 68//3
f 81//31 58//32 68//31
f 68//27 58//28 81//27
f 69//3 25//3 82//3
f 58//18 69//18 83//18
f 70//28 59//27 75//27
f 72//18 49//18 70//18
f 71//3 30//3 84//3
f 60//33 85//34 71//34
f 85//34 60//33 72//33
f 79//35 64//23 61//23
f 61//4 64//4 79//1
f 73//30 51//29 65//29
f 84//36 62//30 73//30
f 62//30 84//36 74//36
f 76//3 47//3 86//3
f 64//23 79//35 76//35
f 76//1 79//1 64//4
f 84//3 30//3 73//3
f 87//3 25//3 77//3
f 66//15 88//15 77//20
f 88//15 66//15 78//9
f 90//3 47//3 80//3
f 91//37 68//31 80//37
f 80//26 68//27 91//26
f 58//32 81//31 83//32
f 83//28 81//27 58//28
f 68//31 91//37 81//31
f 81//27 91//26 68//27
f 82//3 25//3 92//3
f 69//33 82//34 93//33
f 93//18 83//18 69//18
f 71//34 74//36 84//36
f 74//36 71//34 85//34
f 86//3 47//3 94//3
f 76//35 89//38 86//38
f 86//2 89//2 76//1
f 89//38 76//35 79//35
f 79//1 76//1 89//2
f 95//3 25//3 87//3
f 87//25 77//20 96//25
f 97//20 77//20 88//15
f 99//3 47//3 90//3
f 100//39 80//37 90//39
f 90//22 80//26 100//22
f 80//37 100//39 91//37
f 91//26 100//22 80//26
f 92//3 25//3 102//3
f 82//34 92//36 101//34
f 101//34 93//33 82//34
f 94//3 47//3 103//3
f 86//38 98//40 94//40
f 94//5 98//5 86//2
f 98//40 86//38 89//38
f 89//2 86//2 98//5
f 102//3 25//3 95//3
f 95//29 87//25 104//29
f 97//20 96//25 77//20
f 96//25 104//29 87//25
f 107//3 47//3 99//3
f 108//41 90//39 99//41
f 99//19 90//22 108//19
f 90//39 108//41 100//39
f 100//22 108//19 90//22
f 92//36 102//30 109//36
f 109//36 101//34 92//36
f 103//3 47//3 110//3
f 94//40 106//42 103//42
f 103//10 106//10 94//5
f 106//42 94//40 98//40
f 98//5 94//5 106//10
f 102//30 95//29 111//30
f 104//29 111//30 95//29
f 110//3 47//3 107//3
f 112//43 99//41 107//43
f 107//17 99//19 112//17
f 99//41 112//43 108//41
f 108//19 112//17 99//19
f 111//30 109//36 102//30
f 103//42 105//44 110//44
f 110//13 105//13 103//10
f 105//44 103//42 106//42
f 106//10 103//10 105//13
f 105//44 107//43 110//44
f 110//13 107//17 105//13
f 107//43 105//44 112//43
f 112//17 105//13 107//17
usemtl material_1_0
f 3/1/35 2/2/38 1/3/35
f 4/4/38 1/3/35 2/2/38
f 5/5/45 3/6/45 2/7/45
f 1/3/35 6/8/23 3/1/35
f 2/2/38 8/9/40 4/4/38
f 5/5/45 9/10/45 3/6/45
f 5/5/45 2/7/45 8/11/45
f 9/12/23 3/1/35 6/8/23
f 12/13/40 4/4/38 8/9/40
f 5/5/45 13/14/45 9/10/45
f 5/5/45 8/11/45 14/15/45
f 6/8/23 15/16/24 9/12/23
f 10/17/46 7/18/47 17/19/46
f 7/18/47 11/20/48 18/21/47
f 8/9/40 14/22/42 12/13/40
f 5/5/45 19/23/45 13/14/45
f 13/24/24 9/12/23 15/16/24
f 5/5/45 14/15/45 20/25/45
f 16/26/49 10/17/46 21/27/49
f 18/21/47 17/19/46 7/18/47
f 17/19/46 21/27/49 10/17/46
f 22/28/48 18/21/47 11/20/48
f 24/29/42 12/13/40 14/22/42
f 25/30/45 19/23/45 5/5/45
f 14/22/42 20/31/44 24/29/42
f 5/5/45 20/25/45 27/32/45
f 21/27/49 29/33/50 16/26/49
f 17/34/45 30/35/45 18/36/45
f 21/37/45 30/35/45 17/34/45
f 18/36/45 30/35/45 22/38/45
f 11/20/48 23/39/51 22/28/48
f 19/23/45 25/30/45 31/40/45
f 33/41/44 24/29/42 20/31/44
f 27/42/43 34/39/43 20/31/44
f 5/5/45 27/32/45 35/43/45
f 28/44/50 16/26/49 29/33/50
f 29/45/45 30/35/45 21/37/45
f 22/38/45 30/35/45 36/46/45
f 36/42/51 22/28/48 23/39/51
f 31/40/45 25/30/45 38/47/45
f 5/48/21 32/49/21 30/50/21
f 33/41/44 20/31/44 34/39/43
f 34/39/43 27/42/43 42/20/41
f 35/28/41 42/20/41 27/42/43
f 5/5/45 35/43/45 43/51/45
f 44/52/45 30/35/45 29/45/45
f 36/46/45 30/35/45 45/53/45
f 23/39/51 37/41/52 36/42/51
f 38/47/45 25/30/45 46/54/45
f 48/55/21 30/50/21 32/49/21
f 5/5/45 49/56/45 30/35/45
f 42/20/41 35/28/41 52/18/39
f 43/21/39 52/18/39 35/28/41
f 5/5/45 43/51/45 53/57/45
f 44/52/45 47/58/45 30/35/45
f 45/53/45 30/35/45 54/59/45
f 45/31/52 36/42/51 37/41/52
f 46/54/45 25/30/45 55/60/45
f 47/58/45 58/61/45 25/30/45
f 5/5/45 59/62/45 49/56/45
f 60/63/45 30/35/45 49/56/45
f 50/29/53 54/22/53 37/41/52
f 52/18/39 43/21/39 63/17/37
f 53/19/37 63/17/37 43/21/39
f 5/5/45 53/57/45 59/62/45
f 64/64/45 47/58/45 44/52/45
f 54/59/45 30/35/45 65/65/45
f 45/31/52 37/41/52 54/22/53
f 55/60/45 25/30/45 66/66/45
f 58/61/45 47/58/45 68/67/45
f 69/68/45 25/30/45 58/61/45
f 49/33/32 70/44/32 59/27/31
f 71/69/45 30/35/45 60/63/45
f 60/70/21 72/71/21 49/72/21
f 54/22/53 50/29/53 65/9/54
f 51/13/54 65/9/54 50/29/53
f 62/4/55 73/2/55 51/13/54
f 63/17/37 53/19/37 75/26/31
f 59/27/31 75/26/31 53/19/37
f 76/73/45 47/58/45 64/64/45
f 65/65/45 30/35/45 73/74/45
f 66/66/45 25/30/45 77/75/45
f 68/67/45 47/58/45 80/76/45
f 82/77/45 25/30/45 69/68/45
f 75/26/31 59/27/31 70/44/32
f 70/78/21 49/72/21 72/71/21
f 84/79/45 30/35/45 71/69/45
f 71/12/56 85/8/56 60/24/57
f 72/16/57 60/24/57 85/8/56
f 65/9/54 51/13/54 73/2/55
f 73/2/55 62/4/55 84/1/58
f 74/3/58 84/1/58 62/4/55
f 86/80/45 47/58/45 76/73/45
f 73/74/45 30/35/45 84/79/45
f 77/75/45 25/30/45 87/81/45
f 80/76/45 47/58/45 90/82/45
f 92/83/45 25/30/45 82/77/45
f 84/1/58 74/3/58 71/12/56
f 85/8/56 71/12/56 74/3/58
f 94/84/45 47/58/45 86/80/45
f 87/81/45 25/30/45 95/85/45
f 90/82/45 47/58/45 99/86/45
f 102/87/45 25/30/45 92/83/45
f 103/88/45 47/58/45 94/84/45
f 95/85/45 25/30/45 102/87/45
f 99/86/45 47/58/45 107/89/45
f 110/90/45 47/58/45 103/88/45
f 107/89/45 47/58/45 110/90/45
usemtl material_2_0
f 1//45 7//45 4//45
f 4//3 7//3 1//3
f 6//45 10//45 1//45
f 1//3 10//3 6//3
f 1//45 10//45 7//45
f 7//3 10//3 1//3
f 4//45 7//45 11//45
f 11//3 7//3 4//3
f 6//45 16//45 10//45
f 10//3 16//3 6//3
f 4//45 11//45 12//45
f 12//3 11//3 4//3
f 15//45 16//45 6//45
f 6//3 16//3 15//3
f 12//45 11//45 23//45
f 23//3 11//3 12//3
f 15//45 28//45 16//45
f 16//3 28//3 15//3
f 12//45 23//45 24//45
f 24//3 23//3 12//3
f 26//45 28//45 15//45
f 15//3 28//3 26//3
f 24//45 23//45 37//45
f 37//3 23//3 24//3
f 26//45 41//45 28//45
f 28//3 41//3 26//3
f 24//45 37//45 33//45
f 33//3 37//3 24//3
f 40//45 41//45 26//45
f 26//3 41//3 40//3
f 33//45 37//45 50//45
f 50//3 37//3 33//3
f 33//45 50//45 34//45
f 34//3 50//3 33//3
f 34//45 51//45 42//45
f 42//3 51//3 34//3
f 40//45 61//45 41//45
f 41//3 61//3 40//3
f 34//45 50//45 51//45
f 51//3 50//3 34//3
f 42//45 51//45 62//45
f 62//3 51//3 42//3
f 42//45 62//45 52//45
f 52//3 62//3 42//3
f 56//45 61//45 40//45
f 40//3 61//3 56//3
f 52//45 62//45 74//45
f 74//3 62//3 52//3
f 52//45 74//45 63//45
f 63//3 74//3 52//3
f 67//45 79//45 56//45
f 56//3 79//3 67//3
f 56//45 79//45 61//45
f 61//3 79//3 56//3
f 63//45 74//45 85//45
f 85//3 74//3 63//3
f 63//45 85//45 75//45
f 75//3 85//3 63//3
f 78//45 89//45 67//45
f 67//3 89//3 78//3
f 67//45 89//45 79//45
f 79//3 89//3 67//3
f 75//45 72//45 70//45
f 70//3 72//3 75//3
f 75//45 85//45 72//45
f 72//3 85//3 75//3
f 88//45 98//45 78//45
f 78//3 98//3 88//3
f 78//45 98//45 89//45
f 89//3 98//3 78//3
f 81//45 93//45 83//45
f 83//3 93//3 81//3
f 101//45 81//45 91//45
f 91//3 81//3 101//3
f 97//45 105//45 88//45
f 88//3 105//3 97//3
f 88//45 106//45 98//45
f 98//3 106//3 88//3
f 109//45 91//45 100//45
f 100//3 91//3 109//3
f 93//45 81//45 101//45
f 101//3 81//3 93//3
f 101//45 91//45 109//45
f 109//3 91//3 101//3
f 96//45 105//45 97//45
f 97//3 105//3 96//3
f 104//45 112//45 96//45
f 96//3 112//3 104//3
f 88//45 105//45 106//45
f 106//3 105//3 88//3
f 111//45 100//45 108//45
f 108//3 100//3 111//3
f 109//45 100//45 111//45
f 111//3 100//3 109//3
f 111//45 108//45 104//45
f 104//3 108//3 111//3
f 96//45 112//45 105//45
f 105//3 112//3 96//3
f 104//45 108//45 112//45
f 112//3 108//3 104//3
usemtl material_3_0
f 26/91/16 13/92/16 19/93/16
f 13/92/16 26/91/16 15/94/16
f 31/95/49 26/96/50 19/97/50
f 26/96/50 31/95/49 40/98/49
f 38/99/46 40/98/49 31/95/49
f 46/100/47 56/101/46 38/99/46
f 40/98/49 38/99/46 56/101/46
f 55/102/48 67/103/47 46/100/47
f 56/101/46 46/100/47 67/103/47
f 66/104/51 78/105/48 55/102/48
f 67/103/47 55/102/48 78/105/48
f 77/106/52 88/107/51 66/104/51
f 78/105/48 66/104/51 88/107/51
f 93/16/57 82/108/56 69/109/57
f 96/110/53 77/106/52 87/111/53
f 88/107/51 77/106/52 97/112/52
f 101/113/56 92/114/58 82/108/56
f 82/108/56 93/16/57 101/113/56
f 104/115/54 87/111/53 95/116/54
f 77/106/52 96/110/53 97/112/52
f 87/111/53 104/115/54 96/110/53
f 109/117/58 102/118/55 92/114/58
f 92/114/58 101/113/56 109/117/58
f 111/119/55 95/116/54 102/118/55
f 95/116/54 111/119/55 104/115/54
f 102/118/55 109/117/58 111/119/55
usemtl material_4_0
f 83/120/21 69/121/21 58/122/21
f 69/121/21 83/120/21 93/123/21
