# SSTK version 0.8.0
# 55
mtllib original-55.mtl
o mesh46/mesh46-geometry#mesh46-geometry
v 0.203947 -0.113336 0.201536
v 0.202300 -0.113486 0.202569
v 0.202300 -0.113304 0.201316
v 0.203111 -0.113505 0.202699
v 0.202300 -0.115396 0.215726
v 0.203868 -0.113542 0.202950
v 0.202300 -0.112966 0.198982
v 0.202300 -0.114026 0.206286
v 0.205209 -0.113647 0.203676
v 0.201304 -0.115396 0.215726
v 0.202300 -0.114239 0.207756
v 0.205340 -0.113399 0.201964
v 0.201304 -0.114948 0.212640
v 0.202837 -0.114044 0.206412
v 0.202300 -0.114760 0.211343
v 0.205340 -0.113647 0.203676
v 0.201304 -0.114763 0.211360
v 0.203132 -0.114275 0.208002
v 0.202300 -0.114942 0.212596
v 0.201304 -0.114220 0.207626
v 0.200328 -0.114742 0.211216
v 0.203270 -0.114060 0.206520
v 0.203083 -0.114733 0.211158
v 0.201304 -0.114007 0.206157
v 0.199426 -0.114704 0.210954
v 0.203689 -0.114325 0.208344
v 0.203015 -0.114922 0.212460
v 0.201304 -0.113488 0.202578
v 0.200771 -0.114202 0.207501
v 0.199404 -0.114917 0.212424
v 0.204323 -0.114115 0.206898
v 0.203666 -0.114889 0.212232
v 0.201304 -0.113307 0.201333
v 0.200401 -0.113965 0.205864
v 0.198605 -0.114650 0.210587
v 0.204003 -0.114396 0.208838
v 0.203650 -0.114683 0.210811
v 0.201304 -0.112966 0.198982
v 0.200581 -0.113511 0.202739
v 0.200239 -0.114182 0.207358
v 0.198510 -0.114882 0.212182
v 0.204108 -0.114499 0.209545
v 0.203993 -0.114606 0.210281
v 0.200560 -0.113324 0.201454
v 0.199841 -0.113910 0.205487
v 0.197871 -0.114583 0.210124
v 0.204253 -0.114843 0.211913
v 0.199985 -0.113561 0.203084
v 0.199550 -0.113836 0.204980
v 0.197740 -0.114837 0.211870
v 0.204776 -0.114783 0.211503
v 0.199889 -0.113356 0.201670
v 0.199115 -0.114117 0.206913
v 0.197740 -0.114583 0.210124
v 0.205108 -0.114199 0.207479
v 0.199586 -0.113637 0.203605
v 0.199452 -0.113737 0.204298
v 0.205206 -0.114714 0.211025
v 0.199293 -0.113401 0.201981
v 0.205596 -0.114316 0.208281
v 0.198771 -0.113460 0.202388
v 0.205513 -0.114638 0.210501
v 0.198365 -0.114026 0.206286
v 0.205698 -0.114555 0.209933
v 0.198347 -0.113529 0.202862
v 0.205759 -0.114466 0.209320
v 0.198044 -0.113603 0.203375
v 0.197942 -0.113910 0.205487
v 0.197862 -0.113684 0.203929
v 0.197802 -0.113770 0.204523
vn 0 -0.9896265277379349 -0.14366396763753486
vn 0 0.9896265277379349 0.14366396763753486
usemtl material_0_0
f 1//1 2//1 3//1
f 2//1 1//1 4//1
f 3//2 2//2 1//2
f 4//2 1//2 2//2
f 5//1 3//1 2//1
f 2//2 3//2 5//2
f 4//1 1//1 6//1
f 6//2 1//2 4//2
f 5//1 7//1 3//1
f 3//2 7//2 5//2
f 5//1 2//1 8//1
f 8//2 2//2 5//2
f 6//1 1//1 9//1
f 9//2 1//2 6//2
f 10//1 7//1 5//1
f 5//2 7//2 10//2
f 5//1 8//1 11//1
f 11//2 8//2 5//2
f 9//1 1//1 12//1
f 12//2 1//2 9//2
f 13//1 7//1 10//1
f 10//2 7//2 13//2
f 14//1 11//1 8//1
f 8//2 11//2 14//2
f 5//1 11//1 15//1
f 15//2 11//2 5//2
f 9//1 12//1 16//1
f 16//2 12//2 9//2
f 17//1 7//1 13//1
f 13//2 7//2 17//2
f 11//1 14//1 18//1
f 18//2 14//2 11//2
f 5//1 15//1 19//1
f 19//2 15//2 5//2
f 20//1 7//1 17//1
f 17//2 7//2 20//2
f 13//1 21//1 17//1
f 17//2 21//2 13//2
f 18//1 14//1 22//1
f 22//2 14//2 18//2
f 23//1 19//1 15//1
f 15//2 19//2 23//2
f 24//1 7//1 20//1
f 20//2 7//2 24//2
f 13//1 25//1 21//1
f 21//2 25//2 13//2
f 18//1 22//1 26//1
f 26//2 22//2 18//2
f 19//1 23//1 27//1
f 27//2 23//2 19//2
f 28//1 7//1 24//1
f 24//2 7//2 28//2
f 29//1 24//1 20//1
f 20//2 24//2 29//2
f 30//1 25//1 13//1
f 13//2 25//2 30//2
f 26//1 22//1 31//1
f 31//2 22//2 26//2
f 27//1 23//1 32//1
f 32//2 23//2 27//2
f 33//1 7//1 28//1
f 28//2 7//2 33//2
f 29//1 34//1 24//1
f 24//2 34//2 29//2
f 30//1 35//1 25//1
f 25//2 35//2 30//2
f 26//1 31//1 36//1
f 36//2 31//2 26//2
f 32//1 23//1 37//1
f 37//2 23//2 32//2
f 7//1 33//1 38//1
f 38//2 33//2 7//2
f 39//1 33//1 28//1
f 28//2 33//2 39//2
f 40//1 34//1 29//1
f 29//2 34//2 40//2
f 41//1 35//1 30//1
f 30//2 35//2 41//2
f 36//1 31//1 42//1
f 42//2 31//2 36//2
f 32//1 37//1 43//1
f 43//2 37//2 32//2
f 39//1 44//1 33//1
f 33//2 44//2 39//2
f 40//1 45//1 34//1
f 34//2 45//2 40//2
f 41//1 46//1 35//1
f 35//2 46//2 41//2
f 42//1 31//1 47//1
f 47//2 31//2 42//2
f 32//1 43//1 47//1
f 47//2 43//2 32//2
f 48//1 44//1 39//1
f 39//2 44//2 48//2
f 40//1 49//1 45//1
f 45//2 49//2 40//2
f 50//1 46//1 41//1
f 41//2 46//2 50//2
f 47//1 31//1 51//1
f 51//2 31//2 47//2
f 47//1 43//1 42//1
f 42//2 43//2 47//2
f 48//1 52//1 44//1
f 44//2 52//2 48//2
f 53//1 49//1 40//1
f 40//2 49//2 53//2
f 46//1 50//1 54//1
f 54//2 50//2 46//2
f 51//1 31//1 55//1
f 55//2 31//2 51//2
f 56//1 52//1 48//1
f 48//2 52//2 56//2
f 53//1 57//1 49//1
f 49//2 57//2 53//2
f 51//1 55//1 58//1
f 58//2 55//2 51//2
f 57//1 52//1 56//1
f 56//2 52//2 57//2
f 53//1 59//1 57//1
f 57//2 59//2 53//2
f 58//1 55//1 60//1
f 60//2 55//2 58//2
f 52//1 57//1 59//1
f 59//2 57//2 52//2
f 53//1 61//1 59//1
f 59//2 61//2 53//2
f 58//1 60//1 62//1
f 62//2 60//2 58//2
f 63//1 61//1 53//1
f 53//2 61//2 63//2
f 62//1 60//1 64//1
f 64//2 60//2 62//2
f 63//1 65//1 61//1
f 61//2 65//2 63//2
f 64//1 60//1 66//1
f 66//2 60//2 64//2
f 63//1 67//1 65//1
f 65//2 67//2 63//2
f 68//1 67//1 63//1
f 63//2 67//2 68//2
f 68//1 69//1 67//1
f 67//2 69//2 68//2
f 69//1 68//1 70//1
f 70//2 68//2 69//2
