# SSTK version 0.8.0
# 368
mtllib original-368.mtl
o mesh266/mesh266-geometry#mesh266-geometry
v -0.630274 -0.089469 0.032102
v -0.630854 -0.089712 0.033782
v -0.630854 -0.089534 0.032553
v -0.629742 -0.089609 0.033070
v -0.630854 -0.091129 0.043538
v -0.629632 -0.089415 0.031732
v -0.630854 -0.089402 0.031642
v -0.630854 -0.090427 0.038706
v -0.629146 -0.089579 0.032863
v -0.632332 -0.091129 0.043538
v -0.630854 -0.090600 0.039897
v -0.628929 -0.089379 0.031484
v -0.632332 -0.089402 0.031642
v -0.629860 -0.090483 0.039088
v -0.628527 -0.089569 0.032794
v -0.629825 -0.090667 0.040356
v -0.628166 -0.089367 0.031401
v -0.628913 -0.090497 0.039189
v -0.628026 -0.089576 0.032845
v -0.628669 -0.090688 0.040503
v -0.627453 -0.089378 0.031475
v -0.628371 -0.090490 0.039137
v -0.627600 -0.089599 0.032999
v -0.627902 -0.090676 0.040423
v -0.627248 -0.089636 0.033255
v -0.627893 -0.090467 0.038981
v -0.626823 -0.089410 0.031697
v -0.627204 -0.090641 0.040182
v -0.626971 -0.089688 0.033614
v -0.627478 -0.090429 0.038720
v -0.626611 -0.089831 0.034602
v -0.627128 -0.090376 0.038356
v -0.626275 -0.089463 0.032066
v -0.626575 -0.090583 0.039779
v -0.626491 -0.090023 0.035921
v -0.626850 -0.090309 0.037892
v -0.626016 -0.090501 0.039216
v -0.626651 -0.090228 0.037331
v -0.625811 -0.089538 0.032584
v -0.625557 -0.090400 0.038517
v -0.625442 -0.089632 0.033226
v -0.625229 -0.090282 0.037708
v -0.625178 -0.089739 0.033968
v -0.625032 -0.090149 0.036788
v -0.625019 -0.089862 0.034813
v -0.624966 -0.089999 0.035758
vn 0 -0.9896265257383052 -0.14366398141194375
vn 0 0.9896265257383052 0.14366398141194375
usemtl material_0_0
f 1//1 2//1 3//1
f 2//1 1//1 4//1
f 3//2 2//2 1//2
f 4//2 1//2 2//2
f 5//1 3//1 2//1
f 2//2 3//2 5//2
f 4//1 1//1 6//1
f 6//2 1//2 4//2
f 5//1 7//1 3//1
f 3//2 7//2 5//2
f 5//1 2//1 8//1
f 8//2 2//2 5//2
f 4//1 6//1 9//1
f 9//2 6//2 4//2
f 10//1 7//1 5//1
f 5//2 7//2 10//2
f 5//1 8//1 11//1
f 11//2 8//2 5//2
f 9//1 6//1 12//1
f 12//2 6//2 9//2
f 7//1 10//1 13//1
f 13//2 10//2 7//2
f 14//1 11//1 8//1
f 8//2 11//2 14//2
f 9//1 12//1 15//1
f 15//2 12//2 9//2
f 11//1 14//1 16//1
f 16//2 14//2 11//2
f 15//1 12//1 17//1
f 17//2 12//2 15//2
f 16//1 14//1 18//1
f 18//2 14//2 16//2
f 15//1 17//1 19//1
f 19//2 17//2 15//2
f 16//1 18//1 20//1
f 20//2 18//2 16//2
f 19//1 17//1 21//1
f 21//2 17//2 19//2
f 20//1 18//1 22//1
f 22//2 18//2 20//2
f 19//1 21//1 23//1
f 23//2 21//2 19//2
f 20//1 22//1 24//1
f 24//2 22//2 20//2
f 23//1 21//1 25//1
f 25//2 21//2 23//2
f 24//1 22//1 26//1
f 26//2 22//2 24//2
f 25//1 21//1 27//1
f 27//2 21//2 25//2
f 24//1 26//1 28//1
f 28//2 26//2 24//2
f 25//1 27//1 29//1
f 29//2 27//2 25//2
f 28//1 26//1 30//1
f 30//2 26//2 28//2
f 29//1 27//1 31//1
f 31//2 27//2 29//2
f 28//1 30//1 32//1
f 32//2 30//2 28//2
f 31//1 27//1 33//1
f 33//2 27//2 31//2
f 28//1 32//1 34//1
f 34//2 32//2 28//2
f 31//1 33//1 35//1
f 35//2 33//2 31//2
f 34//1 32//1 36//1
f 36//2 32//2 34//2
f 37//1 35//1 33//1
f 33//2 35//2 37//2
f 34//1 36//1 38//1
f 38//2 36//2 34//2
f 34//1 35//1 37//1
f 37//2 35//2 34//2
f 37//1 33//1 39//1
f 39//2 33//2 37//2
f 34//1 38//1 35//1
f 35//2 38//2 34//2
f 37//1 39//1 40//1
f 40//2 39//2 37//2
f 40//1 39//1 41//1
f 41//2 39//2 40//2
f 40//1 41//1 42//1
f 42//2 41//2 40//2
f 42//1 41//1 43//1
f 43//2 41//2 42//2
f 42//1 43//1 44//1
f 44//2 43//2 42//2
f 44//1 43//1 45//1
f 45//2 43//2 44//2
f 44//1 45//1 46//1
f 46//2 45//2 44//2
