# SSTK version 0.8.0
# 557
mtllib original-557.mtl
o c_1_1/c_1/mesh414/mesh414-geometry#mesh414-geometry
v 0.200754 -0.079189 -0.046879
v 0.200750 -0.079608 -0.043902
v 0.200646 -0.079397 -0.045398
v 0.201061 -0.079789 -0.042614
v 0.201077 -0.079011 -0.048144
v 0.201560 -0.079941 -0.041531
v 0.201581 -0.078862 -0.049209
v 0.202229 -0.080064 -0.040651
v 0.202229 -0.078738 -0.050090
v 0.203038 -0.078640 -0.050789
v 0.202775 -0.079397 -0.045398
v 0.202835 -0.079252 -0.046428
v 0.203056 -0.080160 -0.039972
v 0.203017 -0.079125 -0.047335
v 0.202833 -0.079539 -0.044387
v 0.203319 -0.079015 -0.048118
v 0.203008 -0.079665 -0.043494
v 0.204025 -0.078567 -0.051307
v 0.203300 -0.079774 -0.042719
v 0.203741 -0.078922 -0.048777
v 0.204031 -0.080228 -0.039489
v 0.204264 -0.078849 -0.049299
v 0.203709 -0.079866 -0.042062
v 0.205140 -0.078522 -0.051627
v 0.204221 -0.079939 -0.041540
v 0.204865 -0.078796 -0.049673
v 0.205131 -0.080268 -0.039201
v 0.205544 -0.078765 -0.049897
v 0.204824 -0.079992 -0.041166
v 0.206335 -0.078507 -0.051734
v 0.205517 -0.080023 -0.040942
v 0.206302 -0.078754 -0.049972
v 0.206335 -0.080282 -0.039105
v 0.207415 -0.078777 -0.049809
v 0.206302 -0.080034 -0.040868
v 0.207321 -0.078517 -0.051664
v 0.207282 -0.080020 -0.040970
v 0.208273 -0.078546 -0.051453
v 0.207404 -0.080270 -0.039186
v 0.208420 -0.078830 -0.049431
v 0.208212 -0.079976 -0.041278
v 0.209938 -0.078637 -0.050804
v 0.208344 -0.080238 -0.039419
v 0.209255 -0.078899 -0.048944
v 0.209067 -0.079910 -0.041749
v 0.209818 -0.078958 -0.048523
v 0.209173 -0.080196 -0.039716
v 0.209938 -0.078958 -0.048523
v 0.209818 -0.079827 -0.042338
v 0.209938 -0.080148 -0.040057
v 0.209938 -0.079827 -0.042338
vn 0 -0.9902680675042941 -0.1391731097637438
vn 0 0.9902680675042941 0.1391731097637438
usemtl material_0_0
f 1//1 2//1 3//1
f 2//1 1//1 4//1
f 3//2 2//2 1//2
f 4//2 1//2 2//2
f 4//1 1//1 5//1
f 5//2 1//2 4//2
f 4//1 5//1 6//1
f 6//2 5//2 4//2
f 6//1 5//1 7//1
f 7//2 5//2 6//2
f 6//1 7//1 8//1
f 8//2 7//2 6//2
f 8//1 7//1 9//1
f 9//2 7//2 8//2
f 8//1 9//1 10//1
f 10//2 9//2 8//2
f 8//1 10//1 11//1
f 11//2 10//2 8//2
f 11//1 10//1 12//1
f 12//2 10//2 11//2
f 11//1 13//1 8//1
f 8//2 13//2 11//2
f 12//1 10//1 14//1
f 14//2 10//2 12//2
f 13//1 11//1 15//1
f 15//2 11//2 13//2
f 14//1 10//1 16//1
f 16//2 10//2 14//2
f 13//1 15//1 17//1
f 17//2 15//2 13//2
f 16//1 10//1 18//1
f 18//2 10//2 16//2
f 13//1 17//1 19//1
f 19//2 17//2 13//2
f 16//1 18//1 20//1
f 20//2 18//2 16//2
f 13//1 19//1 21//1
f 21//2 19//2 13//2
f 20//1 18//1 22//1
f 22//2 18//2 20//2
f 21//1 19//1 23//1
f 23//2 19//2 21//2
f 22//1 18//1 24//1
f 24//2 18//2 22//2
f 21//1 23//1 25//1
f 25//2 23//2 21//2
f 22//1 24//1 26//1
f 26//2 24//2 22//2
f 21//1 25//1 27//1
f 27//2 25//2 21//2
f 26//1 24//1 28//1
f 28//2 24//2 26//2
f 27//1 25//1 29//1
f 29//2 25//2 27//2
f 28//1 24//1 30//1
f 30//2 24//2 28//2
f 27//1 29//1 31//1
f 31//2 29//2 27//2
f 28//1 30//1 32//1
f 32//2 30//2 28//2
f 27//1 31//1 33//1
f 33//2 31//2 27//2
f 32//1 30//1 34//1
f 34//2 30//2 32//2
f 33//1 31//1 35//1
f 35//2 31//2 33//2
f 34//1 30//1 36//1
f 36//2 30//2 34//2
f 33//1 35//1 37//1
f 37//2 35//2 33//2
f 34//1 36//1 38//1
f 38//2 36//2 34//2
f 33//1 37//1 39//1
f 39//2 37//2 33//2
f 34//1 38//1 40//1
f 40//2 38//2 34//2
f 39//1 37//1 41//1
f 41//2 37//2 39//2
f 40//1 38//1 42//1
f 42//2 38//2 40//2
f 39//1 41//1 43//1
f 43//2 41//2 39//2
f 40//1 42//1 44//1
f 44//2 42//2 40//2
f 43//1 41//1 45//1
f 45//2 41//2 43//2
f 44//1 42//1 46//1
f 46//2 42//2 44//2
f 43//1 45//1 47//1
f 47//2 45//2 43//2
f 46//1 42//1 48//1
f 48//2 42//2 46//2
f 47//1 45//1 49//1
f 49//2 45//2 47//2
f 47//1 49//1 50//1
f 50//2 49//2 47//2
f 50//1 49//1 51//1
f 51//2 49//2 50//2
