# SSTK version 0.8.0
# 143
mtllib original-143.mtl
o mesh108/mesh108-geometry#mesh108-geometry
v -0.174300 -0.133556 0.307748
v -0.225937 -0.140760 0.358880
v -0.225937 -0.133556 0.307748
v -0.174300 -0.140760 0.358880
v -0.225937 -0.128483 0.308506
v -0.174300 -0.135687 0.359638
v -0.225937 -0.135687 0.359638
v -0.174300 -0.128483 0.308506
vn 0 -0.9890159264483717 -0.1478089890076678
vn 0 0.9890159264483717 0.1478089890076678
vn -1 0 0
vn 1 0 0
vn 0 0.13951905445973906 -0.9902193865213205
vn 0 -0.13951905445973906 0.9902193865213205
usemtl material_0_0
f 1//1 2//1 3//1
f 2//1 1//1 4//1
f 3//2 2//2 1//2
f 4//2 1//2 2//2
f 2//3 5//3 3//3
f 3//4 5//4 2//4
f 5//5 1//5 3//5
f 3//6 1//6 5//6
f 1//4 6//4 4//4
f 4//3 6//3 1//3
f 6//6 2//6 4//6
f 4//5 2//5 6//5
f 5//3 2//3 7//3
f 7//4 2//4 5//4
f 1//5 5//5 8//5
f 8//6 5//6 1//6
f 6//4 1//4 8//4
f 8//3 1//3 6//3
f 2//6 6//6 7//6
f 7//5 6//5 2//5
f 6//2 5//2 7//2
f 7//1 5//1 6//1
f 5//2 6//2 8//2
f 8//1 6//1 5//1
