# SSTK version 0.8.0
# 435
mtllib original-435.mtl
o mesh317/mesh317-geometry#mesh317-geometry
v 0.524919 -0.104329 0.137507
v 0.526300 -0.104499 0.138680
v 0.524919 -0.105821 0.147788
v 0.527284 -0.104329 0.137507
v 0.526300 -0.105651 0.146614
v 0.527354 -0.104499 0.138680
v 0.527312 -0.105821 0.147788
v 0.528591 -0.104337 0.137561
v 0.527354 -0.105651 0.146614
v 0.528212 -0.104505 0.138717
v 0.528462 -0.105815 0.147746
v 0.528917 -0.104520 0.138825
v 0.528217 -0.105646 0.146577
v 0.529583 -0.104360 0.137724
v 0.528966 -0.105630 0.146469
v 0.529525 -0.104548 0.139017
v 0.529388 -0.105797 0.147622
v 0.530096 -0.104589 0.139302
v 0.529627 -0.105600 0.146262
v 0.530355 -0.104398 0.137982
v 0.530194 -0.105761 0.147375
v 0.530781 -0.104671 0.139864
v 0.530228 -0.105552 0.145930
v 0.531003 -0.104447 0.138321
v 0.530989 -0.105702 0.146966
v 0.531275 -0.104779 0.140610
v 0.530858 -0.105470 0.145367
v 0.531894 -0.104558 0.139085
v 0.531310 -0.105365 0.144643
v 0.531573 -0.104914 0.141536
v 0.531860 -0.105592 0.146206
v 0.531673 -0.105074 0.142637
v 0.531582 -0.105234 0.143739
v 0.532534 -0.105445 0.145198
v 0.532559 -0.104700 0.140065
v 0.532966 -0.105271 0.143997
v 0.532800 -0.104783 0.140635
v 0.532972 -0.104873 0.141257
v 0.533110 -0.105077 0.142658
vn 0 -0.9896265252593403 -0.1436639847112852
vn 0 0.9896265252593403 0.1436639847112852
usemtl material_0_0
f 1//1 2//1 3//1
f 2//1 1//1 4//1
f 3//2 2//2 1//2
f 4//2 1//2 2//2
f 5//1 3//1 2//1
f 2//2 3//2 5//2
f 2//1 4//1 6//1
f 6//2 4//2 2//2
f 3//1 5//1 7//1
f 7//2 5//2 3//2
f 6//1 4//1 8//1
f 8//2 4//2 6//2
f 7//1 5//1 9//1
f 9//2 5//2 7//2
f 6//1 8//1 10//1
f 10//2 8//2 6//2
f 7//1 9//1 11//1
f 11//2 9//2 7//2
f 10//1 8//1 12//1
f 12//2 8//2 10//2
f 11//1 9//1 13//1
f 13//2 9//2 11//2
f 12//1 8//1 14//1
f 14//2 8//2 12//2
f 11//1 13//1 15//1
f 15//2 13//2 11//2
f 12//1 14//1 16//1
f 16//2 14//2 12//2
f 11//1 15//1 17//1
f 17//2 15//2 11//2
f 16//1 14//1 18//1
f 18//2 14//2 16//2
f 17//1 15//1 19//1
f 19//2 15//2 17//2
f 18//1 14//1 20//1
f 20//2 14//2 18//2
f 17//1 19//1 21//1
f 21//2 19//2 17//2
f 18//1 20//1 22//1
f 22//2 20//2 18//2
f 21//1 19//1 23//1
f 23//2 19//2 21//2
f 22//1 20//1 24//1
f 24//2 20//2 22//2
f 21//1 23//1 25//1
f 25//2 23//2 21//2
f 22//1 24//1 26//1
f 26//2 24//2 22//2
f 25//1 23//1 27//1
f 27//2 23//2 25//2
f 26//1 24//1 28//1
f 28//2 24//2 26//2
f 25//1 27//1 29//1
f 29//2 27//2 25//2
f 26//1 28//1 30//1
f 30//2 28//2 26//2
f 25//1 29//1 31//1
f 31//2 29//2 25//2
f 30//1 28//1 32//1
f 32//2 28//2 30//2
f 31//1 29//1 33//1
f 33//2 29//2 31//2
f 32//1 28//1 31//1
f 31//2 28//2 32//2
f 31//1 33//1 32//1
f 32//2 33//2 31//2
f 31//1 28//1 34//1
f 34//2 28//2 31//2
f 34//1 28//1 35//1
f 35//2 28//2 34//2
f 34//1 35//1 36//1
f 36//2 35//2 34//2
f 36//1 35//1 37//1
f 37//2 35//2 36//2
f 36//1 37//1 38//1
f 38//2 37//2 36//2
f 36//1 38//1 39//1
f 39//2 38//2 36//2
