# SSTK version 0.8.0
# 133
mtllib original-133.mtl
o X1/X/mesh101/mesh101-geometry#mesh101-geometry
v -0.401213 -0.131131 0.327914
v -0.403953 -0.132282 0.335845
v -0.405155 -0.132049 0.334235
v -0.398866 -0.131131 0.327914
v -0.401333 -0.133467 0.344003
v -0.405296 -0.132532 0.337563
v -0.398855 -0.133467 0.344003
v -0.406498 -0.132298 0.335953
v -0.409042 -0.131131 0.327914
v -0.409325 -0.133467 0.344003
v -0.411509 -0.131131 0.327914
v -0.411662 -0.133467 0.344003
vn 0 -0.9896265277379349 -0.14366396763753486
vn 0 0.9896265277379349 0.14366396763753486
usemtl material_0_0
f 1//1 2//1 3//1
f 2//1 1//1 4//1
f 3//2 2//2 1//2
f 4//2 1//2 2//2
f 5//1 3//1 2//1
f 2//2 3//2 5//2
f 6//1 3//1 5//1
f 5//2 3//2 6//2
f 5//1 2//1 7//1
f 7//2 2//2 5//2
f 8//1 3//1 6//1
f 6//2 3//2 8//2
f 8//1 9//1 3//1
f 3//2 9//2 8//2
f 10//1 8//1 6//1
f 6//2 8//2 10//2
f 9//1 8//1 11//1
f 11//2 8//2 9//2
f 8//1 10//1 12//1
f 12//2 10//2 8//2
