# SSTK version 0.8.0
# 320
mtllib original-320.mtl
o mesh227/mesh227-geometry#mesh227-geometry
v 0.230326 -0.131626 0.331320
v 0.226920 -0.131822 0.332669
v 0.226920 -0.131626 0.331320
v 0.228684 -0.131822 0.332669
v 0.228684 -0.132972 0.340587
v 0.228941 -0.133488 0.344146
v 0.229431 -0.133433 0.343768
v 0.228618 -0.133140 0.341745
v 0.229822 -0.133363 0.343287
v 0.228366 -0.133527 0.344416
v 0.230102 -0.133279 0.342707
v 0.228361 -0.133254 0.342532
v 0.230270 -0.133181 0.342029
v 0.228098 -0.133297 0.342831
v 0.230326 -0.133068 0.341253
v 0.227728 -0.133327 0.343038
v 0.227707 -0.133551 0.344578
v 0.226963 -0.133559 0.344633
v 0.226649 -0.133351 0.343198
v 0.226356 -0.133555 0.344607
v 0.226208 -0.133345 0.343159
v 0.225784 -0.133333 0.343077
v 0.225688 -0.133544 0.344529
v 0.225688 -0.133333 0.343077
vn 0 -0.9896265277379349 -0.14366396763753486
vn 0 0.9896265277379349 0.14366396763753486
usemtl material_0_0
f 1//1 2//1 3//1
f 2//1 1//1 4//1
f 3//2 2//2 1//2
f 4//2 1//2 2//2
f 4//1 1//1 5//1
f 5//2 1//2 4//2
f 5//1 1//1 6//1
f 6//2 1//2 5//2
f 6//1 1//1 7//1
f 7//2 1//2 6//2
f 6//1 8//1 5//1
f 5//2 8//2 6//2
f 7//1 1//1 9//1
f 9//2 1//2 7//2
f 10//1 8//1 6//1
f 6//2 8//2 10//2
f 9//1 1//1 11//1
f 11//2 1//2 9//2
f 10//1 12//1 8//1
f 8//2 12//2 10//2
f 11//1 1//1 13//1
f 13//2 1//2 11//2
f 10//1 14//1 12//1
f 12//2 14//2 10//2
f 13//1 1//1 15//1
f 15//2 1//2 13//2
f 10//1 16//1 14//1
f 14//2 16//2 10//2
f 17//1 16//1 10//1
f 10//2 16//2 17//2
f 18//1 16//1 17//1
f 17//2 16//2 18//2
f 18//1 19//1 16//1
f 16//2 19//2 18//2
f 20//1 19//1 18//1
f 18//2 19//2 20//2
f 20//1 21//1 19//1
f 19//2 21//2 20//2
f 20//1 22//1 21//1
f 21//2 22//2 20//2
f 23//1 22//1 20//1
f 20//2 22//2 23//2
f 22//1 23//1 24//1
f 24//2 23//2 22//2
