# SSTK version 0.8.0
# 327
mtllib original-327.mtl
o mesh232/mesh232-geometry#mesh232-geometry
v 0.256387 -0.102963 0.127782
v 0.253365 -0.103159 0.129130
v 0.253365 -0.102963 0.127782
v 0.256387 -0.103159 0.129130
v 0.253365 -0.103825 0.133720
v 0.253365 -0.102560 0.125007
v 0.252886 -0.104330 0.137202
v 0.252474 -0.104282 0.136871
v 0.253373 -0.104365 0.137438
v 0.252145 -0.104219 0.136438
v 0.253391 -0.103989 0.134853
v 0.251910 -0.104141 0.135895
v 0.253935 -0.104385 0.137580
v 0.251769 -0.104046 0.135243
v 0.253592 -0.104097 0.135596
v 0.251723 -0.103935 0.134481
v 0.253786 -0.104136 0.135861
v 0.251723 -0.103159 0.129130
v 0.254072 -0.104163 0.136050
v 0.251723 -0.102963 0.127782
v 0.254570 -0.104392 0.137627
v 0.251723 -0.102560 0.125007
v 0.250613 -0.103159 0.129130
v 0.254972 -0.104185 0.136201
v 0.250613 -0.102963 0.127782
v 0.255448 -0.104381 0.137554
v 0.255749 -0.104168 0.136085
v 0.256387 -0.104352 0.137351
v 0.256291 -0.104140 0.135890
v 0.256387 -0.104140 0.135890
vn 0 -0.9896265277379349 -0.14366396763753486
vn 0 0.9896265277379349 0.14366396763753486
usemtl material_0_0
f 1//1 2//1 3//1
f 2//1 1//1 4//1
f 3//2 2//2 1//2
f 4//2 1//2 2//2
f 5//1 3//1 2//1
f 2//2 3//2 5//2
f 5//1 6//1 3//1
f 3//2 6//2 5//2
f 7//1 6//1 5//1
f 5//2 6//2 7//2
f 8//1 6//1 7//1
f 7//2 6//2 8//2
f 7//1 5//1 9//1
f 9//2 5//2 7//2
f 10//1 6//1 8//1
f 8//2 6//2 10//2
f 9//1 5//1 11//1
f 11//2 5//2 9//2
f 12//1 6//1 10//1
f 10//2 6//2 12//2
f 9//1 11//1 13//1
f 13//2 11//2 9//2
f 14//1 6//1 12//1
f 12//2 6//2 14//2
f 13//1 11//1 15//1
f 15//2 11//2 13//2
f 16//1 6//1 14//1
f 14//2 6//2 16//2
f 13//1 15//1 17//1
f 17//2 15//2 13//2
f 18//1 6//1 16//1
f 16//2 6//2 18//2
f 13//1 17//1 19//1
f 19//2 17//2 13//2
f 20//1 6//1 18//1
f 18//2 6//2 20//2
f 13//1 19//1 21//1
f 21//2 19//2 13//2
f 6//1 20//1 22//1
f 22//2 20//2 6//2
f 23//1 20//1 18//1
f 18//2 20//2 23//2
f 21//1 19//1 24//1
f 24//2 19//2 21//2
f 20//1 23//1 25//1
f 25//2 23//2 20//2
f 21//1 24//1 26//1
f 26//2 24//2 21//2
f 26//1 24//1 27//1
f 27//2 24//2 26//2
f 26//1 27//1 28//1
f 28//2 27//2 26//2
f 28//1 27//1 29//1
f 29//2 27//2 28//2
f 28//1 29//1 30//1
f 30//2 29//2 28//2
