# SSTK version 0.8.0
# 366
mtllib original-366.mtl
o mesh264/mesh264-geometry#mesh264-geometry
v -0.647627 -0.089467 0.032092
v -0.648283 -0.089721 0.033844
v -0.648283 -0.089542 0.032607
v -0.647139 -0.089611 0.033085
v -0.648283 -0.090663 0.040332
v -0.646978 -0.089412 0.031712
v -0.648283 -0.088906 0.028227
v -0.646562 -0.089580 0.032867
v -0.649761 -0.090663 0.040332
v -0.646316 -0.089378 0.031479
v -0.649761 -0.088906 0.028227
v -0.646003 -0.089569 0.032794
v -0.645618 -0.089367 0.031401
v -0.645504 -0.089575 0.032834
v -0.645005 -0.089374 0.031454
v -0.645123 -0.089592 0.032953
v -0.644836 -0.089621 0.033155
v -0.644462 -0.089397 0.031612
v -0.644620 -0.089663 0.033439
v -0.644396 -0.089783 0.034268
v -0.643991 -0.089436 0.031876
v -0.644337 -0.089945 0.035384
v -0.644337 -0.090663 0.040332
v -0.642859 -0.090663 0.040332
v -0.643590 -0.089489 0.032245
v -0.643270 -0.089557 0.032715
v -0.643041 -0.089639 0.033279
v -0.642904 -0.089735 0.033938
v -0.642859 -0.089844 0.034692
vn 0 -0.9896265257383052 -0.14366398141194375
vn 0 0.9896265257383052 0.14366398141194375
usemtl material_0_0
f 1//1 2//1 3//1
f 2//1 1//1 4//1
f 3//2 2//2 1//2
f 4//2 1//2 2//2
f 5//1 3//1 2//1
f 2//2 3//2 5//2
f 4//1 1//1 6//1
f 6//2 1//2 4//2
f 5//1 7//1 3//1
f 3//2 7//2 5//2
f 4//1 6//1 8//1
f 8//2 6//2 4//2
f 9//1 7//1 5//1
f 5//2 7//2 9//2
f 8//1 6//1 10//1
f 10//2 6//2 8//2
f 7//1 9//1 11//1
f 11//2 9//2 7//2
f 8//1 10//1 12//1
f 12//2 10//2 8//2
f 12//1 10//1 13//1
f 13//2 10//2 12//2
f 12//1 13//1 14//1
f 14//2 13//2 12//2
f 14//1 13//1 15//1
f 15//2 13//2 14//2
f 14//1 15//1 16//1
f 16//2 15//2 14//2
f 16//1 15//1 17//1
f 17//2 15//2 16//2
f 17//1 15//1 18//1
f 18//2 15//2 17//2
f 17//1 18//1 19//1
f 19//2 18//2 17//2
f 19//1 18//1 20//1
f 20//2 18//2 19//2
f 20//1 18//1 21//1
f 21//2 18//2 20//2
f 20//1 21//1 22//1
f 22//2 21//2 20//2
f 22//1 21//1 23//1
f 23//2 21//2 22//2
f 23//1 21//1 24//1
f 24//2 21//2 23//2
f 24//1 21//1 25//1
f 25//2 21//2 24//2
f 24//1 25//1 26//1
f 26//2 25//2 24//2
f 24//1 26//1 27//1
f 27//2 26//2 24//2
f 24//1 27//1 28//1
f 28//2 27//2 24//2
f 24//1 28//1 29//1
f 29//2 28//2 24//2
