# SSTK version 0.8.0
# 23
mtllib original-23.mtl
o Group23/mesh21/mesh21-geometry#mesh21-geometry
v -0.063304 -0.126158 -0.100827
v -0.063304 -0.211650 -0.100827
v -0.089261 -0.126158 -0.145786
v -0.089261 -0.211650 -0.145786
v -0.095944 -0.136845 -0.157361
v -0.095944 -0.200964 -0.157361
v -0.128274 -0.136845 -0.213359
v -0.128274 -0.200964 -0.213359
vn 0.8660253028382762 0 -0.5000001748438417
vn -0.8660253028382762 0 0.5000001748438417
usemtl material_0_0
f 1//1 2//1 3//1
f 3//2 2//2 1//2
f 4//1 3//1 2//1
f 2//2 3//2 4//2
f 5//1 3//1 4//1
f 4//2 3//2 5//2
f 6//1 5//1 4//1
f 4//2 5//2 6//2
f 7//1 5//1 6//1
f 6//2 5//2 7//2
f 8//1 7//1 6//1
f 6//2 7//2 8//2
