# SSTK version 0.8.0
# 530
mtllib original-530.mtl
o mesh394/mesh394-geometry#mesh394-geometry
v -0.292208 -0.162115 0.548065
v -0.292206 -0.162372 0.549846
v -0.292270 -0.162243 0.548952
v -0.292023 -0.162001 0.547273
v -0.292015 -0.162485 0.550632
v -0.291714 -0.161900 0.546577
v -0.291696 -0.162583 0.551310
v -0.291281 -0.161814 0.545977
v -0.291250 -0.162665 0.551879
v -0.290748 -0.161744 0.545493
v -0.290949 -0.162113 0.548055
v -0.290755 -0.161990 0.547202
v -0.290949 -0.162256 0.549041
v -0.290312 -0.161894 0.546535
v -0.290907 -0.162346 0.549669
v -0.286860 -0.162113 0.548055
v -0.290139 -0.161694 0.545148
v -0.290688 -0.162730 0.552330
v -0.285594 -0.162256 0.549041
v -0.289652 -0.161829 0.546086
v -0.290779 -0.162426 0.550219
v -0.286452 -0.161776 0.545720
v -0.289455 -0.161664 0.544940
v -0.290568 -0.162494 0.550689
v -0.286902 -0.161722 0.545340
v -0.286086 -0.161847 0.546207
v -0.289250 -0.161813 0.545971
v -0.290023 -0.162777 0.552652
v -0.286985 -0.161984 0.547158
v -0.285816 -0.161931 0.546792
v -0.288694 -0.161654 0.544871
v -0.290271 -0.162550 0.551081
v -0.287303 -0.161892 0.546521
v -0.285650 -0.162033 0.547496
v -0.288770 -0.161807 0.545932
v -0.289900 -0.162595 0.551390
v -0.287421 -0.161684 0.545076
v -0.285594 -0.162155 0.548342
v -0.288286 -0.161813 0.545970
v -0.289254 -0.162805 0.552845
v -0.287563 -0.161856 0.546268
v -0.288016 -0.161661 0.544922
v -0.289463 -0.162627 0.551610
v -0.287888 -0.161829 0.546083
v -0.288962 -0.162646 0.551742
v -0.288382 -0.162814 0.552909
v -0.288396 -0.162652 0.551787
v -0.287556 -0.162638 0.551691
v -0.287604 -0.162806 0.552855
v -0.286916 -0.162783 0.552697
v -0.286812 -0.162603 0.551444
v -0.286307 -0.162753 0.552488
v -0.286217 -0.162559 0.551140
v -0.285740 -0.162721 0.552266
v -0.285816 -0.162519 0.550862
v -0.285740 -0.162519 0.550862
vn 0 -0.9897452115148733 -0.142844027818384
vn 0 0.9897452115148733 0.142844027818384
usemtl material_0_0
f 1//1 2//1 3//1
f 2//1 1//1 4//1
f 3//2 2//2 1//2
f 4//2 1//2 2//2
f 2//1 4//1 5//1
f 5//2 4//2 2//2
f 5//1 4//1 6//1
f 6//2 4//2 5//2
f 5//1 6//1 7//1
f 7//2 6//2 5//2
f 7//1 6//1 8//1
f 8//2 6//2 7//2
f 7//1 8//1 9//1
f 9//2 8//2 7//2
f 9//1 8//1 10//1
f 10//2 8//2 9//2
f 9//1 10//1 11//1
f 11//2 10//2 9//2
f 11//1 10//1 12//1
f 12//2 10//2 11//2
f 13//1 9//1 11//1
f 11//2 9//2 13//2
f 12//1 10//1 14//1
f 14//2 10//2 12//2
f 15//1 9//1 13//1
f 13//2 9//2 15//2
f 16//1 13//1 11//1
f 11//2 13//2 16//2
f 14//1 10//1 17//1
f 17//2 10//2 14//2
f 9//1 15//1 18//1
f 18//2 15//2 9//2
f 13//1 16//1 19//1
f 19//2 16//2 13//2
f 14//1 17//1 20//1
f 20//2 17//2 14//2
f 18//1 15//1 21//1
f 21//2 15//2 18//2
f 19//1 16//1 22//1
f 22//2 16//2 19//2
f 20//1 17//1 23//1
f 23//2 17//2 20//2
f 18//1 21//1 24//1
f 24//2 21//2 18//2
f 16//1 25//1 22//1
f 22//2 25//2 16//2
f 19//1 22//1 26//1
f 26//2 22//2 19//2
f 20//1 23//1 27//1
f 27//2 23//2 20//2
f 18//1 24//1 28//1
f 28//2 24//2 18//2
f 29//1 25//1 16//1
f 16//2 25//2 29//2
f 19//1 26//1 30//1
f 30//2 26//2 19//2
f 27//1 23//1 31//1
f 31//2 23//2 27//2
f 28//1 24//1 32//1
f 32//2 24//2 28//2
f 33//1 25//1 29//1
f 29//2 25//2 33//2
f 19//1 30//1 34//1
f 34//2 30//2 19//2
f 27//1 31//1 35//1
f 35//2 31//2 27//2
f 28//1 32//1 36//1
f 36//2 32//2 28//2
f 33//1 37//1 25//1
f 25//2 37//2 33//2
f 19//1 34//1 38//1
f 38//2 34//2 19//2
f 35//1 31//1 39//1
f 39//2 31//2 35//2
f 28//1 36//1 40//1
f 40//2 36//2 28//2
f 41//1 37//1 33//1
f 33//2 37//2 41//2
f 39//1 31//1 42//1
f 42//2 31//2 39//2
f 40//1 36//1 43//1
f 43//2 36//2 40//2
f 44//1 37//1 41//1
f 41//2 37//2 44//2
f 39//1 42//1 44//1
f 44//2 42//2 39//2
f 40//1 43//1 45//1
f 45//2 43//2 40//2
f 44//1 42//1 37//1
f 37//2 42//2 44//2
f 40//1 45//1 46//1
f 46//2 45//2 40//2
f 46//1 45//1 47//1
f 47//2 45//2 46//2
f 46//1 47//1 48//1
f 48//2 47//2 46//2
f 46//1 48//1 49//1
f 49//2 48//2 46//2
f 49//1 48//1 50//1
f 50//2 48//2 49//2
f 50//1 48//1 51//1
f 51//2 48//2 50//2
f 50//1 51//1 52//1
f 52//2 51//2 50//2
f 52//1 51//1 53//1
f 53//2 51//2 52//2
f 52//1 53//1 54//1
f 54//2 53//2 52//2
f 54//1 53//1 55//1
f 55//2 53//2 54//2
f 54//1 55//1 56//1
f 56//2 55//2 54//2
