# SSTK version 0.8.0
# 371
mtllib original-371.mtl
o mesh268/mesh268-geometry#mesh268-geometry
v -0.543486 -0.089441 0.032292
v -0.545807 -0.089810 0.034831
v -0.545807 -0.089469 0.032480
v -0.541090 -0.089810 0.034831
v -0.541868 -0.089360 0.031728
v -0.541304 -0.089293 0.031269
v -0.540878 -0.089202 0.030641
v -0.541090 -0.092315 0.052085
v -0.537736 -0.092315 0.052085
v -0.533124 -0.092696 0.054713
v -0.540444 -0.088947 0.028884
v -0.545807 -0.092696 0.054713
v -0.533124 -0.092315 0.052085
v -0.537736 -0.088947 0.028884
v -0.545807 -0.092315 0.052085
vn 0 -0.9896265277379349 -0.14366396763753486
vn 0 0.9896265277379349 0.14366396763753486
usemtl material_0_0
f 1//1 2//1 3//1
f 2//1 1//1 4//1
f 3//2 2//2 1//2
f 4//2 1//2 2//2
f 4//1 1//1 5//1
f 5//2 1//2 4//2
f 4//1 5//1 6//1
f 6//2 5//2 4//2
f 4//1 6//1 7//1
f 7//2 6//2 4//2
f 4//1 7//1 8//1
f 8//2 7//2 4//2
f 9//1 8//1 7//1
f 7//2 8//2 9//2
f 10//1 8//1 9//1
f 9//2 8//2 10//2
f 9//1 7//1 11//1
f 11//2 7//2 9//2
f 12//1 8//1 10//1
f 10//2 8//2 12//2
f 10//1 9//1 13//1
f 13//2 9//2 10//2
f 9//1 11//1 14//1
f 14//2 11//2 9//2
f 8//1 12//1 15//1
f 15//2 12//2 8//2
