# SSTK version 0.8.0
# 348
mtllib original-348.mtl
o mesh249/mesh249-geometry#mesh249-geometry
v 0.596169 -0.113538 0.202925
v 0.595524 -0.113809 0.204791
v 0.595524 -0.113611 0.203425
v 0.596760 -0.113694 0.204000
v 0.595524 -0.115382 0.215631
v 0.596882 -0.113478 0.202513
v 0.595524 -0.113464 0.202414
v 0.595524 -0.114603 0.210263
v 0.597422 -0.113661 0.203770
v 0.593882 -0.115382 0.215631
v 0.595524 -0.114795 0.211585
v 0.597663 -0.113438 0.202237
v 0.593882 -0.113464 0.202414
v 0.596629 -0.114665 0.210686
v 0.598109 -0.113649 0.203693
v 0.596668 -0.114869 0.212095
v 0.598511 -0.113425 0.202146
v 0.597681 -0.114681 0.210798
v 0.598666 -0.113658 0.203750
v 0.597952 -0.114893 0.212259
v 0.599303 -0.113437 0.202228
v 0.598283 -0.114673 0.210741
v 0.599140 -0.113683 0.203921
v 0.598804 -0.114880 0.212170
v 0.599531 -0.113724 0.204206
v 0.598815 -0.114647 0.210567
v 0.600004 -0.113473 0.202474
v 0.599580 -0.114841 0.211902
v 0.599839 -0.113782 0.204605
v 0.599275 -0.114605 0.210278
v 0.600238 -0.113941 0.205702
v 0.599664 -0.114547 0.209873
v 0.600611 -0.113532 0.202885
v 0.600278 -0.114776 0.211455
v 0.600372 -0.114154 0.207168
v 0.599974 -0.114472 0.209358
v 0.600900 -0.114685 0.210829
v 0.600195 -0.114381 0.208735
v 0.601127 -0.113616 0.203460
v 0.601410 -0.114573 0.210052
v 0.601538 -0.113719 0.204173
v 0.601775 -0.114442 0.209153
v 0.601831 -0.113839 0.204998
v 0.601993 -0.114294 0.208131
v 0.602007 -0.113975 0.205936
v 0.602066 -0.114128 0.206986
vn 0 -0.9896265277379349 -0.14366396763753486
vn 0 0.9896265277379349 0.14366396763753486
usemtl material_0_0
f 1//1 2//1 3//1
f 2//1 1//1 4//1
f 3//2 2//2 1//2
f 4//2 1//2 2//2
f 5//1 3//1 2//1
f 2//2 3//2 5//2
f 4//1 1//1 6//1
f 6//2 1//2 4//2
f 5//1 7//1 3//1
f 3//2 7//2 5//2
f 5//1 2//1 8//1
f 8//2 2//2 5//2
f 4//1 6//1 9//1
f 9//2 6//2 4//2
f 10//1 7//1 5//1
f 5//2 7//2 10//2
f 5//1 8//1 11//1
f 11//2 8//2 5//2
f 9//1 6//1 12//1
f 12//2 6//2 9//2
f 7//1 10//1 13//1
f 13//2 10//2 7//2
f 14//1 11//1 8//1
f 8//2 11//2 14//2
f 9//1 12//1 15//1
f 15//2 12//2 9//2
f 11//1 14//1 16//1
f 16//2 14//2 11//2
f 15//1 12//1 17//1
f 17//2 12//2 15//2
f 16//1 14//1 18//1
f 18//2 14//2 16//2
f 15//1 17//1 19//1
f 19//2 17//2 15//2
f 16//1 18//1 20//1
f 20//2 18//2 16//2
f 19//1 17//1 21//1
f 21//2 17//2 19//2
f 20//1 18//1 22//1
f 22//2 18//2 20//2
f 19//1 21//1 23//1
f 23//2 21//2 19//2
f 20//1 22//1 24//1
f 24//2 22//2 20//2
f 23//1 21//1 25//1
f 25//2 21//2 23//2
f 24//1 22//1 26//1
f 26//2 22//2 24//2
f 25//1 21//1 27//1
f 27//2 21//2 25//2
f 24//1 26//1 28//1
f 28//2 26//2 24//2
f 25//1 27//1 29//1
f 29//2 27//2 25//2
f 28//1 26//1 30//1
f 30//2 26//2 28//2
f 29//1 27//1 31//1
f 31//2 27//2 29//2
f 28//1 30//1 32//1
f 32//2 30//2 28//2
f 31//1 27//1 33//1
f 33//2 27//2 31//2
f 28//1 32//1 34//1
f 34//2 32//2 28//2
f 31//1 33//1 35//1
f 35//2 33//2 31//2
f 34//1 32//1 36//1
f 36//2 32//2 34//2
f 37//1 35//1 33//1
f 33//2 35//2 37//2
f 34//1 36//1 38//1
f 38//2 36//2 34//2
f 34//1 35//1 37//1
f 37//2 35//2 34//2
f 37//1 33//1 39//1
f 39//2 33//2 37//2
f 34//1 38//1 35//1
f 35//2 38//2 34//2
f 37//1 39//1 40//1
f 40//2 39//2 37//2
f 40//1 39//1 41//1
f 41//2 39//2 40//2
f 40//1 41//1 42//1
f 42//2 41//2 40//2
f 42//1 41//1 43//1
f 43//2 41//2 42//2
f 42//1 43//1 44//1
f 44//2 43//2 42//2
f 44//1 43//1 45//1
f 45//2 43//2 44//2
f 44//1 45//1 46//1
f 46//2 45//2 44//2
