# SSTK version 0.8.0
# 565
mtllib original-565.mtl
o mesh420/mesh420-geometry#mesh420-geometry
v -0.376744 -0.216780 0.174471
v -0.404102 -0.216780 0.181311
v -0.404102 -0.216780 0.174471
v -0.376744 -0.216780 0.181311
v -0.409631 -0.216780 0.181311
v -0.718711 -0.199681 0.174471
v -0.376744 -0.199681 0.174471
v -0.404102 -0.216780 0.191570
v -0.414361 -0.216780 0.181311
v -0.408304 -0.216780 0.181486
v -0.414361 -0.216780 0.174471
v -0.376744 -0.216780 0.191570
v -0.404502 -0.216780 0.186440
v -0.410959 -0.216780 0.181486
v -0.407066 -0.216780 0.181998
v -0.409631 -0.216780 0.191570
v -0.677675 -0.216780 0.174471
v -0.718711 -0.184293 0.174471
v -0.718711 -0.199681 0.195601
v -0.376744 -0.216780 0.396750
v -0.404102 -0.216780 0.396750
v -0.404677 -0.216780 0.187768
v -0.404677 -0.216780 0.185113
v -0.677675 -0.216780 0.181311
v -0.412196 -0.216780 0.181998
v -0.410959 -0.216780 0.191395
v -0.406004 -0.216780 0.182813
v -0.408304 -0.216780 0.191395
v -0.687934 -0.216780 0.174471
v -0.376744 -0.184293 0.174471
v -0.701613 -0.199681 0.195601
v -0.718711 -0.216780 0.195601
v -0.376744 -0.216780 0.407009
v -0.405189 -0.216780 0.189005
v -0.405189 -0.216780 0.183875
v -0.677675 -0.216780 0.186440
v -0.413258 -0.216780 0.182813
v -0.412196 -0.216780 0.190883
v -0.407066 -0.216780 0.190883
v -0.414361 -0.216780 0.191570
v -0.718711 -0.216780 0.174471
v -0.687934 -0.216780 0.181311
v -0.682805 -0.216780 0.181311
v -0.376744 -0.184293 0.413848
v -0.718711 -0.199681 0.392232
v -0.701613 -0.199681 0.202440
v -0.718711 -0.216780 0.191570
v -0.376744 -0.199681 0.413848
v -0.404102 -0.216780 0.407009
v -0.409631 -0.216780 0.396750
v -0.406004 -0.216780 0.190067
v -0.677675 -0.216780 0.191570
v -0.414074 -0.216780 0.183875
v -0.413258 -0.216780 0.190067
v -0.414361 -0.216780 0.396750
v -0.718711 -0.216780 0.181311
v -0.718711 -0.184293 0.413848
v -0.718711 -0.199681 0.413848
v -0.701613 -0.199681 0.392232
v -0.701613 -0.216780 0.202440
v -0.701613 -0.216780 0.195601
v -0.687934 -0.216780 0.191570
v -0.376744 -0.216780 0.413848
v -0.404102 -0.216780 0.413848
v -0.404502 -0.216780 0.401879
v -0.408304 -0.216780 0.396925
v -0.414361 -0.216780 0.184569
v -0.414074 -0.216780 0.189005
v -0.677675 -0.216780 0.396750
v -0.718711 -0.216780 0.413848
v -0.701613 -0.216780 0.392232
v -0.701613 -0.216780 0.209280
v -0.409631 -0.216780 0.407009
v -0.404677 -0.216780 0.403207
v -0.404677 -0.216780 0.400552
v -0.410959 -0.216780 0.396925
v -0.407066 -0.216780 0.397437
v -0.414586 -0.216780 0.187768
v -0.677675 -0.216780 0.401879
v -0.718711 -0.216780 0.407009
v -0.718711 -0.216780 0.392232
v -0.687934 -0.216780 0.186440
v -0.414361 -0.216780 0.413848
v -0.408304 -0.216780 0.406834
v -0.405189 -0.216780 0.404444
v -0.405189 -0.216780 0.399314
v -0.412196 -0.216780 0.397437
v -0.410959 -0.216780 0.406834
v -0.406004 -0.216780 0.398252
v -0.682805 -0.216780 0.191570
v -0.414586 -0.216780 0.185113
v -0.414361 -0.216780 0.188311
v -0.677675 -0.216780 0.407009
v -0.687934 -0.216780 0.413848
v -0.718711 -0.216780 0.396750
v -0.687934 -0.216780 0.407009
v -0.677675 -0.216780 0.413848
v -0.414361 -0.216780 0.407009
v -0.407066 -0.216780 0.406321
v -0.406004 -0.216780 0.405506
v -0.413258 -0.216780 0.398252
v -0.412196 -0.216780 0.406321
v -0.682805 -0.216780 0.396750
v -0.414761 -0.216780 0.186440
v -0.682805 -0.216780 0.407009
v -0.687934 -0.216780 0.396750
v -0.414074 -0.216780 0.399314
v -0.413258 -0.216780 0.405506
v -0.687934 -0.216780 0.401879
v -0.414361 -0.216780 0.400008
v -0.414074 -0.216780 0.404444
v -0.684132 -0.216780 0.406834
v -0.681477 -0.216780 0.396925
v -0.414586 -0.216780 0.403207
v -0.684132 -0.216780 0.396925
v -0.681477 -0.216780 0.406834
v -0.414586 -0.216780 0.400552
v -0.414361 -0.216780 0.403750
v -0.685369 -0.216780 0.406321
v -0.680240 -0.216780 0.397437
v -0.414761 -0.216780 0.401879
v -0.685369 -0.216780 0.397437
v -0.680240 -0.216780 0.406321
v -0.686432 -0.216780 0.405506
v -0.679177 -0.216780 0.398252
v -0.686432 -0.216780 0.398252
v -0.679177 -0.216780 0.405506
v -0.687247 -0.216780 0.404444
v -0.678362 -0.216780 0.399314
v -0.687247 -0.216780 0.399314
v -0.678362 -0.216780 0.404444
v -0.687759 -0.216780 0.403207
v -0.677850 -0.216780 0.400552
v -0.687759 -0.216780 0.400552
v -0.677850 -0.216780 0.403207
vt -1 1.002524
vt -0.92 0.97388
vt -0.92 1.002524
vt -1 0.97388
vt -0.90383 0.97388
vt -0.92 0.930915
vt -0.89 0.97388
vt -1 0.930915
vt -0.89 1.002524
vt -0.92 0.071609
vt -0.12 0.97388
vt -0.12 1.002524
vt -1 0.071609
vt -0.90383 0.930915
vt -0.12 0.952397
vt -0.09 0.97388
vt -0.09 1.002524
vt -0.105 0.97388
vt -0.92 0.028644
vt -1 0.028644
vt -0.90383 0.071609
vt -0.12 0.930915
vt -0.89 0.071609
vt -0.89 0.930915
vt 0 0.97388
vt 0 1.002524
vt -0.09 0.930915
vt 0 0.914032
vt 0 0.930915
vt -0.92 0
vt -0.12 0.071609
vt -0.05 0.914032
vt -1 0
vt -0.90383 0.028644
vt -0.12 0.050126
vt -0.05 0.885388
vt -0.05 0.856744
vt -0.09 0.952397
vt -0.89 0
vt -0.105 0.930915
vt -0.12 0.028644
vt -0.09 0.028644
vt 0 0
vt 0 0.028644
vt -0.05 0.09053
vt 0 0.071609
vt 0 0.09053
vt -0.89 0.028644
vt -0.105 0.071609
vt -0.09 0
vt -0.09 0.071609
vt -0.12 0
vt -0.105 0.028644
vt -0.09 0.050126
vt 0 0.983987
vt 1 0
vt 1 0.983987
vn 0 -1 0
vn 0 1 0
vn 0 0 1
vn -1 0 0
vn 1 0 0
vn 0 0 -1
usemtl material_0_0
f 1/1/1 2/2/1 3/3/1
f 2/2/1 1/1/1 4/4/1
f 5/5/1 3/3/1 2/2/1
f 4/4/1 8/6/1 2/2/1
f 9/7/1 3/3/1 5/5/1
f 8/6/1 4/4/1 12/8/1
f 3/3/1 9/7/1 11/9/1
f 12/8/1 21/10/1 8/6/1
f 24/11/1 11/9/1 9/7/1
f 11/9/1 24/11/1 17/12/1
f 21/10/1 12/8/1 20/13/1
f 21/10/1 16/14/1 8/6/1
f 9/7/1 36/15/1 24/11/1
f 17/12/1 42/16/1 29/17/1
f 43/18/1 17/12/1 24/11/1
f 49/19/1 20/13/1 33/20/1
f 20/13/1 49/19/1 21/10/1
f 50/21/1 16/14/1 21/10/1
f 36/15/1 9/7/1 52/22/1
f 16/14/1 55/23/1 40/24/1
f 29/17/1 56/25/1 41/26/1
f 42/16/1 17/12/1 43/18/1
f 56/25/1 29/17/1 42/16/1
f 62/27/1 32/28/1 47/29/1
f 33/20/1 64/30/1 49/19/1
f 55/23/1 16/14/1 50/21/1
f 52/22/1 9/7/1 40/24/1
f 69/31/1 40/24/1 55/23/1
f 42/16/1 47/29/1 56/25/1
f 32/28/1 62/27/1 61/32/1
f 47/29/1 42/16/1 62/27/1
f 64/30/1 33/20/1 63/33/1
f 64/30/1 73/34/1 49/19/1
f 40/24/1 69/31/1 52/22/1
f 55/23/1 79/35/1 69/31/1
f 61/32/1 62/27/1 60/36/1
f 60/36/1 62/27/1 72/37/1
f 62/27/1 42/16/1 82/38/1
f 83/39/1 73/34/1 64/30/1
f 69/31/1 90/40/1 52/22/1
f 79/35/1 55/23/1 93/41/1
f 96/42/1 70/43/1 80/44/1
f 72/37/1 62/27/1 71/45/1
f 71/45/1 95/46/1 81/47/1
f 73/34/1 83/39/1 98/48/1
f 103/49/1 90/40/1 69/31/1
f 93/41/1 55/23/1 98/48/1
f 70/43/1 96/42/1 94/50/1
f 106/51/1 80/44/1 95/46/1
f 80/44/1 106/51/1 96/42/1
f 106/51/1 71/45/1 62/27/1
f 95/46/1 71/45/1 106/51/1
f 97/52/1 98/48/1 83/39/1
f 106/51/1 90/40/1 103/49/1
f 98/48/1 97/52/1 93/41/1
f 97/52/1 105/53/1 93/41/1
f 94/50/1 105/53/1 97/52/1
f 105/53/1 94/50/1 96/42/1
f 96/42/1 106/51/1 109/54/1
f 90/40/1 106/51/1 62/27/1
usemtl material_1_0
f 3//2 2//2 1//2
f 4//2 1//2 2//2
f 2//2 3//2 5//2
f 1//3 6//3 3//3
f 1//4 4//4 7//4
f 2//2 8//2 4//2
f 5//2 3//2 9//2
f 2//1 10//1 5//1
f 5//2 10//2 2//2
f 3//3 6//3 11//3
f 7//3 6//3 1//3
f 4//4 12//4 7//4
f 12//2 4//2 8//2
f 8//1 13//1 2//1
f 2//2 13//2 8//2
f 11//2 9//2 3//2
f 14//1 9//1 5//1
f 5//2 9//2 14//2
f 10//1 2//1 15//1
f 15//2 2//2 10//2
f 5//2 16//2 10//2
f 10//1 16//1 5//1
f 16//1 5//1 10//1
f 10//2 5//2 16//2
f 11//3 6//3 17//3
f 6//3 7//3 18//3
f 7//1 19//1 6//1
f 6//2 19//2 7//2
f 12//4 20//4 7//4
f 8//2 21//2 12//2
f 8//1 22//1 13//1
f 13//2 22//2 8//2
f 23//1 2//1 13//1
f 13//2 2//2 23//2
f 9//2 11//2 24//2
f 25//1 9//1 14//1
f 14//2 9//2 25//2
f 14//2 26//2 5//2
f 5//1 26//1 14//1
f 26//1 14//1 5//1
f 5//2 14//2 26//2
f 15//1 2//1 27//1
f 27//2 2//2 15//2
f 10//2 28//2 15//2
f 15//1 28//1 10//1
f 28//1 10//1 15//1
f 15//2 10//2 28//2
f 5//2 26//2 16//2
f 16//1 26//1 5//1
f 26//1 5//1 16//1
f 16//2 5//2 26//2
f 10//2 16//2 28//2
f 28//1 16//1 10//1
f 16//1 10//1 28//1
f 28//2 10//2 16//2
f 17//3 6//3 29//3
f 17//2 24//2 11//2
f 30//3 18//3 7//3
f 6//5 18//5 19//5
f 19//1 7//1 31//1
f 31//2 7//2 19//2
f 19//5 32//5 6//5
f 20//4 33//4 7//4
f 20//2 12//2 21//2
f 8//2 16//2 21//2
f 8//1 34//1 22//1
f 22//2 34//2 8//2
f 23//2 22//2 13//2
f 13//1 22//1 23//1
f 22//1 23//1 13//1
f 13//2 23//2 22//2
f 35//1 2//1 23//1
f 23//2 2//2 35//2
f 24//2 36//2 9//2
f 37//1 9//1 25//1
f 25//2 9//2 37//2
f 25//2 38//2 14//2
f 14//1 38//1 25//1
f 38//1 25//1 14//1
f 14//2 25//2 38//2
f 14//2 38//2 26//2
f 26//1 38//1 14//1
f 38//1 14//1 26//1
f 26//2 14//2 38//2
f 27//1 2//1 35//1
f 35//2 2//2 27//2
f 15//2 39//2 27//2
f 27//1 39//1 15//1
f 39//1 15//1 27//1
f 27//2 15//2 39//2
f 15//2 28//2 39//2
f 39//1 28//1 15//1
f 28//1 15//1 39//1
f 39//2 15//2 28//2
f 40//1 26//1 16//1
f 16//2 26//2 40//2
f 28//1 8//1 16//1
f 16//2 8//2 28//2
f 41//3 29//3 6//3
f 29//2 42//2 17//2
f 24//2 17//2 43//2
f 30//1 44//1 18//1
f 30//4 7//4 44//4
f 19//5 18//5 45//5
f 31//1 7//1 46//1
f 46//2 7//2 31//2
f 32//3 31//3 19//3
f 19//6 31//6 32//6
f 19//2 45//2 31//2
f 47//5 6//5 32//5
f 7//4 33//4 48//4
f 33//2 20//2 49//2
f 21//2 49//2 20//2
f 21//2 16//2 50//2
f 8//1 51//1 34//1
f 34//2 51//2 8//2
f 23//2 34//2 22//2
f 22//1 34//1 23//1
f 34//1 23//1 22//1
f 22//2 23//2 34//2
f 35//2 34//2 23//2
f 23//1 34//1 35//1
f 34//1 35//1 23//1
f 23//2 35//2 34//2
f 52//2 9//2 36//2
f 53//1 9//1 37//1
f 37//2 9//2 53//2
f 37//2 54//2 25//2
f 25//1 54//1 37//1
f 54//1 37//1 25//1
f 25//2 37//2 54//2
f 25//2 54//2 38//2
f 38//1 54//1 25//1
f 54//1 25//1 38//1
f 38//2 25//2 54//2
f 40//1 38//1 26//1
f 26//2 38//2 40//2
f 27//2 51//2 35//2
f 35//1 51//1 27//1
f 51//1 27//1 35//1
f 35//2 27//2 51//2
f 27//2 39//2 51//2
f 51//1 39//1 27//1
f 39//1 27//1 51//1
f 51//2 27//2 39//2
f 8//1 28//1 39//1
f 39//2 28//2 8//2
f 40//2 55//2 16//2
f 41//2 56//2 29//2
f 41//5 6//5 56//5
f 43//2 17//2 42//2
f 42//2 29//2 56//2
f 57//1 18//1 44//1
f 48//4 44//4 7//4
f 45//5 18//5 58//5
f 46//1 7//1 59//1
f 59//2 7//2 46//2
f 46//2 31//2 59//2
f 46//5 60//5 31//5
f 31//3 32//3 61//3
f 61//6 32//6 31//6
f 59//2 31//2 45//2
f 56//5 6//5 47//5
f 47//2 32//2 62//2
f 63//4 48//4 33//4
f 48//1 59//1 7//1
f 7//2 59//2 48//2
f 49//2 64//2 33//2
f 49//1 65//1 21//1
f 21//2 65//2 49//2
f 50//2 16//2 55//2
f 21//1 66//1 50//1
f 50//2 66//2 21//2
f 8//1 39//1 51//1
f 51//2 39//2 8//2
f 35//2 51//2 34//2
f 34//1 51//1 35//1
f 51//1 35//1 34//1
f 34//2 35//2 51//2
f 40//2 9//2 52//2
f 9//1 53//1 67//1
f 67//2 53//2 9//2
f 53//2 68//2 37//2
f 37//1 68//1 53//1
f 68//1 53//1 37//1
f 37//2 53//2 68//2
f 37//2 68//2 54//2
f 54//1 68//1 37//1
f 68//1 37//1 54//1
f 54//2 37//2 68//2
f 40//1 54//1 38//1
f 38//2 54//2 40//2
f 55//2 40//2 69//2
f 56//2 47//2 42//2
f 57//5 58//5 18//5
f 57//6 44//6 58//6
f 48//6 58//6 44//6
f 58//5 70//5 45//5
f 59//1 58//1 45//1
f 45//2 58//2 59//2
f 59//5 71//5 46//5
f 61//5 31//5 60//5
f 60//5 46//5 72//5
f 61//2 62//2 32//2
f 59//3 45//3 71//3
f 62//2 42//2 47//2
f 63//6 64//6 48//6
f 63//2 33//2 64//2
f 58//1 59//1 48//1
f 48//2 59//2 58//2
f 49//2 73//2 64//2
f 49//1 74//1 65//1
f 65//2 74//2 49//2
f 75//1 21//1 65//1
f 65//2 21//2 75//2
f 76//1 55//1 50//1
f 50//2 55//2 76//2
f 66//1 21//1 77//1
f 77//2 21//2 66//2
f 50//2 73//2 66//2
f 66//1 73//1 50//1
f 73//1 50//1 66//1
f 66//2 50//2 73//2
f 52//2 69//2 40//2
f 53//2 78//2 68//2
f 68//1 78//1 53//1
f 78//1 53//1 68//1
f 68//2 53//2 78//2
f 40//1 68//1 54//1
f 54//2 68//2 40//2
f 69//2 79//2 55//2
f 58//6 48//6 70//6
f 80//5 45//5 70//5
f 72//5 46//5 71//5
f 60//2 62//2 61//2
f 72//2 62//2 60//2
f 81//3 71//3 45//3
f 82//2 42//2 62//2
f 83//6 48//6 64//6
f 64//2 73//2 83//2
f 84//1 49//1 73//1
f 73//2 49//2 84//2
f 49//1 85//1 74//1
f 74//2 85//2 49//2
f 75//2 74//2 65//2
f 65//1 74//1 75//1
f 74//1 75//1 65//1
f 65//2 75//2 74//2
f 86//1 21//1 75//1
f 75//2 21//2 86//2
f 87//1 55//1 76//1
f 76//2 55//2 87//2
f 76//2 88//2 50//2
f 50//1 88//1 76//1
f 88//1 76//1 50//1
f 50//2 76//2 88//2
f 77//1 21//1 89//1
f 89//2 21//2 77//2
f 66//2 84//2 77//2
f 77//1 84//1 66//1
f 84//1 66//1 77//1
f 77//2 66//2 84//2
f 50//2 88//2 73//2
f 73//1 88//1 50//1
f 88//1 50//1 73//1
f 73//2 50//2 88//2
f 66//2 73//2 84//2
f 84//1 73//1 66//1
f 73//1 66//1 84//1
f 84//2 66//2 73//2
f 52//2 90//2 69//2
f 91//2 78//2 53//2
f 53//1 78//1 91//1
f 78//1 91//1 53//1
f 53//2 91//2 78//2
f 68//1 40//1 92//1
f 92//2 40//2 68//2
f 93//2 55//2 79//2
f 93//1 69//1 79//1
f 79//2 69//2 93//2
f 70//6 48//6 94//6
f 95//5 45//5 80//5
f 80//2 70//2 96//2
f 71//2 62//2 72//2
f 81//2 95//2 71//2
f 81//5 45//5 95//5
f 97//6 48//6 83//6
f 98//2 83//2 73//2
f 49//1 84//1 99//1
f 99//2 84//2 49//2
f 49//1 100//1 85//1
f 85//2 100//2 49//2
f 75//2 85//2 74//2
f 74//1 85//1 75//1
f 85//1 75//1 74//1
f 74//2 75//2 85//2
f 89//1 21//1 86//1
f 86//2 21//2 89//2
f 86//2 85//2 75//2
f 75//1 85//1 86//1
f 85//1 86//1 75//1
f 75//2 86//2 85//2
f 101//1 55//1 87//1
f 87//2 55//2 101//2
f 87//2 102//2 76//2
f 76//1 102//1 87//1
f 102//1 87//1 76//1
f 76//2 87//2 102//2
f 76//2 102//2 88//2
f 88//1 102//1 76//1
f 102//1 76//1 88//1
f 88//2 76//2 102//2
f 77//2 99//2 89//2
f 89//1 99//1 77//1
f 99//1 77//1 89//1
f 89//2 77//2 99//2
f 77//2 84//2 99//2
f 99//1 84//1 77//1
f 84//1 77//1 99//1
f 99//2 77//2 84//2
f 98//1 88//1 73//1
f 73//2 88//2 98//2
f 69//2 90//2 103//2
f 78//2 91//2 104//2
f 104//1 91//1 78//1
f 91//1 78//1 104//1
f 104//2 78//2 91//2
f 98//2 55//2 93//2
f 105//1 69//1 93//1
f 93//2 69//2 105//2
f 94//6 48//6 97//6
f 94//2 96//2 70//2
f 95//2 80//2 106//2
f 96//2 106//2 80//2
f 62//2 71//2 106//2
f 106//2 71//2 95//2
f 83//2 98//2 97//2
f 49//1 99//1 100//1
f 100//2 99//2 49//2
f 86//2 100//2 85//2
f 85//1 100//1 86//1
f 100//1 86//1 85//1
f 85//2 86//2 100//2
f 89//2 100//2 86//2
f 86//1 100//1 89//1
f 100//1 89//1 86//1
f 86//2 89//2 100//2
f 107//1 55//1 101//1
f 101//2 55//2 107//2
f 101//2 108//2 87//2
f 87//1 108//1 101//1
f 108//1 101//1 87//1
f 87//2 101//2 108//2
f 87//2 108//2 102//2
f 102//1 108//1 87//1
f 108//1 87//1 102//1
f 102//2 87//2 108//2
f 98//1 102//1 88//1
f 88//2 102//2 98//2
f 89//2 99//2 100//2
f 100//1 99//1 89//1
f 99//1 89//1 100//1
f 100//2 89//2 99//2
f 103//2 90//2 106//2
f 105//1 103//1 69//1
f 69//2 103//2 105//2
f 93//2 97//2 98//2
f 93//2 105//2 97//2
f 97//2 105//2 94//2
f 96//2 94//2 105//2
f 109//2 106//2 96//2
f 62//2 106//2 90//2
f 55//1 107//1 110//1
f 110//2 107//2 55//2
f 107//2 111//2 101//2
f 101//1 111//1 107//1
f 111//1 107//1 101//1
f 101//2 107//2 111//2
f 101//2 111//2 108//2
f 108//1 111//1 101//1
f 111//1 101//1 108//1
f 108//2 101//2 111//2
f 98//1 108//1 102//1
f 102//2 108//2 98//2
f 103//1 109//1 106//1
f 106//2 109//2 103//2
f 105//1 109//1 103//1
f 103//2 109//2 105//2
f 103//2 112//2 105//2
f 103//2 105//2 113//2
f 105//1 112//1 103//1
f 113//1 105//1 103//1
f 109//1 105//1 96//1
f 96//2 105//2 109//2
f 107//2 114//2 111//2
f 111//1 114//1 107//1
f 114//1 107//1 111//1
f 111//2 107//2 114//2
f 98//1 111//1 108//1
f 108//2 111//2 98//2
f 115//2 112//2 103//2
f 103//1 112//1 115//1
f 113//2 105//2 116//2
f 116//1 105//1 113//1
f 117//2 114//2 107//2
f 107//1 114//1 117//1
f 114//1 117//1 107//1
f 107//2 117//2 114//2
f 111//1 98//1 118//1
f 118//2 98//2 111//2
f 115//2 119//2 112//2
f 112//1 119//1 115//1
f 113//2 116//2 120//2
f 120//1 116//1 113//1
f 114//2 117//2 121//2
f 121//1 117//1 114//1
f 117//1 114//1 121//1
f 121//2 114//2 117//2
f 122//2 119//2 115//2
f 115//1 119//1 122//1
f 120//2 116//2 123//2
f 123//1 116//1 120//1
f 122//2 124//2 119//2
f 119//1 124//1 122//1
f 120//2 123//2 125//2
f 125//1 123//1 120//1
f 126//2 124//2 122//2
f 122//1 124//1 126//1
f 125//2 123//2 127//2
f 127//1 123//1 125//1
f 126//2 128//2 124//2
f 124//1 128//1 126//1
f 125//2 127//2 129//2
f 129//1 127//1 125//1
f 130//2 128//2 126//2
f 126//1 128//1 130//1
f 129//2 127//2 131//2
f 131//1 127//1 129//1
f 130//2 132//2 128//2
f 128//1 132//1 130//1
f 129//2 131//2 133//2
f 133//1 131//1 129//1
f 134//2 132//2 130//2
f 130//1 132//1 134//1
f 133//2 131//2 135//2
f 135//1 131//1 133//1
f 132//2 134//2 109//2
f 109//1 134//1 132//1
f 133//2 135//2 79//2
f 79//1 135//1 133//1
usemtl material_2_0
f 3//6 6//6 1//6
f 7//5 4//5 1//5
f 11//6 6//6 3//6
f 1//6 6//6 7//6
f 7//5 12//5 4//5
f 17//6 6//6 11//6
f 7//5 20//5 12//5
f 29//6 6//6 17//6
f 6//4 32//4 19//4
f 7//5 33//5 20//5
f 6//6 29//6 41//6
f 31//1 45//1 19//1
f 32//4 6//4 47//4
f 48//5 33//5 7//5
f 56//4 6//4 41//4
f 59//1 31//1 46//1
f 31//4 60//4 46//4
f 45//1 31//1 59//1
f 47//4 6//4 56//4
f 33//5 48//5 63//5
f 45//4 70//4 58//4
f 46//4 71//4 59//4
f 60//4 31//4 61//4
f 72//4 46//4 60//4
f 71//6 45//6 59//6
f 48//3 64//3 63//3
f 70//3 48//3 58//3
f 70//4 45//4 80//4
f 71//4 46//4 72//4
f 45//6 71//6 81//6
f 64//3 48//3 83//3
f 94//3 48//3 70//3
f 80//4 45//4 95//4
f 95//4 45//4 81//4
f 83//3 48//3 97//3
f 97//3 48//3 94//3
usemtl material_3_0
f 18//6 7//6 6//6
f 7//6 18//6 30//6
f 19//4 18//4 6//4
f 44//5 7//5 30//5
f 45//4 18//4 19//4
f 7//5 44//5 48//5
f 58//4 18//4 45//4
f 18//4 58//4 57//4
f 58//3 44//3 57//3
f 44//3 58//3 48//3
usemtl material_4_0
f 18/55/2 44/56/2 30/57/2
f 44/56/2 18/55/2 57/43/2
