# SSTK version 0.8.0
# 68
mtllib original-68.mtl
o mesh57/mesh57-geometry#mesh57-geometry
v -0.585002 -0.124016 0.240038
v -0.670836 -0.129419 0.278387
v -0.670836 -0.124014 0.240023
v -0.585002 -0.129419 0.278387
v -0.670836 -0.127726 0.278625
v -0.670836 -0.118940 0.240782
v -0.585002 -0.127726 0.278625
v -0.585002 -0.118940 0.240782
v -0.585002 -0.124344 0.279131
v -0.670836 -0.124344 0.279131
vn 0 -0.9890159264483717 -0.1478089890076678
vn 0 0.9890159264483717 0.1478089890076678
vn -1 0 0
vn 1 0 0
vn 0.00005200001521832667 0.13947004081730832 -0.9902262897996683
vn -0.00005200001521832667 -0.13947004081730832 0.9902262897996683
vn 0 -0.13918701588645918 0.990266113026505
vn 0 0.13918701588645918 -0.990266113026505
vn 0 -0.13951905445973906 0.9902193865213205
vn 0 0.13951905445973906 -0.9902193865213205
usemtl material_0_0
f 1//1 2//1 3//1
f 2//1 1//1 4//1
f 3//2 2//2 1//2
f 4//2 1//2 2//2
f 3//3 2//3 5//3
f 5//4 2//4 3//4
f 6//5 1//5 3//5
f 3//6 1//6 6//6
f 1//4 7//4 4//4
f 4//3 7//3 1//3
f 7//7 2//7 4//7
f 4//8 2//8 7//8
f 2//7 7//7 5//7
f 5//8 7//8 2//8
f 5//3 6//3 3//3
f 3//4 6//4 5//4
f 1//5 6//5 8//5
f 8//6 6//6 1//6
f 7//4 1//4 9//4
f 9//3 1//3 7//3
f 9//9 5//9 7//9
f 7//10 5//10 9//10
f 6//3 5//3 10//3
f 10//4 5//4 6//4
f 6//2 9//2 8//2
f 8//1 9//1 6//1
f 9//4 1//4 8//4
f 8//3 1//3 9//3
f 5//9 9//9 10//9
f 10//10 9//10 5//10
f 9//2 6//2 10//2
f 10//1 6//1 9//1
