# SSTK version 0.8.0
# 448
mtllib original-448.mtl
o mesh330/mesh330-geometry#mesh330-geometry
v 0.450302 -0.136971 0.368263
v 0.398665 -0.142044 0.367504
v 0.450302 -0.142044 0.367504
v 0.398665 -0.136971 0.368263
v 0.450302 -0.134840 0.316373
v 0.450302 -0.129766 0.317131
v 0.398665 -0.129766 0.317131
v 0.398665 -0.134840 0.316373
vn 0 -0.13951905445973906 0.9902193865213205
vn 0 0.13951905445973906 -0.9902193865213205
vn 0 -0.9890159264483717 -0.1478089890076678
vn 0 0.9890159264483717 0.1478089890076678
vn 1 0 0
vn -1 0 0
usemtl material_0_0
f 1//1 2//1 3//1
f 2//1 1//1 4//1
f 3//2 2//2 1//2
f 4//2 1//2 2//2
f 2//3 5//3 3//3
f 3//4 5//4 2//4
f 3//5 6//5 1//5
f 1//6 6//6 3//6
f 1//4 7//4 4//4
f 4//3 7//3 1//3
f 7//6 2//6 4//6
f 4//5 2//5 7//5
f 5//3 2//3 8//3
f 8//4 2//4 5//4
f 6//5 3//5 5//5
f 5//6 3//6 6//6
f 7//4 1//4 6//4
f 6//3 1//3 7//3
f 2//6 7//6 8//6
f 8//5 7//5 2//5
f 7//2 5//2 8//2
f 8//1 5//1 7//1
f 5//2 7//2 6//2
f 6//1 7//1 5//1
