# SSTK version 0.8.0
# 597
mtllib original-597.mtl
o mesh430/mesh430-geometry#mesh430-geometry
v -0.289249 -0.179930 0.675483
v -0.289097 -0.180195 0.677371
v -0.289131 -0.180278 0.677966
v -0.288835 -0.179877 0.675106
v -0.289254 -0.180626 0.680439
v -0.288994 -0.180120 0.676841
v -0.289582 -0.179998 0.675967
v -0.289098 -0.180362 0.678562
v -0.288826 -0.180056 0.676386
v -0.289585 -0.180559 0.679961
v -0.288836 -0.180680 0.680822
v -0.288343 -0.179838 0.674832
v -0.289828 -0.180078 0.676538
v -0.288997 -0.180436 0.679084
v -0.288598 -0.180004 0.676015
v -0.289830 -0.180478 0.679384
v -0.288829 -0.180499 0.679532
v -0.288308 -0.179963 0.675718
v -0.289980 -0.180171 0.677202
v -0.288345 -0.180719 0.681097
v -0.287781 -0.179815 0.674665
v -0.289981 -0.180384 0.678716
v -0.288594 -0.180551 0.679905
v -0.287976 -0.179934 0.675511
v -0.290031 -0.180278 0.677966
v -0.288303 -0.180592 0.680199
v -0.287595 -0.179916 0.675390
v -0.287784 -0.180742 0.681262
v -0.287157 -0.179807 0.674609
v -0.287965 -0.180622 0.680410
v -0.287153 -0.179911 0.675349
v -0.287582 -0.180640 0.680536
v -0.286526 -0.179815 0.674667
v -0.287157 -0.180750 0.681317
v -0.286721 -0.179917 0.675391
v -0.287153 -0.180646 0.680578
v -0.286334 -0.179934 0.675515
v -0.286546 -0.180742 0.681264
v -0.285961 -0.179839 0.674839
v -0.286724 -0.180640 0.680536
v -0.285996 -0.179963 0.675724
v -0.286341 -0.180622 0.680410
v -0.285712 -0.180004 0.676015
v -0.285989 -0.180719 0.681103
v -0.285469 -0.179878 0.675114
v -0.286004 -0.180592 0.680199
v -0.285487 -0.180056 0.676382
v -0.285714 -0.180551 0.679905
v -0.285319 -0.180119 0.676832
v -0.285492 -0.180681 0.680830
v -0.285061 -0.179930 0.675483
v -0.285480 -0.180499 0.679532
v -0.285214 -0.180194 0.677362
v -0.285061 -0.180626 0.680439
v -0.285179 -0.180278 0.677966
v -0.285313 -0.180436 0.679084
v -0.285212 -0.180362 0.678562
v -0.284731 -0.179996 0.675958
v -0.284726 -0.180559 0.679960
v -0.284484 -0.180077 0.676534
v -0.284480 -0.180477 0.679380
v -0.284330 -0.180172 0.677205
v -0.284329 -0.180383 0.678710
v -0.284279 -0.180278 0.677966
vn 0 -0.9902680675042941 -0.1391731097637438
vn 0 0.9902680675042941 0.1391731097637438
usemtl material_0_0
f 1//1 2//1 3//1
f 2//1 1//1 4//1
f 3//2 2//2 1//2
f 4//2 1//2 2//2
f 5//1 1//1 3//1
f 3//2 1//2 5//2
f 2//1 4//1 6//1
f 6//2 4//2 2//2
f 5//1 7//1 1//1
f 1//2 7//2 5//2
f 5//1 3//1 8//1
f 8//2 3//2 5//2
f 6//1 4//1 9//1
f 9//2 4//2 6//2
f 10//1 7//1 5//1
f 5//2 7//2 10//2
f 5//1 8//1 11//1
f 11//2 8//2 5//2
f 9//1 4//1 12//1
f 12//2 4//2 9//2
f 10//1 13//1 7//1
f 7//2 13//2 10//2
f 11//1 8//1 14//1
f 14//2 8//2 11//2
f 9//1 12//1 15//1
f 15//2 12//2 9//2
f 16//1 13//1 10//1
f 10//2 13//2 16//2
f 11//1 14//1 17//1
f 17//2 14//2 11//2
f 15//1 12//1 18//1
f 18//2 12//2 15//2
f 16//1 19//1 13//1
f 13//2 19//2 16//2
f 11//1 17//1 20//1
f 20//2 17//2 11//2
f 18//1 12//1 21//1
f 21//2 12//2 18//2
f 22//1 19//1 16//1
f 16//2 19//2 22//2
f 20//1 17//1 23//1
f 23//2 17//2 20//2
f 18//1 21//1 24//1
f 24//2 21//2 18//2
f 19//1 22//1 25//1
f 25//2 22//2 19//2
f 20//1 23//1 26//1
f 26//2 23//2 20//2
f 24//1 21//1 27//1
f 27//2 21//2 24//2
f 20//1 26//1 28//1
f 28//2 26//2 20//2
f 27//1 21//1 29//1
f 29//2 21//2 27//2
f 28//1 26//1 30//1
f 30//2 26//2 28//2
f 27//1 29//1 31//1
f 31//2 29//2 27//2
f 28//1 30//1 32//1
f 32//2 30//2 28//2
f 31//1 29//1 33//1
f 33//2 29//2 31//2
f 28//1 32//1 34//1
f 34//2 32//2 28//2
f 31//1 33//1 35//1
f 35//2 33//2 31//2
f 34//1 32//1 36//1
f 36//2 32//2 34//2
f 35//1 33//1 37//1
f 37//2 33//2 35//2
f 34//1 36//1 38//1
f 38//2 36//2 34//2
f 37//1 33//1 39//1
f 39//2 33//2 37//2
f 38//1 36//1 40//1
f 40//2 36//2 38//2
f 37//1 39//1 41//1
f 41//2 39//2 37//2
f 38//1 40//1 42//1
f 42//2 40//2 38//2
f 41//1 39//1 43//1
f 43//2 39//2 41//2
f 38//1 42//1 44//1
f 44//2 42//2 38//2
f 43//1 39//1 45//1
f 45//2 39//2 43//2
f 44//1 42//1 46//1
f 46//2 42//2 44//2
f 43//1 45//1 47//1
f 47//2 45//2 43//2
f 44//1 46//1 48//1
f 48//2 46//2 44//2
f 47//1 45//1 49//1
f 49//2 45//2 47//2
f 44//1 48//1 50//1
f 50//2 48//2 44//2
f 49//1 45//1 51//1
f 51//2 45//2 49//2
f 50//1 48//1 52//1
f 52//2 48//2 50//2
f 49//1 51//1 53//1
f 53//2 51//2 49//2
f 50//1 52//1 54//1
f 54//2 52//2 50//2
f 53//1 51//1 55//1
f 55//2 51//2 53//2
f 54//1 52//1 56//1
f 56//2 52//2 54//2
f 54//1 55//1 51//1
f 51//2 55//2 54//2
f 54//1 56//1 57//1
f 57//2 56//2 54//2
f 54//1 57//1 55//1
f 55//2 57//2 54//2
f 54//1 51//1 58//1
f 58//2 51//2 54//2
f 54//1 58//1 59//1
f 59//2 58//2 54//2
f 59//1 58//1 60//1
f 60//2 58//2 59//2
f 59//1 60//1 61//1
f 61//2 60//2 59//2
f 61//1 60//1 62//1
f 62//2 60//2 61//2
f 61//1 62//1 63//1
f 63//2 62//2 61//2
f 63//1 62//1 64//1
f 64//2 62//2 63//2
