# SSTK version 0.8.0
# 70
mtllib original-70.mtl
o Q1/Q/mesh58/mesh58-geometry#mesh58-geometry
v -0.532253 -0.121584 0.260226
v -0.531873 -0.122269 0.264943
v -0.531959 -0.122484 0.266428
v -0.531217 -0.121447 0.259285
v -0.532264 -0.123381 0.272609
v -0.531615 -0.122076 0.263619
v -0.533084 -0.121760 0.261436
v -0.531875 -0.122701 0.267919
v -0.531196 -0.121911 0.262482
v -0.533094 -0.123208 0.271415
v -0.531228 -0.123518 0.273550
v -0.529988 -0.121348 0.258600
v -0.533700 -0.121967 0.262863
v -0.531623 -0.122890 0.269224
v -0.530626 -0.121777 0.261555
v -0.533705 -0.122999 0.269973
v -0.531203 -0.123053 0.270345
v -0.529899 -0.121669 0.260814
v -0.534081 -0.122207 0.264521
v -0.529999 -0.123618 0.274235
v -0.528583 -0.121287 0.258183
v -0.534082 -0.122756 0.268303
v -0.530616 -0.123189 0.271280
v -0.529071 -0.121594 0.260296
v -0.534208 -0.122484 0.266428
v -0.529887 -0.123296 0.272017
v -0.528117 -0.121550 0.259993
v -0.528592 -0.123678 0.274653
v -0.527023 -0.121267 0.258044
v -0.529043 -0.123372 0.272544
v -0.527012 -0.121535 0.259891
v -0.528085 -0.123418 0.272860
v -0.525446 -0.121288 0.258187
v -0.527023 -0.123698 0.274792
v -0.525933 -0.121550 0.259995
v -0.527012 -0.123433 0.272966
v -0.524965 -0.121596 0.260307
v -0.526794 -0.123698 0.274792
v -0.524032 -0.121350 0.258616
v -0.525940 -0.123418 0.272860
v -0.524120 -0.121671 0.260827
v -0.526521 -0.123698 0.274792
v -0.523409 -0.121777 0.261555
v -0.526402 -0.123827 0.275678
v -0.522803 -0.121450 0.259305
v -0.526154 -0.123940 0.276456
v -0.522847 -0.121910 0.262471
v -0.525777 -0.124037 0.277126
v -0.522427 -0.122073 0.263598
v -0.524983 -0.123372 0.272544
v -0.521783 -0.121584 0.260226
v -0.525271 -0.124119 0.277687
v -0.522165 -0.122265 0.264921
v -0.524658 -0.124183 0.278132
v -0.522077 -0.122484 0.266428
v -0.524436 -0.123632 0.274338
v -0.521735 -0.123368 0.272516
v -0.524141 -0.123296 0.272017
v -0.523959 -0.124229 0.278449
v -0.522161 -0.122701 0.267919
v -0.520958 -0.121756 0.261412
v -0.523422 -0.123568 0.273894
v -0.524223 -0.123790 0.275424
v -0.522412 -0.122890 0.269224
v -0.521062 -0.123232 0.271583
v -0.523415 -0.123189 0.271280
v -0.523813 -0.123901 0.276186
v -0.522522 -0.123480 0.273287
v -0.520522 -0.123075 0.270499
v -0.523176 -0.124257 0.278640
v -0.522830 -0.123053 0.270345
v -0.520341 -0.121965 0.262852
v -0.523098 -0.123972 0.276677
v -0.520137 -0.122898 0.269278
v -0.522307 -0.124266 0.278703
v -0.519956 -0.122209 0.264529
v -0.521946 -0.123995 0.276834
v -0.519905 -0.122701 0.267922
v -0.521013 -0.124255 0.278628
v -0.519828 -0.122484 0.266428
v -0.520920 -0.123975 0.276699
v -0.519774 -0.124222 0.278401
v -0.520068 -0.123940 0.276456
v -0.519774 -0.123940 0.276456
vn 0 -0.9896265277379349 -0.14366396763753486
vn 0 0.9896265277379349 0.14366396763753486
usemtl material_0_0
f 1//1 2//1 3//1
f 2//1 1//1 4//1
f 3//2 2//2 1//2
f 4//2 1//2 2//2
f 5//1 1//1 3//1
f 3//2 1//2 5//2
f 2//1 4//1 6//1
f 6//2 4//2 2//2
f 5//1 7//1 1//1
f 1//2 7//2 5//2
f 5//1 3//1 8//1
f 8//2 3//2 5//2
f 6//1 4//1 9//1
f 9//2 4//2 6//2
f 10//1 7//1 5//1
f 5//2 7//2 10//2
f 5//1 8//1 11//1
f 11//2 8//2 5//2
f 9//1 4//1 12//1
f 12//2 4//2 9//2
f 10//1 13//1 7//1
f 7//2 13//2 10//2
f 11//1 8//1 14//1
f 14//2 8//2 11//2
f 9//1 12//1 15//1
f 15//2 12//2 9//2
f 16//1 13//1 10//1
f 10//2 13//2 16//2
f 11//1 14//1 17//1
f 17//2 14//2 11//2
f 15//1 12//1 18//1
f 18//2 12//2 15//2
f 16//1 19//1 13//1
f 13//2 19//2 16//2
f 11//1 17//1 20//1
f 20//2 17//2 11//2
f 18//1 12//1 21//1
f 21//2 12//2 18//2
f 22//1 19//1 16//1
f 16//2 19//2 22//2
f 20//1 17//1 23//1
f 23//2 17//2 20//2
f 18//1 21//1 24//1
f 24//2 21//2 18//2
f 19//1 22//1 25//1
f 25//2 22//2 19//2
f 20//1 23//1 26//1
f 26//2 23//2 20//2
f 24//1 21//1 27//1
f 27//2 21//2 24//2
f 20//1 26//1 28//1
f 28//2 26//2 20//2
f 27//1 21//1 29//1
f 29//2 21//2 27//2
f 28//1 26//1 30//1
f 30//2 26//2 28//2
f 27//1 29//1 31//1
f 31//2 29//2 27//2
f 28//1 30//1 32//1
f 32//2 30//2 28//2
f 31//1 29//1 33//1
f 33//2 29//2 31//2
f 28//1 32//1 34//1
f 34//2 32//2 28//2
f 31//1 33//1 35//1
f 35//2 33//2 31//2
f 34//1 32//1 36//1
f 36//2 32//2 34//2
f 35//1 33//1 37//1
f 37//2 33//2 35//2
f 34//1 36//1 38//1
f 38//2 36//2 34//2
f 37//1 33//1 39//1
f 39//2 33//2 37//2
f 38//1 36//1 40//1
f 40//2 36//2 38//2
f 37//1 39//1 41//1
f 41//2 39//2 37//2
f 38//1 40//1 42//1
f 42//2 40//2 38//2
f 41//1 39//1 43//1
f 43//2 39//2 41//2
f 42//1 40//1 44//1
f 44//2 40//2 42//2
f 43//1 39//1 45//1
f 45//2 39//2 43//2
f 44//1 40//1 46//1
f 46//2 40//2 44//2
f 43//1 45//1 47//1
f 47//2 45//2 43//2
f 46//1 40//1 48//1
f 48//2 40//2 46//2
f 47//1 45//1 49//1
f 49//2 45//2 47//2
f 48//1 40//1 50//1
f 50//2 40//2 48//2
f 49//1 45//1 51//1
f 51//2 45//2 49//2
f 48//1 50//1 52//1
f 52//2 50//2 48//2
f 49//1 51//1 53//1
f 53//2 51//2 49//2
f 52//1 50//1 54//1
f 54//2 50//2 52//2
f 53//1 51//1 55//1
f 55//2 51//2 53//2
f 54//1 50//1 56//1
f 56//2 50//2 54//2
f 57//1 55//1 51//1
f 51//2 55//2 57//2
f 56//1 50//1 58//1
f 58//2 50//2 56//2
f 56//1 59//1 54//1
f 54//2 59//2 56//2
f 57//1 60//1 55//1
f 55//2 60//2 57//2
f 57//1 51//1 61//1
f 61//2 51//2 57//2
f 56//1 58//1 62//1
f 62//2 58//2 56//2
f 59//1 56//1 63//1
f 63//2 56//2 59//2
f 57//1 64//1 60//1
f 60//2 64//2 57//2
f 57//1 61//1 65//1
f 65//2 61//2 57//2
f 62//1 58//1 66//1
f 66//2 58//2 62//2
f 59//1 63//1 67//1
f 67//2 63//2 59//2
f 68//1 64//1 57//1
f 57//2 64//2 68//2
f 65//1 61//1 69//1
f 69//2 61//2 65//2
f 62//1 66//1 68//1
f 68//2 66//2 62//2
f 59//1 67//1 70//1
f 70//2 67//2 59//2
f 68//1 71//1 64//1
f 64//2 71//2 68//2
f 69//1 61//1 72//1
f 72//2 61//2 69//2
f 68//1 66//1 71//1
f 71//2 66//2 68//2
f 70//1 67//1 73//1
f 73//2 67//2 70//2
f 69//1 72//1 74//1
f 74//2 72//2 69//2
f 70//1 73//1 75//1
f 75//2 73//2 70//2
f 74//1 72//1 76//1
f 76//2 72//2 74//2
f 75//1 73//1 77//1
f 77//2 73//2 75//2
f 74//1 76//1 78//1
f 78//2 76//2 74//2
f 75//1 77//1 79//1
f 79//2 77//2 75//2
f 78//1 76//1 80//1
f 80//2 76//2 78//2
f 79//1 77//1 81//1
f 81//2 77//2 79//2
f 79//1 81//1 82//1
f 82//2 81//2 79//2
f 82//1 81//1 83//1
f 83//2 81//2 82//2
f 82//1 83//1 84//1
f 84//2 83//2 82//2
