# SSTK version 0.8.0
# 470
mtllib original-470.mtl
o mesh349/mesh349-geometry#mesh349-geometry
v -0.285887 -0.173833 0.631727
v -0.286862 -0.173987 0.632794
v -0.286862 -0.173845 0.631806
v -0.284881 -0.173987 0.632794
v -0.285207 -0.173799 0.631490
v -0.284970 -0.173771 0.631297
v -0.284792 -0.173733 0.631034
v -0.284881 -0.175033 0.640041
v -0.283472 -0.175033 0.640041
v -0.281535 -0.175193 0.641145
v -0.284609 -0.173627 0.630296
v -0.286862 -0.175193 0.641145
v -0.281535 -0.175033 0.640041
v -0.283472 -0.173627 0.630296
v -0.286862 -0.175033 0.640041
vn 0 -0.9897452114932445 -0.14284402796824494
vn 0 0.9897452114932445 0.14284402796824494
usemtl material_0_0
f 1//1 2//1 3//1
f 2//1 1//1 4//1
f 3//2 2//2 1//2
f 4//2 1//2 2//2
f 4//1 1//1 5//1
f 5//2 1//2 4//2
f 4//1 5//1 6//1
f 6//2 5//2 4//2
f 4//1 6//1 7//1
f 7//2 6//2 4//2
f 4//1 7//1 8//1
f 8//2 7//2 4//2
f 9//1 8//1 7//1
f 7//2 8//2 9//2
f 10//1 8//1 9//1
f 9//2 8//2 10//2
f 9//1 7//1 11//1
f 11//2 7//2 9//2
f 12//1 8//1 10//1
f 10//2 8//2 12//2
f 10//1 9//1 13//1
f 13//2 9//2 10//2
f 9//1 11//1 14//1
f 14//2 11//2 9//2
f 8//1 12//1 15//1
f 15//2 12//2 8//2
