# SSTK version 0.8.0
# 198
mtllib original-198.mtl
o mesh144/mesh144-geometry#mesh144-geometry
v -0.177761 -0.104966 0.141885
v -0.177758 -0.105293 0.144134
v -0.177839 -0.105129 0.143005
v -0.177527 -0.104821 0.140886
v -0.177517 -0.105437 0.145126
v -0.177136 -0.104694 0.140007
v -0.177114 -0.105561 0.145982
v -0.176590 -0.104584 0.139249
v -0.176551 -0.105665 0.146700
v -0.175917 -0.104495 0.138638
v -0.176171 -0.104964 0.141873
v -0.175926 -0.104808 0.140796
v -0.176171 -0.105145 0.143117
v -0.175367 -0.104686 0.139954
v -0.176117 -0.105260 0.143910
v -0.171008 -0.104964 0.141873
v -0.175149 -0.104432 0.138202
v -0.175841 -0.105748 0.147270
v -0.169410 -0.105145 0.143117
v -0.174533 -0.104604 0.139387
v -0.175957 -0.105361 0.144604
v -0.170493 -0.104537 0.138925
v -0.174284 -0.104394 0.137940
v -0.175689 -0.105447 0.145198
v -0.171061 -0.104467 0.138445
v -0.170030 -0.104626 0.139540
v -0.174025 -0.104582 0.139242
v -0.175001 -0.105807 0.147676
v -0.171166 -0.104800 0.140740
v -0.169689 -0.104733 0.140278
v -0.173323 -0.104381 0.137853
v -0.175315 -0.105519 0.145693
v -0.171567 -0.104683 0.139936
v -0.169480 -0.104862 0.141167
v -0.173419 -0.104575 0.139193
v -0.174846 -0.105576 0.146083
v -0.171716 -0.104419 0.138112
v -0.169410 -0.105017 0.142236
v -0.172809 -0.104582 0.139240
v -0.174031 -0.105842 0.147920
v -0.171896 -0.104637 0.139617
v -0.172467 -0.104390 0.137918
v -0.174295 -0.105616 0.146361
v -0.172305 -0.104603 0.139383
v -0.173662 -0.105640 0.146528
v -0.172930 -0.105854 0.148001
v -0.172947 -0.105648 0.146584
v -0.171886 -0.105631 0.146463
v -0.171947 -0.105844 0.147932
v -0.171078 -0.105815 0.147733
v -0.170947 -0.105586 0.146152
v -0.170310 -0.105777 0.147470
v -0.170196 -0.105530 0.145767
v -0.169593 -0.105736 0.147189
v -0.169689 -0.105479 0.145417
v -0.169593 -0.105479 0.145417
vn 0 -0.9896265277379349 -0.14366396763753486
vn 0 0.9896265277379349 0.14366396763753486
usemtl material_0_0
f 1//1 2//1 3//1
f 2//1 1//1 4//1
f 3//2 2//2 1//2
f 4//2 1//2 2//2
f 2//1 4//1 5//1
f 5//2 4//2 2//2
f 5//1 4//1 6//1
f 6//2 4//2 5//2
f 5//1 6//1 7//1
f 7//2 6//2 5//2
f 7//1 6//1 8//1
f 8//2 6//2 7//2
f 7//1 8//1 9//1
f 9//2 8//2 7//2
f 9//1 8//1 10//1
f 10//2 8//2 9//2
f 9//1 10//1 11//1
f 11//2 10//2 9//2
f 11//1 10//1 12//1
f 12//2 10//2 11//2
f 13//1 9//1 11//1
f 11//2 9//2 13//2
f 12//1 10//1 14//1
f 14//2 10//2 12//2
f 15//1 9//1 13//1
f 13//2 9//2 15//2
f 16//1 13//1 11//1
f 11//2 13//2 16//2
f 14//1 10//1 17//1
f 17//2 10//2 14//2
f 9//1 15//1 18//1
f 18//2 15//2 9//2
f 13//1 16//1 19//1
f 19//2 16//2 13//2
f 14//1 17//1 20//1
f 20//2 17//2 14//2
f 18//1 15//1 21//1
f 21//2 15//2 18//2
f 19//1 16//1 22//1
f 22//2 16//2 19//2
f 20//1 17//1 23//1
f 23//2 17//2 20//2
f 18//1 21//1 24//1
f 24//2 21//2 18//2
f 16//1 25//1 22//1
f 22//2 25//2 16//2
f 19//1 22//1 26//1
f 26//2 22//2 19//2
f 20//1 23//1 27//1
f 27//2 23//2 20//2
f 18//1 24//1 28//1
f 28//2 24//2 18//2
f 29//1 25//1 16//1
f 16//2 25//2 29//2
f 19//1 26//1 30//1
f 30//2 26//2 19//2
f 27//1 23//1 31//1
f 31//2 23//2 27//2
f 28//1 24//1 32//1
f 32//2 24//2 28//2
f 33//1 25//1 29//1
f 29//2 25//2 33//2
f 19//1 30//1 34//1
f 34//2 30//2 19//2
f 27//1 31//1 35//1
f 35//2 31//2 27//2
f 28//1 32//1 36//1
f 36//2 32//2 28//2
f 33//1 37//1 25//1
f 25//2 37//2 33//2
f 19//1 34//1 38//1
f 38//2 34//2 19//2
f 35//1 31//1 39//1
f 39//2 31//2 35//2
f 28//1 36//1 40//1
f 40//2 36//2 28//2
f 41//1 37//1 33//1
f 33//2 37//2 41//2
f 39//1 31//1 42//1
f 42//2 31//2 39//2
f 40//1 36//1 43//1
f 43//2 36//2 40//2
f 44//1 37//1 41//1
f 41//2 37//2 44//2
f 39//1 42//1 44//1
f 44//2 42//2 39//2
f 40//1 43//1 45//1
f 45//2 43//2 40//2
f 44//1 42//1 37//1
f 37//2 42//2 44//2
f 40//1 45//1 46//1
f 46//2 45//2 40//2
f 46//1 45//1 47//1
f 47//2 45//2 46//2
f 46//1 47//1 48//1
f 48//2 47//2 46//2
f 46//1 48//1 49//1
f 49//2 48//2 46//2
f 49//1 48//1 50//1
f 50//2 48//2 49//2
f 50//1 48//1 51//1
f 51//2 48//2 50//2
f 50//1 51//1 52//1
f 52//2 51//2 50//2
f 52//1 51//1 53//1
f 53//2 51//2 52//2
f 52//1 53//1 54//1
f 54//2 53//2 52//2
f 54//1 53//1 55//1
f 55//2 53//2 54//2
f 54//1 55//1 56//1
f 56//2 55//2 54//2
