# SSTK version 0.8.0
# 221
mtllib original-221.mtl
o mesh159/mesh159-geometry#mesh159-geometry
v 0.098981 -0.100714 0.112596
v 0.098982 -0.100908 0.113932
v 0.098921 -0.100811 0.113260
v 0.099161 -0.100626 0.111985
v 0.099164 -0.100997 0.114546
v 0.099462 -0.100545 0.111429
v 0.099467 -0.101078 0.115103
v 0.099882 -0.100472 0.110927
v 0.099891 -0.101151 0.115603
v 0.100390 -0.100412 0.110511
v 0.100293 -0.100811 0.113260
v 0.100432 -0.100700 0.112495
v 0.100402 -0.101211 0.116015
v 0.100954 -0.100368 0.110213
v 0.100436 -0.100923 0.114036
v 0.100852 -0.100608 0.111860
v 0.100965 -0.101253 0.116310
v 0.101480 -0.100545 0.111432
v 0.100865 -0.101015 0.114669
v 0.101574 -0.100343 0.110035
v 0.101497 -0.101077 0.115091
v 0.102249 -0.100525 0.111290
v 0.101581 -0.101279 0.116486
v 0.102249 -0.100334 0.109976
v 0.102249 -0.101097 0.115231
v 0.102924 -0.100343 0.110035
v 0.102249 -0.101288 0.116545
v 0.103018 -0.100545 0.111432
v 0.103018 -0.101076 0.115088
v 0.103544 -0.100368 0.110213
v 0.102924 -0.101279 0.116486
v 0.103647 -0.100608 0.111860
v 0.103544 -0.101253 0.116308
v 0.104108 -0.100412 0.110511
v 0.103647 -0.101013 0.114657
v 0.104066 -0.100700 0.112495
v 0.104108 -0.101210 0.116010
v 0.104206 -0.100811 0.113260
v 0.104066 -0.100921 0.114020
v 0.104616 -0.100472 0.110927
v 0.104616 -0.101150 0.115594
v 0.105037 -0.100545 0.111429
v 0.105037 -0.101077 0.115092
v 0.105337 -0.100626 0.111985
v 0.105337 -0.100996 0.114536
v 0.105517 -0.100714 0.112596
v 0.105517 -0.100907 0.113925
v 0.105577 -0.100811 0.113260
vn 0 -0.9896265277379349 -0.14366396763753486
vn 0 0.9896265277379349 0.14366396763753486
usemtl material_0_0
f 1//1 2//1 3//1
f 2//1 1//1 4//1
f 3//2 2//2 1//2
f 4//2 1//2 2//2
f 2//1 4//1 5//1
f 5//2 4//2 2//2
f 5//1 4//1 6//1
f 6//2 4//2 5//2
f 5//1 6//1 7//1
f 7//2 6//2 5//2
f 7//1 6//1 8//1
f 8//2 6//2 7//2
f 7//1 8//1 9//1
f 9//2 8//2 7//2
f 9//1 8//1 10//1
f 10//2 8//2 9//2
f 9//1 10//1 11//1
f 11//2 10//2 9//2
f 11//1 10//1 12//1
f 12//2 10//2 11//2
f 11//1 13//1 9//1
f 9//2 13//2 11//2
f 12//1 10//1 14//1
f 14//2 10//2 12//2
f 13//1 11//1 15//1
f 15//2 11//2 13//2
f 12//1 14//1 16//1
f 16//2 14//2 12//2
f 13//1 15//1 17//1
f 17//2 15//2 13//2
f 16//1 14//1 18//1
f 18//2 14//2 16//2
f 17//1 15//1 19//1
f 19//2 15//2 17//2
f 18//1 14//1 20//1
f 20//2 14//2 18//2
f 17//1 19//1 21//1
f 21//2 19//2 17//2
f 18//1 20//1 22//1
f 22//2 20//2 18//2
f 17//1 21//1 23//1
f 23//2 21//2 17//2
f 22//1 20//1 24//1
f 24//2 20//2 22//2
f 23//1 21//1 25//1
f 25//2 21//2 23//2
f 22//1 24//1 26//1
f 26//2 24//2 22//2
f 23//1 25//1 27//1
f 27//2 25//2 23//2
f 22//1 26//1 28//1
f 28//2 26//2 22//2
f 27//1 25//1 29//1
f 29//2 25//2 27//2
f 28//1 26//1 30//1
f 30//2 26//2 28//2
f 27//1 29//1 31//1
f 31//2 29//2 27//2
f 28//1 30//1 32//1
f 32//2 30//2 28//2
f 31//1 29//1 33//1
f 33//2 29//2 31//2
f 32//1 30//1 34//1
f 34//2 30//2 32//2
f 33//1 29//1 35//1
f 35//2 29//2 33//2
f 32//1 34//1 36//1
f 36//2 34//2 32//2
f 33//1 35//1 37//1
f 37//2 35//2 33//2
f 36//1 34//1 38//1
f 38//2 34//2 36//2
f 37//1 35//1 39//1
f 39//2 35//2 37//2
f 38//1 34//1 40//1
f 40//2 34//2 38//2
f 37//1 39//1 38//1
f 38//2 39//2 37//2
f 41//1 38//1 40//1
f 40//2 38//2 41//2
f 37//1 38//1 41//1
f 41//2 38//2 37//2
f 41//1 40//1 42//1
f 42//2 40//2 41//2
f 41//1 42//1 43//1
f 43//2 42//2 41//2
f 43//1 42//1 44//1
f 44//2 42//2 43//2
f 43//1 44//1 45//1
f 45//2 44//2 43//2
f 45//1 44//1 46//1
f 46//2 44//2 45//2
f 45//1 46//1 47//1
f 47//2 46//2 45//2
f 47//1 46//1 48//1
f 48//2 46//2 47//2
