# SSTK version 0.8.0
# 430
mtllib original-430.mtl
o mesh313/mesh313-geometry#mesh313-geometry
v 0.509572 -0.090926 0.042450
v 0.507096 -0.092681 0.054533
v 0.505456 -0.092681 0.054533
v 0.508203 -0.092190 0.051157
v 0.508654 -0.091991 0.049786
v 0.510532 -0.091164 0.044089
v 0.512869 -0.092190 0.051157
v 0.511573 -0.090926 0.042450
v 0.512418 -0.091991 0.049786
v 0.515690 -0.092681 0.054533
v 0.513976 -0.092681 0.054533
vn 0 -0.9896265261540601 -0.14366397854802535
vn 0 0.9896265261540601 0.14366397854802535
usemtl material_0_0
f 1//1 2//1 3//1
f 2//1 1//1 4//1
f 3//2 2//2 1//2
f 4//2 1//2 2//2
f 4//1 1//1 5//1
f 5//2 1//2 4//2
f 5//1 1//1 6//1
f 6//2 1//2 5//2
f 5//1 7//1 4//1
f 4//2 7//2 5//2
f 6//1 1//1 8//1
f 8//2 1//2 6//2
f 7//1 5//1 9//1
f 9//2 5//2 7//2
f 6//1 8//1 9//1
f 9//2 8//2 6//2
f 9//1 10//1 7//1
f 7//2 10//2 9//2
f 9//1 8//1 10//1
f 10//2 8//2 9//2
f 7//1 10//1 11//1
f 11//2 10//2 7//2
