# SSTK version 0.8.0
# 77
mtllib original-77.mtl
o mesh83/mesh83-geometry#mesh83-geometry
v -0.385785 -0.151034 0.338657
v -0.385785 -0.155601 0.447758
v -0.385785 -0.151034 0.447758
v -0.385785 -0.155601 0.338657
v -0.297857 -0.151034 0.447758
v -0.385517 -0.150516 0.447490
v -0.297857 -0.151034 0.338657
v -0.297857 -0.155601 0.447758
v -0.385517 -0.150516 0.338925
v -0.297857 -0.155601 0.338657
v -0.298126 -0.150516 0.447490
v -0.384785 -0.150137 0.446758
v -0.298126 -0.150516 0.338925
v -0.384785 -0.150137 0.339657
v -0.298858 -0.150137 0.446758
v -0.383784 -0.149998 0.340658
v -0.298858 -0.150137 0.339657
v -0.299859 -0.149998 0.445757
v -0.383784 -0.149998 0.445757
v -0.299859 -0.149998 0.340658
v -0.374877 -0.149998 0.371604
v -0.340296 -0.149998 0.348779
v -0.365910 -0.149998 0.348253
v -0.371596 -0.149998 0.371604
v -0.337413 -0.149998 0.354688
v -0.348117 -0.149998 0.348253
v -0.336999 -0.149998 0.371572
v -0.362581 -0.149998 0.348253
v -0.368140 -0.149998 0.362015
v -0.369032 -0.149998 0.364532
v -0.340296 -0.149998 0.354688
v -0.350984 -0.149998 0.348253
v -0.343148 -0.149998 0.350499
v -0.339165 -0.149998 0.371827
v -0.364317 -0.149998 0.350706
v -0.365575 -0.149998 0.355166
v -0.359267 -0.149998 0.364532
v -0.337413 -0.149998 0.356918
v -0.340296 -0.149998 0.356918
v -0.350984 -0.149998 0.371604
v -0.345250 -0.149998 0.354688
v -0.337413 -0.149998 0.369040
v -0.340551 -0.149998 0.371704
v -0.353023 -0.149998 0.371604
v -0.362660 -0.149998 0.355548
v -0.364854 -0.149998 0.352944
v -0.360223 -0.149998 0.362015
v -0.356544 -0.149998 0.371604
v -0.348117 -0.149998 0.371604
v -0.343148 -0.149998 0.354688
v -0.338672 -0.149998 0.369151
v -0.339651 -0.149998 0.368944
v -0.341587 -0.149998 0.371333
v -0.340296 -0.149998 0.366810
v -0.345250 -0.149998 0.356918
v -0.343148 -0.149998 0.356918
v -0.340145 -0.149998 0.368387
v -0.342319 -0.149998 0.370762
v -0.343148 -0.149998 0.366650
v -0.343060 -0.149998 0.368787
v -0.342797 -0.149998 0.370035
vn -1 0 0
vn 0 0 1
vn -0.37537529744522763 0.8474029602235803 0.37550180967902114
vn -0.5704787000886269 0.5906680110688197 -0.570670967760929
vn -0.5704787000886274 0.5906680110688186 0.5706709677609297
vn 0 0 -1
vn 0.5704787000886263 0.5906680110688195 0.57067096776093
vn -0.37537529744522735 0.8474029602235813 -0.37550180967901964
vn 0.570478700088627 0.5906680110688202 -0.5706709677609283
vn 1 0 0
vn 0.37537529744522674 0.8474029602235807 0.3755018096790213
vn -0.14439113685276309 0.9789220313906497 0.14443980080424781
vn 0.37537529744522724 0.8474029602235813 -0.37550180967901925
vn -0.14439113685276292 0.9789220313906498 -0.14443980080424573
vn 0.14439113685276245 0.9789220313906497 0.1444398008042479
vn -0.06901157918584656 0.9952243933261897 -0.06903483806595757
vn 0.14439113685276267 0.9789220313906498 -0.14443980080424568
vn 0.06901157918584612 0.9952243933261897 0.06903483806595978
vn -0.06901157918584665 0.9952243933261897 0.06903483806595977
vn 0.06901157918584623 0.99522439332619 -0.06903483806595757
vn 0 1 0
vn 0.5704787000886274 -0.5906680110688186 -0.5706709677609297
vn 0.5704787000886269 -0.5906680110688197 0.570670967760929
vn 0.37537529744522763 -0.8474029602235803 -0.37550180967902114
vn -0.5704787000886263 -0.5906680110688195 -0.57067096776093
vn 0.37537529744522735 -0.8474029602235813 0.37550180967901964
vn -0.570478700088627 -0.5906680110688202 0.5706709677609283
vn -0.37537529744522674 -0.8474029602235807 -0.3755018096790213
vn 0.14439113685276309 -0.9789220313906497 -0.14443980080424781
vn -0.37537529744522724 -0.8474029602235813 0.37550180967901925
vn 0.14439113685276292 -0.9789220313906498 0.14443980080424573
vn -0.14439113685276245 -0.9789220313906497 -0.1444398008042479
vn 0.06901157918584656 -0.9952243933261897 0.06903483806595757
vn -0.14439113685276267 -0.9789220313906498 0.14443980080424568
vn -0.06901157918584612 -0.9952243933261897 -0.06903483806595978
vn 0.06901157918584665 -0.9952243933261897 -0.06903483806595977
vn -0.06901157918584623 -0.99522439332619 0.06903483806595757
vn 0 -1 0
usemtl material_0_0
f 1//1 2//1 3//1
f 2//1 1//1 4//1
f 2//2 5//2 3//2
f 6//3 1//4 3//5
f 7//6 4//6 1//6
f 5//2 2//2 8//2
f 5//7 6//3 3//5
f 1//4 6//3 9//8
f 4//6 7//6 10//6
f 9//8 7//9 1//4
f 10//10 5//10 8//10
f 6//3 5//7 11//11
f 12//12 9//8 6//3
f 5//10 10//10 7//10
f 7//9 9//8 13//13
f 7//9 11//11 5//7
f 11//11 12//12 6//3
f 9//8 12//12 14//14
f 14//14 13//13 9//8
f 11//11 7//9 13//13
f 12//12 11//11 15//15
f 12//12 16//16 14//14
f 13//13 14//14 17//17
f 13//13 15//15 11//11
f 18//18 12//12 15//15
f 16//16 12//12 19//19
f 20//20 14//14 16//16
f 14//14 20//20 17//17
f 15//15 13//13 17//17
f 12//12 18//18 19//19
f 15//15 20//20 18//18
f 21//21 16//21 19//21
f 22//21 20//21 16//21
f 20//20 15//15 17//17
f 20//21 19//21 18//21
f 23//21 16//21 21//21
f 19//21 24//21 21//21
f 25//21 20//21 22//21
f 22//21 16//21 26//21
f 19//21 20//21 27//21
f 28//21 16//21 23//21
f 19//21 30//21 24//21
f 20//21 25//21 27//21
f 31//21 25//21 22//21
f 26//21 16//21 32//21
f 22//21 26//21 33//21
f 19//21 27//21 34//21
f 32//21 16//21 28//21
f 19//21 37//21 30//21
f 27//21 25//21 38//21
f 33//21 26//21 41//21
f 19//21 34//21 43//21
f 32//21 28//21 44//21
f 29//21 45//21 36//21
f 19//21 48//21 37//21
f 27//21 38//21 42//21
f 44//21 40//21 32//21
f 41//21 26//21 49//21
f 41//21 50//21 33//21
f 19//21 43//21 53//21
f 46//21 45//21 35//21
f 36//21 45//21 46//21
f 45//21 29//21 47//21
f 19//21 44//21 48//21
f 51//21 38//21 39//21
f 38//21 51//21 42//21
f 19//21 49//21 40//21
f 19//21 40//21 44//21
f 49//21 55//21 41//21
f 19//21 53//21 58//21
f 51//21 39//21 52//21
f 57//21 39//21 54//21
f 19//21 59//21 49//21
f 49//21 59//21 55//21
f 52//21 39//21 57//21
f 19//21 58//21 61//21
f 19//21 60//21 59//21
f 55//21 59//21 56//21
f 19//21 61//21 60//21
usemtl material_1_0
f 3//10 2//10 1//10
f 4//10 1//10 2//10
f 3//6 5//6 2//6
f 3//22 1//23 6//24
f 1//2 4//2 7//2
f 8//6 2//6 5//6
f 3//22 6//24 5//25
f 9//26 6//24 1//23
f 10//2 7//2 4//2
f 1//23 7//27 9//26
f 8//1 5//1 10//1
f 11//28 5//25 6//24
f 6//24 9//26 12//29
f 7//1 10//1 5//1
f 13//30 9//26 7//27
f 5//25 11//28 7//27
f 6//24 12//29 11//28
f 14//31 12//29 9//26
f 9//26 13//30 14//31
f 13//30 7//27 11//28
f 15//32 11//28 12//29
f 14//31 16//33 12//29
f 17//34 14//31 13//30
f 11//28 15//32 13//30
f 15//32 12//29 18//35
f 19//36 12//29 16//33
f 16//33 14//31 20//37
f 17//34 20//37 14//31
f 17//34 13//30 15//32
f 19//36 18//35 12//29
f 18//35 20//37 15//32
f 19//38 16//38 21//38
f 16//38 20//38 22//38
f 17//34 15//32 20//37
f 18//38 19//38 20//38
f 21//38 16//38 23//38
f 21//38 24//38 19//38
f 22//38 20//38 25//38
f 26//38 16//38 22//38
f 27//38 20//38 19//38
f 23//38 16//38 28//38
f 21//38 23//38 29//38
f 24//38 30//38 19//38
f 24//38 21//38 30//38
f 27//38 25//38 20//38
f 22//38 25//38 31//38
f 32//38 16//38 26//38
f 33//38 26//38 22//38
f 34//38 27//38 19//38
f 28//38 16//38 32//38
f 23//38 28//38 35//38
f 29//38 23//38 36//38
f 30//38 21//38 29//38
f 30//38 37//38 19//38
f 38//38 25//38 27//38
f 31//38 25//38 39//38
f 22//38 31//38 33//38
f 32//38 26//38 40//38
f 41//38 26//38 33//38
f 27//38 34//38 42//38
f 43//38 34//38 19//38
f 44//38 28//38 32//38
f 35//38 28//38 45//38
f 46//38 23//38 35//38
f 36//38 23//38 46//38
f 36//38 45//38 29//38
f 29//38 47//38 30//38
f 37//38 48//38 19//38
f 37//38 30//38 47//38
f 38//38 39//38 25//38
f 42//38 38//38 27//38
f 31//38 39//38 43//38
f 43//38 33//38 31//38
f 49//38 40//38 26//38
f 32//38 40//38 44//38
f 49//38 26//38 41//38
f 33//38 50//38 41//38
f 51//38 42//38 34//38
f 43//38 52//38 34//38
f 53//38 43//38 19//38
f 44//38 48//38 28//38
f 45//38 28//38 47//38
f 35//38 45//38 46//38
f 46//38 45//38 36//38
f 47//38 29//38 45//38
f 48//38 44//38 19//38
f 37//38 28//38 48//38
f 47//38 28//38 37//38
f 39//38 38//38 51//38
f 42//38 51//38 38//38
f 39//38 54//38 43//38
f 53//38 33//38 43//38
f 40//38 49//38 19//38
f 44//38 40//38 19//38
f 41//38 55//38 49//38
f 41//38 50//38 55//38
f 50//38 33//38 56//38
f 52//38 51//38 34//38
f 57//38 52//38 43//38
f 58//38 53//38 19//38
f 52//38 39//38 51//38
f 54//38 57//38 43//38
f 54//38 39//38 57//38
f 58//38 33//38 53//38
f 49//38 59//38 19//38
f 55//38 59//38 49//38
f 56//38 55//38 50//38
f 56//38 33//38 60//38
f 57//38 39//38 52//38
f 61//38 58//38 19//38
f 61//38 33//38 58//38
f 59//38 60//38 19//38
f 56//38 59//38 55//38
f 60//38 33//38 61//38
f 56//38 60//38 59//38
f 60//38 61//38 19//38
usemtl material_2_0
f 29//21 23//21 21//21
f 30//21 21//21 24//21
f 35//21 28//21 23//21
f 36//21 23//21 29//21
f 29//21 21//21 30//21
f 39//21 25//21 31//21
f 33//21 31//21 22//21
f 40//21 26//21 32//21
f 42//21 34//21 27//21
f 45//21 28//21 35//21
f 35//21 23//21 46//21
f 46//21 23//21 36//21
f 30//21 47//21 29//21
f 47//21 30//21 37//21
f 25//21 39//21 38//21
f 43//21 39//21 31//21
f 31//21 33//21 43//21
f 26//21 40//21 49//21
f 34//21 42//21 51//21
f 34//21 52//21 43//21
f 28//21 48//21 44//21
f 47//21 28//21 45//21
f 48//21 28//21 37//21
f 37//21 28//21 47//21
f 43//21 54//21 39//21
f 43//21 33//21 53//21
f 55//21 50//21 41//21
f 56//21 33//21 50//21
f 34//21 51//21 52//21
f 43//21 52//21 57//21
f 43//21 57//21 54//21
f 53//21 33//21 58//21
f 50//21 55//21 56//21
f 60//21 33//21 56//21
f 58//21 33//21 61//21
f 61//21 33//21 60//21
f 59//21 60//21 56//21
