# SSTK version 0.8.0
# 76
mtllib original-76.mtl
o mesh82/mesh82-geometry#mesh82-geometry
v -0.480154 -0.155601 0.338657
v -0.480154 -0.151034 0.447758
v -0.480154 -0.155601 0.447758
v -0.480154 -0.151034 0.338657
v -0.568082 -0.155601 0.447758
v -0.568082 -0.155601 0.338657
v -0.480423 -0.150516 0.447490
v -0.568082 -0.151034 0.447758
v -0.568082 -0.151034 0.338657
v -0.480423 -0.150516 0.338925
v -0.481155 -0.150137 0.446758
v -0.567814 -0.150516 0.447490
v -0.567814 -0.150516 0.338925
v -0.481155 -0.150137 0.339657
v -0.567081 -0.150137 0.446758
v -0.567081 -0.150137 0.339657
v -0.482156 -0.149998 0.340658
v -0.482156 -0.149998 0.445757
v -0.566081 -0.149998 0.445757
v -0.566081 -0.149998 0.340658
v -0.541307 -0.149998 0.348253
v -0.523913 -0.149998 0.371604
v -0.557061 -0.149998 0.348253
v -0.526884 -0.149998 0.354855
v -0.523913 -0.149998 0.361203
v -0.526780 -0.149998 0.371604
v -0.557061 -0.149998 0.371604
v -0.525763 -0.149998 0.355490
v -0.528228 -0.149998 0.354443
v -0.541307 -0.149998 0.351009
v -0.524073 -0.149998 0.358415
v -0.526780 -0.149998 0.361314
v -0.553971 -0.149998 0.371604
v -0.553971 -0.149998 0.351009
v -0.524965 -0.149998 0.356297
v -0.529695 -0.149998 0.354306
v -0.527115 -0.149998 0.358694
v -0.537660 -0.149998 0.354688
v -0.524423 -0.149998 0.357272
v -0.526864 -0.149998 0.359783
v -0.543012 -0.149998 0.360996
v -0.531352 -0.149998 0.354480
v -0.528302 -0.149998 0.357308
v -0.527579 -0.149998 0.357914
v -0.543012 -0.149998 0.358240
v -0.535079 -0.149998 0.354688
v -0.553971 -0.149998 0.360996
v -0.532801 -0.149998 0.355003
v -0.530301 -0.149998 0.356791
v -0.529227 -0.149998 0.356920
v -0.553971 -0.149998 0.358240
v -0.537660 -0.149998 0.371604
v -0.532007 -0.149998 0.357081
v -0.534792 -0.149998 0.371604
v -0.534044 -0.149998 0.355874
v -0.535079 -0.149998 0.357093
v -0.533462 -0.149998 0.357953
v -0.534792 -0.149998 0.362366
v -0.534044 -0.149998 0.358665
v -0.534709 -0.149998 0.360871
v -0.534460 -0.149998 0.359638
vn 1 0 0
vn 0 0 1
vn 0 0 -1
vn 0.570478700088627 0.5906680110688202 -0.5706709677609283
vn 0.37537529744522674 0.8474029602235807 0.3755018096790213
vn 0.5704787000886263 0.5906680110688195 0.57067096776093
vn 0.37537529744522724 0.8474029602235813 -0.37550180967901925
vn -0.5704787000886274 0.5906680110688186 0.5706709677609297
vn -1 0 0
vn -0.5704787000886269 0.5906680110688197 -0.570670967760929
vn 0.14439113685276245 0.9789220313906497 0.1444398008042479
vn -0.37537529744522763 0.8474029602235803 0.37550180967902114
vn -0.37537529744522735 0.8474029602235813 -0.37550180967901964
vn 0.14439113685276267 0.9789220313906498 -0.14443980080424568
vn -0.14439113685276309 0.9789220313906497 0.14443980080424781
vn -0.14439113685276292 0.9789220313906498 -0.14443980080424573
vn 0.06901157918584623 0.99522439332619 -0.06903483806595757
vn 0.06901157918584612 0.9952243933261897 0.06903483806595978
vn -0.06901157918584665 0.9952243933261897 0.06903483806595977
vn -0.06901157918584656 0.9952243933261897 -0.06903483806595757
vn 0 1 0
vn -0.5704787000886263 -0.5906680110688195 -0.57067096776093
vn -0.37537529744522674 -0.8474029602235807 -0.3755018096790213
vn -0.570478700088627 -0.5906680110688202 0.5706709677609283
vn -0.37537529744522724 -0.8474029602235813 0.37550180967901925
vn 0.5704787000886274 -0.5906680110688186 -0.5706709677609297
vn 0.5704787000886269 -0.5906680110688197 0.570670967760929
vn -0.14439113685276245 -0.9789220313906497 -0.1444398008042479
vn 0.37537529744522763 -0.8474029602235803 -0.37550180967902114
vn 0.37537529744522735 -0.8474029602235813 0.37550180967901964
vn -0.14439113685276267 -0.9789220313906498 0.14443980080424568
vn 0.14439113685276309 -0.9789220313906497 -0.14443980080424781
vn 0.14439113685276292 -0.9789220313906498 0.14443980080424573
vn -0.06901157918584623 -0.99522439332619 0.06903483806595757
vn -0.06901157918584612 -0.9952243933261897 -0.06903483806595978
vn 0.06901157918584665 -0.9952243933261897 -0.06903483806595977
vn 0.06901157918584656 -0.9952243933261897 0.06903483806595757
vn 0 -1 0
usemtl material_0_0
f 1//1 2//1 3//1
f 2//1 1//1 4//1
f 2//2 5//2 3//2
f 6//3 4//3 1//3
f 4//4 7//5 2//6
f 5//2 2//2 8//2
f 4//3 6//3 9//3
f 7//5 4//4 10//7
f 7//5 8//8 2//6
f 9//9 5//9 8//9
f 5//9 9//9 6//9
f 9//10 10//7 4//4
f 10//7 11//11 7//5
f 8//8 7//5 12//12
f 12//12 9//10 8//8
f 10//7 9//10 13//13
f 11//11 10//7 14//14
f 15//15 7//5 11//11
f 7//5 15//15 12//12
f 9//10 12//12 13//13
f 16//16 10//7 13//13
f 10//7 16//16 14//14
f 17//17 11//11 14//14
f 18//18 15//15 11//11
f 15//15 13//13 12//12
f 13//13 15//15 16//16
f 16//16 17//17 14//14
f 11//11 17//17 18//18
f 15//15 18//18 19//19
f 15//15 20//20 16//16
f 17//17 16//16 20//20
f 17//21 19//21 18//21
f 20//20 15//15 19//19
f 21//21 17//21 20//21
f 19//21 17//21 22//21
f 23//21 20//21 19//21
f 24//21 17//21 21//21
f 21//21 20//21 23//21
f 17//21 25//21 22//21
f 19//21 22//21 26//21
f 19//21 27//21 23//21
f 28//21 17//21 24//21
f 24//21 21//21 29//21
f 25//21 17//21 31//21
f 19//21 26//21 32//21
f 19//21 33//21 27//21
f 35//21 17//21 28//21
f 29//21 21//21 36//21
f 30//21 38//21 21//21
f 31//21 17//21 39//21
f 19//21 32//21 40//21
f 19//21 41//21 33//21
f 39//21 17//21 35//21
f 36//21 21//21 42//21
f 34//21 45//21 30//21
f 41//21 38//21 30//21
f 46//21 21//21 38//21
f 19//21 40//21 37//21
f 19//21 38//21 41//21
f 33//21 41//21 47//21
f 42//21 21//21 48//21
f 19//21 37//21 44//21
f 45//21 34//21 51//21
f 41//21 30//21 45//21
f 48//21 21//21 46//21
f 19//21 52//21 38//21
f 19//21 44//21 43//21
f 54//21 43//21 50//21
f 48//21 46//21 55//21
f 19//21 54//21 52//21
f 54//21 50//21 49//21
f 54//21 49//21 53//21
f 19//21 43//21 54//21
f 55//21 46//21 56//21
f 54//21 53//21 57//21
f 58//21 54//21 60//21
f 54//21 57//21 59//21
f 54//21 61//21 60//21
f 54//21 59//21 61//21
usemtl material_1_0
f 3//9 2//9 1//9
f 4//9 1//9 2//9
f 3//3 5//3 2//3
f 1//2 4//2 6//2
f 2//22 7//23 4//24
f 8//3 2//3 5//3
f 9//2 6//2 4//2
f 10//25 4//24 7//23
f 2//22 8//26 7//23
f 8//1 5//1 9//1
f 6//1 9//1 5//1
f 4//24 10//25 9//27
f 7//23 11//28 10//25
f 12//29 7//23 8//26
f 8//26 9//27 12//29
f 13//30 9//27 10//25
f 14//31 10//25 11//28
f 11//28 7//23 15//32
f 12//29 15//32 7//23
f 13//30 12//29 9//27
f 13//30 10//25 16//33
f 14//31 16//33 10//25
f 14//31 11//28 17//34
f 11//28 15//32 18//35
f 12//29 13//30 15//32
f 16//33 15//32 13//30
f 14//31 17//34 16//33
f 18//35 17//34 11//28
f 19//36 18//35 15//32
f 16//33 20//37 15//32
f 20//37 16//33 17//34
f 18//38 19//38 17//38
f 19//36 15//32 20//37
f 20//38 17//38 21//38
f 22//38 17//38 19//38
f 19//38 20//38 23//38
f 21//38 17//38 24//38
f 23//38 20//38 21//38
f 22//38 25//38 17//38
f 26//38 22//38 19//38
f 23//38 27//38 19//38
f 24//38 17//38 28//38
f 29//38 21//38 24//38
f 21//38 30//38 23//38
f 31//38 17//38 25//38
f 22//38 26//38 25//38
f 32//38 26//38 19//38
f 27//38 33//38 19//38
f 27//38 23//38 34//38
f 28//38 17//38 35//38
f 24//38 28//38 32//38
f 36//38 21//38 29//38
f 29//38 24//38 37//38
f 34//38 23//38 30//38
f 21//38 38//38 30//38
f 39//38 17//38 31//38
f 31//38 25//38 26//38
f 32//38 28//38 26//38
f 40//38 32//38 19//38
f 33//38 41//38 19//38
f 27//38 34//38 33//38
f 35//38 17//38 39//38
f 28//38 35//38 26//38
f 40//38 24//38 32//38
f 42//38 21//38 36//38
f 36//38 29//38 43//38
f 37//38 24//38 40//38
f 44//38 29//38 37//38
f 30//38 45//38 34//38
f 30//38 38//38 41//38
f 38//38 21//38 46//38
f 39//38 31//38 26//38
f 37//38 40//38 19//38
f 41//38 38//38 19//38
f 47//38 41//38 33//38
f 33//38 34//38 47//38
f 35//38 39//38 26//38
f 48//38 21//38 42//38
f 42//38 36//38 49//38
f 43//38 29//38 44//38
f 50//38 36//38 43//38
f 44//38 37//38 19//38
f 51//38 34//38 45//38
f 45//38 30//38 41//38
f 46//38 21//38 48//38
f 38//38 46//38 52//38
f 38//38 52//38 19//38
f 47//38 51//38 41//38
f 34//38 51//38 47//38
f 48//38 42//38 53//38
f 49//38 36//38 50//38
f 53//38 42//38 49//38
f 43//38 44//38 19//38
f 50//38 43//38 54//38
f 45//38 41//38 51//38
f 55//38 46//38 48//38
f 46//38 56//38 52//38
f 52//38 54//38 19//38
f 57//38 48//38 53//38
f 49//38 50//38 54//38
f 53//38 49//38 54//38
f 54//38 43//38 19//38
f 56//38 46//38 55//38
f 55//38 48//38 57//38
f 56//38 58//38 52//38
f 54//38 52//38 58//38
f 57//38 53//38 54//38
f 56//38 55//38 59//38
f 59//38 55//38 57//38
f 58//38 56//38 60//38
f 60//38 54//38 58//38
f 59//38 57//38 54//38
f 61//38 56//38 59//38
f 60//38 56//38 61//38
f 60//38 61//38 54//38
f 61//38 59//38 54//38
usemtl material_2_0
f 23//21 30//21 21//21
f 25//21 26//21 22//21
f 34//21 23//21 27//21
f 32//21 28//21 24//21
f 37//21 24//21 29//21
f 30//21 23//21 34//21
f 26//21 25//21 31//21
f 26//21 28//21 32//21
f 33//21 34//21 27//21
f 26//21 35//21 28//21
f 32//21 24//21 40//21
f 43//21 29//21 36//21
f 40//21 24//21 37//21
f 37//21 29//21 44//21
f 26//21 31//21 39//21
f 47//21 34//21 33//21
f 26//21 39//21 35//21
f 49//21 36//21 42//21
f 44//21 29//21 43//21
f 43//21 36//21 50//21
f 52//21 46//21 38//21
f 41//21 51//21 47//21
f 47//21 51//21 34//21
f 53//21 42//21 48//21
f 50//21 36//21 49//21
f 49//21 42//21 53//21
f 51//21 41//21 45//21
f 52//21 56//21 46//21
f 53//21 48//21 57//21
f 57//21 48//21 55//21
f 52//21 58//21 56//21
f 58//21 52//21 54//21
f 59//21 55//21 56//21
f 57//21 55//21 59//21
f 60//21 56//21 58//21
f 59//21 56//21 61//21
f 61//21 56//21 60//21
