# SSTK version 0.8.0
# 60
mtllib original-60.mtl
o mesh66/mesh66-geometry#mesh66-geometry
v -0.454302 -0.155601 0.238623
v -0.364368 -0.151034 0.238623
v -0.454302 -0.151034 0.238623
v -0.364368 -0.155601 0.238623
v -0.364636 -0.150516 0.238355
v -0.454302 -0.151034 0.149988
v -0.364368 -0.155601 0.149988
v -0.454034 -0.150516 0.238355
v -0.364368 -0.151034 0.149988
v -0.454302 -0.155601 0.149988
v -0.365369 -0.150137 0.237623
v -0.364636 -0.150516 0.150256
v -0.454034 -0.150516 0.150256
v -0.453301 -0.150137 0.237623
v -0.366370 -0.149998 0.236622
v -0.365369 -0.150137 0.150988
v -0.453301 -0.150137 0.150988
v -0.452300 -0.149998 0.236622
v -0.452300 -0.149998 0.151989
v -0.416647 -0.149998 0.181687
v -0.366370 -0.149998 0.151989
v -0.415531 -0.149998 0.179519
v -0.418458 -0.149998 0.183554
v -0.441058 -0.149998 0.176056
v -0.417734 -0.149998 0.159557
v -0.424960 -0.149998 0.155623
v -0.415160 -0.149998 0.177213
v -0.416513 -0.149998 0.172981
v -0.418239 -0.149998 0.171305
v -0.420919 -0.149998 0.184955
v -0.439815 -0.149998 0.163555
v -0.440567 -0.149998 0.178884
v -0.419540 -0.149998 0.157738
v -0.416591 -0.149998 0.161764
v -0.421984 -0.149998 0.156422
v -0.428364 -0.149998 0.155356
v -0.416136 -0.149998 0.164245
v -0.415498 -0.149998 0.174958
v -0.419310 -0.149998 0.177537
v -0.419540 -0.149998 0.178864
v -0.423878 -0.149998 0.185830
v -0.439466 -0.149998 0.161376
v -0.439530 -0.149998 0.165506
v -0.439272 -0.149998 0.181403
v -0.420264 -0.149998 0.164529
v -0.422516 -0.149998 0.160267
v -0.431499 -0.149998 0.155610
v -0.428187 -0.149998 0.158827
v -0.419532 -0.149998 0.176226
v -0.420231 -0.149998 0.180084
v -0.421393 -0.149998 0.181127
v -0.427188 -0.149998 0.186122
v -0.438417 -0.149998 0.159344
v -0.438672 -0.149998 0.167259
v -0.437252 -0.149998 0.183471
v -0.421656 -0.149998 0.161074
v -0.423591 -0.149998 0.159637
v -0.434334 -0.149998 0.156371
v -0.431563 -0.149998 0.159154
v -0.424894 -0.149998 0.159187
v -0.420708 -0.149998 0.169948
v -0.420197 -0.149998 0.175092
v -0.423038 -0.149998 0.181921
v -0.425069 -0.149998 0.182423
v -0.431246 -0.149998 0.185827
v -0.436697 -0.149998 0.157622
v -0.437233 -0.149998 0.168778
v -0.434589 -0.149998 0.184945
v -0.436997 -0.149998 0.175731
v -0.420993 -0.149998 0.162053
v -0.423485 -0.149998 0.169067
v -0.427909 -0.149998 0.168050
v -0.432156 -0.149998 0.166977
v -0.421374 -0.149998 0.174131
v -0.423127 -0.149998 0.173337
v -0.427388 -0.149998 0.182591
v -0.435654 -0.149998 0.179394
v -0.436517 -0.149998 0.177763
v -0.435219 -0.149998 0.161579
v -0.432853 -0.149998 0.159563
v -0.428919 -0.149998 0.171886
v -0.430023 -0.149998 0.182370
v -0.432381 -0.149998 0.181708
v -0.435665 -0.149998 0.163291
v -0.434309 -0.149998 0.180688
v -0.433879 -0.149998 0.160136
v -0.434400 -0.149998 0.165929
v -0.435349 -0.149998 0.164752
v -0.435199 -0.149998 0.170029
v -0.432730 -0.149998 0.170929
vn 0 0 1
vn 0.37537529744522674 0.8474029602235807 0.3755018096790213
vn -0.5704787000886274 0.5906680110688186 0.5706709677609297
vn 0.5704787000886263 0.5906680110688195 0.57067096776093
vn -1 0 0
vn 1 0 0
vn -0.37537529744522763 0.8474029602235803 0.37550180967902114
vn 0.570478700088627 0.5906680110688202 -0.5706709677609283
vn -0.5704787000886269 0.5906680110688197 -0.570670967760929
vn 0.14439113685276245 0.9789220313906497 0.1444398008042479
vn 0.37537529744522724 0.8474029602235813 -0.37550180967901925
vn 0 0 -1
vn -0.37537529744522735 0.8474029602235813 -0.37550180967901964
vn -0.14439113685276309 0.9789220313906497 0.14443980080424781
vn 0.06901157918584612 0.9952243933261897 0.06903483806595978
vn 0.14439113685276267 0.9789220313906498 -0.14443980080424568
vn -0.14439113685276292 0.9789220313906498 -0.14443980080424573
vn -0.06901157918584665 0.9952243933261897 0.06903483806595977
vn -0.06901157918584656 0.9952243933261897 -0.06903483806595757
vn 0 1 0
vn 0.06901157918584623 0.99522439332619 -0.06903483806595757
vn -0.5704787000886263 -0.5906680110688195 -0.57067096776093
vn 0.5704787000886274 -0.5906680110688186 -0.5706709677609297
vn -0.37537529744522674 -0.8474029602235807 -0.3755018096790213
vn 0.37537529744522763 -0.8474029602235803 -0.37550180967902114
vn -0.570478700088627 -0.5906680110688202 0.5706709677609283
vn 0.5704787000886269 -0.5906680110688197 0.570670967760929
vn -0.14439113685276245 -0.9789220313906497 -0.1444398008042479
vn -0.37537529744522724 -0.8474029602235813 0.37550180967901925
vn 0.37537529744522735 -0.8474029602235813 0.37550180967901964
vn 0.14439113685276309 -0.9789220313906497 -0.14443980080424781
vn -0.06901157918584612 -0.9952243933261897 -0.06903483806595978
vn -0.14439113685276267 -0.9789220313906498 0.14443980080424568
vn 0.14439113685276292 -0.9789220313906498 0.14443980080424573
vn 0.06901157918584665 -0.9952243933261897 -0.06903483806595977
vn 0.06901157918584656 -0.9952243933261897 0.06903483806595757
vn 0 -1 0
vn -0.06901157918584623 -0.99522439332619 0.06903483806595757
usemtl material_0_0
f 1//1 2//1 3//1
f 2//1 1//1 4//1
f 5//2 3//3 2//4
f 6//5 1//5 3//5
f 7//6 2//6 4//6
f 3//3 5//2 8//7
f 9//8 5//2 2//4
f 1//5 6//5 10//5
f 8//7 6//9 3//3
f 2//6 7//6 9//6
f 11//10 8//7 5//2
f 5//2 9//8 12//11
f 9//12 10//12 6//12
f 6//9 8//7 13//13
f 10//12 9//12 7//12
f 8//7 11//10 14//14
f 12//11 11//10 5//2
f 6//9 12//11 9//8
f 14//14 13//13 8//7
f 12//11 6//9 13//13
f 15//15 14//14 11//10
f 11//10 12//11 16//16
f 13//13 14//14 17//17
f 13//13 16//16 12//11
f 14//14 15//15 18//18
f 16//16 15//15 11//10
f 14//14 19//19 17//17
f 16//16 13//13 17//17
f 15//20 20//20 18//20
f 19//19 14//14 18//18
f 15//15 16//16 21//21
f 21//21 17//17 19//19
f 17//17 21//21 16//16
f 20//20 15//20 22//20
f 18//20 20//20 23//20
f 24//20 19//20 18//20
f 21//20 25//20 15//20
f 26//20 21//20 19//20
f 22//20 15//20 27//20
f 18//20 23//20 30//20
f 31//20 19//20 24//20
f 18//20 32//20 24//20
f 25//20 21//20 33//20
f 15//20 25//20 34//20
f 35//20 21//20 26//20
f 26//20 19//20 36//20
f 15//20 37//20 27//20
f 18//20 30//20 41//20
f 42//20 19//20 31//20
f 24//20 43//20 31//20
f 18//20 44//20 32//20
f 33//20 21//20 35//20
f 15//20 34//20 37//20
f 36//20 19//20 47//20
f 27//20 37//20 38//20
f 37//20 28//20 38//20
f 28//20 45//20 29//20
f 18//20 41//20 52//20
f 53//20 19//20 42//20
f 24//20 54//20 43//20
f 18//20 55//20 44//20
f 47//20 19//20 58//20
f 28//20 37//20 45//20
f 29//20 45//20 61//20
f 49//20 40//20 39//20
f 40//20 62//20 50//20
f 18//20 52//20 65//20
f 66//20 19//20 53//20
f 24//20 67//20 54//20
f 18//20 68//20 55//20
f 71//20 56//20 46//20
f 71//20 46//20 57//20
f 58//20 19//20 66//20
f 72//20 60//20 48//20
f 73//20 48//20 59//20
f 61//20 45//20 70//20
f 40//20 49//20 62//20
f 50//20 62//20 74//20
f 50//20 74//20 51//20
f 51//20 75//20 63//20
f 18//20 65//20 68//20
f 69//20 67//20 24//20
f 71//20 70//20 56//20
f 72//20 57//20 60//20
f 71//20 57//20 72//20
f 72//20 48//20 73//20
f 73//20 59//20 80//20
f 61//20 70//20 71//20
f 51//20 74//20 75//20
f 63//20 75//20 64//20
f 64//20 81//20 76//20
f 78//20 67//20 69//20
f 73//20 80//20 87//20
f 64//20 75//20 81//20
f 76//20 81//20 82//20
f 77//20 67//20 78//20
f 85//20 89//20 77//20
f 87//20 86//20 79//20
f 88//20 79//20 84//20
f 87//20 80//20 86//20
f 82//20 81//20 90//20
f 82//20 90//20 83//20
f 83//20 90//20 85//20
f 77//20 89//20 67//20
f 85//20 90//20 89//20
f 87//20 79//20 88//20
usemtl material_1_0
f 3//12 2//12 1//12
f 4//12 1//12 2//12
f 2//22 3//23 5//24
f 3//6 1//6 6//6
f 4//5 2//5 7//5
f 8//25 5//24 3//23
f 2//22 5//24 9//26
f 10//6 6//6 1//6
f 3//23 6//27 8//25
f 9//5 7//5 2//5
f 5//24 8//25 11//28
f 12//29 9//26 5//24
f 6//1 10//1 9//1
f 13//30 8//25 6//27
f 7//1 9//1 10//1
f 14//31 11//28 8//25
f 5//24 11//28 12//29
f 9//26 12//29 6//27
f 8//25 13//30 14//31
f 13//30 6//27 12//29
f 11//28 14//31 15//32
f 16//33 12//29 11//28
f 17//34 14//31 13//30
f 12//29 16//33 13//30
f 18//35 15//32 14//31
f 11//28 15//32 16//33
f 17//34 19//36 14//31
f 17//34 13//30 16//33
f 18//37 20//37 15//37
f 18//35 14//31 19//36
f 21//38 16//33 15//32
f 19//36 17//34 21//38
f 16//33 21//38 17//34
f 22//37 15//37 20//37
f 23//37 20//37 18//37
f 18//37 19//37 24//37
f 15//37 25//37 21//37
f 19//37 21//37 26//37
f 27//37 15//37 22//37
f 20//37 28//37 22//37
f 23//37 29//37 20//37
f 30//37 23//37 18//37
f 24//37 19//37 31//37
f 24//37 32//37 18//37
f 33//37 21//37 25//37
f 34//37 25//37 15//37
f 26//37 21//37 35//37
f 36//37 19//37 26//37
f 27//37 37//37 15//37
f 27//37 22//37 38//37
f 28//37 38//37 22//37
f 29//37 28//37 20//37
f 39//37 29//37 23//37
f 30//37 40//37 23//37
f 41//37 30//37 18//37
f 31//37 19//37 42//37
f 31//37 43//37 24//37
f 32//37 44//37 18//37
f 32//37 24//37 44//37
f 35//37 21//37 33//37
f 33//37 25//37 45//37
f 25//37 34//37 45//37
f 37//37 34//37 15//37
f 26//37 35//37 46//37
f 47//37 19//37 36//37
f 36//37 26//37 48//37
f 38//37 37//37 27//37
f 38//37 28//37 37//37
f 29//37 45//37 28//37
f 49//37 29//37 39//37
f 39//37 23//37 40//37
f 50//37 40//37 30//37
f 41//37 51//37 30//37
f 52//37 41//37 18//37
f 42//37 19//37 53//37
f 31//37 42//37 43//37
f 43//37 54//37 24//37
f 44//37 55//37 18//37
f 44//37 24//37 55//37
f 35//37 33//37 45//37
f 37//37 45//37 34//37
f 46//37 35//37 56//37
f 57//37 26//37 46//37
f 58//37 19//37 47//37
f 47//37 36//37 59//37
f 48//37 26//37 60//37
f 59//37 36//37 48//37
f 45//37 37//37 28//37
f 61//37 45//37 29//37
f 61//37 29//37 49//37
f 39//37 40//37 49//37
f 50//37 62//37 40//37
f 51//37 50//37 30//37
f 63//37 51//37 41//37
f 52//37 64//37 41//37
f 65//37 52//37 18//37
f 53//37 19//37 66//37
f 42//37 53//37 54//37
f 43//37 42//37 54//37
f 54//37 67//37 24//37
f 55//37 68//37 18//37
f 24//37 69//37 55//37
f 70//37 35//37 45//37
f 56//37 35//37 70//37
f 46//37 56//37 71//37
f 60//37 26//37 57//37
f 57//37 46//37 71//37
f 66//37 19//37 58//37
f 58//37 47//37 59//37
f 48//37 60//37 72//37
f 59//37 48//37 73//37
f 70//37 45//37 61//37
f 62//37 61//37 49//37
f 62//37 49//37 40//37
f 74//37 62//37 50//37
f 51//37 74//37 50//37
f 63//37 75//37 51//37
f 64//37 63//37 41//37
f 76//37 64//37 52//37
f 65//37 76//37 52//37
f 68//37 65//37 18//37
f 53//37 66//37 67//37
f 54//37 53//37 67//37
f 24//37 67//37 69//37
f 55//37 77//37 68//37
f 69//37 78//37 55//37
f 56//37 70//37 71//37
f 60//37 57//37 72//37
f 72//37 57//37 71//37
f 66//37 58//37 79//37
f 80//37 58//37 59//37
f 73//37 48//37 72//37
f 80//37 59//37 73//37
f 71//37 70//37 61//37
f 74//37 61//37 62//37
f 75//37 74//37 51//37
f 64//37 75//37 63//37
f 76//37 81//37 64//37
f 82//37 76//37 65//37
f 68//37 83//37 65//37
f 66//37 84//37 67//37
f 69//37 67//37 78//37
f 77//37 85//37 68//37
f 78//37 77//37 55//37
f 72//37 71//37 81//37
f 79//37 58//37 86//37
f 84//37 66//37 79//37
f 86//37 58//37 80//37
f 73//37 72//37 81//37
f 87//37 80//37 73//37
f 71//37 61//37 74//37
f 75//37 71//37 74//37
f 81//37 75//37 64//37
f 82//37 81//37 76//37
f 83//37 82//37 65//37
f 85//37 83//37 68//37
f 84//37 88//37 67//37
f 78//37 67//37 77//37
f 77//37 89//37 85//37
f 81//37 71//37 75//37
f 79//37 86//37 87//37
f 84//37 79//37 88//37
f 86//37 80//37 87//37
f 90//37 73//37 81//37
f 87//37 73//37 90//37
f 90//37 81//37 82//37
f 83//37 90//37 82//37
f 85//37 90//37 83//37
f 67//37 88//37 89//37
f 67//37 89//37 77//37
f 89//37 90//37 85//37
f 88//37 79//37 87//37
f 89//37 87//37 90//37
f 88//37 87//37 89//37
usemtl material_2_0
f 22//20 28//20 20//20
f 20//20 29//20 23//20
f 38//20 22//20 27//20
f 22//20 38//20 28//20
f 20//20 28//20 29//20
f 23//20 29//20 39//20
f 23//20 40//20 30//20
f 44//20 24//20 32//20
f 45//20 25//20 33//20
f 45//20 34//20 25//20
f 46//20 35//20 26//20
f 48//20 26//20 36//20
f 39//20 29//20 49//20
f 40//20 23//20 39//20
f 30//20 40//20 50//20
f 30//20 51//20 41//20
f 43//20 42//20 31//20
f 55//20 24//20 44//20
f 45//20 33//20 35//20
f 34//20 45//20 37//20
f 56//20 35//20 46//20
f 46//20 26//20 57//20
f 59//20 36//20 47//20
f 60//20 26//20 48//20
f 48//20 36//20 59//20
f 49//20 29//20 61//20
f 30//20 50//20 51//20
f 41//20 51//20 63//20
f 41//20 64//20 52//20
f 54//20 53//20 42//20
f 54//20 42//20 43//20
f 55//20 69//20 24//20
f 45//20 35//20 70//20
f 70//20 35//20 56//20
f 57//20 26//20 60//20
f 59//20 47//20 58//20
f 49//20 61//20 62//20
f 41//20 63//20 64//20
f 52//20 64//20 76//20
f 52//20 76//20 65//20
f 67//20 66//20 53//20
f 67//20 53//20 54//20
f 68//20 77//20 55//20
f 55//20 78//20 69//20
f 79//20 58//20 66//20
f 59//20 58//20 80//20
f 62//20 61//20 74//20
f 65//20 76//20 82//20
f 65//20 83//20 68//20
f 67//20 84//20 66//20
f 68//20 85//20 77//20
f 55//20 77//20 78//20
f 81//20 71//20 72//20
f 86//20 58//20 79//20
f 79//20 66//20 84//20
f 80//20 58//20 86//20
f 81//20 72//20 73//20
f 74//20 61//20 71//20
f 74//20 71//20 75//20
f 65//20 82//20 83//20
f 68//20 83//20 85//20
f 67//20 88//20 84//20
f 75//20 71//20 81//20
f 81//20 73//20 90//20
f 90//20 73//20 87//20
f 89//20 88//20 67//20
f 90//20 87//20 89//20
f 89//20 87//20 88//20
