# SSTK version 0.8.0
# 79
mtllib original-79.mtl
o mesh85/mesh85-geometry#mesh85-geometry
v 0.487225 -0.153145 0.338657
v 0.404150 -0.161205 0.338657
v 0.404150 -0.153145 0.338657
v 0.487225 -0.161205 0.338657
v 0.404150 -0.161205 0.389106
v 0.404240 -0.152972 0.338746
v 0.487225 -0.153145 0.389106
v 0.404150 -0.153145 0.389106
v 0.487136 -0.152972 0.338746
v 0.404240 -0.152972 0.389017
v 0.487225 -0.161205 0.389106
v 0.487136 -0.152972 0.389017
v 0.404484 -0.152846 0.338990
v 0.404484 -0.152846 0.388773
v 0.486891 -0.152846 0.338990
v 0.486891 -0.152846 0.388773
v 0.486558 -0.152800 0.339324
v 0.404817 -0.152800 0.339324
v 0.404817 -0.152800 0.388439
v 0.486558 -0.152800 0.388439
vn 0 0 -1
vn -1 0 0
vn -0.37537529744522735 0.8474029602235813 -0.37550180967901964
vn 0.570478700088627 0.5906680110688202 -0.5706709677609283
vn -0.5704787000886269 0.5906680110688197 -0.570670967760929
vn 1 0 0
vn 0.37537529744522724 0.8474029602235813 -0.37550180967901925
vn -0.37537529744522763 0.8474029602235803 0.37550180967902114
vn 0.37537529744522674 0.8474029602235807 0.3755018096790213
vn 0.5704787000886263 0.5906680110688195 0.57067096776093
vn 0 0 1
vn -0.5704787000886274 0.5906680110688186 0.5706709677609297
vn -0.14439113685276292 0.9789220313906498 -0.14443980080424573
vn -0.14439113685276309 0.9789220313906497 0.14443980080424781
vn 0.14439113685276267 0.9789220313906498 -0.14443980080424568
vn 0.14439113685276245 0.9789220313906497 0.1444398008042479
vn 0.06901157918584623 0.99522439332619 -0.06903483806595757
vn -0.06901157918584656 0.9952243933261897 -0.06903483806595757
vn -0.06901157918584665 0.9952243933261897 0.06903483806595977
vn 0.06901157918584612 0.9952243933261897 0.06903483806595978
vn 0 1 0
vn 0.5704787000886269 -0.5906680110688197 0.570670967760929
vn -0.570478700088627 -0.5906680110688202 0.5706709677609283
vn 0.37537529744522735 -0.8474029602235813 0.37550180967901964
vn -0.37537529744522724 -0.8474029602235813 0.37550180967901925
vn 0.37537529744522763 -0.8474029602235803 -0.37550180967902114
vn -0.5704787000886263 -0.5906680110688195 -0.57067096776093
vn -0.37537529744522674 -0.8474029602235807 -0.3755018096790213
vn 0.5704787000886274 -0.5906680110688186 -0.5706709677609297
vn 0.14439113685276292 -0.9789220313906498 0.14443980080424573
vn 0.14439113685276309 -0.9789220313906497 -0.14443980080424781
vn -0.14439113685276267 -0.9789220313906498 0.14443980080424568
vn -0.14439113685276245 -0.9789220313906497 -0.1444398008042479
vn -0.06901157918584623 -0.99522439332619 0.06903483806595757
vn 0.06901157918584656 -0.9952243933261897 0.06903483806595757
vn 0.06901157918584665 -0.9952243933261897 -0.06903483806595977
vn -0.06901157918584612 -0.9952243933261897 -0.06903483806595978
vn 0 -1 0
usemtl material_0_0
f 1//1 2//1 3//1
f 2//1 1//1 4//1
f 5//2 3//2 2//2
f 6//3 1//4 3//5
f 7//6 4//6 1//6
f 3//2 5//2 8//2
f 1//4 6//3 9//7
f 3//5 10//8 6//3
f 4//6 7//6 11//6
f 1//4 12//9 7//10
f 5//11 7//11 8//11
f 10//8 3//5 8//12
f 13//13 9//7 6//3
f 12//9 1//4 9//7
f 14//14 6//3 10//8
f 7//11 5//11 11//11
f 10//8 7//10 12//9
f 7//10 10//8 8//12
f 9//7 13//13 15//15
f 6//3 14//14 13//13
f 9//7 16//16 12//9
f 12//9 14//14 10//8
f 13//13 17//17 15//15
f 16//16 9//7 15//15
f 14//14 18//18 13//13
f 14//14 12//9 16//16
f 17//17 13//13 18//18
f 17//17 16//16 15//15
f 18//18 14//14 19//19
f 20//20 14//14 16//16
f 19//21 17//21 18//21
f 16//16 17//17 20//20
f 14//14 20//20 19//19
f 17//21 19//21 20//21
usemtl material_1_0
f 3//11 2//11 1//11
f 4//11 1//11 2//11
f 2//6 3//6 5//6
f 3//22 1//23 6//24
f 1//2 4//2 7//2
f 8//6 5//6 3//6
f 9//25 6//24 1//23
f 6//24 10//26 3//22
f 11//2 7//2 4//2
f 7//27 12//28 1//23
f 8//1 7//1 5//1
f 8//29 3//22 10//26
f 6//24 9//25 13//30
f 9//25 1//23 12//28
f 10//26 6//24 14//31
f 11//1 5//1 7//1
f 12//28 7//27 10//26
f 8//29 10//26 7//27
f 15//32 13//30 9//25
f 13//30 14//31 6//24
f 12//28 16//33 9//25
f 10//26 14//31 12//28
f 15//32 17//34 13//30
f 15//32 9//25 16//33
f 13//30 18//35 14//31
f 16//33 12//28 14//31
f 18//35 13//30 17//34
f 15//32 16//33 17//34
f 19//36 14//31 18//35
f 16//33 14//31 20//37
f 18//38 17//38 19//38
f 20//37 17//34 16//33
f 19//36 20//37 14//31
f 20//38 19//38 17//38
