# SSTK version 0.8.0
# 9
mtllib original-9.mtl
o mesh8/mesh8-geometry#mesh8-geometry
v -0.665702 -0.149998 0.074247
v -0.665608 -0.149998 0.076762
v -0.665677 -0.149998 0.077252
v -0.664956 -0.149998 0.073977
v -0.665677 -0.148044 0.077252
v -0.666178 -0.149998 0.080101
v -0.665702 -0.148044 0.074247
v -0.665404 -0.149998 0.076319
v -0.665608 -0.148044 0.076762
v -0.665528 -0.148044 0.077973
v -0.666370 -0.149998 0.074621
v -0.665499 -0.149998 0.080392
v -0.664956 -0.148044 0.073977
v -0.666370 -0.148044 0.074621
v -0.665073 -0.149998 0.075949
v -0.665528 -0.149998 0.077973
v -0.665499 -0.148044 0.080392
v -0.666746 -0.149998 0.079692
v -0.663209 -0.149998 0.073682
v -0.666178 -0.148044 0.080101
v -0.664628 -0.149998 0.075680
v -0.665404 -0.148044 0.076319
v -0.665082 -0.148044 0.078562
v -0.666938 -0.149998 0.075116
v -0.666938 -0.148044 0.075116
v -0.665082 -0.149998 0.078562
v -0.664710 -0.148044 0.080567
v -0.663209 -0.148044 0.073682
v -0.666746 -0.148044 0.079692
v -0.664628 -0.148044 0.075680
v -0.665073 -0.148044 0.075949
v -0.667195 -0.149998 0.079193
v -0.664710 -0.149998 0.080567
v -0.661143 -0.149998 0.073371
v -0.662914 -0.149998 0.075287
v -0.662914 -0.148044 0.075287
v -0.664349 -0.149998 0.078955
v -0.664349 -0.148044 0.078955
v -0.667385 -0.149998 0.075751
v -0.667195 -0.148044 0.079193
v -0.663810 -0.148044 0.080626
v -0.661143 -0.148044 0.073371
v -0.667516 -0.149998 0.078629
v -0.667516 -0.148044 0.078629
v -0.667385 -0.148044 0.075751
v -0.663810 -0.149998 0.080626
v -0.659704 -0.149998 0.073005
v -0.661042 -0.149998 0.074948
v -0.661042 -0.148044 0.074948
v -0.663340 -0.149998 0.079086
v -0.663340 -0.148044 0.079086
v -0.667676 -0.149998 0.076492
v -0.662689 -0.148044 0.080530
v -0.659704 -0.148044 0.073005
v -0.667709 -0.149998 0.078000
v -0.667709 -0.148044 0.078000
v -0.667676 -0.148044 0.076492
v -0.662689 -0.149998 0.080530
v -0.659694 -0.148044 0.072492
v -0.659704 -0.149998 0.074544
v -0.659704 -0.148044 0.074544
v -0.662267 -0.149998 0.078962
v -0.662267 -0.148044 0.078962
v -0.667773 -0.149998 0.077307
v -0.661642 -0.148044 0.080243
v -0.659694 -0.149998 0.072492
v -0.659541 -0.148044 0.078933
v -0.667773 -0.148044 0.077307
v -0.661642 -0.149998 0.080243
v -0.659833 -0.148044 0.071468
v -0.658987 -0.148044 0.069251
v -0.659704 -0.149998 0.075265
v -0.661320 -0.149998 0.078589
v -0.661320 -0.148044 0.078589
v -0.660612 -0.148044 0.079725
v -0.659704 -0.148044 0.075265
v -0.659833 -0.149998 0.071468
v -0.659792 -0.148044 0.068856
v -0.659399 -0.148044 0.079700
v -0.659541 -0.149998 0.078933
v -0.660612 -0.149998 0.079725
v -0.659784 -0.148044 0.076406
v -0.660250 -0.148044 0.070800
v -0.659792 -0.149998 0.068856
v -0.658987 -0.149998 0.069251
v -0.659399 -0.149998 0.079700
v -0.659148 -0.148044 0.080364
v -0.659784 -0.149998 0.076406
v -0.660553 -0.149998 0.078001
v -0.660553 -0.148044 0.078001
v -0.660021 -0.148044 0.077230
v -0.660250 -0.149998 0.070800
v -0.660859 -0.148044 0.068594
v -0.658427 -0.149998 0.069735
v -0.659148 -0.149998 0.080364
v -0.657592 -0.148044 0.078972
v -0.660021 -0.149998 0.077230
v -0.661187 -0.149998 0.070300
v -0.660859 -0.149998 0.068594
v -0.661187 -0.148044 0.070300
v -0.658427 -0.148044 0.069735
v -0.657592 -0.149998 0.078972
v -0.657095 -0.148044 0.080364
v -0.657405 -0.148044 0.079683
v -0.662205 -0.148044 0.068507
v -0.658056 -0.148044 0.070334
v -0.658056 -0.149998 0.070334
v -0.657095 -0.149998 0.080364
v -0.662489 -0.149998 0.070134
v -0.662205 -0.149998 0.068507
v -0.662489 -0.148044 0.070134
v -0.657405 -0.149998 0.079683
v -0.657717 -0.149998 0.075505
v -0.657717 -0.148044 0.075505
v -0.663610 -0.148044 0.068609
v -0.657816 -0.148044 0.071072
v -0.657816 -0.149998 0.071072
v -0.663694 -0.149998 0.070255
v -0.663610 -0.149998 0.068609
v -0.663694 -0.148044 0.070255
v -0.657717 -0.149998 0.072885
v -0.657717 -0.148044 0.072885
v -0.664536 -0.148044 0.070619
v -0.664536 -0.149998 0.070619
v -0.664836 -0.148044 0.068916
v -0.664836 -0.149998 0.068916
v -0.665110 -0.148044 0.071292
v -0.665110 -0.149998 0.071292
v -0.665838 -0.148044 0.069413
v -0.665513 -0.148044 0.072339
v -0.665513 -0.149998 0.072339
v -0.665838 -0.149998 0.069413
v -0.666572 -0.148044 0.070084
v -0.666572 -0.149998 0.070084
v -0.667434 -0.149998 0.072077
v -0.667088 -0.148044 0.070962
v -0.667088 -0.149998 0.070962
v -0.667434 -0.148044 0.072077
vn 0 -1 0
vn 0 1 0
vn 0.9595500511586853 0 0.2815380956839845
vn 0.9994687721957444 0 -0.03259100191051842
vn -0.9994687721957444 0 0.03259100191051842
vn -0.9595500511586853 0 -0.2815380956839845
vn -0.415979811519277 0 -0.9093738485399647
vn -0.2544109788665564 0 -0.967096196783009
vn 0.415979811519277 0 0.9093738485399647
vn 0.2544109788665564 0 0.967096196783009
vn 0.910726908760587 0 -0.41300907696972644
vn -0.910726908760587 0 0.41300907696972644
vn -0.5762249388879642 0 -0.8172911475132726
vn 0.5762249388879642 0 0.8172911475132726
vn 0.836096458010488 0 0.5485824577055998
vn -0.836096458010488 0 -0.5485824577055998
vn -0.3069468062496322 0 0.9517266719668785
vn -0.4920241651994647 0 0.8705815417637627
vn 0.3069468062496322 0 -0.9517266719668785
vn 0.4920241651994647 0 -0.8705815417637627
vn -0.1576629522702926 0 -0.9874929840162995
vn 0.1576629522702926 0 0.9874929840162995
vn 0.6386320354682781 0 0.7695122632379838
vn -0.6386320354682781 0 -0.7695122632379838
vn 0.6499887028815653 0 -0.7599438703788197
vn -0.6499887028815653 0 0.7599438703788197
vn -0.6673431468100249 0 0.7447503772444117
vn 0.6673431468100249 0 -0.7447503772444117
vn -0.7426165819730332 0 -0.669716814914102
vn 0.7426165819730332 0 0.669716814914102
vn -0.14097694245314804 0 0.9900128795609487
vn 0.14097694245314804 0 -0.9900128795609487
vn 0.3750838474154019 0 0.9269908885248329
vn -0.3750838474154019 0 -0.9269908885248329
vn -0.1979169032686883 0 -0.9802188017991353
vn 0.1979169032686883 0 0.9802188017991353
vn 0.20074197317097758 0 0.9796441497847178
vn -0.20074197317097758 0 -0.9796441497847178
vn 0.305751975334608 0 -0.9521111960159827
vn -0.305751975334608 0 0.9521111960159827
vn -0.8110771096025561 0 0.5849392466562348
vn 0.8110771096025561 0 -0.5849392466562348
vn -0.8804085814474354 0 -0.47421591043923705
vn 0.8804085814474354 0 0.47421591043923705
vn 0.010162000802892542 0 0.9999483655367821
vn -0.010162000802892542 0 -0.9999483655367821
vn -0.9183060697505873 0 0.39587114350408215
vn 0.9183060697505873 0 -0.39587114350408215
vn -0.24642795793528105 0 -0.9691611122758937
vn 0.24642795793528105 0 0.9691611122758937
vn 0.23389089676151237 0 0.9722628494456093
vn -0.23389089676151237 0 -0.9722628494456093
vn 0.006958996515902087 0 -0.9999757858905842
vn -0.006958996515902087 0 0.9999757858905842
vn -0.9698707599306041 0 -0.24362000950585463
vn 0.9698707599306041 0 0.24362000950585463
vn 0.17524087660847065 0 0.984525588883039
vn -0.17524087660847065 0 -0.984525588883039
vn -0.9811265053914915 0 0.1933669579278724
vn 0.9811265053914915 0 -0.1933669579278724
vn -0.998378856122822 0 0.05691800810714792
vn -0.9997737254025245 0 -0.021272000252855635
vn 0.9997737254025245 0 0.021272000252855635
vn 0.998378856122822 0 -0.05691800810714792
vn -0.5961797943182088 0 0.8028509530708038
vn 0.5961797943182088 0 -0.8028509530708038
vn -0.24257697116695545 0 -0.9701321626765426
vn 0.24257697116695545 0 0.9701321626765426
vn -0.9999144530143211 0 -0.013080009673965772
vn 0.9999144530143211 0 0.013080009673965772
vn 0.35860088817422825 0 0.9334909763895175
vn -0.35860088817422825 0 -0.9334909763895175
vn -0.9404987947923784 0 0.33979702322722555
vn 0.9404987947923784 0 -0.33979702322722555
vn -0.9994003049090069 0 -0.034627020486668256
vn 0.9994003049090069 0 0.034627020486668256
vn -0.49210482957682966 0 -0.8705359479695018
vn 0.49210482957682966 0 0.8705359479695018
vn 0.5238049811112705 0 0.8518382133733033
vn -0.5238049811112705 0 -0.8518382133733033
vn -0.6826160227868601 0 0.7307772337960788
vn 0.6826160227868601 0 -0.7307772337960788
vn 0.5518260147514138 0 -0.8339592612613477
vn 0.3411317223048868 0 -0.9400155041472995
vn -0.5518260147514138 0 0.8339592612613477
vn -0.3411317223048868 0 0.9400155041472995
vn -0.983305177340767 0 0.18196408495866206
vn -0.9631136448423407 0 0.26909497787677483
vn 0.9631136448423407 0 -0.26909497787677483
vn 0.983305177340767 0 -0.18196408495866206
vn -0.9847481137146968 0 -0.173986069946264
vn 0.9847481137146968 0 0.173986069946264
vn -0.7245855986426035 0 -0.689184815735039
vn 0.7245855986426035 0 0.689184815735039
vn 0.5942466993661402 0 0.8042828235716889
vn -0.5942466993661402 0 -0.8042828235716889
vn 0.7610054085657851 0 -0.6487455341916599
vn -0.7610054085657851 0 0.6487455341916599
vn -0.9352173243274688 0 0.35407422424933704
vn 0.9352173243274688 0 -0.35407422424933704
vn -0.9037592111346424 0 -0.42804122265184763
vn 0.9037592111346424 0 0.42804122265184763
vn -0.3037730478027159 0 0.9527444229323251
vn 0.3037730478027159 0 -0.9527444229323251
vn 0.15219600724958382 0 -0.9883503302864246
vn -0.15219600724958382 0 0.9883503302864246
vn 0 0 1
vn 0 0 -1
vn 0.9070335423805765 0 -0.42105837243373123
vn -0.9070335423805765 0 0.42105837243373123
vn 0.9420750604346835 0 -0.33540211762448324
vn 0.9892633145139847 0 -0.14614408834025733
vn -0.9892633145139847 0 0.14614408834025733
vn -0.9420750604346835 0 0.33540211762448324
vn -0.013368991236142653 0 0.9999106310432588
vn 0.013368991236142653 0 -0.9999106310432588
vn -0.0039349998871185295 0 -0.9999922578579737
vn 0.0039349998871185295 0 0.9999922578579737
vn 0.9102412883518138 0 -0.4140782498268054
vn -0.9102412883518138 0 0.4140782498268054
vn 0.9998361633308634 0 -0.018101008143713893
vn -0.9998361633308634 0 0.018101008143713893
vn 0.9830566521411865 0 -0.1833019876623332
vn -0.9830566521411865 0 0.1833019876623332
vn 0.25169389986704066 0 0.9678068922929409
vn -0.25169389986704066 0 -0.9678068922929409
vn -0.15842495794015066 0 -0.9873710207929244
vn 0.15842495794015066 0 0.9873710207929244
vn 0.9996332962162638 0 -0.027079015783577107
vn -0.9996332962162638 0 0.027079015783577107
vn 0.5941500146758906 0 0.804354250352815
vn -0.5941500146758906 0 -0.804354250352815
vn -0.34565601014888747 0 -0.9383612964354145
vn 0.34565601014888747 0 0.9383612964354145
vn 0.8592576986679196 0 0.5115429671883984
vn -0.8592576986679196 0 -0.5115429671883984
vn -0.5651126628992129 0 -0.8250137442679125
vn 0.5651126628992129 0 0.8250137442679125
vn 0.9333456490578352 0 0.35897896788643263
vn -0.9333456490578352 0 -0.35897896788643263
vn -0.7771066679365051 0 -0.6293689114093753
vn 0.7771066679365051 0 0.6293689114093753
vn -0.13511298822493478 0 0.9908301975681447
vn 0.13511298822493478 0 -0.9908301975681447
vn -0.9145361485739748 0 -0.40450418162422086
vn 0.9145361485739748 0 0.40450418162422086
vn -0.9549157275171816 0 -0.29687700035592496
vn 0.9549157275171816 0 0.29687700035592496
usemtl material_0_0
f 1//1 2//1 3//1
f 2//1 1//1 4//1
f 3//2 2//2 1//2
f 4//2 1//2 2//2
f 2//3 5//4 3//4
f 3//5 5//5 2//6
f 6//1 1//1 3//1
f 3//2 1//2 6//2
f 7//7 4//8 1//7
f 1//9 4//10 7//9
f 2//1 4//1 8//1
f 8//2 4//2 2//2
f 5//4 2//3 9//3
f 9//6 2//6 5//5
f 10//11 3//4 5//4
f 5//5 3//5 10//12
f 6//1 11//1 1//1
f 1//2 11//2 6//2
f 6//1 3//1 12//1
f 12//2 3//2 6//2
f 4//8 7//7 13//8
f 13//10 7//9 4//10
f 1//7 14//13 7//7
f 7//9 14//14 1//9
f 8//1 4//1 15//1
f 15//2 4//2 8//2
f 8//15 9//3 2//3
f 2//6 9//6 8//16
f 9//2 7//2 5//2
f 5//1 7//1 9//1
f 3//4 10//11 16//11
f 16//12 10//12 3//5
f 5//2 17//2 10//2
f 10//1 17//1 5//1
f 18//1 11//1 6//1
f 6//2 11//2 18//2
f 14//13 1//7 11//13
f 11//14 1//9 14//14
f 12//1 3//1 16//1
f 16//2 3//2 12//2
f 17//17 6//18 12//17
f 12//19 6//20 17//19
f 7//2 9//2 13//2
f 13//1 9//1 7//1
f 13//8 19//21 4//8
f 4//10 19//22 13//10
f 14//2 20//2 7//2
f 7//1 20//1 14//1
f 15//1 4//1 21//1
f 21//2 4//2 15//2
f 15//23 22//15 8//15
f 8//16 22//16 15//24
f 9//3 8//15 22//15
f 22//16 8//16 9//6
f 7//2 20//2 5//2
f 5//1 20//1 7//1
f 23//25 16//11 10//11
f 10//12 16//12 23//26
f 5//2 20//2 17//2
f 17//1 20//1 5//1
f 10//2 17//2 23//2
f 23//1 17//1 10//1
f 18//1 24//1 11//1
f 11//2 24//2 18//2
f 20//18 18//27 6//18
f 6//20 18//28 20//20
f 11//13 25//29 14//13
f 14//14 25//30 11//14
f 12//1 16//1 26//1
f 26//2 16//2 12//2
f 6//18 17//17 20//18
f 20//20 17//19 6//20
f 12//17 27//31 17//17
f 17//19 27//32 12//19
f 13//2 9//2 22//2
f 22//1 9//1 13//1
f 19//21 13//8 28//21
f 28//22 13//10 19//22
f 21//1 4//1 19//1
f 19//2 4//2 21//2
f 14//2 29//2 20//2
f 20//1 29//1 14//1
f 30//33 15//23 21//33
f 21//34 15//24 30//34
f 22//15 15//23 31//23
f 31//24 15//24 22//16
f 16//11 23//25 26//25
f 26//26 23//26 16//12
f 23//2 17//2 27//2
f 27//1 17//1 23//1
f 32//1 24//1 18//1
f 18//2 24//2 32//2
f 25//29 11//13 24//29
f 24//30 11//14 25//30
f 18//27 20//18 29//27
f 29//28 20//20 18//28
f 25//2 29//2 14//2
f 14//1 29//1 25//1
f 12//1 26//1 33//1
f 33//2 26//2 12//2
f 27//31 12//17 33//31
f 33//32 12//19 27//32
f 13//2 22//2 31//2
f 31//1 22//1 13//1
f 13//2 30//2 28//2
f 28//1 30//1 13//1
f 28//21 34//35 19//21
f 19//22 34//36 28//22
f 21//1 19//1 35//1
f 35//2 19//2 21//2
f 15//23 30//33 31//23
f 31//24 30//34 15//24
f 21//33 36//37 30//33
f 30//34 36//38 21//34
f 23//25 37//39 26//25
f 26//26 37//40 23//26
f 23//2 27//2 38//2
f 38//1 27//1 23//1
f 32//1 39//1 24//1
f 24//2 39//2 32//2
f 18//27 40//41 32//41
f 32//42 40//42 18//28
f 39//43 25//29 24//29
f 24//30 25//30 39//44
f 40//41 18//27 29//27
f 29//28 18//28 40//42
f 25//2 40//2 29//2
f 29//1 40//1 25//1
f 33//1 26//1 37//1
f 37//2 26//2 33//2
f 33//31 41//45 27//31
f 27//32 41//46 33//32
f 13//2 31//2 30//2
f 30//1 31//1 13//1
f 28//2 30//2 36//2
f 36//1 30//1 28//1
f 34//35 28//21 42//35
f 42//36 28//22 34//36
f 35//1 19//1 34//1
f 34//2 19//2 35//2
f 36//37 21//33 35//37
f 35//38 21//34 36//38
f 37//39 23//25 38//39
f 38//40 23//26 37//40
f 38//2 27//2 41//2
f 41//1 27//1 38//1
f 43//1 39//1 32//1
f 32//2 39//2 43//2
f 44//47 32//41 40//41
f 40//42 32//42 44//48
f 25//29 39//43 45//43
f 45//44 39//44 25//30
f 45//2 40//2 25//2
f 25//1 40//1 45//1
f 33//1 37//1 46//1
f 46//2 37//2 33//2
f 41//45 33//31 46//45
f 46//46 33//32 41//46
f 28//2 36//2 42//2
f 42//1 36//1 28//1
f 42//35 47//49 34//35
f 34//36 47//50 42//36
f 35//1 34//1 48//1
f 48//2 34//2 35//2
f 35//37 49//51 36//37
f 36//38 49//52 35//38
f 38//39 50//53 37//39
f 37//40 50//54 38//40
f 38//2 41//2 51//2
f 51//1 41//1 38//1
f 43//1 52//1 39//1
f 39//2 52//2 43//2
f 32//41 44//47 43//47
f 43//48 44//48 32//42
f 45//2 44//2 40//2
f 40//1 44//1 45//1
f 52//55 45//43 39//43
f 39//44 45//44 52//56
f 46//1 37//1 50//1
f 50//2 37//2 46//2
f 46//45 53//57 41//45
f 41//46 53//58 46//46
f 42//2 36//2 49//2
f 49//1 36//1 42//1
f 47//49 42//35 54//49
f 54//50 42//36 47//50
f 48//1 34//1 47//1
f 47//2 34//2 48//2
f 49//51 35//37 48//51
f 48//52 35//38 49//52
f 50//53 38//39 51//53
f 51//54 38//40 50//54
f 51//2 41//2 53//2
f 53//1 41//1 51//1
f 55//1 52//1 43//1
f 43//2 52//2 55//2
f 56//59 43//47 44//47
f 44//48 43//48 56//60
f 57//2 44//2 45//2
f 45//1 44//1 57//1
f 45//43 52//55 57//55
f 57//56 52//56 45//44
f 46//1 50//1 58//1
f 58//2 50//2 46//2
f 53//57 46//45 58//57
f 58//58 46//46 53//58
f 42//2 49//2 54//2
f 54//1 49//1 42//1
f 59//61 47//62 54//62
f 54//63 47//63 59//64
f 48//1 47//1 60//1
f 60//2 47//2 48//2
f 48//51 61//65 49//51
f 49//52 61//66 48//52
f 51//53 62//67 50//53
f 50//54 62//68 51//54
f 51//2 53//2 63//2
f 63//1 53//1 51//1
f 52//1 55//1 64//1
f 64//2 55//2 52//2
f 43//47 56//59 55//59
f 55//60 56//60 43//48
f 57//2 56//2 44//2
f 44//1 56//1 57//1
f 64//69 57//55 52//55
f 52//56 57//56 64//70
f 58//1 50//1 62//1
f 62//2 50//2 58//2
f 58//57 65//71 53//57
f 53//58 65//72 58//58
f 54//2 49//2 61//2
f 61//1 49//1 54//1
f 47//62 59//61 66//61
f 66//64 59//64 47//63
f 54//2 67//2 59//2
f 59//1 67//1 54//1
f 60//1 47//1 66//1
f 66//2 47//2 60//2
f 61//65 48//51 60//65
f 60//66 48//52 61//66
f 62//67 51//53 63//67
f 63//68 51//54 62//68
f 63//2 53//2 65//2
f 65//1 53//1 63//1
f 55//59 68//69 64//69
f 64//70 68//70 55//60
f 68//69 55//59 56//59
f 56//60 55//60 68//70
f 56//2 57//2 68//2
f 68//1 57//1 56//1
f 57//55 64//69 68//69
f 68//70 64//70 57//56
f 58//1 62//1 69//1
f 69//2 62//2 58//2
f 65//71 58//57 69//71
f 69//72 58//58 65//72
f 61//2 67//2 54//2
f 54//1 67//1 61//1
f 70//73 66//61 59//61
f 59//64 66//64 70//74
f 71//2 59//2 67//2
f 67//1 59//1 71//1
f 60//1 66//1 72//1
f 72//2 66//2 60//2
f 72//75 61//65 60//65
f 60//66 61//66 72//76
f 63//67 73//77 62//67
f 62//68 73//78 63//68
f 63//2 65//2 74//2
f 74//1 65//1 63//1
f 69//1 62//1 73//1
f 73//2 62//2 69//2
f 69//71 75//79 65//71
f 65//72 75//80 69//72
f 76//2 67//2 61//2
f 61//1 67//1 76//1
f 66//61 70//73 77//73
f 77//74 70//74 66//64
f 78//2 70//2 59//2
f 59//1 70//1 78//1
f 78//2 59//2 71//2
f 71//1 59//1 78//1
f 71//2 67//2 79//2
f 79//1 67//1 71//1
f 80//1 72//1 66//1
f 66//2 72//2 80//2
f 61//65 72//75 76//75
f 76//76 72//76 61//66
f 73//77 63//67 74//77
f 74//78 63//68 73//78
f 74//2 65//2 75//2
f 75//1 65//1 74//1
f 69//1 73//1 81//1
f 81//2 73//2 69//2
f 75//79 69//71 81//79
f 81//80 69//72 75//80
f 82//2 67//2 76//2
f 76//1 67//1 82//1
f 83//81 77//73 70//73
f 70//74 77//74 83//82
f 77//1 84//1 66//1
f 66//2 84//2 77//2
f 78//2 83//2 70//2
f 70//1 83//1 78//1
f 85//83 78//84 71//83
f 71//85 78//86 85//85
f 67//87 86//88 79//88
f 79//89 86//89 67//90
f 71//2 79//2 87//2
f 87//1 79//1 71//1
f 80//1 88//1 72//1
f 72//2 88//2 80//2
f 66//1 85//1 80//1
f 80//2 85//2 66//2
f 88//91 76//75 72//75
f 72//76 76//76 88//92
f 74//77 89//93 73//77
f 73//78 89//94 74//78
f 74//2 75//2 90//2
f 90//1 75//1 74//1
f 81//1 73//1 89//1
f 89//2 73//2 81//2
f 81//79 67//95 75//79
f 75//80 67//96 81//80
f 91//2 67//2 82//2
f 82//1 67//1 91//1
f 76//75 88//91 82//91
f 82//92 88//92 76//76
f 77//73 83//81 92//81
f 92//82 83//82 77//74
f 92//1 84//1 77//1
f 77//2 84//2 92//2
f 66//1 84//1 85//1
f 85//2 84//2 66//2
f 93//2 83//2 78//2
f 78//1 83//1 93//1
f 78//84 85//83 84//84
f 84//86 85//85 78//86
f 71//83 94//97 85//83
f 85//85 94//98 71//85
f 86//88 67//87 80//87
f 80//90 67//90 86//89
f 95//99 79//88 86//88
f 86//89 79//89 95//100
f 79//88 95//99 87//99
f 87//100 95//100 79//89
f 71//2 87//2 96//2
f 96//1 87//1 71//1
f 80//1 97//1 88//1
f 88//2 97//2 80//2
f 80//1 85//1 86//1
f 86//2 85//2 80//2
f 89//93 74//77 90//93
f 90//94 74//78 89//94
f 90//2 75//2 67//2
f 67//1 75//1 90//1
f 81//1 89//1 80//1
f 80//2 89//2 81//2
f 67//95 81//79 80//95
f 80//96 81//80 67//96
f 90//2 67//2 91//2
f 91//1 67//1 90//1
f 82//91 97//101 91//101
f 91//102 97//102 82//92
f 97//101 82//91 88//91
f 88//92 82//92 97//102
f 83//81 98//103 92//81
f 92//82 98//104 83//82
f 92//1 99//1 84//1
f 84//2 99//2 92//2
f 93//2 100//2 83//2
f 83//1 100//1 93//1
f 84//84 93//105 78//84
f 78//86 93//106 84//86
f 94//97 71//83 101//97
f 101//98 71//85 94//98
f 102//1 85//1 94//1
f 94//2 85//2 102//2
f 86//1 85//1 95//1
f 95//2 85//2 86//2
f 95//107 103//107 87//107
f 87//108 103//108 95//108
f 96//2 87//2 104//2
f 104//1 87//1 96//1
f 71//2 96//2 101//2
f 101//1 96//1 71//1
f 80//1 89//1 97//1
f 97//2 89//2 80//2
f 91//101 89//93 90//93
f 90//94 89//94 91//102
f 89//93 91//101 97//101
f 97//102 91//102 89//94
f 98//103 83//81 100//103
f 100//104 83//82 98//104
f 98//1 99//1 92//1
f 92//2 99//2 98//2
f 93//105 84//84 99//105
f 99//106 84//86 93//106
f 105//2 100//2 93//2
f 93//1 100//1 105//1
f 106//109 94//97 101//97
f 101//98 94//98 106//110
f 95//1 85//1 102//1
f 102//2 85//2 95//2
f 102//1 94//1 107//1
f 107//2 94//2 102//2
f 103//107 95//107 108//107
f 108//108 95//108 103//108
f 104//2 87//2 103//2
f 103//1 87//1 104//1
f 104//111 102//112 96//112
f 96//113 102//113 104//114
f 101//2 96//2 106//2
f 106//1 96//1 101//1
f 100//103 109//115 98//103
f 98//104 109//116 100//104
f 98//1 110//1 99//1
f 99//2 110//2 98//2
f 99//105 105//117 93//105
f 93//106 105//118 99//106
f 105//2 111//2 100//2
f 100//1 111//1 105//1
f 94//97 106//109 107//109
f 107//110 106//110 94//98
f 95//1 102//1 112//1
f 112//2 102//2 95//2
f 102//1 107//1 113//1
f 113//2 107//2 102//2
f 95//1 112//1 108//1
f 108//2 112//2 95//2
f 112//111 103//119 108//119
f 108//120 103//120 112//114
f 103//119 112//111 104//111
f 104//114 112//114 103//120
f 102//112 104//111 112//111
f 112//114 104//114 102//113
f 113//121 96//112 102//112
f 102//113 96//113 113//122
f 106//2 96//2 114//2
f 114//1 96//1 106//1
f 109//115 100//103 111//115
f 111//116 100//104 109//116
f 109//1 110//1 98//1
f 98//2 110//2 109//2
f 105//117 99//105 110//117
f 110//118 99//106 105//118
f 115//2 111//2 105//2
f 105//1 111//1 115//1
f 116//123 107//109 106//109
f 106//110 107//110 116//124
f 113//1 107//1 117//1
f 117//2 107//2 113//2
f 96//112 113//121 114//121
f 114//122 113//122 96//113
f 106//2 114//2 116//2
f 116//1 114//1 106//1
f 111//115 118//125 109//115
f 109//116 118//126 111//116
f 109//1 119//1 110//1
f 110//2 119//2 109//2
f 110//117 115//127 105//117
f 105//118 115//128 110//118
f 115//2 120//2 111//2
f 111//1 120//1 115//1
f 107//109 116//123 117//123
f 117//124 116//124 107//110
f 113//1 117//1 121//1
f 121//2 117//2 113//2
f 121//129 114//121 113//121
f 113//122 114//122 121//130
f 122//2 116//2 114//2
f 114//1 116//1 122//1
f 118//125 111//115 120//125
f 120//126 111//116 118//126
f 118//1 119//1 109//1
f 109//2 119//2 118//2
f 115//127 110//117 119//127
f 119//128 110//118 115//128
f 115//2 123//2 120//2
f 120//1 123//1 115//1
f 122//129 117//123 116//123
f 116//124 117//124 122//130
f 117//123 122//129 121//129
f 121//130 122//130 117//124
f 114//121 121//129 122//129
f 122//130 121//130 114//122
f 120//125 124//131 118//125
f 118//126 124//132 120//126
f 124//1 119//1 118//1
f 118//2 119//2 124//2
f 119//127 125//133 115//127
f 115//128 125//134 119//128
f 125//2 123//2 115//2
f 115//1 123//1 125//1
f 124//131 120//125 123//131
f 123//132 120//126 124//132
f 124//1 126//1 119//1
f 119//2 126//2 124//2
f 125//133 119//127 126//133
f 126//134 119//128 125//134
f 125//2 127//2 123//2
f 123//1 127//1 125//1
f 127//135 124//131 123//131
f 123//132 124//132 127//136
f 128//1 126//1 124//1
f 124//2 126//2 128//2
f 126//133 129//137 125//133
f 125//134 129//138 126//134
f 125//2 130//2 127//2
f 127//1 130//1 125//1
f 124//131 127//135 128//135
f 128//136 127//136 124//132
f 131//1 126//1 128//1
f 128//2 126//2 131//2
f 129//137 126//133 132//137
f 132//138 126//134 129//138
f 129//2 130//2 125//2
f 125//1 130//1 129//1
f 130//139 128//135 127//135
f 127//136 128//136 130//140
f 131//1 132//1 126//1
f 126//2 132//2 131//2
f 128//135 130//139 131//139
f 131//140 130//140 128//136
f 132//137 133//141 129//137
f 129//138 133//142 132//138
f 133//2 130//2 129//2
f 129//1 130//1 133//1
f 131//1 134//1 132//1
f 132//2 134//2 131//2
f 130//143 135//143 131//143
f 131//144 135//144 130//144
f 133//141 132//137 134//141
f 134//142 132//138 133//142
f 136//2 130//2 133//2
f 133//1 130//1 136//1
f 131//1 137//1 134//1
f 134//2 137//2 131//2
f 135//143 130//143 138//143
f 138//144 130//144 135//144
f 137//1 131//1 135//1
f 135//2 131//2 137//2
f 137//145 133//141 134//141
f 134//142 133//142 137//146
f 130//2 136//2 138//2
f 138//1 136//1 130//1
f 133//141 137//145 136//145
f 136//146 137//146 133//142
f 136//145 135//147 138//147
f 138//148 135//148 136//146
f 135//147 136//145 137//145
f 137//146 136//146 135//148
