# SSTK version 0.8.0
# 41
mtllib original-41.mtl
o mesh47/mesh47-geometry#mesh47-geometry
v 0.418128 -0.155601 0.052502
v 0.508070 -0.151034 0.052502
v 0.418128 -0.151034 0.052502
v 0.508070 -0.155601 0.052502
v 0.507802 -0.150516 0.052234
v 0.418128 -0.151034 -0.037969
v 0.508070 -0.155601 -0.037969
v 0.418396 -0.150516 0.052234
v 0.508070 -0.151034 -0.037969
v 0.418128 -0.155601 -0.037969
v 0.419129 -0.150137 0.051502
v 0.507802 -0.150516 -0.037701
v 0.418396 -0.150516 -0.037701
v 0.507069 -0.150137 0.051502
v 0.506068 -0.149998 0.050501
v 0.419129 -0.150137 -0.036969
v 0.507069 -0.150137 -0.036969
v 0.420130 -0.149998 0.050501
v 0.444991 -0.149998 0.044755
v 0.506068 -0.149998 -0.035968
v 0.420130 -0.149998 -0.035968
v 0.427925 -0.149998 0.044755
v 0.427925 -0.149998 0.041793
v 0.444991 -0.149998 0.033948
v 0.444991 -0.149998 0.041793
v 0.427925 -0.149998 0.033948
v 0.438145 -0.149998 -0.029986
v 0.443583 -0.149998 -0.024548
v 0.444991 -0.149998 0.036910
v 0.430389 -0.149998 -0.022258
v 0.427925 -0.149998 0.036910
v 0.435827 -0.149998 -0.029986
v 0.443583 -0.149998 -0.022258
v 0.430389 -0.149998 -0.024548
v 0.435827 -0.149998 -0.022258
v 0.438145 -0.149998 -0.024548
v 0.438145 -0.149998 -0.022258
v 0.435827 -0.149998 -0.016779
v 0.435827 -0.149998 -0.024548
v 0.438145 -0.149998 -0.016779
vn 0 0 1
vn 0.37537529744522674 0.8474029602235807 0.3755018096790213
vn -0.5704787000886274 0.5906680110688186 0.5706709677609297
vn 0.5704787000886263 0.5906680110688195 0.57067096776093
vn -1 0 0
vn 1 0 0
vn -0.37537529744522763 0.8474029602235803 0.37550180967902114
vn 0.570478700088627 0.5906680110688202 -0.5706709677609283
vn -0.5704787000886269 0.5906680110688197 -0.570670967760929
vn -0.14439113685276309 0.9789220313906497 0.14443980080424781
vn 0.37537529744522724 0.8474029602235813 -0.37550180967901925
vn 0 0 -1
vn -0.37537529744522735 0.8474029602235813 -0.37550180967901964
vn 0.14439113685276245 0.9789220313906497 0.1444398008042479
vn 0.06901157918584612 0.9952243933261897 0.06903483806595978
vn -0.14439113685276292 0.9789220313906498 -0.14443980080424573
vn 0.14439113685276267 0.9789220313906498 -0.14443980080424568
vn -0.06901157918584665 0.9952243933261897 0.06903483806595977
vn 0 1 0
vn 0.06901157918584623 0.99522439332619 -0.06903483806595757
vn -0.06901157918584656 0.9952243933261897 -0.06903483806595757
vn -0.5704787000886263 -0.5906680110688195 -0.57067096776093
vn 0.5704787000886274 -0.5906680110688186 -0.5706709677609297
vn -0.37537529744522674 -0.8474029602235807 -0.3755018096790213
vn 0.37537529744522763 -0.8474029602235803 -0.37550180967902114
vn -0.570478700088627 -0.5906680110688202 0.5706709677609283
vn 0.5704787000886269 -0.5906680110688197 0.570670967760929
vn 0.14439113685276309 -0.9789220313906497 -0.14443980080424781
vn -0.37537529744522724 -0.8474029602235813 0.37550180967901925
vn 0.37537529744522735 -0.8474029602235813 0.37550180967901964
vn -0.14439113685276245 -0.9789220313906497 -0.1444398008042479
vn -0.06901157918584612 -0.9952243933261897 -0.06903483806595978
vn 0.14439113685276292 -0.9789220313906498 0.14443980080424573
vn -0.14439113685276267 -0.9789220313906498 0.14443980080424568
vn 0.06901157918584665 -0.9952243933261897 -0.06903483806595977
vn 0 -1 0
vn -0.06901157918584623 -0.99522439332619 0.06903483806595757
vn 0.06901157918584656 -0.9952243933261897 0.06903483806595757
usemtl material_0_0
f 1//1 2//1 3//1
f 2//1 1//1 4//1
f 5//2 3//3 2//4
f 6//5 1//5 3//5
f 7//6 2//6 4//6
f 3//3 5//2 8//7
f 9//8 5//2 2//4
f 1//5 6//5 10//5
f 8//7 6//9 3//3
f 2//6 7//6 9//6
f 5//2 11//10 8//7
f 5//2 9//8 12//11
f 9//12 10//12 6//12
f 6//9 8//7 13//13
f 10//12 9//12 7//12
f 11//10 5//2 14//14
f 11//10 13//13 8//7
f 6//9 12//11 9//8
f 12//11 14//14 5//2
f 12//11 6//9 13//13
f 15//15 11//10 14//14
f 13//13 11//10 16//16
f 14//14 12//11 17//17
f 16//16 12//11 13//13
f 11//10 15//15 18//18
f 17//17 15//15 14//14
f 18//18 16//16 11//10
f 12//11 16//16 17//17
f 15//19 19//19 18//19
f 15//15 17//17 20//20
f 16//16 18//18 21//21
f 16//16 20//20 17//17
f 19//19 15//19 20//19
f 18//19 19//19 22//19
f 18//19 23//19 21//19
f 20//20 16//16 21//21
f 20//19 24//19 19//19
f 18//19 22//19 23//19
f 26//19 21//19 23//19
f 27//19 20//19 21//19
f 24//19 20//19 28//19
f 19//19 24//19 29//19
f 29//19 25//19 19//19
f 30//19 21//19 26//19
f 23//19 31//19 26//19
f 28//19 20//19 27//19
f 27//19 21//19 32//19
f 33//19 24//19 28//19
f 25//19 31//19 23//19
f 25//19 29//19 31//19
f 34//19 21//19 30//19
f 26//19 35//19 30//19
f 28//19 27//19 36//19
f 32//19 21//19 34//19
f 24//19 33//19 26//19
f 26//19 38//19 35//19
f 34//19 39//19 32//19
f 26//19 33//19 40//19
f 26//19 40//19 38//19
f 37//19 40//19 33//19
usemtl material_1_0
f 3//12 2//12 1//12
f 4//12 1//12 2//12
f 2//22 3//23 5//24
f 3//6 1//6 6//6
f 4//5 2//5 7//5
f 8//25 5//24 3//23
f 2//22 5//24 9//26
f 10//6 6//6 1//6
f 3//23 6//27 8//25
f 9//5 7//5 2//5
f 8//25 11//28 5//24
f 12//29 9//26 5//24
f 6//1 10//1 9//1
f 13//30 8//25 6//27
f 7//1 9//1 10//1
f 14//31 5//24 11//28
f 8//25 13//30 11//28
f 9//26 12//29 6//27
f 5//24 14//31 12//29
f 13//30 6//27 12//29
f 14//31 11//28 15//32
f 16//33 11//28 13//30
f 17//34 12//29 14//31
f 13//30 12//29 16//33
f 18//35 15//32 11//28
f 14//31 15//32 17//34
f 11//28 16//33 18//35
f 17//34 16//33 12//29
f 18//36 19//36 15//36
f 20//37 17//34 15//32
f 21//38 18//35 16//33
f 17//34 20//37 16//33
f 20//36 15//36 19//36
f 22//36 19//36 18//36
f 21//36 23//36 18//36
f 21//38 16//33 20//37
f 19//36 24//36 20//36
f 19//36 22//36 25//36
f 23//36 22//36 18//36
f 23//36 21//36 26//36
f 21//36 20//36 27//36
f 28//36 20//36 24//36
f 29//36 24//36 19//36
f 23//36 25//36 22//36
f 19//36 25//36 29//36
f 26//36 21//36 30//36
f 26//36 31//36 23//36
f 27//36 20//36 28//36
f 32//36 21//36 27//36
f 28//36 24//36 33//36
f 29//36 31//36 24//36
f 23//36 31//36 25//36
f 31//36 29//36 25//36
f 30//36 21//36 34//36
f 30//36 35//36 26//36
f 26//36 24//36 31//36
f 36//36 27//36 28//36
f 34//36 21//36 32//36
f 32//36 27//36 37//36
f 26//36 33//36 24//36
f 28//36 33//36 36//36
f 30//36 34//36 35//36
f 35//36 38//36 26//36
f 27//36 36//36 37//36
f 32//36 39//36 34//36
f 39//36 32//36 37//36
f 40//36 33//36 26//36
f 37//36 36//36 33//36
f 34//36 39//36 35//36
f 38//36 40//36 26//36
f 38//36 35//36 39//36
f 38//36 39//36 37//36
f 33//36 40//36 37//36
f 37//36 40//36 38//36
usemtl material_2_0
f 25//19 22//19 19//19
f 22//19 25//19 23//19
f 24//19 31//19 29//19
f 31//19 24//19 26//19
f 37//19 27//19 32//19
f 36//19 33//19 28//19
f 35//19 34//19 30//19
f 37//19 36//19 27//19
f 37//19 32//19 39//19
f 33//19 36//19 37//19
f 35//19 39//19 34//19
f 39//19 35//19 38//19
f 37//19 39//19 38//19
f 38//19 40//19 37//19
