# SSTK version 0.8.0
# 10
mtllib original-10.mtl
o mesh9/mesh9-geometry#mesh9-geometry
v -0.652717 -0.149998 0.064358
v -0.654682 -0.149998 0.080364
v -0.654682 -0.149998 0.064358
v -0.652881 -0.149998 0.074479
v -0.654682 -0.148044 0.064358
v -0.652822 -0.149998 0.073482
v -0.652859 -0.149998 0.080364
v -0.654682 -0.148044 0.080364
v -0.652717 -0.148044 0.064358
v -0.652717 -0.149998 0.070068
v -0.652881 -0.148044 0.074479
v -0.652859 -0.149998 0.078912
v -0.652859 -0.148044 0.080364
v -0.652717 -0.148044 0.070068
v -0.652646 -0.149998 0.072611
v -0.652822 -0.148044 0.073482
v -0.652739 -0.148044 0.076275
v -0.652739 -0.149998 0.076275
v -0.652052 -0.148044 0.069385
v -0.652052 -0.149998 0.069385
v -0.652859 -0.148044 0.078912
v -0.652220 -0.149998 0.079661
v -0.652646 -0.148044 0.072611
v -0.652353 -0.149998 0.071864
v -0.652313 -0.148044 0.077492
v -0.652220 -0.148044 0.079661
v -0.652313 -0.149998 0.077492
v -0.651300 -0.149998 0.068897
v -0.652353 -0.148044 0.071864
v -0.651942 -0.149998 0.071242
v -0.651808 -0.149998 0.078156
v -0.651300 -0.148044 0.068897
v -0.651942 -0.148044 0.071242
v -0.651808 -0.148044 0.078156
v -0.651470 -0.148044 0.080197
v -0.651470 -0.149998 0.080197
v -0.650463 -0.149998 0.068604
v -0.651451 -0.149998 0.070752
v -0.651221 -0.149998 0.078630
v -0.651451 -0.148044 0.070752
v -0.650463 -0.148044 0.068604
v -0.650916 -0.149998 0.070402
v -0.651221 -0.148044 0.078630
v -0.650609 -0.148044 0.080518
v -0.650609 -0.149998 0.080518
v -0.650916 -0.148044 0.070402
v -0.649540 -0.149998 0.068507
v -0.650337 -0.149998 0.070193
v -0.650553 -0.149998 0.078915
v -0.650337 -0.148044 0.070193
v -0.649540 -0.148044 0.068507
v -0.650553 -0.148044 0.078915
v -0.649638 -0.148044 0.080626
v -0.649638 -0.149998 0.080626
v -0.648499 -0.149998 0.068615
v -0.649715 -0.149998 0.070123
v -0.649715 -0.148044 0.070123
v -0.649802 -0.149998 0.079010
v -0.648499 -0.148044 0.068615
v -0.649099 -0.149998 0.070190
v -0.649802 -0.148044 0.079010
v -0.648643 -0.148044 0.080524
v -0.649180 -0.149998 0.078940
v -0.649099 -0.148044 0.070190
v -0.647515 -0.149998 0.068938
v -0.648531 -0.149998 0.070393
v -0.649180 -0.148044 0.078940
v -0.648643 -0.149998 0.080524
v -0.648531 -0.148044 0.070393
v -0.647515 -0.148044 0.068938
v -0.648010 -0.149998 0.070731
v -0.647722 -0.148044 0.080219
v -0.648601 -0.148044 0.078730
v -0.648601 -0.149998 0.078730
v -0.648010 -0.148044 0.070731
v -0.646644 -0.149998 0.069457
v -0.647536 -0.149998 0.071203
v -0.647722 -0.149998 0.080219
v -0.647536 -0.148044 0.071203
v -0.646644 -0.148044 0.069457
v -0.647142 -0.149998 0.071818
v -0.646875 -0.148044 0.079711
v -0.648066 -0.148044 0.078380
v -0.648066 -0.149998 0.078380
v -0.647142 -0.148044 0.071818
v -0.645942 -0.149998 0.070150
v -0.646861 -0.149998 0.072582
v -0.646875 -0.149998 0.079711
v -0.647575 -0.148044 0.077891
v -0.647575 -0.149998 0.077891
v -0.646861 -0.148044 0.072582
v -0.645942 -0.148044 0.070150
v -0.646636 -0.149998 0.074555
v -0.646692 -0.149998 0.073494
v -0.646101 -0.148044 0.078999
v -0.647164 -0.148044 0.077263
v -0.646692 -0.148044 0.073494
v -0.646636 -0.148044 0.074555
v -0.645392 -0.148044 0.071011
v -0.646101 -0.149998 0.078999
v -0.647164 -0.149998 0.077263
v -0.646870 -0.148044 0.076497
v -0.645392 -0.149998 0.071011
v -0.645456 -0.148044 0.078101
v -0.645456 -0.149998 0.078101
v -0.646694 -0.149998 0.075595
v -0.646870 -0.149998 0.076497
v -0.646694 -0.148044 0.075595
v -0.644976 -0.148044 0.072033
v -0.644995 -0.148044 0.077034
v -0.644976 -0.149998 0.072033
v -0.644995 -0.149998 0.077034
v -0.644714 -0.148044 0.073174
v -0.644719 -0.148044 0.075797
v -0.644719 -0.149998 0.075797
v -0.644714 -0.149998 0.073174
v -0.644627 -0.148044 0.074392
v -0.644627 -0.149998 0.074392
vn 0 -1 0
vn 0 1 0
vn -1 0 0
vn 1 0 0
vn 0 0 -1
vn 0 0 1
vn 0.9916851239310154 0 0.12868805295724553
vn 0.9999497584453734 0 -0.01002400045087554
vn -0.9999497584453734 0 0.01002400045087554
vn -0.9916851239310154 0 -0.12868805295724553
vn 0.9785140660701092 0 -0.2061800730015918
vn -0.9785140660701092 0 0.2061800730015918
vn -0.6344196596495281 0 -0.7729888068078199
vn -0.7163489758691499 0 -0.6977421764313948
vn 0.7163489758691499 0 0.6977421764313948
vn 0.6344196596495281 0 0.7729888068078199
vn 0.9591506002828433 0 0.2828959631685498
vn -0.9591506002828433 0 -0.2828959631685498
vn 0.8807550274193173 0 -0.47357215044341205
vn -0.8807550274193173 0 0.47357215044341205
vn -0.6761498900299903 0 0.7367640912886783
vn -0.7609648747043525 0 0.648793079083146
vn 0.7609648747043525 0 -0.648793079083146
vn 0.6761498900299903 0 -0.7367640912886783
vn -0.44049893835213433 0 -0.8977531316072602
vn 0.44049893835213433 0 0.8977531316072602
vn 0.8874482941456125 0 0.4609072848394159
vn -0.8874482941456125 0 -0.4609072848394159
vn 0.7741581119997034 0 0.6329922729584102
vn -0.7741581119997034 0 -0.6329922729584102
vn 0.7174508872226844 0 -0.6966090901096418
vn -0.7174508872226844 0 0.6966090901096418
vn -0.46961777704275515 0 0.8828698338290992
vn 0.46961777704275515 0 -0.8828698338290992
vn -0.21903398873694516 0 -0.9757172294153588
vn 0.21903398873694516 0 0.9757172294153588
vn 0.5149880622996488 0 -0.8571973493244441
vn -0.5149880622996488 0 0.8571973493244441
vn 0.6298149763769851 0 0.77674519343943
vn -0.6298149763769851 0 -0.77674519343943
vn -0.23155489532862605 0 0.9728218390071992
vn 0.23155489532862605 0 -0.9728218390071992
vn -0.0010650001558526745 0 -0.9999994328871731
vn 0.0010650001558526745 0 0.9999994328871731
vn 0.4470110814716526 0 0.8945284193593537
vn -0.4470110814716526 0 -0.8945284193593537
vn 0.2609439151251306 0 -0.9653539626267499
vn -0.2609439151251306 0 0.9653539626267499
vn 0.22787597370203824 0 0.9736901666389304
vn -0.22787597370203824 0 -0.9736901666389304
vn -0.004021998492492143 0 0.9999919117313533
vn 0.004021998492492143 0 -0.9999919117313533
vn 0.20882897769233016 0 -0.9779521757611547
vn -0.20882897769233016 0 0.9779521757611547
vn 0.0012709998801861625 0 0.999999192279326
vn -0.0012709998801861625 0 -0.999999192279326
vn 0.0068879999373702445 0 -0.9999762774470518
vn -0.0068879999373702445 0 0.9999762774470518
vn 0.2092378904773992 0 0.9778647683542789
vn -0.2092378904773992 0 -0.9778647683542789
vn 0.4144927130692815 0 -0.9100526307925636
vn -0.4144927130692815 0 0.9100526307925636
vn -0.22410990738600828 0 0.9745638765167908
vn 0.22410990738600828 0 -0.9745638765167908
vn -0.4429989399494216 0 0.896522135367381
vn 0.4429989399494216 0 -0.896522135367381
vn 0.4168939431461179 0 0.9089551364990912
vn -0.4168939431461179 0 -0.9089551364990912
vn 0.6118176813356331 0 -0.79099881466731
vn -0.6118176813356331 0 0.79099881466731
vn -0.6286052474068553 0 0.7777245289513287
vn 0.6286052474068553 0 -0.7777245289513287
vn -0.7786818114478097 0 0.6274190278596576
vn 0.7786818114478097 0 -0.6274190278596576
vn 0.5987676594871331 0 0.8009227740252496
vn -0.5987676594871331 0 -0.8009227740252496
vn 0.7776867536439556 0 -0.6286519809932406
vn -0.7776867536439556 0 0.6286519809932406
vn -0.895348434811088 0 0.4453663439027869
vn 0.895348434811088 0 -0.4453663439027869
vn -0.9642731124115355 0 0.26491010679128596
vn 0.9642731124115355 0 -0.26491010679128596
vn 0.7485209484417952 0 0.6631111443369018
vn -0.7485209484417952 0 -0.6631111443369018
vn -0.775583604669058 0 -0.6312448591224725
vn 0.775583604669058 0 0.6312448591224725
vn 0.8881296697930241 0 -0.45959296081786744
vn -0.8881296697930241 0 0.45959296081786744
vn -0.9930431460785923 0 0.11775105106253514
vn 0.9930431460785923 0 -0.11775105106253514
vn -0.8903640786763813 0 -0.4552491706777276
vn 0.8903640786763813 0 0.4552491706777276
vn -0.9999985685673903 0 -0.001691999754851815
vn 0.9999985685673903 0 0.001691999754851815
vn 0.870244338085201 0 0.4926203325388125
vn -0.870244338085201 0 -0.4926203325388125
vn -0.9612219139489716 0 -0.27577605433444696
vn 0.9612219139489716 0 0.27577605433444696
vn 0.9534774839338096 0 -0.3014642393904323
vn -0.9534774839338096 0 0.3014642393904323
vn -0.9922564575701678 0 -0.12420596769198287
vn 0.9922564575701678 0 0.12420596769198287
vn 0.9512090630417825 0 0.3085471088621222
vn -0.9512090630417825 0 -0.3085471088621222
vn 0.9889662385317843 0 -0.14814107817986852
vn -0.9889662385317843 0 0.14814107817986852
vn 0.9898400933364936 0 0.14218505414987104
vn -0.9898400933364936 0 -0.14218505414987104
vn 0.9999952166592458 0 -0.0030930015564183816
vn -0.9999952166592458 0 0.0030930015564183816
usemtl material_0_0
f 1//1 2//1 3//1
f 2//1 1//1 4//1
f 3//2 2//2 1//2
f 4//2 1//2 2//2
f 2//3 5//3 3//3
f 3//4 5//4 2//4
f 5//5 1//5 3//5
f 3//6 1//6 5//6
f 4//1 1//1 6//1
f 6//2 1//2 4//2
f 4//1 7//1 2//1
f 2//2 7//2 4//2
f 5//3 2//3 8//3
f 8//4 2//4 5//4
f 1//5 5//5 9//5
f 9//6 5//6 1//6
f 6//1 1//1 10//1
f 10//2 1//2 6//2
f 6//7 11//8 4//8
f 4//9 11//9 6//10
f 7//1 4//1 12//1
f 12//2 4//2 7//2
f 13//6 2//6 7//6
f 7//5 2//5 13//5
f 2//6 13//6 8//6
f 8//5 13//5 2//5
f 13//2 5//2 8//2
f 8//1 5//1 13//1
f 11//2 9//2 5//2
f 5//1 9//1 11//1
f 14//4 1//4 9//4
f 9//3 1//3 14//3
f 1//4 14//4 10//4
f 10//3 14//3 1//3
f 6//1 10//1 15//1
f 15//2 10//2 6//2
f 11//8 6//7 16//7
f 16//10 6//10 11//9
f 17//11 4//8 11//8
f 11//9 4//9 17//12
f 18//1 12//1 4//1
f 4//2 12//2 18//2
f 12//4 13//4 7//4
f 7//3 13//3 12//3
f 5//2 13//2 11//2
f 11//1 13//1 5//1
f 9//2 11//2 16//2
f 16//1 11//1 9//1
f 9//2 16//2 14//2
f 14//1 16//1 9//1
f 19//13 10//14 14//14
f 14//15 10//15 19//16
f 15//1 10//1 20//1
f 20//2 10//2 15//2
f 15//17 16//7 6//7
f 6//10 16//10 15//18
f 4//8 17//11 18//11
f 18//12 17//12 4//9
f 11//2 21//2 17//2
f 17//1 21//1 11//1
f 12//1 18//1 22//1
f 22//2 18//2 12//2
f 13//4 12//4 21//4
f 21//3 12//3 13//3
f 11//2 13//2 21//2
f 21//1 13//1 11//1
f 23//2 14//2 16//2
f 16//1 14//1 23//1
f 10//14 19//13 20//13
f 20//16 19//16 10//15
f 14//2 23//2 19//2
f 19//1 23//1 14//1
f 15//1 20//1 24//1
f 24//2 20//2 15//2
f 16//7 15//17 23//17
f 23//18 15//18 16//10
f 25//19 18//11 17//11
f 17//12 18//12 25//20
f 17//2 21//2 26//2
f 26//1 21//1 17//1
f 22//1 18//1 27//1
f 27//2 18//2 22//2
f 22//21 21//22 12//22
f 12//23 21//23 22//24
f 19//13 28//25 20//13
f 20//16 28//26 19//16
f 19//2 23//2 29//2
f 29//1 23//1 19//1
f 24//1 20//1 30//1
f 30//2 20//2 24//2
f 24//27 23//17 15//17
f 15//18 23//18 24//28
f 18//11 25//19 27//19
f 27//20 25//20 18//12
f 17//2 26//2 25//2
f 25//1 26//1 17//1
f 21//22 22//21 26//21
f 26//24 22//24 21//23
f 22//1 27//1 31//1
f 31//2 27//2 22//2
f 28//25 19//13 32//25
f 32//26 19//16 28//26
f 30//1 20//1 28//1
f 28//2 20//2 30//2
f 23//17 24//27 29//27
f 29//28 24//28 23//18
f 19//2 29//2 33//2
f 33//1 29//1 19//1
f 30//29 29//27 24//27
f 24//28 29//28 30//30
f 34//31 27//19 25//19
f 25//20 27//20 34//32
f 25//2 26//2 34//2
f 34//1 26//1 25//1
f 22//21 35//33 26//21
f 26//24 35//34 22//24
f 27//19 34//31 31//31
f 31//32 34//32 27//20
f 22//1 31//1 36//1
f 36//2 31//2 22//2
f 19//2 33//2 32//2
f 32//1 33//1 19//1
f 32//25 37//35 28//25
f 28//26 37//36 32//26
f 30//1 28//1 38//1
f 38//2 28//2 30//2
f 29//27 30//29 33//29
f 33//30 30//30 29//28
f 34//2 26//2 35//2
f 35//1 26//1 34//1
f 35//33 22//21 36//33
f 36//34 22//24 35//34
f 34//31 39//37 31//31
f 31//32 39//38 34//32
f 36//1 31//1 39//1
f 39//2 31//2 36//2
f 32//2 33//2 40//2
f 40//1 33//1 32//1
f 37//35 32//25 41//35
f 41//36 32//26 37//36
f 42//1 28//1 37//1
f 37//2 28//2 42//2
f 38//1 28//1 42//1
f 42//2 28//2 38//2
f 40//39 30//29 38//39
f 38//40 30//30 40//40
f 30//29 40//39 33//29
f 33//30 40//40 30//30
f 34//2 35//2 43//2
f 43//1 35//1 34//1
f 36//33 44//41 35//33
f 35//34 44//42 36//34
f 39//37 34//31 43//37
f 43//38 34//32 39//38
f 36//1 39//1 45//1
f 45//2 39//2 36//2
f 32//2 40//2 46//2
f 46//1 40//1 32//1
f 32//2 46//2 41//2
f 41//1 46//1 32//1
f 41//35 47//43 37//35
f 37//36 47//44 41//36
f 42//1 37//1 48//1
f 48//2 37//2 42//2
f 46//45 38//39 42//45
f 42//46 38//40 46//46
f 38//39 46//45 40//39
f 40//40 46//46 38//40
f 43//2 35//2 44//2
f 44//1 35//1 43//1
f 44//41 36//33 45//41
f 45//42 36//34 44//42
f 43//37 49//47 39//37
f 39//38 49//48 43//38
f 45//1 39//1 49//1
f 49//2 39//2 45//2
f 41//2 46//2 50//2
f 50//1 46//1 41//1
f 47//43 41//35 51//43
f 51//44 41//36 47//44
f 48//1 37//1 47//1
f 47//2 37//2 48//2
f 50//49 42//45 48//49
f 48//50 42//46 50//50
f 42//45 50//49 46//45
f 46//46 50//50 42//46
f 43//2 44//2 52//2
f 52//1 44//1 43//1
f 45//41 53//51 44//41
f 44//42 53//52 45//42
f 49//47 43//37 52//47
f 52//48 43//38 49//48
f 45//1 49//1 54//1
f 54//2 49//2 45//2
f 41//2 50//2 51//2
f 51//1 50//1 41//1
f 51//43 55//53 47//43
f 47//44 55//54 51//44
f 48//1 47//1 56//1
f 56//2 47//2 48//2
f 48//49 57//55 50//49
f 50//50 57//56 48//50
f 52//2 44//2 53//2
f 53//1 44//1 52//1
f 53//51 45//41 54//51
f 54//52 45//42 53//52
f 52//47 58//57 49//47
f 49//48 58//58 52//48
f 54//1 49//1 58//1
f 58//2 49//2 54//2
f 51//2 50//2 57//2
f 57//1 50//1 51//1
f 55//53 51//43 59//53
f 59//54 51//44 55//54
f 60//1 47//1 55//1
f 55//2 47//2 60//2
f 56//1 47//1 60//1
f 60//2 47//2 56//2
f 57//55 48//49 56//55
f 56//56 48//50 57//56
f 52//2 53//2 61//2
f 61//1 53//1 52//1
f 54//51 62//59 53//51
f 53//52 62//60 54//52
f 58//57 52//47 61//57
f 61//58 52//48 58//58
f 54//1 58//1 63//1
f 63//2 58//2 54//2
f 51//2 57//2 64//2
f 64//1 57//1 51//1
f 51//2 64//2 59//2
f 59//1 64//1 51//1
f 59//53 65//61 55//53
f 55//54 65//62 59//54
f 60//1 55//1 66//1
f 66//2 55//2 60//2
f 64//63 56//55 60//63
f 60//64 56//56 64//64
f 56//55 64//63 57//55
f 57//56 64//64 56//56
f 61//2 53//2 67//2
f 67//1 53//1 61//1
f 62//59 54//51 68//59
f 68//60 54//52 62//60
f 67//2 53//2 62//2
f 62//1 53//1 67//1
f 61//57 63//50 58//57
f 58//58 63//49 61//58
f 54//1 63//1 68//1
f 68//2 63//2 54//2
f 59//2 64//2 69//2
f 69//1 64//1 59//1
f 65//61 59//53 70//61
f 70//62 59//54 65//62
f 71//1 55//1 65//1
f 65//2 55//2 71//2
f 66//1 55//1 71//1
f 71//2 55//2 66//2
f 69//65 60//63 66//65
f 66//66 60//64 69//66
f 60//63 69//65 64//63
f 64//64 69//66 60//64
f 63//50 61//57 67//50
f 67//49 61//58 63//49
f 68//59 72//67 62//59
f 62//60 72//68 68//60
f 67//2 62//2 73//2
f 73//1 62//1 67//1
f 68//1 63//1 74//1
f 74//2 63//2 68//2
f 59//2 69//2 75//2
f 75//1 69//1 59//1
f 59//2 75//2 70//2
f 70//1 75//1 59//1
f 70//61 76//69 65//61
f 65//62 76//70 70//62
f 71//1 65//1 77//1
f 77//2 65//2 71//2
f 75//71 66//65 71//71
f 71//72 66//66 75//72
f 66//65 75//71 69//65
f 69//66 75//72 66//66
f 67//50 74//46 63//50
f 63//49 74//45 67//49
f 72//67 68//59 78//67
f 78//68 68//60 72//68
f 73//2 62//2 72//2
f 72//1 62//1 73//1
f 74//46 67//50 73//46
f 73//45 67//49 74//45
f 68//1 74//1 78//1
f 78//2 74//2 68//2
f 70//2 75//2 79//2
f 79//1 75//1 70//1
f 76//69 70//61 80//69
f 80//70 70//62 76//70
f 81//1 65//1 76//1
f 76//2 65//2 81//2
f 77//1 65//1 81//1
f 81//2 65//2 77//2
f 79//73 71//71 77//73
f 77//74 71//72 79//74
f 71//71 79//73 75//71
f 75//72 79//74 71//72
f 78//67 82//75 72//67
f 72//68 82//76 78//68
f 73//2 72//2 83//2
f 83//1 72//1 73//1
f 73//46 84//40 74//46
f 74//45 84//39 73//45
f 78//1 74//1 84//1
f 84//2 74//2 78//2
f 70//2 79//2 85//2
f 85//1 79//1 70//1
f 70//2 85//2 80//2
f 80//1 85//1 70//1
f 80//69 86//77 76//69
f 76//70 86//78 80//70
f 81//1 76//1 87//1
f 87//2 76//2 81//2
f 81//79 79//73 77//73
f 77//74 79//74 81//80
f 82//75 78//67 88//75
f 88//76 78//68 82//76
f 89//2 72//2 82//2
f 82//1 72//1 89//1
f 83//2 72//2 89//2
f 89//1 72//1 83//1
f 84//40 73//46 83//40
f 83//39 73//45 84//39
f 78//1 84//1 90//1
f 90//2 84//2 78//2
f 79//73 81//79 85//79
f 85//80 81//80 79//74
f 80//2 85//2 91//2
f 91//1 85//1 80//1
f 86//77 80//69 92//77
f 92//78 80//70 86//78
f 93//1 76//1 86//1
f 86//2 76//2 93//2
f 87//1 76//1 94//1
f 94//2 76//2 87//2
f 87//81 85//79 81//79
f 81//80 85//80 87//82
f 78//1 90//1 88//1
f 88//2 90//2 78//2
f 88//75 95//83 82//75
f 82//76 95//84 88//76
f 89//2 82//2 96//2
f 96//1 82//1 89//1
f 90//85 83//40 89//85
f 89//86 83//39 90//86
f 83//40 90//85 84//40
f 84//39 90//86 83//39
f 85//79 87//81 91//81
f 91//82 87//82 85//80
f 80//2 91//2 97//2
f 97//1 91//1 80//1
f 80//2 98//2 92//2
f 92//1 98//1 80//1
f 99//87 86//77 92//77
f 92//78 86//78 99//88
f 94//1 76//1 93//1
f 93//2 76//2 94//2
f 93//1 86//1 100//1
f 100//2 86//2 93//2
f 94//89 91//81 87//81
f 87//82 91//82 94//90
f 88//1 90//1 101//1
f 101//2 90//2 88//2
f 95//83 88//75 100//83
f 100//84 88//76 95//84
f 102//2 82//2 95//2
f 95//1 82//1 102//1
f 96//2 82//2 102//2
f 102//1 82//1 96//1
f 96//91 90//85 89//85
f 89//86 90//86 96//92
f 91//81 94//89 97//89
f 97//90 94//90 91//82
f 80//2 97//2 98//2
f 98//1 97//1 80//1
f 92//2 98//2 95//2
f 95//1 98//1 92//1
f 86//77 99//87 103//87
f 103//88 99//88 86//78
f 92//2 104//2 99//2
f 99//1 104//1 92//1
f 93//93 97//89 94//89
f 94//90 97//90 93//94
f 100//1 86//1 105//1
f 105//2 86//2 100//2
f 100//1 106//1 93//1
f 93//2 106//2 100//2
f 90//85 96//91 101//91
f 101//92 96//92 90//86
f 88//1 101//1 107//1
f 107//2 101//2 88//2
f 88//1 107//1 100//1
f 100//2 107//2 88//2
f 105//95 95//83 100//83
f 100//84 95//84 105//96
f 102//2 95//2 108//2
f 108//1 95//1 102//1
f 102//97 101//91 96//91
f 96//92 101//92 102//98
f 97//89 93//93 98//93
f 98//94 93//94 97//90
f 108//2 95//2 98//2
f 98//1 95//1 108//1
f 92//2 95//2 104//2
f 104//1 95//1 92//1
f 109//99 103//87 99//87
f 99//88 103//88 109//100
f 105//1 86//1 103//1
f 103//2 86//2 105//2
f 99//2 104//2 110//2
f 110//1 104//1 99//1
f 100//1 107//1 106//1
f 106//2 107//2 100//2
f 106//101 98//93 93//93
f 93//94 98//94 106//102
f 101//91 102//97 107//97
f 107//98 102//98 101//92
f 95//83 105//95 104//95
f 104//96 105//96 95//84
f 108//101 107//97 102//97
f 102//98 107//98 108//102
f 98//93 106//101 108//101
f 108//102 106//102 98//94
f 103//87 109//99 111//99
f 111//100 109//100 103//88
f 99//2 110//2 109//2
f 109//1 110//1 99//1
f 105//1 103//1 112//1
f 112//2 103//2 105//2
f 104//95 112//103 110//103
f 110//104 112//104 104//96
f 107//97 108//101 106//101
f 106//102 108//102 107//98
f 112//103 104//95 105//95
f 105//96 104//96 112//104
f 113//105 111//99 109//99
f 109//100 111//100 113//106
f 112//1 103//1 111//1
f 111//2 103//2 112//2
f 109//2 110//2 114//2
f 114//1 110//1 109//1
f 115//107 110//103 112//103
f 112//104 110//104 115//108
f 111//99 113//105 116//105
f 116//106 113//106 111//100
f 109//2 114//2 113//2
f 113//1 114//1 109//1
f 112//1 111//1 115//1
f 115//2 111//2 112//2
f 110//103 115//107 114//107
f 114//108 115//108 110//104
f 117//109 116//105 113//105
f 113//106 116//106 117//110
f 115//1 111//1 116//1
f 116//2 111//2 115//2
f 113//2 114//2 117//2
f 117//1 114//1 113//1
f 118//109 114//107 115//107
f 115//108 114//108 118//110
f 116//105 117//109 118//109
f 118//110 117//110 116//106
f 115//1 116//1 118//1
f 118//2 116//2 115//2
f 114//107 118//109 117//109
f 117//110 118//110 114//108
