# SSTK version 0.8.0
# 92
mtllib original-92.mtl
o mesh98/mesh98-geometry#mesh98-geometry
v 0.577669 -0.151034 0.391958
v 0.577669 -0.155601 0.447758
v 0.577669 -0.151034 0.447758
v 0.577669 -0.155601 0.391958
v 0.660744 -0.151034 0.447758
v 0.577937 -0.150516 0.447490
v 0.660744 -0.151034 0.391958
v 0.660744 -0.155601 0.447758
v 0.660475 -0.150516 0.447490
v 0.577937 -0.150516 0.392226
v 0.660744 -0.155601 0.391958
v 0.660475 -0.150516 0.392226
v 0.578670 -0.150137 0.446758
v 0.659743 -0.150137 0.446758
v 0.578670 -0.150137 0.392958
v 0.659743 -0.150137 0.392958
v 0.579671 -0.149998 0.445757
v 0.658742 -0.149998 0.445757
v 0.579671 -0.149998 0.393959
v 0.658742 -0.149998 0.393959
v 0.612320 -0.149998 0.408627
v 0.639107 -0.149998 0.407865
v 0.631103 -0.149998 0.412629
v 0.612320 -0.149998 0.407102
v 0.631103 -0.149998 0.403101
v 0.631103 -0.149998 0.408627
v 0.631103 -0.149998 0.407102
vn -1 0 0
vn 0 0 1
vn -0.37537529744522763 0.8474029602235803 0.37550180967902114
vn -0.5704787000886269 0.5906680110688197 -0.570670967760929
vn -0.5704787000886274 0.5906680110688186 0.5706709677609297
vn 0 0 -1
vn 0.37537529744522674 0.8474029602235807 0.3755018096790213
vn 0.5704787000886263 0.5906680110688195 0.57067096776093
vn -0.37537529744522735 0.8474029602235813 -0.37550180967901964
vn 0.37537529744522724 0.8474029602235813 -0.37550180967901925
vn 0.570478700088627 0.5906680110688202 -0.5706709677609283
vn 1 0 0
vn -0.14439113685276309 0.9789220313906497 0.14443980080424781
vn 0.14439113685276245 0.9789220313906497 0.1444398008042479
vn -0.14439113685276292 0.9789220313906498 -0.14443980080424573
vn 0.14439113685276267 0.9789220313906498 -0.14443980080424568
vn -0.06901157918584665 0.9952243933261897 0.06903483806595977
vn 0.06901157918584612 0.9952243933261897 0.06903483806595978
vn -0.06901157918584656 0.9952243933261897 -0.06903483806595757
vn 0.06901157918584623 0.99522439332619 -0.06903483806595757
vn 0 1 0
vn 0.5704787000886274 -0.5906680110688186 -0.5706709677609297
vn 0.5704787000886269 -0.5906680110688197 0.570670967760929
vn 0.37537529744522763 -0.8474029602235803 -0.37550180967902114
vn -0.5704787000886263 -0.5906680110688195 -0.57067096776093
vn -0.37537529744522674 -0.8474029602235807 -0.3755018096790213
vn 0.37537529744522735 -0.8474029602235813 0.37550180967901964
vn -0.570478700088627 -0.5906680110688202 0.5706709677609283
vn -0.37537529744522724 -0.8474029602235813 0.37550180967901925
vn 0.14439113685276309 -0.9789220313906497 -0.14443980080424781
vn -0.14439113685276245 -0.9789220313906497 -0.1444398008042479
vn 0.14439113685276292 -0.9789220313906498 0.14443980080424573
vn -0.14439113685276267 -0.9789220313906498 0.14443980080424568
vn 0.06901157918584665 -0.9952243933261897 -0.06903483806595977
vn -0.06901157918584612 -0.9952243933261897 -0.06903483806595978
vn 0.06901157918584656 -0.9952243933261897 0.06903483806595757
vn -0.06901157918584623 -0.99522439332619 0.06903483806595757
vn 0 -1 0
usemtl material_0_0
f 1//1 2//1 3//1
f 2//1 1//1 4//1
f 2//2 5//2 3//2
f 6//3 1//4 3//5
f 7//6 4//6 1//6
f 5//2 2//2 8//2
f 9//7 3//5 5//8
f 1//4 6//3 10//9
f 3//5 9//7 6//3
f 4//6 7//6 11//6
f 1//4 12//10 7//11
f 11//12 5//12 8//12
f 7//11 9//7 5//8
f 13//13 10//9 6//3
f 12//10 1//4 10//9
f 14//14 6//3 9//7
f 5//12 11//12 7//12
f 9//7 7//11 12//10
f 10//9 13//13 15//15
f 6//3 14//14 13//13
f 10//9 16//16 12//10
f 12//10 14//14 9//7
f 17//17 15//15 13//13
f 16//16 10//9 15//15
f 18//18 13//13 14//14
f 14//14 12//10 16//16
f 15//15 17//17 19//19
f 13//13 18//18 17//17
f 15//15 20//20 16//16
f 14//14 20//20 18//18
f 20//20 14//14 16//16
f 17//21 21//21 19//21
f 20//20 15//15 19//19
f 22//21 17//21 18//21
f 20//21 22//21 18//21
f 17//21 23//21 21//21
f 24//21 19//21 21//21
f 25//21 20//21 19//21
f 17//21 22//21 23//21
f 22//21 20//21 25//21
f 21//21 23//21 26//21
f 25//21 19//21 24//21
f 24//21 27//21 25//21
usemtl material_1_0
f 3//12 2//12 1//12
f 4//12 1//12 2//12
f 3//6 5//6 2//6
f 3//22 1//23 6//24
f 1//2 4//2 7//2
f 8//6 2//6 5//6
f 5//25 3//22 9//26
f 10//27 6//24 1//23
f 6//24 9//26 3//22
f 11//2 7//2 4//2
f 7//28 12//29 1//23
f 8//1 5//1 11//1
f 5//25 9//26 7//28
f 6//24 10//27 13//30
f 10//27 1//23 12//29
f 9//26 6//24 14//31
f 7//1 11//1 5//1
f 12//29 7//28 9//26
f 15//32 13//30 10//27
f 13//30 14//31 6//24
f 12//29 16//33 10//27
f 9//26 14//31 12//29
f 13//30 15//32 17//34
f 15//32 10//27 16//33
f 14//31 13//30 18//35
f 16//33 12//29 14//31
f 19//36 17//34 15//32
f 17//34 18//35 13//30
f 16//33 20//37 15//32
f 18//35 20//37 14//31
f 16//33 14//31 20//37
f 19//38 21//38 17//38
f 19//36 15//32 20//37
f 18//38 17//38 22//38
f 18//38 22//38 20//38
f 21//38 23//38 17//38
f 21//38 19//38 24//38
f 19//38 20//38 25//38
f 23//38 22//38 17//38
f 25//38 20//38 22//38
f 26//38 23//38 21//38
f 24//38 19//38 25//38
f 24//38 27//38 21//38
f 26//38 22//38 23//38
f 22//38 26//38 25//38
f 26//38 21//38 27//38
f 25//38 27//38 24//38
f 27//38 25//38 26//38
usemtl material_2_0
f 21//21 27//21 24//21
f 23//21 22//21 26//21
f 25//21 26//21 22//21
f 27//21 21//21 26//21
f 26//21 25//21 27//21
