# SSTK version 0.8.0
# 38
mtllib original-38.mtl
o mesh44/mesh44-geometry#mesh44-geometry
v 0.042959 -0.151034 -0.037969
v 0.042959 -0.155601 0.052502
v 0.042959 -0.151034 0.052502
v 0.042959 -0.155601 -0.037969
v 0.132901 -0.155601 0.052502
v 0.043227 -0.150516 0.052234
v 0.132901 -0.155601 -0.037969
v 0.132901 -0.151034 0.052502
v 0.043227 -0.150516 -0.037701
v 0.132632 -0.150516 0.052234
v 0.132901 -0.151034 -0.037969
v 0.043960 -0.150137 0.051502
v 0.132632 -0.150516 -0.037701
v 0.131900 -0.150137 0.051502
v 0.043960 -0.150137 -0.036969
v 0.131900 -0.150137 -0.036969
v 0.044961 -0.149998 0.050501
v 0.130899 -0.149998 0.050501
v 0.044961 -0.149998 -0.035968
v 0.130899 -0.149998 -0.035968
v 0.050136 -0.149998 0.040688
v 0.059874 -0.149998 0.047438
v 0.059541 -0.149998 -0.031799
v 0.050247 -0.149998 0.041853
v 0.050446 -0.149998 0.025148
v 0.056637 -0.149998 -0.033871
v 0.061439 -0.149998 0.047045
v 0.058133 -0.149998 0.047570
v 0.060168 -0.149998 -0.029864
v 0.050580 -0.149998 0.042972
v 0.050448 -0.149998 0.038836
v 0.050577 -0.149998 0.023832
v 0.054661 -0.149998 -0.033871
v 0.062829 -0.149998 0.046390
v 0.060473 -0.149998 0.046138
v 0.058464 -0.149998 0.046454
v 0.056249 -0.149998 0.047413
v 0.056324 -0.149998 -0.030491
v 0.058454 -0.149998 -0.029387
v 0.065676 -0.149998 0.024508
v 0.051913 -0.149998 0.045069
v 0.050973 -0.149998 0.022609
v 0.050686 -0.149998 0.026894
v 0.051785 -0.149998 -0.031799
v 0.064043 -0.149998 0.045472
v 0.062039 -0.149998 0.045193
v 0.056410 -0.149998 0.046053
v 0.054584 -0.149998 0.046944
v 0.059118 -0.149998 -0.026524
v 0.065546 -0.149998 0.023362
v 0.066296 -0.149998 0.040420
v 0.053139 -0.149998 0.046163
v 0.051386 -0.149998 0.037000
v 0.051158 -0.149998 -0.029864
v 0.054934 -0.149998 -0.030477
v 0.055615 -0.149998 -0.028296
v 0.065029 -0.149998 0.044370
v 0.063382 -0.149998 0.042135
v 0.063046 -0.149998 0.043798
v 0.060380 -0.149998 0.036943
v 0.056666 -0.149998 0.033745
v 0.055532 -0.149998 0.045553
v 0.056774 -0.149998 -0.029100
v 0.059766 -0.149998 0.018589
v 0.065159 -0.149998 0.022281
v 0.065397 -0.149998 0.026094
v 0.065903 -0.149998 0.038141
v 0.066155 -0.149998 0.041843
v 0.053088 -0.149998 0.035075
v 0.051631 -0.149998 0.021481
v 0.051407 -0.149998 0.028579
v 0.054498 -0.149998 -0.029100
v 0.065732 -0.149998 0.043160
v 0.064725 -0.149998 0.035977
v 0.062932 -0.149998 0.034065
v 0.062597 -0.149998 0.039469
v 0.055173 -0.149998 0.035256
v 0.054754 -0.149998 0.044852
v 0.054117 -0.149998 0.043985
v 0.061212 -0.149998 0.018933
v 0.058154 -0.149998 0.018474
v 0.057483 -0.149998 -0.025366
v 0.064513 -0.149998 0.021265
v 0.053297 -0.149998 0.040585
v 0.052959 -0.149998 0.030500
v 0.052235 -0.149998 -0.026524
v 0.053843 -0.149998 -0.025366
v 0.063186 -0.149998 0.040724
v 0.059910 -0.149998 0.031554
v 0.055695 -0.149998 0.032960
v 0.053662 -0.149998 0.042985
v 0.060081 -0.149998 0.019980
v 0.062493 -0.149998 0.019508
v 0.058195 -0.149998 0.019672
v 0.063609 -0.149998 0.020313
v 0.064560 -0.149998 0.027711
v 0.053504 -0.149998 0.038671
v 0.052554 -0.149998 0.020447
v 0.055007 -0.149998 0.018967
v 0.056494 -0.149998 0.018597
v 0.058939 -0.149998 0.030748
v 0.055550 -0.149998 0.027938
v 0.054124 -0.149998 0.036896
v 0.061522 -0.149998 0.020902
v 0.062436 -0.149998 0.022366
v 0.056284 -0.149998 0.019977
v 0.062839 -0.149998 0.029488
v 0.053694 -0.149998 0.019584
v 0.053442 -0.149998 0.023743
v 0.060964 -0.149998 0.028752
v 0.062741 -0.149998 0.024301
v 0.053990 -0.149998 0.025892
v 0.053579 -0.149998 0.024818
v 0.054765 -0.149998 0.020891
v 0.062080 -0.149998 0.027225
v 0.062576 -0.149998 0.025848
v 0.053773 -0.149998 0.022214
vn -1 0 0
vn 0 0 1
vn -0.37537529744522763 0.8474029602235803 0.37550180967902114
vn -0.5704787000886269 0.5906680110688197 -0.570670967760929
vn -0.5704787000886274 0.5906680110688186 0.5706709677609297
vn 0 0 -1
vn -0.37537529744522735 0.8474029602235813 -0.37550180967901964
vn 0.37537529744522674 0.8474029602235807 0.3755018096790213
vn 1 0 0
vn 0.5704787000886263 0.5906680110688195 0.57067096776093
vn -0.14439113685276309 0.9789220313906497 0.14443980080424781
vn 0.37537529744522724 0.8474029602235813 -0.37550180967901925
vn 0.14439113685276245 0.9789220313906497 0.1444398008042479
vn 0.570478700088627 0.5906680110688202 -0.5706709677609283
vn -0.14439113685276292 0.9789220313906498 -0.14443980080424573
vn 0.14439113685276267 0.9789220313906498 -0.14443980080424568
vn -0.06901157918584665 0.9952243933261897 0.06903483806595977
vn 0.06901157918584612 0.9952243933261897 0.06903483806595978
vn -0.06901157918584656 0.9952243933261897 -0.06903483806595757
vn 0.06901157918584623 0.99522439332619 -0.06903483806595757
vn 0 1 0
vn 0.5704787000886274 -0.5906680110688186 -0.5706709677609297
vn 0.5704787000886269 -0.5906680110688197 0.570670967760929
vn 0.37537529744522763 -0.8474029602235803 -0.37550180967902114
vn 0.37537529744522735 -0.8474029602235813 0.37550180967901964
vn -0.37537529744522674 -0.8474029602235807 -0.3755018096790213
vn -0.5704787000886263 -0.5906680110688195 -0.57067096776093
vn 0.14439113685276309 -0.9789220313906497 -0.14443980080424781
vn -0.37537529744522724 -0.8474029602235813 0.37550180967901925
vn -0.14439113685276245 -0.9789220313906497 -0.1444398008042479
vn -0.570478700088627 -0.5906680110688202 0.5706709677609283
vn 0.14439113685276292 -0.9789220313906498 0.14443980080424573
vn -0.14439113685276267 -0.9789220313906498 0.14443980080424568
vn 0.06901157918584665 -0.9952243933261897 -0.06903483806595977
vn -0.06901157918584612 -0.9952243933261897 -0.06903483806595978
vn 0.06901157918584656 -0.9952243933261897 0.06903483806595757
vn -0.06901157918584623 -0.99522439332619 0.06903483806595757
vn 0 -1 0
usemtl material_0_0
f 1//1 2//1 3//1
f 2//1 1//1 4//1
f 5//2 3//2 2//2
f 6//3 1//4 3//5
f 1//6 7//6 4//6
f 3//2 5//2 8//2
f 1//4 6//3 9//7
f 3//5 10//8 6//3
f 7//6 1//6 11//6
f 7//9 8//9 5//9
f 10//8 3//5 8//10
f 12//11 9//7 6//3
f 13//12 1//4 9//7
f 14//13 6//3 10//8
f 1//4 13//12 11//14
f 8//9 7//9 11//9
f 11//14 10//8 8//10
f 9//7 12//11 15//15
f 6//3 14//13 12//11
f 9//7 16//16 13//12
f 13//12 14//13 10//8
f 10//8 11//14 13//12
f 17//17 15//15 12//11
f 16//16 9//7 15//15
f 18//18 12//11 14//13
f 14//13 13//12 16//16
f 15//15 17//17 19//19
f 12//11 18//18 17//17
f 15//15 20//20 16//16
f 14//13 20//20 18//18
f 20//20 14//13 16//16
f 17//21 21//21 19//21
f 20//20 15//15 19//19
f 18//21 22//21 17//21
f 20//21 23//21 18//21
f 17//21 24//21 21//21
f 25//21 19//21 21//21
f 26//21 20//21 19//21
f 22//21 18//21 27//21
f 17//21 22//21 28//21
f 23//21 20//21 26//21
f 18//21 23//21 29//21
f 17//21 30//21 24//21
f 32//21 19//21 25//21
f 31//21 25//21 21//21
f 26//21 19//21 33//21
f 27//21 18//21 34//21
f 17//21 28//21 37//21
f 38//21 23//21 26//21
f 18//21 29//21 40//21
f 17//21 41//21 30//21
f 42//21 19//21 32//21
f 31//21 43//21 25//21
f 33//21 19//21 44//21
f 34//21 18//21 45//21
f 17//21 37//21 48//21
f 49//21 29//21 39//21
f 40//21 29//21 50//21
f 18//21 40//21 51//21
f 17//21 52//21 41//21
f 54//21 19//21 42//21
f 53//21 43//21 31//21
f 44//21 19//21 54//21
f 44//21 55//21 33//21
f 45//21 18//21 57//21
f 46//21 60//21 35//21
f 35//21 60//21 36//21
f 36//21 61//21 47//21
f 17//21 48//21 52//21
f 64//21 29//21 49//21
f 49//21 39//21 63//21
f 50//21 29//21 65//21
f 51//21 40//21 67//21
f 68//21 18//21 51//21
f 70//21 54//21 42//21
f 53//21 71//21 43//21
f 57//21 18//21 73//21
f 59//21 76//21 46//21
f 46//21 76//21 60//21
f 36//21 60//21 61//21
f 47//21 61//21 77//21
f 47//21 77//21 62//21
f 29//21 64//21 80//21
f 49//21 81//21 64//21
f 65//21 29//21 83//21
f 74//21 40//21 66//21
f 40//21 74//21 67//21
f 73//21 18//21 68//21
f 69//21 85//21 53//21
f 86//21 54//21 70//21
f 53//21 85//21 71//21
f 54//21 86//21 72//21
f 88//21 59//21 58//21
f 59//21 88//21 76//21
f 62//21 77//21 78//21
f 93//21 29//21 80//21
f 81//21 49//21 82//21
f 83//21 29//21 95//21
f 74//21 66//21 96//21
f 85//21 69//21 90//21
f 98//21 86//21 70//21
f 99//21 56//21 87//21
f 100//21 82//21 56//21
f 74//21 96//21 75//21
f 78//21 77//21 103//21
f 78//21 103//21 79//21
f 79//21 97//21 91//21
f 95//21 29//21 93//21
f 81//21 82//21 100//21
f 91//21 97//21 84//21
f 108//21 86//21 98//21
f 108//21 87//21 86//21
f 100//21 56//21 99//21
f 99//21 87//21 108//21
f 75//21 96//21 107//21
f 75//21 107//21 89//21
f 79//21 103//21 97//21
f 110//21 104//21 92//21
f 101//21 92//21 94//21
f 102//21 94//21 106//21
f 110//21 92//21 101//21
f 101//21 94//21 102//21
f 115//21 105//21 104//21
f 115//21 104//21 110//21
f 105//21 116//21 111//21
f 102//21 106//21 114//21
f 102//21 114//21 112//21
f 113//21 117//21 109//21
f 116//21 105//21 115//21
f 112//21 114//21 117//21
f 112//21 117//21 113//21
usemtl material_1_0
f 3//9 2//9 1//9
f 4//9 1//9 2//9
f 2//6 3//6 5//6
f 3//22 1//23 6//24
f 4//2 7//2 1//2
f 8//6 5//6 3//6
f 9//25 6//24 1//23
f 6//24 10//26 3//22
f 11//2 1//2 7//2
f 5//1 8//1 7//1
f 8//27 3//22 10//26
f 6//24 9//25 12//28
f 9//25 1//23 13//29
f 10//26 6//24 14//30
f 11//31 13//29 1//23
f 11//1 7//1 8//1
f 8//27 10//26 11//31
f 15//32 12//28 9//25
f 12//28 14//30 6//24
f 13//29 16//33 9//25
f 10//26 14//30 13//29
f 13//29 11//31 10//26
f 12//28 15//32 17//34
f 15//32 9//25 16//33
f 14//30 12//28 18//35
f 16//33 13//29 14//30
f 19//36 17//34 15//32
f 17//34 18//35 12//28
f 16//33 20//37 15//32
f 18//35 20//37 14//30
f 16//33 14//30 20//37
f 19//38 21//38 17//38
f 19//36 15//32 20//37
f 17//38 22//38 18//38
f 18//38 23//38 20//38
f 21//38 24//38 17//38
f 21//38 19//38 25//38
f 19//38 20//38 26//38
f 27//38 18//38 22//38
f 28//38 22//38 17//38
f 26//38 20//38 23//38
f 29//38 23//38 18//38
f 24//38 30//38 17//38
f 21//38 31//38 24//38
f 25//38 19//38 32//38
f 21//38 25//38 31//38
f 33//38 19//38 26//38
f 34//38 18//38 27//38
f 22//38 35//38 27//38
f 28//38 36//38 22//38
f 37//38 28//38 17//38
f 26//38 23//38 38//38
f 29//38 39//38 23//38
f 40//38 29//38 18//38
f 30//38 41//38 17//38
f 24//38 31//38 30//38
f 32//38 19//38 42//38
f 25//38 32//38 43//38
f 25//38 43//38 31//38
f 44//38 19//38 33//38
f 26//38 38//38 33//38
f 45//38 18//38 34//38
f 27//38 46//38 34//38
f 35//38 46//38 27//38
f 36//38 35//38 22//38
f 47//38 36//38 28//38
f 37//38 47//38 28//38
f 48//38 37//38 17//38
f 38//38 23//38 39//38
f 39//38 29//38 49//38
f 50//38 29//38 40//38
f 51//38 40//38 18//38
f 41//38 52//38 17//38
f 30//38 53//38 41//38
f 31//38 53//38 30//38
f 42//38 19//38 54//38
f 32//38 42//38 43//38
f 31//38 43//38 53//38
f 54//38 19//38 44//38
f 33//38 55//38 44//38
f 56//38 33//38 38//38
f 57//38 18//38 45//38
f 45//38 34//38 58//38
f 46//38 59//38 34//38
f 35//38 60//38 46//38
f 36//38 60//38 35//38
f 47//38 61//38 36//38
f 62//38 47//38 37//38
f 48//38 62//38 37//38
f 52//38 48//38 17//38
f 63//38 38//38 39//38
f 49//38 29//38 64//38
f 63//38 39//38 49//38
f 65//38 29//38 50//38
f 40//38 66//38 50//38
f 67//38 40//38 51//38
f 51//38 18//38 68//38
f 41//38 69//38 52//38
f 53//38 69//38 41//38
f 42//38 54//38 70//38
f 43//38 42//38 71//38
f 43//38 71//38 53//38
f 54//38 44//38 72//38
f 55//38 72//38 44//38
f 55//38 33//38 56//38
f 38//38 63//38 56//38
f 73//38 18//38 57//38
f 45//38 74//38 57//38
f 59//38 58//38 34//38
f 58//38 75//38 45//38
f 46//38 76//38 59//38
f 60//38 76//38 46//38
f 61//38 60//38 36//38
f 77//38 61//38 47//38
f 62//38 77//38 47//38
f 78//38 62//38 48//38
f 52//38 79//38 48//38
f 80//38 64//38 29//38
f 64//38 81//38 49//38
f 49//38 82//38 63//38
f 83//38 29//38 65//38
f 65//38 50//38 66//38
f 66//38 40//38 74//38
f 67//38 74//38 40//38
f 51//38 68//38 67//38
f 68//38 18//38 73//38
f 52//38 69//38 84//38
f 53//38 85//38 69//38
f 70//38 54//38 86//38
f 42//38 70//38 71//38
f 71//38 85//38 53//38
f 72//38 86//38 54//38
f 72//38 55//38 87//38
f 56//38 87//38 55//38
f 56//38 63//38 82//38
f 57//38 74//38 73//38
f 75//38 74//38 45//38
f 58//38 59//38 88//38
f 88//38 75//38 58//38
f 76//38 88//38 59//38
f 60//38 89//38 76//38
f 61//38 89//38 60//38
f 61//38 77//38 90//38
f 78//38 77//38 62//38
f 79//38 78//38 48//38
f 91//38 79//38 52//38
f 64//38 80//38 92//38
f 80//38 29//38 93//38
f 82//38 49//38 81//38
f 81//38 64//38 94//38
f 95//38 29//38 83//38
f 83//38 65//38 96//38
f 96//38 65//38 66//38
f 96//38 66//38 74//38
f 74//38 67//38 73//38
f 73//38 67//38 68//38
f 84//38 69//38 97//38
f 84//38 91//38 52//38
f 90//38 69//38 85//38
f 70//38 86//38 98//38
f 70//38 98//38 71//38
f 71//38 98//38 85//38
f 86//38 72//38 87//38
f 87//38 56//38 99//38
f 56//38 82//38 100//38
f 75//38 96//38 74//38
f 76//38 75//38 88//38
f 89//38 75//38 76//38
f 101//38 89//38 61//38
f 69//38 90//38 77//38
f 90//38 102//38 61//38
f 103//38 77//38 78//38
f 79//38 103//38 78//38
f 91//38 97//38 79//38
f 92//38 80//38 104//38
f 94//38 64//38 92//38
f 93//38 29//38 95//38
f 80//38 93//38 105//38
f 100//38 82//38 81//38
f 106//38 81//38 94//38
f 95//38 83//38 107//38
f 107//38 83//38 96//38
f 97//38 69//38 103//38
f 84//38 97//38 91//38
f 85//38 102//38 90//38
f 98//38 86//38 108//38
f 85//38 98//38 109//38
f 86//38 87//38 108//38
f 99//38 56//38 100//38
f 108//38 87//38 99//38
f 107//38 96//38 75//38
f 89//38 107//38 75//38
f 101//38 110//38 89//38
f 102//38 101//38 61//38
f 103//38 69//38 77//38
f 97//38 103//38 79//38
f 104//38 80//38 105//38
f 92//38 104//38 110//38
f 94//38 92//38 101//38
f 93//38 95//38 111//38
f 105//38 93//38 111//38
f 100//38 81//38 106//38
f 106//38 94//38 102//38
f 111//38 95//38 107//38
f 112//38 102//38 85//38
f 98//38 108//38 109//38
f 109//38 113//38 85//38
f 99//38 100//38 106//38
f 108//38 99//38 114//38
f 89//38 115//38 107//38
f 110//38 115//38 89//38
f 101//38 92//38 110//38
f 102//38 94//38 101//38
f 104//38 105//38 115//38
f 110//38 104//38 115//38
f 111//38 116//38 105//38
f 114//38 106//38 102//38
f 111//38 107//38 116//38
f 112//38 114//38 102//38
f 113//38 112//38 85//38
f 109//38 108//38 117//38
f 109//38 117//38 113//38
f 114//38 99//38 106//38
f 117//38 108//38 114//38
f 116//38 107//38 115//38
f 115//38 105//38 116//38
f 117//38 114//38 112//38
f 113//38 117//38 112//38
usemtl material_2_0
f 24//21 31//21 21//21
f 27//21 35//21 22//21
f 22//21 36//21 28//21
f 23//21 39//21 29//21
f 30//21 31//21 24//21
f 43//21 32//21 25//21
f 33//21 38//21 26//21
f 34//21 46//21 27//21
f 27//21 46//21 35//21
f 22//21 35//21 36//21
f 28//21 36//21 47//21
f 28//21 47//21 37//21
f 39//21 23//21 38//21
f 41//21 53//21 30//21
f 30//21 53//21 31//21
f 43//21 42//21 32//21
f 38//21 33//21 56//21
f 58//21 34//21 45//21
f 34//21 59//21 46//21
f 37//21 47//21 62//21
f 37//21 62//21 48//21
f 39//21 38//21 63//21
f 50//21 66//21 40//21
f 52//21 69//21 41//21
f 41//21 69//21 53//21
f 71//21 42//21 43//21
f 72//21 44//21 54//21
f 44//21 72//21 55//21
f 56//21 33//21 55//21
f 56//21 63//21 38//21
f 57//21 74//21 45//21
f 34//21 58//21 59//21
f 45//21 75//21 58//21
f 48//21 62//21 78//21
f 48//21 79//21 52//21
f 63//21 82//21 49//21
f 66//21 50//21 65//21
f 67//21 68//21 51//21
f 84//21 69//21 52//21
f 71//21 70//21 42//21
f 87//21 55//21 72//21
f 55//21 87//21 56//21
f 82//21 63//21 56//21
f 73//21 74//21 57//21
f 45//21 74//21 75//21
f 58//21 75//21 88//21
f 76//21 89//21 60//21
f 60//21 89//21 61//21
f 90//21 77//21 61//21
f 48//21 78//21 79//21
f 52//21 79//21 91//21
f 92//21 80//21 64//21
f 94//21 64//21 81//21
f 96//21 65//21 83//21
f 66//21 65//21 96//21
f 73//21 67//21 74//21
f 68//21 67//21 73//21
f 97//21 69//21 84//21
f 52//21 91//21 84//21
f 71//21 98//21 70//21
f 85//21 98//21 71//21
f 87//21 72//21 86//21
f 88//21 75//21 76//21
f 76//21 75//21 89//21
f 61//21 89//21 101//21
f 77//21 90//21 69//21
f 61//21 102//21 90//21
f 104//21 80//21 92//21
f 92//21 64//21 94//21
f 105//21 93//21 80//21
f 94//21 81//21 106//21
f 107//21 83//21 95//21
f 96//21 83//21 107//21
f 103//21 69//21 97//21
f 90//21 102//21 85//21
f 109//21 98//21 85//21
f 89//21 110//21 101//21
f 61//21 101//21 102//21
f 77//21 69//21 103//21
f 105//21 80//21 104//21
f 111//21 95//21 93//21
f 111//21 93//21 105//21
f 106//21 81//21 100//21
f 107//21 95//21 111//21
f 85//21 102//21 112//21
f 109//21 108//21 98//21
f 85//21 113//21 109//21
f 106//21 100//21 99//21
f 114//21 99//21 108//21
f 107//21 115//21 89//21
f 89//21 115//21 110//21
f 116//21 107//21 111//21
f 85//21 112//21 113//21
f 117//21 108//21 109//21
f 106//21 99//21 114//21
f 114//21 108//21 117//21
f 115//21 107//21 116//21
