# SSTK version 0.8.0
# 57
mtllib original-57.mtl
o mesh63/mesh63-geometry#mesh63-geometry
v 0.477098 -0.155601 0.149988
v 0.477098 -0.151034 0.238623
v 0.477098 -0.155601 0.238623
v 0.477098 -0.151034 0.149988
v 0.387164 -0.155601 0.238623
v 0.387164 -0.155601 0.149988
v 0.476830 -0.150516 0.238355
v 0.387164 -0.151034 0.238623
v 0.387164 -0.151034 0.149988
v 0.476830 -0.150516 0.150256
v 0.387432 -0.150516 0.238355
v 0.387432 -0.150516 0.150256
v 0.476097 -0.150137 0.237623
v 0.388165 -0.150137 0.237623
v 0.388165 -0.150137 0.150988
v 0.476097 -0.150137 0.150988
v 0.475097 -0.149998 0.151989
v 0.475097 -0.149998 0.236622
v 0.389166 -0.149998 0.151989
v 0.389166 -0.149998 0.236622
v 0.406837 -0.149998 0.154562
v 0.401665 -0.149998 0.213266
v 0.399550 -0.149998 0.206276
v 0.406837 -0.149998 0.157795
v 0.402311 -0.149998 0.209576
v 0.400170 -0.149998 0.213266
v 0.404076 -0.149998 0.154562
v 0.399604 -0.149998 0.154562
v 0.399550 -0.149998 0.209576
v 0.406190 -0.149998 0.161553
v 0.402311 -0.149998 0.206276
v 0.402365 -0.149998 0.154562
v 0.399604 -0.149998 0.157795
v 0.402365 -0.149998 0.157795
v 0.404736 -0.149998 0.161553
v 0.401759 -0.149998 0.161553
v 0.400277 -0.149998 0.161553
v 0.404076 -0.149998 0.157795
vn 1 0 0
vn 0 0 1
vn 0 0 -1
vn 0.570478700088627 0.5906680110688202 -0.5706709677609283
vn 0.37537529744522674 0.8474029602235807 0.3755018096790213
vn 0.5704787000886263 0.5906680110688195 0.57067096776093
vn 0.37537529744522724 0.8474029602235813 -0.37550180967901925
vn -0.37537529744522763 0.8474029602235803 0.37550180967902114
vn -0.5704787000886274 0.5906680110688186 0.5706709677609297
vn -1 0 0
vn -0.37537529744522735 0.8474029602235813 -0.37550180967901964
vn -0.5704787000886269 0.5906680110688197 -0.570670967760929
vn 0.14439113685276245 0.9789220313906497 0.1444398008042479
vn -0.14439113685276309 0.9789220313906497 0.14443980080424781
vn -0.14439113685276292 0.9789220313906498 -0.14443980080424573
vn 0.14439113685276267 0.9789220313906498 -0.14443980080424568
vn 0.06901157918584623 0.99522439332619 -0.06903483806595757
vn 0.06901157918584612 0.9952243933261897 0.06903483806595978
vn -0.06901157918584656 0.9952243933261897 -0.06903483806595757
vn -0.06901157918584665 0.9952243933261897 0.06903483806595977
vn 0 1 0
vn -0.5704787000886263 -0.5906680110688195 -0.57067096776093
vn -0.37537529744522674 -0.8474029602235807 -0.3755018096790213
vn -0.570478700088627 -0.5906680110688202 0.5706709677609283
vn -0.37537529744522724 -0.8474029602235813 0.37550180967901925
vn 0.37537529744522763 -0.8474029602235803 -0.37550180967902114
vn 0.5704787000886274 -0.5906680110688186 -0.5706709677609297
vn 0.5704787000886269 -0.5906680110688197 0.570670967760929
vn 0.37537529744522735 -0.8474029602235813 0.37550180967901964
vn -0.14439113685276245 -0.9789220313906497 -0.1444398008042479
vn 0.14439113685276309 -0.9789220313906497 -0.14443980080424781
vn 0.14439113685276292 -0.9789220313906498 0.14443980080424573
vn -0.14439113685276267 -0.9789220313906498 0.14443980080424568
vn -0.06901157918584623 -0.99522439332619 0.06903483806595757
vn -0.06901157918584612 -0.9952243933261897 -0.06903483806595978
vn 0.06901157918584656 -0.9952243933261897 0.06903483806595757
vn 0.06901157918584665 -0.9952243933261897 -0.06903483806595977
vn 0 -1 0
usemtl material_0_0
f 1//1 2//1 3//1
f 2//1 1//1 4//1
f 2//2 5//2 3//2
f 6//3 4//3 1//3
f 4//4 7//5 2//6
f 5//2 2//2 8//2
f 4//3 6//3 9//3
f 7//5 4//4 10//7
f 11//8 2//6 7//5
f 2//6 11//8 8//9
f 9//10 5//10 8//10
f 5//10 9//10 6//10
f 12//11 4//4 9//12
f 4//4 12//11 10//7
f 10//7 13//13 7//5
f 7//5 14//14 11//8
f 11//8 9//12 8//9
f 9//12 11//8 12//11
f 15//15 10//7 12//11
f 13//13 10//7 16//16
f 14//14 7//5 13//13
f 14//14 12//11 11//8
f 10//7 15//15 16//16
f 12//11 14//14 15//15
f 17//17 13//13 16//16
f 18//18 14//14 13//13
f 15//15 17//17 16//16
f 14//14 19//19 15//15
f 13//13 17//17 18//18
f 14//14 18//18 20//20
f 17//17 15//15 19//19
f 19//19 14//14 20//20
f 17//21 21//21 18//21
f 18//21 22//21 20//21
f 21//21 17//21 19//21
f 23//21 19//21 20//21
f 18//21 21//21 24//21
f 22//21 18//21 25//21
f 20//21 22//21 26//21
f 21//21 19//21 27//21
f 28//21 19//21 23//21
f 20//21 29//21 23//21
f 25//21 18//21 24//21
f 20//21 26//21 29//21
f 27//21 19//21 32//21
f 32//21 19//21 28//21
f 23//21 33//21 28//21
f 25//21 24//21 30//21
f 34//21 31//21 25//21
f 27//21 32//21 34//21
f 23//21 37//21 33//21
f 25//21 30//21 35//21
f 31//21 36//21 23//21
f 31//21 34//21 36//21
f 25//21 27//21 34//21
f 23//21 36//21 37//21
f 25//21 35//21 38//21
f 25//21 38//21 27//21
usemtl material_1_0
f 3//10 2//10 1//10
f 4//10 1//10 2//10
f 3//3 5//3 2//3
f 1//2 4//2 6//2
f 2//22 7//23 4//24
f 8//3 2//3 5//3
f 9//2 6//2 4//2
f 10//25 4//24 7//23
f 7//23 2//22 11//26
f 8//27 11//26 2//22
f 8//1 5//1 9//1
f 6//1 9//1 5//1
f 9//28 4//24 12//29
f 10//25 12//29 4//24
f 7//23 13//30 10//25
f 11//26 14//31 7//23
f 8//27 9//28 11//26
f 12//29 11//26 9//28
f 12//29 10//25 15//32
f 16//33 10//25 13//30
f 13//30 7//23 14//31
f 11//26 12//29 14//31
f 16//33 15//32 10//25
f 15//32 14//31 12//29
f 16//33 13//30 17//34
f 13//30 14//31 18//35
f 16//33 17//34 15//32
f 15//32 19//36 14//31
f 18//35 17//34 13//30
f 20//37 18//35 14//31
f 19//36 15//32 17//34
f 20//37 14//31 19//36
f 18//38 21//38 17//38
f 20//38 22//38 18//38
f 19//38 17//38 21//38
f 20//38 19//38 23//38
f 24//38 21//38 18//38
f 25//38 18//38 22//38
f 26//38 22//38 20//38
f 27//38 19//38 21//38
f 23//38 19//38 28//38
f 23//38 29//38 20//38
f 24//38 30//38 21//38
f 24//38 18//38 25//38
f 25//38 22//38 31//38
f 26//38 23//38 22//38
f 29//38 26//38 20//38
f 32//38 19//38 27//38
f 27//38 21//38 30//38
f 28//38 19//38 32//38
f 28//38 33//38 23//38
f 29//38 23//38 26//38
f 30//38 24//38 25//38
f 23//38 31//38 22//38
f 25//38 31//38 34//38
f 34//38 32//38 27//38
f 35//38 27//38 30//38
f 28//38 32//38 36//38
f 33//38 37//38 23//38
f 33//38 28//38 37//38
f 35//38 30//38 25//38
f 23//38 36//38 31//38
f 36//38 34//38 31//38
f 34//38 27//38 25//38
f 34//38 36//38 32//38
f 38//38 27//38 35//38
f 37//38 28//38 36//38
f 37//38 36//38 23//38
f 38//38 35//38 25//38
f 27//38 38//38 25//38
usemtl material_2_0
f 21//21 30//21 24//21
f 31//21 22//21 25//21
f 22//21 23//21 26//21
f 30//21 21//21 27//21
f 26//21 23//21 29//21
f 22//21 31//21 23//21
f 30//21 27//21 35//21
f 36//21 32//21 28//21
f 37//21 28//21 33//21
f 32//21 36//21 34//21
f 35//21 27//21 38//21
f 36//21 28//21 37//21
