# SSTK version 0.8.0
# 71
mtllib original-71.mtl
o mesh77/mesh77-geometry#mesh77-geometry
v 0.212257 -0.155601 0.338657
v 0.120812 -0.151034 0.338657
v 0.212257 -0.151034 0.338657
v 0.120812 -0.155601 0.338657
v 0.211989 -0.150516 0.338925
v 0.212257 -0.151034 0.447758
v 0.120812 -0.155601 0.447758
v 0.121080 -0.150516 0.338925
v 0.211989 -0.150516 0.447490
v 0.212257 -0.155601 0.447758
v 0.120812 -0.151034 0.447758
v 0.121080 -0.150516 0.447490
v 0.121813 -0.150137 0.339657
v 0.211256 -0.150137 0.446758
v 0.121813 -0.150137 0.446758
v 0.211256 -0.150137 0.339657
v 0.210256 -0.149998 0.340658
v 0.122814 -0.149998 0.340658
v 0.210256 -0.149998 0.445757
v 0.122814 -0.149998 0.445757
v 0.168979 -0.149998 0.348779
v 0.134398 -0.149998 0.371604
v 0.171862 -0.149998 0.354688
v 0.161158 -0.149998 0.348253
v 0.172276 -0.149998 0.371572
v 0.143366 -0.149998 0.348253
v 0.137680 -0.149998 0.371604
v 0.168979 -0.149998 0.354688
v 0.158291 -0.149998 0.348253
v 0.166128 -0.149998 0.350499
v 0.170110 -0.149998 0.371827
v 0.146695 -0.149998 0.348253
v 0.141136 -0.149998 0.362015
v 0.140244 -0.149998 0.364532
v 0.171862 -0.149998 0.369040
v 0.168979 -0.149998 0.356918
v 0.171862 -0.149998 0.356918
v 0.158291 -0.149998 0.371604
v 0.164025 -0.149998 0.354688
v 0.168724 -0.149998 0.371704
v 0.144959 -0.149998 0.350706
v 0.143701 -0.149998 0.355166
v 0.150008 -0.149998 0.364532
v 0.156252 -0.149998 0.371604
v 0.161158 -0.149998 0.371604
v 0.164025 -0.149998 0.356918
v 0.166128 -0.149998 0.354688
v 0.167689 -0.149998 0.371333
v 0.170604 -0.149998 0.369151
v 0.169624 -0.149998 0.368944
v 0.146615 -0.149998 0.355548
v 0.144421 -0.149998 0.352944
v 0.149053 -0.149998 0.362015
v 0.152732 -0.149998 0.371604
v 0.168979 -0.149998 0.366810
v 0.166128 -0.149998 0.356918
v 0.166216 -0.149998 0.368787
v 0.166956 -0.149998 0.370762
v 0.169131 -0.149998 0.368387
v 0.166128 -0.149998 0.366650
v 0.166478 -0.149998 0.370035
vn 0 0 -1
vn -0.5704787000886269 0.5906680110688197 -0.570670967760929
vn 0.37537529744522724 0.8474029602235813 -0.37550180967901925
vn 0.570478700088627 0.5906680110688202 -0.5706709677609283
vn 1 0 0
vn -1 0 0
vn -0.37537529744522735 0.8474029602235813 -0.37550180967901964
vn 0.37537529744522674 0.8474029602235807 0.3755018096790213
vn 0.5704787000886263 0.5906680110688195 0.57067096776093
vn -0.37537529744522763 0.8474029602235803 0.37550180967902114
vn -0.14439113685276292 0.9789220313906498 -0.14443980080424573
vn 0.14439113685276245 0.9789220313906497 0.1444398008042479
vn 0 0 1
vn -0.5704787000886274 0.5906680110688186 0.5706709677609297
vn -0.14439113685276309 0.9789220313906497 0.14443980080424781
vn 0.14439113685276267 0.9789220313906498 -0.14443980080424568
vn 0.06901157918584623 0.99522439332619 -0.06903483806595757
vn -0.06901157918584656 0.9952243933261897 -0.06903483806595757
vn 0.06901157918584612 0.9952243933261897 0.06903483806595978
vn -0.06901157918584665 0.9952243933261897 0.06903483806595977
vn 0 1 0
vn -0.570478700088627 -0.5906680110688202 0.5706709677609283
vn -0.37537529744522724 -0.8474029602235813 0.37550180967901925
vn 0.5704787000886269 -0.5906680110688197 0.570670967760929
vn 0.37537529744522735 -0.8474029602235813 0.37550180967901964
vn -0.37537529744522674 -0.8474029602235807 -0.3755018096790213
vn -0.5704787000886263 -0.5906680110688195 -0.57067096776093
vn 0.37537529744522763 -0.8474029602235803 -0.37550180967902114
vn 0.14439113685276292 -0.9789220313906498 0.14443980080424573
vn -0.14439113685276245 -0.9789220313906497 -0.1444398008042479
vn 0.5704787000886274 -0.5906680110688186 -0.5706709677609297
vn 0.14439113685276309 -0.9789220313906497 -0.14443980080424781
vn -0.14439113685276267 -0.9789220313906498 0.14443980080424568
vn -0.06901157918584623 -0.99522439332619 0.06903483806595757
vn 0.06901157918584656 -0.9952243933261897 0.06903483806595757
vn -0.06901157918584612 -0.9952243933261897 -0.06903483806595978
vn 0.06901157918584665 -0.9952243933261897 -0.06903483806595977
vn 0 -1 0
usemtl material_0_0
f 1//1 2//1 3//1
f 2//1 1//1 4//1
f 2//2 5//3 3//4
f 6//5 1//5 3//5
f 7//6 2//6 4//6
f 5//3 2//2 8//7
f 9//8 3//4 5//3
f 1//5 6//5 10//5
f 3//4 9//8 6//9
f 2//6 7//6 11//6
f 2//2 12//10 8//7
f 13//11 5//3 8//7
f 5//3 14//12 9//8
f 11//13 10//13 6//13
f 9//8 11//14 6//9
f 10//13 11//13 7//13
f 12//10 2//2 11//14
f 15//15 8//7 12//10
f 5//3 13//11 16//16
f 8//7 15//15 13//11
f 14//12 5//3 16//16
f 15//15 9//8 14//12
f 11//14 9//8 12//10
f 9//8 15//15 12//10
f 13//11 17//17 16//16
f 15//15 18//18 13//11
f 16//16 19//19 14//12
f 19//19 15//15 14//12
f 17//17 13//11 18//18
f 19//19 16//16 17//17
f 18//18 15//15 20//20
f 15//15 19//19 20//20
f 21//21 17//21 18//21
f 17//21 20//21 19//21
f 22//21 18//21 20//21
f 23//21 17//21 21//21
f 21//21 18//21 24//21
f 20//21 17//21 25//21
f 26//21 18//21 22//21
f 20//21 27//21 22//21
f 17//21 23//21 25//21
f 23//21 21//21 28//21
f 24//21 18//21 29//21
f 21//21 24//21 30//21
f 20//21 25//21 31//21
f 32//21 18//21 26//21
f 20//21 34//21 27//21
f 25//21 23//21 35//21
f 29//21 18//21 32//21
f 30//21 24//21 39//21
f 20//21 31//21 40//21
f 20//21 43//21 34//21
f 37//21 35//21 23//21
f 29//21 32//21 44//21
f 44//21 38//21 29//21
f 39//21 24//21 46//21
f 39//21 47//21 30//21
f 20//21 40//21 48//21
f 33//21 51//21 42//21
f 20//21 54//21 43//21
f 35//21 37//21 49//21
f 49//21 37//21 36//21
f 20//21 45//21 38//21
f 46//21 24//21 45//21
f 20//21 38//21 44//21
f 20//21 48//21 58//21
f 52//21 51//21 41//21
f 42//21 51//21 52//21
f 51//21 33//21 53//21
f 20//21 44//21 54//21
f 49//21 36//21 50//21
f 59//21 36//21 55//21
f 20//21 60//21 45//21
f 45//21 56//21 46//21
f 50//21 36//21 59//21
f 20//21 58//21 61//21
f 20//21 57//21 60//21
f 45//21 60//21 56//21
f 20//21 61//21 57//21
usemtl material_1_0
f 3//13 2//13 1//13
f 4//13 1//13 2//13
f 3//22 5//23 2//24
f 3//6 1//6 6//6
f 4//5 2//5 7//5
f 8//25 2//24 5//23
f 5//23 3//22 9//26
f 10//6 6//6 1//6
f 6//27 9//26 3//22
f 11//5 7//5 2//5
f 8//25 12//28 2//24
f 8//25 5//23 13//29
f 9//26 14//30 5//23
f 6//1 10//1 11//1
f 6//27 11//31 9//26
f 7//1 11//1 10//1
f 11//31 2//24 12//28
f 12//28 8//25 15//32
f 16//33 13//29 5//23
f 13//29 15//32 8//25
f 16//33 5//23 14//30
f 14//30 9//26 15//32
f 12//28 9//26 11//31
f 12//28 15//32 9//26
f 16//33 17//34 13//29
f 13//29 18//35 15//32
f 14//30 19//36 16//33
f 14//30 15//32 19//36
f 18//35 13//29 17//34
f 17//34 16//33 19//36
f 20//37 15//32 18//35
f 20//37 19//36 15//32
f 18//38 17//38 21//38
f 19//38 20//38 17//38
f 20//38 18//38 22//38
f 21//38 17//38 23//38
f 24//38 18//38 21//38
f 25//38 17//38 20//38
f 22//38 18//38 26//38
f 22//38 27//38 20//38
f 25//38 23//38 17//38
f 28//38 21//38 23//38
f 29//38 18//38 24//38
f 30//38 24//38 21//38
f 31//38 25//38 20//38
f 26//38 18//38 32//38
f 22//38 26//38 33//38
f 27//38 34//38 20//38
f 27//38 22//38 34//38
f 35//38 23//38 25//38
f 21//38 28//38 36//38
f 23//38 37//38 28//38
f 32//38 18//38 29//38
f 29//38 24//38 38//38
f 39//38 24//38 30//38
f 30//38 21//38 40//38
f 25//38 31//38 35//38
f 40//38 31//38 20//38
f 26//38 32//38 41//38
f 33//38 26//38 42//38
f 34//38 22//38 33//38
f 34//38 43//38 20//38
f 23//38 35//38 37//38
f 36//38 28//38 37//38
f 21//38 36//38 40//38
f 44//38 32//38 29//38
f 45//38 38//38 24//38
f 29//38 38//38 44//38
f 46//38 24//38 39//38
f 30//38 47//38 39//38
f 48//38 30//38 40//38
f 49//38 35//38 31//38
f 40//38 50//38 31//38
f 48//38 40//38 20//38
f 41//38 32//38 51//38
f 52//38 26//38 41//38
f 42//38 26//38 52//38
f 42//38 51//38 33//38
f 33//38 53//38 34//38
f 43//38 54//38 20//38
f 43//38 34//38 53//38
f 49//38 37//38 35//38
f 36//38 37//38 49//38
f 36//38 55//38 40//38
f 44//38 54//38 32//38
f 38//38 45//38 20//38
f 45//38 24//38 46//38
f 44//38 38//38 20//38
f 46//38 39//38 56//38
f 39//38 47//38 56//38
f 47//38 30//38 57//38
f 58//38 30//38 48//38
f 50//38 49//38 31//38
f 59//38 50//38 40//38
f 58//38 48//38 20//38
f 51//38 32//38 53//38
f 41//38 51//38 52//38
f 52//38 51//38 42//38
f 53//38 33//38 51//38
f 54//38 44//38 20//38
f 43//38 32//38 54//38
f 53//38 32//38 43//38
f 50//38 36//38 49//38
f 55//38 59//38 40//38
f 55//38 36//38 59//38
f 45//38 60//38 20//38
f 46//38 56//38 45//38
f 60//38 56//38 47//38
f 57//38 30//38 61//38
f 60//38 47//38 57//38
f 61//38 30//38 58//38
f 59//38 36//38 50//38
f 61//38 58//38 20//38
f 60//38 57//38 20//38
f 56//38 60//38 45//38
f 57//38 61//38 20//38
usemtl material_2_0
f 33//21 26//21 22//21
f 34//21 22//21 27//21
f 36//21 28//21 21//21
f 28//21 37//21 23//21
f 38//21 24//21 29//21
f 40//21 21//21 30//21
f 35//21 31//21 25//21
f 41//21 32//21 26//21
f 42//21 26//21 33//21
f 33//21 22//21 34//21
f 37//21 28//21 36//21
f 40//21 36//21 21//21
f 24//21 38//21 45//21
f 40//21 30//21 48//21
f 31//21 35//21 49//21
f 31//21 50//21 40//21
f 51//21 32//21 41//21
f 41//21 26//21 52//21
f 52//21 26//21 42//21
f 34//21 53//21 33//21
f 53//21 34//21 43//21
f 40//21 55//21 36//21
f 32//21 54//21 44//21
f 56//21 39//21 46//21
f 56//21 47//21 39//21
f 57//21 30//21 47//21
f 48//21 30//21 58//21
f 31//21 49//21 50//21
f 40//21 50//21 59//21
f 53//21 32//21 51//21
f 54//21 32//21 43//21
f 43//21 32//21 53//21
f 40//21 59//21 55//21
f 47//21 56//21 60//21
f 61//21 30//21 57//21
f 57//21 47//21 60//21
f 58//21 30//21 61//21
