# Blender v2.79 (sub 0) OBJ File: ''
# www.blender.org
mtllib 100221_link_1_11.mtl
o Shape_IndexedFaceSet.011_Shape_IndexedFaceSet.12852
v 0.080893 -0.508772 0.132374
v -0.388949 -0.510763 -0.183547
v -0.422282 -0.415870 -0.213803
v -0.413485 -0.508772 0.242938
v 0.064741 -0.421122 0.228276
v 0.090594 -0.415680 -0.214624
v -0.392359 -0.422169 0.223761
v 0.080893 -0.515282 -0.166767
v 0.080893 -0.502273 0.242938
v -0.120759 -0.521791 -0.192772
v -0.413485 -0.515282 -0.160266
v -0.127340 -0.508772 0.242938
v 0.056497 -0.510789 -0.183674
v -0.166296 -0.521791 -0.192772
vn -0.0242 -0.9996 0.0161
vn -0.0004 0.9999 0.0123
vn -0.9655 0.2509 0.0696
vn -0.0101 0.2185 0.9758
vn -0.0024 0.9999 0.0146
vn 0.9954 -0.0959 0.0021
vn -0.0023 0.1773 0.9841
vn 0.9769 0.2052 0.0595
vn 0.9964 -0.0852 0.0050
vn 0.0295 -0.9993 0.0217
vn -0.5805 -0.4253 -0.6944
vn -0.9962 -0.0874 0.0014
vn 0.0311 -0.9978 0.0587
vn 0.0000 0.0000 1.0000
vn 0.0000 -0.9996 0.0299
vn 0.0160 -0.9994 0.0301
vn 0.4634 -0.4200 -0.7803
vn 0.0688 -0.3309 -0.9411
vn 0.0761 -0.9309 -0.3572
vn -0.0551 -0.3208 -0.9455
vn -0.0015 -0.1982 -0.9802
vn 0.0000 -0.2017 -0.9794
vn -0.0582 -0.9668 -0.2490
usemtl Shape.12864
s off
f 4//1 11//1 14//1
f 3//2 5//2 6//2
f 3//3 4//3 7//3
f 4//4 5//4 7//4
f 5//5 3//5 7//5
f 6//6 1//6 8//6
f 5//7 4//7 9//7
f 6//8 5//8 9//8
f 1//9 6//9 9//9
f 8//10 1//10 10//10
f 3//11 2//11 11//11
f 4//12 3//12 11//12
f 1//13 9//13 12//13
f 9//14 4//14 12//14
f 4//15 10//15 12//15
f 10//16 1//16 12//16
f 6//17 8//17 13//17
f 10//18 6//18 13//18
f 8//19 10//19 13//19
f 2//20 3//20 14//20
f 3//21 6//21 14//21
f 10//15 4//15 14//15
f 6//22 10//22 14//22
f 11//23 2//23 14//23
