# Blender v2.79 (sub 0) OBJ File: ''
# www.blender.org
mtllib 100221_link_1_19.mtl
o Shape_IndexedFaceSet.019_Shape_IndexedFaceSet.12860
v 0.601280 -0.112004 0.002319
v 0.484202 -0.281117 -0.062752
v 0.484202 -0.027423 -0.062752
v 0.482316 -0.285203 0.426369
v 0.562254 -0.027423 0.418616
v 0.562254 -0.281117 0.418616
v 0.482335 -0.023378 0.426291
v 0.555744 -0.281117 -0.062752
v 0.554783 -0.036794 -0.044973
v 0.593739 -0.117449 0.206215
v 0.601280 -0.144536 -0.004136
v 0.579672 -0.058875 -0.031296
v 0.567886 -0.075712 -0.054582
v 0.562254 -0.281117 0.080395
v 0.583707 -0.069409 0.242288
vn 0.8969 0.4423 0.0038
vn -1.0000 0.0000 -0.0039
vn 0.0965 0.0000 0.9953
vn -1.0000 0.0001 -0.0038
vn 0.0956 0.0003 0.9954
vn 0.0498 0.9987 -0.0081
vn 0.0000 0.0000 -1.0000
vn 0.0000 -1.0000 -0.0084
vn 0.1371 0.9903 -0.0222
vn 0.9892 0.0000 0.1466
vn 0.9910 -0.1238 0.0515
vn 0.9993 -0.0073 0.0368
vn 0.6713 0.7407 -0.0258
vn 0.8948 0.0869 -0.4379
vn 0.8706 0.0650 -0.4877
vn 0.1158 0.0326 -0.9927
vn 0.2710 0.3157 -0.9093
vn 0.8173 -0.0254 -0.5757
vn 0.6822 0.3834 -0.6225
vn 0.0510 -0.9987 0.0000
vn 0.0427 -0.9991 -0.0019
vn 0.9615 -0.2747 0.0000
vn 0.9532 -0.2992 -0.0433
vn 0.9838 0.1746 0.0410
vn 0.9862 0.1411 0.0864
vn 0.9261 0.3772 0.0009
usemtl Shape.12872
s off
f 12//1 5//1 15//1
f 3//2 2//2 4//2
f 5//3 4//3 6//3
f 3//4 4//4 7//4
f 4//5 5//5 7//5
f 5//6 3//6 7//6
f 2//7 3//7 8//7
f 4//8 2//8 8//8
f 3//9 5//9 9//9
f 5//10 6//10 10//10
f 10//11 6//11 11//11
f 1//12 10//12 11//12
f 9//13 5//13 12//13
f 1//14 11//14 12//14
f 12//15 11//15 13//15
f 8//16 3//16 13//16
f 3//17 9//17 13//17
f 11//18 8//18 13//18
f 9//19 12//19 13//19
f 6//20 4//20 14//20
f 4//21 8//21 14//21
f 11//22 6//22 14//22
f 8//23 11//23 14//23
f 10//24 1//24 15//24
f 5//25 10//25 15//25
f 1//26 12//26 15//26
