# Blender v2.79 (sub 0) OBJ File: ''
# www.blender.org
mtllib 100221_link_0_15.mtl
o Shape_IndexedFaceSet.015_Shape_IndexedFaceSet.18106
v -0.107331 0.891137 -0.061409
v -0.394424 0.727970 -0.165479
v -0.394424 0.759638 0.008637
v -0.051482 0.759654 0.008637
v -0.394424 0.875713 -0.096886
v -0.051482 0.733259 -0.165479
v -0.382038 0.851558 -0.007634
v -0.051482 0.875697 -0.096868
v -0.056753 0.727987 -0.065259
v -0.064238 0.836796 0.001965
v -0.383166 0.733513 -0.071219
v -0.178117 0.733276 -0.170765
v -0.379530 0.884642 -0.056978
v -0.146960 0.881028 -0.032035
v -0.121468 0.847042 0.003107
v -0.151332 0.844738 -0.118027
v -0.394424 0.796578 -0.139102
v -0.051482 0.727987 -0.165479
v -0.060509 0.857364 -0.011091
v -0.380667 0.836657 0.001441
v -0.114591 0.889470 -0.085857
v -0.051482 0.796594 -0.139102
v -0.380458 0.885070 -0.081064
v -0.065604 0.885013 -0.056859
v -0.205971 0.856107 -0.003355
v -0.381954 0.861316 -0.017459
v -0.394424 0.849318 -0.112708
v -0.394424 0.733276 -0.165479
v -0.130646 0.733276 -0.170765
vn 0.0169 0.4302 -0.9026
vn -1.0000 -0.0000 0.0000
vn -0.9704 0.1624 0.1786
vn 1.0000 0.0000 -0.0000
vn 0.0000 -0.9192 0.3939
vn -0.7119 -0.6909 0.1257
vn -0.0180 -0.9980 0.0608
vn -0.0217 -0.9511 0.3081
vn -0.0178 0.9526 0.3038
vn -0.0000 0.0632 0.9980
vn 0.0363 0.0921 0.9951
vn 0.0001 0.5641 -0.8257
vn -0.0067 0.4290 -0.9033
vn 0.0000 -1.0000 0.0000
vn 0.9594 -0.2774 0.0505
vn 0.9848 0.1169 0.1286
vn 0.8310 0.1828 0.5254
vn 0.1097 0.5184 0.8481
vn 0.0350 0.7310 0.6815
vn -0.8680 0.1976 0.4556
vn -0.0102 0.0948 0.9954
vn 0.0001 0.6246 -0.7809
vn 0.0409 0.4706 -0.8814
vn -0.0235 0.9995 0.0187
vn -0.5848 0.8104 0.0369
vn -0.0176 0.9979 -0.0628
vn -0.0233 0.8694 -0.4936
vn 0.0858 0.9008 0.4257
vn 0.8582 0.4761 0.1921
vn 0.1121 0.8560 0.5047
vn 0.1564 0.9812 -0.1133
vn 0.1835 0.9697 -0.1610
vn 0.0257 0.7278 0.6853
vn -0.0342 0.5176 0.8550
vn -0.0230 0.4292 0.9029
vn -0.9626 0.1963 0.1867
vn -0.8609 0.4596 0.2185
vn -0.0409 0.8616 0.5060
vn -0.0354 0.7092 0.7041
vn -0.0269 0.7813 0.6236
vn -0.0091 0.5141 -0.8577
vn -0.0111 0.4475 -0.8942
vn -0.0244 0.0000 -0.9997
vn -0.0226 0.3845 -0.9228
vn 0.0000 -0.7058 -0.7084
vn 0.0000 0.4277 -0.9039
vn 0.0666 0.0000 -0.9978
vn 0.0000 -0.7066 -0.7076
vn 0.0616 0.3837 -0.9214
usemtl Shape.18130
s off
f 16//1 22//1 29//1
f 2//2 3//2 5//2
f 5//3 3//3 7//3
f 4//4 6//4 8//4
f 4//5 3//5 9//5
f 3//6 2//6 11//6
f 2//7 9//7 11//7
f 9//8 3//8 11//8
f 1//9 13//9 14//9
f 3//10 4//10 15//10
f 4//11 10//11 15//11
f 5//12 8//12 16//12
f 16//13 12//13 17//13
f 2//2 5//2 17//2
f 6//4 4//4 18//4
f 9//14 2//14 18//14
f 4//15 9//15 18//15
f 4//16 8//16 19//16
f 10//17 4//17 19//17
f 15//18 10//18 19//18
f 14//19 15//19 19//19
f 7//20 3//20 20//20
f 3//21 15//21 20//21
f 8//22 5//22 21//22
f 8//4 6//4 22//4
f 16//23 8//23 22//23
f 13//24 1//24 23//24
f 5//25 13//25 23//25
f 1//26 21//26 23//26
f 21//27 5//27 23//27
f 1//28 14//28 24//28
f 19//29 8//29 24//29
f 14//30 19//30 24//30
f 21//31 1//31 24//31
f 8//32 21//32 24//32
f 15//33 14//33 25//33
f 7//34 20//34 25//34
f 20//35 15//35 25//35
f 5//36 7//36 26//36
f 13//37 5//37 26//37
f 14//38 13//38 26//38
f 7//39 25//39 26//39
f 25//40 14//40 26//40
f 5//41 16//41 27//41
f 16//42 17//42 27//42
f 17//2 5//2 27//2
f 12//43 2//43 28//43
f 17//44 12//44 28//44
f 2//2 17//2 28//2
f 2//45 12//45 29//45
f 12//46 16//46 29//46
f 6//47 18//47 29//47
f 18//48 2//48 29//48
f 22//49 6//49 29//49
