# Blender v2.79 (sub 0) OBJ File: ''
# www.blender.org
mtllib 100221_link_1_9.mtl
o Shape_IndexedFaceSet.009_Shape_IndexedFaceSet.12850
v -0.510426 -0.469648 -0.301090
v -0.420620 -0.422170 0.217817
v -0.472055 -0.404712 0.242982
v -0.537057 -0.515289 0.242982
v -0.418066 -0.512445 -0.269308
v -0.415116 -0.405979 -0.278774
v -0.556570 -0.404712 -0.192819
v -0.420010 -0.515289 0.242982
v -0.556570 -0.521786 -0.173334
v -0.550126 -0.428429 0.215576
v -0.472055 -0.528306 -0.199314
v -0.553573 -0.506820 -0.284753
v -0.535258 -0.407156 -0.280190
v -0.541491 -0.407178 0.231947
v -0.411902 -0.403435 -0.216055
v -0.563080 -0.515289 -0.173334
v -0.550653 -0.493111 0.217818
v -0.563872 -0.457474 -0.241393
v -0.416248 -0.501031 -0.287677
v -0.556928 -0.445710 0.124025
v -0.540607 -0.518640 -0.275729
v -0.426519 -0.521786 -0.166786
v -0.554290 -0.431990 -0.287660
v -0.440881 -0.438008 -0.296295
v -0.447537 -0.507371 -0.294420
v -0.498031 -0.528306 -0.199314
v -0.437011 -0.518025 -0.272872
v -0.542242 -0.501372 -0.296462
vn -0.0350 -0.7693 -0.6380
vn 0.4896 0.2305 0.8409
vn 0.0000 0.0000 1.0000
vn 0.0000 -0.9996 0.0294
vn -0.1595 0.0938 0.9827
vn -0.0366 0.9993 0.0071
vn -0.9350 0.3528 0.0352
vn 0.3418 0.9386 0.0474
vn -0.0086 1.0000 0.0017
vn 0.9997 0.0121 0.0206
vn -0.0139 0.9994 -0.0313
vn -0.0093 0.9992 -0.0401
vn -0.7057 -0.7071 0.0441
vn -0.7018 -0.7033 -0.1133
vn -0.8747 0.0136 0.4845
vn -0.8961 0.0227 0.4432
vn -0.8778 -0.4759 0.0549
vn -0.9879 -0.1238 -0.0937
vn 0.9883 -0.1527 0.0029
vn 0.9987 -0.0071 -0.0509
vn 0.9988 -0.0487 0.0058
vn -0.9726 0.2306 0.0287
vn -0.9973 0.0106 0.0721
vn -0.9974 -0.0623 0.0352
vn -0.9922 0.1236 0.0149
vn -0.9998 0.0084 0.0187
vn -0.6216 -0.7740 -0.1207
vn 0.7362 -0.6768 -0.0010
vn 0.1322 -0.9911 0.0136
vn -0.7477 0.6332 -0.2001
vn -0.9735 0.2126 -0.0845
vn -0.9771 -0.0176 -0.2121
vn 0.0057 0.4764 -0.8792
vn 0.4952 0.0752 -0.8655
vn -0.0585 0.2741 -0.9599
vn -0.0546 0.3257 -0.9439
vn 0.0846 -0.0350 -0.9958
vn 0.2196 -0.0474 -0.9744
vn -0.1018 -0.9946 0.0203
vn 0.0000 -0.9921 -0.1255
vn -0.1329 -0.9898 -0.0511
vn 0.3297 -0.8162 -0.4745
vn 0.0096 -0.9909 -0.1339
vn 0.2928 -0.9541 -0.0628
vn 0.1782 -0.9826 -0.0525
vn 0.2767 -0.8008 -0.5311
vn 0.0177 -0.8928 -0.4501
vn -0.2639 -0.7513 -0.6049
vn -0.2250 0.0841 -0.9707
vn -0.7102 -0.0341 -0.7032
vn 0.0114 -0.1556 -0.9878
usemtl Shape.12862
s off
f 25//1 21//1 28//1
f 2//2 3//2 8//2
f 3//3 4//3 8//3
f 8//4 4//4 11//4
f 4//5 3//5 14//5
f 3//6 7//6 14//6
f 7//7 10//7 14//7
f 3//8 2//8 15//8
f 7//9 3//9 15//9
f 2//10 8//10 15//10
f 13//11 7//11 15//11
f 6//12 13//12 15//12
f 9//13 4//13 16//13
f 12//14 9//14 16//14
f 4//15 14//15 17//15
f 14//16 10//16 17//16
f 16//17 4//17 17//17
f 12//18 16//18 18//18
f 8//19 5//19 19//19
f 6//20 15//20 19//20
f 15//21 8//21 19//21
f 10//22 7//22 20//22
f 17//23 10//23 20//23
f 16//24 17//24 20//24
f 7//25 18//25 20//25
f 18//26 16//26 20//26
f 9//27 12//27 21//27
f 5//28 8//28 22//28
f 8//29 11//29 22//29
f 7//30 13//30 23//30
f 18//31 7//31 23//31
f 12//32 18//32 23//32
f 13//33 6//33 24//33
f 6//34 19//34 24//34
f 1//35 23//35 24//35
f 23//36 13//36 24//36
f 1//37 24//37 25//37
f 24//38 19//38 25//38
f 4//39 9//39 26//39
f 11//4 4//4 26//4
f 21//40 11//40 26//40
f 9//41 21//41 26//41
f 19//42 5//42 27//42
f 11//43 21//43 27//43
f 5//44 22//44 27//44
f 22//45 11//45 27//45
f 25//46 19//46 27//46
f 21//47 25//47 27//47
f 21//48 12//48 28//48
f 23//49 1//49 28//49
f 12//50 23//50 28//50
f 1//51 25//51 28//51
