# SSTK version 0.8.0
# 86
mtllib original-86.mtl
o mesh92/mesh92-geometry#mesh92-geometry
v -0.476313 -0.178736 0.486881
v -0.531559 -0.178736 0.486881
v -0.476313 -0.178514 0.534600
v -0.531559 -0.178514 0.534600
vt 0 0
vt 1 0
vt 0 1
vt 1 1
vn 0 0.9999891094938135 -0.004667000511013027
vn 0 -0.9999891094938135 0.004667000511013027
usemtl material_0_2
f 1/1/1 2/2/1 3/3/1
f 3/3/2 2/2/2 1/1/2
f 1/1/2 3/3/2 2/2/2
f 2/2/1 3/3/1 1/1/1
f 4/4/1 3/3/1 2/2/1
f 2/2/2 3/3/2 4/4/2
f 4/4/2 2/2/2 3/3/2
f 3/3/1 2/2/1 4/4/1
