# SSTK version 0.8.0
# 80
mtllib original-80.mtl
o mesh86/mesh86-geometry#mesh86-geometry
v -0.627770 -0.177643 0.588595
v -0.586355 -0.177640 0.589245
v -0.627218 -0.177807 0.553457
v -0.585803 -0.177804 0.554107
vt 0 0
vt 1 0
vt 0 1
vt 1 1
vn 0 0.9999891094938135 -0.004667000511013027
vn 0 -0.9999891094938135 0.004667000511013027
usemtl material_0_2
f 1/1/1 2/2/1 3/3/1
f 3/3/2 2/2/2 1/1/2
f 1/1/2 3/3/2 2/2/2
f 2/2/1 3/3/1 1/1/1
f 4/4/1 3/3/1 2/2/1
f 2/2/2 3/3/2 4/4/2
f 4/4/2 2/2/2 3/3/2
f 3/3/1 2/2/1 4/4/1
