# SSTK version 0.8.0
# 28
mtllib original-28.mtl
o mesh34/mesh34-geometry#mesh34-geometry
v -0.105255 -0.184921 0.297693
v -0.055797 -0.184658 0.353950
v -0.105255 -0.184658 0.353950
v -0.055797 -0.184921 0.297693
v -0.055797 -0.184040 0.353947
v -0.105255 -0.184040 0.353947
v -0.105255 -0.184302 0.297690
v -0.055797 -0.184302 0.297690
vn 0 -0.9999891094938135 0.004667000511013027
vn 0 0.9999891094938135 -0.004667000511013027
vn 0 -0.004667000511013027 -0.9999891094938135
vn 1 0 0
vn 0 0.004667000511013027 0.9999891094938135
vn -1 0 0
usemtl material_0_0
f 1//1 2//1 3//1
f 2//1 1//1 4//1
f 3//2 2//2 1//2
f 4//2 1//2 2//2
f 2//3 3//3 5//3
f 3//4 1//4 6//4
f 7//3 4//3 1//3
f 1//5 4//5 7//5
f 2//6 5//6 4//6
f 6//3 5//3 3//3
f 7//4 6//4 1//4
f 4//3 7//3 8//3
f 8//5 7//5 4//5
f 8//6 4//6 5//6
f 6//1 7//1 5//1
f 8//1 5//1 7//1
usemtl material_1_0
f 5//5 3//5 2//5
f 3//5 5//5 6//5
f 5//2 7//2 6//2
f 7//2 5//2 8//2
usemtl material_2_0
f 6//6 1//6 3//6
f 4//4 5//4 2//4
f 1//6 6//6 7//6
f 5//4 4//4 8//4
