# SSTK version 0.8.0
# 11
mtllib original-11.mtl
o mesh9/mesh9-geometry#mesh9-geometry
v 0.069148 -0.076914 0.490923
v 0.069510 -0.074170 0.496226
v 0.069148 -0.076914 0.496226
v 0.069510 -0.074170 0.490923
v 0.069510 -0.079659 0.496226
v 0.070570 -0.071612 0.496226
v 0.069510 -0.079659 0.490923
v 0.070570 -0.071612 0.490923
v 0.070570 -0.082217 0.496226
v 0.070570 -0.082217 0.490923
v 0.072255 -0.069415 0.496226
v 0.072255 -0.069415 0.490923
v 0.072255 -0.084414 0.496226
v 0.074451 -0.067729 0.496226
v 0.072255 -0.084414 0.490923
v 0.074451 -0.067729 0.490923
v 0.074451 -0.086100 0.496226
v 0.074451 -0.086100 0.490923
v 0.077009 -0.066670 0.496226
v 0.077009 -0.066670 0.490923
v 0.077009 -0.087159 0.496226
v 0.077009 -0.087159 0.490923
v 0.079754 -0.066309 0.496226
v 0.079754 -0.066309 0.490923
v 0.079754 -0.087520 0.496226
v 0.079754 -0.087520 0.490923
v 0.082499 -0.066670 0.496226
v 0.082499 -0.066670 0.490923
v 0.082499 -0.087159 0.496226
v 0.082499 -0.087159 0.490923
v 0.085057 -0.067729 0.496226
v 0.085057 -0.067729 0.490923
v 0.085057 -0.086100 0.496226
v 0.085057 -0.086100 0.490923
v 0.087254 -0.069415 0.496226
v 0.087254 -0.069415 0.490923
v 0.087254 -0.084414 0.496226
v 0.087254 -0.084414 0.490923
v 0.088939 -0.071612 0.490923
v 0.088939 -0.071612 0.496226
v 0.088939 -0.082217 0.496226
v 0.089999 -0.074170 0.490923
v 0.089999 -0.074170 0.496226
v 0.088939 -0.082217 0.490923
v 0.089999 -0.079659 0.496226
v 0.090360 -0.076914 0.490923
v 0.090360 -0.076914 0.496226
v 0.089999 -0.079659 0.490923
vt -7.214457 -0.446615
vt -7.26367 -0.416805
vt -7.26367 -0.446615
vt -7.214457 -0.416805
vt -5.732484 -1.068506
vt -5.732484 -1.127749
vt -5.72913 -1.098128
vt -7.26367 -1.765507
vt -7.214457 -1.735697
vt -7.26367 -1.735697
vt -7.214457 0.91709
vt -7.26367 0.946392
vt -7.26367 0.91709
vt -5.742317 -1.040904
vt -7.214457 -1.765507
vt -7.214457 0.946392
vt -5.742317 -1.155352
vt -7.26367 -2.985998
vt -7.214457 -3.015299
vt -7.214457 -2.985998
vt -7.214457 2.293993
vt -7.26367 2.322392
vt -7.26367 2.293993
vt -5.757959 -1.017201
vt -7.26367 -3.015299
vt -7.214457 2.322392
vt -5.757959 -1.179055
vt -7.26367 -4.155491
vt -7.214457 -4.127092
vt -7.26367 -4.127092
vt -7.214457 3.619182
vt -7.26367 3.646501
vt -7.26367 3.619182
vt -5.778343 -0.999013
vt -7.214457 -4.155491
vt -7.214457 3.646501
vt -5.778343 -1.197242
vt -7.26367 -5.081361
vt -7.214457 -5.10868
vt -7.214457 -5.081361
vt -7.214457 4.772461
vt -7.26367 4.798809
vt -7.26367 4.772461
vt -5.802081 -0.987579
vt -7.26367 -5.10868
vt -7.214457 4.798809
vt -5.802081 -1.208676
vt -7.26367 -5.725491
vt -7.214457 -5.751839
vt -7.214457 -5.725491
vt -7.214457 5.585826
vt -7.26367 5.611597
vt -7.26367 5.585826
vt -5.827556 -0.98368
vt -7.26367 -5.751839
vt -7.214457 5.611597
vt -5.827556 -1.212576
vt -7.26367 -5.918167
vt -7.214457 -5.943938
vt -7.214457 -5.918167
vt 7.214457 -5.909301
vt 7.26367 -5.935072
vt 7.26367 -5.909301
vt -5.85303 -0.987579
vt -7.26367 -5.943938
vt 7.214457 -5.935072
vt -5.85303 -1.208676
vt 7.26367 5.57696
vt 7.214457 5.602731
vt 7.214457 5.57696
vt 7.214457 -5.7018
vt 7.26367 -5.728148
vt 7.26367 -5.7018
vt -5.876768 -0.999013
vt 7.26367 5.602731
vt 7.214457 -5.728148
vt -5.876768 -1.197242
vt 7.26367 4.74877
vt 7.214457 4.775118
vt 7.214457 4.74877
vt 7.214457 -5.050148
vt 7.26367 -5.077467
vt 7.26367 -5.050148
vt -5.897153 -1.017201
vt 7.26367 4.775118
vt 7.214457 -5.077467
vt -5.897153 -1.179055
vt 7.26367 3.58797
vt 7.214457 3.615289
vt 7.214457 3.58797
vt 7.214457 -4.125465
vt 7.26367 -4.097066
vt 7.214457 -4.097066
vt -5.912794 -1.040904
vt 7.26367 3.615289
vt 7.26367 -4.125465
vt -5.912794 -1.155352
vt 7.26367 2.292366
vt 7.214457 2.263967
vt 7.26367 2.263967
vt 7.214457 -2.993996
vt 7.26367 -2.964694
vt 7.214457 -2.964694
vt -5.922627 -1.068506
vt 7.214457 2.292366
vt 7.26367 -2.993996
vt -5.922627 -1.127749
vt 7.26367 0.925089
vt 7.214457 0.895787
vt 7.26367 0.895787
vt 7.214457 -1.757843
vt 7.26367 -1.728032
vt 7.214457 -1.728032
vt -5.925981 -1.098128
vt 7.214457 0.925089
vt 7.26367 -1.757843
vt 7.26367 -0.424469
vt 7.214457 -0.45428
vt 7.26367 -0.45428
vt 7.214457 -0.424469
vn 1 0 0
vn 0.874865304612842 -0.17416306064054043 -0.4519711573684749
vn 0.8932828780159783 0 -0.4494949386183238
vn 0.9807549023786041 -0.1952429805661004 0
vn -0.8932828780159783 0 0.4494949386183238
vn -0.874865304612842 0.17416306064054043 0.4519711573684749
vn -1 0 0
vn -0.9807549023786041 0.1952429805661004 0
vn 0.874865304612842 0.17416306064054043 -0.4519711573684749
vn -0.874865304612842 -0.17416306064054043 0.4519711573684749
vn 0.8162567897245236 -0.35020890978286945 -0.4594328816457403
vn -0.8162567897245236 0.35020890978286945 0.4594328816457403
vn 0.9807549023786041 0.1952429805661004 0
vn -0.9807549023786041 -0.1952429805661004 0
vn 0.9189881813306303 -0.3942850777985649 0
vn -0.9189881813306303 0.3942850777985649 0
vn 0.8162567897245236 0.35020890978286945 -0.4594328816457403
vn -0.8162567897245236 -0.35020890978286945 0.4594328816457403
vn 0.9189881813306303 0.3942850777985649 0
vn -0.9189881813306303 -0.3942850777985649 0
vn 0.7076690975656377 -0.5260700725287599 -0.4716510650260652
vn -0.7076690975656377 0.5260700725287599 0.4716510650260652
vn 0.802541819837407 -0.5965958660702091 0
vn -0.802541819837407 0.5965958660702091 0
vn 0.7076690975656377 0.5260700725287599 -0.4716510650260652
vn -0.7076690975656377 -0.5260700725287599 0.4716510650260652
vn 0.5355868832651024 -0.6898888496339124 -0.4870318938480011
vn -0.5355868832651024 0.6898888496339124 0.4870318938480011
vn 0.802541819837407 0.5965958660702091 0
vn -0.802541819837407 -0.5965958660702091 0
vn 0.6132319278738111 -0.7899029070943901 0
vn -0.6132319278738111 0.7899029070943901 0
vn 0.5355868832651024 0.6898888496339124 -0.4870318938480011
vn -0.5355868832651024 -0.6898888496339124 0.4870318938480011
vn 0.6132319278738111 0.7899029070943901 0
vn -0.6132319278738111 -0.7899029070943901 0
vn 0.2932571331277715 -0.8142013696169731 -0.5010752274694146
vn -0.2932571331277715 0.8142013696169731 0.5010752274694146
vn 0.3388670916220494 -0.9408342543804479 0
vn -0.3388670916220494 0.9408342543804479 0
vn 0.2932571331277715 0.8142013696169731 -0.5010752274694146
vn -0.2932571331277715 -0.8142013696169731 0.5010752274694146
vn 0.3388670916220494 0.9408342543804479 0
vn -0.3388670916220494 -0.9408342543804479 0
vn 0 -0.8619594326132379 -0.5069772544494129
vn 0 0.8619594326132379 0.5069772544494129
vn 0 -1 0
vn 0 1 0
vn 0 0.8619594326132379 -0.5069772544494129
vn 0 -0.8619594326132379 0.5069772544494129
vn -0.2932571331277715 -0.8142013696169731 -0.5010752274694146
vn 0.2932571331277715 0.8142013696169731 0.5010752274694146
vn -0.2932571331277715 0.8142013696169731 -0.5010752274694146
vn 0.2932571331277715 -0.8142013696169731 0.5010752274694146
vn -0.5355868832651024 -0.6898888496339124 -0.4870318938480011
vn 0.5355868832651024 0.6898888496339124 0.4870318938480011
vn -0.5355868832651024 0.6898888496339124 -0.4870318938480011
vn 0.5355868832651024 -0.6898888496339124 0.4870318938480011
vn -0.7076690975656377 -0.5260700725287599 -0.4716510650260652
vn 0.7076690975656377 0.5260700725287599 0.4716510650260652
vn -0.7076690975656377 0.5260700725287599 -0.4716510650260652
vn 0.7076690975656377 -0.5260700725287599 0.4716510650260652
vn -0.8162567897245236 -0.35020890978286945 -0.4594328816457403
vn 0.8162567897245236 0.35020890978286945 0.4594328816457403
vn -0.8162567897245236 0.35020890978286945 -0.4594328816457403
vn 0.8162567897245236 -0.35020890978286945 0.4594328816457403
vn -0.874865304612842 -0.17416306064054043 -0.4519711573684749
vn 0.874865304612842 0.17416306064054043 0.4519711573684749
vn -0.874865304612842 0.17416306064054043 -0.4519711573684749
vn 0.874865304612842 -0.17416306064054043 0.4519711573684749
vn -0.8932828780159783 0 -0.4494949386183238
vn 0.8932828780159783 0 0.4494949386183238
usemtl material_0_0
f 1/1/1 2/2/2 3/3/3
f 2/2/2 1/1/1 4/4/4
f 3/3/5 2/2/6 1/1/7
f 4/4/8 1/1/7 2/2/6
f 2/5/2 5/6/9 3/7/3
f 3/7/5 5/6/10 2/5/6
f 5/8/9 1/9/1 3/10/3
f 3/10/5 1/9/7 5/8/10
f 4/11/4 6/12/11 2/13/2
f 2/13/6 6/12/12 4/11/8
f 5/6/9 2/5/2 6/14/11
f 6/14/12 2/5/6 5/6/10
f 1/9/1 5/8/9 7/15/13
f 7/15/14 5/8/10 1/9/7
f 6/12/11 4/11/4 8/16/15
f 8/16/16 4/11/8 6/12/12
f 5/6/9 6/14/11 9/17/17
f 9/17/18 6/14/12 5/6/10
f 5/18/9 10/19/19 7/20/13
f 7/20/14 10/19/20 5/18/10
f 8/21/15 11/22/21 6/23/11
f 6/23/12 11/22/22 8/21/16
f 9/17/17 6/14/11 11/24/21
f 11/24/22 6/14/12 9/17/18
f 10/19/19 5/18/9 9/25/17
f 9/25/18 5/18/10 10/19/20
f 11/22/21 8/21/15 12/26/23
f 12/26/24 8/21/16 11/22/22
f 9/17/17 11/24/21 13/27/25
f 13/27/26 11/24/22 9/17/18
f 13/28/25 10/29/19 9/30/17
f 9/30/18 10/29/20 13/28/26
f 12/31/23 14/32/27 11/33/21
f 11/33/22 14/32/28 12/31/24
f 13/27/25 11/24/21 14/34/27
f 14/34/28 11/24/22 13/27/26
f 10/29/19 13/28/25 15/35/29
f 15/35/30 13/28/26 10/29/20
f 14/32/27 12/31/23 16/36/31
f 16/36/32 12/31/24 14/32/28
f 13/27/25 14/34/27 17/37/33
f 17/37/34 14/34/28 13/27/26
f 13/38/25 18/39/35 15/40/29
f 15/40/30 18/39/36 13/38/26
f 16/41/31 19/42/37 14/43/27
f 14/43/28 19/42/38 16/41/32
f 17/37/33 14/34/27 19/44/37
f 19/44/38 14/34/28 17/37/34
f 18/39/35 13/38/25 17/45/33
f 17/45/34 13/38/26 18/39/36
f 19/42/37 16/41/31 20/46/39
f 20/46/40 16/41/32 19/42/38
f 17/37/33 19/44/37 21/47/41
f 21/47/42 19/44/38 17/37/34
f 17/48/33 22/49/43 18/50/35
f 18/50/36 22/49/44 17/48/34
f 20/51/39 23/52/45 19/53/37
f 19/53/38 23/52/46 20/51/40
f 21/47/41 19/44/37 23/54/45
f 23/54/46 19/44/38 21/47/42
f 22/49/43 17/48/33 21/55/41
f 21/55/42 17/48/34 22/49/44
f 23/52/45 20/51/39 24/56/47
f 24/56/48 20/51/40 23/52/46
f 21/47/41 23/54/45 25/57/49
f 25/57/50 23/54/46 21/47/42
f 21/58/41 26/59/48 22/60/43
f 22/60/44 26/59/47 21/58/42
f 24/61/47 27/62/51 23/63/45
f 23/63/46 27/62/52 24/61/48
f 25/57/49 23/54/45 27/64/51
f 27/64/52 23/54/46 25/57/50
f 26/59/48 21/58/41 25/65/49
f 25/65/50 21/58/42 26/59/47
f 27/62/51 24/61/47 28/66/44
f 28/66/43 24/61/48 27/62/52
f 25/57/49 27/64/51 29/67/53
f 29/67/54 27/64/52 25/57/50
f 25/68/49 30/69/40 26/70/48
f 26/70/47 30/69/39 25/68/50
f 28/71/44 31/72/55 27/73/51
f 27/73/52 31/72/56 28/71/43
f 29/67/53 27/64/51 31/74/55
f 31/74/56 27/64/52 29/67/54
f 30/69/40 25/68/49 29/75/53
f 29/75/54 25/68/50 30/69/39
f 31/72/55 28/71/44 32/76/36
f 32/76/35 28/71/43 31/72/56
f 29/67/53 31/74/55 33/77/57
f 33/77/58 31/74/56 29/67/54
f 29/78/53 34/79/32 30/80/40
f 30/80/39 34/79/31 29/78/54
f 32/81/36 35/82/59 31/83/55
f 31/83/56 35/82/60 32/81/35
f 33/77/57 31/74/55 35/84/59
f 35/84/60 31/74/56 33/77/58
f 34/79/32 29/78/53 33/85/57
f 33/85/58 29/78/54 34/79/31
f 35/82/59 32/81/36 36/86/30
f 36/86/29 32/81/35 35/82/60
f 33/77/57 35/84/59 37/87/61
f 37/87/62 35/84/60 33/77/58
f 33/88/57 38/89/24 34/90/32
f 34/90/31 38/89/23 33/88/58
f 39/91/20 35/92/59 36/93/30
f 36/93/29 35/92/60 39/91/19
f 37/87/61 35/84/59 40/94/63
f 40/94/64 35/84/60 37/87/62
f 38/89/24 33/88/57 37/95/61
f 37/95/62 33/88/58 38/89/23
f 35/92/59 39/91/20 40/96/63
f 40/96/64 39/91/19 35/92/60
f 37/87/61 40/94/63 41/97/65
f 41/97/66 40/94/64 37/87/62
f 41/98/65 38/99/24 37/100/61
f 37/100/62 38/99/23 41/98/66
f 42/101/14 40/102/63 39/103/20
f 39/103/19 40/102/64 42/101/13
f 41/97/65 40/94/63 43/104/67
f 43/104/68 40/94/64 41/97/66
f 38/99/24 41/98/65 44/105/16
f 44/105/15 41/98/66 38/99/23
f 40/102/63 42/101/14 43/106/67
f 43/106/68 42/101/13 40/102/64
f 41/97/65 43/104/67 45/107/69
f 45/107/70 43/104/68 41/97/66
f 45/108/69 44/109/16 41/110/65
f 41/110/66 44/109/15 45/108/70
f 46/111/7 43/112/67 42/113/14
f 42/113/13 43/112/68 46/111/1
f 45/107/69 43/104/67 47/114/71
f 47/114/72 43/104/68 45/107/70
f 44/109/16 45/108/69 48/115/8
f 48/115/4 45/108/70 44/109/15
f 43/112/67 46/111/7 47/116/71
f 47/116/72 46/111/1 43/112/68
f 47/117/71 48/118/8 45/119/69
f 45/119/70 48/118/4 47/117/72
f 48/118/8 47/117/71 46/120/7
f 46/120/1 47/117/72 48/118/4
