# SSTK version 0.8.0
# 31
mtllib original-31.mtl
o mesh46/mesh46-geometry#mesh46-geometry
v -0.534159 -0.046239 0.233073
v -0.534159 -0.046239 0.229376
v -0.534159 -0.046483 0.231224
v -0.534159 -0.045526 0.234796
v -0.531522 -0.046483 0.231224
v -0.531522 -0.046239 0.233073
v -0.531522 -0.045526 0.234796
v -0.534159 -0.045526 0.227653
v -0.531522 -0.046239 0.229376
v -0.531522 -0.044391 0.236275
v -0.534159 -0.044391 0.236275
v -0.534159 -0.044391 0.226174
v -0.531522 -0.045526 0.227653
v -0.534159 -0.042911 0.237410
v -0.534159 -0.042911 0.225040
v -0.531522 -0.042911 0.237410
v -0.531522 -0.042911 0.225040
v -0.531522 -0.044391 0.226174
v -0.534159 -0.041189 0.238123
v -0.534159 -0.041189 0.224326
v -0.531522 -0.041189 0.224326
v -0.531522 -0.041189 0.238123
v -0.534159 -0.039340 0.238367
v -0.531522 -0.039340 0.224082
v -0.531522 -0.039340 0.238367
v -0.534159 -0.039340 0.224082
v -0.534159 -0.037492 0.238123
v -0.531522 -0.037492 0.224326
v -0.531522 -0.037492 0.238123
v -0.534159 -0.037492 0.224326
v -0.534159 -0.035769 0.237410
v -0.531522 -0.035769 0.225040
v -0.531522 -0.035769 0.237410
v -0.534159 -0.035769 0.225040
v -0.534159 -0.034290 0.236275
v -0.534159 -0.034290 0.226174
v -0.531522 -0.034290 0.226174
v -0.531522 -0.034290 0.236275
v -0.531522 -0.033156 0.234796
v -0.534159 -0.033156 0.234796
v -0.534159 -0.033156 0.227653
v -0.531522 -0.033156 0.227653
v -0.531522 -0.032442 0.233073
v -0.534159 -0.032442 0.233073
v -0.534159 -0.032442 0.229376
v -0.531522 -0.032442 0.229376
v -0.531522 -0.032199 0.231224
v -0.534159 -0.032199 0.231224
vt 4.689339 2.853083
vt 4.646453 2.853083
vt 4.667896 2.850824
vt 4.709321 2.859704
vt -40.039549 -4.539304
vt -40.070137 -4.556607
vt -40.039549 -4.556607
vt 37.7025 4.701775
vt 37.733088 4.719077
vt 37.7025 4.719077
vt 37.7025 5.208737
vt 37.733088 5.22604
vt 37.7025 5.22604
vt 4.626471 2.859704
vt -40.070137 -4.539304
vt 37.733088 4.701775
vt 37.733088 5.208737
vt 37.733088 5.35397
vt 37.7025 5.336667
vt 37.733088 5.336667
vt 4.72648 2.870237
vt -40.039549 -3.401399
vt -40.070137 -3.418701
vt -40.039549 -3.418701
vt 37.7025 5.35397
vt 4.609312 2.870237
vt -40.070137 -3.401399
vt 37.733088 5.076846
vt 37.7025 5.094149
vt 37.7025 5.076846
vt 4.596145 2.883964
vt -40.039549 -2.05458
vt -40.070137 -2.071882
vt -40.039549 -2.071882
vt 37.733088 5.094149
vt 4.739647 2.883964
vt -40.070137 -0.590631
vt -40.039549 -0.607934
vt -40.039549 -0.590631
vt -40.070137 -2.05458
vt 37.733088 4.44698
vt 37.7025 4.464283
vt 37.7025 4.44698
vt 4.587868 2.89995
vt -40.070137 -0.607934
vt -40.039549 0.873378
vt -40.070137 0.890681
vt -40.070137 0.873378
vt 37.733088 4.464283
vt 4.747923 2.89995
vt -40.039549 0.890681
vt 37.733088 3.489994
vt 37.7025 3.507297
vt 37.7025 3.489994
vt 4.750747 2.917105
vt -40.039549 2.271105
vt -40.070137 2.288408
vt -40.070137 2.271105
vt 37.733088 3.507297
vt 4.585045 2.917105
vt -40.039549 2.288408
vt 37.733088 2.271105
vt 37.7025 2.288408
vt 37.7025 2.271105
vt 4.747923 2.934259
vt -40.039549 3.489994
vt -40.070137 3.507297
vt -40.070137 3.489994
vt 37.733088 2.288408
vt 4.587868 2.934259
vt -40.039549 3.507297
vt 37.733088 0.873378
vt 37.7025 0.890681
vt 37.7025 0.873378
vt 4.739647 2.950245
vt -40.039549 4.44698
vt -40.070137 4.464283
vt -40.070137 4.44698
vt 37.733088 0.890681
vt 4.596145 2.950245
vt -40.039549 4.464283
vt 37.733088 -0.607934
vt 37.7025 -0.590631
vt 37.7025 -0.607934
vt 4.609312 2.963972
vt -40.039549 5.076846
vt -40.070137 5.094149
vt -40.070137 5.076846
vt 37.733088 -0.590631
vt 4.72648 2.963972
vt -40.039549 5.094149
vt 37.733088 -2.05458
vt 37.7025 -2.071882
vt 37.733088 -2.071882
vt 4.709321 2.974505
vt -40.039549 5.35397
vt -40.070137 5.336667
vt -40.039549 5.336667
vt 37.7025 -2.05458
vt 4.626471 2.974505
vt -40.070137 5.35397
vt 37.733088 -3.401399
vt 37.7025 -3.418701
vt 37.733088 -3.418701
vt 4.689339 2.981127
vt -40.039549 5.22604
vt -40.070137 5.208737
vt -40.039549 5.208737
vt 37.7025 -3.401399
vt 4.646453 2.981127
vt -40.070137 5.22604
vt 37.733088 -4.539304
vt 37.7025 -4.556607
vt 37.733088 -4.556607
vt 4.667896 2.983385
vt -40.039549 4.719077
vt -40.070137 4.701775
vt -40.039549 4.701775
vt 37.7025 -4.539304
vt -40.070137 4.719077
vn -0.45218596421829993 -0.8789319304496797 0.15167898799756632
vn -0.45218596421829993 -0.8789319304496797 -0.15167898799756632
vn -0.449188903269426 -0.8934368076028714 0
vn -0.4615390382682801 -0.8314510689393524 0.3093070256460384
vn 0.449188903269426 0.8934368076028714 0
vn 0.45218596421829993 0.8789319304496797 0.15167898799756632
vn 0.45218596421829993 0.8789319304496797 -0.15167898799756632
vn 0.4615390382682801 0.8314510689393524 -0.3093070256460384
vn 0 -1 0
vn 0 1 0
vn 0 -0.9854340533514012 0.17005800920694086
vn 0 0.9854340533514012 -0.17005800920694086
vn 0 -0.9372478133002542 0.34866393054615197
vn 0 0.9372478133002542 -0.34866393054615197
vn -0.4615390382682801 -0.8314510689393524 -0.3093070256460384
vn 0.4615390382682801 0.8314510689393524 0.3093070256460384
vn 0 -0.9854340533514012 -0.17005800920694086
vn 0 0.9854340533514012 0.17005800920694086
vn 0 -0.8404315523240825 0.541917711334602
vn 0 0.8404315523240825 -0.541917711334602
vn -0.47797606558883615 -0.7382121012989479 0.47600606531850875
vn 0.47797606558883615 0.7382121012989479 -0.47600606531850875
vn -0.47797606558883615 -0.7382121012989479 -0.47600606531850875
vn 0.47797606558883615 0.7382121012989479 0.47600606531850875
vn 0 -0.9372478133002542 -0.34866393054615197
vn 0 0.9372478133002542 0.34866393054615197
vn -0.5009097614956306 -0.5770517252412144 0.6450586928602146
vn 0.5009097614956306 0.5770517252412144 -0.6450586928602146
vn -0.5009097614956306 -0.5770517252412144 -0.6450586928602146
vn 0.5009097614956306 0.5770517252412144 0.6450586928602146
vn 0 -0.6667270120900943 0.7453020135149342
vn 0 0.6667270120900943 -0.7453020135149342
vn 0 -0.6667270120900943 -0.7453020135149342
vn 0 0.6667270120900943 0.7453020135149342
vn 0 -0.8404315523240825 -0.541917711334602
vn 0 0.8404315523240825 0.541917711334602
vn -0.524394003526812 -0.3262630021942819 0.7864880052895251
vn 0.524394003526812 0.3262630021942819 -0.7864880052895251
vn -0.524394003526812 -0.3262630021942819 -0.7864880052895251
vn 0.524394003526812 0.3262630021942819 0.7864880052895251
vn 0 -0.38317406375020696 -0.9236761536757091
vn 0 0.38317406375020696 0.9236761536757091
vn 0 -0.38317406375020696 0.9236761536757091
vn 0 0.38317406375020696 -0.9236761536757091
vn -0.5350961169460718 0 0.8447911846304008
vn 0.5350961169460718 0 -0.8447911846304008
vn 0 0 -1
vn 0 0 1
vn -0.5350961169460718 0 -0.8447911846304008
vn 0.5350961169460718 0 0.8447911846304008
vn -0.524394003526812 0.3262630021942819 0.7864880052895251
vn 0.524394003526812 -0.3262630021942819 -0.7864880052895251
vn -0.524394003526812 0.3262630021942819 -0.7864880052895251
vn 0.524394003526812 -0.3262630021942819 0.7864880052895251
vn -0.5009097614956306 0.5770517252412144 0.6450586928602146
vn 0.5009097614956306 -0.5770517252412144 -0.6450586928602146
vn -0.5009097614956306 0.5770517252412144 -0.6450586928602146
vn 0.5009097614956306 -0.5770517252412144 0.6450586928602146
vn -0.47797606558883615 0.7382121012989479 0.47600606531850875
vn 0.47797606558883615 -0.7382121012989479 -0.47600606531850875
vn -0.47797606558883615 0.7382121012989479 -0.47600606531850875
vn 0.47797606558883615 -0.7382121012989479 0.47600606531850875
vn -0.4615390382682801 0.8314510689393524 0.3093070256460384
vn 0.4615390382682801 -0.8314510689393524 -0.3093070256460384
vn -0.4615390382682801 0.8314510689393524 -0.3093070256460384
vn 0.4615390382682801 -0.8314510689393524 0.3093070256460384
vn -0.45218596421829993 0.8789319304496797 0.15167898799756632
vn 0.45218596421829993 -0.8789319304496797 -0.15167898799756632
vn -0.45218596421829993 0.8789319304496797 -0.15167898799756632
vn 0.45218596421829993 -0.8789319304496797 0.15167898799756632
vn -0.449188903269426 0.8934368076028714 0
vn 0.449188903269426 -0.8934368076028714 0
usemtl material_0_0
f 1/1/1 2/2/2 3/3/3
f 2/2/2 1/1/1 4/4/4
f 3/3/5 2/2/6 1/1/7
f 4/4/8 1/1/7 2/2/6
f 2/5/2 5/6/9 3/7/3
f 3/7/5 5/6/10 2/5/6
f 3/8/3 6/9/11 1/10/1
f 1/10/7 6/9/12 3/8/5
f 1/11/1 7/12/13 4/13/4
f 4/13/8 7/12/14 1/11/7
f 2/2/2 4/4/4 8/14/15
f 8/14/16 4/4/8 2/2/6
f 5/6/9 2/5/2 9/15/17
f 9/15/18 2/5/6 5/6/10
f 6/9/11 3/8/3 5/16/9
f 5/16/10 3/8/5 6/9/12
f 7/12/13 1/11/1 6/17/11
f 6/17/12 1/11/7 7/12/14
f 10/18/19 4/19/4 7/20/13
f 7/20/14 4/19/8 10/18/20
f 8/14/15 4/4/4 11/21/21
f 11/21/22 4/4/8 8/14/16
f 8/22/15 9/23/17 2/24/2
f 2/24/6 9/23/18 8/22/16
f 4/19/4 10/18/19 11/25/21
f 11/25/22 10/18/20 4/19/8
f 8/14/15 11/21/21 12/26/23
f 12/26/24 11/21/22 8/14/16
f 9/23/17 8/22/15 13/27/25
f 13/27/26 8/22/16 9/23/18
f 10/28/19 14/29/27 11/30/21
f 11/30/22 14/29/28 10/28/20
f 12/26/23 11/21/21 15/31/29
f 15/31/30 11/21/22 12/26/24
f 12/32/23 13/33/25 8/34/15
f 8/34/16 13/33/26 12/32/24
f 14/29/27 10/28/19 16/35/31
f 16/35/32 10/28/20 14/29/28
f 15/31/29 11/21/21 14/36/27
f 14/36/28 11/21/22 15/31/30
f 17/37/33 12/38/23 15/39/29
f 15/39/30 12/38/24 17/37/34
f 13/33/25 12/32/23 18/40/35
f 18/40/36 12/32/24 13/33/26
f 16/41/31 19/42/37 14/43/27
f 14/43/28 19/42/38 16/41/32
f 15/31/29 14/36/27 20/44/39
f 20/44/40 14/36/28 15/31/30
f 12/38/23 17/37/33 18/45/35
f 18/45/36 17/37/34 12/38/24
f 15/46/29 21/47/41 17/48/33
f 17/48/34 21/47/42 15/46/30
f 19/42/37 16/41/31 22/49/43
f 22/49/44 16/41/32 19/42/38
f 20/44/39 14/36/27 19/50/37
f 19/50/38 14/36/28 20/44/40
f 21/47/41 15/46/29 20/51/39
f 20/51/40 15/46/30 21/47/42
f 22/52/43 23/53/45 19/54/37
f 19/54/38 23/53/46 22/52/44
f 20/44/39 19/50/37 23/55/45
f 23/55/46 19/50/38 20/44/40
f 20/56/39 24/57/47 21/58/41
f 21/58/42 24/57/48 20/56/40
f 23/53/45 22/52/43 25/59/48
f 25/59/47 22/52/44 23/53/46
f 20/44/39 23/55/45 26/60/49
f 26/60/50 23/55/46 20/44/40
f 24/57/47 20/56/39 26/61/49
f 26/61/50 20/56/40 24/57/48
f 25/62/48 27/63/51 23/64/45
f 23/64/46 27/63/52 25/62/47
f 26/60/49 23/55/45 27/65/51
f 27/65/52 23/55/46 26/60/50
f 26/66/49 28/67/44 24/68/47
f 24/68/48 28/67/43 26/66/50
f 27/63/51 25/62/48 29/69/42
f 29/69/41 25/62/47 27/63/52
f 26/60/49 27/65/51 30/70/53
f 30/70/54 27/65/52 26/60/50
f 28/67/44 26/66/49 30/71/53
f 30/71/54 26/66/50 28/67/43
f 29/72/42 31/73/55 27/74/51
f 27/74/52 31/73/56 29/72/41
f 30/70/53 27/65/51 31/75/55
f 31/75/56 27/65/52 30/70/54
f 30/76/53 32/77/32 28/78/44
f 28/78/43 32/77/31 30/76/54
f 31/73/55 29/72/42 33/79/34
f 33/79/33 29/72/41 31/73/56
f 30/70/53 31/75/55 34/80/57
f 34/80/58 31/75/56 30/70/54
f 32/77/32 30/76/53 34/81/57
f 34/81/58 30/76/54 32/77/31
f 33/82/34 35/83/59 31/84/55
f 31/84/56 35/83/60 33/82/33
f 34/80/57 31/75/55 36/85/61
f 36/85/62 31/75/56 34/80/58
f 34/86/57 37/87/20 32/88/32
f 32/88/31 37/87/19 34/86/58
f 35/83/59 33/82/34 38/89/36
f 38/89/35 33/82/33 35/83/60
f 36/85/61 31/75/55 35/90/59
f 35/90/60 31/75/56 36/85/62
f 37/87/20 34/86/57 36/91/61
f 36/91/62 34/86/58 37/87/19
f 39/92/26 35/93/59 38/94/36
f 38/94/35 35/93/60 39/92/25
f 36/85/61 35/90/59 40/95/63
f 40/95/64 35/90/60 36/85/62
f 41/96/65 37/97/20 36/98/61
f 36/98/62 37/97/19 41/96/66
f 35/93/59 39/92/26 40/99/63
f 40/99/64 39/92/25 35/93/60
f 36/85/61 40/95/63 41/100/65
f 41/100/66 40/95/64 36/85/62
f 37/97/20 41/96/65 42/101/14
f 42/101/13 41/96/66 37/97/19
f 43/102/18 40/103/63 39/104/26
f 39/104/25 40/103/64 43/102/17
f 41/100/65 40/95/63 44/105/67
f 44/105/68 40/95/64 41/100/66
f 45/106/69 42/107/14 41/108/65
f 41/108/66 42/107/13 45/106/70
f 40/103/63 43/102/18 44/109/67
f 44/109/68 43/102/17 40/103/64
f 41/100/65 44/105/67 45/110/69
f 45/110/70 44/105/68 41/100/66
f 42/107/14 45/106/69 46/111/12
f 46/111/11 45/106/70 42/107/13
f 47/112/10 44/113/67 43/114/18
f 43/114/17 44/113/68 47/112/9
f 45/110/69 44/105/67 48/115/71
f 48/115/72 44/105/68 45/110/70
f 48/116/71 46/117/12 45/118/69
f 45/118/70 46/117/11 48/116/72
f 44/113/67 47/112/10 48/119/71
f 48/119/72 47/112/9 44/113/68
f 46/117/12 48/116/71 47/120/10
f 47/120/9 48/116/72 46/117/11
