# SSTK version 0.8.0
# 70
mtllib original-70.mtl
o mesh83/mesh83-geometry#mesh83-geometry
v -0.317139 0.109875 -0.301401
v -0.317139 0.107679 -0.303087
v -0.269306 0.109875 -0.301401
v -0.317139 0.106493 -0.309269
v -0.269306 0.107679 -0.303087
v -0.269306 0.111561 -0.299205
v -0.317139 0.110330 -0.307679
v -0.317139 0.105120 -0.304147
v -0.269306 0.106493 -0.309269
v -0.269306 0.110330 -0.307679
v -0.317139 0.111561 -0.299205
v -0.317139 0.102376 -0.309811
v -0.269306 0.105120 -0.304147
v -0.269306 0.112620 -0.296647
v -0.317139 0.112620 -0.296647
v -0.269306 0.102376 -0.309811
v -0.317139 0.102376 -0.304508
v -0.269306 0.113625 -0.305151
v -0.317139 0.113625 -0.305151
v -0.317139 0.099631 -0.304147
v -0.269306 0.098258 -0.309269
v -0.269306 0.102376 -0.304508
v -0.269306 0.112981 -0.293902
v -0.317139 0.112981 -0.293902
v -0.317139 0.098258 -0.309269
v -0.269306 0.099631 -0.304147
v -0.269306 0.116153 -0.301856
v -0.269306 0.113625 -0.282653
v -0.317139 0.113625 -0.282653
v -0.317139 0.097073 -0.303087
v -0.269306 0.097073 -0.303087
v -0.269306 0.094421 -0.307679
v -0.317139 0.116153 -0.301856
v -0.269306 0.112620 -0.291157
v -0.317139 0.112620 -0.291157
v -0.317139 0.094421 -0.307679
v -0.269306 0.117742 -0.298020
v -0.269306 0.116153 -0.285948
v -0.269306 0.110330 -0.280125
v -0.317139 0.110330 -0.280125
v -0.317139 0.116153 -0.285948
v -0.317139 0.094876 -0.301401
v -0.269306 0.094876 -0.301401
v -0.269306 0.091127 -0.305151
v -0.317139 0.117742 -0.298020
v -0.269306 0.111561 -0.288599
v -0.317139 0.111561 -0.288599
v -0.317139 0.093191 -0.299205
v -0.269306 0.093191 -0.299205
v -0.317139 0.091127 -0.305151
v -0.269306 0.118284 -0.293902
v -0.269306 0.117742 -0.289784
v -0.317139 0.117742 -0.289784
v -0.269306 0.109875 -0.286403
v -0.317139 0.106493 -0.278535
v -0.317139 0.109875 -0.286403
v -0.269306 0.092131 -0.296647
v -0.269306 0.088598 -0.301856
v -0.317139 0.118284 -0.293902
v -0.269306 0.106493 -0.278535
v -0.317139 0.092131 -0.296647
v -0.269306 0.091770 -0.293902
v -0.269306 0.089691 -0.284523
v -0.317139 0.088598 -0.301856
v -0.269306 0.107679 -0.284717
v -0.317139 0.107679 -0.284717
v -0.317139 0.102376 -0.277993
v -0.317139 0.091770 -0.293902
v -0.269306 0.088598 -0.285948
v -0.317139 0.089691 -0.284523
v -0.269306 0.087009 -0.298020
v -0.269306 0.105120 -0.283658
v -0.317139 0.105120 -0.283658
v -0.269306 0.102376 -0.277993
v -0.269306 0.092131 -0.291157
v -0.269306 0.087009 -0.289784
v -0.317139 0.088598 -0.285948
v -0.317139 0.087009 -0.298020
v -0.317139 0.102376 -0.283296
v -0.317139 0.090179 -0.277993
v -0.317139 0.092131 -0.291157
v -0.269306 0.093191 -0.288599
v -0.317139 0.087009 -0.289784
v -0.269306 0.086467 -0.293902
v -0.269306 0.102376 -0.283296
v -0.269306 -0.084457 -0.277993
v -0.317139 0.093191 -0.288599
v -0.269306 0.094876 -0.286403
v -0.317139 0.086467 -0.293902
v -0.269306 0.095975 -0.285560
v -0.317139 0.088985 -0.283296
v -0.269306 -0.084457 -0.283296
v -0.364972 -0.084457 -0.277993
v -0.317139 0.094876 -0.286403
v -0.317139 0.095975 -0.285560
v -0.364972 0.088985 -0.283296
v -0.364972 0.090179 -0.277993
v -0.364972 -0.084457 -0.283296
vt -0.668587 -36.790915
vt -0.664769 -36.790915
vt -0.668587 -36.924238
vt 0.034357 -0.133323
vt 0.022318 0
vt 0.034357 0
vt 0.079983 0.023656
vt 0.080971 0.027343
vt 0.072734 0.018884
vt -0.664769 -36.924238
vt 0.022318 -0.133323
vt -0.656548 -36.924238
vt 0.018501 0
vt 0.030539 -0.133323
vt 0.018501 -0.133323
vt 0.072734 0.02461
vt 0.079983 0.019838
vt 0.079983 0.109667
vt 0.072734 0.114439
vt 0.080971 0.10598
vt -0.676808 -36.790915
vt -0.686256 -36.924238
vt -0.682438 -36.790915
vt -0.686256 -36.790915
vt 0.072734 0.108713
vt 0.08288 0.102674
vt -0.656548 -36.790915
vt 0.030539 0
vt 0.08288 0.030649
vt 0.062988 0
vt 0.081045 0
vt 0.062988 0.133323
vt 0.074216 0.013353
vt 0.079983 0.113484
vt -0.676808 -36.924238
vt -0.682438 -36.924238
vt 0.085579 0.099974
vt -0.484605 -36.924238
vt -0.488423 -36.924238
vt -0.484605 -36.790915
vt 0.014684 0
vt 0.026722 -0.133323
vt 0.014684 -0.133323
vt 0.085579 0.033349
vt 0.081045 0.133323
vt 0.086771 0.133323
vt 0.068714 0.133323
vt 0.086771 0
vt 0.080971 0.016151
vt 0.068714 0
vt 0.074216 0.11997
vt -0.558791 -36.790915
vt -0.570829 -36.790915
vt -0.558791 -36.924238
vt 0.041992 -0.133323
vt 0.029953 0
vt 0.041992 0
vt 0.074216 0.103182
vt -0.488423 -36.790915
vt 0.026722 0
vt 0.074216 0.030141
vt 0.057261 0
vt 0.075319 0
vt 0.057261 0.133323
vt 0.08288 0.012845
vt 0.092497 0.133323
vt 0.07444 0.133323
vt 0.092497 0
vt 0.080971 0.117172
vt -0.570829 -36.924238
vt 0.029953 -0.133323
vt 0.075319 0.133323
vt 0.088885 0.098066
vt -0.476384 -36.924238
vt 0.010866 0
vt 0.022905 -0.133323
vt 0.010866 -0.133323
vt 0.088885 0.035257
vt -0.567012 -36.790915
vt 0.045809 -0.133323
vt 0.033771 0
vt 0.045809 0
vt 0.077079 0.008394
vt 0.077079 0.124929
vt 0.08288 0.120478
vt 0.07444 0
vt 0.051535 0.133323
vt 0.051535 0
vt 0.069593 0.133323
vt 0.102876 0.091311
vt -0.476384 -36.790915
vt 0.022905 0
vt 0.102876 0.042012
vt -0.567012 -36.924238
vt 0.033771 -0.133323
vt 0.085579 0.010146
vt 0.085579 0.123177
vt 0.098224 0.133323
vt 0.080166 0.133323
vt 0.098224 0
vt 0.069593 0
vt 0.077079 0.098223
vt 0.092573 0.097078
vt 0.285279 0.133323
vt 0.289097 0.133323
vt 0.285279 0
vt 0.007049 0
vt 0.019087 -0.133323
vt 0.007049 -0.133323
vt 0.092573 0.036245
vt 0.077079 0.0351
vt 0 11.452396
vt 0.012038 11.452396
vt 0 11.585719
vt 0.049627 -0.133323
vt 0.037588 0
vt 0.049627 0
vt 0.081128 0.004345
vt 0.081128 0.128978
vt 0.012038 11.585719
vt 0.037588 -0.133323
vt 0.080166 0
vt 0.045809 0.133323
vt 0.063867 0.133323
vt 0.097344 0.089828
vt 0.107834 0.094174
vt 0.289097 0
vt 0.019087 0
vt 0.107834 0.039149
vt 0.097344 0.043494
vt 0.088885 0.008237
vt 0.088885 0.125086
vt -0.090159 -36.790915
vt -0.102198 -36.790915
vt -0.090159 -36.924238
vt 0.053444 -0.133323
vt 0.041406 0
vt 0.053444 0
vt 0.10395 0.133323
vt 0.085892 0.133323
vt 0.10395 0
vt 0.063867 0
vt 0.081128 0.094174
vt 0.097344 -36.924238
vt 0.097344 -36.790915
vt 0.079287 -36.924238
vt 0.09639 0.097078
vt 0.011452 0.133323
vt -0.006605 0.133323
vt 0.011452 0
vt 0.092573 0.133323
vt 0.09639 0.133323
vt 0.092573 0
vt -0.006605 0
vt 0.09639 0.036245
vt 0.079287 -36.790915
vt 0.081128 0.039149
vt 0.092573 0.007249
vt 0.092573 0.126074
vt -0.102198 -36.924238
vt 0.041406 -0.133323
vt 0.086087 0.131841
vt 0.085892 0
vt 0.040083 0.133323
vt 0.040083 0
vt 0.058141 0.133323
vt 0.091618 0.089828
vt 0.091618 -36.790915
vt 0.100077 0.098066
vt -0.012331 0
vt 0.005726 0
vt -0.012331 0.133323
vt 0.09639 0
vt 0.100077 0.035257
vt 0.091618 0.043494
vt -0.09838 -36.790915
vt -0.09838 -36.924238
vt 0.045223 -0.133323
vt 0.045223 0
vt 0.086087 0.001482
vt 0.057261 -0.133323
vt 0.09639 0.126074
vt 0.109676 0.133323
vt 0.091618 0.133323
vt 0.109676 0
vt 0.058141 0
vt 0.086087 0.091311
vt 0.091618 -36.924238
vt 0.084352 0.133323
vt 0.111883 0.098223
vt 0.111883 0.0351
vt 0.005726 0.133323
vt 0.084352 0
vt 0.086087 0.042012
vt 0.297318 -36.924238
vt 0.297318 -36.790915
vt 0.285279 -36.924238
vt 0.049041 -0.133323
vt 0.061079 0
vt 0.061079 -0.133323
vt 0.09639 0.007249
vt 0.100077 0.125086
vt 0.113121 0.122785
vt 0.091618 0
vt 0.010573 0.133323
vt 0.010573 0
vt 0.028631 0.133323
vt 0.028631 0
vt 0.103383 0.099974
vt 0.103383 0.033349
vt -0.571784 -36.790915
vt -0.566057 -36.790915
vt -0.571784 -36.924238
vt -0.285758 0.133323
vt -0.281941 0.133323
vt -0.285758 0
vt -0.004404 0
vt 0.007635 -0.133323
vt -0.004404 -0.133323
vt 0.285279 -36.790915
vt 0.049041 0
vt 0.100077 0.008237
vt 0.289097 -36.924238
vt 0.052858 -0.133323
vt 0.064896 0
vt 0.064896 -0.133323
vt 0.111883 0.124929
vt 0.113121 0.010538
vt 0.097344 0.133323
vt 0.106083 0.102674
vt 0.106083 0.030649
vt -0.281941 0
vt 0.007635 0
vt 0.114747 0.030141
vt -0.566057 -36.924238
vt 0.289097 -36.790915
vt 0.052858 0
vt 0.103383 0.123177
vt 0.107834 0.128978
vt -0.596338 -36.924238
vt -0.598813 -36.924238
vt -0.596338 -36.790915
vt 0.111883 0.008394
vt 0.097344 0
vt -0.008221 -0.133323
vt 0.003817 -0.133323
vt -0.008221 0
vt 0.114747 0.103182
vt 0.003817 0
vt 0.107992 0.027343
vt -0.619089 -36.790915
vt -0.496644 0.133323
vt -0.496644 0
vt -0.484605 0.133323
vt 0.056675 -0.133323
vt 0.068714 -0.133323
vt 0.103383 0.010146
vt 0.106083 0.120478
vt 0.13258 0.133323
vt 0.114523 0.133323
vt 0.13258 0
vt -0.598813 -36.790915
vt 0.114523 0
vt 0.107834 0.004345
vt 0.102876 0.131841
vt 0.079287 0.133323
vt 0.107992 0.10598
vt -0.570829 0.133323
vt -0.567012 0.133323
vt -0.570829 0
vt 0.121182 0.014605
vt -0.567012 0
vt -1.378422 -36.924238
vt -0.484605 0
vt 0.056675 0
vt 0.106083 0.012845
vt -0.488423 0.133323
vt 0.060493 -0.133323
vt 0.072531 0
vt 0.072531 -0.133323
vt 0.107992 0.117172
vt 0.108797 0
vt 0.126854 0
vt 0.108797 0.133323
vt 0.116996 0.133323
vt 0.089306 0.133323
vt 0.116996 0
vt 0.126854 0.133323
vt 0.102876 0.001482
vt 0.079287 0
vt 0.213328 0.341177
vt 0.115057 0.010286
vt -5.811364 -17.100165
vt -5.811364 -17.35777
vt -5.769087 -17.100165
vt -1.378422 -36.657592
vt 0.107992 0.016151
vt -0.488423 0
vt 0.060493 0
vt -0.676808 0.133323
vt -0.676808 0
vt -0.664769 0.133323
vt 0.06431 -0.133323
vt 0.076349 0
vt 0.076349 -0.133323
vt 0.108486 0.115328
vt 0.089306 0
vt 0.206573 0.343975
vt -0.402094 0
vt -0.402094 -0.133323
vt -0.409589 0
vt -5.769087 -17.118628
vt -0.619089 -36.657592
vt -5.72681 -17.334713
vt -5.72681 -17.35777
vt -5.811364 -17.334713
vt 0.108486 0.017995
vt -0.664769 0
vt 0.06431 0
vt -0.666678 0.133323
vt -0.666678 0
vt 0.074147 0
vt 0.080166 -0.133323
vt 0.074147 -0.133323
vt -5.72681 -17.118628
vt -0.409589 -0.133323
vt -0.356711 0.101587
vt -0.349578 0.099982
vn 0 -0.7071067811865476 0.7071067811865476
vn 0 -0.5000001748438417 0.8660253028382762
vn 0 0.7071067811865476 -0.7071067811865476
vn 0 0.5000001748438417 -0.8660253028382762
vn -1 0 0
vn 1 0 0
vn 0 -0.8660253028382762 0.5000001748438417
vn 0 0.8660253028382762 -0.5000001748438417
vn 0 -0.2588189595935754 0.965925849201117
vn 0 0.2588189595935754 -0.965925849201117
vn 0 -0.965925849201117 0.2588189595935754
vn 0 0.965925849201117 -0.2588189595935754
vn 0 0 -1
vn 0 0 1
vn 0 -0.2588189595935754 -0.965925849201117
vn 0 0.2588189595935754 0.965925849201117
vn 0 -1 0
vn 0 1 0
vn 0 -0.5000001748438417 -0.8660253028382762
vn 0 0.5000001748438417 0.8660253028382762
vn 0 -0.965925849201117 -0.2588189595935754
vn 0 0.965925849201117 0.2588189595935754
vn 0 0.7071067811865476 0.7071067811865476
vn 0 -0.7071067811865476 -0.7071067811865476
vn 0 0.8660253028382762 0.5000001748438417
vn 0 -0.8660253028382762 -0.5000001748438417
vn 0 0.1305259853353411 0.9914448886106773
vn 0 -0.1305259853353411 -0.9914448886106773
vn 0 -0.7933534213778813 0.6087613233345314
vn 0 0.7933534213778813 -0.6087613233345314
vn 0 0.16274892031611374 0.9866675169153686
vn 0 -0.16274892031611374 -0.9866675169153686
vn 0 0.9755890908580797 -0.21960402045205277
vn 0 -0.9755890908580797 0.21960402045205277
vn 0 0.6087613233345314 -0.7933534213778813
vn 0 -0.6087613233345314 0.7933534213778813
usemtl material_0_0
f 1/1/1 2/2/2 3/3/1
f 3/4/3 2/5/4 1/6/3
f 2/7/5 1/8/5 4/9/5
f 4/9/6 1/8/6 2/7/6
f 5/10/2 3/3/1 2/2/2
f 2/5/4 3/4/3 5/11/4
f 3/3/1 6/12/7 1/1/1
f 1/13/3 6/14/8 3/15/3
f 4/9/5 1/8/5 7/16/5
f 7/16/6 1/8/6 4/9/6
f 8/17/5 2/7/5 4/9/5
f 4/9/6 2/7/6 8/17/6
f 5/18/6 9/19/6 3/20/6
f 3/20/5 9/19/5 5/18/5
f 2/2/2 8/21/9 5/10/2
f 5/22/4 8/23/10 2/24/4
f 3/20/6 10/25/6 6/26/6
f 6/26/5 10/25/5 3/20/5
f 11/27/7 1/1/1 6/12/7
f 6/14/8 1/13/3 11/28/8
f 1/8/5 11/29/5 7/16/5
f 7/16/6 11/29/6 1/8/6
f 4/30/10 7/31/4 9/32/10
f 9/32/9 7/31/2 4/30/9
f 12/33/5 8/17/5 4/9/5
f 4/9/6 8/17/6 12/33/6
f 13/34/6 9/19/6 5/18/6
f 5/18/5 9/19/5 13/34/5
f 9/19/6 10/25/6 3/20/6
f 3/20/5 10/25/5 9/19/5
f 13/35/9 5/10/2 8/21/9
f 8/23/10 5/22/4 13/36/10
f 6/26/6 10/25/6 14/37/6
f 14/37/5 10/25/5 6/26/5
f 6/38/7 14/39/11 11/40/7
f 11/41/8 14/42/12 6/43/8
f 11/29/5 15/44/5 7/16/5
f 7/16/6 15/44/6 11/29/6
f 10/45/4 9/32/10 7/31/4
f 7/31/2 9/32/9 10/45/2
f 9/46/10 16/47/13 4/48/10
f 4/48/9 16/47/14 9/46/9
f 17/49/5 8/17/5 12/33/5
f 12/33/6 8/17/6 17/49/6
f 12/50/13 4/48/10 16/47/13
f 16/47/14 4/48/9 12/50/14
f 16/51/6 9/19/6 13/34/6
f 13/34/5 9/19/5 16/51/5
f 8/52/9 17/53/14 13/54/9
f 13/55/10 17/56/13 8/57/10
f 10/25/6 18/58/6 14/37/6
f 14/37/5 18/58/5 10/25/5
f 15/59/11 11/40/7 14/39/11
f 14/42/12 11/41/8 15/60/12
f 7/16/5 15/44/5 19/61/5
f 19/61/6 15/44/6 7/16/6
f 7/62/4 19/63/3 10/64/4
f 10/64/2 19/63/1 7/62/2
f 20/65/5 17/49/5 12/33/5
f 12/33/6 17/49/6 20/65/6
f 16/66/13 21/67/15 12/68/13
f 12/68/14 21/67/16 16/66/14
f 22/69/6 16/51/6 13/34/6
f 13/34/5 16/51/5 22/69/5
f 22/70/14 13/54/9 17/53/14
f 17/56/13 13/55/10 22/71/13
f 18/72/3 10/64/4 19/63/3
f 19/63/1 10/64/2 18/72/1
f 14/37/6 18/58/6 23/73/6
f 23/73/5 18/58/5 14/37/5
f 14/39/11 23/74/17 15/59/11
f 15/75/12 23/76/18 14/77/12
f 24/78/5 19/61/5 15/44/5
f 15/44/6 19/61/6 24/78/6
f 17/53/14 20/79/16 22/70/14
f 22/80/13 20/81/15 17/82/13
f 25/83/5 20/65/5 12/33/5
f 12/33/6 20/65/6 25/83/6
f 21/84/6 16/51/6 26/85/6
f 26/85/5 16/51/5 21/84/5
f 25/86/15 12/68/13 21/67/15
f 21/67/16 12/68/14 25/86/16
f 26/85/6 16/51/6 22/69/6
f 22/69/5 16/51/5 26/85/5
f 18/87/3 19/88/3 27/89/8
f 27/89/7 19/88/1 18/87/1
f 23/73/6 18/58/6 28/90/6
f 28/90/5 18/58/5 23/73/5
f 24/91/17 15/59/11 23/74/17
f 23/76/18 15/75/12 24/92/18
f 24/78/5 29/93/5 19/61/5
f 19/61/6 29/93/6 24/78/6
f 26/94/16 22/70/14 20/79/16
f 20/81/15 22/80/13 26/95/15
f 30/96/5 20/65/5 25/83/5
f 25/83/6 20/65/6 30/96/6
f 31/97/6 21/84/6 26/85/6
f 26/85/5 21/84/5 31/97/5
f 21/98/15 32/99/19 25/100/15
f 25/100/16 32/99/20 21/98/16
f 33/101/8 27/89/8 19/88/3
f 19/88/1 27/89/7 33/101/7
f 18/58/6 27/102/6 28/90/6
f 28/90/5 27/102/5 18/58/5
f 23/73/6 28/90/6 34/103/6
f 34/103/5 28/90/5 23/73/5
f 23/104/17 34/105/21 24/106/17
f 24/107/18 34/108/22 23/109/18
f 35/110/5 29/93/5 24/78/5
f 24/78/6 29/93/6 35/110/6
f 19/61/5 29/93/5 33/111/5
f 33/111/6 29/93/6 19/61/6
f 20/112/16 30/113/20 26/114/16
f 26/115/15 30/116/19 20/117/15
f 36/118/5 30/96/5 25/83/5
f 25/83/6 30/96/6 36/118/6
f 32/119/6 21/84/6 31/97/6
f 31/97/5 21/84/5 32/119/5
f 31/120/20 26/114/16 30/113/20
f 30/116/19 26/115/15 31/121/19
f 36/122/19 25/100/15 32/99/19
f 32/99/20 25/100/16 36/122/20
f 27/123/8 33/82/8 37/124/12
f 37/124/11 33/82/7 27/123/7
f 28/90/6 27/102/6 38/125/6
f 38/125/5 27/102/5 28/90/5
f 39/126/6 34/103/6 28/90/6
f 28/90/5 34/103/5 39/126/5
f 35/127/21 24/106/17 34/105/21
f 34/108/22 24/107/18 35/128/22
f 40/129/5 29/93/5 35/110/5
f 35/110/6 29/93/6 40/129/6
f 29/93/5 41/130/5 33/111/5
f 33/111/6 41/130/6 29/93/6
f 42/131/5 30/96/5 36/118/5
f 36/118/6 30/96/6 42/131/6
f 43/132/6 32/119/6 31/97/6
f 31/97/5 32/119/5 43/132/5
f 30/133/20 42/134/23 31/135/20
f 31/136/19 42/137/24 30/138/19
f 32/139/19 44/140/24 36/141/19
f 36/141/20 44/140/23 32/139/20
f 45/142/12 37/124/12 33/82/8
f 33/82/7 37/124/11 45/142/11
f 27/102/6 37/143/6 38/125/6
f 38/125/5 37/143/5 27/102/5
f 38/144/25 41/145/25 28/146/23
f 28/146/24 41/145/26 38/144/26
f 46/147/6 34/103/6 39/126/6
f 39/126/5 34/103/5 46/147/5
f 39/148/20 28/149/23 40/150/20
f 40/150/19 28/149/24 39/148/19
f 34/151/21 46/152/26 35/153/21
f 35/153/22 46/152/25 34/151/22
f 29/154/23 40/150/20 28/149/23
f 28/149/24 40/150/19 29/154/24
f 47/155/5 40/129/5 35/110/5
f 35/110/6 40/129/6 47/155/6
f 29/156/23 28/146/23 41/145/25
f 41/145/26 28/146/24 29/156/24
f 33/111/5 41/130/5 45/157/5
f 45/157/6 41/130/6 33/111/6
f 48/158/5 42/131/5 36/118/5
f 36/118/6 42/131/6 48/158/6
f 49/159/6 32/119/6 43/132/6
f 43/132/5 32/119/5 49/159/5
f 43/160/23 31/135/20 42/134/23
f 42/137/24 31/136/19 43/161/24
f 44/162/6 32/119/6 49/159/6
f 49/159/5 32/119/5 44/162/5
f 50/163/24 36/141/19 44/140/24
f 44/140/23 36/141/20 50/163/23
f 37/164/12 45/165/12 51/166/18
f 51/166/17 45/165/11 37/164/11
f 38/125/6 37/143/6 52/167/6
f 52/167/5 37/143/5 38/125/5
f 41/145/25 38/144/25 53/168/22
f 53/168/21 38/144/26 41/145/26
f 54/169/6 46/147/6 39/126/6
f 39/126/5 46/147/5 54/169/5
f 40/170/20 55/171/16 39/172/20
f 39/172/19 55/171/15 40/170/19
f 47/173/26 35/153/21 46/152/26
f 46/152/25 35/153/22 47/173/25
f 56/174/5 40/129/5 47/155/5
f 47/155/6 40/129/6 56/174/6
f 41/130/5 53/175/5 45/157/5
f 45/157/6 53/175/6 41/130/6
f 48/176/25 49/177/25 42/134/23
f 42/62/24 49/178/26 48/179/26
f 50/180/5 48/158/5 36/118/5
f 36/118/6 48/158/6 50/180/6
f 43/160/23 42/134/23 49/177/25
f 49/178/26 42/62/24 43/181/24
f 57/182/6 44/162/6 49/159/6
f 49/159/5 44/162/5 57/182/5
f 44/183/24 58/184/26 50/185/24
f 50/185/23 58/184/25 44/183/23
f 59/186/18 51/166/18 45/165/12
f 45/165/11 51/166/17 59/186/17
f 51/187/6 52/167/6 37/143/6
f 37/143/5 52/167/5 51/187/5
f 52/188/22 53/168/22 38/144/25
f 38/144/26 53/168/21 52/188/21
f 46/152/26 54/189/24 47/173/26
f 47/173/25 54/189/23 46/152/25
f 60/190/6 54/169/6 39/126/6
f 39/126/5 54/169/5 60/190/5
f 55/191/5 40/129/5 56/174/5
f 56/174/6 40/129/6 55/191/6
f 60/192/16 39/172/20 55/171/16
f 55/171/15 39/172/19 60/192/15
f 56/193/24 47/173/26 54/189/24
f 54/189/23 47/173/25 56/193/23
f 59/194/5 45/157/5 53/175/5
f 53/175/6 45/157/6 59/194/6
f 49/195/25 48/196/25 57/197/22
f 57/198/21 48/199/26 49/200/26
f 61/201/5 48/158/5 50/180/5
f 50/180/6 48/158/6 61/201/6
f 62/202/6 44/162/6 57/182/6
f 57/182/5 44/162/5 62/202/5
f 58/184/6 44/162/6 63/203/6
f 63/203/5 44/162/5 58/184/5
f 64/204/26 50/185/24 58/184/26
f 58/184/25 50/185/23 64/204/25
f 51/205/18 59/206/18 52/207/22
f 52/207/21 59/206/17 51/205/17
f 53/208/22 52/207/22 59/206/18
f 59/206/17 52/207/21 53/208/21
f 65/209/6 54/169/6 60/190/6
f 60/190/5 54/169/5 65/209/5
f 66/210/5 55/191/5 56/174/5
f 56/174/6 55/191/6 66/210/6
f 55/211/16 67/212/27 60/213/16
f 60/213/15 67/212/28 55/211/15
f 54/214/24 65/215/19 56/216/24
f 56/217/23 65/218/20 54/219/23
f 61/220/22 57/197/22 48/196/25
f 48/199/26 57/198/21 61/221/21
f 68/222/5 61/201/5 50/180/5
f 50/180/6 61/201/6 68/222/6
f 44/162/6 62/202/6 63/203/6
f 63/203/5 62/202/5 44/162/5
f 57/197/22 61/220/22 62/223/18
f 62/224/17 61/225/21 57/226/21
f 69/227/6 58/184/6 63/203/6
f 63/203/5 58/184/5 69/227/5
f 64/204/5 70/228/5 50/180/5
f 50/180/6 70/228/6 64/204/6
f 58/184/26 71/229/21 64/204/26
f 64/204/25 71/229/22 58/184/25
f 72/230/6 65/209/6 60/190/6
f 60/190/5 65/209/5 72/230/5
f 73/231/5 55/191/5 66/210/5
f 66/210/6 55/191/6 73/231/6
f 66/232/19 56/216/24 65/215/19
f 65/218/20 56/217/23 66/233/20
f 67/234/5 55/191/5 73/231/5
f 73/231/6 55/191/6 67/234/6
f 74/235/27 60/213/16 67/212/27
f 67/212/28 60/213/15 74/235/28
f 68/236/18 62/223/18 61/220/22
f 61/225/21 62/224/17 68/237/17
f 50/180/5 70/228/5 68/222/5
f 68/222/6 70/228/6 50/180/6
f 62/202/6 75/238/6 63/203/6
f 63/203/5 75/238/5 62/202/5
f 76/239/6 58/184/6 69/227/6
f 69/227/5 58/184/5 76/239/5
f 69/240/7 63/241/29 77/242/7
f 77/242/8 63/241/30 69/240/8
f 77/243/5 70/228/5 64/204/5
f 64/204/6 70/228/6 77/243/6
f 71/229/6 58/184/6 76/239/6
f 76/239/5 58/184/5 71/229/5
f 78/244/21 64/204/26 71/229/21
f 71/229/22 64/204/25 78/244/22
f 65/245/19 72/246/15 66/247/19
f 66/247/20 72/246/16 65/245/20
f 74/248/6 72/230/6 60/190/6
f 60/190/5 72/230/5 74/248/5
f 73/249/15 66/247/19 72/246/15
f 72/246/16 66/247/20 73/249/16
f 79/250/5 67/234/5 73/231/5
f 73/231/6 67/234/6 79/250/6
f 67/212/14 80/251/14 74/235/14
f 74/235/13 80/251/13 67/212/13
f 62/252/18 68/253/18 75/254/12
f 75/255/11 68/50/17 62/256/17
f 68/222/5 70/228/5 81/257/5
f 81/257/6 70/228/6 68/222/6
f 75/238/6 82/258/6 63/203/6
f 63/203/5 82/258/5 75/238/5
f 76/259/11 69/260/7 83/261/11
f 83/261/12 69/260/8 76/259/12
f 70/262/29 77/242/7 63/241/29
f 63/241/30 77/242/8 70/262/30
f 77/263/7 83/261/11 69/260/7
f 69/260/8 83/261/12 77/263/8
f 83/264/5 77/243/5 64/204/5
f 64/204/6 77/243/6 83/264/6
f 84/265/6 71/229/6 76/239/6
f 76/239/5 71/229/5 84/265/5
f 78/244/5 83/264/5 64/204/5
f 64/204/6 83/264/6 78/244/6
f 71/229/21 84/266/17 78/244/21
f 78/244/22 84/266/18 71/229/22
f 85/267/6 72/230/6 74/248/6
f 74/248/5 72/230/5 85/267/5
f 72/268/15 85/269/28 73/270/15
f 73/270/16 85/269/27 72/268/16
f 80/271/5 67/234/5 79/250/5
f 79/250/6 67/234/6 80/271/6
f 79/272/28 73/270/15 85/269/28
f 85/269/27 73/270/16 79/272/27
f 74/235/14 80/251/14 86/273/14
f 86/273/13 80/251/13 74/235/13
f 81/274/12 75/254/12 68/253/18
f 68/50/17 75/255/11 81/275/11
f 81/257/5 70/228/5 87/276/5
f 87/276/6 70/228/6 81/257/6
f 75/254/12 81/274/12 82/277/8
f 82/278/7 81/279/11 75/280/11
f 82/258/6 88/281/6 63/203/6
f 63/203/5 88/281/5 82/258/5
f 83/282/11 89/283/17 76/284/11
f 76/284/12 89/283/18 83/282/12
f 63/285/31 90/286/31 70/287/31
f 70/287/32 90/286/32 63/285/32
f 84/288/17 76/284/11 89/283/17
f 89/283/18 76/284/12 84/288/18
f 89/289/5 83/264/5 78/244/5
f 78/244/6 83/264/6 89/289/6
f 89/290/17 78/244/21 84/266/17
f 84/266/18 78/244/22 89/290/18
f 86/291/6 85/267/6 74/248/6
f 74/248/5 85/267/5 86/291/5
f 91/292/5 80/271/5 79/250/5
f 79/250/6 80/271/6 91/292/6
f 85/293/13 92/294/13 79/295/13
f 79/295/14 92/294/14 85/293/14
f 86/273/14 80/251/14 93/296/14
f 93/296/13 80/251/13 86/273/13
f 87/276/5 70/228/5 94/297/5
f 94/297/6 70/228/6 87/276/6
f 87/298/8 82/277/8 81/274/12
f 81/279/11 82/278/7 87/299/7
f 82/300/8 87/301/8 88/302/3
f 88/303/1 87/304/7 82/305/7
f 90/306/6 63/203/6 88/281/6
f 88/281/5 63/203/5 90/306/5
f 95/307/31 70/287/31 90/286/31
f 90/286/32 70/287/32 95/307/32
f 92/308/6 85/267/6 86/291/6
f 86/291/5 85/267/5 92/308/5
f 91/309/33 96/310/33 80/311/33
f 80/311/34 96/310/34 91/309/34
f 79/295/13 92/294/13 91/312/13
f 91/312/14 92/294/14 79/295/14
f 97/313/14 93/296/14 80/251/14
f 80/251/13 93/296/13 97/313/13
f 93/314/17 98/315/17 86/316/17
f 86/316/18 98/315/18 93/314/18
f 95/317/5 94/297/5 70/228/5
f 70/228/6 94/297/6 95/317/6
f 94/318/3 88/302/3 87/301/8
f 87/304/7 88/303/1 94/319/1
f 90/320/35 88/302/3 95/321/35
f 95/322/36 88/323/1 90/324/36
f 92/294/17 86/316/17 98/315/17
f 98/315/18 86/316/18 92/294/18
f 91/312/13 92/294/13 96/325/13
f 96/325/14 92/294/14 91/312/14
f 97/326/33 80/311/33 96/310/33
f 96/310/34 80/311/34 97/326/34
f 97/326/5 96/310/5 93/327/5
f 93/327/6 96/310/6 97/326/6
f 98/328/5 93/327/5 96/310/5
f 96/310/6 93/327/6 98/328/6
f 94/318/3 95/321/35 88/302/3
f 88/323/1 95/322/36 94/122/1
f 98/315/13 96/325/13 92/294/13
f 92/294/14 96/325/14 98/315/14
