# SSTK version 0.8.0
# 40
mtllib original-40.mtl
o mesh54/mesh54-geometry#mesh54-geometry
v -0.488126 -0.451343 -0.291769
v -0.492462 -0.450772 -0.291769
v -0.488126 -0.451343 -0.286466
v -0.488126 -0.483716 -0.291769
v -0.492462 -0.450772 -0.286466
v -0.484084 -0.453017 -0.286466
v -0.484084 -0.482042 -0.291769
v -0.492462 -0.484286 -0.291769
v -0.496799 -0.451343 -0.291769
v -0.484084 -0.453017 -0.291769
v -0.488126 -0.483716 -0.286466
v -0.492462 -0.484286 -0.286466
v -0.496799 -0.451343 -0.286466
v -0.480613 -0.455680 -0.286466
v -0.484084 -0.482042 -0.286466
v -0.480613 -0.479378 -0.291769
v -0.496799 -0.483716 -0.286466
v -0.496799 -0.483716 -0.291769
v -0.500841 -0.453017 -0.291769
v -0.480613 -0.455680 -0.291769
v -0.500841 -0.453017 -0.286466
v -0.477950 -0.459151 -0.291769
v -0.480613 -0.479378 -0.286466
v -0.477950 -0.475908 -0.291769
v -0.500841 -0.482042 -0.286466
v -0.500841 -0.482042 -0.291769
v -0.504311 -0.455680 -0.291769
v -0.477950 -0.459151 -0.286466
v -0.477950 -0.475908 -0.286466
v -0.504311 -0.455680 -0.286466
v -0.476276 -0.463193 -0.291769
v -0.476276 -0.471866 -0.291769
v -0.476276 -0.471866 -0.286466
v -0.504311 -0.479378 -0.286466
v -0.504311 -0.479378 -0.291769
v -0.506975 -0.459151 -0.286466
v -0.476276 -0.463193 -0.286466
v -0.506975 -0.459151 -0.291769
v -0.475705 -0.467529 -0.291769
v -0.475705 -0.467529 -0.286466
v -0.506975 -0.475908 -0.291769
v -0.508649 -0.463193 -0.286466
v -0.506975 -0.475908 -0.286466
v -0.508649 -0.463193 -0.291769
v -0.508649 -0.471866 -0.291769
v -0.509219 -0.467529 -0.286466
v -0.508649 -0.471866 -0.286466
v -0.509219 -0.467529 -0.291769
vt 0.049213 0.125338
vt 0.049213 0.084741
vt 0 0.125338
vt -0.557422 -3.273788
vt -0.557422 -2.973362
vt -0.517173 -3.279087
vt 0 0.084741
vt 0 -0.737834
vt 0 -0.697237
vt 0.049213 -0.737834
vt -0.594928 -2.988898
vt -0.517173 -2.968063
vt -0.049213 -0.940755
vt -0.049213 -0.900158
vt 0 -0.940755
vt 0.049213 -0.697237
vt 0.049213 -1.652847
vt 0.049213 -1.693444
vt 0 -1.652847
vt -0.594928 -3.258252
vt 0.049213 -0.900158
vt 0.049213 -0.940755
vt 0 -0.900158
vt -0.476923 -3.273788
vt 0 -1.51151
vt 0 -1.470913
vt 0.049213 -1.51151
vt 0 -1.693444
vt -0.627136 -3.013611
vt -0.049213 0.125338
vt -0.476923 -2.973362
vt -0.049213 -1.693444
vt -0.049213 -1.652847
vt 0.049213 -1.470913
vt 0.049213 -2.291514
vt 0.049213 -2.332111
vt 0 -2.291514
vt -0.627136 -3.233538
vt -0.049213 0.084741
vt -0.439417 -3.258252
vt 0.049213 -2.183562
vt 0 -2.183562
vt 0.049213 -2.142965
vt 0 -2.332111
vt -0.65185 -3.045819
vt -0.049213 -0.697237
vt -0.439417 -2.988898
vt -0.049213 -2.332111
vt -0.049213 -2.291514
vt 0 -2.142965
vt -0.65185 -3.201331
vt 0 -2.772635
vt 0.049213 -2.772635
vt 0 -2.813232
vt 0.049213 -2.813232
vt -0.049213 -0.737834
vt -0.407209 -3.233538
vt 0.049213 -2.708192
vt 0 -2.708192
vt 0.049213 -2.667595
vt -0.667385 -3.083325
vt 0 -3.063422
vt 0.049213 -3.063422
vt 0 -3.104019
vt -0.049213 -1.470913
vt -0.407209 -3.013611
vt -0.049213 -2.813232
vt 0 -2.667595
vt -0.667385 -3.163824
vt 0.049213 -3.104019
vt -0.049213 -1.51151
vt -0.382495 -3.201331
vt -0.049213 -2.772635
vt 0.049213 -3.049646
vt 0 -3.049646
vt 0.049213 -3.009049
vt -0.672684 -3.123575
vt 0 -3.144058
vt 0.049213 -3.144058
vt 0 -3.184655
vt -0.049213 -2.142965
vt -0.049213 -2.183562
vt -0.382495 -3.045819
vt -0.049213 -3.104019
vt 0 -3.009049
vt 0.049213 -3.184655
vt -0.36696 -3.163824
vt -0.049213 -3.063422
vt -0.049213 -2.667595
vt -0.049213 -2.708192
vt -0.36696 -3.083325
vt -0.049213 -3.184655
vt -0.361661 -3.123575
vt -0.049213 -3.144058
vt -0.049213 -3.009049
vt -0.049213 -3.049646
vn 0.23109491198486193 0.862456671523521 -0.4502928285008306
vn 0 0.8928808812423862 -0.45029294010879145
vn 0.2588189595935754 0.965925849201117 0
vn -0.2588189595935754 -0.965925849201117 0
vn 0 -0.8928808812423862 0.45029294010879145
vn -0.23109491198486193 -0.862456671523521 0.4502928285008306
vn 0.23109491198486193 -0.862456671523521 -0.4502928285008306
vn -0.23109491198486193 0.862456671523521 0.4502928285008306
vn 0 1 0
vn 0 -1 0
vn 0.5000001748438417 0.8660253028382762 0
vn -0.5000001748438417 -0.8660253028382762 0
vn 0.44643991204844413 -0.7732578476631928 -0.4502929112893783
vn -0.44643991204844413 0.7732578476631928 0.4502929112893783
vn 0 -0.8928808812423862 -0.45029294010879145
vn 0 0.8928808812423862 0.45029294010879145
vn -0.23109491198486193 0.862456671523521 -0.4502928285008306
vn 0.23109491198486193 -0.862456671523521 0.4502928285008306
vn 0.44643991204844413 0.7732578476631928 -0.4502929112893783
vn -0.44643991204844413 -0.7732578476631928 0.4502929112893783
vn 0.2588189595935754 -0.965925849201117 0
vn -0.2588189595935754 0.965925849201117 0
vn 0.7071067811865476 0.7071067811865476 0
vn -0.7071067811865476 -0.7071067811865476 0
vn 0.5000001748438417 -0.8660253028382762 0
vn -0.5000001748438417 0.8660253028382762 0
vn 0.6313620833596884 -0.6313620833596884 -0.450293059452872
vn -0.6313620833596884 0.6313620833596884 0.450293059452872
vn -0.23109491198486193 -0.862456671523521 -0.4502928285008306
vn 0.23109491198486193 0.862456671523521 0.4502928285008306
vn -0.44643991204844413 0.7732578476631928 -0.4502929112893783
vn 0.44643991204844413 -0.7732578476631928 0.4502929112893783
vn 0.6313620833596884 0.6313620833596884 -0.450293059452872
vn -0.6313620833596884 -0.6313620833596884 0.450293059452872
vn 0.7732578476631928 0.44643991204844413 -0.4502929112893783
vn -0.7732578476631928 -0.44643991204844413 0.4502929112893783
vn 0.7071067811865476 -0.7071067811865476 0
vn -0.7071067811865476 0.7071067811865476 0
vn 0.7732578476631928 -0.44643991204844413 -0.4502929112893783
vn -0.7732578476631928 0.44643991204844413 0.4502929112893783
vn -0.44643991204844413 -0.7732578476631928 -0.4502929112893783
vn 0.44643991204844413 0.7732578476631928 0.4502929112893783
vn -0.6313620833596884 0.6313620833596884 -0.450293059452872
vn 0.6313620833596884 -0.6313620833596884 0.450293059452872
vn 0.8660253028382762 0.5000001748438417 0
vn -0.8660253028382762 -0.5000001748438417 0
vn 0.8660253028382762 -0.5000001748438417 0
vn -0.8660253028382762 0.5000001748438417 0
vn 0.862456671523521 0.23109491198486193 -0.4502928285008306
vn -0.862456671523521 -0.23109491198486193 0.4502928285008306
vn 0.862456671523521 -0.23109491198486193 -0.4502928285008306
vn -0.862456671523521 0.23109491198486193 0.4502928285008306
vn 0.965925849201117 -0.2588189595935754 0
vn -0.965925849201117 0.2588189595935754 0
vn -0.6313620833596884 -0.6313620833596884 -0.450293059452872
vn 0.6313620833596884 0.6313620833596884 0.450293059452872
vn 0.965925849201117 0.2588189595935754 0
vn -0.965925849201117 -0.2588189595935754 0
vn -0.7732578476631928 0.44643991204844413 -0.4502929112893783
vn 0.7732578476631928 -0.44643991204844413 0.4502929112893783
vn 0.8928808812423862 0 -0.45029294010879145
vn -0.8928808812423862 0 0.45029294010879145
vn 1 0 0
vn -1 0 0
vn -0.7732578476631928 -0.44643991204844413 -0.4502929112893783
vn 0.7732578476631928 0.44643991204844413 0.4502929112893783
vn -0.862456671523521 0.23109491198486193 -0.4502928285008306
vn 0.862456671523521 -0.23109491198486193 0.4502928285008306
vn -0.862456671523521 -0.23109491198486193 -0.4502928285008306
vn 0.862456671523521 0.23109491198486193 0.4502928285008306
vn -0.8928808812423862 0 -0.45029294010879145
vn 0.8928808812423862 0 0.45029294010879145
usemtl material_0_0
f 1/1/1 2/2/2 3/3/3
f 3/3/4 2/2/5 1/1/6
f 1/4/1 4/5/7 2/6/2
f 2/6/5 4/5/8 1/4/6
f 5/7/9 3/3/3 2/2/2
f 2/2/5 3/3/4 5/7/10
f 3/8/3 6/9/11 1/10/1
f 1/10/6 6/9/12 3/8/4
f 7/11/13 4/5/7 1/4/1
f 1/4/6 4/5/8 7/11/14
f 4/5/7 8/12/15 2/6/2
f 2/6/5 8/12/16 4/5/8
f 2/13/2 9/14/17 5/15/9
f 5/15/10 9/14/18 2/13/5
f 10/16/19 1/10/1 6/9/11
f 6/9/12 1/10/6 10/16/20
f 4/17/7 7/18/13 11/19/21
f 11/19/22 7/18/14 4/17/8
f 10/20/19 7/11/13 1/4/1
f 1/4/6 7/11/14 10/20/20
f 8/21/15 4/22/7 12/23/10
f 12/23/9 4/22/8 8/21/16
f 2/6/2 8/12/15 9/24/17
f 9/24/18 8/12/16 2/6/5
f 13/23/22 5/15/9 9/14/17
f 9/14/18 5/15/10 13/23/21
f 6/25/11 14/26/23 10/27/19
f 10/27/20 14/26/24 6/25/12
f 15/28/25 11/19/21 7/18/13
f 7/18/14 11/19/22 15/28/26
f 11/15/21 12/23/10 4/22/7
f 4/22/8 12/23/9 11/15/22
f 16/29/27 7/11/13 10/20/19
f 10/20/20 7/11/14 16/29/28
f 12/3/10 17/7/4 8/30/15
f 8/30/16 17/7/3 12/3/9
f 8/12/15 18/31/29 9/24/17
f 9/24/18 18/31/30 8/12/16
f 9/32/17 19/33/31 13/28/22
f 13/28/21 19/33/32 9/32/18
f 20/34/33 10/27/19 14/26/23
f 14/26/24 10/27/20 20/34/34
f 7/35/13 16/36/27 15/37/25
f 15/37/26 16/36/28 7/35/14
f 20/38/33 16/29/27 10/20/19
f 10/20/20 16/29/28 20/38/34
f 18/39/29 8/30/15 17/7/4
f 17/7/3 8/30/16 18/39/30
f 9/24/17 18/31/29 19/40/31
f 19/40/32 18/31/30 9/24/18
f 21/19/26 13/28/22 19/33/31
f 19/33/32 13/28/21 21/19/25
f 20/41/33 14/42/23 22/43/35
f 22/43/36 14/42/24 20/41/34
f 23/44/37 15/37/25 16/36/27
f 16/36/28 15/37/26 23/44/38
f 24/45/39 16/29/27 20/38/33
f 20/38/34 16/29/28 24/45/40
f 17/9/4 25/8/12 18/46/29
f 18/46/30 25/8/11 17/9/3
f 18/31/29 26/47/41 19/40/31
f 19/40/32 26/47/42 18/31/30
f 19/48/31 27/49/43 21/44/26
f 21/44/25 27/49/44 19/48/32
f 28/50/45 22/43/35 14/42/23
f 14/42/24 22/43/36 28/50/46
f 22/51/35 24/45/39 20/38/33
f 20/38/34 24/45/40 22/51/36
f 23/52/37 16/53/27 29/54/47
f 29/54/48 16/53/28 23/52/38
f 24/55/39 29/54/47 16/53/27
f 16/53/28 29/54/48 24/55/40
f 26/56/41 18/46/29 25/8/12
f 25/8/11 18/46/30 26/56/42
f 19/40/31 26/47/41 27/57/43
f 27/57/44 26/47/42 19/40/32
f 30/37/38 21/44/26 27/49/43
f 27/49/44 21/44/25 30/37/37
f 22/58/35 28/59/45 31/60/49
f 31/60/50 28/59/46 22/58/36
f 32/61/51 24/45/39 22/51/35
f 22/51/36 24/45/40 32/61/52
f 29/62/47 24/63/39 33/64/53
f 33/64/54 24/63/40 29/62/48
f 25/26/12 34/25/24 26/65/41
f 26/65/42 34/25/23 25/26/11
f 26/47/41 35/66/55 27/57/43
f 27/57/44 35/66/56 26/47/42
f 30/54/38 27/67/43 36/52/48
f 36/52/47 27/67/44 30/54/37
f 37/68/57 31/60/49 28/59/45
f 28/59/46 31/60/50 37/68/58
f 31/69/49 32/61/51 22/51/35
f 22/51/36 32/61/52 31/69/50
f 32/70/51 33/64/53 24/63/39
f 24/63/40 33/64/54 32/70/52
f 35/71/55 26/65/41 34/25/24
f 34/25/23 26/65/42 35/71/56
f 27/57/43 35/66/55 38/72/59
f 38/72/60 35/66/56 27/57/44
f 38/73/59 36/52/48 27/67/43
f 27/67/44 36/52/47 38/73/60
f 31/74/49 37/75/57 39/76/61
f 39/76/62 37/75/58 31/74/50
f 39/77/61 32/61/51 31/69/49
f 31/69/50 32/61/52 39/77/62
f 33/78/53 32/79/51 40/80/63
f 40/80/64 32/79/52 33/78/54
f 35/81/55 34/50/24 41/82/65
f 41/82/66 34/50/23 35/81/56
f 35/66/55 41/83/65 38/72/59
f 38/72/60 41/83/66 35/66/56
f 36/64/48 38/84/59 42/62/54
f 42/62/53 38/84/60 36/64/47
f 40/85/63 39/76/61 37/75/57
f 37/75/58 39/76/62 40/85/64
f 39/86/61 40/80/63 32/79/51
f 32/79/52 40/80/64 39/86/62
f 43/42/46 41/82/65 34/50/24
f 34/50/23 41/82/66 43/42/45
f 38/72/59 41/83/65 44/87/67
f 44/87/68 41/83/66 38/72/60
f 44/88/67 42/62/54 38/84/59
f 38/84/60 42/62/53 44/88/68
f 41/89/65 43/68/46 45/90/69
f 45/90/70 43/68/45 41/89/66
f 41/83/65 45/91/69 44/87/67
f 44/87/68 45/91/70 41/83/66
f 42/80/54 44/92/67 46/78/64
f 46/78/63 44/92/68 42/80/53
f 47/59/58 45/90/69 43/68/46
f 43/68/45 45/90/70 47/59/57
f 48/93/71 44/87/67 45/91/69
f 45/91/70 44/87/68 48/93/72
f 48/94/71 46/78/64 44/92/67
f 44/92/68 46/78/63 48/94/72
f 45/95/69 47/85/58 48/96/71
f 48/96/72 47/85/57 45/95/70
f 46/75/64 48/96/71 47/85/58
f 47/85/57 48/96/72 46/75/63
