# SSTK version 0.8.0
# 57
mtllib original-57.mtl
o mesh71/mesh71-geometry#mesh71-geometry
v 0.557195 -0.455167 0.103720
v 0.562498 -0.455167 0.103720
v 0.557195 -0.454805 0.106465
v 0.562498 -0.456226 0.101162
v 0.562498 -0.454805 0.106465
v 0.557195 -0.456226 0.101162
v 0.562498 -0.456226 0.111768
v 0.557195 -0.455167 0.109209
v 0.562498 -0.455167 0.109209
v 0.562498 -0.457912 0.098965
v 0.562498 -0.457912 0.113964
v 0.557195 -0.457912 0.098965
v 0.557195 -0.457912 0.113964
v 0.557195 -0.456226 0.111768
v 0.557195 -0.460108 0.097280
v 0.562498 -0.460108 0.115649
v 0.562498 -0.460108 0.097280
v 0.557195 -0.460108 0.115649
v 0.557195 -0.462666 0.096220
v 0.562498 -0.462666 0.116709
v 0.562498 -0.462666 0.096220
v 0.557195 -0.462666 0.116709
v 0.557195 -0.465411 0.095859
v 0.562498 -0.465411 0.117070
v 0.562498 -0.465411 0.095859
v 0.557195 -0.465411 0.117070
v 0.557195 -0.468156 0.096220
v 0.562498 -0.468156 0.116709
v 0.562498 -0.468156 0.096220
v 0.557195 -0.468156 0.116709
v 0.557195 -0.470714 0.097280
v 0.562498 -0.470714 0.115649
v 0.562498 -0.470714 0.097280
v 0.557195 -0.470714 0.115649
v 0.557195 -0.472911 0.098965
v 0.562498 -0.472911 0.113964
v 0.562498 -0.472911 0.098965
v 0.557195 -0.472911 0.113964
v 0.562498 -0.474596 0.101162
v 0.562498 -0.474596 0.111768
v 0.557195 -0.474596 0.111768
v 0.557195 -0.474596 0.101162
v 0.562498 -0.475655 0.103720
v 0.562498 -0.475655 0.109209
v 0.557195 -0.475655 0.109209
v 0.557195 -0.475655 0.103720
v 0.562498 -0.476017 0.106465
v 0.557195 -0.476017 0.106465
vt 10.258384 -4.012774
vt 10.307597 -4.012774
vt 10.258384 -4.038468
vt 10.307597 -4.584677
vt 10.258384 -4.584677
vt 10.307597 -4.558983
vt 10.307597 -4.038468
vt 10.258384 -4.558983
vt 3.597331 -3.228471
vt 3.695757 -3.228471
vt 3.62107 -3.238304
vt -10.258384 3.192226
vt -10.307597 3.192226
vt -10.258384 3.21792
vt 3.646544 -3.241658
vt 3.672018 -3.238304
vt 10.307597 -4.819324
vt 10.258384 -4.819324
vt 10.307597 -4.793629
vt 3.716141 -3.21283
vt -10.307597 3.21792
vt 10.258384 -4.793629
vt 3.576947 -3.21283
vt -10.307597 0.992366
vt -10.258384 0.992366
vt -10.307597 0.966672
vt -10.307597 2.178951
vt -10.258384 2.178951
vt -10.307597 2.153257
vt -10.258384 2.153257
vt 10.258384 -4.726416
vt 10.258384 -4.700722
vt 10.307597 -4.726416
vt 3.731783 -3.192445
vt -10.307597 -0.286666
vt -10.307597 -0.260972
vt -10.258384 -0.286666
vt -10.258384 0.966672
vt 10.307597 -4.700722
vt 3.561305 -3.192445
vt -10.258384 -0.260972
vt 10.258384 -4.312287
vt 10.258384 -4.286593
vt 10.307597 -4.312287
vt 3.741615 -3.168707
vt -10.307597 -1.521343
vt -10.307597 -1.495649
vt -10.258384 -1.521343
vt 10.307597 -4.286593
vt 3.551472 -3.168707
vt -10.258384 -1.495649
vt 10.258384 -3.605158
vt 10.258384 -3.579464
vt 10.307597 -3.605158
vt 3.744969 -3.143232
vt -10.307597 -2.653219
vt -10.307597 -2.627525
vt -10.258384 -2.653219
vt 10.307597 -3.579464
vt 3.548119 -3.143232
vt -10.258384 -2.627525
vt 10.258384 -2.653219
vt 10.258384 -2.627525
vt 10.307597 -2.653219
vt 3.741615 -3.117758
vt -10.307597 -3.605158
vt -10.307597 -3.579464
vt -10.258384 -3.605158
vt 10.307597 -2.627525
vt 3.551472 -3.117758
vt -10.258384 -3.579464
vt 10.258384 -1.521343
vt 10.258384 -1.495649
vt 10.307597 -1.521343
vt 3.731783 -3.09402
vt -10.307597 -4.312287
vt -10.307597 -4.286593
vt -10.258384 -4.312287
vt 10.307597 -1.495649
vt 3.561305 -3.09402
vt -10.258384 -4.286593
vt 10.258384 -0.286666
vt 10.258384 -0.260972
vt 10.307597 -0.286666
vt 3.716141 -3.073635
vt -10.307597 -4.726416
vt -10.307597 -4.700722
vt -10.258384 -4.726416
vt 10.307597 -0.260972
vt 3.576947 -3.073635
vt -10.258384 -4.700722
vt 10.307597 0.966672
vt 10.258384 0.966672
vt 10.307597 0.992366
vt 3.695757 -3.057994
vt -10.258384 -4.819324
vt -10.307597 -4.819324
vt -10.258384 -4.793629
vt 10.258384 0.992366
vt 3.597331 -3.057994
vt -10.307597 -4.793629
vt 10.307597 2.153257
vt 10.258384 2.153257
vt 10.307597 2.178951
vt 3.672018 -3.048161
vt -10.258384 -4.584677
vt -10.307597 -4.584677
vt -10.258384 -4.558983
vt 10.258384 2.178951
vt 3.62107 -3.048161
vt -10.307597 -4.558983
vt 10.307597 3.192226
vt 10.258384 3.192226
vt 10.307597 3.21792
vt 3.646544 -3.044807
vt -10.258384 -4.038468
vt -10.307597 -4.038468
vt -10.258384 -4.012774
vt 10.258384 3.21792
vt -10.307597 -4.012774
vn 0 -0.965925849201117 0.2588189595935754
vn -0.4502928285008306 -0.862456671523521 0.23109491198486193
vn 0 -1 0
vn 0 1 0
vn 0.4502928285008306 0.862456671523521 -0.23109491198486193
vn 0 0.965925849201117 -0.2588189595935754
vn -0.4502929112893783 -0.7732578476631928 0.44643991204844413
vn 0.4502929112893783 0.7732578476631928 -0.44643991204844413
vn -0.45029294010879145 -0.8928808812423862 0
vn 0.45029294010879145 0.8928808812423862 0
vn 0 -0.8660253028382762 0.5000001748438417
vn 0 0.8660253028382762 -0.5000001748438417
vn -0.4502929112893783 -0.7732578476631928 -0.44643991204844413
vn 0.4502929112893783 0.7732578476631928 0.44643991204844413
vn 0 -0.965925849201117 -0.2588189595935754
vn 0 0.965925849201117 0.2588189595935754
vn -0.4502928285008306 -0.862456671523521 -0.23109491198486193
vn 0.4502928285008306 0.862456671523521 0.23109491198486193
vn -0.450293059452872 -0.6313620833596884 0.6313620833596884
vn 0.450293059452872 0.6313620833596884 -0.6313620833596884
vn -0.450293059452872 -0.6313620833596884 -0.6313620833596884
vn 0.450293059452872 0.6313620833596884 0.6313620833596884
vn 0 -0.7071067811865476 0.7071067811865476
vn 0 0.7071067811865476 -0.7071067811865476
vn 0 -0.7071067811865476 -0.7071067811865476
vn 0 0.7071067811865476 0.7071067811865476
vn 0 -0.8660253028382762 -0.5000001748438417
vn 0 0.8660253028382762 0.5000001748438417
vn 0 -0.5000001748438417 0.8660253028382762
vn 0 0.5000001748438417 -0.8660253028382762
vn -0.4502929112893783 -0.44643991204844413 -0.7732578476631928
vn 0.4502929112893783 0.44643991204844413 0.7732578476631928
vn -0.4502929112893783 -0.44643991204844413 0.7732578476631928
vn 0.4502929112893783 0.44643991204844413 -0.7732578476631928
vn 0 -0.5000001748438417 -0.8660253028382762
vn 0 0.5000001748438417 0.8660253028382762
vn 0 -0.2588189595935754 0.965925849201117
vn 0 0.2588189595935754 -0.965925849201117
vn -0.4502928285008306 -0.23109491198486193 -0.862456671523521
vn 0.4502928285008306 0.23109491198486193 0.862456671523521
vn -0.4502928285008306 -0.23109491198486193 0.862456671523521
vn 0.4502928285008306 0.23109491198486193 -0.862456671523521
vn 0 -0.2588189595935754 -0.965925849201117
vn 0 0.2588189595935754 0.965925849201117
vn 0 0 1
vn 0 0 -1
vn -0.45029294010879145 0 -0.8928808812423862
vn 0.45029294010879145 0 0.8928808812423862
vn -0.45029294010879145 0 0.8928808812423862
vn 0.45029294010879145 0 -0.8928808812423862
vn -0.4502928285008306 0.23109491198486193 -0.862456671523521
vn 0.4502928285008306 -0.23109491198486193 0.862456671523521
vn -0.4502928285008306 0.23109491198486193 0.862456671523521
vn 0.4502928285008306 -0.23109491198486193 -0.862456671523521
vn -0.4502929112893783 0.44643991204844413 -0.7732578476631928
vn 0.4502929112893783 -0.44643991204844413 0.7732578476631928
vn -0.4502929112893783 0.44643991204844413 0.7732578476631928
vn 0.4502929112893783 -0.44643991204844413 -0.7732578476631928
vn -0.450293059452872 0.6313620833596884 -0.6313620833596884
vn 0.450293059452872 -0.6313620833596884 0.6313620833596884
vn -0.450293059452872 0.6313620833596884 0.6313620833596884
vn 0.450293059452872 -0.6313620833596884 -0.6313620833596884
vn -0.4502929112893783 0.7732578476631928 0.44643991204844413
vn 0.4502929112893783 -0.7732578476631928 -0.44643991204844413
vn -0.4502929112893783 0.7732578476631928 -0.44643991204844413
vn 0.4502929112893783 -0.7732578476631928 0.44643991204844413
vn -0.4502928285008306 0.862456671523521 0.23109491198486193
vn 0.4502928285008306 -0.862456671523521 -0.23109491198486193
vn -0.4502928285008306 0.862456671523521 -0.23109491198486193
vn 0.4502928285008306 -0.862456671523521 0.23109491198486193
vn -0.45029294010879145 0.8928808812423862 0
vn 0.45029294010879145 -0.8928808812423862 0
usemtl material_0_0
f 1/1/1 2/2/2 3/3/3
f 3/3/4 2/2/5 1/1/6
f 2/4/2 1/5/1 4/6/7
f 4/6/8 1/5/6 2/4/5
f 5/7/9 3/3/3 2/2/2
f 2/2/5 3/3/4 5/7/10
f 6/8/11 4/6/7 1/5/1
f 1/5/6 4/6/8 6/8/12
f 4/9/7 7/10/13 2/11/2
f 2/11/5 7/10/14 4/9/8
f 3/12/3 5/13/9 8/14/15
f 8/14/16 5/13/10 3/12/4
f 5/15/9 2/11/2 9/16/17
f 9/16/18 2/11/5 5/15/10
f 4/17/7 6/18/11 10/19/19
f 10/19/20 6/18/12 4/17/8
f 11/20/21 7/10/13 4/9/7
f 4/9/8 7/10/14 11/20/22
f 7/10/13 9/16/17 2/11/2
f 2/11/5 9/16/18 7/10/14
f 9/21/17 8/14/15 5/13/9
f 5/13/10 8/14/16 9/21/18
f 12/22/23 10/19/19 6/18/11
f 6/18/12 10/19/20 12/22/24
f 10/23/19 11/20/21 4/9/7
f 4/9/8 11/20/22 10/23/20
f 11/24/21 13/25/25 7/26/13
f 7/26/14 13/25/26 11/24/22
f 7/27/13 14/28/27 9/29/17
f 9/29/18 14/28/28 7/27/14
f 8/30/15 9/29/17 14/28/27
f 14/28/28 9/29/18 8/30/16
f 12/31/23 15/32/29 10/33/19
f 10/33/20 15/32/30 12/31/24
f 16/34/31 11/20/21 10/23/19
f 10/23/20 11/20/22 16/34/32
f 11/35/21 16/36/31 13/37/25
f 13/37/26 16/36/32 11/35/22
f 14/38/27 7/26/13 13/25/25
f 13/25/26 7/26/14 14/38/28
f 17/39/33 10/33/19 15/32/29
f 15/32/30 10/33/20 17/39/34
f 17/40/33 16/34/31 10/23/19
f 10/23/20 16/34/32 17/40/34
f 18/41/35 13/37/25 16/36/31
f 16/36/32 13/37/26 18/41/36
f 15/42/29 19/43/37 17/44/33
f 17/44/34 19/43/38 15/42/30
f 20/45/39 16/34/31 17/40/33
f 17/40/34 16/34/32 20/45/40
f 16/46/31 20/47/39 18/48/35
f 18/48/36 20/47/40 16/46/32
f 21/49/41 17/44/33 19/43/37
f 19/43/38 17/44/34 21/49/42
f 21/50/41 20/45/39 17/40/33
f 17/40/34 20/45/40 21/50/42
f 22/51/43 18/48/35 20/47/39
f 20/47/40 18/48/36 22/51/44
f 19/52/37 23/53/45 21/54/41
f 21/54/42 23/53/46 19/52/38
f 24/55/47 20/45/39 21/50/41
f 21/50/42 20/45/40 24/55/48
f 20/56/39 24/57/47 22/58/43
f 22/58/44 24/57/48 20/56/40
f 25/59/49 21/54/41 23/53/45
f 23/53/46 21/54/42 25/59/50
f 25/60/49 24/55/47 21/50/41
f 21/50/42 24/55/48 25/60/50
f 26/61/46 22/58/43 24/57/47
f 24/57/48 22/58/44 26/61/45
f 23/62/45 27/63/44 25/64/49
f 25/64/50 27/63/43 23/62/46
f 28/65/51 24/55/47 25/60/49
f 25/60/50 24/55/48 28/65/52
f 24/66/47 28/67/51 26/68/46
f 26/68/45 28/67/52 24/66/48
f 29/69/53 25/64/49 27/63/44
f 27/63/43 25/64/50 29/69/54
f 29/70/53 28/65/51 25/60/49
f 25/60/50 28/65/52 29/70/54
f 30/71/38 26/68/46 28/67/51
f 28/67/52 26/68/45 30/71/37
f 27/72/44 31/73/36 29/74/53
f 29/74/54 31/73/35 27/72/43
f 32/75/55 28/65/51 29/70/53
f 29/70/54 28/65/52 32/75/56
f 28/76/51 32/77/55 30/78/38
f 30/78/37 32/77/56 28/76/52
f 33/79/57 29/74/53 31/73/36
f 31/73/35 29/74/54 33/79/58
f 33/80/57 32/75/55 29/70/53
f 29/70/54 32/75/56 33/80/58
f 34/81/30 30/78/38 32/77/55
f 32/77/56 30/78/37 34/81/29
f 31/82/36 35/83/26 33/84/57
f 33/84/58 35/83/25 31/82/35
f 36/85/59 32/75/55 33/80/57
f 33/80/58 32/75/56 36/85/60
f 32/86/55 36/87/59 34/88/30
f 34/88/29 36/87/60 32/86/56
f 37/89/61 33/84/57 35/83/26
f 35/83/25 33/84/58 37/89/62
f 37/90/61 36/85/59 33/80/57
f 33/80/58 36/85/60 37/90/62
f 38/91/24 34/88/30 36/87/59
f 36/87/60 34/88/29 38/91/23
f 37/92/61 35/93/26 39/94/63
f 39/94/64 35/93/25 37/92/62
f 40/95/65 36/85/59 37/90/61
f 37/90/62 36/85/60 40/95/66
f 38/96/24 36/97/59 41/98/12
f 41/98/11 36/97/60 38/96/23
f 42/99/28 39/94/63 35/93/26
f 35/93/25 39/94/64 42/99/27
f 39/100/63 40/95/65 37/90/61
f 37/90/62 40/95/66 39/100/64
f 40/101/65 41/98/12 36/97/59
f 36/97/60 41/98/11 40/101/66
f 39/102/63 42/103/28 43/104/67
f 43/104/68 42/103/27 39/102/64
f 44/105/69 40/95/65 39/100/63
f 39/100/64 40/95/66 44/105/70
f 41/106/12 40/107/65 45/108/6
f 45/108/1 40/107/66 41/106/11
f 46/109/16 43/104/67 42/103/28
f 42/103/27 43/104/68 46/109/15
f 43/110/67 44/105/69 39/100/63
f 39/100/64 44/105/70 43/110/68
f 44/111/69 45/108/6 40/107/65
f 40/107/66 45/108/1 44/111/70
f 43/112/67 46/113/16 47/114/71
f 47/114/72 46/113/15 43/112/68
f 47/115/71 44/105/69 43/110/67
f 43/110/68 44/105/70 47/115/72
f 45/116/6 44/117/69 48/118/4
f 48/118/3 44/117/70 45/116/1
f 48/119/4 47/114/71 46/113/16
f 46/113/15 47/114/72 48/119/3
f 47/120/71 48/118/4 44/117/69
f 44/117/70 48/118/3 47/120/72
