# SSTK version 0.8.0
# 87
mtllib original-87.mtl
o mesh98/mesh98-geometry#mesh98-geometry
v -0.152514 0.254842 -0.439435
v -0.149956 0.258412 -0.443498
v -0.152514 0.257494 -0.444027
v -0.149956 0.255760 -0.438905
v -0.158004 0.257494 -0.444027
v -0.155259 0.254529 -0.439615
v -0.147760 0.259871 -0.442655
v -0.155259 0.257181 -0.444208
v -0.160562 0.258412 -0.443498
v -0.147760 0.257219 -0.438062
v -0.158004 0.254842 -0.439435
v -0.160562 0.255760 -0.438905
v -0.146074 0.261773 -0.441557
v -0.162758 0.259871 -0.442655
v -0.162758 0.257219 -0.438062
v -0.146074 0.259122 -0.436964
v -0.145015 0.263989 -0.440278
v -0.164444 0.261773 -0.441557
v -0.145015 0.261337 -0.435685
v -0.164444 0.259122 -0.436964
v -0.144653 0.266366 -0.438905
v -0.165504 0.263989 -0.440278
v -0.144653 0.263714 -0.434313
v -0.165504 0.261337 -0.435685
v -0.145015 0.268743 -0.437532
v -0.165865 0.266366 -0.438905
v -0.145015 0.266091 -0.432940
v -0.165865 0.263714 -0.434313
v -0.146074 0.270958 -0.436254
v -0.165504 0.268743 -0.437532
v -0.146074 0.268307 -0.431661
v -0.164444 0.270958 -0.436254
v -0.165504 0.266091 -0.432940
v -0.147760 0.272860 -0.435156
v -0.147760 0.270209 -0.430563
v -0.162758 0.272860 -0.435156
v -0.164444 0.268307 -0.431661
v -0.149956 0.271669 -0.429720
v -0.149956 0.274320 -0.434313
v -0.160562 0.274320 -0.434313
v -0.162758 0.270209 -0.430563
v -0.152514 0.272586 -0.429191
v -0.152514 0.275238 -0.433783
v -0.158004 0.275238 -0.433783
v -0.160562 0.271669 -0.429720
v -0.155259 0.272899 -0.429010
v -0.155259 0.275550 -0.433602
v -0.158004 0.272586 -0.429191
vt 3.576602 -2.795221
vt 3.602296 -2.746008
vt 3.576602 -2.746008
vt 3.602296 -2.795221
vt -0.481074 3.62107
vt -0.481074 3.672018
vt -0.490907 3.695757
vt 3.703396 -2.746008
vt 3.677702 -2.795221
vt 3.703396 -2.795221
vt 3.230886 -2.795221
vt 3.25658 -2.746008
vt 3.230886 -2.746008
vt -0.47772 3.646544
vt -0.490907 3.597331
vt 3.677702 -2.746008
vt 3.25658 -2.795221
vt -0.506548 3.716141
vt 3.527298 -2.795221
vt 3.552992 -2.746008
vt 3.527298 -2.746008
vt 3.135639 -2.795221
vt 3.161333 -2.746008
vt 3.135639 -2.746008
vt 3.552992 -2.795221
vt 2.664115 -2.795221
vt 2.689809 -2.746008
vt 2.664115 -2.746008
vt -0.506548 3.576947
vt 3.161333 -2.795221
vt 2.55511 -2.746008
vt 2.529416 -2.795221
vt 2.55511 -2.795221
vt 2.689809 -2.795221
vt -0.526933 3.731783
vt 2.529416 -2.746008
vt 1.914914 -2.795221
vt 1.940608 -2.746008
vt 1.914914 -2.746008
vt -0.526933 3.561305
vt 1.749941 -2.746008
vt 1.775635 -2.795221
vt 1.775635 -2.746008
vt 1.940608 -2.795221
vt -0.550671 3.741615
vt 1.749941 -2.795221
vt 1.034339 -2.795221
vt 1.060033 -2.746008
vt 1.034339 -2.746008
vt -0.550671 3.551472
vt 0.850336 -2.746008
vt 0.87603 -2.795221
vt 0.87603 -2.746008
vt 1.060033 -2.795221
vt -0.576145 3.744969
vt 0.850336 -2.795221
vt 0.0824 -2.795221
vt 0.108094 -2.746008
vt 0.0824 -2.746008
vt -0.576145 3.548119
vt -0.108094 -2.746008
vt -0.0824 -2.795221
vt -0.0824 -2.746008
vt 0.108094 -2.795221
vt -0.60162 3.741615
vt -0.108094 -2.795221
vt -0.87603 -2.795221
vt -0.850336 -2.746008
vt -0.87603 -2.746008
vt -0.60162 3.551472
vt -1.060033 -2.746008
vt -1.034339 -2.795221
vt -1.034339 -2.746008
vt -0.850336 -2.795221
vt -0.625358 3.561305
vt -0.625358 3.731783
vt -1.060033 -2.795221
vt -1.775635 -2.795221
vt -1.749941 -2.746008
vt -1.775635 -2.746008
vt -0.645743 3.716141
vt -1.940608 -2.746008
vt -1.914914 -2.795221
vt -1.914914 -2.746008
vt -1.749941 -2.795221
vt -0.645743 3.576947
vt -1.940608 -2.795221
vt -2.529416 -2.795221
vt -2.55511 -2.746008
vt -2.55511 -2.795221
vt -0.661384 3.695757
vt -2.689809 -2.746008
vt -2.664115 -2.795221
vt -2.664115 -2.746008
vt -2.529416 -2.746008
vt -0.661384 3.597331
vt -2.689809 -2.795221
vt -3.135639 -2.795221
vt -3.161333 -2.746008
vt -3.161333 -2.795221
vt -0.671217 3.672018
vt -3.25658 -2.746008
vt -3.230886 -2.795221
vt -3.230886 -2.746008
vt -3.135639 -2.746008
vt -0.671217 3.62107
vt -3.25658 -2.795221
vt -3.527298 -2.795221
vt -3.552992 -2.746008
vt -3.552992 -2.795221
vt -0.674571 3.646544
vt -3.602296 -2.746008
vt -3.576602 -2.795221
vt -3.576602 -2.746008
vt -3.527298 -2.746008
vt -3.703396 -2.746008
vt -3.677702 -2.795221
vt -3.677702 -2.746008
vt -3.602296 -2.795221
vt -3.703396 -2.795221
vn -0.2588190579255234 0.8365161872181993 0.4829631080905364
vn -0.44644008691475034 0.44451408653978886 0.7765941511904705
vn -0.23109506118901177 0.5217631381516794 0.8211932174343372
vn -0.49999993545776256 0.7499999031866438 0.4330129441047443
vn 0.23109506118901177 -0.5217631381516794 -0.8211932174343372
vn 0.44644008691475034 -0.44451408653978886 -0.7765941511904705
vn 0.2588190579255234 -0.8365161872181993 -0.4829631080905364
vn 0.49999993545776256 -0.7499999031866438 -0.4330129441047443
vn 0.23109506118901177 0.5217631381516794 0.8211932174343372
vn -0.23109506118901177 -0.5217631381516794 -0.8211932174343372
vn 0 0.8660253028382762 0.5000001748438417
vn 0 -0.8660253028382762 -0.5000001748438417
vn -0.6313621685734059 0.32162908587481664 0.7056461884072047
vn 0.6313621685734059 -0.32162908587481664 -0.7056461884072047
vn 0 0.5481112761533294 0.8364054214037403
vn 0 -0.5481112761533294 -0.8364054214037403
vn 0.44644008691475034 0.44451408653978886 0.7765941511904705
vn -0.44644008691475034 -0.44451408653978886 -0.7765941511904705
vn -0.7071071769033884 0.612372153202672 0.35355308845156913
vn 0.7071071769033884 -0.612372153202672 -0.35355308845156913
vn 0.2588190579255234 0.8365161872181993 0.4829631080905364
vn -0.2588190579255234 -0.8365161872181993 -0.4829631080905364
vn 0.49999993545776256 0.7499999031866438 0.4330129441047443
vn -0.49999993545776256 -0.7499999031866438 -0.4330129441047443
vn -0.7732579168310894 0.16148198263156407 0.6131849340479781
vn 0.7732579168310894 -0.16148198263156407 -0.6131849340479781
vn 0.6313621685734059 0.32162908587481664 0.7056461884072047
vn -0.6313621685734059 -0.32162908587481664 -0.7056461884072047
vn 0.7071071769033884 0.612372153202672 0.35355308845156913
vn -0.7071071769033884 -0.612372153202672 -0.35355308845156913
vn -0.8660251910477763 0.4330130955239984 0.25000005515076823
vn 0.8660251910477763 -0.4330130955239984 -0.25000005515076823
vn -0.8624569529262385 -0.02501299863476556 0.5055119724086519
vn 0.8624569529262385 0.02501299863476556 -0.5055119724086519
vn 0.7732579168310894 0.16148198263156407 0.6131849340479781
vn -0.7732579168310894 -0.16148198263156407 -0.6131849340479781
vn -0.9659257496745788 0.22414394191176013 0.12940996646263506
vn 0.9659257496745788 -0.22414394191176013 -0.12940996646263506
vn 0.8660251910477763 0.4330130955239984 0.25000005515076823
vn -0.8660251910477763 -0.4330130955239984 -0.25000005515076823
vn -0.892881043437771 -0.22514601095312856 0.3899650189714087
vn 0.892881043437771 0.22514601095312856 -0.3899650189714087
vn 0.8624569529262385 -0.02501299863476556 0.5055119724086519
vn -0.8624569529262385 0.02501299863476556 -0.5055119724086519
vn -1 0 0
vn 1 0 0
vn 0.9659257496745788 0.22414394191176013 0.12940996646263506
vn -0.9659257496745788 -0.22414394191176013 -0.12940996646263506
vn -0.8624568301076644 -0.425279916225606 0.2744179459433746
vn 0.8624568301076644 0.425279916225606 -0.2744179459433746
vn 0.892881043437771 -0.22514601095312856 0.3899650189714087
vn -0.892881043437771 0.22514601095312856 -0.3899650189714087
vn -0.7732578143354082 -0.6117748531085929 0.1667449599633727
vn 0.7732578143354082 0.6117748531085929 -0.1667449599633727
vn 0.8624568301076644 -0.425279916225606 0.2744179459433746
vn -0.8624568301076644 0.425279916225606 -0.2744179459433746
vn 0.7732578143354082 -0.6117748531085929 0.1667449599633727
vn -0.7732578143354082 0.6117748531085929 -0.1667449599633727
vn -0.6313621067683921 -0.7719221305382187 0.07428401256202186
vn 0.6313621067683921 0.7719221305382187 -0.07428401256202186
vn 0.6313621067683921 -0.7719221305382187 0.07428401256202186
vn -0.6313621067683921 0.7719221305382187 -0.07428401256202186
vn -0.44644014068558757 -0.8948072819784261 0.0033360010512658365
vn 0.44644014068558757 0.8948072819784261 -0.0033360010512658365
vn 0.44644014068558757 -0.8948072819784261 0.0033360010512658365
vn -0.44644014068558757 0.8948072819784261 -0.0033360010512658365
vn -0.23109495362733576 -0.9720558049424415 -0.041262991719962595
vn 0.23109495362733576 0.9720558049424415 0.041262991719962595
vn 0.23109495362733576 -0.9720558049424415 -0.041262991719962595
vn -0.23109495362733576 0.9720558049424415 0.041262991719962595
vn 0 -0.9984040135578273 -0.05647500076690227
vn 0 0.9984040135578273 0.05647500076690227
usemtl material_0_0
f 1/1/1 2/2/2 3/3/3
f 2/2/2 1/1/1 4/4/4
f 3/3/5 2/2/6 1/1/7
f 4/4/8 1/1/7 2/2/6
f 5/5/9 3/6/3 2/7/2
f 2/7/6 3/6/5 5/5/10
f 3/8/3 6/9/11 1/10/1
f 1/10/7 6/9/12 3/8/5
f 4/11/4 7/12/13 2/13/2
f 2/13/6 7/12/14 4/11/8
f 3/6/3 5/5/9 8/14/15
f 8/14/16 5/5/10 3/6/5
f 5/5/9 2/7/2 9/15/17
f 9/15/18 2/7/6 5/5/10
f 6/9/11 3/8/3 8/16/15
f 8/16/16 3/8/5 6/9/12
f 7/12/13 4/11/4 10/17/19
f 10/17/20 4/11/8 7/12/14
f 9/15/17 2/7/2 7/18/13
f 7/18/14 2/7/6 9/15/18
f 11/19/21 8/20/15 5/21/9
f 5/21/10 8/20/16 11/19/22
f 12/22/23 5/23/9 9/24/17
f 9/24/18 5/23/10 12/22/24
f 8/20/15 11/19/21 6/25/11
f 6/25/12 11/19/22 8/20/16
f 10/26/19 13/27/25 7/28/13
f 7/28/14 13/27/26 10/26/20
f 9/15/17 7/18/13 14/29/27
f 14/29/28 7/18/14 9/15/18
f 5/23/9 12/22/23 11/30/21
f 11/30/22 12/22/24 5/23/10
f 9/31/17 15/32/29 12/33/23
f 12/33/24 15/32/30 9/31/18
f 13/27/25 10/26/19 16/34/31
f 16/34/32 10/26/20 13/27/26
f 14/29/27 7/18/13 13/35/25
f 13/35/26 7/18/14 14/29/28
f 15/32/29 9/31/17 14/36/27
f 14/36/28 9/31/18 15/32/30
f 16/37/31 17/38/33 13/39/25
f 13/39/26 17/38/34 16/37/32
f 14/29/27 13/35/25 18/40/35
f 18/40/36 13/35/26 14/29/28
f 18/41/35 15/42/29 14/43/27
f 14/43/28 15/42/30 18/41/36
f 17/38/33 16/37/31 19/44/37
f 19/44/38 16/37/32 17/38/34
f 18/40/35 13/35/25 17/45/33
f 17/45/34 13/35/26 18/40/36
f 15/42/29 18/41/35 20/46/39
f 20/46/40 18/41/36 15/42/30
f 19/47/37 21/48/41 17/49/33
f 17/49/34 21/48/42 19/47/38
f 18/40/35 17/45/33 22/50/43
f 22/50/44 17/45/34 18/40/36
f 22/51/43 20/52/39 18/53/35
f 18/53/36 20/52/40 22/51/44
f 21/48/41 19/47/37 23/54/45
f 23/54/46 19/47/38 21/48/42
f 22/50/43 17/45/33 21/55/41
f 21/55/42 17/45/34 22/50/44
f 20/52/39 22/51/43 24/56/47
f 24/56/48 22/51/44 20/52/40
f 23/57/45 25/58/49 21/59/41
f 21/59/42 25/58/50 23/57/46
f 22/50/43 21/55/41 26/60/51
f 26/60/52 21/55/42 22/50/44
f 26/61/51 24/62/47 22/63/43
f 22/63/44 24/62/48 26/61/52
f 25/58/49 23/57/45 27/64/48
f 27/64/47 23/57/46 25/58/50
f 26/60/51 21/55/41 25/65/49
f 25/65/50 21/55/42 26/60/52
f 24/62/47 26/61/51 28/66/46
f 28/66/45 26/61/52 24/62/48
f 27/67/48 29/68/53 25/69/49
f 25/69/50 29/68/54 27/67/47
f 26/60/51 25/65/49 30/70/55
f 30/70/56 25/65/50 26/60/52
f 30/71/55 28/72/46 26/73/51
f 26/73/52 28/72/45 30/71/56
f 29/68/53 27/67/48 31/74/40
f 31/74/39 27/67/47 29/68/54
f 32/75/57 25/65/49 29/76/53
f 29/76/54 25/65/50 32/75/58
f 30/70/55 25/65/49 32/75/57
f 32/75/58 25/65/50 30/70/56
f 28/72/46 30/71/55 33/77/38
f 33/77/37 30/71/56 28/72/45
f 31/78/40 34/79/59 29/80/53
f 29/80/54 34/79/60 31/78/39
f 32/75/57 29/76/53 34/81/59
f 34/81/60 29/76/54 32/75/58
f 32/82/57 33/83/38 30/84/55
f 30/84/56 33/83/37 32/82/58
f 34/79/59 31/78/40 35/85/30
f 35/85/29 31/78/39 34/79/60
f 32/75/57 34/81/59 36/86/61
f 36/86/62 34/81/60 32/75/58
f 33/83/38 32/82/57 37/87/32
f 37/87/31 32/82/58 33/83/37
f 38/88/24 34/89/59 35/90/30
f 35/90/29 34/89/60 38/88/23
f 36/86/61 34/81/59 39/91/63
f 39/91/64 34/81/60 36/86/62
f 36/92/61 37/93/32 32/94/57
f 32/94/58 37/93/31 36/92/62
f 34/89/59 38/88/24 39/95/63
f 39/95/64 38/88/23 34/89/60
f 36/86/61 39/91/63 40/96/65
f 40/96/66 39/91/64 36/86/62
f 37/93/32 36/92/61 41/97/20
f 41/97/19 36/92/62 37/93/31
f 42/98/22 39/99/63 38/100/24
f 38/100/23 39/99/64 42/98/21
f 40/96/65 39/91/63 43/101/67
f 43/101/68 39/91/64 40/96/66
f 40/102/65 41/103/20 36/104/61
f 36/104/62 41/103/19 40/102/66
f 39/99/63 42/98/22 43/105/67
f 43/105/68 42/98/21 39/99/64
f 40/96/65 43/101/67 44/106/69
f 44/106/70 43/101/68 40/96/66
f 41/103/20 40/102/65 45/107/8
f 45/107/4 40/102/66 41/103/19
f 46/108/12 43/109/67 42/110/22
f 42/110/21 43/109/68 46/108/11
f 44/106/69 43/101/67 47/111/71
f 47/111/72 43/101/68 44/106/70
f 44/112/69 45/113/8 40/114/65
f 40/114/66 45/113/4 44/112/70
f 43/109/67 46/108/12 47/115/71
f 47/115/72 46/108/11 43/109/68
f 47/116/71 48/117/7 44/118/69
f 44/118/70 48/117/1 47/116/72
f 45/113/8 44/112/69 48/119/7
f 48/119/1 44/112/70 45/113/4
f 48/117/7 47/116/71 46/120/12
f 46/120/11 47/116/72 48/117/1
