# SSTK version 0.8.0
# 68
mtllib original-68.mtl
o mesh82/mesh82-geometry#mesh82-geometry
v 0.547401 -0.007523 0.238367
v 0.547401 -0.005675 0.238123
v 0.544764 -0.007523 0.238367
v 0.547401 -0.007523 0.224082
v 0.544764 -0.005675 0.238123
v 0.544764 -0.009372 0.238123
v 0.547401 -0.009372 0.224326
v 0.547401 -0.005675 0.224326
v 0.547401 -0.003952 0.237410
v 0.547401 -0.009372 0.238123
v 0.544764 -0.007523 0.224082
v 0.544764 -0.005675 0.224326
v 0.544764 -0.003952 0.237410
v 0.544764 -0.011094 0.237410
v 0.547401 -0.011094 0.237410
v 0.544764 -0.009372 0.224326
v 0.547401 -0.003952 0.225040
v 0.544764 -0.003952 0.225040
v 0.547401 -0.002473 0.236275
v 0.547401 -0.011094 0.225040
v 0.547401 -0.002473 0.226174
v 0.544764 -0.002473 0.236275
v 0.544764 -0.012574 0.236275
v 0.547401 -0.012574 0.236275
v 0.544764 -0.011094 0.225040
v 0.544764 -0.002473 0.226174
v 0.547401 -0.001338 0.234796
v 0.544764 -0.001338 0.234796
v 0.547401 -0.012574 0.226174
v 0.547401 -0.001338 0.227653
v 0.547401 -0.013708 0.234796
v 0.547401 -0.013708 0.227653
v 0.544764 -0.012574 0.226174
v 0.544764 -0.001338 0.227653
v 0.544764 -0.000625 0.233073
v 0.547401 -0.000625 0.233073
v 0.544764 -0.013708 0.234796
v 0.544764 -0.013708 0.227653
v 0.547401 -0.000625 0.229376
v 0.547401 -0.014422 0.233073
v 0.547401 -0.014422 0.229376
v 0.544764 -0.014422 0.229376
v 0.544764 -0.000625 0.229376
v 0.544764 -0.000381 0.231224
v 0.547401 -0.000381 0.231224
v 0.544764 -0.014422 0.233073
v 0.547401 -0.014666 0.231224
v 0.544764 -0.014666 0.231224
vt 37.7025 2.271105
vt 37.7025 2.288408
vt 37.733088 2.271105
vt 4.747923 2.934259
vt 4.750747 2.917105
vt 4.585045 2.917105
vt 37.733088 2.288408
vt 37.733088 3.507297
vt 37.733088 3.489994
vt 37.7025 3.507297
vt 4.587868 2.89995
vt 4.587868 2.934259
vt 37.7025 0.873378
vt 37.7025 0.890681
vt 37.733088 0.873378
vt 37.7025 3.489994
vt 4.747923 2.89995
vt -40.039549 2.288408
vt -40.039549 2.271105
vt -40.070137 2.288408
vt 4.739647 2.950245
vt -40.039549 3.507297
vt -40.039549 3.489994
vt -40.070137 3.507297
vt 37.733088 0.890681
vt 37.733088 4.464283
vt 37.733088 4.44698
vt 37.7025 4.464283
vt 4.739647 2.883964
vt -40.070137 2.271105
vt -40.070137 3.489994
vt 4.596145 2.950245
vt -40.070137 4.44698
vt -40.070137 4.464283
vt -40.039549 4.44698
vt 37.7025 -0.607934
vt 37.7025 -0.590631
vt 37.733088 -0.607934
vt 37.7025 4.44698
vt 4.596145 2.883964
vt -40.039549 0.890681
vt -40.039549 0.873378
vt -40.070137 0.890681
vt 4.609312 2.963972
vt -40.039549 4.464283
vt 4.72648 2.963972
vt 37.733088 -0.590631
vt 37.733088 5.094149
vt 37.733088 5.076846
vt 37.7025 5.094149
vt 4.72648 2.870237
vt -40.070137 0.873378
vt -40.039549 5.094149
vt -40.039549 5.076846
vt -40.070137 5.094149
vt -40.070137 5.076846
vt 4.709321 2.974505
vt 37.733088 -2.071882
vt 37.7025 -2.071882
vt 37.733088 -2.05458
vt 37.7025 5.076846
vt 4.609312 2.870237
vt -40.039549 -0.590631
vt -40.039549 -0.607934
vt -40.070137 -0.590631
vt -40.039549 5.336667
vt -40.070137 5.336667
vt -40.039549 5.35397
vt 37.7025 -2.05458
vt 4.626471 2.974505
vt 37.7025 5.35397
vt 37.733088 5.35397
vt 37.7025 5.336667
vt 4.626471 2.859704
vt -40.070137 -0.607934
vt -40.070137 5.35397
vt 37.733088 -3.418701
vt 37.7025 -3.418701
vt 37.733088 -3.401399
vt 4.689339 2.981127
vt 37.733088 5.336667
vt 4.709321 2.859704
vt -40.039549 -2.071882
vt -40.070137 -2.071882
vt -40.039549 -2.05458
vt -40.070137 -2.05458
vt -40.039549 5.208737
vt -40.070137 5.208737
vt -40.039549 5.22604
vt 37.7025 -3.401399
vt 4.646453 2.981127
vt 37.7025 5.22604
vt 37.733088 5.22604
vt 37.7025 5.208737
vt 4.646453 2.853083
vt -40.070137 -3.401399
vt -40.039549 -3.401399
vt -40.070137 -3.418701
vt -40.070137 5.22604
vt 37.733088 -4.556607
vt 37.7025 -4.556607
vt 37.733088 -4.539304
vt 4.667896 2.983385
vt 37.733088 5.208737
vt 4.689339 2.853083
vt -40.039549 -3.418701
vt -40.039549 4.701775
vt -40.070137 4.701775
vt -40.039549 4.719077
vt 37.7025 -4.539304
vt 37.7025 4.719077
vt 37.733088 4.719077
vt 37.7025 4.701775
vt 4.667896 2.850824
vt -40.070137 -4.539304
vt -40.039549 -4.539304
vt -40.070137 -4.556607
vt -40.070137 4.719077
vt 37.733088 4.701775
vt -40.039549 -4.556607
vn 0.5350961169460718 0 0.8447911846304008
vn 0.524394003526812 0.3262630021942819 0.7864880052895251
vn 0 0 1
vn 0 0 -1
vn -0.524394003526812 -0.3262630021942819 -0.7864880052895251
vn -0.5350961169460718 0 -0.8447911846304008
vn 0.5350961169460718 0 -0.8447911846304008
vn -0.5350961169460718 0 0.8447911846304008
vn 0 0.38317406375020696 0.9236761536757091
vn 0 -0.38317406375020696 -0.9236761536757091
vn 0 -0.38317406375020696 0.9236761536757091
vn 0 0.38317406375020696 -0.9236761536757091
vn 0.524394003526812 -0.3262630021942819 -0.7864880052895251
vn -0.524394003526812 0.3262630021942819 0.7864880052895251
vn 0.524394003526812 0.3262630021942819 -0.7864880052895251
vn -0.524394003526812 -0.3262630021942819 0.7864880052895251
vn 0.5009097614956306 0.5770517252412144 0.6450586928602146
vn -0.5009097614956306 -0.5770517252412144 -0.6450586928602146
vn 0.524394003526812 -0.3262630021942819 0.7864880052895251
vn -0.524394003526812 0.3262630021942819 -0.7864880052895251
vn 0 0.6667270120900943 0.7453020135149342
vn 0 -0.6667270120900943 -0.7453020135149342
vn 0 -0.6667270120900943 0.7453020135149342
vn 0 0.6667270120900943 -0.7453020135149342
vn 0.5009097614956306 -0.5770517252412144 0.6450586928602146
vn -0.5009097614956306 0.5770517252412144 -0.6450586928602146
vn 0.5009097614956306 0.5770517252412144 -0.6450586928602146
vn -0.5009097614956306 -0.5770517252412144 0.6450586928602146
vn 0.47797606558883615 0.7382121012989479 0.47600606531850875
vn -0.47797606558883615 -0.7382121012989479 -0.47600606531850875
vn 0.5009097614956306 -0.5770517252412144 -0.6450586928602146
vn -0.5009097614956306 0.5770517252412144 0.6450586928602146
vn 0.47797606558883615 0.7382121012989479 -0.47600606531850875
vn -0.47797606558883615 -0.7382121012989479 0.47600606531850875
vn 0 0.8404315523240825 0.541917711334602
vn 0 -0.8404315523240825 -0.541917711334602
vn 0 -0.8404315523240825 0.541917711334602
vn 0 0.8404315523240825 -0.541917711334602
vn 0.47797606558883615 -0.7382121012989479 0.47600606531850875
vn -0.47797606558883615 0.7382121012989479 -0.47600606531850875
vn 0.4615390382682801 0.8314510689393524 0.3093070256460384
vn -0.4615390382682801 -0.8314510689393524 -0.3093070256460384
vn 0 0.9372478133002542 0.34866393054615197
vn 0 -0.9372478133002542 -0.34866393054615197
vn 0.47797606558883615 -0.7382121012989479 -0.47600606531850875
vn -0.47797606558883615 0.7382121012989479 0.47600606531850875
vn 0.4615390382682801 0.8314510689393524 -0.3093070256460384
vn -0.4615390382682801 -0.8314510689393524 0.3093070256460384
vn 0.4615390382682801 -0.8314510689393524 0.3093070256460384
vn -0.4615390382682801 0.8314510689393524 -0.3093070256460384
vn 0.4615390382682801 -0.8314510689393524 -0.3093070256460384
vn -0.4615390382682801 0.8314510689393524 0.3093070256460384
vn 0 0.9372478133002542 -0.34866393054615197
vn 0 -0.9372478133002542 0.34866393054615197
vn 0 0.9854340533514012 0.17005800920694086
vn 0 -0.9854340533514012 -0.17005800920694086
vn 0.45218596421829993 0.8789319304496797 0.15167898799756632
vn -0.45218596421829993 -0.8789319304496797 -0.15167898799756632
vn 0.45218596421829993 0.8789319304496797 -0.15167898799756632
vn -0.45218596421829993 -0.8789319304496797 0.15167898799756632
vn 0.45218596421829993 -0.8789319304496797 0.15167898799756632
vn -0.45218596421829993 0.8789319304496797 -0.15167898799756632
vn 0.45218596421829993 -0.8789319304496797 -0.15167898799756632
vn -0.45218596421829993 0.8789319304496797 0.15167898799756632
vn 0 0.9854340533514012 -0.17005800920694086
vn 0 -0.9854340533514012 0.17005800920694086
vn 0 1 0
vn 0 -1 0
vn 0.449188903269426 0.8934368076028714 0
vn -0.449188903269426 -0.8934368076028714 0
vn 0.449188903269426 -0.8934368076028714 0
vn -0.449188903269426 0.8934368076028714 0
usemtl material_0_0
f 1/1/1 2/2/2 3/3/3
f 3/3/4 2/2/5 1/1/6
f 2/4/2 1/5/1 4/6/7
f 4/6/8 1/5/6 2/4/5
f 5/7/9 3/3/3 2/2/2
f 2/2/5 3/3/4 5/7/10
f 3/8/3 6/9/11 1/10/1
f 1/10/6 6/9/12 3/8/4
f 4/6/7 1/5/1 7/11/13
f 7/11/14 1/5/6 4/6/8
f 8/12/15 2/4/2 4/6/7
f 4/6/8 2/4/5 8/12/16
f 2/13/2 9/14/17 5/15/9
f 5/15/10 9/14/18 2/13/5
f 10/16/19 1/10/1 6/9/11
f 6/9/12 1/10/6 10/16/20
f 1/5/1 10/17/19 7/11/13
f 7/11/14 10/17/20 1/5/6
f 4/18/7 7/19/13 11/20/4
f 11/20/3 7/19/14 4/18/8
f 9/21/17 2/4/2 8/12/15
f 8/12/16 2/4/5 9/21/18
f 8/22/15 4/23/7 12/24/12
f 12/24/11 4/23/8 8/22/16
f 13/25/21 5/15/9 9/14/17
f 9/14/18 5/15/10 13/25/22
f 6/26/11 14/27/23 10/28/19
f 10/28/20 14/27/24 6/26/12
f 10/17/19 15/29/25 7/11/13
f 7/11/14 15/29/26 10/17/20
f 16/30/10 11/20/4 7/19/13
f 7/19/14 11/20/3 16/30/9
f 11/31/4 12/24/12 4/23/7
f 4/23/8 12/24/11 11/31/3
f 17/32/27 9/21/17 8/12/15
f 8/12/16 9/21/18 17/32/28
f 12/33/12 18/34/24 8/35/15
f 8/35/16 18/34/23 12/33/11
f 9/36/17 19/37/29 13/38/21
f 13/38/22 19/37/30 9/36/18
f 15/39/25 10/28/19 14/27/23
f 14/27/24 10/28/20 15/39/26
f 7/11/13 15/29/25 20/40/31
f 20/40/32 15/29/26 7/11/14
f 7/41/13 20/42/31 16/43/10
f 16/43/9 20/42/32 7/41/14
f 21/44/33 9/21/17 17/32/27
f 17/32/28 9/21/18 21/44/34
f 17/45/27 8/35/15 18/34/24
f 18/34/23 8/35/16 17/45/28
f 19/46/29 9/21/17 21/44/33
f 21/44/34 9/21/18 19/46/30
f 22/47/35 13/38/21 19/37/29
f 19/37/30 13/38/22 22/47/36
f 14/48/23 23/49/37 15/50/25
f 15/50/26 23/49/38 14/48/24
f 15/29/25 24/51/39 20/40/31
f 20/40/32 24/51/40 15/29/26
f 25/52/22 16/43/10 20/42/31
f 20/42/32 16/43/9 25/52/21
f 21/53/33 17/54/27 26/55/38
f 26/55/37 17/54/28 21/53/34
f 18/56/24 26/55/38 17/54/27
f 17/54/28 26/55/37 18/56/23
f 27/57/41 19/46/29 21/44/33
f 21/44/34 19/46/30 27/57/42
f 22/58/35 19/59/29 28/60/43
f 28/60/44 19/59/30 22/58/36
f 24/61/39 15/50/25 23/49/37
f 23/49/38 15/50/26 24/61/40
f 20/40/31 24/51/39 29/62/45
f 29/62/46 24/51/40 20/40/32
f 20/63/31 29/64/45 25/65/22
f 25/65/21 29/64/46 20/63/32
f 21/66/33 26/67/38 30/68/47
f 30/68/48 26/67/37 21/66/34
f 27/69/41 28/60/43 19/59/29
f 19/59/30 28/60/44 27/69/42
f 30/70/47 27/57/41 21/44/33
f 21/44/34 27/57/42 30/70/48
f 24/71/39 23/72/37 31/73/49
f 31/73/50 23/72/38 24/71/40
f 29/62/45 24/51/39 32/74/51
f 32/74/52 24/51/40 29/62/46
f 33/75/36 25/65/22 29/64/45
f 29/64/46 25/65/21 33/75/35
f 34/76/53 30/68/47 26/67/38
f 26/67/37 30/68/48 34/76/54
f 28/77/43 27/78/41 35/79/55
f 35/79/56 27/78/42 28/77/44
f 36/80/57 27/57/41 30/70/47
f 30/70/48 27/57/42 36/80/58
f 37/81/54 31/73/49 23/72/37
f 23/72/38 31/73/50 37/81/53
f 24/51/39 31/82/49 32/74/51
f 32/74/52 31/82/50 24/51/40
f 32/83/51 38/84/44 29/85/45
f 29/85/46 38/84/43 32/83/52
f 33/86/36 29/85/45 38/84/44
f 38/84/43 29/85/46 33/86/35
f 30/87/47 34/88/53 39/89/59
f 39/89/60 34/88/54 30/87/48
f 36/90/57 35/79/55 27/78/41
f 27/78/42 35/79/56 36/90/58
f 39/91/59 36/80/57 30/70/47
f 30/70/48 36/80/58 39/91/60
f 31/92/49 37/93/54 40/94/61
f 40/94/62 37/93/53 31/92/50
f 32/74/51 31/82/49 41/95/63
f 41/95/64 31/82/50 32/74/52
f 38/96/44 32/97/51 42/98/56
f 42/98/55 32/97/52 38/96/43
f 43/99/65 39/89/59 34/88/53
f 34/88/54 39/89/60 43/99/66
f 35/100/55 36/101/57 44/102/67
f 44/102/68 36/101/58 35/100/56
f 45/103/69 36/80/57 39/91/59
f 39/91/60 36/80/58 45/103/70
f 46/104/66 40/94/61 37/93/54
f 37/93/53 40/94/62 46/104/65
f 31/82/49 40/105/61 41/95/63
f 41/95/64 40/105/62 31/82/50
f 41/106/63 42/98/56 32/97/51
f 32/97/52 42/98/55 41/106/64
f 39/107/59 43/108/65 45/109/69
f 45/109/70 43/108/66 39/107/60
f 45/110/69 44/102/67 36/101/57
f 36/101/58 44/102/68 45/110/70
f 40/111/61 46/112/66 47/113/71
f 47/113/72 46/112/65 40/111/62
f 47/114/71 41/95/63 40/105/61
f 40/105/62 41/95/64 47/114/72
f 42/115/56 41/116/63 48/117/68
f 48/117/67 41/116/64 42/115/55
f 44/118/67 45/109/69 43/108/65
f 43/108/66 45/109/70 44/118/68
f 48/119/68 47/113/71 46/112/66
f 46/112/65 47/113/72 48/119/67
f 47/120/71 48/117/68 41/116/63
f 41/116/64 48/117/67 47/120/72
