# SSTK version 0.8.0
# 119
mtllib original-119.mtl
o Group30/mesh136/mesh136-geometry#mesh136-geometry
v 0.540527 0.219719 -0.440467
v 0.540527 0.864088 -0.068440
v 0.540527 0.126919 -0.279732
v -0.527286 0.864088 -0.068440
v 0.540527 0.771288 0.092294
v -0.527286 0.219719 -0.440467
v -0.527286 0.771288 0.092294
v 0.502629 0.159740 -0.260783
v -0.527286 0.126919 -0.279732
v 0.502629 0.738467 0.073346
v -0.489388 0.159740 -0.260783
v 0.502629 0.226026 -0.375593
v -0.489388 0.738467 0.073346
v 0.502629 0.804753 -0.041465
v -0.489388 0.226026 -0.375593
v -0.489388 0.804753 -0.041465
vt 0 0.116
vt -0.280623 0.116
vt 0 0.186
vt -0.280623 0.40273
vt 0 0.40273
vt -0.280623 0
vt -0.280623 0.186
vt -0.40273 0.116
vt -0.40273 0.186
vt 0 0
vt 0.40273 0.116
vt 0.280623 0.40273
vt 0.014293 0.388437
vt 0.40273 0.186
vt 0.280623 0.116
vt 0.280623 0.186
vt 0.266329 0.388437
vt 0.014293 0.014293
vt 0.280623 0
vt 0.014293 0.186
vt 0.266329 0.186
vt 0.014293 0.136
vt 0.388437 0.186
vt 0.388437 0.136
vt 0.266329 0.014293
vt 0.266329 0.136
vt -0.014293 0.186
vt -0.014293 0.136
vt -0.388437 0.186
vt -0.388437 0.136
vt -0.266329 0.136
vt -0.266329 0.186
vn 1 0 0
vn -1 0 0
vn 0 0.5000001748438417 -0.8660253028382762
vn 0 -0.5000001748438417 0.8660253028382762
vn 0 -0.8660253028382762 -0.5000001748438417
vn 0 0.8660253028382762 0.5000001748438417
usemtl material_0_0
f 1/1/1 2/2/1 3/3/1
f 3/3/2 2/2/2 1/1/2
f 2/4/3 1/5/3 4/6/3
f 4/6/4 1/5/4 2/4/4
f 5/7/1 3/3/1 2/2/1
f 2/2/2 3/3/2 5/7/2
f 1/8/5 3/9/5 6/1/5
f 6/1/6 3/9/6 1/8/6
f 6/10/3 4/6/3 1/5/3
f 1/5/4 4/6/4 6/10/4
f 4/1/6 7/3/6 2/11/6
f 2/11/5 7/3/5 4/1/5
f 5/12/4 8/13/4 3/5/4
f 3/5/3 8/13/3 5/12/3
f 5/14/6 2/11/6 7/3/6
f 7/3/5 2/11/5 5/14/5
f 9/3/5 6/1/5 3/9/5
f 3/9/6 6/1/6 9/3/6
f 4/15/2 6/1/2 7/16/2
f 7/16/1 6/1/1 4/15/1
f 10/17/4 8/13/4 5/12/4
f 5/12/3 8/13/3 10/17/3
f 11/18/4 3/5/4 8/13/4
f 8/13/3 3/5/3 11/18/3
f 7/19/4 10/17/4 5/12/4
f 5/12/3 10/17/3 7/19/3
f 9/3/2 7/16/2 6/1/2
f 6/1/1 7/16/1 9/3/1
f 3/5/4 11/18/4 9/10/4
f 9/10/3 11/18/3 3/5/3
f 8/20/2 10/21/2 12/22/2
f 12/22/1 10/21/1 8/20/1
f 8/23/6 12/24/6 11/20/6
f 11/20/5 12/24/5 8/23/5
f 10/17/4 7/19/4 13/25/4
f 13/25/3 7/19/3 10/17/3
f 7/19/4 9/10/4 11/18/4
f 11/18/3 9/10/3 7/19/3
f 14/26/2 12/22/2 10/21/2
f 10/21/1 12/22/1 14/26/1
f 15/22/6 11/20/6 12/24/6
f 12/24/5 11/20/5 15/22/5
f 13/25/4 7/19/4 11/18/4
f 11/18/3 7/19/3 13/25/3
f 13/27/5 16/28/5 10/29/5
f 10/29/6 16/28/6 13/27/6
f 14/17/4 16/25/4 12/13/4
f 12/13/3 16/25/3 14/17/3
f 14/30/5 10/29/5 16/28/5
f 16/28/6 10/29/6 14/30/6
f 15/28/1 16/31/1 11/27/1
f 11/27/2 16/31/2 15/28/2
f 15/18/4 12/13/4 16/25/4
f 16/25/3 12/13/3 15/18/3
f 13/32/1 11/27/1 16/31/1
f 16/31/2 11/27/2 13/32/2
