# SSTK version 0.8.0
# 102
mtllib original-102.mtl
o mesh114/mesh114-geometry#mesh114-geometry
v 0.566735 0.188308 -0.307740
v 0.561432 0.188308 -0.307740
v 0.566735 0.190971 -0.304270
v 0.561432 0.184837 -0.310403
v 0.561432 0.190971 -0.304270
v 0.566735 0.176459 -0.312648
v 0.566735 0.184837 -0.310403
v 0.566735 0.192645 -0.300228
v 0.566735 0.172122 -0.312077
v 0.566735 0.180796 -0.312077
v 0.561432 0.180796 -0.312077
v 0.561432 0.192645 -0.300228
v 0.561432 0.172122 -0.312077
v 0.561432 0.176459 -0.312648
v 0.561432 0.193216 -0.295891
v 0.566735 0.168080 -0.310403
v 0.566735 0.193216 -0.295891
v 0.561432 0.168080 -0.310403
v 0.561432 0.192645 -0.291554
v 0.566735 0.164610 -0.307740
v 0.566735 0.192645 -0.291554
v 0.561432 0.164610 -0.307740
v 0.561432 0.190971 -0.287513
v 0.566735 0.161946 -0.304270
v 0.566735 0.190971 -0.287513
v 0.561432 0.161946 -0.304270
v 0.561432 0.188308 -0.284042
v 0.566735 0.160273 -0.300228
v 0.566735 0.188308 -0.284042
v 0.561432 0.160273 -0.300228
v 0.561432 0.184837 -0.281379
v 0.566735 0.159702 -0.295891
v 0.566735 0.184837 -0.281379
v 0.561432 0.159702 -0.295891
v 0.561432 0.180796 -0.279705
v 0.566735 0.160273 -0.291554
v 0.566735 0.180796 -0.279705
v 0.561432 0.160273 -0.291554
v 0.566735 0.176459 -0.279134
v 0.566735 0.161946 -0.287513
v 0.561432 0.161946 -0.287513
v 0.561432 0.176459 -0.279134
v 0.566735 0.172122 -0.279705
v 0.566735 0.164610 -0.284042
v 0.561432 0.164610 -0.284042
v 0.561432 0.172122 -0.279705
v 0.566735 0.168080 -0.281379
v 0.561432 0.168080 -0.281379
vt 10.346912 0.60793
vt 10.297699 0.60793
vt 10.346912 0.649561
vt 10.297699 0.587871
vt 10.346912 0.587871
vt 10.297699 0.547153
vt 10.297699 0.649561
vt -0.594928 0.261706
vt -0.439417 0.261706
vt -0.557422 0.243641
vt 10.346912 0.547153
vt 10.346912 0.618149
vt 10.297699 0.618149
vt 10.346912 0.661313
vt -0.407209 0.290443
vt -0.476923 0.243641
vt -10.297699 -0.475281
vt -10.346912 -0.475281
vt -10.297699 -0.434563
vt -0.517173 0.237479
vt 10.297699 0.661313
vt -0.627136 0.290443
vt -10.346912 -0.110481
vt -10.297699 -0.110481
vt -10.346912 -0.153645
vt -10.346912 -0.282327
vt -10.297699 -0.282327
vt -10.346912 -0.323957
vt -10.346912 -0.434563
vt 10.297699 0.587834
vt 10.297699 0.632704
vt 10.346912 0.587834
vt -0.382495 0.327893
vt -10.346912 0.018133
vt -10.346912 0.063003
vt -10.297699 0.018133
vt -10.297699 -0.153645
vt -10.297699 -0.323957
vt 10.346912 0.632704
vt -0.65185 0.327893
vt -10.297699 0.063003
vt 10.297699 0.527621
vt 10.297699 0.573917
vt 10.346912 0.527621
vt -0.36696 0.371505
vt -10.346912 0.180527
vt -10.346912 0.226824
vt -10.297699 0.180527
vt 10.346912 0.573917
vt -0.667385 0.371505
vt -10.297699 0.226824
vt 10.297699 0.444229
vt 10.297699 0.49133
vt 10.346912 0.444229
vt -0.361661 0.418307
vt -10.346912 0.327863
vt -10.346912 0.374964
vt -10.297699 0.327863
vt 10.346912 0.49133
vt -0.672684 0.418307
vt -10.297699 0.374964
vt 10.297699 0.339973
vt 10.297699 0.387074
vt 10.346912 0.339973
vt -0.36696 0.465109
vt -10.346912 0.456339
vt -10.346912 0.50344
vt -10.297699 0.456339
vt 10.346912 0.387074
vt -0.667385 0.465109
vt -10.297699 0.50344
vt 10.297699 0.214186
vt 10.297699 0.260483
vt 10.346912 0.214186
vt -0.382495 0.508721
vt -10.346912 0.56128
vt -10.346912 0.607577
vt -10.297699 0.56128
vt 10.346912 0.260483
vt -0.65185 0.508721
vt -10.297699 0.607577
vt 10.297699 0.065574
vt 10.297699 0.110444
vt 10.346912 0.065574
vt -0.407209 0.546172
vt -10.346912 0.635275
vt -10.346912 0.680145
vt -10.297699 0.635275
vt 10.346912 0.110444
vt -0.627136 0.546172
vt -10.297699 0.680145
vt 10.346912 -0.104329
vt 10.297699 -0.104329
vt 10.346912 -0.061165
vt -0.439417 0.574908
vt -10.297699 0.667465
vt -10.346912 0.667465
vt -10.297699 0.710629
vt 10.297699 -0.061165
vt -0.594928 0.574908
vt -10.346912 0.710629
vt 10.346912 -0.286525
vt 10.297699 -0.286525
vt 10.346912 -0.244895
vt -0.476923 0.592973
vt -10.297699 0.645363
vt -10.346912 0.645363
vt -10.297699 0.686993
vt 10.297699 -0.244895
vt -0.557422 0.592973
vt -10.346912 0.686993
vt 10.346912 -0.461273
vt 10.297699 -0.461273
vt 10.346912 -0.420555
vt -0.517173 0.599135
vt -10.297699 0.561161
vt -10.346912 0.561161
vt -10.297699 0.601879
vt 10.297699 -0.420555
vt -10.346912 0.601879
vn 0.5010748558239988 0.661068809788385 -0.5584908393034992
vn 0 0.7638846990928904 -0.6453527457846325
vn 0.4870320542008263 0.8087760900070786 -0.3296680366880985
vn -0.4870320542008263 -0.8087760900070786 0.3296680366880985
vn 0 -0.7638846990928904 0.6453527457846325
vn -0.5010748558239988 -0.661068809788385 0.5584908393034992
vn 0 0.5000001748438417 -0.8660253028382762
vn 0 -0.5000001748438417 0.8660253028382762
vn 0 0.9260259054175708 -0.3774599614469964
vn 0 -0.9260259054175708 0.3774599614469964
vn 0.4870322989626768 -0.11888707297831715 -0.8652545311327632
vn -0.4870322989626768 0.11888707297831715 0.8652545311327632
vn 0.5069769147340949 0.430979927515647 -0.7464788744534612
vn -0.5069769147340949 -0.430979927515647 0.7464788744534612
vn 0.47165122519889263 0.8758944182125319 -0.1017550485848929
vn -0.47165122519889263 -0.8758944182125319 0.1017550485848929
vn 0.4716511395611211 -0.34982510351291357 -0.8094242395078584
vn -0.4716511395611211 0.34982510351291357 0.8094242395078584
vn 0.5010748680123875 0.15313295966340554 -0.8517477756419997
vn -0.5010748680123875 -0.15313295966340554 0.8517477756419997
vn 0 0.17694900380431516 -0.9842200211602387
vn 0 -0.17694900380431516 0.9842200211602387
vn 0 0.993319445320107 -0.11539705173424085
vn 0 -0.993319445320107 0.11539705173424085
vn 0 -0.3967231367558446 -0.9179383164257844
vn 0 0.3967231367558446 0.9179383164257844
vn 0 -0.13612299251371204 -0.990691945515412
vn 0 0.13612299251371204 0.990691945515412
vn 0 0.9930096776745725 0.11803296168715603
vn 0 -0.9930096776745725 -0.11803296168715603
vn 0.45943295997466166 -0.5317949536705574 -0.7114179380219833
vn -0.45943295997466166 0.5317949536705574 0.7114179380219833
vn 0.4594327809824729 0.882003579537528 0.10483895002192155
vn -0.4594327809824729 -0.882003579537528 -0.10483895002192155
vn 0 -0.5987248390478167 -0.8009547846833589
vn 0 0.5987248390478167 0.8009547846833589
vn 0 0.9469801564108313 0.3212920530671702
vn 0 -0.9469801564108313 -0.3212920530671702
vn 0.4519711231709613 -0.6705741827445658 -0.5882621603129315
vn -0.4519711231709613 0.6705741827445658 0.5882621603129315
vn 0.4519710760172476 0.8447371420767742 0.286603048203914
vn -0.4519710760172476 -0.8447371420767742 -0.286603048203914
vn 0 -0.7517370129531805 -0.6594630113632073
vn 0 0.7517370129531805 0.6594630113632073
vn 0 0.8660253028382762 0.5000001748438417
vn 0 -0.8660253028382762 -0.5000001748438417
vn 0.4494949592887938 -0.7736059299337404 -0.44664095954728344
vn -0.4494949592887938 0.7736059299337404 0.44664095954728344
vn 0.4494949592887938 0.7736059299337404 0.44664095954728344
vn -0.4494949592887938 -0.7736059299337404 -0.44664095954728344
vn 0.4519710760172476 -0.8447371420767742 -0.286603048203914
vn -0.4519710760172476 0.8447371420767742 0.286603048203914
vn 0.4519711231709613 0.6705741827445658 0.5882621603129315
vn -0.4519711231709613 -0.6705741827445658 -0.5882621603129315
vn 0.4594327809824729 -0.882003579537528 -0.10483895002192155
vn -0.4594327809824729 0.882003579537528 0.10483895002192155
vn 0.45943295997466166 0.5317949536705574 0.7114179380219833
vn -0.45943295997466166 -0.5317949536705574 -0.7114179380219833
vn 0.47165122519889263 -0.8758944182125319 0.1017550485848929
vn -0.47165122519889263 0.8758944182125319 -0.1017550485848929
vn 0.4716511395611211 0.34982510351291357 0.8094242395078584
vn -0.4716511395611211 -0.34982510351291357 -0.8094242395078584
vn 0.4870322989626768 0.11888707297831715 0.8652545311327632
vn -0.4870322989626768 -0.11888707297831715 -0.8652545311327632
vn 0.4870320542008263 -0.8087760900070786 0.3296680366880985
vn -0.4870320542008263 0.8087760900070786 -0.3296680366880985
vn 0.5010748680123875 -0.15313295966340554 0.8517477756419997
vn -0.5010748680123875 0.15313295966340554 -0.8517477756419997
vn 0.5010748558239988 -0.661068809788385 0.5584908393034992
vn -0.5010748558239988 0.661068809788385 -0.5584908393034992
vn 0.5069769147340949 -0.430979927515647 0.7464788744534612
vn -0.5069769147340949 0.430979927515647 -0.7464788744534612
usemtl material_0_0
f 1/1/1 2/2/2 3/3/3
f 3/3/4 2/2/5 1/1/6
f 2/4/2 1/5/1 4/6/7
f 4/6/8 1/5/6 2/4/5
f 5/7/9 3/3/3 2/2/2
f 2/2/5 3/3/4 5/7/10
f 3/8/3 6/9/11 1/10/1
f 1/10/6 6/9/12 3/8/4
f 7/11/13 4/6/7 1/5/1
f 1/5/6 4/6/8 7/11/14
f 3/12/3 5/13/9 8/14/15
f 8/14/16 5/13/10 3/12/4
f 9/15/17 6/9/11 3/8/3
f 3/8/4 6/9/12 9/15/18
f 6/9/11 10/16/19 1/10/1
f 1/10/6 10/16/20 6/9/12
f 4/17/7 7/18/13 11/19/21
f 11/19/22 7/18/14 4/17/8
f 7/20/13 1/10/1 10/16/19
f 10/16/20 1/10/6 7/20/14
f 12/21/23 8/14/15 5/13/9
f 5/13/10 8/14/16 12/21/24
f 8/22/15 9/15/17 3/8/3
f 3/8/4 9/15/18 8/22/16
f 9/23/17 13/24/25 6/25/11
f 6/25/12 13/24/26 9/23/18
f 6/26/11 14/27/27 10/28/19
f 10/28/20 14/27/28 6/26/12
f 10/29/19 11/19/21 7/18/13
f 7/18/14 11/19/22 10/29/20
f 12/30/23 15/31/29 8/32/15
f 8/32/16 15/31/30 12/30/24
f 16/33/31 9/15/17 8/22/15
f 8/22/16 9/15/18 16/33/32
f 9/34/17 16/35/31 13/36/25
f 13/36/26 16/35/32 9/34/18
f 14/37/27 6/25/11 13/24/25
f 13/24/26 6/25/12 14/37/28
f 11/38/21 10/28/19 14/27/27
f 14/27/28 10/28/20 11/38/22
f 17/39/33 8/32/15 15/31/29
f 15/31/30 8/32/16 17/39/34
f 17/40/33 16/33/31 8/22/15
f 8/22/16 16/33/32 17/40/34
f 18/41/35 13/36/25 16/35/31
f 16/35/32 13/36/26 18/41/36
f 15/42/29 19/43/37 17/44/33
f 17/44/34 19/43/38 15/42/30
f 20/45/39 16/33/31 17/40/33
f 17/40/34 16/33/32 20/45/40
f 16/46/31 20/47/39 18/48/35
f 18/48/36 20/47/40 16/46/32
f 21/49/41 17/44/33 19/43/37
f 19/43/38 17/44/34 21/49/42
f 21/50/41 20/45/39 17/40/33
f 17/40/34 20/45/40 21/50/42
f 22/51/43 18/48/35 20/47/39
f 20/47/40 18/48/36 22/51/44
f 19/52/37 23/53/45 21/54/41
f 21/54/42 23/53/46 19/52/38
f 24/55/47 20/45/39 21/50/41
f 21/50/42 20/45/40 24/55/48
f 20/56/39 24/57/47 22/58/43
f 22/58/44 24/57/48 20/56/40
f 25/59/49 21/54/41 23/53/45
f 23/53/46 21/54/42 25/59/50
f 25/60/49 24/55/47 21/50/41
f 21/50/42 24/55/48 25/60/50
f 26/61/46 22/58/43 24/57/47
f 24/57/48 22/58/44 26/61/45
f 23/62/45 27/63/44 25/64/49
f 25/64/50 27/63/43 23/62/46
f 28/65/51 24/55/47 25/60/49
f 25/60/50 24/55/48 28/65/52
f 24/66/47 28/67/51 26/68/46
f 26/68/45 28/67/52 24/66/48
f 29/69/53 25/64/49 27/63/44
f 27/63/43 25/64/50 29/69/54
f 29/70/53 28/65/51 25/60/49
f 25/60/50 28/65/52 29/70/54
f 30/71/38 26/68/46 28/67/51
f 28/67/52 26/68/45 30/71/37
f 27/72/44 31/73/36 29/74/53
f 29/74/54 31/73/35 27/72/43
f 32/75/55 28/65/51 29/70/53
f 29/70/54 28/65/52 32/75/56
f 28/76/51 32/77/55 30/78/38
f 30/78/37 32/77/56 28/76/52
f 33/79/57 29/74/53 31/73/36
f 31/73/35 29/74/54 33/79/58
f 33/80/57 32/75/55 29/70/53
f 29/70/54 32/75/56 33/80/58
f 34/81/30 30/78/38 32/77/55
f 32/77/56 30/78/37 34/81/29
f 31/82/36 35/83/26 33/84/57
f 33/84/58 35/83/25 31/82/35
f 36/85/59 32/75/55 33/80/57
f 33/80/58 32/75/56 36/85/60
f 32/86/55 36/87/59 34/88/30
f 34/88/29 36/87/60 32/86/56
f 37/89/61 33/84/57 35/83/26
f 35/83/25 33/84/58 37/89/62
f 37/90/61 36/85/59 33/80/57
f 33/80/58 36/85/60 37/90/62
f 38/91/24 34/88/30 36/87/59
f 36/87/60 34/88/29 38/91/23
f 37/92/61 35/93/26 39/94/63
f 39/94/64 35/93/25 37/92/62
f 40/95/65 36/85/59 37/90/61
f 37/90/62 36/85/60 40/95/66
f 38/96/24 36/97/59 41/98/10
f 41/98/9 36/97/60 38/96/23
f 42/99/28 39/94/63 35/93/26
f 35/93/25 39/94/64 42/99/27
f 39/100/63 40/95/65 37/90/61
f 37/90/62 40/95/66 39/100/64
f 40/101/65 41/98/10 36/97/59
f 36/97/60 41/98/9 40/101/66
f 39/102/63 42/103/28 43/104/67
f 43/104/68 42/103/27 39/102/64
f 44/105/69 40/95/65 39/100/63
f 39/100/64 40/95/66 44/105/70
f 41/106/10 40/107/65 45/108/5
f 45/108/2 40/107/66 41/106/9
f 46/109/22 43/104/67 42/103/28
f 42/103/27 43/104/68 46/109/21
f 43/110/67 44/105/69 39/100/63
f 39/100/64 44/105/70 43/110/68
f 44/111/69 45/108/5 40/107/65
f 40/107/66 45/108/2 44/111/70
f 43/112/67 46/113/22 47/114/71
f 47/114/72 46/113/21 43/112/68
f 47/115/71 44/105/69 43/110/67
f 43/110/68 44/105/70 47/115/72
f 45/116/5 44/117/69 48/118/8
f 48/118/7 44/117/70 45/116/2
f 48/119/8 47/114/71 46/113/22
f 46/113/21 47/114/72 48/119/7
f 47/120/71 48/118/8 44/117/69
f 44/117/70 48/118/7 47/120/72
