# SSTK version 0.8.0
# 82
mtllib original-82.mtl
o mesh72/mesh72-geometry#mesh72-geometry
v -0.403188 -0.211481 0.039783
v -0.403115 -0.211481 0.043270
v -0.403015 -0.211481 0.041745
v -0.403418 -0.211481 0.044607
v -0.403708 -0.211481 0.038082
v -0.403922 -0.211481 0.045756
v -0.404583 -0.211481 0.036708
v -0.404627 -0.211481 0.046717
v -0.405820 -0.211481 0.035727
v -0.405331 -0.211481 0.040487
v -0.405525 -0.211481 0.039462
v -0.405266 -0.211481 0.041684
v -0.405848 -0.211481 0.038609
v -0.405499 -0.211481 0.047476
v -0.407300 -0.211481 0.035138
v -0.405329 -0.211481 0.042898
v -0.406301 -0.211481 0.037930
v -0.405516 -0.211481 0.043933
v -0.406857 -0.211481 0.037411
v -0.406500 -0.211481 0.048017
v -0.407490 -0.211481 0.037040
v -0.405827 -0.211481 0.044790
v -0.408905 -0.211481 0.034942
v -0.406264 -0.211481 0.045469
v -0.408201 -0.211481 0.036817
v -0.406801 -0.211481 0.045986
v -0.408990 -0.211481 0.036743
v -0.407631 -0.211481 0.048343
v -0.409910 -0.211481 0.035008
v -0.407414 -0.211481 0.046355
v -0.410005 -0.211481 0.036907
v -0.408103 -0.211481 0.046576
v -0.410819 -0.211481 0.035208
v -0.408893 -0.211481 0.048451
v -0.410858 -0.211481 0.037400
v -0.408869 -0.211481 0.046650
v -0.411632 -0.211481 0.035541
v -0.410052 -0.211481 0.046452
v -0.411514 -0.211481 0.038219
v -0.409910 -0.211481 0.048372
v -0.411936 -0.211481 0.039360
v -0.410845 -0.211481 0.048136
v -0.412349 -0.211481 0.036007
v -0.411023 -0.211481 0.045859
v -0.414065 -0.211481 0.039031
v -0.411696 -0.211481 0.047742
v -0.412959 -0.211481 0.036595
v -0.411729 -0.211481 0.044855
v -0.413448 -0.211481 0.037295
v -0.412465 -0.211481 0.047191
v -0.413817 -0.211481 0.038107
v -0.412118 -0.211481 0.043425
v -0.414272 -0.211481 0.043705
v -0.413123 -0.211481 0.046501
v -0.413644 -0.211481 0.045690
v -0.414027 -0.211481 0.044758
vn 0 1 0
vn 0 -1 0
usemtl material_0_0
f 1//1 2//1 3//1
f 2//1 1//1 4//1
f 3//2 2//2 1//2
f 4//2 1//2 2//2
f 4//1 1//1 5//1
f 5//2 1//2 4//2
f 4//1 5//1 6//1
f 6//2 5//2 4//2
f 6//1 5//1 7//1
f 7//2 5//2 6//2
f 6//1 7//1 8//1
f 8//2 7//2 6//2
f 8//1 7//1 9//1
f 9//2 7//2 8//2
f 8//1 9//1 10//1
f 10//2 9//2 8//2
f 10//1 9//1 11//1
f 11//2 9//2 10//2
f 8//1 10//1 12//1
f 12//2 10//2 8//2
f 11//1 9//1 13//1
f 13//2 9//2 11//2
f 12//1 14//1 8//1
f 8//2 14//2 12//2
f 13//1 9//1 15//1
f 15//2 9//2 13//2
f 14//1 12//1 16//1
f 16//2 12//2 14//2
f 13//1 15//1 17//1
f 17//2 15//2 13//2
f 14//1 16//1 18//1
f 18//2 16//2 14//2
f 17//1 15//1 19//1
f 19//2 15//2 17//2
f 14//1 18//1 20//1
f 20//2 18//2 14//2
f 19//1 15//1 21//1
f 21//2 15//2 19//2
f 20//1 18//1 22//1
f 22//2 18//2 20//2
f 21//1 15//1 23//1
f 23//2 15//2 21//2
f 20//1 22//1 24//1
f 24//2 22//2 20//2
f 21//1 23//1 25//1
f 25//2 23//2 21//2
f 20//1 24//1 26//1
f 26//2 24//2 20//2
f 25//1 23//1 27//1
f 27//2 23//2 25//2
f 20//1 26//1 28//1
f 28//2 26//2 20//2
f 27//1 23//1 29//1
f 29//2 23//2 27//2
f 28//1 26//1 30//1
f 30//2 26//2 28//2
f 27//1 29//1 31//1
f 31//2 29//2 27//2
f 28//1 30//1 32//1
f 32//2 30//2 28//2
f 31//1 29//1 33//1
f 33//2 29//2 31//2
f 28//1 32//1 34//1
f 34//2 32//2 28//2
f 31//1 33//1 35//1
f 35//2 33//2 31//2
f 34//1 32//1 36//1
f 36//2 32//2 34//2
f 35//1 33//1 37//1
f 37//2 33//2 35//2
f 34//1 36//1 38//1
f 38//2 36//2 34//2
f 35//1 37//1 39//1
f 39//2 37//2 35//2
f 34//1 38//1 40//1
f 40//2 38//2 34//2
f 39//1 37//1 41//1
f 41//2 37//2 39//2
f 40//1 38//1 42//1
f 42//2 38//2 40//2
f 41//1 37//1 43//1
f 43//2 37//2 41//2
f 42//1 38//1 44//1
f 44//2 38//2 42//2
f 41//1 43//1 45//1
f 45//2 43//2 41//2
f 42//1 44//1 46//1
f 46//2 44//2 42//2
f 45//1 43//1 47//1
f 47//2 43//2 45//2
f 46//1 44//1 48//1
f 48//2 44//2 46//2
f 45//1 47//1 49//1
f 49//2 47//2 45//2
f 46//1 48//1 50//1
f 50//2 48//2 46//2
f 45//1 49//1 51//1
f 51//2 49//2 45//2
f 50//1 48//1 52//1
f 52//2 48//2 50//2
f 50//1 52//1 53//1
f 53//2 52//2 50//2
f 50//1 53//1 54//1
f 54//2 53//2 50//2
f 54//1 53//1 55//1
f 55//2 53//2 54//2
f 55//1 53//1 56//1
f 56//2 53//2 55//2
