# SSTK version 0.8.0
# 51
mtllib original-51.mtl
o mesh45/mesh45-geometry#mesh45-geometry
v 0.088473 -0.211481 0.635459
v 0.090663 -0.211481 0.653301
v 0.090663 -0.211481 0.635459
v 0.088473 -0.211481 0.653301
v 0.088473 -0.211481 0.645633
v 0.088473 -0.211481 0.648177
v 0.083288 -0.211481 0.640376
v 0.086927 -0.211481 0.646692
v 0.085394 -0.211481 0.645171
v 0.080452 -0.211481 0.640376
v 0.082655 -0.211481 0.653301
v 0.079953 -0.211481 0.653301
vn 0 1 0
vn 0 -1 0
usemtl material_0_0
f 1//1 2//1 3//1
f 2//1 1//1 4//1
f 3//2 2//2 1//2
f 4//2 1//2 2//2
f 4//1 1//1 5//1
f 5//2 1//2 4//2
f 4//1 5//1 6//1
f 6//2 5//2 4//2
f 7//1 6//1 5//1
f 5//2 6//2 7//2
f 6//1 7//1 8//1
f 8//2 7//2 6//2
f 8//1 7//1 9//1
f 9//2 7//2 8//2
f 9//1 7//1 10//1
f 10//2 7//2 9//2
f 9//1 11//1 8//1
f 8//2 11//2 9//2
f 11//1 9//1 12//1
f 12//2 9//2 11//2
