# SSTK version 0.8.0
# 75
mtllib original-75.mtl
o mesh66/mesh66-geometry#mesh66-geometry
v 0.203754 -0.211481 0.194050
v 0.201698 -0.211481 0.195466
v 0.203949 -0.211481 0.195235
v 0.203398 -0.211481 0.193015
v 0.202884 -0.211481 0.192130
v 0.202209 -0.211481 0.191395
v 0.201390 -0.211481 0.190817
v 0.201451 -0.211481 0.193969
v 0.201152 -0.211481 0.193358
v 0.200441 -0.211481 0.190405
v 0.200736 -0.211481 0.192837
v 0.200222 -0.211481 0.192422
v 0.199363 -0.211481 0.190157
v 0.199629 -0.211481 0.192125
v 0.198205 -0.211481 0.191888
v 0.198156 -0.211481 0.190075
v 0.196849 -0.211481 0.192112
v 0.196939 -0.211481 0.190164
v 0.195856 -0.211481 0.190431
v 0.195777 -0.211481 0.192782
v 0.194907 -0.211481 0.190876
v 0.195078 -0.211481 0.193779
v 0.194846 -0.211481 0.194979
v 0.194091 -0.211481 0.191498
v 0.194487 -0.211481 0.199312
v 0.193615 -0.211481 0.198195
v 0.195101 -0.211481 0.196259
v 0.193436 -0.211481 0.192253
v 0.195839 -0.211481 0.200669
v 0.193032 -0.211481 0.197133
v 0.195868 -0.211481 0.197614
v 0.192968 -0.211481 0.193093
v 0.197362 -0.211481 0.199256
v 0.192704 -0.211481 0.196090
v 0.197864 -0.211481 0.202452
v 0.192688 -0.211481 0.194018
v 0.199799 -0.211481 0.201393
v 0.192594 -0.211481 0.195028
v 0.200395 -0.211481 0.204697
v 0.201320 -0.211481 0.205884
v 0.201453 -0.211481 0.202835
v 0.202665 -0.211481 0.204095
v 0.203522 -0.211481 0.205272
v 0.204107 -0.211481 0.206468
v 0.192570 -0.211481 0.207989
v 0.204311 -0.211481 0.207214
v 0.192570 -0.211481 0.205884
v 0.204363 -0.211481 0.207989
vn 0 1 0
vn 0 -1 0
usemtl material_0_0
f 1//1 2//1 3//1
f 2//1 1//1 4//1
f 3//2 2//2 1//2
f 4//2 1//2 2//2
f 2//1 4//1 5//1
f 5//2 4//2 2//2
f 2//1 5//1 6//1
f 6//2 5//2 2//2
f 2//1 6//1 7//1
f 7//2 6//2 2//2
f 2//1 7//1 8//1
f 8//2 7//2 2//2
f 8//1 7//1 9//1
f 9//2 7//2 8//2
f 9//1 7//1 10//1
f 10//2 7//2 9//2
f 9//1 10//1 11//1
f 11//2 10//2 9//2
f 11//1 10//1 12//1
f 12//2 10//2 11//2
f 12//1 10//1 13//1
f 13//2 10//2 12//2
f 12//1 13//1 14//1
f 14//2 13//2 12//2
f 14//1 13//1 15//1
f 15//2 13//2 14//2
f 15//1 13//1 16//1
f 16//2 13//2 15//2
f 15//1 16//1 17//1
f 17//2 16//2 15//2
f 17//1 16//1 18//1
f 18//2 16//2 17//2
f 17//1 18//1 19//1
f 19//2 18//2 17//2
f 17//1 19//1 20//1
f 20//2 19//2 17//2
f 20//1 19//1 21//1
f 21//2 19//2 20//2
f 20//1 21//1 22//1
f 22//2 21//2 20//2
f 22//1 21//1 23//1
f 23//2 21//2 22//2
f 23//1 21//1 24//1
f 24//2 21//2 23//2
f 23//1 24//1 25//1
f 25//2 24//2 23//2
f 25//1 24//1 26//1
f 26//2 24//2 25//2
f 25//1 27//1 23//1
f 23//2 27//2 25//2
f 26//1 24//1 28//1
f 28//2 24//2 26//2
f 29//1 27//1 25//1
f 25//2 27//2 29//2
f 26//1 28//1 30//1
f 30//2 28//2 26//2
f 29//1 31//1 27//1
f 27//2 31//2 29//2
f 30//1 28//1 32//1
f 32//2 28//2 30//2
f 29//1 33//1 31//1
f 31//2 33//2 29//2
f 30//1 32//1 34//1
f 34//2 32//2 30//2
f 35//1 33//1 29//1
f 29//2 33//2 35//2
f 34//1 32//1 36//1
f 36//2 32//2 34//2
f 35//1 37//1 33//1
f 33//2 37//2 35//2
f 34//1 36//1 38//1
f 38//2 36//2 34//2
f 39//1 37//1 35//1
f 35//2 37//2 39//2
f 40//1 37//1 39//1
f 39//2 37//2 40//2
f 37//1 40//1 41//1
f 41//2 40//2 37//2
f 40//1 42//1 41//1
f 41//2 42//2 40//2
f 40//1 43//1 42//1
f 42//2 43//2 40//2
f 40//1 44//1 43//1
f 43//2 44//2 40//2
f 45//1 44//1 40//1
f 40//2 44//2 45//2
f 45//1 46//1 44//1
f 44//2 46//2 45//2
f 45//1 40//1 47//1
f 47//2 40//2 45//2
f 46//1 45//1 48//1
f 48//2 45//2 46//2
