# SSTK version 0.8.0
# 9
mtllib original-9.mtl
o mesh8/mesh8-geometry#mesh8-geometry
v -0.334875 -0.182855 0.670502
v -0.334551 -0.183154 0.680741
v -0.334777 -0.183264 0.684480
v -0.332316 -0.182791 0.668304
v -0.335075 -0.183632 0.697077
v -0.333874 -0.183062 0.677579
v -0.336458 -0.183580 0.695305
v -0.334560 -0.183353 0.687532
v -0.332744 -0.182986 0.674993
v -0.336962 -0.182936 0.673255
v -0.333452 -0.183677 0.698626
v -0.331163 -0.182928 0.672983
v -0.337601 -0.183522 0.693311
v -0.333910 -0.183432 0.690243
v -0.329410 -0.182745 0.666734
v -0.338453 -0.183030 0.676490
v -0.332826 -0.183502 0.692611
v -0.329268 -0.182884 0.671477
v -0.339134 -0.183395 0.688981
v -0.331589 -0.183716 0.699954
v -0.326157 -0.182717 0.665792
v -0.339347 -0.183139 0.680207
v -0.331309 -0.183561 0.694637
v -0.327198 -0.182852 0.670401
v -0.339645 -0.183262 0.684407
v -0.329538 -0.183747 0.701018
v -0.324953 -0.182833 0.669756
v -0.329464 -0.183608 0.696261
v -0.322558 -0.182708 0.665477
v -0.327353 -0.183770 0.701778
v -0.322534 -0.182827 0.669541
v -0.327399 -0.183642 0.697420
v -0.320148 -0.182713 0.665625
v -0.325113 -0.183662 0.698116
v -0.319178 -0.182840 0.669988
v -0.325035 -0.183783 0.702235
v -0.317860 -0.182726 0.666068
v -0.322607 -0.183669 0.698348
v -0.316169 -0.182879 0.671329
v -0.322582 -0.183787 0.702387
v -0.315694 -0.182747 0.666805
v -0.320059 -0.183662 0.698114
v -0.313674 -0.182942 0.673482
v -0.320297 -0.183783 0.702249
v -0.313649 -0.182777 0.667838
v -0.318092 -0.183771 0.701836
v -0.311860 -0.183027 0.676365
v -0.317748 -0.183642 0.697411
v -0.311783 -0.182815 0.669134
v -0.315965 -0.183751 0.701148
v -0.310756 -0.183130 0.679890
v -0.315672 -0.183608 0.696240
v -0.310153 -0.182860 0.670663
v -0.313917 -0.183723 0.700185
v -0.310388 -0.183249 0.683969
v -0.313832 -0.183560 0.694601
v -0.310357 -0.183643 0.697463
v -0.312023 -0.183687 0.698954
v -0.308920 -0.183592 0.695712
v -0.310603 -0.183344 0.687215
v -0.312325 -0.183499 0.692531
v -0.308759 -0.182911 0.672425
v -0.311249 -0.183427 0.690069
v -0.307710 -0.183533 0.693701
v -0.307601 -0.182970 0.674419
v -0.306752 -0.183469 0.691488
v -0.306690 -0.183033 0.676600
v -0.306067 -0.183400 0.689133
v -0.306040 -0.183101 0.678923
v -0.305656 -0.183327 0.686634
v -0.305650 -0.183173 0.681387
v -0.305520 -0.183250 0.683993
vn 0 -0.9995729170064638 -0.029222997573644067
vn 0 0.9995729170064638 0.029222997573644067
usemtl material_0_0
f 1//1 2//1 3//1
f 2//1 1//1 4//1
f 3//2 2//2 1//2
f 4//2 1//2 2//2
f 5//1 1//1 3//1
f 3//2 1//2 5//2
f 2//1 4//1 6//1
f 6//2 4//2 2//2
f 7//1 1//1 5//1
f 5//2 1//2 7//2
f 5//1 3//1 8//1
f 8//2 3//2 5//2
f 6//1 4//1 9//1
f 9//2 4//2 6//2
f 7//1 10//1 1//1
f 1//2 10//2 7//2
f 5//1 8//1 11//1
f 11//2 8//2 5//2
f 9//1 4//1 12//1
f 12//2 4//2 9//2
f 13//1 10//1 7//1
f 7//2 10//2 13//2
f 11//1 8//1 14//1
f 14//2 8//2 11//2
f 12//1 4//1 15//1
f 15//2 4//2 12//2
f 13//1 16//1 10//1
f 10//2 16//2 13//2
f 11//1 14//1 17//1
f 17//2 14//2 11//2
f 12//1 15//1 18//1
f 18//2 15//2 12//2
f 19//1 16//1 13//1
f 13//2 16//2 19//2
f 11//1 17//1 20//1
f 20//2 17//2 11//2
f 18//1 15//1 21//1
f 21//2 15//2 18//2
f 19//1 22//1 16//1
f 16//2 22//2 19//2
f 20//1 17//1 23//1
f 23//2 17//2 20//2
f 18//1 21//1 24//1
f 24//2 21//2 18//2
f 22//1 19//1 25//1
f 25//2 19//2 22//2
f 20//1 23//1 26//1
f 26//2 23//2 20//2
f 24//1 21//1 27//1
f 27//2 21//2 24//2
f 26//1 23//1 28//1
f 28//2 23//2 26//2
f 27//1 21//1 29//1
f 29//2 21//2 27//2
f 26//1 28//1 30//1
f 30//2 28//2 26//2
f 27//1 29//1 31//1
f 31//2 29//2 27//2
f 30//1 28//1 32//1
f 32//2 28//2 30//2
f 31//1 29//1 33//1
f 33//2 29//2 31//2
f 30//1 32//1 34//1
f 34//2 32//2 30//2
f 31//1 33//1 35//1
f 35//2 33//2 31//2
f 30//1 34//1 36//1
f 36//2 34//2 30//2
f 35//1 33//1 37//1
f 37//2 33//2 35//2
f 36//1 34//1 38//1
f 38//2 34//2 36//2
f 35//1 37//1 39//1
f 39//2 37//2 35//2
f 36//1 38//1 40//1
f 40//2 38//2 36//2
f 39//1 37//1 41//1
f 41//2 37//2 39//2
f 40//1 38//1 42//1
f 42//2 38//2 40//2
f 39//1 41//1 43//1
f 43//2 41//2 39//2
f 40//1 42//1 44//1
f 44//2 42//2 40//2
f 43//1 41//1 45//1
f 45//2 41//2 43//2
f 44//1 42//1 46//1
f 46//2 42//2 44//2
f 43//1 45//1 47//1
f 47//2 45//2 43//2
f 46//1 42//1 48//1
f 48//2 42//2 46//2
f 47//1 45//1 49//1
f 49//2 45//2 47//2
f 46//1 48//1 50//1
f 50//2 48//2 46//2
f 47//1 49//1 51//1
f 51//2 49//2 47//2
f 50//1 48//1 52//1
f 52//2 48//2 50//2
f 51//1 49//1 53//1
f 53//2 49//2 51//2
f 50//1 52//1 54//1
f 54//2 52//2 50//2
f 51//1 53//1 55//1
f 55//2 53//2 51//2
f 54//1 52//1 56//1
f 56//2 52//2 54//2
f 55//1 53//1 57//1
f 57//2 53//2 55//2
f 54//1 56//1 58//1
f 58//2 56//2 54//2
f 57//1 53//1 59//1
f 59//2 53//2 57//2
f 57//1 60//1 55//1
f 55//2 60//2 57//2
f 58//1 56//1 61//1
f 61//2 56//2 58//2
f 59//1 53//1 62//1
f 62//2 53//2 59//2
f 57//1 63//1 60//1
f 60//2 63//2 57//2
f 58//1 61//1 63//1
f 63//2 61//2 58//2
f 59//1 62//1 64//1
f 64//2 62//2 59//2
f 58//1 63//1 57//1
f 57//2 63//2 58//2
f 64//1 62//1 65//1
f 65//2 62//2 64//2
f 64//1 65//1 66//1
f 66//2 65//2 64//2
f 66//1 65//1 67//1
f 67//2 65//2 66//2
f 66//1 67//1 68//1
f 68//2 67//2 66//2
f 68//1 67//1 69//1
f 69//2 67//2 68//2
f 68//1 69//1 70//1
f 70//2 69//2 68//2
f 70//1 69//1 71//1
f 71//2 69//2 70//2
f 70//1 71//1 72//1
f 72//2 71//2 70//2
