# SSTK version 0.8.0
# 4
mtllib original-4.mtl
o mesh3/mesh3-geometry#mesh3-geometry
v -0.540287 -0.182727 0.666110
v -0.535564 -0.182842 0.670052
v -0.540287 -0.183770 0.701778
v -0.524465 -0.182727 0.666110
v -0.535564 -0.183770 0.701778
v -0.524270 -0.182842 0.670052
v -0.535564 -0.183187 0.681852
v -0.520266 -0.182734 0.666350
v -0.535564 -0.183306 0.685939
v -0.520835 -0.182854 0.670459
v -0.525414 -0.183187 0.681852
v -0.519517 -0.182869 0.670969
v -0.530088 -0.183306 0.685939
v -0.517211 -0.182755 0.667071
v -0.527459 -0.183311 0.686110
v -0.518465 -0.182890 0.671682
v -0.525305 -0.183339 0.687059
v -0.517087 -0.182944 0.673537
v -0.522530 -0.183182 0.681685
v -0.514978 -0.182794 0.668400
v -0.522907 -0.183409 0.689443
v -0.516627 -0.183011 0.675842
v -0.521812 -0.183295 0.685550
v -0.515614 -0.183233 0.683424
v -0.520351 -0.183167 0.681183
v -0.519500 -0.183553 0.694358
v -0.514218 -0.183198 0.682241
v -0.516865 -0.183060 0.677506
v -0.519411 -0.183281 0.685079
v -0.518964 -0.183347 0.687326
v -0.513244 -0.182854 0.670465
v -0.517345 -0.183261 0.684370
v -0.518745 -0.183142 0.680313
v -0.514777 -0.183770 0.701778
v -0.513142 -0.183158 0.680865
v -0.517577 -0.183105 0.679042
v -0.516950 -0.183409 0.689461
v -0.512130 -0.182929 0.673026
v -0.515045 -0.183486 0.692071
v -0.512374 -0.183114 0.679340
v -0.508838 -0.183770 0.701778
v -0.511913 -0.183065 0.677666
v -0.511759 -0.183011 0.675842
vn 0 -0.9995729170064638 -0.029222997573644067
vn 0 0.9995729170064638 0.029222997573644067
usemtl material_0_0
f 1//1 2//1 3//1
f 2//1 1//1 4//1
f 3//2 2//2 1//2
f 4//2 1//2 2//2
f 2//1 5//1 3//1
f 3//2 5//2 2//2
f 2//1 4//1 6//1
f 6//2 4//2 2//2
f 5//1 2//1 7//1
f 7//2 2//2 5//2
f 6//1 4//1 8//1
f 8//2 4//2 6//2
f 5//1 7//1 9//1
f 9//2 7//2 5//2
f 6//1 8//1 10//1
f 10//2 8//2 6//2
f 11//1 9//1 7//1
f 7//2 9//2 11//2
f 10//1 8//1 12//1
f 12//2 8//2 10//2
f 9//1 11//1 13//1
f 13//2 11//2 9//2
f 12//1 8//1 14//1
f 14//2 8//2 12//2
f 13//1 11//1 15//1
f 15//2 11//2 13//2
f 12//1 14//1 16//1
f 16//2 14//2 12//2
f 15//1 11//1 17//1
f 17//2 11//2 15//2
f 16//1 14//1 18//1
f 18//2 14//2 16//2
f 17//1 11//1 19//1
f 19//2 11//2 17//2
f 18//1 14//1 20//1
f 20//2 14//2 18//2
f 17//1 19//1 21//1
f 21//2 19//2 17//2
f 18//1 20//1 22//1
f 22//2 20//2 18//2
f 21//1 19//1 23//1
f 23//2 19//2 21//2
f 22//1 20//1 24//1
f 24//2 20//2 22//2
f 25//1 23//1 19//1
f 19//2 23//2 25//2
f 21//1 23//1 26//1
f 26//2 23//2 21//2
f 24//1 20//1 27//1
f 27//2 20//2 24//2
f 24//1 28//1 22//1
f 22//2 28//2 24//2
f 23//1 25//1 29//1
f 29//2 25//2 23//2
f 26//1 23//1 30//1
f 30//2 23//2 26//2
f 27//1 20//1 31//1
f 31//2 20//2 27//2
f 32//1 28//1 24//1
f 24//2 28//2 32//2
f 29//1 25//1 33//1
f 33//2 25//2 29//2
f 26//1 30//1 34//1
f 34//2 30//2 26//2
f 27//1 31//1 35//1
f 35//2 31//2 27//2
f 32//1 36//1 28//1
f 28//2 36//2 32//2
f 29//1 33//1 32//1
f 32//2 33//2 29//2
f 34//1 30//1 37//1
f 37//2 30//2 34//2
f 35//1 31//1 38//1
f 38//2 31//2 35//2
f 32//1 33//1 36//1
f 36//2 33//2 32//2
f 34//1 37//1 39//1
f 39//2 37//2 34//2
f 35//1 38//1 40//1
f 40//2 38//2 35//2
f 34//1 39//1 41//1
f 41//2 39//2 34//2
f 40//1 38//1 42//1
f 42//2 38//2 40//2
f 42//1 38//1 43//1
f 43//2 38//2 42//2
