# SSTK version 0.8.0
# 104
mtllib original-104.mtl
o mesh93/mesh93-geometry#mesh93-geometry
v -0.428789 -0.211481 0.203664
v -0.426611 -0.211481 0.210066
v -0.426611 -0.211481 0.203664
v -0.426730 -0.211481 0.214000
v -0.426793 -0.211481 0.215238
v -0.426538 -0.211481 0.212938
v -0.428789 -0.211481 0.221506
v -0.426218 -0.211481 0.212052
v -0.426757 -0.211481 0.221506
v -0.425954 -0.211481 0.209349
v -0.426757 -0.211481 0.219875
v -0.425771 -0.211481 0.211343
v -0.426731 -0.211481 0.216366
v -0.425230 -0.211481 0.210800
v -0.426542 -0.211481 0.217339
v -0.425126 -0.211481 0.208782
v -0.426229 -0.211481 0.218158
v -0.424630 -0.211481 0.210412
v -0.426070 -0.211481 0.220716
v -0.424149 -0.211481 0.208412
v -0.425789 -0.211481 0.218822
v -0.423971 -0.211481 0.210180
v -0.425260 -0.211481 0.219336
v -0.423252 -0.211481 0.210102
v -0.425239 -0.211481 0.221317
v -0.423045 -0.211481 0.208289
v -0.424677 -0.211481 0.219703
v -0.422552 -0.211481 0.210177
v -0.424263 -0.211481 0.221678
v -0.421912 -0.211481 0.210400
v -0.424040 -0.211481 0.219923
v -0.421527 -0.211481 0.208499
v -0.423349 -0.211481 0.219997
v -0.421332 -0.211481 0.210773
v -0.423142 -0.211481 0.221798
v -0.420812 -0.211481 0.211295
v -0.422661 -0.211481 0.219920
v -0.420383 -0.211481 0.211977
v -0.422020 -0.211481 0.219689
v -0.420161 -0.211481 0.209128
v -0.421659 -0.211481 0.221585
v -0.420077 -0.211481 0.212831
v -0.421426 -0.211481 0.219305
v -0.419893 -0.211481 0.213857
v -0.420879 -0.211481 0.218767
v -0.419150 -0.211481 0.219925
v -0.420421 -0.211481 0.218074
v -0.419032 -0.211481 0.210152
v -0.419832 -0.211481 0.215055
v -0.420301 -0.211481 0.220946
v -0.418292 -0.211481 0.218567
v -0.419897 -0.211481 0.216218
v -0.420094 -0.211481 0.217225
v -0.418225 -0.211481 0.211544
v -0.417758 -0.211481 0.216925
v -0.417742 -0.211481 0.213210
v -0.417580 -0.211481 0.215055
vn 0 1 0
vn 0 -1 0
usemtl material_0_0
f 1//1 2//1 3//1
f 2//1 1//1 4//1
f 3//2 2//2 1//2
f 4//2 1//2 2//2
f 4//1 1//1 5//1
f 5//2 1//2 4//2
f 6//1 2//1 4//1
f 4//2 2//2 6//2
f 7//1 5//1 1//1
f 1//2 5//2 7//2
f 8//1 2//1 6//1
f 6//2 2//2 8//2
f 9//1 5//1 7//1
f 7//2 5//2 9//2
f 8//1 10//1 2//1
f 2//2 10//2 8//2
f 11//1 5//1 9//1
f 9//2 5//2 11//2
f 12//1 10//1 8//1
f 8//2 10//2 12//2
f 11//1 13//1 5//1
f 5//2 13//2 11//2
f 14//1 10//1 12//1
f 12//2 10//2 14//2
f 11//1 15//1 13//1
f 13//2 15//2 11//2
f 14//1 16//1 10//1
f 10//2 16//2 14//2
f 11//1 17//1 15//1
f 15//2 17//2 11//2
f 18//1 16//1 14//1
f 14//2 16//2 18//2
f 19//1 17//1 11//1
f 11//2 17//2 19//2
f 18//1 20//1 16//1
f 16//2 20//2 18//2
f 19//1 21//1 17//1
f 17//2 21//2 19//2
f 22//1 20//1 18//1
f 18//2 20//2 22//2
f 19//1 23//1 21//1
f 21//2 23//2 19//2
f 24//1 20//1 22//1
f 22//2 20//2 24//2
f 25//1 23//1 19//1
f 19//2 23//2 25//2
f 24//1 26//1 20//1
f 20//2 26//2 24//2
f 25//1 27//1 23//1
f 23//2 27//2 25//2
f 28//1 26//1 24//1
f 24//2 26//2 28//2
f 29//1 27//1 25//1
f 25//2 27//2 29//2
f 30//1 26//1 28//1
f 28//2 26//2 30//2
f 29//1 31//1 27//1
f 27//2 31//2 29//2
f 30//1 32//1 26//1
f 26//2 32//2 30//2
f 29//1 33//1 31//1
f 31//2 33//2 29//2
f 34//1 32//1 30//1
f 30//2 32//2 34//2
f 35//1 33//1 29//1
f 29//2 33//2 35//2
f 36//1 32//1 34//1
f 34//2 32//2 36//2
f 35//1 37//1 33//1
f 33//2 37//2 35//2
f 38//1 32//1 36//1
f 36//2 32//2 38//2
f 35//1 39//1 37//1
f 37//2 39//2 35//2
f 38//1 40//1 32//1
f 32//2 40//2 38//2
f 41//1 39//1 35//1
f 35//2 39//2 41//2
f 42//1 40//1 38//1
f 38//2 40//2 42//2
f 41//1 43//1 39//1
f 39//2 43//2 41//2
f 44//1 40//1 42//1
f 42//2 40//2 44//2
f 41//1 45//1 43//1
f 43//2 45//2 41//2
f 46//1 40//1 44//1
f 44//2 40//2 46//2
f 41//1 47//1 45//1
f 45//2 47//2 41//2
f 46//1 48//1 40//1
f 40//2 48//2 46//2
f 46//1 44//1 49//1
f 49//2 44//2 46//2
f 50//1 47//1 41//1
f 41//2 47//2 50//2
f 51//1 48//1 46//1
f 46//2 48//2 51//2
f 52//1 46//1 49//1
f 49//2 46//2 52//2
f 50//1 53//1 47//1
f 47//2 53//2 50//2
f 51//1 54//1 48//1
f 48//2 54//2 51//2
f 46//1 52//1 50//1
f 50//2 52//2 46//2
f 50//1 52//1 53//1
f 53//2 52//2 50//2
f 55//1 54//1 51//1
f 51//2 54//2 55//2
f 55//1 56//1 54//1
f 54//2 56//2 55//2
f 56//1 55//1 57//1
f 57//2 55//2 56//2
