# SSTK version 0.8.0
# 60
mtllib original-60.mtl
o mesh53/mesh53-geometry#mesh53-geometry
v -0.310535 -0.211481 0.635653
v -0.310217 -0.211481 0.641954
v -0.309633 -0.211481 0.636441
v -0.310338 -0.211481 0.640153
v -0.310518 -0.211481 0.647166
v -0.310678 -0.211481 0.638631
v -0.319856 -0.211481 0.641954
v -0.309614 -0.211481 0.646402
v -0.310338 -0.211481 0.642956
v -0.311562 -0.211481 0.635090
v -0.317555 -0.211481 0.640153
v -0.308898 -0.211481 0.637432
v -0.310579 -0.211481 0.643834
v -0.311020 -0.211481 0.637998
v -0.318225 -0.211481 0.636404
v -0.308887 -0.211481 0.645441
v -0.311569 -0.211481 0.647712
v -0.311476 -0.211481 0.637451
v -0.317344 -0.211481 0.635632
v -0.318944 -0.211481 0.637376
v -0.308373 -0.211481 0.638607
v -0.310940 -0.211481 0.644587
v -0.312021 -0.211481 0.637009
v -0.317276 -0.211481 0.638726
v -0.319457 -0.211481 0.638528
v -0.308368 -0.211481 0.644304
v -0.311422 -0.211481 0.645215
v -0.312713 -0.211481 0.634752
v -0.316728 -0.211481 0.637706
v -0.319765 -0.211481 0.639859
v -0.308058 -0.211481 0.639964
v -0.311997 -0.211481 0.645711
v -0.312625 -0.211481 0.636693
v -0.316345 -0.211481 0.635081
v -0.319868 -0.211481 0.641370
v -0.308057 -0.211481 0.642992
v -0.312767 -0.211481 0.648039
v -0.314014 -0.211481 0.636441
v -0.316166 -0.211481 0.637153
v -0.307953 -0.211481 0.641503
v -0.312639 -0.211481 0.646064
v -0.313990 -0.211481 0.634639
v -0.315526 -0.211481 0.636757
v -0.313348 -0.211481 0.646277
v -0.315226 -0.211481 0.634750
v -0.314111 -0.211481 0.648149
v -0.314809 -0.211481 0.636520
v -0.314123 -0.211481 0.646347
v -0.315187 -0.211481 0.648080
v -0.315240 -0.211481 0.646189
v -0.316162 -0.211481 0.647875
v -0.316180 -0.211481 0.645714
v -0.317037 -0.211481 0.647532
v -0.316944 -0.211481 0.644893
v -0.317531 -0.211481 0.643694
v -0.317811 -0.211481 0.647053
v -0.319795 -0.211481 0.643974
v -0.318478 -0.211481 0.646450
v -0.319031 -0.211481 0.645736
v -0.319470 -0.211481 0.644910
vn 0 1 0
vn 0 -1 0
usemtl material_0_0
f 1//1 2//1 3//1
f 2//1 1//1 4//1
f 3//2 2//2 1//2
f 4//2 1//2 2//2
f 5//1 3//1 2//1
f 2//2 3//2 5//2
f 4//1 1//1 6//1
f 6//2 1//2 4//2
f 4//1 7//1 2//1
f 2//2 7//2 4//2
f 8//1 3//1 5//1
f 5//2 3//2 8//2
f 5//1 2//1 9//1
f 9//2 2//2 5//2
f 6//1 1//1 10//1
f 10//2 1//2 6//2
f 7//1 4//1 11//1
f 11//2 4//2 7//2
f 8//1 12//1 3//1
f 3//2 12//2 8//2
f 5//1 9//1 13//1
f 13//2 9//2 5//2
f 6//1 10//1 14//1
f 14//2 10//2 6//2
f 7//1 11//1 15//1
f 15//2 11//2 7//2
f 16//1 12//1 8//1
f 8//2 12//2 16//2
f 5//1 13//1 17//1
f 17//2 13//2 5//2
f 14//1 10//1 18//1
f 18//2 10//2 14//2
f 11//1 19//1 15//1
f 15//2 19//2 11//2
f 7//1 15//1 20//1
f 20//2 15//2 7//2
f 16//1 21//1 12//1
f 12//2 21//2 16//2
f 17//1 13//1 22//1
f 22//2 13//2 17//2
f 18//1 10//1 23//1
f 23//2 10//2 18//2
f 24//1 19//1 11//1
f 11//2 19//2 24//2
f 7//1 20//1 25//1
f 25//2 20//2 7//2
f 26//1 21//1 16//1
f 16//2 21//2 26//2
f 17//1 22//1 27//1
f 27//2 22//2 17//2
f 23//1 10//1 28//1
f 28//2 10//2 23//2
f 29//1 19//1 24//1
f 24//2 19//2 29//2
f 7//1 25//1 30//1
f 30//2 25//2 7//2
f 26//1 31//1 21//1
f 21//2 31//2 26//2
f 17//1 27//1 32//1
f 32//2 27//2 17//2
f 23//1 28//1 33//1
f 33//2 28//2 23//2
f 29//1 34//1 19//1
f 19//2 34//2 29//2
f 7//1 30//1 35//1
f 35//2 30//2 7//2
f 36//1 31//1 26//1
f 26//2 31//2 36//2
f 17//1 32//1 37//1
f 37//2 32//2 17//2
f 33//1 28//1 38//1
f 38//2 28//2 33//2
f 39//1 34//1 29//1
f 29//2 34//2 39//2
f 31//1 36//1 40//1
f 40//2 36//2 31//2
f 37//1 32//1 41//1
f 41//2 32//2 37//2
f 38//1 28//1 42//1
f 42//2 28//2 38//2
f 43//1 34//1 39//1
f 39//2 34//2 43//2
f 37//1 41//1 44//1
f 44//2 41//2 37//2
f 38//1 42//1 45//1
f 45//2 42//2 38//2
f 43//1 45//1 34//1
f 34//2 45//2 43//2
f 37//1 44//1 46//1
f 46//2 44//2 37//2
f 38//1 45//1 47//1
f 47//2 45//2 38//2
f 47//1 45//1 43//1
f 43//2 45//2 47//2
f 46//1 44//1 48//1
f 48//2 44//2 46//2
f 46//1 48//1 49//1
f 49//2 48//2 46//2
f 49//1 48//1 50//1
f 50//2 48//2 49//2
f 49//1 50//1 51//1
f 51//2 50//2 49//2
f 51//1 50//1 52//1
f 52//2 50//2 51//2
f 51//1 52//1 53//1
f 53//2 52//2 51//2
f 53//1 52//1 54//1
f 54//2 52//2 53//2
f 53//1 54//1 55//1
f 55//2 54//2 53//2
f 53//1 55//1 56//1
f 56//2 55//2 53//2
f 56//1 55//1 57//1
f 57//2 55//2 56//2
f 56//1 57//1 58//1
f 58//2 57//2 56//2
f 58//1 57//1 59//1
f 59//2 57//2 58//2
f 59//1 57//1 60//1
f 60//2 57//2 59//2
