# SSTK version 0.8.0
# 66
mtllib original-66.mtl
o mesh58/mesh58-geometry#mesh58-geometry
v -0.084059 -0.211481 0.640730
v -0.081856 -0.211481 0.642434
v -0.081856 -0.211481 0.640730
v -0.084059 -0.211481 0.642434
v -0.081856 -0.211481 0.649991
v -0.081856 -0.211481 0.636215
v -0.081661 -0.211481 0.653731
v -0.080870 -0.211481 0.653448
v -0.081972 -0.211481 0.651196
v -0.080310 -0.211481 0.653011
v -0.082720 -0.211481 0.653825
v -0.079945 -0.211481 0.652456
v -0.082349 -0.211481 0.651622
v -0.079745 -0.211481 0.651502
v -0.083097 -0.211481 0.651781
v -0.079678 -0.211481 0.649870
v -0.084375 -0.211481 0.653630
v -0.079678 -0.211481 0.642434
v -0.084059 -0.211481 0.651695
v -0.079678 -0.211481 0.640730
v -0.079678 -0.211481 0.637529
v -0.078071 -0.211481 0.642434
v -0.078071 -0.211481 0.640730
vn 0 1 0
vn 0 -1 0
usemtl material_0_0
f 1//1 2//1 3//1
f 2//1 1//1 4//1
f 3//2 2//2 1//2
f 4//2 1//2 2//2
f 5//1 3//1 2//1
f 2//2 3//2 5//2
f 5//1 6//1 3//1
f 3//2 6//2 5//2
f 7//1 6//1 5//1
f 5//2 6//2 7//2
f 8//1 6//1 7//1
f 7//2 6//2 8//2
f 7//1 5//1 9//1
f 9//2 5//2 7//2
f 10//1 6//1 8//1
f 8//2 6//2 10//2
f 7//1 9//1 11//1
f 11//2 9//2 7//2
f 12//1 6//1 10//1
f 10//2 6//2 12//2
f 11//1 9//1 13//1
f 13//2 9//2 11//2
f 14//1 6//1 12//1
f 12//2 6//2 14//2
f 11//1 13//1 15//1
f 15//2 13//2 11//2
f 16//1 6//1 14//1
f 14//2 6//2 16//2
f 11//1 15//1 17//1
f 17//2 15//2 11//2
f 18//1 6//1 16//1
f 16//2 6//2 18//2
f 17//1 15//1 19//1
f 19//2 15//2 17//2
f 20//1 6//1 18//1
f 18//2 6//2 20//2
f 6//1 20//1 21//1
f 21//2 20//2 6//2
f 22//1 20//1 18//1
f 18//2 20//2 22//2
f 20//1 22//1 23//1
f 23//2 22//2 20//2
