# SSTK version 0.8.0
# 101
mtllib original-101.mtl
o mesh90/mesh90-geometry#mesh90-geometry
v -0.383251 -0.211481 0.213129
v -0.383178 -0.211481 0.216617
v -0.383077 -0.211481 0.215092
v -0.383481 -0.211481 0.217953
v -0.383771 -0.211481 0.211429
v -0.383984 -0.211481 0.219102
v -0.384646 -0.211481 0.210055
v -0.384690 -0.211481 0.220064
v -0.385883 -0.211481 0.209074
v -0.385394 -0.211481 0.213833
v -0.385588 -0.211481 0.212808
v -0.385329 -0.211481 0.215031
v -0.385911 -0.211481 0.211956
v -0.385561 -0.211481 0.220822
v -0.387363 -0.211481 0.208485
v -0.385391 -0.211481 0.216244
v -0.386363 -0.211481 0.211277
v -0.385578 -0.211481 0.217280
v -0.386919 -0.211481 0.210757
v -0.386563 -0.211481 0.221364
v -0.387553 -0.211481 0.210387
v -0.385890 -0.211481 0.218137
v -0.388968 -0.211481 0.208289
v -0.386327 -0.211481 0.218816
v -0.388264 -0.211481 0.210164
v -0.386864 -0.211481 0.219333
v -0.389053 -0.211481 0.210090
v -0.387694 -0.211481 0.221689
v -0.389973 -0.211481 0.208355
v -0.387477 -0.211481 0.219701
v -0.390068 -0.211481 0.210254
v -0.388166 -0.211481 0.219923
v -0.390882 -0.211481 0.208555
v -0.388956 -0.211481 0.221798
v -0.390921 -0.211481 0.210747
v -0.388931 -0.211481 0.219997
v -0.391695 -0.211481 0.208888
v -0.390115 -0.211481 0.219799
v -0.391577 -0.211481 0.211566
v -0.389973 -0.211481 0.221719
v -0.391998 -0.211481 0.212707
v -0.390907 -0.211481 0.221483
v -0.392412 -0.211481 0.209354
v -0.391085 -0.211481 0.219206
v -0.394128 -0.211481 0.212378
v -0.391759 -0.211481 0.221089
v -0.393021 -0.211481 0.209942
v -0.391791 -0.211481 0.218201
v -0.393510 -0.211481 0.210642
v -0.392528 -0.211481 0.220538
v -0.393879 -0.211481 0.211454
v -0.392181 -0.211481 0.216771
v -0.394335 -0.211481 0.217051
v -0.393186 -0.211481 0.219848
v -0.393707 -0.211481 0.219037
v -0.394090 -0.211481 0.218104
vn 0 1 0
vn 0 -1 0
usemtl material_0_0
f 1//1 2//1 3//1
f 2//1 1//1 4//1
f 3//2 2//2 1//2
f 4//2 1//2 2//2
f 4//1 1//1 5//1
f 5//2 1//2 4//2
f 4//1 5//1 6//1
f 6//2 5//2 4//2
f 6//1 5//1 7//1
f 7//2 5//2 6//2
f 6//1 7//1 8//1
f 8//2 7//2 6//2
f 8//1 7//1 9//1
f 9//2 7//2 8//2
f 8//1 9//1 10//1
f 10//2 9//2 8//2
f 10//1 9//1 11//1
f 11//2 9//2 10//2
f 8//1 10//1 12//1
f 12//2 10//2 8//2
f 11//1 9//1 13//1
f 13//2 9//2 11//2
f 12//1 14//1 8//1
f 8//2 14//2 12//2
f 13//1 9//1 15//1
f 15//2 9//2 13//2
f 14//1 12//1 16//1
f 16//2 12//2 14//2
f 13//1 15//1 17//1
f 17//2 15//2 13//2
f 14//1 16//1 18//1
f 18//2 16//2 14//2
f 17//1 15//1 19//1
f 19//2 15//2 17//2
f 14//1 18//1 20//1
f 20//2 18//2 14//2
f 19//1 15//1 21//1
f 21//2 15//2 19//2
f 20//1 18//1 22//1
f 22//2 18//2 20//2
f 21//1 15//1 23//1
f 23//2 15//2 21//2
f 20//1 22//1 24//1
f 24//2 22//2 20//2
f 21//1 23//1 25//1
f 25//2 23//2 21//2
f 20//1 24//1 26//1
f 26//2 24//2 20//2
f 25//1 23//1 27//1
f 27//2 23//2 25//2
f 20//1 26//1 28//1
f 28//2 26//2 20//2
f 27//1 23//1 29//1
f 29//2 23//2 27//2
f 28//1 26//1 30//1
f 30//2 26//2 28//2
f 27//1 29//1 31//1
f 31//2 29//2 27//2
f 28//1 30//1 32//1
f 32//2 30//2 28//2
f 31//1 29//1 33//1
f 33//2 29//2 31//2
f 28//1 32//1 34//1
f 34//2 32//2 28//2
f 31//1 33//1 35//1
f 35//2 33//2 31//2
f 34//1 32//1 36//1
f 36//2 32//2 34//2
f 35//1 33//1 37//1
f 37//2 33//2 35//2
f 34//1 36//1 38//1
f 38//2 36//2 34//2
f 35//1 37//1 39//1
f 39//2 37//2 35//2
f 34//1 38//1 40//1
f 40//2 38//2 34//2
f 39//1 37//1 41//1
f 41//2 37//2 39//2
f 40//1 38//1 42//1
f 42//2 38//2 40//2
f 41//1 37//1 43//1
f 43//2 37//2 41//2
f 42//1 38//1 44//1
f 44//2 38//2 42//2
f 41//1 43//1 45//1
f 45//2 43//2 41//2
f 42//1 44//1 46//1
f 46//2 44//2 42//2
f 45//1 43//1 47//1
f 47//2 43//2 45//2
f 46//1 44//1 48//1
f 48//2 44//2 46//2
f 45//1 47//1 49//1
f 49//2 47//2 45//2
f 46//1 48//1 50//1
f 50//2 48//2 46//2
f 45//1 49//1 51//1
f 51//2 49//2 45//2
f 50//1 48//1 52//1
f 52//2 48//2 50//2
f 50//1 52//1 53//1
f 53//2 52//2 50//2
f 50//1 53//1 54//1
f 54//2 53//2 50//2
f 54//1 53//1 55//1
f 55//2 53//2 54//2
f 55//1 53//1 56//1
f 56//2 53//2 55//2
