# SSTK version 0.8.0
# 102
mtllib original-102.mtl
o mesh91/mesh91-geometry#mesh91-geometry
v -0.397775 -0.211481 0.214687
v -0.397880 -0.211481 0.217491
v -0.397804 -0.211481 0.218037
v -0.398607 -0.211481 0.214386
v -0.397244 -0.211481 0.221212
v -0.398108 -0.211481 0.216997
v -0.397031 -0.211481 0.215104
v -0.398001 -0.211481 0.221538
v -0.398476 -0.211481 0.216584
v -0.396611 -0.211481 0.220757
v -0.397969 -0.211481 0.218840
v -0.398972 -0.211481 0.216285
v -0.396398 -0.211481 0.215656
v -0.398467 -0.211481 0.219498
v -0.400554 -0.211481 0.214057
v -0.396110 -0.211481 0.220201
v -0.398881 -0.211481 0.221733
v -0.400883 -0.211481 0.215846
v -0.395899 -0.211481 0.216364
v -0.399284 -0.211481 0.219936
v -0.402857 -0.211481 0.213711
v -0.395753 -0.211481 0.219572
v -0.399885 -0.211481 0.221798
v -0.402970 -0.211481 0.215469
v -0.395575 -0.211481 0.217190
v -0.400408 -0.211481 0.220082
v -0.404461 -0.211481 0.213303
v -0.395538 -0.211481 0.218871
v -0.401134 -0.211481 0.221691
v -0.404461 -0.211481 0.215019
v -0.395467 -0.211481 0.218098
v -0.401604 -0.211481 0.219943
v -0.404473 -0.211481 0.212731
v -0.402301 -0.211481 0.221372
v -0.404461 -0.211481 0.215822
v -0.402660 -0.211481 0.219528
v -0.404643 -0.211481 0.219911
v -0.403449 -0.211481 0.220794
v -0.404373 -0.211481 0.217094
v -0.405261 -0.211481 0.209118
v -0.403515 -0.211481 0.218872
v -0.404108 -0.211481 0.218013
v -0.404363 -0.211481 0.208678
v -0.404802 -0.211481 0.220766
v -0.404318 -0.211481 0.211590
v -0.405081 -0.211481 0.221506
v -0.403852 -0.211481 0.210844
v -0.406816 -0.211481 0.219954
v -0.403174 -0.211481 0.208386
v -0.405885 -0.211481 0.209658
v -0.407024 -0.211481 0.220747
v -0.402809 -0.211481 0.210288
v -0.406298 -0.211481 0.210326
v -0.407369 -0.211481 0.221506
v -0.401674 -0.211481 0.208289
v -0.406676 -0.211481 0.216090
v -0.401357 -0.211481 0.210102
v -0.406566 -0.211481 0.211149
v -0.400107 -0.211481 0.208403
v -0.406676 -0.211481 0.213169
v -0.400014 -0.211481 0.210237
v -0.399075 -0.211481 0.210644
v -0.398741 -0.211481 0.208745
v -0.398435 -0.211481 0.211394
v -0.397986 -0.211481 0.212560
v -0.397624 -0.211481 0.209299
v -0.396806 -0.211481 0.210047
v -0.396231 -0.211481 0.211025
v -0.395844 -0.211481 0.212268
vn 0 1 0
vn 0 -1 0
usemtl material_0_0
f 1//1 2//1 3//1
f 2//1 1//1 4//1
f 3//2 2//2 1//2
f 4//2 1//2 2//2
f 5//1 1//1 3//1
f 3//2 1//2 5//2
f 2//1 4//1 6//1
f 6//2 4//2 2//2
f 5//1 7//1 1//1
f 1//2 7//2 5//2
f 5//1 3//1 8//1
f 8//2 3//2 5//2
f 6//1 4//1 9//1
f 9//2 4//2 6//2
f 10//1 7//1 5//1
f 5//2 7//2 10//2
f 8//1 3//1 11//1
f 11//2 3//2 8//2
f 9//1 4//1 12//1
f 12//2 4//2 9//2
f 10//1 13//1 7//1
f 7//2 13//2 10//2
f 8//1 11//1 14//1
f 14//2 11//2 8//2
f 12//1 4//1 15//1
f 15//2 4//2 12//2
f 16//1 13//1 10//1
f 10//2 13//2 16//2
f 8//1 14//1 17//1
f 17//2 14//2 8//2
f 12//1 15//1 18//1
f 18//2 15//2 12//2
f 16//1 19//1 13//1
f 13//2 19//2 16//2
f 17//1 14//1 20//1
f 20//2 14//2 17//2
f 18//1 15//1 21//1
f 21//2 15//2 18//2
f 22//1 19//1 16//1
f 16//2 19//2 22//2
f 17//1 20//1 23//1
f 23//2 20//2 17//2
f 18//1 21//1 24//1
f 24//2 21//2 18//2
f 22//1 25//1 19//1
f 19//2 25//2 22//2
f 23//1 20//1 26//1
f 26//2 20//2 23//2
f 24//1 21//1 27//1
f 27//2 21//2 24//2
f 28//1 25//1 22//1
f 22//2 25//2 28//2
f 23//1 26//1 29//1
f 29//2 26//2 23//2
f 24//1 27//1 30//1
f 30//2 27//2 24//2
f 25//1 28//1 31//1
f 31//2 28//2 25//2
f 29//1 26//1 32//1
f 32//2 26//2 29//2
f 30//1 27//1 33//1
f 33//2 27//2 30//2
f 29//1 32//1 34//1
f 34//2 32//2 29//2
f 30//1 33//1 35//1
f 35//2 33//2 30//2
f 34//1 32//1 36//1
f 36//2 32//2 34//2
f 37//1 35//1 33//1
f 33//2 35//2 37//2
f 34//1 36//1 38//1
f 38//2 36//2 34//2
f 37//1 39//1 35//1
f 35//2 39//2 37//2
f 33//1 40//1 37//1
f 37//2 40//2 33//2
f 38//1 36//1 41//1
f 41//2 36//2 38//2
f 37//1 42//1 39//1
f 39//2 42//2 37//2
f 33//1 43//1 40//1
f 40//2 43//2 33//2
f 37//1 40//1 44//1
f 44//2 40//2 37//2
f 38//1 41//1 37//1
f 37//2 41//2 38//2
f 37//1 41//1 42//1
f 42//2 41//2 37//2
f 45//1 43//1 33//1
f 33//2 43//2 45//2
f 44//1 40//1 46//1
f 46//2 40//2 44//2
f 47//1 43//1 45//1
f 45//2 43//2 47//2
f 46//1 40//1 48//1
f 48//2 40//2 46//2
f 47//1 49//1 43//1
f 43//2 49//2 47//2
f 48//1 40//1 50//1
f 50//2 40//2 48//2
f 46//1 48//1 51//1
f 51//2 48//2 46//2
f 52//1 49//1 47//1
f 47//2 49//2 52//2
f 48//1 50//1 53//1
f 53//2 50//2 48//2
f 46//1 51//1 54//1
f 54//2 51//2 46//2
f 52//1 55//1 49//1
f 49//2 55//2 52//2
f 48//1 53//1 56//1
f 56//2 53//2 48//2
f 57//1 55//1 52//1
f 52//2 55//2 57//2
f 56//1 53//1 58//1
f 58//2 53//2 56//2
f 57//1 59//1 55//1
f 55//2 59//2 57//2
f 56//1 58//1 60//1
f 60//2 58//2 56//2
f 61//1 59//1 57//1
f 57//2 59//2 61//2
f 62//1 59//1 61//1
f 61//2 59//2 62//2
f 62//1 63//1 59//1
f 59//2 63//2 62//2
f 64//1 63//1 62//1
f 62//2 63//2 64//2
f 65//1 63//1 64//1
f 64//2 63//2 65//2
f 65//1 66//1 63//1
f 63//2 66//2 65//2
f 65//1 67//1 66//1
f 66//2 67//2 65//2
f 65//1 68//1 67//1
f 67//2 68//2 65//2
f 68//1 65//1 69//1
f 69//2 65//2 68//2
