# SSTK version 0.8.0
# 23
mtllib original-23.mtl
o #ID5
v -0.081385 -0.407722 0.681538
v -0.081452 -0.412374 0.681538
v -0.081628 -0.410117 0.681538
v -0.080925 -0.414349 0.681538
v -0.080656 -0.405530 0.681538
v -0.080080 -0.416062 0.681538
v -0.079441 -0.403538 0.681538
v -0.078953 -0.417534 0.681538
v -0.077740 -0.401749 0.681538
v -0.077561 -0.418781 0.681538
v -0.075662 -0.400271 0.681538
v -0.075948 -0.409538 0.681538
v -0.075976 -0.419767 0.681538
v -0.075362 -0.406922 0.681538
v -0.073315 -0.399216 0.681538
v -0.073604 -0.404864 0.681538
v -0.070895 -0.403531 0.681538
v -0.070699 -0.398582 0.681538
v -0.067456 -0.403086 0.681538
v -0.067814 -0.398371 0.681538
v -0.064461 -0.398543 0.681538
v -0.064168 -0.403420 0.681538
v -0.061293 -0.399060 0.681538
v -0.061032 -0.404423 0.681538
v -0.058333 -0.399894 0.681538
v -0.058247 -0.405874 0.681538
v -0.055600 -0.401018 0.681538
v -0.056013 -0.407553 0.681538
v -0.055600 -0.407553 0.681538
v -0.075603 -0.411888 0.681538
v -0.072171 -0.421173 0.681538
v -0.074569 -0.413701 0.681538
v -0.072881 -0.415038 0.681538
v -0.070571 -0.415962 0.681538
v -0.068228 -0.422138 0.681538
v -0.066325 -0.417024 0.681538
v -0.064754 -0.423048 0.681538
v -0.062162 -0.418113 0.681538
v -0.062465 -0.423992 0.681538
v -0.060894 -0.425337 0.681538
v -0.058488 -0.419739 0.681538
v -0.059984 -0.427108 0.681538
v -0.059681 -0.429335 0.681538
v -0.081545 -0.430879 0.681538
v -0.081931 -0.437716 0.681538
v -0.081931 -0.430879 0.681538
v -0.076045 -0.439991 0.681538
v -0.078664 -0.433129 0.681538
v -0.075424 -0.434808 0.681538
v -0.072581 -0.440684 0.681538
v -0.072067 -0.435852 0.681538
v -0.068448 -0.440915 0.681538
v -0.068834 -0.436200 0.681538
v -0.064864 -0.435728 0.681538
v -0.065012 -0.440674 0.681538
v -0.062203 -0.439950 0.681538
v -0.063292 -0.435138 0.681538
v -0.061997 -0.434311 0.681538
v -0.059836 -0.438778 0.681538
v -0.060260 -0.432123 0.681538
v -0.057723 -0.437193 0.681538
v -0.055958 -0.422028 0.681538
v -0.056155 -0.435387 0.681538
v -0.054979 -0.433222 0.681538
v -0.054490 -0.424951 0.681538
v -0.054245 -0.430865 0.681538
v -0.054001 -0.428480 0.681538
vn 0 0 -1
usemtl material_0_0
f 1//1 2//1 3//1
f 2//1 1//1 4//1
f 4//1 1//1 5//1
f 4//1 5//1 6//1
f 6//1 5//1 7//1
f 6//1 7//1 8//1
f 8//1 7//1 9//1
f 8//1 9//1 10//1
f 10//1 9//1 11//1
f 10//1 11//1 12//1
f 10//1 12//1 13//1
f 12//1 11//1 14//1
f 14//1 11//1 15//1
f 14//1 15//1 16//1
f 16//1 15//1 17//1
f 17//1 15//1 18//1
f 17//1 18//1 19//1
f 19//1 18//1 20//1
f 19//1 20//1 21//1
f 19//1 21//1 22//1
f 22//1 21//1 23//1
f 22//1 23//1 24//1
f 24//1 23//1 25//1
f 24//1 25//1 26//1
f 26//1 25//1 27//1
f 26//1 27//1 28//1
f 28//1 27//1 29//1
f 13//1 30//1 31//1
f 30//1 13//1 12//1
f 31//1 30//1 32//1
f 31//1 32//1 33//1
f 31//1 33//1 34//1
f 31//1 34//1 35//1
f 35//1 34//1 36//1
f 35//1 36//1 37//1
f 37//1 36//1 38//1
f 37//1 38//1 39//1
f 39//1 38//1 40//1
f 40//1 38//1 41//1
f 40//1 41//1 42//1
f 42//1 41//1 43//1
f 44//1 45//1 46//1
f 45//1 44//1 47//1
f 47//1 44//1 48//1
f 47//1 48//1 49//1
f 47//1 49//1 50//1
f 50//1 49//1 51//1
f 50//1 51//1 52//1
f 52//1 51//1 53//1
f 52//1 53//1 54//1
f 52//1 54//1 55//1
f 55//1 54//1 56//1
f 56//1 54//1 57//1
f 56//1 57//1 58//1
f 56//1 58//1 59//1
f 59//1 58//1 60//1
f 59//1 60//1 43//1
f 59//1 43//1 61//1
f 61//1 43//1 41//1
f 61//1 41//1 62//1
f 61//1 62//1 63//1
f 63//1 62//1 64//1
f 64//1 62//1 65//1
f 64//1 65//1 66//1
f 66//1 65//1 67//1
