# SSTK version 0.8.0
# 29
mtllib original-29.mtl
o instance_4/_4/ID61#ID61
v 0.069675 -0.282768 0.681322
v 0.067235 -0.284974 0.681322
v 0.067235 -0.282768 0.681322
v 0.069675 -0.284974 0.681322
v 0.064698 -0.271505 0.681322
v 0.055516 -0.284974 0.681322
v 0.055516 -0.282079 0.681322
v 0.057667 -0.282768 0.681322
v 0.064588 -0.274745 0.681322
v 0.064588 -0.282768 0.681322
v 0.064588 -0.284974 0.681322
v 0.064588 -0.292032 0.681322
v 0.067235 -0.292032 0.681322
v 0.067235 -0.271505 0.681322
vn 0 0 -1
usemtl material_0_0
f 1//1 2//1 3//1
f 2//1 1//1 4//1
f 5//1 6//1 7//1
f 6//1 5//1 8//1
f 8//1 5//1 9//1
f 9//1 5//1 10//1
f 10//1 5//1 11//1
f 11//1 5//1 12//1
f 12//1 5//1 13//1
f 13//1 5//1 14//1
f 13//1 14//1 3//1
f 13//1 3//1 2//1
f 8//1 11//1 6//1
f 11//1 8//1 10//1
