# SSTK version 0.8.0
# 27
mtllib original-27.mtl
o Top_Trim1/Top_Trim/mesh24/mesh24-geometry#mesh24-geometry
v -0.257970 0.126569 0.244989
v -0.257970 0.116544 0.244989
v -0.247945 0.116544 0.244989
v -0.257970 0.126569 0.224939
v 0.258310 0.116544 0.224939
v -0.257970 0.116544 0.224939
v 0.258310 0.126569 0.255014
v -0.247945 0.116544 0.255014
v -0.257970 0.126569 0.255014
v 0.258310 0.126569 0.224939
v 0.248285 0.116544 0.244989
v -0.257799 0.126398 0.256311
v 0.258310 0.126569 0.244989
v 0.258310 0.116544 0.244989
v 0.248285 0.116544 0.255014
v 0.258139 0.126398 0.256311
v 0.248455 0.116714 0.256311
v -0.257298 0.125897 0.257520
v -0.248116 0.116714 0.256311
v 0.257638 0.125897 0.257520
v 0.248956 0.117215 0.257520
v -0.256502 0.125100 0.258558
v -0.248617 0.117215 0.257520
v 0.256841 0.125100 0.258558
v 0.249753 0.118012 0.258558
v -0.255464 0.124062 0.259355
v -0.249413 0.118012 0.258558
v 0.255803 0.124062 0.259355
v 0.250791 0.119050 0.259355
v -0.254255 0.122853 0.259855
v -0.250451 0.119050 0.259355
v 0.254594 0.122853 0.259855
v 0.252000 0.120259 0.259855
v -0.252957 0.121556 0.260026
v -0.251660 0.120259 0.259855
v 0.253297 0.121556 0.260026
vt 0 0.025641
vt 0 0
vt 0.019231 0
vt -0.067308 0.025641
vt -0.028846 0
vt -0.028846 0.025641
vt 0 0.038462
vt -0.990385 0.089744
vt -0.019231 0.038462
vt -0.067308 0
vt 0.990385 0.012821
vt 0 0.089744
vt -0.019231 0.012821
vt -0.990385 0
vt 0 0.012821
vt 0.990385 0.089744
vt -0.971154 0.038462
vt -0.990385 0.025641
vt 0.000328 0.012711
vt 0.990385 0.016058
vt 0 0.016058
vt 0.990385 0.038462
vt -0.990385 0.038462
vt -0.971154 0.012821
vt 0.028846 0.025641
vt 0.067308 0
vt 0.067308 0.025641
vt 0.990057 0.012711
vt 0.028846 0
vt 0.990385 0.025641
vt 0.971154 0
vt 0.990385 0
vt 0.971481 -0.009364
vt 0.019231 -0.012711
vt 0.971154 -0.012711
vt 0.001288 0.015077
vt 0.990057 0.018424
vt 0.000328 0.018424
vt 0.018903 -0.009364
vt 0.989096 0.015077
vt 0.972442 -0.005265
vt 0.018903 -0.008612
vt 0.971481 -0.008612
vt 0.002816 0.016302
vt 0.989096 0.019649
vt 0.001288 0.019649
vt 0.017943 -0.005265
vt 0.987568 0.016302
vt 0.97397 -0.000693
vt 0.017943 -0.00404
vt 0.972442 -0.00404
vt 0.004808 0.016302
vt 0.987568 0.019649
vt 0.002816 0.019649
vt 0.016414 -0.000693
vt 0.985577 0.016302
vt 0.975962 0.00404
vt 0.016414 0.000693
vt 0.97397 0.000693
vt 0.007127 0.015077
vt 0.985577 0.018424
vt 0.004808 0.018424
vt 0.014423 0.00404
vt 0.983258 0.015077
vt 0.978281 0.008612
vt 0.014423 0.005265
vt 0.975962 0.005265
vt 0.009615 0.012711
vt 0.983258 0.016058
vt 0.007127 0.016058
vt 0.012104 0.008612
vt 0.980769 0.012711
vt 0.012104 0.009364
vt 0.978281 0.009364
vn 0 0 1
vn 0 0 -1
vn -1 0 0
vn 1 0 0
vn 0 -1 0
vn 0 1 0
vn 0 0.9978589320009053 0.06540299554311324
vn 0 -0.9978589320009053 -0.06540299554311324
vn 0 -0.9978589320009053 0.0654029955431128
vn 0 0.9978589320009053 -0.0654029955431128
vn 0 0.9659258492011171 0.2588189595935757
vn 0 -0.9659258492011171 -0.2588189595935757
vn 0 -0.9659258492011171 0.2588189595935752
vn 0 0.9659258492011171 -0.2588189595935752
vn 0 0.8660253028382761 0.500000174843842
vn 0 -0.8660253028382761 -0.500000174843842
vn 0 -0.8660253028382763 0.5000001748438415
vn 0 0.8660253028382763 -0.5000001748438415
vn 0 0.7071067811865476 0.7071067811865478
vn 0 -0.7071067811865476 -0.7071067811865478
vn 0 -0.7071067811865478 0.7071067811865476
vn 0 0.7071067811865478 -0.7071067811865476
vn 0 0.5000001748438415 0.8660253028382763
vn 0 -0.5000001748438415 -0.8660253028382763
vn 0 -0.500000174843842 0.8660253028382761
vn 0 0.500000174843842 -0.8660253028382761
vn 0 0.2588189595935752 0.9659258492011171
vn 0 -0.2588189595935752 -0.9659258492011171
vn 0 -0.2588189595935757 0.9659258492011171
vn 0 0.2588189595935757 -0.9659258492011171
usemtl material_0_0
f 1/1/1 2/2/1 3/3/1
f 3/3/2 2/2/2 1/1/2
f 4/4/3 2/5/3 1/6/3
f 1/6/4 2/5/4 4/4/4
f 2/7/5 5/8/5 3/9/5
f 3/9/6 5/8/6 2/7/6
f 2/5/3 4/4/3 6/10/3
f 6/10/4 4/4/4 2/5/4
f 1/7/6 7/11/7 4/12/6
f 4/12/5 7/11/8 1/7/5
f 5/8/5 2/7/5 6/12/5
f 6/12/6 2/7/6 5/8/6
f 3/9/5 5/8/5 8/13/9
f 8/13/10 5/8/6 3/9/6
f 4/1/2 5/14/2 6/2/2
f 6/2/1 5/14/1 4/1/1
f 7/11/7 1/7/6 9/15/7
f 9/15/8 1/7/5 7/11/8
f 4/12/6 7/11/7 10/16/6
f 10/16/5 7/11/8 4/12/5
f 8/13/9 5/8/5 11/17/5
f 11/17/6 5/8/6 8/13/10
f 5/14/2 4/1/2 10/18/2
f 10/18/1 4/1/1 5/14/1
f 12/19/11 7/20/7 9/21/7
f 9/21/8 7/20/8 12/19/12
f 10/16/6 7/11/7 13/22/6
f 13/22/5 7/11/8 10/16/5
f 11/17/5 5/8/5 14/23/5
f 14/23/6 5/8/6 11/17/6
f 15/24/9 8/13/9 11/17/5
f 11/17/6 8/13/10 15/24/10
f 13/25/4 5/26/4 10/27/4
f 10/27/3 5/26/3 13/25/3
f 7/20/7 12/19/11 16/28/11
f 16/28/12 12/19/12 7/20/8
f 5/26/4 13/25/4 14/29/4
f 14/29/3 13/25/3 5/26/3
f 13/30/1 11/31/1 14/32/1
f 14/32/2 11/31/2 13/30/2
f 17/33/13 8/34/9 15/35/9
f 15/35/10 8/34/10 17/33/14
f 18/36/15 16/37/11 12/38/11
f 12/38/12 16/37/12 18/36/16
f 8/34/9 17/33/13 19/39/13
f 19/39/14 17/33/14 8/34/10
f 16/37/11 18/36/15 20/40/15
f 20/40/16 18/36/16 16/37/12
f 21/41/17 19/42/13 17/43/13
f 17/43/14 19/42/14 21/41/18
f 22/44/19 20/45/15 18/46/15
f 18/46/16 20/45/16 22/44/20
f 19/42/13 21/41/17 23/47/17
f 23/47/18 21/41/18 19/42/14
f 20/45/15 22/44/19 24/48/19
f 24/48/20 22/44/20 20/45/16
f 25/49/21 23/50/17 21/51/17
f 21/51/18 23/50/18 25/49/22
f 26/52/23 24/53/19 22/54/19
f 22/54/20 24/53/20 26/52/24
f 23/50/17 25/49/21 27/55/21
f 27/55/22 25/49/22 23/50/18
f 24/53/19 26/52/23 28/56/23
f 28/56/24 26/52/24 24/53/20
f 29/57/25 27/58/21 25/59/21
f 25/59/22 27/58/22 29/57/26
f 30/60/27 28/61/23 26/62/23
f 26/62/24 28/61/24 30/60/28
f 27/58/21 29/57/25 31/63/25
f 31/63/26 29/57/26 27/58/22
f 28/61/23 30/60/27 32/64/27
f 32/64/28 30/60/28 28/61/24
f 33/65/29 31/66/25 29/67/25
f 29/67/26 31/66/26 33/65/30
f 34/68/1 32/69/27 30/70/27
f 30/70/28 32/69/28 34/68/2
f 31/66/25 33/65/29 35/71/29
f 35/71/30 33/65/30 31/66/26
f 32/69/27 34/68/1 36/72/1
f 36/72/2 34/68/2 32/69/28
f 36/72/1 35/73/29 33/74/29
f 33/74/30 35/73/30 36/72/2
f 35/73/29 36/72/1 34/68/1
f 34/68/2 36/72/2 35/73/30
