# SSTK version 0.8.0
# 7
mtllib original-7.mtl
o Drawer_Front1/Drawer_Front/mesh5/mesh5-geometry#mesh5-geometry
v -0.247945 0.116544 0.244989
v -0.257970 0.106519 0.244989
v -0.247945 0.106519 0.244989
v -0.257970 0.116544 0.244989
v -0.237920 0.104057 0.224939
v -0.247945 -0.058891 0.244989
v -0.257970 0.116544 0.224939
v -0.257970 0.104057 0.224939
v -0.237920 0.106519 0.244989
v -0.247945 -0.058891 0.255014
v -0.247945 0.066419 0.244989
v 0.258310 0.116544 0.224939
v -0.237920 0.066419 0.244989
v -0.247945 0.116544 0.255014
v 0.248285 -0.058891 0.244989
v -0.247945 0.048876 0.244989
v 0.248285 0.116544 0.244989
v 0.258310 0.104057 0.224939
v 0.238260 0.104057 0.224939
v -0.237920 0.068881 0.224939
v 0.248285 0.116544 0.255014
v 0.248285 -0.058891 0.255014
v -0.257970 -0.068916 0.244989
v -0.257970 0.048876 0.244989
v -0.247945 0.008777 0.244989
v 0.258310 0.116544 0.244989
v -0.257970 -0.048866 0.244989
v 0.258310 -0.068916 0.244989
v -0.257970 0.066419 0.244989
v -0.237920 0.046414 0.224939
v -0.237920 0.008777 0.244989
v -0.247945 -0.008767 0.244989
v 0.248285 0.106519 0.244989
v 0.238260 0.106519 0.244989
v 0.258310 0.106519 0.244989
v 0.238260 0.068881 0.224939
v -0.247945 -0.048866 0.244989
v -0.257970 -0.047635 0.234964
v 0.258310 -0.048866 0.244989
v -0.257970 -0.068916 0.224939
v -0.257970 0.068881 0.224939
v -0.257970 0.046414 0.224939
v -0.237920 0.048876 0.244989
v -0.237920 0.011238 0.224939
v -0.257970 -0.008767 0.244989
v 0.248285 -0.048866 0.244989
v 0.248285 0.066419 0.244989
v -0.237920 -0.047635 0.234964
v -0.257970 -0.048866 0.234964
v 0.258310 -0.068916 0.224939
v -0.257970 0.008777 0.244989
v -0.237920 -0.011229 0.224939
v -0.237920 -0.048866 0.244989
v 0.248285 -0.008767 0.244989
v 0.248285 0.048876 0.244989
v 0.238260 0.066419 0.244989
v 0.258310 0.068881 0.224939
v 0.258310 -0.048866 0.234964
v 0.258310 -0.047635 0.234964
v -0.257970 -0.048866 0.224939
v -0.257970 0.011238 0.224939
v 0.238260 0.046414 0.224939
v -0.257970 -0.011229 0.224939
v -0.237920 -0.008767 0.244989
v 0.238260 -0.008767 0.244989
v 0.248285 0.008777 0.244989
v 0.258310 0.066419 0.244989
v 0.258310 0.046414 0.224939
v -0.237920 -0.038841 0.234964
v 0.238260 -0.047635 0.234964
v 0.258310 -0.048866 0.224939
v 0.238260 -0.048866 0.244989
v 0.238260 0.011238 0.224939
v 0.258310 -0.011229 0.224939
v 0.258310 0.008777 0.244989
v 0.238260 0.048876 0.244989
v 0.258310 0.048876 0.244989
v 0.238260 -0.011229 0.224939
v 0.258310 -0.008767 0.244989
v 0.258310 0.011238 0.224939
v 0.238260 0.008777 0.244989
v -0.237920 -0.038841 0.224939
v 0.238260 -0.038841 0.234964
v 0.238260 -0.038841 0.224939
vt 0.019231 0.467992
vt 0 0.442695
vt 0.019231 0.442695
vt 0 0.467992
vt 0 0.028843
vt 0.038462 -0.022131
vt 0.019231 0.028843
vt -0.019231 0.025297
vt -0.019231 0.467992
vt -0.019231 0.442695
vt 0.019231 0.025297
vt 0 0.075891
vt 0 0.025297
vt -0.057692 0.467992
vt 0 -0.022131
vt 0.038462 0.028843
vt -0.019231 0.341507
vt 0.990385 0.075891
vt -0.057692 0.436483
vt -0.038462 0.436483
vt 0 0.436483
vt -0.038462 0.341507
vt -0.038462 0.442695
vt -0.971154 0.025297
vt -0.019231 0
vt -0.019231 0.297238
vt 0.971154 0.025297
vt -0.990385 0.436483
vt -0.990385 0.467992
vt -0.951923 0.436483
vt -0.057692 0.34772
vt 0.971154 0.467992
vt 0.971154 0
vt 0.019231 0
vt -0.971154 0
vt 0 0
vt 0.038462 0.117701
vt 0.019231 0.066728
vt 0.038462 0.066728
vt 0.019231 0.341507
vt 0 0.297238
vt 0.019231 0.297238
vt -0.019231 0.196051
vt 0.990385 0.025297
vt 0.057692 0.436483
vt 0.057692 0.467992
vt -0.038462 0.34772
vt 0 0.050594
vt 0.990385 0
vt 0 0.066728
vt 0 0.341507
vt 0 0.011116
vt 0.038462 -0.039858
vt 0.019231 0.011116
vt -0.038462 0.196051
vt -0.019231 0.151781
vt 0.971154 0.442695
vt 0.990385 0.467992
vt 0.990385 -0.022131
vt 0.951923 0.028843
vt 0.951923 -0.022131
vt -0.951923 0.34772
vt 0.019231 0.050594
vt -0.038462 0.0537
vt -0.019231 0.050594
vt 0.990385 0.050594
vt -0.990385 0.025297
vt 0 0.117701
vt 0 -0.039858
vt 0.038462 0.011116
vt -0.038462 0.297238
vt 0.038462 0.099975
vt 0.019231 0.049001
vt 0.038462 0.049001
vt 0.019231 0.196051
vt 0 0.151781
vt 0.019231 0.151781
vt 0.990385 0.442695
vt 0.971154 0.028843
vt 0.057692 0.34772
vt 0.990385 0.028843
vt -0.038462 0.291026
vt 0.038462 0.056761
vt 0 0.031274
vt 0.019231 0.031274
vt -0.038462 0.050594
vt 0 0.056761
vt 0.057692 0
vt 0.971154 0.050594
vt -0.990385 0.075891
vt -0.057692 0
vt 0 0.34772
vt -0.057692 0.291026
vt 0 0.291026
vt 0 0.049001
vt -0.057692 0.202263
vt 0 0.196051
vt 0 -0.006611
vt 0.038462 -0.057584
vt 0.019231 -0.006611
vt -0.971154 0.341507
vt -0.951923 0.442695
vt -0.971154 0.442695
vt -0.990385 0.34772
vt 0.038462 0.031274
vt 0 0.0537
vt -0.990385 0.050594
vt -0.990385 0.0537
vt 0.038462 0.050594
vt 0.990385 0.056761
vt 0.971154 0.031274
vt 0.990385 0.031274
vt -0.990385 0
vt -0.057692 0.050594
vt 0 0.099975
vt -0.951923 0.291026
vt -0.038462 0.202263
vt 0 -0.057584
vt 0.038462 -0.006611
vt -0.038462 0.151781
vt -0.971154 0.050594
vt -0.951923 0.151781
vt -0.971154 0.151781
vt 0.971154 0.297238
vt 0.990385 0.341507
vt 0.971154 0.341507
vt -0.951923 0.341507
vt 0.971154 0.066728
vt 0.951923 0.117701
vt 0.951923 0.066728
vt -0.990385 0.291026
vt 0.990385 0.117701
vt -0.038462 0.075891
vt -0.951923 0.0537
vt 0.057692 0.050594
vt 0.038462 0.0537
vt 0.951923 0.031274
vt -0.038462 0.145569
vt 0 0.202263
vt -0.951923 0.202263
vt -0.057692 0.145569
vt 0 0.145569
vt -0.951923 0.050594
vt 0.951923 -0.006611
vt 0.990385 -0.057584
vt 0.971154 -0.006611
vt 0.971154 0.151781
vt 0.990385 0.196051
vt 0.971154 0.196051
vt -0.971154 0.196051
vt -0.951923 0.297238
vt -0.971154 0.297238
vt 0.990385 0.297238
vt 0.990385 0.066728
vt 0.057692 0.291026
vt 0.951923 0.056761
vt 0.057692 0.202263
vt 0.990385 -0.039858
vt 0.951923 0.011116
vt 0.951923 -0.039858
vt 0.951923 -0.057584
vt 0.990385 -0.006611
vt 0.990385 0.151781
vt 0.990385 0.099975
vt 0.971154 0.049001
vt 0.990385 0.049001
vt -0.951923 0.196051
vt 0.971154 0.011116
vt 0.990385 0.011116
vt -0.057692 0.075891
vt -0.951923 0.075891
vt -0.990385 0.202263
vt 0.038462 0.075891
vt 0.057692 0.145569
vt -0.951923 0.145569
vt -0.990385 0.145569
vt 0.951923 0.099975
vt 0.951923 0.049001
vt 0.057692 0.075891
vn 0 0 1
vn 0 -0.9925461909276926 0.1218690234429102
vn -1 0 0
vn 0 1 0
vn 0 0 -1
vn 0 -1 0
vn 0 0.9925461909276926 0.12186902344291065
vn 1 0 0
vn 0 0.9925461909276926 -0.1218690234429102
vn 0 -0.9925461909276926 -0.12186902344291065
usemtl material_0_0
f 1/1/1 2/2/1 3/3/1
f 2/2/1 1/1/1 4/4/1
f 2/5/2 5/6/2 3/7/2
f 6/8/3 1/9/3 3/10/3
f 1/11/4 7/12/4 4/13/4
f 7/14/3 2/10/3 4/9/3
f 5/6/2 2/5/2 8/15/2
f 3/7/2 5/6/2 9/16/2
f 10/13/3 1/9/3 6/8/3
f 6/8/3 3/10/3 11/17/3
f 7/12/4 1/11/4 12/18/4
f 2/10/3 7/14/3 8/19/3
f 7/4/5 5/20/5 8/21/5
f 5/19/3 13/17/3 9/10/3
f 13/22/5 3/10/5 9/23/5
f 1/9/3 10/13/3 14/4/3
f 15/24/6 10/25/6 6/8/6
f 3/10/5 13/22/5 11/17/5
f 6/8/3 11/17/3 16/26/3
f 12/18/4 1/11/4 17/27/4
f 18/28/5 7/4/5 12/29/5
f 5/20/5 7/4/5 19/30/5
f 13/17/3 5/19/3 20/31/3
f 10/11/1 21/32/1 14/1/1
f 21/33/4 1/11/4 14/34/4
f 10/25/6 15/24/6 22/35/6
f 6/11/1 23/36/1 15/27/1
f 20/37/7 11/38/7 13/39/7
f 11/40/1 24/41/1 16/42/1
f 6/8/3 16/26/3 25/43/3
f 17/27/4 1/11/4 21/33/4
f 12/18/4 17/27/4 26/44/4
f 19/30/5 7/4/5 18/28/5
f 26/1/8 18/45/8 12/46/8
f 19/30/5 20/47/5 5/20/5
f 21/32/1 10/11/1 22/27/1
f 15/11/8 21/4/8 22/13/8
f 23/36/1 6/11/1 27/48/1
f 28/49/1 15/27/1 23/36/1
f 20/37/7 29/50/7 11/38/7
f 24/41/1 11/40/1 29/51/1
f 24/52/2 30/53/2 16/54/2
f 16/26/5 31/55/5 25/43/5
f 6/8/3 25/43/3 32/56/3
f 21/4/8 15/11/8 17/1/8
f 33/57/1 26/58/1 17/32/1
f 18/59/2 34/60/2 19/61/2
f 18/45/8 26/1/8 35/3/8
f 36/62/5 20/47/5 19/30/5
f 27/48/1 6/11/1 37/63/1
f 38/64/3 23/25/3 27/65/3
f 15/27/1 28/49/1 39/66/1
f 40/12/6 28/67/6 23/13/6
f 29/50/7 20/37/7 41/68/7
f 41/31/3 24/26/3 29/17/3
f 30/53/2 24/52/2 42/69/2
f 16/54/2 30/53/2 43/70/2
f 31/55/5 16/26/5 43/71/5
f 44/72/7 25/73/7 31/74/7
f 25/75/1 45/76/1 32/77/1
f 6/8/3 32/56/3 37/65/3
f 17/1/8 15/11/8 46/63/8
f 26/58/1 33/57/1 35/78/1
f 17/1/8 47/40/8 33/3/8
f 34/60/2 18/59/2 33/79/2
f 34/3/8 36/80/8 19/45/8
f 33/79/2 18/59/2 35/81/2
f 20/47/5 36/62/5 30/82/5
f 48/83/7 27/84/7 37/85/7
f 23/25/3 38/64/3 49/86/3
f 27/84/7 48/83/7 38/87/7
f 50/88/8 39/63/8 28/34/8
f 15/27/1 39/66/1 46/89/1
f 28/67/6 40/12/6 50/90/6
f 23/25/3 49/86/3 40/91/3
f 30/82/5 41/92/5 20/47/5
f 24/26/3 41/31/3 42/93/3
f 41/92/5 30/82/5 42/94/5
f 30/93/3 31/43/3 43/26/3
f 44/72/7 51/95/7 25/73/7
f 31/43/3 30/93/3 44/96/3
f 45/76/1 25/75/1 51/97/1
f 45/98/2 52/99/2 32/100/2
f 32/56/5 53/86/5 37/65/5
f 17/1/8 46/63/8 54/77/8
f 17/1/8 55/42/8 47/40/8
f 47/101/5 34/102/5 33/103/5
f 36/80/8 34/3/8 56/40/8
f 57/104/5 30/82/5 36/62/5
f 48/83/7 37/85/7 53/105/7
f 38/106/5 58/107/5 49/48/5
f 59/108/5 38/106/5 48/64/5
f 39/63/8 50/88/8 58/109/8
f 59/110/7 46/111/7 39/112/7
f 60/48/5 50/113/5 40/36/5
f 40/91/3 49/86/3 60/114/3
f 51/95/7 44/72/7 61/115/7
f 62/116/5 44/117/5 30/82/5
f 61/96/3 45/56/3 51/43/3
f 52/99/2 45/98/2 63/118/2
f 32/100/2 52/99/2 64/119/2
f 53/86/5 32/56/5 64/120/5
f 46/121/5 65/122/5 54/123/5
f 17/1/8 54/77/8 66/75/8
f 17/1/8 66/75/8 55/42/8
f 55/124/1 67/125/1 47/126/1
f 34/102/5 47/101/5 56/127/5
f 47/128/7 36/129/7 56/130/7
f 68/131/5 30/82/5 57/104/5
f 36/129/7 47/128/7 57/132/7
f 48/64/3 53/65/3 69/133/3
f 58/107/5 38/106/5 59/108/5
f 58/66/4 60/12/4 49/48/4
f 59/108/5 48/64/5 70/134/5
f 58/109/8 50/88/8 71/135/8
f 59/136/8 39/63/8 58/109/8
f 59/110/7 72/137/7 46/111/7
f 50/113/5 60/48/5 71/107/5
f 52/138/5 61/139/5 44/117/5
f 73/140/5 44/117/5 62/116/5
f 62/116/5 30/82/5 68/131/5
f 45/56/3 61/96/3 63/141/3
f 61/139/5 52/138/5 63/142/5
f 52/141/3 53/65/3 64/56/3
f 65/122/5 46/121/5 72/143/5
f 65/144/2 74/145/2 54/146/2
f 54/147/1 75/148/1 66/149/1
f 66/150/5 76/151/5 55/152/5
f 67/125/1 55/124/1 77/153/1
f 57/132/7 47/128/7 67/154/7
f 67/40/8 68/155/8 57/80/8
f 53/65/3 52/141/3 69/133/3
f 69/133/5 70/134/5 48/64/5
f 60/12/4 58/66/4 71/18/4
f 72/137/7 59/110/7 70/156/7
f 44/117/5 73/140/5 52/138/5
f 76/42/8 73/157/8 62/155/8
f 68/158/2 76/159/2 62/160/2
f 70/136/8 65/77/8 72/63/8
f 74/145/2 65/144/2 78/161/2
f 54/146/2 74/145/2 79/162/2
f 75/148/1 54/147/1 79/163/1
f 80/164/7 66/165/7 75/166/7
f 76/151/5 66/150/5 81/167/5
f 76/159/2 68/158/2 55/168/2
f 55/168/2 68/158/2 77/169/2
f 68/155/8 67/40/8 77/42/8
f 69/133/3 52/141/3 82/170/3
f 70/134/5 69/133/5 83/171/5
f 80/172/5 52/138/5 73/140/5
f 73/157/8 76/42/8 81/75/8
f 65/77/8 70/136/8 83/173/8
f 65/77/8 83/173/8 78/174/8
f 78/175/5 52/138/5 74/176/5
f 74/174/8 75/75/8 79/77/8
f 73/177/7 66/165/7 80/164/7
f 75/75/8 74/174/8 80/157/8
f 66/165/7 73/177/7 81/178/7
f 52/138/5 84/171/5 82/133/5
f 84/171/6 69/86/6 82/133/6
f 69/86/6 84/171/6 83/143/6
f 74/176/5 52/138/5 80/172/5
f 78/174/8 83/173/8 84/179/8
f 84/171/5 52/138/5 78/175/5
usemtl material_1_0
f 3//5 2//5 1//5
f 4//5 1//5 2//5
f 3//9 5//9 2//9
f 3//8 1//8 6//8
f 4//6 7//6 1//6
f 4//8 2//8 7//8
f 8//9 2//9 5//9
f 9//9 5//9 3//9
f 6//8 1//8 10//8
f 11//8 3//8 6//8
f 12//6 1//6 7//6
f 8//8 7//8 2//8
f 8//1 5//1 7//1
f 9//8 13//8 5//8
f 9//1 3//1 13//1
f 14//8 10//8 1//8
f 6//4 10//4 15//4
f 11//1 13//1 3//1
f 16//8 11//8 6//8
f 17//6 1//6 12//6
f 12//1 7//1 18//1
f 19//1 7//1 5//1
f 20//8 5//8 13//8
f 14//5 21//5 10//5
f 14//6 1//6 21//6
f 22//4 15//4 10//4
f 15//5 23//5 6//5
f 13//10 11//10 20//10
f 16//5 24//5 11//5
f 25//8 16//8 6//8
f 21//6 1//6 17//6
f 26//6 17//6 12//6
f 18//1 7//1 19//1
f 12//3 18//3 26//3
f 5//1 20//1 19//1
f 22//5 10//5 21//5
f 22//3 21//3 15//3
f 27//5 6//5 23//5
f 23//5 15//5 28//5
f 11//10 29//10 20//10
f 29//5 11//5 24//5
f 16//9 30//9 24//9
f 25//1 31//1 16//1
f 32//8 25//8 6//8
f 17//3 15//3 21//3
f 17//5 26//5 33//5
f 19//9 34//9 18//9
f 35//3 26//3 18//3
f 19//1 20//1 36//1
f 37//5 6//5 27//5
f 27//8 23//8 38//8
f 39//5 28//5 15//5
f 23//4 28//4 40//4
f 41//10 20//10 29//10
f 29//8 24//8 41//8
f 42//9 24//9 30//9
f 43//9 30//9 16//9
f 43//1 16//1 31//1
f 31//10 25//10 44//10
f 32//5 45//5 25//5
f 37//8 32//8 6//8
f 46//3 15//3 17//3
f 35//5 33//5 26//5
f 33//3 47//3 17//3
f 33//9 18//9 34//9
f 19//3 36//3 34//3
f 35//9 18//9 33//9
f 30//1 36//1 20//1
f 37//10 27//10 48//10
f 49//8 38//8 23//8
f 38//10 48//10 27//10
f 28//3 39//3 50//3
f 46//5 39//5 15//5
f 50//4 40//4 28//4
f 40//8 49//8 23//8
f 20//1 41//1 30//1
f 42//8 41//8 24//8
f 42//1 30//1 41//1
f 43//8 31//8 30//8
f 25//10 51//10 44//10
f 44//8 30//8 31//8
f 51//5 25//5 45//5
f 32//9 52//9 45//9
f 37//1 53//1 32//1
f 54//3 46//3 17//3
f 47//3 55//3 17//3
f 33//1 34//1 47//1
f 56//3 34//3 36//3
f 36//1 30//1 57//1
f 53//10 37//10 48//10
f 49//1 58//1 38//1
f 48//1 38//1 59//1
f 58//3 50//3 39//3
f 39//10 46//10 59//10
f 40//1 50//1 60//1
f 60//8 49//8 40//8
f 61//10 44//10 51//10
f 30//1 44//1 62//1
f 51//8 45//8 61//8
f 63//9 45//9 52//9
f 64//9 52//9 32//9
f 64//1 32//1 53//1
f 54//1 65//1 46//1
f 66//3 54//3 17//3
f 55//3 66//3 17//3
f 47//5 67//5 55//5
f 56//1 47//1 34//1
f 56//10 36//10 47//10
f 57//1 30//1 68//1
f 57//10 47//10 36//10
f 69//8 53//8 48//8
f 59//1 38//1 58//1
f 49//6 60//6 58//6
f 70//1 48//1 59//1
f 71//3 50//3 58//3
f 58//3 39//3 59//3
f 46//10 72//10 59//10
f 71//1 60//1 50//1
f 44//1 61//1 52//1
f 62//1 44//1 73//1
f 68//1 30//1 62//1
f 63//8 61//8 45//8
f 63//1 52//1 61//1
f 64//8 53//8 52//8
f 72//1 46//1 65//1
f 54//9 74//9 65//9
f 66//5 75//5 54//5
f 55//1 76//1 66//1
f 77//5 55//5 67//5
f 67//10 47//10 57//10
f 57//3 68//3 67//3
f 69//8 52//8 53//8
f 48//1 70//1 69//1
f 71//6 58//6 60//6
f 70//10 59//10 72//10
f 52//1 73//1 44//1
f 62//3 73//3 76//3
f 62//9 76//9 68//9
f 72//3 65//3 70//3
f 78//9 65//9 74//9
f 79//9 74//9 54//9
f 79//5 54//5 75//5
f 75//10 66//10 80//10
f 81//1 66//1 76//1
f 55//9 68//9 76//9
f 77//9 68//9 55//9
f 77//3 67//3 68//3
f 82//8 52//8 69//8
f 83//1 69//1 70//1
f 73//1 52//1 80//1
f 81//3 76//3 73//3
f 83//3 70//3 65//3
f 78//3 83//3 65//3
f 74//1 52//1 78//1
f 79//3 75//3 74//3
f 80//10 66//10 73//10
f 80//3 74//3 75//3
f 81//10 73//10 66//10
f 82//1 84//1 52//1
f 82//4 69//4 84//4
f 83//4 84//4 69//4
f 80//1 52//1 74//1
f 84//3 83//3 78//3
f 78//1 52//1 84//1
