# SSTK version 0.8.0
# 14
mtllib original-14.mtl
o Left_Front_Leg/Front_Leg/mesh11/mesh11-geometry#mesh11-geometry
v -0.335662 0.159149 0.199877
v -0.345687 0.159149 0.234964
v -0.345687 0.159149 0.199877
v -0.335662 0.159149 0.234964
v -0.345687 -0.131571 0.199877
v -0.360725 0.179199 0.199877
v -0.335662 -0.081447 0.234964
v -0.345687 -0.131571 0.234964
v -0.300575 0.179199 0.199877
v -0.335662 -0.131571 0.234964
v -0.360725 -0.231820 0.199877
v -0.335662 -0.131571 0.199877
v -0.330650 0.179199 0.212408
v -0.335662 -0.141596 0.234964
v -0.300575 -0.081447 0.234964
v -0.300575 -0.231820 0.199877
v -0.360725 -0.893459 0.229952
v -0.330650 0.179199 0.242483
v -0.300575 0.179199 0.219907
v -0.335662 -0.081447 0.244989
v -0.330650 -0.893459 0.229952
v -0.360725 -0.893459 0.260026
v -0.360725 0.179199 0.260026
v -0.330650 0.149124 0.212408
v -0.335662 -0.141596 0.244989
v -0.300575 -0.141596 0.234964
v -0.300575 -0.081447 0.244989
v -0.300575 -0.231820 0.260026
v -0.300575 0.149124 0.219907
v -0.300575 0.179199 0.260026
v -0.330650 0.149124 0.242483
v -0.300575 -0.141596 0.244989
v -0.300575 0.149124 0.234984
v -0.330650 -0.893459 0.260026
v -0.300575 0.179199 0.234984
vt -0.018038 0.083333
vt -0.010823 0.034722
vt -0.010823 0.083333
vt -0.018038 0.034722
vt 0.018038 1.458333
vt 0.043291 1.055556
vt 0.043291 1.458333
vt 0.089606 1.251927
vt 0.075176 1.272761
vt 0.089606 1.238038
vt -0.043291 1.458333
vt -0.018038 1.125
vt -0.018038 1.458333
vt -0.010823 1.458333
vt 0.018038 1.055556
vt 0.298848 1.251927
vt 0.075176 1.189427
vt -0.018038 1.055556
vt -0.010823 1.055556
vt 0.018038 0.034722
vt 0.010823 0.083333
vt 0.010823 0.034722
vt 0.371 1.272761
vt 0.298848 1.238038
vt 0 0.083333
vt 0.021646 0.065972
vt 0.043291 0.083333
vt -0.043291 1.055556
vt 0.018038 1.125
vt 0.018038 1.041667
vt 0.043291 1.125
vt 0.018038 0.083333
vt 0.371 1.189427
vt -11.122735 1.376359
vt -11.894763 1.334693
vt -11.598939 1.334693
vt 0.021646 0.024306
vt 0.043291 0.055584
vt 0.010823 1.125
vt -0.043291 0.034722
vt -0.018038 0.020833
vt -0.000983 -0.041667
vt -0.477679 0
vt -0.477679 -0.083333
vt -11.122735 1.418026
vt -0.000983 0
vt 11.709837 1.381854
vt 12.005661 1.409604
vt 11.709837 1.409604
vt 0 0
vt 0.012627 1.486111
vt 0.034272 1.444444
vt 0.034272 1.486111
vt 0.012711 1.444444
vt 0.03502 1.486111
vt 0.012711 1.486111
vt 0.010823 1.041667
vt 0.043291 1.041667
vt -0.043291 0.020833
vt 11.103054 1.203419
vt 11.57975 1.245086
vt 11.103054 1.286752
vt -11.894763 1.418026
vt -0.021646 0.041667
vt 0 0.041667
vt 11.731483 1.381854
vt 0.043291 0
vt 0.012627 1.444444
vt 0.03502 1.444444
vt -0.043291 1.041667
vt -0.018038 1.041667
vt 0.043291 0.020833
vt 0.018038 0.020833
vt 0.043291 0.034722
vt 11.940724 1.360993
vt 11.897433 1.360993
vt 11.731483 1.360965
vt 11.897433 1.347104
vt -0.043291 1.125
vt 11.57975 1.203419
vt 11.940724 1.347104
vt 12.005661 1.32627
vt 1.952748 -0.692552
vt 1.476544 -0.609219
vt 1.180721 -0.692552
vt -0.021646 0
vt 1.180721 -0.609219
vt 0.043291 0.034694
vt -0.024057 1.486111
vt -0.046366 1.444444
vt -0.024057 1.444444
vt 11.709837 1.360965
vt 11.709837 1.32627
vt 1.952748 -0.650886
vt -0.046366 1.486111
vn 0 -1 0
vn 1 0 0
vn 0 0 -1
vn -1 0 0
vn 0 1 0
vn 0 0 1
vn 0 -0.04540797844426992 -0.9989685257772662
vn -0.24192192963701695 0 0.9702957177895314
vn 0.9989685257772662 -0.04540797844427014 0
vn -0.24192192963701695 0 -0.9702957177895314
vn 0 0.04540797844426992 0.9989685257772662
vn 0.24192192963701695 0 -0.9702957177895314
vn -0.9989685257772662 0.04540797844427014 0
vn 0.24192192963701695 0 0.9702957177895314
usemtl material_0_0
f 1/1/1 2/2/1 3/3/1
f 2/2/1 1/1/1 4/4/1
f 2/5/2 5/6/2 3/7/2
f 3/8/3 6/9/3 1/10/3
f 1/11/4 7/12/4 4/13/4
f 7/12/3 2/14/3 4/13/3
f 5/6/2 2/5/2 8/15/2
f 5/16/3 6/9/3 3/8/3
f 9/17/3 1/10/3 6/9/3
f 7/12/4 1/11/4 10/18/4
f 10/18/3 2/14/3 7/12/3
f 2/14/3 10/18/3 8/19/3
f 10/20/5 5/21/5 8/22/5
f 5/16/3 11/23/3 6/9/3
f 9/17/3 12/24/3 1/10/3
f 6/25/5 13/26/5 9/27/5
f 10/18/4 1/11/4 12/28/4
f 7/29/2 14/30/2 10/15/2
f 10/15/6 15/31/6 7/29/6
f 5/21/5 10/20/5 12/32/5
f 11/23/3 5/16/3 16/33/3
f 17/34/4 6/35/4 11/36/4
f 16/33/3 12/24/3 9/17/3
f 13/26/5 6/25/5 18/37/5
f 9/27/5 13/26/5 19/38/5
f 20/39/2 14/30/2 7/29/2
f 14/30/6 15/31/6 10/15/6
f 15/40/1 20/41/1 7/4/1
f 12/24/3 16/33/3 5/16/3
f 21/42/7 11/43/7 16/44/7
f 22/45/4 6/35/4 17/34/4
f 11/43/7 21/42/7 17/46/7
f 19/47/2 16/48/2 9/49/2
f 23/50/5 18/37/5 6/25/5
f 18/51/2 24/52/2 13/53/2
f 24/54/8 19/55/8 13/56/8
f 14/30/2 20/39/2 25/57/2
f 15/31/6 14/30/6 26/58/6
f 20/41/1 15/40/1 27/59/1
f 28/60/9 21/61/9 16/62/9
f 6/35/4 22/45/4 23/63/4
f 21/64/1 22/50/1 17/65/1
f 29/66/2 16/48/2 19/47/2
f 18/37/5 23/50/5 30/67/5
f 24/52/2 18/51/2 31/68/2
f 19/55/8 24/54/8 29/69/8
f 20/12/3 32/70/3 25/71/3
f 32/72/5 14/20/5 25/73/5
f 14/20/5 32/72/5 26/74/5
f 26/75/2 16/48/2 15/76/2
f 15/76/2 33/77/2 27/78/2
f 32/70/3 20/12/3 27/79/3
f 21/61/9 28/60/9 34/80/9
f 32/81/2 28/82/2 16/48/2
f 22/83/6 28/84/6 23/85/6
f 22/50/1 21/64/1 34/86/1
f 15/76/2 16/48/2 29/66/2
f 23/85/6 28/84/6 30/87/6
f 18/37/5 30/67/5 35/88/5
f 18/89/10 33/90/10 31/91/10
f 33/88/5 24/26/5 31/37/5
f 24/26/5 33/88/5 29/38/5
f 32/81/2 16/48/2 26/75/2
f 33/77/2 15/76/2 29/66/2
f 35/92/2 27/78/2 33/77/2
f 27/78/2 30/93/2 32/81/2
f 28/84/6 22/83/6 34/94/6
f 28/82/2 32/81/2 30/93/2
f 30/93/2 27/78/2 35/92/2
f 33/90/10 18/89/10 35/95/10
usemtl material_1_0
f 3//5 2//5 1//5
f 4//5 1//5 2//5
f 3//4 5//4 2//4
f 1//6 6//6 3//6
f 4//2 7//2 1//2
f 4//6 2//6 7//6
f 8//4 2//4 5//4
f 3//6 6//6 5//6
f 6//6 1//6 9//6
f 10//2 1//2 7//2
f 7//6 2//6 10//6
f 8//6 10//6 2//6
f 8//1 5//1 10//1
f 6//6 11//6 5//6
f 1//6 12//6 9//6
f 9//1 13//1 6//1
f 12//2 1//2 10//2
f 10//4 14//4 7//4
f 7//3 15//3 10//3
f 12//1 10//1 5//1
f 16//6 5//6 11//6
f 11//2 6//2 17//2
f 9//6 12//6 16//6
f 18//1 6//1 13//1
f 19//1 13//1 9//1
f 7//4 14//4 20//4
f 10//3 15//3 14//3
f 7//5 20//5 15//5
f 5//6 16//6 12//6
f 16//11 11//11 21//11
f 17//2 6//2 22//2
f 17//11 21//11 11//11
f 9//4 16//4 19//4
f 6//1 18//1 23//1
f 13//4 24//4 18//4
f 13//12 19//12 24//12
f 25//4 20//4 14//4
f 26//3 14//3 15//3
f 27//5 15//5 20//5
f 16//13 21//13 28//13
f 23//2 22//2 6//2
f 17//5 22//5 21//5
f 19//4 16//4 29//4
f 30//1 23//1 18//1
f 31//4 18//4 24//4
f 29//12 24//12 19//12
f 25//6 32//6 20//6
f 25//1 14//1 32//1
f 26//1 32//1 14//1
f 15//4 16//4 26//4
f 27//4 33//4 15//4
f 27//6 20//6 32//6
f 34//13 28//13 21//13
f 16//4 28//4 32//4
f 23//3 28//3 22//3
f 34//5 21//5 22//5
f 29//4 16//4 15//4
f 30//3 28//3 23//3
f 35//1 30//1 18//1
f 31//14 33//14 18//14
f 31//1 24//1 33//1
f 29//1 33//1 24//1
f 26//4 16//4 32//4
f 29//4 15//4 33//4
f 33//4 27//4 35//4
f 32//4 30//4 27//4
f 34//3 22//3 28//3
f 30//4 32//4 28//4
f 35//4 27//4 30//4
f 35//14 18//14 33//14
