# SSTK version 0.8.0
# 90
mtllib original-90.mtl
o mesh32/mesh32-geometry#mesh32-geometry
v -0.039469 -0.201760 -0.158727
v -0.044432 -0.201729 -0.158737
v -0.041805 -0.201929 -0.158669
v -0.037419 -0.201275 -0.158893
v -0.044432 -0.200520 -0.155206
v -0.041805 -0.200720 -0.155138
v -0.039469 -0.200551 -0.155196
v -0.046834 -0.201129 -0.158943
v -0.046834 -0.199920 -0.155412
v -0.037419 -0.200066 -0.155362
v -0.035608 -0.200655 -0.159105
v -0.048961 -0.200123 -0.159287
v -0.048961 -0.198914 -0.155756
v -0.035608 -0.199446 -0.155574
v -0.033939 -0.199945 -0.159348
v -0.050767 -0.198705 -0.159773
v -0.050767 -0.197496 -0.156242
v -0.033939 -0.198736 -0.155817
v -0.041876 -0.198254 -0.159927
v -0.033939 -0.193978 -0.157446
v -0.039737 -0.198040 -0.160001
v -0.043589 -0.198098 -0.159981
v -0.052226 -0.195661 -0.156870
v -0.041876 -0.197045 -0.156396
v -0.033939 -0.195187 -0.160977
v -0.035840 -0.195207 -0.157025
v -0.037705 -0.197397 -0.160221
v -0.039737 -0.196831 -0.156469
v -0.052226 -0.196870 -0.160401
v -0.043589 -0.196889 -0.156449
v -0.035840 -0.196416 -0.160557
v -0.034201 -0.195187 -0.160977
v -0.037705 -0.196188 -0.156689
v -0.034201 -0.193978 -0.157446
v -0.045103 -0.197631 -0.160141
v -0.053317 -0.193403 -0.157643
v -0.045103 -0.196422 -0.156609
v -0.046419 -0.196852 -0.160407
v -0.053317 -0.194612 -0.161174
v -0.046419 -0.195643 -0.156876
v -0.053996 -0.190717 -0.158563
v -0.047537 -0.194553 -0.157249
v -0.047537 -0.195762 -0.160780
v -0.053996 -0.191926 -0.162094
v -0.048429 -0.193184 -0.157718
v -0.048429 -0.194393 -0.161249
v -0.054223 -0.187596 -0.159631
v -0.049065 -0.191568 -0.158271
v -0.054223 -0.188805 -0.163162
v -0.049447 -0.189706 -0.158909
v -0.049065 -0.192777 -0.161802
v -0.053987 -0.184507 -0.160689
v -0.049447 -0.190915 -0.162440
v -0.049575 -0.187596 -0.159631
v -0.053987 -0.185716 -0.164220
v -0.049443 -0.185448 -0.160367
v -0.049575 -0.188805 -0.163162
v -0.053281 -0.181869 -0.161592
v -0.049443 -0.186657 -0.163898
v -0.049047 -0.183557 -0.161014
v -0.053281 -0.183078 -0.165123
v -0.049047 -0.184766 -0.164545
v -0.052182 -0.179648 -0.162352
v -0.048388 -0.181925 -0.161573
v -0.052182 -0.180857 -0.165884
v -0.047465 -0.180550 -0.162044
v -0.048388 -0.183134 -0.165104
v -0.050767 -0.177810 -0.162982
v -0.047465 -0.181759 -0.165575
v -0.046325 -0.179460 -0.162417
v -0.050767 -0.179019 -0.166513
v -0.046325 -0.180669 -0.165948
v -0.049000 -0.176353 -0.163481
v -0.045013 -0.178681 -0.162683
v -0.049000 -0.177562 -0.167012
v -0.033939 -0.176322 -0.163491
v -0.045013 -0.179890 -0.166215
v -0.043530 -0.178214 -0.162843
v -0.046846 -0.175273 -0.163850
v -0.033939 -0.177531 -0.167022
v -0.041876 -0.178058 -0.162897
v -0.043530 -0.179423 -0.166375
v -0.046846 -0.176482 -0.167381
v -0.041876 -0.179267 -0.166428
v -0.039445 -0.178396 -0.162781
v -0.037574 -0.174969 -0.163954
v -0.044412 -0.174605 -0.164079
v -0.039445 -0.179605 -0.166312
v -0.037574 -0.176178 -0.167486
v -0.037252 -0.179185 -0.162511
v -0.044412 -0.175814 -0.167610
v -0.037252 -0.180394 -0.166042
v -0.035429 -0.180200 -0.162163
v -0.039651 -0.175738 -0.167636
v -0.039651 -0.174529 -0.164105
v -0.041805 -0.174382 -0.164155
v -0.035429 -0.181409 -0.165694
v -0.033939 -0.182289 -0.165393
v -0.034201 -0.181080 -0.161862
v -0.041805 -0.175591 -0.167686
v -0.034201 -0.182289 -0.165393
v -0.033939 -0.181080 -0.161862
vn 0 0.3239171538422211 0.9460854493367682
vn 0 -0.3239171538422211 -0.9460854493367682
vn -0.001971998967926016 -0.9460835048536091 0.3239168304734741
vn -0.16853503778682366 -0.9325522090852228 0.3192840715858912
vn 0.16853503778682366 0.9325522090852228 -0.3192840715858912
vn 0.001971998967926016 0.9460835048536091 -0.3239168304734741
vn 0.1599899194190175 -0.9338985296299834 0.3197448389563955
vn -0.1599899194190175 0.9338985296299834 -0.3197448389563955
vn 0.2917750687600126 -0.9049182132539563 0.3098230730132236
vn -0.2917750687600126 0.9049182132539563 -0.3098230730132236
vn -0.3532140918623435 -0.8851032301936952 0.3030380788127899
vn 0.3532140918623435 0.8851032301936952 -0.3030380788127899
vn 0.37557716940900293 -0.8768233955026805 0.30020413541100827
vn -0.37557716940900293 0.8768233955026805 -0.30020413541100827
vn -0.5465319912311675 -0.7922879872881355 0.27126099564775275
vn 0.5465319912311675 0.7922879872881355 -0.27126099564775275
vn 0.4103648300002489 -0.8627556425906079 0.29538687763158034
vn -0.4103648300002489 0.8627556425906079 -0.29538687763158034
vn -0.7237228700997174 -0.6528848828143559 0.22353195987847552
vn 0.7237228700997174 0.6528848828143559 -0.22353195987847552
vn 1 0 0
vn -1 0 0
vn -0.8592931528759992 -0.48390708609143346 0.16567802947561505
vn 0.8592931528759992 0.48390708609143346 -0.16567802947561505
vn -0.004811001350465107 0.9460742655663948 -0.3239140909238315
vn -0.2124129102278445 0.9244956092800412 -0.31652586622654294
vn 0.2124129102278445 -0.9244956092800412 0.31652586622654294
vn 0.004811001350465107 -0.9460742655663948 0.3239140909238315
vn 0.20409507489606904 0.9261713398739173 -0.317099116364774
vn -0.20409507489606904 -0.9261713398739173 0.317099116364774
vn 0 0.9460854493367682 -0.3239171538422211
vn 0 -0.9460854493367682 0.3239171538422211
vn -0.40319005574748007 0.8657781197076859 -0.2964220409850926
vn 0.40319005574748007 -0.8657781197076859 0.2964220409850926
vn -0.9454848326444721 -0.30810794546335796 0.10548898132792445
vn 0.9454848326444721 0.30810794546335796 -0.10548898132792445
vn -0.5553888540588238 0.7867557932618471 -0.26936692921765304
vn 0.5553888540588238 -0.7867557932618471 0.26936692921765304
vn -0.621214106879275 0.7413911275556132 -0.253835043672069
vn 0.621214106879275 -0.7413911275556132 0.253835043672069
vn 0.4232669961707035 0.8571579922452918 -0.2934709973449677
vn -0.4232669961707035 -0.8571579922452918 0.2934709973449677
vn 0.6285370489690091 0.7358460573294007 -0.2519360196282099
vn -0.6285370489690091 -0.7358460573294007 0.2519360196282099
vn -0.9885172877939996 -0.14296104162125486 0.0489460142499978
vn 0.9885172877939996 0.14296104162125486 -0.0489460142499978
vn 0.7892402873841451 0.580976211549454 -0.19891307242973283
vn -0.7892402873841451 -0.580976211549454 0.19891307242973283
vn -0.9999985467637614 0.0016129992689292165 -0.0005519997498133458
vn 0.9999985467637614 -0.0016129992689292165 0.0005519997498133458
vn 0.8984701968022811 0.41536409098198357 -0.1422110311501209
vn -0.8984701968022811 -0.41536409098198357 0.1422110311501209
vn 0.9626123439587789 0.25627809157279147 -0.08774403135252734
vn -0.9626123439587789 -0.25627809157279147 0.08774403135252734
vn -0.9872312971616013 0.15070504536297902 -0.05159801553126297
vn 0.9872312971616013 -0.15070504536297902 0.05159801553126297
vn 0.9922731831046835 0.1173830216607497 -0.040189007416098294
vn -0.9922731831046835 -0.1173830216607497 0.040189007416098294
vn 0.9999998953035164 -0.0004329999546664227 0.0001479999845049203
vn -0.9999998953035164 0.0004329999546664227 -0.0001479999845049203
vn -0.9417599865017541 0.31815499543988446 -0.10892899843872059
vn 0.9417599865017541 -0.31815499543988446 0.10892899843872059
vn 0.9919858324069838 -0.11953697980458759 0.04092699308550785
vn -0.9919858324069838 0.11953697980458759 -0.04092699308550785
vn 0.9610213464050118 -0.26156809428354444 0.08955503228056491
vn -0.9610213464050118 0.26156809428354444 -0.08955503228056491
vn -0.8608891593114277 0.481361089078044 -0.16480703049828535
vn 0.8608891593114277 -0.481361089078044 0.16480703049828535
vn 0.8936741808524153 -0.4245240859107357 0.14534702941380856
vn -0.8936741808524153 0.4245240859107357 -0.14534702941380856
vn -0.7373288670968524 0.6391128848002325 -0.2188169605583557
vn 0.7373288670968524 -0.6391128848002325 0.2188169605583557
vn 0.7819550077061665 -0.5897280058117695 0.2019090019898131
vn -0.7819550077061665 0.5897280058117695 -0.2019090019898131
vn 0.6252798071321605 -0.7383257722630816 0.2527849220283762
vn -0.6252798071321605 0.7383257722630816 -0.2527849220283762
vn -0.5663701085057622 0.7797171493790056 -0.26695705114390356
vn 0.5663701085057622 -0.7797171493790056 0.26695705114390356
vn 0.42676798052294995 -0.8556029609515653 0.2929379866307498
vn -0.42676798052294995 0.8556029609515653 -0.2929379866307498
vn -0.37532299047824347 0.8769209777529535 -0.30023699238313745
vn 0.37532299047824347 -0.8769209777529535 0.30023699238313745
vn 0.20876695450864174 -0.9252387983858618 0.31677993097207646
vn -0.20876695450864174 0.9252387983858618 -0.31677993097207646
vn -0.023414996420526354 -0.9458258554106667 0.323828950495948
vn 0.023414996420526354 0.9458258554106667 -0.323828950495948
vn -0.18511501298193123 0.9297340652013227 -0.3183190223233953
vn 0.18511501298193123 -0.9297340652013227 0.3183190223233953
vn -0.25202202228668646 -0.9155470809632054 0.3134620277199183
vn 0.25202202228668646 0.9155470809632054 -0.3134620277199183
vn 0.3661239312181341 0.88039483460464 -0.30142694337243237
vn 0.2931440745774744 0.9045222301154596 -0.3096870787861059
vn -0.2931440745774744 -0.9045222301154596 0.3096870787861059
vn -0.3661239312181341 -0.88039483460464 0.30142694337243237
vn -0.43282590306497076 -0.8528748089914585 0.2920039346032439
vn 0.43282590306497076 0.8528748089914585 -0.2920039346032439
vn 0.14547495702306718 0.9360207234761188 -0.3204719053246011
vn -0.14547495702306718 -0.9360207234761188 0.3204719053246011
vn -0.009120999872429137 0.946045986768128 -0.3239039954697166
vn 0.009120999872429137 -0.946045986768128 0.3239039954697166
vn -0.5563069941315175 -0.7861749917066402 0.2691679971605467
vn 0.5563069941315175 0.7861749917066402 -0.2691679971605467
vn -0.6037088142696156 -0.7542237679638478 0.2582289205561428
vn 0.6037088142696156 0.7542237679638478 -0.2582289205561428
usemtl material_0_0
f 1//1 2//1 3//1
f 2//1 1//1 4//1
f 3//2 2//2 1//2
f 4//2 1//2 2//2
f 2//1 4//1 8//1
f 8//2 4//2 2//2
f 8//1 4//1 11//1
f 11//2 4//2 8//2
f 8//1 11//1 12//1
f 12//2 11//2 8//2
f 12//1 11//1 15//1
f 15//2 11//2 12//2
f 12//1 15//1 16//1
f 16//2 15//2 12//2
f 16//1 15//1 19//1
f 19//2 15//2 16//2
f 19//1 15//1 21//1
f 21//2 15//2 19//2
f 22//1 16//1 19//1
f 19//2 16//2 22//2
f 21//1 15//1 27//1
f 27//2 15//2 21//2
f 16//1 22//1 29//1
f 29//2 22//2 16//2
f 31//1 15//1 25//1
f 25//2 15//2 31//2
f 27//1 15//1 31//1
f 31//2 15//2 27//2
f 29//1 22//1 35//1
f 35//2 22//2 29//2
f 31//1 25//1 32//1
f 32//2 25//2 31//2
f 29//1 35//1 38//1
f 38//2 35//2 29//2
f 29//1 38//1 39//1
f 39//2 38//2 29//2
f 39//1 38//1 43//1
f 43//2 38//2 39//2
f 39//1 43//1 46//1
f 46//2 43//2 39//2
f 39//1 46//1 44//1
f 44//2 46//2 39//2
f 44//1 46//1 51//1
f 51//2 46//2 44//2
f 44//1 53//1 49//1
f 49//2 53//2 44//2
f 44//1 51//1 53//1
f 53//2 51//2 44//2
f 49//1 53//1 57//1
f 57//2 53//2 49//2
f 49//1 59//1 55//1
f 55//2 59//2 49//2
f 49//1 57//1 59//1
f 59//2 57//2 49//2
f 55//1 59//1 62//1
f 62//2 59//2 55//2
f 55//1 62//1 61//1
f 61//2 62//2 55//2
f 61//1 62//1 67//1
f 67//2 62//2 61//2
f 61//1 69//1 65//1
f 65//2 69//2 61//2
f 61//1 67//1 69//1
f 69//2 67//2 61//2
f 65//1 69//1 72//1
f 72//2 69//2 65//2
f 65//1 72//1 71//1
f 71//2 72//2 65//2
f 71//1 72//1 77//1
f 77//2 72//2 71//2
f 71//1 80//1 75//1
f 75//2 80//2 71//2
f 71//1 77//1 82//1
f 82//2 77//2 71//2
f 84//1 80//1 71//1
f 71//2 80//2 84//2
f 75//1 80//1 83//1
f 83//2 80//2 75//2
f 71//1 82//1 84//1
f 84//2 82//2 71//2
f 88//1 80//1 84//1
f 84//2 80//2 88//2
f 83//1 80//1 89//1
f 89//2 80//2 83//2
f 92//1 80//1 88//1
f 88//2 80//2 92//2
f 83//1 89//1 91//1
f 91//2 89//2 83//2
f 97//1 80//1 92//1
f 92//2 80//2 97//2
f 91//1 89//1 94//1
f 94//2 89//2 91//2
f 101//1 80//1 97//1
f 97//2 80//2 101//2
f 80//1 101//1 98//1
f 98//2 101//2 80//2
f 91//1 94//1 100//1
f 100//2 94//2 91//2
usemtl material_1_0
f 3//3 5//4 2//4
f 2//5 5//5 3//6
f 1//7 6//3 3//3
f 3//6 6//6 1//8
f 4//9 7//7 1//7
f 1//8 7//8 4//10
f 5//4 3//3 6//3
f 6//6 3//6 5//5
f 9//11 2//4 5//4
f 5//5 2//5 9//12
f 6//3 1//7 7//7
f 7//8 1//8 6//6
f 7//7 4//9 10//9
f 10//10 4//10 7//8
f 2//4 9//11 8//11
f 8//12 9//12 2//5
f 7//1 5//1 6//1
f 6//2 5//2 7//2
f 5//1 10//1 9//1
f 9//2 10//2 5//2
f 11//13 10//9 4//9
f 4//10 10//10 11//14
f 5//1 7//1 10//1
f 10//2 7//2 5//2
f 13//15 8//11 9//11
f 9//12 8//12 13//16
f 9//1 10//1 14//1
f 14//2 10//2 9//2
f 10//9 11//13 14//13
f 14//14 11//14 10//10
f 8//11 13//15 12//15
f 12//16 13//16 8//12
f 9//1 14//1 13//1
f 13//2 14//2 9//2
f 15//17 14//13 11//13
f 11//14 14//14 15//18
f 17//19 12//15 13//15
f 13//16 12//16 17//20
f 13//1 14//1 18//1
f 18//2 14//2 13//2
f 14//13 15//17 18//17
f 18//18 15//18 14//14
f 12//15 17//19 16//19
f 16//20 17//20 12//16
f 13//1 18//1 17//1
f 17//2 18//2 13//2
f 15//21 20//21 18//21
f 18//22 20//22 15//22
f 23//23 16//19 17//19
f 17//20 16//20 23//24
f 17//1 18//1 24//1
f 24//2 18//2 17//2
f 20//21 15//21 25//21
f 25//22 15//22 20//22
f 26//1 18//1 20//1
f 20//2 18//2 26//2
f 19//25 28//26 21//26
f 21//27 28//27 19//28
f 22//29 24//25 19//25
f 19//28 24//28 22//30
f 16//19 23//23 29//23
f 29//24 23//24 16//20
f 17//1 30//1 23//1
f 23//2 30//2 17//2
f 24//1 18//1 28//1
f 28//2 18//2 24//2
f 30//1 17//1 24//1
f 24//2 17//2 30//2
f 32//31 20//31 25//31
f 25//32 20//32 32//32
f 33//1 18//1 26//1
f 26//2 18//2 33//2
f 26//1 20//1 34//1
f 34//2 20//2 26//2
f 21//26 33//33 27//33
f 27//34 33//34 21//27
f 28//26 19//25 24//25
f 24//28 19//28 28//27
f 33//33 21//26 28//26
f 28//27 21//27 33//34
f 24//25 22//29 30//29
f 30//30 22//30 24//28
f 36//35 29//23 23//23
f 23//24 29//24 36//36
f 23//1 30//1 37//1
f 37//2 30//2 23//2
f 28//1 18//1 33//1
f 33//2 18//2 28//2
f 20//31 32//31 34//31
f 34//32 32//32 20//32
f 26//37 27//33 33//33
f 33//34 27//34 26//38
f 34//39 31//37 26//37
f 26//38 31//38 34//40
f 27//33 26//37 31//37
f 31//38 26//38 27//34
f 35//41 30//29 22//29
f 22//30 30//30 35//42
f 29//23 36//35 39//35
f 39//36 36//36 29//24
f 23//1 40//1 36//1
f 36//2 40//2 23//2
f 30//29 35//41 37//41
f 37//42 35//42 30//30
f 23//1 37//1 40//1
f 40//2 37//2 23//2
f 31//37 34//39 32//39
f 32//40 34//40 31//38
f 38//43 37//41 35//41
f 35//42 37//42 38//44
f 41//45 39//35 36//35
f 36//36 39//36 41//46
f 36//1 40//1 42//1
f 42//2 40//2 36//2
f 37//41 38//43 40//43
f 40//44 38//44 37//42
f 39//35 41//45 44//45
f 44//46 41//46 39//36
f 36//1 45//1 41//1
f 41//2 45//2 36//2
f 38//43 42//47 40//43
f 40//44 42//48 38//44
f 36//1 42//1 45//1
f 45//2 42//2 36//2
f 42//47 38//43 43//47
f 43//48 38//44 42//48
f 47//49 44//45 41//45
f 41//46 44//46 47//50
f 41//1 45//1 48//1
f 48//2 45//2 41//2
f 43//47 45//51 42//47
f 42//48 45//52 43//48
f 45//51 43//47 46//51
f 46//52 43//48 45//52
f 44//45 47//49 49//49
f 49//50 47//50 44//46
f 41//1 50//1 47//1
f 47//2 50//2 41//2
f 46//51 48//53 45//51
f 45//52 48//54 46//52
f 41//1 48//1 50//1
f 50//2 48//2 41//2
f 52//55 49//49 47//49
f 47//50 49//50 52//56
f 47//1 50//1 54//1
f 54//2 50//2 47//2
f 48//53 46//51 51//53
f 51//54 46//52 48//54
f 51//53 50//57 48//53
f 48//54 50//58 51//54
f 49//49 52//55 55//55
f 55//56 52//56 49//50
f 47//1 56//1 52//1
f 52//2 56//2 47//2
f 53//57 54//59 50//57
f 50//58 54//60 53//58
f 47//1 54//1 56//1
f 56//2 54//2 47//2
f 50//57 51//53 53//57
f 53//58 51//54 50//58
f 58//61 55//55 52//55
f 52//56 55//56 58//62
f 52//1 56//1 60//1
f 60//2 56//2 52//2
f 54//59 53//57 57//59
f 57//60 53//58 54//60
f 57//59 56//63 54//59
f 54//60 56//64 57//60
f 55//55 58//61 61//61
f 61//62 58//62 55//56
f 52//1 60//1 58//1
f 58//2 60//2 52//2
f 59//63 60//65 56//63
f 56//64 60//66 59//64
f 56//63 57//59 59//63
f 59//64 57//60 56//64
f 63//67 61//61 58//61
f 58//62 61//62 63//68
f 58//1 60//1 64//1
f 64//2 60//2 58//2
f 60//65 59//63 62//65
f 62//66 59//64 60//66
f 61//61 63//67 65//67
f 65//68 63//68 61//62
f 58//1 66//1 63//1
f 63//2 66//2 58//2
f 62//65 64//69 60//65
f 60//66 64//70 62//66
f 58//1 64//1 66//1
f 66//2 64//2 58//2
f 68//71 65//67 63//67
f 63//68 65//68 68//72
f 63//1 66//1 70//1
f 70//2 66//2 63//2
f 64//69 62//65 67//69
f 67//70 62//66 64//70
f 67//69 66//73 64//69
f 64//70 66//74 67//70
f 65//67 68//71 71//71
f 71//72 68//72 65//68
f 63//1 70//1 68//1
f 68//2 70//2 63//2
f 69//73 70//75 66//73
f 66//74 70//76 69//74
f 66//73 67//69 69//73
f 69//74 67//70 66//74
f 73//77 71//71 68//71
f 68//72 71//72 73//78
f 68//1 70//1 74//1
f 74//2 70//2 68//2
f 70//75 69//73 72//75
f 72//76 69//74 70//76
f 71//71 73//77 75//77
f 75//78 73//78 71//72
f 68//1 76//1 73//1
f 73//2 76//2 68//2
f 70//75 77//79 74//79
f 74//80 77//80 70//76
f 68//1 74//1 78//1
f 78//2 74//2 68//2
f 77//79 70//75 72//75
f 72//76 70//76 77//80
f 79//81 75//77 73//77
f 73//78 75//78 79//82
f 81//1 76//1 68//1
f 68//2 76//2 81//2
f 73//1 76//1 79//1
f 79//2 76//2 73//2
f 82//83 74//79 77//79
f 77//80 74//80 82//84
f 74//79 82//83 78//83
f 78//84 82//84 74//80
f 68//1 78//1 81//1
f 81//2 78//2 68//2
f 75//77 79//81 83//81
f 83//82 79//82 75//78
f 85//1 76//1 81//1
f 81//2 76//2 85//2
f 79//1 76//1 86//1
f 86//2 76//2 79//2
f 84//85 78//83 82//83
f 82//84 78//84 84//86
f 78//83 84//85 81//85
f 81//86 84//86 78//84
f 87//87 83//81 79//81
f 79//82 83//82 87//88
f 90//1 76//1 85//1
f 85//2 76//2 90//2
f 81//85 88//89 85//89
f 85//90 88//90 81//86
f 76//91 89//92 86//92
f 86//93 89//93 76//94
f 79//1 86//1 87//1
f 87//2 86//2 79//2
f 88//89 81//85 84//85
f 84//86 81//86 88//90
f 83//81 87//87 91//87
f 91//88 87//88 83//82
f 89//92 76//91 80//91
f 80//94 76//94 89//93
f 93//1 76//1 90//1
f 90//2 76//2 93//2
f 85//89 92//95 90//95
f 90//96 92//96 85//90
f 92//95 85//89 88//89
f 88//90 85//90 92//96
f 94//97 86//92 89//92
f 89//93 86//93 94//98
f 87//1 86//1 95//1
f 95//2 86//2 87//2
f 96//99 91//87 87//87
f 87//88 91//88 96//100
f 76//21 98//21 80//21
f 80//22 98//22 76//22
f 99//1 76//1 93//1
f 93//2 76//2 99//2
f 90//95 97//101 93//101
f 93//102 97//102 90//96
f 97//101 90//95 92//95
f 92//96 90//96 97//102
f 86//92 94//97 95//97
f 95//98 94//98 86//93
f 87//1 95//1 96//1
f 96//2 95//2 87//2
f 91//87 96//99 100//99
f 100//100 96//100 91//88
f 98//21 76//21 102//21
f 102//22 76//22 98//22
f 76//1 99//1 102//1
f 102//2 99//2 76//2
f 93//101 101//103 99//103
f 99//104 101//104 93//102
f 101//103 93//101 97//101
f 97//102 93//102 101//104
f 100//99 95//97 94//97
f 94//98 95//98 100//100
f 95//97 100//99 96//99
f 96//100 100//100 95//98
f 99//32 98//32 102//32
f 102//31 98//31 99//31
f 98//32 99//32 101//32
f 101//31 99//31 98//31
