# SSTK version 0.8.0
# 84
mtllib original-84.mtl
o mesh26/mesh26-geometry#mesh26-geometry
v 0.105779 -0.166580 -0.166826
v 0.112763 -0.200157 -0.155331
v 0.117744 -0.200157 -0.155331
v 0.109545 -0.190776 -0.158542
v 0.117744 -0.201366 -0.158862
v 0.108234 -0.186965 -0.159847
v 0.112763 -0.201366 -0.158862
v 0.105779 -0.167789 -0.170358
v 0.102752 -0.171135 -0.165267
v 0.095983 -0.190776 -0.158542
v 0.109545 -0.191985 -0.162074
v 0.099964 -0.167789 -0.170358
v 0.099964 -0.166580 -0.166826
v 0.108234 -0.188174 -0.163378
v 0.097294 -0.186965 -0.159847
v 0.102752 -0.172344 -0.168798
v 0.097294 -0.188174 -0.163378
v 0.095983 -0.191985 -0.162074
v 0.087999 -0.201366 -0.158862
v 0.087999 -0.200157 -0.155331
v 0.092766 -0.201366 -0.158862
v 0.092766 -0.200157 -0.155331
vn 0 0.3239171538422211 0.9460854493367682
vn 0 -0.3239171538422211 -0.9460854493367682
vn 0 -0.9460854493367682 0.3239171538422211
vn 0 0.9460854493367682 -0.3239171538422211
vn 0.9475960224821898 0.3022470071709615 -0.10348200245516222
vn -0.9475960224821898 -0.3022470071709615 0.10348200245516222
vn -0.9511685300958811 -0.29203016275137533 0.09998405572212954
vn 0.9511685300958811 0.29203016275137533 -0.09998405572212954
vn -0.9502951601128693 -0.2945640496303645 0.10085201699230557
vn 0.9502951601128693 0.2945640496303645 -0.10085201699230557
vn -0.9475960224821898 0.3022470071709615 -0.10348200245516222
vn 0.9475960224821898 -0.3022470071709615 0.10348200245516222
vn 0.9506949721398843 -0.29340699140170823 0.10045599705613699
vn -0.9506949721398843 0.29340699140170823 -0.10045599705613699
vn 0.9511685300958811 -0.29203016275137533 0.09998405572212954
vn -0.9511685300958811 0.29203016275137533 -0.09998405572212954
usemtl material_0_0
f 1//1 2//1 3//1
f 2//1 1//1 4//1
f 3//2 2//2 1//2
f 4//2 1//2 2//2
f 2//3 5//3 3//3
f 3//4 5//4 2//4
f 5//5 1//5 3//5
f 3//6 1//6 5//6
f 4//1 1//1 6//1
f 6//2 1//2 4//2
f 4//7 7//7 2//7
f 2//8 7//8 4//8
f 5//3 2//3 7//3
f 7//4 2//4 5//4
f 1//5 5//5 8//5
f 8//6 5//6 1//6
f 6//1 1//1 9//1
f 9//2 1//2 6//2
f 4//1 6//1 10//1
f 10//2 6//2 4//2
f 7//7 4//7 11//7
f 11//8 4//8 7//8
f 12//4 1//4 8//4
f 8//3 1//3 12//3
f 13//1 9//1 1//1
f 1//2 9//2 13//2
f 9//9 14//9 6//9
f 6//10 14//10 9//10
f 15//1 10//1 6//1
f 6//2 10//2 15//2
f 10//3 11//3 4//3
f 4//4 11//4 10//4
f 1//4 12//4 13//4
f 13//3 12//3 1//3
f 13//1 15//1 9//1
f 9//2 15//2 13//2
f 14//9 9//9 16//9
f 16//10 9//10 14//10
f 17//4 6//4 14//4
f 14//3 6//3 17//3
f 13//1 10//1 15//1
f 15//2 10//2 13//2
f 6//4 17//4 15//4
f 15//3 17//3 6//3
f 11//3 10//3 18//3
f 18//4 10//4 11//4
f 19//11 13//11 12//11
f 12//12 13//12 19//12
f 17//13 9//13 15//13
f 15//14 9//14 17//14
f 9//13 17//13 16//13
f 16//14 17//14 9//14
f 20//1 10//1 13//1
f 13//2 10//2 20//2
f 10//15 21//15 18//15
f 18//16 21//16 10//16
f 13//11 19//11 20//11
f 20//12 19//12 13//12
f 10//1 20//1 22//1
f 22//2 20//2 10//2
f 21//15 10//15 22//15
f 22//16 10//16 21//16
f 21//3 20//3 19//3
f 19//4 20//4 21//4
f 20//3 21//3 22//3
f 22//4 21//4 20//4
usemtl material_1_0
f 8//1 7//1 5//1
f 5//2 7//2 8//2
f 7//1 8//1 11//1
f 11//2 8//2 7//2
f 12//1 16//1 8//1
f 8//2 16//2 12//2
f 11//1 8//1 14//1
f 14//2 8//2 11//2
f 12//1 17//1 16//1
f 16//2 17//2 12//2
f 14//1 8//1 16//1
f 16//2 8//2 14//2
f 17//1 18//1 14//1
f 14//2 18//2 17//2
f 11//1 14//1 18//1
f 18//2 14//2 11//2
f 19//1 18//1 12//1
f 12//2 18//2 19//2
f 12//1 18//1 17//1
f 17//2 18//2 12//2
f 18//1 19//1 21//1
f 21//2 19//2 18//2
