# SSTK version 0.8.0
# 86
mtllib original-86.mtl
o mesh28/mesh28-geometry#mesh28-geometry
v 0.125634 -0.166355 -0.166904
v 0.120533 -0.170752 -0.165398
v 0.125634 -0.170752 -0.165398
v 0.120533 -0.166355 -0.166904
v 0.125634 -0.171961 -0.168929
v 0.120533 -0.167564 -0.170435
v 0.120533 -0.171961 -0.168929
v 0.125634 -0.167564 -0.170435
vn 0 0.3239171538422211 0.9460854493367682
vn 0 -0.3239171538422211 -0.9460854493367682
vn 0 -0.9460854493367682 0.3239171538422211
vn 0 0.9460854493367682 -0.3239171538422211
vn 1 0 0
vn -1 0 0
usemtl material_0_0
f 1//1 2//1 3//1
f 2//1 1//1 4//1
f 3//2 2//2 1//2
f 4//2 1//2 2//2
f 2//3 5//3 3//3
f 3//4 5//4 2//4
f 5//5 1//5 3//5
f 3//6 1//6 5//6
f 1//4 6//4 4//4
f 4//3 6//3 1//3
f 4//6 7//6 2//6
f 2//5 7//5 4//5
f 5//3 2//3 7//3
f 7//4 2//4 5//4
f 1//5 5//5 8//5
f 8//6 5//6 1//6
f 6//4 1//4 8//4
f 8//3 1//3 6//3
f 7//6 4//6 6//6
f 6//5 4//5 7//5
usemtl material_1_0
f 8//1 7//1 5//1
f 5//2 7//2 8//2
f 7//1 8//1 6//1
f 6//2 8//2 7//2
