# SSTK version 0.8.0
# 15
mtllib original-15.mtl
o #ID455
v -0.048258 0.034203 0.565588
v -0.009298 -0.000369 0.634937
v -0.011574 0.016917 0.634937
v -0.009298 0.034203 0.634937
v -0.048258 0.034203 0.565588
v -0.048258 -0.000369 0.565588
v -0.009298 -0.000369 0.634937
v -0.009298 -0.000369 0.557017
v -0.011574 0.016917 0.634937
v -0.009298 -0.000369 0.634937
v -0.011574 0.016917 0.557017
v -0.009298 0.034203 0.634937
v -0.009298 0.034203 0.557017
v -0.050533 0.016917 0.565588
v -0.050533 0.016917 0.565588
v -0.048258 -0.000369 0.545886
v -0.048258 -0.000369 0.565588
v -0.050533 0.016917 0.545886
v -0.048258 0.034203 0.565588
v -0.048258 0.034203 0.545886
vn -0.8834051637123779 0.005122893789566856 0.4685819807520642
vn -0.8896316930087894 -0.11712219907959004 0.4414043965312037
vn -0.885555467635519 -0.016917879381700734 0.4642254830339065
vn -0.8661502345809969 0.11403080455267302 0.48660121942752493
vn -0.822640568251175 0 0.5685617780570409
vn -0.8356139860668014 0 0.5493170908405745
vn -0.8718370112710173 0 0.4897961063320327
vn 0.9914448610250887 0.1305261948688555 0
vn 1 0 0
vn 0.9914448610250887 -0.1305261948688555 0
vn 0 0 1
vn -1 0 0
vn -0.9914448610250887 -0.1305261948688555 0
vn -0.9914448610250887 0.1305261948688555 0
usemtl material_0_0
f 1//1 2//2 3//3
f 1//1 3//3 4//4
f 5//5 6//6 7//7
f 8//8 9//9 10//8
f 9//9 8//8 11//9
f 11//9 12//10 9//9
f 12//10 11//9 13//10
f 5//5 14//11 6//6
f 15//12 16//13 17//13
f 16//13 15//12 18//12
f 19//14 18//12 15//12
f 18//12 19//14 20//14
