# SSTK version 0.8.0
# 16
mtllib original-16.mtl
o #ID461
v 0.175302 -0.181996 0.568148
v 0.068704 -0.181996 0.568148
v 0.122003 -0.189013 0.568148
v 0.122003 -0.180665 0.568148
v 0.173141 -0.173932 0.568148
v 0.224968 -0.161424 0.568148
v 0.220794 -0.154194 0.568148
v 0.267618 -0.128698 0.568148
v 0.261714 -0.122794 0.568148
v 0.300344 -0.086048 0.568148
v 0.293114 -0.081874 0.568148
v 0.320916 -0.036382 0.568148
v 0.312852 -0.034221 0.568148
v 0.327933 0.016917 0.568148
v 0.319585 0.016917 0.568148
v 0.320916 0.070216 0.568148
v 0.312852 0.068055 0.568148
v 0.293114 0.115708 0.568148
v 0.300344 0.119882 0.568148
v 0.261714 0.156629 0.568148
v 0.267618 0.162532 0.568148
v 0.220794 0.188028 0.568148
v 0.224968 0.195258 0.568148
v 0.173141 0.207767 0.568148
v 0.175302 0.215831 0.568148
v 0.122003 0.214499 0.568148
v 0.070865 -0.173932 0.568148
v 0.019038 -0.161424 0.568148
v 0.023212 -0.154194 0.568148
v -0.023612 -0.128698 0.568148
v -0.017709 -0.122794 0.568148
v -0.056338 -0.086048 0.568148
v -0.049108 -0.081874 0.568148
v -0.076911 -0.036382 0.568148
v -0.068847 -0.034221 0.568148
v -0.083927 0.016917 0.568148
v -0.075579 0.016917 0.568148
v -0.068847 0.068055 0.568148
v -0.076911 0.070216 0.568148
v -0.049108 0.115708 0.568148
v -0.056338 0.119882 0.568148
v -0.017709 0.156629 0.568148
v -0.023612 0.162532 0.568148
v 0.023212 0.188028 0.568148
v 0.019038 0.195258 0.568148
v 0.070865 0.207767 0.568148
v 0.068704 0.215831 0.568148
v 0.122003 0.222848 0.568148
vn 0 0 1
usemtl material_0_0
f 1//1 2//1 3//1
f 2//1 1//1 4//1
f 4//1 1//1 5//1
f 5//1 1//1 6//1
f 5//1 6//1 7//1
f 7//1 6//1 8//1
f 7//1 8//1 9//1
f 9//1 8//1 10//1
f 9//1 10//1 11//1
f 11//1 10//1 12//1
f 11//1 12//1 13//1
f 13//1 12//1 14//1
f 13//1 14//1 15//1
f 15//1 14//1 16//1
f 15//1 16//1 17//1
f 17//1 16//1 18//1
f 18//1 16//1 19//1
f 18//1 19//1 20//1
f 20//1 19//1 21//1
f 20//1 21//1 22//1
f 22//1 21//1 23//1
f 22//1 23//1 24//1
f 24//1 23//1 25//1
f 24//1 25//1 26//1
f 2//1 27//1 28//1
f 27//1 2//1 4//1
f 28//1 27//1 29//1
f 28//1 29//1 30//1
f 30//1 29//1 31//1
f 30//1 31//1 32//1
f 32//1 31//1 33//1
f 32//1 33//1 34//1
f 34//1 33//1 35//1
f 34//1 35//1 36//1
f 36//1 35//1 37//1
f 36//1 37//1 38//1
f 36//1 38//1 39//1
f 39//1 38//1 40//1
f 39//1 40//1 41//1
f 41//1 40//1 42//1
f 41//1 42//1 43//1
f 43//1 42//1 44//1
f 43//1 44//1 45//1
f 45//1 44//1 46//1
f 45//1 46//1 47//1
f 47//1 46//1 26//1
f 47//1 26//1 25//1
f 47//1 25//1 48//1
