# Blender v2.79 (sub 0) OBJ File: ''
# www.blender.org
mtllib 11395_link_0_1.mtl
o Shape_IndexedFaceSet.001_Shape_IndexedFaceSet.7919
v 0.280136 -0.191460 -0.088767
v -0.638898 -0.217322 -0.209591
v -0.630271 -0.195763 -0.071507
v 0.280136 -0.260486 -0.071507
v 0.021226 -0.174186 -0.196628
v -0.638898 -0.260486 -0.071507
v 0.021226 -0.247522 -0.192330
v -0.638898 -0.165553 -0.149172
v -0.638898 -0.260486 -0.162107
v 0.280136 -0.260486 -0.136250
v -0.634630 -0.169874 -0.192330
v 0.016867 -0.165553 -0.149172
v 0.116126 -0.195763 -0.071507
v 0.011882 -0.213019 -0.206443
v 0.280136 -0.195763 -0.118976
v -0.634630 -0.191460 -0.209591
v -0.638898 -0.238899 -0.200954
v 0.280136 -0.200084 -0.071507
v -0.643257 -0.251853 -0.183693
v 0.280136 -0.238899 -0.136250
v -0.643257 -0.195763 -0.080144
v 0.011979 -0.200667 -0.206476
v -0.643257 -0.174186 -0.192330
v -0.006477 -0.255894 -0.167823
v 0.009344 -0.229275 -0.201514
v 0.280136 -0.191460 -0.110353
v -0.638898 -0.182818 -0.205265
v 0.005525 -0.169189 -0.176407
v -0.641620 -0.251351 -0.072399
v 0.002276 -0.193029 -0.204569
vn 0.0711 0.3258 -0.9428
vn 0.0000 0.0000 1.0000
vn 0.0000 -1.0000 0.0000
vn 1.0000 0.0000 0.0000
vn -0.0000 0.9950 -0.0996
vn -0.0000 0.9320 0.3625
vn 0.0121 0.9371 0.3490
vn 0.0236 0.8943 0.4468
vn -0.8927 -0.4507 0.0000
vn 0.0012 -0.9284 -0.3716
vn -0.9320 -0.1347 -0.3364
vn -0.0026 -0.7995 -0.6007
vn 0.2956 0.3551 -0.8869
vn -0.2494 0.8928 0.3750
vn 0.0049 -0.0027 -1.0000
vn 0.2524 -0.0046 -0.9676
vn 0.0048 -0.0008 -1.0000
vn 0.2784 0.2479 -0.9279
vn 0.2533 0.0000 -0.9674
vn -0.4431 0.8866 -0.1326
vn -0.9808 -0.0216 -0.1938
vn -0.9673 0.2490 0.0479
vn -1.0000 0.0000 0.0000
vn 0.0040 -0.9477 -0.3192
vn 0.0183 -0.9523 -0.3046
vn 0.0054 -0.9814 -0.1917
vn 0.1822 -0.3448 -0.9208
vn 0.0066 -0.2911 -0.9567
vn 0.1885 -0.3118 -0.9313
vn 0.0047 -0.3716 -0.9284
vn 0.0059 -0.4465 -0.8948
vn 0.0979 0.9952 0.0000
vn 0.1209 0.9785 -0.1669
vn 0.2041 0.8759 -0.4371
vn 0.0000 0.7069 -0.7074
vn -0.6019 0.0993 -0.7923
vn 0.0058 0.4499 -0.8931
vn -0.3581 0.7164 -0.5988
vn -0.9377 0.0432 -0.3448
vn 0.0048 0.9717 -0.2364
vn 0.0023 0.9911 -0.1333
vn 0.0934 0.9810 -0.1699
vn -0.2207 0.0294 0.9749
vn -0.9587 -0.2842 0.0154
vn -0.5511 0.0992 0.8285
vn -0.9995 -0.0274 0.0148
vn 0.0082 0.3813 -0.9244
vn 0.0083 0.2521 -0.9677
usemtl Shape.7926
s off
f 5//1 22//1 30//1
f 4//2 3//2 6//2
f 4//3 6//3 9//3
f 1//4 4//4 10//4
f 4//3 9//3 10//3
f 11//5 8//5 12//5
f 8//6 3//6 12//6
f 3//2 4//2 13//2
f 1//7 12//7 13//7
f 12//6 3//6 13//6
f 1//4 10//4 15//4
f 4//4 1//4 18//4
f 1//8 13//8 18//8
f 13//2 4//2 18//2
f 9//9 6//9 19//9
f 7//10 9//10 19//10
f 2//11 17//11 19//11
f 17//12 7//12 19//12
f 15//4 10//4 20//4
f 5//13 15//13 20//13
f 3//14 8//14 21//14
f 14//15 2//15 22//15
f 10//16 14//16 22//16
f 2//17 16//17 22//17
f 5//18 20//18 22//18
f 20//19 10//19 22//19
f 8//20 11//20 23//20
f 2//21 19//21 23//21
f 21//22 8//22 23//22
f 19//23 21//23 23//23
f 9//24 7//24 24//24
f 7//25 10//25 24//25
f 10//26 9//26 24//26
f 10//27 7//27 25//27
f 2//28 14//28 25//28
f 14//29 10//29 25//29
f 17//30 2//30 25//30
f 7//31 17//31 25//31
f 12//32 1//32 26//32
f 5//33 12//33 26//33
f 1//4 15//4 26//4
f 15//34 5//34 26//34
f 11//35 5//35 27//35
f 16//36 2//36 27//36
f 5//37 16//37 27//37
f 23//38 11//38 27//38
f 2//39 23//39 27//39
f 5//40 11//40 28//40
f 11//41 12//41 28//41
f 12//42 5//42 28//42
f 6//43 3//43 29//43
f 19//44 6//44 29//44
f 3//45 21//45 29//45
f 21//46 19//46 29//46
f 16//47 5//47 30//47
f 22//48 16//48 30//48
