# SSTK version 0.8.0
# 103
mtllib original-103.mtl
o mesh115/mesh115-geometry#mesh115-geometry
v -0.553493 0.192645 -0.300228
v -0.553493 0.193216 -0.295891
v -0.548190 0.192645 -0.300228
v -0.553493 0.168080 -0.310403
v -0.548190 0.193216 -0.295891
v -0.553493 0.190971 -0.304270
v -0.553493 0.172122 -0.312077
v -0.553493 0.164610 -0.307740
v -0.553493 0.192645 -0.291554
v -0.548190 0.190971 -0.304270
v -0.548190 0.168080 -0.310403
v -0.548190 0.164610 -0.307740
v -0.548190 0.192645 -0.291554
v -0.553493 0.188308 -0.307740
v -0.553493 0.176459 -0.312648
v -0.548190 0.172122 -0.312077
v -0.553493 0.161946 -0.304270
v -0.548190 0.161946 -0.304270
v -0.553493 0.190971 -0.287513
v -0.548190 0.188308 -0.307740
v -0.548190 0.176459 -0.312648
v -0.548190 0.190971 -0.287513
v -0.553493 0.184837 -0.310403
v -0.553493 0.180796 -0.312077
v -0.548190 0.180796 -0.312077
v -0.553493 0.160273 -0.300228
v -0.548190 0.160273 -0.300228
v -0.553493 0.188308 -0.284042
v -0.548190 0.184837 -0.310403
v -0.548190 0.188308 -0.284042
v -0.553493 0.159702 -0.295891
v -0.548190 0.159702 -0.295891
v -0.553493 0.184837 -0.281379
v -0.548190 0.184837 -0.281379
v -0.553493 0.160273 -0.291554
v -0.548190 0.160273 -0.291554
v -0.553493 0.180796 -0.279705
v -0.548190 0.180796 -0.279705
v -0.553493 0.161946 -0.287513
v -0.548190 0.176459 -0.279134
v -0.553493 0.176459 -0.279134
v -0.548190 0.161946 -0.287513
v -0.553493 0.164610 -0.284042
v -0.548190 0.172122 -0.279705
v -0.553493 0.172122 -0.279705
v -0.548190 0.164610 -0.284042
v -0.553493 0.168080 -0.281379
v -0.548190 0.168080 -0.281379
vt -0.049213 0.587834
vt -0.049213 0.632704
vt 0 0.587834
vt 0.65185 0.327893
vt 0.627136 0.290443
vt 0.382495 0.327893
vt 0 0.632704
vt -0.049213 0.661313
vt 0 0.661313
vt -0.049213 0.618149
vt 0.407209 0.290443
vt 0.36696 0.371505
vt -0.049213 0.527621
vt -0.049213 0.573917
vt 0 0.527621
vt 0 0.618149
vt 0.594928 0.261706
vt 0.049213 0.063003
vt 0.049213 0.018133
vt 0 0.063003
vt 0.667385 0.371505
vt 0.049213 0.226824
vt 0.049213 0.180527
vt 0 0.226824
vt 0 0.573917
vt -0.049213 0.649561
vt 0 0.649561
vt -0.049213 0.60793
vt 0.439417 0.261706
vt 0 0.018133
vt 0 0.180527
vt 0.361661 0.418307
vt 0 0.327863
vt 0 0.374964
vt 0.049213 0.327863
vt -0.049213 0.444229
vt -0.049213 0.49133
vt 0 0.444229
vt 0 0.60793
vt 0.557422 0.243641
vt 0.049213 -0.153645
vt 0 -0.153645
vt 0.049213 -0.110481
vt 0 -0.110481
vt 0.672684 0.418307
vt 0.049213 0.374964
vt 0 0.49133
vt -0.049213 0.587871
vt 0 0.587871
vt -0.049213 0.547153
vt 0.476923 0.243641
vt 0 -0.282327
vt 0.049213 -0.282327
vt 0 -0.323957
vt 0.36696 0.465109
vt 0 0.456339
vt 0 0.50344
vt 0.049213 0.456339
vt -0.049213 0.339973
vt -0.049213 0.387074
vt 0 0.339973
vt 0 0.547153
vt 0.517173 0.237479
vt 0.049213 -0.323957
vt 0.667385 0.465109
vt 0.049213 0.50344
vt 0 0.387074
vt 0.049213 -0.475281
vt 0 -0.475281
vt 0.049213 -0.434563
vt 0 -0.434563
vt 0.382495 0.508721
vt 0 0.56128
vt 0 0.607577
vt 0.049213 0.56128
vt -0.049213 0.214186
vt -0.049213 0.260483
vt 0 0.214186
vt 0.65185 0.508721
vt 0.049213 0.607577
vt 0 0.260483
vt 0.407209 0.546172
vt 0 0.635275
vt 0 0.680145
vt 0.049213 0.635275
vt -0.049213 0.065574
vt -0.049213 0.110444
vt 0 0.065574
vt 0.627136 0.546172
vt 0.049213 0.680145
vt 0 0.110444
vt 0.439417 0.574908
vt 0.049213 0.667465
vt 0 0.667465
vt 0.049213 0.710629
vt 0 -0.104329
vt -0.049213 -0.104329
vt 0 -0.061165
vt 0.594928 0.574908
vt 0 0.710629
vt -0.049213 -0.061165
vt 0.476923 0.592973
vt 0.049213 0.645363
vt 0 0.645363
vt 0.049213 0.686993
vt 0 -0.286525
vt -0.049213 -0.286525
vt 0 -0.244895
vt 0.557422 0.592973
vt 0 0.686993
vt -0.049213 -0.244895
vt 0.517173 0.599135
vt 0.049213 0.561161
vt 0 0.561161
vt 0.049213 0.601879
vt 0 -0.461273
vt -0.049213 -0.461273
vt 0 -0.420555
vt -0.049213 -0.420555
vt 0 0.601879
vn -0.47165122519889263 0.8758944182125319 -0.1017550485848929
vn -0.4594327809824729 0.882003579537528 0.10483895002192155
vn 0 0.993319445320107 -0.11539705173424085
vn 0 -0.993319445320107 0.11539705173424085
vn 0.4594327809824729 -0.882003579537528 -0.10483895002192155
vn 0.47165122519889263 -0.8758944182125319 0.1017550485848929
vn -0.45943295997466166 -0.5317949536705574 -0.7114179380219833
vn 0.45943295997466166 0.5317949536705574 0.7114179380219833
vn 0 0.9930096776745725 0.11803296168715603
vn 0 -0.9930096776745725 -0.11803296168715603
vn -0.4870320542008263 0.8087760900070786 -0.3296680366880985
vn 0.4870320542008263 -0.8087760900070786 0.3296680366880985
vn -0.4716511395611211 -0.34982510351291357 -0.8094242395078584
vn 0.4716511395611211 0.34982510351291357 0.8094242395078584
vn -0.4519711231709613 -0.6705741827445658 -0.5882621603129315
vn 0.4519711231709613 0.6705741827445658 0.5882621603129315
vn -0.4519710760172476 0.8447371420767742 0.286603048203914
vn 0.4519710760172476 -0.8447371420767742 -0.286603048203914
vn 0 0.9260259054175708 -0.3774599614469964
vn 0 -0.9260259054175708 0.3774599614469964
vn 0 -0.5987248390478167 -0.8009547846833589
vn 0 0.5987248390478167 0.8009547846833589
vn 0 -0.7517370129531805 -0.6594630113632073
vn 0 0.7517370129531805 0.6594630113632073
vn 0 0.9469801564108313 0.3212920530671702
vn 0 -0.9469801564108313 -0.3212920530671702
vn -0.5010748558239988 0.661068809788385 -0.5584908393034992
vn 0.5010748558239988 -0.661068809788385 0.5584908393034992
vn -0.4870322989626768 -0.11888707297831715 -0.8652545311327632
vn 0.4870322989626768 0.11888707297831715 0.8652545311327632
vn 0 -0.3967231367558446 -0.9179383164257844
vn 0 0.3967231367558446 0.9179383164257844
vn -0.4494949592887938 -0.7736059299337404 -0.44664095954728344
vn 0.4494949592887938 0.7736059299337404 0.44664095954728344
vn 0 -0.8660253028382762 -0.5000001748438417
vn 0 0.8660253028382762 0.5000001748438417
vn -0.4494949592887938 0.7736059299337404 0.44664095954728344
vn 0.4494949592887938 -0.7736059299337404 -0.44664095954728344
vn 0 0.7638846990928904 -0.6453527457846325
vn 0 -0.7638846990928904 0.6453527457846325
vn 0 -0.13612299251371204 -0.990691945515412
vn 0 0.13612299251371204 0.990691945515412
vn -0.5069769147340949 0.430979927515647 -0.7464788744534612
vn 0.5069769147340949 -0.430979927515647 0.7464788744534612
vn -0.5010748680123875 0.15313295966340554 -0.8517477756419997
vn 0.5010748680123875 -0.15313295966340554 0.8517477756419997
vn 0 0.17694900380431516 -0.9842200211602387
vn 0 -0.17694900380431516 0.9842200211602387
vn -0.4519710760172476 -0.8447371420767742 -0.286603048203914
vn 0.4519710760172476 0.8447371420767742 0.286603048203914
vn -0.4519711231709613 0.6705741827445658 0.5882621603129315
vn 0.4519711231709613 -0.6705741827445658 -0.5882621603129315
vn 0 0.5000001748438417 -0.8660253028382762
vn 0 -0.5000001748438417 0.8660253028382762
vn -0.4594327809824729 -0.882003579537528 -0.10483895002192155
vn 0.4594327809824729 0.882003579537528 0.10483895002192155
vn -0.45943295997466166 0.5317949536705574 0.7114179380219833
vn 0.45943295997466166 -0.5317949536705574 -0.7114179380219833
vn -0.47165122519889263 -0.8758944182125319 0.1017550485848929
vn 0.47165122519889263 0.8758944182125319 -0.1017550485848929
vn -0.4716511395611211 0.34982510351291357 0.8094242395078584
vn 0.4716511395611211 -0.34982510351291357 -0.8094242395078584
vn -0.4870320542008263 -0.8087760900070786 0.3296680366880985
vn 0.4870320542008263 0.8087760900070786 -0.3296680366880985
vn -0.4870322989626768 0.11888707297831715 0.8652545311327632
vn 0.4870322989626768 -0.11888707297831715 -0.8652545311327632
vn -0.5010748558239988 -0.661068809788385 0.5584908393034992
vn 0.5010748558239988 0.661068809788385 -0.5584908393034992
vn -0.5010748680123875 -0.15313295966340554 0.8517477756419997
vn 0.5010748680123875 0.15313295966340554 -0.8517477756419997
vn -0.5069769147340949 -0.430979927515647 0.7464788744534612
vn 0.5069769147340949 0.430979927515647 -0.7464788744534612
usemtl material_0_0
f 1/1/1 2/2/2 3/3/3
f 3/3/4 2/2/5 1/1/6
f 2/4/2 1/5/1 4/6/7
f 4/6/8 1/5/6 2/4/5
f 5/7/9 3/3/3 2/2/2
f 2/2/5 3/3/4 5/7/10
f 1/8/1 3/9/3 6/10/11
f 6/10/12 3/9/4 1/8/6
f 4/6/7 1/5/1 7/11/13
f 7/11/14 1/5/6 4/6/8
f 8/12/15 2/4/2 4/6/7
f 4/6/8 2/4/5 8/12/16
f 2/13/2 9/14/17 5/15/9
f 5/15/10 9/14/18 2/13/5
f 10/16/19 6/10/11 3/9/3
f 3/9/4 6/10/12 10/16/20
f 1/5/1 6/17/11 7/11/13
f 7/11/14 6/17/12 1/5/6
f 4/18/7 7/19/13 11/20/21
f 11/20/22 7/19/14 4/18/8
f 9/21/17 2/4/2 8/12/15
f 8/12/16 2/4/5 9/21/18
f 8/22/15 4/23/7 12/24/23
f 12/24/24 4/23/8 8/22/16
f 13/25/25 5/15/9 9/14/17
f 9/14/18 5/15/10 13/25/26
f 6/26/11 10/27/19 14/28/27
f 14/28/28 10/27/20 6/26/12
f 7/11/13 6/17/11 15/29/29
f 15/29/30 6/17/12 7/11/14
f 16/30/31 11/20/21 7/19/13
f 7/19/14 11/20/22 16/30/32
f 11/31/21 12/24/23 4/23/7
f 4/23/8 12/24/24 11/31/22
f 17/32/33 9/21/17 8/12/15
f 8/12/16 9/21/18 17/32/34
f 12/33/23 18/34/35 8/35/15
f 8/35/16 18/34/36 12/33/24
f 9/36/17 19/37/37 13/38/25
f 13/38/26 19/37/38 9/36/18
f 20/39/39 14/28/27 10/27/19
f 10/27/20 14/28/28 20/39/40
f 6/17/11 14/40/27 15/29/29
f 15/29/30 14/40/28 6/17/12
f 15/41/29 21/42/41 7/43/13
f 7/43/14 21/42/42 15/41/30
f 16/44/31 7/43/13 21/42/41
f 21/42/42 7/43/14 16/44/32
f 19/45/37 9/21/17 17/32/33
f 17/32/34 9/21/18 19/45/38
f 17/46/33 8/35/15 18/34/35
f 18/34/36 8/35/16 17/46/34
f 22/47/36 13/38/25 19/37/37
f 19/37/38 13/38/26 22/47/35
f 14/48/27 20/49/39 23/50/43
f 23/50/44 20/49/40 14/48/28
f 15/29/29 14/40/27 24/51/45
f 24/51/46 14/40/28 15/29/30
f 21/52/41 15/53/29 25/54/47
f 25/54/48 15/53/30 21/52/42
f 26/55/49 19/45/37 17/32/33
f 17/32/34 19/45/38 26/55/50
f 18/56/35 27/57/26 17/58/33
f 17/58/34 27/57/25 18/56/36
f 19/59/37 28/60/51 22/61/36
f 22/61/35 28/60/52 19/59/38
f 29/62/53 23/50/43 20/49/39
f 20/49/40 23/50/44 29/62/54
f 23/63/43 24/51/45 14/40/27
f 14/40/28 24/51/46 23/63/44
f 24/64/45 25/54/47 15/53/29
f 15/53/30 25/54/48 24/64/46
f 28/65/51 19/45/37 26/55/49
f 26/55/50 19/45/38 28/65/52
f 26/66/49 17/58/33 27/57/26
f 27/57/25 17/58/34 26/66/50
f 30/67/24 22/61/36 28/60/51
f 28/60/52 22/61/35 30/67/23
f 23/68/43 29/69/53 24/70/45
f 24/70/46 29/69/54 23/68/44
f 25/71/47 24/70/45 29/69/53
f 29/69/54 24/70/46 25/71/48
f 31/72/55 28/65/51 26/55/49
f 26/55/50 28/65/52 31/72/56
f 27/73/26 32/74/10 26/75/49
f 26/75/50 32/74/9 27/73/25
f 28/76/51 33/77/57 30/78/24
f 30/78/23 33/77/58 28/76/52
f 33/79/57 28/65/51 31/72/55
f 31/72/56 28/65/52 33/79/58
f 31/80/55 26/75/49 32/74/10
f 32/74/9 26/75/50 31/80/56
f 34/81/22 30/78/24 33/77/57
f 33/77/58 30/78/23 34/81/21
f 35/82/59 33/79/57 31/72/55
f 31/72/56 33/79/58 35/82/60
f 32/83/10 36/84/4 31/85/55
f 31/85/56 36/84/3 32/83/9
f 33/86/57 37/87/61 34/88/22
f 34/88/21 37/87/62 33/86/58
f 37/89/61 33/79/57 35/82/59
f 35/82/60 33/79/58 37/89/62
f 35/90/59 31/85/55 36/84/4
f 36/84/3 31/85/56 35/90/60
f 38/91/32 34/88/22 37/87/61
f 37/87/62 34/88/21 38/91/31
f 39/92/63 37/89/61 35/82/59
f 35/82/60 37/89/62 39/92/64
f 35/93/59 36/94/4 39/95/63
f 39/95/64 36/94/3 35/93/60
f 38/96/32 37/97/61 40/98/42
f 40/98/41 37/97/62 38/96/31
f 41/99/65 37/89/61 39/92/63
f 39/92/64 37/89/62 41/99/66
f 42/100/20 39/95/63 36/94/4
f 36/94/3 39/95/64 42/100/19
f 41/101/65 40/98/42 37/97/61
f 37/97/62 40/98/41 41/101/66
f 43/102/67 41/99/65 39/92/63
f 39/92/64 41/99/66 43/102/68
f 39/103/63 42/104/20 43/105/67
f 43/105/68 42/104/19 39/103/64
f 40/106/42 41/107/65 44/108/48
f 44/108/47 41/107/66 40/106/41
f 45/109/69 41/99/65 43/102/67
f 43/102/68 41/99/66 45/109/70
f 46/110/40 43/105/67 42/104/20
f 42/104/19 43/105/68 46/110/39
f 45/111/69 44/108/48 41/107/65
f 41/107/66 44/108/47 45/111/70
f 47/112/71 45/109/69 43/102/67
f 43/102/68 45/109/70 47/112/72
f 43/113/67 46/114/40 47/115/71
f 47/115/72 46/114/39 43/113/68
f 44/116/48 45/117/69 48/118/54
f 48/118/53 45/117/70 44/116/47
f 47/119/71 48/118/54 45/117/69
f 45/117/70 48/118/53 47/119/72
f 48/120/54 47/115/71 46/114/40
f 46/114/39 47/115/72 48/120/53
