# SSTK version 0.8.0
# 96
mtllib original-96.mtl
o mesh107/mesh107-geometry#mesh107-geometry
v 0.557195 0.526185 -0.227227
v 0.562498 0.523988 -0.228913
v 0.557195 0.523988 -0.228913
v 0.562498 0.526185 -0.227227
v 0.562498 0.522303 -0.231110
v 0.557195 0.528743 -0.226168
v 0.562498 0.528743 -0.226168
v 0.557195 0.522303 -0.231110
v 0.562498 0.531488 -0.225807
v 0.562498 0.521244 -0.233668
v 0.562498 0.534233 -0.226168
v 0.557195 0.531488 -0.225807
v 0.557195 0.521244 -0.233668
v 0.557195 0.534233 -0.226168
v 0.557195 0.520882 -0.236413
v 0.562498 0.536791 -0.227227
v 0.562498 0.520882 -0.236413
v 0.557195 0.536791 -0.227227
v 0.557195 0.521244 -0.239157
v 0.562498 0.538987 -0.228913
v 0.562498 0.521244 -0.239157
v 0.557195 0.538987 -0.228913
v 0.557195 0.522303 -0.241715
v 0.562498 0.540673 -0.231110
v 0.562498 0.522303 -0.241715
v 0.557195 0.540673 -0.231110
v 0.557195 0.523988 -0.243912
v 0.562498 0.541732 -0.233668
v 0.562498 0.523988 -0.243912
v 0.557195 0.541732 -0.233668
v 0.557195 0.526185 -0.245598
v 0.562498 0.542093 -0.236413
v 0.562498 0.526185 -0.245598
v 0.557195 0.542093 -0.236413
v 0.557195 0.528743 -0.246657
v 0.562498 0.541732 -0.239157
v 0.562498 0.528743 -0.246657
v 0.557195 0.541732 -0.239157
v 0.562498 0.531488 -0.247018
v 0.562498 0.540673 -0.241715
v 0.557195 0.540673 -0.241715
v 0.557195 0.531488 -0.247018
v 0.562498 0.534233 -0.246657
v 0.562498 0.538987 -0.243912
v 0.557195 0.538987 -0.243912
v 0.557195 0.534233 -0.246657
v 0.562498 0.536791 -0.245598
v 0.557195 0.536791 -0.245598
vt 10.258384 -4.038468
vt 10.307597 -4.012774
vt 10.258384 -4.012774
vt 10.307597 -4.038468
vt 10.307597 -4.558983
vt 10.258384 -4.584677
vt 10.307597 -4.584677
vt -10.258384 3.21792
vt -10.307597 3.192226
vt -10.258384 3.192226
vt 3.672018 -3.238304
vt 3.62107 -3.238304
vt 3.646544 -3.241658
vt 10.258384 -4.558983
vt 3.695757 -3.228471
vt 3.597331 -3.228471
vt -10.307597 3.21792
vt 10.307597 -4.793629
vt 10.258384 -4.819324
vt 10.307597 -4.819324
vt 3.716141 -3.21283
vt -10.258384 2.178951
vt -10.307597 2.153257
vt -10.258384 2.153257
vt -10.307597 2.178951
vt 10.258384 -4.793629
vt 3.576947 -3.21283
vt -10.307597 0.966672
vt -10.258384 0.992366
vt -10.307597 0.992366
vt -10.258384 0.966672
vt 10.307597 -4.726416
vt 10.258384 -4.700722
vt 10.258384 -4.726416
vt 3.731783 -3.192445
vt -10.258384 -0.286666
vt -10.307597 -0.260972
vt -10.307597 -0.286666
vt 10.307597 -4.700722
vt 3.561305 -3.192445
vt -10.258384 -0.260972
vt 10.307597 -4.312287
vt 10.258384 -4.286593
vt 10.258384 -4.312287
vt 3.741615 -3.168707
vt -10.258384 -1.521343
vt -10.307597 -1.495649
vt -10.307597 -1.521343
vt 10.307597 -4.286593
vt 3.551472 -3.168707
vt -10.258384 -1.495649
vt 10.307597 -3.605158
vt 10.258384 -3.579464
vt 10.258384 -3.605158
vt 3.744969 -3.143232
vt -10.258384 -2.653219
vt -10.307597 -2.627525
vt -10.307597 -2.653219
vt 10.307597 -3.579464
vt 3.548119 -3.143232
vt -10.258384 -2.627525
vt 10.307597 -2.653219
vt 10.258384 -2.627525
vt 10.258384 -2.653219
vt 3.741615 -3.117758
vt -10.258384 -3.605158
vt -10.307597 -3.579464
vt -10.307597 -3.605158
vt 10.307597 -2.627525
vt 3.551472 -3.117758
vt -10.258384 -3.579464
vt 10.307597 -1.521343
vt 10.258384 -1.495649
vt 10.258384 -1.521343
vt 3.731783 -3.09402
vt -10.258384 -4.312287
vt -10.307597 -4.286593
vt -10.307597 -4.312287
vt 10.307597 -1.495649
vt 3.561305 -3.09402
vt -10.258384 -4.286593
vt 10.307597 -0.286666
vt 10.258384 -0.260972
vt 10.258384 -0.286666
vt 3.716141 -3.073635
vt -10.258384 -4.726416
vt -10.307597 -4.700722
vt -10.307597 -4.726416
vt 10.307597 -0.260972
vt 3.576947 -3.073635
vt -10.258384 -4.700722
vt 10.307597 0.992366
vt 10.258384 0.966672
vt 10.307597 0.966672
vt 3.695757 -3.057994
vt -10.258384 -4.793629
vt -10.307597 -4.819324
vt -10.258384 -4.819324
vt 10.258384 0.992366
vt 3.597331 -3.057994
vt -10.307597 -4.793629
vt 10.307597 2.178951
vt 10.258384 2.153257
vt 10.307597 2.153257
vt 3.672018 -3.048161
vt -10.258384 -4.558983
vt -10.307597 -4.584677
vt -10.258384 -4.584677
vt 10.258384 2.178951
vt 3.62107 -3.048161
vt -10.307597 -4.558983
vt 10.307597 3.21792
vt 10.258384 3.192226
vt 10.307597 3.192226
vt 3.646544 -3.044807
vt -10.258384 -4.012774
vt -10.307597 -4.038468
vt -10.258384 -4.038468
vt 10.258384 3.21792
vt -10.307597 -4.012774
vn 0 0.5000001748438417 -0.8660253028382762
vn -0.450293059452872 0.6313620833596884 -0.6313620833596884
vn 0 0.7071067811865476 -0.7071067811865476
vn -0.4502929112893783 0.44643991204844413 -0.7732578476631928
vn 0 -0.7071067811865476 0.7071067811865476
vn 0.450293059452872 -0.6313620833596884 0.6313620833596884
vn 0 -0.5000001748438417 0.8660253028382762
vn 0.4502929112893783 -0.44643991204844413 0.7732578476631928
vn -0.4502929112893783 0.7732578476631928 -0.44643991204844413
vn 0.4502929112893783 -0.7732578476631928 0.44643991204844413
vn 0 0.2588189595935754 -0.965925849201117
vn 0 -0.2588189595935754 0.965925849201117
vn -0.4502928285008306 0.23109491198486193 -0.862456671523521
vn 0.4502928285008306 -0.23109491198486193 0.862456671523521
vn 0 0.8660253028382762 -0.5000001748438417
vn 0 -0.8660253028382762 0.5000001748438417
vn -0.45029294010879145 0 -0.8928808812423862
vn 0.45029294010879145 0 0.8928808812423862
vn -0.4502928285008306 0.862456671523521 -0.23109491198486193
vn 0.4502928285008306 -0.862456671523521 0.23109491198486193
vn -0.4502928285008306 -0.23109491198486193 -0.862456671523521
vn 0.4502928285008306 0.23109491198486193 0.862456671523521
vn 0 0 -1
vn 0 0 1
vn 0 0.965925849201117 -0.2588189595935754
vn 0 -0.965925849201117 0.2588189595935754
vn 0 -0.2588189595935754 -0.965925849201117
vn 0 0.2588189595935754 0.965925849201117
vn 0 1 0
vn 0 -1 0
vn -0.4502929112893783 -0.44643991204844413 -0.7732578476631928
vn 0.4502929112893783 0.44643991204844413 0.7732578476631928
vn -0.45029294010879145 0.8928808812423862 0
vn 0.45029294010879145 -0.8928808812423862 0
vn 0 -0.5000001748438417 -0.8660253028382762
vn 0 0.5000001748438417 0.8660253028382762
vn 0 0.965925849201117 0.2588189595935754
vn 0 -0.965925849201117 -0.2588189595935754
vn -0.450293059452872 -0.6313620833596884 -0.6313620833596884
vn 0.450293059452872 0.6313620833596884 0.6313620833596884
vn -0.4502928285008306 0.862456671523521 0.23109491198486193
vn 0.4502928285008306 -0.862456671523521 -0.23109491198486193
vn 0 -0.7071067811865476 -0.7071067811865476
vn 0 0.7071067811865476 0.7071067811865476
vn 0 0.8660253028382762 0.5000001748438417
vn 0 -0.8660253028382762 -0.5000001748438417
vn -0.4502929112893783 -0.7732578476631928 -0.44643991204844413
vn 0.4502929112893783 0.7732578476631928 0.44643991204844413
vn -0.4502929112893783 0.7732578476631928 0.44643991204844413
vn 0.4502929112893783 -0.7732578476631928 -0.44643991204844413
vn -0.4502928285008306 -0.862456671523521 -0.23109491198486193
vn 0.4502928285008306 0.862456671523521 0.23109491198486193
vn -0.450293059452872 0.6313620833596884 0.6313620833596884
vn 0.450293059452872 -0.6313620833596884 -0.6313620833596884
vn -0.45029294010879145 -0.8928808812423862 0
vn 0.45029294010879145 0.8928808812423862 0
vn -0.4502929112893783 0.44643991204844413 0.7732578476631928
vn 0.4502929112893783 -0.44643991204844413 -0.7732578476631928
vn -0.4502928285008306 -0.862456671523521 0.23109491198486193
vn 0.4502928285008306 0.862456671523521 -0.23109491198486193
vn -0.4502928285008306 0.23109491198486193 0.862456671523521
vn 0.4502928285008306 -0.23109491198486193 -0.862456671523521
vn -0.45029294010879145 0 0.8928808812423862
vn 0.45029294010879145 0 -0.8928808812423862
vn -0.4502929112893783 -0.7732578476631928 0.44643991204844413
vn 0.4502929112893783 0.7732578476631928 -0.44643991204844413
vn -0.4502928285008306 -0.23109491198486193 0.862456671523521
vn 0.4502928285008306 0.23109491198486193 -0.862456671523521
vn -0.450293059452872 -0.6313620833596884 0.6313620833596884
vn 0.450293059452872 0.6313620833596884 -0.6313620833596884
vn -0.4502929112893783 -0.44643991204844413 0.7732578476631928
vn 0.4502929112893783 0.44643991204844413 -0.7732578476631928
usemtl material_0_0
f 1/1/1 2/2/2 3/3/3
f 2/2/2 1/1/1 4/4/4
f 3/3/5 2/2/6 1/1/7
f 4/4/8 1/1/7 2/2/6
f 5/5/9 3/6/3 2/7/2
f 2/7/6 3/6/5 5/5/10
f 6/8/11 4/9/4 1/10/1
f 1/10/7 4/9/8 6/8/12
f 7/11/13 2/12/2 4/13/4
f 4/13/8 2/12/6 7/11/14
f 3/6/3 5/5/9 8/14/15
f 8/14/16 5/5/10 3/6/5
f 2/12/2 9/15/17 5/16/9
f 5/16/10 9/15/18 2/12/6
f 4/9/4 6/8/11 7/17/13
f 7/17/14 6/8/12 4/9/8
f 2/12/2 7/11/13 9/15/17
f 9/15/18 7/11/14 2/12/6
f 10/18/19 8/19/15 5/20/9
f 5/20/10 8/19/16 10/18/20
f 5/16/9 9/15/17 11/21/21
f 11/21/22 9/15/18 5/16/10
f 12/22/23 7/23/13 6/24/11
f 6/24/12 7/23/14 12/22/24
f 7/23/13 12/22/23 9/25/17
f 9/25/18 12/22/24 7/23/14
f 8/19/15 10/18/19 13/26/25
f 13/26/26 10/18/20 8/19/16
f 5/16/9 11/21/21 10/27/19
f 10/27/20 11/21/22 5/16/10
f 9/28/17 14/29/27 11/30/21
f 11/30/22 14/29/28 9/28/18
f 14/29/27 9/28/17 12/31/23
f 12/31/24 9/28/18 14/29/28
f 10/32/19 15/33/29 13/34/25
f 13/34/26 15/33/30 10/32/20
f 10/27/19 11/21/21 16/35/31
f 16/35/32 11/21/22 10/27/20
f 14/36/27 16/37/31 11/38/21
f 11/38/22 16/37/32 14/36/28
f 15/33/29 10/32/19 17/39/33
f 17/39/34 10/32/20 15/33/30
f 10/27/19 16/35/31 17/40/33
f 17/40/34 16/35/32 10/27/20
f 16/37/31 14/36/27 18/41/35
f 18/41/36 14/36/28 16/37/32
f 17/42/33 19/43/37 15/44/29
f 15/44/30 19/43/38 17/42/34
f 17/40/33 16/35/31 20/45/39
f 20/45/40 16/35/32 17/40/34
f 18/46/35 20/47/39 16/48/31
f 16/48/32 20/47/40 18/46/36
f 19/43/37 17/42/33 21/49/41
f 21/49/42 17/42/34 19/43/38
f 17/40/33 20/45/39 21/50/41
f 21/50/42 20/45/40 17/40/34
f 20/47/39 18/46/35 22/51/43
f 22/51/44 18/46/36 20/47/40
f 21/52/41 23/53/45 19/54/37
f 19/54/38 23/53/46 21/52/42
f 21/50/41 20/45/39 24/55/47
f 24/55/48 20/45/40 21/50/42
f 22/56/43 24/57/47 20/58/39
f 20/58/40 24/57/48 22/56/44
f 23/53/45 21/52/41 25/59/49
f 25/59/50 21/52/42 23/53/46
f 21/50/41 24/55/47 25/60/49
f 25/60/50 24/55/48 21/50/42
f 24/57/47 22/56/43 26/61/46
f 26/61/45 22/56/44 24/57/48
f 25/62/49 27/63/44 23/64/45
f 23/64/46 27/63/43 25/62/50
f 25/60/49 24/55/47 28/65/51
f 28/65/52 24/55/48 25/60/50
f 26/66/46 28/67/51 24/68/47
f 24/68/48 28/67/52 26/66/45
f 27/63/44 25/62/49 29/69/53
f 29/69/54 25/62/50 27/63/43
f 25/60/49 28/65/51 29/70/53
f 29/70/54 28/65/52 25/60/50
f 28/67/51 26/66/46 30/71/38
f 30/71/37 26/66/45 28/67/52
f 29/72/53 31/73/36 27/74/44
f 27/74/43 31/73/35 29/72/54
f 29/70/53 28/65/51 32/75/55
f 32/75/56 28/65/52 29/70/54
f 30/76/38 32/77/55 28/78/51
f 28/78/52 32/77/56 30/76/37
f 31/73/36 29/72/53 33/79/57
f 33/79/58 29/72/54 31/73/35
f 29/70/53 32/75/55 33/80/57
f 33/80/58 32/75/56 29/70/54
f 32/77/55 30/76/38 34/81/30
f 34/81/29 30/76/37 32/77/56
f 33/82/57 35/83/28 31/84/36
f 31/84/35 35/83/27 33/82/58
f 33/80/57 32/75/55 36/85/59
f 36/85/60 32/75/56 33/80/58
f 34/86/30 36/87/59 32/88/55
f 32/88/56 36/87/60 34/86/29
f 35/83/28 33/82/57 37/89/61
f 37/89/62 33/82/58 35/83/27
f 33/80/57 36/85/59 37/90/61
f 37/90/62 36/85/60 33/80/58
f 36/87/59 34/86/30 38/91/26
f 38/91/25 34/86/29 36/87/60
f 39/92/63 35/93/28 37/94/61
f 37/94/62 35/93/27 39/92/64
f 37/90/61 36/85/59 40/95/65
f 40/95/66 36/85/60 37/90/62
f 41/96/16 36/97/59 38/98/26
f 38/98/25 36/97/60 41/96/15
f 35/93/28 39/92/63 42/99/24
f 42/99/23 39/92/64 35/93/27
f 37/90/61 40/95/65 39/100/63
f 39/100/64 40/95/66 37/90/62
f 36/97/59 41/96/16 40/101/65
f 40/101/66 41/96/15 36/97/60
f 43/102/67 42/103/24 39/104/63
f 39/104/64 42/103/23 43/102/68
f 39/100/63 40/95/65 44/105/69
f 44/105/70 40/95/66 39/100/64
f 45/106/5 40/107/65 41/108/16
f 41/108/15 40/107/66 45/106/3
f 42/103/24 43/102/67 46/109/12
f 46/109/11 43/102/68 42/103/23
f 39/100/63 44/105/69 43/110/67
f 43/110/68 44/105/70 39/100/64
f 40/107/65 45/106/5 44/111/69
f 44/111/70 45/106/3 40/107/66
f 47/112/71 46/113/12 43/114/67
f 43/114/68 46/113/11 47/112/72
f 43/110/67 44/105/69 47/115/71
f 47/115/72 44/105/70 43/110/68
f 48/116/7 44/117/69 45/118/5
f 45/118/3 44/117/70 48/116/1
f 46/113/12 47/112/71 48/119/7
f 48/119/1 47/112/72 46/113/11
f 44/117/69 48/116/7 47/120/71
f 47/120/72 48/116/1 44/117/70
