# SSTK version 0.8.0
# 77
mtllib original-77.mtl
o mesh88/mesh88-geometry#mesh88-geometry
v 0.561432 0.252369 -0.418698
v 0.566735 0.248899 -0.421361
v 0.561432 0.248899 -0.421361
v 0.566735 0.252369 -0.418698
v 0.566735 0.244857 -0.423035
v 0.561432 0.255032 -0.415227
v 0.561432 0.244857 -0.423035
v 0.566735 0.255032 -0.415227
v 0.566735 0.240520 -0.423606
v 0.561432 0.256706 -0.411186
v 0.561432 0.240520 -0.423606
v 0.566735 0.256706 -0.411186
v 0.566735 0.236183 -0.423035
v 0.566735 0.257277 -0.406848
v 0.561432 0.236183 -0.423035
v 0.561432 0.257277 -0.406848
v 0.561432 0.232142 -0.421361
v 0.566735 0.256706 -0.402512
v 0.566735 0.232142 -0.421361
v 0.561432 0.256706 -0.402512
v 0.561432 0.228671 -0.418698
v 0.566735 0.255032 -0.398470
v 0.566735 0.228671 -0.418698
v 0.561432 0.255032 -0.398470
v 0.561432 0.226008 -0.415227
v 0.566735 0.252369 -0.395000
v 0.566735 0.226008 -0.415227
v 0.561432 0.252369 -0.395000
v 0.566735 0.224334 -0.411186
v 0.561432 0.224334 -0.411186
v 0.566735 0.248899 -0.392337
v 0.566735 0.223763 -0.406848
v 0.561432 0.248899 -0.392337
v 0.561432 0.223763 -0.406848
v 0.566735 0.244857 -0.390662
v 0.561432 0.224334 -0.402512
v 0.561432 0.244857 -0.390662
v 0.566735 0.224334 -0.402512
v 0.561432 0.240520 -0.390091
v 0.566735 0.240520 -0.390091
v 0.566735 0.226008 -0.398470
v 0.561432 0.226008 -0.398470
v 0.561432 0.236183 -0.390662
v 0.566735 0.236183 -0.390662
v 0.566735 0.228671 -0.395000
v 0.561432 0.228671 -0.395000
v 0.561432 0.232142 -0.392337
v 0.566735 0.232142 -0.392337
vt 10.297699 -0.940755
vt 10.346912 -0.900158
vt 10.297699 -0.900158
vt 10.346912 -0.940755
vt -10.346912 0.084741
vt -10.297699 0.125338
vt -10.346912 0.125338
vt 10.297699 -1.693444
vt 10.346912 -1.652847
vt 10.297699 -1.652847
vt -0.557422 -2.973362
vt -0.476923 -2.973362
vt -0.517173 -2.968063
vt -10.297699 0.084741
vt 10.346912 -1.693444
vt -0.594928 -2.988898
vt -10.346912 -0.737834
vt -10.297699 -0.697237
vt -10.346912 -0.697237
vt 10.297699 -2.332111
vt 10.346912 -2.291514
vt 10.297699 -2.291514
vt -0.439417 -2.988898
vt -10.297699 -0.737834
vt 10.346912 -2.332111
vt -0.627136 -3.013611
vt -10.346912 -1.51151
vt -10.297699 -1.470913
vt -10.346912 -1.470913
vt 10.297699 -2.772635
vt 10.346912 -2.813232
vt 10.346912 -2.772635
vt -0.407209 -3.013611
vt -10.297699 -1.51151
vt 10.297699 -2.813232
vt -0.65185 -3.045819
vt -10.346912 -2.142965
vt -10.297699 -2.183562
vt -10.297699 -2.142965
vt 10.297699 -3.063422
vt 10.346912 -3.104019
vt 10.346912 -3.063422
vt -0.382495 -3.045819
vt -10.346912 -2.183562
vt 10.297699 -3.104019
vt -0.667385 -3.083325
vt -10.346912 -2.667595
vt -10.297699 -2.708192
vt -10.297699 -2.667595
vt 10.297699 -3.144058
vt 10.346912 -3.184655
vt 10.346912 -3.144058
vt -0.36696 -3.083325
vt -10.346912 -2.708192
vt 10.297699 -3.184655
vt -0.672684 -3.123575
vt -10.346912 -3.009049
vt -10.297699 -3.049646
vt -10.297699 -3.009049
vt 10.297699 -3.009049
vt 10.346912 -3.049646
vt 10.346912 -3.009049
vt -0.361661 -3.123575
vt -10.346912 -3.049646
vt 10.297699 -3.049646
vt -0.667385 -3.163824
vt -0.36696 -3.163824
vt -10.346912 -3.144058
vt -10.297699 -3.184655
vt -10.297699 -3.144058
vt 10.297699 -2.667595
vt 10.346912 -2.708192
vt 10.346912 -2.667595
vt -0.382495 -3.201331
vt -10.346912 -3.184655
vt 10.297699 -2.708192
vt -0.65185 -3.201331
vt -10.297699 -3.104019
vt -10.346912 -3.063422
vt -10.346912 -3.104019
vt -10.297699 -3.063422
vt 10.297699 -2.142965
vt 10.346912 -2.183562
vt 10.346912 -2.142965
vt -0.627136 -3.233538
vt -10.346912 -2.772635
vt -10.297699 -2.813232
vt -10.297699 -2.772635
vt 10.297699 -2.183562
vt -0.407209 -3.233538
vt -10.346912 -2.813232
vt 10.297699 -1.51151
vt 10.346912 -1.470913
vt 10.297699 -1.470913
vt -0.594928 -3.258252
vt -10.346912 -2.332111
vt -10.297699 -2.291514
vt -10.346912 -2.291514
vt 10.346912 -1.51151
vt -0.439417 -3.258252
vt -10.297699 -2.332111
vt 10.297699 -0.737834
vt 10.346912 -0.697237
vt 10.297699 -0.697237
vt -0.557422 -3.273788
vt -10.346912 -1.693444
vt -10.297699 -1.652847
vt -10.346912 -1.652847
vt 10.346912 -0.737834
vt -0.476923 -3.273788
vt -10.297699 -1.693444
vt 10.297699 0.084741
vt 10.346912 0.125338
vt 10.297699 0.125338
vt -0.517173 -3.279087
vt -10.346912 -0.940755
vt -10.297699 -0.900158
vt -10.346912 -0.900158
vt 10.346912 0.084741
vt -10.297699 -0.940755
vn 0 0.7071067811865476 -0.7071067811865476
vn 0.4502929112893783 0.44643991204844413 -0.7732578476631928
vn 0 0.5000001748438417 -0.8660253028382762
vn 0.450293059452872 0.6313620833596884 -0.6313620833596884
vn 0 -0.5000001748438417 0.8660253028382762
vn -0.4502929112893783 -0.44643991204844413 0.7732578476631928
vn 0 -0.7071067811865476 0.7071067811865476
vn -0.450293059452872 -0.6313620833596884 0.6313620833596884
vn 0.4502928285008306 0.23109491198486193 -0.862456671523521
vn -0.4502928285008306 -0.23109491198486193 0.862456671523521
vn 0 0.8660253028382762 -0.5000001748438417
vn 0 -0.8660253028382762 0.5000001748438417
vn 0 0.2588189595935754 -0.965925849201117
vn 0 -0.2588189595935754 0.965925849201117
vn 0.4502929112893783 0.7732578476631928 -0.44643991204844413
vn -0.4502929112893783 -0.7732578476631928 0.44643991204844413
vn 0.45029294010879145 0 -0.8928808812423862
vn -0.45029294010879145 0 0.8928808812423862
vn 0 0.965925849201117 -0.2588189595935754
vn 0 -0.965925849201117 0.2588189595935754
vn 0 0 -1
vn 0 0 1
vn 0.4502928285008306 0.862456671523521 -0.23109491198486193
vn -0.4502928285008306 -0.862456671523521 0.23109491198486193
vn 0.4502928285008306 -0.23109491198486193 -0.862456671523521
vn -0.4502928285008306 0.23109491198486193 0.862456671523521
vn 0.45029294010879145 0.8928808812423862 0
vn -0.45029294010879145 -0.8928808812423862 0
vn 0 -0.2588189595935754 -0.965925849201117
vn 0 0.2588189595935754 0.965925849201117
vn 0 1 0
vn 0 -1 0
vn 0 -0.5000001748438417 -0.8660253028382762
vn 0 0.5000001748438417 0.8660253028382762
vn 0.4502928285008306 0.862456671523521 0.23109491198486193
vn -0.4502928285008306 -0.862456671523521 -0.23109491198486193
vn 0.4502929112893783 -0.44643991204844413 -0.7732578476631928
vn -0.4502929112893783 0.44643991204844413 0.7732578476631928
vn 0 0.965925849201117 0.2588189595935754
vn 0 -0.965925849201117 -0.2588189595935754
vn 0 -0.7071067811865476 -0.7071067811865476
vn 0 0.7071067811865476 0.7071067811865476
vn 0.4502929112893783 0.7732578476631928 0.44643991204844413
vn -0.4502929112893783 -0.7732578476631928 -0.44643991204844413
vn 0.450293059452872 -0.6313620833596884 -0.6313620833596884
vn -0.450293059452872 0.6313620833596884 0.6313620833596884
vn 0 0.8660253028382762 0.5000001748438417
vn 0 -0.8660253028382762 -0.5000001748438417
vn 0.450293059452872 0.6313620833596884 0.6313620833596884
vn -0.450293059452872 -0.6313620833596884 -0.6313620833596884
vn 0.4502929112893783 -0.7732578476631928 -0.44643991204844413
vn -0.4502929112893783 0.7732578476631928 0.44643991204844413
vn 0.4502928285008306 -0.862456671523521 -0.23109491198486193
vn -0.4502928285008306 0.862456671523521 0.23109491198486193
vn 0.4502929112893783 0.44643991204844413 0.7732578476631928
vn -0.4502929112893783 -0.44643991204844413 -0.7732578476631928
vn 0.45029294010879145 -0.8928808812423862 0
vn -0.45029294010879145 0.8928808812423862 0
vn 0.4502928285008306 0.23109491198486193 0.862456671523521
vn -0.4502928285008306 -0.23109491198486193 -0.862456671523521
vn 0.4502928285008306 -0.862456671523521 0.23109491198486193
vn -0.4502928285008306 0.862456671523521 -0.23109491198486193
vn 0.45029294010879145 0 0.8928808812423862
vn -0.45029294010879145 0 -0.8928808812423862
vn 0.4502929112893783 -0.7732578476631928 0.44643991204844413
vn -0.4502929112893783 0.7732578476631928 -0.44643991204844413
vn 0.4502928285008306 -0.23109491198486193 0.862456671523521
vn -0.4502928285008306 0.23109491198486193 -0.862456671523521
vn 0.450293059452872 -0.6313620833596884 0.6313620833596884
vn -0.450293059452872 0.6313620833596884 -0.6313620833596884
vn 0.4502929112893783 -0.44643991204844413 0.7732578476631928
vn -0.4502929112893783 0.44643991204844413 -0.7732578476631928
usemtl material_0_0
f 1/1/1 2/2/2 3/3/3
f 2/2/2 1/1/1 4/4/4
f 3/3/5 2/2/6 1/1/7
f 4/4/8 1/1/7 2/2/6
f 5/5/9 3/6/3 2/7/2
f 2/7/6 3/6/5 5/5/10
f 6/8/11 4/9/4 1/10/1
f 1/10/7 4/9/8 6/8/12
f 4/11/4 5/12/9 2/13/2
f 2/13/6 5/12/10 4/11/8
f 3/6/3 5/5/9 7/14/13
f 7/14/14 5/5/10 3/6/5
f 4/9/4 6/8/11 8/15/15
f 8/15/16 6/8/12 4/9/8
f 8/16/15 5/12/9 4/11/4
f 4/11/8 5/12/10 8/16/16
f 9/17/17 7/18/13 5/19/9
f 5/19/10 7/18/14 9/17/18
f 10/20/19 8/21/15 6/22/11
f 6/22/12 8/21/16 10/20/20
f 8/16/15 9/23/17 5/12/9
f 5/12/10 9/23/18 8/16/16
f 7/18/13 9/17/17 11/24/21
f 11/24/22 9/17/18 7/18/14
f 8/21/15 10/20/19 12/25/23
f 12/25/24 10/20/20 8/21/16
f 12/26/23 9/23/17 8/16/15
f 8/16/16 9/23/18 12/26/24
f 13/27/25 11/28/21 9/29/17
f 9/29/18 11/28/22 13/27/26
f 10/30/19 14/31/27 12/32/23
f 12/32/24 14/31/28 10/30/20
f 12/26/23 13/33/25 9/23/17
f 9/23/18 13/33/26 12/26/24
f 11/28/21 13/27/25 15/34/29
f 15/34/30 13/27/26 11/28/22
f 14/31/27 10/30/19 16/35/31
f 16/35/32 10/30/20 14/31/28
f 14/36/27 13/33/25 12/26/23
f 12/26/24 13/33/26 14/36/28
f 13/37/25 17/38/33 15/39/29
f 15/39/30 17/38/34 13/37/26
f 16/40/31 18/41/35 14/42/27
f 14/42/28 18/41/36 16/40/32
f 14/36/27 19/43/37 13/33/25
f 13/33/26 19/43/38 14/36/28
f 17/38/33 13/37/25 19/44/37
f 19/44/38 13/37/26 17/38/34
f 18/41/35 16/40/31 20/45/39
f 20/45/40 16/40/32 18/41/36
f 18/46/35 19/43/37 14/36/27
f 14/36/28 19/43/38 18/46/36
f 19/47/37 21/48/41 17/49/33
f 17/49/34 21/48/42 19/47/38
f 20/50/39 22/51/43 18/52/35
f 18/52/36 22/51/44 20/50/40
f 18/46/35 23/53/45 19/43/37
f 19/43/38 23/53/46 18/46/36
f 21/48/41 19/47/37 23/54/45
f 23/54/46 19/47/38 21/48/42
f 22/51/43 20/50/39 24/55/47
f 24/55/48 20/50/40 22/51/44
f 22/56/43 23/53/45 18/46/35
f 18/46/36 23/53/46 22/56/44
f 23/57/45 25/58/48 21/59/41
f 21/59/42 25/58/47 23/57/46
f 24/60/47 26/61/49 22/62/43
f 22/62/44 26/61/50 24/60/48
f 22/56/43 27/63/51 23/53/45
f 23/53/46 27/63/52 22/56/44
f 25/58/48 23/57/45 27/64/51
f 27/64/52 23/57/46 25/58/47
f 26/61/49 24/60/47 28/65/42
f 28/65/41 24/60/48 26/61/50
f 26/66/49 29/67/53 22/56/43
f 22/56/44 29/67/54 26/66/50
f 22/56/43 29/67/53 27/63/51
f 27/63/52 29/67/54 22/56/44
f 27/68/51 30/69/40 25/70/48
f 25/70/47 30/69/39 27/68/52
f 28/71/42 31/72/55 26/73/49
f 26/73/50 31/72/56 28/71/41
f 26/66/49 32/74/57 29/67/53
f 29/67/54 32/74/58 26/66/50
f 30/69/40 27/68/51 29/75/53
f 29/75/54 27/68/52 30/69/39
f 31/72/55 28/71/42 33/76/34
f 33/76/33 28/71/41 31/72/56
f 31/77/55 32/74/57 26/66/49
f 26/66/50 32/74/58 31/77/56
f 34/78/32 29/79/53 32/80/57
f 32/80/58 29/79/54 34/78/31
f 29/79/53 34/78/32 30/81/40
f 30/81/39 34/78/31 29/79/54
f 33/82/34 35/83/59 31/84/55
f 31/84/56 35/83/60 33/82/33
f 35/85/59 32/74/57 31/77/55
f 31/77/56 32/74/58 35/85/60
f 32/86/57 36/87/20 34/88/32
f 34/88/31 36/87/19 32/86/58
f 35/83/59 33/82/34 37/89/30
f 37/89/29 33/82/33 35/83/60
f 35/85/59 38/90/61 32/74/57
f 32/74/58 38/90/62 35/85/60
f 36/87/20 32/86/57 38/91/61
f 38/91/62 32/86/58 36/87/19
f 39/92/22 35/93/59 37/94/30
f 37/94/29 35/93/60 39/92/21
f 40/95/63 38/90/61 35/85/59
f 35/85/60 38/90/62 40/95/64
f 41/96/65 36/97/20 38/98/61
f 38/98/62 36/97/19 41/96/66
f 35/93/59 39/92/22 40/99/63
f 40/99/64 39/92/21 35/93/60
f 40/95/63 41/100/65 38/90/61
f 38/90/62 41/100/66 40/95/64
f 36/97/20 41/96/65 42/101/12
f 42/101/11 41/96/66 36/97/19
f 43/102/14 40/103/63 39/104/22
f 39/104/21 40/103/64 43/102/13
f 44/105/67 41/100/65 40/95/63
f 40/95/64 41/100/66 44/105/68
f 45/106/69 42/107/12 41/108/65
f 41/108/66 42/107/11 45/106/70
f 40/103/63 43/102/14 44/109/67
f 44/109/68 43/102/13 40/103/64
f 44/105/67 45/110/69 41/100/65
f 41/100/66 45/110/70 44/105/68
f 42/107/12 45/106/69 46/111/7
f 46/111/1 45/106/70 42/107/11
f 47/112/5 44/113/67 43/114/14
f 43/114/13 44/113/68 47/112/3
f 45/110/69 44/105/67 48/115/71
f 48/115/72 44/105/68 45/110/70
f 48/116/71 46/117/7 45/118/69
f 45/118/70 46/117/1 48/116/72
f 44/113/67 47/112/5 48/119/71
f 48/119/72 47/112/3 44/113/68
f 46/117/7 48/116/71 47/120/5
f 47/120/3 48/116/72 46/117/1
