# SSTK version 0.8.0
# 83
mtllib original-83.mtl
o mesh94/mesh94-geometry#mesh94-geometry
v 0.510041 0.885521 -0.053147
v 0.514083 0.880091 -0.054349
v 0.510041 0.880928 -0.055799
v 0.514083 0.884683 -0.051698
v 0.505704 0.885806 -0.053642
v 0.514083 0.870171 -0.026562
v 0.517553 0.878759 -0.052043
v 0.505704 0.881214 -0.056294
v 0.510041 0.869335 -0.025113
v 0.517553 0.871503 -0.028868
v 0.517553 0.883352 -0.049391
v 0.501367 0.885521 -0.053147
v 0.505704 0.869049 -0.024618
v 0.510041 0.864742 -0.027764
v 0.514083 0.865579 -0.029214
v 0.520216 0.881617 -0.046386
v 0.501367 0.880928 -0.055799
v 0.505704 0.864457 -0.027269
v 0.517553 0.866911 -0.031520
v 0.520216 0.873238 -0.031874
v 0.520216 0.877024 -0.049038
v 0.497325 0.884683 -0.051698
v 0.501367 0.869335 -0.025113
v 0.501367 0.864742 -0.027764
v 0.520216 0.868646 -0.034525
v 0.521890 0.879596 -0.042886
v 0.521890 0.875259 -0.035374
v 0.497325 0.880091 -0.054349
v 0.521890 0.870667 -0.038025
v 0.521890 0.875003 -0.045537
v 0.493855 0.883352 -0.049391
v 0.497325 0.870171 -0.026562
v 0.497325 0.865579 -0.029214
v 0.522461 0.877427 -0.039130
v 0.522461 0.872835 -0.041781
v 0.493855 0.878759 -0.052043
v 0.491192 0.877024 -0.049038
v 0.493855 0.871503 -0.028868
v 0.493855 0.866911 -0.031520
v 0.491192 0.881617 -0.046386
v 0.489518 0.875003 -0.045537
v 0.491192 0.873238 -0.031874
v 0.489518 0.879596 -0.042886
v 0.491192 0.868646 -0.034525
v 0.488947 0.872835 -0.041781
v 0.489518 0.875259 -0.035374
v 0.488947 0.877427 -0.039130
v 0.489518 0.870667 -0.038025
vt -7.3423 -10.21107
vt -7.293088 -10.251667
vt -7.293088 -10.21107
vt -7.3423 -10.251667
vt -7.293088 -10.12486
vt -7.3423 -10.084263
vt -7.3423 -10.12486
vt 9.820776 -2.973362
vt 9.858283 -3.258252
vt 9.858283 -2.988898
vt -7.3423 -9.640627
vt -7.293088 -9.681224
vt -7.293088 -9.640627
vt -7.293088 -10.084263
vt 9.780527 -2.968063
vt 9.820776 -3.273788
vt 9.89049 -3.233538
vt -7.3423 -9.681224
vt 7.293088 9.309443
vt 7.3423 9.268846
vt 7.3423 9.309443
vt 9.780527 -3.279087
vt -7.293088 7.82039
vt -7.3423 7.860986
vt -7.3423 7.82039
vt -7.293088 5.837603
vt -7.3423 5.8782
vt -7.3423 5.837603
vt 9.89049 -3.013611
vt -7.3423 -8.452404
vt -7.293088 -8.411808
vt -7.3423 -8.411808
vt 7.293088 9.268846
vt 9.740277 -2.973362
vt -7.293088 9.268846
vt -7.3423 9.309443
vt -7.3423 9.268846
vt -7.293088 7.860986
vt -7.293088 9.309443
vt -7.293088 5.8782
vt 9.915204 -3.201331
vt -7.293088 -8.452404
vt 9.915204 -3.045819
vt 7.293088 7.860986
vt 7.3423 7.82039
vt 7.3423 7.860986
vt 9.740277 -3.273788
vt 7.3423 -10.12486
vt 7.293088 -10.084263
vt 7.293088 -10.12486
vt -7.293088 3.496207
vt -7.3423 3.45561
vt -7.293088 3.45561
vt -7.3423 3.496207
vt -7.3423 -6.648951
vt -7.293088 -6.608354
vt -7.3423 -6.608354
vt 9.93074 -3.163824
vt 7.293088 7.82039
vt 9.702771 -2.988898
vt 7.3423 -10.084263
vt -7.293088 0.877337
vt -7.3423 0.83674
vt -7.293088 0.83674
vt -7.293088 -6.648951
vt 9.93074 -3.083325
vt -7.3423 0.877337
vt 7.293088 5.8782
vt 7.3423 5.837603
vt 7.3423 5.8782
vt 9.702771 -3.258252
vt 7.3423 -10.251667
vt 7.293088 -10.21107
vt 7.293088 -10.251667
vt -7.3423 -4.393766
vt -7.293088 -4.353169
vt -7.3423 -4.353169
vt 9.936038 -3.123575
vt -7.293088 -1.799939
vt -7.3423 -1.840536
vt -7.293088 -1.840536
vt 7.293088 5.837603
vt 9.670563 -3.013611
vt 7.3423 -10.21107
vt -7.293088 -4.393766
vt -7.3423 -1.799939
vt 7.293088 3.45561
vt 7.3423 3.496207
vt 7.293088 3.496207
vt 9.670563 -3.233538
vt 7.3423 -9.681224
vt 7.293088 -9.640627
vt 7.293088 -9.681224
vt 7.3423 3.45561
vt 9.645849 -3.045819
vt 7.3423 -9.640627
vt 7.293088 0.83674
vt 7.3423 0.877337
vt 7.293088 0.877337
vt 9.645849 -3.201331
vt 7.3423 -8.411808
vt 7.293088 -8.452404
vt 7.3423 -8.452404
vt 7.3423 0.83674
vt 9.630314 -3.083325
vt 7.293088 -8.411808
vt 7.293088 -1.840536
vt 7.3423 -1.799939
vt 7.293088 -1.799939
vt 9.630314 -3.163824
vt 7.3423 -6.608354
vt 7.293088 -6.648951
vt 7.3423 -6.648951
vt 7.3423 -1.840536
vt 9.625015 -3.123575
vt 7.293088 -6.608354
vt 7.293088 -4.393766
vt 7.3423 -4.353169
vt 7.293088 -4.353169
vt 7.3423 -4.393766
vn 0.23109506118901177 0.8211932174343372 -0.5217631381516794
vn 0.49999993545776256 0.4330129441047443 -0.7499999031866438
vn 0.2588190579255234 0.4829631080905364 -0.8365161872181993
vn 0.44644008691475034 0.7765941511904705 -0.44451408653978886
vn -0.2588190579255234 -0.4829631080905364 0.8365161872181993
vn -0.49999993545776256 -0.4330129441047443 0.7499999031866438
vn -0.23109506118901177 -0.8211932174343372 0.5217631381516794
vn -0.44644008691475034 -0.7765941511904705 0.44451408653978886
vn 0 0.8364054214037403 -0.5481112761533294
vn 0 -0.8364054214037403 0.5481112761533294
vn 0.44644014068558757 0.0033360010512658365 0.8948072819784261
vn -0.44644014068558757 -0.0033360010512658365 -0.8948072819784261
vn 0.7071071769033884 0.35355308845156913 -0.612372153202672
vn -0.7071071769033884 -0.35355308845156913 0.612372153202672
vn 0 0.5000001748438417 -0.8660253028382762
vn 0 -0.5000001748438417 0.8660253028382762
vn 0.23109495362733576 -0.041262991719962595 0.9720558049424415
vn -0.23109495362733576 0.041262991719962595 -0.9720558049424415
vn 0.6313621067683921 0.07428401256202186 0.7719221305382187
vn -0.6313621067683921 -0.07428401256202186 -0.7719221305382187
vn 0.6313621685734059 0.7056461884072047 -0.32162908587481664
vn -0.6313621685734059 -0.7056461884072047 0.32162908587481664
vn -0.23109506118901177 0.8211932174343372 -0.5217631381516794
vn 0.23109506118901177 -0.8211932174343372 0.5217631381516794
vn 0 -0.05647500076690227 0.9984040135578273
vn 0 0.05647500076690227 -0.9984040135578273
vn 0.2588190579255234 -0.4829631080905364 0.8365161872181993
vn -0.2588190579255234 0.4829631080905364 -0.8365161872181993
vn 0.49999993545776256 -0.4330129441047443 0.7499999031866438
vn -0.49999993545776256 0.4330129441047443 -0.7499999031866438
vn 0.7732579168310894 0.6131849340479781 -0.16148198263156407
vn -0.7732579168310894 -0.6131849340479781 0.16148198263156407
vn 0.7071071769033884 -0.35355308845156913 0.612372153202672
vn -0.7071071769033884 0.35355308845156913 -0.612372153202672
vn 0.7732578143354082 0.1667449599633727 0.6117748531085929
vn -0.7732578143354082 -0.1667449599633727 -0.6117748531085929
vn 0.8660251910477763 0.25000005515076823 -0.4330130955239984
vn -0.8660251910477763 -0.25000005515076823 0.4330130955239984
vn -0.44644008691475034 0.7765941511904705 -0.44451408653978886
vn 0.44644008691475034 -0.7765941511904705 0.44451408653978886
vn -0.23109495362733576 -0.041262991719962595 0.9720558049424415
vn 0.23109495362733576 0.041262991719962595 -0.9720558049424415
vn 0.8660251910477763 -0.25000005515076823 0.4330130955239984
vn -0.8660251910477763 0.25000005515076823 -0.4330130955239984
vn 0.8624569529262383 0.5055119724086518 0.025012998634765558
vn -0.8624569529262383 -0.5055119724086518 -0.025012998634765558
vn 0.8624568301076644 0.2744179459433746 0.425279916225606
vn -0.8624568301076644 -0.2744179459433746 -0.425279916225606
vn 0.9659257496745788 -0.12940996646263506 0.22414394191176013
vn -0.9659257496745788 0.12940996646263506 -0.22414394191176013
vn 0.9659257496745788 0.12940996646263506 -0.22414394191176013
vn -0.9659257496745788 -0.12940996646263506 0.22414394191176013
vn -0.6313621685734059 0.7056461884072047 -0.32162908587481664
vn 0.6313621685734059 -0.7056461884072047 0.32162908587481664
vn -0.44644014068558757 0.0033360010512658365 0.8948072819784261
vn 0.44644014068558757 -0.0033360010512658365 -0.8948072819784261
vn 0.892881043437771 0.3899650189714087 0.22514601095312856
vn -0.892881043437771 -0.3899650189714087 -0.22514601095312856
vn 1 0 0
vn -1 0 0
vn -0.6313621067683921 0.07428401256202186 0.7719221305382187
vn 0.6313621067683921 -0.07428401256202186 -0.7719221305382187
vn -0.7732579168310894 0.6131849340479781 -0.16148198263156407
vn 0.7732579168310894 -0.6131849340479781 0.16148198263156407
vn -0.7732578143354082 0.1667449599633727 0.6117748531085929
vn 0.7732578143354082 -0.1667449599633727 -0.6117748531085929
vn -0.8624569529262383 0.5055119724086518 0.025012998634765558
vn 0.8624569529262383 -0.5055119724086518 -0.025012998634765558
vn -0.8624568301076644 0.2744179459433746 0.425279916225606
vn 0.8624568301076644 -0.2744179459433746 -0.425279916225606
vn -0.892881043437771 0.3899650189714087 0.22514601095312856
vn 0.892881043437771 -0.3899650189714087 -0.22514601095312856
usemtl material_0_0
f 1/1/1 2/2/2 3/3/3
f 2/2/2 1/1/1 4/4/4
f 3/3/5 2/2/6 1/1/7
f 4/4/8 1/1/7 2/2/6
f 3/5/3 5/6/9 1/7/1
f 1/7/7 5/6/10 3/5/5
f 1/8/1 6/9/11 4/10/4
f 4/10/8 6/9/12 1/8/7
f 4/11/4 7/12/13 2/13/2
f 2/13/6 7/12/14 4/11/8
f 5/6/9 3/5/3 8/14/15
f 8/14/16 3/5/5 5/6/10
f 5/15/9 9/16/17 1/8/1
f 1/8/7 9/16/18 5/15/10
f 1/8/1 9/16/17 6/9/11
f 6/9/12 9/16/18 1/8/7
f 4/10/4 6/9/11 10/17/19
f 10/17/20 6/9/12 4/10/8
f 7/12/13 4/11/4 11/18/21
f 11/18/22 4/11/8 7/12/14
f 8/19/15 12/20/23 5/21/9
f 5/21/10 12/20/24 8/19/16
f 5/15/9 13/22/25 9/16/17
f 9/16/18 13/22/26 5/15/10
f 14/23/27 6/24/11 9/25/17
f 9/25/18 6/24/12 14/23/28
f 15/26/29 10/27/19 6/28/11
f 6/28/12 10/27/20 15/26/30
f 4/10/4 10/17/19 11/29/21
f 11/29/22 10/17/20 4/10/8
f 16/30/31 7/31/13 11/32/21
f 11/32/22 7/31/14 16/30/32
f 12/20/23 8/19/15 17/33/28
f 17/33/27 8/19/16 12/20/24
f 12/34/23 13/22/25 5/15/9
f 5/15/10 13/22/26 12/34/24
f 18/35/16 9/36/17 13/37/25
f 13/37/26 9/36/18 18/35/15
f 6/24/11 14/23/27 15/38/29
f 15/38/30 14/23/28 6/24/12
f 9/36/17 18/35/16 14/39/27
f 14/39/28 18/35/15 9/36/18
f 10/27/19 15/26/29 19/40/33
f 19/40/34 15/26/30 10/27/20
f 11/29/21 10/17/19 20/41/35
f 20/41/36 10/17/20 11/29/22
f 7/31/13 16/30/31 21/42/37
f 21/42/38 16/30/32 7/31/14
f 11/29/21 20/41/35 16/43/31
f 16/43/32 20/41/36 11/29/22
f 17/44/28 22/45/39 12/46/23
f 12/46/24 22/45/40 17/44/27
f 12/34/23 23/47/41 13/22/25
f 13/22/26 23/47/42 12/34/24
f 13/48/25 24/49/5 18/50/16
f 18/50/15 24/49/3 13/48/26
f 25/51/43 10/52/19 19/53/33
f 19/53/34 10/52/20 25/51/44
f 10/52/19 25/51/43 20/54/35
f 20/54/36 25/51/44 10/52/20
f 26/55/45 21/56/37 16/57/31
f 16/57/32 21/56/38 26/55/46
f 16/43/31 20/41/35 27/58/47
f 27/58/48 20/41/36 16/43/32
f 22/45/39 17/44/28 28/59/30
f 28/59/29 17/44/27 22/45/40
f 22/60/39 23/47/41 12/34/23
f 12/34/24 23/47/42 22/60/40
f 24/49/5 13/48/25 23/61/41
f 23/61/42 13/48/26 24/49/3
f 29/62/49 20/63/35 25/64/43
f 25/64/44 20/63/36 29/62/50
f 21/56/37 26/55/45 30/65/51
f 30/65/52 26/55/46 21/56/38
f 16/43/31 27/58/47 26/66/45
f 26/66/46 27/58/48 16/43/32
f 20/63/35 29/62/49 27/67/47
f 27/67/48 29/62/50 20/63/36
f 28/68/30 31/69/53 22/70/39
f 22/70/40 31/69/54 28/68/29
f 22/60/39 32/71/55 23/47/41
f 23/47/42 32/71/56 22/60/40
f 23/72/41 33/73/6 24/74/5
f 24/74/3 33/73/2 23/72/42
f 34/75/57 30/76/51 26/77/45
f 26/77/46 30/76/52 34/75/58
f 26/66/45 27/58/47 34/78/57
f 34/78/58 27/58/48 26/66/46
f 35/79/59 27/80/47 29/81/49
f 29/81/50 27/80/48 35/79/60
f 31/69/53 28/68/30 36/82/34
f 36/82/33 28/68/29 31/69/54
f 31/83/53 32/71/55 22/60/39
f 22/60/40 32/71/56 31/83/54
f 33/73/6 23/72/41 32/84/55
f 32/84/56 23/72/42 33/73/2
f 30/76/51 34/75/57 35/85/59
f 35/85/60 34/75/58 30/76/52
f 27/80/47 35/79/59 34/86/57
f 34/86/58 35/79/60 27/80/48
f 37/87/44 31/88/53 36/89/34
f 36/89/33 31/88/54 37/87/43
f 31/83/53 38/90/61 32/71/55
f 32/71/56 38/90/62 31/83/54
f 32/91/55 39/92/14 33/93/6
f 33/93/2 39/92/13 32/91/56
f 31/88/53 37/87/44 40/94/63
f 40/94/64 37/87/43 31/88/54
f 40/95/63 38/90/61 31/83/53
f 31/83/54 38/90/62 40/95/64
f 39/92/14 32/91/55 38/96/61
f 38/96/62 32/91/56 39/92/13
f 41/97/50 40/98/63 37/99/44
f 37/99/43 40/98/64 41/97/49
f 40/95/63 42/100/65 38/90/61
f 38/90/62 42/100/66 40/95/64
f 42/101/65 39/102/14 38/103/61
f 38/103/62 39/102/13 42/101/66
f 40/98/63 41/97/50 43/104/67
f 43/104/68 41/97/49 40/98/64
f 43/105/67 42/100/65 40/95/63
f 40/95/64 42/100/66 43/105/68
f 39/102/14 42/101/65 44/106/38
f 44/106/37 42/101/66 39/102/13
f 45/107/60 43/108/67 41/109/50
f 41/109/49 43/108/68 45/107/59
f 43/105/67 46/110/69 42/100/65
f 42/100/66 46/110/70 43/105/68
f 46/111/69 44/112/38 42/113/65
f 42/113/66 44/112/37 46/111/70
f 43/108/67 45/107/60 47/114/71
f 47/114/72 45/107/59 43/108/68
f 46/110/69 43/105/67 47/115/71
f 47/115/72 43/105/68 46/110/70
f 44/112/38 46/111/69 48/116/52
f 48/116/51 46/111/70 44/112/37
f 48/117/52 47/118/71 45/119/60
f 45/119/59 47/118/72 48/117/51
f 47/118/71 48/117/52 46/120/69
f 46/120/70 48/117/51 47/118/72
