# SSTK version 0.8.0
# 19
mtllib original-19.mtl
o Group9/mesh34/mesh34-geometry#mesh34-geometry
v 0.202590 -0.490479 0.482728
v 0.202590 -0.486243 0.478491
v 0.202590 0.102376 0.482728
v 0.202590 -0.486243 -0.265562
v 0.202590 0.102376 0.478491
v 0.134412 0.102376 0.482728
v 0.202590 -0.490479 -0.269798
v 0.134412 -0.486243 0.478491
v 0.134412 -0.490479 0.482728
v 0.202590 0.102376 -0.269798
v 0.134412 -0.486243 -0.265562
v 0.134412 0.102376 0.478491
v 0.134412 0.102376 -0.269798
v 0.202590 0.102376 -0.265562
v 0.134412 -0.490479 -0.269798
v 0.134412 0.102376 -0.265562
vt -6.983718 -0.885827
vt -6.944403 -0.846512
vt -6.983718 4.616087
vt -0.039315 -0.846512
vt -6.944403 4.616087
vt 0 4.616087
vt 0.632717 -0.885827
vt 0.632717 4.616087
vt 0 -0.885827
vt 0.039315 0.632717
vt 6.944403 0
vt 6.944403 0.632717
vt 0 -0.846512
vt -0.632717 4.616087
vt -0.632717 -0.846512
vt 6.983718 0
vt 6.983718 0.632717
vt -6.983718 0
vt 0 0.632717
vt -6.983718 0.632717
vt 0.039315 0
vt 6.983718 4.616087
vt 6.944403 -0.846512
vt 6.983718 -0.885827
vt -0.632717 -0.885827
vt -0.039315 4.616087
vt 0 0
vt 0.632717 -0.846512
vt 0.039315 -0.846512
vt 6.944403 4.616087
vt 0.039315 4.616087
vn 1 0 0
vn -1 0 0
vn 0 0 1
vn 0 0 -1
vn 0 1 0
vn 0 -1 0
usemtl material_0_0
f 1/1/1 2/2/1 3/3/1
f 2/2/1 1/1/1 4/4/1
f 3/3/2 2/2/2 1/1/2
f 4/4/2 1/1/2 2/2/2
f 3/3/1 2/2/1 5/5/1
f 5/5/2 2/2/2 3/3/2
f 6/6/3 1/7/3 3/8/3
f 3/8/4 1/7/4 6/6/4
f 7/9/1 4/4/1 1/1/1
f 1/1/2 4/4/2 7/9/2
f 4/10/5 8/11/5 2/12/5
f 2/12/6 8/11/6 4/10/6
f 8/13/4 5/14/4 2/15/4
f 2/15/3 5/14/3 8/13/3
f 5/12/5 6/16/5 3/17/5
f 3/17/6 6/16/6 5/12/6
f 1/7/3 6/6/3 9/9/3
f 9/9/4 6/6/4 1/7/4
f 4/4/1 7/9/1 10/6/1
f 10/6/2 7/9/2 4/4/2
f 9/18/6 7/19/6 1/20/6
f 1/20/5 7/19/5 9/18/5
f 8/11/5 4/10/5 11/21/5
f 11/21/6 4/10/6 8/11/6
f 5/14/4 8/13/4 12/6/4
f 12/6/3 8/13/3 5/14/3
f 6/16/5 5/12/5 12/11/5
f 12/11/6 5/12/6 6/16/6
f 6/22/2 8/23/2 9/24/2
f 9/24/1 8/23/1 6/22/1
f 7/25/4 13/6/4 10/14/4
f 10/14/3 13/6/3 7/25/3
f 4/4/1 10/6/1 14/26/1
f 14/26/2 10/6/2 4/4/2
f 7/19/6 9/18/6 15/27/6
f 15/27/5 9/18/5 7/19/5
f 4/28/3 16/6/3 11/13/3
f 11/13/4 16/6/4 4/28/4
f 11/29/2 9/24/2 8/23/2
f 8/23/1 9/24/1 11/29/1
f 8/23/2 6/22/2 12/30/2
f 12/30/1 6/22/1 8/23/1
f 13/6/4 7/25/4 15/9/4
f 15/9/3 7/25/3 13/6/3
f 16/21/5 10/19/5 13/27/5
f 13/27/6 10/19/6 16/21/6
f 10/19/5 16/21/5 14/10/5
f 14/10/6 16/21/6 10/19/6
f 16/6/3 4/28/3 14/8/3
f 14/8/4 4/28/4 16/6/4
f 11/29/2 15/9/2 9/24/2
f 9/24/1 15/9/1 11/29/1
f 13/6/2 11/29/2 16/31/2
f 16/31/1 11/29/1 13/6/1
f 15/9/2 11/29/2 13/6/2
f 13/6/1 11/29/1 15/9/1
