# SSTK version 0.8.0
# 13
mtllib original-13.mtl
o mesh11/mesh11-geometry#mesh11-geometry
v -0.154064 0.208044 -0.318811
v -0.103843 0.066826 -0.290337
v -0.103843 0.208044 -0.318811
v -0.153209 0.195035 -0.316188
v -0.103843 0.205850 -0.329693
v -0.153209 0.192840 -0.327070
v -0.153209 0.066826 -0.290337
v -0.103843 0.064632 -0.301218
v -0.154064 0.205850 -0.329693
v -0.159181 0.199650 -0.328443
v -0.153209 0.162284 -0.309584
v -0.153209 0.064632 -0.301218
v -0.159181 0.201844 -0.317561
v -0.154553 0.179724 -0.324425
v -0.154553 0.181918 -0.313543
v -0.166344 0.206707 -0.318542
v -0.153209 0.160090 -0.320466
v -0.156875 0.182478 -0.324980
v -0.166344 0.204513 -0.329423
v -0.161151 0.185590 -0.314284
v -0.156875 0.184672 -0.314098
v -0.161151 0.183396 -0.325165
v -0.174699 0.209626 -0.319130
v -0.165184 0.184792 -0.314123
v -0.165184 0.182598 -0.325004
v -0.174699 0.207432 -0.330012
v -0.167261 0.182397 -0.313640
v -0.167261 0.180203 -0.324521
v -0.184246 0.210598 -0.319326
v -0.168361 0.164625 -0.310056
v -0.168361 0.162431 -0.320938
v -0.184246 0.208404 -0.330208
v -0.217727 0.066826 -0.290337
v -0.168361 0.066826 -0.290337
v -0.217727 0.064632 -0.301218
v -0.195793 0.209295 -0.319063
v -0.168361 0.064632 -0.301218
v -0.195793 0.207101 -0.329945
v -0.205019 0.205384 -0.318275
v -0.205019 0.203190 -0.329156
v -0.217727 0.165796 -0.310292
v -0.211648 0.199491 -0.317086
v -0.211648 0.197297 -0.327968
v -0.217727 0.163602 -0.321174
v -0.217146 0.181666 -0.313492
v -0.215405 0.192241 -0.315625
v -0.215405 0.190047 -0.326506
v -0.217146 0.179471 -0.324374
vt -1.220506 0.247732
vt -1.145142 0.004401
vt -1.145142 0.247732
vt -1.219223 0.225315
vt -0.004401 0
vt -0.247732 0.09375
vt -0.247732 0
vt -1.145142 0.09375
vt -1.220506 0
vt -1.145142 0
vt 0.317098 0
vt 0.294645 0.09375
vt 0.294645 0
vt -1.219223 0.004401
vt -0.004401 0.09375
vt -1.220506 0.09375
vt 0.317098 0.09375
vt -0.933917 0.09375
vt -0.919153 0
vt -0.919153 0.09375
vt -1.219223 0.168883
vt 1.219223 0.09375
vt 1.145142 0
vt 1.219223 0
vt 1.145142 0.09375
vt 1.219223 0.004401
vt 1.145142 0.247732
vt 1.145142 0.004401
vt 1.219223 0.225315
vt 1.220506 0.247732
vt -0.933917 0
vt 1.22124 0.202715
vt 1.228185 0.237048
vt -1.22124 0.202715
vt 0.168883 0
vt 0.004401 0.09375
vt 0.004401 0
vt -1.114366 0.09375
vt -1.127996 0
vt -1.114366 0
vt -1.228185 0.237048
vt 1.219223 0.168883
vt 1.224724 0.20746
vt 0.275037 0
vt 0.241146 0.09375
vt 0.241146 0
vt 0.168883 0.09375
vt -1.127996 0.09375
vt -1.231142 0.209041
vt -1.238935 0.245428
vt -1.224724 0.20746
vt 0.275037 0.09375
vt 0.88621 0.09375
vt 0.892097 0
vt 0.892097 0.09375
vt 1.231142 0.209041
vt 1.238935 0.245428
vt -1.241261 0.09375
vt -1.25477 0
vt -1.241261 0
vt -1.237193 0.207666
vt 0.88621 0
vt 1.238788 0
vt 1.245398 0.09375
vt 1.238788 0.09375
vt 1.237193 0.207666
vt -1.25477 0.09375
vt -1.24031 0.20354
vt -1.251473 0.250457
vt 1.245398 0
vt 1.160405 0.09375
vt 1.154199 0
vt 1.160405 0
vt 1.154199 0.09375
vt 1.24031 0.20354
vt 1.251473 0.250457
vt -1.272099 0.09375
vt -1.286523 0
vt -1.272099 0
vt -1.241961 0.172917
vt 0.585302 0
vt 0.580131 0.09375
vt 0.580131 0
vt 0.585302 0.09375
vt 1.241961 0.172917
vt -1.286523 0.09375
vt -1.316042 0.004401
vt -1.265799 0.252133
vt -1.241961 0.004401
vt -0.105832 0
vt -0.136499 0.09375
vt -0.136499 0
vt -0.105832 0.09375
vt 1.316042 0.004401
vt 1.265799 0.252133
vt -1.222883 0.09375
vt -1.240356 0
vt -1.222883 0
vt -1.283127 0.249887
vt -0.172917 0.09375
vt -0.172917 0
vt 1.241961 0.004401
vt 1.283127 0.249887
vt -1.240356 0.09375
vt 1.316042 0.09375
vt 1.241961 0
vt 1.316042 0
vt -1.296972 0.243148
vt 1.241961 0.09375
vt 1.296972 0.243148
vt -1.044345 0.09375
vt -1.059743 0
vt -1.044345 0
vt 0.174934 0
vt -1.306919 0.232994
vt 1.306919 0.232994
vt -1.059743 0.09375
vt 0.174934 0.09375
vt -1.315171 0.202279
vt -1.316042 0.174934
vt -0.733951 0
vt -0.748166 0.09375
vt -0.748166 0
vt -1.312558 0.220502
vt 1.312558 0.220502
vt -0.733951 0.09375
vt 0.160307 0
vt 0.132948 0.09375
vt 0.132948 0
vt 1.315171 0.202279
vt 1.316042 0.174934
vt -0.33902 0.09375
vt -0.325314 0
vt -0.325314 0.09375
vt -0.33902 0
vt 0.160307 0.09375
vt 0.031959 0
vt 0.01355 0.09375
vt 0.01355 0
vt 0.031959 0.09375
vn -0.1717348625526162 0.37029512222317595 0.9129012320299262
vn 0.17165100454807272 0.0015486823293838806 0.9851566039065465
vn 0.17165100454807275 0.38033594646124763 0.9087796765262001
vn -0.035951546854838645 0.30343275170331624 0.9521743808108355
vn -0.17165100454807275 -0.38033594646124763 -0.9087796765262001
vn -0.17165100454807272 -0.0015486823293838806 -0.9851566039065465
vn 0.1717348625526162 -0.37029512222317595 -0.9129012320299262
vn 0.035951546854838645 -0.30343275170331624 -0.9521743808108355
vn 0.17165100454807272 -0.0015486823293838806 -0.9851566039065465
vn -0.17165100454807272 0.0015486823293838806 0.9851566039065465
vn -0.035951546854838645 -0.08925902899996901 -0.9953593883722235
vn 0.035951546854838645 0.08925902899996901 0.9953593883722235
vn 0.17165100454807275 -0.38033594646124763 -0.9087796765262001
vn -0.17165100454807275 0.38033594646124763 0.9087796765262001
vn -0.17173486255261622 -0.012402115196055545 -0.98506513719789
vn 0.17173486255261622 0.012402115196055545 0.98506513719789
vn 0.23450400226012252 0.07113493331549911 -0.9695089964441712
vn -0.23450400226012252 -0.07113493331549911 0.9695089964441712
vn -0.33457426458739475 0.17525827098912858 0.9259290469175838
vn 0.33457426458739475 -0.17525827098912858 -0.9259290469175838
vn 0.23450400226012252 0.4412765978922734 0.8661886844542622
vn -0.23450400226012252 -0.4412765978922734 -0.8661886844542622
vn -0.30296695748125 -0.30747422057742907 -0.9020369318131363
vn 0.30296695748125 0.30747422057742907 0.9020369318131363
vn -0.3029669574812501 0.06610430085844463 0.9507056558591469
vn 0.3029669574812501 -0.06610430085844463 -0.9507056558591469
vn 0.1636459549247396 0.4984760347166829 0.8513175930579037
vn -0.1636459549247396 -0.4984760347166829 -0.8513175930579037
vn -0.33457426458739475 -0.19724787724421008 -0.921495163524181
vn 0.33457426458739475 0.19724787724421008 0.921495163524181
vn -0.17455785980586322 -0.47371549163384213 -0.863205182193726
vn 0.17455785980586322 0.47371549163384213 0.863205182193726
vn 0.1636459549247396 0.12962776536986867 -0.9779655637505772
vn -0.1636459549247396 -0.12962776536986867 0.9779655637505772
vn -0.0029224067310661805 -0.17135830631471688 0.985204440913585
vn 0.0029224067310661805 0.17135830631471688 -0.985204440913585
vn -0.17455785980586325 -0.10219530689218106 0.9793291953317892
vn 0.17455785980586325 0.10219530689218106 -0.9793291953317892
vn -0.0029224067310661805 -0.5397510595970839 -0.8418196084688949
vn 0.0029224067310661805 0.5397510595970839 0.8418196084688949
vn 0.08074930642770252 0.5343765346214393 0.8413805730805928
vn -0.08074930642770252 -0.5343765346214393 -0.8413805730805928
vn 0.17023022636316845 -0.10497526443356349 0.9797968482749103
vn -0.17023022636316845 0.10497526443356349 -0.9797968482749103
vn 0.17023022636316845 -0.4764594548014783 -0.8625590170896266
vn -0.17023022636316845 0.4764594548014783 0.8625590170896266
vn 0.08074930642770253 0.1665738630587539 -0.9827169977450928
vn -0.08074930642770253 -0.1665738630587539 0.9827169977450928
vn 0.30173334392582707 0.06514738517054539 0.9511639224491113
vn -0.30173334392582707 -0.06514738517054539 -0.9511639224491113
vn 0.30173334392582707 -0.3085339513402175 -0.9020885710581477
vn -0.30173334392582707 0.3085339513402175 0.9020885710581477
vn -0.002039056000405632 0.5454042593270343 0.8381706485904623
vn 0.002039056000405632 -0.5454042593270343 -0.8381706485904623
vn 0.3346262820765633 0.1763102981643709 0.9257105001590977
vn -0.3346262820765633 -0.1763102981643709 -0.9257105001590977
vn 0.3346262820765633 -0.19619336189987385 -0.9217013703418484
vn -0.3346262820765633 0.19619336189987385 0.9217013703418484
vn -0.002039056000405632 0.17798381176550754 -0.9840313028557819
vn 0.002039056000405632 -0.17798381176550754 0.9840313028557819
vn -0.0936910172388023 0.5292825535470701 0.8432567650481384
vn 0.0936910172388023 -0.5292825535470701 -0.8432567650481384
vn -0.0936910172388023 0.16115085600245957 -0.982472592441353
vn 0.0936910172388023 -0.16115085600245957 0.982472592441353
vn -0.1913640312931957 0.4778532469677737 0.8573424531011937
vn 0.1913640312931957 -0.4778532469677737 -0.8573424531011937
vn -0.19136403129319576 0.10828165030413563 -0.975528006637754
vn 0.19136403129319576 -0.10828165030413563 0.975528006637754
vn -0.33477737675062297 0.1921295667159098 0.9225022155038589
vn 0.33477737675062297 -0.1921295667159098 -0.9225022155038589
vn -0.2714145244909499 0.39039449387000413 0.8797308082881576
vn 0.2714145244909499 -0.39039449387000413 -0.8797308082881576
vn -0.2714145244909499 0.01898081312372666 -0.9622753683995626
vn 0.2714145244909499 -0.01898081312372666 0.9622753683995626
vn -0.33477737675062297 -0.18036690110856296 -0.9248739854707048
vn 0.33477737675062297 0.18036690110856296 0.9248739854707048
vn -0.33309800794814415 0.21836242202913608 0.917258725631186
vn 0.33309800794814415 -0.21836242202913608 -0.917258725631186
vn -0.31832470939761653 0.28845819358422536 0.9030289308438842
vn 0.31832470939761653 -0.28845819358422536 -0.9030289308438842
vn -0.31832470939761653 -0.08401888994733615 -0.944251134772387
vn 0.31832470939761653 0.08401888994733615 0.944251134772387
vn -0.3330980079481442 -0.15415186485372262 -0.9302058480052132
vn 0.3330980079481442 0.15415186485372262 0.9302058480052132
usemtl material_0_0
f 1/1/1 2/2/2 3/3/3
f 2/2/2 1/1/1 4/4/4
f 3/3/5 2/2/6 1/1/7
f 4/4/8 1/1/7 2/2/6
f 2/5/2 5/6/9 3/7/3
f 3/7/5 5/6/10 2/5/6
f 5/8/9 1/9/1 3/10/3
f 3/10/5 1/9/7 5/8/10
f 1/11/1 6/12/11 4/13/4
f 4/13/8 6/12/12 1/11/7
f 4/4/4 7/14/10 2/2/2
f 2/2/6 7/14/9 4/4/8
f 5/6/9 2/5/2 8/15/13
f 8/15/14 2/5/6 5/6/10
f 1/9/1 5/8/9 9/16/15
f 9/16/16 5/8/10 1/9/7
f 6/12/11 1/11/1 9/17/15
f 9/17/16 1/11/7 6/12/12
f 10/18/17 4/19/4 6/20/11
f 6/20/12 4/19/8 10/18/18
f 7/14/10 4/4/4 11/21/19
f 11/21/20 4/4/8 7/14/9
f 12/22/5 2/23/2 7/24/10
f 7/24/9 2/23/6 12/22/3
f 2/23/2 12/22/5 8/25/13
f 8/25/14 12/22/3 2/23/6
f 12/26/5 5/27/9 8/28/13
f 8/28/14 5/27/10 12/26/3
f 5/27/9 6/29/11 9/30/15
f 9/30/16 6/29/12 5/27/10
f 4/19/4 10/18/17 13/31/21
f 13/31/22 10/18/18 4/19/8
f 6/29/11 14/32/23 10/33/17
f 10/33/18 14/32/24 6/29/12
f 4/4/4 15/34/25 11/21/19
f 11/21/20 15/34/26 4/4/8
f 11/35/19 12/36/5 7/37/10
f 7/37/9 12/36/3 11/35/20
f 5/27/9 12/26/5 6/29/11
f 6/29/12 12/26/3 5/27/10
f 10/38/17 16/39/27 13/40/21
f 13/40/22 16/39/28 10/38/18
f 15/34/25 4/4/4 13/41/21
f 13/41/22 4/4/8 15/34/26
f 14/32/23 6/29/11 17/42/29
f 17/42/30 6/29/12 14/32/24
f 10/33/17 14/32/23 18/43/31
f 18/43/32 14/32/24 10/33/18
f 15/44/25 17/45/29 11/46/19
f 11/46/20 17/45/30 15/44/26
f 12/36/5 11/35/19 17/47/29
f 17/47/30 11/35/20 12/36/3
f 6/29/11 12/26/5 17/42/29
f 17/42/30 12/26/3 6/29/12
f 16/39/27 10/38/17 19/48/33
f 19/48/34 10/38/18 16/39/28
f 20/49/35 13/41/21 16/50/27
f 16/50/28 13/41/22 20/49/36
f 15/34/25 13/41/21 21/51/37
f 21/51/38 13/41/22 15/34/26
f 17/45/29 15/44/25 14/52/23
f 14/52/24 15/44/26 17/45/30
f 14/53/23 21/54/37 18/55/31
f 18/55/32 21/54/38 14/53/24
f 10/33/17 18/43/31 22/56/39
f 22/56/40 18/43/32 10/33/18
f 10/33/17 22/56/39 19/57/33
f 19/57/34 22/56/40 10/33/18
f 19/58/33 23/59/41 16/60/27
f 16/60/28 23/59/42 19/58/34
f 21/51/37 13/41/21 20/49/35
f 20/49/36 13/41/22 21/51/38
f 20/49/35 16/50/27 24/61/43
f 24/61/44 16/50/28 20/49/36
f 21/54/37 14/53/23 15/62/25
f 15/62/26 14/53/24 21/54/38
f 21/63/37 22/64/39 18/65/31
f 18/65/32 22/64/40 21/63/38
f 19/57/33 22/56/39 25/66/45
f 25/66/46 22/56/40 19/57/34
f 23/59/41 19/58/33 26/67/47
f 26/67/48 19/58/34 23/59/42
f 27/68/49 16/50/27 23/69/41
f 23/69/42 16/50/28 27/68/50
f 22/64/39 21/63/37 20/70/35
f 20/70/36 21/63/38 22/64/40
f 24/61/43 16/50/27 27/68/49
f 27/68/50 16/50/28 24/61/44
f 25/71/45 20/72/35 24/73/43
f 24/73/44 20/72/36 25/71/46
f 20/72/35 25/71/45 22/74/39
f 22/74/40 25/71/46 20/72/36
f 19/57/33 25/66/45 28/75/51
f 28/75/52 25/66/46 19/57/34
f 19/57/33 28/75/51 26/76/47
f 26/76/48 28/75/52 19/57/34
f 26/77/47 29/78/53 23/79/41
f 23/79/42 29/78/54 26/77/48
f 27/68/49 23/69/41 30/80/55
f 30/80/56 23/69/42 27/68/50
f 27/81/49 25/82/45 24/83/43
f 24/83/44 25/82/46 27/81/50
f 25/82/45 27/81/49 28/84/51
f 28/84/52 27/81/50 25/82/46
f 26/76/47 28/75/51 31/85/57
f 31/85/58 28/75/52 26/76/48
f 29/78/53 26/77/47 32/86/59
f 32/86/60 26/77/48 29/78/54
f 33/87/10 23/69/41 29/88/53
f 29/88/54 23/69/42 33/87/9
f 30/80/55 23/69/41 34/89/2
f 34/89/6 23/69/42 30/80/56
f 30/90/55 28/91/51 27/92/49
f 27/92/50 28/91/52 30/90/56
f 28/91/51 30/90/55 31/93/57
f 31/93/58 30/90/56 28/91/52
f 31/85/57 35/94/5 26/76/47
f 26/76/48 35/94/3 31/85/58
f 26/76/47 35/94/5 32/95/59
f 32/95/60 35/94/3 26/76/48
f 32/96/59 36/97/61 29/98/53
f 29/98/54 36/97/62 32/96/60
f 34/89/2 23/69/41 33/87/10
f 33/87/9 23/69/42 34/89/6
f 33/87/10 29/88/53 36/99/61
f 36/99/62 29/88/54 33/87/9
f 34/5/2 31/100/57 30/101/55
f 30/101/56 31/100/58 34/5/6
f 35/94/5 31/85/57 37/102/13
f 37/102/14 31/85/58 35/94/3
f 32/95/59 35/94/5 38/103/63
f 38/103/64 35/94/3 32/95/60
f 36/97/61 32/96/59 38/104/63
f 38/104/64 32/96/60 36/97/62
f 35/105/5 34/106/2 33/107/10
f 33/107/9 34/106/6 35/105/3
f 33/87/10 36/99/61 39/108/65
f 39/108/66 36/99/62 33/87/9
f 31/100/57 34/5/2 37/15/13
f 37/15/14 34/5/6 31/100/58
f 34/106/2 35/105/5 37/109/13
f 37/109/14 35/105/3 34/106/6
f 38/103/63 35/94/5 40/110/67
f 40/110/68 35/94/3 38/103/64
f 38/111/63 39/112/65 36/113/61
f 36/113/62 39/112/66 38/111/64
f 41/114/69 35/36/5 33/37/10
f 33/37/9 35/36/3 41/114/70
f 33/87/10 39/108/65 42/115/71
f 42/115/72 39/108/66 33/87/9
f 40/110/67 35/94/5 43/116/73
f 43/116/74 35/94/3 40/110/68
f 39/112/65 38/111/63 40/117/67
f 40/117/68 38/111/64 39/112/66
f 35/36/5 41/114/69 44/118/75
f 44/118/76 41/114/70 35/36/3
f 33/87/10 45/119/77 41/120/69
f 41/120/70 45/119/78 33/87/9
f 39/121/65 43/122/73 42/123/71
f 42/123/72 43/122/74 39/121/66
f 33/87/10 42/115/71 46/124/79
f 46/124/80 42/115/72 33/87/9
f 43/116/73 35/94/5 47/125/81
f 47/125/82 35/94/3 43/116/74
f 43/122/73 39/121/65 40/126/67
f 40/126/68 39/121/66 43/122/74
f 45/127/77 44/128/75 41/129/69
f 41/129/70 44/128/76 45/127/78
f 48/130/83 35/94/5 44/131/75
f 44/131/76 35/94/3 48/130/84
f 33/87/10 46/124/79 45/119/77
f 45/119/78 46/124/80 33/87/9
f 47/132/81 42/133/71 43/134/73
f 43/134/74 42/133/72 47/132/82
f 42/133/71 47/132/81 46/135/79
f 46/135/80 47/132/82 42/133/72
f 47/125/81 35/94/5 48/130/83
f 48/130/84 35/94/3 47/125/82
f 44/128/75 45/127/77 48/136/83
f 48/136/84 45/127/78 44/128/76
f 46/137/79 48/138/83 45/139/77
f 45/139/78 48/138/84 46/137/80
f 48/138/83 46/137/79 47/140/81
f 47/140/82 46/137/80 48/138/84
