# SSTK version 0.8.0
# 44
mtllib original-44.mtl
o arrow_key1/arrow_key/mesh7/mesh7-geometry#mesh7-geometry
v 0.501371 -0.213388 0.210139
v 0.548797 -0.225056 0.197431
v 0.501371 -0.225056 0.210139
v 0.548797 -0.213388 0.197431
v 0.499308 -0.213388 0.213712
v 0.507411 -0.213388 0.232681
v 0.552370 -0.225056 0.199494
v 0.499308 -0.225056 0.213712
v 0.554838 -0.213388 0.219974
v 0.552370 -0.213388 0.199494
v 0.503839 -0.225056 0.230619
v 0.503839 -0.213388 0.230619
v 0.507411 -0.225056 0.232681
v 0.556900 -0.213388 0.216401
v 0.554838 -0.225056 0.219974
v 0.556900 -0.225056 0.216401
vn -0.6087608999381715 0 -0.7933537462610657
vn 0.13052570658266663 0 -0.991444925309064
vn -0.8660253595217486 0 -0.5000000766652202
vn 0 1 0
vn 0.5000000766652202 0 -0.8660253595217486
vn -0.7933537462610657 0 0.6087608999381715
vn -0.9659258492011171 0 0.2588189595935754
vn -0.13052570658266663 0 0.991444925309064
vn 0.6087608999381715 0 0.7933537462610657
vn 0.991444925309064 0 0.13052570658266663
vn 0.9659258492011171 0 -0.2588189595935754
vn 0.8660253595217486 0 0.5000000766652202
vn 0 -1 0
vn -0.5000000766652202 0 0.8660253595217486
vn 0.7933537462610657 0 -0.6087608999381715
vn -0.991444925309064 0 -0.13052570658266663
usemtl material_0_0
f 1//1 2//2 3//1
f 2//2 1//1 4//2
f 3//1 5//3 1//1
f 1//4 6//4 4//4
f 4//2 7//5 2//2
f 5//3 3//1 8//3
f 5//4 6//4 1//4
f 4//4 6//4 9//4
f 7//5 4//2 10//5
f 11//6 5//7 8//7
f 6//4 5//4 12//4
f 13//8 9//9 6//8
f 4//4 9//4 14//4
f 4//4 14//4 10//4
f 14//10 7//11 10//11
f 5//7 11//6 12//6
f 12//6 13//8 6//8
f 9//9 13//8 15//9
f 9//9 16//10 14//10
f 7//11 14//10 16//10
f 13//8 12//6 11//6
f 16//10 9//9 15//9
usemtl material_1_0
f 3//9 2//8 1//9
f 4//8 1//9 2//8
f 1//9 5//12 3//9
f 4//13 6//13 1//13
f 2//8 7//14 4//8
f 8//12 3//9 5//12
f 1//13 6//13 5//13
f 9//13 6//13 4//13
f 10//14 4//8 7//14
f 8//11 5//11 11//15
f 12//13 5//13 6//13
f 6//2 9//1 13//2
f 14//13 9//13 4//13
f 10//13 14//13 4//13
f 10//7 7//7 14//16
f 12//15 11//15 5//11
f 6//2 13//2 12//15
f 15//1 13//2 9//1
f 14//16 16//16 9//1
f 16//16 14//16 7//7
f 11//15 12//15 13//2
f 15//1 9//1 16//16
