# SSTK version 0.8.0
# 56
mtllib original-56.mtl
o key_1_2/key_1/mesh6/mesh6-geometry#mesh6-geometry
v 0.206424 -0.213388 0.258969
v 0.269088 -0.225056 0.242179
v 0.206424 -0.225056 0.258969
v 0.269088 -0.213388 0.242179
v 0.204361 -0.225056 0.262542
v 0.220014 -0.213388 0.309689
v 0.272661 -0.213388 0.244241
v 0.204361 -0.213388 0.262542
v 0.282678 -0.213388 0.292899
v 0.272661 -0.225056 0.244241
v 0.284741 -0.213388 0.289326
v 0.216441 -0.225056 0.307627
v 0.216441 -0.213388 0.307627
v 0.220014 -0.225056 0.309689
v 0.282678 -0.225056 0.292899
v 0.284741 -0.225056 0.289326
vn -0.6087608999381715 0 -0.7933537462610657
vn -0.2588189595935754 0 -0.9659258492011171
vn -0.991444925309064 0 -0.13052570658266663
vn 0 1 0
vn 0.7933537462610657 0 -0.6087608999381715
vn 0.5000000766652202 0 -0.8660253595217486
vn -0.7933537462610657 0 0.6087608999381715
vn -0.13052570658266663 0 0.991444925309064
vn 0.2588189595935754 0 0.9659258492011171
vn 0.991444925309064 0 0.13052570658266663
vn 0.8660253595217486 0 0.5000000766652202
vn 0.6087608999381715 0 0.7933537462610657
vn 0 -1 0
vn -0.5000000766652202 0 0.8660253595217486
vn 0.13052570658266663 0 -0.991444925309064
vn -0.8660253595217486 0 -0.5000000766652202
usemtl material_0_0
f 1//1 2//2 3//1
f 2//2 1//1 4//2
f 5//3 1//1 3//1
f 1//4 6//4 4//4
f 7//5 2//6 4//6
f 1//1 5//3 8//3
f 8//4 6//4 1//4
f 4//4 6//4 9//4
f 2//6 7//5 10//5
f 4//4 11//4 7//4
f 12//7 8//3 5//3
f 6//4 8//4 13//4
f 14//8 9//9 6//8
f 4//4 9//4 11//4
f 11//10 10//5 7//5
f 8//3 12//7 13//7
f 13//7 14//8 6//8
f 9//9 14//8 15//9
f 9//11 16//10 11//10
f 10//5 11//10 16//10
f 14//8 13//7 12//7
f 16//10 9//11 15//11
usemtl material_1_0
f 3//12 2//9 1//12
f 4//9 1//12 2//9
f 3//12 1//12 5//10
f 4//13 6//13 1//13
f 4//14 2//14 7//7
f 8//10 5//10 1//12
f 1//13 6//13 8//13
f 9//13 6//13 4//13
f 10//7 7//7 2//14
f 7//13 11//13 4//13
f 5//10 8//10 12//5
f 13//13 8//13 6//13
f 6//15 9//2 14//15
f 11//13 9//13 4//13
f 7//7 10//7 11//3
f 13//5 12//5 8//10
f 6//15 14//15 13//5
f 15//2 14//15 9//2
f 11//3 16//3 9//16
f 16//3 11//3 10//7
f 12//5 13//5 14//15
f 15//16 9//16 16//3
