# SSTK version 0.8.0
# 73
mtllib original-73.mtl
o func_key6/func_key/mesh9/mesh9-geometry#mesh9-geometry
v -0.184531 -0.213388 -0.101902
v -0.135432 -0.225056 -0.101902
v -0.184531 -0.225056 -0.101902
v -0.135432 -0.213388 -0.101902
v -0.187448 -0.225056 -0.098984
v -0.135432 -0.213388 -0.072730
v -0.132514 -0.213388 -0.098984
v -0.187448 -0.213388 -0.098984
v -0.184531 -0.213388 -0.072730
v -0.132514 -0.213388 -0.075647
v -0.132514 -0.225056 -0.098984
v -0.187448 -0.225056 -0.075647
v -0.184531 -0.225056 -0.072730
v -0.132514 -0.225056 -0.075647
v -0.187448 -0.213388 -0.075647
v -0.135432 -0.225056 -0.072730
vn -0.38268289803626016 0 -0.9238797538373538
vn 0.38268289803626016 0 -0.9238797538373538
vn -0.9238797538373538 0 -0.38268289803626016
vn 0 1 0
vn 0.9238797538373538 0 -0.38268289803626016
vn -0.9238797538373538 0 0.38268289803626016
vn -0.38268289803626016 0 0.9238797538373538
vn 0.38268289803626016 0 0.9238797538373538
vn 0.9238797538373538 0 0.38268289803626016
vn 0 -1 0
usemtl material_0_0
f 1//1 2//2 3//1
f 2//2 1//1 4//2
f 5//3 1//1 3//1
f 1//4 6//4 4//4
f 7//5 2//2 4//2
f 1//1 5//3 8//3
f 1//4 9//4 6//4
f 4//4 6//4 10//4
f 2//2 7//5 11//5
f 4//4 10//4 7//4
f 12//6 8//3 5//3
f 8//4 9//4 1//4
f 13//7 6//8 9//7
f 6//8 14//9 10//9
f 10//9 11//5 7//5
f 8//3 12//6 15//6
f 9//4 8//4 15//4
f 6//8 13//7 16//8
f 15//6 13//7 9//7
f 14//9 6//8 16//8
f 11//5 10//9 14//9
f 13//7 15//6 12//6
usemtl material_1_0
f 3//8 2//7 1//8
f 4//7 1//8 2//7
f 3//8 1//8 5//9
f 4//10 6//10 1//10
f 4//7 2//7 7//6
f 8//9 5//9 1//8
f 6//10 9//10 1//10
f 10//10 6//10 4//10
f 11//6 7//6 2//7
f 7//10 10//10 4//10
f 5//9 8//9 12//5
f 1//10 9//10 8//10
f 9//2 6//1 13//2
f 10//3 14//3 6//1
f 7//6 11//6 10//3
f 15//5 12//5 8//9
f 15//10 8//10 9//10
f 16//1 13//2 6//1
f 9//2 13//2 15//5
f 16//1 6//1 14//3
f 14//3 10//3 11//6
f 12//5 15//5 13//2
