# SSTK version 0.8.0
# 14
mtllib original-14.mtl
o key8/key/mesh2/mesh2-geometry#mesh2-geometry
v -0.501374 -0.213388 0.187673
v -0.456289 -0.225056 0.199753
v -0.501374 -0.225056 0.187673
v -0.456289 -0.213388 0.199753
v -0.504946 -0.225056 0.189736
v -0.469880 -0.213388 0.250473
v -0.454227 -0.213388 0.203326
v -0.504946 -0.213388 0.189736
v -0.514964 -0.213388 0.238393
v -0.466307 -0.213388 0.248411
v -0.454227 -0.225056 0.203326
v -0.517027 -0.225056 0.234820
v -0.517027 -0.213388 0.234820
v -0.514964 -0.225056 0.238393
v -0.466307 -0.225056 0.248411
v -0.469880 -0.225056 0.250473
vn -0.13052570658266663 0 -0.991444925309064
vn 0.6087608999381715 0 -0.7933537462610657
vn -0.7933537462610657 0 -0.6087608999381715
vn 0 1 0
vn 0.991444925309064 0 -0.13052570658266663
vn -0.991444925309064 0 0.13052570658266663
vn -0.6087608999381715 0 0.7933537462610657
vn 0.13052570658266663 0 0.991444925309064
vn 0.7933537462610657 0 0.6087608999381715
vn 0 -1 0
usemtl material_0_0
f 1//1 2//2 3//1
f 2//2 1//1 4//2
f 5//3 1//1 3//1
f 1//4 6//4 4//4
f 7//5 2//2 4//2
f 1//1 5//3 8//3
f 1//4 9//4 6//4
f 4//4 6//4 10//4
f 2//2 7//5 11//5
f 4//4 10//4 7//4
f 12//6 8//3 5//3
f 13//4 1//4 8//4
f 1//4 13//4 9//4
f 14//7 6//8 9//7
f 6//8 15//9 10//9
f 10//9 11//5 7//5
f 8//3 12//6 13//6
f 13//6 14//7 9//7
f 6//8 14//7 16//8
f 15//9 6//8 16//8
f 11//5 10//9 15//9
f 14//7 13//6 12//6
usemtl material_1_0
f 3//8 2//7 1//8
f 4//7 1//8 2//7
f 3//8 1//8 5//9
f 4//10 6//10 1//10
f 4//7 2//7 7//6
f 8//9 5//9 1//8
f 6//10 9//10 1//10
f 10//10 6//10 4//10
f 11//6 7//6 2//7
f 7//10 10//10 4//10
f 5//9 8//9 12//5
f 8//10 1//10 13//10
f 9//10 13//10 1//10
f 9//2 6//1 14//2
f 10//3 15//3 6//1
f 7//6 11//6 10//3
f 13//5 12//5 8//9
f 9//2 14//2 13//5
f 16//1 14//2 6//1
f 16//1 6//1 15//3
f 15//3 10//3 11//6
f 12//5 13//5 14//2
