mtllib new-7.mtl
v -0.088143 -0.078459 0.210213
v -0.159791 -0.078459 0.210213
v -0.088143 -0.083750 0.210102
v -0.254066 -0.078459 0.210213
v -0.088143 -0.080222 0.294687
v -0.088143 -0.085513 0.294577
v -0.050362 -0.083750 0.210102
v -0.087302 -0.086158 0.325497
v -0.370997 -0.078459 0.210213
v -0.532689 -0.085513 0.294577
v -0.477418 -0.078459 0.210213
v -0.532689 -0.080222 0.294687
v -0.547542 -0.086158 0.325497
v -0.532689 -0.078459 0.210213
v -0.532689 -0.083750 0.210102
v -0.547542 -0.100206 0.325204
v -0.087302 -0.104550 0.533380
v -0.087302 -0.100206 0.325204
v -0.547542 -0.104550 0.533380
v -0.528026 -0.100465 0.337595
v -0.531616 -0.104172 0.515231
v -0.100939 -0.102706 0.444987
v -0.531616 -0.102706 0.444987
v -0.105379 -0.100465 0.337595
v -0.528026 -0.102433 0.431922
v -0.528026 -0.089700 0.337819
v -0.338006 -0.104172 0.515231
v -0.105379 -0.102433 0.431922
v -0.284760 -0.104172 0.515231
v -0.338006 -0.102706 0.444987
v -0.105379 -0.089700 0.337819
v -0.338006 -0.093407 0.515455
v -0.284760 -0.102706 0.444987
v -0.284760 -0.091941 0.445212
v -0.528026 -0.091669 0.432146
v -0.105379 -0.091669 0.432146
v -0.338006 -0.091941 0.445212
v -0.284760 -0.093407 0.515455
vn 0.000000 0.999782 0.020862
vn 0.000000 0.020862 -0.999782
vn 1.000000 0.000000 0.000000
vn 0.000000 -0.020862 0.999782
vn -1.000000 0.000000 0.000000
vn 0.000000 -0.999782 -0.020862
usemtl material-0
f 2//1 5//1 1//1
f 4//1 5//1 2//1
f 6//3 1//3 5//3
f 6//1 8//1 3//1
f 3//1 8//1 7//1
f 9//1 5//1 4//1
f 5//4 10//4 6//4
f 10//1 8//1 6//1
f 10//4 5//4 12//4
f 8//1 10//1 13//1
f 14//1 5//1 11//1
f 5//1 14//1 12//1
f 14//5 10//5 12//5
f 15//1 13//1 10//1
f 16//4 8//4 13//4
f 10//5 14//5 15//5
f 8//4 16//4 18//4
f 13//3 19//3 16//3
f 17//5 8//5 18//5
f 16//1 20//1 18//1
f 20//1 16//1 23//1
f 18//1 20//1 24//1
f 23//1 16//1 21//1
f 18//1 24//1 22//1
f 20//1 23//1 25//1
f 26//2 24//2 20//2
f 21//1 17//1 27//1
f 28//1 22//1 24//1
f 25//5 26//5 20//5
f 24//2 26//2 31//2
f 31//3 28//3 24//3
f 25//1 30//1 28//1
f 26//5 25//5 35//5
f 26//1 36//1 31//1
f 27//1 29//1 30//1
f 27//3 37//3 32//3
f 28//3 31//3 36//3
f 36//1 26//1 35//1
f 33//1 30//1 29//1
f 37//3 27//3 30//3
f 29//5 34//5 33//5
f 34//5 29//5 38//5
usemtl material-1
f 1//6 5//6 2//6
f 2//6 5//6 4//6
f 5//5 1//5 6//5
f 3//6 8//6 6//6
f 7//6 8//6 3//6
f 4//6 5//6 9//6
f 6//2 10//2 5//2
f 6//6 8//6 10//6
f 12//2 5//2 10//2
f 13//6 10//6 8//6
f 11//6 5//6 14//6
f 12//6 14//6 5//6
f 12//3 10//3 14//3
f 10//6 13//6 15//6
f 13//2 8//2 16//2
f 15//3 14//3 10//3
f 18//2 16//2 8//2
f 16//5 19//5 13//5
f 18//3 8//3 17//3
f 18//6 20//6 16//6
f 23//6 16//6 20//6
f 24//6 20//6 18//6
f 21//6 16//6 23//6
f 22//6 24//6 18//6
f 25//6 23//6 20//6
f 20//4 24//4 26//4
f 27//6 17//6 21//6
f 24//6 22//6 28//6
f 20//3 26//3 25//3
f 31//4 26//4 24//4
f 24//5 28//5 31//5
f 28//6 30//6 25//6
f 35//3 25//3 26//3
f 31//6 36//6 26//6
f 30//6 29//6 27//6
f 32//5 37//5 27//5
f 36//5 31//5 28//5
f 35//6 26//6 36//6
f 29//6 30//6 33//6
f 30//5 27//5 37//5
f 33//3 34//3 29//3
f 38//3 29//3 34//3