mtllib new-4.mtl
v 0.731108 -0.075543 -0.183182
v -0.735018 -0.075543 -0.183182
v 0.731108 -0.090243 -0.222905
v -0.735018 -0.090243 -0.222905
v 0.676530 -0.036144 -0.193739
v -0.735018 0.653082 -0.378417
v 0.731108 0.653082 -0.378417
v -0.684664 -0.036144 -0.193739
v -0.735018 0.642166 -0.419154
v 0.676530 0.608835 -0.366561
v -0.684664 -0.040442 -0.209780
v 0.731108 0.642166 -0.419154
v -0.684664 0.608835 -0.366561
v 0.676530 -0.040442 -0.209780
v 0.676530 0.604537 -0.382601
v -0.684664 0.604537 -0.382601
vn 1.000000 0.000000 0.000000
vn -1.000000 0.000000 0.000000
vn 0.000000 0.258819 0.965926
vn 0.000000 -0.258819 -0.965926
vn 0.000000 0.965926 -0.258819
vn 0.000000 -0.965926 0.258819
usemtl material-0
f 1//3 5//3 2//3
f 6//2 4//2 2//2
f 5//3 1//3 7//3
f 2//3 5//3 8//3
f 9//4 3//4 4//4
f 3//1 7//1 1//1
f 4//2 6//2 9//2
f 8//3 6//3 2//3
f 5//3 7//3 10//3
f 3//4 9//4 12//4
f 7//1 3//1 12//1
f 6//3 8//3 13//3
f 10//3 7//3 13//3
f 10//2 14//2 5//2
f 11//1 13//1 8//1
f 6//3 13//3 7//3
f 13//6 15//6 10//6
f 14//2 10//2 15//2
f 13//1 11//1 16//1
f 15//6 13//6 16//6
usemtl material-1
f 2//4 5//4 1//4
f 2//1 4//1 6//1
f 7//4 1//4 5//4
f 8//4 5//4 2//4
f 4//3 3//3 9//3
f 1//2 7//2 3//2
f 9//1 6//1 4//1
f 2//4 6//4 8//4
f 10//4 7//4 5//4
f 12//3 9//3 3//3
f 12//2 3//2 7//2
f 7//5 9//5 6//5
f 6//6 9//6 7//6
f 13//4 8//4 6//4
f 13//4 7//4 10//4
f 5//1 14//1 10//1
f 8//2 13//2 11//2
f 9//5 7//5 12//5
f 12//6 7//6 9//6
f 7//4 13//4 6//4
f 10//5 15//5 13//5
f 15//1 10//1 14//1
f 16//2 11//2 13//2
f 16//5 13//5 15//5