# SSTK version 0.8.0
# 15
mtllib original-15.mtl
o G1/G/mesh34/mesh34-geometry#mesh34-geometry
v -0.193346 -0.079840 0.031498
v -0.196988 -0.079907 0.034687
v -0.196988 -0.079840 0.031498
v -0.196988 -0.080037 0.040900
v -0.196988 -0.076921 0.031559
v -0.193346 -0.080037 0.040900
v -0.198416 -0.079990 0.038665
v -0.196988 -0.076988 0.034748
v -0.193346 -0.076921 0.031559
v -0.193346 -0.077117 0.040961
v -0.199136 -0.079874 0.033094
v -0.198416 -0.077071 0.038726
v -0.199136 -0.076955 0.033155
v -0.196988 -0.077117 0.040961
v -0.200641 -0.079949 0.036693
v -0.201526 -0.079850 0.031956
v -0.201526 -0.076931 0.032017
v -0.200641 -0.077030 0.036754
v -0.201999 -0.079932 0.035887
v -0.203452 -0.079920 0.035312
v -0.204157 -0.076917 0.031334
v -0.201999 -0.077013 0.035948
v -0.204157 -0.079836 0.031273
v -0.203452 -0.077001 0.035373
v -0.204999 -0.079913 0.034967
v -0.207030 -0.076912 0.031107
v -0.204999 -0.076994 0.035028
v -0.206639 -0.079910 0.034852
v -0.207030 -0.079831 0.031046
v -0.206639 -0.076991 0.034912
v -0.210190 -0.076917 0.031368
v -0.208861 -0.076995 0.035110
v -0.208861 -0.079915 0.035050
v -0.210190 -0.079836 0.031307
v -0.213002 -0.076934 0.032151
v -0.210837 -0.077008 0.035705
v -0.210837 -0.079927 0.035644
v -0.213002 -0.079853 0.032090
v -0.212565 -0.077028 0.036695
v -0.212565 -0.079948 0.036634
v -0.215468 -0.076961 0.033456
v -0.214046 -0.077057 0.038081
v -0.214046 -0.079977 0.038020
v -0.215468 -0.079880 0.033395
v -0.215235 -0.077092 0.039746
v -0.215235 -0.080011 0.039685
v -0.217586 -0.076999 0.035283
v -0.216084 -0.077130 0.041573
v -0.216084 -0.080049 0.041512
v -0.217586 -0.079918 0.035222
v -0.216593 -0.077172 0.043562
v -0.216593 -0.080091 0.043501
v -0.219287 -0.079964 0.037444
v -0.216763 -0.077217 0.045713
v -0.216763 -0.080136 0.045652
v -0.219287 -0.077045 0.037505
v -0.217668 -0.080355 0.056154
v -0.217668 -0.077436 0.056215
v -0.220502 -0.080016 0.039933
v -0.219333 -0.080307 0.053847
v -0.216569 -0.077267 0.048142
v -0.216569 -0.080186 0.048081
v -0.220502 -0.077097 0.039994
v -0.219333 -0.077388 0.053908
v -0.215518 -0.077476 0.058146
v -0.215518 -0.080395 0.058085
v -0.221232 -0.080074 0.042690
v -0.220523 -0.080254 0.051338
v -0.220523 -0.077335 0.051399
v -0.215988 -0.077312 0.050306
v -0.215988 -0.080232 0.050245
v -0.221232 -0.077155 0.042751
v -0.215021 -0.077352 0.052205
v -0.215021 -0.080271 0.052144
v -0.212874 -0.077505 0.059525
v -0.221475 -0.080137 0.045714
v -0.221237 -0.080198 0.048627
v -0.221237 -0.077279 0.048688
v -0.212874 -0.080424 0.059464
v -0.221475 -0.077218 0.045775
v -0.213666 -0.077386 0.053839
v -0.213666 -0.080305 0.053778
v -0.209736 -0.077522 0.060352
v -0.212038 -0.077414 0.055153
v -0.212038 -0.080333 0.055092
v -0.209736 -0.080441 0.060291
v -0.206104 -0.077528 0.060628
v -0.210253 -0.077433 0.056092
v -0.210253 -0.080352 0.056031
v -0.206104 -0.080447 0.060567
v -0.208309 -0.077445 0.056655
v -0.208309 -0.080364 0.056594
v -0.203021 -0.077523 0.060402
v -0.206207 -0.077449 0.056843
v -0.206207 -0.080368 0.056782
v -0.203021 -0.080442 0.060341
v -0.204545 -0.077446 0.056724
v -0.204545 -0.080366 0.056663
v -0.200255 -0.077509 0.059723
v -0.202976 -0.077439 0.056367
v -0.202976 -0.080358 0.056306
v -0.200255 -0.080428 0.059662
v -0.197805 -0.077485 0.058591
v -0.201500 -0.077426 0.055772
v -0.201500 -0.080346 0.055711
v -0.197805 -0.080404 0.058530
v -0.200116 -0.077409 0.054940
v -0.200116 -0.080328 0.054879
v -0.195671 -0.077452 0.057007
v -0.198917 -0.077388 0.053914
v -0.198917 -0.080307 0.053853
v -0.195671 -0.080371 0.056946
v -0.197354 -0.077336 0.051420
v -0.197997 -0.077363 0.052741
v -0.197997 -0.080282 0.052680
v -0.197354 -0.080255 0.051359
v -0.193943 -0.080331 0.054985
v -0.196988 -0.077305 0.049951
v -0.196988 -0.080224 0.049890
v -0.193943 -0.077411 0.055046
v -0.191741 -0.080150 0.046310
v -0.191741 -0.077230 0.046371
v -0.192708 -0.080283 0.052724
v -0.202153 -0.077230 0.046371
v -0.202153 -0.080224 0.049890
v -0.192708 -0.077364 0.052785
v -0.191968 -0.080230 0.050161
v -0.202153 -0.077305 0.049951
v -0.202153 -0.080150 0.046310
v -0.191968 -0.077311 0.050222
v -0.191721 -0.080170 0.047298
v -0.191721 -0.077251 0.047359
vn 0 -0.9997823646366916 -0.020862007608709585
vn 0 0.9997823646366916 0.020862007608709585
vn -1 0 0
vn 1 0 0
vn 0 0.020862007608709585 -0.9997823646366916
vn 0 -0.020862007608709585 0.9997823646366916
vn -0.8427819343139751 -0.011229083125663904 0.5381380110028946
vn -0.760398068084695 -0.013548983030212977 0.649315950144389
vn 0.760398068084695 0.013548983030212977 -0.649315950144389
vn 0.8427819343139751 0.011229083125663904 -0.5381380110028946
vn 0.5958370470527546 0.016754390054267678 -0.8029305721999648
vn 0.515349773605351 0.017878321947027417 -0.8567934269409823
vn -0.5958370470527546 -0.016754390054267678 0.8029305721999648
vn -0.515349773605351 -0.017878321947027417 0.8567934269409823
vn -0.5894168322671136 -0.016852936095161964 0.8076532525689308
vn 0.5894168322671136 0.016852936095161964 -0.8076532525689308
vn 0.34217079327496713 0.019602730411732147 -0.9394332766034981
vn -0.34217079327496713 -0.019602730411732147 0.9394332766034981
vn -0.44057278670453 -0.018728176648024914 0.8975215178561711
vn 0.44057278670453 0.018728176648024914 -0.8975215178561711
vn 0.16572899568446794 0.020573513873252024 -0.9859567082363834
vn -0.16572899568446794 -0.020573513873252024 0.9859567082363834
vn -0.294039934309283 -0.01993976365601306 0.95558512067567
vn 0.294039934309283 0.01993976365601306 -0.95558512067567
vn -0.001683998682028989 0.020861978027910184 -0.9997809470184965
vn 0.001683998682028989 -0.020861978027910184 0.9997809470184965
vn -0.14436096115413374 -0.02064348005309732 0.9893097389725588
vn 0.14436096115413374 0.02064348005309732 -0.9893097389725588
vn 0.009415993444774345 -0.020861082765685015 0.9997380428358675
vn -0.009415993444774345 0.020861082765685015 -0.9997380428358675
vn -0.17608590078998704 0.020536034659272458 -0.9841605696345754
vn 0.17608590078998704 -0.020536034659272458 0.9841605696345754
vn 0.18937894563605684 -0.020484490309680442 0.981690379196276
vn -0.18937894563605684 0.020484490309680442 -0.981690379196276
vn -0.370237860039415 0.01937949050401996 -0.9287348180946158
vn 0.370237860039415 -0.01937949050401996 0.9287348180946158
vn 0.3951398465310227 -0.01916427783779959 0.9184210538409904
vn -0.3951398465310227 0.01916427783779959 -0.9184210538409904
vn -0.5641529848847247 0.017225139643057732 -0.8254905839620055
vn 0.5641529848847247 -0.017225139643057732 0.8254905839620055
vn 0.594181032612465 -0.016779966482836185 0.8041562865565499
vn -0.594181032612465 0.016779966482836185 -0.8041562865565499
vn 0.7523632528657711 -0.01374281541934212 0.6586050946975628
vn -0.7523632528657711 0.01374281541934212 -0.6586050946975628
vn -0.72746380066543 0.014314384371045015 -0.6859967325880535
vn 0.72746380066543 -0.014314384371045015 0.6859967325880535
vn 0.8641805201329733 -0.010497384712085786 0.503072393932434
vn -0.8641805201329733 0.010497384712085786 -0.503072393932434
vn 0.9418484543809236 -0.007010425808445643 0.3359647941529731
vn -0.9418484543809236 0.007010425808445643 -0.3359647941529731
vn -0.8505518935458497 0.010971144671568586 -0.5257766734747418
vn 0.8505518935458497 -0.010971144671568586 0.5257766734747418
vn 0.9864728002615343 -0.003419805152082537 0.1638893507122685
vn -0.9864728002615343 0.003419805152082537 -0.1638893507122685
vn 0.9999999266554547 0.000007990151242238464 -0.00038291675722689915
vn -0.9999999266554547 -0.000007990151242238464 0.00038291675722689915
vn -0.9371870760735626 0.007277234772956922 -0.3487512384132076
vn 0.9371870760735626 -0.007277234772956922 0.3487512384132076
vn 0.9854488849692203 0.0035459580366183283 -0.16993505022367497
vn -0.9854488849692203 -0.0035459580366183283 0.16993505022367497
vn -0.7437786860426853 -0.013944707497503093 0.6682804885086994
vn -0.8608450315941487 -0.010615991487264635 0.5087564567692596
vn 0.8608450315941487 0.010615991487264635 -0.5087564567692596
vn 0.7437786860426853 0.013944707497503093 -0.6682804885086994
vn -0.9856923989573506 0.0035163775362052297 -0.16851744635712293
vn 0.9856923989573506 -0.0035163775362052297 0.16851744635712293
vn -0.9393711207031018 -0.00715362766127914 0.3428275414844647
vn 0.9393711207031018 0.00715362766127914 -0.3428275414844647
vn -0.5698048293357568 -0.017143981730518714 0.8216012051817311
vn 0.5698048293357568 0.017143981730518714 -0.8216012051817311
vn 0.9335331153316738 0.007478845621269294 -0.35841315467950224
vn -0.9335331153316738 -0.007478845621269294 0.35841315467950224
vn -0.3609960079637945 -0.019455227374459632 0.9323644010589488
vn 0.3609960079637945 0.019455227374459632 -0.9323644010589488
vn -0.9999997906954131 -0.000013497721020536338 0.00064685929044932
vn 0.9999997906954131 0.000013497721020536338 -0.00064685929044932
vn -0.9856809526173392 -0.003517773698873997 0.1685843554888124
vn 0.9856809526173392 0.003517773698873997 -0.1685843554888124
vn 0.8355560403836001 0.01146169602448749 -0.5492856569242655
vn -0.8355560403836001 -0.01146169602448749 0.5492856569242655
vn 0.7025837788181895 0.014845426217214068 -0.7114461659619669
vn -0.7025837788181895 -0.014845426217214068 0.7114461659619669
vn -0.1660619924951754 -0.02057234520640368 0.9859007015218322
vn 0.1660619924951754 0.02057234520640368 -0.9859007015218322
vn 0.5494376260255395 0.017430932020332815 -0.8353528941209947
vn -0.5494376260255395 -0.017430932020332815 0.8353528941209947
vn -0.0012579998037545155 -0.020861991100977095 0.9997815735268362
vn 0.0012579998037545155 0.020861991100977095 -0.9997815735268362
vn 0.37374384749344397 0.019350178802785514 -0.9273300960505366
vn -0.37374384749344397 -0.019350178802785514 0.9273300960505366
vn 0.15635688363531897 -0.020605417957198193 0.9874856665747916
vn -0.15635688363531897 0.020605417957198193 -0.9874856665747916
vn 0.18450697119751414 0.020503832077400305 -0.9826173062030107
vn -0.18450697119751414 -0.020503832077400305 0.9826173062030107
vn 0.00880699870472997 0.020861198530713186 -0.999743590711977
vn -0.00880699870472997 -0.020861198530713186 0.999743590711977
vn 0.3303969094086465 -0.01969044076793023 0.9436366720277349
vn -0.3303969094086465 0.01969044076793023 -0.9436366720277349
vn -0.14702799559858887 0.02063528621830351 -0.9889170609676778
vn 0.14702799559858887 -0.02063528621830351 0.9889170609676778
vn -0.2986878481319311 0.019909674961671897 -0.9541431623300756
vn 0.2986878481319311 -0.019909674961671897 0.9541431623300756
vn 0.5104858906188933 -0.017938950973493642 0.859698987737572
vn -0.5104858906188933 0.017938950973493642 -0.859698987737572
vn -0.4460518882515635 0.01867164497593122 -0.8948123170034639
vn 0.4460518882515635 -0.01867164497593122 0.8948123170034639
vn 0.6769279855244709 -0.015355465110404478 0.7358890623626805
vn -0.6769279855244709 0.015355465110404478 -0.7358890623626805
vn -0.5848960004764322 0.016921347452755926 -0.8109317706361348
vn 0.5848960004764322 -0.016921347452755926 0.8109317706361348
vn -0.7219617274001741 0.014435111324996598 -0.6917824020097589
vn 0.7219617274001741 -0.014435111324996598 0.6917824020097589
vn 0.8190808475256778 -0.01196807693800714 0.5735532497955385
vn -0.8190808475256778 0.01196807693800714 -0.5735532497955385
vn -0.847732548883243 0.011065707671123125 -0.5303084721910987
vn 0.847732548883243 -0.011065707671123125 0.5303084721910987
vn -0.9399670722529095 0.007119476170429686 -0.341190879332013
vn 0.9399670722529095 -0.007119476170429686 0.341190879332013
vn -0.9704664331672137 0.005032671349320319 -0.24118369413124882
vn 0.9704664331672137 -0.005032671349320319 0.24118369413124882
vn 0.92473190722235 -0.00794047857337765 0.38053626445444194
vn -0.92473190722235 0.00794047857337765 -0.38053626445444194
vn 0.9831792773437297 -0.003810302120198592 0.1826033685330432
vn -0.9831792773437297 0.003810302120198592 -0.1826033685330432
vn 0.9994691303631356 -0.000679684544436471 0.032572925568295295
vn 0.9997830526653421 0.00043453493785357403 -0.020824475565004177
vn -0.9997830526653421 -0.00043453493785357403 0.020824475565004177
vn -0.9994691303631356 0.000679684544436471 -0.032572925568295295
usemtl material_0_0
f 1//1 2//1 3//1
f 2//1 1//1 4//1
f 3//2 2//2 1//2
f 4//2 1//2 2//2
f 2//3 5//3 3//3
f 3//4 5//4 2//4
f 5//5 1//5 3//5
f 3//6 1//6 5//6
f 4//1 1//1 6//1
f 6//2 1//2 4//2
f 7//1 2//1 4//1
f 4//2 2//2 7//2
f 5//3 2//3 8//3
f 8//4 2//4 5//4
f 1//5 5//5 9//5
f 9//6 5//6 1//6
f 1//4 10//4 6//4
f 6//3 10//3 1//3
f 10//6 4//6 6//6
f 6//5 4//5 10//5
f 7//1 11//1 2//1
f 2//2 11//2 7//2
f 4//7 12//8 7//8
f 7//9 12//9 4//10
f 2//11 13//12 8//11
f 8//13 13//14 2//13
f 8//2 10//2 5//2
f 5//1 10//1 8//1
f 5//2 10//2 9//2
f 9//1 10//1 5//1
f 10//4 1//4 9//4
f 9//3 1//3 10//3
f 4//6 10//6 14//6
f 14//5 10//5 4//5
f 15//1 11//1 7//1
f 7//2 11//2 15//2
f 13//12 2//11 11//12
f 11//14 2//13 13//14
f 12//8 4//7 14//7
f 14//10 4//10 12//9
f 12//8 15//15 7//8
f 7//9 15//16 12//9
f 13//2 12//2 8//2
f 8//1 12//1 13//1
f 8//2 14//2 10//2
f 10//1 14//1 8//1
f 15//1 16//1 11//1
f 11//2 16//2 15//2
f 11//12 17//17 13//12
f 13//14 17//18 11//14
f 8//2 12//2 14//2
f 14//1 12//1 8//1
f 15//15 12//8 18//15
f 18//16 12//9 15//16
f 13//2 18//2 12//2
f 12//1 18//1 13//1
f 19//1 16//1 15//1
f 15//2 16//2 19//2
f 17//17 11//12 16//17
f 16//18 11//14 17//18
f 17//2 18//2 13//2
f 13//1 18//1 17//1
f 18//15 19//19 15//15
f 15//16 19//20 18//16
f 20//1 16//1 19//1
f 19//2 16//2 20//2
f 16//17 21//21 17//17
f 17//18 21//22 16//18
f 17//2 22//2 18//2
f 18//1 22//1 17//1
f 19//19 18//15 22//19
f 22//20 18//16 19//20
f 20//1 23//1 16//1
f 16//2 23//2 20//2
f 22//19 20//23 19//19
f 19//20 20//24 22//20
f 21//21 16//17 23//21
f 23//22 16//18 21//22
f 21//2 24//2 17//2
f 17//1 24//1 21//1
f 17//2 24//2 22//2
f 22//1 24//1 17//1
f 25//1 23//1 20//1
f 20//2 23//2 25//2
f 20//23 22//19 24//23
f 24//24 22//20 20//24
f 23//21 26//25 21//21
f 21//22 26//26 23//22
f 21//2 27//2 24//2
f 24//1 27//1 21//1
f 28//1 23//1 25//1
f 25//2 23//2 28//2
f 24//23 25//27 20//23
f 20//24 25//28 24//24
f 26//25 23//21 29//25
f 29//26 23//22 26//26
f 26//2 30//2 21//2
f 21//1 30//1 26//1
f 21//2 30//2 27//2
f 27//1 30//1 21//1
f 25//27 24//23 27//27
f 27//28 24//24 25//28
f 28//1 29//1 23//1
f 23//2 29//2 28//2
f 27//27 28//29 25//27
f 25//28 28//30 27//28
f 29//25 31//31 26//25
f 26//26 31//32 29//26
f 26//2 32//2 30//2
f 30//1 32//1 26//1
f 28//29 27//27 30//29
f 30//30 27//28 28//30
f 33//1 29//1 28//1
f 28//2 29//2 33//2
f 31//31 29//25 34//31
f 34//32 29//26 31//32
f 31//2 32//2 26//2
f 26//1 32//1 31//1
f 33//33 30//29 32//33
f 32//34 30//30 33//34
f 30//29 33//33 28//29
f 28//30 33//34 30//30
f 33//1 34//1 29//1
f 29//2 34//2 33//2
f 34//31 35//35 31//31
f 31//32 35//36 34//32
f 31//2 36//2 32//2
f 32//1 36//1 31//1
f 32//33 37//37 33//33
f 33//34 37//38 32//34
f 37//1 34//1 33//1
f 33//2 34//2 37//2
f 35//35 34//31 38//35
f 38//36 34//32 35//36
f 35//2 39//2 31//2
f 31//1 39//1 35//1
f 31//2 39//2 36//2
f 36//1 39//1 31//1
f 37//37 32//33 36//37
f 36//38 32//34 37//38
f 40//1 34//1 37//1
f 37//2 34//2 40//2
f 40//1 38//1 34//1
f 34//2 38//2 40//2
f 38//35 41//39 35//35
f 35//36 41//40 38//36
f 35//2 42//2 39//2
f 39//1 42//1 35//1
f 40//41 36//37 39//41
f 39//42 36//38 40//42
f 36//37 40//41 37//37
f 37//38 40//42 36//38
f 43//1 38//1 40//1
f 40//2 38//2 43//2
f 41//39 38//35 44//39
f 44//40 38//36 41//40
f 41//2 45//2 35//2
f 35//1 45//1 41//1
f 35//2 45//2 42//2
f 42//1 45//1 35//1
f 43//43 39//41 42//43
f 42//44 39//42 43//44
f 39//41 43//43 40//41
f 40//42 43//44 39//42
f 46//1 38//1 43//1
f 43//2 38//2 46//2
f 46//1 44//1 38//1
f 38//2 44//2 46//2
f 44//39 47//45 41//39
f 41//40 47//46 44//40
f 41//2 48//2 45//2
f 45//1 48//1 41//1
f 45//47 43//43 42//43
f 42//44 43//44 45//48
f 43//43 45//47 46//47
f 46//48 45//48 43//44
f 49//1 44//1 46//1
f 46//2 44//2 49//2
f 47//45 44//39 50//45
f 50//46 44//40 47//46
f 47//2 51//2 41//2
f 41//1 51//1 47//1
f 41//2 51//2 48//2
f 48//1 51//1 41//1
f 48//49 46//47 45//47
f 45//48 46//48 48//50
f 52//1 44//1 49//1
f 49//2 44//2 52//2
f 46//47 48//49 49//49
f 49//50 48//50 46//48
f 52//1 50//1 44//1
f 44//2 50//2 52//2
f 53//51 47//45 50//45
f 50//46 47//46 53//52
f 51//2 47//2 54//2
f 54//1 47//1 51//1
f 51//53 49//49 48//49
f 48//50 49//50 51//54
f 49//49 51//53 52//53
f 52//54 51//54 49//50
f 50//1 52//1 55//1
f 55//2 52//2 50//2
f 47//45 53//51 56//51
f 56//52 53//52 47//46
f 57//1 53//1 50//1
f 50//2 53//2 57//2
f 47//2 58//2 54//2
f 54//1 58//1 47//1
f 54//55 52//53 51//53
f 51//54 52//54 54//56
f 52//53 54//55 55//55
f 55//56 54//56 52//54
f 57//1 50//1 55//1
f 55//2 50//2 57//2
f 59//57 56//51 53//51
f 53//52 56//52 59//58
f 56//2 58//2 47//2
f 47//1 58//1 56//1
f 60//1 53//1 57//1
f 57//2 53//2 60//2
f 54//2 58//2 61//2
f 61//1 58//1 54//1
f 61//59 55//55 54//55
f 54//56 55//56 61//60
f 57//1 55//1 62//1
f 62//2 55//2 57//2
f 56//51 59//57 63//57
f 63//58 59//58 56//52
f 60//1 59//1 53//1
f 53//2 59//2 60//2
f 56//2 64//2 58//2
f 58//1 64//1 56//1
f 57//61 64//62 60//62
f 60//63 64//63 57//64
f 61//2 58//2 65//2
f 65//1 58//1 61//1
f 55//55 61//59 62//59
f 62//60 61//60 55//56
f 57//1 62//1 66//1
f 66//2 62//2 57//2
f 67//65 63//57 59//57
f 59//58 63//58 67//66
f 63//2 64//2 56//2
f 56//1 64//1 63//1
f 68//1 59//1 60//1
f 60//2 59//2 68//2
f 64//62 57//61 58//61
f 58//64 57//64 64//63
f 69//67 60//62 64//62
f 64//63 60//63 69//68
f 57//61 65//69 58//61
f 58//64 65//70 57//64
f 61//2 65//2 70//2
f 70//1 65//1 61//1
f 70//71 62//59 61//59
f 61//60 62//60 70//72
f 66//1 62//1 71//1
f 71//2 62//2 66//2
f 65//69 57//61 66//69
f 66//70 57//64 65//70
f 63//57 67//65 72//65
f 72//66 67//66 63//58
f 68//1 67//1 59//1
f 59//2 67//2 68//2
f 63//2 69//2 64//2
f 64//1 69//1 63//1
f 60//62 69//67 68//67
f 68//68 69//68 60//63
f 70//2 65//2 73//2
f 73//1 65//1 70//1
f 62//59 70//71 71//71
f 71//72 70//72 62//60
f 66//1 71//1 74//1
f 74//2 71//2 66//2
f 66//69 75//73 65//69
f 65//70 75//74 66//70
f 76//75 72//65 67//65
f 67//66 72//66 76//76
f 72//2 69//2 63//2
f 63//1 69//1 72//1
f 77//1 67//1 68//1
f 68//2 67//2 77//2
f 78//77 68//67 69//67
f 69//68 68//68 78//78
f 73//2 65//2 75//2
f 75//1 65//1 73//1
f 73//79 71//71 70//71
f 70//72 71//72 73//80
f 71//71 73//79 74//79
f 74//80 73//80 71//72
f 66//1 74//1 79//1
f 79//2 74//2 66//2
f 75//73 66//69 79//73
f 79//74 66//70 75//74
f 72//65 76//75 80//75
f 80//76 76//76 72//66
f 67//1 77//1 76//1
f 76//2 77//2 67//2
f 72//2 78//2 69//2
f 69//1 78//1 72//1
f 68//67 78//77 77//77
f 77//78 78//78 68//68
f 73//2 75//2 81//2
f 81//1 75//1 73//1
f 81//81 74//79 73//79
f 73//80 74//80 81//82
f 79//1 74//1 82//1
f 82//2 74//2 79//2
f 79//73 83//83 75//73
f 75//74 83//84 79//74
f 77//77 80//75 76//75
f 76//76 80//76 77//78
f 78//2 72//2 80//2
f 80//1 72//1 78//1
f 80//75 77//77 78//77
f 78//78 77//78 80//76
f 81//2 75//2 84//2
f 84//1 75//1 81//1
f 74//79 81//81 82//81
f 82//82 81//82 74//80
f 79//1 82//1 85//1
f 85//2 82//2 79//2
f 83//83 79//73 86//83
f 86//84 79//74 83//84
f 84//2 75//2 83//2
f 83//1 75//1 84//1
f 85//85 81//81 84//85
f 84//86 81//82 85//86
f 81//81 85//85 82//81
f 82//82 85//86 81//82
f 79//1 85//1 86//1
f 86//2 85//2 79//2
f 86//83 87//87 83//83
f 83//84 87//88 86//84
f 84//2 83//2 88//2
f 88//1 83//1 84//1
f 84//85 89//89 85//85
f 85//86 89//90 84//86
f 86//1 85//1 89//1
f 89//2 85//2 86//2
f 87//87 86//83 90//87
f 90//88 86//84 87//88
f 91//2 83//2 87//2
f 87//1 83//1 91//1
f 88//2 83//2 91//2
f 91//1 83//1 88//1
f 89//89 84//85 88//89
f 88//90 84//86 89//90
f 86//1 89//1 92//1
f 92//2 89//2 86//2
f 86//1 92//1 90//1
f 90//2 92//2 86//2
f 90//87 93//91 87//87
f 87//88 93//92 90//88
f 91//2 87//2 94//2
f 94//1 87//1 91//1
f 92//93 88//89 91//93
f 91//94 88//90 92//94
f 88//89 92//93 89//89
f 89//90 92//94 88//90
f 90//1 92//1 95//1
f 95//2 92//2 90//2
f 93//91 90//87 96//91
f 96//92 90//88 93//92
f 97//2 87//2 93//2
f 93//1 87//1 97//1
f 94//2 87//2 97//2
f 97//1 87//1 94//1
f 95//95 91//93 94//95
f 94//96 91//94 95//96
f 91//93 95//95 92//93
f 92//94 95//96 91//94
f 90//1 95//1 98//1
f 98//2 95//2 90//2
f 90//1 98//1 96//1
f 96//2 98//2 90//2
f 96//91 99//97 93//91
f 93//92 99//98 96//92
f 97//2 93//2 100//2
f 100//1 93//1 97//1
f 98//99 94//95 97//99
f 97//100 94//96 98//100
f 94//95 98//99 95//95
f 95//96 98//100 94//96
f 96//1 98//1 101//1
f 101//2 98//2 96//2
f 99//97 96//91 102//97
f 102//98 96//92 99//98
f 100//2 93//2 99//2
f 99//1 93//1 100//1
f 101//101 97//99 100//101
f 100//102 97//100 101//102
f 97//99 101//101 98//99
f 98//100 101//102 97//100
f 96//1 101//1 102//1
f 102//2 101//2 96//2
f 102//97 103//103 99//97
f 99//98 103//104 102//98
f 100//2 99//2 104//2
f 104//1 99//1 100//1
f 100//101 105//105 101//101
f 101//102 105//106 100//102
f 102//1 101//1 105//1
f 105//2 101//2 102//2
f 103//103 102//97 106//103
f 106//104 102//98 103//104
f 107//2 99//2 103//2
f 103//1 99//1 107//1
f 104//2 99//2 107//2
f 107//1 99//1 104//1
f 105//105 100//101 104//105
f 104//106 100//102 105//106
f 102//1 105//1 108//1
f 108//2 105//2 102//2
f 102//1 108//1 106//1
f 106//2 108//2 102//2
f 106//103 109//107 103//103
f 103//104 109//108 106//104
f 107//2 103//2 110//2
f 110//1 103//1 107//1
f 108//109 104//105 107//109
f 107//110 104//106 108//110
f 104//105 108//109 105//105
f 105//106 108//110 104//106
f 106//1 108//1 111//1
f 111//2 108//2 106//2
f 109//107 106//103 112//107
f 112//108 106//104 109//108
f 113//2 103//2 109//2
f 109//1 103//1 113//1
f 110//2 103//2 114//2
f 114//1 103//1 110//1
f 111//111 107//109 110//111
f 110//112 107//110 111//112
f 107//109 111//111 108//109
f 108//110 111//112 107//110
f 106//1 111//1 115//1
f 115//2 111//2 106//2
f 106//1 116//1 112//1
f 112//2 116//2 106//2
f 117//113 109//107 112//107
f 112//108 109//108 117//114
f 114//2 103//2 113//2
f 113//1 103//1 114//1
f 113//2 109//2 118//2
f 118//1 109//1 113//1
f 114//115 111//111 110//111
f 110//112 111//112 114//116
f 111//111 114//115 115//115
f 115//116 114//116 111//112
f 106//1 115//1 116//1
f 116//2 115//2 106//2
f 112//1 116//1 119//1
f 119//2 116//2 112//2
f 109//107 117//113 120//113
f 120//114 117//114 109//108
f 112//1 121//1 117//1
f 117//2 121//2 112//2
f 113//117 115//115 114//115
f 114//116 115//116 113//118
f 122//2 118//2 109//2
f 109//1 118//1 122//1
f 118//119 116//117 113//117
f 113//118 116//118 118//120
f 115//115 113//117 116//117
f 116//118 113//118 115//116
f 116//117 118//119 119//119
f 119//120 118//120 116//118
f 119//1 121//1 112//1
f 112//2 121//2 119//2
f 123//121 120//113 117//113
f 117//114 120//114 123//122
f 122//2 109//2 120//2
f 120//1 109//1 122//1
f 117//1 121//1 123//1
f 123//2 121//2 117//2
f 124//2 118//2 122//2
f 122//1 118//1 124//1
f 118//6 125//6 119//6
f 119//5 125//5 118//5
f 125//1 121//1 119//1
f 119//2 121//2 125//2
f 120//113 123//121 126//121
f 126//122 123//122 120//114
f 122//2 120//2 126//2
f 126//1 120//1 122//1
f 123//1 121//1 127//1
f 127//2 121//2 123//2
f 118//2 124//2 128//2
f 128//1 124//1 118//1
f 121//5 124//5 122//5
f 122//6 124//6 121//6
f 125//6 118//6 128//6
f 128//5 118//5 125//5
f 121//1 125//1 129//1
f 129//2 125//2 121//2
f 127//123 126//121 123//121
f 123//122 126//122 127//124
f 122//2 126//2 130//2
f 130//1 126//1 122//1
f 127//1 121//1 131//1
f 131//2 121//2 127//2
f 124//3 125//3 128//3
f 128//4 125//4 124//4
f 124//5 121//5 129//5
f 129//6 121//6 124//6
f 132//125 121//126 122//126
f 122//127 121//127 132//128
f 125//3 124//3 129//3
f 129//4 124//4 125//4
f 126//121 127//123 130//123
f 130//124 127//124 126//122
f 122//2 130//2 132//2
f 132//1 130//1 122//1
f 121//126 132//125 131//125
f 131//128 132//128 121//127
f 131//125 130//123 127//123
f 127//124 130//124 131//128
f 130//123 131//125 132//125
f 132//128 131//128 130//124
