# SSTK version 0.8.0
# 39
mtllib original-39.mtl
o C1/C/mesh91/mesh91-geometry#mesh91-geometry
v -0.414824 -0.082147 0.142019
v -0.418528 -0.082201 0.144631
v -0.418528 -0.082147 0.142019
v -0.418528 -0.082339 0.151214
v -0.418528 -0.079227 0.142079
v -0.414824 -0.082339 0.151214
v -0.419229 -0.082311 0.149894
v -0.418528 -0.079282 0.144692
v -0.414824 -0.079227 0.142079
v -0.414824 -0.079419 0.151275
v -0.420097 -0.082287 0.148733
v -0.419229 -0.079392 0.149955
v -0.420553 -0.079254 0.143351
v -0.418528 -0.079419 0.151275
v -0.420553 -0.082173 0.143290
v -0.420097 -0.079368 0.148794
v -0.421132 -0.082266 0.147729
v -0.422803 -0.079234 0.142393
v -0.421132 -0.079347 0.147790
v -0.422335 -0.082248 0.146884
v -0.422803 -0.082153 0.142332
v -0.422335 -0.079329 0.146945
v -0.425276 -0.079222 0.141818
v -0.424974 -0.079305 0.145795
v -0.424974 -0.082224 0.145734
v -0.425276 -0.082141 0.141757
v -0.427973 -0.079218 0.141627
v -0.427746 -0.079297 0.145412
v -0.427746 -0.082216 0.145351
v -0.427973 -0.082137 0.141566
v -0.431001 -0.079223 0.141879
v -0.429790 -0.079301 0.145605
v -0.429790 -0.082220 0.145544
v -0.431001 -0.082142 0.141818
v -0.433729 -0.079239 0.142635
v -0.431643 -0.079313 0.146184
v -0.431643 -0.082232 0.146123
v -0.433729 -0.082158 0.142574
v -0.433304 -0.079333 0.147148
v -0.433304 -0.082252 0.147087
v -0.436156 -0.079265 0.143895
v -0.434773 -0.079361 0.148498
v -0.434773 -0.082281 0.148437
v -0.436156 -0.082185 0.143834
v -0.435975 -0.079396 0.150142
v -0.435975 -0.082315 0.150082
v -0.438282 -0.079302 0.145659
v -0.436833 -0.079434 0.151990
v -0.436833 -0.082353 0.151929
v -0.438282 -0.082221 0.145598
v -0.437348 -0.079477 0.154041
v -0.437348 -0.082396 0.153980
v -0.440010 -0.082267 0.147788
v -0.437520 -0.079524 0.156295
v -0.437520 -0.082443 0.156234
v -0.440010 -0.079348 0.147849
v -0.438302 -0.082665 0.166870
v -0.438302 -0.079746 0.166931
v -0.441245 -0.082320 0.150325
v -0.440022 -0.082619 0.164636
v -0.437336 -0.079572 0.158602
v -0.437336 -0.082491 0.158541
v -0.441245 -0.079401 0.150385
v -0.440022 -0.079699 0.164697
v -0.436176 -0.079784 0.168776
v -0.436176 -0.082704 0.168715
v -0.441985 -0.082380 0.153209
v -0.441250 -0.082567 0.162154
v -0.441250 -0.079648 0.162215
v -0.436785 -0.079616 0.160687
v -0.436785 -0.082535 0.160626
v -0.441985 -0.079461 0.153269
v -0.435865 -0.079655 0.162551
v -0.435865 -0.082574 0.162490
v -0.433729 -0.079812 0.170094
v -0.442232 -0.082448 0.156440
v -0.441987 -0.082510 0.159421
v -0.441987 -0.079591 0.159482
v -0.433729 -0.082731 0.170033
v -0.442232 -0.079528 0.156501
v -0.434578 -0.079689 0.164195
v -0.434578 -0.082608 0.164134
v -0.430960 -0.079829 0.170884
v -0.433038 -0.079717 0.165536
v -0.433038 -0.082636 0.165475
v -0.430960 -0.082748 0.170824
v -0.427870 -0.079834 0.171148
v -0.431363 -0.079737 0.166494
v -0.431363 -0.082656 0.166433
v -0.427870 -0.082753 0.171087
v -0.429551 -0.079749 0.167068
v -0.429551 -0.082668 0.167007
v -0.425462 -0.079831 0.170984
v -0.427602 -0.079753 0.167260
v -0.427602 -0.082672 0.167199
v -0.425462 -0.082750 0.170923
v -0.423196 -0.079820 0.170492
v -0.425983 -0.079750 0.167127
v -0.425983 -0.082669 0.167066
v -0.423196 -0.082740 0.170431
v -0.424439 -0.079742 0.166728
v -0.424439 -0.082661 0.166667
v -0.421074 -0.079803 0.169673
v -0.422969 -0.079728 0.166062
v -0.422969 -0.082647 0.166001
v -0.421074 -0.082722 0.169612
v -0.419094 -0.079779 0.168525
v -0.421573 -0.079708 0.165131
v -0.421573 -0.082628 0.165070
v -0.419094 -0.082698 0.168464
v -0.420315 -0.079684 0.163952
v -0.420315 -0.082603 0.163891
v -0.417345 -0.079749 0.167079
v -0.419258 -0.079655 0.162546
v -0.419258 -0.082574 0.162485
v -0.417345 -0.082668 0.167018
v -0.418402 -0.079620 0.160913
v -0.418402 -0.082540 0.160852
v -0.415917 -0.082633 0.165304
v -0.417746 -0.079582 0.159052
v -0.417746 -0.082501 0.158991
v -0.415917 -0.079713 0.165365
v -0.414022 -0.082544 0.161068
v -0.414022 -0.079625 0.161129
v -0.414809 -0.082591 0.163320
v -0.414809 -0.079672 0.163381
vn 0 -0.9997823646366916 -0.020862007608709585
vn 0 0.9997823646366916 0.020862007608709585
vn -1 0 0
vn 1 0 0
vn 0 0.020862007608709585 -0.9997823646366916
vn 0 -0.020862007608709585 0.9997823646366916
vn -0.8832326789819698 -0.009782925550298575 0.4688329437507671
vn -0.8446626570732565 -0.011167411349984849 0.5351824779172865
vn 0.8446626570732565 0.011167411349984849 -0.5351824779172865
vn 0.8832326789819698 0.009782925550298575 -0.4688329437507671
vn 0.5521317273743814 0.017393842633088834 -0.8335754374170564
vn 0.4739757669026974 0.018369788121410522 -0.8803462519221481
vn -0.5521317273743814 -0.017393842633088834 0.8335754374170564
vn -0.4739757669026974 -0.018369788121410522 0.8803462519221481
vn -0.7509845153620629 -0.013775596998468349 0.6601761057579586
vn 0.7509845153620629 0.013775596998468349 -0.6601761057579586
vn -0.6376248170321724 -0.01607098622509073 0.7701794051430105
vn 0.6376248170321724 0.01607098622509073 -0.7701794051430105
vn 0.3103268598850834 0.01983204857181817 -0.9504230268061212
vn -0.3103268598850834 -0.01983204857181817 0.9504230268061212
vn -0.4898130863719893 -0.018188071348182344 0.8716377312160023
vn 0.4898130863719893 0.018188071348182344 -0.8716377312160023
vn 0.1491059789393756 0.020628795835571083 -0.9886060185063131
vn -0.1491059789393756 -0.020628795835571083 0.9886060185063131
vn -0.2706919103463172 -0.020083146089717775 0.9624565220913622
vn 0.2706919103463172 0.020083146089717775 -0.9624565220913622
vn -0.006050995932729833 0.02086162567868461 -0.9997640611775682
vn 0.006050995932729833 -0.02086162567868461 0.9997640611775682
vn -0.021626994474560998 -0.020857128177113493 0.9995485247421462
vn 0.021626994474560998 0.020857128177113493 -0.9995485247421462
vn -0.17581691496592494 0.020537037673615487 -0.9842086376858603
vn 0.17581691496592494 -0.020537037673615487 0.9842086376858603
vn 0.19713884349334104 -0.02045260279366757 0.9801622148527621
vn -0.19713884349334104 0.02045260279366757 -0.9801622148527621
vn -0.3660107223521599 0.019414406116150282 -0.9304080996844382
vn 0.3660107223521599 -0.019414406116150282 0.9304080996844382
vn 0.40269003218626087 -0.019095755087341904 0.9151371974275072
vn -0.40269003218626087 0.019095755087341904 -0.9151371974275072
vn -0.5529380443613837 0.01738269143807762 -0.8330410320843608
vn 0.5529380443613837 -0.01738269143807762 0.8330410320843608
vn 0.5929177845063143 -0.016799402854348385 0.8050877473169377
vn -0.5929177845063143 0.016799402854348385 -0.8050877473169377
vn 0.7456531044534156 -0.01390107199519106 0.6661893184496193
vn -0.7456531044534156 0.01390107199519106 -0.6661893184496193
vn -0.7157689346303674 0.014568715790359246 -0.6981852080489306
vn 0.7157689346303674 -0.014568715790359246 0.6981852080489306
vn 0.8613232524278176 -0.01059909597159237 0.5079467629503618
vn -0.8613232524278176 0.01059909597159237 -0.5079467629503618
vn 0.9426102052786465 -0.006965724087994217 0.33382252708958676
vn -0.9426102052786465 0.006965724087994217 -0.33382252708958676
vn -0.8469991300275345 0.011090123819996502 -0.5314785817756505
vn 0.8469991300275345 -0.011090123819996502 0.5314785817756505
vn 0.9870658981703034 -0.00334449362454952 0.16028015170833726
vn -0.9870658981703034 0.00334449362454952 -0.16028015170833726
vn 0.9999984388517723 0.000036863197066688796 -0.0017666168579104522
vn -0.9999984388517723 -0.000036863197066688796 0.0017666168579104522
vn -0.9386485067357259 0.007194791382264958 -0.3448002549009465
vn 0.9386485067357259 -0.007194791382264958 0.3448002549009465
vn 0.9857441709349211 0.003510055531014556 -0.16821447315256238
vn -0.9857441709349211 -0.003510055531014556 0.16821447315256238
vn -0.7276278419563355 -0.014310755194372199 0.6858228094017673
vn -0.8485038981761382 -0.011039947646054303 0.5290739592305312
vn 0.8485038981761382 0.011039947646054303 -0.5290739592305312
vn 0.7276278419563355 0.014310755194372199 -0.6858228094017673
vn -0.9866130042379551 0.0034021565942557387 -0.16304356840754258
vn 0.9866130042379551 -0.0034021565942557387 0.16304356840754258
vn -0.9354254802703073 -0.007375218969994613 0.3534469932057843
vn 0.9354254802703073 0.007375218969994613 -0.3534469932057843
vn -0.5683450236037374 -0.017165058213618415 0.8226112659825358
vn 0.5683450236037374 0.017165058213618415 -0.8226112659825358
vn 0.9364799531923877 0.0073167464733600585 -0.3506447810674329
vn -0.9364799531923877 -0.0073167464733600585 0.3506447810674329
vn -0.37662688017277446 -0.019325834578198975 0.9261634333362437
vn 0.37662688017277446 0.019325834578198975 -0.9261634333362437
vn -0.9999956132685714 -0.00006179326517650057 0.002961355298853965
vn 0.9999956132685714 0.00006179326517650057 -0.002961355298853965
vn -0.9851105675538128 -0.003586637805738756 0.17188457092786238
vn 0.9851105675538128 0.003586637805738756 -0.17188457092786238
vn 0.8465739316077101 0.011104244804712053 -0.5321553101018361
vn -0.8465739316077101 -0.011104244804712053 0.5321553101018361
vn 0.7253568149524353 0.014360844337631847 -0.6882232611238658
vn -0.7253568149524353 -0.014360844337631847 0.6882232611238658
vn -0.18067297548272004 -0.020518686248607747 0.9833291714603263
vn 0.18067297548272004 0.020518686248607747 -0.9833291714603263
vn 0.5794671916253761 0.01700244371470094 -0.8148181948984253
vn -0.5794671916253761 -0.01700244371470094 0.8148181948984253
vn -0.008559000054655397 -0.020861243456072775 0.9997457436966315
vn 0.008559000054655397 0.020861243456072775 -0.9997457436966315
vn 0.4016319303582655 0.019105451085303902 -0.9156018644888839
vn -0.4016319303582655 -0.019105451085303902 0.9156018644888839
vn 0.14043997636631536 -0.020655248308671156 0.9898737160645978
vn -0.14043997636631536 0.020655248308671156 -0.9898737160645978
vn 0.2012349281623844 0.020435233677070914 -0.9793298243758551
vn -0.2012349281623844 -0.020435233677070914 0.9793298243758551
vn 0.008004996756236485 0.02086133917955833 -0.9997503311100067
vn -0.008004996756236485 -0.02086133917955833 0.9997503311100067
vn 0.28711099164033654 -0.019983661208868603 0.9576888491383784
vn -0.28711099164033654 0.019983661208868603 -0.9576888491383784
vn -0.1667269568432575 0.020570004265943284 -0.9857885152436529
vn 0.1667269568432575 -0.020570004265943284 0.9857885152436529
vn 0.43225262779558243 -0.018812368609387186 0.9015562991578054
vn -0.43225262779558243 0.018812368609387186 -0.9015562991578054
vn -0.33260883538484776 0.019674226643826648 -0.9428596329411408
vn 0.33260883538484776 -0.019674226643826648 0.9428596329411408
vn -0.48550872413478463 0.01823823092462583 -0.8740415583493463
vn 0.48550872413478463 -0.01823823092462583 0.8740415583493463
vn 0.5714149798840538 -0.01712064166763385 0.8204826655042718
vn -0.5714149798840538 0.01712064166763385 -0.8204826655042718
vn -0.6216499294212586 0.016341110354449826 -0.7831247240145901
vn 0.6216499294212586 -0.016341110354449826 0.7831247240145901
vn 0.7059271694519551 -0.014776235133168869 0.7081302806015568
vn -0.7059271694519551 0.014776235133168869 -0.7081302806015568
vn -0.7443577687273637 0.013931253055452085 -0.6676357033019771
vn 0.7443577687273637 -0.013931253055452085 0.6676357033019771
vn -0.8452785476184088 0.011147111177281665 -0.5342096207000717
vn 0.8452785476184088 -0.011147111177281665 0.5342096207000717
vn 0.8242727009475388 -0.011811922696541457 0.5660697774611007
vn -0.8242727009475388 0.011811922696541457 -0.5660697774611007
vn -0.9168071648109748 0.008330830034374988 -0.3992433090512608
vn 0.9168071648109748 -0.008330830034374988 0.3992433090512608
vn -0.9431705815753372 0.006932632339319159 -0.3322366515899296
vn 0.9431705815753372 -0.006932632339319159 0.3322366515899296
vn 0.9119105777433728 -0.008561537598675974 0.410299644496183
vn -0.9119105777433728 0.008561537598675974 -0.410299644496183
vn 0.48728096120762276 0.018217649028232634 -0.8730551999206347
vn -0.48728096120762276 -0.018217649028232634 0.8730551999206347
vn 0.9439466658923127 -0.0068865070617776065 0.33002616255575035
vn -0.9439466658923127 0.0068865070617776065 -0.33002616255575035
usemtl material_0_0
f 1//1 2//1 3//1
f 2//1 1//1 4//1
f 3//2 2//2 1//2
f 4//2 1//2 2//2
f 2//3 5//3 3//3
f 3//4 5//4 2//4
f 5//5 1//5 3//5
f 3//6 1//6 5//6
f 4//1 1//1 6//1
f 6//2 1//2 4//2
f 7//1 2//1 4//1
f 4//2 2//2 7//2
f 5//3 2//3 8//3
f 8//4 2//4 5//4
f 1//5 5//5 9//5
f 9//6 5//6 1//6
f 1//4 10//4 6//4
f 6//3 10//3 1//3
f 10//6 4//6 6//6
f 6//5 4//5 10//5
f 11//1 2//1 7//1
f 7//2 2//2 11//2
f 4//7 12//8 7//8
f 7//9 12//9 4//10
f 2//11 13//12 8//11
f 8//13 13//14 2//13
f 8//2 10//2 5//2
f 5//1 10//1 8//1
f 5//2 10//2 9//2
f 9//1 10//1 5//1
f 10//4 1//4 9//4
f 9//3 1//3 10//3
f 4//6 10//6 14//6
f 14//5 10//5 4//5
f 11//1 15//1 2//1
f 2//2 15//2 11//2
f 7//8 16//15 11//15
f 11//16 16//16 7//9
f 12//8 4//7 14//7
f 14//10 4//10 12//9
f 16//15 7//8 12//8
f 12//9 7//9 16//16
f 13//12 2//11 15//12
f 15//14 2//13 13//14
f 13//2 16//2 8//2
f 8//1 16//1 13//1
f 8//2 14//2 10//2
f 10//1 14//1 8//1
f 17//1 15//1 11//1
f 11//2 15//2 17//2
f 16//15 17//17 11//15
f 11//16 17//18 16//16
f 8//2 12//2 14//2
f 14//1 12//1 8//1
f 8//2 16//2 12//2
f 12//1 16//1 8//1
f 15//12 18//19 13//12
f 13//14 18//20 15//14
f 13//2 19//2 16//2
f 16//1 19//1 13//1
f 20//1 15//1 17//1
f 17//2 15//2 20//2
f 17//17 16//15 19//17
f 19//18 16//16 17//18
f 18//19 15//12 21//19
f 21//20 15//14 18//20
f 18//2 22//2 13//2
f 13//1 22//1 18//1
f 13//2 22//2 19//2
f 19//1 22//1 13//1
f 20//1 21//1 15//1
f 15//2 21//2 20//2
f 19//17 20//21 17//17
f 17//18 20//22 19//18
f 21//19 23//23 18//19
f 18//20 23//24 21//20
f 18//2 24//2 22//2
f 22//1 24//1 18//1
f 20//21 19//17 22//21
f 22//22 19//18 20//22
f 25//1 21//1 20//1
f 20//2 21//2 25//2
f 23//23 21//19 26//23
f 26//24 21//20 23//24
f 23//2 24//2 18//2
f 18//1 24//1 23//1
f 25//25 22//21 24//25
f 24//26 22//22 25//26
f 22//21 25//25 20//21
f 20//22 25//26 22//22
f 25//1 26//1 21//1
f 21//2 26//2 25//2
f 26//23 27//27 23//23
f 23//24 27//28 26//24
f 23//2 28//2 24//2
f 24//1 28//1 23//1
f 24//25 29//29 25//25
f 25//26 29//30 24//26
f 29//1 26//1 25//1
f 25//2 26//2 29//2
f 27//27 26//23 30//27
f 30//28 26//24 27//28
f 27//2 28//2 23//2
f 23//1 28//1 27//1
f 29//29 24//25 28//29
f 28//30 24//26 29//30
f 29//1 30//1 26//1
f 26//2 30//2 29//2
f 30//27 31//31 27//27
f 27//28 31//32 30//28
f 27//2 32//2 28//2
f 28//1 32//1 27//1
f 28//29 33//33 29//29
f 29//30 33//34 28//30
f 33//1 30//1 29//1
f 29//2 30//2 33//2
f 31//31 30//27 34//31
f 34//32 30//28 31//32
f 31//2 32//2 27//2
f 27//1 32//1 31//1
f 33//33 28//29 32//33
f 32//34 28//30 33//34
f 33//1 34//1 30//1
f 30//2 34//2 33//2
f 34//31 35//35 31//31
f 31//32 35//36 34//32
f 31//2 36//2 32//2
f 32//1 36//1 31//1
f 32//33 37//37 33//33
f 33//34 37//38 32//34
f 37//1 34//1 33//1
f 33//2 34//2 37//2
f 35//35 34//31 38//35
f 38//36 34//32 35//36
f 35//2 39//2 31//2
f 31//1 39//1 35//1
f 31//2 39//2 36//2
f 36//1 39//1 31//1
f 37//37 32//33 36//37
f 36//38 32//34 37//38
f 40//1 34//1 37//1
f 37//2 34//2 40//2
f 40//1 38//1 34//1
f 34//2 38//2 40//2
f 38//35 41//39 35//35
f 35//36 41//40 38//36
f 35//2 42//2 39//2
f 39//1 42//1 35//1
f 40//41 36//37 39//41
f 39//42 36//38 40//42
f 36//37 40//41 37//37
f 37//38 40//42 36//38
f 43//1 38//1 40//1
f 40//2 38//2 43//2
f 41//39 38//35 44//39
f 44//40 38//36 41//40
f 41//2 45//2 35//2
f 35//1 45//1 41//1
f 35//2 45//2 42//2
f 42//1 45//1 35//1
f 43//43 39//41 42//43
f 42//44 39//42 43//44
f 39//41 43//43 40//41
f 40//42 43//44 39//42
f 46//1 38//1 43//1
f 43//2 38//2 46//2
f 46//1 44//1 38//1
f 38//2 44//2 46//2
f 44//39 47//45 41//39
f 41//40 47//46 44//40
f 41//2 48//2 45//2
f 45//1 48//1 41//1
f 45//47 43//43 42//43
f 42//44 43//44 45//48
f 43//43 45//47 46//47
f 46//48 45//48 43//44
f 49//1 44//1 46//1
f 46//2 44//2 49//2
f 47//45 44//39 50//45
f 50//46 44//40 47//46
f 47//2 51//2 41//2
f 41//1 51//1 47//1
f 41//2 51//2 48//2
f 48//1 51//1 41//1
f 48//49 46//47 45//47
f 45//48 46//48 48//50
f 52//1 44//1 49//1
f 49//2 44//2 52//2
f 46//47 48//49 49//49
f 49//50 48//50 46//48
f 52//1 50//1 44//1
f 44//2 50//2 52//2
f 53//51 47//45 50//45
f 50//46 47//46 53//52
f 51//2 47//2 54//2
f 54//1 47//1 51//1
f 51//53 49//49 48//49
f 48//50 49//50 51//54
f 49//49 51//53 52//53
f 52//54 51//54 49//50
f 50//1 52//1 55//1
f 55//2 52//2 50//2
f 47//45 53//51 56//51
f 56//52 53//52 47//46
f 57//1 53//1 50//1
f 50//2 53//2 57//2
f 47//2 58//2 54//2
f 54//1 58//1 47//1
f 54//55 52//53 51//53
f 51//54 52//54 54//56
f 52//53 54//55 55//55
f 55//56 54//56 52//54
f 57//1 50//1 55//1
f 55//2 50//2 57//2
f 59//57 56//51 53//51
f 53//52 56//52 59//58
f 56//2 58//2 47//2
f 47//1 58//1 56//1
f 60//1 53//1 57//1
f 57//2 53//2 60//2
f 54//2 58//2 61//2
f 61//1 58//1 54//1
f 61//59 55//55 54//55
f 54//56 55//56 61//60
f 57//1 55//1 62//1
f 62//2 55//2 57//2
f 56//51 59//57 63//57
f 63//58 59//58 56//52
f 60//1 59//1 53//1
f 53//2 59//2 60//2
f 56//2 64//2 58//2
f 58//1 64//1 56//1
f 57//61 64//62 60//62
f 60//63 64//63 57//64
f 61//2 58//2 65//2
f 65//1 58//1 61//1
f 55//55 61//59 62//59
f 62//60 61//60 55//56
f 57//1 62//1 66//1
f 66//2 62//2 57//2
f 67//65 63//57 59//57
f 59//58 63//58 67//66
f 63//2 64//2 56//2
f 56//1 64//1 63//1
f 68//1 59//1 60//1
f 60//2 59//2 68//2
f 64//62 57//61 58//61
f 58//64 57//64 64//63
f 69//67 60//62 64//62
f 64//63 60//63 69//68
f 57//61 65//69 58//61
f 58//64 65//70 57//64
f 61//2 65//2 70//2
f 70//1 65//1 61//1
f 70//71 62//59 61//59
f 61//60 62//60 70//72
f 66//1 62//1 71//1
f 71//2 62//2 66//2
f 65//69 57//61 66//69
f 66//70 57//64 65//70
f 63//57 67//65 72//65
f 72//66 67//66 63//58
f 68//1 67//1 59//1
f 59//2 67//2 68//2
f 63//2 69//2 64//2
f 64//1 69//1 63//1
f 60//62 69//67 68//67
f 68//68 69//68 60//63
f 70//2 65//2 73//2
f 73//1 65//1 70//1
f 62//59 70//71 71//71
f 71//72 70//72 62//60
f 66//1 71//1 74//1
f 74//2 71//2 66//2
f 66//69 75//73 65//69
f 65//70 75//74 66//70
f 76//75 72//65 67//65
f 67//66 72//66 76//76
f 72//2 69//2 63//2
f 63//1 69//1 72//1
f 77//1 67//1 68//1
f 68//2 67//2 77//2
f 78//77 68//67 69//67
f 69//68 68//68 78//78
f 73//2 65//2 75//2
f 75//1 65//1 73//1
f 73//79 71//71 70//71
f 70//72 71//72 73//80
f 71//71 73//79 74//79
f 74//80 73//80 71//72
f 66//1 74//1 79//1
f 79//2 74//2 66//2
f 75//73 66//69 79//73
f 79//74 66//70 75//74
f 72//65 76//75 80//75
f 80//76 76//76 72//66
f 67//1 77//1 76//1
f 76//2 77//2 67//2
f 72//2 78//2 69//2
f 69//1 78//1 72//1
f 68//67 78//77 77//77
f 77//78 78//78 68//68
f 73//2 75//2 81//2
f 81//1 75//1 73//1
f 81//81 74//79 73//79
f 73//80 74//80 81//82
f 79//1 74//1 82//1
f 82//2 74//2 79//2
f 79//73 83//83 75//73
f 75//74 83//84 79//74
f 77//77 80//75 76//75
f 76//76 80//76 77//78
f 78//2 72//2 80//2
f 80//1 72//1 78//1
f 80//75 77//77 78//77
f 78//78 77//78 80//76
f 81//2 75//2 84//2
f 84//1 75//1 81//1
f 74//79 81//81 82//81
f 82//82 81//82 74//80
f 79//1 82//1 85//1
f 85//2 82//2 79//2
f 83//83 79//73 86//83
f 86//84 79//74 83//84
f 84//2 75//2 83//2
f 83//1 75//1 84//1
f 85//85 81//81 84//85
f 84//86 81//82 85//86
f 81//81 85//85 82//81
f 82//82 85//86 81//82
f 79//1 85//1 86//1
f 86//2 85//2 79//2
f 86//83 87//87 83//83
f 83//84 87//88 86//84
f 84//2 83//2 88//2
f 88//1 83//1 84//1
f 84//85 89//89 85//85
f 85//86 89//90 84//86
f 86//1 85//1 89//1
f 89//2 85//2 86//2
f 87//87 86//83 90//87
f 90//88 86//84 87//88
f 91//2 83//2 87//2
f 87//1 83//1 91//1
f 88//2 83//2 91//2
f 91//1 83//1 88//1
f 89//89 84//85 88//89
f 88//90 84//86 89//90
f 86//1 89//1 92//1
f 92//2 89//2 86//2
f 86//1 92//1 90//1
f 90//2 92//2 86//2
f 90//87 93//91 87//87
f 87//88 93//92 90//88
f 91//2 87//2 94//2
f 94//1 87//1 91//1
f 92//93 88//89 91//93
f 91//94 88//90 92//94
f 88//89 92//93 89//89
f 89//90 92//94 88//90
f 90//1 92//1 95//1
f 95//2 92//2 90//2
f 93//91 90//87 96//91
f 96//92 90//88 93//92
f 94//2 87//2 93//2
f 93//1 87//1 94//1
f 95//95 91//93 94//95
f 94//96 91//94 95//96
f 91//93 95//95 92//93
f 92//94 95//96 91//94
f 90//1 95//1 96//1
f 96//2 95//2 90//2
f 96//91 97//97 93//91
f 93//92 97//98 96//92
f 94//2 93//2 98//2
f 98//1 93//1 94//1
f 94//95 99//99 95//95
f 95//96 99//100 94//96
f 96//1 95//1 99//1
f 99//2 95//2 96//2
f 97//97 96//91 100//97
f 100//98 96//92 97//98
f 101//2 93//2 97//2
f 97//1 93//1 101//1
f 98//2 93//2 101//2
f 101//1 93//1 98//1
f 99//99 94//95 98//99
f 98//100 94//96 99//100
f 96//1 99//1 102//1
f 102//2 99//2 96//2
f 96//1 102//1 100//1
f 100//2 102//2 96//2
f 100//97 103//101 97//97
f 97//98 103//102 100//98
f 101//2 97//2 104//2
f 104//1 97//1 101//1
f 102//103 98//99 101//103
f 101//104 98//100 102//104
f 98//99 102//103 99//99
f 99//100 102//104 98//100
f 100//1 102//1 105//1
f 105//2 102//2 100//2
f 103//101 100//97 106//101
f 106//102 100//98 103//102
f 104//2 97//2 103//2
f 103//1 97//1 104//1
f 105//105 101//103 104//105
f 104//106 101//104 105//106
f 101//103 105//105 102//103
f 102//104 105//106 101//104
f 100//1 105//1 106//1
f 106//2 105//2 100//2
f 106//101 107//107 103//101
f 103//102 107//108 106//102
f 104//2 103//2 108//2
f 108//1 103//1 104//1
f 104//105 109//109 105//105
f 105//106 109//110 104//106
f 106//1 105//1 109//1
f 109//2 105//2 106//2
f 107//107 106//101 110//107
f 110//108 106//102 107//108
f 111//2 103//2 107//2
f 107//1 103//1 111//1
f 108//2 103//2 111//2
f 111//1 103//1 108//1
f 109//109 104//105 108//109
f 108//110 104//106 109//110
f 106//1 109//1 112//1
f 112//2 109//2 106//2
f 106//1 112//1 110//1
f 110//2 112//2 106//2
f 110//107 113//111 107//107
f 107//108 113//112 110//108
f 111//2 107//2 114//2
f 114//1 107//1 111//1
f 112//113 108//109 111//113
f 111//114 108//110 112//114
f 108//109 112//113 109//109
f 109//110 112//114 108//110
f 110//1 112//1 115//1
f 115//2 112//2 110//2
f 113//111 110//107 116//111
f 116//112 110//108 113//112
f 117//2 107//2 113//2
f 113//1 107//1 117//1
f 114//2 107//2 117//2
f 117//1 107//1 114//1
f 114//115 112//113 111//113
f 111//114 112//114 114//116
f 112//113 114//115 115//115
f 115//116 114//116 112//114
f 110//1 115//1 118//1
f 118//2 115//2 110//2
f 110//1 118//1 116//1
f 116//2 118//2 110//2
f 119//117 113//111 116//111
f 116//112 113//112 119//118
f 117//2 113//2 120//2
f 120//1 113//1 117//1
f 117//119 115//115 114//115
f 114//116 115//116 117//120
f 115//115 117//119 118//119
f 118//120 117//120 115//116
f 116//1 118//1 121//1
f 121//2 118//2 116//2
f 113//111 119//117 122//117
f 122//118 119//118 113//112
f 116//1 123//1 119//1
f 119//2 123//2 116//2
f 120//2 113//2 124//2
f 124//1 113//1 120//1
f 120//121 118//119 117//119
f 117//120 118//120 120//122
f 118//119 120//121 121//121
f 121//122 120//122 118//120
f 116//1 121//1 123//1
f 123//2 121//2 116//2
f 125//123 122//117 119//117
f 119//118 122//118 125//124
f 124//2 113//2 122//2
f 122//1 113//1 124//1
f 119//1 123//1 125//1
f 125//2 123//2 119//2
f 123//125 120//125 124//125
f 124//126 120//126 123//126
f 120//125 123//125 121//125
f 121//126 123//126 120//126
f 122//117 125//123 126//123
f 126//124 125//124 122//118
f 124//2 122//2 126//2
f 126//1 122//1 124//1
f 123//127 126//123 125//123
f 125//124 126//124 123//128
f 126//123 123//127 124//127
f 124//128 123//128 126//124
