# SSTK version 0.8.0
# 28
mtllib original-28.mtl
o mesh52/mesh52-geometry#mesh52-geometry
v 0.485308 -0.077518 -0.079804
v 0.481830 -0.077536 -0.078952
v 0.481830 -0.077518 -0.079804
v 0.481830 -0.077630 -0.074414
v 0.481830 -0.074599 -0.079743
v 0.481830 -0.077656 -0.073201
v 0.480948 -0.077608 -0.075485
v 0.481830 -0.074616 -0.078892
v 0.485308 -0.074599 -0.079743
v 0.485308 -0.077656 -0.073201
v 0.481830 -0.074711 -0.074353
v 0.479886 -0.077592 -0.076250
v 0.480948 -0.074689 -0.075425
v 0.479598 -0.074598 -0.079762
v 0.485308 -0.074736 -0.073140
v 0.481830 -0.074736 -0.073140
v 0.479598 -0.077517 -0.079823
v 0.479886 -0.074673 -0.076190
v 0.478644 -0.077582 -0.076709
v 0.476974 -0.074592 -0.080052
v 0.478644 -0.074663 -0.076649
v 0.477221 -0.077579 -0.076862
v 0.476974 -0.077511 -0.080113
v 0.477221 -0.074660 -0.076802
v 0.475486 -0.074594 -0.079947
v 0.475814 -0.074664 -0.076634
v 0.475814 -0.077583 -0.076695
v 0.475486 -0.077514 -0.080008
v 0.474150 -0.074601 -0.079633
v 0.474680 -0.074674 -0.076133
v 0.474680 -0.077593 -0.076194
v 0.474150 -0.077520 -0.079693
v 0.472966 -0.074612 -0.079108
v 0.473931 -0.074690 -0.075354
v 0.473931 -0.077609 -0.075415
v 0.472966 -0.077531 -0.079169
v 0.473682 -0.074711 -0.074353
v 0.473682 -0.077630 -0.074414
v 0.471933 -0.074627 -0.078374
v 0.474126 -0.074826 -0.068842
v 0.474126 -0.077745 -0.068903
v 0.471933 -0.077546 -0.078435
v 0.472805 -0.074813 -0.069458
v 0.473911 -0.074731 -0.073399
v 0.472805 -0.077733 -0.069519
v 0.473911 -0.077650 -0.073460
v 0.471096 -0.077565 -0.077545
v 0.471778 -0.074798 -0.070181
v 0.474598 -0.074744 -0.072800
v 0.474598 -0.077663 -0.072861
v 0.471778 -0.077717 -0.070242
v 0.471096 -0.074646 -0.077485
v 0.477653 -0.074845 -0.067932
v 0.477653 -0.077764 -0.067993
v 0.470498 -0.077586 -0.076554
v 0.471009 -0.077700 -0.071076
v 0.471009 -0.074781 -0.071015
v 0.478538 -0.074762 -0.071908
v 0.478538 -0.077681 -0.071969
v 0.470498 -0.074666 -0.076493
v 0.479971 -0.074855 -0.067461
v 0.479971 -0.077774 -0.067522
v 0.470139 -0.077609 -0.075461
v 0.470459 -0.077680 -0.072025
v 0.470459 -0.074761 -0.071964
v 0.481085 -0.074772 -0.071418
v 0.481085 -0.077692 -0.071479
v 0.470139 -0.074689 -0.075400
v 0.481367 -0.074866 -0.066947
v 0.481367 -0.077785 -0.067008
v 0.470019 -0.077633 -0.074267
v 0.470129 -0.077658 -0.073089
v 0.470129 -0.074739 -0.073028
v 0.482921 -0.074784 -0.070850
v 0.482921 -0.077703 -0.070911
v 0.470019 -0.074714 -0.074206
v 0.482070 -0.074880 -0.066263
v 0.482070 -0.077799 -0.066324
v 0.482304 -0.074900 -0.065281
v 0.484277 -0.077720 -0.070103
v 0.482304 -0.077820 -0.065342
v 0.483084 -0.075002 -0.060421
v 0.484277 -0.074801 -0.070042
v 0.483084 -0.077921 -0.060482
v 0.482021 -0.077841 -0.064298
v 0.482021 -0.074922 -0.064237
v 0.485380 -0.074826 -0.068833
v 0.484228 -0.077906 -0.061197
v 0.481782 -0.075013 -0.059909
v 0.484228 -0.074987 -0.061136
v 0.485380 -0.077746 -0.068894
v 0.485159 -0.074968 -0.062026
v 0.485159 -0.077888 -0.062087
v 0.481782 -0.077932 -0.059970
v 0.481172 -0.074939 -0.063450
v 0.486113 -0.074858 -0.067308
v 0.485825 -0.074947 -0.063058
v 0.481172 -0.077858 -0.063511
v 0.480321 -0.075019 -0.059603
v 0.480321 -0.077938 -0.059663
v 0.486113 -0.077777 -0.067369
v 0.485825 -0.077866 -0.063119
v 0.479850 -0.074949 -0.062956
v 0.486357 -0.074895 -0.065551
v 0.486224 -0.074922 -0.064233
v 0.486224 -0.077842 -0.064294
v 0.479850 -0.077868 -0.063017
v 0.478703 -0.075021 -0.059500
v 0.478703 -0.077940 -0.059561
v 0.486357 -0.077814 -0.065612
v 0.478147 -0.074952 -0.062792
v 0.478147 -0.077872 -0.062853
v 0.476457 -0.074948 -0.063018
v 0.475807 -0.077933 -0.059923
v 0.476457 -0.077867 -0.063079
v 0.475807 -0.075014 -0.059862
v 0.475009 -0.074934 -0.063697
v 0.474578 -0.077923 -0.060376
v 0.475009 -0.077853 -0.063758
v 0.474578 -0.075004 -0.060315
v 0.473967 -0.074912 -0.064726
v 0.473497 -0.077910 -0.061010
v 0.473967 -0.077831 -0.064787
v 0.473497 -0.074885 -0.066001
v 0.473497 -0.074991 -0.060949
v 0.473497 -0.077805 -0.066062
v 0.473497 -0.075014 -0.059829
v 0.473497 -0.074872 -0.066659
v 0.473497 -0.077791 -0.066720
v 0.473497 -0.077933 -0.059890
v 0.469999 -0.077933 -0.059890
v 0.469999 -0.074872 -0.066659
v 0.469999 -0.075014 -0.059829
v 0.469999 -0.077791 -0.066720
vn 0 -0.9997823646366916 -0.020862007608709585
vn 0 0.9997823646366916 0.020862007608709585
vn -1 0 0
vn 1 0 0
vn 0 0.020862007608709585 -0.9997823646366916
vn 0 -0.020862007608709585 0.9997823646366916
vn -0.7719301507078951 -0.013262131697055715 0.6355690035636858
vn -0.6838739329240324 -0.015220924809726696 0.7294414077326243
vn 0.6838739329240324 0.015220924809726696 -0.7294414077326243
vn 0.7719301507078951 0.013262131697055715 -0.6355690035636858
vn 0.3632677798192182 0.019436814866966388 -0.9314820075412317
vn 0.23863782426498598 0.020259275816664476 -0.9708972914646833
vn -0.3632677798192182 -0.019436814866966388 0.9314820075412317
vn -0.23863782426498598 -0.020259275816664476 0.9708972914646833
vn -0.4698507577637184 -0.01841585099064104 0.8825537501258209
vn 0.4698507577637184 0.01841585099064104 -0.8825537501258209
vn 0.019888996612220915 0.020857880985595306 -0.9995846020295378
vn -0.019888996612220915 -0.020857880985595306 0.9995846020295378
vn -0.22855185566288647 -0.020309826572403537 0.9733198653154316
vn 0.22855185566288647 0.020309826572403537 -0.9733198653154316
vn 0.005545995874469278 -0.020861686768694772 0.9997669888303601
vn -0.005545995874469278 0.020861686768694772 -0.9997669888303601
vn -0.15024799681673354 0.020625189183692858 -0.9884331747891184
vn 0.15024799681673354 -0.020625189183692858 0.9884331747891184
vn 0.26412993283007646 -0.02012113735407209 0.9642771999869946
vn -0.26412993283007646 0.02012113735407209 -0.9642771999869946
vn -0.3183970351920335 0.01977629554531111 -0.9477511414477049
vn 0.3183970351920335 -0.01977629554531111 0.9477511414477049
vn 0.5736566844158828 -0.017087983815965414 0.818917583908223
vn -0.5736566844158828 0.017087983815965414 -0.818917583908223
vn -0.49463866288246916 0.018131144206291118 -0.8689095780296208
vn 0.49463866288246916 -0.018131144206291118 0.8689095780296208
vn 0.8752779771159722 -0.010089287535666394 0.48351491088982396
vn -0.8752779771159722 0.010089287535666394 -0.48351491088982396
vn -0.6570952474766399 0.015725939027736342 -0.7536435036443354
vn 0.6570952474766399 -0.015725939027736342 0.7536435036443354
vn 0.9999900318299122 -0.00009314890091073886 0.00446403002829735
vn -0.9999900318299122 0.00009314890091073886 -0.00446403002829735
vn 0.9724110234884162 0.004866565855379872 -0.2332233220220183
vn -0.9724110234884162 -0.004866565855379872 0.2332233220220183
vn -0.7968068452920422 0.012605536455393574 -0.6041026003473379
vn 0.7968068452920422 -0.012605536455393574 0.6041026003473379
vn -0.5013078247066795 -0.018051248733146633 0.8650806998812487
vn -0.3376450586105489 -0.019636855058436768 0.9410686522880747
vn 0.5013078247066795 0.018051248733146633 -0.8650806998812487
vn 0.3376450586105489 0.019636855058436768 -0.9410686522880747
vn -0.6593366350561928 -0.015685055735486425 0.7516842293804967
vn 0.6593366350561928 0.015685055735486425 -0.7516842293804967
vn 0.45302279947823776 0.018598457472069497 -0.8913049088457666
vn 0.6575049534439514 0.015718484252585395 -0.7532862440330823
vn -0.45302279947823776 -0.018598457472069497 0.8913049088457666
vn -0.6575049534439514 -0.015718484252585395 0.7532862440330823
vn -0.22457889716307433 -0.020329106591806437 0.9742438331209473
vn 0.22457889716307433 0.020329106591806437 -0.9742438331209473
vn -0.9089996064369662 0.00869522159186805 -0.41670626179469505
vn 0.9089996064369662 -0.00869522159186805 0.41670626179469505
vn -0.8051529692189275 -0.012372572305946062 0.5929381212339772
vn 0.8051529692189275 0.012372572305946062 -0.5929381212339772
vn 0.20495884003860146 0.020419119560142505 -0.9785575779924346
vn -0.20495884003860146 -0.020419119560142505 0.9785575779924346
vn -0.2729518168253375 -0.020069829306966106 0.9618183340128927
vn 0.2729518168253375 0.020069829306966106 -0.9618183340128927
vn -0.9783527833029314 0.004317267920914899 -0.20689899130035916
vn 0.9783527833029314 -0.004317267920914899 0.20689899130035916
vn -0.9160149512960649 -0.008368671787420436 0.401056821827758
vn 0.9160149512960649 0.008368671787420436 -0.401056821827758
vn 0.24257483567679447 0.020238915698830198 -0.9699215614613955
vn -0.24257483567679447 -0.020238915698830198 0.9699215614613955
vn -0.5332276675859816 -0.017648669735335597 0.8457876677851166
vn 0.5332276675859816 0.017648669735335597 -0.8457876677851166
vn -0.9999943282640548 0.00007026329031731975 -0.003367269337552958
vn 0.9999943282640548 -0.00007026329031731975 0.003367269337552958
vn -0.9806911214355248 -0.0040798387871567 0.19552053409553521
vn 0.9806911214355248 0.0040798387871567 -0.19552053409553521
vn 0.4066298504880369 0.019059384060667837 -0.9133941671432463
vn -0.4066298504880369 -0.019059384060667837 0.9133941671432463
vn -0.6978645305769584 -0.014941991108348035 0.7160739025158783
vn 0.6978645305769584 0.014941991108348035 -0.7160739025158783
vn 0.6321840060406237 0.016164265061184513 -0.774649662132154
vn -0.6321840060406237 -0.016164265061184513 0.774649662132154
vn -0.972778935681154 -0.004834458776761255 0.23168463544951914
vn -0.9998820127899324 0.0003204614198539785 -0.015357662700817124
vn 0.9998820127899324 -0.0003204614198539785 0.015357662700817124
vn 0.972778935681154 0.004834458776761255 -0.23168463544951914
vn -0.9652012633318958 0.0054555853639024635 -0.26145125329753016
vn 0.9652012633318958 -0.0054555853639024635 0.26145125329753016
vn 0.8288760769668492 0.011670879980834208 -0.5593105037387719
vn -0.8288760769668492 -0.011670879980834208 0.5593105037387719
vn 0.6137169031991399 -0.01647110082858234 0.7893543346084522
vn 0.4499721358268182 -0.01863066141757487 0.892848237627535
vn -0.6137169031991399 0.01647110082858234 -0.7893543346084522
vn -0.4499721358268182 0.01863066141757487 -0.892848237627535
vn -0.6799397431097317 0.015297442394871416 -0.7331084053508374
vn -0.524889892537507 0.017757117857137707 -0.8509848914507073
vn 0.6799397431097317 -0.015297442394871416 0.7331084053508374
vn 0.524889892537507 -0.017757117857137707 0.8509848914507073
vn 0.2865978851139365 -0.019986866529100422 0.9578424596010383
vn -0.2865978851139365 0.019986866529100422 -0.9578424596010383
vn 0.9573885543501378 0.006025009776286306 -0.2887401171582307
vn -0.9573885543501378 -0.006025009776286306 0.2887401171582307
vn 0.7708981865149535 -0.013288230703879337 0.6368197617479506
vn -0.7708981865149535 0.013288230703879337 -0.6368197617479506
vn 0.13470000867515047 -0.020671880142071334 0.9906707732815712
vn -0.13470000867515047 0.020671880142071334 -0.9906707732815712
vn 0.9004197951883609 -0.009075433519593426 0.4349273835244012
vn -0.9004197951883609 0.009075433519593426 -0.4349273835244012
vn -0.22499088740219225 0.0203271238364521 -0.974148812360058
vn 0.22499088740219225 -0.0203271238364521 0.974148812360058
vn 0.9998243343006955 0.0003910168819603174 -0.018738933960312808
vn -0.9998243343006955 -0.0003910168819603174 0.018738933960312808
vn 0.9771690909466128 -0.004432406751669906 0.21241685777959896
vn -0.9771690909466128 0.004432406751669906 -0.21241685777959896
vn -0.030643999932843256 -0.020852210024571625 0.9993128292007498
vn 0.030643999932843256 0.020852210024571625 -0.9993128292007498
vn 0.018384992958806384 0.020858481548345034 -0.9996133831544083
vn -0.018384992958806384 -0.020858481548345034 0.9996133831544083
vn -0.2365238373806992 -0.02027006246118942 0.9714142262281976
vn 0.2365238373806992 0.02027006246118942 -0.9714142262281976
vn 0.28193596320226083 0.02001570323368551 -0.9592244180989528
vn -0.28193596320226083 -0.02001570323368551 0.9592244180989528
vn -0.4274057930033497 -0.018860504343142417 0.9038631364775864
vn 0.4274057930033497 0.018860504343142417 -0.9038631364775864
vn 0.5719077505227635 0.017113479133893928 -0.8201394111514981
vn -0.5719077505227635 -0.017113479133893928 0.8201394111514981
vn -0.505599867332966 -0.017999074422231785 0.8625803194328224
vn 0.505599867332966 0.017999074422231785 -0.8625803194328224
vn 0.8405311158993044 0.011302269508685396 -0.5416453654459007
vn -0.8405311158993044 -0.011302269508685396 0.5416453654459007
vn 0.9844241031567518 0.0036677512797146563 -0.1757718200525184
vn -0.9844241031567518 -0.0036677512797146563 0.1757718200525184
usemtl material_0_0
f 1//1 2//1 3//1
f 2//1 1//1 4//1
f 3//2 2//2 1//2
f 4//2 1//2 2//2
f 2//3 5//3 3//3
f 3//4 5//4 2//4
f 5//5 1//5 3//5
f 3//6 1//6 5//6
f 4//1 1//1 6//1
f 6//2 1//2 4//2
f 7//1 2//1 4//1
f 4//2 2//2 7//2
f 5//3 2//3 8//3
f 8//4 2//4 5//4
f 1//5 5//5 9//5
f 9//6 5//6 1//6
f 6//1 1//1 10//1
f 10//2 1//2 6//2
f 6//3 11//3 4//3
f 4//4 11//4 6//4
f 12//1 2//1 7//1
f 7//2 2//2 12//2
f 4//7 13//8 7//8
f 7//9 13//9 4//10
f 2//11 14//12 8//11
f 8//13 14//14 2//13
f 8//2 15//2 5//2
f 5//1 15//1 8//1
f 5//2 15//2 9//2
f 9//1 15//1 5//1
f 15//4 1//4 9//4
f 9//3 1//3 15//3
f 1//4 15//4 10//4
f 10//3 15//3 1//3
f 15//6 6//6 10//6
f 10//5 6//5 15//5
f 11//3 6//3 16//3
f 16//4 6//4 11//4
f 13//8 4//7 11//7
f 11//10 4//10 13//9
f 12//1 17//1 2//1
f 2//2 17//2 12//2
f 13//8 12//15 7//8
f 7//9 12//16 13//9
f 14//12 2//11 17//12
f 17//14 2//13 14//14
f 14//2 18//2 8//2
f 8//1 18//1 14//1
f 11//2 15//2 8//2
f 8//1 15//1 11//1
f 6//6 15//6 16//6
f 16//5 15//5 6//5
f 15//2 11//2 16//2
f 16//1 11//1 15//1
f 8//2 13//2 11//2
f 11//1 13//1 8//1
f 19//1 17//1 12//1
f 12//2 17//2 19//2
f 12//15 13//8 18//15
f 18//16 13//9 12//16
f 17//12 20//17 14//12
f 14//14 20//18 17//14
f 14//2 21//2 18//2
f 18//1 21//1 14//1
f 8//2 18//2 13//2
f 13//1 18//1 8//1
f 22//1 17//1 19//1
f 19//2 17//2 22//2
f 18//15 19//19 12//15
f 12//16 19//20 18//16
f 20//17 17//12 23//17
f 23//18 17//14 20//18
f 20//2 24//2 14//2
f 14//1 24//1 20//1
f 14//2 24//2 21//2
f 21//1 24//1 14//1
f 19//19 18//15 21//19
f 21//20 18//16 19//20
f 22//1 23//1 17//1
f 17//2 23//2 22//2
f 21//19 22//21 19//19
f 19//20 22//22 21//20
f 23//17 25//23 20//17
f 20//18 25//24 23//18
f 20//2 26//2 24//2
f 24//1 26//1 20//1
f 22//21 21//19 24//21
f 24//22 21//20 22//22
f 27//1 23//1 22//1
f 22//2 23//2 27//2
f 25//23 23//17 28//23
f 28//24 23//18 25//24
f 25//2 26//2 20//2
f 20//1 26//1 25//1
f 27//25 24//21 26//25
f 26//26 24//22 27//26
f 24//21 27//25 22//21
f 22//22 27//26 24//22
f 27//1 28//1 23//1
f 23//2 28//2 27//2
f 28//23 29//27 25//23
f 25//24 29//28 28//24
f 25//2 30//2 26//2
f 26//1 30//1 25//1
f 26//25 31//29 27//25
f 27//26 31//30 26//26
f 31//1 28//1 27//1
f 27//2 28//2 31//2
f 29//27 28//23 32//27
f 32//28 28//24 29//28
f 29//2 30//2 25//2
f 25//1 30//1 29//1
f 31//29 26//25 30//29
f 30//30 26//26 31//30
f 31//1 32//1 28//1
f 28//2 32//2 31//2
f 32//27 33//31 29//27
f 29//28 33//32 32//28
f 29//2 34//2 30//2
f 30//1 34//1 29//1
f 34//33 31//29 30//29
f 30//30 31//30 34//34
f 35//1 32//1 31//1
f 31//2 32//2 35//2
f 33//31 32//27 36//31
f 36//32 32//28 33//32
f 37//2 29//2 33//2
f 33//1 29//1 37//1
f 29//2 37//2 34//2
f 34//1 37//1 29//1
f 31//29 34//33 35//33
f 35//34 34//34 31//30
f 38//1 32//1 35//1
f 35//2 32//2 38//2
f 32//1 38//1 36//1
f 36//2 38//2 32//2
f 36//31 39//35 33//31
f 33//32 39//36 36//32
f 33//2 40//2 37//2
f 37//1 40//1 33//1
f 37//37 35//33 34//33
f 34//34 35//34 37//38
f 35//33 37//37 38//37
f 38//38 37//38 35//34
f 41//1 36//1 38//1
f 38//2 36//2 41//2
f 39//35 36//31 42//35
f 42//36 36//32 39//36
f 39//2 43//2 33//2
f 33//1 43//1 39//1
f 33//2 43//2 40//2
f 40//1 43//1 33//1
f 37//2 40//2 44//2
f 44//1 40//1 37//1
f 44//39 38//37 37//37
f 37//38 38//38 44//40
f 45//1 36//1 41//1
f 41//2 36//2 45//2
f 41//1 38//1 46//1
f 46//2 38//2 41//2
f 45//1 42//1 36//1
f 36//2 42//2 45//2
f 47//41 39//35 42//35
f 42//36 39//36 47//42
f 39//2 48//2 43//2
f 43//1 48//1 39//1
f 45//43 40//44 43//43
f 43//45 40//46 45//45
f 44//2 40//2 49//2
f 49//1 40//1 44//1
f 38//37 44//39 46//39
f 46//40 44//40 38//38
f 40//44 45//43 41//44
f 41//46 45//45 40//46
f 41//1 46//1 50//1
f 50//2 46//2 41//2
f 51//1 42//1 45//1
f 45//2 42//2 51//2
f 39//35 47//41 52//41
f 52//42 47//42 39//36
f 51//1 47//1 42//1
f 42//2 47//2 51//2
f 52//2 48//2 39//2
f 39//1 48//1 52//1
f 51//47 43//43 48//47
f 48//48 43//45 51//48
f 43//43 51//47 45//43
f 45//45 51//48 43//45
f 49//2 40//2 53//2
f 53//1 40//1 49//1
f 50//49 44//50 49//49
f 49//51 44//52 50//51
f 44//50 50//49 46//50
f 46//52 50//51 44//52
f 41//44 53//53 40//44
f 40//46 53//54 41//46
f 41//1 50//1 54//1
f 54//2 50//2 41//2
f 55//55 52//41 47//41
f 47//42 52//42 55//56
f 56//1 47//1 51//1
f 51//2 47//2 56//2
f 52//2 57//2 48//2
f 48//1 57//1 52//1
f 57//57 51//47 48//47
f 48//48 51//48 57//58
f 49//2 53//2 58//2
f 58//1 53//1 49//1
f 49//49 59//59 50//49
f 50//51 59//60 49//51
f 53//53 41//44 54//53
f 54//54 41//46 53//54
f 54//1 50//1 59//1
f 59//2 50//2 54//2
f 52//41 55//55 60//55
f 60//56 55//56 52//42
f 56//1 55//1 47//1
f 47//2 55//2 56//2
f 51//47 57//57 56//57
f 56//58 57//58 51//48
f 60//2 57//2 52//2
f 52//1 57//1 60//1
f 58//2 53//2 61//2
f 61//1 53//1 58//1
f 59//59 49//49 58//59
f 58//60 49//51 59//60
f 54//53 61//61 53//53
f 53//54 61//62 54//54
f 54//1 59//1 62//1
f 62//2 59//2 54//2
f 63//63 60//55 55//55
f 55//56 60//56 63//64
f 64//1 55//1 56//1
f 56//2 55//2 64//2
f 65//65 56//57 57//57
f 57//58 56//58 65//66
f 60//2 65//2 57//2
f 57//1 65//1 60//1
f 58//2 61//2 66//2
f 66//1 61//1 58//1
f 58//59 67//67 59//59
f 59//60 67//68 58//60
f 61//61 54//53 62//61
f 62//62 54//54 61//62
f 62//1 59//1 67//1
f 67//2 59//2 62//2
f 60//55 63//63 68//63
f 68//64 63//64 60//56
f 64//1 63//1 55//1
f 55//2 63//2 64//2
f 56//57 65//65 64//65
f 64//66 65//66 56//58
f 68//2 65//2 60//2
f 60//1 65//1 68//1
f 66//2 61//2 69//2
f 69//1 61//1 66//1
f 67//67 58//59 66//67
f 66//68 58//60 67//68
f 62//61 69//69 61//61
f 61//62 69//70 62//62
f 62//1 67//1 70//1
f 70//2 67//2 62//2
f 71//71 68//63 63//63
f 63//64 68//64 71//72
f 72//1 63//1 64//1
f 64//2 63//2 72//2
f 73//73 64//65 65//65
f 65//66 64//66 73//74
f 68//2 73//2 65//2
f 65//1 73//1 68//1
f 66//2 69//2 74//2
f 74//1 69//1 66//1
f 66//67 75//75 67//67
f 67//68 75//76 66//68
f 69//69 62//61 70//69
f 70//70 62//62 69//70
f 70//1 67//1 75//1
f 75//2 67//2 70//2
f 68//63 71//71 76//71
f 76//72 71//72 68//64
f 63//1 72//1 71//1
f 71//2 72//2 63//2
f 64//65 73//73 72//73
f 72//74 73//74 64//66
f 73//2 68//2 76//2
f 76//1 68//1 73//1
f 74//2 69//2 77//2
f 77//1 69//1 74//1
f 75//75 66//67 74//75
f 74//76 66//68 75//76
f 70//69 77//77 69//69
f 69//70 77//78 70//70
f 70//1 75//1 78//1
f 78//2 75//2 70//2
f 72//73 76//71 71//71
f 71//72 76//72 72//74
f 76//71 72//73 73//73
f 73//74 72//74 76//72
f 74//2 77//2 79//2
f 79//1 77//1 74//1
f 74//75 80//79 75//75
f 75//76 80//80 74//76
f 77//77 70//69 78//77
f 78//78 70//70 77//78
f 78//1 75//1 81//1
f 81//2 75//2 78//2
f 77//81 81//82 79//82
f 79//83 81//83 77//84
f 79//2 82//2 74//2
f 74//1 82//1 79//1
f 80//79 74//75 83//79
f 83//80 74//76 80//80
f 84//1 75//1 80//1
f 80//2 75//2 84//2
f 81//82 77//81 78//81
f 78//84 77//84 81//83
f 84//1 81//1 75//1
f 75//2 81//2 84//2
f 85//85 79//82 81//82
f 81//83 79//83 85//86
f 86//2 82//2 79//2
f 79//1 82//1 86//1
f 74//2 82//2 83//2
f 83//1 82//1 74//1
f 87//87 80//79 83//79
f 83//80 80//80 87//88
f 84//1 80//1 88//1
f 88//2 80//2 84//2
f 84//1 85//1 81//1
f 81//2 85//2 84//2
f 79//82 85//85 86//85
f 86//86 85//86 79//83
f 86//2 89//2 82//2
f 82//1 89//1 86//1
f 83//2 82//2 90//2
f 90//1 82//1 83//1
f 80//79 87//87 91//87
f 91//88 87//88 80//80
f 83//2 92//2 87//2
f 87//1 92//1 83//1
f 88//1 80//1 93//1
f 93//2 80//2 88//2
f 90//89 84//90 88//89
f 88//91 84//92 90//91
f 94//1 85//1 84//1
f 84//2 85//2 94//2
f 85//93 95//94 86//93
f 86//95 95//96 85//95
f 95//2 89//2 86//2
f 86//1 89//1 95//1
f 94//97 82//90 89//97
f 89//98 82//92 94//98
f 84//90 90//89 82//90
f 82//92 90//91 84//92
f 83//2 90//2 92//2
f 92//1 90//1 83//1
f 96//99 91//87 87//87
f 87//88 91//88 96//100
f 93//1 80//1 91//1
f 91//2 80//2 93//2
f 87//2 92//2 97//2
f 97//1 92//1 87//1
f 92//101 88//89 93//101
f 93//102 88//91 92//102
f 88//89 92//101 90//89
f 90//91 92//102 88//91
f 94//1 98//1 85//1
f 85//2 98//2 94//2
f 82//90 94//97 84//90
f 84//92 94//98 82//92
f 95//94 85//93 98//94
f 98//96 85//95 95//96
f 95//2 99//2 89//2
f 89//1 99//1 95//1
f 89//97 100//103 94//97
f 94//98 100//104 89//98
f 91//87 96//99 101//99
f 101//100 96//100 91//88
f 87//2 97//2 96//2
f 96//1 97//1 87//1
f 93//1 91//1 102//1
f 102//2 91//2 93//2
f 92//101 102//105 97//105
f 97//106 102//106 92//102
f 102//105 92//101 93//101
f 93//102 92//102 102//106
f 100//1 98//1 94//1
f 94//2 98//2 100//2
f 98//94 103//107 95//94
f 95//96 103//108 98//96
f 103//2 99//2 95//2
f 95//1 99//1 103//1
f 100//103 89//97 99//103
f 99//104 89//98 100//104
f 104//109 101//99 96//99
f 96//100 101//100 104//110
f 102//1 91//1 101//1
f 101//2 91//2 102//2
f 96//2 97//2 105//2
f 105//1 97//1 96//1
f 106//111 97//105 102//105
f 102//106 97//106 106//112
f 100//1 107//1 98//1
f 98//2 107//2 100//2
f 103//107 98//94 107//107
f 107//108 98//96 103//108
f 103//2 108//2 99//2
f 99//1 108//1 103//1
f 99//103 109//113 100//103
f 100//104 109//114 99//104
f 101//99 104//109 110//109
f 110//110 104//110 101//100
f 96//2 105//2 104//2
f 104//1 105//1 96//1
f 102//1 101//1 106//1
f 106//2 101//2 102//2
f 97//105 106//111 105//111
f 105//112 106//112 97//106
f 109//1 107//1 100//1
f 100//2 107//2 109//2
f 107//107 111//115 103//107
f 103//108 111//116 107//108
f 111//2 108//2 103//2
f 103//1 108//1 111//1
f 109//113 99//103 108//113
f 108//114 99//104 109//114
f 105//111 110//109 104//109
f 104//110 110//110 105//112
f 106//1 101//1 110//1
f 110//2 101//2 106//2
f 110//109 105//111 106//111
f 106//112 105//112 110//110
f 109//1 112//1 107//1
f 107//2 112//2 109//2
f 111//115 107//107 112//115
f 112//116 107//108 111//116
f 113//2 108//2 111//2
f 111//1 108//1 113//1
f 108//113 114//117 109//113
f 109//114 114//118 108//114
f 109//1 115//1 112//1
f 112//2 115//2 109//2
f 112//115 113//119 111//115
f 111//116 113//120 112//116
f 113//2 116//2 108//2
f 108//1 116//1 113//1
f 114//117 108//113 116//117
f 116//118 108//114 114//118
f 114//1 115//1 109//1
f 109//2 115//2 114//2
f 113//119 112//115 115//119
f 115//120 112//116 113//120
f 117//2 116//2 113//2
f 113//1 116//1 117//1
f 116//117 118//121 114//117
f 114//118 118//122 116//118
f 114//1 119//1 115//1
f 115//2 119//2 114//2
f 115//119 117//123 113//119
f 113//120 117//124 115//120
f 117//2 120//2 116//2
f 116//1 120//1 117//1
f 118//121 116//117 120//121
f 120//122 116//118 118//122
f 118//1 119//1 114//1
f 114//2 119//2 118//2
f 117//123 115//119 119//123
f 119//124 115//120 117//124
f 121//2 120//2 117//2
f 117//1 120//1 121//1
f 120//121 122//125 118//121
f 118//122 122//126 120//122
f 118//1 123//1 119//1
f 119//2 123//2 118//2
f 119//123 121//127 117//123
f 117//124 121//128 119//124
f 124//2 120//2 121//2
f 121//1 120//1 124//1
f 122//125 120//121 125//125
f 125//126 120//122 122//126
f 122//1 123//1 118//1
f 118//2 123//2 122//2
f 121//127 119//123 123//127
f 123//128 119//124 121//128
f 120//2 124//2 125//2
f 125//1 124//1 120//1
f 121//127 126//129 124//129
f 124//130 126//130 121//128
f 127//4 122//4 125//4
f 125//3 122//3 127//3
f 123//1 122//1 126//1
f 126//2 122//2 123//2
f 126//129 121//127 123//127
f 123//128 121//128 126//130
f 128//2 125//2 124//2
f 124//1 125//1 128//1
f 129//4 124//129 126//129
f 126//130 124//130 129//3
f 122//4 127//4 130//4
f 130//3 127//3 122//3
f 128//2 127//2 125//2
f 125//1 127//1 128//1
f 130//1 126//1 122//1
f 122//2 126//2 130//2
f 124//129 129//4 128//4
f 128//3 129//3 124//130
f 130//1 129//1 126//1
f 126//2 129//2 130//2
f 127//6 131//6 130//6
f 130//5 131//5 127//5
f 132//2 127//2 128//2
f 128//1 127//1 132//1
f 129//5 132//5 128//5
f 128//6 132//6 129//6
f 131//1 129//1 130//1
f 130//2 129//2 131//2
f 131//6 127//6 133//6
f 133//5 127//5 131//5
f 127//2 132//2 133//2
f 133//1 132//1 127//1
f 132//5 129//5 134//5
f 134//6 129//6 132//6
f 129//1 131//1 134//1
f 134//2 131//2 129//2
f 132//3 131//3 133//3
f 133//4 131//4 132//4
f 131//3 132//3 134//3
f 134//4 132//4 131//4
