# SSTK version 0.8.0
# 6
mtllib original-6.mtl
o mesh5/mesh5-geometry#mesh5-geometry
v -0.454697 0.499366 -0.414593
v -0.478961 0.498074 -0.414247
v -0.461862 0.495517 -0.413562
v -0.471168 0.498740 -0.414425
v -0.503523 0.499366 -0.414593
v -0.464212 0.500736 -0.414960
v -0.496384 0.495517 -0.413562
v -0.486802 0.498740 -0.414425
v -0.448491 0.504754 -0.416037
v -0.488233 0.493208 -0.412943
v -0.493791 0.500736 -0.414960
v -0.458094 0.504063 -0.415852
v -0.469986 0.493208 -0.412943
v -0.509648 0.504754 -0.416037
v -0.452813 0.508720 -0.417099
v -0.479069 0.492439 -0.412737
v -0.499930 0.504063 -0.415852
v -0.444000 0.510592 -0.417601
v -0.505218 0.508720 -0.417099
v -0.448984 0.513723 -0.418440
v -0.514091 0.510592 -0.417601
v -0.440792 0.517044 -0.419330
v -0.509047 0.513723 -0.418440
v -0.446248 0.519235 -0.419917
v -0.517265 0.517044 -0.419330
v -0.438867 0.524108 -0.421223
v -0.511782 0.519235 -0.419917
v -0.444607 0.525256 -0.421530
v -0.519170 0.524108 -0.421223
v -0.438226 0.531786 -0.423280
v -0.513423 0.525256 -0.421530
v -0.444061 0.531786 -0.423280
v -0.519805 0.531786 -0.423280
v -0.444607 0.538407 -0.425054
v -0.513970 0.531786 -0.423280
v -0.438867 0.539509 -0.425349
v -0.513423 0.538407 -0.425054
v -0.446248 0.544493 -0.426685
v -0.519170 0.539509 -0.425349
v -0.440792 0.546606 -0.427251
v -0.511782 0.544493 -0.426685
v -0.448984 0.550044 -0.428172
v -0.517265 0.546606 -0.427251
v -0.444000 0.553077 -0.428985
v -0.509047 0.550044 -0.428172
v -0.452813 0.555060 -0.429516
v -0.514091 0.553077 -0.428985
v -0.448491 0.558922 -0.430551
v -0.505218 0.555060 -0.429516
v -0.458094 0.559672 -0.430752
v -0.509648 0.558922 -0.430551
v -0.454697 0.564310 -0.431995
v -0.499930 0.559672 -0.430752
v -0.464212 0.562966 -0.431635
v -0.503523 0.564310 -0.431995
v -0.471168 0.564943 -0.432164
v -0.493791 0.562966 -0.431635
v -0.461862 0.568159 -0.433026
v -0.486802 0.564943 -0.432164
v -0.478961 0.565602 -0.432341
v -0.496384 0.568159 -0.433026
v -0.488233 0.570468 -0.433645
v -0.469986 0.570468 -0.433645
v -0.479069 0.571238 -0.433851
vn 0 0.2588189595935752 0.965925849201117
vn 0 -0.2588189595935752 -0.965925849201117
usemtl material_0_0
f 1//1 2//1 3//1
f 2//1 1//1 4//1
f 3//2 2//2 1//2
f 4//2 1//2 2//2
f 5//1 3//1 2//1
f 2//2 3//2 5//2
f 4//1 1//1 6//1
f 6//2 1//2 4//2
f 7//1 3//1 5//1
f 5//2 3//2 7//2
f 5//1 2//1 8//1
f 8//2 2//2 5//2
f 6//1 1//1 9//1
f 9//2 1//2 6//2
f 10//1 3//1 7//1
f 7//2 3//2 10//2
f 5//1 8//1 11//1
f 11//2 8//2 5//2
f 6//1 9//1 12//1
f 12//2 9//2 6//2
f 10//1 13//1 3//1
f 3//2 13//2 10//2
f 5//1 11//1 14//1
f 14//2 11//2 5//2
f 12//1 9//1 15//1
f 15//2 9//2 12//2
f 13//1 10//1 16//1
f 16//2 10//2 13//2
f 14//1 11//1 17//1
f 17//2 11//2 14//2
f 15//1 9//1 18//1
f 18//2 9//2 15//2
f 14//1 17//1 19//1
f 19//2 17//2 14//2
f 15//1 18//1 20//1
f 20//2 18//2 15//2
f 14//1 19//1 21//1
f 21//2 19//2 14//2
f 20//1 18//1 22//1
f 22//2 18//2 20//2
f 21//1 19//1 23//1
f 23//2 19//2 21//2
f 20//1 22//1 24//1
f 24//2 22//2 20//2
f 21//1 23//1 25//1
f 25//2 23//2 21//2
f 24//1 22//1 26//1
f 26//2 22//2 24//2
f 25//1 23//1 27//1
f 27//2 23//2 25//2
f 24//1 26//1 28//1
f 28//2 26//2 24//2
f 25//1 27//1 29//1
f 29//2 27//2 25//2
f 28//1 26//1 30//1
f 30//2 26//2 28//2
f 29//1 27//1 31//1
f 31//2 27//2 29//2
f 28//1 30//1 32//1
f 32//2 30//2 28//2
f 29//1 31//1 33//1
f 33//2 31//2 29//2
f 32//1 30//1 34//1
f 34//2 30//2 32//2
f 33//1 31//1 35//1
f 35//2 31//2 33//2
f 34//1 30//1 36//1
f 36//2 30//2 34//2
f 33//1 35//1 37//1
f 37//2 35//2 33//2
f 34//1 36//1 38//1
f 38//2 36//2 34//2
f 33//1 37//1 39//1
f 39//2 37//2 33//2
f 38//1 36//1 40//1
f 40//2 36//2 38//2
f 39//1 37//1 41//1
f 41//2 37//2 39//2
f 38//1 40//1 42//1
f 42//2 40//2 38//2
f 39//1 41//1 43//1
f 43//2 41//2 39//2
f 42//1 40//1 44//1
f 44//2 40//2 42//2
f 43//1 41//1 45//1
f 45//2 41//2 43//2
f 42//1 44//1 46//1
f 46//2 44//2 42//2
f 43//1 45//1 47//1
f 47//2 45//2 43//2
f 46//1 44//1 48//1
f 48//2 44//2 46//2
f 47//1 45//1 49//1
f 49//2 45//2 47//2
f 46//1 48//1 50//1
f 50//2 48//2 46//2
f 47//1 49//1 51//1
f 51//2 49//2 47//2
f 50//1 48//1 52//1
f 52//2 48//2 50//2
f 51//1 49//1 53//1
f 53//2 49//2 51//2
f 50//1 52//1 54//1
f 54//2 52//2 50//2
f 51//1 53//1 55//1
f 55//2 53//2 51//2
f 54//1 52//1 56//1
f 56//2 52//2 54//2
f 55//1 53//1 57//1
f 57//2 53//2 55//2
f 56//1 52//1 58//1
f 58//2 52//2 56//2
f 55//1 57//1 59//1
f 59//2 57//2 55//2
f 56//1 58//1 60//1
f 60//2 58//2 56//2
f 55//1 59//1 61//1
f 61//2 59//2 55//2
f 60//1 58//1 61//1
f 61//2 58//2 60//2
f 61//1 59//1 60//1
f 60//2 59//2 61//2
f 61//1 58//1 62//1
f 62//2 58//2 61//2
f 62//1 58//1 63//1
f 63//2 58//2 62//2
f 62//1 63//1 64//1
f 64//2 63//2 62//2
