# SSTK version 0.8.0
# 12
mtllib original-12.mtl
o mesh11/mesh11-geometry#mesh11-geometry
v 0.322458 0.492334 -0.412709
v 0.317487 0.493065 -0.412905
v 0.319972 0.491604 -0.412513
v 0.323754 0.494422 -0.413268
v 0.296741 0.523854 -0.421155
v 0.322998 0.497135 -0.413995
v 0.301387 0.528237 -0.422329
v 0.315758 0.550572 -0.428314
v 0.286368 0.522497 -0.420791
v 0.320080 0.546085 -0.427111
v 0.286368 0.513939 -0.418498
v 0.321485 0.548589 -0.427782
v 0.279669 0.568524 -0.433124
v 0.320621 0.550677 -0.428342
v 0.286368 0.495048 -0.413436
v 0.286368 0.568524 -0.433124
v 0.318351 0.551616 -0.428593
v 0.279669 0.494839 -0.413380
v 0.280642 0.571133 -0.433823
v 0.285288 0.492543 -0.412765
v 0.285288 0.571133 -0.433823
v 0.280642 0.492439 -0.412737
v 0.283019 0.571968 -0.434047
v 0.283019 0.491604 -0.412513
vn 0 0.2588189595935752 0.965925849201117
vn 0 -0.2588189595935752 -0.965925849201117
usemtl material_0_0
f 1//1 2//1 3//1
f 2//1 1//1 4//1
f 3//2 2//2 1//2
f 4//2 1//2 2//2
f 2//1 4//1 5//1
f 5//2 4//2 2//2
f 5//1 4//1 6//1
f 6//2 4//2 5//2
f 5//1 6//1 7//1
f 7//2 6//2 5//2
f 8//1 5//1 7//1
f 7//2 5//2 8//2
f 9//1 5//1 8//1
f 8//2 5//2 9//2
f 8//1 7//1 10//1
f 10//2 7//2 8//2
f 5//1 9//1 11//1
f 11//2 9//2 5//2
f 8//1 10//1 12//1
f 12//2 10//2 8//2
f 13//1 11//1 9//1
f 9//2 11//2 13//2
f 8//1 12//1 14//1
f 14//2 12//2 8//2
f 13//1 15//1 11//1
f 11//2 15//2 13//2
f 13//1 9//1 16//1
f 16//2 9//2 13//2
f 8//1 14//1 17//1
f 17//2 14//2 8//2
f 18//1 15//1 13//1
f 13//2 15//2 18//2
f 13//1 16//1 19//1
f 19//2 16//2 13//2
f 18//1 20//1 15//1
f 15//2 20//2 18//2
f 19//1 16//1 21//1
f 21//2 16//2 19//2
f 22//1 20//1 18//1
f 18//2 20//2 22//2
f 19//1 21//1 23//1
f 23//2 21//2 19//2
f 20//1 22//1 24//1
f 24//2 22//2 20//2
