# SSTK version 0.8.0
# 5
mtllib original-5.mtl
o mesh4/mesh4-geometry#mesh4-geometry
v 0.540668 0.492073 -0.412639
v 0.535724 0.492073 -0.412639
v 0.538236 0.491604 -0.412513
v 0.542559 0.493482 -0.413017
v 0.533806 0.493482 -0.413017
v 0.543693 0.495309 -0.413506
v 0.532753 0.495309 -0.413506
v 0.532402 0.497448 -0.414079
v 0.544071 0.497448 -0.414079
v 0.532753 0.499744 -0.414694
v 0.543693 0.499744 -0.414694
v 0.533806 0.501623 -0.415198
v 0.542559 0.501623 -0.415198
v 0.540668 0.502954 -0.415554
v 0.535724 0.502954 -0.415554
v 0.538236 0.503397 -0.415673
vn 0 0.2588189595935752 0.965925849201117
vn 0 -0.2588189595935752 -0.965925849201117
usemtl material_0_0
f 1//1 2//1 3//1
f 2//1 1//1 4//1
f 3//2 2//2 1//2
f 4//2 1//2 2//2
f 2//1 4//1 5//1
f 5//2 4//2 2//2
f 5//1 4//1 6//1
f 6//2 4//2 5//2
f 5//1 6//1 7//1
f 7//2 6//2 5//2
f 7//1 6//1 8//1
f 8//2 6//2 7//2
f 8//1 6//1 9//1
f 9//2 6//2 8//2
f 8//1 9//1 10//1
f 10//2 9//2 8//2
f 10//1 9//1 11//1
f 11//2 9//2 10//2
f 10//1 11//1 12//1
f 12//2 11//2 10//2
f 12//1 11//1 13//1
f 13//2 11//2 12//2
f 12//1 13//1 14//1
f 14//2 13//2 12//2
f 12//1 14//1 15//1
f 15//2 14//2 12//2
f 15//1 14//1 16//1
f 16//2 14//2 15//2
