# SSTK version 0.8.0
# 11
mtllib original-11.mtl
o top_side2/top_side12/mesh17/mesh17-geometry#mesh17-geometry
v -0.809837 0.307646 0.443304
v -0.777063 0.307646 0.410529
v -0.777063 0.307646 0.443304
v -0.809837 0.307646 0.410529
v -0.777063 0.329496 0.443304
v -0.809837 0.329496 0.410529
v -0.809837 0.285797 0.410529
v -0.777063 0.329496 0.410529
v -0.809837 0.329496 0.443304
v -0.809837 0.373195 0.410529
v -0.777063 0.285797 0.410529
v -0.809837 0.351345 0.410529
v -0.777063 0.285797 -0.419756
v -0.809837 0.373195 -0.419756
v -0.777063 0.351345 0.410529
v -0.809837 0.351345 0.443304
v -0.809837 0.285797 -0.419756
v -0.809837 0.351345 -0.419756
v -0.777063 0.373195 0.410529
v -0.787988 0.351345 0.410529
v -0.809837 0.373195 0.443304
v -0.809837 0.307646 -0.419756
v -0.777063 0.307646 -0.419756
v -0.809837 0.329496 -0.419756
v -0.809837 0.373195 -0.452530
v -0.777063 0.373195 -0.419756
v -0.777063 0.373195 0.443304
v -0.787988 0.351345 -0.419756
v -0.787988 0.351345 0.421454
v -0.777063 0.329496 -0.419756
v -0.809837 0.351345 -0.452530
v -0.777063 0.362270 -0.419756
v -0.777063 0.362270 0.421454
v -0.777063 0.351345 -0.419756
v -0.787988 0.362270 0.421454
v -0.777063 0.351345 0.443304
v -0.809837 0.329496 -0.452530
v -0.777063 0.307646 -0.452530
v -0.777063 0.351345 -0.452530
v -0.787988 0.351345 -0.430681
v -0.777063 0.373195 -0.452530
v -0.777063 0.362270 0.410529
v -0.777063 0.362270 -0.430681
v -0.777063 0.351345 0.421454
v -0.809837 0.307646 -0.452530
v -0.777063 0.329496 -0.452530
v -0.777063 0.351345 -0.430681
v -0.787988 0.362270 -0.430681
vt -0.010417 1.245742
vt 0 1.200166
vt 0 1.245742
vt -0.010417 1.200166
vt -0.274306 0.030384
vt -0.284722 0.060768
vt -0.284722 0.030384
vt 0 0.060768
vt -0.010417 0.030384
vt 0 0.030384
vt 0.284722 0.030384
vt 0.274306 0.060768
vt 0.274306 0.030384
vt -0.010417 0
vt -0.274306 0.060768
vt -0.010417 0.060768
vt 0.284722 0.060768
vt 0.274306 0.121536
vt 0 0
vt 0.274306 0
vt -0.274306 0
vt 0.010417 1.200166
vt 0.010417 1.245742
vt 0.274306 0.091152
vt 0 0.045576
vt 0.010417 0.121536
vt -0.274306 0.091152
vt 0 0.091152
vt -0.010417 0.091152
vt 0.284722 0.091152
vt -0.010417 0.045576
vt 0.010417 0.091152
vt 0.010417 0.045576
vt -0.003472 0.091152
vt -0.003472 1.200166
vt 0.284722 0.121536
vt 0.010417 0.030384
vt 0.010417 0
vt 0.010417 0.060768
vt 0 0.121536
vt 0.003472 0.045576
vt 0.003472 1.200166
vt -0.003472 1.215358
vt -0.010417 0.121536
vt -0.274306 0.121536
vt -0.010417 0.106344
vt -0.277778 0.106344
vt -0.284722 0.121536
vt -0.277778 0.091151
vt 0.003472 0.091152
vt -0.003472 0.030384
vt -0.274306 0.106344
vt -0.006944 0.106344
vt -0.006944 0.091152
vt 0 1.215358
vt 0.003472 0.106344
vt 0 0.091151
vt 0.003472 0.091151
vt -0.284722 0.091152
vt -0.003472 0.045576
vt 0 0.106344
vt -0.003472 0.106344
vn 0 -1 0
vn 0 1 0
vn 1 0 0
vn -1 0 0
vn 0 0 1
vn 0 0 -1
vn -0.000002999999999985 -1 9.999999997729553e-7
vn 0.000002999999999985 1 -9.999999997729553e-7
vn 1 -0.000015999999997952 0
vn -1 0.000015999999997952 0
vn 1 0 0.0000029999999999865
vn -1 0 -0.0000029999999999865
usemtl material_0_0
f 1/1/1 2/2/1 3/3/1
f 2/2/1 1/1/1 4/4/1
f 3/3/2 2/2/2 1/1/2
f 4/4/2 1/1/2 2/2/2
f 2/5/3 5/6/3 3/7/3
f 3/7/4 5/6/4 2/5/4
f 5/8/5 1/9/5 3/10/5
f 3/10/6 1/9/6 5/8/6
f 1/11/4 6/12/4 4/13/4
f 4/13/3 6/12/3 1/11/3
f 7/14/5 2/10/5 4/9/5
f 4/9/6 2/10/6 7/14/6
f 5/6/3 2/5/3 8/15/3
f 8/15/4 2/5/4 5/6/4
f 1/9/5 5/8/5 9/16/5
f 9/16/6 5/8/6 1/9/6
f 6/12/4 1/11/4 9/17/4
f 9/17/3 1/11/3 6/12/3
f 10/18/4 4/13/4 6/12/4
f 6/12/3 4/13/3 10/18/3
f 2/10/5 7/14/5 11/19/5
f 11/19/6 7/14/6 2/10/6
f 10/18/4 7/20/4 4/13/4
f 4/13/3 7/20/3 10/18/3
f 11/21/3 8/15/3 2/5/3
f 2/5/4 8/15/4 11/21/4
f 6/22/2 5/3/2 8/2/2
f 8/2/1 5/3/1 6/22/1
f 5/3/2 6/22/2 9/23/2
f 9/23/1 6/22/1 5/3/1
f 10/18/4 6/12/4 12/24/4
f 12/24/3 6/12/3 10/18/3
f 7/4/1 13/25/1 11/2/1
f 11/2/2 13/25/2 7/4/2
f 14/26/4 7/20/4 10/18/4
f 10/18/3 7/20/3 14/26/3
f 11/21/3 15/27/3 8/15/3
f 8/15/4 15/27/4 11/21/4
f 15/28/5 6/16/5 8/8/5
f 8/8/6 6/16/6 15/28/6
f 6/16/5 15/28/5 12/29/5
f 12/29/6 15/28/6 6/16/6
f 10/18/4 12/24/4 16/30/4
f 16/30/3 12/24/3 10/18/3
f 13/25/1 7/4/1 17/31/1
f 17/31/2 7/4/2 13/25/2
f 13/14/3 15/27/3 11/21/3
f 11/21/4 15/27/4 13/14/4
f 18/32/4 7/20/4 14/26/4
f 14/26/3 7/20/3 18/32/3
f 19/2/2 14/33/2 10/22/2
f 10/22/1 14/33/1 19/2/1
f 12/29/5 15/28/5 20/34/5
f 20/34/6 15/28/6 12/29/6
f 20/35/7 16/1/7 12/4/7
f 12/4/8 16/1/8 20/35/8
f 10/18/4 16/30/4 21/36/4
f 21/36/3 16/30/3 10/18/3
f 7/20/4 22/37/4 17/38/4
f 17/38/3 22/37/3 7/20/3
f 22/37/6 13/19/6 17/38/6
f 17/38/5 13/19/5 22/37/5
f 23/9/3 15/27/3 13/14/3
f 13/14/4 15/27/4 23/9/4
f 24/39/4 7/20/4 18/32/4
f 18/32/3 7/20/3 24/39/3
f 25/40/4 18/32/4 14/26/4
f 14/26/3 18/32/3 25/40/3
f 14/33/2 19/2/2 26/25/2
f 26/25/1 19/2/1 14/33/1
f 10/22/2 27/3/2 19/2/2
f 19/2/1 27/3/1 10/22/1
f 15/2/2 28/41/2 20/42/2
f 20/42/1 28/41/1 15/2/1
f 29/43/7 16/1/7 20/35/7
f 20/35/8 16/1/8 29/43/8
f 16/29/5 27/40/5 21/44/5
f 21/44/6 27/40/6 16/29/6
f 27/3/2 10/22/2 21/23/2
f 21/23/1 10/22/1 27/3/1
f 22/37/4 7/20/4 24/39/4
f 24/39/3 7/20/3 22/37/3
f 13/19/6 22/37/6 23/10/6
f 23/10/5 22/37/5 13/19/5
f 30/16/3 15/27/3 23/9/3
f 23/9/4 15/27/4 30/16/4
f 18/32/6 30/8/6 24/39/6
f 24/39/5 30/8/5 18/32/5
f 18/32/4 25/40/4 31/28/4
f 31/28/3 25/40/3 18/32/3
f 26/25/2 25/38/2 14/33/2
f 14/33/1 25/38/1 26/25/1
f 19/45/9 32/46/9 26/44/9
f 26/44/10 32/46/10 19/45/10
f 33/47/3 19/45/3 27/48/3
f 27/48/4 19/45/4 33/47/4
f 28/41/2 15/2/2 34/25/2
f 34/25/1 15/2/1 28/41/1
f 28/29/3 35/47/3 20/27/3
f 20/27/4 35/47/4 28/29/4
f 29/43/7 36/3/7 16/1/7
f 16/1/8 36/3/8 29/43/8
f 20/27/3 35/47/3 29/49/3
f 29/49/4 35/47/4 20/27/4
f 27/40/5 16/29/5 36/28/5
f 36/28/6 16/29/6 27/40/6
f 37/8/4 22/37/4 24/39/4
f 24/39/3 22/37/3 37/8/3
f 22/31/1 38/19/1 23/25/1
f 23/25/2 38/19/2 22/31/2
f 15/27/3 30/16/3 34/29/3
f 34/29/4 30/16/4 15/27/4
f 38/10/3 30/16/3 23/9/3
f 23/9/4 30/16/4 38/10/4
f 30/8/6 18/32/6 28/50/6
f 28/50/5 18/32/5 30/8/5
f 30/25/2 37/38/2 24/33/2
f 24/33/1 37/38/1 30/25/1
f 25/26/6 39/28/6 31/32/6
f 31/32/5 39/28/5 25/26/5
f 31/14/1 40/51/1 18/31/1
f 18/31/2 40/51/2 31/14/2
f 25/38/2 26/25/2 41/19/2
f 41/19/1 26/25/1 25/38/1
f 32/46/9 19/45/9 42/52/9
f 42/52/10 19/45/10 32/46/10
f 43/53/11 26/44/11 32/46/11
f 32/46/12 26/44/12 43/53/12
f 19/45/3 33/47/3 42/52/3
f 42/52/4 33/47/4 19/45/4
f 33/47/3 27/48/3 44/49/3
f 44/49/4 27/48/4 33/47/4
f 34/28/6 30/8/6 28/50/6
f 28/50/5 30/8/5 34/28/5
f 40/54/3 35/47/3 28/29/3
f 28/29/4 35/47/4 40/54/4
f 36/3/7 29/43/7 44/55/7
f 44/55/8 29/43/8 36/3/8
f 35/56/6 44/57/6 29/58/6
f 29/58/5 44/57/5 35/56/5
f 44/49/3 27/48/3 36/59/3
f 36/59/4 27/48/4 44/49/4
f 22/37/4 37/8/4 45/10/4
f 45/10/3 37/8/3 22/37/3
f 38/19/1 22/31/1 45/14/1
f 45/14/2 22/31/2 38/19/2
f 30/16/3 38/10/3 46/8/3
f 46/8/4 38/10/4 30/16/4
f 18/31/1 40/51/1 28/60/1
f 28/60/2 40/51/2 18/31/2
f 37/38/2 30/25/2 46/19/2
f 46/19/1 30/25/1 37/38/1
f 39/28/6 25/26/6 41/40/6
f 41/40/5 25/26/5 39/28/5
f 47/10/1 31/14/1 39/19/1
f 39/19/2 31/14/2 47/10/2
f 31/14/1 47/10/1 40/51/1
f 40/51/2 47/10/2 31/14/2
f 26/44/11 39/28/11 41/40/11
f 41/40/12 39/28/12 26/44/12
f 42/2/1 35/43/1 32/25/1
f 32/25/2 35/43/2 42/2/2
f 39/28/11 26/44/11 43/53/11
f 43/53/12 26/44/12 39/28/12
f 32/25/1 35/43/1 43/10/1
f 43/10/2 35/43/2 32/25/2
f 35/43/1 42/2/1 33/55/1
f 33/55/2 42/2/2 35/43/2
f 44/57/6 35/56/6 33/61/6
f 33/61/5 35/56/5 44/57/5
f 35/47/3 40/54/3 48/53/3
f 48/53/4 40/54/4 35/47/4
f 37/39/6 38/10/6 45/37/6
f 45/37/5 38/10/5 37/39/5
f 38/10/6 37/39/6 46/8/6
f 46/8/5 37/39/5 38/10/5
f 39/28/11 43/53/11 47/54/11
f 47/54/12 43/53/12 39/28/12
f 47/28/5 48/62/5 40/34/5
f 40/34/6 48/62/6 47/28/6
f 43/10/1 35/43/1 48/51/1
f 48/51/2 35/43/2 43/10/2
f 48/62/5 47/28/5 43/61/5
f 43/61/6 47/28/6 48/62/6
