# SSTK version 0.8.0
# 15
mtllib original-15.mtl
o top_front2/top_front12/mesh26/mesh26-geometry#mesh26-geometry
v -0.809837 0.285797 0.443304
v -0.809837 0.307646 0.443304
v -0.809837 0.285797 0.410529
v 0.785184 0.285797 0.443304
v -0.809837 0.307646 0.410529
v -0.017789 0.285797 0.426916
v -0.006864 0.285797 0.426916
v 0.785184 0.307646 0.443304
v -0.777063 0.307646 0.410529
v -0.017789 0.285797 0.410529
v -0.006864 0.285797 0.410529
v -0.777063 0.307646 0.443304
v 0.785184 0.307646 0.410529
v -0.017789 0.351345 0.410529
v -0.017789 0.307646 0.426916
v -0.006864 0.307646 0.426916
v 0.785184 0.285797 0.410529
v 0.752410 0.307646 0.443304
v -0.777063 0.329496 0.410529
v -0.777063 0.329496 0.443304
v -0.017789 0.351345 0.421453
v -0.006864 0.373195 0.426916
v 0.752410 0.307646 0.410529
v -0.809837 0.329496 0.410529
v -0.017789 0.362270 0.421454
v -0.777063 0.351345 0.421454
v -0.006864 0.351345 0.421454
v 0.752410 0.329496 0.443304
v 0.752410 0.329496 0.410529
v -0.777063 0.351345 0.410529
v -0.017789 0.373195 0.426916
v -0.006864 0.351345 0.410529
v -0.006864 0.362270 0.421454
v -0.809838 0.351345 0.443304
v -0.809838 0.351345 0.410529
v -0.809837 0.329496 0.443304
v -0.017789 0.373195 0.410529
v -0.777063 0.362270 0.421454
v -0.777063 0.373195 0.443304
v -0.777063 0.351345 0.443304
v 0.752410 0.351345 0.421454
v -0.006864 0.373195 0.410529
v 0.752410 0.362270 0.421454
v 0.785184 0.329496 0.443304
v 0.785184 0.329496 0.410529
v 0.785184 0.351345 0.410529
v -0.017789 0.362270 0.410529
v 0.752410 0.373195 0.443304
v 0.752410 0.351345 0.410529
v -0.006864 0.362270 0.410529
v 0.752410 0.373195 0.410529
v 0.752410 0.351345 0.443304
v -0.777063 0.373195 0.410529
v -0.777063 0.362270 0.410529
v 0.752410 0.362270 0.410529
v 0.785184 0.351345 0.443304
vt 0 0
vt 0 0.030384
vt 0.010417 0
vt 0.506944 0
vt 0.506944 0.030384
vt 0.010417 0.030384
vt -0.506944 0.045576
vt -0.255208 0.022788
vt -0.506944 0
vt -0.251736 0.022788
vt -0.496528 0.030384
vt -0.506944 0.030384
vt 0.506944 0.045576
vt 0.496528 0.045576
vt -0.255208 0.045576
vt -0.251736 0.045576
vt 0.496528 0.030384
vt -0.010417 0.030384
vt -0.255208 0.091152
vt 0.496528 0
vt -0.005208 0
vt -0.010417 0
vt -0.005208 0.030384
vt -0.255208 0
vt -0.251736 0
vt -0.251736 0.030384
vt 0.005208 0
vt 0.005208 0.030384
vt 0 0.045576
vt -0.496528 0.060768
vt 0 0.060768
vt -0.006945 0.091151
vt -0.255208 0.030384
vt -0.010417 0.091152
vt 0.005208 0.121536
vt 0.496528 0.060768
vt 0.010417 0.045576
vt -0.506944 0.060768
vt 0.010417 0.060768
vt -0.006944 0.106343
vt -0.251736 0.121536
vt 0.255208 0.030387
vt 0.255208 0.045579
vt 0.496528 0.030387
vt 0.006944 0.091152
vt -0.010417 0.060768
vt -0.496528 0.091152
vt -0.496528 0.045576
vt -0.496528 0
vt -0.005208 0.121536
vt -0.255208 0.091151
vt -0.496528 0.091151
vt -0.255208 0.106343
vt -0.255208 0.121536
vt 0.496528 0.045579
vt 0.010417 0.091152
vt 0.006944 0.106344
vt -0.251736 0.091152
vt 0.506944 0.091152
vt -0.506944 0.091152
vt -0.010417 0.121536
vt -0.496528 0.106343
vt 0.255208 0.022788
vt 0.251736 0.022788
vt 0.251736 0.030384
vt 0.251736 0.045576
vt 0.010417 0.121536
vt -0.251736 0.106344
vt -0.010417 0.106344
vt 0.506944 0.060768
vt -0.010417 0.045576
vt 0 0.091152
vt 0.506945 0.045576
vt 0.255208 0.045576
vt -0.255208 0.030387
vt -0.496528 0.030387
vt -0.255208 0.045579
vt 0.006944 0.106342
vt 0.006944 0.09115
vt 0 0.121535
vt 0 0.091151
vt 0.010417 0.106344
vt 0.506945 0
vt -0.255208 0.106344
vt -0.496528 0.106344
vt -0.496528 0.045579
vt 0.010416 0.121535
vt 0.496528 0.121536
vt 0.496528 0.091152
vt -0.006944 0.106344
vt -0.006944 0.091152
vt -0.496528 0.121536
vt 0.010416 0.106343
vt 0 0.121536
vn -1 0 0
vn 1 0 0
vn 0 0 1
vn 0 0 -1
vn 0 -1 0
vn 0 1 0
vn 0 -0.0000029999999997644555 -1
vn 0 0.0000029999999997644555 1
vn 0 1 0.00002899999998802755
vn 0 -1 -0.00002899999998802755
vn 0 0.00002899999998802755 -1
vn 0 -0.00002899999998802755 1
vn 0.000002999999999985 1 -9.999999997729553e-7
vn -0.000002999999999985 -1 9.999999997729553e-7
vn -1 9.99999999999e-7 -9.999999999989996e-7
vn 1 -9.99999999999e-7 9.999999999989996e-7
usemtl material_0_0
f 1/1/1 2/2/1 3/3/1
f 3/3/2 2/2/2 1/1/2
f 1/4/3 4/1/3 2/5/3
f 2/5/4 4/1/4 1/4/4
f 5/6/1 3/3/1 2/2/1
f 2/2/2 3/3/2 5/6/2
f 3/7/5 6/8/5 1/9/5
f 1/9/6 6/8/6 3/7/6
f 1/9/5 7/10/5 4/1/5
f 4/1/6 7/10/6 1/9/6
f 8/2/3 2/5/3 4/1/3
f 4/1/4 2/5/4 8/2/4
f 9/11/7 3/9/7 5/12/7
f 5/12/8 3/9/8 9/11/8
f 5/13/6 2/4/6 9/14/6
f 9/14/5 2/4/5 5/13/5
f 10/15/5 6/8/5 3/7/5
f 3/7/6 6/8/6 10/15/6
f 6/8/5 7/10/5 1/9/5
f 1/9/6 7/10/6 6/8/6
f 7/10/5 11/16/5 4/1/5
f 4/1/6 11/16/6 7/10/6
f 12/17/3 2/5/3 8/2/3
f 8/2/4 2/5/4 12/17/4
f 8/2/2 4/1/2 13/18/2
f 13/18/1 4/1/1 8/2/1
f 9/11/7 14/19/7 3/9/7
f 3/9/8 14/19/8 9/11/8
f 12/20/6 9/14/6 2/4/6
f 2/4/5 9/14/5 12/20/5
f 6/21/2 10/22/2 15/23/2
f 15/23/1 10/22/1 6/21/1
f 10/24/7 3/9/7 14/19/7
f 14/19/8 3/9/8 10/24/8
f 7/25/4 6/24/4 16/26/4
f 16/26/3 6/24/3 7/25/3
f 7/27/1 16/28/1 11/3/1
f 11/3/2 16/28/2 7/27/2
f 17/29/5 4/1/5 11/16/5
f 11/16/6 4/1/6 17/29/6
f 18/6/3 12/17/3 8/2/3
f 8/2/4 12/17/4 18/6/4
f 17/22/2 13/18/2 4/1/2
f 4/1/1 13/18/1 17/22/1
f 8/1/6 13/29/6 18/3/6
f 18/3/5 13/29/5 8/1/5
f 19/30/7 14/19/7 9/11/7
f 9/11/8 14/19/8 19/30/8
f 12/2/1 20/31/1 9/6/1
f 9/6/2 20/31/2 12/2/2
f 21/32/2 15/23/2 10/22/2
f 10/22/1 15/23/1 21/32/1
f 15/33/4 16/26/4 6/24/4
f 6/24/3 16/26/3 15/33/3
f 14/34/2 21/32/2 10/22/2
f 10/22/1 21/32/1 14/34/1
f 22/35/1 11/3/1 16/28/1
f 16/28/2 11/3/2 22/35/2
f 17/1/4 11/25/4 13/2/4
f 13/2/3 11/25/3 17/1/3
f 12/17/3 18/6/3 20/36/3
f 20/36/4 18/6/4 12/17/4
f 23/37/6 18/3/6 13/29/6
f 13/29/5 18/3/5 23/37/5
f 24/38/7 14/19/7 19/30/7
f 19/30/8 14/19/8 24/38/8
f 19/39/1 9/6/1 20/31/1
f 20/31/2 9/6/2 19/39/2
f 25/40/2 15/23/2 21/32/2
f 21/32/1 15/23/1 25/40/1
f 22/41/4 16/26/4 15/33/4
f 15/33/3 16/26/3 22/41/3
f 21/42/9 14/43/9 26/44/9
f 26/44/10 14/43/10 21/42/10
f 27/45/1 11/3/1 22/35/1
f 22/35/2 11/3/2 27/45/2
f 23/18/4 13/2/4 11/25/4
f 11/25/3 13/2/3 23/18/3
f 28/39/3 20/36/3 18/6/3
f 18/6/4 20/36/4 28/39/4
f 23/18/2 29/46/2 18/2/2
f 18/2/1 29/46/1 23/18/1
f 30/47/7 14/19/7 24/38/7
f 24/38/8 14/19/8 30/47/8
f 19/48/5 20/49/5 24/7/5
f 24/7/6 20/49/6 19/48/6
f 15/23/2 25/40/2 31/50/2
f 31/50/1 25/40/1 15/23/1
f 21/51/11 26/52/11 25/53/11
f 25/53/12 26/52/12 21/51/12
f 31/54/4 22/41/4 15/33/4
f 15/33/3 22/41/3 31/54/3
f 30/55/9 26/44/9 14/43/9
f 14/43/10 26/44/10 30/55/10
f 32/56/1 11/3/1 27/45/1
f 27/45/2 11/3/2 32/56/2
f 27/45/1 22/35/1 33/57/1
f 33/57/2 22/35/2 27/45/2
f 32/58/4 23/18/4 11/25/4
f 11/25/3 23/18/3 32/58/3
f 28/39/3 34/59/3 20/36/3
f 20/36/4 34/59/4 28/39/4
f 28/31/2 18/2/2 29/46/2
f 29/46/1 18/2/1 28/31/1
f 29/46/4 23/18/4 32/58/4
f 32/58/3 23/18/3 29/46/3
f 35/60/7 30/47/7 24/38/7
f 24/38/8 30/47/8 35/60/8
f 36/9/5 24/7/5 20/49/5
f 20/49/6 24/7/6 36/9/6
f 37/61/2 31/50/2 25/40/2
f 25/40/1 31/50/1 37/61/1
f 38/62/11 25/53/11 26/52/11
f 26/52/12 25/53/12 38/62/12
f 31/63/6 39/20/6 22/64/6
f 22/64/5 39/20/5 31/63/5
f 26/17/13 30/14/13 40/20/13
f 40/20/14 30/14/14 26/17/14
f 27/65/6 41/6/6 32/66/6
f 32/66/5 41/6/5 27/65/5
f 42/67/1 33/57/1 22/35/1
f 22/35/2 33/57/2 42/67/2
f 33/68/4 43/69/4 27/58/4
f 27/58/3 43/69/3 33/68/3
f 44/31/3 34/59/3 28/39/3
f 28/39/4 34/59/4 44/31/4
f 36/70/3 20/36/3 34/59/3
f 34/59/4 20/36/4 36/70/4
f 29/71/5 45/29/5 28/22/5
f 28/22/6 45/29/6 29/71/6
f 46/72/4 29/46/4 32/58/4
f 32/58/3 29/46/3 46/72/3
f 35/73/13 40/20/13 30/14/13
f 30/14/14 40/20/14 35/73/14
f 24/39/1 36/31/1 35/56/1
f 35/56/2 36/31/2 24/39/2
f 37/74/6 39/20/6 31/63/6
f 31/63/5 39/20/5 37/74/5
f 47/69/2 37/61/2 25/40/2
f 25/40/1 37/61/1 47/69/1
f 25/75/10 38/76/10 47/77/10
f 47/77/9 38/76/9 25/75/9
f 38/78/15 26/79/15 39/80/15
f 39/80/16 26/79/16 38/78/16
f 39/20/6 48/3/6 22/64/6
f 22/64/5 48/3/5 39/20/5
f 40/81/15 39/80/15 26/79/15
f 26/79/16 39/80/16 40/81/16
f 41/34/4 27/58/4 43/69/4
f 43/69/3 27/58/3 41/34/3
f 49/37/6 32/66/6 41/6/6
f 41/6/5 32/66/5 49/37/5
f 50/82/1 33/57/1 42/67/1
f 42/67/2 33/57/2 50/82/2
f 22/64/6 51/37/6 42/66/6
f 42/66/5 51/37/5 22/64/5
f 33/26/5 50/16/5 43/18/5
f 43/18/6 50/16/6 33/26/6
f 52/56/3 34/59/3 44/31/3
f 44/31/4 34/59/4 52/56/4
f 44/1/5 28/22/5 45/29/5
f 45/29/6 28/22/6 44/1/6
f 34/72/1 35/56/1 36/31/1
f 36/31/2 35/56/2 34/72/2
f 45/31/4 29/46/4 46/72/4
f 46/72/3 29/46/3 45/31/3
f 49/34/4 46/72/4 32/58/4
f 32/58/3 46/72/3 49/34/3
f 34/83/13 40/20/13 35/73/13
f 35/73/14 40/20/14 34/83/14
f 53/14/6 39/20/6 37/74/6
f 37/74/5 39/20/5 53/14/5
f 47/84/4 54/85/4 37/54/4
f 37/54/3 54/85/3 47/84/3
f 54/86/10 47/77/10 38/76/10
f 38/76/9 47/77/9 54/86/9
f 53/87/15 38/78/15 39/80/15
f 39/80/16 38/78/16 53/87/16
f 39/88/3 40/89/3 48/67/3
f 48/67/4 40/89/4 39/88/4
f 51/37/6 22/64/6 48/3/6
f 48/3/5 22/64/5 51/37/5
f 43/90/2 52/72/2 41/91/2
f 41/91/1 52/72/1 43/90/1
f 41/6/6 52/3/6 49/37/6
f 49/37/5 52/3/5 41/6/5
f 42/41/4 51/61/4 50/68/4
f 50/68/3 51/61/3 42/41/3
f 55/71/5 43/18/5 50/16/5
f 50/16/6 43/18/6 55/71/6
f 40/89/3 34/59/3 52/56/3
f 52/56/4 34/59/4 40/89/4
f 52/56/3 44/31/3 56/72/3
f 56/72/4 44/31/4 52/56/4
f 45/46/2 46/34/2 44/31/2
f 44/31/1 46/34/1 45/46/1
f 49/37/6 52/3/6 46/29/6
f 46/29/5 52/3/5 49/37/5
f 53/92/4 37/54/4 54/85/4
f 54/85/3 37/54/3 53/92/3
f 54/93/15 38/78/15 53/87/15
f 53/87/16 38/78/16 54/93/16
f 48/67/3 40/89/3 52/56/3
f 52/56/4 40/89/4 48/67/4
f 48/94/2 52/72/2 51/61/2
f 51/61/1 52/72/1 48/94/1
f 43/90/2 51/61/2 52/72/2
f 52/72/1 51/61/1 43/90/1
f 55/69/4 50/68/4 51/61/4
f 51/61/3 50/68/3 55/69/3
f 55/69/2 51/61/2 43/90/2
f 43/90/1 51/61/1 55/69/1
f 56/72/2 44/31/2 46/34/2
f 46/34/1 44/31/1 56/72/1
f 56/1/6 46/29/6 52/3/6
f 52/3/5 46/29/5 56/1/5
