# SSTK version 0.8.0
# 39
mtllib original-39.mtl
o shelf_cleat2/shelf_cleat12/mesh71/mesh71-geometry#mesh71-geometry
v 0.407178 -0.567022 -0.323374
v 0.380945 -0.567022 -0.323374
v 0.407178 -0.540789 -0.323374
v 0.407178 -0.567022 0.306221
v 0.380945 -0.540789 -0.323374
v 0.380945 -0.567022 0.306221
v 0.380945 -0.540789 0.306221
v 0.407178 -0.540789 0.306221
vt 0 0
vt -0.083333 0
vt 0 0.092352
vt -0.083333 2.21645
vt 0 2.21645
vt -0.083333 0.092352
vt -2 0
vt -2 0.092352
vt 0.083333 0
vt 0.083333 2.21645
vt 2 0.092352
vt 2 0
vt 0.083333 0.092352
vt 0 1.804688
vt -0.083333 1.804688
vt 0.083333 1.804688
vn 0 0 -1
vn 0 0 1
vn 0 1 0
vn 1 0 0
vn -1 0 0
vn 0 -1 0
usemtl material_0_0
f 1/1/1 2/2/1 3/3/1
f 3/3/2 2/2/2 1/1/2
f 2/4/3 4/1/3 1/5/3
f 5/6/1 3/3/1 2/2/1
f 2/2/2 3/3/2 5/6/2
f 1/7/4 3/8/4 4/1/4
f 4/1/5 3/8/5 1/7/5
f 4/1/3 2/4/3 6/2/3
f 3/5/6 7/9/6 5/10/6
f 5/11/5 2/12/5 7/3/5
f 7/3/4 2/12/4 5/11/4
f 8/3/4 4/1/4 3/8/4
f 3/8/5 4/1/5 8/3/5
f 6/1/5 7/3/5 2/12/5
f 2/12/4 7/3/4 6/1/4
f 6/9/2 4/1/2 7/13/2
f 7/13/1 4/1/1 6/9/1
f 7/9/6 3/5/6 8/1/6
f 8/3/2 7/13/2 4/1/2
f 4/1/1 7/13/1 8/3/1
usemtl material_1_0
f 1/14/6 4/1/6 2/15/6
f 6/2/6 2/15/6 4/1/6
f 5/16/3 7/9/3 3/14/3
f 8/1/3 3/14/3 7/9/3
