# SSTK version 0.8.0
# 11
mtllib original-11.mtl
o mesh9/mesh9-geometry#mesh9-geometry
v 0.232210 -0.147918 0.179169
v 0.231924 -0.147918 0.177109
v 0.231924 -0.147918 0.179183
v 0.232850 -0.147918 0.174202
v 0.231516 -0.147918 0.180966
v 0.232904 -0.147918 0.181088
v 0.231397 -0.147918 0.174071
v 0.232482 -0.147918 0.179156
v 0.230909 -0.147918 0.177022
v 0.231633 -0.147918 0.159391
v 0.233095 -0.147918 0.177849
v 0.229611 -0.147918 0.180584
v 0.231570 -0.147918 0.182428
v 0.233304 -0.147918 0.179215
v 0.230075 -0.147918 0.173678
v 0.230228 -0.147918 0.159784
v 0.233190 -0.147918 0.159260
v 0.233108 -0.147918 0.177210
v 0.228883 -0.147918 0.176461
v 0.233122 -0.147918 0.182558
v 0.233952 -0.147918 0.180857
v 0.228883 -0.147918 0.173023
v 0.230900 -0.147918 0.156469
v 0.234576 -0.147918 0.174046
v 0.233054 -0.147918 0.156280
v 0.233326 -0.147918 0.177849
v 0.229611 -0.147918 0.182027
v 0.275433 -0.147918 0.209829
v 0.233864 -0.147918 0.179394
v 0.228976 -0.147918 0.160439
v 0.234838 -0.147918 0.159406
v 0.234768 -0.147918 0.156407
v 0.234840 -0.147918 0.177094
v 0.227061 -0.147918 0.175536
v 0.227821 -0.147918 0.172106
v 0.234505 -0.147918 0.182406
v 0.234185 -0.147918 0.179705
v 0.227876 -0.147918 0.161356
v 0.228903 -0.147918 0.157035
v 0.275433 -0.147918 0.147390
v 0.236218 -0.147918 0.173576
v 0.234658 -0.147918 0.177997
v 0.225474 -0.147918 0.174257
v 0.212994 -0.147918 0.209829
v 0.235524 -0.147918 0.181952
v 0.234207 -0.147918 0.180567
v 0.212994 -0.147918 0.147390
v 0.236408 -0.147918 0.159845
v 0.236401 -0.147918 0.156790
v 0.236442 -0.147918 0.176747
v 0.235605 -0.147918 0.178441
v 0.224186 -0.147918 0.172700
v 0.225952 -0.147918 0.168327
v 0.226949 -0.147918 0.170988
v 0.226980 -0.147918 0.162481
v 0.209525 -0.154040 0.213297
v 0.236151 -0.147918 0.181216
v 0.234292 -0.147918 0.180163
v 0.227093 -0.147918 0.157969
v 0.278902 -0.154040 0.143921
v 0.237784 -0.147918 0.172790
v 0.237970 -0.147918 0.157431
v 0.224193 -0.147918 0.160833
v 0.225828 -0.147918 0.166785
v 0.226326 -0.147918 0.169728
v 0.223235 -0.147918 0.170888
v 0.278902 -0.154040 0.213297
v 0.209525 -0.154040 0.143921
v 0.236361 -0.147918 0.180217
v 0.225501 -0.147918 0.159260
v 0.237900 -0.147918 0.160577
v 0.239491 -0.147918 0.158335
v 0.236172 -0.147918 0.179181
v 0.237922 -0.147918 0.176165
v 0.223235 -0.147918 0.162642
v 0.225956 -0.147918 0.165196
v 0.226340 -0.147918 0.163761
v 0.265948 -0.147918 0.160429
v 0.239286 -0.147918 0.171685
v 0.239314 -0.147918 0.161601
v 0.254009 -0.147918 0.157249
v 0.222648 -0.147918 0.168886
v 0.222648 -0.147918 0.164634
v 0.265920 -0.147918 0.160003
v 0.265948 -0.147918 0.170625
v 0.253602 -0.147918 0.157449
v 0.254439 -0.147918 0.157103
v 0.239286 -0.147918 0.175345
v 0.222453 -0.147918 0.166758
v 0.265832 -0.147918 0.159558
v 0.265920 -0.147918 0.171051
v 0.252331 -0.147918 0.172334
v 0.253224 -0.147918 0.157702
v 0.253726 -0.147918 0.158356
v 0.254014 -0.147918 0.158164
v 0.254885 -0.147918 0.157014
v 0.265686 -0.147918 0.159128
v 0.265832 -0.147918 0.171497
v 0.252583 -0.147918 0.172712
v 0.252130 -0.147918 0.171927
v 0.252883 -0.147918 0.158001
v 0.253238 -0.147918 0.158845
v 0.253466 -0.147918 0.158584
v 0.254325 -0.147918 0.158011
v 0.254653 -0.147918 0.157899
v 0.255311 -0.147918 0.156986
v 0.265485 -0.147918 0.158720
v 0.265686 -0.147918 0.171927
v 0.252883 -0.147918 0.173053
v 0.252331 -0.147918 0.158720
v 0.252130 -0.147918 0.159128
v 0.251984 -0.147918 0.171497
v 0.252583 -0.147918 0.158343
v 0.252892 -0.147918 0.159443
v 0.253045 -0.147918 0.159133
v 0.253726 -0.147918 0.172698
v 0.254014 -0.147918 0.172891
v 0.254325 -0.147918 0.173044
v 0.254992 -0.147918 0.157832
v 0.262505 -0.147918 0.156986
v 0.265233 -0.147918 0.158343
v 0.265485 -0.147918 0.172334
v 0.253224 -0.147918 0.173352
v 0.252713 -0.147918 0.170943
v 0.251984 -0.147918 0.159558
v 0.251896 -0.147918 0.171051
v 0.252713 -0.147918 0.160111
v 0.252781 -0.147918 0.159771
v 0.253238 -0.147918 0.172210
v 0.253466 -0.147918 0.172470
v 0.254653 -0.147918 0.173155
v 0.254992 -0.147918 0.173223
v 0.255338 -0.147918 0.157809
v 0.262931 -0.147918 0.157014
v 0.264933 -0.147918 0.158001
v 0.265233 -0.147918 0.172712
v 0.253602 -0.147918 0.173605
v 0.252892 -0.147918 0.171611
v 0.252691 -0.147918 0.170598
v 0.252781 -0.147918 0.171283
v 0.251896 -0.147918 0.160003
v 0.251868 -0.147918 0.170625
v 0.252691 -0.147918 0.160456
v 0.253045 -0.147918 0.171922
v 0.254009 -0.147918 0.173806
v 0.254439 -0.147918 0.173952
v 0.255338 -0.147918 0.173245
v 0.262478 -0.147918 0.157809
v 0.262824 -0.147918 0.157832
v 0.263377 -0.147918 0.157103
v 0.264592 -0.147918 0.157702
v 0.265035 -0.147918 0.159771
v 0.264933 -0.147918 0.173053
v 0.251868 -0.147918 0.160429
v 0.254885 -0.147918 0.174040
v 0.255311 -0.147918 0.174068
v 0.255744 -0.147918 0.166019
v 0.255744 -0.147918 0.164951
v 0.263163 -0.147918 0.157899
v 0.263807 -0.147918 0.157249
v 0.264214 -0.147918 0.157449
v 0.264771 -0.147918 0.159133
v 0.264924 -0.147918 0.159443
v 0.265103 -0.147918 0.160111
v 0.265125 -0.147918 0.160456
v 0.264592 -0.147918 0.173352
v 0.265035 -0.147918 0.171283
v 0.262505 -0.147918 0.174068
v 0.262478 -0.147918 0.173245
v 0.262107 -0.147918 0.164951
v 0.262824 -0.147918 0.173223
v 0.263163 -0.147918 0.173155
v 0.263491 -0.147918 0.158011
v 0.264350 -0.147918 0.158584
v 0.264578 -0.147918 0.158845
v 0.265103 -0.147918 0.170943
v 0.265125 -0.147918 0.170598
v 0.264214 -0.147918 0.173605
v 0.264771 -0.147918 0.171922
v 0.264924 -0.147918 0.171611
v 0.262107 -0.147918 0.166019
v 0.263491 -0.147918 0.173044
v 0.263802 -0.147918 0.158164
v 0.264090 -0.147918 0.158356
v 0.263807 -0.147918 0.173806
v 0.264350 -0.147918 0.172470
v 0.264578 -0.147918 0.172210
v 0.262931 -0.147918 0.174040
v 0.263377 -0.147918 0.173952
v 0.263802 -0.147918 0.172891
v 0.264090 -0.147918 0.172698
vn 0 1 0
vn 0 -1 0
vn 0 -0.49301297568139585 -0.870021957084863
vn 0 -0.49301297568139624 0.870021957084863
vn 0.8700219570848629 -0.493012975681396 0
vn -0.8700219570848629 -0.493012975681396 0
vn 0 0.49301297568139585 0.870021957084863
vn 0 0.49301297568139624 -0.870021957084863
vn -0.8700219570848629 0.493012975681396 0
vn 0.8700219570848629 0.493012975681396 0
usemtl material_0_0
f 1//1 2//1 3//1
f 4//1 2//1 1//1
f 7//1 2//1 4//1
f 4//1 1//1 8//1
f 7//1 9//1 2//1
f 4//1 8//1 11//1
f 5//1 13//1 6//1
f 15//1 9//1 7//1
f 11//1 8//1 14//1
f 18//1 4//1 11//1
f 12//1 13//1 5//1
f 6//1 13//1 20//1
f 22//1 9//1 15//1
f 23//1 16//1 10//1
f 25//1 10//1 17//1
f 11//1 14//1 26//1
f 4//1 18//1 24//1
f 22//1 19//1 9//1
f 13//1 12//1 27//1
f 6//1 20//1 21//1
f 23//1 30//1 16//1
f 23//1 10//1 25//1
f 25//1 17//1 32//1
f 26//1 14//1 29//1
f 24//1 18//1 33//1
f 35//1 19//1 22//1
f 21//1 20//1 36//1
f 39//1 30//1 23//1
f 32//1 17//1 31//1
f 26//1 29//1 42//1
f 24//1 33//1 41//1
f 35//1 34//1 19//1
f 21//1 36//1 46//1
f 42//1 29//1 37//1
f 39//1 38//1 30//1
f 32//1 31//1 49//1
f 41//1 33//1 50//1
f 53//1 43//1 34//1
f 54//1 34//1 35//1
f 42//1 36//1 45//1
f 46//1 36//1 58//1
f 42//1 37//1 58//1
f 59//1 38//1 39//1
f 49//1 31//1 48//1
f 41//1 50//1 61//1
f 42//1 45//1 51//1
f 63//1 52//1 43//1
f 64//1 43//1 53//1
f 53//1 34//1 65//1
f 65//1 34//1 54//1
f 59//1 55//1 38//1
f 51//1 45//1 57//1
f 42//1 58//1 36//1
f 49//1 48//1 62//1
f 61//1 50//1 74//1
f 75//1 52//1 63//1
f 63//1 43//1 70//1
f 70//1 43//1 64//1
f 59//1 77//1 55//1
f 75//1 66//1 52//1
f 73//1 57//1 69//1
f 51//1 57//1 73//1
f 70//1 76//1 59//1
f 62//1 48//1 71//1
f 62//1 80//1 72//1
f 61//1 74//1 79//1
f 76//1 70//1 64//1
f 59//1 76//1 77//1
f 83//1 66//1 75//1
f 62//1 71//1 80//1
f 79//1 74//1 88//1
f 83//1 82//1 66//1
f 84//1 85//1 78//1
f 86//1 94//1 81//1
f 81//1 95//1 87//1
f 82//1 83//1 89//1
f 90//1 91//1 84//1
f 84//1 91//1 85//1
f 93//1 102//1 86//1
f 86//1 103//1 94//1
f 81//1 94//1 95//1
f 87//1 95//1 104//1
f 87//1 105//1 96//1
f 97//1 98//1 90//1
f 90//1 98//1 91//1
f 110//1 92//1 99//1
f 111//1 100//1 92//1
f 101//1 114//1 93//1
f 93//1 115//1 102//1
f 86//1 102//1 103//1
f 87//1 104//1 105//1
f 96//1 105//1 119//1
f 96//1 119//1 106//1
f 107//1 108//1 97//1
f 97//1 108//1 98//1
f 124//1 99//1 109//1
f 111//1 92//1 110//1
f 110//1 99//1 113//1
f 125//1 100//1 111//1
f 125//1 112//1 100//1
f 113//1 127//1 101//1
f 101//1 128//1 114//1
f 93//1 114//1 115//1
f 106//1 119//1 133//1
f 106//1 133//1 120//1
f 121//1 122//1 107//1
f 107//1 122//1 108//1
f 138//1 109//1 123//1
f 139//1 99//1 124//1
f 124//1 109//1 140//1
f 113//1 99//1 139//1
f 141//1 112//1 125//1
f 141//1 126//1 112//1
f 127//1 113//1 143//1
f 101//1 127//1 128//1
f 130//1 137//1 116//1
f 116//1 145//1 117//1
f 117//1 146//1 118//1
f 118//1 146//1 131//1
f 120//1 133//1 148//1
f 120//1 149//1 134//1
f 135//1 152//1 121//1
f 121//1 136//1 122//1
f 129//1 123//1 137//1
f 140//1 109//1 138//1
f 138//1 123//1 144//1
f 143//1 113//1 139//1
f 154//1 126//1 141//1
f 126//1 154//1 142//1
f 144//1 123//1 129//1
f 129//1 137//1 130//1
f 116//1 137//1 145//1
f 117//1 145//1 146//1
f 131//1 146//1 155//1
f 131//1 155//1 132//1
f 132//1 156//1 147//1
f 120//1 148//1 149//1
f 134//1 149//1 159//1
f 134//1 159//1 150//1
f 151//1 162//1 135//1
f 135//1 163//1 152//1
f 121//1 152//1 164//1
f 121//1 165//1 136//1
f 167//1 153//1 136//1
f 132//1 155//1 156//1
f 147//1 156//1 168//1
f 150//1 159//1 173//1
f 150//1 173//1 160//1
f 161//1 174//1 151//1
f 151//1 175//1 162//1
f 135//1 162//1 163//1
f 121//1 164//1 165//1
f 177//1 136//1 165//1
f 179//1 166//1 153//1
f 180//1 153//1 167//1
f 167//1 136//1 176//1
f 147//1 168//1 169//1
f 181//1 158//1 157//1
f 158//1 181//1 170//1
f 160//1 173//1 183//1
f 160//1 184//1 161//1
f 161//1 184//1 174//1
f 151//1 174//1 175//1
f 176//1 136//1 177//1
f 186//1 178//1 166//1
f 187//1 166//1 179//1
f 179//1 153//1 180//1
f 169//1 168//1 171//1
f 171//1 188//1 172//1
f 172//1 189//1 182//1
f 160//1 183//1 184//1
f 191//1 185//1 178//1
f 191//1 178//1 186//1
f 186//1 166//1 187//1
f 171//1 168//1 188//1
f 172//1 188//1 189//1
f 182//1 189//1 185//1
f 182//1 185//1 190//1
f 190//1 185//1 191//1
usemtl material_1_0
f 3//2 2//2 1//2
f 1//2 2//2 4//2
f 3//2 5//2 2//2
f 1//2 6//2 3//2
f 4//2 2//2 7//2
f 8//2 1//2 4//2
f 2//2 5//2 9//2
f 5//2 3//2 6//2
f 8//2 6//2 1//2
f 2//2 9//2 7//2
f 4//2 7//2 10//2
f 11//2 8//2 4//2
f 5//2 12//2 9//2
f 6//2 13//2 5//2
f 14//2 6//2 8//2
f 7//2 9//2 15//2
f 10//2 7//2 16//2
f 17//2 4//2 10//2
f 14//2 8//2 11//2
f 11//2 4//2 18//2
f 9//2 12//2 19//2
f 5//2 13//2 12//2
f 20//2 13//2 6//2
f 21//2 6//2 14//2
f 15//2 9//2 22//2
f 7//2 15//2 16//2
f 10//2 16//2 23//2
f 24//2 4//2 17//2
f 17//2 10//2 25//2
f 26//2 14//2 11//2
f 24//2 18//2 4//2
f 11//2 18//2 26//2
f 27//2 19//2 12//2
f 9//2 19//2 22//2
f 27//2 12//2 13//2
f 20//2 28//2 13//2
f 21//2 20//2 6//2
f 29//2 21//2 14//2
f 15//2 22//2 30//2
f 16//2 15//2 30//2
f 16//2 30//2 23//2
f 25//2 10//2 23//2
f 31//2 24//2 17//2
f 32//2 17//2 25//2
f 29//2 14//2 26//2
f 33//2 18//2 24//2
f 33//2 26//2 18//2
f 19//2 27//2 34//2
f 22//2 19//2 35//2
f 13//2 28//2 27//2
f 36//2 28//2 20//2
f 36//2 20//2 21//2
f 37//2 21//2 29//2
f 30//2 22//2 38//2
f 23//2 30//2 39//2
f 25//2 23//2 40//2
f 41//2 24//2 31//2
f 31//2 17//2 32//2
f 32//2 25//2 40//2
f 42//2 29//2 26//2
f 41//2 33//2 24//2
f 42//2 26//2 33//2
f 34//2 27//2 43//2
f 19//2 34//2 35//2
f 22//2 35//2 38//2
f 28//2 44//2 27//2
f 45//2 28//2 36//2
f 46//2 36//2 21//2
f 46//2 21//2 37//2
f 37//2 29//2 42//2
f 30//2 38//2 39//2
f 39//2 47//2 23//2
f 40//2 23//2 47//2
f 48//2 41//2 31//2
f 49//2 31//2 32//2
f 49//2 32//2 40//2
f 50//2 33//2 41//2
f 51//2 42//2 33//2
f 43//2 27//2 52//2
f 34//2 43//2 53//2
f 35//2 34//2 54//2
f 38//2 35//2 55//2
f 27//2 44//2 52//2
f 44//3 28//3 56//3
f 57//2 28//2 45//2
f 45//2 36//2 42//2
f 58//2 36//2 46//2
f 58//2 46//2 37//2
f 58//2 37//2 42//2
f 39//2 38//2 59//2
f 59//2 47//2 39//2
f 40//4 47//4 60//4
f 61//2 41//2 48//2
f 48//2 31//2 49//2
f 62//2 49//2 40//2
f 50//2 51//2 33//2
f 61//2 50//2 41//2
f 51//2 45//2 42//2
f 43//2 52//2 63//2
f 53//2 43//2 64//2
f 65//2 34//2 53//2
f 54//2 34//2 65//2
f 35//2 54//2 55//2
f 38//2 55//2 59//2
f 52//2 44//2 66//2
f 67//3 56//3 28//3
f 56//5 68//5 44//5
f 69//2 28//2 57//2
f 57//2 45//2 51//2
f 36//2 58//2 42//2
f 70//2 47//2 59//2
f 68//4 60//4 47//4
f 40//6 60//6 28//6
f 71//2 61//2 48//2
f 62//2 48//2 49//2
f 72//2 62//2 40//2
f 73//2 51//2 50//2
f 74//2 50//2 61//2
f 63//2 52//2 75//2
f 70//2 43//2 63//2
f 64//2 43//2 70//2
f 64//2 76//2 53//2
f 65//2 53//2 76//2
f 54//2 65//2 77//2
f 55//2 54//2 77//2
f 55//2 77//2 59//2
f 47//2 66//2 44//2
f 52//2 66//2 75//2
f 67//6 28//6 60//6
f 47//5 44//5 68//5
f 50//2 28//2 69//2
f 69//2 57//2 73//2
f 73//2 57//2 51//2
f 63//2 47//2 70//2
f 59//2 76//2 70//2
f 28//2 78//2 40//2
f 79//2 61//2 71//2
f 71//2 48//2 62//2
f 72//2 80//2 62//2
f 81//2 72//2 40//2
f 69//2 73//2 50//2
f 74//2 28//2 50//2
f 79//2 74//2 61//2
f 75//2 47//2 63//2
f 64//2 70//2 76//2
f 77//2 65//2 76//2
f 77//2 76//2 59//2
f 82//2 66//2 47//2
f 75//2 66//2 83//2
f 78//2 84//2 40//2
f 78//2 28//2 85//2
f 80//2 79//2 71//2
f 80//2 71//2 62//2
f 72//2 28//2 80//2
f 86//2 72//2 81//2
f 87//2 81//2 40//2
f 88//2 28//2 74//2
f 88//2 74//2 79//2
f 83//2 47//2 75//2
f 66//2 82//2 83//2
f 89//2 82//2 47//2
f 84//2 90//2 40//2
f 78//2 85//2 84//2
f 85//2 28//2 91//2
f 80//2 28//2 79//2
f 92//2 28//2 72//2
f 93//2 72//2 86//2
f 81//2 94//2 86//2
f 87//2 95//2 81//2
f 96//2 87//2 40//2
f 79//2 28//2 88//2
f 89//2 47//2 83//2
f 89//2 83//2 82//2
f 90//2 97//2 40//2
f 84//2 91//2 90//2
f 85//2 91//2 84//2
f 91//2 28//2 98//2
f 99//2 28//2 92//2
f 100//2 92//2 72//2
f 101//2 72//2 93//2
f 86//2 102//2 93//2
f 94//2 103//2 86//2
f 95//2 94//2 81//2
f 104//2 95//2 87//2
f 96//2 105//2 87//2
f 106//2 96//2 40//2
f 97//2 107//2 40//2
f 90//2 98//2 97//2
f 91//2 98//2 90//2
f 98//2 28//2 108//2
f 109//2 28//2 99//2
f 99//2 92//2 110//2
f 92//2 100//2 111//2
f 112//2 100//2 72//2
f 113//2 72//2 101//2
f 93//2 114//2 101//2
f 102//2 115//2 93//2
f 103//2 102//2 86//2
f 94//2 116//2 103//2
f 95//2 117//2 94//2
f 104//2 118//2 95//2
f 105//2 104//2 87//2
f 119//2 105//2 96//2
f 106//2 119//2 96//2
f 120//2 106//2 40//2
f 107//2 121//2 40//2
f 97//2 108//2 107//2
f 98//2 108//2 97//2
f 108//2 28//2 122//2
f 123//2 28//2 109//2
f 109//2 99//2 124//2
f 110//2 92//2 111//2
f 113//2 99//2 110//2
f 111//2 100//2 125//2
f 100//2 112//2 125//2
f 126//2 112//2 72//2
f 110//2 72//2 113//2
f 101//2 127//2 113//2
f 114//2 128//2 101//2
f 115//2 114//2 93//2
f 102//2 129//2 115//2
f 103//2 130//2 102//2
f 116//2 130//2 103//2
f 117//2 116//2 94//2
f 118//2 117//2 95//2
f 131//2 118//2 104//2
f 105//2 131//2 104//2
f 119//2 132//2 105//2
f 133//2 119//2 106//2
f 120//2 133//2 106//2
f 134//2 120//2 40//2
f 121//2 135//2 40//2
f 107//2 122//2 121//2
f 108//2 122//2 107//2
f 122//2 28//2 136//2
f 137//2 28//2 123//2
f 123//2 109//2 138//2
f 124//2 99//2 139//2
f 140//2 109//2 124//2
f 111//2 72//2 110//2
f 139//2 99//2 113//2
f 125//2 72//2 111//2
f 125//2 112//2 141//2
f 112//2 126//2 141//2
f 142//2 126//2 72//2
f 143//2 113//2 127//2
f 128//2 127//2 101//2
f 114//2 138//2 128//2
f 115//2 144//2 114//2
f 129//2 144//2 115//2
f 130//2 129//2 102//2
f 116//2 137//2 130//2
f 117//2 145//2 116//2
f 118//2 146//2 117//2
f 131//2 146//2 118//2
f 132//2 131//2 105//2
f 147//2 132//2 119//2
f 133//2 147//2 119//2
f 148//2 133//2 120//2
f 134//2 149//2 120//2
f 150//2 134//2 40//2
f 135//2 151//2 40//2
f 121//2 152//2 135//2
f 122//2 136//2 121//2
f 136//2 28//2 153//2
f 145//2 28//2 137//2
f 137//2 123//2 129//2
f 138//2 109//2 140//2
f 144//2 123//2 138//2
f 139//2 143//2 124//2
f 140//2 124//2 127//2
f 139//2 113//2 143//2
f 141//2 72//2 125//2
f 141//2 126//2 154//2
f 142//2 154//2 126//2
f 142//2 72//2 154//2
f 127//2 124//2 143//2
f 128//2 140//2 127//2
f 138//2 140//2 128//2
f 144//2 138//2 114//2
f 129//2 123//2 144//2
f 130//2 137//2 129//2
f 145//2 137//2 116//2
f 146//2 145//2 117//2
f 155//2 146//2 131//2
f 132//2 155//2 131//2
f 147//2 156//2 132//2
f 157//2 147//2 133//2
f 148//2 158//2 133//2
f 149//2 148//2 120//2
f 159//2 149//2 134//2
f 150//2 159//2 134//2
f 160//2 150//2 40//2
f 151//2 161//2 40//2
f 135//2 162//2 151//2
f 152//2 163//2 135//2
f 164//2 152//2 121//2
f 136//2 165//2 121//2
f 153//2 28//2 166//2
f 136//2 153//2 167//2
f 146//2 28//2 145//2
f 154//2 72//2 141//2
f 155//2 28//2 146//2
f 156//2 155//2 132//2
f 168//2 156//2 147//2
f 169//2 147//2 157//2
f 157//2 133//2 158//2
f 170//2 158//2 148//2
f 149//2 171//2 148//2
f 159//2 172//2 149//2
f 173//2 159//2 150//2
f 160//2 173//2 150//2
f 161//2 160//2 40//2
f 151//2 174//2 161//2
f 162//2 175//2 151//2
f 163//2 162//2 135//2
f 152//2 167//2 163//2
f 164//2 176//2 152//2
f 165//2 164//2 121//2
f 165//2 136//2 177//2
f 166//2 28//2 178//2
f 153//2 166//2 179//2
f 167//2 153//2 180//2
f 176//2 136//2 167//2
f 156//2 28//2 155//2
f 168//2 28//2 156//2
f 169//2 168//2 147//2
f 181//2 169//2 157//2
f 157//2 158//2 181//2
f 170//2 181//2 158//2
f 169//2 170//2 148//2
f 171//2 169//2 148//2
f 172//2 171//2 149//2
f 182//2 172//2 159//2
f 173//2 182//2 159//2
f 183//2 173//2 160//2
f 161//2 184//2 160//2
f 174//2 184//2 161//2
f 175//2 174//2 151//2
f 162//2 179//2 175//2
f 163//2 180//2 162//2
f 167//2 180//2 163//2
f 176//2 167//2 152//2
f 177//2 176//2 164//2
f 165//2 177//2 164//2
f 177//2 136//2 176//2
f 178//2 28//2 185//2
f 166//2 178//2 186//2
f 179//2 166//2 187//2
f 180//2 153//2 179//2
f 188//2 28//2 168//2
f 171//2 168//2 169//2
f 170//2 169//2 181//2
f 172//2 188//2 171//2
f 182//2 189//2 172//2
f 190//2 182//2 173//2
f 183//2 190//2 173//2
f 184//2 183//2 160//2
f 174//2 186//2 184//2
f 175//2 187//2 174//2
f 179//2 187//2 175//2
f 180//2 179//2 162//2
f 185//2 28//2 189//2
f 178//2 185//2 191//2
f 186//2 178//2 191//2
f 187//2 166//2 186//2
f 189//2 28//2 188//2
f 188//2 168//2 171//2
f 189//2 188//2 172//2
f 185//2 189//2 182//2
f 190//2 185//2 182//2
f 191//2 190//2 183//2
f 184//2 191//2 183//2
f 186//2 191//2 184//2
f 187//2 186//2 174//2
f 191//2 185//2 190//2
usemtl material_2_0
f 2//1 5//1 3//1
f 3//1 6//1 1//1
f 9//1 5//1 2//1
f 6//1 3//1 5//1
f 1//1 6//1 8//1
f 10//1 7//1 4//1
f 9//1 12//1 5//1
f 8//1 6//1 14//1
f 16//1 7//1 10//1
f 10//1 4//1 17//1
f 19//1 12//1 9//1
f 14//1 6//1 21//1
f 16//1 15//1 7//1
f 17//1 4//1 24//1
f 26//1 18//1 11//1
f 12//1 19//1 27//1
f 13//1 28//1 20//1
f 14//1 21//1 29//1
f 30//1 22//1 15//1
f 30//1 15//1 16//1
f 17//1 24//1 31//1
f 18//1 26//1 33//1
f 34//1 27//1 19//1
f 27//1 28//1 13//1
f 20//1 28//1 36//1
f 29//1 21//1 37//1
f 38//1 22//1 30//1
f 40//1 23//1 25//1
f 31//1 24//1 41//1
f 40//1 25//1 32//1
f 33//1 26//1 42//1
f 43//1 27//1 34//1
f 38//1 35//1 22//1
f 27//1 44//1 28//1
f 36//1 28//1 45//1
f 37//1 21//1 46//1
f 23//1 47//1 39//1
f 47//1 23//1 40//1
f 31//1 41//1 48//1
f 40//1 32//1 49//1
f 33//1 42//1 51//1
f 52//1 27//1 43//1
f 55//1 35//1 38//1
f 52//1 44//1 27//1
f 56//7 28//7 44//7
f 45//1 28//1 57//1
f 37//1 46//1 58//1
f 39//1 47//1 59//1
f 60//8 47//8 40//8
f 48//1 41//1 61//1
f 40//1 49//1 62//1
f 33//1 51//1 50//1
f 55//1 54//1 35//1
f 66//1 44//1 52//1
f 28//7 56//7 67//7
f 44//9 68//9 56//9
f 57//1 28//1 69//1
f 59//1 47//1 70//1
f 47//8 60//8 68//8
f 28//10 60//10 40//10
f 48//1 61//1 71//1
f 40//1 62//1 72//1
f 50//1 51//1 73//1
f 53//1 76//1 64//1
f 76//1 53//1 65//1
f 77//1 65//1 54//1
f 77//1 54//1 55//1
f 44//1 66//1 47//1
f 60//10 28//10 67//10
f 68//9 44//9 47//9
f 69//1 28//1 50//1
f 70//1 47//1 63//1
f 40//1 78//1 28//1
f 71//1 61//1 79//1
f 40//1 72//1 81//1
f 50//1 73//1 69//1
f 50//1 28//1 74//1
f 63//1 47//1 75//1
f 76//1 65//1 77//1
f 47//1 66//1 82//1
f 40//1 84//1 78//1
f 85//1 28//1 78//1
f 71//1 79//1 80//1
f 80//1 28//1 72//1
f 81//1 72//1 86//1
f 40//1 81//1 87//1
f 74//1 28//1 88//1
f 75//1 47//1 83//1
f 47//1 82//1 89//1
f 40//1 90//1 84//1
f 91//1 28//1 85//1
f 79//1 28//1 80//1
f 72//1 28//1 92//1
f 86//1 72//1 93//1
f 40//1 87//1 96//1
f 88//1 28//1 79//1
f 83//1 47//1 89//1
f 40//1 97//1 90//1
f 98//1 28//1 91//1
f 92//1 28//1 99//1
f 72//1 92//1 100//1
f 93//1 72//1 101//1
f 40//1 96//1 106//1
f 40//1 107//1 97//1
f 108//1 28//1 98//1
f 99//1 28//1 109//1
f 72//1 100//1 112//1
f 101//1 72//1 113//1
f 103//1 116//1 94//1
f 94//1 117//1 95//1
f 95//1 118//1 104//1
f 40//1 106//1 120//1
f 40//1 121//1 107//1
f 122//1 28//1 108//1
f 109//1 28//1 123//1
f 72//1 112//1 126//1
f 113//1 72//1 110//1
f 115//1 129//1 102//1
f 102//1 130//1 103//1
f 103//1 130//1 116//1
f 94//1 116//1 117//1
f 95//1 117//1 118//1
f 104//1 118//1 131//1
f 104//1 131//1 105//1
f 105//1 132//1 119//1
f 40//1 120//1 134//1
f 40//1 135//1 121//1
f 136//1 28//1 122//1
f 123//1 28//1 137//1
f 110//1 72//1 111//1
f 111//1 72//1 125//1
f 72//1 126//1 142//1
f 128//1 138//1 114//1
f 114//1 144//1 115//1
f 115//1 144//1 129//1
f 102//1 129//1 130//1
f 105//1 131//1 132//1
f 119//1 132//1 147//1
f 119//1 147//1 133//1
f 40//1 134//1 150//1
f 40//1 151//1 135//1
f 153//1 28//1 136//1
f 137//1 28//1 145//1
f 124//1 143//1 139//1
f 127//1 124//1 140//1
f 125//1 72//1 141//1
f 154//1 72//1 142//1
f 143//1 124//1 127//1
f 127//1 140//1 128//1
f 128//1 140//1 138//1
f 114//1 138//1 144//1
f 133//1 147//1 157//1
f 133//1 158//1 148//1
f 40//1 150//1 160//1
f 40//1 161//1 151//1
f 166//1 28//1 153//1
f 145//1 28//1 146//1
f 141//1 72//1 154//1
f 146//1 28//1 155//1
f 157//1 147//1 169//1
f 158//1 133//1 157//1
f 148//1 158//1 170//1
f 148//1 171//1 149//1
f 149//1 172//1 159//1
f 40//1 160//1 161//1
f 163//1 167//1 152//1
f 152//1 176//1 164//1
f 178//1 28//1 166//1
f 155//1 28//1 156//1
f 156//1 28//1 168//1
f 157//1 169//1 181//1
f 148//1 170//1 169//1
f 148//1 169//1 171//1
f 149//1 171//1 172//1
f 159//1 172//1 182//1
f 159//1 182//1 173//1
f 175//1 179//1 162//1
f 162//1 180//1 163//1
f 163//1 180//1 167//1
f 152//1 167//1 176//1
f 164//1 176//1 177//1
f 164//1 177//1 165//1
f 185//1 28//1 178//1
f 168//1 28//1 188//1
f 181//1 169//1 170//1
f 173//1 182//1 190//1
f 173//1 190//1 183//1
f 184//1 186//1 174//1
f 174//1 187//1 175//1
f 175//1 187//1 179//1
f 162//1 179//1 180//1
f 189//1 28//1 185//1
f 188//1 28//1 189//1
f 183//1 190//1 191//1
f 183//1 191//1 184//1
f 184//1 191//1 186//1
f 174//1 186//1 187//1
