# SSTK version 0.8.0
# 27
mtllib original-27.mtl
o mesh25/mesh25-geometry#mesh25-geometry
v -0.254008 -0.147918 0.242055
v -0.254008 -0.147918 0.237802
v -0.254204 -0.147918 0.239927
v -0.253422 -0.147918 0.235810
v -0.264479 -0.147918 0.220847
v -0.253422 -0.147918 0.244057
v -0.252471 -0.147918 0.245869
v -0.252464 -0.147918 0.234002
v -0.264479 -0.147918 0.283286
v -0.251156 -0.147918 0.232429
v -0.267948 -0.154040 0.217378
v -0.251183 -0.147918 0.247425
v -0.249564 -0.147918 0.231137
v -0.267948 -0.154040 0.286755
v -0.198572 -0.154040 0.217378
v -0.249596 -0.147918 0.248704
v -0.247754 -0.147918 0.230204
v -0.250701 -0.147918 0.238364
v -0.250829 -0.147918 0.239954
v -0.202041 -0.147918 0.283286
v -0.202041 -0.147918 0.220847
v -0.250705 -0.147918 0.241496
v -0.245757 -0.147918 0.229637
v -0.248781 -0.147918 0.234524
v -0.250317 -0.147918 0.236930
v -0.198572 -0.154040 0.286755
v -0.247774 -0.147918 0.249630
v -0.250331 -0.147918 0.242897
v -0.247681 -0.147918 0.233607
v -0.249677 -0.147918 0.235650
v -0.243603 -0.147918 0.229448
v -0.237166 -0.147918 0.231503
v -0.245748 -0.147918 0.250191
v -0.248836 -0.147918 0.245275
v -0.249708 -0.147918 0.244157
v -0.246429 -0.147918 0.232953
v -0.247774 -0.147918 0.246192
v -0.245024 -0.147918 0.232560
v -0.241888 -0.147918 0.229576
v -0.238687 -0.147918 0.230600
v -0.237343 -0.147918 0.234769
v -0.243549 -0.147918 0.250378
v -0.246582 -0.147918 0.246847
v -0.243467 -0.147918 0.232429
v -0.240255 -0.147918 0.229959
v -0.237370 -0.147918 0.244853
v -0.241817 -0.147918 0.250263
v -0.245259 -0.147918 0.247240
v -0.243807 -0.147918 0.247371
v -0.241819 -0.147918 0.232575
v -0.240249 -0.147918 0.233014
v -0.238757 -0.147918 0.233745
v -0.237370 -0.147918 0.248514
v -0.240215 -0.147918 0.249916
v -0.242081 -0.147918 0.247214
v -0.238735 -0.147918 0.249334
v -0.238872 -0.147918 0.245959
v -0.240439 -0.147918 0.246745
vn 0 1 0
vn 0 -1 0
vn 0.8700219570848629 -0.493012975681396 0
vn 0 -0.49301297568139624 0.870021957084863
vn 0 -0.49301297568139585 -0.870021957084863
vn -0.8700219570848629 -0.493012975681396 0
vn -0.8700219570848629 0.493012975681396 0
vn 0 0.49301297568139624 -0.870021957084863
vn 0 0.49301297568139585 0.870021957084863
vn 0.8700219570848629 0.493012975681396 0
usemtl material_0_0
f 1//1 2//1 3//1
f 2//1 1//1 4//1
f 4//1 1//1 6//1
f 4//1 6//1 7//1
f 4//1 7//1 8//1
f 8//1 7//1 12//1
f 8//1 12//1 10//1
f 10//1 18//1 13//1
f 10//1 12//1 19//1
f 22//1 12//1 16//1
f 13//1 24//1 17//1
f 18//1 10//1 19//1
f 13//1 18//1 25//1
f 19//1 12//1 22//1
f 22//1 16//1 28//1
f 17//1 29//1 23//1
f 13//1 30//1 24//1
f 17//1 24//1 29//1
f 13//1 25//1 30//1
f 34//1 16//1 27//1
f 28//1 16//1 35//1
f 23//1 29//1 36//1
f 23//1 38//1 31//1
f 37//1 27//1 33//1
f 35//1 16//1 34//1
f 34//1 27//1 37//1
f 23//1 36//1 38//1
f 31//1 38//1 44//1
f 31//1 44//1 39//1
f 40//1 41//1 32//1
f 48//1 33//1 42//1
f 37//1 33//1 43//1
f 39//1 44//1 50//1
f 39//1 50//1 45//1
f 45//1 51//1 40//1
f 40//1 52//1 41//1
f 55//1 42//1 47//1
f 43//1 33//1 48//1
f 48//1 42//1 49//1
f 45//1 50//1 51//1
f 40//1 51//1 52//1
f 46//1 56//1 53//1
f 58//1 47//1 54//1
f 49//1 42//1 55//1
f 55//1 47//1 58//1
f 57//1 56//1 46//1
f 57//1 54//1 56//1
f 58//1 54//1 57//1
usemtl material_1_0
f 3//2 2//2 1//2
f 4//2 1//2 2//2
f 3//2 5//2 2//2
f 3//2 1//2 5//2
f 6//2 1//2 4//2
f 2//2 5//2 4//2
f 1//2 6//2 5//2
f 7//2 6//2 4//2
f 4//2 5//2 8//2
f 5//2 6//2 9//2
f 7//2 9//2 6//2
f 8//2 7//2 4//2
f 8//2 5//2 10//2
f 5//3 9//3 11//3
f 12//2 9//2 7//2
f 12//2 7//2 8//2
f 10//2 5//2 13//2
f 10//2 12//2 8//2
f 14//3 11//3 9//3
f 11//4 15//4 5//4
f 16//2 9//2 12//2
f 13//2 5//2 17//2
f 13//2 18//2 10//2
f 19//2 12//2 10//2
f 9//5 20//5 14//5
f 21//4 5//4 15//4
f 20//2 9//2 16//2
f 16//2 12//2 22//2
f 17//2 5//2 23//2
f 17//2 24//2 13//2
f 19//2 10//2 18//2
f 25//2 18//2 13//2
f 22//2 12//2 19//2
f 26//5 14//5 20//5
f 21//2 23//2 5//2
f 21//6 15//6 20//6
f 27//2 20//2 16//2
f 28//2 16//2 22//2
f 23//2 29//2 17//2
f 24//2 30//2 13//2
f 29//2 24//2 17//2
f 19//2 18//2 22//2
f 25//2 28//2 18//2
f 30//2 25//2 13//2
f 26//6 20//6 15//6
f 31//2 23//2 21//2
f 20//2 32//2 21//2
f 33//2 20//2 27//2
f 27//2 16//2 34//2
f 35//2 16//2 28//2
f 28//2 22//2 18//2
f 36//2 29//2 23//2
f 24//2 34//2 30//2
f 29//2 37//2 24//2
f 35//2 28//2 25//2
f 30//2 35//2 25//2
f 31//2 38//2 23//2
f 39//2 31//2 21//2
f 32//2 40//2 21//2
f 32//2 20//2 41//2
f 42//2 20//2 33//2
f 33//2 27//2 37//2
f 34//2 16//2 35//2
f 37//2 27//2 34//2
f 36//2 43//2 29//2
f 38//2 36//2 23//2
f 34//2 35//2 30//2
f 37//2 34//2 24//2
f 43//2 37//2 29//2
f 44//2 38//2 31//2
f 39//2 44//2 31//2
f 45//2 39//2 21//2
f 40//2 45//2 21//2
f 32//2 41//2 40//2
f 41//2 20//2 46//2
f 47//2 20//2 42//2
f 42//2 33//2 48//2
f 43//2 33//2 37//2
f 48//2 43//2 36//2
f 38//2 48//2 36//2
f 44//2 49//2 38//2
f 50//2 44//2 39//2
f 45//2 50//2 39//2
f 40//2 51//2 45//2
f 41//2 52//2 40//2
f 46//2 20//2 53//2
f 41//2 46//2 52//2
f 54//2 20//2 47//2
f 47//2 42//2 55//2
f 48//2 33//2 43//2
f 49//2 42//2 48//2
f 49//2 48//2 38//2
f 55//2 49//2 44//2
f 50//2 55//2 44//2
f 51//2 50//2 45//2
f 52//2 51//2 40//2
f 53//2 20//2 56//2
f 53//2 56//2 46//2
f 46//2 57//2 52//2
f 56//2 20//2 54//2
f 54//2 47//2 58//2
f 55//2 42//2 49//2
f 58//2 47//2 55//2
f 58//2 55//2 50//2
f 51//2 58//2 50//2
f 52//2 57//2 51//2
f 46//2 56//2 57//2
f 56//2 54//2 57//2
f 57//2 54//2 58//2
f 57//2 58//2 51//2
usemtl material_2_0
f 2//1 5//1 3//1
f 5//1 1//1 3//1
f 4//1 5//1 2//1
f 5//1 6//1 1//1
f 8//1 5//1 4//1
f 9//1 6//1 5//1
f 6//1 9//1 7//1
f 10//1 5//1 8//1
f 11//7 9//7 5//7
f 7//1 9//1 12//1
f 13//1 5//1 10//1
f 9//7 11//7 14//7
f 5//8 15//8 11//8
f 12//1 9//1 16//1
f 17//1 5//1 13//1
f 14//9 20//9 9//9
f 15//8 5//8 21//8
f 16//1 9//1 20//1
f 23//1 5//1 17//1
f 20//9 14//9 26//9
f 5//1 23//1 21//1
f 20//10 15//10 21//10
f 16//1 20//1 27//1
f 22//1 18//1 19//1
f 18//1 28//1 25//1
f 15//10 20//10 26//10
f 21//1 23//1 31//1
f 21//1 32//1 20//1
f 27//1 20//1 33//1
f 18//1 22//1 28//1
f 30//1 34//1 24//1
f 24//1 37//1 29//1
f 25//1 28//1 35//1
f 25//1 35//1 30//1
f 21//1 31//1 39//1
f 21//1 40//1 32//1
f 41//1 20//1 32//1
f 33//1 20//1 42//1
f 29//1 43//1 36//1
f 30//1 35//1 34//1
f 24//1 34//1 37//1
f 29//1 37//1 43//1
f 21//1 39//1 45//1
f 21//1 45//1 40//1
f 46//1 20//1 41//1
f 42//1 20//1 47//1
f 36//1 43//1 48//1
f 36//1 48//1 38//1
f 38//1 49//1 44//1
f 53//1 20//1 46//1
f 52//1 46//1 41//1
f 47//1 20//1 54//1
f 38//1 48//1 49//1
f 44//1 49//1 55//1
f 44//1 55//1 50//1
f 56//1 20//1 53//1
f 52//1 57//1 46//1
f 54//1 20//1 56//1
f 50//1 55//1 58//1
f 50//1 58//1 51//1
f 51//1 57//1 52//1
f 51//1 58//1 57//1
