# SSTK version 0.8.0
# 25
mtllib original-25.mtl
o mesh23/mesh23-geometry#mesh23-geometry
v 0.404984 -0.147918 0.195525
v 0.404984 -0.147918 0.192876
v 0.404736 -0.147918 0.194206
v 0.405728 -0.147918 0.196621
v 0.404786 -0.147918 0.189621
v 0.404797 -0.147918 0.198759
v 0.405828 -0.147918 0.199267
v 0.405728 -0.147918 0.191776
v 0.403890 -0.147918 0.198067
v 0.405813 -0.147918 0.189123
v 0.406830 -0.147918 0.197360
v 0.403890 -0.147918 0.190300
v 0.422348 -0.147918 0.147390
v 0.374004 -0.147918 0.175438
v 0.422348 -0.147918 0.209829
v 0.406947 -0.147918 0.199579
v 0.406830 -0.147918 0.191038
v 0.403117 -0.147918 0.191124
v 0.406935 -0.147918 0.188817
v 0.373674 -0.147918 0.176007
v 0.374185 -0.147918 0.174583
v 0.373021 -0.147918 0.181408
v 0.408151 -0.147918 0.197606
v 0.403117 -0.147918 0.197231
v 0.408120 -0.147918 0.188715
v 0.373165 -0.147918 0.176434
v 0.374245 -0.147918 0.167094
v 0.374245 -0.147918 0.173298
v 0.373021 -0.147918 0.199428
v 0.408120 -0.147918 0.199682
v 0.408151 -0.147918 0.190792
v 0.402552 -0.147918 0.196291
v 0.375534 -0.147918 0.168141
v 0.402552 -0.147918 0.192061
v 0.409325 -0.147918 0.188817
v 0.373227 -0.147918 0.167484
v 0.374245 -0.147918 0.170716
v 0.369447 -0.147918 0.199428
v 0.371229 -0.147918 0.182879
v 0.372032 -0.147918 0.176828
v 0.409304 -0.147918 0.199579
v 0.409437 -0.147918 0.197358
v 0.377107 -0.147918 0.166149
v 0.374793 -0.147918 0.168602
v 0.376658 -0.147918 0.167987
v 0.410450 -0.147918 0.189123
v 0.372574 -0.147918 0.168072
v 0.373227 -0.147918 0.166704
v 0.374382 -0.147918 0.169437
v 0.359909 -0.147918 0.209829
v 0.369447 -0.147918 0.197957
v 0.369447 -0.147918 0.181408
v 0.371229 -0.147918 0.197957
v 0.370145 -0.147918 0.176948
v 0.372104 -0.147918 0.172850
v 0.410427 -0.147918 0.199267
v 0.409446 -0.147918 0.191040
v 0.402206 -0.147918 0.193082
v 0.377107 -0.147918 0.168008
v 0.402206 -0.147918 0.195262
v 0.375527 -0.147918 0.166027
v 0.376882 -0.147918 0.167998
v 0.376658 -0.147918 0.166180
v 0.376877 -0.147918 0.166165
v 0.411479 -0.147918 0.189629
v 0.372222 -0.147918 0.168985
v 0.372574 -0.147918 0.166118
v 0.373674 -0.147918 0.158150
v 0.374381 -0.147918 0.164733
v 0.359909 -0.147918 0.147390
v 0.356440 -0.154040 0.213297
v 0.369447 -0.147918 0.182879
v 0.369671 -0.147918 0.176948
v 0.370145 -0.147918 0.175110
v 0.372003 -0.147918 0.173998
v 0.372104 -0.147918 0.170351
v 0.411465 -0.147918 0.198752
v 0.410527 -0.147918 0.196614
v 0.402090 -0.147918 0.194160
v 0.374788 -0.147918 0.165568
v 0.410535 -0.147918 0.191784
v 0.412396 -0.147918 0.190330
v 0.372222 -0.147918 0.165201
v 0.373165 -0.147918 0.157730
v 0.374004 -0.147918 0.158720
v 0.374245 -0.147918 0.163451
v 0.356440 -0.154040 0.143921
v 0.425816 -0.154040 0.213297
v 0.369671 -0.147918 0.157209
v 0.369671 -0.147918 0.175089
v 0.369913 -0.147918 0.175100
v 0.371107 -0.147918 0.175001
v 0.371699 -0.147918 0.174673
v 0.372004 -0.147918 0.160152
v 0.372104 -0.147918 0.161296
v 0.412396 -0.147918 0.198037
v 0.411273 -0.147918 0.192886
v 0.411519 -0.147918 0.194206
v 0.413155 -0.147918 0.191163
v 0.372104 -0.147918 0.163817
v 0.374185 -0.147918 0.159580
v 0.374245 -0.147918 0.160867
v 0.425816 -0.154040 0.143921
v 0.369923 -0.147918 0.159058
v 0.370166 -0.147918 0.159047
v 0.371704 -0.147918 0.159481
v 0.413165 -0.147918 0.197214
v 0.411271 -0.147918 0.195516
v 0.413711 -0.147918 0.192092
v 0.372027 -0.147918 0.157329
v 0.369671 -0.147918 0.159068
v 0.371119 -0.147918 0.159156
v 0.413719 -0.147918 0.196283
v 0.414051 -0.147918 0.193097
v 0.370145 -0.147918 0.157209
v 0.414165 -0.147918 0.194160
v 0.414053 -0.147918 0.195260
vn 0 1 0
vn 0 0.49301297568139585 0.870021957084863
vn -0.8700219570848629 0.493012975681396 0
vn 0 0.49301297568139624 -0.870021957084863
vn 0.8700219570848629 0.493012975681396 0
vn 0 -1 0
vn 0 -0.49301297568139585 -0.870021957084863
vn 0.8700219570848629 -0.493012975681396 0
vn 0 -0.49301297568139624 0.870021957084863
vn -0.8700219570848629 -0.493012975681396 0
usemtl material_0_0
f 1//1 2//1 3//1
f 2//1 1//1 4//1
f 2//1 4//1 8//1
f 8//1 4//1 11//1
f 13//1 5//1 10//1
f 14//1 6//1 9//1
f 6//1 15//1 7//1
f 8//1 11//1 17//1
f 13//1 12//1 5//1
f 13//1 10//1 19//1
f 20//1 6//1 14//1
f 14//1 9//1 21//1
f 22//1 15//1 6//1
f 7//1 15//1 16//1
f 17//1 11//1 23//1
f 13//1 18//1 12//1
f 13//1 19//1 25//1
f 26//1 6//1 20//1
f 21//1 9//1 28//1
f 29//1 15//1 22//1
f 22//1 6//1 26//1
f 16//1 15//1 30//1
f 17//1 23//1 31//1
f 33//1 9//1 24//1
f 13//1 34//1 18//1
f 13//1 25//1 35//1
f 28//1 9//1 37//1
f 38//1 15//1 29//1
f 40//1 22//1 26//1
f 30//1 15//1 41//1
f 31//1 23//1 42//1
f 43//1 24//1 32//1
f 44//1 9//1 33//1
f 33//1 24//1 45//1
f 13//1 43//1 34//1
f 13//1 35//1 46//1
f 48//1 36//1 27//1
f 37//1 9//1 49//1
f 38//1 50//1 15//1
f 54//1 22//1 40//1
f 41//1 15//1 56//1
f 31//1 42//1 57//1
f 59//1 24//1 43//1
f 43//1 32//1 60//1
f 49//1 9//1 44//1
f 45//1 24//1 62//1
f 13//1 64//1 43//1
f 34//1 43//1 58//1
f 13//1 46//1 65//1
f 67//1 47//1 36//1
f 67//1 36//1 48//1
f 50//1 38//1 70//1
f 71//2 15//2 50//2
f 52//1 38//1 51//1
f 22//1 73//1 52//1
f 72//1 53//1 39//1
f 73//1 22//1 54//1
f 56//1 15//1 77//1
f 57//1 42//1 78//1
f 62//1 24//1 59//1
f 43//1 60//1 79//1
f 13//1 63//1 64//1
f 58//1 43//1 79//1
f 13//1 65//1 82//1
f 83//1 66//1 47//1
f 83//1 47//1 67//1
f 52//1 70//1 38//1
f 87//3 50//3 70//3
f 15//2 71//2 88//2
f 50//3 87//3 71//3
f 53//1 72//1 51//1
f 52//1 51//1 72//1
f 89//1 52//1 73//1
f 94//1 75//1 55//1
f 95//1 55//1 76//1
f 77//1 15//1 96//1
f 57//1 78//1 81//1
f 13//1 80//1 61//1
f 13//1 61//1 63//1
f 13//1 82//1 99//1
f 100//1 76//1 66//1
f 100//1 66//1 83//1
f 13//1 84//1 68//1
f 13//1 68//1 85//1
f 13//1 69//1 80//1
f 13//1 86//1 69//1
f 89//1 70//1 52//1
f 70//4 103//4 87//4
f 103//5 15//5 88//5
f 89//1 73//1 90//1
f 104//1 91//1 74//1
f 105//1 74//1 92//1
f 106//1 93//1 75//1
f 106//1 75//1 94//1
f 94//1 55//1 95//1
f 95//1 76//1 100//1
f 96//1 15//1 107//1
f 81//1 78//1 108//1
f 81//1 108//1 97//1
f 13//1 99//1 109//1
f 13//1 110//1 84//1
f 13//1 85//1 101//1
f 13//1 102//1 86//1
f 70//1 89//1 13//1
f 103//4 70//4 13//4
f 15//5 103//5 13//5
f 89//1 90//1 111//1
f 91//1 111//1 90//1
f 111//1 91//1 104//1
f 104//1 74//1 105//1
f 112//1 92//1 93//1
f 105//1 92//1 112//1
f 112//1 93//1 106//1
f 107//1 15//1 113//1
f 97//1 108//1 98//1
f 13//1 109//1 114//1
f 13//1 115//1 110//1
f 13//1 101//1 102//1
f 13//1 89//1 115//1
f 13//1 116//1 15//1
f 113//1 15//1 117//1
f 13//1 114//1 116//1
f 117//1 15//1 116//1
usemtl material_1_0
f 3//6 2//6 1//6
f 4//6 1//6 2//6
f 2//6 3//6 5//6
f 1//6 6//6 3//6
f 4//6 7//6 1//6
f 8//6 4//6 2//6
f 3//6 9//6 5//6
f 10//6 2//6 5//6
f 9//6 3//6 6//6
f 7//6 6//6 1//6
f 11//6 7//6 4//6
f 11//6 4//6 8//6
f 8//6 2//6 10//6
f 5//6 9//6 12//6
f 10//6 5//6 13//6
f 9//6 6//6 14//6
f 7//6 15//6 6//6
f 16//6 7//6 11//6
f 17//6 11//6 8//6
f 17//6 8//6 10//6
f 12//6 9//6 18//6
f 5//6 12//6 13//6
f 19//6 10//6 13//6
f 14//6 6//6 20//6
f 21//6 9//6 14//6
f 6//6 15//6 22//6
f 16//6 15//6 7//6
f 23//6 16//6 11//6
f 23//6 11//6 17//6
f 19//6 17//6 10//6
f 9//6 24//6 18//6
f 12//6 18//6 13//6
f 25//6 19//6 13//6
f 20//6 6//6 26//6
f 14//6 20//6 27//6
f 28//6 9//6 21//6
f 21//6 14//6 27//6
f 22//6 15//6 29//6
f 26//6 6//6 22//6
f 30//6 15//6 16//6
f 30//6 16//6 23//6
f 31//6 23//6 17//6
f 31//6 17//6 19//6
f 24//6 32//6 18//6
f 24//6 9//6 33//6
f 18//6 34//6 13//6
f 25//6 31//6 19//6
f 35//6 25//6 13//6
f 20//6 26//6 36//6
f 27//6 20//6 36//6
f 37//6 9//6 28//6
f 28//6 21//6 37//6
f 37//6 21//6 27//6
f 29//6 15//6 38//6
f 29//6 39//6 22//6
f 26//6 22//6 40//6
f 41//6 15//6 30//6
f 41//6 30//6 23//6
f 42//6 23//6 31//6
f 18//6 32//6 34//6
f 32//6 24//6 43//6
f 33//6 9//6 44//6
f 45//6 24//6 33//6
f 34//6 43//6 13//6
f 35//6 31//6 25//6
f 46//6 35//6 13//6
f 36//6 26//6 47//6
f 27//6 36//6 48//6
f 49//6 9//6 37//6
f 49//6 37//6 27//6
f 15//6 50//6 38//6
f 38//6 51//6 29//6
f 22//6 39//6 52//6
f 39//6 29//6 53//6
f 40//6 22//6 54//6
f 26//6 40//6 55//6
f 56//6 15//6 41//6
f 42//6 41//6 23//6
f 57//6 42//6 31//6
f 34//6 32//6 58//6
f 43//6 24//6 59//6
f 60//6 32//6 43//6
f 44//6 9//6 49//6
f 33//6 44//6 61//6
f 62//6 24//6 45//6
f 45//6 33//6 63//6
f 43//6 64//6 13//6
f 58//6 43//6 34//6
f 57//6 31//6 35//6
f 46//6 57//6 35//6
f 65//6 46//6 13//6
f 47//6 26//6 66//6
f 36//6 47//6 67//6
f 48//6 36//6 67//6
f 27//6 48//6 68//6
f 69//6 49//6 27//6
f 70//6 38//6 50//6
f 50//7 15//7 71//7
f 53//6 29//6 51//6
f 51//6 38//6 52//6
f 72//6 52//6 39//6
f 52//6 73//6 22//6
f 39//6 53//6 72//6
f 54//6 22//6 73//6
f 40//6 54//6 74//6
f 55//6 40//6 75//6
f 76//6 26//6 55//6
f 77//6 15//6 56//6
f 56//6 41//6 42//6
f 78//6 42//6 57//6
f 32//6 60//6 58//6
f 59//6 24//6 62//6
f 59//6 62//6 43//6
f 79//6 60//6 43//6
f 44//6 49//6 80//6
f 61//6 44//6 80//6
f 63//6 33//6 61//6
f 62//6 45//6 63//6
f 64//6 63//6 13//6
f 43//6 62//6 64//6
f 79//6 43//6 58//6
f 81//6 57//6 46//6
f 65//6 81//6 46//6
f 82//6 65//6 13//6
f 66//6 26//6 76//6
f 47//6 66//6 83//6
f 67//6 47//6 83//6
f 48//6 67//6 84//6
f 68//6 48//6 84//6
f 85//6 27//6 68//6
f 80//6 49//6 69//6
f 69//6 27//6 86//6
f 38//6 70//6 52//6
f 70//8 50//8 87//8
f 88//7 71//7 15//7
f 71//8 87//8 50//8
f 51//6 72//6 53//6
f 72//6 51//6 52//6
f 73//6 52//6 89//6
f 73//6 90//6 54//6
f 74//6 54//6 91//6
f 92//6 40//6 74//6
f 75//6 40//6 93//6
f 55//6 75//6 94//6
f 76//6 55//6 95//6
f 96//6 15//6 77//6
f 77//6 56//6 78//6
f 78//6 56//6 42//6
f 81//6 78//6 57//6
f 79//6 58//6 60//6
f 61//6 80//6 13//6
f 63//6 61//6 13//6
f 64//6 62//6 63//6
f 97//6 81//6 65//6
f 82//6 98//6 65//6
f 99//6 82//6 13//6
f 66//6 76//6 100//6
f 83//6 66//6 100//6
f 67//6 83//6 84//6
f 68//6 84//6 13//6
f 101//6 27//6 85//6
f 85//6 68//6 13//6
f 80//6 69//6 13//6
f 86//6 27//6 102//6
f 69//6 86//6 13//6
f 52//6 70//6 89//6
f 87//9 103//9 70//9
f 88//10 15//10 103//10
f 90//6 73//6 89//6
f 91//6 54//6 90//6
f 74//6 91//6 104//6
f 93//6 40//6 92//6
f 92//6 74//6 105//6
f 75//6 93//6 106//6
f 94//6 75//6 106//6
f 95//6 55//6 94//6
f 100//6 76//6 95//6
f 107//6 15//6 96//6
f 96//6 77//6 98//6
f 108//6 77//6 78//6
f 108//6 78//6 81//6
f 97//6 108//6 81//6
f 98//6 97//6 65//6
f 96//6 98//6 82//6
f 99//6 107//6 82//6
f 109//6 99//6 13//6
f 83//6 100//6 84//6
f 84//6 110//6 13//6
f 102//6 27//6 101//6
f 101//6 85//6 13//6
f 86//6 102//6 13//6
f 13//6 89//6 70//6
f 13//9 70//9 103//9
f 13//10 103//10 15//10
f 111//6 90//6 89//6
f 90//6 111//6 91//6
f 104//6 91//6 111//6
f 105//6 74//6 104//6
f 93//6 92//6 112//6
f 112//6 92//6 105//6
f 106//6 93//6 112//6
f 94//6 106//6 110//6
f 95//6 94//6 110//6
f 100//6 95//6 84//6
f 113//6 15//6 107//6
f 107//6 96//6 82//6
f 98//6 77//6 108//6
f 98//6 108//6 97//6
f 109//6 107//6 99//6
f 114//6 109//6 13//6
f 110//6 115//6 13//6
f 84//6 95//6 110//6
f 102//6 101//6 13//6
f 115//6 89//6 13//6
f 15//6 116//6 13//6
f 111//6 89//6 104//6
f 105//6 104//6 115//6
f 112//6 105//6 110//6
f 106//6 112//6 110//6
f 117//6 15//6 113//6
f 113//6 107//6 109//6
f 114//6 113//6 109//6
f 116//6 114//6 13//6
f 110//6 105//6 115//6
f 115//6 104//6 89//6
f 116//6 15//6 117//6
f 117//6 113//6 114//6
f 116//6 117//6 114//6
usemtl material_2_0
f 5//1 3//1 2//1
f 3//1 6//1 1//1
f 1//1 7//1 4//1
f 5//1 9//1 3//1
f 5//1 2//1 10//1
f 6//1 3//1 9//1
f 1//1 6//1 7//1
f 4//1 7//1 11//1
f 10//1 2//1 8//1
f 12//1 9//1 5//1
f 11//1 7//1 16//1
f 10//1 8//1 17//1
f 18//1 9//1 12//1
f 11//1 16//1 23//1
f 10//1 17//1 19//1
f 18//1 24//1 9//1
f 27//1 20//1 14//1
f 27//1 14//1 21//1
f 23//1 16//1 30//1
f 19//1 17//1 31//1
f 18//1 32//1 24//1
f 19//1 31//1 25//1
f 36//1 26//1 20//1
f 36//1 20//1 27//1
f 37//1 21//1 28//1
f 27//1 21//1 37//1
f 22//1 39//1 29//1
f 23//1 30//1 41//1
f 34//1 32//1 18//1
f 25//1 31//1 35//1
f 47//1 26//1 36//1
f 27//1 37//1 49//1
f 29//1 51//1 38//1
f 52//1 39//1 22//1
f 53//1 29//1 39//1
f 55//1 40//1 26//1
f 23//1 41//1 42//1
f 58//1 32//1 34//1
f 61//1 44//1 33//1
f 63//1 33//1 45//1
f 35//1 31//1 57//1
f 35//1 57//1 46//1
f 66//1 26//1 47//1
f 68//1 48//1 27//1
f 27//1 49//1 69//1
f 51//1 29//1 53//1
f 39//1 52//1 72//1
f 74//1 54//1 40//1
f 75//1 40//1 55//1
f 55//1 26//1 76//1
f 42//1 41//1 56//1
f 58//1 60//1 32//1
f 43//1 62//1 59//1
f 80//1 49//1 44//1
f 80//1 44//1 61//1
f 61//1 33//1 63//1
f 63//1 45//1 62//1
f 64//1 62//1 43//1
f 46//1 57//1 81//1
f 46//1 81//1 65//1
f 76//1 26//1 66//1
f 84//1 67//1 48//1
f 84//1 48//1 68//1
f 68//1 27//1 85//1
f 69//1 49//1 80//1
f 86//1 27//1 69//1
f 54//1 90//1 73//1
f 91//1 54//1 74//1
f 74//1 40//1 92//1
f 93//1 40//1 75//1
f 78//1 56//1 77//1
f 42//1 56//1 78//1
f 60//1 58//1 79//1
f 63//1 62//1 64//1
f 65//1 81//1 97//1
f 65//1 98//1 82//1
f 84//1 83//1 67//1
f 85//1 27//1 101//1
f 102//1 27//1 86//1
f 90//1 54//1 91//1
f 92//1 40//1 93//1
f 98//1 77//1 96//1
f 78//1 77//1 108//1
f 65//1 97//1 98//1
f 82//1 98//1 96//1
f 82//1 107//1 99//1
f 84//1 100//1 83//1
f 101//1 27//1 102//1
f 110//1 106//1 94//1
f 110//1 94//1 95//1
f 84//1 95//1 100//1
f 82//1 96//1 107//1
f 108//1 77//1 98//1
f 99//1 107//1 109//1
f 110//1 95//1 84//1
f 104//1 89//1 111//1
f 115//1 104//1 105//1
f 110//1 105//1 112//1
f 110//1 112//1 106//1
f 109//1 107//1 113//1
f 109//1 113//1 114//1
f 115//1 105//1 110//1
f 89//1 104//1 115//1
f 114//1 113//1 117//1
f 114//1 117//1 116//1
