# SSTK version 0.8.0
# 4
mtllib original-4.mtl
o mesh3/mesh3-geometry#mesh3-geometry
v 0.506394 0.633771 -0.476346
v 0.506578 0.635566 -0.475300
v 0.506394 0.634237 -0.474878
v 0.506578 0.635101 -0.476767
v 0.328932 0.634237 -0.474878
v 0.505856 0.632532 -0.475953
v 0.506394 0.636896 -0.475721
v 0.329471 0.632998 -0.474485
v 0.328749 0.635566 -0.475300
v 0.505856 0.632998 -0.474485
v 0.506394 0.636430 -0.477189
v 0.328932 0.636896 -0.475721
v 0.329471 0.632532 -0.475953
v 0.328932 0.633771 -0.476346
v 0.504999 0.631468 -0.475615
v 0.505856 0.638135 -0.476114
v 0.329471 0.638135 -0.476114
v 0.504999 0.631933 -0.474147
v 0.330327 0.631468 -0.475615
v 0.328749 0.635101 -0.476767
v 0.505856 0.637670 -0.477582
v 0.328932 0.636430 -0.477189
v 0.330327 0.631933 -0.474147
v 0.503883 0.630651 -0.475356
v 0.504999 0.639199 -0.476452
v 0.329471 0.637670 -0.477582
v 0.503883 0.631117 -0.473888
v 0.331444 0.631117 -0.473888
v 0.504999 0.638734 -0.477920
v 0.330327 0.639199 -0.476452
v 0.331444 0.630651 -0.475356
v 0.502583 0.630138 -0.475193
v 0.503883 0.639550 -0.478179
v 0.331444 0.640016 -0.476711
v 0.330327 0.638734 -0.477920
v 0.502583 0.630604 -0.473725
v 0.332744 0.630604 -0.473725
v 0.503883 0.640016 -0.476711
v 0.332744 0.630138 -0.475193
v 0.501188 0.629963 -0.475138
v 0.502583 0.640063 -0.478342
v 0.332744 0.640529 -0.476874
v 0.331444 0.639550 -0.478179
v 0.501188 0.630429 -0.473670
v 0.334139 0.630429 -0.473670
v 0.502583 0.640529 -0.476874
v 0.334139 0.629963 -0.475138
v 0.501188 0.640704 -0.476929
v 0.332744 0.640063 -0.478342
v 0.501188 0.640238 -0.478397
v 0.334139 0.640704 -0.476929
v 0.334139 0.640238 -0.478397
vn 0.9659258202542615 -0.24670395409172896 0.0782589854370606
vn 1 0 0
vn 0 0.3023698942641388 0.9531906666783375
vn 0.8660254334999645 -0.47659523856576386 0.15118507567759829
vn 0.9659258202542615 0.24670395409172896 -0.0782589854370606
vn -0.9659258202542615 -0.24670395409172896 0.0782589854370606
vn -0.8660254334999645 -0.47659523856576386 0.15118507567759829
vn -1 0 0
vn 0.7071066625769129 -0.6740076783713638 0.2138078979733541
vn 0.8660254334999645 0.47659523856576386 -0.15118507567759829
vn -0.7071066625769129 -0.6740076783713638 0.2138078979733541
vn -0.9659258202542615 0.24670395409172896 -0.0782589854370606
vn -0.8660254334999645 0.47659523856576386 -0.15118507567759829
vn 0.5000001383078074 -0.8254872283425941 0.2618600724345647
vn 0.7071066625769129 0.6740076783713638 -0.2138078979733541
vn -0.5000001383078074 -0.8254872283425941 0.2618600724345647
vn -0.7071066625769129 0.6740076783713638 -0.2138078979733541
vn 0.25881910963955096 -0.9207113900267779 0.2920671237238946
vn 0.5000001383078074 0.8254872283425941 -0.2618600724345647
vn -0.25881910963955096 -0.9207113900267779 0.2920671237238946
vn -0.5000001383078074 0.8254872283425941 -0.2618600724345647
vn 0.06540299868562864 -0.9511499808852146 0.3017219939364437
vn 0.25881910963955096 0.9207113900267779 -0.2920671237238946
vn -0.06540299868562864 -0.9511499808852146 0.3017219939364437
vn -0.25881910963955096 0.9207113900267779 -0.2920671237238946
vn 0.06540299868562864 0.9511499808852146 -0.3017219939364437
vn -0.06540299868562864 0.9511499808852146 -0.3017219939364437
vn 0 -0.3023698942641388 -0.9531906666783375
usemtl material_0_0
f 1//1 2//2 3//1
f 2//2 1//1 4//2
f 5//3 3//3 2//3
f 3//1 6//4 1//1
f 4//2 7//5 2//2
f 8//3 3//3 5//3
f 5//3 2//3 9//3
f 6//4 3//1 10//4
f 7//5 4//2 11//5
f 12//3 2//3 7//3
f 8//3 10//3 3//3
f 5//6 13//7 8//7
f 9//3 2//3 12//3
f 9//8 14//6 5//6
f 10//4 15//9 6//4
f 11//5 16//10 7//5
f 12//3 7//3 17//3
f 8//3 18//3 10//3
f 13//7 5//6 14//6
f 19//11 8//7 13//7
f 12//12 20//8 9//8
f 14//6 9//8 20//8
f 15//9 10//4 18//9
f 16//10 11//5 21//10
f 17//3 7//3 16//3
f 17//13 22//12 12//12
f 23//3 18//3 8//3
f 8//7 19//11 23//11
f 20//8 12//12 22//12
f 18//9 24//14 15//9
f 21//10 25//15 16//10
f 17//3 16//3 25//3
f 22//12 17//13 26//13
f 23//3 27//3 18//3
f 19//11 28//16 23//11
f 24//14 18//9 27//14
f 25//15 21//10 29//15
f 17//3 25//3 30//3
f 30//17 26//13 17//13
f 28//3 27//3 23//3
f 28//16 19//11 31//16
f 27//14 32//18 24//14
f 33//19 25//15 29//15
f 30//3 25//3 34//3
f 26//13 30//17 35//17
f 28//3 36//3 27//3
f 31//16 37//20 28//16
f 32//18 27//14 36//18
f 25//15 33//19 38//19
f 34//3 25//3 38//3
f 34//21 35//17 30//17
f 37//3 36//3 28//3
f 37//20 31//16 39//20
f 36//18 40//22 32//18
f 41//23 38//19 33//19
f 34//3 38//3 42//3
f 35//17 34//21 43//21
f 37//3 44//3 36//3
f 39//20 45//24 37//20
f 40//22 36//18 44//22
f 38//19 41//23 46//23
f 42//3 38//3 46//3
f 42//25 43//21 34//21
f 44//3 37//3 45//3
f 45//24 39//20 47//24
f 44//22 47//24 40//22
f 41//23 48//26 46//23
f 42//3 46//3 48//3
f 43//21 42//25 49//25
f 47//24 44//22 45//24
f 48//26 41//23 50//26
f 42//3 48//3 51//3
f 51//27 49//25 42//25
f 50//26 51//27 48//26
f 49//25 51//27 52//27
f 51//27 50//26 52//27
usemtl material_1_0
f 3//12 2//8 1//12
f 4//8 1//12 2//8
f 2//28 3//28 5//28
f 1//12 6//13 3//12
f 2//8 7//6 4//8
f 5//28 3//28 8//28
f 9//28 2//28 5//28
f 10//13 3//12 6//13
f 11//6 4//8 7//6
f 7//28 2//28 12//28
f 3//28 10//28 8//28
f 8//10 13//10 5//5
f 12//28 2//28 9//28
f 5//5 14//5 9//2
f 6//13 15//17 10//13
f 7//6 16//7 11//6
f 17//28 7//28 12//28
f 10//28 18//28 8//28
f 14//5 5//5 13//10
f 13//10 8//10 19//15
f 9//2 20//2 12//1
f 20//2 9//2 14//5
f 18//17 10//13 15//17
f 21//7 11//6 16//7
f 16//28 7//28 17//28
f 12//1 22//1 17//4
f 8//28 18//28 23//28
f 23//15 19//15 8//10
f 22//1 12//1 20//2
f 15//17 24//21 18//17
f 16//7 25//11 21//7
f 25//28 16//28 17//28
f 26//4 17//4 22//1
f 18//28 27//28 23//28
f 23//15 28//19 19//15
f 27//21 18//17 24//21
f 29//11 21//7 25//11
f 30//28 25//28 17//28
f 17//4 26//4 30//9
f 23//28 27//28 28//28
f 31//19 19//15 28//19
f 24//21 32//25 27//21
f 29//11 25//11 33//16
f 34//28 25//28 30//28
f 35//9 30//9 26//4
f 27//28 36//28 28//28
f 28//19 37//23 31//19
f 36//25 27//21 32//25
f 38//16 33//16 25//11
f 38//28 25//28 34//28
f 30//9 35//9 34//14
f 28//28 36//28 37//28
f 39//23 31//19 37//23
f 32//25 40//27 36//25
f 33//16 38//16 41//20
f 42//28 38//28 34//28
f 43//14 34//14 35//9
f 36//28 44//28 37//28
f 37//23 45//26 39//23
f 44//27 36//25 40//27
f 46//20 41//20 38//16
f 46//28 38//28 42//28
f 34//14 43//14 42//18
f 45//28 37//28 44//28
f 47//26 39//23 45//26
f 40//27 47//26 44//27
f 46//20 48//24 41//20
f 48//28 46//28 42//28
f 49//18 42//18 43//14
f 45//26 44//27 47//26
f 50//24 41//20 48//24
f 51//28 48//28 42//28
f 42//18 49//18 51//22
f 48//24 51//22 50//24
f 52//22 51//22 49//18
f 52//22 50//24 51//22
