# SSTK version 0.8.0
# 60
mtllib original-60.mtl
o mesh58/mesh58-geometry#mesh58-geometry
v 0.238704 -0.147918 0.356743
v 0.172796 -0.154040 0.360212
v 0.242173 -0.154040 0.360212
v 0.176265 -0.147918 0.356743
v 0.242173 -0.154040 0.290836
v 0.191438 -0.147918 0.320860
v 0.172796 -0.154040 0.290836
v 0.238704 -0.147918 0.294305
v 0.185747 -0.147918 0.314195
v 0.208112 -0.147918 0.320256
v 0.176265 -0.147918 0.294305
v 0.208112 -0.147918 0.309919
v 0.188590 -0.147918 0.317522
v 0.192377 -0.147918 0.319921
v 0.185747 -0.147918 0.303255
v 0.205269 -0.147918 0.309919
v 0.191438 -0.147918 0.317430
v 0.188590 -0.147918 0.314092
v 0.207173 -0.147918 0.311462
v 0.207173 -0.147918 0.319317
v 0.202421 -0.147918 0.303255
v 0.205264 -0.147918 0.306582
v 0.186685 -0.147918 0.313256
v 0.189528 -0.147918 0.316583
v 0.191438 -0.147918 0.316516
v 0.192377 -0.147918 0.311462
v 0.186685 -0.147918 0.304797
v 0.204331 -0.147918 0.309919
v 0.188590 -0.147918 0.313179
v 0.191438 -0.147918 0.309919
v 0.201482 -0.147918 0.304797
v 0.202421 -0.147918 0.306582
v 0.204325 -0.147918 0.308124
v 0.189528 -0.147918 0.308124
v 0.188590 -0.147918 0.306582
v 0.201482 -0.147918 0.306582
vn 0 0.49301297568139585 0.870021957084863
vn 0.8700219570848629 0.493012975681396 0
vn 0 1 0
vn -0.8700219570848629 0.493012975681396 0
vn 0 0.49301297568139624 -0.870021957084863
vn 0 -0.49301297568139585 -0.870021957084863
vn -0.8700219570848629 -0.493012975681396 0
vn 0 -1 0
vn 0.8700219570848629 -0.493012975681396 0
vn 0 -0.49301297568139624 0.870021957084863
usemtl material_0_0
f 1//1 2//1 3//1
f 2//1 1//1 4//1
f 5//2 1//2 3//2
f 6//3 4//3 1//3
f 4//4 7//4 2//4
f 1//2 5//2 8//2
f 9//3 4//3 6//3
f 6//3 1//3 10//3
f 7//4 4//4 11//4
f 5//5 11//5 8//5
f 8//3 12//3 1//3
f 4//3 9//3 11//3
f 9//3 6//3 13//3
f 10//3 1//3 12//3
f 11//5 5//5 7//5
f 11//3 15//3 8//3
f 8//3 16//3 12//3
f 15//3 11//3 9//3
f 17//3 13//3 6//3
f 18//3 9//3 13//3
f 8//3 15//3 21//3
f 8//3 22//3 16//3
f 20//3 26//3 14//3
f 8//3 21//3 22//3
f 26//3 20//3 19//3
f 22//3 21//3 32//3
f 29//3 27//3 23//3
f 25//3 34//3 24//3
f 34//3 25//3 30//3
f 27//3 35//3 31//3
f 33//3 30//3 28//3
f 27//3 29//3 35//3
f 34//3 30//3 33//3
f 31//3 35//3 36//3
usemtl material_1_0
f 3//6 2//6 1//6
f 4//6 1//6 2//6
f 3//7 1//7 5//7
f 1//8 4//8 6//8
f 2//9 7//9 4//9
f 8//7 5//7 1//7
f 6//8 4//8 9//8
f 10//8 1//8 6//8
f 11//9 4//9 7//9
f 8//10 11//10 5//10
f 1//8 12//8 8//8
f 11//8 9//8 4//8
f 13//8 6//8 9//8
f 12//8 1//8 10//8
f 10//8 6//8 14//8
f 7//10 5//10 11//10
f 8//8 15//8 11//8
f 12//8 16//8 8//8
f 9//8 11//8 15//8
f 6//8 13//8 17//8
f 13//8 9//8 18//8
f 10//8 19//8 12//8
f 17//8 14//8 6//8
f 20//8 10//8 14//8
f 21//8 15//8 8//8
f 16//8 22//8 8//8
f 12//8 19//8 16//8
f 15//8 23//8 9//8
f 17//8 13//8 24//8
f 18//8 9//8 23//8
f 18//8 24//8 13//8
f 19//8 10//8 20//8
f 25//8 14//8 17//8
f 14//8 26//8 20//8
f 21//8 27//8 15//8
f 22//8 21//8 8//8
f 22//8 16//8 28//8
f 16//8 19//8 28//8
f 23//8 15//8 27//8
f 25//8 17//8 24//8
f 29//8 18//8 23//8
f 29//8 24//8 18//8
f 19//8 20//8 26//8
f 30//8 14//8 25//8
f 14//8 30//8 26//8
f 31//8 27//8 21//8
f 32//8 21//8 22//8
f 28//8 33//8 22//8
f 19//8 26//8 28//8
f 23//8 27//8 29//8
f 24//8 34//8 25//8
f 35//8 24//8 29//8
f 30//8 25//8 34//8
f 28//8 26//8 30//8
f 31//8 35//8 27//8
f 32//8 31//8 21//8
f 22//8 33//8 32//8
f 28//8 30//8 33//8
f 35//8 29//8 27//8
f 24//8 35//8 34//8
f 33//8 30//8 34//8
f 36//8 35//8 31//8
f 31//8 32//8 36//8
f 32//8 33//8 36//8
f 36//8 34//8 35//8
f 33//8 34//8 36//8
usemtl material_2_0
f 14//3 6//3 10//3
f 12//3 19//3 10//3
f 6//3 14//3 17//3
f 14//3 10//3 20//3
f 16//3 19//3 12//3
f 9//3 23//3 15//3
f 24//3 13//3 17//3
f 23//3 9//3 18//3
f 13//3 24//3 18//3
f 20//3 10//3 19//3
f 17//3 14//3 25//3
f 15//3 27//3 21//3
f 28//3 16//3 22//3
f 28//3 19//3 16//3
f 27//3 15//3 23//3
f 24//3 17//3 25//3
f 23//3 18//3 29//3
f 18//3 24//3 29//3
f 25//3 14//3 30//3
f 26//3 30//3 14//3
f 21//3 27//3 31//3
f 22//3 33//3 28//3
f 28//3 26//3 19//3
f 29//3 24//3 35//3
f 30//3 26//3 28//3
f 21//3 31//3 32//3
f 32//3 33//3 22//3
f 34//3 35//3 24//3
f 36//3 32//3 31//3
f 36//3 33//3 32//3
f 35//3 34//3 36//3
f 36//3 34//3 33//3
