# SSTK version 0.8.0
# 14
mtllib original-14.mtl
o mesh12/mesh12-geometry#mesh12-geometry
v -0.053188 -0.147918 0.176909
v -0.056427 -0.147918 0.167233
v -0.056427 -0.147918 0.176909
v -0.056427 -0.147918 0.164335
v -0.066225 -0.147918 0.167233
v -0.018397 -0.147918 0.209829
v -0.056427 -0.147918 0.156986
v -0.066225 -0.147918 0.164335
v -0.066225 -0.147918 0.176909
v -0.053188 -0.147918 0.156986
v -0.066225 -0.147918 0.156986
v -0.069464 -0.147918 0.176909
v -0.018397 -0.147918 0.147390
v -0.069464 -0.147918 0.156986
v -0.080836 -0.147918 0.209829
v -0.014928 -0.154040 0.143921
v -0.080836 -0.147918 0.147390
v -0.084305 -0.154040 0.213297
v -0.014928 -0.154040 0.213297
v -0.084305 -0.154040 0.143921
vn 0 1 0
vn 0 -1 0
vn -0.8700219570848629 -0.493012975681396 0
vn 0 -0.49301297568139585 -0.870021957084863
vn 0 -0.49301297568139624 0.870021957084863
vn 0.8700219570848629 -0.493012975681396 0
vn 0.8700219570848629 0.493012975681396 0
vn 0 0.49301297568139585 0.870021957084863
vn 0 0.49301297568139624 -0.870021957084863
vn -0.8700219570848629 0.493012975681396 0
usemtl material_0_0
f 1//1 2//1 3//1
f 2//1 1//1 4//1
f 4//1 1//1 7//1
f 8//1 2//1 4//1
f 2//1 8//1 5//1
f 7//1 1//1 10//1
f 11//1 5//1 8//1
f 11//1 9//1 5//1
f 14//1 9//1 11//1
f 9//1 14//1 12//1
usemtl material_1_0
f 3//2 2//2 1//2
f 4//2 1//2 2//2
f 3//2 5//2 2//2
f 1//2 6//2 3//2
f 7//2 1//2 4//2
f 4//2 2//2 8//2
f 5//2 8//2 2//2
f 5//2 3//2 9//2
f 3//2 6//2 9//2
f 10//2 6//2 1//2
f 10//2 1//2 7//2
f 4//2 11//2 7//2
f 8//2 11//2 4//2
f 8//2 5//2 11//2
f 5//2 9//2 11//2
f 9//2 6//2 12//2
f 6//2 10//2 13//2
f 10//2 7//2 13//2
f 7//2 11//2 13//2
f 11//2 9//2 14//2
f 6//2 15//2 12//2
f 12//2 14//2 9//2
f 13//3 16//3 6//3
f 11//2 14//2 13//2
f 17//2 12//2 15//2
f 15//4 6//4 18//4
f 12//2 17//2 14//2
f 19//3 6//3 16//3
f 13//5 17//5 16//5
f 13//2 14//2 17//2
f 17//6 15//6 20//6
f 19//4 18//4 6//4
f 18//6 20//6 15//6
f 20//5 16//5 17//5
usemtl material_2_0
f 2//1 5//1 3//1
f 3//1 6//1 1//1
f 9//1 3//1 5//1
f 9//1 6//1 3//1
f 1//1 6//1 10//1
f 7//1 11//1 4//1
f 4//1 11//1 8//1
f 12//1 6//1 9//1
f 13//1 10//1 6//1
f 13//1 7//1 10//1
f 13//1 11//1 7//1
f 12//1 15//1 6//1
f 6//7 16//7 13//7
f 13//1 14//1 11//1
f 15//1 12//1 17//1
f 18//8 6//8 15//8
f 14//1 17//1 12//1
f 16//7 6//7 19//7
f 16//9 17//9 13//9
f 17//1 14//1 13//1
f 20//10 15//10 17//10
f 6//8 18//8 19//8
f 15//10 20//10 18//10
f 17//9 16//9 20//9
