# SSTK version 0.8.0
# 42
mtllib original-42.mtl
o mesh40/mesh40-geometry#mesh40-geometry
v 0.236686 -0.147918 0.092993
v 0.237639 -0.147918 0.091527
v 0.236240 -0.147918 0.092242
v 0.237980 -0.147918 0.092136
v 0.236240 -0.147918 0.090701
v 0.234959 -0.147918 0.099673
v 0.237918 -0.147918 0.093652
v 0.237992 -0.147918 0.090775
v 0.236686 -0.147918 0.089936
v 0.234959 -0.147918 0.084237
v 0.242099 -0.147918 0.099673
v 0.238819 -0.147918 0.093652
v 0.234613 -0.147918 0.084260
v 0.242126 -0.147918 0.100496
v 0.237918 -0.147918 0.089290
v 0.238732 -0.147918 0.092124
v 0.242099 -0.147918 0.084237
v 0.234613 -0.147918 0.099651
v 0.234932 -0.147918 0.083414
v 0.234932 -0.147918 0.100496
v 0.242445 -0.147918 0.099651
v 0.240029 -0.147918 0.092993
v 0.238819 -0.147918 0.089290
v 0.238732 -0.147918 0.090788
v 0.242126 -0.147918 0.083414
v 0.234274 -0.147918 0.084327
v 0.234506 -0.147918 0.083442
v 0.255028 -0.147918 0.136371
v 0.242552 -0.147918 0.100468
v 0.240496 -0.147918 0.092242
v 0.239071 -0.147918 0.091490
v 0.242445 -0.147918 0.084260
v 0.234274 -0.147918 0.099583
v 0.234506 -0.147918 0.100468
v 0.255028 -0.147918 0.073932
v 0.242784 -0.147918 0.099583
v 0.240496 -0.147918 0.090701
v 0.240054 -0.147918 0.089936
v 0.242552 -0.147918 0.083442
v 0.233946 -0.147918 0.084439
v 0.234060 -0.147918 0.083531
v 0.234060 -0.147918 0.100380
v 0.242998 -0.147918 0.100380
v 0.242784 -0.147918 0.084327
v 0.233946 -0.147918 0.099472
v 0.233630 -0.147918 0.083677
v 0.242998 -0.147918 0.083531
v 0.233630 -0.147918 0.100234
v 0.243428 -0.147918 0.100234
v 0.243112 -0.147918 0.099472
v 0.233635 -0.147918 0.084592
v 0.216497 -0.147918 0.088898
v 0.243428 -0.147918 0.083677
v 0.233223 -0.147918 0.100033
v 0.233635 -0.147918 0.099319
v 0.243835 -0.147918 0.100033
v 0.243112 -0.147918 0.084439
v 0.216364 -0.147918 0.087543
v 0.233223 -0.147918 0.083878
v 0.233347 -0.147918 0.084784
v 0.243835 -0.147918 0.083878
v 0.232845 -0.147918 0.099781
v 0.233347 -0.147918 0.099126
v 0.244213 -0.147918 0.099781
v 0.243711 -0.147918 0.099126
v 0.243423 -0.147918 0.099319
v 0.215966 -0.147918 0.086306
v 0.216364 -0.147918 0.090259
v 0.232845 -0.147918 0.084130
v 0.243423 -0.147918 0.084592
v 0.243711 -0.147918 0.084784
v 0.244213 -0.147918 0.084130
v 0.232504 -0.147918 0.099481
v 0.232859 -0.147918 0.098638
v 0.233087 -0.147918 0.098898
v 0.244554 -0.147918 0.099481
v 0.243971 -0.147918 0.098898
v 0.215333 -0.147918 0.085250
v 0.232504 -0.147918 0.084429
v 0.232859 -0.147918 0.085273
v 0.233087 -0.147918 0.085013
v 0.243971 -0.147918 0.085013
v 0.244554 -0.147918 0.084429
v 0.232204 -0.147918 0.099140
v 0.232513 -0.147918 0.098039
v 0.232666 -0.147918 0.098350
v 0.244854 -0.147918 0.099140
v 0.244392 -0.147918 0.098350
v 0.244199 -0.147918 0.098638
v 0.214496 -0.147918 0.084435
v 0.215966 -0.147918 0.091511
v 0.231952 -0.147918 0.098762
v 0.232204 -0.147918 0.084771
v 0.232513 -0.147918 0.085871
v 0.232666 -0.147918 0.085561
v 0.244199 -0.147918 0.085273
v 0.244392 -0.147918 0.085561
v 0.244854 -0.147918 0.084771
v 0.232334 -0.147918 0.097372
v 0.232402 -0.147918 0.097711
v 0.245106 -0.147918 0.098762
v 0.244656 -0.147918 0.097711
v 0.244545 -0.147918 0.098039
v 0.213668 -0.147918 0.083967
v 0.214496 -0.147918 0.093389
v 0.215333 -0.147918 0.092580
v 0.231751 -0.147918 0.098355
v 0.231952 -0.147918 0.085148
v 0.232334 -0.147918 0.086539
v 0.232402 -0.147918 0.086199
v 0.244545 -0.147918 0.085871
v 0.244656 -0.147918 0.086199
v 0.245106 -0.147918 0.085148
v 0.232312 -0.147918 0.097026
v 0.245307 -0.147918 0.098355
v 0.244724 -0.147918 0.097372
v 0.212707 -0.147918 0.083652
v 0.231751 -0.147918 0.085556
v 0.231605 -0.147918 0.097925
v 0.232312 -0.147918 0.086884
v 0.244724 -0.147918 0.086539
v 0.245307 -0.147918 0.085556
v 0.245453 -0.147918 0.097925
v 0.244746 -0.147918 0.086884
v 0.244746 -0.147918 0.097026
v 0.211392 -0.147918 0.083474
v 0.212923 -0.147918 0.087732
v 0.213668 -0.147918 0.093855
v 0.231605 -0.147918 0.085986
v 0.231517 -0.147918 0.097479
v 0.245453 -0.147918 0.085986
v 0.245541 -0.147918 0.097479
v 0.209502 -0.147918 0.083414
v 0.212203 -0.147918 0.086844
v 0.212623 -0.147918 0.087229
v 0.213163 -0.147918 0.089089
v 0.212707 -0.147918 0.094165
v 0.231517 -0.147918 0.086431
v 0.231489 -0.147918 0.097053
v 0.245541 -0.147918 0.086431
v 0.245569 -0.147918 0.097053
v 0.204603 -0.147918 0.083414
v 0.210841 -0.147918 0.086354
v 0.212938 -0.147918 0.090348
v 0.209502 -0.147918 0.094396
v 0.231489 -0.147918 0.086858
v 0.245569 -0.147918 0.086858
v 0.192589 -0.147918 0.073932
v 0.207842 -0.147918 0.086190
v 0.208672 -0.147918 0.086190
v 0.210917 -0.147918 0.091596
v 0.212265 -0.147918 0.091157
v 0.208862 -0.147918 0.094396
v 0.204603 -0.147918 0.103337
v 0.258497 -0.154040 0.070464
v 0.207638 -0.147918 0.094396
v 0.192589 -0.147918 0.136371
v 0.207638 -0.147918 0.103337
v 0.189120 -0.154040 0.070464
v 0.207842 -0.147918 0.091743
v 0.208672 -0.147918 0.091743
v 0.258497 -0.154040 0.139840
v 0.189120 -0.154040 0.139840
vn 0 1 0
vn 0 -1 0
vn 0 -0.49301297568139624 0.870021957084863
vn -0.8700219570848629 -0.493012975681396 0
vn 0.8700219570848629 -0.493012975681396 0
vn 0 -0.49301297568139585 -0.870021957084863
vn 0 0.49301297568139624 -0.870021957084863
vn 0.8700219570848629 0.493012975681396 0
vn -0.8700219570848629 0.493012975681396 0
vn 0 0.49301297568139585 0.870021957084863
usemtl material_0_0
f 1//1 2//1 3//1
f 2//1 1//1 4//1
f 8//1 2//1 4//1
f 2//1 9//1 5//1
f 12//1 4//1 7//1
f 9//1 2//1 8//1
f 4//1 12//1 8//1
f 6//1 14//1 11//1
f 8//1 12//1 16//1
f 19//1 13//1 10//1
f 6//1 20//1 14//1
f 11//1 14//1 21//1
f 8//1 23//1 15//1
f 24//1 8//1 16//1
f 25//1 10//1 17//1
f 18//1 20//1 6//1
f 27//1 13//1 19//1
f 19//1 10//1 25//1
f 21//1 14//1 29//1
f 23//1 8//1 24//1
f 31//1 16//1 22//1
f 16//1 31//1 24//1
f 25//1 17//1 32//1
f 27//1 26//1 13//1
f 18//1 34//1 20//1
f 21//1 29//1 36//1
f 31//1 22//1 30//1
f 31//1 38//1 24//1
f 25//1 32//1 39//1
f 33//1 34//1 18//1
f 41//1 26//1 27//1
f 36//1 29//1 43//1
f 38//1 31//1 37//1
f 39//1 32//1 44//1
f 41//1 40//1 26//1
f 33//1 42//1 34//1
f 36//1 43//1 50//1
f 39//1 44//1 47//1
f 45//1 42//1 33//1
f 41//1 51//1 40//1
f 46//1 51//1 41//1
f 55//1 48//1 42//1
f 50//1 43//1 49//1
f 47//1 44//1 57//1
f 55//1 42//1 45//1
f 46//1 60//1 51//1
f 47//1 57//1 53//1
f 63//1 54//1 48//1
f 63//1 48//1 55//1
f 65//1 49//1 56//1
f 50//1 49//1 66//1
f 58//1 68//1 52//1
f 59//1 60//1 46//1
f 53//1 57//1 70//1
f 53//1 71//1 61//1
f 74//1 62//1 54//1
f 75//1 54//1 63//1
f 77//1 56//1 64//1
f 66//1 49//1 65//1
f 65//1 56//1 77//1
f 67//1 68//1 58//1
f 69//1 80//1 59//1
f 59//1 81//1 60//1
f 53//1 70//1 71//1
f 61//1 71//1 82//1
f 61//1 82//1 72//1
f 85//1 73//1 62//1
f 86//1 62//1 74//1
f 74//1 54//1 75//1
f 88//1 64//1 76//1
f 77//1 64//1 89//1
f 78//1 91//1 67//1
f 67//1 91//1 68//1
f 79//1 94//1 69//1
f 69//1 95//1 80//1
f 59//1 80//1 81//1
f 72//1 82//1 96//1
f 72//1 97//1 83//1
f 99//1 84//1 73//1
f 100//1 73//1 85//1
f 85//1 62//1 86//1
f 102//1 76//1 87//1
f 89//1 64//1 88//1
f 88//1 76//1 103//1
f 90//1 105//1 78//1
f 78//1 106//1 91//1
f 93//1 109//1 79//1
f 79//1 110//1 94//1
f 69//1 94//1 95//1
f 72//1 96//1 97//1
f 83//1 97//1 111//1
f 83//1 112//1 98//1
f 108//1 92//1 84//1
f 114//1 84//1 99//1
f 99//1 73//1 100//1
f 98//1 87//1 101//1
f 103//1 76//1 102//1
f 102//1 87//1 116//1
f 104//1 105//1 90//1
f 78//1 105//1 106//1
f 118//1 107//1 92//1
f 108//1 84//1 93//1
f 109//1 93//1 120//1
f 79//1 109//1 110//1
f 83//1 111//1 112//1
f 98//1 112//1 121//1
f 98//1 101//1 113//1
f 118//1 92//1 108//1
f 93//1 84//1 114//1
f 113//1 101//1 115//1
f 98//1 124//1 87//1
f 116//1 87//1 125//1
f 117//1 127//1 104//1
f 104//1 128//1 105//1
f 129//1 107//1 118//1
f 129//1 119//1 107//1
f 120//1 93//1 114//1
f 98//1 121//1 124//1
f 113//1 115//1 122//1
f 122//1 115//1 123//1
f 125//1 87//1 124//1
f 126//1 134//1 117//1
f 117//1 135//1 127//1
f 104//1 127//1 136//1
f 104//1 136//1 128//1
f 138//1 119//1 129//1
f 138//1 130//1 119//1
f 122//1 123//1 131//1
f 131//1 123//1 132//1
f 133//1 143//1 126//1
f 126//1 143//1 134//1
f 117//1 134//1 135//1
f 144//1 128//1 136//1
f 144//1 137//1 128//1
f 146//1 130//1 138//1
f 130//1 146//1 139//1
f 131//1 132//1 140//1
f 140//1 132//1 141//1
f 142//1 149//1 133//1
f 133//1 150//1 143//1
f 151//1 145//1 137//1
f 152//1 137//1 144//1
f 140//1 141//1 147//1
f 142//1 156//1 149//1
f 133//1 149//1 150//1
f 151//1 153//1 145//1
f 151//1 137//1 152//1
f 158//1 142//1 154//1
f 142//1 158//1 156//1
f 149//1 156//1 160//1
f 153//1 160//1 156//1
f 161//1 153//1 151//1
f 160//1 153//1 161//1
usemtl material_1_0
f 3//2 2//2 1//2
f 4//2 1//2 2//2
f 3//2 5//2 2//2
f 1//2 6//2 3//2
f 7//2 1//2 4//2
f 4//2 2//2 8//2
f 5//2 9//2 2//2
f 3//2 10//2 5//2
f 3//2 6//2 10//2
f 11//2 6//2 1//2
f 7//2 11//2 1//2
f 7//2 4//2 12//2
f 8//2 2//2 9//2
f 8//2 12//2 4//2
f 5//2 10//2 9//2
f 10//2 6//2 13//2
f 11//2 14//2 6//2
f 12//2 11//2 7//2
f 9//2 15//2 8//2
f 16//2 12//2 8//2
f 17//2 9//2 10//2
f 6//2 18//2 13//2
f 10//2 13//2 19//2
f 14//2 20//2 6//2
f 21//2 14//2 11//2
f 22//2 11//2 12//2
f 15//2 23//2 8//2
f 15//2 9//2 17//2
f 12//2 16//2 22//2
f 16//2 8//2 24//2
f 17//2 10//2 25//2
f 13//2 18//2 26//2
f 6//2 20//2 18//2
f 19//2 13//2 27//2
f 25//2 10//2 19//2
f 14//2 28//2 20//2
f 29//2 14//2 21//2
f 21//2 11//2 17//2
f 30//2 11//2 22//2
f 24//2 8//2 23//2
f 23//2 15//2 17//2
f 22//2 16//2 31//2
f 24//2 31//2 16//2
f 32//2 17//2 25//2
f 18//2 33//2 26//2
f 13//2 26//2 27//2
f 20//2 34//2 18//2
f 19//2 27//2 35//2
f 25//2 19//2 35//2
f 20//2 28//2 34//2
f 29//2 28//2 14//2
f 36//2 29//2 21//2
f 11//2 37//2 17//2
f 32//2 21//2 17//2
f 37//2 11//2 30//2
f 30//2 22//2 31//2
f 24//2 23//2 38//2
f 38//2 23//2 17//2
f 24//2 38//2 31//2
f 39//2 32//2 25//2
f 26//2 33//2 40//2
f 18//2 34//2 33//2
f 27//2 26//2 41//2
f 27//2 41//2 35//2
f 39//2 25//2 35//2
f 34//2 28//2 42//2
f 43//2 28//2 29//2
f 43//2 29//2 36//2
f 36//2 21//2 32//2
f 37//2 38//2 17//2
f 30//2 31//2 37//2
f 37//2 31//2 38//2
f 44//2 32//2 39//2
f 33//2 45//2 40//2
f 26//2 40//2 41//2
f 34//2 42//2 33//2
f 41//2 46//2 35//2
f 47//2 39//2 35//2
f 42//2 28//2 48//2
f 49//2 28//2 43//2
f 50//2 43//2 36//2
f 44//2 36//2 32//2
f 47//2 44//2 39//2
f 40//2 45//2 51//2
f 33//2 42//2 45//2
f 40//2 51//2 41//2
f 46//2 52//2 35//2
f 41//2 51//2 46//2
f 53//2 47//2 35//2
f 48//2 28//2 54//2
f 42//2 48//2 55//2
f 56//2 28//2 49//2
f 49//2 43//2 50//2
f 50//2 36//2 44//2
f 57//2 44//2 47//2
f 45//2 55//2 51//2
f 45//2 42//2 55//2
f 52//2 58//2 35//2
f 59//2 52//2 46//2
f 51//2 60//2 46//2
f 53//2 57//2 47//2
f 61//2 53//2 35//2
f 54//2 28//2 62//2
f 48//2 54//2 63//2
f 55//2 48//2 63//2
f 64//2 28//2 56//2
f 56//2 49//2 65//2
f 66//2 49//2 50//2
f 57//2 50//2 44//2
f 51//2 55//2 60//2
f 58//2 67//2 35//2
f 52//2 68//2 58//2
f 69//2 52//2 59//2
f 46//2 60//2 59//2
f 70//2 57//2 53//2
f 61//2 71//2 53//2
f 72//2 61//2 35//2
f 62//2 28//2 73//2
f 54//2 62//2 74//2
f 63//2 54//2 75//2
f 55//2 63//2 60//2
f 76//2 28//2 64//2
f 64//2 56//2 77//2
f 65//2 49//2 66//2
f 77//2 56//2 65//2
f 66//2 50//2 57//2
f 67//2 78//2 35//2
f 58//2 68//2 67//2
f 52//2 28//2 68//2
f 79//2 52//2 69//2
f 59//2 80//2 69//2
f 60//2 81//2 59//2
f 70//2 66//2 57//2
f 71//2 70//2 53//2
f 82//2 71//2 61//2
f 72//2 82//2 61//2
f 83//2 72//2 35//2
f 73//2 28//2 84//2
f 62//2 73//2 85//2
f 74//2 62//2 86//2
f 75//2 54//2 74//2
f 63//2 75//2 81//2
f 60//2 63//2 81//2
f 87//2 28//2 76//2
f 76//2 64//2 88//2
f 89//2 64//2 77//2
f 65//2 66//2 70//2
f 77//2 65//2 71//2
f 78//2 90//2 35//2
f 67//2 91//2 78//2
f 68//2 91//2 67//2
f 68//2 28//2 91//2
f 92//2 28//2 52//2
f 93//2 52//2 79//2
f 69//2 94//2 79//2
f 80//2 95//2 69//2
f 81//2 80//2 59//2
f 71//2 65//2 70//2
f 82//2 77//2 71//2
f 96//2 82//2 72//2
f 83//2 97//2 72//2
f 98//2 83//2 35//2
f 84//2 28//2 92//2
f 73//2 84//2 99//2
f 85//2 73//2 100//2
f 86//2 62//2 85//2
f 74//2 86//2 95//2
f 75//2 74//2 80//2
f 81//2 75//2 80//2
f 101//2 28//2 87//2
f 87//2 76//2 102//2
f 88//2 64//2 89//2
f 103//2 76//2 88//2
f 89//2 77//2 82//2
f 90//2 104//2 35//2
f 78//2 105//2 90//2
f 91//2 106//2 78//2
f 91//2 28//2 106//2
f 107//2 92//2 52//2
f 108//2 52//2 93//2
f 79//2 109//2 93//2
f 94//2 110//2 79//2
f 95//2 94//2 69//2
f 80//2 74//2 95//2
f 96//2 89//2 82//2
f 97//2 96//2 72//2
f 111//2 97//2 83//2
f 98//2 112//2 83//2
f 113//2 98//2 35//2
f 84//2 92//2 108//2
f 99//2 84//2 114//2
f 100//2 73//2 99//2
f 85//2 100//2 110//2
f 86//2 85//2 94//2
f 95//2 86//2 94//2
f 115//2 28//2 101//2
f 101//2 87//2 98//2
f 102//2 76//2 103//2
f 116//2 87//2 102//2
f 88//2 89//2 96//2
f 103//2 88//2 97//2
f 104//2 117//2 35//2
f 90//2 105//2 104//2
f 106//2 105//2 78//2
f 106//2 28//2 105//2
f 92//2 107//2 118//2
f 119//2 107//2 52//2
f 118//2 52//2 108//2
f 93//2 84//2 108//2
f 120//2 93//2 109//2
f 110//2 109//2 79//2
f 94//2 85//2 110//2
f 97//2 88//2 96//2
f 111//2 103//2 97//2
f 112//2 111//2 83//2
f 121//2 112//2 98//2
f 113//2 101//2 98//2
f 122//2 113//2 35//2
f 108//2 92//2 118//2
f 114//2 84//2 93//2
f 114//2 120//2 99//2
f 100//2 99//2 109//2
f 110//2 100//2 109//2
f 123//2 28//2 115//2
f 115//2 101//2 113//2
f 87//2 124//2 98//2
f 102//2 103//2 111//2
f 125//2 87//2 116//2
f 116//2 102//2 112//2
f 117//2 126//2 35//2
f 104//2 127//2 117//2
f 105//2 128//2 104//2
f 105//2 28//2 128//2
f 118//2 107//2 129//2
f 107//2 119//2 129//2
f 130//2 119//2 52//2
f 129//2 52//2 118//2
f 114//2 93//2 120//2
f 109//2 99//2 120//2
f 112//2 102//2 111//2
f 121//2 116//2 112//2
f 124//2 121//2 98//2
f 122//2 115//2 113//2
f 131//2 122//2 35//2
f 132//2 28//2 123//2
f 123//2 115//2 122//2
f 124//2 87//2 125//2
f 125//2 116//2 121//2
f 126//2 133//2 35//2
f 117//2 134//2 126//2
f 127//2 135//2 117//2
f 136//2 127//2 104//2
f 128//2 136//2 104//2
f 128//2 28//2 137//2
f 129//2 119//2 138//2
f 119//2 130//2 138//2
f 139//2 130//2 52//2
f 138//2 52//2 129//2
f 124//2 125//2 121//2
f 131//2 123//2 122//2
f 140//2 131//2 35//2
f 141//2 28//2 132//2
f 132//2 123//2 131//2
f 133//2 142//2 35//2
f 126//2 143//2 133//2
f 134//2 143//2 126//2
f 135//2 134//2 117//2
f 127//2 144//2 135//2
f 136//2 144//2 127//2
f 136//2 128//2 144//2
f 137//2 28//2 145//2
f 128//2 137//2 144//2
f 138//2 130//2 146//2
f 139//2 146//2 130//2
f 139//2 52//2 146//2
f 146//2 52//2 138//2
f 140//2 132//2 131//2
f 147//2 140//2 35//2
f 147//2 28//2 141//2
f 141//2 132//2 140//2
f 35//2 142//2 148//2
f 133//2 149//2 142//2
f 143//2 150//2 133//2
f 134//2 151//2 143//2
f 135//2 152//2 134//2
f 144//2 152//2 135//2
f 145//2 28//2 153//2
f 137//2 145//2 151//2
f 144//2 137//2 152//2
f 147//2 141//2 140//2
f 28//2 147//2 35//2
f 154//2 148//2 142//2
f 35//3 148//3 155//3
f 149//2 156//2 142//2
f 150//2 149//2 133//2
f 143//2 151//2 150//2
f 152//2 151//2 134//2
f 153//2 28//2 156//2
f 145//2 153//2 151//2
f 152//2 137//2 151//2
f 35//4 155//4 28//4
f 148//2 154//2 157//2
f 154//2 142//2 158//2
f 159//3 155//3 148//3
f 156//2 158//2 142//2
f 160//2 156//2 149//2
f 150//2 161//2 149//2
f 151//2 161//2 150//2
f 156//2 28//2 158//2
f 156//2 160//2 153//2
f 151//2 153//2 161//2
f 162//4 28//4 155//4
f 28//2 157//2 154//2
f 148//5 157//5 159//5
f 158//2 28//2 154//2
f 160//2 149//2 161//2
f 161//2 153//2 160//2
f 162//6 163//6 28//6
f 157//6 28//6 163//6
f 163//5 159//5 157//5
usemtl material_2_0
f 2//1 5//1 3//1
f 3//1 6//1 1//1
f 4//1 1//1 7//1
f 5//1 10//1 3//1
f 10//1 6//1 3//1
f 1//1 6//1 11//1
f 1//1 11//1 7//1
f 9//1 10//1 5//1
f 13//1 6//1 10//1
f 7//1 11//1 12//1
f 8//1 15//1 9//1
f 10//1 9//1 17//1
f 13//1 18//1 6//1
f 12//1 11//1 22//1
f 17//1 9//1 15//1
f 22//1 16//1 12//1
f 26//1 18//1 13//1
f 20//1 28//1 14//1
f 17//1 11//1 21//1
f 22//1 11//1 30//1
f 17//1 15//1 23//1
f 26//1 33//1 18//1
f 35//1 27//1 19//1
f 35//1 19//1 25//1
f 34//1 28//1 20//1
f 14//1 28//1 29//1
f 17//1 37//1 11//1
f 17//1 21//1 32//1
f 30//1 11//1 37//1
f 38//1 23//1 24//1
f 17//1 23//1 38//1
f 40//1 33//1 26//1
f 35//1 41//1 27//1
f 35//1 25//1 39//1
f 42//1 28//1 34//1
f 29//1 28//1 43//1
f 32//1 21//1 36//1
f 17//1 38//1 37//1
f 37//1 31//1 30//1
f 40//1 45//1 33//1
f 35//1 46//1 41//1
f 35//1 39//1 47//1
f 48//1 28//1 42//1
f 43//1 28//1 49//1
f 32//1 36//1 44//1
f 51//1 45//1 40//1
f 35//1 52//1 46//1
f 35//1 47//1 53//1
f 54//1 28//1 48//1
f 49//1 28//1 56//1
f 44//1 36//1 50//1
f 51//1 55//1 45//1
f 35//1 58//1 52//1
f 46//1 52//1 59//1
f 35//1 53//1 61//1
f 62//1 28//1 54//1
f 56//1 28//1 64//1
f 44//1 50//1 57//1
f 60//1 55//1 51//1
f 35//1 67//1 58//1
f 59//1 52//1 69//1
f 35//1 61//1 72//1
f 73//1 28//1 62//1
f 60//1 63//1 55//1
f 64//1 28//1 76//1
f 57//1 50//1 66//1
f 35//1 78//1 67//1
f 68//1 28//1 52//1
f 69//1 52//1 79//1
f 57//1 66//1 70//1
f 35//1 72//1 83//1
f 84//1 28//1 73//1
f 81//1 75//1 63//1
f 81//1 63//1 60//1
f 76//1 28//1 87//1
f 70//1 66//1 65//1
f 71//1 65//1 77//1
f 35//1 90//1 78//1
f 91//1 28//1 68//1
f 52//1 28//1 92//1
f 79//1 52//1 93//1
f 70//1 65//1 71//1
f 71//1 77//1 82//1
f 35//1 83//1 98//1
f 92//1 28//1 84//1
f 95//1 86//1 74//1
f 80//1 74//1 75//1
f 80//1 75//1 81//1
f 87//1 28//1 101//1
f 82//1 77//1 89//1
f 35//1 104//1 90//1
f 106//1 28//1 91//1
f 52//1 92//1 107//1
f 93//1 52//1 108//1
f 95//1 74//1 80//1
f 82//1 89//1 96//1
f 35//1 98//1 113//1
f 110//1 100//1 85//1
f 94//1 85//1 86//1
f 94//1 86//1 95//1
f 101//1 28//1 115//1
f 96//1 89//1 88//1
f 97//1 88//1 103//1
f 35//1 117//1 104//1
f 105//1 28//1 106//1
f 52//1 107//1 119//1
f 108//1 52//1 118//1
f 110//1 85//1 94//1
f 96//1 88//1 97//1
f 97//1 103//1 111//1
f 35//1 113//1 122//1
f 99//1 120//1 114//1
f 109//1 99//1 100//1
f 109//1 100//1 110//1
f 115//1 28//1 123//1
f 111//1 103//1 102//1
f 112//1 102//1 116//1
f 35//1 126//1 117//1
f 128//1 28//1 105//1
f 52//1 119//1 130//1
f 118//1 52//1 129//1
f 120//1 99//1 109//1
f 111//1 102//1 112//1
f 112//1 116//1 121//1
f 35//1 122//1 131//1
f 123//1 28//1 132//1
f 121//1 116//1 125//1
f 35//1 133//1 126//1
f 137//1 28//1 128//1
f 52//1 130//1 139//1
f 129//1 52//1 138//1
f 121//1 125//1 124//1
f 35//1 131//1 140//1
f 132//1 28//1 141//1
f 35//1 142//1 133//1
f 135//1 144//1 127//1
f 127//1 144//1 136//1
f 145//1 28//1 137//1
f 146//1 52//1 139//1
f 138//1 52//1 146//1
f 35//1 140//1 147//1
f 141//1 28//1 147//1
f 148//1 142//1 35//1
f 143//1 151//1 134//1
f 134//1 152//1 135//1
f 135//1 152//1 144//1
f 153//1 28//1 145//1
f 35//1 147//1 28//1
f 142//1 148//1 154//1
f 155//7 148//7 35//7
f 150//1 151//1 143//1
f 134//1 151//1 152//1
f 156//1 28//1 153//1
f 28//8 155//8 35//8
f 157//1 154//1 148//1
f 148//7 155//7 159//7
f 149//1 161//1 150//1
f 150//1 161//1 151//1
f 158//1 28//1 156//1
f 155//8 28//8 162//8
f 154//1 157//1 28//1
f 159//9 157//9 148//9
f 154//1 28//1 158//1
f 161//1 149//1 160//1
f 28//10 163//10 162//10
f 163//10 28//10 157//10
f 157//9 159//9 163//9
