# SSTK version 0.8.0
# 31
mtllib original-31.mtl
o mesh29/mesh29-geometry#mesh29-geometry
v 0.042522 -0.147918 0.249575
v 0.044250 -0.147918 0.228809
v 0.039542 -0.147918 0.249575
v 0.044659 -0.147918 0.239764
v 0.029350 -0.147918 0.220847
v 0.091789 -0.147918 0.283286
v 0.051218 -0.147918 0.250378
v 0.045026 -0.147918 0.237015
v 0.091789 -0.147918 0.220847
v 0.029350 -0.147918 0.283286
v 0.044924 -0.147918 0.238328
v 0.050129 -0.147918 0.241383
v 0.058104 -0.147918 0.228809
v 0.095258 -0.154040 0.217378
v 0.025882 -0.154040 0.217378
v 0.025882 -0.154040 0.286755
v 0.059914 -0.147918 0.249575
v 0.046006 -0.147918 0.239546
v 0.045441 -0.147918 0.238253
v 0.072177 -0.147918 0.229942
v 0.095258 -0.154040 0.286755
v 0.062921 -0.147918 0.249575
v 0.056430 -0.147918 0.239764
v 0.050544 -0.147918 0.242376
v 0.071769 -0.147918 0.230143
v 0.072607 -0.147918 0.229796
v 0.084116 -0.147918 0.233123
v 0.070498 -0.147918 0.245028
v 0.056995 -0.147918 0.238375
v 0.051218 -0.147918 0.244091
v 0.052361 -0.147918 0.241369
v 0.071392 -0.147918 0.230395
v 0.071894 -0.147918 0.231050
v 0.072182 -0.147918 0.230857
v 0.073052 -0.147918 0.229708
v 0.084088 -0.147918 0.232697
v 0.084116 -0.147918 0.243318
v 0.070751 -0.147918 0.245405
v 0.070297 -0.147918 0.244620
v 0.057709 -0.147918 0.239736
v 0.070297 -0.147918 0.231821
v 0.052116 -0.147918 0.241914
v 0.071050 -0.147918 0.230695
v 0.071405 -0.147918 0.231538
v 0.071633 -0.147918 0.231278
v 0.072492 -0.147918 0.230704
v 0.072820 -0.147918 0.230593
v 0.073478 -0.147918 0.229680
v 0.083999 -0.147918 0.232251
v 0.084088 -0.147918 0.243745
v 0.071050 -0.147918 0.245747
v 0.070498 -0.147918 0.231414
v 0.070151 -0.147918 0.244190
v 0.057532 -0.147918 0.238457
v 0.070151 -0.147918 0.232251
v 0.057342 -0.147918 0.237015
v 0.070751 -0.147918 0.231036
v 0.071059 -0.147918 0.232137
v 0.071213 -0.147918 0.231826
v 0.071894 -0.147918 0.245392
v 0.072182 -0.147918 0.245584
v 0.072492 -0.147918 0.245737
v 0.073160 -0.147918 0.230525
v 0.080672 -0.147918 0.229680
v 0.083853 -0.147918 0.231821
v 0.083999 -0.147918 0.244190
v 0.071392 -0.147918 0.246046
v 0.070880 -0.147918 0.243637
v 0.070063 -0.147918 0.243745
v 0.070063 -0.147918 0.232697
v 0.070880 -0.147918 0.232804
v 0.070948 -0.147918 0.232465
v 0.071405 -0.147918 0.244903
v 0.071633 -0.147918 0.245163
v 0.072820 -0.147918 0.245849
v 0.073160 -0.147918 0.245916
v 0.073505 -0.147918 0.230503
v 0.081098 -0.147918 0.229708
v 0.083652 -0.147918 0.231414
v 0.083853 -0.147918 0.244620
v 0.071769 -0.147918 0.246298
v 0.071059 -0.147918 0.244305
v 0.070858 -0.147918 0.243291
v 0.070948 -0.147918 0.243977
v 0.070035 -0.147918 0.243318
v 0.070035 -0.147918 0.233123
v 0.070858 -0.147918 0.233150
v 0.071213 -0.147918 0.244615
v 0.072177 -0.147918 0.246499
v 0.072607 -0.147918 0.246645
v 0.073505 -0.147918 0.245939
v 0.073383 -0.147918 0.237735
v 0.080645 -0.147918 0.230503
v 0.080991 -0.147918 0.230525
v 0.081544 -0.147918 0.229796
v 0.083400 -0.147918 0.231036
v 0.083652 -0.147918 0.245028
v 0.073052 -0.147918 0.246734
v 0.073478 -0.147918 0.246762
v 0.073446 -0.147918 0.236530
v 0.075572 -0.147918 0.232690
v 0.081330 -0.147918 0.230593
v 0.081974 -0.147918 0.229942
v 0.083100 -0.147918 0.230695
v 0.083400 -0.147918 0.245405
v 0.080672 -0.147918 0.246762
v 0.073445 -0.147918 0.238949
v 0.073633 -0.147918 0.235466
v 0.074928 -0.147918 0.233136
v 0.076314 -0.147918 0.232423
v 0.080825 -0.147918 0.236597
v 0.081330 -0.147918 0.245849
v 0.081658 -0.147918 0.230704
v 0.082381 -0.147918 0.230143
v 0.082759 -0.147918 0.230395
v 0.083202 -0.147918 0.232465
v 0.083100 -0.147918 0.245747
v 0.080645 -0.147918 0.245939
v 0.073630 -0.147918 0.240019
v 0.073944 -0.147918 0.234542
v 0.074381 -0.147918 0.233759
v 0.075211 -0.147918 0.236028
v 0.075606 -0.147918 0.234785
v 0.077152 -0.147918 0.232334
v 0.080644 -0.147918 0.235499
v 0.080886 -0.147918 0.237849
v 0.080991 -0.147918 0.245916
v 0.081658 -0.147918 0.245737
v 0.081969 -0.147918 0.230857
v 0.082257 -0.147918 0.231050
v 0.082938 -0.147918 0.231826
v 0.083091 -0.147918 0.232137
v 0.083270 -0.147918 0.232804
v 0.083293 -0.147918 0.233150
v 0.082759 -0.147918 0.246046
v 0.083202 -0.147918 0.243977
v 0.081098 -0.147918 0.246734
v 0.075554 -0.147918 0.242794
v 0.073938 -0.147918 0.240946
v 0.074913 -0.147918 0.242350
v 0.075079 -0.147918 0.237749
v 0.075376 -0.147918 0.235347
v 0.075902 -0.147918 0.234346
v 0.076682 -0.147918 0.233843
v 0.077999 -0.147918 0.232423
v 0.080341 -0.147918 0.234554
v 0.080823 -0.147918 0.239025
v 0.081544 -0.147918 0.246645
v 0.081969 -0.147918 0.245584
v 0.082517 -0.147918 0.231278
v 0.082746 -0.147918 0.231538
v 0.083270 -0.147918 0.243637
v 0.083293 -0.147918 0.243291
v 0.082381 -0.147918 0.246298
v 0.082938 -0.147918 0.244615
v 0.083091 -0.147918 0.244305
v 0.076293 -0.147918 0.243061
v 0.074370 -0.147918 0.241728
v 0.075210 -0.147918 0.239431
v 0.075374 -0.147918 0.240106
v 0.075603 -0.147918 0.240670
v 0.075893 -0.147918 0.241116
v 0.076260 -0.147918 0.234032
v 0.077167 -0.147918 0.233781
v 0.078741 -0.147918 0.232691
v 0.079917 -0.147918 0.233763
v 0.080636 -0.147918 0.240066
v 0.081974 -0.147918 0.246499
v 0.082257 -0.147918 0.245392
v 0.082517 -0.147918 0.245163
v 0.082746 -0.147918 0.244903
v 0.077131 -0.147918 0.243150
v 0.076240 -0.147918 0.241434
v 0.076643 -0.147918 0.241625
v 0.077103 -0.147918 0.241689
v 0.077632 -0.147918 0.233844
v 0.078039 -0.147918 0.234033
v 0.079381 -0.147918 0.233138
v 0.080323 -0.147918 0.240972
v 0.077960 -0.147918 0.243062
v 0.077590 -0.147918 0.241627
v 0.078386 -0.147918 0.234348
v 0.078900 -0.147918 0.235350
v 0.079885 -0.147918 0.241743
v 0.078696 -0.147918 0.242798
v 0.078014 -0.147918 0.241441
v 0.078372 -0.147918 0.241130
v 0.078674 -0.147918 0.234789
v 0.079061 -0.147918 0.236026
v 0.079337 -0.147918 0.242358
v 0.078666 -0.147918 0.240695
v 0.078896 -0.147918 0.240137
v 0.079059 -0.147918 0.239455
v 0.079190 -0.147918 0.237721
vn 0 1 0
vn 0 -1 0
vn 0 -0.49301297568139624 0.870021957084863
vn 0.8700219570848629 -0.493012975681396 0
vn 0 -0.49301297568139585 -0.870021957084863
vn -0.8700219570848629 -0.493012975681396 0
vn 0 0.49301297568139624 -0.870021957084863
vn -0.8700219570848629 0.493012975681396 0
vn 0 0.49301297568139585 0.870021957084863
vn 0.8700219570848629 0.493012975681396 0
usemtl material_0_0
f 1//1 2//1 3//1
f 2//1 1//1 4//1
f 2//1 4//1 8//1
f 8//1 4//1 11//1
f 2//1 8//1 12//1
f 12//1 8//1 19//1
f 12//1 18//1 7//1
f 12//1 19//1 18//1
f 13//1 17//1 22//1
f 30//1 7//1 23//1
f 12//1 7//1 24//1
f 25//1 33//1 20//1
f 20//1 34//1 26//1
f 13//1 40//1 17//1
f 13//1 23//1 29//1
f 24//1 7//1 30//1
f 30//1 23//1 42//1
f 31//1 23//1 13//1
f 32//1 44//1 25//1
f 25//1 45//1 33//1
f 20//1 33//1 34//1
f 26//1 34//1 46//1
f 26//1 47//1 35//1
f 36//1 37//1 27//1
f 52//1 28//1 38//1
f 41//1 39//1 28//1
f 13//1 54//1 40//1
f 13//1 29//1 56//1
f 42//1 23//1 31//1
f 43//1 58//1 32//1
f 32//1 59//1 44//1
f 25//1 44//1 45//1
f 26//1 46//1 47//1
f 35//1 47//1 63//1
f 35//1 63//1 48//1
f 49//1 50//1 36//1
f 36//1 50//1 37//1
f 68//1 38//1 51//1
f 41//1 28//1 52//1
f 52//1 38//1 57//1
f 55//1 39//1 41//1
f 55//1 53//1 39//1
f 13//1 56//1 54//1
f 57//1 71//1 43//1
f 43//1 72//1 58//1
f 32//1 58//1 59//1
f 48//1 63//1 77//1
f 48//1 77//1 64//1
f 65//1 66//1 49//1
f 49//1 66//1 50//1
f 82//1 51//1 67//1
f 83//1 38//1 68//1
f 68//1 51//1 84//1
f 57//1 38//1 83//1
f 70//1 53//1 55//1
f 70//1 69//1 53//1
f 71//1 57//1 87//1
f 43//1 71//1 72//1
f 74//1 81//1 60//1
f 60//1 89//1 61//1
f 61//1 90//1 62//1
f 62//1 90//1 75//1
f 64//1 77//1 93//1
f 64//1 94//1 78//1
f 79//1 80//1 65//1
f 65//1 80//1 66//1
f 73//1 67//1 81//1
f 84//1 51//1 82//1
f 82//1 67//1 88//1
f 87//1 57//1 83//1
f 86//1 69//1 70//1
f 69//1 86//1 85//1
f 88//1 67//1 73//1
f 73//1 81//1 74//1
f 60//1 81//1 89//1
f 61//1 89//1 90//1
f 75//1 90//1 98//1
f 75//1 98//1 76//1
f 76//1 99//1 91//1
f 64//1 93//1 94//1
f 78//1 94//1 102//1
f 78//1 102//1 95//1
f 96//1 97//1 79//1
f 79//1 97//1 80//1
f 76//1 98//1 99//1
f 91//1 99//1 106//1
f 107//1 100//1 92//1
f 95//1 102//1 113//1
f 95//1 113//1 103//1
f 104//1 116//1 96//1
f 96//1 105//1 97//1
f 91//1 106//1 118//1
f 100//1 107//1 119//1
f 100//1 119//1 108//1
f 109//1 122//1 101//1
f 101//1 123//1 110//1
f 103//1 113//1 129//1
f 103//1 130//1 114//1
f 115//1 131//1 104//1
f 104//1 132//1 116//1
f 96//1 116//1 133//1
f 96//1 134//1 105//1
f 136//1 117//1 105//1
f 118//1 106//1 127//1
f 108//1 119//1 139//1
f 108//1 139//1 120//1
f 121//1 140//1 109//1
f 122//1 109//1 141//1
f 101//1 122//1 142//1
f 101//1 142//1 123//1
f 110//1 123//1 143//1
f 110//1 144//1 124//1
f 125//1 147//1 111//1
f 111//1 147//1 126//1
f 127//1 137//1 112//1
f 112//1 148//1 128//1
f 103//1 129//1 130//1
f 114//1 130//1 150//1
f 114//1 150//1 115//1
f 115//1 151//1 131//1
f 104//1 131//1 132//1
f 96//1 133//1 134//1
f 153//1 105//1 134//1
f 155//1 135//1 117//1
f 156//1 117//1 136//1
f 136//1 105//1 152//1
f 127//1 106//1 137//1
f 120//1 139//1 158//1
f 120//1 158//1 121//1
f 121//1 158//1 140//1
f 109//1 140//1 141//1
f 110//1 143//1 163//1
f 110//1 163//1 144//1
f 124//1 144//1 164//1
f 124//1 164//1 145//1
f 146//1 167//1 125//1
f 125//1 167//1 147//1
f 112//1 137//1 148//1
f 128//1 148//1 168//1
f 128//1 168//1 149//1
f 115//1 150//1 151//1
f 152//1 105//1 153//1
f 170//1 154//1 135//1
f 171//1 135//1 155//1
f 155//1 117//1 156//1
f 159//1 140//1 138//1
f 161//1 138//1 157//1
f 141//1 140//1 159//1
f 145//1 164//1 176//1
f 145//1 177//1 165//1
f 166//1 179//1 146//1
f 146//1 179//1 167//1
f 149//1 168//1 169//1
f 169//1 168//1 154//1
f 169//1 154//1 170//1
f 170//1 135//1 171//1
f 159//1 138//1 160//1
f 174//1 157//1 172//1
f 160//1 138//1 161//1
f 161//1 157//1 162//1
f 162//1 157//1 173//1
f 145//1 176//1 177//1
f 165//1 177//1 182//1
f 165//1 183//1 178//1
f 178//1 184//1 166//1
f 166//1 184//1 179//1
f 181//1 172//1 180//1
f 173//1 157//1 174//1
f 174//1 172//1 175//1
f 175//1 172//1 181//1
f 165//1 182//1 188//1
f 165//1 188//1 183//1
f 178//1 183//1 189//1
f 178//1 190//1 184//1
f 186//1 180//1 185//1
f 181//1 180//1 186//1
f 178//1 189//1 194//1
f 178//1 194//1 190//1
f 192//1 185//1 190//1
f 186//1 185//1 187//1
f 187//1 185//1 191//1
f 193//1 190//1 194//1
f 191//1 185//1 192//1
f 192//1 190//1 193//1
usemtl material_1_0
f 3//2 2//2 1//2
f 4//2 1//2 2//2
f 3//2 5//2 2//2
f 1//2 6//2 3//2
f 4//2 7//2 1//2
f 8//2 4//2 2//2
f 9//2 2//2 5//2
f 5//2 3//2 10//2
f 6//2 10//2 3//2
f 7//2 6//2 1//2
f 11//2 7//2 4//2
f 11//2 4//2 8//2
f 12//2 8//2 2//2
f 13//2 2//2 9//2
f 9//3 5//3 14//3
f 5//4 10//4 15//4
f 10//5 6//5 16//5
f 17//2 6//2 7//2
f 18//2 7//2 11//2
f 8//2 19//2 11//2
f 19//2 8//2 12//2
f 12//2 2//2 13//2
f 20//2 13//2 9//2
f 15//3 14//3 5//3
f 9//6 14//6 6//6
f 16//4 15//4 10//4
f 21//5 16//5 6//5
f 22//2 6//2 17//2
f 23//2 17//2 7//2
f 7//2 18//2 12//2
f 19//2 18//2 11//2
f 18//2 19//2 12//2
f 24//2 12//2 13//2
f 25//2 13//2 20//2
f 26//2 20//2 9//2
f 21//6 6//6 14//6
f 6//2 27//2 9//2
f 28//2 6//2 22//2
f 22//2 17//2 13//2
f 29//2 17//2 23//2
f 23//2 7//2 30//2
f 24//2 7//2 12//2
f 31//2 24//2 13//2
f 32//2 13//2 25//2
f 20//2 33//2 25//2
f 26//2 34//2 20//2
f 35//2 26//2 9//2
f 27//2 36//2 9//2
f 27//2 6//2 37//2
f 38//2 6//2 28//2
f 39//2 28//2 22//2
f 17//2 40//2 13//2
f 22//2 13//2 41//2
f 40//2 17//2 29//2
f 29//2 23//2 13//2
f 30//2 7//2 24//2
f 42//2 23//2 30//2
f 42//2 24//2 31//2
f 13//2 23//2 31//2
f 43//2 13//2 32//2
f 25//2 44//2 32//2
f 33//2 45//2 25//2
f 34//2 33//2 20//2
f 46//2 34//2 26//2
f 35//2 47//2 26//2
f 48//2 35//2 9//2
f 36//2 49//2 9//2
f 27//2 37//2 36//2
f 37//2 6//2 50//2
f 51//2 6//2 38//2
f 38//2 28//2 52//2
f 28//2 39//2 41//2
f 53//2 39//2 22//2
f 40//2 54//2 13//2
f 41//2 13//2 52//2
f 55//2 22//2 41//2
f 54//2 40//2 29//2
f 56//2 29//2 13//2
f 30//2 24//2 42//2
f 31//2 23//2 42//2
f 57//2 13//2 43//2
f 32//2 58//2 43//2
f 44//2 59//2 32//2
f 45//2 44//2 25//2
f 33//2 60//2 45//2
f 34//2 61//2 33//2
f 46//2 62//2 34//2
f 47//2 46//2 26//2
f 63//2 47//2 35//2
f 48//2 63//2 35//2
f 64//2 48//2 9//2
f 49//2 65//2 9//2
f 36//2 50//2 49//2
f 37//2 50//2 36//2
f 50//2 6//2 66//2
f 67//2 6//2 51//2
f 51//2 38//2 68//2
f 52//2 28//2 41//2
f 57//2 38//2 52//2
f 41//2 39//2 55//2
f 39//2 53//2 55//2
f 69//2 53//2 22//2
f 54//2 56//2 13//2
f 52//2 13//2 57//2
f 70//2 22//2 55//2
f 56//2 54//2 29//2
f 43//2 71//2 57//2
f 58//2 72//2 43//2
f 59//2 58//2 32//2
f 44//2 73//2 59//2
f 45//2 74//2 44//2
f 60//2 74//2 45//2
f 61//2 60//2 33//2
f 62//2 61//2 34//2
f 75//2 62//2 46//2
f 47//2 75//2 46//2
f 63//2 76//2 47//2
f 77//2 63//2 48//2
f 64//2 77//2 48//2
f 78//2 64//2 9//2
f 65//2 79//2 9//2
f 49//2 66//2 65//2
f 50//2 66//2 49//2
f 66//2 6//2 80//2
f 81//2 6//2 67//2
f 67//2 51//2 82//2
f 68//2 38//2 83//2
f 84//2 51//2 68//2
f 83//2 38//2 57//2
f 55//2 53//2 70//2
f 53//2 69//2 70//2
f 85//2 69//2 22//2
f 86//2 22//2 70//2
f 87//2 57//2 71//2
f 72//2 71//2 43//2
f 58//2 82//2 72//2
f 59//2 88//2 58//2
f 73//2 88//2 59//2
f 74//2 73//2 44//2
f 60//2 81//2 74//2
f 61//2 89//2 60//2
f 62//2 90//2 61//2
f 75//2 90//2 62//2
f 76//2 75//2 47//2
f 91//2 76//2 63//2
f 63//2 77//2 92//2
f 93//2 77//2 64//2
f 78//2 94//2 64//2
f 95//2 78//2 9//2
f 79//2 96//2 9//2
f 65//2 80//2 79//2
f 66//2 80//2 65//2
f 80//2 6//2 97//2
f 89//2 6//2 81//2
f 81//2 67//2 73//2
f 82//2 51//2 84//2
f 88//2 67//2 82//2
f 83//2 87//2 68//2
f 84//2 68//2 71//2
f 83//2 57//2 87//2
f 70//2 69//2 86//2
f 85//2 86//2 69//2
f 85//2 22//2 86//2
f 71//2 68//2 87//2
f 72//2 84//2 71//2
f 82//2 84//2 72//2
f 88//2 82//2 58//2
f 73//2 67//2 88//2
f 74//2 81//2 73//2
f 89//2 81//2 60//2
f 90//2 89//2 61//2
f 98//2 90//2 75//2
f 76//2 98//2 75//2
f 91//2 99//2 76//2
f 92//2 91//2 63//2
f 100//2 92//2 77//2
f 93//2 101//2 77//2
f 94//2 93//2 64//2
f 102//2 94//2 78//2
f 95//2 102//2 78//2
f 103//2 95//2 9//2
f 96//2 104//2 9//2
f 79//2 97//2 96//2
f 80//2 97//2 79//2
f 97//2 6//2 105//2
f 90//2 6//2 89//2
f 98//2 6//2 90//2
f 99//2 98//2 76//2
f 106//2 99//2 91//2
f 107//2 91//2 92//2
f 92//2 100//2 107//2
f 108//2 100//2 77//2
f 101//2 109//2 77//2
f 110//2 101//2 93//2
f 94//2 111//2 93//2
f 102//2 112//2 94//2
f 113//2 102//2 95//2
f 103//2 113//2 95//2
f 114//2 103//2 9//2
f 104//2 115//2 9//2
f 96//2 116//2 104//2
f 97//2 105//2 96//2
f 105//2 6//2 117//2
f 99//2 6//2 98//2
f 106//2 6//2 99//2
f 118//2 106//2 91//2
f 119//2 91//2 107//2
f 119//2 107//2 100//2
f 108//2 119//2 100//2
f 120//2 108//2 77//2
f 109//2 121//2 77//2
f 101//2 122//2 109//2
f 110//2 123//2 101//2
f 124//2 110//2 93//2
f 111//2 125//2 93//2
f 126//2 111//2 94//2
f 112//2 127//2 94//2
f 128//2 112//2 102//2
f 113//2 128//2 102//2
f 129//2 113//2 103//2
f 114//2 130//2 103//2
f 115//2 114//2 9//2
f 104//2 131//2 115//2
f 116//2 132//2 104//2
f 133//2 116//2 96//2
f 105//2 134//2 96//2
f 117//2 6//2 135//2
f 105//2 117//2 136//2
f 137//2 6//2 106//2
f 127//2 106//2 118//2
f 118//2 91//2 138//2
f 139//2 91//2 119//2
f 139//2 119//2 108//2
f 120//2 139//2 108//2
f 121//2 120//2 77//2
f 109//2 140//2 121//2
f 141//2 109//2 122//2
f 142//2 122//2 101//2
f 123//2 142//2 101//2
f 143//2 123//2 110//2
f 124//2 144//2 110//2
f 145//2 124//2 93//2
f 125//2 146//2 93//2
f 111//2 147//2 125//2
f 126//2 147//2 111//2
f 127//2 126//2 94//2
f 112//2 137//2 127//2
f 128//2 148//2 112//2
f 149//2 128//2 113//2
f 129//2 149//2 113//2
f 130//2 129//2 103//2
f 150//2 130//2 114//2
f 115//2 150//2 114//2
f 131//2 151//2 115//2
f 132//2 131//2 104//2
f 116//2 136//2 132//2
f 133//2 152//2 116//2
f 134//2 133//2 96//2
f 134//2 105//2 153//2
f 135//2 6//2 154//2
f 117//2 135//2 155//2
f 136//2 117//2 156//2
f 152//2 105//2 136//2
f 148//2 6//2 137//2
f 137//2 106//2 127//2
f 127//2 118//2 147//2
f 138//2 91//2 140//2
f 157//2 118//2 138//2
f 158//2 91//2 139//2
f 158//2 139//2 120//2
f 121//2 158//2 120//2
f 140//2 158//2 121//2
f 141//2 140//2 109//2
f 141//2 122//2 159//2
f 142//2 160//2 122//2
f 123//2 161//2 142//2
f 143//2 162//2 123//2
f 163//2 143//2 110//2
f 144//2 163//2 110//2
f 164//2 144//2 124//2
f 145//2 164//2 124//2
f 165//2 145//2 93//2
f 146//2 166//2 93//2
f 125//2 167//2 146//2
f 147//2 167//2 125//2
f 126//2 127//2 147//2
f 148//2 137//2 112//2
f 168//2 148//2 128//2
f 149//2 168//2 128//2
f 169//2 149//2 129//2
f 130//2 169//2 129//2
f 150//2 170//2 130//2
f 151//2 150//2 115//2
f 131//2 155//2 151//2
f 132//2 156//2 131//2
f 136//2 156//2 132//2
f 152//2 136//2 116//2
f 153//2 152//2 133//2
f 134//2 153//2 133//2
f 153//2 105//2 152//2
f 154//2 6//2 168//2
f 135//2 154//2 170//2
f 155//2 135//2 171//2
f 156//2 117//2 155//2
f 168//2 6//2 148//2
f 147//2 118//2 167//2
f 140//2 91//2 158//2
f 138//2 140//2 159//2
f 172//2 118//2 157//2
f 157//2 138//2 161//2
f 159//2 140//2 141//2
f 160//2 159//2 122//2
f 161//2 160//2 142//2
f 162//2 161//2 123//2
f 173//2 162//2 143//2
f 163//2 173//2 143//2
f 144//2 174//2 163//2
f 164//2 175//2 144//2
f 176//2 164//2 145//2
f 165//2 177//2 145//2
f 178//2 165//2 93//2
f 166//2 178//2 93//2
f 146//2 179//2 166//2
f 167//2 179//2 146//2
f 169//2 168//2 149//2
f 170//2 169//2 130//2
f 171//2 170//2 150//2
f 151//2 171//2 150//2
f 155//2 171//2 151//2
f 156//2 155//2 131//2
f 154//2 168//2 169//2
f 170//2 154//2 169//2
f 171//2 135//2 170//2
f 167//2 118//2 179//2
f 160//2 138//2 159//2
f 180//2 118//2 172//2
f 172//2 157//2 174//2
f 161//2 138//2 160//2
f 162//2 157//2 161//2
f 173//2 157//2 162//2
f 174//2 173//2 163//2
f 175//2 174//2 144//2
f 181//2 175//2 164//2
f 176//2 181//2 164//2
f 177//2 176//2 145//2
f 182//2 177//2 165//2
f 178//2 183//2 165//2
f 166//2 184//2 178//2
f 179//2 184//2 166//2
f 179//2 118//2 184//2
f 185//2 118//2 180//2
f 180//2 172//2 181//2
f 174//2 157//2 173//2
f 175//2 172//2 174//2
f 181//2 172//2 175//2
f 186//2 181//2 176//2
f 177//2 186//2 176//2
f 182//2 187//2 177//2
f 188//2 182//2 165//2
f 183//2 188//2 165//2
f 189//2 183//2 178//2
f 184//2 190//2 178//2
f 184//2 118//2 190//2
f 190//2 118//2 185//2
f 185//2 180//2 186//2
f 186//2 180//2 181//2
f 187//2 186//2 177//2
f 191//2 187//2 182//2
f 188//2 191//2 182//2
f 183//2 192//2 188//2
f 189//2 193//2 183//2
f 194//2 189//2 178//2
f 190//2 194//2 178//2
f 190//2 185//2 192//2
f 187//2 185//2 186//2
f 191//2 185//2 187//2
f 192//2 191//2 188//2
f 193//2 192//2 183//2
f 194//2 193//2 189//2
f 194//2 190//2 193//2
f 192//2 185//2 191//2
f 193//2 190//2 192//2
usemtl material_2_0
f 2//1 5//1 3//1
f 3//1 6//1 1//1
f 1//1 7//1 4//1
f 5//1 2//1 9//1
f 10//1 3//1 5//1
f 3//1 10//1 6//1
f 1//1 6//1 7//1
f 4//1 7//1 11//1
f 9//1 2//1 13//1
f 14//7 5//7 9//7
f 15//8 10//8 5//8
f 16//9 6//9 10//9
f 7//1 6//1 17//1
f 11//1 7//1 18//1
f 11//1 19//1 8//1
f 13//1 2//1 12//1
f 9//1 13//1 20//1
f 5//7 14//7 15//7
f 6//10 14//10 9//10
f 10//8 15//8 16//8
f 6//9 16//9 21//9
f 17//1 6//1 22//1
f 7//1 17//1 23//1
f 11//1 18//1 19//1
f 13//1 12//1 24//1
f 20//1 13//1 25//1
f 9//1 20//1 26//1
f 14//10 6//10 21//10
f 9//1 27//1 6//1
f 22//1 6//1 28//1
f 23//1 17//1 29//1
f 13//1 24//1 31//1
f 25//1 13//1 32//1
f 9//1 26//1 35//1
f 9//1 36//1 27//1
f 37//1 6//1 27//1
f 28//1 6//1 38//1
f 22//1 28//1 39//1
f 41//1 13//1 22//1
f 29//1 17//1 40//1
f 31//1 24//1 42//1
f 32//1 13//1 43//1
f 9//1 35//1 48//1
f 9//1 49//1 36//1
f 50//1 6//1 37//1
f 38//1 6//1 51//1
f 22//1 39//1 53//1
f 52//1 13//1 41//1
f 41//1 22//1 55//1
f 29//1 40//1 54//1
f 42//1 24//1 30//1
f 43//1 13//1 57//1
f 45//1 60//1 33//1
f 33//1 61//1 34//1
f 34//1 62//1 46//1
f 9//1 48//1 64//1
f 9//1 65//1 49//1
f 66//1 6//1 50//1
f 51//1 6//1 67//1
f 22//1 53//1 69//1
f 57//1 13//1 52//1
f 55//1 22//1 70//1
f 29//1 54//1 56//1
f 59//1 73//1 44//1
f 44//1 74//1 45//1
f 45//1 74//1 60//1
f 33//1 60//1 61//1
f 34//1 61//1 62//1
f 46//1 62//1 75//1
f 46//1 75//1 47//1
f 47//1 76//1 63//1
f 9//1 64//1 78//1
f 9//1 79//1 65//1
f 80//1 6//1 66//1
f 67//1 6//1 81//1
f 22//1 69//1 85//1
f 70//1 22//1 86//1
f 72//1 82//1 58//1
f 58//1 88//1 59//1
f 59//1 88//1 73//1
f 44//1 73//1 74//1
f 47//1 75//1 76//1
f 63//1 76//1 91//1
f 92//1 77//1 63//1
f 9//1 78//1 95//1
f 9//1 96//1 79//1
f 97//1 6//1 80//1
f 81//1 6//1 89//1
f 68//1 87//1 83//1
f 71//1 68//1 84//1
f 86//1 22//1 85//1
f 87//1 68//1 71//1
f 71//1 84//1 72//1
f 72//1 84//1 82//1
f 58//1 82//1 88//1
f 63//1 91//1 92//1
f 77//1 92//1 100//1
f 77//1 101//1 93//1
f 9//1 95//1 103//1
f 9//1 104//1 96//1
f 105//1 6//1 97//1
f 89//1 6//1 90//1
f 90//1 6//1 98//1
f 92//1 91//1 107//1
f 77//1 100//1 108//1
f 77//1 109//1 101//1
f 93//1 101//1 110//1
f 93//1 111//1 94//1
f 94//1 112//1 102//1
f 9//1 103//1 114//1
f 9//1 115//1 104//1
f 117//1 6//1 105//1
f 98//1 6//1 99//1
f 99//1 6//1 106//1
f 107//1 91//1 119//1
f 77//1 108//1 120//1
f 77//1 121//1 109//1
f 93//1 110//1 124//1
f 93//1 125//1 111//1
f 94//1 111//1 126//1
f 94//1 127//1 112//1
f 102//1 112//1 128//1
f 102//1 128//1 113//1
f 9//1 114//1 115//1
f 135//1 6//1 117//1
f 106//1 6//1 137//1
f 138//1 91//1 118//1
f 119//1 91//1 139//1
f 77//1 120//1 121//1
f 93//1 124//1 145//1
f 93//1 146//1 125//1
f 94//1 126//1 127//1
f 113//1 128//1 149//1
f 113//1 149//1 129//1
f 132//1 136//1 116//1
f 116//1 152//1 133//1
f 154//1 6//1 135//1
f 137//1 6//1 148//1
f 147//1 118//1 127//1
f 140//1 91//1 138//1
f 138//1 118//1 157//1
f 139//1 91//1 158//1
f 159//1 122//1 141//1
f 122//1 160//1 142//1
f 142//1 161//1 123//1
f 123//1 162//1 143//1
f 93//1 145//1 165//1
f 93//1 166//1 146//1
f 147//1 127//1 126//1
f 129//1 149//1 169//1
f 129//1 169//1 130//1
f 130//1 170//1 150//1
f 151//1 155//1 131//1
f 131//1 156//1 132//1
f 132//1 156//1 136//1
f 116//1 136//1 152//1
f 133//1 152//1 153//1
f 133//1 153//1 134//1
f 168//1 6//1 154//1
f 148//1 6//1 168//1
f 167//1 118//1 147//1
f 158//1 91//1 140//1
f 157//1 118//1 172//1
f 122//1 159//1 160//1
f 142//1 160//1 161//1
f 123//1 161//1 162//1
f 143//1 162//1 173//1
f 143//1 173//1 163//1
f 163//1 174//1 144//1
f 144//1 175//1 164//1
f 93//1 165//1 178//1
f 93//1 178//1 166//1
f 130//1 169//1 170//1
f 150//1 170//1 171//1
f 150//1 171//1 151//1
f 151//1 171//1 155//1
f 131//1 155//1 156//1
f 179//1 118//1 167//1
f 172//1 118//1 180//1
f 163//1 173//1 174//1
f 144//1 174//1 175//1
f 164//1 175//1 181//1
f 164//1 181//1 176//1
f 184//1 118//1 179//1
f 180//1 118//1 185//1
f 176//1 181//1 186//1
f 176//1 186//1 177//1
f 177//1 187//1 182//1
f 190//1 118//1 184//1
f 185//1 118//1 190//1
f 177//1 186//1 187//1
f 182//1 187//1 191//1
f 182//1 191//1 188//1
f 188//1 192//1 183//1
f 183//1 193//1 189//1
f 188//1 191//1 192//1
f 183//1 192//1 193//1
f 189//1 193//1 194//1
