# SSTK version 0.8.0
# 20
mtllib original-20.mtl
o mesh18/mesh18-geometry#mesh18-geometry
v -0.341773 -0.147918 0.013827
v -0.342593 -0.147918 0.010103
v -0.343908 -0.147918 0.013827
v -0.340441 -0.147918 0.010103
v -0.344224 -0.147918 0.010103
v -0.342260 -0.147918 0.015296
v -0.295903 -0.147918 0.000475
v -0.341423 -0.147918 0.017448
v -0.344446 -0.147918 0.015296
v -0.341927 -0.147918 0.018917
v -0.338818 -0.147918 0.010103
v -0.340654 -0.147918 0.015296
v -0.358342 -0.147918 0.000475
v -0.345224 -0.147918 0.017465
v -0.343037 -0.147918 0.017465
v -0.340133 -0.147918 0.013827
v -0.337648 -0.147918 0.013827
v -0.338784 -0.147918 0.017448
v -0.339305 -0.147918 0.018917
v -0.348247 -0.147918 0.013827
v -0.292434 -0.154040 -0.002994
v -0.345548 -0.147918 0.013827
v -0.343259 -0.147918 0.022624
v -0.313822 -0.147918 0.040403
v -0.338152 -0.147918 0.015296
v -0.341398 -0.147918 0.035424
v -0.348768 -0.147918 0.015296
v -0.361810 -0.154040 -0.002994
v -0.295903 -0.147918 0.062914
v -0.345711 -0.147918 0.018917
v -0.343558 -0.147918 0.018917
v -0.342414 -0.147918 0.035189
v -0.314073 -0.147918 0.041177
v -0.313437 -0.147918 0.039738
v -0.338686 -0.147918 0.037846
v -0.339125 -0.147918 0.037052
v -0.340507 -0.147918 0.035817
v -0.349904 -0.147918 0.018917
v -0.346078 -0.147918 0.015296
v -0.358342 -0.147918 0.062914
v -0.292434 -0.154040 0.066383
v -0.304955 -0.147918 0.049149
v -0.344891 -0.147918 0.022624
v -0.343555 -0.147918 0.035110
v -0.337939 -0.147918 0.048211
v -0.314191 -0.147918 0.042060
v -0.312035 -0.147918 0.042060
v -0.312917 -0.147918 0.039182
v -0.338422 -0.147918 0.038752
v -0.339741 -0.147918 0.036367
v -0.341717 -0.147918 0.038062
v -0.341182 -0.147918 0.038842
v -0.349687 -0.147918 0.048139
v -0.349383 -0.147918 0.017448
v -0.346847 -0.147918 0.017448
v -0.361810 -0.154040 0.066383
v -0.349559 -0.147918 0.049259
v -0.305137 -0.147918 0.047703
v -0.305041 -0.147918 0.050077
v -0.344732 -0.147918 0.035185
v -0.342551 -0.147918 0.037564
v -0.338156 -0.147918 0.046484
v -0.314008 -0.147918 0.051598
v -0.314792 -0.147918 0.049089
v -0.312273 -0.147918 0.038744
v -0.338533 -0.147918 0.041240
v -0.338334 -0.147918 0.039769
v -0.339130 -0.147918 0.042421
v -0.341004 -0.147918 0.039852
v -0.340081 -0.147918 0.043252
v -0.348683 -0.147918 0.022624
v -0.347350 -0.147918 0.018917
v -0.349246 -0.147918 0.050258
v -0.305286 -0.147918 0.042080
v -0.305298 -0.147918 0.050903
v -0.347060 -0.147918 0.022624
v -0.343627 -0.147918 0.037397
v -0.338041 -0.147918 0.049319
v -0.313438 -0.147918 0.052233
v -0.314424 -0.147918 0.050863
v -0.314685 -0.147918 0.050027
v -0.312506 -0.147918 0.049089
v -0.311516 -0.147918 0.038430
v -0.341795 -0.147918 0.041774
v -0.341202 -0.147918 0.040968
v -0.346956 -0.147918 0.048139
v -0.348968 -0.147918 0.039745
v -0.345200 -0.147918 0.053202
v -0.348750 -0.147918 0.051136
v -0.305360 -0.147918 0.041229
v -0.305453 -0.147918 0.043312
v -0.305725 -0.147918 0.051628
v -0.346678 -0.147918 0.035784
v -0.345774 -0.147918 0.035409
v -0.344769 -0.147918 0.037552
v -0.342777 -0.147918 0.042264
v -0.338347 -0.147918 0.050305
v -0.312740 -0.147918 0.052744
v -0.312333 -0.147918 0.050120
v -0.310644 -0.147918 0.038242
v -0.338807 -0.147918 0.045134
v -0.339874 -0.147918 0.044187
v -0.348828 -0.147918 0.038690
v -0.346280 -0.147918 0.052940
v -0.343998 -0.147918 0.053289
v -0.348070 -0.147918 0.051894
v -0.305581 -0.147918 0.040471
v -0.305682 -0.147918 0.046572
v -0.306324 -0.147918 0.052253
v -0.347447 -0.147918 0.036308
v -0.345633 -0.147918 0.038014
v -0.344657 -0.147918 0.042403
v -0.344142 -0.147918 0.042427
v -0.312506 -0.147918 0.049210
v -0.311814 -0.147918 0.050824
v -0.311860 -0.147918 0.041232
v -0.311398 -0.147918 0.040611
v -0.309658 -0.147918 0.038180
v -0.339291 -0.147918 0.044607
v -0.341340 -0.147918 0.043673
v -0.342566 -0.147918 0.044878
v -0.341453 -0.147918 0.045475
v -0.346393 -0.147918 0.039745
v -0.348528 -0.147918 0.037766
v -0.347236 -0.147918 0.052504
v -0.346130 -0.147918 0.050211
v -0.342675 -0.147918 0.053203
v -0.345157 -0.147918 0.050750
v -0.305949 -0.147918 0.039805
v -0.305953 -0.147918 0.044301
v -0.307069 -0.147918 0.052755
v -0.306088 -0.147918 0.046131
v -0.348068 -0.147918 0.036972
v -0.346185 -0.147918 0.038755
v -0.344657 -0.147918 0.044702
v -0.344399 -0.147918 0.042415
v -0.344118 -0.147918 0.044678
v -0.338858 -0.147918 0.051172
v -0.311939 -0.147918 0.053109
v -0.310675 -0.147918 0.040224
v -0.309718 -0.147918 0.040095
v -0.308703 -0.147918 0.038245
v -0.341063 -0.147918 0.045921
v -0.339573 -0.147918 0.051918
v -0.341954 -0.147918 0.045126
v -0.346750 -0.147918 0.049370
v -0.346956 -0.147918 0.048283
v -0.341497 -0.147918 0.052946
v -0.343890 -0.147918 0.050930
v -0.306465 -0.147918 0.039233
v -0.307935 -0.147918 0.053114
v -0.306576 -0.147918 0.045780
v -0.344381 -0.147918 0.044690
v -0.311036 -0.147918 0.053328
v -0.310999 -0.147918 0.051275
v -0.308817 -0.147918 0.040234
v -0.307852 -0.147918 0.038443
v -0.340784 -0.147918 0.046464
v -0.340463 -0.147918 0.052518
v -0.342479 -0.147918 0.050731
v -0.341429 -0.147918 0.050133
v -0.307106 -0.147918 0.038772
v -0.308922 -0.147918 0.053329
v -0.307878 -0.147918 0.050759
v -0.307151 -0.147918 0.048839
v -0.310029 -0.147918 0.053401
v -0.310581 -0.147918 0.046211
v -0.310581 -0.147918 0.044286
v -0.309006 -0.147918 0.044170
v -0.308119 -0.147918 0.040651
v -0.340778 -0.147918 0.049162
v -0.340561 -0.147918 0.047840
v -0.306749 -0.147918 0.044997
v -0.308757 -0.147918 0.051259
v -0.307333 -0.147918 0.049945
v -0.307338 -0.147918 0.047687
v -0.309939 -0.147918 0.051426
v -0.310365 -0.147918 0.044296
v -0.310150 -0.147918 0.044306
v -0.308184 -0.147918 0.043760
v -0.307672 -0.147918 0.041304
v -0.307522 -0.147918 0.042150
v -0.307803 -0.147918 0.045349
v -0.308318 -0.147918 0.046566
v -0.307572 -0.147918 0.047232
v -0.310350 -0.147918 0.046201
v -0.310130 -0.147918 0.046191
v -0.308830 -0.147918 0.046358
v -0.307688 -0.147918 0.043084
v -0.307898 -0.147918 0.046858
vn 0 1 0
vn 0 0.49301297568139624 -0.870021957084863
vn 0.8700219570848629 0.493012975681396 0
vn -0.8700219570848629 0.493012975681396 0
vn 0 0.49301297568139585 0.870021957084863
vn 0 -1 0
vn 0 -0.49301297568139624 0.870021957084863
vn -0.8700219570848629 -0.493012975681396 0
vn 0.8700219570848629 -0.493012975681396 0
vn 0 -0.49301297568139585 -0.870021957084863
usemtl material_0_0
f 1//1 2//1 3//1
f 4//1 2//1 1//1
f 7//1 2//1 4//1
f 7//1 5//1 2//1
f 7//1 4//1 11//1
f 13//1 5//1 7//1
f 9//1 15//1 6//1
f 7//1 11//1 17//1
f 18//1 12//1 8//1
f 5//1 13//1 20//1
f 21//2 13//2 7//2
f 15//1 9//1 14//1
f 17//1 11//1 16//1
f 7//1 17//1 24//1
f 12//1 18//1 25//1
f 10//1 26//1 19//1
f 20//1 13//1 27//1
f 5//1 20//1 22//1
f 13//2 21//2 28//2
f 29//3 21//3 7//3
f 23//1 32//1 10//1
f 24//1 17//1 33//1
f 7//1 24//1 34//1
f 25//1 18//1 35//1
f 19//1 36//1 18//1
f 10//1 32//1 26//1
f 19//1 26//1 37//1
f 27//1 13//1 38//1
f 28//4 40//4 13//4
f 21//3 29//3 41//3
f 7//1 42//1 29//1
f 23//1 44//1 32//1
f 25//1 45//1 17//1
f 33//1 17//1 46//1
f 7//1 34//1 48//1
f 18//1 36//1 35//1
f 25//1 35//1 49//1
f 19//1 50//1 36//1
f 19//1 37//1 50//1
f 13//1 53//1 38//1
f 27//1 38//1 54//1
f 27//1 55//1 39//1
f 40//4 28//4 56//4
f 40//1 57//1 13//1
f 29//5 56//5 41//5
f 7//1 58//1 42//1
f 59//1 29//1 42//1
f 31//1 30//1 43//1
f 43//1 60//1 23//1
f 23//1 60//1 44//1
f 25//1 62//1 45//1
f 45//1 63//1 17//1
f 46//1 17//1 64//1
f 7//1 48//1 65//1
f 25//1 49//1 67//1
f 13//1 57//1 53//1
f 71//1 38//1 53//1
f 55//1 27//1 54//1
f 56//5 29//5 40//5
f 57//1 40//1 73//1
f 7//1 74//1 58//1
f 75//1 29//1 59//1
f 30//1 60//1 43//1
f 25//1 67//1 62//1
f 45//1 79//1 63//1
f 17//1 63//1 80//1
f 17//1 81//1 64//1
f 82//1 46//1 64//1
f 46//1 82//1 47//1
f 7//1 65//1 83//1
f 61//1 84//1 51//1
f 51//1 85//1 52//1
f 52//1 85//1 69//1
f 38//1 71//1 72//1
f 71//1 53//1 87//1
f 88//1 40//1 29//1
f 73//1 40//1 89//1
f 7//1 90//1 74//1
f 91//1 58//1 74//1
f 92//1 29//1 75//1
f 76//1 93//1 30//1
f 30//1 94//1 60//1
f 77//1 96//1 61//1
f 66//1 62//1 67//1
f 78//1 29//1 45//1
f 45//1 98//1 79//1
f 17//1 80//1 81//1
f 47//1 82//1 99//1
f 7//1 83//1 100//1
f 68//1 101//1 66//1
f 70//1 102//1 68//1
f 61//1 96//1 84//1
f 51//1 84//1 85//1
f 86//1 87//1 53//1
f 71//1 87//1 103//1
f 104//1 40//1 88//1
f 88//1 29//1 105//1
f 89//1 40//1 106//1
f 7//1 107//1 90//1
f 91//1 108//1 58//1
f 109//1 29//1 92//1
f 76//1 110//1 93//1
f 30//1 93//1 94//1
f 95//1 112//1 77//1
f 77//1 113//1 96//1
f 66//1 101//1 62//1
f 97//1 29//1 78//1
f 45//1 29//1 98//1
f 99//1 82//1 114//1
f 47//1 99//1 115//1
f 7//1 100//1 118//1
f 68//1 119//1 101//1
f 102//1 70//1 120//1
f 68//1 102//1 119//1
f 87//1 86//1 123//1
f 71//1 124//1 76//1
f 124//1 71//1 103//1
f 125//1 40//1 104//1
f 105//1 29//1 127//1
f 106//1 40//1 125//1
f 7//1 129//1 107//1
f 130//1 108//1 91//1
f 131//1 29//1 109//1
f 76//1 133//1 110//1
f 111//1 128//1 95//1
f 112//1 95//1 135//1
f 77//1 112//1 136//1
f 77//1 136//1 113//1
f 138//1 29//1 97//1
f 98//1 29//1 139//1
f 47//1 115//1 116//1
f 7//1 118//1 142//1
f 123//1 86//1 146//1
f 76//1 124//1 133//1
f 127//1 29//1 148//1
f 7//1 150//1 129//1
f 130//1 132//1 108//1
f 151//1 29//1 131//1
f 134//1 126//1 111//1
f 111//1 126//1 128//1
f 95//1 128//1 135//1
f 144//1 29//1 138//1
f 139//1 29//1 154//1
f 116//1 115//1 117//1
f 117//1 155//1 140//1
f 7//1 142//1 157//1
f 137//1 149//1 121//1
f 121//1 160//1 145//1
f 145//1 161//1 122//1
f 146//1 86//1 147//1
f 123//1 146//1 126//1
f 148//1 29//1 159//1
f 135//1 128//1 149//1
f 7//1 162//1 150//1
f 130//1 152//1 132//1
f 163//1 29//1 151//1
f 123//1 126//1 134//1
f 135//1 149//1 153//1
f 153//1 149//1 137//1
f 159//1 29//1 144//1
f 154//1 29//1 166//1
f 117//1 115//1 155//1
f 140//1 155//1 167//1
f 140//1 168//1 141//1
f 141//1 169//1 156//1
f 7//1 157//1 162//1
f 122//1 161//1 143//1
f 143//1 171//1 158//1
f 121//1 149//1 160//1
f 145//1 160//1 161//1
f 173//1 152//1 130//1
f 166//1 29//1 163//1
f 167//1 155//1 177//1
f 168//1 140//1 167//1
f 141//1 168//1 178//1
f 141//1 179//1 169//1
f 156//1 169//1 180//1
f 156//1 180//1 170//1
f 143//1 161//1 171//1
f 158//1 171//1 172//1
f 152//1 173//1 183//1
f 184//1 174//1 164//1
f 185//1 164//1 175//1
f 176//1 175//1 165//1
f 167//1 177//1 186//1
f 141//1 178//1 179//1
f 170//1 180//1 189//1
f 170//1 189//1 181//1
f 188//1 177//1 174//1
f 188//1 174//1 184//1
f 184//1 164//1 190//1
f 190//1 164//1 185//1
f 185//1 175//1 176//1
f 186//1 177//1 187//1
f 181//1 189//1 182//1
f 187//1 177//1 188//1
usemtl material_1_0
f 3//6 2//6 1//6
f 1//6 2//6 4//6
f 3//6 5//6 2//6
f 1//6 6//6 3//6
f 4//6 2//6 7//6
f 1//6 4//6 8//6
f 2//6 5//6 7//6
f 3//6 9//6 5//6
f 6//6 9//6 3//6
f 10//6 6//6 1//6
f 11//6 4//6 7//6
f 12//6 8//6 4//6
f 8//6 10//6 1//6
f 7//6 5//6 13//6
f 9//6 14//6 5//6
f 6//6 15//6 9//6
f 6//6 10//6 15//6
f 16//6 4//6 11//6
f 17//6 11//6 7//6
f 8//6 12//6 18//6
f 16//6 12//6 4//6
f 19//6 10//6 8//6
f 20//6 13//6 5//6
f 7//7 13//7 21//7
f 22//6 5//6 14//6
f 14//6 9//6 15//6
f 10//6 23//6 15//6
f 16//6 11//6 17//6
f 24//6 17//6 7//6
f 25//6 18//6 12//6
f 18//6 19//6 8//6
f 25//6 12//6 16//6
f 19//6 26//6 10//6
f 27//6 13//6 20//6
f 22//6 20//6 5//6
f 28//7 21//7 13//7
f 7//8 21//8 29//8
f 14//6 30//6 22//6
f 15//6 31//6 14//6
f 23//6 31//6 15//6
f 10//6 32//6 23//6
f 17//6 25//6 16//6
f 33//6 17//6 24//6
f 34//6 24//6 7//6
f 35//6 18//6 25//6
f 18//6 36//6 19//6
f 26//6 32//6 10//6
f 37//6 26//6 19//6
f 38//6 13//6 27//6
f 27//6 20//6 39//6
f 22//6 39//6 20//6
f 13//9 40//9 28//9
f 41//8 29//8 21//8
f 29//6 42//6 7//6
f 30//6 39//6 22//6
f 31//6 30//6 14//6
f 43//6 31//6 23//6
f 32//6 44//6 23//6
f 17//6 45//6 25//6
f 46//6 17//6 33//6
f 24//6 47//6 33//6
f 34//6 47//6 24//6
f 48//6 34//6 7//6
f 35//6 36//6 18//6
f 49//6 35//6 25//6
f 36//6 50//6 19//6
f 26//6 51//6 32//6
f 37//6 52//6 26//6
f 50//6 37//6 19//6
f 38//6 53//6 13//6
f 54//6 38//6 27//6
f 39//6 55//6 27//6
f 56//9 28//9 40//9
f 13//6 57//6 40//6
f 41//10 56//10 29//10
f 42//6 58//6 7//6
f 42//6 29//6 59//6
f 39//6 30//6 55//6
f 43//6 30//6 31//6
f 23//6 60//6 43//6
f 44//6 60//6 23//6
f 32//6 61//6 44//6
f 45//6 62//6 25//6
f 17//6 63//6 45//6
f 64//6 17//6 46//6
f 46//6 33//6 47//6
f 48//6 47//6 34//6
f 65//6 48//6 7//6
f 35//6 66//6 36//6
f 49//6 66//6 35//6
f 67//6 49//6 25//6
f 36//6 68//6 50//6
f 51//6 61//6 32//6
f 52//6 51//6 26//6
f 69//6 52//6 37//6
f 50//6 70//6 37//6
f 53//6 57//6 13//6
f 53//6 38//6 71//6
f 38//6 54//6 72//6
f 54//6 27//6 55//6
f 40//10 29//10 56//10
f 73//6 40//6 57//6
f 58//6 74//6 7//6
f 42//6 59//6 58//6
f 59//6 29//6 75//6
f 30//6 76//6 55//6
f 43//6 60//6 30//6
f 44//6 77//6 60//6
f 61//6 77//6 44//6
f 62//6 67//6 25//6
f 45//6 78//6 62//6
f 63//6 79//6 45//6
f 80//6 63//6 17//6
f 64//6 81//6 17//6
f 64//6 46//6 82//6
f 47//6 82//6 46//6
f 65//6 47//6 48//6
f 83//6 65//6 7//6
f 66//6 68//6 36//6
f 67//6 66//6 49//6
f 68//6 70//6 50//6
f 51//6 84//6 61//6
f 52//6 85//6 51//6
f 69//6 85//6 52//6
f 37//6 70//6 69//6
f 53//6 86//6 57//6
f 72//6 71//6 38//6
f 87//6 53//6 71//6
f 55//6 72//6 54//6
f 29//6 40//6 88//6
f 89//6 40//6 73//6
f 73//6 57//6 86//6
f 74//6 90//6 7//6
f 74//6 58//6 91//6
f 59//6 75//6 58//6
f 75//6 29//6 92//6
f 76//6 72//6 55//6
f 30//6 93//6 76//6
f 60//6 94//6 30//6
f 77//6 95//6 60//6
f 61//6 96//6 77//6
f 67//6 62//6 66//6
f 78//6 97//6 62//6
f 45//6 29//6 78//6
f 79//6 98//6 45//6
f 79//6 63//6 82//6
f 63//6 80//6 82//6
f 81//6 80//6 17//6
f 64//6 82//6 81//6
f 99//6 82//6 47//6
f 83//6 47//6 65//6
f 100//6 83//6 7//6
f 66//6 101//6 68//6
f 68//6 102//6 70//6
f 84//6 96//6 61//6
f 85//6 84//6 51//6
f 69//6 70//6 85//6
f 53//6 87//6 86//6
f 71//6 72//6 76//6
f 103//6 87//6 71//6
f 88//6 40//6 104//6
f 105//6 29//6 88//6
f 106//6 40//6 89//6
f 89//6 73//6 86//6
f 90//6 107//6 7//6
f 74//6 91//6 90//6
f 58//6 108//6 91//6
f 58//6 75//6 108//6
f 92//6 29//6 109//6
f 75//6 92//6 108//6
f 93//6 110//6 76//6
f 94//6 93//6 30//6
f 60//6 111//6 94//6
f 95//6 111//6 60//6
f 77//6 112//6 95//6
f 96//6 113//6 77//6
f 62//6 101//6 66//6
f 62//6 97//6 101//6
f 78//6 29//6 97//6
f 98//6 29//6 45//6
f 98//6 79//6 82//6
f 80//6 81//6 82//6
f 114//6 82//6 99//6
f 115//6 99//6 47//6
f 116//6 47//6 83//6
f 100//6 117//6 83//6
f 118//6 100//6 7//6
f 101//6 119//6 68//6
f 120//6 70//6 102//6
f 119//6 102//6 68//6
f 84//6 121//6 96//6
f 85//6 122//6 84//6
f 70//6 120//6 85//6
f 123//6 86//6 87//6
f 76//6 124//6 71//6
f 87//6 103//6 123//6
f 103//6 71//6 124//6
f 104//6 40//6 125//6
f 88//6 104//6 126//6
f 127//6 29//6 105//6
f 105//6 88//6 128//6
f 125//6 40//6 106//6
f 106//6 89//6 86//6
f 107//6 129//6 7//6
f 90//6 91//6 107//6
f 91//6 108//6 130//6
f 109//6 29//6 131//6
f 92//6 109//6 132//6
f 108//6 92//6 132//6
f 110//6 133//6 76//6
f 93//6 123//6 110//6
f 94//6 123//6 93//6
f 111//6 134//6 94//6
f 95//6 128//6 111//6
f 135//6 95//6 112//6
f 136//6 112//6 77//6
f 113//6 136//6 77//6
f 96//6 137//6 113//6
f 97//6 138//6 101//6
f 97//6 29//6 138//6
f 139//6 29//6 98//6
f 114//6 98//6 82//6
f 99//6 139//6 114//6
f 115//6 139//6 99//6
f 116//6 115//6 47//6
f 117//6 116//6 83//6
f 140//6 117//6 100//6
f 118//6 141//6 100//6
f 142//6 118//6 7//6
f 101//6 138//6 119//6
f 102//6 143//6 120//6
f 119//6 144//6 102//6
f 121//6 137//6 96//6
f 145//6 121//6 84//6
f 122//6 145//6 84//6
f 120//6 122//6 85//6
f 146//6 86//6 123//6
f 133//6 124//6 76//6
f 124//6 123//6 103//6
f 125//6 147//6 104//6
f 126//6 104//6 146//6
f 128//6 88//6 126//6
f 148//6 29//6 127//6
f 127//6 105//6 149//6
f 149//6 105//6 128//6
f 125//6 106//6 86//6
f 129//6 150//6 7//6
f 107//6 91//6 129//6
f 108//6 132//6 130//6
f 91//6 130//6 129//6
f 131//6 29//6 151//6
f 109//6 131//6 152//6
f 132//6 109//6 152//6
f 110//6 123//6 133//6
f 134//6 123//6 94//6
f 111//6 126//6 134//6
f 128//6 126//6 111//6
f 135//6 128//6 95//6
f 135//6 112//6 153//6
f 136//6 153//6 112//6
f 113//6 153//6 136//6
f 137//6 153//6 113//6
f 138//6 29//6 144//6
f 154//6 29//6 139//6
f 98//6 114//6 139//6
f 154//6 139//6 115//6
f 117//6 115//6 116//6
f 140//6 155//6 117//6
f 141//6 140//6 100//6
f 156//6 141//6 118//6
f 142//6 156//6 118//6
f 157//6 142//6 7//6
f 138//6 144//6 119//6
f 122//6 120//6 143//6
f 158//6 143//6 102//6
f 144//6 159//6 102//6
f 121//6 149//6 137//6
f 145//6 160//6 121//6
f 122//6 161//6 145//6
f 147//6 86//6 146//6
f 126//6 146//6 123//6
f 133//6 123//6 124//6
f 146//6 104//6 147//6
f 147//6 125//6 86//6
f 159//6 29//6 148//6
f 148//6 127//6 160//6
f 160//6 127//6 149//6
f 149//6 128//6 135//6
f 150//6 162//6 7//6
f 129//6 130//6 150//6
f 132//6 152//6 130//6
f 151//6 29//6 163//6
f 131//6 151//6 164//6
f 131//6 165//6 152//6
f 134//6 126//6 123//6
f 153//6 149//6 135//6
f 137//6 149//6 153//6
f 144//6 29//6 159//6
f 166//6 29//6 154//6
f 155//6 154//6 115//6
f 155//6 115//6 117//6
f 167//6 155//6 140//6
f 141//6 168//6 140//6
f 156//6 169//6 141//6
f 170//6 156//6 142//6
f 157//6 170//6 142//6
f 162//6 157//6 7//6
f 143//6 161//6 122//6
f 158//6 171//6 143//6
f 172//6 158//6 102//6
f 159//6 172//6 102//6
f 160//6 149//6 121//6
f 161//6 160//6 145//6
f 159//6 148//6 161//6
f 161//6 148//6 160//6
f 150//6 173//6 162//6
f 130//6 173//6 150//6
f 130//6 152//6 173//6
f 163//6 29//6 166//6
f 151//6 163//6 174//6
f 164//6 151//6 174//6
f 175//6 131//6 164//6
f 165//6 176//6 152//6
f 165//6 131//6 175//6
f 166//6 154//6 155//6
f 177//6 155//6 167//6
f 167//6 140//6 168//6
f 178//6 168//6 141//6
f 169//6 179//6 141//6
f 180//6 169//6 156//6
f 170//6 180//6 156//6
f 181//6 170//6 157//6
f 162//6 181//6 157//6
f 171//6 161//6 143//6
f 172//6 171//6 158//6
f 172//6 159//6 171//6
f 171//6 159//6 161//6
f 162//6 173//6 182//6
f 183//6 173//6 152//6
f 163//6 166//6 177//6
f 174//6 163//6 177//6
f 164//6 174//6 184//6
f 175//6 164//6 185//6
f 176//6 185//6 152//6
f 165//6 175//6 176//6
f 177//6 166//6 155//6
f 186//6 177//6 167//6
f 167//6 168//6 186//6
f 178//6 186//6 168//6
f 179//6 178//6 141//6
f 169//6 187//6 179//6
f 180//6 188//6 169//6
f 189//6 180//6 170//6
f 181//6 189//6 170//6
f 182//6 181//6 162//6
f 182//6 173//6 189//6
f 173//6 183//6 189//6
f 152//6 185//6 183//6
f 174//6 177//6 188//6
f 184//6 174//6 188//6
f 190//6 164//6 184//6
f 185//6 164//6 190//6
f 176//6 175//6 185//6
f 187//6 177//6 186//6
f 179//6 186//6 178//6
f 187//6 186//6 179//6
f 188//6 187//6 169//6
f 184//6 188//6 180//6
f 189//6 190//6 180//6
f 182//6 189//6 181//6
f 183//6 190//6 189//6
f 190//6 183//6 185//6
f 188//6 177//6 187//6
f 190//6 184//6 180//6
usemtl material_2_0
f 2//1 5//1 3//1
f 3//1 6//1 1//1
f 8//1 4//1 1//1
f 5//1 9//1 3//1
f 3//1 9//1 6//1
f 1//1 6//1 10//1
f 4//1 8//1 12//1
f 1//1 10//1 8//1
f 5//1 14//1 9//1
f 15//1 10//1 6//1
f 11//1 4//1 16//1
f 4//1 12//1 16//1
f 8//1 10//1 19//1
f 14//1 5//1 22//1
f 15//1 23//1 10//1
f 8//1 19//1 18//1
f 16//1 12//1 25//1
f 22//1 30//1 14//1
f 14//1 31//1 15//1
f 15//1 31//1 23//1
f 16//1 25//1 17//1
f 39//1 20//1 27//1
f 20//1 39//1 22//1
f 22//1 39//1 30//1
f 14//1 30//1 31//1
f 23//1 31//1 43//1
f 33//1 47//1 24//1
f 24//1 47//1 34//1
f 32//1 51//1 26//1
f 26//1 52//1 37//1
f 55//1 30//1 39//1
f 44//1 61//1 32//1
f 47//1 33//1 46//1
f 34//1 47//1 48//1
f 36//1 66//1 35//1
f 35//1 66//1 49//1
f 50//1 68//1 36//1
f 32//1 61//1 51//1
f 26//1 51//1 52//1
f 37//1 52//1 69//1
f 37//1 70//1 50//1
f 72//1 54//1 38//1
f 58//1 59//1 42//1
f 55//1 76//1 30//1
f 60//1 77//1 44//1
f 44//1 77//1 61//1
f 62//1 78//1 45//1
f 48//1 47//1 65//1
f 36//1 68//1 66//1
f 49//1 66//1 67//1
f 50//1 70//1 68//1
f 69//1 70//1 37//1
f 57//1 86//1 53//1
f 54//1 72//1 55//1
f 86//1 57//1 73//1
f 58//1 75//1 59//1
f 55//1 72//1 76//1
f 60//1 95//1 77//1
f 62//1 97//1 78//1
f 82//1 63//1 79//1
f 82//1 80//1 63//1
f 81//1 82//1 64//1
f 65//1 47//1 83//1
f 85//1 70//1 69//1
f 76//1 72//1 71//1
f 86//1 73//1 89//1
f 90//1 91//1 74//1
f 108//1 75//1 58//1
f 108//1 92//1 75//1
f 94//1 111//1 60//1
f 60//1 111//1 95//1
f 101//1 97//1 62//1
f 82//1 79//1 98//1
f 82//1 81//1 80//1
f 83//1 47//1 116//1
f 83//1 117//1 100//1
f 96//1 121//1 84//1
f 84//1 122//1 85//1
f 85//1 120//1 70//1
f 123//1 103//1 87//1
f 126//1 104//1 88//1
f 128//1 88//1 105//1
f 86//1 89//1 106//1
f 107//1 91//1 90//1
f 132//1 109//1 92//1
f 132//1 92//1 108//1
f 110//1 123//1 93//1
f 93//1 123//1 94//1
f 94//1 134//1 111//1
f 113//1 137//1 96//1
f 101//1 138//1 97//1
f 82//1 98//1 114//1
f 114//1 139//1 99//1
f 99//1 139//1 115//1
f 83//1 116//1 117//1
f 100//1 117//1 140//1
f 100//1 141//1 118//1
f 119//1 138//1 101//1
f 120//1 143//1 102//1
f 102//1 144//1 119//1
f 96//1 137//1 121//1
f 84//1 121//1 145//1
f 84//1 145//1 122//1
f 85//1 122//1 120//1
f 103//1 123//1 124//1
f 104//1 147//1 125//1
f 146//1 104//1 126//1
f 126//1 88//1 128//1
f 149//1 105//1 127//1
f 128//1 105//1 149//1
f 86//1 106//1 125//1
f 129//1 91//1 107//1
f 129//1 130//1 91//1
f 152//1 131//1 109//1
f 152//1 109//1 132//1
f 133//1 123//1 110//1
f 94//1 123//1 134//1
f 153//1 112//1 135//1
f 112//1 153//1 136//1
f 136//1 153//1 113//1
f 113//1 153//1 137//1
f 139//1 114//1 98//1
f 115//1 139//1 154//1
f 100//1 140//1 141//1
f 118//1 141//1 156//1
f 118//1 156//1 142//1
f 119//1 144//1 138//1
f 143//1 120//1 122//1
f 102//1 143//1 158//1
f 102//1 159//1 144//1
f 124//1 123//1 133//1
f 147//1 104//1 146//1
f 86//1 125//1 147//1
f 160//1 127//1 148//1
f 149//1 127//1 160//1
f 150//1 130//1 129//1
f 164//1 151//1 131//1
f 152//1 165//1 131//1
f 115//1 154//1 155//1
f 142//1 156//1 170//1
f 142//1 170//1 157//1
f 102//1 158//1 172//1
f 102//1 172//1 159//1
f 161//1 148//1 159//1
f 160//1 148//1 161//1
f 162//1 173//1 150//1
f 150//1 173//1 130//1
f 174//1 163//1 151//1
f 174//1 151//1 164//1
f 164//1 131//1 175//1
f 152//1 176//1 165//1
f 175//1 131//1 165//1
f 155//1 154//1 166//1
f 157//1 170//1 181//1
f 157//1 181//1 162//1
f 171//1 159//1 172//1
f 161//1 159//1 171//1
f 182//1 173//1 162//1
f 177//1 166//1 163//1
f 177//1 163//1 174//1
f 152//1 185//1 176//1
f 155//1 166//1 177//1
f 186//1 168//1 167//1
f 168//1 186//1 178//1
f 179//1 187//1 169//1
f 169//1 188//1 180//1
f 162//1 181//1 182//1
f 189//1 173//1 182//1
f 189//1 183//1 173//1
f 183//1 185//1 152//1
f 178//1 186//1 179//1
f 179//1 186//1 187//1
f 169//1 187//1 188//1
f 180//1 188//1 184//1
f 180//1 190//1 189//1
f 189//1 190//1 183//1
f 185//1 183//1 190//1
f 180//1 184//1 190//1
