# SSTK version 0.8.0
# 33
mtllib original-33.mtl
o mesh31/mesh31-geometry#mesh31-geometry
v 0.113719 -0.147918 0.269416
v 0.114475 -0.147918 0.262346
v 0.112219 -0.147918 0.268823
v 0.116742 -0.147918 0.263184
v 0.110162 -0.147918 0.240126
v 0.102808 -0.147918 0.283286
v 0.165247 -0.147918 0.283286
v 0.123859 -0.147918 0.245737
v 0.102808 -0.147918 0.220847
v 0.110162 -0.147918 0.238267
v 0.099339 -0.154040 0.217378
v 0.099339 -0.154040 0.286755
v 0.123859 -0.147918 0.243623
v 0.112999 -0.147918 0.239197
v 0.123859 -0.147918 0.232622
v 0.168715 -0.154040 0.217378
v 0.168715 -0.154040 0.286755
v 0.123859 -0.147918 0.234771
v 0.165247 -0.147918 0.220847
vn 0 1 0
vn 0 -1 0
vn 0.8700219570848629 -0.493012975681396 0
vn 0 -0.49301297568139585 -0.870021957084863
vn 0 -0.49301297568139624 0.870021957084863
vn -0.8700219570848629 -0.493012975681396 0
vn -0.8700219570848629 0.493012975681396 0
vn 0 0.49301297568139585 0.870021957084863
vn 0 0.49301297568139624 -0.870021957084863
vn 0.8700219570848629 0.493012975681396 0
usemtl material_0_0
f 1//1 2//1 3//1
f 2//1 1//1 4//1
f 8//1 10//1 5//1
f 10//1 8//1 14//1
f 14//1 8//1 13//1
f 14//1 15//1 10//1
f 15//1 14//1 18//1
usemtl material_1_0
f 3//2 2//2 1//2
f 4//2 1//2 2//2
f 3//2 5//2 2//2
f 1//2 6//2 3//2
f 4//2 7//2 1//2
f 4//2 2//2 8//2
f 8//2 2//2 5//2
f 5//2 3//2 9//2
f 9//2 3//2 6//2
f 7//2 6//2 1//2
f 8//2 7//2 4//2
f 5//2 10//2 8//2
f 5//2 9//2 10//2
f 9//3 6//3 11//3
f 6//4 7//4 12//4
f 13//2 7//2 8//2
f 14//2 8//2 10//2
f 10//2 9//2 15//2
f 12//3 11//3 6//3
f 11//5 16//5 9//5
f 17//4 12//4 7//4
f 18//2 7//2 13//2
f 13//2 8//2 14//2
f 10//2 15//2 14//2
f 19//2 15//2 9//2
f 19//5 9//5 16//5
f 17//6 7//6 16//6
f 15//2 7//2 18//2
f 13//2 14//2 18//2
f 18//2 14//2 15//2
f 7//2 15//2 19//2
f 19//6 16//6 7//6
usemtl material_2_0
f 2//1 5//1 3//1
f 3//1 6//1 1//1
f 1//1 7//1 4//1
f 8//1 2//1 4//1
f 5//1 2//1 8//1
f 9//1 3//1 5//1
f 6//1 3//1 9//1
f 1//1 6//1 7//1
f 4//1 7//1 8//1
f 10//1 9//1 5//1
f 11//7 6//7 9//7
f 12//8 7//8 6//8
f 8//1 7//1 13//1
f 15//1 9//1 10//1
f 6//7 11//7 12//7
f 9//9 16//9 11//9
f 7//8 12//8 17//8
f 13//1 7//1 18//1
f 9//1 15//1 19//1
f 16//9 9//9 19//9
f 16//10 7//10 17//10
f 18//1 7//1 15//1
f 18//1 14//1 13//1
f 19//1 15//1 7//1
f 7//10 16//10 19//10
