# SSTK version 0.8.0
# 29
mtllib original-29.mtl
o mesh27/mesh27-geometry#mesh27-geometry
v -0.102452 -0.147918 0.238865
v -0.103690 -0.147918 0.233150
v -0.103690 -0.147918 0.238865
v -0.102452 -0.147918 0.233150
v -0.103690 -0.147918 0.241315
v -0.102574 -0.147918 0.241315
v -0.100383 -0.147918 0.233315
v -0.101839 -0.147918 0.230455
v -0.103690 -0.147918 0.247670
v -0.101594 -0.147918 0.241315
v -0.100477 -0.147918 0.238707
v -0.106861 -0.147918 0.230455
v -0.102574 -0.147918 0.247670
v -0.100029 -0.147918 0.247534
v -0.099179 -0.147918 0.238233
v -0.098662 -0.147918 0.230687
v -0.055126 -0.147918 0.220847
v -0.106861 -0.147918 0.250378
v -0.101812 -0.147918 0.250378
v -0.100022 -0.147918 0.241424
v -0.099104 -0.147918 0.233810
v -0.117565 -0.147918 0.220847
v -0.098696 -0.147918 0.247058
v -0.098968 -0.147918 0.241764
v -0.098759 -0.147918 0.237862
v -0.098717 -0.147918 0.234201
v -0.097711 -0.147918 0.230993
v -0.051657 -0.154040 0.217378
v -0.055126 -0.147918 0.283286
v -0.117565 -0.147918 0.283286
v -0.099366 -0.147918 0.250293
v -0.098440 -0.147918 0.234713
v -0.096913 -0.147918 0.231449
v -0.121033 -0.154040 0.217378
v -0.097743 -0.147918 0.250038
v -0.098318 -0.147918 0.242237
v -0.098459 -0.147918 0.237384
v -0.098219 -0.147918 0.236103
v -0.096603 -0.147918 0.239235
v -0.096091 -0.147918 0.232235
v -0.051657 -0.154040 0.286755
v -0.094096 -0.147918 0.244717
v -0.121033 -0.154040 0.286755
v -0.098165 -0.147918 0.246595
v -0.097838 -0.147918 0.239818
v -0.095477 -0.147918 0.233231
v -0.094346 -0.147918 0.242888
v -0.094201 -0.147918 0.245898
v -0.096631 -0.147918 0.249575
v -0.097770 -0.147918 0.245996
v -0.097838 -0.147918 0.242866
v -0.096282 -0.147918 0.240350
v -0.095702 -0.147918 0.238328
v -0.095094 -0.147918 0.234392
v -0.094967 -0.147918 0.235667
v -0.094518 -0.147918 0.247017
v -0.095715 -0.147918 0.248868
v -0.097525 -0.147918 0.245295
v -0.097542 -0.147918 0.243635
v -0.095151 -0.147918 0.237129
v -0.095096 -0.147918 0.241403
v -0.095028 -0.147918 0.248024
v -0.097444 -0.147918 0.244527
v -0.095643 -0.147918 0.240812
vn 0 1 0
vn 0 0.49301297568139624 -0.870021957084863
vn 0.8700219570848629 0.493012975681396 0
vn -0.8700219570848629 0.493012975681396 0
vn 0 0.49301297568139585 0.870021957084863
vn 0 -1 0
vn 0 -0.49301297568139624 0.870021957084863
vn -0.8700219570848629 -0.493012975681396 0
vn 0.8700219570848629 -0.493012975681396 0
vn 0 -0.49301297568139585 -0.870021957084863
usemtl material_0_0
f 1//1 2//1 3//1
f 2//1 1//1 4//1
f 4//1 1//1 7//1
f 7//1 1//1 11//1
f 13//1 5//1 9//1
f 5//1 13//1 6//1
f 6//1 14//1 10//1
f 7//1 11//1 15//1
f 17//1 12//1 8//1
f 6//1 13//1 14//1
f 10//1 14//1 20//1
f 7//1 15//1 21//1
f 17//1 8//1 16//1
f 22//1 12//1 17//1
f 12//1 22//1 18//1
f 20//1 14//1 23//1
f 21//1 15//1 25//1
f 17//1 16//1 27//1
f 28//2 22//2 17//2
f 18//1 29//1 19//1
f 30//1 18//1 22//1
f 20//1 23//1 24//1
f 21//1 25//1 26//1
f 17//1 27//1 33//1
f 22//2 28//2 34//2
f 29//3 28//3 17//3
f 18//1 30//1 29//1
f 19//1 29//1 31//1
f 34//4 30//4 22//4
f 24//1 23//1 36//1
f 26//1 25//1 37//1
f 26//1 37//1 32//1
f 17//1 33//1 40//1
f 28//3 29//3 41//3
f 17//1 42//1 29//1
f 43//5 29//5 30//5
f 31//1 29//1 35//1
f 30//4 34//4 43//4
f 36//1 23//1 44//1
f 32//1 37//1 38//1
f 17//1 40//1 46//1
f 29//5 43//5 41//5
f 17//1 47//1 42//1
f 48//1 29//1 42//1
f 35//1 29//1 49//1
f 36//1 44//1 51//1
f 52//1 39//1 45//1
f 17//1 46//1 54//1
f 17//1 55//1 47//1
f 56//1 29//1 48//1
f 49//1 29//1 57//1
f 51//1 44//1 50//1
f 39//1 52//1 53//1
f 17//1 54//1 55//1
f 55//1 61//1 47//1
f 62//1 29//1 56//1
f 57//1 29//1 62//1
f 59//1 50//1 58//1
f 51//1 50//1 59//1
f 53//1 52//1 64//1
f 53//1 64//1 60//1
f 60//1 61//1 55//1
f 59//1 58//1 63//1
f 60//1 64//1 61//1
usemtl material_1_0
f 3//6 2//6 1//6
f 4//6 1//6 2//6
f 3//6 5//6 2//6
f 1//6 6//6 3//6
f 7//6 1//6 4//6
f 4//6 2//6 8//6
f 5//6 9//6 2//6
f 5//6 3//6 6//6
f 10//6 6//6 1//6
f 11//6 1//6 7//6
f 7//6 4//6 8//6
f 8//6 2//6 12//6
f 9//6 12//6 2//6
f 9//6 5//6 13//6
f 6//6 13//6 5//6
f 10//6 14//6 6//6
f 11//6 10//6 1//6
f 15//6 11//6 7//6
f 16//6 7//6 8//6
f 8//6 12//6 17//6
f 12//6 9//6 18//6
f 13//6 19//6 9//6
f 14//6 13//6 6//6
f 20//6 14//6 10//6
f 20//6 10//6 11//6
f 15//6 20//6 11//6
f 21//6 15//6 7//6
f 21//6 7//6 16//6
f 16//6 8//6 17//6
f 17//6 12//6 22//6
f 19//6 18//6 9//6
f 18//6 22//6 12//6
f 14//6 19//6 13//6
f 23//6 14//6 20//6
f 24//6 20//6 15//6
f 25//6 15//6 21//6
f 26//6 21//6 16//6
f 27//6 16//6 17//6
f 17//7 22//7 28//7
f 19//6 29//6 18//6
f 22//6 18//6 30//6
f 31//6 19//6 14//6
f 23//6 31//6 14//6
f 24//6 23//6 20//6
f 25//6 24//6 15//6
f 26//6 25//6 21//6
f 32//6 26//6 16//6
f 27//6 32//6 16//6
f 33//6 27//6 17//6
f 34//7 28//7 22//7
f 17//8 28//8 29//8
f 29//6 30//6 18//6
f 31//6 29//6 19//6
f 22//9 30//9 34//9
f 35//6 31//6 23//6
f 36//6 23//6 24//6
f 36//6 24//6 25//6
f 37//6 25//6 26//6
f 32//6 37//6 26//6
f 38//6 32//6 27//6
f 33//6 39//6 27//6
f 40//6 33//6 17//6
f 41//8 29//8 28//8
f 29//6 42//6 17//6
f 30//10 29//10 43//10
f 35//6 29//6 31//6
f 43//9 34//9 30//9
f 44//6 35//6 23//6
f 44//6 23//6 36//6
f 37//6 36//6 25//6
f 38//6 37//6 32//6
f 45//6 38//6 27//6
f 39//6 45//6 27//6
f 40//6 39//6 33//6
f 46//6 40//6 17//6
f 41//10 43//10 29//10
f 42//6 47//6 17//6
f 42//6 29//6 48//6
f 49//6 29//6 35//6
f 50//6 35//6 44//6
f 51//6 44//6 36//6
f 38//6 36//6 37//6
f 51//6 38//6 45//6
f 45//6 39//6 52//6
f 53//6 39//6 40//6
f 46//6 53//6 40//6
f 54//6 46//6 17//6
f 47//6 55//6 17//6
f 42//6 48//6 47//6
f 48//6 29//6 56//6
f 57//6 29//6 49//6
f 49//6 35//6 58//6
f 58//6 35//6 50//6
f 50//6 44//6 51//6
f 51//6 36//6 38//6
f 51//6 45//6 59//6
f 53//6 52//6 39//6
f 52//6 59//6 45//6
f 60//6 53//6 46//6
f 54//6 60//6 46//6
f 55//6 54//6 17//6
f 47//6 61//6 55//6
f 48//6 56//6 47//6
f 56//6 29//6 62//6
f 62//6 29//6 57//6
f 57//6 49//6 52//6
f 63//6 49//6 58//6
f 58//6 50//6 59//6
f 59//6 50//6 51//6
f 64//6 52//6 53//6
f 63//6 59//6 52//6
f 60//6 64//6 53//6
f 55//6 60//6 54//6
f 55//6 61//6 60//6
f 47//6 62//6 61//6
f 56//6 62//6 47//6
f 62//6 57//6 64//6
f 49//6 63//6 52//6
f 64//6 57//6 52//6
f 63//6 58//6 59//6
f 61//6 64//6 60//6
f 61//6 62//6 64//6
usemtl material_2_0
f 2//1 5//1 3//1
f 3//1 6//1 1//1
f 8//1 2//1 4//1
f 2//1 9//1 5//1
f 6//1 3//1 5//1
f 1//1 6//1 10//1
f 8//1 4//1 7//1
f 12//1 2//1 8//1
f 2//1 12//1 9//1
f 1//1 10//1 11//1
f 8//1 7//1 16//1
f 18//1 9//1 12//1
f 9//1 19//1 13//1
f 11//1 10//1 20//1
f 11//1 20//1 15//1
f 16//1 7//1 21//1
f 9//1 18//1 19//1
f 13//1 19//1 14//1
f 15//1 20//1 24//1
f 16//1 21//1 26//1
f 14//1 19//1 31//1
f 14//1 31//1 23//1
f 15//1 24//1 25//1
f 16//1 26//1 32//1
f 16//1 32//1 27//1
f 23//1 31//1 35//1
f 25//1 24//1 36//1
f 27//1 32//1 38//1
f 27//1 39//1 33//1
f 23//1 35//1 44//1
f 25//1 36//1 37//1
f 27//1 38//1 45//1
f 27//1 45//1 39//1
f 33//1 39//1 40//1
f 44//1 35//1 50//1
f 37//1 36//1 38//1
f 45//1 38//1 51//1
f 40//1 39//1 53//1
f 40//1 53//1 46//1
f 47//1 48//1 42//1
f 58//1 35//1 49//1
f 50//1 35//1 58//1
f 38//1 36//1 51//1
f 59//1 45//1 51//1
f 45//1 59//1 52//1
f 46//1 53//1 60//1
f 46//1 60//1 54//1
f 47//1 56//1 48//1
f 52//1 49//1 57//1
f 58//1 49//1 63//1
f 52//1 59//1 63//1
f 54//1 60//1 55//1
f 61//1 62//1 47//1
f 47//1 62//1 56//1
f 64//1 57//1 62//1
f 52//1 63//1 49//1
f 52//1 57//1 64//1
f 64//1 62//1 61//1
