# SSTK version 0.8.0
# 23
mtllib original-23.mtl
o mesh5/mesh5-geometry/material_0#mesh5-geometry
v -0.178058 -0.227155 0.805836
v -0.185608 -0.217319 0.799502
v -0.185608 -0.217319 0.805836
v -0.185608 -0.217319 0.799502
v -0.178058 -0.227155 0.805836
v -0.178058 -0.227155 0.799502
v -0.185608 -0.217319 0.805836
v -0.185608 -0.217319 0.799502
v -0.178058 -0.227155 0.805836
v -0.178058 -0.227155 0.799502
v -0.178058 -0.227155 0.805836
v -0.185608 -0.217319 0.799502
v -0.185608 -0.217319 0.799502
v -0.195444 -0.209770 0.805836
v -0.185608 -0.217319 0.805836
v -0.185608 -0.217319 0.805836
v -0.195444 -0.209770 0.805836
v -0.185608 -0.217319 0.799502
v -0.173315 -0.238612 0.805836
v -0.178058 -0.227155 0.799502
v -0.178058 -0.227155 0.805836
v -0.178058 -0.227155 0.805836
v -0.178058 -0.227155 0.799502
v -0.173315 -0.238612 0.805836
v -0.178058 -0.227155 0.799502
v -0.178058 -0.274656 0.799502
v -0.185608 -0.217319 0.799502
v -0.185608 -0.217319 0.799502
v -0.178058 -0.274656 0.799502
v -0.178058 -0.227155 0.799502
v -0.195444 -0.209770 0.805836
v -0.185608 -0.217319 0.799502
v -0.195444 -0.209770 0.799502
v -0.195444 -0.209770 0.799502
v -0.185608 -0.217319 0.799502
v -0.195444 -0.209770 0.805836
v -0.178058 -0.227155 0.799502
v -0.173315 -0.238612 0.805836
v -0.173315 -0.238612 0.799502
v -0.173315 -0.238612 0.799502
v -0.173315 -0.238612 0.805836
v -0.178058 -0.227155 0.799502
v -0.173315 -0.238612 0.799502
v -0.178058 -0.274656 0.799502
v -0.178058 -0.227155 0.799502
v -0.178058 -0.227155 0.799502
v -0.178058 -0.274656 0.799502
v -0.173315 -0.238612 0.799502
v -0.185608 -0.217319 0.799502
v -0.178058 -0.274656 0.799502
v -0.185608 -0.284492 0.799502
v -0.185608 -0.284492 0.799502
v -0.178058 -0.274656 0.799502
v -0.185608 -0.217319 0.799502
v -0.185608 -0.217319 0.799502
v -0.185608 -0.284492 0.799502
v -0.195444 -0.209770 0.799502
v -0.195444 -0.209770 0.799502
v -0.185608 -0.284492 0.799502
v -0.185608 -0.217319 0.799502
v -0.195444 -0.209770 0.799502
v -0.206901 -0.205026 0.805836
v -0.195444 -0.209770 0.805836
v -0.195444 -0.209770 0.805836
v -0.206901 -0.205026 0.805836
v -0.195444 -0.209770 0.799502
v -0.178058 -0.274656 0.805836
v -0.173315 -0.263199 0.799502
v -0.173315 -0.263199 0.805836
v -0.173315 -0.263199 0.805836
v -0.173315 -0.263199 0.799502
v -0.178058 -0.274656 0.805836
v -0.171693 -0.250906 0.805836
v -0.173315 -0.238612 0.799502
v -0.173315 -0.238612 0.805836
v -0.173315 -0.238612 0.805836
v -0.173315 -0.238612 0.799502
v -0.171693 -0.250906 0.805836
v -0.173315 -0.238612 0.799502
v -0.173315 -0.263199 0.799502
v -0.178058 -0.274656 0.799502
v -0.178058 -0.274656 0.799502
v -0.173315 -0.263199 0.799502
v -0.173315 -0.238612 0.799502
v -0.178058 -0.274656 0.799502
v -0.185608 -0.284492 0.805836
v -0.185608 -0.284492 0.799502
v -0.185608 -0.284492 0.799502
v -0.185608 -0.284492 0.805836
v -0.178058 -0.274656 0.799502
v -0.195444 -0.209770 0.799502
v -0.185608 -0.284492 0.799502
v -0.195444 -0.292041 0.799502
v -0.195444 -0.292041 0.799502
v -0.185608 -0.284492 0.799502
v -0.195444 -0.209770 0.799502
v -0.206901 -0.205026 0.805836
v -0.195444 -0.209770 0.799502
v -0.206901 -0.205026 0.799502
v -0.206901 -0.205026 0.799502
v -0.195444 -0.209770 0.799502
v -0.206901 -0.205026 0.805836
v -0.173315 -0.263199 0.799502
v -0.178058 -0.274656 0.805836
v -0.178058 -0.274656 0.799502
v -0.178058 -0.274656 0.799502
v -0.178058 -0.274656 0.805836
v -0.173315 -0.263199 0.799502
v -0.171693 -0.250906 0.799502
v -0.173315 -0.263199 0.805836
v -0.173315 -0.263199 0.799502
v -0.173315 -0.263199 0.799502
v -0.173315 -0.263199 0.805836
v -0.171693 -0.250906 0.799502
v -0.185608 -0.284492 0.805836
v -0.178058 -0.274656 0.799502
v -0.178058 -0.274656 0.805836
v -0.178058 -0.274656 0.805836
v -0.178058 -0.274656 0.799502
v -0.185608 -0.284492 0.805836
v -0.173315 -0.238612 0.799502
v -0.171693 -0.250906 0.805836
v -0.171693 -0.250906 0.799502
v -0.171693 -0.250906 0.799502
v -0.171693 -0.250906 0.805836
v -0.173315 -0.238612 0.799502
v -0.173315 -0.263199 0.805836
v -0.171693 -0.250906 0.799502
v -0.171693 -0.250906 0.805836
v -0.171693 -0.250906 0.805836
v -0.171693 -0.250906 0.799502
v -0.173315 -0.263199 0.805836
v -0.173315 -0.263199 0.799502
v -0.173315 -0.238612 0.799502
v -0.171693 -0.250906 0.799502
v -0.171693 -0.250906 0.799502
v -0.173315 -0.238612 0.799502
v -0.173315 -0.263199 0.799502
v -0.185608 -0.284492 0.805836
v -0.195444 -0.292041 0.799502
v -0.185608 -0.284492 0.799502
v -0.185608 -0.284492 0.799502
v -0.195444 -0.292041 0.799502
v -0.185608 -0.284492 0.805836
v -0.195444 -0.209770 0.799502
v -0.195444 -0.292041 0.799502
v -0.206901 -0.205026 0.799502
v -0.206901 -0.205026 0.799502
v -0.195444 -0.292041 0.799502
v -0.195444 -0.209770 0.799502
v -0.206901 -0.205026 0.799502
v -0.219194 -0.203405 0.805836
v -0.206901 -0.205026 0.805836
v -0.206901 -0.205026 0.805836
v -0.219194 -0.203405 0.805836
v -0.206901 -0.205026 0.799502
v -0.195444 -0.292041 0.799502
v -0.185608 -0.284492 0.805836
v -0.195444 -0.292041 0.805836
v -0.195444 -0.292041 0.805836
v -0.185608 -0.284492 0.805836
v -0.195444 -0.292041 0.799502
v -0.206901 -0.205026 0.799502
v -0.195444 -0.292041 0.799502
v -0.206901 -0.296785 0.799502
v -0.206901 -0.296785 0.799502
v -0.195444 -0.292041 0.799502
v -0.206901 -0.205026 0.799502
v -0.219194 -0.203405 0.805836
v -0.206901 -0.205026 0.799502
v -0.219194 -0.203405 0.799502
v -0.219194 -0.203405 0.799502
v -0.206901 -0.205026 0.799502
v -0.219194 -0.203405 0.805836
v -0.195444 -0.292041 0.805836
v -0.206901 -0.296785 0.799502
v -0.195444 -0.292041 0.799502
v -0.195444 -0.292041 0.799502
v -0.206901 -0.296785 0.799502
v -0.195444 -0.292041 0.805836
v -0.206901 -0.205026 0.799502
v -0.206901 -0.296785 0.799502
v -0.219194 -0.203405 0.799502
v -0.219194 -0.203405 0.799502
v -0.206901 -0.296785 0.799502
v -0.206901 -0.205026 0.799502
v -0.219194 -0.203405 0.799502
v -0.231487 -0.205026 0.805836
v -0.219194 -0.203405 0.805836
v -0.219194 -0.203405 0.805836
v -0.231487 -0.205026 0.805836
v -0.219194 -0.203405 0.799502
v -0.206901 -0.296785 0.799502
v -0.195444 -0.292041 0.805836
v -0.206901 -0.296785 0.805836
v -0.206901 -0.296785 0.805836
v -0.195444 -0.292041 0.805836
v -0.206901 -0.296785 0.799502
v -0.219194 -0.203405 0.799502
v -0.206901 -0.296785 0.799502
v -0.219194 -0.298407 0.799502
v -0.219194 -0.298407 0.799502
v -0.206901 -0.296785 0.799502
v -0.219194 -0.203405 0.799502
v -0.231487 -0.205026 0.805836
v -0.219194 -0.203405 0.799502
v -0.231487 -0.205026 0.799502
v -0.231487 -0.205026 0.799502
v -0.219194 -0.203405 0.799502
v -0.231487 -0.205026 0.805836
v -0.206901 -0.296785 0.805836
v -0.219194 -0.298407 0.799502
v -0.206901 -0.296785 0.799502
v -0.206901 -0.296785 0.799502
v -0.219194 -0.298407 0.799502
v -0.206901 -0.296785 0.805836
v -0.219194 -0.203405 0.799502
v -0.219194 -0.298407 0.799502
v -0.231487 -0.205026 0.799502
v -0.231487 -0.205026 0.799502
v -0.219194 -0.298407 0.799502
v -0.219194 -0.203405 0.799502
v -0.231487 -0.205026 0.799502
v -0.242945 -0.209770 0.805836
v -0.231487 -0.205026 0.805836
v -0.231487 -0.205026 0.805836
v -0.242945 -0.209770 0.805836
v -0.231487 -0.205026 0.799502
v -0.219194 -0.298407 0.799502
v -0.206901 -0.296785 0.805836
v -0.219194 -0.298407 0.805836
v -0.219194 -0.298407 0.805836
v -0.206901 -0.296785 0.805836
v -0.219194 -0.298407 0.799502
v -0.231487 -0.205026 0.799502
v -0.219194 -0.298407 0.799502
v -0.231487 -0.296785 0.799502
v -0.231487 -0.296785 0.799502
v -0.219194 -0.298407 0.799502
v -0.231487 -0.205026 0.799502
v -0.242945 -0.209770 0.805836
v -0.231487 -0.205026 0.799502
v -0.242945 -0.209770 0.799502
v -0.242945 -0.209770 0.799502
v -0.231487 -0.205026 0.799502
v -0.242945 -0.209770 0.805836
v -0.219194 -0.298407 0.805836
v -0.231487 -0.296785 0.799502
v -0.219194 -0.298407 0.799502
v -0.219194 -0.298407 0.799502
v -0.231487 -0.296785 0.799502
v -0.219194 -0.298407 0.805836
v -0.231487 -0.205026 0.799502
v -0.231487 -0.296785 0.799502
v -0.242945 -0.209770 0.799502
v -0.242945 -0.209770 0.799502
v -0.231487 -0.296785 0.799502
v -0.231487 -0.205026 0.799502
v -0.242945 -0.209770 0.799502
v -0.252787 -0.217319 0.805836
v -0.242945 -0.209770 0.805836
v -0.242945 -0.209770 0.805836
v -0.252787 -0.217319 0.805836
v -0.242945 -0.209770 0.799502
v -0.231487 -0.296785 0.799502
v -0.219194 -0.298407 0.805836
v -0.231487 -0.296785 0.805836
v -0.231487 -0.296785 0.805836
v -0.219194 -0.298407 0.805836
v -0.231487 -0.296785 0.799502
v -0.242945 -0.209770 0.799502
v -0.231487 -0.296785 0.799502
v -0.242945 -0.292041 0.799502
v -0.242945 -0.292041 0.799502
v -0.231487 -0.296785 0.799502
v -0.242945 -0.209770 0.799502
v -0.252787 -0.217319 0.805836
v -0.242945 -0.209770 0.799502
v -0.252787 -0.217319 0.799502
v -0.252787 -0.217319 0.799502
v -0.242945 -0.209770 0.799502
v -0.252787 -0.217319 0.805836
v -0.231487 -0.296785 0.805836
v -0.242945 -0.292041 0.799502
v -0.231487 -0.296785 0.799502
v -0.231487 -0.296785 0.799502
v -0.242945 -0.292041 0.799502
v -0.231487 -0.296785 0.805836
v -0.242945 -0.209770 0.799502
v -0.242945 -0.292041 0.799502
v -0.252787 -0.217319 0.799502
v -0.252787 -0.217319 0.799502
v -0.242945 -0.292041 0.799502
v -0.242945 -0.209770 0.799502
v -0.260330 -0.227155 0.799502
v -0.252787 -0.217319 0.805836
v -0.252787 -0.217319 0.799502
v -0.252787 -0.217319 0.799502
v -0.252787 -0.217319 0.805836
v -0.260330 -0.227155 0.799502
v -0.242945 -0.292041 0.799502
v -0.231487 -0.296785 0.805836
v -0.242945 -0.292041 0.805836
v -0.242945 -0.292041 0.805836
v -0.231487 -0.296785 0.805836
v -0.242945 -0.292041 0.799502
v -0.252787 -0.217319 0.799502
v -0.242945 -0.292041 0.799502
v -0.252787 -0.284492 0.799502
v -0.252787 -0.284492 0.799502
v -0.242945 -0.292041 0.799502
v -0.252787 -0.217319 0.799502
v -0.252787 -0.217319 0.805836
v -0.260330 -0.227155 0.799502
v -0.260330 -0.227155 0.805836
v -0.260330 -0.227155 0.805836
v -0.260330 -0.227155 0.799502
v -0.252787 -0.217319 0.805836
v -0.252787 -0.217319 0.799502
v -0.252787 -0.284492 0.799502
v -0.260330 -0.227155 0.799502
v -0.260330 -0.227155 0.799502
v -0.252787 -0.284492 0.799502
v -0.252787 -0.217319 0.799502
v -0.242945 -0.292041 0.805836
v -0.252787 -0.284492 0.799502
v -0.242945 -0.292041 0.799502
v -0.242945 -0.292041 0.799502
v -0.252787 -0.284492 0.799502
v -0.242945 -0.292041 0.805836
v -0.265080 -0.238612 0.799502
v -0.260330 -0.227155 0.805836
v -0.260330 -0.227155 0.799502
v -0.260330 -0.227155 0.799502
v -0.260330 -0.227155 0.805836
v -0.265080 -0.238612 0.799502
v -0.260330 -0.227155 0.799502
v -0.252787 -0.284492 0.799502
v -0.260330 -0.274656 0.799502
v -0.260330 -0.274656 0.799502
v -0.252787 -0.284492 0.799502
v -0.260330 -0.227155 0.799502
v -0.252787 -0.284492 0.799502
v -0.242945 -0.292041 0.805836
v -0.252787 -0.284492 0.805836
v -0.252787 -0.284492 0.805836
v -0.242945 -0.292041 0.805836
v -0.252787 -0.284492 0.799502
v -0.260330 -0.227155 0.805836
v -0.265080 -0.238612 0.799502
v -0.265080 -0.238612 0.805836
v -0.265080 -0.238612 0.805836
v -0.265080 -0.238612 0.799502
v -0.260330 -0.227155 0.805836
v -0.260330 -0.227155 0.799502
v -0.260330 -0.274656 0.799502
v -0.265080 -0.238612 0.799502
v -0.265080 -0.238612 0.799502
v -0.260330 -0.274656 0.799502
v -0.260330 -0.227155 0.799502
v -0.252787 -0.284492 0.799502
v -0.260330 -0.274656 0.805836
v -0.260330 -0.274656 0.799502
v -0.260330 -0.274656 0.799502
v -0.260330 -0.274656 0.805836
v -0.252787 -0.284492 0.799502
v -0.260330 -0.274656 0.805836
v -0.252787 -0.284492 0.799502
v -0.252787 -0.284492 0.805836
v -0.252787 -0.284492 0.805836
v -0.252787 -0.284492 0.799502
v -0.260330 -0.274656 0.805836
v -0.266695 -0.250906 0.799502
v -0.265080 -0.238612 0.805836
v -0.265080 -0.238612 0.799502
v -0.265080 -0.238612 0.799502
v -0.265080 -0.238612 0.805836
v -0.266695 -0.250906 0.799502
v -0.265080 -0.238612 0.799502
v -0.260330 -0.274656 0.799502
v -0.265080 -0.263199 0.799502
v -0.265080 -0.263199 0.799502
v -0.260330 -0.274656 0.799502
v -0.265080 -0.238612 0.799502
v -0.265080 -0.263199 0.805836
v -0.260330 -0.274656 0.799502
v -0.260330 -0.274656 0.805836
v -0.260330 -0.274656 0.805836
v -0.260330 -0.274656 0.799502
v -0.265080 -0.263199 0.805836
v -0.265080 -0.238612 0.805836
v -0.266695 -0.250906 0.799502
v -0.266695 -0.250906 0.805836
v -0.266695 -0.250906 0.805836
v -0.266695 -0.250906 0.799502
v -0.265080 -0.238612 0.805836
v -0.265080 -0.238612 0.799502
v -0.265080 -0.263199 0.799502
v -0.266695 -0.250906 0.799502
v -0.266695 -0.250906 0.799502
v -0.265080 -0.263199 0.799502
v -0.265080 -0.238612 0.799502
v -0.260330 -0.274656 0.799502
v -0.265080 -0.263199 0.805836
v -0.265080 -0.263199 0.799502
v -0.265080 -0.263199 0.799502
v -0.265080 -0.263199 0.805836
v -0.260330 -0.274656 0.799502
v -0.265080 -0.263199 0.799502
v -0.266695 -0.250906 0.805836
v -0.266695 -0.250906 0.799502
v -0.266695 -0.250906 0.799502
v -0.266695 -0.250906 0.805836
v -0.265080 -0.263199 0.799502
v -0.266695 -0.250906 0.805836
v -0.265080 -0.263199 0.799502
v -0.265080 -0.263199 0.805836
v -0.265080 -0.263199 0.805836
v -0.265080 -0.263199 0.799502
v -0.266695 -0.250906 0.805836
vn 0.8660252955903434 0.5000001873976233 0
vn 0.7071067811865476 0.7071067811865476 0
vn -0.7071067811865476 -0.7071067811865476 0
vn -0.8660252955903434 -0.5000001873976233 0
vn 0.5000001873976233 0.8660252955903434 0
vn -0.5000001873976233 -0.8660252955903434 0
vn 0.9659258451755842 0.25881897461707376 0
vn -0.9659258451755842 -0.25881897461707376 0
vn 0 0 -1
vn 0 0 1
vn 0.25881897461707376 0.9659258451755842 0
vn -0.25881897461707376 -0.9659258451755842 0
vn 0.8660252955903434 -0.5000001873976233 0
vn 0.9659258451755842 -0.25881897461707376 0
vn -0.9659258451755842 0.25881897461707376 0
vn -0.8660252955903434 0.5000001873976233 0
vn 1 0 0
vn -1 0 0
vn 0.7071067811865476 -0.7071067811865476 0
vn -0.7071067811865476 0.7071067811865476 0
vn 0.5000001873976233 -0.8660252955903434 0
vn -0.5000001873976233 0.8660252955903434 0
vn 0 1 0
vn 0 -1 0
vn 0.25881897461707376 -0.9659258451755842 0
vn -0.25881897461707376 0.9659258451755842 0
usemtl material_0_0
f 1//1 2//2 3//2
f 4//2 5//1 6//1
f 7//3 8//3 9//4
f 10//4 11//4 12//3
f 13//2 14//5 15//2
f 16//3 17//6 18//3
f 19//7 20//1 21//1
f 22//4 23//4 24//8
f 25//9 26//9 27//9
f 28//10 29//10 30//10
f 31//5 32//2 33//5
f 34//6 35//3 36//6
f 37//1 38//7 39//7
f 40//8 41//8 42//4
f 43//9 44//9 45//9
f 46//10 47//10 48//10
f 49//9 50//9 51//9
f 52//10 53//10 54//10
f 55//9 56//9 57//9
f 58//10 59//10 60//10
f 61//5 62//11 63//5
f 64//6 65//12 66//6
f 67//13 68//14 69//14
f 70//15 71//15 72//16
f 73//17 74//7 75//7
f 76//8 77//8 78//18
f 79//9 80//9 81//9
f 82//10 83//10 84//10
f 85//13 86//19 87//19
f 88//20 89//20 90//16
f 91//9 92//9 93//9
f 94//10 95//10 96//10
f 97//11 98//5 99//11
f 100//12 101//6 102//12
f 103//14 104//13 105//13
f 106//16 107//16 108//15
f 109//17 110//14 111//14
f 112//15 113//15 114//18
f 115//19 116//13 117//13
f 118//16 119//16 120//20
f 121//7 122//17 123//17
f 124//18 125//18 126//8
f 127//14 128//17 129//17
f 130//18 131//18 132//15
f 133//9 134//9 135//9
f 136//10 137//10 138//10
f 139//19 140//21 141//19
f 142//20 143//22 144//20
f 145//9 146//9 147//9
f 148//10 149//10 150//10
f 151//11 152//23 153//11
f 154//12 155//24 156//12
f 157//21 158//19 159//21
f 160//22 161//20 162//22
f 163//9 164//9 165//9
f 166//10 167//10 168//10
f 169//23 170//11 171//23
f 172//24 173//12 174//24
f 175//21 176//25 177//21
f 178//22 179//26 180//22
f 181//9 182//9 183//9
f 184//10 185//10 186//10
f 187//23 188//26 189//23
f 190//24 191//25 192//24
f 193//25 194//21 195//25
f 196//26 197//22 198//26
f 199//9 200//9 201//9
f 202//10 203//10 204//10
f 205//26 206//23 207//26
f 208//25 209//24 210//25
f 211//25 212//24 213//25
f 214//26 215//23 216//26
f 217//9 218//9 219//9
f 220//10 221//10 222//10
f 223//26 224//22 225//26
f 226//25 227//21 228//25
f 229//24 230//25 231//24
f 232//23 233//26 234//23
f 235//9 236//9 237//9
f 238//10 239//10 240//10
f 241//22 242//26 243//22
f 244//21 245//25 246//21
f 247//24 248//12 249//24
f 250//23 251//11 252//23
f 253//9 254//9 255//9
f 256//10 257//10 258//10
f 259//22 260//20 261//22
f 262//21 263//19 264//21
f 265//12 266//24 267//12
f 268//11 269//23 270//11
f 271//9 272//9 273//9
f 274//10 275//10 276//10
f 277//20 278//22 279//20
f 280//19 281//21 282//19
f 283//12 284//6 285//12
f 286//11 287//5 288//11
f 289//9 290//9 291//9
f 292//10 293//10 294//10
f 295//16 296//20 297//20
f 298//19 299//19 300//13
f 301//6 302//12 303//6
f 304//5 305//11 306//5
f 307//9 308//9 309//9
f 310//10 311//10 312//10
f 313//20 314//16 315//16
f 316//13 317//13 318//19
f 319//9 320//9 321//9
f 322//10 323//10 324//10
f 325//6 326//3 327//6
f 328//5 329//2 330//5
f 331//15 332//16 333//16
f 334//13 335//13 336//14
f 337//9 338//9 339//9
f 340//10 341//10 342//10
f 343//3 344//6 345//3
f 346//2 347//5 348//2
f 349//16 350//15 351//15
f 352//14 353//14 354//13
f 355//9 356//9 357//9
f 358//10 359//10 360//10
f 361//3 362//4 363//4
f 364//1 365//1 366//2
f 367//4 368//3 369//3
f 370//2 371//2 372//1
f 373//18 374//15 375//15
f 376//14 377//14 378//17
f 379//9 380//9 381//9
f 382//10 383//10 384//10
f 385//8 386//4 387//4
f 388//1 389//1 390//7
f 391//15 392//18 393//18
f 394//17 395//17 396//14
f 397//9 398//9 399//9
f 400//10 401//10 402//10
f 403//4 404//8 405//8
f 406//7 407//7 408//1
f 409//8 410//18 411//18
f 412//17 413//17 414//7
f 415//18 416//8 417//8
f 418//7 419//7 420//17
