# SSTK version 0.8.0
# 20
mtllib original-20.mtl
o mesh4/mesh4-geometry/material_0#mesh4-geometry
v -0.231487 -0.078357 0.805836
v -0.219194 -0.076736 0.799502
v -0.231487 -0.078357 0.799502
v -0.219194 -0.076736 0.799502
v -0.231487 -0.078357 0.805836
v -0.219194 -0.076736 0.805836
v -0.231487 -0.078357 0.799502
v -0.219194 -0.076736 0.799502
v -0.231487 -0.078357 0.805836
v -0.219194 -0.076736 0.805836
v -0.231487 -0.078357 0.805836
v -0.219194 -0.076736 0.799502
v -0.219194 -0.076736 0.799502
v -0.219194 -0.171738 0.799502
v -0.231487 -0.078357 0.799502
v -0.231487 -0.078357 0.799502
v -0.219194 -0.171738 0.799502
v -0.219194 -0.076736 0.799502
v -0.231487 -0.078357 0.799502
v -0.242945 -0.083101 0.805836
v -0.231487 -0.078357 0.805836
v -0.231487 -0.078357 0.805836
v -0.242945 -0.083101 0.805836
v -0.231487 -0.078357 0.799502
v -0.219194 -0.076736 0.805836
v -0.206901 -0.078357 0.799502
v -0.219194 -0.076736 0.799502
v -0.219194 -0.076736 0.799502
v -0.206901 -0.078357 0.799502
v -0.219194 -0.076736 0.805836
v -0.219194 -0.076736 0.799502
v -0.206901 -0.170116 0.799502
v -0.219194 -0.171738 0.799502
v -0.219194 -0.171738 0.799502
v -0.206901 -0.170116 0.799502
v -0.219194 -0.076736 0.799502
v -0.231487 -0.078357 0.799502
v -0.219194 -0.171738 0.799502
v -0.231487 -0.170116 0.799502
v -0.231487 -0.170116 0.799502
v -0.219194 -0.171738 0.799502
v -0.231487 -0.078357 0.799502
v -0.242945 -0.083101 0.805836
v -0.231487 -0.078357 0.799502
v -0.242945 -0.083101 0.799502
v -0.242945 -0.083101 0.799502
v -0.231487 -0.078357 0.799502
v -0.242945 -0.083101 0.805836
v -0.206901 -0.078357 0.799502
v -0.219194 -0.076736 0.805836
v -0.206901 -0.078357 0.805836
v -0.206901 -0.078357 0.805836
v -0.219194 -0.076736 0.805836
v -0.206901 -0.078357 0.799502
v -0.206901 -0.078357 0.799502
v -0.206901 -0.170116 0.799502
v -0.219194 -0.076736 0.799502
v -0.219194 -0.076736 0.799502
v -0.206901 -0.170116 0.799502
v -0.206901 -0.078357 0.799502
v -0.206901 -0.170116 0.805836
v -0.219194 -0.171738 0.799502
v -0.206901 -0.170116 0.799502
v -0.206901 -0.170116 0.799502
v -0.219194 -0.171738 0.799502
v -0.206901 -0.170116 0.805836
v -0.219194 -0.171738 0.805836
v -0.231487 -0.170116 0.799502
v -0.219194 -0.171738 0.799502
v -0.219194 -0.171738 0.799502
v -0.231487 -0.170116 0.799502
v -0.219194 -0.171738 0.805836
v -0.231487 -0.078357 0.799502
v -0.231487 -0.170116 0.799502
v -0.242945 -0.083101 0.799502
v -0.242945 -0.083101 0.799502
v -0.231487 -0.170116 0.799502
v -0.231487 -0.078357 0.799502
v -0.242945 -0.083101 0.799502
v -0.252787 -0.090651 0.805836
v -0.242945 -0.083101 0.805836
v -0.242945 -0.083101 0.805836
v -0.252787 -0.090651 0.805836
v -0.242945 -0.083101 0.799502
v -0.206901 -0.078357 0.805836
v -0.195444 -0.083101 0.799502
v -0.206901 -0.078357 0.799502
v -0.206901 -0.078357 0.799502
v -0.195444 -0.083101 0.799502
v -0.206901 -0.078357 0.805836
v -0.206901 -0.078357 0.799502
v -0.195444 -0.165373 0.799502
v -0.206901 -0.170116 0.799502
v -0.206901 -0.170116 0.799502
v -0.195444 -0.165373 0.799502
v -0.206901 -0.078357 0.799502
v -0.219194 -0.171738 0.799502
v -0.206901 -0.170116 0.805836
v -0.219194 -0.171738 0.805836
v -0.219194 -0.171738 0.805836
v -0.206901 -0.170116 0.805836
v -0.219194 -0.171738 0.799502
v -0.206901 -0.170116 0.799502
v -0.195444 -0.165373 0.805836
v -0.206901 -0.170116 0.805836
v -0.206901 -0.170116 0.805836
v -0.195444 -0.165373 0.805836
v -0.206901 -0.170116 0.799502
v -0.231487 -0.170116 0.799502
v -0.219194 -0.171738 0.805836
v -0.231487 -0.170116 0.805836
v -0.231487 -0.170116 0.805836
v -0.219194 -0.171738 0.805836
v -0.231487 -0.170116 0.799502
v -0.242945 -0.083101 0.799502
v -0.231487 -0.170116 0.799502
v -0.242945 -0.165373 0.799502
v -0.242945 -0.165373 0.799502
v -0.231487 -0.170116 0.799502
v -0.242945 -0.083101 0.799502
v -0.252787 -0.090651 0.805836
v -0.242945 -0.083101 0.799502
v -0.252787 -0.090651 0.799502
v -0.252787 -0.090651 0.799502
v -0.242945 -0.083101 0.799502
v -0.252787 -0.090651 0.805836
v -0.195444 -0.083101 0.799502
v -0.206901 -0.078357 0.805836
v -0.195444 -0.083101 0.805836
v -0.195444 -0.083101 0.805836
v -0.206901 -0.078357 0.805836
v -0.195444 -0.083101 0.799502
v -0.195444 -0.083101 0.799502
v -0.195444 -0.165373 0.799502
v -0.206901 -0.078357 0.799502
v -0.206901 -0.078357 0.799502
v -0.195444 -0.165373 0.799502
v -0.195444 -0.083101 0.799502
v -0.195444 -0.165373 0.805836
v -0.206901 -0.170116 0.799502
v -0.195444 -0.165373 0.799502
v -0.195444 -0.165373 0.799502
v -0.206901 -0.170116 0.799502
v -0.195444 -0.165373 0.805836
v -0.231487 -0.170116 0.805836
v -0.242945 -0.165373 0.799502
v -0.231487 -0.170116 0.799502
v -0.231487 -0.170116 0.799502
v -0.242945 -0.165373 0.799502
v -0.231487 -0.170116 0.805836
v -0.242945 -0.083101 0.799502
v -0.242945 -0.165373 0.799502
v -0.252787 -0.090651 0.799502
v -0.252787 -0.090651 0.799502
v -0.242945 -0.165373 0.799502
v -0.242945 -0.083101 0.799502
v -0.260330 -0.100486 0.799502
v -0.252787 -0.090651 0.805836
v -0.252787 -0.090651 0.799502
v -0.252787 -0.090651 0.799502
v -0.252787 -0.090651 0.805836
v -0.260330 -0.100486 0.799502
v -0.195444 -0.083101 0.805836
v -0.185608 -0.090651 0.799502
v -0.195444 -0.083101 0.799502
v -0.195444 -0.083101 0.799502
v -0.185608 -0.090651 0.799502
v -0.195444 -0.083101 0.805836
v -0.195444 -0.083101 0.799502
v -0.185608 -0.157823 0.799502
v -0.195444 -0.165373 0.799502
v -0.195444 -0.165373 0.799502
v -0.185608 -0.157823 0.799502
v -0.195444 -0.083101 0.799502
v -0.195444 -0.165373 0.799502
v -0.185608 -0.157823 0.805836
v -0.195444 -0.165373 0.805836
v -0.195444 -0.165373 0.805836
v -0.185608 -0.157823 0.805836
v -0.195444 -0.165373 0.799502
v -0.242945 -0.165373 0.799502
v -0.231487 -0.170116 0.805836
v -0.242945 -0.165373 0.805836
v -0.242945 -0.165373 0.805836
v -0.231487 -0.170116 0.805836
v -0.242945 -0.165373 0.799502
v -0.252787 -0.090651 0.799502
v -0.242945 -0.165373 0.799502
v -0.252787 -0.157823 0.799502
v -0.252787 -0.157823 0.799502
v -0.242945 -0.165373 0.799502
v -0.252787 -0.090651 0.799502
v -0.252787 -0.090651 0.805836
v -0.260330 -0.100486 0.799502
v -0.260330 -0.100486 0.805836
v -0.260330 -0.100486 0.805836
v -0.260330 -0.100486 0.799502
v -0.252787 -0.090651 0.805836
v -0.252787 -0.090651 0.799502
v -0.252787 -0.157823 0.799502
v -0.260330 -0.100486 0.799502
v -0.260330 -0.100486 0.799502
v -0.252787 -0.157823 0.799502
v -0.252787 -0.090651 0.799502
v -0.185608 -0.090651 0.799502
v -0.195444 -0.083101 0.805836
v -0.185608 -0.090651 0.805836
v -0.185608 -0.090651 0.805836
v -0.195444 -0.083101 0.805836
v -0.185608 -0.090651 0.799502
v -0.185608 -0.090651 0.799502
v -0.185608 -0.157823 0.799502
v -0.195444 -0.083101 0.799502
v -0.195444 -0.083101 0.799502
v -0.185608 -0.157823 0.799502
v -0.185608 -0.090651 0.799502
v -0.185608 -0.157823 0.805836
v -0.195444 -0.165373 0.799502
v -0.185608 -0.157823 0.799502
v -0.185608 -0.157823 0.799502
v -0.195444 -0.165373 0.799502
v -0.185608 -0.157823 0.805836
v -0.242945 -0.165373 0.805836
v -0.252787 -0.157823 0.799502
v -0.242945 -0.165373 0.799502
v -0.242945 -0.165373 0.799502
v -0.252787 -0.157823 0.799502
v -0.242945 -0.165373 0.805836
v -0.265080 -0.111944 0.799502
v -0.260330 -0.100486 0.805836
v -0.260330 -0.100486 0.799502
v -0.260330 -0.100486 0.799502
v -0.260330 -0.100486 0.805836
v -0.265080 -0.111944 0.799502
v -0.260330 -0.100486 0.799502
v -0.252787 -0.157823 0.799502
v -0.260330 -0.147987 0.799502
v -0.260330 -0.147987 0.799502
v -0.252787 -0.157823 0.799502
v -0.260330 -0.100486 0.799502
v -0.178058 -0.100486 0.805836
v -0.185608 -0.090651 0.799502
v -0.185608 -0.090651 0.805836
v -0.185608 -0.090651 0.805836
v -0.185608 -0.090651 0.799502
v -0.178058 -0.100486 0.805836
v -0.185608 -0.090651 0.799502
v -0.178058 -0.147987 0.799502
v -0.185608 -0.157823 0.799502
v -0.185608 -0.157823 0.799502
v -0.178058 -0.147987 0.799502
v -0.185608 -0.090651 0.799502
v -0.178058 -0.147987 0.799502
v -0.185608 -0.157823 0.805836
v -0.185608 -0.157823 0.799502
v -0.185608 -0.157823 0.799502
v -0.185608 -0.157823 0.805836
v -0.178058 -0.147987 0.799502
v -0.252787 -0.157823 0.799502
v -0.242945 -0.165373 0.805836
v -0.252787 -0.157823 0.805836
v -0.252787 -0.157823 0.805836
v -0.242945 -0.165373 0.805836
v -0.252787 -0.157823 0.799502
v -0.260330 -0.100486 0.805836
v -0.265080 -0.111944 0.799502
v -0.265080 -0.111944 0.805836
v -0.265080 -0.111944 0.805836
v -0.265080 -0.111944 0.799502
v -0.260330 -0.100486 0.805836
v -0.260330 -0.100486 0.799502
v -0.260330 -0.147987 0.799502
v -0.265080 -0.111944 0.799502
v -0.265080 -0.111944 0.799502
v -0.260330 -0.147987 0.799502
v -0.260330 -0.100486 0.799502
v -0.252787 -0.157823 0.799502
v -0.260330 -0.147987 0.805836
v -0.260330 -0.147987 0.799502
v -0.260330 -0.147987 0.799502
v -0.260330 -0.147987 0.805836
v -0.252787 -0.157823 0.799502
v -0.185608 -0.090651 0.799502
v -0.178058 -0.100486 0.805836
v -0.178058 -0.100486 0.799502
v -0.178058 -0.100486 0.799502
v -0.178058 -0.100486 0.805836
v -0.185608 -0.090651 0.799502
v -0.178058 -0.100486 0.799502
v -0.178058 -0.147987 0.799502
v -0.185608 -0.090651 0.799502
v -0.185608 -0.090651 0.799502
v -0.178058 -0.147987 0.799502
v -0.178058 -0.100486 0.799502
v -0.185608 -0.157823 0.805836
v -0.178058 -0.147987 0.799502
v -0.178058 -0.147987 0.805836
v -0.178058 -0.147987 0.805836
v -0.178058 -0.147987 0.799502
v -0.185608 -0.157823 0.805836
v -0.260330 -0.147987 0.805836
v -0.252787 -0.157823 0.799502
v -0.252787 -0.157823 0.805836
v -0.252787 -0.157823 0.805836
v -0.252787 -0.157823 0.799502
v -0.260330 -0.147987 0.805836
v -0.266695 -0.124237 0.799502
v -0.265080 -0.111944 0.805836
v -0.265080 -0.111944 0.799502
v -0.265080 -0.111944 0.799502
v -0.265080 -0.111944 0.805836
v -0.266695 -0.124237 0.799502
v -0.265080 -0.111944 0.799502
v -0.260330 -0.147987 0.799502
v -0.265080 -0.136530 0.799502
v -0.265080 -0.136530 0.799502
v -0.260330 -0.147987 0.799502
v -0.265080 -0.111944 0.799502
v -0.265080 -0.136530 0.805836
v -0.260330 -0.147987 0.799502
v -0.260330 -0.147987 0.805836
v -0.260330 -0.147987 0.805836
v -0.260330 -0.147987 0.799502
v -0.265080 -0.136530 0.805836
v -0.173315 -0.111944 0.805836
v -0.178058 -0.100486 0.799502
v -0.178058 -0.100486 0.805836
v -0.178058 -0.100486 0.805836
v -0.178058 -0.100486 0.799502
v -0.173315 -0.111944 0.805836
v -0.173315 -0.111944 0.799502
v -0.178058 -0.147987 0.799502
v -0.178058 -0.100486 0.799502
v -0.178058 -0.100486 0.799502
v -0.178058 -0.147987 0.799502
v -0.173315 -0.111944 0.799502
v -0.173315 -0.136530 0.799502
v -0.178058 -0.147987 0.805836
v -0.178058 -0.147987 0.799502
v -0.178058 -0.147987 0.799502
v -0.178058 -0.147987 0.805836
v -0.173315 -0.136530 0.799502
v -0.265080 -0.111944 0.805836
v -0.266695 -0.124237 0.799502
v -0.266695 -0.124237 0.805836
v -0.266695 -0.124237 0.805836
v -0.266695 -0.124237 0.799502
v -0.265080 -0.111944 0.805836
v -0.265080 -0.111944 0.799502
v -0.265080 -0.136530 0.799502
v -0.266695 -0.124237 0.799502
v -0.266695 -0.124237 0.799502
v -0.265080 -0.136530 0.799502
v -0.265080 -0.111944 0.799502
v -0.260330 -0.147987 0.799502
v -0.265080 -0.136530 0.805836
v -0.265080 -0.136530 0.799502
v -0.265080 -0.136530 0.799502
v -0.265080 -0.136530 0.805836
v -0.260330 -0.147987 0.799502
v -0.178058 -0.100486 0.799502
v -0.173315 -0.111944 0.805836
v -0.173315 -0.111944 0.799502
v -0.173315 -0.111944 0.799502
v -0.173315 -0.111944 0.805836
v -0.178058 -0.100486 0.799502
v -0.173315 -0.111944 0.799502
v -0.173315 -0.136530 0.799502
v -0.178058 -0.147987 0.799502
v -0.178058 -0.147987 0.799502
v -0.173315 -0.136530 0.799502
v -0.173315 -0.111944 0.799502
v -0.178058 -0.147987 0.805836
v -0.173315 -0.136530 0.799502
v -0.173315 -0.136530 0.805836
v -0.173315 -0.136530 0.805836
v -0.173315 -0.136530 0.799502
v -0.178058 -0.147987 0.805836
v -0.265080 -0.136530 0.799502
v -0.266695 -0.124237 0.805836
v -0.266695 -0.124237 0.799502
v -0.266695 -0.124237 0.799502
v -0.266695 -0.124237 0.805836
v -0.265080 -0.136530 0.799502
v -0.266695 -0.124237 0.805836
v -0.265080 -0.136530 0.799502
v -0.265080 -0.136530 0.805836
v -0.265080 -0.136530 0.805836
v -0.265080 -0.136530 0.799502
v -0.266695 -0.124237 0.805836
v -0.171693 -0.124237 0.805836
v -0.173315 -0.111944 0.799502
v -0.173315 -0.111944 0.805836
v -0.173315 -0.111944 0.805836
v -0.173315 -0.111944 0.799502
v -0.171693 -0.124237 0.805836
v -0.173315 -0.136530 0.799502
v -0.173315 -0.111944 0.799502
v -0.171693 -0.124237 0.799502
v -0.171693 -0.124237 0.799502
v -0.173315 -0.111944 0.799502
v -0.173315 -0.136530 0.799502
v -0.171693 -0.124237 0.799502
v -0.173315 -0.136530 0.805836
v -0.173315 -0.136530 0.799502
v -0.173315 -0.136530 0.799502
v -0.173315 -0.136530 0.805836
v -0.171693 -0.124237 0.799502
v -0.173315 -0.111944 0.799502
v -0.171693 -0.124237 0.805836
v -0.171693 -0.124237 0.799502
v -0.171693 -0.124237 0.799502
v -0.171693 -0.124237 0.805836
v -0.173315 -0.111944 0.799502
v -0.173315 -0.136530 0.805836
v -0.171693 -0.124237 0.799502
v -0.171693 -0.124237 0.805836
v -0.171693 -0.124237 0.805836
v -0.171693 -0.124237 0.799502
v -0.173315 -0.136530 0.805836
vn -0.25881897461707376 0.9659258451755842 0
vn 0 1 0
vn 0.25881897461707376 -0.9659258451755842 0
vn 0 -1 0
vn 0 0 -1
vn 0 0 1
vn -0.5000001873976233 0.8660252955903434 0
vn 0.5000001873976233 -0.8660252955903434 0
vn 0.25881897461707376 0.9659258451755842 0
vn -0.25881897461707376 -0.9659258451755842 0
vn -0.7071067811865476 0.7071067811865476 0
vn 0.7071067811865476 -0.7071067811865476 0
vn 0.5000001873976233 0.8660252955903434 0
vn -0.5000001873976233 -0.8660252955903434 0
vn -0.8660252955903434 0.5000001873976233 0
vn 0.8660252955903434 -0.5000001873976233 0
vn 0.7071067811865476 0.7071067811865476 0
vn -0.7071067811865476 -0.7071067811865476 0
vn -0.9659258451755842 0.25881897461707376 0
vn 0.9659258451755842 -0.25881897461707376 0
vn 0.8660252955903434 0.5000001873976233 0
vn -0.8660252955903434 -0.5000001873976233 0
vn -1 0 0
vn 1 0 0
vn -0.9659258451755842 -0.25881897461707376 0
vn 0.9659258451755842 0.25881897461707376 0
usemtl material_0_0
f 1//1 2//2 3//1
f 4//2 5//1 6//2
f 7//3 8//4 9//3
f 10//4 11//3 12//4
f 13//5 14//5 15//5
f 16//6 17//6 18//6
f 19//1 20//7 21//1
f 22//3 23//8 24//3
f 25//2 26//9 27//2
f 28//4 29//10 30//4
f 31//5 32//5 33//5
f 34//6 35//6 36//6
f 37//5 38//5 39//5
f 40//6 41//6 42//6
f 43//7 44//1 45//7
f 46//8 47//3 48//8
f 49//9 50//2 51//9
f 52//10 53//4 54//10
f 55//5 56//5 57//5
f 58//6 59//6 60//6
f 61//3 62//4 63//3
f 64//1 65//2 66//1
f 67//4 68//10 69//4
f 70//2 71//9 72//2
f 73//5 74//5 75//5
f 76//6 77//6 78//6
f 79//7 80//11 81//7
f 82//8 83//12 84//8
f 85//9 86//13 87//9
f 88//10 89//14 90//10
f 91//5 92//5 93//5
f 94//6 95//6 96//6
f 97//4 98//3 99//4
f 100//2 101//1 102//2
f 103//3 104//8 105//3
f 106//1 107//7 108//1
f 109//10 110//4 111//10
f 112//9 113//2 114//9
f 115//5 116//5 117//5
f 118//6 119//6 120//6
f 121//11 122//7 123//11
f 124//12 125//8 126//12
f 127//13 128//9 129//13
f 130//14 131//10 132//14
f 133//5 134//5 135//5
f 136//6 137//6 138//6
f 139//8 140//3 141//8
f 142//7 143//1 144//7
f 145//10 146//14 147//10
f 148//9 149//13 150//9
f 151//5 152//5 153//5
f 154//6 155//6 156//6
f 157//15 158//11 159//11
f 160//12 161//12 162//16
f 163//13 164//17 165//13
f 166//14 167//18 168//14
f 169//5 170//5 171//5
f 172//6 173//6 174//6
f 175//8 176//12 177//8
f 178//7 179//11 180//7
f 181//14 182//10 183//14
f 184//13 185//9 186//13
f 187//5 188//5 189//5
f 190//6 191//6 192//6
f 193//11 194//15 195//15
f 196//16 197//16 198//12
f 199//5 200//5 201//5
f 202//6 203//6 204//6
f 205//17 206//13 207//17
f 208//18 209//14 210//18
f 211//5 212//5 213//5
f 214//6 215//6 216//6
f 217//12 218//8 219//12
f 220//11 221//7 222//11
f 223//14 224//18 225//14
f 226//13 227//17 228//13
f 229//19 230//15 231//15
f 232//16 233//16 234//20
f 235//5 236//5 237//5
f 238//6 239//6 240//6
f 241//21 242//17 243//17
f 244//18 245//18 246//22
f 247//5 248//5 249//5
f 250//6 251//6 252//6
f 253//16 254//12 255//12
f 256//11 257//11 258//15
f 259//18 260//14 261//18
f 262//17 263//13 264//17
f 265//15 266//19 267//19
f 268//20 269//20 270//16
f 271//5 272//5 273//5
f 274//6 275//6 276//6
f 277//18 278//22 279//22
f 280//21 281//21 282//17
f 283//17 284//21 285//21
f 286//22 287//22 288//18
f 289//5 290//5 291//5
f 292//6 293//6 294//6
f 295//12 296//16 297//16
f 298//15 299//15 300//11
f 301//22 302//18 303//18
f 304//17 305//17 306//21
f 307//23 308//19 309//19
f 310//20 311//20 312//24
f 313//5 314//5 315//5
f 316//6 317//6 318//6
f 319//25 320//22 321//22
f 322//21 323//21 324//26
f 325//26 326//21 327//21
f 328//22 329//22 330//25
f 331//5 332//5 333//5
f 334//6 335//6 336//6
f 337//20 338//16 339//16
f 340//15 341//15 342//19
f 343//19 344//23 345//23
f 346//24 347//24 348//20
f 349//5 350//5 351//5
f 352//6 353//6 354//6
f 355//22 356//25 357//25
f 358//26 359//26 360//21
f 361//21 362//26 363//26
f 364//25 365//25 366//22
f 367//5 368//5 369//5
f 370//6 371//6 372//6
f 373//16 374//20 375//20
f 376//19 377//19 378//15
f 379//25 380//23 381//23
f 382//24 383//24 384//26
f 385//23 386//25 387//25
f 388//26 389//26 390//24
f 391//24 392//26 393//26
f 394//25 395//25 396//23
f 397//5 398//5 399//5
f 400//6 401//6 402//6
f 403//24 404//20 405//20
f 406//19 407//19 408//23
f 409//26 410//24 411//24
f 412//23 413//23 414//25
f 415//20 416//24 417//24
f 418//23 419//23 420//19
