# SSTK version 0.8.0
# 2
mtllib original-2.mtl
o #ID22
v -0.275198 -0.529022 0.570514
v -0.414392 -0.534089 0.481838
v -0.275198 -0.534089 0.570514
v -0.414392 -0.529022 0.481838
v -0.414392 -0.529022 0.481838
v -0.275198 -0.529022 0.570514
v -0.414392 -0.534089 0.481838
v -0.275198 -0.534089 0.570514
v -0.117797 -0.534089 0.620142
v -0.275198 -0.529022 0.570514
v -0.275198 -0.534089 0.570514
v -0.117797 -0.529022 0.620142
v -0.117797 -0.529022 0.620142
v -0.117797 -0.534089 0.620142
v -0.275198 -0.529022 0.570514
v -0.275198 -0.534089 0.570514
v -0.370636 -0.529022 -0.520342
v -0.063115 -0.529022 -0.632270
v -0.224243 -0.529022 -0.596549
v -0.492316 -0.529022 -0.408842
v 0.101768 -0.529022 -0.625071
v -0.580992 -0.529022 -0.269648
v 0.259170 -0.529022 -0.575442
v 0.398363 -0.529022 -0.486766
v -0.630621 -0.529022 -0.112247
v -0.637820 -0.529022 0.052637
v 0.509863 -0.529022 -0.365086
v -0.602099 -0.529022 0.213765
v 0.586070 -0.529022 -0.218693
v 0.621791 -0.529022 -0.057565
v -0.525892 -0.529022 0.360157
v 0.614592 -0.529022 0.107318
v -0.414392 -0.529022 0.481838
v -0.275198 -0.529022 0.570514
v 0.564964 -0.529022 0.264720
v -0.117797 -0.529022 0.620142
v 0.476288 -0.529022 0.403913
v 0.047087 -0.529022 0.627341
v 0.354607 -0.529022 0.515413
v 0.208215 -0.529022 0.591620
v 0.208215 -0.529022 0.591620
v 0.047087 -0.529022 0.627341
v 0.354607 -0.529022 0.515413
v 0.476288 -0.529022 0.403913
v -0.117797 -0.529022 0.620142
v 0.564964 -0.529022 0.264720
v -0.275198 -0.529022 0.570514
v 0.614592 -0.529022 0.107318
v -0.414392 -0.529022 0.481838
v -0.525892 -0.529022 0.360157
v 0.621791 -0.529022 -0.057565
v -0.602099 -0.529022 0.213765
v 0.586070 -0.529022 -0.218693
v 0.509863 -0.529022 -0.365086
v -0.637820 -0.529022 0.052637
v 0.398363 -0.529022 -0.486766
v -0.630621 -0.529022 -0.112247
v -0.580992 -0.529022 -0.269648
v 0.259170 -0.529022 -0.575442
v 0.101768 -0.529022 -0.625071
v -0.492316 -0.529022 -0.408842
v -0.063115 -0.529022 -0.632270
v -0.370636 -0.529022 -0.520342
v -0.224243 -0.529022 -0.596549
v -0.414392 -0.529022 0.481838
v -0.525892 -0.534089 0.360157
v -0.414392 -0.534089 0.481838
v -0.525892 -0.529022 0.360157
v -0.525892 -0.529022 0.360157
v -0.414392 -0.529022 0.481838
v -0.525892 -0.534089 0.360157
v -0.414392 -0.534089 0.481838
v 0.047087 -0.534089 0.627341
v -0.117797 -0.529022 0.620142
v -0.117797 -0.534089 0.620142
v 0.047087 -0.529022 0.627341
v 0.047087 -0.529022 0.627341
v 0.047087 -0.534089 0.627341
v -0.117797 -0.529022 0.620142
v -0.117797 -0.534089 0.620142
v 0.398363 -0.529022 -0.486766
v 0.509863 -0.534089 -0.365086
v 0.398363 -0.534089 -0.486766
v 0.509863 -0.529022 -0.365086
v 0.509863 -0.529022 -0.365086
v 0.398363 -0.529022 -0.486766
v 0.509863 -0.534089 -0.365086
v 0.398363 -0.534089 -0.486766
v 0.259170 -0.529022 -0.575442
v 0.398363 -0.534089 -0.486766
v 0.259170 -0.534089 -0.575442
v 0.398363 -0.529022 -0.486766
v 0.398363 -0.529022 -0.486766
v 0.259170 -0.529022 -0.575442
v 0.398363 -0.534089 -0.486766
v 0.259170 -0.534089 -0.575442
v 0.259170 -0.529022 -0.575442
v 0.101768 -0.534089 -0.625071
v 0.101768 -0.529022 -0.625071
v 0.259170 -0.534089 -0.575442
v 0.259170 -0.534089 -0.575442
v 0.259170 -0.529022 -0.575442
v 0.101768 -0.534089 -0.625071
v 0.101768 -0.529022 -0.625071
v 0.101768 -0.529022 -0.625071
v -0.063115 -0.534089 -0.632270
v -0.063115 -0.529022 -0.632270
v 0.101768 -0.534089 -0.625071
v 0.101768 -0.534089 -0.625071
v 0.101768 -0.529022 -0.625071
v -0.063115 -0.534089 -0.632270
v -0.063115 -0.529022 -0.632270
v -0.063115 -0.529022 -0.632270
v -0.224243 -0.534089 -0.596549
v -0.224243 -0.529022 -0.596549
v -0.063115 -0.534089 -0.632270
v -0.063115 -0.534089 -0.632270
v -0.063115 -0.529022 -0.632270
v -0.224243 -0.534089 -0.596549
v -0.224243 -0.529022 -0.596549
v -0.224243 -0.529022 -0.596549
v -0.370636 -0.534089 -0.520342
v -0.370636 -0.529022 -0.520342
v -0.224243 -0.534089 -0.596549
v -0.224243 -0.534089 -0.596549
v -0.224243 -0.529022 -0.596549
v -0.370636 -0.534089 -0.520342
v -0.370636 -0.529022 -0.520342
v -0.370636 -0.529022 -0.520342
v -0.492316 -0.534089 -0.408842
v -0.492316 -0.529022 -0.408842
v -0.370636 -0.534089 -0.520342
v -0.370636 -0.534089 -0.520342
v -0.370636 -0.529022 -0.520342
v -0.492316 -0.534089 -0.408842
v -0.492316 -0.529022 -0.408842
v -0.492316 -0.529022 -0.408842
v -0.580992 -0.534089 -0.269648
v -0.580992 -0.529022 -0.269648
v -0.492316 -0.534089 -0.408842
v -0.492316 -0.534089 -0.408842
v -0.492316 -0.529022 -0.408842
v -0.580992 -0.534089 -0.269648
v -0.580992 -0.529022 -0.269648
v -0.630621 -0.529022 -0.112247
v -0.580992 -0.534089 -0.269648
v -0.630621 -0.534089 -0.112247
v -0.580992 -0.529022 -0.269648
v -0.580992 -0.529022 -0.269648
v -0.630621 -0.529022 -0.112247
v -0.580992 -0.534089 -0.269648
v -0.630621 -0.534089 -0.112247
v -0.637820 -0.529022 0.052637
v -0.630621 -0.534089 -0.112247
v -0.637820 -0.534089 0.052637
v -0.630621 -0.529022 -0.112247
v -0.630621 -0.529022 -0.112247
v -0.637820 -0.529022 0.052637
v -0.630621 -0.534089 -0.112247
v -0.637820 -0.534089 0.052637
v -0.602099 -0.529022 0.213765
v -0.637820 -0.534089 0.052637
v -0.602099 -0.534089 0.213765
v -0.637820 -0.529022 0.052637
v -0.637820 -0.529022 0.052637
v -0.602099 -0.529022 0.213765
v -0.637820 -0.534089 0.052637
v -0.602099 -0.534089 0.213765
v -0.525892 -0.529022 0.360157
v -0.602099 -0.534089 0.213765
v -0.525892 -0.534089 0.360157
v -0.602099 -0.529022 0.213765
v -0.602099 -0.529022 0.213765
v -0.525892 -0.529022 0.360157
v -0.602099 -0.534089 0.213765
v -0.525892 -0.534089 0.360157
v 0.208215 -0.534089 0.591620
v 0.047087 -0.529022 0.627341
v 0.047087 -0.534089 0.627341
v 0.208215 -0.529022 0.591620
v 0.208215 -0.529022 0.591620
v 0.208215 -0.534089 0.591620
v 0.047087 -0.529022 0.627341
v 0.047087 -0.534089 0.627341
v 0.354607 -0.534089 0.515413
v 0.208215 -0.529022 0.591620
v 0.208215 -0.534089 0.591620
v 0.354607 -0.529022 0.515413
v 0.354607 -0.529022 0.515413
v 0.354607 -0.534089 0.515413
v 0.208215 -0.529022 0.591620
v 0.208215 -0.534089 0.591620
v 0.476288 -0.534089 0.403913
v 0.354607 -0.529022 0.515413
v 0.354607 -0.534089 0.515413
v 0.476288 -0.529022 0.403913
v 0.476288 -0.529022 0.403913
v 0.476288 -0.534089 0.403913
v 0.354607 -0.529022 0.515413
v 0.354607 -0.534089 0.515413
v 0.564964 -0.534089 0.264720
v 0.476288 -0.529022 0.403913
v 0.476288 -0.534089 0.403913
v 0.564964 -0.529022 0.264720
v 0.564964 -0.529022 0.264720
v 0.564964 -0.534089 0.264720
v 0.476288 -0.529022 0.403913
v 0.476288 -0.534089 0.403913
v 0.614592 -0.529022 0.107318
v 0.564964 -0.534089 0.264720
v 0.614592 -0.534089 0.107318
v 0.564964 -0.529022 0.264720
v 0.564964 -0.529022 0.264720
v 0.614592 -0.529022 0.107318
v 0.564964 -0.534089 0.264720
v 0.614592 -0.534089 0.107318
v 0.621791 -0.529022 -0.057565
v 0.614592 -0.534089 0.107318
v 0.621791 -0.534089 -0.057565
v 0.614592 -0.529022 0.107318
v 0.614592 -0.529022 0.107318
v 0.621791 -0.529022 -0.057565
v 0.614592 -0.534089 0.107318
v 0.621791 -0.534089 -0.057565
v 0.586070 -0.529022 -0.218693
v 0.621791 -0.534089 -0.057565
v 0.586070 -0.534089 -0.218693
v 0.621791 -0.529022 -0.057565
v 0.621791 -0.529022 -0.057565
v 0.586070 -0.529022 -0.218693
v 0.621791 -0.534089 -0.057565
v 0.586070 -0.534089 -0.218693
v 0.509863 -0.529022 -0.365086
v 0.586070 -0.534089 -0.218693
v 0.509863 -0.534089 -0.365086
v 0.586070 -0.529022 -0.218693
v 0.586070 -0.529022 -0.218693
v 0.509863 -0.529022 -0.365086
v 0.586070 -0.534089 -0.218693
v 0.509863 -0.534089 -0.365086
vn -0.5372996070702792 0 0.8433914466261343
vn -0.30070580094780397 0 0.9537169502930833
vn 0 1 0
vn -0.7372773486058706 0 0.6755901947428615
vn -0.04361936992203958 0 0.9990482223434484
vn 0.7372773486058706 0 -0.6755901947428615
vn 0.5372996070702792 0 -0.8433914466261343
vn 0.30070580094780397 0 -0.9537169502930833
vn 0.04361936992203958 0 -0.9990482223434484
vn -0.216439611329772 0 -0.9762960076981863
vn -0.461748615604826 0 -0.887010831944586
vn -0.6755901947428616 0 -0.7372773486058706
vn -0.8433914466261343 0 -0.5372996070702792
vn -0.9537169502930833 0 -0.300705800947804
vn -0.9990482223434484 0 -0.04361936992203969
vn -0.9762960076981863 0 0.21643961132977188
vn -0.887010831944586 0 0.4617486156048259
vn 0.216439611329772 0 0.9762960076981863
vn 0.461748615604826 0 0.887010831944586
vn 0.6755901947428616 0 0.7372773486058706
vn 0.8433914466261343 0 0.5372996070702792
vn 0.9537169502930833 0 0.300705800947804
vn 0.9990482223434484 0 0.04361936992203969
vn 0.9762960076981863 0 -0.21643961132977188
vn 0.887010831944586 0 -0.4617486156048259
vn 0 -1 0
usemtl material_0_0
f 1//1 2//1 3//1
f 2//1 1//1 4//1
f 9//2 10//2 11//2
f 10//2 9//2 12//2
f 17//3 18//3 19//3
f 18//3 17//3 20//3
f 18//3 20//3 21//3
f 21//3 20//3 22//3
f 21//3 22//3 23//3
f 23//3 22//3 24//3
f 24//3 22//3 25//3
f 24//3 25//3 26//3
f 24//3 26//3 27//3
f 27//3 26//3 28//3
f 27//3 28//3 29//3
f 29//3 28//3 30//3
f 30//3 28//3 31//3
f 30//3 31//3 32//3
f 32//3 31//3 33//3
f 32//3 33//3 34//3
f 32//3 34//3 35//3
f 35//3 34//3 36//3
f 35//3 36//3 37//3
f 37//3 36//3 38//3
f 37//3 38//3 39//3
f 39//3 38//3 40//3
f 65//4 66//4 67//4
f 66//4 65//4 68//4
f 73//5 74//5 75//5
f 74//5 73//5 76//5
f 81//6 82//6 83//6
f 82//6 81//6 84//6
f 89//7 90//7 91//7
f 90//7 89//7 92//7
f 97//8 98//8 99//8
f 98//8 97//8 100//8
f 105//9 106//9 107//9
f 106//9 105//9 108//9
f 113//10 114//10 115//10
f 114//10 113//10 116//10
f 121//11 122//11 123//11
f 122//11 121//11 124//11
f 129//12 130//12 131//12
f 130//12 129//12 132//12
f 137//13 138//13 139//13
f 138//13 137//13 140//13
f 145//14 146//14 147//14
f 146//14 145//14 148//14
f 153//15 154//15 155//15
f 154//15 153//15 156//15
f 161//16 162//16 163//16
f 162//16 161//16 164//16
f 169//17 170//17 171//17
f 170//17 169//17 172//17
f 177//18 178//18 179//18
f 178//18 177//18 180//18
f 185//19 186//19 187//19
f 186//19 185//19 188//19
f 193//20 194//20 195//20
f 194//20 193//20 196//20
f 201//21 202//21 203//21
f 202//21 201//21 204//21
f 209//22 210//22 211//22
f 210//22 209//22 212//22
f 217//23 218//23 219//23
f 218//23 217//23 220//23
f 225//24 226//24 227//24
f 226//24 225//24 228//24
f 233//25 234//25 235//25
f 234//25 233//25 236//25
usemtl material_1_0
f 5//7 6//7 7//7
f 8//7 7//7 6//7
f 13//8 14//8 15//8
f 16//8 15//8 14//8
f 41//26 42//26 43//26
f 43//26 42//26 44//26
f 42//26 45//26 44//26
f 44//26 45//26 46//26
f 45//26 47//26 46//26
f 46//26 47//26 48//26
f 47//26 49//26 48//26
f 49//26 50//26 48//26
f 48//26 50//26 51//26
f 50//26 52//26 51//26
f 51//26 52//26 53//26
f 53//26 52//26 54//26
f 52//26 55//26 54//26
f 54//26 55//26 56//26
f 55//26 57//26 56//26
f 57//26 58//26 56//26
f 56//26 58//26 59//26
f 59//26 58//26 60//26
f 58//26 61//26 60//26
f 60//26 61//26 62//26
f 61//26 63//26 62//26
f 64//26 62//26 63//26
f 69//6 70//6 71//6
f 72//6 71//6 70//6
f 77//9 78//9 79//9
f 80//9 79//9 78//9
f 85//4 86//4 87//4
f 88//4 87//4 86//4
f 93//1 94//1 95//1
f 96//1 95//1 94//1
f 101//2 102//2 103//2
f 104//2 103//2 102//2
f 109//5 110//5 111//5
f 112//5 111//5 110//5
f 117//18 118//18 119//18
f 120//18 119//18 118//18
f 125//19 126//19 127//19
f 128//19 127//19 126//19
f 133//20 134//20 135//20
f 136//20 135//20 134//20
f 141//21 142//21 143//21
f 144//21 143//21 142//21
f 149//22 150//22 151//22
f 152//22 151//22 150//22
f 157//23 158//23 159//23
f 160//23 159//23 158//23
f 165//24 166//24 167//24
f 168//24 167//24 166//24
f 173//25 174//25 175//25
f 176//25 175//25 174//25
f 181//10 182//10 183//10
f 184//10 183//10 182//10
f 189//11 190//11 191//11
f 192//11 191//11 190//11
f 197//12 198//12 199//12
f 200//12 199//12 198//12
f 205//13 206//13 207//13
f 208//13 207//13 206//13
f 213//14 214//14 215//14
f 216//14 215//14 214//14
f 221//15 222//15 223//15
f 224//15 223//15 222//15
f 229//16 230//16 231//16
f 232//16 231//16 230//16
f 237//17 238//17 239//17
f 240//17 239//17 238//17
