# SSTK version 0.8.0
# 7
mtllib original-7.mtl
o mesh7/mesh7-geometry#mesh7-geometry
v -0.028691 -0.087374 -0.636274
v -0.006088 -0.090367 -0.642997
v 0.017167 -0.088363 -0.638494
v 0.034842 -0.081897 -0.623972
v -0.044588 -0.080185 -0.620127
v 0.042201 -0.072704 -0.603323
v -0.049516 -0.070727 -0.598882
v 0.037273 -0.063245 -0.582079
v -0.042158 -0.061533 -0.578233
v 0.021376 -0.056056 -0.565931
v -0.024482 -0.055067 -0.563711
v -0.001227 -0.053063 -0.559209
vn 0 -0.9135452493092733 0.40673711099979304
vn 0 0.9135452493092733 -0.40673711099979304
usemtl material_0_0
f 1//1 2//1 3//1
f 3//2 2//2 1//2
f 4//1 1//1 3//1
f 3//2 1//2 4//2
f 1//1 4//1 5//1
f 5//2 4//2 1//2
f 6//1 5//1 4//1
f 4//2 5//2 6//2
f 5//1 6//1 7//1
f 7//2 6//2 5//2
f 8//1 7//1 6//1
f 6//2 7//2 8//2
f 7//1 8//1 9//1
f 9//2 8//2 7//2
f 10//1 9//1 8//1
f 8//2 9//2 10//2
f 9//1 10//1 11//1
f 11//2 10//2 9//2
f 12//1 11//1 10//1
f 10//2 11//2 12//2
