# SSTK version 0.8.0
# 3
mtllib original-3.mtl
o mesh3/mesh3-geometry#mesh3-geometry
v -0.022050 0.444738 0.066583
v 0.024705 0.432580 0.064478
v -0.034620 0.432498 0.064455
v 0.012114 0.444779 0.066584
v 0.029639 0.415680 0.062429
v -0.039246 0.415561 0.062535
v -0.034562 0.398547 0.061790
v 0.024770 0.398652 0.061801
v -0.021950 0.386167 0.061980
v 0.012214 0.386234 0.061970
vn 0.00006899999029259904 0.1706779759878293 -0.9853268613773297
vn -0.00006899999029259904 -0.1706779759878293 0.9853268613773297
vn -0.0008990002594362294 0.11651703362483998 -0.9931882866172966
vn 0.0008990002594362294 -0.11651703362483998 0.9931882866172966
vn -0.0008749998307903615 0.04028599220939486 -0.9991878067745825
vn 0.0008749998307903615 -0.04028599220939486 0.9991878067745825
vn 0.00009200004488048484 -0.014457007052577926 -0.9998954877801347
vn -0.00009200004488048484 0.014457007052577926 0.9998954877801347
usemtl material_0_0
f 1//1 2//1 3//1
f 2//1 1//1 4//1
f 3//2 2//2 1//2
f 4//2 1//2 2//2
f 5//3 3//3 2//3
f 2//4 3//4 5//4
f 3//3 5//3 6//3
f 6//4 5//4 3//4
f 5//5 7//5 6//5
f 6//6 7//6 5//6
f 7//5 5//5 8//5
f 8//6 5//6 7//6
f 8//7 9//7 7//7
f 7//8 9//8 8//8
f 9//7 8//7 10//7
f 10//8 8//8 9//8
