# SSTK version 0.8.0
# 7
mtllib original-7.mtl
o Group33/mesh29/mesh29-geometry#mesh29-geometry
v -0.520131 0.093874 0.742002
v -0.520131 0.132764 0.72629
v -0.520131 0.129845 0.721234
v -0.520131 0.096793 0.747058
v -0.474371 0.130608 0.722556
v -0.413984 0.096793 0.747058
v -0.413984 0.129845 0.721234
v -0.474371 0.132001 0.724969
v -0.413984 0.093874 0.742002
v -0.413984 0.132764 0.72629
v -0.436669 0.130608 0.722556
v -0.436669 0.132001 0.724969
v -0.474371 0.143441 0.718364
v -0.455911 0.142048 0.715951
v -0.455911 0.143441 0.718364
v -0.474371 0.142048 0.715951
v -0.436669 0.166579 0.701788
v -0.455911 0.156661 0.710732
v -0.455911 0.155267 0.708319
v -0.462634 0.167972 0.704201
v -0.436669 0.167972 0.704201
v -0.462634 0.166579 0.701788
v -0.474371 0.156661 0.710732
v -0.474371 0.155267 0.708319
v -0.474371 0.162316 0.707466
v -0.474371 0.160923 0.705053
vt -0.997095 0.047184
vt -1.00311 0.004391
vt -0.997095 0.004391
vt -1.00311 0.047184
vt -0.998667 0.815297
vt -0.997095 0.862443
vt -1.00311 0.862443
vt -0.998667 -0.042755
vt 1.287842 0.862443
vt 1.293857 0.753082
vt 1.293857 0.862443
vt -1.00311 0.080468
vt -1.00311 0.18983
vt -0.997095 0.080468
vt 0.894064 0.047184
vt 1.003426 0.004391
vt 1.003426 0.047184
vt -1.045903 0.004391
vt -1.045903 -0.104971
vt -0.997095 0.753082
vt -0.997095 -0.104971
vt -1.001538 0.815297
vt -1.001538 -0.042755
vt 1.287842 0.753082
vt -0.997095 0.18983
vt 0.894064 0.004391
vt -1.00311 -0.104971
vt -0.998667 0.776453
vt -0.998667 -0.081599
vt -1.001538 0.776453
vt -1.001538 -0.081599
vt -0.827747 -2.014707
vt -0.832066 -1.988264
vt -0.834552 -1.991135
vt -0.834552 -2.849187
vt -0.832066 -2.846316
vt -0.827747 -2.872759
vt 1.287842 0.047184
vt 1.293857 0.004391
vt 1.293857 0.047184
vt -1.00311 0.753082
vt 0.210351 -2.363736
vt 0.196741 -2.324086
vt 0.196741 -2.401774
vt 0.196741 -3.259827
vt 0.196741 -3.182139
vt 0.210351 -3.221788
vt 0.196741 0.764163
vt 0.210351 0.803813
vt 0.196741 0.841852
vt 0.196741 -0.016201
vt 0.210351 -0.054239
vt 0.196741 -0.093889
vt -0.825261 -2.011836
vt -0.825261 -2.869888
vt 0.210351 0.841852
vt 0.210351 -0.016201
vt 1.287842 0.004391
vt 0.239535 -2.324086
vt 0.239535 -3.182139
vt 0.210351 -2.401774
vt 0.210351 -3.259827
vt 0.226077 0.803813
vt 0.226077 -0.054239
vt -1.001538 0.841852
vt -0.998667 0.803813
vt -0.998667 0.841852
vt -0.998667 -0.016201
vt -0.998667 -0.054239
vt -1.001538 -0.016201
vt -1.001538 0.803813
vt -1.001538 -0.054239
vt -0.810669 0.502462
vt -0.834552 0.431212
vt -0.832066 0.428341
vt -0.832066 -0.429711
vt -0.834552 -0.426841
vt -0.810669 -0.355591
vt 0.226077 -2.363736
vt 0.226077 -3.221788
vt 0.239535 0.817666
vt 0.239535 -0.040386
vt -0.819884 -2.041946
vt -0.819884 -2.899998
vt -0.813155 0.505332
vt -0.813155 -0.35272
vt 0.239535 -2.377589
vt 0.239535 -3.235641
vt -0.817398 -2.039075
vt -0.817398 -2.897128
vt 0.239535 0.764163
vt 0.239535 -0.093889
vt 0.226077 0.841852
vt 0.226077 -0.016201
vt -0.998667 0.764163
vt -1.001538 0.817666
vt -1.001538 0.764163
vt -1.001538 -0.093889
vt -1.001538 -0.040386
vt -0.998667 -0.093889
vt 0.226077 -2.401774
vt 0.226077 -3.259827
vt -0.998667 0.817666
vt -0.998667 -0.040386
vt -1.001538 -2.363736
vt -0.998667 -2.401774
vt -0.998667 -2.363736
vt -0.998667 -3.221788
vt -0.998667 -3.259827
vt -1.001538 -3.221788
vt 0.232806 0.841852
vt 0.232806 -0.016201
vt -1.001538 -2.401774
vt -1.001538 -3.259827
vt 0.232806 -2.401774
vt 0.232806 -3.259827
vt -1.135555 -0.129077
vt -1.142059 -0.103981
vt -1.138319 -0.130629
vt -1.138319 -0.988681
vt -1.142059 -0.962034
vt -1.135555 -0.987129
vt -0.816519 -2.053601
vt -0.816519 -2.911653
vt -0.814033 -2.05073
vt -0.814033 -2.908782
vt -1.139295 -0.102429
vt -1.139295 -0.960482
vn -1.0 0.0 0.0
vn 1.0 0.0 0.0
vn 0.0 0.8660253028382762 -0.5000001748438417
vn 0.0 -0.8660253028382762 0.5000001748438417
vn 0.0 0.5000001748438417 0.8660253028382762
vn 0.0 -0.5000001748438417 -0.8660253028382762
vn -0.48622788569731895 0.7567608221003085 -0.4369158972896045
vn 0.48622788569731895 -0.7567608221003085 0.4369158972896045
usemtl material_0_0
f 1/1/1 2/2/1 3/3/1
f 2/2/1 1/1/1 4/4/1
f 3/3/2 2/2/2 1/1/2
f 4/4/2 1/1/2 2/2/2
f 5/5/3 3/6/3 2/7/3
f 2/2/4 3/3/4 5/8/4
f 1/9/4 6/10/4 4/11/4
f 4/12/3 6/13/3 1/14/3
f 6/15/5 2/16/5 4/17/5
f 4/18/6 2/2/6 6/19/6
f 3/6/3 5/5/3 7/20/3
f 7/21/4 5/8/4 3/3/4
f 5/5/3 2/7/3 8/22/3
f 8/23/4 2/2/4 5/8/4
f 6/10/4 1/9/4 9/24/4
f 9/25/3 1/14/3 6/13/3
f 2/16/5 6/15/5 10/26/5
f 10/27/6 6/19/6 2/2/6
f 11/28/3 7/20/3 5/5/3
f 5/8/4 7/21/4 11/29/4
f 8/22/3 2/7/3 12/30/3
f 12/31/4 2/2/4 8/23/4
f 13/32/1 5/33/1 8/34/1
f 8/35/2 5/36/2 13/37/2
f 9/38/2 10/39/2 6/40/2
f 6/40/1 10/39/1 9/38/1
f 10/41/3 12/30/3 2/7/3
f 2/2/4 12/31/4 10/27/4
f 7/20/3 11/28/3 10/41/3
f 10/27/4 11/29/4 7/21/4
f 14/42/6 11/43/6 5/44/6
f 5/45/5 11/46/5 14/47/5
f 12/48/5 15/49/5 8/50/5
f 8/51/6 15/52/6 12/53/6
f 5/33/1 13/32/1 16/54/1
f 16/55/2 13/37/2 5/36/2
f 8/50/5 15/49/5 13/56/5
f 13/57/6 15/52/6 8/51/6
f 10/39/2 9/38/2 7/58/2
f 7/58/1 9/38/1 10/39/1
f 10/41/3 11/28/3 12/30/3
f 12/31/4 11/29/4 10/27/4
f 11/43/6 14/42/6 17/59/6
f 17/60/5 14/47/5 11/46/5
f 14/42/6 5/44/6 16/61/6
f 16/62/5 5/45/5 14/47/5
f 15/49/5 12/48/5 18/63/5
f 18/64/6 12/53/6 15/52/6
f 13/65/3 14/66/3 16/67/3
f 16/68/4 14/69/4 13/70/4
f 14/66/3 13/65/3 15/71/3
f 15/72/4 13/70/4 14/69/4
f 17/73/2 12/74/2 11/75/2
f 11/76/1 12/77/1 17/78/1
f 19/79/6 17/59/6 14/42/6
f 14/47/5 17/60/5 19/80/5
f 12/48/5 20/81/5 18/63/5
f 18/64/6 20/82/6 12/53/6
f 18/83/1 14/54/1 15/32/1
f 15/37/2 14/55/2 18/84/2
f 12/74/2 17/73/2 21/85/2
f 21/86/1 17/78/1 12/77/1
f 17/59/6 19/79/6 22/87/6
f 22/88/5 19/80/5 17/60/5
f 14/54/1 18/83/1 19/89/1
f 19/90/2 18/84/2 14/55/2
f 20/81/5 12/48/5 21/91/5
f 21/92/6 12/53/6 20/82/6
f 18/63/5 20/81/5 23/93/5
f 23/94/6 20/82/6 18/64/6
f 17/95/3 20/96/3 21/97/3
f 21/98/4 20/99/4 17/100/4
f 22/87/6 19/79/6 24/101/6
f 24/102/5 19/80/5 22/88/5
f 20/96/3 17/95/3 22/103/3
f 22/104/4 17/100/4 20/99/4
f 18/105/4 24/106/4 19/107/4
f 19/108/3 24/109/3 18/110/3
f 23/93/5 20/81/5 25/111/5
f 25/112/6 20/82/6 23/94/6
f 24/106/4 18/105/4 23/113/4
f 23/114/3 18/110/3 24/109/3
f 22/87/6 24/101/6 26/115/6
f 26/116/5 24/102/5 22/88/5
f 22/117/7 25/118/7 20/119/7
f 20/120/8 25/121/8 22/122/8
f 25/123/1 24/89/1 23/83/1
f 23/84/2 24/90/2 25/124/2
f 24/89/1 25/123/1 26/125/1
f 26/126/2 25/124/2 24/90/2
f 25/118/7 22/117/7 26/127/7
f 26/128/8 22/122/8 25/121/8
