mtllib new-12.mtl
v 0.348566 0.028154 -0.178724
v 0.348566 -0.393671 -0.178724
v -0.003870 0.028154 -0.178724
v -0.003869 -0.393671 -0.178724
v 0.332404 0.028159 -0.162562
v -0.356305 -0.393671 -0.178724
v -0.003870 0.028159 -0.162562
v -0.356305 0.028154 -0.178724
v -0.340143 0.028159 -0.162562
v 0.332404 -0.377665 -0.162563
v -0.003869 -0.377665 -0.162563
v -0.340143 -0.377665 -0.162563
vn 0.000000 0.000000 -1.000000
vn 0.000128 1.000000 -0.000128
vn 0.000000 1.000000 -0.000254
vn 0.000129 1.000000 -0.000128
vn -0.000085 1.000000 -0.000170
vn 0.000000 0.000000 1.000000
vn -0.000170 1.000000 -0.000085
vn -0.000129 -1.000000 0.000128
vn 0.000000 -1.000000 0.000254
vn -0.000128 -1.000000 0.000128
vn 0.000085 -1.000000 0.000170
vn 0.000170 -1.000000 0.000085
vt -0.206811 0.502574
vt -0.206811 0.258027
vt 0.000000 0.502574
vt 0.000000 0.258027
vt 0.206811 0.092703
vt 0.000000 0.092703
vt 0.197327 0.083219
vt 0.206811 0.258027
vt 0.000000 0.083219
vt 0.206811 0.502574
vt -0.197327 0.083219
vt 0.000000 0.502577
vt 0.197327 0.267306
vt 0.197327 0.502577
vt -0.206811 0.092703
vt -0.197327 0.502577
vt 0.000000 0.267306
vt -0.197327 0.267306
usemtl material-0
f 1/1/1 2/2/1 3/3/1
f 3/3/1 2/2/1 4/4/1
f 1/5/2 3/6/3 5/7/4
f 3/3/1 4/4/1 6/8/1
f 5/7/4 3/6/3 7/9/3
f 3/3/1 6/8/1 8/10/1
f 3/6/3 9/11/5 7/9/3
f 7/12/6 10/13/6 5/14/6
f 3/6/3 8/15/7 9/11/5
f 9/16/6 11/17/6 7/12/6
f 7/12/6 11/17/6 10/13/6
f 9/16/6 12/18/6 11/17/6
usemtl material-1
f 3//6 2//6 1//6
f 4//6 2//6 3//6
f 5//8 3//9 1//10
f 6//6 4//6 3//6
f 7//9 3//9 5//8
f 8//6 6//6 3//6
f 7//9 9//11 3//9
f 5//1 10//1 7//1
f 9//11 8//12 3//9
f 7//1 11//1 9//1
f 10//1 11//1 7//1
f 11//1 12//1 9//1