mtllib new-7.mtl
v 0.348566 0.359947 -0.178724
v 0.348566 0.196012 -0.178724
v 0.348566 0.359947 0.359662
v 0.332404 0.359951 -0.162562
v 0.348566 0.196012 0.359662
v 0.332404 0.359951 0.359662
v 0.332404 0.212018 -0.162562
v 0.332404 0.212018 0.359662
vn 1.000000 0.000000 0.000000
vn 0.000131 1.000000 -0.000130
vn 0.000260 1.000000 0.000000
vn -1.000000 0.000000 0.000000
vn -0.000131 -1.000000 0.000130
vn -0.000260 -1.000000 0.000000
vt 0.092829 0.599887
vt 0.092829 0.694926
vt -0.223098 0.694926
vt 0.206632 0.092829
vt 0.197148 0.083345
vt 0.206632 -0.223098
vt -0.223098 0.599887
vt 0.197148 -0.223098
vt -0.083345 0.609167
vt 0.223098 0.694929
vt -0.083345 0.694929
vt 0.223098 0.609166
usemtl material-0
f 2/1/1 1/2/1 3/3/1
f 1/4/2 4/5/2 3/6/3
f 2/1/1 3/3/1 5/7/1
f 3/6/3 4/5/2 6/8/3
f 7/9/4 6/10/4 4/11/4
f 7/9/4 8/12/4 6/10/4
usemtl material-1
f 3//4 1//4 2//4
f 3//6 4//5 1//5
f 5//4 3//4 2//4
f 6//6 4//5 3//6
f 4//1 6//1 7//1
f 6//1 8//1 7//1