# SSTK version 0.8.0
# 8
mtllib original-8.mtl
o mesh6/mesh6-geometry#mesh6-geometry
v -0.360968 0.130683 0.378278
v -0.360968 -0.420356 0.378278
v -0.282017 0.130683 0.409762
v -0.360968 0.130683 0.349775
v -0.282017 -0.420356 0.409762
v -0.282017 0.130683 0.381258
v -0.360968 -0.420356 0.349775
v -0.194401 0.130683 0.433788
v -0.194401 0.130683 0.405285
v -0.282017 -0.420356 0.381258
v -0.194401 -0.420356 0.433788
v -0.101343 0.130683 0.448745
v -0.101343 0.130683 0.420242
v -0.194401 -0.420356 0.405285
v -0.101343 -0.420356 0.448745
v -0.003869 0.130683 0.453895
v -0.003869 0.130683 0.425391
v -0.101343 -0.420356 0.420242
v -0.003869 -0.420356 0.453895
v 0.093604 0.130683 0.448745
v 0.093604 0.130683 0.420242
v -0.003869 -0.420356 0.425391
v 0.093604 -0.420356 0.448745
v 0.186662 0.130683 0.433789
v 0.186662 0.130683 0.405285
v 0.093604 -0.420356 0.420242
v 0.186662 -0.420356 0.433789
v 0.274279 0.130683 0.409762
v 0.274279 0.130683 0.381259
v 0.186662 -0.420356 0.405285
v 0.274278 -0.420356 0.409762
v 0.353229 0.130683 0.349775
v 0.353229 0.130683 0.378279
v 0.274278 -0.420356 0.381259
v 0.353229 -0.420356 0.378279
v 0.353229 -0.420356 0.349775
vt -0.107959 0.562014
vt -0.107959 0.242557
vt -0.058082 0.562014
vt 0.217297 0.562014
vt 0.234023 0.242557
vt 0.234023 0.562014
vt -0.058082 0.242557
vt -0.163218 -0.252497
vt -0.163218 -0.235771
vt -0.209547 -0.234023
vt 0.217297 0.242557
vt -0.209547 -0.217297
vt 0.163218 -0.252497
vt 0.209547 -0.234023
vt 0.209547 -0.217297
vt -0.090631 0.562014
vt -0.090631 0.242557
vt -0.03732 0.562014
vt -0.111805 -0.24987
vt 0.064278 0.562014
vt 0.114154 0.242557
vt 0.114154 0.562014
vt 0.163218 -0.235771
vt -0.03732 0.242557
vt -0.111805 -0.266596
vt 0.041743 0.562014
vt 0.095055 0.242557
vt 0.095055 0.562014
vt 0.064278 0.242557
vt 0.111805 -0.266596
vt -0.068082 0.562014
vt -0.068082 0.242557
vt -0.012774 0.562014
vt -0.057198 -0.258647
vt 0.041743 0.242557
vt 0.163219 -0.235772
vt 0.111805 -0.24987
vt -0.012774 0.242557
vt -0.057198 -0.275373
vt 0.015428 0.562014
vt 0.070736 0.242557
vt 0.070736 0.562014
vt 0.057198 -0.275373
vt -0.042591 0.562014
vt -0.042591 0.242557
vt 0.014687 0.562014
vt 0 -0.261668
vt 0.015428 0.242557
vt 0.057198 -0.275372
vt 0.111804 -0.24987
vt 0.057198 -0.258646
vt 0.014687 0.242557
vt 0 -0.278396
vt 0 -0.26167
vt -0.057198 -0.275375
vt 0.043473 0.562014
vt -0.013804 0.562014
vt 0.043474 0.242557
vt 0 -0.278394
vt -0.014686 0.562014
vt -0.014687 0.242557
vt 0.042591 0.562014
vt 0.057198 -0.258649
vt -0.013804 0.242557
vt 0.043473 0.242557
vt 0.057198 -0.258647
vt 0.042591 0.242557
vt 0.057197 -0.258647
vt 0.057197 -0.275373
vt -0.043473 0.562014
vt 0.013804 0.242557
vt 0.013804 0.562014
vt 0.012775 0.562014
vt 0.012775 0.242557
vt 0.068083 0.562014
vt -0.043473 0.242556
vt 0 -0.261669
vt 0.068083 0.242557
vt -0.070737 0.562014
vt -0.01543 0.242556
vt -0.01543 0.562014
vt -0.111805 -0.266597
vt 0.090631 0.562014
vt 0.03732 0.562014
vt 0.03732 0.242557
vt 0.163219 -0.235771
vt -0.070737 0.242557
vt 0.163219 -0.252497
vt 0.090631 0.242557
vt -0.095055 0.562014
vt -0.041743 0.242557
vt -0.041743 0.562014
vt -0.163219 -0.252497
vt 0.209546 -0.217297
vt 0.058082 0.562014
vt 0.058082 0.242557
vt 0.107958 0.562014
vt -0.095055 0.242557
vt -0.163219 -0.235771
vt -0.064277 0.562014
vt -0.114154 0.562014
vt -0.064277 0.242557
vt 0.209548 -0.217298
vt 0.163219 -0.252499
vt 0.209548 -0.234024
vt 0.107958 0.242556
vt -0.114154 0.562013
vt -0.114154 0.242556
vt -0.217297 0.562013
vt -0.234023 0.562014
vt -0.217297 0.242556
vt -0.234023 0.242556
vt -0.163218 -0.235772
vn -0.3704059848622486 0 0.9288699620389432
vn -0.33555696969098586 0 0.942019914912526
vn -1 0 0
vn -0.30019313866929925 0 0.9538784406285085
vn 0 1 0
vn 0 -1 0
vn -0.22950298968693916 0 0.9733079562629481
vn 0.33555696969098586 0 -0.942019914912526
vn 0.3704059848622486 0 -0.9288699620389432
vn 0 -1 0.000001012192991903421
vn -0.19419999170338817 0 0.9809619580913441
vn 0.22950298968693916 0 -0.9733079562629481
vn 0.30019313866929925 0 -0.9538784406285085
vn -0.12353404170781727 0 0.9923403350359851
vn 0.19419999170338817 0 -0.9809619580913441
vn -0.08817698437706782 0 0.9961048235131513
vn 0 1 -0.000001012192991903421
vn 0.12353404170781727 0 -0.9923403350359851
vn 0 -1 -0.0000010121929923475103
vn -0.017606000041717418 0 0.9998450023691328
vn 0 1 -0.0000020243859840257757
vn 0.08817698437706782 0 -0.9961048235131513
vn 0.017606999731722146 0 0.999844984765362
vn 0.017606000041717418 0 -0.9998450023691328
vn 0.08817599215229295 0 0.9961049113461687
vn -0.017606999731722146 0 -0.999844984765362
vn -0.0000010121929921249473 -1 0.0000010121929919029027
vn 0.12353194964190214 0 0.9923405954699578
vn -0.08817599215229295 0 -0.9961049113461687
vn 0.1941980671296227 0 0.9809623390951963
vn -0.12353194964190214 0 -0.9923405954699578
vn 0.2295020423582779 0 0.9733081796396141
vn -0.0000010121929921254657 1 0
vn -0.1941980671296227 0 -0.9809623390951963
vn 0.3001940485533894 0 0.9538781542802651
vn -0.2295020423582779 0 -0.9733081796396141
vn 0.0000010121929921254657 -1 0
vn 0.33555785709197916 0 0.9420195988108946
vn -0.3001940485533894 0 -0.9538781542802651
vn 0.3704068476611403 0 0.9288696179796908
vn -0.33555785709197916 0 -0.9420195988108946
vn -0.37040719172096 0 -0.9288694807783232
vn -0.0000010121929921207992 1 -0.000003036578976140353
vn -0.3704068476611403 0 -0.9288696179796908
vn 1 0 0
vn -0.0000010121929921233915 -1 0.0000020243859840247385
vn 0 1 0.0000010121929923475103
vn 0 -1 0.0000020243859840257757
vn 0.0000010121929921249473 1 -0.0000010121929919029027
vn 0.37040719172096 0 0.9288694807783232
vn 0.0000010121929921207992 -1 0.000003036578976140353
vn 0.0000010121929921233915 1 -0.0000020243859840247385
usemtl material_0_0
f 1/1/1 2/2/1 3/3/2
f 4/4/3 2/5/3 1/6/3
f 3/3/2 2/2/1 5/7/4
f 3/8/5 6/9/5 1/10/5
f 7/11/3 2/5/3 4/4/3
f 6/9/5 4/12/5 1/10/5
f 5/13/6 2/14/6 7/15/6
f 3/16/2 5/17/4 8/18/7
f 9/19/5 6/9/5 3/8/5
f 6/20/8 7/21/9 4/22/9
f 5/13/6 7/15/6 10/23/10
f 8/18/7 5/17/4 11/24/11
f 8/25/5 9/19/5 3/8/5
f 9/26/12 10/27/13 6/28/8
f 6/20/8 10/29/13 7/21/9
f 11/30/10 5/13/6 10/23/10
f 8/31/7 11/32/11 12/33/14
f 13/34/5 9/19/5 8/25/5
f 9/26/12 14/35/15 10/27/13
f 11/30/10 10/36/10 14/37/10
f 12/33/14 11/32/11 15/38/16
f 13/34/5 8/25/5 12/39/17
f 13/40/18 14/41/15 9/42/12
f 15/43/19 11/30/10 14/37/10
f 12/44/14 15/45/16 16/46/20
f 17/47/21 13/34/5 12/39/17
f 13/40/18 18/48/22 14/41/15
f 15/49/19 14/50/10 18/51/19
f 16/46/20 15/45/16 19/52/23
f 16/53/21 17/54/21 12/55/17
f 13/56/18 17/57/24 18/58/22
f 19/59/19 15/49/19 18/51/19
f 16/60/20 19/61/23 20/62/25
f 21/63/17 17/54/21 16/53/21
f 17/57/24 22/64/26 18/65/22
f 19/59/19 18/66/19 22/47/27
f 20/62/25 19/61/23 23/67/28
f 21/68/17 16/59/21 20/69/5
f 21/70/29 22/71/26 17/72/24
f 23/39/10 19/59/19 22/47/27
f 20/73/25 23/74/28 24/75/30
f 25/37/5 21/66/17 20/43/5
f 21/70/29 26/76/31 22/71/26
f 23/39/10 22/77/27 26/34/10
f 24/75/30 23/74/28 27/78/32
f 24/30/33 25/37/5 20/43/5
f 25/79/34 26/80/31 21/81/29
f 27/82/10 23/39/10 26/34/10
f 28/83/35 24/84/30 27/85/32
f 29/86/5 25/37/5 24/30/33
f 25/79/34 30/87/36 26/80/31
f 27/25/10 26/34/10 30/19/37
f 28/88/17 29/86/5 24/30/33
f 28/83/35 27/85/32 31/89/38
f 29/90/39 30/91/36 25/92/34
f 31/93/6 27/25/10 30/19/37
f 32/94/21 29/23/5 28/13/17
f 28/95/35 31/96/38 33/97/40
f 29/90/39 34/98/41 30/91/36
f 31/93/6 30/19/37 34/99/10
f 29/100/39 32/101/42 34/102/41
f 32/103/21 28/104/17 33/105/43
f 33/97/40 31/96/38 35/106/40
f 35/10/27 31/8/6 34/9/10
f 32/107/42 36/108/44 34/102/41
f 32/109/45 33/110/45 36/111/45
f 36/111/45 33/110/45 35/112/45
f 35/10/27 34/113/10 36/12/46
usemtl material_1_0
f 3//8 2//9 1//9
f 1//45 2//45 4//45
f 5//13 2//9 3//8
f 1//6 6//6 3//6
f 4//45 2//45 7//45
f 1//6 4//6 6//6
f 7//5 2//5 5//5
f 8//12 5//13 3//8
f 3//6 6//6 9//6
f 4//1 7//1 6//2
f 10//17 7//5 5//5
f 11//15 5//13 8//12
f 3//6 9//6 8//6
f 6//2 10//4 9//7
f 7//1 10//4 6//2
f 10//17 5//5 11//17
f 12//18 11//15 8//12
f 8//6 9//6 13//6
f 10//4 14//11 9//7
f 14//17 10//17 11//17
f 15//22 11//15 12//18
f 12//10 8//6 13//6
f 9//7 14//11 13//14
f 14//17 11//17 15//47
f 16//24 15//22 12//18
f 12//10 13//6 17//48
f 14//11 18//16 13//14
f 18//47 14//17 15//47
f 19//26 15//22 16//24
f 12//10 17//48 16//48
f 18//16 17//20 13//14
f 18//47 15//47 19//47
f 20//29 19//26 16//24
f 16//48 17//48 21//10
f 18//16 22//23 17//20
f 22//49 18//47 19//47
f 23//31 19//26 20//29
f 20//6 16//48 21//10
f 17//20 22//23 21//25
f 22//49 19//47 23//17
f 24//34 23//31 20//29
f 20//6 21//10 25//6
f 22//23 26//28 21//25
f 26//17 22//49 23//17
f 27//36 23//31 24//34
f 20//6 25//6 24//37
f 21//25 26//28 25//30
f 26//17 23//17 27//17
f 27//36 24//34 28//39
f 24//37 25//6 29//6
f 26//28 30//32 25//30
f 30//33 26//17 27//17
f 24//37 29//6 28//10
f 31//41 27//36 28//39
f 25//30 30//32 29//35
f 30//33 27//17 31//5
f 28//10 29//6 32//48
f 33//44 31//41 28//39
f 30//32 34//38 29//35
f 34//17 30//33 31//5
f 34//38 32//50 29//35
f 33//51 28//10 32//48
f 35//44 31//41 33//44
f 34//17 31//5 35//49
f 34//38 36//40 32//50
f 36//3 33//3 32//3
f 35//3 33//3 36//3
f 36//52 34//17 35//49
