# SSTK version 0.8.0
# 3
mtllib original-3.mtl
o mesh2/mesh2-geometry#mesh2-geometry
v 0.348566 0.310166 -0.159332
v 0.348566 0.250519 0.336988
v 0.348566 0.310166 0.336988
v 0.348566 0.250519 -0.159332
v 0.354193 0.250519 0.336988
v 0.354193 0.310166 0.336988
v 0.354193 0.310166 -0.159332
v 0.354193 0.250519 -0.159332
v 0.357509 0.253875 0.336988
v 0.357509 0.306810 -0.159332
v 0.357509 0.253875 -0.159332
v 0.357509 0.306810 0.336988
vt -0.081449 0.666066
vt 0.209793 0.631486
vt 0.209793 0.666066
vt -0.081449 0.631486
vt 0.206811 0.666066
vt 0.206811 0.631487
vt 0.210114 0.631487
vt 0.210113 -0.209793
vt 0.206811 0.081449
vt 0.206811 -0.209793
vt -0.210113 0.666066
vt -0.206811 0.631487
vt -0.206811 0.666066
vt -0.210113 0.081449
vt -0.206811 -0.209793
vt -0.206811 0.081449
vt -0.210113 -0.209793
vt 0.206812 0.666066
vt 0.21206 0.633432
vt 0.210113 0.081449
vt 0.206809 0.666066
vt 0.212056 0.633432
vt 0.210111 0.666066
vt -0.212058 0.664121
vt -0.210112 0.631487
vt -0.20681 0.631487
vt 0.081449 0.59785
vt -0.209793 0.595099
vt 0.081449 0.595099
vt 0.081449 0.597854
vt -0.209793 0.597854
vt -0.209793 0.595103
vt -0.209793 0.319652
vt 0.081449 0.322403
vt -0.209793 0.322403
vt 0.210112 0.666066
vt 0.212058 0.633432
vt 0.212058 0.66412
vt 0.081449 0.319652
vt -0.212058 0.633432
vt -0.210113 0.631487
vt 0.081449 0.633432
vt -0.209793 0.664121
vt -0.209793 0.633432
vt 0.081449 0.664121
vn -1 -0.0000019759077720893394 0
vn -1 -9.87953886046116e-7 0
vn -9.99999999999012e-7 9.879538858235776e-7 1
vn -0.000003999999999968 0 1
vn -0.0000049999999999375 0 1
vn 0.25560418123932843 0.9667815174758838 0
vn 0 1 0
vn 0 -9.879538858240714e-7 -1
vn 0.000001999999999995024 -9.879538858220955e-7 -1
vn 0.25560418123932843 -0.9667815174758838 0
vn 0 -1 0
vn 0.5100162324599852 -0.8601647764395622 0
vn 9.99999999999012e-7 9.879538858235776e-7 1
vn 0.5100119341906011 0.8601673249915752 0
vn 0.000004999999999927739 0.0000019759077718425957 1
vn 0.000003999999999966047 -9.879538858161677e-7 -1
vn 0.9255040341019218 -0.3787377494534557 0
vn 0.9255052185209005 -0.378734855130314 0
vn 0.9255023590649605 0.37874184263848193 0
vn 0.000001999999999992096 0.000001975907771863343 1
vn 9.99999999999012e-7 -9.879538858235776e-7 -1
vn 1 9.87953886046116e-7 0
vn 1 0.0000019759077720893394 0
vn 0.0000049999999999375 0 -1
vn 0.000003999999999968 0 -1
vn -0.25560418123932843 -0.9667815174758838 0
vn 0 9.879538858240714e-7 1
vn -0.000001999999999995024 9.879538858220955e-7 1
vn -0.25560418123932843 0.9667815174758838 0
vn -0.5100162324599852 0.8601647764395622 0
vn -9.99999999999012e-7 -9.879538858235776e-7 -1
vn -0.5100119341906011 -0.8601673249915752 0
vn -0.000004999999999927739 -0.0000019759077718425957 -1
vn -0.000003999999999966047 9.879538858161677e-7 1
vn -0.9255040341019218 0.3787377494534557 0
vn -0.9255052185209005 0.378734855130314 0
vn -0.9255023590649605 -0.37874184263848193 0
vn -0.000001999999999992096 -0.000001975907771863343 -1
usemtl material_0_0
f 1/1/1 2/2/1 3/3/2
f 1/1/1 4/4/1 2/2/1
f 3/5/3 2/6/4 5/7/5
f 6/8/6 1/9/7 3/10/7
f 7/11/8 4/12/9 1/13/8
f 8/14/10 2/15/11 4/16/11
f 5/17/12 2/15/11 8/14/10
f 3/18/3 5/7/5 9/19/13
f 7/20/14 1/9/7 6/8/6
f 3/21/3 9/22/13 6/23/15
f 7/11/8 10/24/9 4/12/9
f 10/24/9 8/25/16 4/26/9
f 11/27/17 5/28/12 8/29/10
f 11/30/17 9/31/18 5/32/12
f 12/33/19 7/34/14 6/35/6
f 6/36/15 9/37/13 12/38/20
f 10/39/19 7/34/14 12/33/19
f 10/24/9 11/40/21 8/41/16
f 11/42/17 12/43/19 9/44/18
f 10/45/19 12/43/19 11/42/17
usemtl material_1_0
f 3//22 2//23 1//23
f 2//23 4//23 1//23
f 5//24 2//25 3//21
f 3//11 1//11 6//26
f 1//27 4//28 7//27
f 4//7 2//7 8//29
f 8//29 2//7 5//30
f 9//31 5//24 3//21
f 6//26 1//11 7//32
f 6//33 9//31 3//21
f 4//28 10//28 7//27
f 4//28 8//34 10//28
f 8//29 5//30 11//35
f 5//30 9//36 11//35
f 6//26 7//32 12//37
f 12//38 9//31 6//33
f 12//37 7//32 10//37
f 8//34 11//3 10//28
f 9//36 12//37 11//35
f 11//35 12//37 10//37
