# SSTK version 0.8.0
# 5
mtllib original-5.mtl
o mesh4/mesh4-geometry#mesh4-geometry
v -0.360968 0.365570 0.378278
v -0.360968 0.185539 0.378278
v -0.282017 0.365570 0.409762
v -0.360968 0.365570 0.349775
v -0.282017 0.185539 0.409762
v -0.282017 0.365570 0.381258
v -0.360968 0.185539 0.349775
v -0.194401 0.365570 0.433788
v -0.194401 0.365570 0.405285
v -0.282017 0.185539 0.381258
v -0.194401 0.185539 0.433788
v -0.101343 0.365570 0.420242
v -0.101343 0.365570 0.448745
v -0.194401 0.185539 0.405285
v -0.101343 0.185539 0.448745
v -0.101343 0.185539 0.420242
v -0.003869 0.365570 0.425391
v -0.003869 0.365570 0.453895
v -0.003869 0.185539 0.453895
v -0.003869 0.185539 0.425391
v 0.093604 0.365570 0.420242
v 0.093604 0.365570 0.448745
v 0.093604 0.185539 0.448745
v 0.093604 0.185539 0.420242
v 0.186662 0.365570 0.405285
v 0.186662 0.365570 0.433789
v 0.186662 0.185539 0.433789
v 0.186662 0.185539 0.405285
v 0.274279 0.365570 0.381259
v 0.274279 0.365570 0.409762
v 0.274279 0.185539 0.409762
v 0.274279 0.185539 0.381259
v 0.353229 0.365570 0.349775
v 0.353229 0.365570 0.378279
v 0.353229 0.185539 0.378279
v 0.353229 0.185539 0.349775
vt -0.107959 0.698186
vt -0.107959 0.593815
vt -0.058082 0.698186
vt 0.217297 0.698186
vt 0.234023 0.593815
vt 0.234023 0.698186
vt -0.058082 0.593815
vt -0.163218 -0.235771
vt -0.209547 -0.234023
vt -0.163218 -0.252497
vt 0.217297 0.593815
vt -0.209547 -0.217297
vt 0.163218 -0.252497
vt 0.209547 -0.234023
vt 0.209547 -0.217297
vt -0.03732 0.698186
vt -0.090631 0.698186
vt -0.090631 0.593815
vt -0.111804 -0.24987
vt 0.064278 0.698186
vt 0.114154 0.593815
vt 0.114154 0.698186
vt 0.163218 -0.235771
vt -0.111804 -0.266596
vt -0.03732 0.593815
vt 0.041743 0.698186
vt 0.095055 0.593815
vt 0.095055 0.698186
vt 0.064278 0.593815
vt 0.111805 -0.266596
vt -0.057198 -0.258647
vt -0.111805 -0.24987
vt -0.111805 -0.266596
vt -0.068082 0.698186
vt -0.068082 0.593815
vt -0.012774 0.698186
vt 0.041743 0.593815
vt 0.111805 -0.24987
vt 0.015428 0.698186
vt 0.070736 0.593815
vt 0.070736 0.698186
vt -0.057198 -0.275373
vt -0.012774 0.593815
vt 0.057198 -0.275373
vt 0.015428 0.593815
vt 0 -0.261668
vt -0.042591 0.698186
vt -0.042591 0.593815
vt 0.014687 0.698186
vt 0.057198 -0.258647
vt 0.043473 0.698186
vt -0.013804 0.698186
vt 0.043473 0.593815
vt 0 -0.278394
vt 0.014687 0.593815
vt -0.013804 0.593815
vt -0.014686 0.698186
vt -0.014687 0.593816
vt 0.042591 0.698186
vt 0.000001 -0.278396
vt 0.057198 -0.258649
vt 0.000001 -0.26167
vt -0.043474 0.698186
vt 0.013804 0.593815
vt 0.013804 0.698186
vt 0.042591 0.593816
vt -0.057198 -0.275375
vt 0 -0.278396
vt 0 -0.26167
vt -0.043473 0.593816
vt 0.111804 -0.24987
vt 0.057197 -0.258647
vt 0.057197 -0.275373
vt 0.012775 0.698186
vt 0.012775 0.593816
vt 0.068083 0.698186
vt -0.057199 -0.275373
vt -0.000001 -0.261668
vt -0.057199 -0.258647
vt -0.01543 0.698186
vt -0.070737 0.698186
vt -0.01543 0.593816
vt 0.111805 -0.249872
vt 0.057198 -0.275375
vt 0.111805 -0.266598
vt 0.068083 0.593816
vt -0.070737 0.593815
vt 0.163221 -0.235774
vt 0.111807 -0.249872
vt 0.111807 -0.266598
vt 0.090632 0.698186
vt 0.03732 0.698186
vt 0.03732 0.593816
vt -0.111805 -0.266598
vt -0.057198 -0.258649
vt -0.111805 -0.249872
vt -0.095055 0.698186
vt -0.041743 0.593815
vt -0.041743 0.698186
vt 0.163219 -0.235771
vt 0.111806 -0.266596
vt 0.163219 -0.252497
vt 0.090631 0.593816
vt -0.163219 -0.252499
vt -0.095055 0.593816
vt -0.041743 0.593816
vt 0.209546 -0.217297
vt 0.058082 0.698186
vt 0.058082 0.593816
vt 0.107958 0.698186
vt -0.163219 -0.252497
vt -0.163219 -0.235771
vt -0.064277 0.698186
vt -0.114154 0.698186
vt -0.064277 0.593816
vt 0.209546 -0.234023
vt 0.058082 0.593815
vt 0.107958 0.593815
vt -0.114154 0.593815
vt -0.064277 0.593815
vt -0.217297 0.698186
vt -0.234023 0.698186
vt -0.217297 0.593815
vt -0.234023 0.593815
vt -0.209547 -0.234025
vt -0.163219 -0.235773
vt -0.209547 -0.217299
vn -0.3704059848622486 0 0.9288699620389432
vn -0.33555696969098586 0 0.942019914912526
vn -1 0 0
vn -0.30019313866929925 0 0.9538784406285085
vn 0 1 0
vn -0.0000010121929921254657 1 0
vn 0 -1 0
vn -0.22950298968693916 0 0.9733079562629481
vn 0.33555696969098586 0 -0.942019914912526
vn 0.3704059848622486 0 -0.9288699620389432
vn -0.19419999170338817 0 0.9809619580913441
vn 0.22950298968693916 0 -0.9733079562629481
vn 0.30019313866929925 0 -0.9538784406285085
vn -0.12353404170781727 0 0.9923403350359851
vn 0.19419999170338817 0 -0.9809619580913441
vn 0.12353404170781727 0 -0.9923403350359851
vn 0.0000010121929921254657 1 0
vn -0.08817698437706782 0 0.9961048235131513
vn 0.08817698437706782 0 -0.9961048235131513
vn -0.017606000041717418 0 0.9998450023691328
vn 0 -1 0.000001012192991903421
vn 0.017606000041717418 0 -0.9998450023691328
vn 0.017606999731722146 0 0.999844984765362
vn 0 -1 0.0000020243859840257757
vn -0.017606999731722146 0 -0.999844984765362
vn 0.08817599215229295 0 0.9961049113461687
vn -0.08817599215229295 0 -0.9961049113461687
vn 0 1 -0.000001012192991903421
vn 0.12353194964190214 0 0.9923405954699578
vn -0.12353194964190214 0 -0.9923405954699578
vn -0.0000010121929921233915 1 -0.0000020243859840247385
vn 0.1941980671296227 0 0.9809623390951963
vn -0.1941980671296227 0 -0.9809623390951963
vn 0.2295020423582779 0 0.9733081796396141
vn -0.2295020423582779 0 -0.9733081796396141
vn -0.0000010121929921249473 1 -0.0000010121929919029027
vn 0.3001940485533894 0 0.9538781542802651
vn -0.3001940485533894 0 -0.9538781542802651
vn 0.33555785709197916 0 0.9420195988108946
vn 0.0000010121929921249473 -1 0.0000010121929919029027
vn -0.33555785709197916 0 -0.9420195988108946
vn 0.3704068476611403 0 0.9288696179796908
vn -0.37040719172096 0 -0.9288694807783232
vn -0.3704068476611403 0 -0.9288696179796908
vn 1 0 0
vn 0 -1 0.0000030365789761419083
vn 0.0000010121929921254657 -1 0
vn -0.0000010121929921254657 -1 0
vn 0 1 -0.0000020243859840257757
vn 0.0000010121929921233915 -1 0.0000020243859840247385
vn 0.37040719172096 0 0.9288694807783232
vn 0 1 -0.0000030365789761419083
usemtl material_0_0
f 1/1/1 2/2/1 3/3/2
f 4/4/3 2/5/3 1/6/3
f 3/3/2 2/2/1 5/7/4
f 6/8/5 1/9/5 3/10/6
f 7/11/3 2/5/3 4/4/3
f 6/8/5 4/12/5 1/9/5
f 5/13/7 2/14/7 7/15/7
f 8/16/8 3/17/2 5/18/4
f 9/19/6 6/8/5 3/10/6
f 6/20/9 7/21/10 4/22/10
f 5/13/7 7/15/7 10/23/7
f 9/19/6 3/10/6 8/24/5
f 8/16/8 5/18/4 11/25/11
f 9/26/12 10/27/13 6/28/9
f 6/20/9 10/29/13 7/21/10
f 11/30/7 5/13/7 10/23/7
f 12/31/5 9/32/6 8/33/5
f 8/34/8 11/35/11 13/36/14
f 9/26/12 14/37/15 10/27/13
f 11/30/7 10/23/7 14/38/7
f 12/39/16 14/40/15 9/41/12
f 12/31/5 8/33/5 13/42/17
f 13/36/14 11/35/11 15/43/18
f 15/44/7 11/30/7 14/38/7
f 12/39/16 16/45/19 14/40/15
f 17/46/17 12/31/5 13/42/17
f 13/47/14 15/48/18 18/49/20
f 15/44/7 14/38/7 16/50/21
f 12/51/16 17/52/22 16/53/19
f 18/54/5 17/46/17 13/42/17
f 18/49/20 15/48/18 19/55/23
f 19/54/24 15/44/7 16/50/21
f 17/52/22 20/56/25 16/53/19
f 21/50/5 17/46/17 18/54/5
f 18/57/20 19/58/23 22/59/26
f 19/60/24 16/61/21 20/62/24
f 21/63/27 20/64/25 17/65/22
f 21/50/5 18/54/5 22/44/28
f 22/59/26 19/58/23 23/66/29
f 23/67/21 19/68/24 20/69/24
f 21/63/27 24/70/30 20/64/25
f 25/71/31 21/72/5 22/73/28
f 22/74/26 23/75/29 26/76/32
f 23/77/21 20/78/24 24/79/21
f 21/80/27 25/81/33 24/82/30
f 25/83/31 22/84/28 26/85/31
f 26/76/32 23/75/29 27/86/34
f 27/33/24 23/42/21 24/31/21
f 25/81/33 28/87/35 24/82/30
f 29/88/36 25/89/31 26/90/31
f 30/91/37 26/92/32 27/93/34
f 27/94/24 24/95/21 28/96/24
f 29/97/38 28/98/35 25/99/33
f 29/100/36 26/101/31 30/102/5
f 30/91/37 27/93/34 31/103/39
f 31/104/40 27/94/24 28/96/24
f 29/97/38 32/105/41 28/106/35
f 33/107/17 29/23/36 30/13/5
f 30/108/37 31/109/39 34/110/42
f 31/111/40 28/32/24 32/112/21
f 29/113/38 33/114/43 32/115/41
f 33/107/17 30/13/5 34/116/17
f 34/110/42 31/117/39 35/118/42
f 35/9/24 31/10/40 32/8/21
f 33/114/43 36/119/44 32/120/41
f 33/121/45 34/122/45 36/123/45
f 36/123/45 34/122/45 35/124/45
f 35/125/24 32/126/21 36/127/46
usemtl material_1_0
f 3//9 2//10 1//10
f 1//45 2//45 4//45
f 5//13 2//10 3//9
f 3//47 1//7 6//7
f 4//45 2//45 7//45
f 1//7 4//7 6//7
f 7//5 2//5 5//5
f 5//13 3//9 8//12
f 3//47 6//7 9//47
f 4//1 7//1 6//2
f 10//5 7//5 5//5
f 8//7 3//47 9//47
f 11//15 5//13 8//12
f 6//2 10//4 9//8
f 7//1 10//4 6//2
f 10//5 5//5 11//5
f 8//7 9//47 12//7
f 13//16 11//15 8//12
f 10//4 14//11 9//8
f 14//5 10//5 11//5
f 9//8 14//11 12//14
f 13//48 8//7 12//7
f 15//19 11//15 13//16
f 14//5 11//5 15//5
f 14//11 16//18 12//14
f 13//48 12//7 17//48
f 18//22 15//19 13//16
f 16//28 14//5 15//5
f 16//18 17//20 12//14
f 13//48 17//48 18//7
f 19//25 15//19 18//22
f 16//28 15//5 19//49
f 16//18 20//23 17//20
f 18//7 17//48 21//7
f 22//27 19//25 18//22
f 20//49 16//28 19//49
f 17//20 20//23 21//26
f 22//21 18//7 21//7
f 23//30 19//25 22//27
f 20//49 19//49 23//28
f 20//23 24//29 21//26
f 22//21 21//7 25//50
f 26//33 23//30 22//27
f 24//28 20//49 23//28
f 24//29 25//32 21//26
f 26//50 22//21 25//50
f 27//35 23//30 26//33
f 24//28 23//28 27//49
f 24//29 28//34 25//32
f 26//50 25//50 29//40
f 27//35 26//33 30//38
f 28//49 24//28 27//49
f 25//32 28//34 29//37
f 30//7 26//50 29//40
f 31//41 27//35 30//38
f 28//49 27//49 31//36
f 28//34 32//39 29//37
f 30//7 29//40 33//48
f 34//44 31//41 30//38
f 32//28 28//49 31//36
f 32//39 33//51 29//37
f 34//48 30//7 33//48
f 35//44 31//41 34//44
f 32//28 31//36 35//49
f 32//39 36//42 33//51
f 36//3 34//3 33//3
f 35//3 34//3 36//3
f 36//52 32//28 35//49
