# SSTK version 0.8.0
# 9
mtllib original-9.mtl
o Carcase__Front_Back_1_1/Carcase__Front_Back_1/mesh15/mesh15-geometry#mesh15-geometry
v -0.721368 -0.226772 -0.317999
v -0.721368 -0.201164 -0.348729
v -0.721368 -0.226772 -0.348729
v -0.721368 -0.201164 -0.317999
v -0.690638 -0.226772 -0.348729
v 0.815119 -0.201164 -0.317999
v -0.690638 -0.201164 -0.317999
v 0.784390 -0.226772 -0.348729
v -0.690638 -0.226772 -0.317999
v 0.784390 -0.201164 -0.317999
v -0.690638 -0.201164 -0.348729
v 0.815119 -0.226772 -0.348729
v 0.784390 -0.252380 -0.348729
v -0.690638 -0.252380 -0.317999
v 0.784390 -0.226772 -0.317999
v 0.784390 -0.201164 -0.348729
v -0.690638 -0.175556 -0.348729
v 0.815119 -0.201164 -0.348729
v 0.784390 -0.175556 -0.317999
v -0.690638 -0.252380 -0.348729
v 0.815119 -0.226772 -0.317999
v -0.690638 -0.175556 -0.317999
v 0.815119 -0.252380 -0.348729
v 0.784390 -0.252380 -0.317999
v -0.721368 -0.252380 -0.348729
v 0.784390 -0.175556 -0.348729
v -0.721368 -0.175556 -0.317999
v 0.815119 -0.149948 -0.317999
v 0.815119 -0.252380 -0.317999
v -0.721368 -0.252380 -0.317999
v 0.815119 -0.175556 -0.348729
v -0.721368 -0.175556 -0.348729
v -0.721368 -0.149948 -0.348729
v 0.815119 -0.175556 -0.317999
v 0.815119 -0.277988 -0.348729
v -0.721368 -0.277988 -0.317999
v -0.721368 -0.149948 -0.317999
v 0.784390 -0.277988 -0.348729
v 0.815119 -0.277988 -0.317999
v -0.721368 -0.277988 -0.348729
v 0.815119 -0.149948 -0.348729
v 0.784390 -0.149948 -0.317999
v -0.690638 -0.277988 -0.348729
v 0.784390 -0.277988 -0.317999
v -0.690638 -0.277988 -0.317999
v -0.690638 -0.149948 -0.348729
v -0.690638 -0.149948 -0.317999
v 0.784390 -0.149948 -0.348729
v 0.784390 -0.303911 -0.348729
v 0.784390 -0.283424 -0.333364
v 0.784390 -0.124339 -0.317999
v -0.690638 -0.303911 -0.348729
v 0.784390 -0.283424 -0.317999
v -0.690638 -0.283424 -0.317999
v -0.690638 -0.283424 -0.333364
v -0.690638 -0.124339 -0.348729
v 0.784390 -0.124339 -0.348729
v -0.690638 -0.124339 -0.317999
v -0.690638 -0.303911 -0.333364
v 0.784390 -0.303911 -0.333364
v 0.815119 -0.124339 -0.348729
v 0.815119 -0.098731 -0.317999
v -0.721368 -0.124339 -0.317999
v -0.721368 -0.098731 -0.348729
v 0.815119 -0.124339 -0.317999
v -0.721368 -0.124339 -0.348729
v 0.815119 -0.098731 -0.348729
v -0.721368 -0.098731 -0.317999
v -0.690638 -0.098731 -0.348729
v 0.784390 -0.098731 -0.317999
v 0.784390 -0.098731 -0.348729
v -0.690638 -0.098731 -0.317999
v -0.690638 -0.073123 -0.348729
v 0.784390 -0.073123 -0.317999
v -0.690638 -0.073123 -0.317999
v 0.784390 -0.073123 -0.348729
v -0.721368 -0.073123 -0.317999
v -0.721368 -0.047515 -0.348729
v 0.815119 -0.073123 -0.348729
v 0.815119 -0.047515 -0.317999
v -0.721368 -0.073123 -0.348729
v 0.815119 -0.073123 -0.317999
v -0.721368 -0.047515 -0.317999
v 0.815119 -0.047515 -0.348729
v 0.784390 -0.047515 -0.317999
v -0.690638 -0.047515 -0.348729
v -0.690638 -0.047515 -0.317999
v 0.784390 -0.047515 -0.348729
v 0.784390 -0.021907 -0.317999
v -0.690638 -0.021907 -0.348729
v 0.784390 -0.021907 -0.348729
v -0.690638 -0.021907 -0.317999
v 0.815119 -0.021907 -0.348729
v 0.815119 0.003701 -0.317999
v -0.721368 -0.021907 -0.317999
v -0.721368 0.003701 -0.348729
v 0.815119 -0.021907 -0.317999
v -0.721368 -0.021907 -0.348729
v 0.815119 0.003701 -0.348729
v -0.721368 0.003701 -0.317999
v -0.690638 0.003701 -0.348729
v 0.784390 0.003701 -0.317999
v 0.784390 0.003701 -0.348729
v -0.690638 0.003701 -0.317999
v -0.690638 0.029309 -0.348729
v 0.784390 0.029309 -0.317999
v -0.690638 0.029309 -0.317999
v 0.784390 0.029309 -0.348729
v -0.721368 0.029309 -0.317999
v -0.721368 0.054917 -0.348729
v 0.815119 0.029309 -0.348729
v 0.815119 0.054917 -0.317999
v -0.721368 0.029309 -0.348729
v 0.815119 0.029309 -0.317999
v -0.721368 0.054917 -0.317999
v 0.815119 0.054917 -0.348729
v 0.784390 0.054917 -0.317999
v -0.690638 0.054917 -0.348729
v -0.690638 0.054917 -0.317999
v 0.784390 0.054917 -0.348729
v 0.784390 0.080526 -0.317999
v -0.362854 0.059725 -0.317999
v -0.690638 0.080526 -0.348729
v 0.784390 0.080526 -0.348729
v -0.383341 0.059725 -0.317999
v -0.690638 0.080526 -0.317999
v 0.815119 0.080526 -0.348729
v -0.362854 0.326049 -0.317999
v -0.383341 0.059725 -0.328242
v -0.721368 0.080526 -0.317999
v -0.721368 0.106134 -0.348729
v 0.815119 0.080526 -0.317999
v 0.784390 0.106134 -0.317999
v -0.362854 0.326049 -0.328242
v -0.383341 0.326049 -0.317999
v -0.362854 0.059725 -0.328242
v -0.721368 0.080526 -0.348729
v 0.815119 0.106134 -0.317999
v 0.815119 0.106134 -0.348729
v 0.784390 0.131742 -0.317999
v 0.784390 0.326049 -0.317999
v -0.383341 0.326049 -0.328242
v -0.690638 0.106134 -0.317999
v -0.690638 0.106134 -0.348729
v 0.784390 0.106134 -0.348729
v 0.784390 0.157350 -0.317999
v 0.784390 0.310999 -0.317999
v -0.690638 0.326049 -0.348729
v -0.721368 0.106134 -0.317999
v -0.690638 0.131742 -0.317999
v 0.784390 0.131742 -0.348729
v 0.815119 0.157350 -0.317999
v 0.784390 0.182958 -0.317999
v 0.784390 0.285391 -0.317999
v 0.784390 0.310999 -0.348729
v 0.784390 0.326049 -0.348729
v -0.690638 0.326049 -0.317999
v -0.721368 0.131742 -0.317999
v -0.690638 0.131742 -0.348729
v 0.815119 0.131742 -0.348729
v 0.815119 0.131742 -0.317999
v 0.784390 0.157350 -0.348729
v 0.784390 0.208566 -0.317999
v 0.784390 0.259782 -0.317999
v 0.815119 0.310999 -0.317999
v -0.690638 0.310999 -0.317999
v -0.690638 0.157350 -0.317999
v -0.721368 0.157350 -0.348729
v 0.815119 0.157350 -0.348729
v 0.784390 0.182958 -0.348729
v 0.815119 0.208566 -0.317999
v 0.784390 0.234174 -0.317999
v 0.784390 0.259782 -0.348729
v 0.815119 0.285391 -0.317999
v 0.815119 0.310999 -0.348729
v -0.690638 0.310999 -0.348729
v -0.721368 0.285391 -0.317999
v -0.690638 0.182958 -0.317999
v -0.721368 0.157350 -0.317999
v -0.721368 0.131742 -0.348729
v -0.690638 0.157350 -0.348729
v -0.690638 0.182958 -0.348729
v 0.815119 0.182958 -0.348729
v 0.815119 0.182958 -0.317999
v 0.784390 0.208566 -0.348729
v 0.815119 0.259782 -0.317999
v 0.784390 0.285391 -0.348729
v 0.815119 0.285391 -0.348729
v -0.721368 0.310999 -0.348729
v -0.690638 0.285391 -0.317999
v -0.721368 0.310999 -0.317999
v -0.721368 0.182958 -0.317999
v -0.721368 0.208566 -0.348729
v 0.815119 0.208566 -0.348729
v 0.784390 0.234174 -0.348729
v 0.815119 0.234174 -0.317999
v -0.690638 0.285391 -0.348729
v 0.815119 0.259782 -0.348729
v -0.690638 0.259782 -0.317999
v -0.690638 0.208566 -0.317999
v -0.721368 0.182958 -0.348729
v -0.690638 0.208566 -0.348729
v -0.690638 0.234174 -0.348729
v 0.815119 0.234174 -0.348729
v -0.690638 0.259782 -0.348729
v -0.721368 0.234174 -0.317999
v -0.721368 0.285391 -0.348729
v -0.690638 0.234174 -0.317999
v -0.721368 0.208566 -0.317999
v -0.721368 0.259782 -0.348729
v -0.721368 0.259782 -0.317999
v -0.721368 0.234174 -0.348729
vn -1 0 0
vn 1 0 0
vn 0 0 -1
vn 0 0 1
vn 0 -1 0
vn 0 1 0
usemtl material_0_0
f 1//1 2//1 3//1
f 2//1 1//1 4//1
f 3//2 2//2 1//2
f 4//2 1//2 2//2
f 2//3 5//3 3//3
f 3//4 5//4 2//4
f 5//5 1//5 3//5
f 3//6 1//6 5//6
f 1//4 6//4 4//4
f 4//3 6//3 1//3
f 7//6 2//6 4//6
f 4//5 2//5 7//5
f 5//3 2//3 8//3
f 8//4 2//4 5//4
f 1//5 5//5 9//5
f 9//6 5//6 1//6
f 9//4 6//4 1//4
f 1//3 6//3 9//3
f 4//4 6//4 10//4
f 10//3 6//3 4//3
f 2//6 7//6 11//6
f 11//5 7//5 2//5
f 4//4 10//4 7//4
f 7//3 10//3 4//3
f 8//3 2//3 12//3
f 12//4 2//4 8//4
f 13//3 5//3 8//3
f 8//4 5//4 13//4
f 5//1 14//1 9//1
f 9//2 14//2 5//2
f 15//4 6//4 9//4
f 9//3 6//3 15//3
f 6//6 16//6 10//6
f 10//5 16//5 6//5
f 7//1 17//1 11//1
f 11//2 17//2 7//2
f 18//3 2//3 11//3
f 11//4 2//4 18//4
f 19//4 7//4 10//4
f 10//3 7//3 19//3
f 12//3 2//3 18//3
f 18//4 2//4 12//4
f 12//5 15//5 8//5
f 8//6 15//6 12//6
f 5//3 13//3 20//3
f 20//4 13//4 5//4
f 15//2 13//2 8//2
f 8//1 13//1 15//1
f 14//1 5//1 20//1
f 20//2 5//2 14//2
f 14//4 15//4 9//4
f 9//3 15//3 14//3
f 6//4 15//4 21//4
f 21//3 15//3 6//3
f 16//6 6//6 18//6
f 18//5 6//5 16//5
f 16//2 19//2 10//2
f 10//1 19//1 16//1
f 17//1 7//1 22//1
f 22//2 7//2 17//2
f 17//3 16//3 11//3
f 11//4 16//4 17//4
f 18//3 11//3 16//3
f 16//4 11//4 18//4
f 7//4 19//4 22//4
f 22//3 19//3 7//3
f 6//2 12//2 18//2
f 18//1 12//1 6//1
f 15//5 12//5 21//5
f 21//6 12//6 15//6
f 23//3 20//3 13//3
f 13//4 20//4 23//4
f 13//2 15//2 24//2
f 24//1 15//1 13//1
f 25//6 14//6 20//6
f 20//5 14//5 25//5
f 15//4 14//4 24//4
f 24//3 14//3 15//3
f 12//2 6//2 21//2
f 21//1 6//1 12//1
f 19//2 16//2 26//2
f 26//1 16//1 19//1
f 27//5 17//5 22//5
f 22//6 17//6 27//6
f 16//3 17//3 26//3
f 26//4 17//4 16//4
f 19//4 28//4 22//4
f 22//3 28//3 19//3
f 23//3 25//3 20//3
f 20//4 25//4 23//4
f 13//6 29//6 23//6
f 23//5 29//5 13//5
f 29//6 13//6 24//6
f 24//5 13//5 29//5
f 14//6 25//6 30//6
f 30//5 25//5 14//5
f 30//4 24//4 14//4
f 14//3 24//3 30//3
f 31//5 19//5 26//5
f 26//6 19//6 31//6
f 17//5 27//5 32//5
f 32//6 27//6 17//6
f 22//4 28//4 27//4
f 27//3 28//3 22//3
f 17//3 33//3 26//3
f 26//4 33//4 17//4
f 28//4 19//4 34//4
f 34//3 19//3 28//3
f 35//3 25//3 23//3
f 23//4 25//4 35//4
f 29//2 35//2 23//2
f 23//1 35//1 29//1
f 30//4 29//4 24//4
f 24//3 29//3 30//3
f 25//1 36//1 30//1
f 30//2 36//2 25//2
f 19//5 31//5 34//5
f 34//6 31//6 19//6
f 26//3 33//3 31//3
f 31//4 33//4 26//4
f 27//1 33//1 32//1
f 32//2 33//2 27//2
f 33//3 17//3 32//3
f 32//4 17//4 33//4
f 27//4 28//4 37//4
f 37//3 28//3 27//3
f 31//2 28//2 34//2
f 34//1 28//1 31//1
f 38//3 25//3 35//3
f 35//4 25//4 38//4
f 35//2 29//2 39//2
f 39//1 29//1 35//1
f 36//4 29//4 30//4
f 30//3 29//3 36//3
f 36//1 25//1 40//1
f 40//2 25//2 36//2
f 31//3 33//3 41//3
f 41//4 33//4 31//4
f 33//1 27//1 37//1
f 37//2 27//2 33//2
f 37//4 28//4 42//4
f 42//3 28//3 37//3
f 28//2 31//2 41//2
f 41//1 31//1 28//1
f 43//3 25//3 38//3
f 38//4 25//4 43//4
f 35//5 44//5 38//5
f 38//6 44//6 35//6
f 29//4 44//4 39//4
f 39//3 44//3 29//3
f 44//5 35//5 39//5
f 39//6 35//6 44//6
f 45//4 29//4 36//4
f 36//3 29//3 45//3
f 25//3 43//3 40//3
f 40//4 43//4 25//4
f 43//5 36//5 40//5
f 40//6 36//6 43//6
f 41//3 33//3 46//3
f 46//4 33//4 41//4
f 47//6 33//6 37//6
f 37//5 33//5 47//5
f 28//6 48//6 42//6
f 42//5 48//5 28//5
f 37//4 42//4 47//4
f 47//3 42//3 37//3
f 48//6 28//6 41//6
f 41//5 28//5 48//5
f 49//3 43//3 38//3
f 38//4 43//4 49//4
f 50//2 38//2 44//2
f 44//1 38//1 50//1
f 44//4 29//4 45//4
f 45//3 29//3 44//3
f 36//5 43//5 45//5
f 45//6 43//6 36//6
f 33//6 47//6 46//6
f 46//5 47//5 33//5
f 41//3 46//3 48//3
f 48//4 46//4 41//4
f 48//2 51//2 42//2
f 42//1 51//1 48//1
f 51//4 47//4 42//4
f 42//3 47//3 51//3
f 43//3 49//3 52//3
f 52//4 49//4 43//4
f 38//2 50//2 49//2
f 49//1 50//1 38//1
f 50//2 44//2 53//2
f 53//1 44//1 50//1
f 54//4 44//4 45//4
f 45//3 44//3 54//3
f 43//1 55//1 45//1
f 45//2 55//2 43//2
f 47//1 56//1 46//1
f 46//2 56//2 47//2
f 56//3 48//3 46//3
f 46//4 48//4 56//4
f 51//2 48//2 57//2
f 57//1 48//1 51//1
f 47//4 51//4 58//4
f 58//3 51//3 47//3
f 49//5 59//5 52//5
f 52//6 59//6 49//6
f 59//1 43//1 52//1
f 52//2 43//2 59//2
f 60//2 49//2 50//2
f 50//1 49//1 60//1
f 44//4 54//4 53//4
f 53//3 54//3 44//3
f 54//5 50//5 53//5
f 53//6 50//6 54//6
f 45//1 55//1 54//1
f 54//2 55//2 45//2
f 43//1 59//1 55//1
f 55//2 59//2 43//2
f 56//1 47//1 58//1
f 58//2 47//2 56//2
f 48//3 56//3 57//3
f 57//4 56//4 48//4
f 61//5 51//5 57//5
f 57//6 51//6 61//6
f 51//4 62//4 58//4
f 58//3 62//3 51//3
f 59//5 49//5 60//5
f 60//6 49//6 59//6
f 50//4 59//4 60//4
f 60//3 59//3 50//3
f 50//5 54//5 55//5
f 55//6 54//6 50//6
f 59//4 50//4 55//4
f 55//3 50//3 59//3
f 63//5 56//5 58//5
f 58//6 56//6 63//6
f 56//3 64//3 57//3
f 57//4 64//4 56//4
f 51//5 61//5 65//5
f 65//6 61//6 51//6
f 57//3 64//3 61//3
f 61//4 64//4 57//4
f 62//4 51//4 65//4
f 65//3 51//3 62//3
f 58//4 62//4 63//4
f 63//3 62//3 58//3
f 56//5 63//5 66//5
f 66//6 63//6 56//6
f 64//3 56//3 66//3
f 66//4 56//4 64//4
f 61//2 62//2 65//2
f 65//1 62//1 61//1
f 61//3 64//3 67//3
f 67//4 64//4 61//4
f 63//4 62//4 68//4
f 68//3 62//3 63//3
f 63//1 64//1 66//1
f 66//2 64//2 63//2
f 62//2 61//2 67//2
f 67//1 61//1 62//1
f 67//3 64//3 69//3
f 69//4 64//4 67//4
f 68//4 62//4 70//4
f 70//3 62//3 68//3
f 64//1 63//1 68//1
f 68//2 63//2 64//2
f 71//6 62//6 67//6
f 67//5 62//5 71//5
f 64//6 72//6 69//6
f 69//5 72//5 64//5
f 67//3 69//3 71//3
f 71//4 69//4 67//4
f 62//6 71//6 70//6
f 70//5 71//5 62//5
f 68//4 70//4 72//4
f 72//3 70//3 68//3
f 72//6 64//6 68//6
f 68//5 64//5 72//5
f 72//1 73//1 69//1
f 69//2 73//2 72//2
f 73//3 71//3 69//3
f 69//4 71//4 73//4
f 71//2 74//2 70//2
f 70//1 74//1 71//1
f 74//4 72//4 70//4
f 70//3 72//3 74//3
f 73//1 72//1 75//1
f 75//2 72//2 73//2
f 71//3 73//3 76//3
f 76//4 73//4 71//4
f 74//2 71//2 76//2
f 76//1 71//1 74//1
f 72//4 74//4 75//4
f 75//3 74//3 72//3
f 77//5 73//5 75//5
f 75//6 73//6 77//6
f 73//3 78//3 76//3
f 76//4 78//4 73//4
f 79//5 74//5 76//5
f 76//6 74//6 79//6
f 74//4 80//4 75//4
f 75//3 80//3 74//3
f 73//5 77//5 81//5
f 81//6 77//6 73//6
f 75//4 80//4 77//4
f 77//3 80//3 75//3
f 78//3 73//3 81//3
f 81//4 73//4 78//4
f 76//3 78//3 79//3
f 79//4 78//4 76//4
f 74//5 79//5 82//5
f 82//6 79//6 74//6
f 80//4 74//4 82//4
f 82//3 74//3 80//3
f 77//1 78//1 81//1
f 81//2 78//2 77//2
f 77//4 80//4 83//4
f 83//3 80//3 77//3
f 79//3 78//3 84//3
f 84//4 78//4 79//4
f 79//2 80//2 82//2
f 82//1 80//1 79//1
f 78//1 77//1 83//1
f 83//2 77//2 78//2
f 83//4 80//4 85//4
f 85//3 80//3 83//3
f 84//3 78//3 86//3
f 86//4 78//4 84//4
f 80//2 79//2 84//2
f 84//1 79//1 80//1
f 87//6 78//6 83//6
f 83//5 78//5 87//5
f 80//6 88//6 85//6
f 85//5 88//5 80//5
f 83//4 85//4 87//4
f 87//3 85//3 83//3
f 78//6 87//6 86//6
f 86//5 87//5 78//5
f 84//3 86//3 88//3
f 88//4 86//4 84//4
f 88//6 80//6 84//6
f 84//5 80//5 88//5
f 88//2 89//2 85//2
f 85//1 89//1 88//1
f 89//4 87//4 85//4
f 85//3 87//3 89//3
f 87//1 90//1 86//1
f 86//2 90//2 87//2
f 90//3 88//3 86//3
f 86//4 88//4 90//4
f 89//2 88//2 91//2
f 91//1 88//1 89//1
f 87//4 89//4 92//4
f 92//3 89//3 87//3
f 90//1 87//1 92//1
f 92//2 87//2 90//2
f 88//3 90//3 91//3
f 91//4 90//4 88//4
f 93//5 89//5 91//5
f 91//6 89//6 93//6
f 89//4 94//4 92//4
f 92//3 94//3 89//3
f 95//5 90//5 92//5
f 92//6 90//6 95//6
f 90//3 96//3 91//3
f 91//4 96//4 90//4
f 89//5 93//5 97//5
f 97//6 93//6 89//6
f 91//3 96//3 93//3
f 93//4 96//4 91//4
f 94//4 89//4 97//4
f 97//3 89//3 94//3
f 92//4 94//4 95//4
f 95//3 94//3 92//3
f 90//5 95//5 98//5
f 98//6 95//6 90//6
f 96//3 90//3 98//3
f 98//4 90//4 96//4
f 93//2 94//2 97//2
f 97//1 94//1 93//1
f 93//3 96//3 99//3
f 99//4 96//4 93//4
f 95//4 94//4 100//4
f 100//3 94//3 95//3
f 95//1 96//1 98//1
f 98//2 96//2 95//2
f 94//2 93//2 99//2
f 99//1 93//1 94//1
f 99//3 96//3 101//3
f 101//4 96//4 99//4
f 100//4 94//4 102//4
f 102//3 94//3 100//3
f 96//1 95//1 100//1
f 100//2 95//2 96//2
f 103//6 94//6 99//6
f 99//5 94//5 103//5
f 96//6 104//6 101//6
f 101//5 104//5 96//5
f 99//3 101//3 103//3
f 103//4 101//4 99//4
f 94//6 103//6 102//6
f 102//5 103//5 94//5
f 100//4 102//4 104//4
f 104//3 102//3 100//3
f 104//6 96//6 100//6
f 100//5 96//5 104//5
f 104//1 105//1 101//1
f 101//2 105//2 104//2
f 105//3 103//3 101//3
f 101//4 103//4 105//4
f 103//2 106//2 102//2
f 102//1 106//1 103//1
f 106//4 104//4 102//4
f 102//3 104//3 106//3
f 105//1 104//1 107//1
f 107//2 104//2 105//2
f 103//3 105//3 108//3
f 108//4 105//4 103//4
f 106//2 103//2 108//2
f 108//1 103//1 106//1
f 104//4 106//4 107//4
f 107//3 106//3 104//3
f 109//5 105//5 107//5
f 107//6 105//6 109//6
f 105//3 110//3 108//3
f 108//4 110//4 105//4
f 111//5 106//5 108//5
f 108//6 106//6 111//6
f 106//4 112//4 107//4
f 107//3 112//3 106//3
f 105//5 109//5 113//5
f 113//6 109//6 105//6
f 107//4 112//4 109//4
f 109//3 112//3 107//3
f 110//3 105//3 113//3
f 113//4 105//4 110//4
f 108//3 110//3 111//3
f 111//4 110//4 108//4
f 106//5 111//5 114//5
f 114//6 111//6 106//6
f 112//4 106//4 114//4
f 114//3 106//3 112//3
f 109//1 110//1 113//1
f 113//2 110//2 109//2
f 109//4 112//4 115//4
f 115//3 112//3 109//3
f 111//3 110//3 116//3
f 116//4 110//4 111//4
f 111//2 112//2 114//2
f 114//1 112//1 111//1
f 110//1 109//1 115//1
f 115//2 109//2 110//2
f 115//4 112//4 117//4
f 117//3 112//3 115//3
f 116//3 110//3 118//3
f 118//4 110//4 116//4
f 112//2 111//2 116//2
f 116//1 111//1 112//1
f 119//6 110//6 115//6
f 115//5 110//5 119//5
f 112//6 120//6 117//6
f 117//5 120//5 112//5
f 115//4 117//4 119//4
f 119//3 117//3 115//3
f 110//6 119//6 118//6
f 118//5 119//5 110//5
f 116//3 118//3 120//3
f 120//4 118//4 116//4
f 120//6 112//6 116//6
f 116//5 112//5 120//5
f 120//2 121//2 117//2
f 117//1 121//1 120//1
f 117//4 122//4 119//4
f 119//3 122//3 117//3
f 119//1 123//1 118//1
f 118//2 123//2 119//2
f 123//3 120//3 118//3
f 118//4 120//4 123//4
f 121//2 120//2 124//2
f 124//1 120//1 121//1
f 122//4 117//4 121//4
f 121//3 117//3 122//3
f 125//4 119//4 122//4
f 122//3 119//3 125//3
f 123//1 119//1 126//1
f 126//2 119//2 123//2
f 120//3 123//3 124//3
f 124//4 123//4 120//4
f 127//5 121//5 124//5
f 124//6 121//6 127//6
f 122//4 121//4 128//4
f 128//3 121//3 122//3
f 119//4 125//4 126//4
f 126//3 125//3 119//3
f 122//6 129//6 125//6
f 125//5 129//5 122//5
f 130//5 123//5 126//5
f 126//6 123//6 130//6
f 123//3 131//3 124//3
f 124//4 131//4 123//4
f 121//5 127//5 132//5
f 132//6 127//6 121//6
f 124//3 131//3 127//3
f 127//4 131//4 124//4
f 128//4 121//4 133//4
f 133//3 121//3 128//3
f 134//1 122//1 128//1
f 128//2 122//2 134//2
f 126//4 125//4 135//4
f 135//3 125//3 126//3
f 129//6 122//6 136//6
f 136//5 122//5 129//5
f 129//2 135//2 125//2
f 125//1 135//1 129//1
f 123//5 130//5 137//5
f 137//6 130//6 123//6
f 126//4 135//4 130//4
f 130//3 135//3 126//3
f 131//3 123//3 137//3
f 137//4 123//4 131//4
f 127//2 138//2 132//2
f 132//1 138//1 127//1
f 138//4 121//4 132//4
f 132//3 121//3 138//3
f 127//3 131//3 139//3
f 139//4 131//4 127//4
f 133//4 121//4 138//4
f 138//3 121//3 133//3
f 128//4 133//4 140//4
f 140//3 133//3 128//3
f 122//1 134//1 136//1
f 136//2 134//2 122//2
f 128//6 141//6 134//6
f 134//5 141//5 128//5
f 134//4 129//4 136//4
f 136//3 129//3 134//3
f 135//2 129//2 142//2
f 142//1 129//1 135//1
f 130//1 131//1 137//1
f 137//2 131//2 130//2
f 130//4 135//4 143//4
f 143//3 135//3 130//3
f 138//2 127//2 139//2
f 139//1 127//1 138//1
f 139//3 131//3 144//3
f 144//4 131//4 139//4
f 138//6 145//6 133//6
f 133//5 145//5 138//5
f 145//2 140//2 133//2
f 133//1 140//1 145//1
f 128//4 140//4 146//4
f 146//3 140//3 128//3
f 128//4 147//4 141//4
f 141//3 147//3 128//3
f 141//6 148//6 134//6
f 134//5 148//5 141//5
f 129//4 134//4 142//4
f 142//3 134//3 129//3
f 142//6 148//6 135//6
f 135//5 148//5 142//5
f 131//1 130//1 149//1
f 149//2 130//2 131//2
f 143//4 135//4 150//4
f 150//3 135//3 143//3
f 149//4 130//4 143//4
f 143//3 130//3 149//3
f 145//6 138//6 139//6
f 139//5 138//5 145//5
f 131//6 143//6 144//6
f 144//5 143//5 131//5
f 139//3 144//3 145//3
f 145//4 144//4 139//4
f 140//2 145//2 151//2
f 151//1 145//1 140//1
f 146//4 140//4 152//4
f 152//3 140//3 146//3
f 128//4 146//4 153//4
f 153//3 146//3 128//3
f 128//4 154//4 147//4
f 147//3 154//3 128//3
f 155//2 141//2 147//2
f 147//1 141//1 155//1
f 148//6 141//6 156//6
f 156//5 141//5 148//5
f 134//6 148//6 142//6
f 142//5 148//5 134//5
f 135//6 148//6 157//6
f 157//5 148//5 135//5
f 143//6 131//6 149//6
f 149//5 131//5 143//5
f 150//4 135//4 158//4
f 158//3 135//3 150//3
f 159//1 143//1 150//1
f 150//2 143//2 159//2
f 143//1 159//1 144//1
f 144//2 159//2 143//2
f 159//3 145//3 144//3
f 144//4 145//4 159//4
f 145//3 159//3 151//3
f 151//4 159//4 145//4
f 160//5 140//5 151//5
f 151//6 140//6 160//6
f 152//4 140//4 161//4
f 161//3 140//3 152//3
f 152//6 162//6 146//6
f 146//5 162//5 152//5
f 162//2 153//2 146//2
f 146//1 153//1 162//1
f 128//4 153//4 163//4
f 163//3 153//3 128//3
f 128//4 164//4 154//4
f 154//3 164//3 128//3
f 147//4 154//4 165//4
f 165//3 154//3 147//3
f 141//2 155//2 156//2
f 156//1 155//1 141//1
f 165//6 155//6 147//6
f 147//5 155//5 165//5
f 155//3 148//3 156//3
f 156//4 148//4 155//4
f 148//1 166//1 157//1
f 157//2 166//2 148//2
f 166//4 135//4 157//4
f 157//3 135//3 166//3
f 158//4 135//4 167//4
f 167//3 135//3 158//3
f 158//5 159//5 150//5
f 150//6 159//6 158//6
f 159//3 168//3 151//3
f 151//4 168//4 159//4
f 140//5 160//5 161//5
f 161//6 160//6 140//6
f 151//3 168//3 160//3
f 160//4 168//4 151//4
f 160//2 152//2 161//2
f 161//1 152//1 160//1
f 162//6 152//6 169//6
f 169//5 152//5 162//5
f 153//2 162//2 170//2
f 170//1 162//1 153//1
f 163//4 153//4 171//4
f 171//3 153//3 163//3
f 128//4 163//4 172//4
f 172//3 163//3 128//3
f 128//4 172//4 164//4
f 164//3 172//3 128//3
f 173//2 154//2 164//2
f 164//1 154//1 173//1
f 165//4 154//4 174//4
f 174//3 154//3 165//3
f 155//6 165//6 175//6
f 175//5 165//5 155//5
f 148//3 155//3 176//3
f 176//4 155//4 148//4
f 166//1 148//1 176//1
f 176//2 148//2 166//2
f 177//4 135//4 166//4
f 166//3 135//3 177//3
f 167//4 135//4 178//4
f 178//3 135//3 167//3
f 179//4 158//4 167//4
f 167//3 158//3 179//3
f 159//5 158//5 180//5
f 180//6 158//6 159//6
f 168//3 159//3 180//3
f 180//4 159//4 168//4
f 160//3 168//3 169//3
f 169//4 168//4 160//4
f 152//2 160//2 169//2
f 169//1 160//1 152//1
f 169//3 181//3 162//3
f 162//4 181//4 169//4
f 162//3 182//3 170//3
f 170//4 182//4 162//4
f 183//5 153//5 170//5
f 170//6 153//6 183//6
f 171//4 153//4 184//4
f 184//3 153//3 171//3
f 171//6 185//6 163//6
f 163//5 185//5 171//5
f 185//2 172//2 163//2
f 163//1 172//1 185//1
f 164//4 172//4 186//4
f 186//3 172//3 164//3
f 154//2 173//2 187//2
f 187//1 173//1 154//1
f 186//6 173//6 164//6
f 164//5 173//5 186//5
f 154//5 188//5 174//5
f 174//6 188//6 154//6
f 188//2 165//2 174//2
f 174//1 165//1 188//1
f 165//2 188//2 175//2
f 175//1 188//1 165//1
f 175//3 176//3 155//3
f 155//4 176//4 175//4
f 189//6 166//6 176//6
f 176//5 166//5 189//5
f 190//4 135//4 177//4
f 177//3 135//3 190//3
f 191//4 177//4 166//4
f 166//3 177//3 191//3
f 178//4 135//4 192//4
f 192//3 135//3 178//3
f 182//1 167//1 178//1
f 178//2 167//2 182//2
f 168//1 158//1 179//1
f 179//2 158//2 168//2
f 167//6 168//6 179//6
f 179//5 168//5 167//5
f 158//1 168//1 180//1
f 180//2 168//2 158//2
f 169//3 168//3 181//3
f 181//4 168//4 169//4
f 182//3 162//3 181//3
f 181//4 162//4 182//4
f 182//3 193//3 170//3
f 170//4 193//4 182//4
f 153//5 183//5 184//5
f 184//6 183//6 153//6
f 170//3 193//3 183//3
f 183//4 193//4 170//4
f 183//2 171//2 184//2
f 184//1 171//1 183//1
f 185//6 171//6 194//6
f 194//5 171//5 185//5
f 172//2 185//2 195//2
f 195//1 185//1 172//1
f 186//4 172//4 196//4
f 196//3 172//3 186//3
f 173//3 197//3 187//3
f 187//4 197//4 173//4
f 188//5 154//5 187//5
f 187//6 154//6 188//6
f 173//6 186//6 198//6
f 198//5 186//5 173//5
f 188//3 189//3 175//3
f 175//4 189//4 188//4
f 175//3 189//3 176//3
f 176//4 189//4 175//4
f 166//6 189//6 191//6
f 191//5 189//5 166//5
f 199//4 135//4 190//4
f 190//3 135//3 199//3
f 177//5 197//5 190//5
f 190//6 197//6 177//6
f 189//1 177//1 191//1
f 191//2 177//2 189//2
f 192//4 135//4 200//4
f 200//3 135//3 192//3
f 192//5 182//5 178//5
f 178//6 182//6 192//6
f 167//1 182//1 181//1
f 181//2 182//2 167//2
f 168//6 167//6 181//6
f 181//5 167//5 168//5
f 193//3 182//3 201//3
f 201//4 182//4 193//4
f 183//3 193//3 194//3
f 194//4 193//4 183//4
f 171//2 183//2 194//2
f 194//1 183//1 171//1
f 194//3 202//3 185//3
f 185//4 202//4 194//4
f 185//3 203//3 195//3
f 195//4 203//4 185//4
f 204//5 172//5 195//5
f 195//6 172//6 204//6
f 172//5 204//5 196//5
f 196//6 204//6 172//6
f 204//2 186//2 196//2
f 196//1 186//1 204//1
f 197//3 173//3 205//3
f 205//4 173//4 197//4
f 197//3 189//3 187//3
f 187//4 189//4 197//4
f 187//3 189//3 188//3
f 188//4 189//4 187//4
f 186//2 204//2 198//2
f 198//1 204//1 186//1
f 198//3 205//3 173//3
f 173//4 205//4 198//4
f 206//4 135//4 199//4
f 199//3 135//3 206//3
f 197//1 199//1 190//1
f 190//2 199//2 197//2
f 197//5 177//5 207//5
f 207//6 177//6 197//6
f 177//1 189//1 207//1
f 207//2 189//2 177//2
f 200//4 135//4 208//4
f 208//3 135//3 200//3
f 209//4 192//4 200//4
f 200//3 192//3 209//3
f 182//5 192//5 201//5
f 201//6 192//6 182//6
f 192//1 193//1 201//1
f 201//2 193//2 192//2
f 194//3 193//3 202//3
f 202//4 193//4 194//4
f 203//3 185//3 202//3
f 202//4 185//4 203//4
f 203//3 210//3 195//3
f 195//4 210//4 203//4
f 195//3 210//3 204//3
f 204//4 210//4 195//4
f 199//1 197//1 205//1
f 205//2 197//2 199//2
f 189//3 197//3 207//3
f 207//4 197//4 189//4
f 204//3 210//3 198//3
f 198//4 210//4 204//4
f 198//3 210//3 205//3
f 205//4 210//4 198//4
f 208//4 135//4 206//4
f 206//3 135//3 208//3
f 211//4 206//4 199//4
f 199//3 206//3 211//3
f 203//1 200//1 208//1
f 208//2 200//2 203//2
f 193//1 192//1 209//1
f 209//2 192//2 193//2
f 200//6 193//6 209//6
f 209//5 193//5 200//5
f 193//6 200//6 202//6
f 202//5 200//5 193//5
f 200//1 203//1 202//1
f 202//2 203//2 200//2
f 210//3 203//3 212//3
f 212//4 203//4 210//4
f 210//6 199//6 205//6
f 205//5 199//5 210//5
f 206//5 203//5 208//5
f 208//6 203//6 206//6
f 210//1 206//1 211//1
f 211//2 206//2 210//2
f 199//6 210//6 211//6
f 211//5 210//5 199//5
f 203//5 206//5 212//5
f 212//6 206//6 203//6
f 206//1 210//1 212//1
f 212//2 210//2 206//2
