# SSTK version 0.8.0
# 1
mtllib original-1.mtl
o Plinth__Front___Back1/Plinth__Front___Back/mesh1/mesh1-geometry#mesh1-geometry
v -0.711283 -0.303911 -0.369290
v 0.805019 -0.303911 -0.353850
v 0.805019 -0.303911 -0.369290
v -0.711283 -0.303911 -0.353850
v 0.805019 -0.329519 -0.369290
v -0.711283 -0.324449 -0.353850
v 0.805019 -0.324449 -0.353850
v -0.711283 -0.329519 -0.369290
v 0.805019 -0.329519 -0.338560
v 0.835748 -0.329519 -0.369290
v -0.711283 -0.329519 -0.338560
v 0.805019 -0.324449 -0.338560
v 0.835748 -0.329519 -0.338560
v -0.741712 -0.329519 -0.369290
v -0.711283 -0.324449 -0.338560
v -0.741712 -0.329519 -0.338560
v 0.595032 -0.344884 -0.369290
v 0.835748 -0.355127 -0.369290
v -0.500996 -0.344884 -0.338560
v 0.613750 -0.346111 -0.369290
v -0.500996 -0.344884 -0.369290
v 0.835748 -0.355127 -0.338560
v 0.632148 -0.349770 -0.369290
v -0.741712 -0.355127 -0.338560
v -0.519714 -0.346111 -0.338560
v 0.595032 -0.344884 -0.338560
v -0.519714 -0.346111 -0.369290
v 0.805019 -0.355127 -0.338560
v 0.805019 -0.355127 -0.369290
v -0.741712 -0.355127 -0.369290
v -0.538112 -0.349770 -0.338560
v 0.613750 -0.346111 -0.338560
v -0.538112 -0.349770 -0.369290
v 0.632148 -0.349770 -0.338560
v 0.649911 -0.355800 -0.369290
v -0.711283 -0.355127 -0.369290
v -0.711283 -0.355127 -0.338560
v 0.649911 -0.355800 -0.338560
v 0.805019 -0.380735 -0.369290
v 0.666735 -0.364097 -0.369290
v -0.555875 -0.355800 -0.338560
v -0.555875 -0.355800 -0.369290
v 0.666735 -0.364097 -0.338560
v 0.805019 -0.380735 -0.338560
v 0.682332 -0.374518 -0.369290
v -0.711283 -0.380735 -0.338560
v -0.572699 -0.364097 -0.338560
v -0.572699 -0.364097 -0.369290
v 0.682332 -0.374518 -0.338560
v 0.835748 -0.380735 -0.338560
v 0.696435 -0.386886 -0.369290
v -0.711283 -0.380735 -0.369290
v -0.588296 -0.374518 -0.338560
v -0.588296 -0.374518 -0.369290
v 0.696435 -0.386886 -0.338560
v 0.835748 -0.380735 -0.369290
v -0.741712 -0.380735 -0.369290
v -0.602399 -0.386886 -0.338560
v 0.835748 -0.406343 -0.369290
v 0.708803 -0.400990 -0.338560
v 0.708803 -0.400990 -0.369290
v -0.602399 -0.386886 -0.369290
v -0.741712 -0.380735 -0.338560
v 0.835748 -0.406343 -0.338560
v 0.805019 -0.406343 -0.338560
v -0.741712 -0.406343 -0.338560
v -0.614767 -0.400990 -0.369290
v -0.614767 -0.400990 -0.338560
v 0.805019 -0.406343 -0.369290
v 0.719225 -0.416587 -0.338560
v -0.741712 -0.406343 -0.369290
v -0.711283 -0.406343 -0.369290
v 0.719225 -0.416587 -0.369290
v 0.805019 -0.431951 -0.338560
v -0.711283 -0.406343 -0.338560
v -0.625189 -0.416587 -0.369290
v 0.805019 -0.431951 -0.369290
v 0.727521 -0.433410 -0.338560
v -0.625189 -0.416587 -0.338560
v -0.711283 -0.431951 -0.369290
v 0.727521 -0.433410 -0.369290
v 0.835748 -0.431951 -0.338560
v -0.711283 -0.431951 -0.338560
v -0.633485 -0.433410 -0.369290
v 0.835748 -0.431951 -0.369290
v 0.733551 -0.451173 -0.338560
v -0.633485 -0.433410 -0.338560
v -0.741712 -0.431951 -0.369290
v 0.733551 -0.451173 -0.369290
v 0.805019 -0.457560 -0.338560
v 0.835748 -0.457560 -0.369290
v -0.741712 -0.431951 -0.338560
v -0.639515 -0.451173 -0.369290
v 0.835748 -0.457560 -0.338560
v 0.737211 -0.469571 -0.338560
v -0.639515 -0.451173 -0.338560
v -0.711283 -0.457560 -0.369290
v -0.741712 -0.457560 -0.338560
v 0.805019 -0.457560 -0.369290
v 0.805019 -0.483168 -0.338560
v 0.737211 -0.469571 -0.369290
v -0.741712 -0.457560 -0.369290
v -0.643174 -0.469571 -0.369290
v 0.738437 -0.488289 -0.338560
v 0.805019 -0.483168 -0.369290
v -0.711283 -0.457560 -0.338560
v -0.711283 -0.483168 -0.369290
v -0.643174 -0.469571 -0.338560
v 0.835748 -0.483168 -0.338560
v 0.738437 -0.488289 -0.369290
v -0.644401 -0.488289 -0.369290
v -0.711283 -0.483168 -0.338560
v 0.738437 -0.508776 -0.338560
v 0.835748 -0.483168 -0.369290
v -0.741712 -0.483168 -0.369290
v -0.644401 -0.488289 -0.338560
v 0.835748 -0.508776 -0.338560
v 0.835748 -0.508776 -0.369290
v 0.738437 -0.508776 -0.369290
v -0.644401 -0.508776 -0.369290
v -0.741712 -0.483168 -0.338560
v -0.741712 -0.508776 -0.369290
v -0.741712 -0.508776 -0.338560
v -0.644401 -0.508776 -0.338560
vn 0 1 0
vn 0 -1 0
vn 1 0 0
vn -1 0 0
vn 0 0 -1
vn 0 0 1
vn -0.1305259853353411 -0.9914448886106773 0
vn -0.06540299554311302 -0.9978589320009053 0
vn 0.06540299554311302 0.9978589320009053 0
vn 0.1305259853353411 0.9914448886106773 0
vn 0.1305259853353411 -0.9914448886106773 0
vn 0.06540299554311302 -0.9978589320009053 0
vn -0.06540299554311302 0.9978589320009053 0
vn -0.1305259853353411 0.9914448886106773 0
vn -0.2588189595935754 -0.965925849201117 0
vn 0.2588189595935754 0.965925849201117 0
vn 0.2588189595935754 -0.965925849201117 0
vn -0.2588189595935754 0.965925849201117 0
vn -0.38268289803626016 -0.9238797538373538 0
vn 0.38268289803626016 0.9238797538373538 0
vn 0.38268289803626016 -0.9238797538373538 0
vn -0.38268289803626016 0.9238797538373538 0
vn -0.5000001748438417 -0.8660253028382762 0
vn 0.5000001748438417 0.8660253028382762 0
vn -0.6087613233345314 -0.7933534213778813 0
vn 0.6087613233345314 0.7933534213778813 0
vn 0.5000001748438417 -0.8660253028382762 0
vn -0.5000001748438417 0.8660253028382762 0
vn -0.7071067811865476 -0.7071067811865476 0
vn 0.7071067811865476 0.7071067811865476 0
vn 0.6087613233345314 -0.7933534213778813 0
vn -0.6087613233345314 0.7933534213778813 0
vn 0.7071067811865476 -0.7071067811865476 0
vn -0.7071067811865476 0.7071067811865476 0
vn -0.7933534213778813 -0.6087613233345314 0
vn 0.7933534213778813 0.6087613233345314 0
vn -0.8660253028382762 -0.5000001748438417 0
vn 0.8660253028382762 0.5000001748438417 0
vn 0.7933534213778813 -0.6087613233345314 0
vn -0.7933534213778813 0.6087613233345314 0
vn 0.8660253028382762 -0.5000001748438417 0
vn -0.8660253028382762 0.5000001748438417 0
vn -0.9238797538373538 -0.38268289803626016 0
vn 0.9238797538373538 0.38268289803626016 0
vn 0.9238797538373538 -0.38268289803626016 0
vn -0.9238797538373538 0.38268289803626016 0
vn -0.965925849201117 -0.2588189595935754 0
vn 0.965925849201117 0.2588189595935754 0
vn 0.965925849201117 -0.2588189595935754 0
vn -0.965925849201117 0.2588189595935754 0
vn -0.9914448886106773 -0.1305259853353411 0
vn 0.9914448886106773 0.1305259853353411 0
vn 0.9914448886106773 -0.1305259853353411 0
vn -0.9914448886106773 0.1305259853353411 0
vn -0.9978589320009053 -0.06540299554311302 0
vn 0.9978589320009053 0.06540299554311302 0
vn 0.9978589320009053 -0.06540299554311302 0
vn -0.9978589320009053 0.06540299554311302 0
usemtl material_0_0
f 1//1 2//1 3//1
f 2//1 1//1 4//1
f 3//2 2//2 1//2
f 4//2 1//2 2//2
f 2//3 5//3 3//3
f 3//4 5//4 2//4
f 5//5 1//5 3//5
f 3//6 1//6 5//6
f 4//4 1//4 6//4
f 6//3 1//3 4//3
f 6//6 2//6 4//6
f 4//5 2//5 6//5
f 5//3 2//3 7//3
f 7//4 2//4 5//4
f 1//5 5//5 8//5
f 8//6 5//6 1//6
f 8//4 6//4 1//4
f 1//3 6//3 8//3
f 2//6 6//6 7//6
f 7//5 6//5 2//5
f 5//3 7//3 9//3
f 9//4 7//4 5//4
f 10//5 8//5 5//5
f 5//6 8//6 10//6
f 6//4 8//4 11//4
f 11//3 8//3 6//3
f 6//1 12//1 7//1
f 7//2 12//2 6//2
f 9//3 7//3 12//3
f 12//4 7//4 9//4
f 13//1 5//1 9//1
f 9//2 5//2 13//2
f 10//5 14//5 8//5
f 8//6 14//6 10//6
f 5//1 13//1 10//1
f 10//2 13//2 5//2
f 14//1 11//1 8//1
f 8//2 11//2 14//2
f 6//4 11//4 15//4
f 15//3 11//3 6//3
f 12//1 6//1 15//1
f 15//2 6//2 12//2
f 12//6 11//6 9//6
f 9//5 11//5 12//5
f 16//6 13//6 9//6
f 9//5 13//5 16//5
f 10//5 17//5 14//5
f 14//6 17//6 10//6
f 13//3 18//3 10//3
f 10//4 18//4 13//4
f 11//1 14//1 16//1
f 16//2 14//2 11//2
f 11//6 12//6 15//6
f 15//5 12//5 11//5
f 16//6 9//6 11//6
f 11//5 9//5 16//5
f 16//6 19//6 13//6
f 13//5 19//5 16//5
f 10//5 20//5 17//5
f 17//6 20//6 10//6
f 21//5 14//5 17//5
f 17//6 14//6 21//6
f 18//3 13//3 22//3
f 22//4 13//4 18//4
f 18//5 23//5 10//5
f 10//6 23//6 18//6
f 14//4 24//4 16//4
f 16//3 24//3 14//3
f 16//6 25//6 19//6
f 19//5 25//5 16//5
f 26//6 13//6 19//6
f 19//5 13//5 26//5
f 10//5 23//5 20//5
f 20//6 23//6 10//6
f 20//7 26//8 17//8
f 17//9 26//9 20//10
f 27//5 14//5 21//5
f 21//6 14//6 27//6
f 17//2 19//2 21//2
f 21//1 19//1 17//1
f 13//6 28//6 22//6
f 22//5 28//5 13//5
f 28//2 18//2 22//2
f 22//1 18//1 28//1
f 29//5 23//5 18//5
f 18//6 23//6 29//6
f 24//4 14//4 30//4
f 30//3 14//3 24//3
f 24//6 31//6 16//6
f 16//5 31//5 24//5
f 16//6 31//6 25//6
f 25//5 31//5 16//5
f 25//11 21//12 19//12
f 19//13 21//13 25//14
f 32//6 13//6 26//6
f 26//5 13//5 32//5
f 19//2 17//2 26//2
f 26//1 17//1 19//1
f 23//15 32//7 20//7
f 20//10 32//10 23//16
f 26//8 20//7 32//7
f 32//10 20//10 26//9
f 33//5 14//5 27//5
f 27//6 14//6 33//6
f 21//12 25//11 27//11
f 27//14 25//14 21//13
f 28//6 13//6 34//6
f 34//5 13//5 28//5
f 18//2 28//2 29//2
f 29//1 28//1 18//1
f 29//5 35//5 23//5
f 23//6 35//6 29//6
f 14//5 36//5 30//5
f 30//6 36//6 14//6
f 36//2 24//2 30//2
f 30//1 24//1 36//1
f 37//6 31//6 24//6
f 24//5 31//5 37//5
f 31//17 27//11 25//11
f 25//14 27//14 31//18
f 34//6 13//6 32//6
f 32//5 13//5 34//5
f 32//7 23//15 34//15
f 34//16 23//16 32//10
f 36//5 14//5 33//5
f 33//6 14//6 36//6
f 27//11 31//17 33//17
f 33//18 31//18 27//14
f 38//6 28//6 34//6
f 34//5 28//5 38//5
f 28//3 39//3 29//3
f 29//4 39//4 28//4
f 29//5 40//5 35//5
f 35//6 40//6 29//6
f 35//19 34//15 23//15
f 23//16 34//16 35//20
f 24//2 36//2 37//2
f 37//1 36//1 24//1
f 37//6 41//6 31//6
f 31//5 41//5 37//5
f 42//5 36//5 33//5
f 33//6 36//6 42//6
f 41//21 33//17 31//17
f 31//18 33//18 41//22
f 43//6 28//6 38//6
f 38//5 28//5 43//5
f 34//15 35//19 38//19
f 38//20 35//20 34//16
f 39//3 28//3 44//3
f 44//4 28//4 39//4
f 39//5 45//5 29//5
f 29//6 45//6 39//6
f 29//5 45//5 40//5
f 40//6 45//6 29//6
f 40//23 38//19 35//19
f 35//20 38//20 40//24
f 36//4 46//4 37//4
f 37//3 46//3 36//3
f 37//6 47//6 41//6
f 41//5 47//5 37//5
f 48//5 36//5 42//5
f 42//6 36//6 48//6
f 33//17 41//21 42//21
f 42//22 41//22 33//18
f 49//6 28//6 43//6
f 43//5 28//5 49//5
f 38//19 40//23 43//23
f 43//24 40//24 38//20
f 49//6 44//6 28//6
f 28//5 44//5 49//5
f 50//1 39//1 44//1
f 44//2 39//2 50//2
f 45//5 39//5 51//5
f 51//6 39//6 45//6
f 45//25 43//23 40//23
f 40//24 43//24 45//26
f 46//4 36//4 52//4
f 52//3 36//3 46//3
f 46//6 53//6 37//6
f 37//5 53//5 46//5
f 37//6 53//6 47//6
f 47//5 53//5 37//5
f 47//27 42//21 41//21
f 41//22 42//22 47//28
f 54//5 36//5 48//5
f 48//6 36//6 54//6
f 42//21 47//27 48//27
f 48//28 47//28 42//22
f 43//23 45//25 49//25
f 49//26 45//26 43//24
f 55//6 44//6 49//6
f 49//5 44//5 55//5
f 39//1 50//1 56//1
f 56//2 50//2 39//2
f 55//6 50//6 44//6
f 44//5 50//5 55//5
f 56//5 51//5 39//5
f 39//6 51//6 56//6
f 51//29 49//25 45//25
f 45//26 49//26 51//30
f 54//5 52//5 36//5
f 36//6 52//6 54//6
f 57//1 46//1 52//1
f 52//2 46//2 57//2
f 53//6 46//6 58//6
f 58//5 46//5 53//5
f 53//31 48//27 47//27
f 47//28 48//28 53//32
f 48//27 53//31 54//31
f 54//32 53//32 48//28
f 49//25 51//29 55//29
f 55//30 51//30 49//26
f 50//3 59//3 56//3
f 56//4 59//4 50//4
f 60//6 50//6 55//6
f 55//5 50//5 60//5
f 56//5 61//5 51//5
f 51//6 61//6 56//6
f 62//5 52//5 54//5
f 54//6 52//6 62//6
f 46//1 57//1 63//1
f 63//2 57//2 46//2
f 62//5 57//5 52//5
f 52//6 57//6 62//6
f 63//6 58//6 46//6
f 46//5 58//5 63//5
f 58//33 54//31 53//31
f 53//32 54//32 58//34
f 51//29 60//35 55//29
f 55//30 60//36 51//30
f 59//3 50//3 64//3
f 64//4 50//4 59//4
f 59//5 61//5 56//5
f 56//6 61//6 59//6
f 65//6 50//6 60//6
f 60//5 50//5 65//5
f 60//35 51//29 61//35
f 61//36 51//30 60//36
f 54//31 58//33 62//33
f 62//34 58//34 54//32
f 57//4 66//4 63//4
f 63//3 66//3 57//3
f 67//5 57//5 62//5
f 62//6 57//6 67//6
f 63//6 68//6 58//6
f 58//5 68//5 63//5
f 50//6 65//6 64//6
f 64//5 65//5 50//5
f 65//2 59//2 64//2
f 64//1 59//1 65//1
f 69//5 61//5 59//5
f 59//6 61//6 69//6
f 70//6 65//6 60//6
f 60//5 65//5 70//5
f 61//35 70//37 60//35
f 60//36 70//38 61//36
f 58//33 67//39 62//33
f 62//34 67//40 58//34
f 66//4 57//4 71//4
f 71//3 57//3 66//3
f 66//6 68//6 63//6
f 63//5 68//5 66//5
f 72//5 57//5 67//5
f 67//6 57//6 72//6
f 67//39 58//33 68//39
f 68//40 58//34 67//40
f 59//2 65//2 69//2
f 69//1 65//1 59//1
f 69//5 73//5 61//5
f 61//6 73//6 69//6
f 70//6 74//6 65//6
f 65//5 74//5 70//5
f 70//37 61//35 73//37
f 73//38 61//36 70//38
f 57//5 72//5 71//5
f 71//6 72//6 57//6
f 72//2 66//2 71//2
f 71//1 66//1 72//1
f 75//6 68//6 66//6
f 66//5 68//5 75//5
f 76//5 72//5 67//5
f 67//6 72//6 76//6
f 68//39 76//41 67//39
f 67//40 76//42 68//40
f 65//3 77//3 69//3
f 69//4 77//4 65//4
f 77//5 73//5 69//5
f 69//6 73//6 77//6
f 78//6 74//6 70//6
f 70//5 74//5 78//5
f 77//3 65//3 74//3
f 74//4 65//4 77//4
f 73//37 78//43 70//37
f 70//38 78//44 73//38
f 66//2 72//2 75//2
f 75//1 72//1 66//1
f 75//6 79//6 68//6
f 68//5 79//5 75//5
f 76//5 80//5 72//5
f 72//6 80//6 76//6
f 76//41 68//39 79//41
f 79//42 68//40 76//42
f 73//5 77//5 81//5
f 81//6 77//6 73//6
f 78//6 82//6 74//6
f 74//5 82//5 78//5
f 82//1 77//1 74//1
f 74//2 77//2 82//2
f 78//43 73//37 81//43
f 81//44 73//38 78//44
f 72//4 83//4 75//4
f 75//3 83//3 72//3
f 83//6 79//6 75//6
f 75//5 79//5 83//5
f 84//5 80//5 76//5
f 76//6 80//6 84//6
f 83//4 72//4 80//4
f 80//3 72//3 83//3
f 79//41 84//45 76//41
f 76//42 84//46 79//42
f 85//5 81//5 77//5
f 77//6 81//6 85//6
f 86//6 82//6 78//6
f 78//5 82//5 86//5
f 77//1 82//1 85//1
f 85//2 82//2 77//2
f 81//43 86//47 78//43
f 78//44 86//48 81//44
f 79//6 83//6 87//6
f 87//5 83//5 79//5
f 84//5 88//5 80//5
f 80//6 88//6 84//6
f 88//1 83//1 80//1
f 80//2 83//2 88//2
f 84//45 79//41 87//45
f 87//46 79//42 84//46
f 85//5 89//5 81//5
f 81//6 89//6 85//6
f 90//6 82//6 86//6
f 86//5 82//5 90//5
f 82//3 91//3 85//3
f 85//4 91//4 82//4
f 86//47 81//43 89//47
f 89//48 81//44 86//48
f 92//6 87//6 83//6
f 83//5 87//5 92//5
f 93//5 88//5 84//5
f 84//6 88//6 93//6
f 83//1 88//1 92//1
f 92//2 88//2 83//2
f 87//45 93//49 84//45
f 84//46 93//50 87//46
f 91//5 89//5 85//5
f 85//6 89//6 91//6
f 82//6 90//6 94//6
f 94//5 90//5 82//5
f 95//6 90//6 86//6
f 86//5 90//5 95//5
f 91//3 82//3 94//3
f 94//4 82//4 91//4
f 89//47 95//51 86//47
f 86//48 95//52 89//48
f 92//6 96//6 87//6
f 87//5 96//5 92//5
f 97//5 88//5 93//5
f 93//6 88//6 97//6
f 88//4 98//4 92//4
f 92//3 98//3 88//3
f 93//49 87//45 96//49
f 96//50 87//46 93//50
f 99//5 89//5 91//5
f 91//6 89//6 99//6
f 90//2 91//2 94//2
f 94//1 91//1 90//1
f 95//6 100//6 90//6
f 90//5 100//5 95//5
f 95//51 89//47 101//51
f 101//52 89//48 95//52
f 98//6 96//6 92//6
f 92//5 96//5 98//5
f 88//5 97//5 102//5
f 102//6 97//6 88//6
f 103//5 97//5 93//5
f 93//6 97//6 103//6
f 98//4 88//4 102//4
f 102//3 88//3 98//3
f 96//49 103//53 93//49
f 93//50 103//54 96//50
f 99//5 101//5 89//5
f 89//6 101//6 99//6
f 91//2 90//2 99//2
f 99//1 90//1 91//1
f 104//6 100//6 95//6
f 95//5 100//5 104//5
f 105//3 90//3 100//3
f 100//4 90//4 105//4
f 101//51 104//55 95//51
f 95//52 104//56 101//52
f 106//6 96//6 98//6
f 98//5 96//5 106//5
f 97//2 98//2 102//2
f 102//1 98//1 97//1
f 103//5 107//5 97//5
f 97//6 107//6 103//6
f 103//53 96//49 108//53
f 108//54 96//50 103//54
f 105//5 101//5 99//5
f 99//6 101//6 105//6
f 90//3 105//3 99//3
f 99//4 105//4 90//4
f 104//6 109//6 100//6
f 100//5 109//5 104//5
f 109//1 105//1 100//1
f 100//2 105//2 109//2
f 104//55 101//51 110//55
f 110//56 101//52 104//56
f 106//6 108//6 96//6
f 96//5 108//5 106//5
f 98//2 97//2 106//2
f 106//1 97//1 98//1
f 111//5 107//5 103//5
f 103//6 107//6 111//6
f 112//4 97//4 107//4
f 107//3 97//3 112//3
f 108//53 111//57 103//53
f 103//54 111//58 108//54
f 101//5 105//5 110//5
f 110//6 105//6 101//6
f 113//6 109//6 104//6
f 104//5 109//5 113//5
f 105//1 109//1 114//1
f 114//2 109//2 105//2
f 110//4 113//4 104//4
f 104//3 113//3 110//3
f 112//6 108//6 106//6
f 106//5 108//5 112//5
f 97//4 112//4 106//4
f 106//3 112//3 97//3
f 111//5 115//5 107//5
f 107//6 115//6 111//6
f 115//1 112//1 107//1
f 107//2 112//2 115//2
f 111//57 108//53 116//57
f 116//58 108//54 111//58
f 114//5 110//5 105//5
f 105//6 110//6 114//6
f 109//6 113//6 117//6
f 117//5 113//5 109//5
f 109//3 118//3 114//3
f 114//4 118//4 109//4
f 113//4 110//4 119//4
f 119//3 110//3 113//3
f 108//6 112//6 116//6
f 116//5 112//5 108//5
f 120//5 115//5 111//5
f 111//6 115//6 120//6
f 112//1 115//1 121//1
f 121//2 115//2 112//2
f 116//3 120//3 111//3
f 111//4 120//4 116//4
f 118//5 110//5 114//5
f 114//6 110//6 118//6
f 113//2 118//2 117//2
f 117//1 118//1 113//1
f 118//3 109//3 117//3
f 117//4 109//4 118//4
f 110//5 118//5 119//5
f 119//6 118//6 110//6
f 118//2 113//2 119//2
f 119//1 113//1 118//1
f 121//6 116//6 112//6
f 112//5 116//5 121//5
f 115//5 120//5 122//5
f 122//6 120//6 115//6
f 115//4 123//4 121//4
f 121//3 123//3 115//3
f 120//3 116//3 124//3
f 124//4 116//4 120//4
f 123//6 116//6 121//6
f 121//5 116//5 123//5
f 120//2 123//2 122//2
f 122//1 123//1 120//1
f 123//4 115//4 122//4
f 122//3 115//3 123//3
f 116//6 123//6 124//6
f 124//5 123//5 116//5
f 123//2 120//2 124//2
f 124//1 120//1 123//1
