# SSTK version 0.8.0
# 10
mtllib original-10.mtl
o 3dw.d32af00b6b170bebeefb4d7820758668/Model/mesh1/mesh1-geometry/material_4/component_3#mesh1-geometry
v 0.523780 0.198570 0.046260
v 0.530424 0.238114 0.006163
v 0.563324 0.191926 0.046260
v 0.530424 0.238114 0.006163
v 0.523780 0.198570 -0.033934
v 0.563324 0.191926 -0.033934
v -0.534065 0.238114 0.006163
v -0.566965 0.191926 -0.033934
v -0.527425 0.198570 -0.033934
v -0.566965 0.191926 0.046260
v -0.534065 0.238114 0.006163
v -0.527425 0.198570 0.046260
v 0.517140 0.159026 0.006163
v 0.523780 0.198570 0.046260
v 0.596224 0.145742 0.006163
v 0.530424 0.238114 0.006163
v 0.533656 0.257357 0.006163
v 0.563324 0.191926 0.046260
v 0.563324 0.191926 0.046260
v 0.596224 0.145742 0.006163
v 0.523780 0.198570 0.046260
v 0.517140 0.159026 0.006163
v 0.596224 0.145742 0.006163
v 0.523780 0.198570 -0.033934
v 0.563324 0.191926 -0.033934
v 0.523780 0.198570 -0.033934
v 0.596224 0.145742 0.006163
v 0.530424 0.238114 0.006163
v 0.563324 0.191926 -0.033934
v 0.533656 0.257357 0.006163
v -0.527425 0.198570 -0.033934
v -0.566965 0.191926 -0.033934
v -0.520780 0.159026 0.006163
v -0.534065 0.238114 0.006163
v -0.557053 0.374930 0.006163
v -0.566965 0.191926 -0.033934
v -0.527425 0.198570 0.046260
v -0.520780 0.159026 0.006163
v -0.566965 0.191926 0.046260
v -0.534065 0.238114 0.006163
v -0.566965 0.191926 0.046260
v -0.557053 0.374930 0.006163
v 0.553408 0.374930 0.006163
v 0.563324 0.191926 0.046260
v 0.533656 0.257357 0.006163
v 0.563324 0.191926 0.046260
v 0.594070 0.374930 0.046260
v 0.596224 0.145742 0.006163
v 0.563324 0.191926 -0.033934
v 0.596224 0.145742 0.006163
v 0.594070 0.374930 -0.033934
v 0.553408 0.374930 0.006163
v 0.533656 0.257357 0.006163
v 0.563324 0.191926 -0.033934
v -0.599864 0.145742 0.006163
v -0.520780 0.159026 0.006163
v -0.566965 0.191926 -0.033934
v -0.597711 0.374930 -0.033934
v -0.566965 0.191926 -0.033934
v -0.557053 0.374930 0.006163
v -0.537301 0.257357 0.006163
v -0.534065 0.238114 0.006163
v -0.557053 0.374930 0.006163
v -0.537301 0.257357 0.006163
v -0.557053 0.374930 0.006163
v -0.534065 0.238114 0.006163
v -0.599864 0.145742 0.006163
v -0.566965 0.191926 0.046260
v -0.520780 0.159026 0.006163
v -0.597711 0.374930 0.046260
v -0.557053 0.374930 0.006163
v -0.566965 0.191926 0.046260
v 0.594070 0.374930 0.046260
v 0.563324 0.191926 0.046260
v 0.553408 0.374930 0.006163
v 0.609512 0.224826 0.006163
v 0.596224 0.145742 0.006163
v 0.594070 0.374930 0.046260
v 0.609512 0.224826 0.006163
v 0.594070 0.374930 -0.033934
v 0.596224 0.145742 0.006163
v 0.594070 0.374930 -0.033934
v 0.553408 0.374930 0.006163
v 0.563324 0.191926 -0.033934
v -0.566965 0.191926 -0.033934
v -0.597711 0.374930 -0.033934
v -0.599864 0.145742 0.006163
v -0.597711 0.374930 -0.033934
v -0.557053 0.374930 0.006163
v -0.423179 0.796289 -0.033934
v -0.566965 0.191926 0.046260
v -0.599864 0.145742 0.006163
v -0.597711 0.374930 0.046260
v -0.597711 0.374930 0.046260
v -0.423179 0.796289 0.046260
v -0.557053 0.374930 0.006163
v 0.594070 0.374930 0.046260
v 0.553408 0.374930 0.006163
v 0.419535 0.796289 0.046260
v 0.634729 0.374930 0.006163
v 0.609512 0.224826 0.006163
v 0.594070 0.374930 0.046260
v 0.634729 0.374930 0.006163
v 0.594070 0.374930 -0.033934
v 0.609512 0.224826 0.006163
v 0.594070 0.374930 -0.033934
v 0.419535 0.796289 -0.033934
v 0.553408 0.374930 0.006163
v -0.638370 0.374930 0.006163
v -0.599864 0.145742 0.006163
v -0.597711 0.374930 -0.033934
v -0.394430 0.767536 0.006163
v -0.423179 0.796289 -0.033934
v -0.557053 0.374930 0.006163
v -0.423179 0.796289 -0.033934
v -0.451929 0.825039 0.006163
v -0.597711 0.374930 -0.033934
v -0.638370 0.374930 0.006163
v -0.597711 0.374930 0.046260
v -0.599864 0.145742 0.006163
v -0.394430 0.767536 0.006163
v -0.557053 0.374930 0.006163
v -0.423179 0.796289 0.046260
v -0.423179 0.796289 0.046260
v -0.597711 0.374930 0.046260
v -0.451929 0.825039 0.006163
v 0.390785 0.767536 0.006163
v 0.419535 0.796289 0.046260
v 0.553408 0.374930 0.006163
v 0.419535 0.796289 0.046260
v 0.448288 0.825039 0.006163
v 0.594070 0.374930 0.046260
v 0.634729 0.374930 0.006163
v 0.594070 0.374930 0.046260
v 0.448288 0.825039 0.006163
v 0.634729 0.374930 0.006163
v 0.448288 0.825039 0.006163
v 0.594070 0.374930 -0.033934
v 0.390785 0.767536 0.006163
v 0.553408 0.374930 0.006163
v 0.419535 0.796289 -0.033934
v 0.419535 0.796289 -0.033934
v 0.594070 0.374930 -0.033934
v 0.448288 0.825039 0.006163
v -0.638370 0.374930 0.006163
v -0.597711 0.374930 -0.033934
v -0.451929 0.825039 0.006163
v -0.423179 0.796289 -0.033934
v -0.394430 0.767536 0.006163
v -0.001820 0.970821 -0.033934
v -0.451929 0.825039 0.006163
v -0.423179 0.796289 -0.033934
v -0.001820 1.011480 0.006163
v -0.638370 0.374930 0.006163
v -0.451929 0.825039 0.006163
v -0.597711 0.374930 0.046260
v -0.423179 0.796289 0.046260
v -0.001820 0.970821 0.046260
v -0.394430 0.767536 0.006163
v -0.451929 0.825039 0.006163
v -0.001820 1.011480 0.006163
v -0.423179 0.796289 0.046260
v 0.419535 0.796289 0.046260
v 0.390785 0.767536 0.006163
v -0.001820 0.970821 0.046260
v 0.419535 0.796289 0.046260
v -0.001820 0.970821 0.046260
v 0.448288 0.825039 0.006163
v 0.419535 0.796289 -0.033934
v -0.001820 0.970821 -0.033934
v 0.390785 0.767536 0.006163
v 0.419535 0.796289 -0.033934
v 0.448288 0.825039 0.006163
v -0.001820 0.970821 -0.033934
v -0.001820 0.930162 0.006163
v -0.001820 0.970821 -0.033934
v -0.394430 0.767536 0.006163
v -0.001820 0.970821 -0.033934
v -0.001820 1.011480 0.006163
v -0.423179 0.796289 -0.033934
v -0.001820 0.930162 0.006163
v -0.394430 0.767536 0.006163
v -0.001820 0.970821 0.046260
v -0.001820 0.970821 0.046260
v -0.423179 0.796289 0.046260
v -0.001820 1.011480 0.006163
v -0.001820 0.930162 0.006163
v -0.001820 0.970821 0.046260
v 0.390785 0.767536 0.006163
v -0.001820 1.011480 0.006163
v 0.448288 0.825039 0.006163
v -0.001820 0.970821 0.046260
v -0.001820 0.930162 0.006163
v 0.390785 0.767536 0.006163
v -0.001820 0.970821 -0.033934
v -0.001820 1.011480 0.006163
v -0.001820 0.970821 -0.033934
v 0.448288 0.825039 0.006163
v 0.563324 0.191926 0.046260
v 0.530424 0.238114 0.006163
v 0.523780 0.198570 0.046260
v 0.563324 0.191926 -0.033934
v 0.523780 0.198570 -0.033934
v 0.530424 0.238114 0.006163
v -0.527425 0.198570 -0.033934
v -0.566965 0.191926 -0.033934
v -0.534065 0.238114 0.006163
v -0.527425 0.198570 0.046260
v -0.534065 0.238114 0.006163
v -0.566965 0.191926 0.046260
v 0.596224 0.145742 0.006163
v 0.523780 0.198570 0.046260
v 0.517140 0.159026 0.006163
v 0.563324 0.191926 0.046260
v 0.533656 0.257357 0.006163
v 0.530424 0.238114 0.006163
v 0.523780 0.198570 0.046260
v 0.596224 0.145742 0.006163
v 0.563324 0.191926 0.046260
v 0.523780 0.198570 -0.033934
v 0.596224 0.145742 0.006163
v 0.517140 0.159026 0.006163
v 0.596224 0.145742 0.006163
v 0.523780 0.198570 -0.033934
v 0.563324 0.191926 -0.033934
v 0.533656 0.257357 0.006163
v 0.563324 0.191926 -0.033934
v 0.530424 0.238114 0.006163
v -0.520780 0.159026 0.006163
v -0.566965 0.191926 -0.033934
v -0.527425 0.198570 -0.033934
v -0.566965 0.191926 -0.033934
v -0.557053 0.374930 0.006163
v -0.534065 0.238114 0.006163
v -0.566965 0.191926 0.046260
v -0.520780 0.159026 0.006163
v -0.527425 0.198570 0.046260
v -0.557053 0.374930 0.006163
v -0.566965 0.191926 0.046260
v -0.534065 0.238114 0.006163
v 0.533656 0.257357 0.006163
v 0.563324 0.191926 0.046260
v 0.553408 0.374930 0.006163
v 0.596224 0.145742 0.006163
v 0.594070 0.374930 0.046260
v 0.563324 0.191926 0.046260
v 0.594070 0.374930 -0.033934
v 0.596224 0.145742 0.006163
v 0.563324 0.191926 -0.033934
v 0.563324 0.191926 -0.033934
v 0.533656 0.257357 0.006163
v 0.553408 0.374930 0.006163
v -0.566965 0.191926 -0.033934
v -0.520780 0.159026 0.006163
v -0.599864 0.145742 0.006163
v -0.557053 0.374930 0.006163
v -0.566965 0.191926 -0.033934
v -0.597711 0.374930 -0.033934
v -0.557053 0.374930 0.006163
v -0.534065 0.238114 0.006163
v -0.537301 0.257357 0.006163
v -0.534065 0.238114 0.006163
v -0.557053 0.374930 0.006163
v -0.537301 0.257357 0.006163
v -0.520780 0.159026 0.006163
v -0.566965 0.191926 0.046260
v -0.599864 0.145742 0.006163
v -0.566965 0.191926 0.046260
v -0.557053 0.374930 0.006163
v -0.597711 0.374930 0.046260
v 0.553408 0.374930 0.006163
v 0.563324 0.191926 0.046260
v 0.594070 0.374930 0.046260
v 0.594070 0.374930 0.046260
v 0.596224 0.145742 0.006163
v 0.609512 0.224826 0.006163
v 0.596224 0.145742 0.006163
v 0.594070 0.374930 -0.033934
v 0.609512 0.224826 0.006163
v 0.563324 0.191926 -0.033934
v 0.553408 0.374930 0.006163
v 0.594070 0.374930 -0.033934
v -0.599864 0.145742 0.006163
v -0.597711 0.374930 -0.033934
v -0.566965 0.191926 -0.033934
v -0.423179 0.796289 -0.033934
v -0.557053 0.374930 0.006163
v -0.597711 0.374930 -0.033934
v -0.597711 0.374930 0.046260
v -0.599864 0.145742 0.006163
v -0.566965 0.191926 0.046260
v -0.557053 0.374930 0.006163
v -0.423179 0.796289 0.046260
v -0.597711 0.374930 0.046260
v 0.419535 0.796289 0.046260
v 0.553408 0.374930 0.006163
v 0.594070 0.374930 0.046260
v 0.594070 0.374930 0.046260
v 0.609512 0.224826 0.006163
v 0.634729 0.374930 0.006163
v 0.609512 0.224826 0.006163
v 0.594070 0.374930 -0.033934
v 0.634729 0.374930 0.006163
v 0.553408 0.374930 0.006163
v 0.419535 0.796289 -0.033934
v 0.594070 0.374930 -0.033934
v -0.597711 0.374930 -0.033934
v -0.599864 0.145742 0.006163
v -0.638370 0.374930 0.006163
v -0.557053 0.374930 0.006163
v -0.423179 0.796289 -0.033934
v -0.394430 0.767536 0.006163
v -0.597711 0.374930 -0.033934
v -0.451929 0.825039 0.006163
v -0.423179 0.796289 -0.033934
v -0.599864 0.145742 0.006163
v -0.597711 0.374930 0.046260
v -0.638370 0.374930 0.006163
v -0.423179 0.796289 0.046260
v -0.557053 0.374930 0.006163
v -0.394430 0.767536 0.006163
v -0.451929 0.825039 0.006163
v -0.597711 0.374930 0.046260
v -0.423179 0.796289 0.046260
v 0.553408 0.374930 0.006163
v 0.419535 0.796289 0.046260
v 0.390785 0.767536 0.006163
v 0.594070 0.374930 0.046260
v 0.448288 0.825039 0.006163
v 0.419535 0.796289 0.046260
v 0.448288 0.825039 0.006163
v 0.594070 0.374930 0.046260
v 0.634729 0.374930 0.006163
v 0.594070 0.374930 -0.033934
v 0.448288 0.825039 0.006163
v 0.634729 0.374930 0.006163
v 0.419535 0.796289 -0.033934
v 0.553408 0.374930 0.006163
v 0.390785 0.767536 0.006163
v 0.448288 0.825039 0.006163
v 0.594070 0.374930 -0.033934
v 0.419535 0.796289 -0.033934
v -0.451929 0.825039 0.006163
v -0.597711 0.374930 -0.033934
v -0.638370 0.374930 0.006163
v -0.001820 0.970821 -0.033934
v -0.394430 0.767536 0.006163
v -0.423179 0.796289 -0.033934
v -0.001820 1.011480 0.006163
v -0.423179 0.796289 -0.033934
v -0.451929 0.825039 0.006163
v -0.597711 0.374930 0.046260
v -0.451929 0.825039 0.006163
v -0.638370 0.374930 0.006163
v -0.394430 0.767536 0.006163
v -0.001820 0.970821 0.046260
v -0.423179 0.796289 0.046260
v -0.423179 0.796289 0.046260
v -0.001820 1.011480 0.006163
v -0.451929 0.825039 0.006163
v -0.001820 0.970821 0.046260
v 0.390785 0.767536 0.006163
v 0.419535 0.796289 0.046260
v 0.448288 0.825039 0.006163
v -0.001820 0.970821 0.046260
v 0.419535 0.796289 0.046260
v 0.390785 0.767536 0.006163
v -0.001820 0.970821 -0.033934
v 0.419535 0.796289 -0.033934
v -0.001820 0.970821 -0.033934
v 0.448288 0.825039 0.006163
v 0.419535 0.796289 -0.033934
v -0.394430 0.767536 0.006163
v -0.001820 0.970821 -0.033934
v -0.001820 0.930162 0.006163
v -0.423179 0.796289 -0.033934
v -0.001820 1.011480 0.006163
v -0.001820 0.970821 -0.033934
v -0.001820 0.970821 0.046260
v -0.394430 0.767536 0.006163
v -0.001820 0.930162 0.006163
v -0.001820 1.011480 0.006163
v -0.423179 0.796289 0.046260
v -0.001820 0.970821 0.046260
v 0.390785 0.767536 0.006163
v -0.001820 0.970821 0.046260
v -0.001820 0.930162 0.006163
v -0.001820 0.970821 0.046260
v 0.448288 0.825039 0.006163
v -0.001820 1.011480 0.006163
v -0.001820 0.970821 -0.033934
v 0.390785 0.767536 0.006163
v -0.001820 0.930162 0.006163
v 0.448288 0.825039 0.006163
v -0.001820 0.970821 -0.033934
v -0.001820 1.011480 0.006163
vt 0 0
vt 0.8583980202674866 -5.066854000091553
vt 0.8153300285339355 -4.959715843200684
vt 0.7935370206832886 -5.051444053649902
vt -3.5414469242095947 6.226142883300781
vt -3.476586103439331 6.241552829742432
vt -3.4983789920806885 6.33328104019165
vt 0.9089189767837524 6.538200855255127
vt 0.9737799763679504 6.522790908813477
vt 0.9307119846343994 6.629928112030029
vt 1.774129033088684 -4.754796028137207
vt 1.752336025238037 -4.663068771362305
vt 1.7092679738998413 -4.770205974578857
vt 3.6063079833984375 6.210732936859131
vt 3.4983789920806885 6.33328104019165
vt 3.476586103439331 6.241552829742432
vt 7.405546188354492 0.7147639989852905
vt 7.323615074157715 0.8243039846420288
vt 7.31978702545166 0.7920870184898376
vt 3.5632400512695312 6.31787109375
vt -0.8153300285339355 -4.959715843200684
vt -0.9232590198516846 -5.082263946533203
vt -0.7935370206832886 -5.051444053649902
vt -0.8801910281181335 -4.975125789642334
vt 4.202691078186035 2.193542957305908
vt 4.120759010314941 2.0840039253234863
vt 4.206518173217773 2.1613259315490723
vt -1.774129033088684 -4.754796028137207
vt -1.6874749660491943 -4.678479194641113
vt -1.752336025238037 -4.663068771362305
vt -5.973884105682373 1.8699090480804443
vt -6.0324320793151855 2.176284074783325
vt -6.0596418380737305 1.9472310543060303
vt -0.9955729842185974 6.614518165588379
vt -0.9089189767837524 6.538200855255127
vt -0.9307119846343994 6.629928112030029
vt -5.493873119354248 0.8070449829101562
vt -5.552422046661377 0.500669002532959
vt -5.466662883758545 0.5779920220375061
vt 7.346996784210205 1.0211399793624878
vt -4.128623962402344 2.0178020000457764
vt -4.177987098693848 2.401500940322876
vt -4.214382171630859 2.0951249599456787
vt -7.348318099975586 1.0322610139846802
vt -7.397682189941406 0.648563027381897
vt -7.311923027038574 0.7258859872817993
vt 4.17930793762207 2.390378952026367
vt -1.644407033920288 -4.785616874694824
vt -5.937488079071045 2.176284074783325
vt -5.470489978790283 0.6102089881896973
vt -6.05581521987915 1.9794479608535767
vt -1.0386420488357544 6.50738000869751
vt -5.588817119598389 0.8070449829101562
vt 7.441940784454346 1.0211399793624878
vt -4.1128950119018555 2.15020489692688
vt -7.413410186767578 0.7809649705886841
vt 4.08436393737793 2.390378952026367
vt 5.544558048248291 0.43446800112724304
vt 5.495193958282471 0.8181660175323486
vt 5.458798885345459 0.5117909908294678
vt -6.144100189208984 0.6440110206604004
vt -6.0324320793151855 -0.08557599782943726
vt -5.937488079071045 -0.08557599782943726
vt 6.031110763549805 2.187406063079834
vt 5.981748104095459 1.8037070035934448
vt 6.067505836486816 1.8810299634933472
vt -5.493873119354248 3.178550958633423
vt -5.382205963134766 3.9081380367279053
vt -5.588817119598389 3.178550958633423
vt 7.235330104827881 3.397757053375244
vt 7.346996784210205 2.6681699752807617
vt 7.441940784454346 2.6681699752807617
vt -4.083043098449707 2.401500940322876
vt -7.443262100219727 1.0322610139846802
vt 4.17930793762207 -0.595956027507782
vt 4.290975093841553 0.13363100588321686
vt 4.08436393737793 -0.595956027507782
vt 5.590137958526611 0.8181660175323486
vt -6.224946022033691 0.5942299962043762
vt 5.495193958282471 3.152038097381592
vt 5.369429111480713 3.9314069747924805
vt 5.288582801818848 3.881624937057495
vt 5.936166763305664 2.187406063079834
vt -5.301360130310059 3.85835599899292
vt 6.156876087188721 0.6672800183296204
vt 6.031110763549805 -0.11208900064229965
vt 6.237721920013428 0.6174989938735962
vt 7.154483795166016 3.347975969314575
vt -4.177987098693848 -0.6224690079689026
vt -4.3037519454956055 0.15690000355243683
vt -4.3845977783203125 0.10711800307035446
vt -4.083043098449707 -0.6224690079689026
vt -7.348318099975586 2.6416571140289307
vt -7.22255277633667 3.4210259914398193
vt -7.443262100219727 2.6416571140289307
vt 4.371821880340576 0.0838489979505539
vt -7.141706943511963 3.371243953704834
vt 5.590137958526611 3.152038097381592
vt -4.283251762390137 -2.885427951812744
vt -3.7041780948638916 -3.3430750370025635
vt -3.6347169876098633 -3.278348922729492
vt 1.8990639448165894 7.368707180023193
vt 2.5223889350891113 6.884250164031982
vt 2.591850996017456 6.948976039886475
vt 5.936166763305664 -0.11208900064229965
vt -2.5033481121063232 6.90274715423584
vt -1.92427396774292 7.360393047332764
vt -2.572809934616089 6.967472076416016
vt 3.6851370334625244 -3.3615710735321045
vt 4.308462142944336 -2.8771140575408936
vt 3.6156749725341797 -3.296844959259033
vt 4.333673000335693 6.696805953979492
vt 4.912746906280518 6.239159107208252
vt 4.982209205627441 6.303884983062744
vt -1.2062770128250122 -3.960433006286621
vt -1.92427396774292 -3.632236957550049
vt -1.2757389545440674 -4.025157928466797
vt 1.2947800159454346 -4.006661891937256
vt 1.8738540410995483 -3.5490150451660156
vt 1.2253179550170898 -3.9419360160827637
vt -4.283251762390137 6.613584041595459
vt -5.00124979019165 6.285387992858887
vt -4.931787967681885 6.220663070678711
vt -4.308463096618652 -2.9769630432128906
vt 1.8738540410995483 7.277172088623047
vt -1.8990639448165894 7.268857955932617
vt 4.333673000335693 -2.9686501026153564
vt 4.308463096618652 6.605270862579346
vt -1.8990639448165894 -3.540700912475586
vt 1.8990639448165894 -3.6405510902404785
vt -4.308462142944336 6.705120086669922
vn 0 0 -1
vn 0.5801837096556627 -0.8144856432437552 0
vn 0 0 1
vn -0.5801837096556627 -0.8144856432437552 0
vn 0.16567603556333776 0.9861802326349963 0
vn -0.5801837096556627 0.8144856432437552 0
vn 0.9861802326349963 -0.16567603556333776 0
vn -0.16567603556333776 0.9861802326349963 0
vn -0.9930862428371444 0.1173870277654388 0
vn 0.9930862428371444 0.1173870277654388 0
vn 0.5801837096556627 0.8144856432437552 0
vn -0.9861802326349963 -0.16567603556333776 0
vn -0.9861802326349963 0.16567603556333776 0
vn -0.9930862428371444 -0.1173870277654388 0
vn 0.9930862428371444 -0.1173870277654388 0
vn -0.7071067811865476 0.7071067811865476 0
vn 0.7071067811865476 -0.7071067811865476 0
vn 0.7071067811865476 0.7071067811865476 0
vn -0.7071067811865476 -0.7071067811865476 0
vn 0 -1 0
vn 0 1 0
vn -0.16567603556333776 -0.9861802326349963 0
vn 0.16567603556333776 -0.9861802326349963 0
vn 0.9861802326349963 0.16567603556333776 0
usemtl material_0_0
f 1/1/1 2/1/2 3/1/1
f 4/1/2 5/1/3 6/1/3
f 7/1/4 8/1/3 9/1/3
f 10/1/1 11/1/4 12/1/1
f 13/1/5 14/1/1 15/1/6
f 16/1/2 17/1/7 18/1/1
f 19/1/1 20/1/6 21/1/1
f 22/1/5 23/1/6 24/1/3
f 25/1/3 26/1/3 27/1/6
f 28/1/2 29/1/3 30/1/7
f 31/1/3 32/1/3 33/1/8
f 34/1/4 35/1/9 36/1/3
f 37/1/1 38/1/8 39/1/1
f 40/1/4 41/1/1 42/1/9
f 43/1/10 44/1/1 45/1/7
f 46/1/1 47/1/1 48/1/6
f 49/1/3 50/1/6 51/1/3
f 52/1/10 53/1/7 54/1/3
f 55/1/11 56/1/8 57/1/3
f 58/1/3 59/1/3 60/1/9
f 61/1/12 62/1/4 63/1/9
f 64/1/12 65/1/9 66/1/4
f 67/1/11 68/1/1 69/1/8
f 70/1/1 71/1/9 72/1/1
f 73/1/1 74/1/1 75/1/10
f 76/1/13 77/1/6 78/1/1
f 79/1/13 80/1/3 81/1/6
f 82/1/3 83/1/10 84/1/3
f 85/1/3 86/1/3 87/1/11
f 88/1/3 89/1/9 90/1/3
f 91/1/1 92/1/11 93/1/1
f 94/1/1 95/1/1 96/1/9
f 97/1/1 98/1/10 99/1/1
f 100/1/14 101/1/13 102/1/1
f 103/1/14 104/1/3 105/1/13
f 106/1/3 107/1/3 108/1/10
f 109/1/15 110/1/11 111/1/3
f 112/1/16 113/1/3 114/1/9
f 115/1/3 116/1/17 117/1/3
f 118/1/15 119/1/1 120/1/11
f 121/1/16 122/1/9 123/1/1
f 124/1/1 125/1/1 126/1/17
f 127/1/18 128/1/1 129/1/10
f 130/1/1 131/1/19 132/1/1
f 133/1/14 134/1/1 135/1/19
f 136/1/14 137/1/19 138/1/3
f 139/1/18 140/1/10 141/1/3
f 142/1/3 143/1/3 144/1/19
f 145/1/15 146/1/3 147/1/17
f 148/1/3 149/1/16 150/1/3
f 151/1/17 152/1/3 153/1/20
f 154/1/15 155/1/17 156/1/1
f 157/1/1 158/1/1 159/1/16
f 160/1/17 161/1/20 162/1/1
f 163/1/1 164/1/18 165/1/1
f 166/1/1 167/1/1 168/1/19
f 169/1/3 170/1/3 171/1/18
f 172/1/3 173/1/19 174/1/3
f 175/1/21 176/1/3 177/1/16
f 178/1/3 179/1/20 180/1/3
f 181/1/21 182/1/16 183/1/1
f 184/1/1 185/1/1 186/1/20
f 187/1/21 188/1/1 189/1/18
f 190/1/20 191/1/19 192/1/1
f 193/1/21 194/1/18 195/1/3
f 196/1/20 197/1/3 198/1/19
usemtl material_1_0
f 199/2/3 200/3/6 201/4/3
f 202/5/1 203/6/1 204/7/6
f 205/8/1 206/9/1 207/10/11
f 208/11/3 209/12/11 210/13/3
f 211/14/2 212/15/3 213/16/22
f 214/17/3 215/18/13 216/19/6
f 217/15/3 218/14/2 219/20/3
f 220/21/1 221/22/2 222/23/22
f 223/22/2 224/21/1 225/24/1
f 226/25/13 227/26/1 228/27/6
f 229/28/23 230/29/1 231/30/1
f 232/31/1 233/32/15 234/33/11
f 235/34/3 236/35/23 237/36/3
f 238/37/15 239/38/3 240/39/11
f 241/18/13 242/17/3 243/40/14
f 244/41/2 245/42/3 246/43/3
f 247/44/1 248/45/2 249/46/1
f 250/26/1 251/25/13 252/47/14
f 253/29/1 254/28/23 255/48/4
f 256/32/15 257/31/1 258/49/1
f 259/37/15 260/39/11 261/50/24
f 262/33/11 263/32/15 264/51/24
f 265/35/23 266/34/3 267/52/4
f 268/38/3 269/37/15 270/53/3
f 271/40/14 272/17/3 273/54/3
f 274/42/3 275/41/2 276/55/7
f 277/45/2 278/44/1 279/56/7
f 280/26/1 281/47/14 282/57/1
f 283/58/4 284/59/1 285/60/1
f 286/61/1 287/62/15 288/63/1
f 289/64/3 290/65/4 291/66/3
f 292/67/15 293/68/3 294/69/3
f 295/70/3 296/71/14 297/72/3
f 298/42/3 299/55/7 300/73/10
f 301/56/7 302/44/1 303/74/10
f 304/75/14 305/76/1 306/77/1
f 307/59/1 308/58/4 309/78/9
f 310/62/15 311/61/1 312/79/17
f 313/80/1 314/81/16 315/82/1
f 316/65/4 317/64/3 318/83/9
f 319/68/3 320/67/15 321/84/17
f 322/85/16 323/86/3 324/87/3
f 325/71/14 326/70/3 327/88/19
f 328/89/3 329/90/18 330/91/3
f 331/90/18 332/89/3 333/92/10
f 334/93/1 335/94/18 336/95/10
f 337/76/1 338/75/14 339/96/19
f 340/94/18 341/93/1 342/97/1
f 343/81/16 344/80/1 345/98/9
f 346/99/1 347/100/17 348/101/1
f 349/102/21 350/103/1 351/104/16
f 352/86/3 353/85/16 354/105/9
f 355/106/17 356/107/3 357/108/3
f 358/109/3 359/110/21 360/111/16
f 361/112/3 362/113/19 363/114/3
f 364/115/18 365/116/3 366/117/3
f 367/118/19 368/119/1 369/120/1
f 370/121/1 371/122/18 372/123/1
f 373/100/17 374/99/1 375/124/20
f 376/103/1 377/102/21 378/125/1
f 379/107/3 380/106/17 381/126/20
f 382/110/21 383/109/3 384/127/3
f 385/113/19 386/112/3 387/128/20
f 388/116/3 389/115/18 390/129/21
f 391/119/1 392/118/19 393/130/20
f 394/122/18 395/121/1 396/131/21
