# SSTK version 0.8.0
# 7
mtllib original-7.mtl
o mesh7/mesh7-geometry#mesh7-geometry
v -0.003797 -0.653103 0.063353
v -0.051953 -0.723624 0.058610
v -0.003797 -0.723624 0.063353
v -0.051953 -0.653103 0.058610
v -0.051953 -0.723624 -0.425581
v 0.044358 -0.653103 0.058610
v -0.051709 -0.651860 0.057384
v -0.098258 -0.723624 0.044563
v -0.098258 -0.723624 -0.411535
v -0.003797 -0.723624 -0.430324
v 0.044358 -0.723624 0.058610
v -0.003797 -0.651860 0.062103
v -0.097780 -0.651860 0.043409
v -0.098258 -0.653103 0.044563
v -0.098258 -0.653103 -0.411535
v -0.051953 -0.653103 -0.425581
v 0.090663 -0.653103 0.044564
v 0.044114 -0.651860 0.057384
v -0.051709 -0.651860 -0.424355
v -0.097780 -0.651860 -0.410380
v -0.140933 -0.723624 0.021753
v -0.140933 -0.723624 -0.388724
v -0.140933 -0.653103 -0.388724
v -0.003797 -0.653103 -0.430324
v 0.044359 -0.723624 -0.425581
v 0.090663 -0.723624 0.044564
v 0.090185 -0.651860 0.043409
v -0.003797 -0.651860 -0.429074
v -0.140239 -0.651860 0.020714
v -0.140239 -0.651860 -0.387685
v -0.140933 -0.653103 0.021753
v 0.133338 -0.653103 0.021753
v 0.132644 -0.651860 0.020714
v 0.044115 -0.651860 -0.424355
v -0.178338 -0.723624 -0.008945
v -0.178338 -0.653103 -0.358027
v -0.177455 -0.651860 -0.357143
v 0.044359 -0.653103 -0.425581
v 0.090664 -0.723624 -0.411534
v 0.133338 -0.723624 0.021753
v 0.090186 -0.651860 -0.410380
v -0.177455 -0.651860 -0.009828
v -0.178338 -0.653103 -0.008945
v -0.178338 -0.723624 -0.358027
v 0.170744 -0.653103 -0.008944
v 0.169860 -0.651860 -0.009828
v 0.132645 -0.651860 -0.387685
v -0.209036 -0.653103 -0.046349
v -0.209036 -0.723624 -0.046349
v -0.209036 -0.723624 -0.320622
v -0.207997 -0.651860 -0.319927
v 0.090664 -0.653103 -0.411534
v 0.133339 -0.723624 -0.388724
v 0.170744 -0.723624 -0.008944
v -0.207997 -0.651860 -0.047044
v -0.209036 -0.653103 -0.320622
v 0.201441 -0.723624 -0.046349
v 0.200402 -0.651860 -0.047043
v 0.169860 -0.651860 -0.357143
v 0.133339 -0.653103 -0.388724
v -0.231846 -0.653103 -0.089025
v -0.230692 -0.651860 -0.089503
v -0.231846 -0.723624 -0.089025
v -0.231846 -0.723624 -0.277946
v -0.230692 -0.651860 -0.277468
v 0.170744 -0.723624 -0.358026
v 0.201441 -0.653103 -0.046349
v -0.231846 -0.653103 -0.277946
v 0.224252 -0.723624 -0.089024
v 0.201441 -0.723624 -0.320621
v 0.223097 -0.651860 -0.089503
v 0.200402 -0.651860 -0.319927
v 0.170744 -0.653103 -0.358026
v -0.245893 -0.653103 -0.135330
v -0.244667 -0.651860 -0.135574
v -0.245893 -0.723624 -0.135330
v -0.245893 -0.723624 -0.231641
v -0.244667 -0.651860 -0.231397
v 0.224252 -0.653103 -0.089024
v 0.201441 -0.653103 -0.320621
v -0.245893 -0.653103 -0.231641
v 0.238298 -0.723624 -0.135330
v 0.224252 -0.723624 -0.277946
v 0.224252 -0.653103 -0.277946
v 0.237072 -0.651860 -0.135573
v 0.223097 -0.651860 -0.277468
v -0.250636 -0.653103 -0.183485
v -0.249386 -0.651860 -0.183485
v -0.250636 -0.723624 -0.183485
v 0.238298 -0.653103 -0.135330
v 0.243041 -0.723624 -0.183485
v 0.238298 -0.723624 -0.231641
v 0.238298 -0.653103 -0.231641
v 0.237072 -0.651860 -0.231397
v 0.241791 -0.651860 -0.183485
v 0.243041 -0.653103 -0.183485
vn 0 0 1
vn -0.19509006590875128 0 0.9807853313461202
vn 0 -1 0
vn 0.19508910396827864 0 0.9807855226872256
vn 0 0.7088202006950253 0.7053891997235737
vn -0.13761494732850826 0.7088207287021075 0.6918347352034192
vn -0.38268289803626016 0 0.9238797538373538
vn 0.13761396626655495 0.7088208262460632 0.691834830409857
vn -0.2699400157541047 0.7088210413678603 0.6516940380338428
vn -0.38268289803626016 0 -0.9238797538373538
vn -0.19509006590875128 0 -0.9807853313461202
vn 0 0 -1
vn 0.382682044482198 0 0.9238801073899822
vn 0 1 0
vn -0.555569892830578 0 0.8314698396094834
vn -0.555569892830578 0 -0.8314698396094834
vn 0.2699398398358326 0.7088205794334838 0.6516946133281949
vn -0.39189386680783794 0.7088197590948869 0.5865098006641211
vn -0.2699400157541047 0.7088210413678606 -0.6516940380338425
vn -0.13761396626655495 0.7088208262460636 -0.6918348304098567
vn -0.391893866807838 0.7088197590948873 -0.5865098006641208
vn 0 0.7088202006950257 -0.7053891997235734
vn 0.19509102784866092 0 -0.9807851400041463
vn 0.555569201488041 0 0.8314703015489732
vn 0.39189279053923776 0.7088196211466459 0.5865106865189196
vn -0.7071067811865475 0 0.7071067811865475
vn -0.7071067811865475 0 -0.7071067811865475
vn -0.4987859202127143 0.7088188866152136 -0.4987869202125541
vn 0.13761494732850826 0.7088207287021079 -0.6918347352034189
vn -0.49878667142463773 0.7088185330662994 0.4987866714246379
vn 0.3826841051430464 0 -0.9238792538372458
vn 0.70710578118615 0 0.707107781185531
vn 0.4987859202127142 0.7088188866152133 0.4987869202125544
vn 0.2699409428861713 0.7088208500284094 -0.6516938621152788
vn -0.8314698396094834 0 0.555569892830578
vn -0.8314698396094834 0 -0.555569892830578
vn -0.586509800664121 0.7088197590948871 -0.3918938668078378
vn 0.391893866807838 0.7088197590948873 -0.5865098006641208
vn -0.586509800664121 0.7088197590948869 0.3918938668078381
vn 0.5555710461118432 0 -0.8314690690111041
vn 0.8314690690111041 0 0.5555710461118432
vn 0.586509800664121 0.7088197590948869 0.3918938668078381
vn -0.9238797538373538 0 0.38268289803626016
vn -0.6516940380338426 0.7088210413678604 0.2699400157541049
vn -0.9238797538373538 0 -0.38268289803626016
vn -0.6516940380338426 0.7088210413678605 -0.26994001575410453
vn 0.4987869202125543 0.7088188866152136 -0.4987859202127141
vn 0.7071072811865696 0 -0.7071062811861719
vn 0.9238792538372458 0 0.3826841051430464
vn 0.6516938621152788 0.708820850028409 0.26994094288617143
vn -0.9807851400041463 0 0.19509102784866092
vn -0.6918347352034189 0.7088207287021077 0.1376149473285084
vn -0.9807853313461202 0 -0.19509006590875128
vn -0.6918348304098569 0.7088208262460634 -0.1376139662665548
vn 0.8314698396094834 0 -0.555569892830578
vn 0.5865106865189195 0.708819621146646 -0.3918927905392376
vn 0.9807851400041463 0 0.19509102784866092
vn 0.9238797538373538 0 -0.38268289803626016
vn 0.6918347352034189 0.7088207287021077 0.1376149473285084
vn -1 0 0
vn -0.7053891997235735 0.7088202006950255 0
vn 0.6516940380338426 0.7088210413678605 -0.26994001575410453
vn 1 0 9.999999999995e-7
vn 0.9807855226872256 0 -0.19508910396827864
vn 0.6918348304098569 0.7088208262460634 -0.1376139662665548
vn 0.705389199723221 0.7088202006946712 0.00000100000028329651
vn 0.19509006590875128 0 -0.9807853313461202
vn -0.19508910396827864 0 -0.9807855226872256
vn 0.13761494732850826 -0.7088207287021075 -0.6918347352034192
vn 0 -0.7088202006950253 -0.7053891997235737
vn 0.38268289803626016 0 -0.9238797538373538
vn -0.13761396626655495 -0.7088208262460632 -0.691834830409857
vn 0.2699400157541047 -0.7088210413678603 -0.6516940380338428
vn 0.38268289803626016 0 0.9238797538373538
vn 0.19509006590875128 0 0.9807853313461202
vn -0.382682044482198 0 -0.9238801073899822
vn 0.555569892830578 0 -0.8314698396094834
vn 0.555569892830578 0 0.8314698396094834
vn -0.2699398398358326 -0.7088205794334838 -0.6516946133281949
vn 0.39189386680783794 -0.7088197590948869 -0.5865098006641211
vn 0.2699400157541047 -0.7088210413678606 0.6516940380338425
vn 0.13761396626655495 -0.7088208262460636 0.6918348304098567
vn 0.391893866807838 -0.7088197590948873 0.5865098006641208
vn 0 -0.7088202006950257 0.7053891997235734
vn -0.19509102784866092 0 0.9807851400041463
vn -0.555569201488041 0 -0.8314703015489732
vn -0.39189279053923776 -0.7088196211466459 -0.5865106865189196
vn 0.7071067811865475 0 -0.7071067811865475
vn 0.7071067811865475 0 0.7071067811865475
vn 0.4987859202127143 -0.7088188866152136 0.4987869202125541
vn -0.13761494732850826 -0.7088207287021079 0.6918347352034189
vn 0.49878667142463773 -0.7088185330662994 -0.4987866714246379
vn -0.3826841051430464 0 0.9238792538372458
vn -0.70710578118615 0 -0.707107781185531
vn -0.4987859202127142 -0.7088188866152133 -0.4987869202125544
vn -0.2699409428861713 -0.7088208500284094 0.6516938621152788
vn 0.8314698396094834 0 0.555569892830578
vn 0.586509800664121 -0.7088197590948871 0.3918938668078378
vn -0.391893866807838 -0.7088197590948873 0.5865098006641208
vn 0.586509800664121 -0.7088197590948869 -0.3918938668078381
vn -0.5555710461118432 0 0.8314690690111041
vn -0.8314690690111041 0 -0.5555710461118432
vn -0.586509800664121 -0.7088197590948869 -0.3918938668078381
vn 0.6516940380338426 -0.7088210413678604 -0.2699400157541049
vn 0.9238797538373538 0 0.38268289803626016
vn 0.6516940380338426 -0.7088210413678605 0.26994001575410453
vn -0.4987869202125543 -0.7088188866152136 0.4987859202127141
vn -0.7071072811865696 0 0.7071062811861719
vn -0.9238792538372458 0 -0.3826841051430464
vn -0.6516938621152788 -0.708820850028409 -0.26994094288617143
vn 0.9807851400041463 0 -0.19509102784866092
vn 0.6918347352034189 -0.7088207287021077 -0.1376149473285084
vn 0.9807853313461202 0 0.19509006590875128
vn 0.6918348304098569 -0.7088208262460634 0.1376139662665548
vn -0.5865106865189195 -0.708819621146646 0.3918927905392376
vn -0.9807851400041463 0 -0.19509102784866092
vn -0.6918347352034189 -0.7088207287021077 -0.1376149473285084
vn 1 0 0
vn 0.7053891997235735 -0.7088202006950255 0
vn -0.6516940380338426 -0.7088210413678605 0.26994001575410453
vn -1 0 -9.999999999995e-7
vn -0.9807855226872256 0 0.19508910396827864
vn -0.6918348304098569 -0.7088208262460634 0.1376139662665548
vn -0.705389199723221 -0.7088202006946712 -0.00000100000028329651
usemtl material_0_0
f 1//1 2//2 3//1
f 2//2 1//1 4//2
f 2//3 5//3 3//3
f 3//1 6//4 1//1
f 1//5 7//6 4//6
f 4//2 8//7 2//2
f 2//3 9//3 5//3
f 3//3 5//3 10//3
f 6//4 3//1 11//4
f 6//8 12//5 1//5
f 7//6 1//5 12//5
f 13//9 4//6 7//6
f 8//7 4//2 14//7
f 8//3 9//3 2//3
f 15//10 5//11 9//10
f 16//11 10//12 5//11
f 3//3 10//3 11//3
f 11//4 17//13 6//4
f 12//5 6//8 18//8
f 19//14 7//14 12//14
f 4//6 13//9 14//9
f 20//14 13//14 7//14
f 14//7 21//15 8//7
f 8//3 22//3 9//3
f 5//11 15//10 16//11
f 9//10 23//16 15//10
f 10//12 16//11 24//12
f 11//3 10//3 25//3
f 17//13 11//4 26//13
f 27//17 6//8 17//17
f 6//8 27//17 18//8
f 28//14 12//14 18//14
f 20//14 7//14 19//14
f 19//14 12//14 28//14
f 29//18 14//9 13//9
f 30//14 13//14 20//14
f 21//15 14//7 31//15
f 21//3 22//3 8//3
f 23//16 9//10 22//16
f 20//19 16//20 15//19
f 30//21 15//19 23//21
f 19//20 24//22 16//20
f 24//12 25//23 10//12
f 11//3 25//3 26//3
f 26//13 32//24 17//13
f 17//17 33//25 27//17
f 34//14 18//14 27//14
f 28//14 18//14 34//14
f 16//20 20//19 19//20
f 24//22 19//20 28//22
f 14//9 29//18 31//18
f 30//14 29//14 13//14
f 15//19 30//21 20//19
f 31//15 35//26 21//15
f 35//3 22//3 21//3
f 22//16 36//27 23//16
f 23//21 37//28 30//21
f 25//23 24//12 38//23
f 26//3 25//3 39//3
f 32//24 26//13 40//24
f 33//25 17//17 32//25
f 41//14 27//14 33//14
f 34//14 27//14 41//14
f 34//29 24//22 28//22
f 42//30 31//18 29//18
f 37//14 29//14 30//14
f 35//26 31//15 43//26
f 35//3 44//3 22//3
f 36//27 22//16 44//27
f 37//28 23//21 36//28
f 24//22 34//29 38//29
f 38//23 39//31 25//23
f 26//3 39//3 40//3
f 40//24 45//32 32//24
f 32//25 46//33 33//25
f 41//14 33//14 47//14
f 41//34 38//29 34//29
f 31//18 42//30 43//30
f 37//14 42//14 29//14
f 48//35 35//26 43//26
f 49//3 44//3 35//3
f 50//36 36//27 44//27
f 36//28 51//37 37//28
f 39//31 38//23 52//31
f 40//3 39//3 53//3
f 45//32 40//24 54//32
f 46//33 32//25 45//33
f 47//14 33//14 46//14
f 47//38 52//34 41//34
f 38//29 41//34 52//34
f 55//39 43//30 42//30
f 51//14 42//14 37//14
f 35//26 48//35 49//35
f 43//30 55//39 48//39
f 49//3 50//3 44//3
f 36//27 50//36 56//36
f 51//37 36//28 56//37
f 52//31 53//40 39//31
f 40//3 53//3 54//3
f 57//41 45//32 54//32
f 45//33 58//42 46//33
f 47//14 46//14 59//14
f 52//34 47//38 60//38
f 51//14 55//14 42//14
f 61//43 49//35 48//35
f 62//44 48//39 55//39
f 63//3 50//3 49//3
f 64//45 56//36 50//36
f 56//37 65//46 51//37
f 53//40 52//31 60//40
f 54//3 53//3 66//3
f 45//32 57//41 67//41
f 54//3 66//3 57//3
f 58//42 45//33 67//42
f 59//14 46//14 58//14
f 59//47 60//38 47//38
f 51//14 62//14 55//14
f 49//35 61//43 63//43
f 48//39 62//44 61//44
f 63//3 64//3 50//3
f 56//36 64//45 68//45
f 65//46 56//37 68//46
f 65//14 62//14 51//14
f 60//40 66//48 53//40
f 69//49 67//41 57//41
f 57//3 66//3 70//3
f 67//42 71//50 58//42
f 59//14 58//14 72//14
f 60//38 59//47 73//47
f 74//51 63//43 61//43
f 75//52 61//44 62//44
f 76//3 64//3 63//3
f 77//53 68//45 64//45
f 68//46 78//54 65//46
f 65//14 75//14 62//14
f 66//48 60//40 73//48
f 67//41 69//49 79//49
f 57//3 70//3 69//3
f 66//48 80//55 70//55
f 71//50 67//42 79//50
f 72//14 58//14 71//14
f 72//56 73//47 59//47
f 63//43 74//51 76//51
f 61//44 75//52 74//52
f 76//3 77//3 64//3
f 68//45 77//53 81//53
f 78//54 68//46 81//54
f 78//14 75//14 65//14
f 80//55 66//48 73//48
f 82//57 79//49 69//49
f 69//3 70//3 83//3
f 84//58 70//55 80//55
f 79//50 85//59 71//50
f 72//14 71//14 86//14
f 73//47 72//56 80//56
f 87//60 76//51 74//51
f 88//61 74//52 75//52
f 77//3 76//3 89//3
f 89//60 81//53 77//53
f 81//54 88//61 78//54
f 75//14 78//14 88//14
f 79//49 82//57 90//57
f 69//3 83//3 82//3
f 70//55 84//58 83//58
f 80//56 86//62 84//62
f 85//59 79//50 90//59
f 86//14 71//14 85//14
f 86//62 80//56 72//56
f 76//51 87//60 89//60
f 74//52 88//61 87//61
f 81//53 89//60 87//60
f 88//61 81//54 87//61
f 91//63 90//57 82//57
f 82//3 83//3 92//3
f 93//64 83//58 84//58
f 94//65 84//62 86//62
f 90//59 95//66 85//59
f 86//14 85//14 94//14
f 90//57 91//63 96//63
f 82//3 92//3 91//3
f 83//58 93//64 92//64
f 84//62 94//65 93//65
f 95//66 90//59 96//66
f 94//14 85//14 95//14
f 92//64 96//63 91//63
f 96//63 92//64 93//64
f 95//66 93//65 94//65
f 93//65 95//66 96//66
usemtl material_1_0
f 3//12 2//67 1//12
f 4//67 1//12 2//67
f 3//14 5//14 2//14
f 1//12 6//68 3//12
f 4//69 7//69 1//70
f 2//67 8//71 4//67
f 5//14 9//14 2//14
f 10//14 5//14 3//14
f 11//68 3//12 6//68
f 1//70 12//70 6//72
f 12//70 1//70 7//69
f 7//69 4//69 13//73
f 14//71 4//67 8//71
f 2//14 9//14 8//14
f 9//74 5//75 15//74
f 5//75 10//1 16//75
f 11//14 10//14 3//14
f 6//68 17//76 11//68
f 18//72 6//72 12//70
f 12//3 7//3 19//3
f 14//73 13//73 4//69
f 7//3 13//3 20//3
f 8//71 21//77 14//71
f 9//14 22//14 8//14
f 16//75 15//74 5//75
f 15//74 23//78 9//74
f 24//1 16//75 10//1
f 25//14 10//14 11//14
f 26//76 11//68 17//76
f 17//79 6//72 27//79
f 18//72 27//79 6//72
f 18//3 12//3 28//3
f 19//3 7//3 20//3
f 28//3 12//3 19//3
f 13//73 14//73 29//80
f 20//3 13//3 30//3
f 31//77 14//71 21//77
f 8//14 22//14 21//14
f 22//78 9//74 23//78
f 15//81 16//82 20//81
f 23//83 15//81 30//83
f 16//82 24//84 19//82
f 10//1 25//85 24//1
f 26//14 25//14 11//14
f 17//76 32//86 26//76
f 27//79 33//87 17//79
f 27//3 18//3 34//3
f 34//3 18//3 28//3
f 19//82 20//81 16//82
f 28//84 19//82 24//84
f 31//80 29//80 14//73
f 13//3 29//3 30//3
f 20//81 30//83 15//81
f 21//77 35//88 31//77
f 21//14 22//14 35//14
f 23//78 36//89 22//78
f 30//83 37//90 23//83
f 38//85 24//1 25//85
f 39//14 25//14 26//14
f 40//86 26//76 32//86
f 32//87 17//79 33//87
f 33//3 27//3 41//3
f 41//3 27//3 34//3
f 28//84 24//84 34//91
f 29//80 31//80 42//92
f 30//3 29//3 37//3
f 43//88 31//77 35//88
f 22//14 44//14 35//14
f 44//89 22//78 36//89
f 36//90 23//83 37//90
f 38//91 34//91 24//84
f 25//85 39//93 38//85
f 40//14 39//14 26//14
f 32//86 45//94 40//86
f 33//87 46//95 32//87
f 47//3 33//3 41//3
f 34//91 38//91 41//96
f 43//92 42//92 31//80
f 29//3 42//3 37//3
f 43//88 35//88 48//55
f 35//14 44//14 49//14
f 44//89 36//89 50//97
f 37//90 51//98 36//90
f 52//93 38//85 39//93
f 53//14 39//14 40//14
f 54//94 40//86 45//94
f 45//95 32//87 46//95
f 46//3 33//3 47//3
f 41//96 52//96 47//99
f 52//96 41//96 38//91
f 42//92 43//92 55//100
f 37//3 42//3 51//3
f 49//55 48//55 35//88
f 48//100 55//100 43//92
f 44//14 50//14 49//14
f 56//97 50//97 36//89
f 56//98 36//90 51//98
f 39//93 53//101 52//93
f 54//14 53//14 40//14
f 54//94 45//94 57//102
f 46//95 58//103 45//95
f 59//3 46//3 47//3
f 60//99 47//99 52//96
f 42//3 55//3 51//3
f 48//55 49//55 61//58
f 55//100 48//100 62//104
f 49//14 50//14 63//14
f 50//97 56//97 64//105
f 51//98 65//106 56//98
f 60//101 52//93 53//101
f 66//14 53//14 54//14
f 67//102 57//102 45//94
f 57//14 66//14 54//14
f 67//103 45//95 58//103
f 58//3 46//3 59//3
f 47//99 60//99 59//107
f 55//3 62//3 51//3
f 63//58 61//58 49//55
f 61//104 62//104 48//100
f 50//14 64//14 63//14
f 68//105 64//105 56//97
f 68//106 56//98 65//106
f 51//3 62//3 65//3
f 53//101 66//108 60//101
f 57//102 67//102 69//109
f 70//14 66//14 57//14
f 58//103 71//110 67//103
f 72//3 58//3 59//3
f 73//107 59//107 60//99
f 61//58 63//58 74//111
f 62//104 61//104 75//112
f 63//14 64//14 76//14
f 64//105 68//105 77//113
f 65//106 78//114 68//106
f 62//3 75//3 65//3
f 73//108 60//101 66//108
f 79//109 69//109 67//102
f 69//14 70//14 57//14
f 70//35 80//35 66//108
f 79//110 67//103 71//110
f 71//3 58//3 72//3
f 59//107 73//107 72//115
f 76//111 74//111 63//58
f 74//112 75//112 61//104
f 64//14 77//14 76//14
f 81//113 77//113 68//105
f 81//114 68//106 78//114
f 65//3 75//3 78//3
f 73//108 66//108 80//35
f 69//109 79//109 82//116
f 83//14 70//14 69//14
f 80//35 70//35 84//43
f 71//110 85//117 79//110
f 86//3 71//3 72//3
f 80//115 72//115 73//107
f 74//111 76//111 87//118
f 75//112 74//112 88//119
f 89//14 76//14 77//14
f 77//113 81//113 89//118
f 78//114 88//119 81//114
f 88//3 78//3 75//3
f 90//116 82//116 79//109
f 82//14 83//14 69//14
f 83//43 84//43 70//35
f 84//120 86//120 80//115
f 90//117 79//110 85//117
f 85//3 71//3 86//3
f 72//115 80//115 86//120
f 89//118 87//118 76//111
f 87//119 88//119 74//112
f 87//118 89//118 81//113
f 87//119 81//114 88//119
f 82//116 90//116 91//121
f 92//14 83//14 82//14
f 84//43 83//43 93//122
f 86//120 84//120 94//123
f 85//117 95//124 90//117
f 94//3 85//3 86//3
f 96//121 91//121 90//116
f 91//14 92//14 82//14
f 92//122 93//122 83//43
f 93//123 94//123 84//120
f 96//124 90//117 95//124
f 95//3 85//3 94//3
f 91//121 96//121 92//122
f 93//122 92//122 96//121
f 94//123 93//123 95//124
f 96//124 95//124 93//123
