# SSTK version 0.8.0
# 13
mtllib original-13.mtl
o mesh1/mesh1-geometry/material_2/component_2#mesh1-geometry
v 0.468163 -0.334788 -0.816512
v -0.492598 -0.394481 -0.816512
v 0.468163 -0.394481 -0.816512
v -0.492598 -0.334788 0.770660
v -0.492598 -0.394481 -0.816512
v -0.492598 -0.334788 -0.816512
v -0.492598 -0.394481 -0.816512
v 0.468163 -0.334788 -0.816512
v -0.492598 -0.334788 -0.816512
v 0.468163 -0.394481 0.770660
v 0.468163 -0.334788 -0.816512
v 0.468163 -0.394481 -0.816512
v -0.492598 -0.394481 -0.816512
v -0.492598 -0.334788 0.770660
v -0.492598 -0.394481 0.770660
v 0.363565 -0.334788 0.770660
v 0.468163 -0.394481 0.770660
v 0.363565 -0.394481 0.770660
v 0.468163 -0.334788 -0.816512
v 0.468163 -0.394481 0.770660
v 0.468163 -0.334788 0.770660
v -0.492598 -0.334788 0.770660
v -0.388000 -0.394481 0.770660
v -0.492598 -0.394481 0.770660
v -0.388000 -0.394481 0.770660
v -0.492598 -0.334788 0.770660
v -0.388000 -0.334788 0.770660
v 0.468163 -0.394481 0.770660
v 0.363565 -0.334788 0.770660
v 0.468163 -0.334788 0.770660
v 0.363565 -0.394481 0.770660
v -0.388000 -0.334788 0.770660
v 0.363565 -0.334788 0.770660
v -0.388000 -0.334788 0.770660
v 0.363565 -0.394481 0.770660
v -0.388000 -0.394481 0.770660
v 0.468163 -0.394481 -0.816512
v -0.492598 -0.394481 -0.816512
v 0.468163 -0.334788 -0.816512
v -0.492598 -0.334788 -0.816512
v -0.492598 -0.394481 -0.816512
v -0.492598 -0.334788 0.770660
v -0.492598 -0.334788 -0.816512
v 0.468163 -0.334788 -0.816512
v -0.492598 -0.394481 -0.816512
v 0.468163 -0.394481 -0.816512
v 0.468163 -0.334788 -0.816512
v 0.468163 -0.394481 0.770660
v -0.492598 -0.394481 0.770660
v -0.492598 -0.334788 0.770660
v -0.492598 -0.394481 -0.816512
v 0.363565 -0.394481 0.770660
v 0.468163 -0.394481 0.770660
v 0.363565 -0.334788 0.770660
v 0.468163 -0.334788 0.770660
v 0.468163 -0.394481 0.770660
v 0.468163 -0.334788 -0.816512
v -0.492598 -0.394481 0.770660
v -0.388000 -0.394481 0.770660
v -0.492598 -0.334788 0.770660
v -0.388000 -0.334788 0.770660
v -0.492598 -0.334788 0.770660
v -0.388000 -0.394481 0.770660
v 0.468163 -0.334788 0.770660
v 0.363565 -0.334788 0.770660
v 0.468163 -0.394481 0.770660
v 0.363565 -0.334788 0.770660
v -0.388000 -0.334788 0.770660
v 0.363565 -0.394481 0.770660
v -0.388000 -0.394481 0.770660
v 0.363565 -0.394481 0.770660
v -0.388000 -0.334788 0.770660
vn 0 0 1
vn 0 0.7071067811865475 0.7071067811865477
vn 1 0 0
vn 0.7071067811865476 0.7071067811865476 0
vn -0.7071067811865476 0.7071067811865476 0
vn -1 0 0
vn 0 0 -1
vn 0 0.7071067811865477 -0.7071067811865475
vn 0 0.4472140008114907 -0.8944269883440346
vn 0 -0.7071067811865475 -0.7071067811865477
vn -0.7071067811865476 -0.7071067811865476 0
vn 0.7071067811865476 -0.7071067811865476 0
vn 0 -0.4472140008114907 0.8944269883440346
vn 0 -0.7071067811865477 0.7071067811865475
usemtl material_0_0
f 1//1 2//2 3//2
f 4//3 5//4 6//3
f 7//2 8//1 9//1
f 10//5 11//6 12//5
f 13//4 14//3 15//4
f 16//7 17//8 18//9
f 19//6 20//5 21//6
f 22//7 23//9 24//8
f 25//9 26//7 27//7
f 28//8 29//7 30//7
f 31//9 32//7 33//7
f 34//7 35//9 36//9
usemtl material_1_0
f 37//10 38//10 39//7
f 40//6 41//11 42//6
f 43//7 44//7 45//10
f 46//12 47//3 48//12
f 49//11 50//6 51//11
f 52//13 53//14 54//1
f 55//3 56//12 57//3
f 58//14 59//13 60//1
f 61//1 62//1 63//13
f 64//1 65//1 66//14
f 67//1 68//1 69//13
f 70//13 71//13 72//1
