mtllib new-2.mtl
v 0.477313 0.194059 -0.301088
v -0.468896 0.062229 -0.301088
v -0.468896 0.194059 -0.301088
v 0.477313 0.062229 -0.301088
v 0.441684 0.194059 -0.301088
v 0.441684 0.194059 -0.265459
v -0.433266 0.194059 -0.301088
v -0.433266 0.074105 -0.265459
v -0.433266 0.194059 -0.265459
v 0.441684 0.074105 -0.265459
vn 0.000000 0.000000 -1.000000
vn 0.000000 0.000000 1.000000
vn 0.000000 1.000000 0.000000
vn 0.000000 -1.000000 0.000000
vt 0.457162 0.182360
vt 0.658579 0.182360
vt 0.457162 0.209974
vt 0.457162 0.019458
vt 0.658579 0.209974
vt 0.457162 0.027660
vt -0.448959 0.209974
vt -0.658579 0.209974
vt -0.448959 0.179626
vt -0.457162 0.209974
vt -0.666781 0.209974
vt -0.666781 0.179626
vt 0.658579 0.027660
vt 0.658579 0.019458
usemtl material-0
f 1/7/2 7/8/2 4/9/2
f 4/9/1 7/8/1 1/7/1
f 7/8/2 1/7/2 5/10/2
f 5/10/1 1/7/1 7/8/1
f 4/9/2 3/11/2 2/12/2
f 2/12/1 3/11/1 4/9/1
f 3/11/2 4/9/2 7/8/2
f 7/8/1 4/9/1 3/11/1
f 7/14/3 6/6/3 5/4/3
f 5/4/4 6/6/4 7/14/4
f 10/1/1 9/5/1 6/3/1
f 6/3/2 9/5/2 10/1/2
f 6/6/3 7/14/3 9/13/3
f 9/13/4 7/14/4 6/6/4
f 9/5/1 10/1/1 8/2/1
f 8/2/2 10/1/2 9/5/2