# SSTK version 0.8.0
# 9
mtllib original-9.mtl
o mesh17/mesh17-geometry#mesh17-geometry
v 0.008319 -0.102239 0.41442
v 0.008319 -0.102239 0.407771
v 0.008757 -0.102239 0.411095
v 0.007036 -0.102239 0.417518
v 0.008757 -0.099287 0.411095
v 0.008319 -0.099287 0.41442
v 0.007036 -0.099287 0.417518
v 0.007036 -0.102239 0.404673
v 0.008319 -0.099287 0.407771
v 0.004995 -0.099287 0.420178
v 0.004995 -0.102239 0.420178
v 0.007036 -0.099287 0.404673
v 0.004995 -0.099287 0.402012
v 0.004995 -0.102239 0.402012
v 0.002334 -0.102239 0.422219
v 0.002334 -0.099287 0.422219
v 0.002334 -0.099287 0.399971
v 0.002334 -0.102239 0.399971
v -0.000764 -0.102239 0.423503
v -0.000764 -0.099287 0.423503
v -0.000764 -0.099287 0.398688
v -0.000764 -0.102239 0.398688
v -0.004088 -0.102239 0.42394
v -0.004088 -0.099287 0.42394
v -0.004088 -0.099287 0.39825
v -0.004088 -0.102239 0.39825
v -0.007413 -0.102239 0.423503
v -0.007413 -0.099287 0.398688
v -0.007413 -0.099287 0.423503
v -0.007413 -0.102239 0.398688
v -0.010511 -0.102239 0.422219
v -0.010511 -0.099287 0.399971
v -0.010511 -0.099287 0.422219
v -0.010511 -0.102239 0.399971
v -0.013171 -0.102239 0.420178
v -0.013171 -0.099287 0.402012
v -0.013171 -0.099287 0.420178
v -0.013171 -0.102239 0.402012
v -0.015212 -0.099287 0.417518
v -0.015212 -0.102239 0.404673
v -0.015212 -0.099287 0.404673
v -0.015212 -0.102239 0.417518
v -0.016496 -0.099287 0.41442
v -0.016496 -0.099287 0.407771
v -0.016496 -0.102239 0.407771
v -0.016496 -0.102239 0.41442
v -0.016933 -0.099287 0.411095
v -0.016933 -0.102239 0.411095
vn 0.0 -1.0 0.0
vn 0.965925849201117 0.0 -0.2588189595935754
vn 1.0 0.0 0.0
vn 0.965925849201117 0.0 0.2588189595935754
vn 0.8660253028382762 0.0 0.5000001748438417
vn 0.7071067811865476 0.0 0.7071067811865476
vn 0.8660253028382762 0.0 -0.5000001748438417
vn 0.0 1.0 0.0
vn 0.5000001748438417 0.0 0.8660253028382762
vn 0.7071067811865476 0.0 -0.7071067811865476
vn 0.5000001748438417 0.0 -0.8660253028382762
vn 0.2588189595935754 0.0 0.965925849201117
vn 0.2588189595935754 0.0 -0.965925849201117
vn 0.0 0.0 1.0
vn 0.0 0.0 -1.0
vn -0.2588189595935754 0.0 0.965925849201117
vn -0.2588189595935754 0.0 -0.965925849201117
vn -0.5000001748438417 0.0 0.8660253028382762
vn -0.5000001748438417 0.0 -0.8660253028382762
vn -0.7071067811865476 0.0 0.7071067811865476
vn -0.7071067811865476 0.0 -0.7071067811865476
vn -0.8660253028382762 0.0 0.5000001748438417
vn -0.8660253028382762 0.0 -0.5000001748438417
vn -0.965925849201117 0.0 0.2588189595935754
vn -0.965925849201117 0.0 -0.2588189595935754
vn -1.0 0.0 0.0
usemtl material_0_0
f 1//1 2//1 3//1
f 2//1 1//1 4//1
f 2//2 5//3 3//3
f 3//3 6//4 1//4
f 1//4 7//5 4//5
f 2//1 4//1 8//1
f 5//3 2//2 9//2
f 6//4 3//3 5//3
f 7//5 1//4 6//4
f 10//6 4//5 7//5
f 8//1 4//1 11//1
f 8//7 9//2 2//2
f 9//8 6//8 5//8
f 6//8 12//8 7//8
f 4//5 10//6 11//6
f 7//8 13//8 10//8
f 8//1 11//1 14//1
f 9//2 8//7 12//7
f 6//8 9//8 12//8
f 7//8 12//8 13//8
f 10//6 15//9 11//6
f 10//8 13//8 16//8
f 14//1 11//1 15//1
f 14//10 12//7 8//7
f 12//7 14//10 13//10
f 15//9 10//6 16//9
f 16//8 13//8 17//8
f 14//1 15//1 18//1
f 14//10 17//11 13//10
f 16//9 19//12 15//9
f 16//8 17//8 20//8
f 18//1 15//1 19//1
f 17//11 14//10 18//11
f 19//12 16//9 20//12
f 20//8 17//8 21//8
f 18//1 19//1 22//1
f 18//11 21//13 17//11
f 20//12 23//14 19//12
f 20//8 21//8 24//8
f 22//1 19//1 23//1
f 21//13 18//11 22//13
f 23//14 20//12 24//14
f 24//8 21//8 25//8
f 22//1 23//1 26//1
f 22//13 25//15 21//13
f 24//14 27//16 23//14
f 24//8 25//8 28//8
f 26//1 23//1 27//1
f 25//15 22//13 26//15
f 27//16 24//14 29//16
f 26//15 28//17 25//15
f 24//8 28//8 29//8
f 26//1 27//1 30//1
f 29//16 31//18 27//16
f 28//17 26//15 30//17
f 29//8 28//8 32//8
f 30//1 27//1 31//1
f 31//18 29//16 33//18
f 34//19 28//17 30//17
f 28//17 34//19 32//19
f 29//8 32//8 33//8
f 30//1 31//1 34//1
f 33//18 35//20 31//18
f 34//19 36//21 32//19
f 33//8 32//8 37//8
f 34//1 31//1 35//1
f 35//20 33//18 37//20
f 36//21 34//19 38//21
f 37//8 32//8 36//8
f 34//1 35//1 38//1
f 39//22 35//20 37//20
f 40//23 36//21 38//21
f 37//8 36//8 41//8
f 38//1 35//1 42//1
f 35//20 39//22 42//22
f 37//8 41//8 39//8
f 36//21 40//23 41//23
f 38//1 42//1 40//1
f 43//24 42//22 39//22
f 39//8 41//8 44//8
f 45//25 41//23 40//23
f 40//1 42//1 46//1
f 42//22 43//24 46//24
f 39//8 44//8 43//8
f 41//23 45//25 44//25
f 40//1 46//1 45//1
f 47//26 46//24 43//24
f 43//8 44//8 47//8
f 48//26 44//25 45//25
f 45//1 46//1 48//1
f 46//24 47//26 48//26
f 44//25 48//26 47//26
usemtl material_1_0
f 3//8 2//8 1//8
f 4//8 1//8 2//8
f 3//26 5//26 2//24
f 1//25 6//25 3//26
f 4//23 7//23 1//25
f 8//8 4//8 2//8
f 9//24 2//24 5//26
f 5//26 3//26 6//25
f 6//25 1//25 7//23
f 7//23 4//23 10//21
f 11//8 4//8 8//8
f 2//24 9//24 8//22
f 5//1 6//1 9//1
f 7//1 12//1 6//1
f 11//21 10//21 4//23
f 10//1 13//1 7//1
f 14//8 11//8 8//8
f 12//22 8//22 9//24
f 12//1 9//1 6//1
f 13//1 12//1 7//1
f 11//21 15//19 10//21
f 16//1 13//1 10//1
f 15//8 11//8 14//8
f 8//22 12//22 14//20
f 13//20 14//20 12//22
f 16//19 10//21 15//19
f 17//1 13//1 16//1
f 18//8 15//8 14//8
f 13//20 17//18 14//20
f 15//19 19//17 16//19
f 20//1 17//1 16//1
f 19//8 15//8 18//8
f 18//18 14//20 17//18
f 20//17 16//19 19//17
f 21//1 17//1 20//1
f 22//8 19//8 18//8
f 17//18 21//16 18//18
f 19//17 23//15 20//17
f 24//1 21//1 20//1
f 23//8 19//8 22//8
f 22//16 18//18 21//16
f 24//15 20//17 23//15
f 25//1 21//1 24//1
f 26//8 23//8 22//8
f 21//16 25//14 22//16
f 23//15 27//13 24//15
f 28//1 25//1 24//1
f 27//8 23//8 26//8
f 26//14 22//16 25//14
f 29//13 24//15 27//13
f 25//14 28//12 26//14
f 29//1 28//1 24//1
f 30//8 27//8 26//8
f 27//13 31//11 29//13
f 30//12 26//14 28//12
f 32//1 28//1 29//1
f 31//8 27//8 30//8
f 33//11 29//13 31//11
f 30//12 28//12 34//9
f 32//9 34//9 28//12
f 33//1 32//1 29//1
f 34//8 31//8 30//8
f 31//11 35//10 33//11
f 32//9 36//6 34//9
f 37//1 32//1 33//1
f 35//8 31//8 34//8
f 37//10 33//11 35//10
f 38//6 34//9 36//6
f 36//1 32//1 37//1
f 38//8 35//8 34//8
f 37//10 35//10 39//7
f 38//6 36//6 40//5
f 41//1 36//1 37//1
f 42//8 35//8 38//8
f 42//7 39//7 35//10
f 39//1 41//1 37//1
f 41//5 40//5 36//6
f 40//8 42//8 38//8
f 39//7 42//7 43//2
f 44//1 41//1 39//1
f 40//5 41//5 45//4
f 46//8 42//8 40//8
f 46//2 43//2 42//7
f 43//1 44//1 39//1
f 44//4 45//4 41//5
f 45//8 46//8 40//8
f 43//2 46//2 47//3
f 47//1 44//1 43//1
f 45//4 44//4 48//3
f 48//8 46//8 45//8
f 48//3 47//3 46//2
f 47//3 48//3 44//4
