# SSTK version 0.8.0
# 91
mtllib original-91.mtl
o Group12/mesh11/mesh11-geometry/material_1/component_2#mesh11-geometry
v -0.109440 -0.210260 -0.198903
v -0.196090 -0.210260 -0.129728
v -0.109440 -0.210260 -0.129728
v -0.109440 -0.210260 -0.129728
v -0.196090 -0.210260 -0.129728
v -0.109440 -0.210260 -0.198903
v -0.196090 -0.210260 -0.129728
v -0.109440 -0.210260 -0.198903
v -0.196090 -0.210260 -0.198903
v -0.196090 -0.210260 -0.198903
v -0.109440 -0.210260 -0.198903
v -0.196090 -0.210260 -0.129728
vt 0 1
vt 0.42197299003601074 0
vt 0.42197299003601074 1
vt 0 0
vn 0 1 0
vn 0 -1 0
usemtl material_0_0
f 1/1/1 2/2/1 3/3/1
f 4/3/2 5/2/2 6/1/2
f 7/2/1 8/1/1 9/4/1
f 10/4/2 11/1/2 12/2/2
