# SSTK version 0.8.0
# 37
mtllib original-37.mtl
o mesh2/mesh2-geometry/material_3/component_2#mesh2-geometry
v -0.032451 -0.009701 0.970836
v -0.022104 -0.005935 0.943629
v -0.021643 -0.009701 0.943813
v -0.022104 -0.005935 0.943629
v -0.032451 -0.009701 0.970836
v -0.032912 -0.005935 0.970652
v -0.021643 -0.009701 0.943813
v -0.032912 -0.013468 0.970652
v -0.032451 -0.009701 0.970836
v -0.032912 -0.005935 0.970652
v -0.023454 -0.002425 0.943089
v -0.022104 -0.005935 0.943629
v -0.032912 -0.013468 0.970652
v -0.021643 -0.009701 0.943813
v -0.022104 -0.013468 0.943629
v -0.032451 -0.009701 0.970836
v -0.059014 -0.005935 0.960212
v -0.032912 -0.005935 0.970652
v -0.032912 -0.013468 0.970652
v -0.059474 -0.009701 0.960028
v -0.032451 -0.009701 0.970836
v -0.023454 -0.002425 0.943089
v -0.032912 -0.005935 0.970652
v -0.034262 -0.002425 0.970112
v -0.034262 -0.002425 0.970112
v -0.025601 0.000588 0.942231
v -0.023454 -0.002425 0.943089
v -0.059014 -0.005935 0.960212
v -0.048666 -0.009701 0.933005
v -0.048206 -0.005935 0.933189
v -0.022104 -0.013468 0.943629
v -0.034262 -0.016977 0.970112
v -0.032912 -0.013468 0.970652
v -0.032451 -0.009701 0.970836
v -0.059474 -0.009701 0.960028
v -0.059014 -0.005935 0.960212
v -0.032912 -0.005935 0.970652
v -0.059014 -0.005935 0.960212
v -0.057664 -0.002425 0.960752
v -0.032912 -0.013468 0.970652
v -0.059014 -0.013468 0.960212
v -0.059474 -0.009701 0.960028
v -0.032912 -0.005935 0.970652
v -0.057664 -0.002425 0.960752
v -0.034262 -0.002425 0.970112
v -0.025601 0.000588 0.942231
v -0.034262 -0.002425 0.970112
v -0.036409 0.000588 0.969253
v -0.025601 0.000588 0.942231
v -0.039207 0.002901 0.968134
v -0.028399 0.002901 0.941111
v -0.057664 -0.002425 0.960752
v -0.048206 -0.005935 0.933189
v -0.046856 -0.002425 0.933729
v -0.048666 -0.009701 0.933005
v -0.059014 -0.005935 0.960212
v -0.059474 -0.009701 0.960028
v -0.048206 -0.005935 0.933189
v -0.057664 -0.002425 0.960752
v -0.059014 -0.005935 0.960212
v -0.034262 -0.016977 0.970112
v -0.022104 -0.013468 0.943629
v -0.023454 -0.016977 0.943089
v -0.034262 -0.016977 0.970112
v -0.059014 -0.013468 0.960212
v -0.032912 -0.013468 0.970652
v -0.048206 -0.013468 0.933189
v -0.059474 -0.009701 0.960028
v -0.059014 -0.013468 0.960212
v -0.034262 -0.002425 0.970112
v -0.057664 -0.002425 0.960752
v -0.055517 0.000588 0.961611
v -0.034262 -0.002425 0.970112
v -0.055517 0.000588 0.961611
v -0.036409 0.000588 0.969253
v -0.039207 0.002901 0.968134
v -0.025601 0.000588 0.942231
v -0.036409 0.000588 0.969253
v -0.042466 0.004355 0.966831
v -0.028399 0.002901 0.941111
v -0.039207 0.002901 0.968134
v -0.055517 0.000588 0.961611
v -0.046856 -0.002425 0.933729
v -0.044709 0.000588 0.934588
v -0.046856 -0.002425 0.933729
v -0.055517 0.000588 0.961611
v -0.057664 -0.002425 0.960752
v -0.059474 -0.009701 0.960028
v -0.048206 -0.013468 0.933189
v -0.048666 -0.009701 0.933005
v -0.036409 -0.019991 0.969253
v -0.023454 -0.016977 0.943089
v -0.025601 -0.019991 0.942231
v -0.023454 -0.016977 0.943089
v -0.036409 -0.019991 0.969253
v -0.034262 -0.016977 0.970112
v -0.034262 -0.016977 0.970112
v -0.057664 -0.016977 0.960752
v -0.059014 -0.013468 0.960212
v -0.059014 -0.013468 0.960212
v -0.046856 -0.016977 0.933729
v -0.048206 -0.013468 0.933189
v -0.036409 0.000588 0.969253
v -0.055517 0.000588 0.961611
v -0.052719 0.002901 0.962730
v -0.036409 0.000588 0.969253
v -0.052719 0.002901 0.962730
v -0.039207 0.002901 0.968134
v -0.028399 0.002901 0.941111
v -0.042466 0.004355 0.966831
v -0.031658 0.004355 0.939808
v -0.039207 0.002901 0.968134
v -0.049460 0.004355 0.964033
v -0.042466 0.004355 0.966831
v -0.041910 0.002901 0.935707
v -0.055517 0.000588 0.961611
v -0.044709 0.000588 0.934588
v -0.028399 -0.022304 0.941111
v -0.036409 -0.019991 0.969253
v -0.025601 -0.019991 0.942231
v -0.036409 -0.019991 0.969253
v -0.057664 -0.016977 0.960752
v -0.034262 -0.016977 0.970112
v -0.046856 -0.016977 0.933729
v -0.059014 -0.013468 0.960212
v -0.057664 -0.016977 0.960752
v -0.055517 0.000588 0.961611
v -0.041910 0.002901 0.935707
v -0.052719 0.002901 0.962730
v -0.039207 0.002901 0.968134
v -0.052719 0.002901 0.962730
v -0.049460 0.004355 0.964033
v -0.045963 0.004851 0.965432
v -0.031658 0.004355 0.939808
v -0.042466 0.004355 0.966831
v -0.042466 0.004355 0.966831
v -0.049460 0.004355 0.964033
v -0.045963 0.004851 0.965432
v -0.031658 -0.023758 0.939808
v -0.039207 -0.022304 0.968134
v -0.028399 -0.022304 0.941111
v -0.036409 -0.019991 0.969253
v -0.028399 -0.022304 0.941111
v -0.039207 -0.022304 0.968134
v -0.036409 -0.019991 0.969253
v -0.055517 -0.019991 0.961611
v -0.057664 -0.016977 0.960752
v -0.057664 -0.016977 0.960752
v -0.044709 -0.019991 0.934588
v -0.046856 -0.016977 0.933729
v -0.038652 0.004355 0.937011
v -0.052719 0.002901 0.962730
v -0.041910 0.002901 0.935707
v -0.052719 0.002901 0.962730
v -0.038652 0.004355 0.937011
v -0.049460 0.004355 0.964033
v -0.031658 0.004355 0.939808
v -0.045963 0.004851 0.965432
v -0.035155 0.004851 0.938409
v -0.049460 0.004355 0.964033
v -0.035155 0.004851 0.938409
v -0.045963 0.004851 0.965432
v -0.035155 -0.024253 0.938409
v -0.042466 -0.023758 0.966831
v -0.031658 -0.023758 0.939808
v -0.039207 -0.022304 0.968134
v -0.031658 -0.023758 0.939808
v -0.042466 -0.023758 0.966831
v -0.039207 -0.022304 0.968134
v -0.055517 -0.019991 0.961611
v -0.036409 -0.019991 0.969253
v -0.044709 -0.019991 0.934588
v -0.057664 -0.016977 0.960752
v -0.055517 -0.019991 0.961611
v -0.035155 0.004851 0.938409
v -0.049460 0.004355 0.964033
v -0.038652 0.004355 0.937011
v -0.044709 -0.019991 0.934588
v -0.052719 -0.022304 0.962730
v -0.041910 -0.022304 0.935707
v -0.038652 -0.023758 0.937011
v -0.045963 -0.024253 0.965432
v -0.035155 -0.024253 0.938409
v -0.042466 -0.023758 0.966831
v -0.035155 -0.024253 0.938409
v -0.045963 -0.024253 0.965432
v -0.042466 -0.023758 0.966831
v -0.052719 -0.022304 0.962730
v -0.039207 -0.022304 0.968134
v -0.039207 -0.022304 0.968134
v -0.052719 -0.022304 0.962730
v -0.055517 -0.019991 0.961611
v -0.052719 -0.022304 0.962730
v -0.044709 -0.019991 0.934588
v -0.055517 -0.019991 0.961611
v -0.049460 -0.023758 0.964033
v -0.041910 -0.022304 0.935707
v -0.052719 -0.022304 0.962730
v -0.041910 -0.022304 0.935707
v -0.049460 -0.023758 0.964033
v -0.038652 -0.023758 0.937011
v -0.045963 -0.024253 0.965432
v -0.038652 -0.023758 0.937011
v -0.049460 -0.023758 0.964033
v -0.049460 -0.023758 0.964033
v -0.042466 -0.023758 0.966831
v -0.045963 -0.024253 0.965432
v -0.042466 -0.023758 0.966831
v -0.049460 -0.023758 0.964033
v -0.052719 -0.022304 0.962730
v -0.021643 -0.009701 0.943813
v -0.022104 -0.005935 0.943629
v -0.032451 -0.009701 0.970836
v -0.032912 -0.005935 0.970652
v -0.032451 -0.009701 0.970836
v -0.022104 -0.005935 0.943629
v -0.032451 -0.009701 0.970836
v -0.032912 -0.013468 0.970652
v -0.021643 -0.009701 0.943813
v -0.022104 -0.005935 0.943629
v -0.023454 -0.002425 0.943089
v -0.032912 -0.005935 0.970652
v -0.022104 -0.013468 0.943629
v -0.021643 -0.009701 0.943813
v -0.032912 -0.013468 0.970652
v -0.032912 -0.005935 0.970652
v -0.059014 -0.005935 0.960212
v -0.032451 -0.009701 0.970836
v -0.032451 -0.009701 0.970836
v -0.059474 -0.009701 0.960028
v -0.032912 -0.013468 0.970652
v -0.034262 -0.002425 0.970112
v -0.032912 -0.005935 0.970652
v -0.023454 -0.002425 0.943089
v -0.023454 -0.002425 0.943089
v -0.025601 0.000588 0.942231
v -0.034262 -0.002425 0.970112
v -0.048206 -0.005935 0.933189
v -0.048666 -0.009701 0.933005
v -0.059014 -0.005935 0.960212
v -0.032912 -0.013468 0.970652
v -0.034262 -0.016977 0.970112
v -0.022104 -0.013468 0.943629
v -0.059014 -0.005935 0.960212
v -0.059474 -0.009701 0.960028
v -0.032451 -0.009701 0.970836
v -0.057664 -0.002425 0.960752
v -0.059014 -0.005935 0.960212
v -0.032912 -0.005935 0.970652
v -0.059474 -0.009701 0.960028
v -0.059014 -0.013468 0.960212
v -0.032912 -0.013468 0.970652
v -0.034262 -0.002425 0.970112
v -0.057664 -0.002425 0.960752
v -0.032912 -0.005935 0.970652
v -0.036409 0.000588 0.969253
v -0.034262 -0.002425 0.970112
v -0.025601 0.000588 0.942231
v -0.028399 0.002901 0.941111
v -0.039207 0.002901 0.968134
v -0.025601 0.000588 0.942231
v -0.046856 -0.002425 0.933729
v -0.048206 -0.005935 0.933189
v -0.057664 -0.002425 0.960752
v -0.059474 -0.009701 0.960028
v -0.059014 -0.005935 0.960212
v -0.048666 -0.009701 0.933005
v -0.059014 -0.005935 0.960212
v -0.057664 -0.002425 0.960752
v -0.048206 -0.005935 0.933189
v -0.023454 -0.016977 0.943089
v -0.022104 -0.013468 0.943629
v -0.034262 -0.016977 0.970112
v -0.032912 -0.013468 0.970652
v -0.059014 -0.013468 0.960212
v -0.034262 -0.016977 0.970112
v -0.059014 -0.013468 0.960212
v -0.059474 -0.009701 0.960028
v -0.048206 -0.013468 0.933189
v -0.055517 0.000588 0.961611
v -0.057664 -0.002425 0.960752
v -0.034262 -0.002425 0.970112
v -0.036409 0.000588 0.969253
v -0.055517 0.000588 0.961611
v -0.034262 -0.002425 0.970112
v -0.036409 0.000588 0.969253
v -0.025601 0.000588 0.942231
v -0.039207 0.002901 0.968134
v -0.039207 0.002901 0.968134
v -0.028399 0.002901 0.941111
v -0.042466 0.004355 0.966831
v -0.044709 0.000588 0.934588
v -0.046856 -0.002425 0.933729
v -0.055517 0.000588 0.961611
v -0.057664 -0.002425 0.960752
v -0.055517 0.000588 0.961611
v -0.046856 -0.002425 0.933729
v -0.048666 -0.009701 0.933005
v -0.048206 -0.013468 0.933189
v -0.059474 -0.009701 0.960028
v -0.025601 -0.019991 0.942231
v -0.023454 -0.016977 0.943089
v -0.036409 -0.019991 0.969253
v -0.034262 -0.016977 0.970112
v -0.036409 -0.019991 0.969253
v -0.023454 -0.016977 0.943089
v -0.059014 -0.013468 0.960212
v -0.057664 -0.016977 0.960752
v -0.034262 -0.016977 0.970112
v -0.048206 -0.013468 0.933189
v -0.046856 -0.016977 0.933729
v -0.059014 -0.013468 0.960212
v -0.052719 0.002901 0.962730
v -0.055517 0.000588 0.961611
v -0.036409 0.000588 0.969253
v -0.039207 0.002901 0.968134
v -0.052719 0.002901 0.962730
v -0.036409 0.000588 0.969253
v -0.031658 0.004355 0.939808
v -0.042466 0.004355 0.966831
v -0.028399 0.002901 0.941111
v -0.042466 0.004355 0.966831
v -0.049460 0.004355 0.964033
v -0.039207 0.002901 0.968134
v -0.044709 0.000588 0.934588
v -0.055517 0.000588 0.961611
v -0.041910 0.002901 0.935707
v -0.025601 -0.019991 0.942231
v -0.036409 -0.019991 0.969253
v -0.028399 -0.022304 0.941111
v -0.034262 -0.016977 0.970112
v -0.057664 -0.016977 0.960752
v -0.036409 -0.019991 0.969253
v -0.057664 -0.016977 0.960752
v -0.059014 -0.013468 0.960212
v -0.046856 -0.016977 0.933729
v -0.052719 0.002901 0.962730
v -0.041910 0.002901 0.935707
v -0.055517 0.000588 0.961611
v -0.049460 0.004355 0.964033
v -0.052719 0.002901 0.962730
v -0.039207 0.002901 0.968134
v -0.042466 0.004355 0.966831
v -0.031658 0.004355 0.939808
v -0.045963 0.004851 0.965432
v -0.045963 0.004851 0.965432
v -0.049460 0.004355 0.964033
v -0.042466 0.004355 0.966831
v -0.028399 -0.022304 0.941111
v -0.039207 -0.022304 0.968134
v -0.031658 -0.023758 0.939808
v -0.039207 -0.022304 0.968134
v -0.028399 -0.022304 0.941111
v -0.036409 -0.019991 0.969253
v -0.057664 -0.016977 0.960752
v -0.055517 -0.019991 0.961611
v -0.036409 -0.019991 0.969253
v -0.046856 -0.016977 0.933729
v -0.044709 -0.019991 0.934588
v -0.057664 -0.016977 0.960752
v -0.041910 0.002901 0.935707
v -0.052719 0.002901 0.962730
v -0.038652 0.004355 0.937011
v -0.049460 0.004355 0.964033
v -0.038652 0.004355 0.937011
v -0.052719 0.002901 0.962730
v -0.035155 0.004851 0.938409
v -0.045963 0.004851 0.965432
v -0.031658 0.004355 0.939808
v -0.045963 0.004851 0.965432
v -0.035155 0.004851 0.938409
v -0.049460 0.004355 0.964033
v -0.031658 -0.023758 0.939808
v -0.042466 -0.023758 0.966831
v -0.035155 -0.024253 0.938409
v -0.042466 -0.023758 0.966831
v -0.031658 -0.023758 0.939808
v -0.039207 -0.022304 0.968134
v -0.036409 -0.019991 0.969253
v -0.055517 -0.019991 0.961611
v -0.039207 -0.022304 0.968134
v -0.055517 -0.019991 0.961611
v -0.057664 -0.016977 0.960752
v -0.044709 -0.019991 0.934588
v -0.038652 0.004355 0.937011
v -0.049460 0.004355 0.964033
v -0.035155 0.004851 0.938409
v -0.041910 -0.022304 0.935707
v -0.052719 -0.022304 0.962730
v -0.044709 -0.019991 0.934588
v -0.035155 -0.024253 0.938409
v -0.045963 -0.024253 0.965432
v -0.038652 -0.023758 0.937011
v -0.045963 -0.024253 0.965432
v -0.035155 -0.024253 0.938409
v -0.042466 -0.023758 0.966831
v -0.039207 -0.022304 0.968134
v -0.052719 -0.022304 0.962730
v -0.042466 -0.023758 0.966831
v -0.055517 -0.019991 0.961611
v -0.052719 -0.022304 0.962730
v -0.039207 -0.022304 0.968134
v -0.055517 -0.019991 0.961611
v -0.044709 -0.019991 0.934588
v -0.052719 -0.022304 0.962730
v -0.052719 -0.022304 0.962730
v -0.041910 -0.022304 0.935707
v -0.049460 -0.023758 0.964033
v -0.038652 -0.023758 0.937011
v -0.049460 -0.023758 0.964033
v -0.041910 -0.022304 0.935707
v -0.049460 -0.023758 0.964033
v -0.038652 -0.023758 0.937011
v -0.045963 -0.024253 0.965432
v -0.045963 -0.024253 0.965432
v -0.042466 -0.023758 0.966831
v -0.049460 -0.023758 0.964033
v -0.052719 -0.022304 0.962730
v -0.049460 -0.023758 0.964033
v -0.042466 -0.023758 0.966831
vn -0.9284857957276512 0 -0.37136791343893766
vn -0.8968482909973785 -0.2588190911926162 -0.3587141215080743
vn -0.8968482909973785 0.2588190911926162 -0.3587141215080743
vn -0.8040921944019278 -0.5000001271047848 -0.32161407897834887
vn 0.37136791343893766 0 -0.9284857957276512
vn -0.656538697846073 -0.7071066573890111 -0.2625968646170826
vn 0.8968482909973785 -0.2588190911926162 0.3587141215080743
vn 0.9284857957276512 0 0.37136791343893766
vn -0.8040921944019278 0.5000001271047848 -0.32161407897834887
vn -0.4642431445509728 -0.8660252503895866 -0.18568405538731225
vn 0.8040921944019278 -0.5000001271047848 0.32161407897834887
vn 0.8968482909973785 0.2588190911926162 0.3587141215080743
vn -0.2403099510975205 -0.96592580143078 -0.0961169783847413
vn 0.656538697846073 -0.7071066573890111 0.2625968646170826
vn -0.656538697846073 0.7071066573890111 -0.2625968646170826
vn 0.8040921944019278 0.5000001271047848 0.32161407897834887
vn 0.4642431445509728 -0.8660252503895866 0.18568405538731225
vn -0.4642431445509728 0.8660252503895866 -0.18568405538731225
vn 0 -1 0
vn -0.2403099510975205 0.96592580143078 -0.0961169783847413
vn 0.656538697846073 0.7071066573890111 0.2625968646170826
vn 0.2403099510975205 -0.96592580143078 0.0961169783847413
vn 0 1 0
vn 0.4642431445509728 0.8660252503895866 0.18568405538731225
vn 0.2403099510975205 0.96592580143078 0.0961169783847413
vn -0.37136791343893766 0 0.9284857957276512
usemtl material_0_0
f 1//1 2//2 3//1
f 4//2 5//1 6//2
f 7//1 8//3 9//1
f 10//2 11//4 12//2
f 13//3 14//1 15//3
f 16//5 17//5 18//5
f 19//5 20//5 21//5
f 22//4 23//2 24//4
f 25//4 26//6 27//4
f 28//7 29//8 30//7
f 31//3 32//9 33//3
f 34//5 35//5 36//5
f 37//5 38//5 39//5
f 40//5 41//5 42//5
f 43//5 44//5 45//5
f 46//6 47//4 48//6
f 49//6 50//10 51//10
f 52//11 53//7 54//11
f 55//8 56//7 57//8
f 58//7 59//11 60//7
f 61//9 62//3 63//9
f 64//5 65//5 66//5
f 67//12 68//8 69//12
f 70//5 71//5 72//5
f 73//5 74//5 75//5
f 76//10 77//6 78//6
f 79//13 80//10 81//10
f 82//14 83//11 84//14
f 85//11 86//14 87//11
f 88//8 89//12 90//8
f 91//15 92//9 93//15
f 94//9 95//15 96//9
f 97//5 98//5 99//5
f 100//12 101//16 102//12
f 103//5 104//5 105//5
f 106//5 107//5 108//5
f 109//10 110//13 111//13
f 112//5 113//5 114//5
f 115//17 116//14 117//14
f 118//18 119//15 120//15
f 121//5 122//5 123//5
f 124//16 125//12 126//16
f 127//14 128//17 129//17
f 130//5 131//5 132//5
f 133//19 134//13 135//13
f 136//5 137//5 138//5
f 139//20 140//18 141//18
f 142//15 143//18 144//18
f 145//5 146//5 147//5
f 148//16 149//21 150//16
f 151//22 152//17 153//17
f 154//17 155//22 156//22
f 157//13 158//19 159//19
f 160//22 161//19 162//19
f 163//23 164//20 165//20
f 166//18 167//20 168//20
f 169//5 170//5 171//5
f 172//21 173//16 174//21
f 175//19 176//22 177//22
f 178//21 179//24 180//24
f 181//25 182//23 183//23
f 184//20 185//23 186//23
f 187//5 188//5 189//5
f 190//5 191//5 192//5
f 193//24 194//21 195//21
f 196//25 197//24 198//24
f 199//24 200//25 201//25
f 202//23 203//25 204//25
f 205//5 206//5 207//5
f 208//5 209//5 210//5
usemtl material_1_0
f 211//8 212//12 213//8
f 214//12 215//8 216//12
f 217//8 218//7 219//8
f 220//12 221//16 222//12
f 223//7 224//8 225//7
f 226//26 227//26 228//26
f 229//26 230//26 231//26
f 232//16 233//12 234//16
f 235//16 236//21 237//16
f 238//3 239//1 240//3
f 241//7 242//11 243//7
f 244//26 245//26 246//26
f 247//26 248//26 249//26
f 250//26 251//26 252//26
f 253//26 254//26 255//26
f 256//21 257//16 258//21
f 259//24 260//24 261//21
f 262//9 263//3 264//9
f 265//1 266//3 267//1
f 268//3 269//9 270//3
f 271//11 272//7 273//11
f 274//26 275//26 276//26
f 277//2 278//1 279//2
f 280//26 281//26 282//26
f 283//26 284//26 285//26
f 286//21 287//21 288//24
f 289//24 290//24 291//25
f 292//15 293//9 294//15
f 295//9 296//15 297//9
f 298//1 299//2 300//1
f 301//14 302//11 303//14
f 304//11 305//14 306//11
f 307//26 308//26 309//26
f 310//2 311//4 312//2
f 313//26 314//26 315//26
f 316//26 317//26 318//26
f 319//25 320//25 321//24
f 322//26 323//26 324//26
f 325//15 326//15 327//18
f 328//14 329//14 330//17
f 331//26 332//26 333//26
f 334//4 335//2 336//4
f 337//18 338//18 339//15
f 340//26 341//26 342//26
f 343//25 344//25 345//23
f 346//26 347//26 348//26
f 349//17 350//17 351//22
f 352//17 353//17 354//14
f 355//26 356//26 357//26
f 358//4 359//6 360//4
f 361//18 362//18 363//20
f 364//20 365//20 366//18
f 367//23 368//23 369//25
f 370//23 371//23 372//20
f 373//22 374//22 375//19
f 376//22 377//22 378//17
f 379//26 380//26 381//26
f 382//6 383//4 384//6
f 385//20 386//20 387//23
f 388//10 389//10 390//6
f 391//19 392//19 393//13
f 394//19 395//19 396//22
f 397//26 398//26 399//26
f 400//26 401//26 402//26
f 403//6 404//6 405//10
f 406//10 407//10 408//13
f 409//13 410//13 411//10
f 412//13 413//13 414//19
f 415//26 416//26 417//26
f 418//26 419//26 420//26
