mtllib new-1.mtl
v 0.003742 -0.210107 0.630142
v 0.002615 -0.207150 0.631040
v 0.003153 -0.207150 0.630559
v 0.004373 -0.210107 0.629793
v 0.003742 -0.207150 0.630142
v 0.005040 -0.210107 0.629517
v 0.031061 -0.207150 0.660036
v 0.002134 -0.207150 0.631577
v 0.004373 -0.207150 0.629793
v 0.005733 -0.210107 0.629318
v 0.005040 -0.207150 0.629517
v 0.006444 -0.210107 0.629197
v 0.001717 -0.207150 0.632166
v 0.005733 -0.207150 0.629318
v 0.007164 -0.210107 0.629156
v -0.045051 -0.208271 0.660036
v 0.001367 -0.207150 0.632797
v 0.006444 -0.207150 0.629197
v 0.031061 -0.210107 0.629156
v -0.047193 -0.208271 0.660036
v 0.001091 -0.207150 0.633463
v 0.007164 -0.207150 0.629156
v 0.031061 -0.208271 0.660036
v -0.008111 -0.207150 0.653876
v 0.180860 -0.208271 0.674279
v 0.000978 -0.207150 0.646367
v 0.001091 -0.210107 0.633463
v 0.031061 -0.207150 0.629156
v -0.006995 -0.207150 0.653891
v 0.000899 -0.207150 0.647480
v 0.000891 -0.207150 0.634156
v 0.000891 -0.210107 0.634156
v 0.032664 -0.208271 0.629156
v 0.032664 -0.208271 0.660036
v -0.005879 -0.207150 0.653876
v 0.000656 -0.207150 0.648569
v 0.000891 -0.207150 0.645255
v 0.066534 -0.208271 0.629156
v 0.126890 -0.208271 0.660036
v -0.004778 -0.207150 0.653697
v 0.000254 -0.207150 0.649611
v 0.032664 -0.207150 0.629156
v 0.067822 -0.208271 0.629182
v 0.129284 -0.208271 0.659879
v 0.126890 -0.207150 0.660036
v -0.003715 -0.207150 0.653356
v -0.000298 -0.207150 0.650581
v 0.000656 -0.210107 0.648569
v -0.002715 -0.210107 0.652862
v 0.032664 -0.207150 0.660036
v 0.066534 -0.207150 0.629156
v 0.069107 -0.208271 0.629109
v 0.131637 -0.208271 0.659411
v 0.129284 -0.207150 0.659879
v 0.145229 -0.208271 0.623359
v -0.002715 -0.207150 0.652862
v -0.000987 -0.207150 0.651458
v 0.000254 -0.210107 0.649611
v -0.001799 -0.210107 0.652224
v 0.067822 -0.207150 0.629182
v 0.070383 -0.208271 0.628938
v 0.133908 -0.208271 0.658640
v 0.131637 -0.207150 0.659411
v 0.080285 -0.208271 0.623359
v 0.145229 -0.207150 0.623359
v -0.001799 -0.207150 0.652224
v -0.000298 -0.210107 0.650581
v -0.000987 -0.210107 0.651458
v 0.069107 -0.207150 0.629109
v 0.071643 -0.208271 0.628672
v 0.136060 -0.208271 0.657579
v 0.133908 -0.207150 0.658640
v 0.079404 -0.208271 0.624298
v 0.080285 -0.207150 0.623359
v 0.070383 -0.207150 0.628938
v 0.072879 -0.208271 0.628310
v 0.138054 -0.208271 0.656247
v 0.136060 -0.207150 0.657579
v 0.078455 -0.208271 0.625168
v 0.145229 -0.208271 0.641698
v 0.079404 -0.207150 0.624298
v 0.071643 -0.207150 0.628672
v 0.074083 -0.208271 0.627855
v 0.139858 -0.208271 0.654665
v 0.138054 -0.207150 0.656247
v 0.077442 -0.208271 0.625962
v 0.078455 -0.207150 0.625168
v 0.145229 -0.207150 0.641698
v 0.145072 -0.208271 0.644091
v 0.072879 -0.207150 0.628310
v 0.075250 -0.208271 0.627310
v 0.149836 -0.208271 0.658847
v 0.139858 -0.207150 0.654665
v 0.076371 -0.208271 0.626678
v 0.077442 -0.207150 0.625962
v 0.145229 -0.208271 0.650867
v 0.145072 -0.207150 0.644091
v 0.144604 -0.208271 0.646444
v 0.074083 -0.207150 0.627855
v 0.152059 -0.208271 0.659767
v 0.141440 -0.208271 0.652861
v 0.076371 -0.207150 0.626678
v 0.143833 -0.208271 0.648715
v 0.144604 -0.207150 0.646444
v 0.075250 -0.207150 0.627310
v 0.154443 -0.208271 0.660081
v 0.152059 -0.210107 0.659767
v 0.147928 -0.208271 0.657382
v 0.141440 -0.207150 0.652861
v 0.142772 -0.208271 0.650867
v 0.145543 -0.208271 0.653252
v 0.143833 -0.207150 0.648715
v 0.156828 -0.208271 0.659767
v 0.154443 -0.210107 0.660081
v 0.149836 -0.210107 0.658847
v 0.142772 -0.207150 0.650867
v 0.159051 -0.208271 0.658847
v 0.149928 -0.210107 0.655383
v 0.152791 -0.210107 0.657036
v 0.146464 -0.208271 0.655474
v 0.160959 -0.208271 0.657382
v 0.159051 -0.210107 0.658847
v 0.154443 -0.210107 0.657253
v 0.148913 -0.210107 0.654060
v 0.151250 -0.210107 0.656398
v 0.148275 -0.210107 0.652520
v 0.146464 -0.210107 0.655474
v 0.162423 -0.208271 0.655474
v 0.160959 -0.210107 0.657382
v 0.157637 -0.210107 0.656398
v 0.156096 -0.210107 0.657036
v 0.150800 -0.208271 0.654511
v 0.151867 -0.208271 0.655330
v 0.153110 -0.208271 0.655845
v 0.154443 -0.208271 0.656020
v 0.148033 -0.210107 0.650683
v 0.163344 -0.208271 0.653252
v 0.159974 -0.210107 0.654060
v 0.155777 -0.208271 0.655845
v 0.149981 -0.208271 0.653444
v 0.149466 -0.208271 0.652201
v 0.163658 -0.208271 0.650867
v 0.160612 -0.210107 0.652520
v 0.157020 -0.208271 0.655330
v 0.158087 -0.208271 0.654511
v 0.148033 -0.210107 0.641698
v 0.149256 -0.208271 0.650603
v 0.163344 -0.210107 0.653252
v 0.160854 -0.210107 0.650683
v 0.158906 -0.208271 0.653444
v 0.159421 -0.208271 0.652201
v 0.149256 -0.208271 0.641698
v 0.149256 -0.208271 0.623359
v 0.159631 -0.208271 0.650603
vn 0.000000 1.000000 0.000000
vn 0.000000 -1.000000 0.000000
vn 1.000000 0.000000 0.000000
vn -1.000000 0.000000 0.000000
vn -0.623236 0.000000 -0.782034
vn 0.623236 0.000000 0.782034
vn -0.531803 0.000000 -0.846868
vn 0.531803 0.000000 0.846868
vn -0.433688 0.000000 -0.901063
vn 0.433688 0.000000 0.901063
vn 0.000000 0.000000 -1.000000
vn 0.000000 0.000000 1.000000
vn -0.330126 0.000000 -0.943937
vn 0.330126 0.000000 0.943937
vn -0.222415 0.000000 -0.974952
vn 0.222415 0.000000 0.974952
vn -0.111911 0.000000 -0.993718
vn 0.111911 0.000000 0.993718
vn -0.900734 0.000000 -0.434372
vn 0.900734 0.000000 0.434372
vn -0.056043 0.000000 -0.998428
vn 0.056043 0.000000 0.998428
vn -0.943686 0.000000 -0.330842
vn 0.943686 0.000000 0.330842
vn -0.960745 0.000000 -0.277434
vn 0.960745 0.000000 0.277434
vn 0.019524 0.000000 -0.999809
vn -0.018523 0.000000 -0.999828
vn -0.019524 0.000000 0.999809
vn 0.018523 0.000000 0.999828
vn -0.957112 0.000000 -0.289717
vn 0.957112 0.000000 0.289717
vn -0.094482 0.000000 -0.995527
vn 0.094482 0.000000 0.995527
vn -0.903625 0.000000 -0.428324
vn 0.903625 0.000000 0.428324
vn -0.375218 0.000000 -0.926937
vn 0.375218 0.000000 0.926937
vn -0.169893 0.000000 -0.985462
vn 0.169893 0.000000 0.985462
vn 0.130526 0.000000 0.991445
vn 0.065403 0.000000 0.997859
vn -0.130526 0.000000 -0.991445
vn -0.065403 0.000000 -0.997859
vn -0.258819 0.000000 0.965926
vn 0.258819 0.000000 -0.965926
vn -0.830193 0.000000 -0.557476
vn 0.830193 0.000000 0.557476
vn -0.508410 0.000000 -0.861115
vn 0.508410 0.000000 0.861115
vn -0.244321 0.000000 -0.969694
vn 0.244321 0.000000 0.969694
vn 0.258819 0.000000 0.965926
vn -0.258819 0.000000 -0.965926
vn -0.738436 0.000000 -0.674323
vn 0.738436 0.000000 0.674323
vn -0.630380 0.000000 -0.776287
vn 0.630380 0.000000 0.776287
vn -0.317335 0.000000 -0.948313
vn 0.317335 0.000000 0.948313
vn 0.382683 0.000000 0.923880
vn -0.382683 0.000000 -0.923880
vn -0.500000 0.000000 0.866025
vn 0.500000 0.000000 -0.866025
vn -0.388513 0.000000 -0.921443
vn 0.388513 0.000000 0.921443
vn 0.500000 0.000000 0.866025
vn -0.500000 0.000000 -0.866025
vn -0.729478 0.000000 -0.684004
vn -0.702931 0.000000 -0.711258
vn 0.702931 0.000000 0.711258
vn 0.729478 0.000000 0.684004
vn -0.457441 0.000000 -0.889240
vn 0.457441 0.000000 0.889240
vn 0.608761 0.000000 0.793353
vn -0.608761 0.000000 -0.793353
vn -0.646823 0.000000 -0.762640
vn 0.646823 0.000000 0.762640
vn -0.707107 0.000000 0.707107
vn 0.707107 0.000000 -0.707107
vn -0.523722 0.000000 -0.851889
vn 0.523722 0.000000 0.851889
vn 0.707107 0.000000 0.707107
vn -0.707107 0.000000 -0.707107
vn -0.586971 0.000000 -0.809608
vn 0.586971 0.000000 0.809608
vn 0.991445 0.000000 0.130526
vn 0.997859 0.000000 0.065403
vn -0.997859 0.000000 -0.065403
vn -0.991445 0.000000 -0.130526
vn 0.793353 0.000000 0.608761
vn -0.793353 0.000000 -0.608761
vn 0.965926 0.000000 0.258819
vn -0.965926 0.000000 -0.258819
vn -0.866025 0.000000 0.500000
vn 0.866025 0.000000 -0.500000
vn 0.923880 0.000000 0.382683
vn -0.923880 0.000000 -0.382683
vn 0.866025 0.000000 0.500000
vn -0.866025 0.000000 -0.500000
vn -0.586943 0.557670 0.586943
vn -0.718855 0.557670 0.415031
vn 0.586943 -0.557670 -0.586943
vn 0.718855 -0.557670 -0.415031
vn -0.415031 0.557670 0.718855
vn 0.415031 -0.557670 -0.718855
vn -0.214836 0.557670 0.801779
vn 0.214836 -0.557670 -0.801779
vn 0.000000 0.557670 0.830063
vn 0.000000 -0.557670 -0.830063
vn 0.214836 0.557670 0.801779
vn -0.214836 -0.557670 -0.801779
vn -0.801779 0.557670 0.214836
vn 0.801779 -0.557670 -0.214836
vn -0.825150 0.554370 0.108633
vn 0.825150 -0.554370 -0.108633
vn 0.415031 0.557670 0.718855
vn -0.415031 -0.557670 -0.718855
vn 0.586943 0.557670 0.586943
vn -0.586943 -0.557670 -0.586943
vn 0.718855 0.557670 0.415031
vn -0.718855 -0.557670 -0.415031
vn 0.801779 0.557670 0.214836
vn -0.801779 -0.557670 -0.214836
vn -0.832271 0.554370 0.000000
vn 0.832271 -0.554370 0.000000
vn 0.829941 0.555193 0.054397
vn -0.829941 -0.555193 -0.054397
usemtl material-0
f 1//7 3//5 5//7
f 5//8 3//6 1//8
f 2//1 7//1 3//1
f 3//2 7//2 2//2
f 3//1 7//1 5//1
f 5//2 7//2 3//2
f 4//9 5//7 9//9
f 9//10 5//8 4//10
f 8//1 7//1 2//1
f 2//2 7//2 8//2
f 6//13 9//9 11//13
f 11//14 9//10 6//14
f 10//15 11//13 14//15
f 14//16 11//14 10//16
f 17//1 7//1 13//1
f 13//2 7//2 17//2
f 12//17 14//15 18//17
f 18//18 14//16 12//18
f 21//1 7//1 17//1
f 17//2 7//2 21//2
f 15//21 18//17 22//21
f 22//22 18//18 15//22
f 20//1 25//1 16//1
f 16//2 25//2 20//2
f 26//1 7//1 21//1
f 21//2 7//2 26//2
f 17//19 27//23 21//23
f 21//24 27//24 17//20
f 18//1 7//1 22//1
f 22//2 7//2 18//2
f 19//11 22//11 28//11
f 28//12 22//12 19//12
f 16//1 25//1 23//1
f 23//2 25//2 16//2
f 24//1 7//1 29//1
f 29//2 7//2 24//2
f 30//1 7//1 26//1
f 26//2 7//2 30//2
f 31//1 26//1 21//1
f 21//2 26//2 31//2
f 22//1 7//1 28//1
f 28//2 7//2 22//2
f 23//1 25//1 34//1
f 34//2 25//2 23//2
f 29//1 7//1 35//1
f 35//2 7//2 29//2
f 36//1 7//1 30//1
f 30//2 7//2 36//2
f 26//1 31//1 37//1
f 37//2 31//2 26//2
f 21//23 32//25 31//25
f 31//26 32//26 21//24
f 34//1 25//1 39//1
f 39//2 25//2 34//2
f 35//1 7//1 40//1
f 40//2 7//2 35//2
f 41//1 7//1 36//1
f 36//2 7//2 41//2
f 32//4 37//4 31//4
f 31//3 37//3 32//3
f 42//11 38//11 33//11
f 33//12 38//12 42//12
f 39//1 25//1 44//1
f 44//2 25//2 39//2
f 45//12 34//12 39//12
f 39//11 34//11 45//11
f 40//1 7//1 46//1
f 46//2 7//2 40//2
f 47//1 7//1 41//1
f 41//2 7//2 47//2
f 48//31 41//35 36//31
f 36//32 41//36 48//32
f 42//4 34//4 50//4
f 50//3 34//3 42//3
f 38//11 42//11 51//11
f 51//12 42//12 38//12
f 51//27 43//28 38//27
f 38//29 43//30 51//29
f 44//1 25//1 53//1
f 53//2 25//2 44//2
f 34//12 45//12 50//12
f 50//11 45//11 34//11
f 39//42 54//41 45//42
f 45//44 54//43 39//44
f 46//1 7//1 56//1
f 56//2 7//2 46//2
f 58//35 47//47 41//35
f 41//36 47//48 58//36
f 45//1 42//1 50//1
f 50//2 42//2 45//2
f 42//1 45//1 51//1
f 51//2 45//2 42//2
f 43//28 51//27 60//28
f 60//30 51//29 43//30
f 60//28 52//33 43//28
f 43//30 52//34 60//30
f 53//1 25//1 62//1
f 62//2 25//2 53//2
f 44//41 63//53 54//41
f 54//43 63//54 44//43
f 65//1 45//1 54//1
f 54//2 45//2 65//2
f 56//1 7//1 66//1
f 66//2 7//2 56//2
f 49//49 46//37 56//49
f 56//50 46//38 49//50
f 67//47 57//55 47//47
f 47//48 57//56 67//48
f 51//1 45//1 60//1
f 60//2 45//2 51//2
f 52//33 60//28 69//33
f 69//34 60//30 52//34
f 69//33 61//39 52//33
f 52//34 61//40 69//34
f 62//1 25//1 71//1
f 71//2 25//2 62//2
f 72//61 53//53 62//61
f 62//62 53//54 72//62
f 53//53 72//61 63//53
f 63//54 72//62 53//54
f 65//1 54//1 63//1
f 63//2 54//2 65//2
f 74//11 55//11 64//11
f 64//12 55//12 74//12
f 74//1 45//1 65//1
f 65//2 45//2 74//2
f 59//57 56//49 66//57
f 66//58 56//50 59//58
f 68//55 66//57 57//55
f 57//56 66//58 68//56
f 60//1 45//1 69//1
f 69//2 45//2 60//2
f 61//39 69//33 75//39
f 75//40 69//34 61//40
f 75//39 70//51 61//39
f 61//40 70//52 75//40
f 71//1 25//1 77//1
f 77//2 25//2 71//2
f 62//61 78//67 72//61
f 72//62 78//68 62//62
f 65//1 63//1 72//1
f 72//2 63//2 65//2
f 73//70 74//69 64//69
f 64//72 74//72 73//71
f 55//11 74//11 65//11
f 65//12 74//12 55//12
f 81//1 45//1 74//1
f 74//2 45//2 81//2
f 69//1 45//1 75//1
f 75//2 45//2 69//2
f 70//51 75//39 82//51
f 82//52 75//40 70//52
f 82//51 76//59 70//51
f 70//52 76//60 82//52
f 77//1 25//1 84//1
f 84//2 25//2 77//2
f 85//75 71//67 77//75
f 77//76 71//68 85//76
f 71//67 85//75 78//67
f 78//68 85//76 71//68
f 65//1 72//1 78//1
f 78//2 72//2 65//2
f 87//77 73//70 79//77
f 79//78 73//71 87//78
f 74//69 73//70 81//70
f 81//71 73//71 74//72
f 55//3 88//3 80//3
f 80//4 88//4 55//4
f 55//1 89//1 80//1
f 80//2 89//2 55//2
f 88//3 55//3 65//3
f 65//4 55//4 88//4
f 87//1 45//1 81//1
f 81//2 45//2 87//2
f 75//1 45//1 82//1
f 82//2 45//2 75//2
f 76//59 82//51 90//59
f 90//60 82//52 76//60
f 90//59 83//65 76//59
f 76//60 83//66 90//60
f 93//83 77//75 84//83
f 84//84 77//76 93//84
f 77//75 93//83 85//75
f 85//76 93//84 77//76
f 65//1 78//1 85//1
f 85//2 78//2 65//2
f 95//85 79//77 86//85
f 86//86 79//78 95//86
f 73//70 87//77 81//70
f 81//71 87//78 73//71
f 79//77 95//85 87//77
f 87//78 95//86 79//78
f 97//87 80//88 88//88
f 88//89 80//89 97//90
f 55//1 98//1 89//1
f 89//2 98//2 55//2
f 80//88 97//87 89//87
f 89//90 97//90 80//89
f 89//1 96//1 80//1
f 80//2 96//2 89//2
f 65//1 97//1 88//1
f 88//2 97//2 65//2
f 95//1 45//1 87//1
f 87//2 45//2 95//2
f 82//1 45//1 90//1
f 90//2 45//2 82//2
f 83//65 90//59 99//65
f 99//66 90//60 83//66
f 99//65 91//73 83//65
f 83//66 91//74 99//66
f 84//1 92//1 101//1
f 101//2 92//2 84//2
f 101//91 93//83 84//83
f 84//84 93//84 101//92
f 65//1 85//1 93//1
f 93//2 85//2 65//2
f 102//81 86//85 94//81
f 94//82 86//86 102//82
f 86//85 102//81 95//85
f 95//86 102//82 86//86
f 55//1 103//1 98//1
f 98//2 103//2 55//2
f 89//87 104//93 98//93
f 98//94 104//94 89//90
f 98//1 96//1 89//1
f 89//2 96//2 98//2
f 104//93 89//87 97//87
f 97//90 89//90 104//94
f 65//1 104//1 97//1
f 97//2 104//2 65//2
f 102//1 45//1 95//1
f 95//2 45//2 102//2
f 90//1 45//1 99//1
f 99//2 45//2 90//2
f 91//73 99//65 105//73
f 105//74 99//66 91//74
f 105//73 94//81 91//73
f 91//74 94//82 105//74
f 107//46 92//64 100//46
f 100//45 92//63 107//45
f 101//1 92//1 108//1
f 108//2 92//2 101//2
f 93//83 101//91 109//91
f 109//92 101//92 93//84
f 65//1 93//1 109//1
f 109//2 93//2 65//2
f 94//81 105//73 102//81
f 102//82 105//74 94//82
f 98//93 112//97 103//97
f 103//98 112//98 98//94
f 103//1 111//1 98//1
f 98//2 111//2 103//2
f 112//97 98//93 104//93
f 104//94 98//94 112//98
f 98//1 111//1 96//1
f 96//2 111//2 98//2
f 65//1 112//1 104//1
f 104//2 112//2 65//2
f 105//1 45//1 102//1
f 102//2 45//2 105//2
f 99//1 45//1 105//1
f 105//2 45//2 99//2
f 114//11 100//46 106//11
f 106//12 100//45 114//12
f 115//64 108//80 92//64
f 92//63 108//79 115//63
f 101//1 108//1 110//1
f 110//2 108//2 101//2
f 110//99 109//91 101//91
f 101//92 109//92 110//100
f 65//1 109//1 116//1
f 116//2 109//2 65//2
f 103//97 116//99 110//99
f 110//100 116//100 103//98
f 110//1 111//1 103//1
f 103//2 111//2 110//2
f 116//99 103//97 112//97
f 112//98 103//98 116//100
f 65//1 116//1 112//1
f 112//2 116//2 65//2
f 113//1 25//1 117//1
f 117//2 25//2 113//2
f 110//1 108//1 120//1
f 120//2 108//2 110//2
f 109//91 110//99 116//99
f 116//100 110//100 109//92
f 110//1 120//1 111//1
f 111//2 120//2 110//2
f 117//1 25//1 121//1
f 121//2 25//2 117//2
f 122//68 113//54 117//68
f 117//67 113//53 122//67
f 108//80 127//96 120//96
f 120//95 127//95 108//79
f 121//1 25//1 128//1
f 128//2 25//2 121//2
f 129//84 117//68 121//84
f 121//83 117//67 129//83
f 128//100 129//84 121//84
f 121//83 129//83 128//99
f 124//102 132//101 140//102
f 140//104 132//103 124//104
f 118//101 133//105 132//101
f 132//103 133//106 118//103
f 125//105 134//107 133//105
f 133//106 134//108 125//106
f 119//107 135//109 134//107
f 134//108 135//110 119//108
f 123//109 139//111 135//109
f 135//110 139//112 123//110
f 137//1 25//1 142//1
f 142//2 25//2 137//2
f 131//111 144//117 139//111
f 139//112 144//118 131//112
f 126//113 140//102 141//113
f 141//114 140//104 126//114
f 136//115 141//113 147//115
f 147//116 141//114 136//116
f 142//90 148//94 137//94
f 137//93 148//93 142//87
f 130//117 145//119 144//117
f 144//118 145//120 130//118
f 145//119 138//121 150//121
f 150//122 138//122 145//120
f 150//121 143//123 151//123
f 151//124 143//124 150//122
f 146//125 147//125 152//125
f 152//126 147//126 146//126
f 151//123 149//127 154//127
f 154//128 149//128 151//124
f 147//1 153//1 152//1
f 152//2 153//2 147//2