# SSTK version 0.8.0
# 107
mtllib original-107.mtl
o mesh36/mesh36-geometry#mesh36-geometry
v -0.620682 -0.220045 0.085018
v -0.626080 -0.220045 0.085339
v -0.626080 -0.220045 0.085018
v -0.620682 -0.220045 0.085339
v -0.626080 -0.216126 0.085018
v -0.620682 -0.232717 0.087909
v -0.620682 -0.216126 0.085339
v -0.626080 -0.216126 0.085339
v -0.620682 -0.216126 0.085018
v -0.620682 -0.216126 0.084054
v -0.626080 -0.214819 0.088551
v -0.620682 -0.220045 0.084054
v -0.620682 -0.220045 0.086303
v -0.626080 -0.216126 0.086303
v -0.626080 -0.216126 0.084054
v -0.620682 -0.232717 0.084054
v -0.626080 -0.220045 0.084054
v -0.620682 -0.220045 0.086624
v -0.620682 -0.216126 0.086303
v -0.626080 -0.216126 0.083733
v -0.626080 -0.216126 0.086624
v -0.620682 -0.220045 0.083733
v -0.635798 -0.232717 0.087909
v -0.620682 -0.216126 0.086624
v -0.626080 -0.220045 0.086624
v -0.626080 -0.216126 0.082769
v -0.626080 -0.216126 0.088551
v -0.620682 -0.235983 0.084054
v -0.635798 -0.232717 0.084054
v -0.635798 -0.230758 0.087909
v -0.626080 -0.220045 0.083733
v -0.620682 -0.230758 0.087909
v -0.626080 -0.220045 0.086303
v -0.626080 -0.216126 0.082448
v -0.620682 -0.216126 0.082769
v -0.620682 -0.214819 0.088551
v -0.635798 -0.235983 0.095618
v -0.620682 -0.216126 0.088551
v -0.626080 -0.216126 0.081610
v -0.626080 -0.220045 0.082769
v -0.620682 -0.216126 0.083733
v -0.620682 -0.214819 0.095618
v -0.620682 -0.220045 0.082769
v -0.628240 -0.234677 0.084054
v -0.635798 -0.235983 0.084054
v -0.635798 -0.230758 0.095618
v -0.620682 -0.230758 0.095618
v -0.626080 -0.216126 0.081289
v -0.620682 -0.216126 0.081610
v -0.626080 -0.220045 0.082448
v -0.637957 -0.214819 0.095618
v -0.620682 -0.220045 0.082448
v -0.628240 -0.235983 0.084054
v -0.629993 -0.234677 0.084054
v -0.637957 -0.235983 0.095618
v -0.626080 -0.216126 0.080521
v -0.626080 -0.220045 0.081610
v -0.620682 -0.216126 0.082448
v -0.626080 -0.214819 0.074418
v -0.620682 -0.235983 0.078915
v -0.628240 -0.235983 0.078915
v -0.628240 -0.234677 0.078915
v -0.629993 -0.235983 0.084054
v -0.637957 -0.235983 0.084054
v -0.626080 -0.216126 0.080200
v -0.620682 -0.216126 0.080521
v -0.626080 -0.220045 0.081289
v -0.620682 -0.220045 0.081610
v -0.637957 -0.214819 0.067351
v -0.626080 -0.216126 0.076345
v -0.620682 -0.232717 0.078915
v -0.629993 -0.234677 0.078915
v -0.629993 -0.235983 0.078915
v -0.635798 -0.235983 0.078915
v -0.626080 -0.216126 0.079236
v -0.626080 -0.220045 0.080521
v -0.620682 -0.216126 0.081289
v -0.620682 -0.220045 0.081289
v -0.620682 -0.214819 0.067351
v -0.626080 -0.216126 0.074418
v -0.626080 -0.216126 0.076666
v -0.620682 -0.220045 0.078915
v -0.637957 -0.235983 0.078915
v -0.626080 -0.216126 0.078915
v -0.620682 -0.216126 0.079236
v -0.626080 -0.220045 0.080200
v -0.620682 -0.220045 0.080521
v -0.635798 -0.230758 0.067351
v -0.620682 -0.214819 0.074418
v -0.620682 -0.216126 0.074418
v -0.626080 -0.220045 0.076666
v -0.626080 -0.216126 0.077630
v -0.620682 -0.220045 0.079236
v -0.620682 -0.216126 0.078915
v -0.635798 -0.232717 0.078915
v -0.635798 -0.235983 0.067351
v -0.626080 -0.216126 0.077951
v -0.626080 -0.220045 0.079236
v -0.620682 -0.216126 0.080200
v -0.620682 -0.220045 0.080200
v -0.637957 -0.235983 0.067351
v -0.620682 -0.230758 0.067351
v -0.620682 -0.216126 0.076345
v -0.626080 -0.220045 0.076345
v -0.620682 -0.216126 0.076666
v -0.620682 -0.216126 0.077951
v -0.620682 -0.232717 0.075060
v -0.626080 -0.220045 0.078915
v -0.620682 -0.230758 0.075060
v -0.635798 -0.230758 0.075060
v -0.620682 -0.220045 0.076345
v -0.620682 -0.220045 0.076666
v -0.620682 -0.216126 0.077630
v -0.626080 -0.220045 0.077951
v -0.620682 -0.220045 0.077951
v -0.635798 -0.232717 0.075060
v -0.620682 -0.220045 0.077630
v -0.626080 -0.220045 0.077630
vn 0 -1 0
vn 0 1 0
vn -1 0 0
vn 1 0 0
vn 0 0 -1
vn 0 0 1
usemtl material_0_0
f 1//1 2//1 3//1
f 2//1 1//1 4//1
f 3//2 2//2 1//2
f 4//2 1//2 2//2
f 2//3 5//3 3//3
f 3//4 5//4 2//4
f 5//5 1//5 3//5
f 3//6 1//6 5//6
f 7//6 2//6 4//6
f 4//5 2//5 7//5
f 5//3 2//3 8//3
f 8//4 2//4 5//4
f 1//5 5//5 9//5
f 9//6 5//6 1//6
f 2//6 7//6 8//6
f 8//5 7//5 2//5
f 10//6 17//6 12//6
f 12//5 17//5 10//5
f 17//6 10//6 15//6
f 15//5 10//5 17//5
f 17//1 22//1 12//1
f 12//2 22//2 17//2
f 25//1 13//1 18//1
f 18//2 13//2 25//2
f 13//5 14//5 19//5
f 19//6 14//6 13//6
f 20//3 17//3 15//3
f 15//4 17//4 20//4
f 14//3 25//3 21//3
f 21//4 25//4 14//4
f 22//1 17//1 31//1
f 31//2 17//2 22//2
f 24//6 25//6 18//6
f 18//5 25//5 24//5
f 13//1 25//1 33//1
f 33//2 25//2 13//2
f 14//5 13//5 33//5
f 33//6 13//6 14//6
f 17//3 20//3 31//3
f 31//4 20//4 17//4
f 25//3 14//3 33//3
f 33//4 14//4 25//4
f 25//6 24//6 21//6
f 21//5 24//5 25//5
f 20//5 22//5 31//5
f 31//6 22//6 20//6
f 34//3 40//3 26//3
f 26//4 40//4 34//4
f 40//6 35//6 26//6
f 26//5 35//5 40//5
f 22//5 20//5 41//5
f 41//6 20//6 22//6
f 40//3 34//3 50//3
f 50//4 34//4 40//4
f 35//6 40//6 43//6
f 43//5 40//5 35//5
f 48//3 57//3 39//3
f 39//4 57//4 48//4
f 57//6 49//6 39//6
f 39//5 49//5 57//5
f 34//5 52//5 50//5
f 50//6 52//6 34//6
f 52//1 40//1 50//1
f 50//2 40//2 52//2
f 40//1 52//1 43//1
f 43//2 52//2 40//2
f 57//3 48//3 67//3
f 67//4 48//4 57//4
f 52//5 34//5 58//5
f 58//6 34//6 52//6
f 49//6 57//6 68//6
f 68//5 57//5 49//5
f 65//3 76//3 56//3
f 56//4 76//4 65//4
f 76//6 66//6 56//6
f 56//5 66//5 76//5
f 48//5 78//5 67//5
f 67//6 78//6 48//6
f 78//1 57//1 67//1
f 67//2 57//2 78//2
f 57//1 78//1 68//1
f 68//2 78//2 57//2
f 76//3 65//3 86//3
f 86//4 65//4 76//4
f 78//5 48//5 77//5
f 77//6 48//6 78//6
f 66//6 76//6 87//6
f 87//5 76//5 66//5
f 70//3 91//3 81//3
f 81//4 91//4 70//4
f 84//3 98//3 75//3
f 75//4 98//4 84//4
f 98//6 85//6 75//6
f 75//5 85//5 98//5
f 65//5 100//5 86//5
f 86//6 100//6 65//6
f 100//1 76//1 86//1
f 86//2 76//2 100//2
f 76//1 100//1 87//1
f 87//2 100//2 76//2
f 91//3 70//3 104//3
f 104//4 70//4 91//4
f 91//6 105//6 81//6
f 81//5 105//5 91//5
f 98//1 82//1 93//1
f 93//2 82//2 98//2
f 82//5 84//5 94//5
f 94//6 84//6 82//6
f 98//3 84//3 108//3
f 108//4 84//4 98//4
f 100//5 65//5 99//5
f 99//6 65//6 100//6
f 85//6 98//6 93//6
f 93//5 98//5 85//5
f 111//5 70//5 103//5
f 103//6 70//6 111//6
f 70//5 111//5 104//5
f 104//6 111//6 70//6
f 111//1 91//1 104//1
f 104//2 91//2 111//2
f 105//6 91//6 112//6
f 112//5 91//5 105//5
f 92//3 114//3 97//3
f 97//4 114//4 92//4
f 82//1 98//1 108//1
f 108//2 98//2 82//2
f 84//5 82//5 108//5
f 108//6 82//6 84//6
f 114//6 106//6 97//6
f 97//5 106//5 114//5
f 91//1 111//1 112//1
f 112//2 111//2 91//2
f 117//5 92//5 113//5
f 113//6 92//6 117//6
f 114//3 92//3 118//3
f 118//4 92//4 114//4
f 106//6 114//6 115//6
f 115//5 114//5 106//5
f 92//5 117//5 118//5
f 118//6 117//6 92//6
f 117//1 114//1 118//1
f 118//2 114//2 117//2
f 114//1 117//1 115//1
f 115//2 117//2 114//2
usemtl material_1_0
f 1//3 6//3 4//3
f 4//4 6//4 1//4
f 10//3 6//3 1//3
f 1//4 6//4 10//4
f 4//3 6//3 7//3
f 7//4 6//4 4//4
f 11//3 5//3 8//3
f 8//4 5//4 11//4
f 5//1 10//1 9//1
f 9//2 10//2 5//2
f 9//3 10//3 1//3
f 1//4 10//4 9//4
f 12//3 6//3 10//3
f 10//4 6//4 12//4
f 7//3 6//3 13//3
f 13//4 6//4 7//4
f 7//1 14//1 8//1
f 8//2 14//2 7//2
f 11//3 15//3 5//3
f 5//4 15//4 11//4
f 11//3 8//3 14//3
f 14//4 8//4 11//4
f 10//1 5//1 15//1
f 15//2 5//2 10//2
f 12//3 16//3 6//3
f 6//4 16//4 12//4
f 13//3 6//3 18//3
f 18//4 6//4 13//4
f 19//3 7//3 13//3
f 13//4 7//4 19//4
f 14//1 7//1 19//1
f 19//2 7//2 14//2
f 11//3 20//3 15//3
f 15//4 20//4 11//4
f 11//3 14//3 21//3
f 21//4 14//4 11//4
f 22//3 16//3 12//3
f 12//4 16//4 22//4
f 16//2 23//2 6//2
f 6//1 23//1 16//1
f 18//3 6//3 24//3
f 24//4 6//4 18//4
f 11//3 26//3 20//3
f 20//4 26//4 11//4
f 11//3 21//3 27//3
f 27//4 21//4 11//4
f 22//3 28//3 16//3
f 16//4 28//4 22//4
f 23//2 16//2 29//2
f 29//1 16//1 23//1
f 30//5 6//5 23//5
f 23//6 6//6 30//6
f 24//3 6//3 32//3
f 32//4 6//4 24//4
f 11//3 34//3 26//3
f 26//4 34//4 11//4
f 35//1 20//1 26//1
f 26//2 20//2 35//2
f 24//1 27//1 21//1
f 21//2 27//2 24//2
f 27//6 36//6 11//6
f 11//5 36//5 27//5
f 35//3 28//3 22//3
f 22//4 28//4 35//4
f 28//5 29//5 16//5
f 16//6 29//6 28//6
f 29//3 37//3 23//3
f 23//4 37//4 29//4
f 6//5 30//5 32//5
f 32//6 30//6 6//6
f 23//3 37//3 30//3
f 30//4 37//4 23//4
f 24//3 32//3 38//3
f 38//4 32//4 24//4
f 11//3 39//3 34//3
f 34//4 39//4 11//4
f 20//1 35//1 41//1
f 41//2 35//2 20//2
f 27//1 24//1 38//1
f 38//2 24//2 27//2
f 36//6 27//6 38//6
f 38//5 27//5 36//5
f 42//1 11//1 36//1
f 36//2 11//2 42//2
f 43//3 28//3 35//3
f 35//4 28//4 43//4
f 41//3 35//3 22//3
f 22//4 35//4 41//4
f 29//5 28//5 44//5
f 44//6 28//6 29//6
f 37//3 29//3 45//3
f 45//4 29//4 37//4
f 46//2 32//2 30//2
f 30//1 32//1 46//1
f 30//3 37//3 46//3
f 46//4 37//4 30//4
f 38//3 32//3 47//3
f 47//4 32//4 38//4
f 11//3 48//3 39//3
f 39//4 48//4 11//4
f 49//1 34//1 39//1
f 39//2 34//2 49//2
f 38//3 47//3 36//3
f 36//4 47//4 38//4
f 51//1 11//1 42//1
f 42//2 11//2 51//2
f 36//3 47//3 42//3
f 42//4 47//4 36//4
f 52//3 28//3 43//3
f 43//4 28//4 52//4
f 44//5 28//5 53//5
f 53//6 28//6 44//6
f 54//5 29//5 44//5
f 44//6 29//6 54//6
f 29//5 54//5 45//5
f 45//6 54//6 29//6
f 45//2 55//2 37//2
f 37//1 55//1 45//1
f 32//2 46//2 47//2
f 47//1 46//1 32//1
f 55//5 46//5 37//5
f 37//6 46//6 55//6
f 11//3 56//3 48//3
f 48//4 56//4 11//4
f 34//1 49//1 58//1
f 58//2 49//2 34//2
f 11//1 51//1 59//1
f 59//2 51//2 11//2
f 47//5 51//5 42//5
f 42//6 51//6 47//6
f 49//3 28//3 52//3
f 52//4 28//4 49//4
f 60//2 53//2 28//2
f 28//1 53//1 60//1
f 61//4 44//4 53//4
f 53//3 44//3 61//3
f 62//2 54//2 44//2
f 44//1 54//1 62//1
f 45//5 54//5 63//5
f 63//6 54//6 45//6
f 55//2 45//2 64//2
f 64//1 45//1 55//1
f 51//5 47//5 46//5
f 46//6 47//6 51//6
f 51//5 46//5 55//5
f 55//6 46//6 51//6
f 11//3 65//3 56//3
f 56//4 65//4 11//4
f 66//1 48//1 56//1
f 56//2 48//2 66//2
f 58//3 49//3 52//3
f 52//4 49//4 58//4
f 69//1 59//1 51//1
f 51//2 59//2 69//2
f 59//3 70//3 11//3
f 11//4 70//4 59//4
f 68//3 28//3 49//3
f 49//4 28//4 68//4
f 53//2 60//2 61//2
f 61//1 60//1 53//1
f 28//3 71//3 60//3
f 60//4 71//4 28//4
f 44//4 61//4 62//4
f 62//3 61//3 44//3
f 54//2 62//2 72//2
f 72//1 62//1 54//1
f 72//3 63//3 54//3
f 54//4 63//4 72//4
f 73//2 45//2 63//2
f 63//1 45//1 73//1
f 74//2 64//2 45//2
f 45//1 64//1 74//1
f 11//3 75//3 65//3
f 65//4 75//4 11//4
f 48//1 66//1 77//1
f 77//2 66//2 48//2
f 59//1 69//1 79//1
f 79//2 69//2 59//2
f 70//3 59//3 80//3
f 80//4 59//4 70//4
f 11//3 70//3 81//3
f 81//4 70//4 11//4
f 78//3 28//3 68//3
f 68//4 28//4 78//4
f 60//6 62//6 61//6
f 61//5 62//5 60//5
f 71//3 28//3 82//3
f 82//4 28//4 71//4
f 71//6 62//6 60//6
f 60//5 62//5 71//5
f 62//6 71//6 72//6
f 72//5 71//5 62//5
f 63//3 72//3 73//3
f 73//4 72//4 63//4
f 74//2 45//2 73//2
f 73//1 45//1 74//1
f 64//2 74//2 83//2
f 83//1 74//1 64//1
f 11//3 84//3 75//3
f 75//4 84//4 11//4
f 85//1 65//1 75//1
f 75//2 65//2 85//2
f 77//3 66//3 78//3
f 78//4 66//4 77//4
f 69//6 88//6 79//6
f 79//5 88//5 69//5
f 59//1 79//1 89//1
f 89//2 79//2 59//2
f 59//5 90//5 80//5
f 80//6 90//6 59//6
f 90//1 70//1 80//1
f 80//2 70//2 90//2
f 11//3 81//3 92//3
f 92//4 81//4 11//4
f 66//3 28//3 78//3
f 78//4 28//4 66//4
f 82//3 28//3 93//3
f 93//4 28//4 82//4
f 94//3 71//3 82//3
f 82//4 71//4 94//4
f 95//6 72//6 71//6
f 71//5 72//5 95//5
f 72//6 74//6 73//6
f 73//5 74//5 72//5
f 96//2 83//2 74//2
f 74//1 83//1 96//1
f 11//3 97//3 84//3
f 84//4 97//4 11//4
f 65//1 85//1 99//1
f 99//2 85//2 65//2
f 87//3 28//3 66//3
f 66//4 28//4 87//4
f 88//6 69//6 101//6
f 101//5 69//5 88//5
f 102//6 79//6 88//6
f 88//5 79//5 102//5
f 89//3 79//3 90//3
f 90//4 79//4 89//4
f 90//5 59//5 89//5
f 89//6 59//6 90//6
f 70//1 90//1 103//1
f 103//2 90//2 70//2
f 105//1 92//1 81//1
f 81//2 92//2 105//2
f 11//3 92//3 97//3
f 97//4 92//4 11//4
f 93//3 28//3 85//3
f 85//4 28//4 93//4
f 106//3 71//3 94//3
f 94//4 71//4 106//4
f 72//6 95//6 74//6
f 74//5 95//5 72//5
f 107//2 95//2 71//2
f 71//1 95//1 107//1
f 83//2 96//2 101//2
f 101//1 96//1 83//1
f 74//3 88//3 96//3
f 96//4 88//4 74//4
f 106//1 84//1 97//1
f 97//2 84//2 106//2
f 99//3 85//3 100//3
f 100//4 85//4 99//4
f 100//3 28//3 87//3
f 87//4 28//4 100//4
f 88//6 101//6 96//6
f 96//5 101//5 88//5
f 109//3 79//3 102//3
f 102//4 79//4 109//4
f 110//2 102//2 88//2
f 88//1 102//1 110//1
f 79//3 109//3 90//3
f 90//4 109//4 79//4
f 90//3 109//3 103//3
f 103//4 109//4 90//4
f 92//1 105//1 113//1
f 113//2 105//2 92//2
f 85//3 28//3 100//3
f 100//4 28//4 85//4
f 115//3 71//3 106//3
f 106//4 71//4 115//4
f 84//1 106//1 94//1
f 94//2 106//2 84//2
f 116//3 74//3 95//3
f 95//4 74//4 116//4
f 95//2 107//2 116//2
f 116//1 107//1 95//1
f 71//3 109//3 107//3
f 107//4 109//4 71//4
f 88//3 74//3 116//3
f 116//4 74//4 88//4
f 102//2 110//2 109//2
f 109//1 110//1 102//1
f 110//3 88//3 116//3
f 116//4 88//4 110//4
f 103//3 109//3 111//3
f 111//4 109//4 103//4
f 112//3 71//3 105//3
f 105//4 71//4 112//4
f 113//3 105//3 117//3
f 117//4 105//4 113//4
f 117//3 71//3 115//3
f 115//4 71//4 117//4
f 109//6 116//6 107//6
f 107//5 116//5 109//5
f 109//3 71//3 111//3
f 111//4 71//4 109//4
f 116//6 109//6 110//6
f 110//5 109//5 116//5
f 111//3 71//3 112//3
f 112//4 71//4 111//4
f 105//3 71//3 117//3
f 117//4 71//4 105//4
