# SSTK version 0.8.0
# 2
mtllib original-2.mtl
o 3dw.976cf96169945398af7f76800034f73/Model/Safe1/Safe/mesh1/mesh1-geometry/material_0/component_1#mesh1-geometry
v 0.435044 -0.550247 -0.565517
v 0.490687 -0.661534 -0.554388
v 0.435044 -0.550247 -0.554388
v 0.490687 -0.661534 -0.554388
v 0.435044 -0.550247 -0.565517
v 0.490687 -0.661534 -0.565517
v 0.490687 -0.661534 -0.554388
v 0.535202 -0.550247 -0.554388
v 0.435044 -0.550247 -0.554388
v 0.546330 -0.661534 -0.565517
v 0.435044 -0.550247 -0.565517
v 0.546330 -0.550247 -0.565517
v 0.435044 -0.550247 -0.565517
v 0.546330 -0.661534 -0.565517
v 0.490687 -0.661534 -0.565517
v 0.546330 -0.661534 -0.565517
v 0.490687 -0.661534 -0.554388
v 0.490687 -0.661534 -0.565517
v 0.535202 -0.550247 -0.554388
v 0.490687 -0.661534 -0.554388
v 0.535202 -0.661534 -0.554388
v 0.535202 -0.550247 -0.554388
v 0.535202 -0.661534 -0.509874
v 0.535202 -0.550247 -0.454231
v 0.546330 -0.550247 -0.565517
v 0.546330 -0.661534 -0.509874
v 0.546330 -0.661534 -0.565517
v 0.490687 -0.661534 -0.554388
v 0.546330 -0.661534 -0.565517
v 0.535202 -0.661534 -0.554388
v 0.535202 -0.661534 -0.509874
v 0.535202 -0.550247 -0.554388
v 0.535202 -0.661534 -0.554388
v 0.546330 -0.661534 -0.509874
v 0.546330 -0.550247 -0.565517
v 0.546330 -0.550247 -0.454231
v 0.535202 -0.661534 -0.509874
v 0.546330 -0.550247 -0.454231
v 0.535202 -0.550247 -0.454231
v 0.535202 -0.661534 -0.509874
v 0.546330 -0.661534 -0.565517
v 0.546330 -0.661534 -0.509874
v 0.535202 -0.661534 -0.554388
v 0.546330 -0.661534 -0.565517
v 0.535202 -0.661534 -0.509874
v 0.546330 -0.550247 -0.454231
v 0.535202 -0.661534 -0.509874
v 0.546330 -0.661534 -0.509874
v 0.435044 -0.550247 -0.554388
v 0.490687 -0.661534 -0.554388
v 0.435044 -0.550247 -0.565517
v 0.490687 -0.661534 -0.565517
v 0.435044 -0.550247 -0.565517
v 0.490687 -0.661534 -0.554388
v 0.435044 -0.550247 -0.554388
v 0.535202 -0.550247 -0.554388
v 0.490687 -0.661534 -0.554388
v 0.546330 -0.550247 -0.565517
v 0.435044 -0.550247 -0.565517
v 0.546330 -0.661534 -0.565517
v 0.490687 -0.661534 -0.565517
v 0.546330 -0.661534 -0.565517
v 0.435044 -0.550247 -0.565517
v 0.490687 -0.661534 -0.565517
v 0.490687 -0.661534 -0.554388
v 0.546330 -0.661534 -0.565517
v 0.535202 -0.661534 -0.554388
v 0.490687 -0.661534 -0.554388
v 0.535202 -0.550247 -0.554388
v 0.535202 -0.550247 -0.454231
v 0.535202 -0.661534 -0.509874
v 0.535202 -0.550247 -0.554388
v 0.546330 -0.661534 -0.565517
v 0.546330 -0.661534 -0.509874
v 0.546330 -0.550247 -0.565517
v 0.535202 -0.661534 -0.554388
v 0.546330 -0.661534 -0.565517
v 0.490687 -0.661534 -0.554388
v 0.535202 -0.661534 -0.554388
v 0.535202 -0.550247 -0.554388
v 0.535202 -0.661534 -0.509874
v 0.546330 -0.550247 -0.454231
v 0.546330 -0.550247 -0.565517
v 0.546330 -0.661534 -0.509874
v 0.535202 -0.550247 -0.454231
v 0.546330 -0.550247 -0.454231
v 0.535202 -0.661534 -0.509874
v 0.546330 -0.661534 -0.509874
v 0.546330 -0.661534 -0.565517
v 0.535202 -0.661534 -0.509874
v 0.535202 -0.661534 -0.509874
v 0.546330 -0.661534 -0.565517
v 0.535202 -0.661534 -0.554388
v 0.546330 -0.661534 -0.509874
v 0.535202 -0.661534 -0.509874
v 0.546330 -0.550247 -0.454231
vt 0 0
vn -0.8944269883440347 -0.4472140008114905 0
vn 0 0 1
vn 0 0 -1
vn 0 -1 0
vn -1 0 0
vn 1 0 0
vn 0 -0.4472140008114907 0.8944269883440346
vn 0.8944269883440347 0.4472140008114905 0
vn 0 1 0
vn 0 0.4472140008114907 -0.8944269883440346
usemtl material_0_0
f 1/1/1 2/1/1 3/1/1
f 4/1/1 5/1/1 6/1/1
f 7/1/2 8/1/2 9/1/2
f 10/1/3 11/1/3 12/1/3
f 13/1/3 14/1/3 15/1/3
f 16/1/4 17/1/4 18/1/4
f 19/1/2 20/1/2 21/1/2
f 22/1/5 23/1/5 24/1/5
f 25/1/6 26/1/6 27/1/6
f 28/1/4 29/1/4 30/1/4
f 31/1/5 32/1/5 33/1/5
f 34/1/6 35/1/6 36/1/6
f 37/1/7 38/1/7 39/1/7
f 40/1/4 41/1/4 42/1/4
f 43/1/4 44/1/4 45/1/4
f 46/1/7 47/1/7 48/1/7
usemtl material_1_0
f 49/1/8 50/1/8 51/1/8
f 52/1/8 53/1/8 54/1/8
f 55/1/3 56/1/3 57/1/3
f 58/1/2 59/1/2 60/1/2
f 61/1/2 62/1/2 63/1/2
f 64/1/9 65/1/9 66/1/9
f 67/1/3 68/1/3 69/1/3
f 70/1/6 71/1/6 72/1/6
f 73/1/5 74/1/5 75/1/5
f 76/1/9 77/1/9 78/1/9
f 79/1/6 80/1/6 81/1/6
f 82/1/5 83/1/5 84/1/5
f 85/1/10 86/1/10 87/1/10
f 88/1/9 89/1/9 90/1/9
f 91/1/9 92/1/9 93/1/9
f 94/1/10 95/1/10 96/1/10
