# SSTK version 0.8.0
# 14
mtllib original-14.mtl
o 3dw.976cf96169945398af7f76800034f73/Model/Safe1/Safe/mesh1/mesh1-geometry/material_2#mesh1-geometry
v 0.435044 -0.550247 -0.565517
v 0.435044 -0.550247 0.547346
v 0.435044 -0.550247 0.536217
v 0.546330 -0.550247 0.547346
v 0.435044 -0.550247 0.547346
v 0.546330 0.562615 0.547346
v -0.455246 -0.550247 -0.565517
v 0.435044 -0.550247 0.547346
v 0.435044 -0.550247 -0.565517
v 0.435044 -0.550247 -0.565517
v 0.435044 -0.550247 0.536217
v 0.435044 -0.550247 -0.554388
v 0.435044 -0.438961 0.547346
v 0.546330 0.562615 0.547346
v 0.435044 -0.550247 0.547346
v 0.546330 -0.550247 0.547346
v 0.546330 0.562615 0.547346
v 0.546330 -0.550247 0.436060
v 0.535202 -0.550247 0.536217
v 0.435044 -0.550247 -0.554388
v 0.435044 -0.550247 0.536217
v -0.455246 -0.550247 -0.554388
v 0.435044 -0.550247 0.547346
v -0.455246 -0.550247 -0.565517
v 0.435044 -0.550247 -0.565517
v -0.566532 0.562615 -0.565517
v -0.455246 -0.550247 -0.565517
v 0.435044 0.451329 0.547346
v 0.546330 0.562615 0.547346
v 0.435044 -0.438961 0.547346
v -0.455246 -0.550247 0.547346
v 0.435044 -0.438961 0.547346
v 0.435044 -0.550247 0.547346
v 0.546330 0.562615 -0.565517
v 0.546330 -0.550247 0.436060
v 0.546330 0.562615 0.547346
v 0.535202 -0.550247 -0.554388
v 0.535202 -0.550247 0.536217
v 0.535202 -0.550247 0.436060
v 0.435044 -0.550247 -0.554388
v 0.535202 -0.550247 0.536217
v 0.535202 -0.550247 -0.554388
v -0.455246 -0.550247 0.536217
v 0.435044 -0.550247 0.547346
v -0.455246 -0.550247 -0.554388
v -0.566532 -0.550247 -0.565517
v -0.455246 -0.550247 -0.565517
v -0.566532 0.562615 -0.565517
v 0.546330 -0.550247 -0.565517
v -0.566532 0.562615 -0.565517
v 0.435044 -0.550247 -0.565517
v -0.455246 0.451329 0.547346
v 0.546330 0.562615 0.547346
v 0.435044 0.451329 0.547346
v -0.566532 -0.550247 0.547346
v 0.435044 -0.438961 0.547346
v -0.455246 -0.550247 0.547346
v 0.435044 -0.550247 0.547346
v -0.455246 -0.550247 0.536217
v -0.455246 -0.550247 0.547346
v 0.546330 -0.550247 -0.454231
v 0.546330 -0.550247 0.436060
v 0.546330 0.562615 -0.565517
v 0.546330 0.562615 -0.565517
v 0.546330 0.562615 0.547346
v -0.566532 0.562615 -0.565517
v 0.546330 -0.550247 0.436060
v 0.535202 -0.550247 -0.454231
v 0.535202 -0.550247 0.436060
v 0.535202 -0.550247 -0.554388
v 0.535202 -0.550247 0.436060
v 0.535202 -0.550247 -0.454231
v -0.555404 -0.550247 -0.554388
v -0.455246 -0.550247 0.536217
v -0.455246 -0.550247 -0.554388
v -0.566532 -0.550247 -0.565517
v -0.566532 0.562615 -0.565517
v -0.566532 -0.550247 -0.454231
v 0.546330 0.562615 -0.565517
v -0.566532 0.562615 -0.565517
v 0.546330 -0.550247 -0.565517
v 0.546330 0.562615 0.547346
v -0.455246 0.451329 0.547346
v -0.566532 0.562615 0.547346
v 0.435044 -0.438961 0.547346
v -0.566532 -0.550247 0.547346
v -0.455246 -0.438961 0.547346
v 0.535202 -0.550247 -0.454231
v 0.546330 -0.550247 0.436060
v 0.546330 -0.550247 -0.454231
v 0.546330 -0.550247 -0.565517
v 0.546330 -0.550247 -0.454231
v 0.546330 0.562615 -0.565517
v -0.566532 0.562615 0.547346
v -0.566532 0.562615 -0.565517
v 0.546330 0.562615 0.547346
v -0.555404 -0.550247 -0.454231
v -0.455246 -0.550247 0.536217
v -0.555404 -0.550247 -0.554388
v -0.566532 -0.550247 -0.454231
v -0.566532 0.562615 -0.565517
v -0.566532 -0.550247 0.436060
v -0.455246 0.451329 0.547346
v -0.455246 0.340043 0.547346
v -0.566532 0.562615 0.547346
v -0.566532 0.562615 0.547346
v -0.455246 -0.438961 0.547346
v -0.566532 -0.550247 0.547346
v -0.455246 -0.550247 0.536217
v -0.555404 -0.550247 0.436060
v -0.555404 -0.550247 0.536217
v -0.566532 0.562615 0.547346
v -0.566532 -0.550247 0.547346
v -0.566532 0.562615 -0.565517
v -0.555404 -0.550247 0.436060
v -0.455246 -0.550247 0.536217
v -0.555404 -0.550247 -0.454231
v -0.566532 -0.550247 0.436060
v -0.566532 0.562615 -0.565517
v -0.566532 -0.550247 0.547346
v -0.555404 -0.550247 0.436060
v -0.566532 -0.550247 -0.454231
v -0.566532 -0.550247 0.436060
v -0.566532 -0.550247 -0.454231
v -0.555404 -0.550247 0.436060
v -0.555404 -0.550247 -0.454231
v -0.455246 0.340043 0.547346
v -0.455246 0.228757 0.547346
v -0.566532 0.562615 0.547346
v -0.455246 -0.327675 0.547346
v -0.455246 -0.438961 0.547346
v -0.566532 0.562615 0.547346
v -0.455246 0.228757 0.547346
v -0.455246 -0.216388 0.547346
v -0.566532 0.562615 0.547346
v -0.455246 -0.216388 0.547346
v -0.455246 -0.327675 0.547346
v -0.566532 0.562615 0.547346
v 0.435044 -0.550247 0.536217
v 0.435044 -0.550247 0.547346
v 0.435044 -0.550247 -0.565517
v 0.546330 0.562615 0.547346
v 0.435044 -0.550247 0.547346
v 0.546330 -0.550247 0.547346
v 0.435044 -0.550247 -0.565517
v 0.435044 -0.550247 0.547346
v -0.455246 -0.550247 -0.565517
v 0.435044 -0.550247 -0.554388
v 0.435044 -0.550247 0.536217
v 0.435044 -0.550247 -0.565517
v 0.435044 -0.550247 0.547346
v 0.546330 0.562615 0.547346
v 0.435044 -0.438961 0.547346
v 0.546330 -0.550247 0.436060
v 0.546330 0.562615 0.547346
v 0.546330 -0.550247 0.547346
v 0.435044 -0.550247 0.536217
v 0.435044 -0.550247 -0.554388
v 0.535202 -0.550247 0.536217
v -0.455246 -0.550247 -0.565517
v 0.435044 -0.550247 0.547346
v -0.455246 -0.550247 -0.554388
v -0.455246 -0.550247 -0.565517
v -0.566532 0.562615 -0.565517
v 0.435044 -0.550247 -0.565517
v 0.435044 -0.438961 0.547346
v 0.546330 0.562615 0.547346
v 0.435044 0.451329 0.547346
v 0.435044 -0.550247 0.547346
v 0.435044 -0.438961 0.547346
v -0.455246 -0.550247 0.547346
v 0.546330 0.562615 0.547346
v 0.546330 -0.550247 0.436060
v 0.546330 0.562615 -0.565517
v 0.535202 -0.550247 0.436060
v 0.535202 -0.550247 0.536217
v 0.535202 -0.550247 -0.554388
v 0.535202 -0.550247 -0.554388
v 0.535202 -0.550247 0.536217
v 0.435044 -0.550247 -0.554388
v -0.455246 -0.550247 -0.554388
v 0.435044 -0.550247 0.547346
v -0.455246 -0.550247 0.536217
v -0.566532 0.562615 -0.565517
v -0.455246 -0.550247 -0.565517
v -0.566532 -0.550247 -0.565517
v 0.435044 -0.550247 -0.565517
v -0.566532 0.562615 -0.565517
v 0.546330 -0.550247 -0.565517
v 0.435044 0.451329 0.547346
v 0.546330 0.562615 0.547346
v -0.455246 0.451329 0.547346
v -0.455246 -0.550247 0.547346
v 0.435044 -0.438961 0.547346
v -0.566532 -0.550247 0.547346
v -0.455246 -0.550247 0.547346
v -0.455246 -0.550247 0.536217
v 0.435044 -0.550247 0.547346
v 0.546330 0.562615 -0.565517
v 0.546330 -0.550247 0.436060
v 0.546330 -0.550247 -0.454231
v -0.566532 0.562615 -0.565517
v 0.546330 0.562615 0.547346
v 0.546330 0.562615 -0.565517
v 0.535202 -0.550247 0.436060
v 0.535202 -0.550247 -0.454231
v 0.546330 -0.550247 0.436060
v 0.535202 -0.550247 -0.454231
v 0.535202 -0.550247 0.436060
v 0.535202 -0.550247 -0.554388
v -0.455246 -0.550247 -0.554388
v -0.455246 -0.550247 0.536217
v -0.555404 -0.550247 -0.554388
v -0.566532 -0.550247 -0.454231
v -0.566532 0.562615 -0.565517
v -0.566532 -0.550247 -0.565517
v 0.546330 -0.550247 -0.565517
v -0.566532 0.562615 -0.565517
v 0.546330 0.562615 -0.565517
v -0.566532 0.562615 0.547346
v -0.455246 0.451329 0.547346
v 0.546330 0.562615 0.547346
v -0.455246 -0.438961 0.547346
v -0.566532 -0.550247 0.547346
v 0.435044 -0.438961 0.547346
v 0.546330 -0.550247 -0.454231
v 0.546330 -0.550247 0.436060
v 0.535202 -0.550247 -0.454231
v 0.546330 0.562615 -0.565517
v 0.546330 -0.550247 -0.454231
v 0.546330 -0.550247 -0.565517
v 0.546330 0.562615 0.547346
v -0.566532 0.562615 -0.565517
v -0.566532 0.562615 0.547346
v -0.555404 -0.550247 -0.554388
v -0.455246 -0.550247 0.536217
v -0.555404 -0.550247 -0.454231
v -0.566532 -0.550247 0.436060
v -0.566532 0.562615 -0.565517
v -0.566532 -0.550247 -0.454231
v -0.566532 0.562615 0.547346
v -0.455246 0.340043 0.547346
v -0.455246 0.451329 0.547346
v -0.566532 -0.550247 0.547346
v -0.455246 -0.438961 0.547346
v -0.566532 0.562615 0.547346
v -0.555404 -0.550247 0.536217
v -0.555404 -0.550247 0.436060
v -0.455246 -0.550247 0.536217
v -0.566532 0.562615 -0.565517
v -0.566532 -0.550247 0.547346
v -0.566532 0.562615 0.547346
v -0.555404 -0.550247 -0.454231
v -0.455246 -0.550247 0.536217
v -0.555404 -0.550247 0.436060
v -0.566532 -0.550247 0.547346
v -0.566532 0.562615 -0.565517
v -0.566532 -0.550247 0.436060
v -0.566532 -0.550247 0.436060
v -0.566532 -0.550247 -0.454231
v -0.555404 -0.550247 0.436060
v -0.555404 -0.550247 -0.454231
v -0.555404 -0.550247 0.436060
v -0.566532 -0.550247 -0.454231
v -0.566532 0.562615 0.547346
v -0.455246 0.228757 0.547346
v -0.455246 0.340043 0.547346
v -0.566532 0.562615 0.547346
v -0.455246 -0.438961 0.547346
v -0.455246 -0.327675 0.547346
v -0.566532 0.562615 0.547346
v -0.455246 -0.216388 0.547346
v -0.455246 0.228757 0.547346
v -0.566532 0.562615 0.547346
v -0.455246 -0.327675 0.547346
v -0.455246 -0.216388 0.547346
vt 0 0
vn 0 1 0
vn 0 0 -1
vn -1 0 0
vn 0 0 1
vn 0 -1 0
vn 1 0 0
usemtl material_0_0
f 1/1/1 2/1/1 3/1/1
f 4/1/2 5/1/2 6/1/2
f 7/1/1 8/1/1 9/1/1
f 10/1/1 11/1/1 12/1/1
f 13/1/2 14/1/2 15/1/2
f 16/1/3 17/1/3 18/1/3
f 19/1/1 20/1/1 21/1/1
f 22/1/1 23/1/1 24/1/1
f 25/1/4 26/1/4 27/1/4
f 28/1/2 29/1/2 30/1/2
f 31/1/2 32/1/2 33/1/2
f 34/1/3 35/1/3 36/1/3
f 37/1/1 38/1/1 39/1/1
f 40/1/1 41/1/1 42/1/1
f 43/1/1 44/1/1 45/1/1
f 46/1/4 47/1/4 48/1/4
f 49/1/4 50/1/4 51/1/4
f 52/1/2 53/1/2 54/1/2
f 55/1/2 56/1/2 57/1/2
f 58/1/1 59/1/1 60/1/1
f 61/1/3 62/1/3 63/1/3
f 64/1/5 65/1/5 66/1/5
f 67/1/1 68/1/1 69/1/1
f 70/1/1 71/1/1 72/1/1
f 73/1/1 74/1/1 75/1/1
f 76/1/6 77/1/6 78/1/6
f 79/1/4 80/1/4 81/1/4
f 82/1/2 83/1/2 84/1/2
f 85/1/2 86/1/2 87/1/2
f 88/1/1 89/1/1 90/1/1
f 91/1/3 92/1/3 93/1/3
f 94/1/5 95/1/5 96/1/5
f 97/1/1 98/1/1 99/1/1
f 100/1/6 101/1/6 102/1/6
f 103/1/2 104/1/2 105/1/2
f 106/1/2 107/1/2 108/1/2
f 109/1/1 110/1/1 111/1/1
f 112/1/6 113/1/6 114/1/6
f 115/1/1 116/1/1 117/1/1
f 118/1/6 119/1/6 120/1/6
f 121/1/1 122/1/1 123/1/1
f 124/1/1 125/1/1 126/1/1
f 127/1/2 128/1/2 129/1/2
f 130/1/2 131/1/2 132/1/2
f 133/1/2 134/1/2 135/1/2
f 136/1/2 137/1/2 138/1/2
usemtl material_1_0
f 139/1/5 140/1/5 141/1/5
f 142/1/4 143/1/4 144/1/4
f 145/1/5 146/1/5 147/1/5
f 148/1/5 149/1/5 150/1/5
f 151/1/4 152/1/4 153/1/4
f 154/1/6 155/1/6 156/1/6
f 157/1/5 158/1/5 159/1/5
f 160/1/5 161/1/5 162/1/5
f 163/1/2 164/1/2 165/1/2
f 166/1/4 167/1/4 168/1/4
f 169/1/4 170/1/4 171/1/4
f 172/1/6 173/1/6 174/1/6
f 175/1/5 176/1/5 177/1/5
f 178/1/5 179/1/5 180/1/5
f 181/1/5 182/1/5 183/1/5
f 184/1/2 185/1/2 186/1/2
f 187/1/2 188/1/2 189/1/2
f 190/1/4 191/1/4 192/1/4
f 193/1/4 194/1/4 195/1/4
f 196/1/5 197/1/5 198/1/5
f 199/1/6 200/1/6 201/1/6
f 202/1/1 203/1/1 204/1/1
f 205/1/5 206/1/5 207/1/5
f 208/1/5 209/1/5 210/1/5
f 211/1/5 212/1/5 213/1/5
f 214/1/3 215/1/3 216/1/3
f 217/1/2 218/1/2 219/1/2
f 220/1/4 221/1/4 222/1/4
f 223/1/4 224/1/4 225/1/4
f 226/1/5 227/1/5 228/1/5
f 229/1/6 230/1/6 231/1/6
f 232/1/1 233/1/1 234/1/1
f 235/1/5 236/1/5 237/1/5
f 238/1/3 239/1/3 240/1/3
f 241/1/4 242/1/4 243/1/4
f 244/1/4 245/1/4 246/1/4
f 247/1/5 248/1/5 249/1/5
f 250/1/3 251/1/3 252/1/3
f 253/1/5 254/1/5 255/1/5
f 256/1/3 257/1/3 258/1/3
f 259/1/5 260/1/5 261/1/5
f 262/1/5 263/1/5 264/1/5
f 265/1/4 266/1/4 267/1/4
f 268/1/4 269/1/4 270/1/4
f 271/1/4 272/1/4 273/1/4
f 274/1/4 275/1/4 276/1/4
