# SSTK version 0.8.0
# 20
mtllib original-20.mtl
o f_m_g_1_1/f_m_g_1/mesh29/mesh29-geometry#mesh29-geometry
v -0.727289 -0.607310 0.011748
v -0.666736 -0.607310 0.045197
v -0.727289 -0.607310 0.045197
v -0.666736 -0.607310 0.011748
v -0.668466 -0.605784 0.046927
v -0.727289 0.644121 0.045197
v -0.725559 -0.605784 0.010018
v -0.666736 0.644121 0.011748
v -0.725559 -0.605784 0.046927
v -0.668466 0.642595 0.046927
v -0.727289 0.644121 0.011748
v -0.668466 -0.605784 0.010018
v -0.666736 0.644121 0.045197
v -0.668466 0.642595 0.010018
v -0.725559 0.642595 0.046927
v -0.725559 0.642595 0.010018
vt 1.556532 0.221824
vt 0.998628 0.239049
vt 0.998649 0.220594
vt 1.556474 0.27448
vt 0.99857 0.291706
vt 0.99859 0.27325
vt 0.998686 0.186393
vt 1.555889 0.188971
vt 0.999365 0.187744
vt 1.556512 0.240279
vt 0.99933 0.219245
vt 0.999307 0.240401
vt 1.556453 0.292936
vt 1.555795 0.273129
vt 1.55657 0.187623
vt 1.556813 0.221429
vt 1.56995 0.188048
vt 1.569913 0.221458
vt 1.555854 0.220472
vt 1.55583 0.241628
vt 0.999272 0.271902
vt 1.55685 0.188019
vt 0 0
vt 1 1
vt 0 1
vt 1 0
vn 0 -1 0
vn 0 1 0
vn 0 -0.7499265089149806 0.6615211494930374
vn 0 0.7499265089149806 -0.6615211494930374
vn 1 0 0
vn 0 -0.7499265089149804 -0.6615211494930376
vn 0 0.7499265089149804 0.6615211494930376
vn -1 0 0
vn -0.7071071764710081 0 -0.7071063859018661
vn 0.7071071764710081 0 -0.7071063859018661
vn 0.7071071764710081 0 0.7071063859018661
vn -0.7071071764710081 0 0.7071063859018661
vn 0 0 -1
vn 0 0 1
usemtl material_0_0
f 1//1 2//1 3//1
f 2//1 1//1 4//1
f 3//2 2//2 1//2
f 4//2 1//2 2//2
f 5//3 3//3 2//3
f 2//4 3//4 5//4
f 3//5 1//5 6//5
f 7//6 4//6 1//6
f 1//7 4//7 7//7
f 4//8 2//8 8//8
f 3//3 5//3 9//3
f 9//4 5//4 3//4
f 5//9 10//9 2//9
f 11//5 6//5 1//5
f 3//10 6//10 9//10
f 4//6 7//6 12//6
f 12//7 7//7 4//7
f 1//11 7//11 11//11
f 13//8 8//8 2//8
f 8//12 14//12 4//12
f 9//13 15//13 5//13
f 13//9 2//9 10//9
f 10//13 5//13 15//13
f 11//1 8//1 6//1
f 15//10 9//10 6//10
f 7//14 12//14 16//14
f 12//12 4//12 14//12
f 16//11 11//11 7//11
f 13//1 6//1 8//1
f 14//4 11//4 8//4
f 8//3 11//3 14//3
f 10//6 15//6 13//6
f 6//6 13//6 15//6
f 14//14 16//14 12//14
f 11//4 14//4 16//4
f 16//3 14//3 11//3
usemtl material_1_0
f 6/1/8 1/2/8 3/3/8
f 8/4/5 2/5/5 4/6/5
f 2/7/11 10/8/11 5/9/11
f 1/2/8 6/1/8 11/10/8
f 9/11/12 6/1/12 3/3/12
f 11/10/9 7/12/9 1/2/9
f 2/5/5 8/4/5 13/13/5
f 4/6/10 14/14/10 8/4/10
f 10/8/11 2/7/11 13/15/11
f 6/16/2 8/17/2 11/18/2
f 6/1/12 9/11/12 15/19/12
f 16/20/13 12/21/13 7/12/13
f 14/14/10 4/6/10 12/21/10
f 7/12/9 11/10/9 16/20/9
f 8/17/2 6/16/2 13/22/2
f 13/22/7 15/19/7 10/8/7
f 15/19/7 13/22/7 6/16/7
f 12/21/13 16/20/13 14/14/13
usemtl material_2_0
f 5/23/14 15/24/14 9/25/14
f 15/24/14 5/23/14 10/26/14
