# SSTK version 0.8.0
# 8
mtllib original-8.mtl
o Groupe_3_1/Groupe_3/mesh9/mesh9-geometry#mesh9-geometry
v 0.659665 -0.036381 -0.043038
v 0.676966 -0.036381 -0.043038
v 0.659665 0.032823 -0.043038
v 0.659665 -0.036381 -0.045345
v 0.676966 0.032823 -0.043038
v 0.676966 -0.036381 -0.045345
v 0.676966 0.032823 -0.045345
v 0.659665 0.032823 -0.045345
v 0.660242 -0.035804 -0.045921
v 0.676390 0.032246 -0.045921
v 0.676390 -0.035804 -0.045921
v 0.660242 0.032246 -0.045921
vn 0 0 1
vn 0 0 -1
vn 0 -1 0
vn 0 1 0
vn -1 0 0
vn 1 0 0
vn 0 -0.7071067811865474 -0.7071067811865477
vn 0 0.7071067811865474 0.7071067811865477
vn -0.7071067811865475 0 -0.7071067811865475
vn 0.7071067811865475 0 0.7071067811865475
vn 0.7071067811865475 0 -0.7071067811865475
vn -0.7071067811865475 0 0.7071067811865475
vn 0 0.7071067811865477 -0.7071067811865474
vn 0 -0.7071067811865477 0.7071067811865474
usemtl material_0_0
f 1//1 2//1 3//1
f 3//2 2//2 1//2
f 1//3 4//3 2//3
f 2//4 4//4 1//4
f 5//1 3//1 2//1
f 2//2 3//2 5//2
f 1//5 3//5 4//5
f 4//6 3//6 1//6
f 6//3 2//3 4//3
f 4//4 2//4 6//4
f 5//4 7//4 3//4
f 3//3 7//3 5//3
f 5//6 2//6 7//6
f 7//5 2//5 5//5
f 8//5 4//5 3//5
f 3//6 4//6 8//6
f 6//6 7//6 2//6
f 2//5 7//5 6//5
f 4//7 9//7 6//7
f 6//8 9//8 4//8
f 8//4 3//4 7//4
f 7//3 3//3 8//3
f 4//9 8//9 9//9
f 9//10 8//10 4//10
f 7//11 6//11 10//11
f 10//12 6//12 7//12
f 11//7 6//7 9//7
f 9//8 6//8 11//8
f 8//13 7//13 12//13
f 12//14 7//14 8//14
f 12//9 9//9 8//9
f 8//10 9//10 12//10
f 11//11 10//11 6//11
f 6//12 10//12 11//12
f 10//13 12//13 7//13
f 7//14 12//14 10//14
f 11//2 9//2 10//2
f 10//1 9//1 11//1
f 12//2 10//2 9//2
f 9//1 10//1 12//1
