# SSTK version 0.8.0
# 20
mtllib original-20.mtl
o mesh35/mesh35-geometry#mesh35-geometry
v 0.460398 -0.431256 0.560708
v 0.460398 -0.435699 0.559535
v 0.460398 -0.435699 0.560708
v 0.460398 -0.431256 0.559535
v 0.461049 -0.435678 0.559535
v 0.461049 -0.435678 0.560708
v 0.461400 -0.431151 0.559535
v 0.461400 -0.431151 0.560708
v 0.462361 -0.435518 0.560708
v 0.462244 -0.430867 0.559535
v 0.462361 -0.435518 0.559535
v 0.462244 -0.430867 0.560708
v 0.463681 -0.435149 0.560708
v 0.463316 -0.430156 0.560708
v 0.463316 -0.430156 0.559535
v 0.463681 -0.435149 0.559535
v 0.464872 -0.434675 0.559535
v 0.464120 -0.429042 0.560708
v 0.464120 -0.429042 0.559535
v 0.464872 -0.434675 0.560708
v 0.466504 -0.433609 0.560708
v 0.464669 -0.427142 0.559535
v 0.464669 -0.427142 0.560708
v 0.466504 -0.433609 0.559535
v 0.469672 -0.393877 0.560708
v 0.464785 -0.425779 0.559535
v 0.464785 -0.425779 0.560708
v 0.469672 -0.393877 0.559535
v 0.467462 -0.432651 0.559535
v 0.464785 -0.393877 0.560708
v 0.467462 -0.432651 0.560708
v 0.468708 -0.430684 0.560708
v 0.464785 -0.393877 0.559535
v 0.468708 -0.430684 0.559535
v 0.469672 -0.425500 0.560708
v 0.469195 -0.429351 0.560708
v 0.469195 -0.429351 0.559535
v 0.469672 -0.425500 0.559535
v 0.469615 -0.426888 0.560708
v 0.469451 -0.428181 0.560708
v 0.469451 -0.428181 0.559535
v 0.469615 -0.426888 0.559535
vt -0.003036 0.000802
vt 0 0
vt 0 0.000802
vt -0.003036 0
vt 0.025833 0
vt 0.025388 0.000802
vt 0.025388 0
vt 0.025846 0.000014
vt 0.025401 0.003036
vt 0.025401 0
vt -0.025579 0.000802
vt -0.026268 0
vt -0.025579 0
vt -0.025401 0.003036
vt -0.025846 0.000014
vt -0.025401 0
vt 0.025833 0.000802
vt 0.026086 0.003108
vt -0.026268 0.000802
vt -0.026086 0.003108
vt 0.025657 0
vt 0.02656 0.000802
vt 0.025657 0.000802
vt 0.026742 0.000124
vt -0.025716 0.000802
vt -0.026324 0
vt -0.025716 0
vt -0.026742 0.000124
vt 0.02656 0
vt 0.026663 0.003302
vt -0.026324 0.000802
vt -0.026663 0.003302
vt 0.025791 0
vt 0.026728 0.000802
vt 0.025791 0.000802
vt 0.027395 0.003788
vt -0.024037 0.000802
vt -0.024916 0
vt -0.024037 0
vt -0.027395 0.003788
vt 0.026728 0
vt 0.027645 0.000376
vt -0.024916 0.000802
vt -0.027645 0.000376
vt 0.026694 0
vt 0.025818 0.000802
vt 0.025818 0
vt 0.027945 0.004549
vt -0.020056 0.000802
vt -0.019117 0
vt -0.019117 0.000802
vt -0.027945 0.004549
vt 0.026694 0.000802
vt -0.028459 0.0007
vt 0.028459 0.0007
vt -0.020056 0
vt 0.024213 0
vt 0.025545 0.000802
vt 0.024213 0.000802
vt -0.02832 0.005848
vt 0.02832 0.005848
vt -0.013478 0.000802
vt -0.012126 0
vt -0.012126 0.000802
vt 0.025545 0
vt 0.031739 0.028582
vt 0.029574 0.001428
vt -0.013478 0
vt -0.028399 0.00678
vt 0.028399 0.00678
vt -0.031739 0.028582
vt -0.029574 0.001428
vt 0.022842 0
vt 0.021916 0.000802
vt 0.021916 0
vt 0.028399 0.028582
vt 0.030228 0.002083
vt -0.00915 0.000802
vt -0.008215 0
vt -0.008215 0.000802
vt -0.00915 0
vt -0.030228 0.002083
vt 0.022842 0.000802
vt -0.031739 0
vt -0.028399 0.000802
vt -0.031739 0.000802
vt 0.03108 0.003427
vt -0.028582 0.000802
vt -0.00678 0
vt -0.00678 0.000802
vt -0.028399 0.028582
vt -0.03108 0.003427
vt 0.019531 0
vt 0.01794 0.000802
vt 0.01794 0
vt -0.028399 0
vt 0.00697 0.000802
vt 0.028582 0
vt 0.028582 0.000802
vt 0.019531 0.000802
vt 0.031413 0.004338
vt -0.028582 0
vt -0.031413 0.004338
vt 0.00697 0
vt 0.0317 0.006022
vt 0.031739 0.00697
vt 0.014844 0
vt 0.013875 0.000802
vt 0.013875 0
vt 0.014844 0.000802
vt 0.031588 0.005138
vt -0.031588 0.005138
vt 0.007317 0.000802
vt 0.008266 0
vt 0.008266 0.000802
vt -0.0317 0.006022
vt -0.031739 0.00697
vt 0.011764 0
vt 0.010946 0.000802
vt 0.010946 0
vt 0.011764 0.000802
vt 0.007317 0
vt 0.009072 0.000802
vt 0.009963 0
vt 0.009963 0.000802
vt 0.009072 0
vn -1 0 0
vn 0.03182198574820866 -0.999493552366918 0
vn 0 0 1
vn -0.10413798521173025 0.9945628587656196 0
vn 0 0 -1
vn 0.12116394017016982 -0.9926325098456323 0
vn -0.31875384273326784 0.9478375323560336 0
vn 0.26889791167175625 -0.9631686836159948 0
vn -0.5532538211095552 0.8330127306516246 0
vn 0.37037096979680423 -0.9288839242509125 0
vn -0.8104838932685987 0.5857609228620277 0
vn 0.5466229197092983 -0.8373788770016127 0
vn -0.9607155634120381 0.27753487387694176 0
vn 0.7073007545065602 -0.7069127546412293 0
vn -0.9964393175204213 0.08431302686677185 0
vn 0 1 0
vn 0.8446817535704696 -0.5352688438393521 0
vn 1 0 0
vn 0.9394004539806904 -0.34282180073745744 0
vn 0.9991585316415504 -0.04101498077410922 0
vn 0.9769378268768631 -0.21352396216142203 0
vn 0.9920509319601891 -0.12583699136947024 0
vn -0.03182198574820866 0.999493552366918 0
vn 0.10413798521173025 -0.9945628587656196 0
vn -0.12116394017016982 0.9926325098456323 0
vn 0.31875384273326784 -0.9478375323560336 0
vn -0.26889791167175625 0.9631686836159948 0
vn 0.5532538211095552 -0.8330127306516246 0
vn -0.37037096979680423 0.9288839242509125 0
vn 0.8104838932685987 -0.5857609228620277 0
vn -0.5466229197092983 0.8373788770016127 0
vn 0.9607155634120381 -0.27753487387694176 0
vn -0.7073007545065602 0.7069127546412293 0
vn 0.9964393175204213 -0.08431302686677185 0
vn 0 -1 0
vn -0.8446817535704696 0.5352688438393521 0
vn -0.9394004539806904 0.34282180073745744 0
vn -0.9991585316415504 0.04101498077410922 0
vn -0.9769378268768631 0.21352396216142203 0
vn -0.9920509319601891 0.12583699136947024 0
usemtl material_0_0
f 1/1/1 2/2/1 3/3/1
f 2/2/1 1/1/1 4/4/1
f 5/5/2 3/6/2 2/7/2
f 6/8/3 1/9/3 3/10/3
f 1/11/4 7/12/4 4/13/4
f 4/14/5 5/15/5 2/16/5
f 3/6/2 5/5/2 6/17/2
f 1/9/3 6/8/3 8/18/3
f 7/12/4 1/11/4 8/19/4
f 5/15/5 4/14/5 7/20/5
f 5/21/6 9/22/6 6/23/6
f 8/18/3 6/8/3 9/24/3
f 8/25/7 10/26/7 7/27/7
f 5/15/5 7/20/5 11/28/5
f 9/22/6 5/21/6 11/29/6
f 8/18/3 9/24/3 12/30/3
f 10/26/7 8/25/7 12/31/7
f 11/28/5 7/20/5 10/32/5
f 11/33/8 13/34/8 9/35/8
f 12/30/3 9/24/3 14/36/3
f 12/37/9 15/38/9 10/39/9
f 11/28/5 10/32/5 15/40/5
f 13/34/8 11/33/8 16/41/8
f 14/36/3 9/24/3 13/42/3
f 15/38/9 12/37/9 14/43/9
f 11/28/5 15/40/5 16/44/5
f 17/45/10 13/46/10 16/47/10
f 14/36/3 13/42/3 18/48/3
f 18/49/11 15/50/11 14/51/11
f 16/44/5 15/40/5 19/52/5
f 13/46/10 17/45/10 20/53/10
f 16/44/5 19/52/5 17/54/5
f 18/48/3 13/42/3 20/55/3
f 15/50/11 18/49/11 19/56/11
f 17/57/12 21/58/12 20/59/12
f 17/54/5 19/52/5 22/60/5
f 18/48/3 20/55/3 23/61/3
f 23/62/13 19/63/13 18/64/13
f 21/58/12 17/57/12 24/65/12
f 25/66/3 20/55/3 21/67/3
f 19/63/13 23/62/13 22/68/13
f 17/54/5 22/60/5 26/69/5
f 23/61/3 20/55/3 27/70/3
f 17/54/5 28/71/5 24/72/5
f 29/73/14 21/74/14 24/75/14
f 30/76/3 20/55/3 25/66/3
f 25/66/3 21/67/3 31/77/3
f 27/78/15 22/79/15 23/80/15
f 22/79/15 27/78/15 26/81/15
f 26/69/5 28/71/5 17/54/5
f 27/70/3 20/55/3 30/76/3
f 24/72/5 28/71/5 29/82/5
f 21/74/14 29/73/14 31/83/14
f 28/84/16 30/85/16 25/86/16
f 25/66/3 31/77/3 32/87/3
f 30/88/1 26/89/1 27/90/1
f 28/71/5 26/69/5 33/91/5
f 29/82/5 28/71/5 34/92/5
f 34/93/17 31/94/17 29/95/17
f 30/85/16 28/84/16 33/96/16
f 35/97/18 28/98/18 25/99/18
f 31/94/17 34/93/17 32/100/17
f 25/66/3 32/87/3 36/101/3
f 26/89/1 30/88/1 33/102/1
f 34/92/5 28/71/5 37/103/5
f 28/98/18 35/97/18 38/104/18
f 25/66/3 39/105/3 35/106/3
f 37/107/19 32/108/19 34/109/19
f 32/108/19 37/107/19 36/110/19
f 25/66/3 36/101/3 40/111/3
f 37/103/5 28/71/5 41/112/5
f 39/113/20 38/114/20 35/115/20
f 42/116/5 28/71/5 38/117/5
f 25/66/3 40/111/3 39/105/3
f 41/118/21 36/119/21 37/120/21
f 36/119/21 41/118/21 40/121/21
f 41/112/5 28/71/5 42/116/5
f 38/114/20 39/113/20 42/122/20
f 40/123/22 42/124/22 39/125/22
f 42/124/22 40/123/22 41/126/22
usemtl material_1_0
f 3//18 2//18 1//18
f 4//18 1//18 2//18
f 2//23 3//23 5//23
f 3//5 1//5 6//5
f 4//24 7//24 1//24
f 2//3 5//3 4//3
f 6//23 5//23 3//23
f 8//5 6//5 1//5
f 8//24 1//24 7//24
f 7//3 4//3 5//3
f 6//25 9//25 5//25
f 9//5 6//5 8//5
f 7//26 10//26 8//26
f 11//3 7//3 5//3
f 11//25 5//25 9//25
f 12//5 9//5 8//5
f 12//26 8//26 10//26
f 10//3 7//3 11//3
f 9//27 13//27 11//27
f 14//5 9//5 12//5
f 10//28 15//28 12//28
f 15//3 10//3 11//3
f 16//27 11//27 13//27
f 13//5 9//5 14//5
f 14//28 12//28 15//28
f 16//3 15//3 11//3
f 16//29 13//29 17//29
f 18//5 13//5 14//5
f 14//30 15//30 18//30
f 19//3 15//3 16//3
f 20//29 17//29 13//29
f 17//3 19//3 16//3
f 20//5 13//5 18//5
f 19//30 18//30 15//30
f 20//31 21//31 17//31
f 22//3 19//3 17//3
f 23//5 20//5 18//5
f 18//32 19//32 23//32
f 24//31 17//31 21//31
f 21//5 20//5 25//5
f 22//32 23//32 19//32
f 26//3 22//3 17//3
f 27//5 20//5 23//5
f 24//3 28//3 17//3
f 24//33 21//33 29//33
f 25//5 20//5 30//5
f 31//5 21//5 25//5
f 23//34 22//34 27//34
f 26//34 27//34 22//34
f 17//3 28//3 26//3
f 30//5 20//5 27//5
f 29//3 28//3 24//3
f 31//33 29//33 21//33
f 25//35 30//35 28//35
f 32//5 31//5 25//5
f 27//18 26//18 30//18
f 33//3 26//3 28//3
f 34//3 28//3 29//3
f 29//36 31//36 34//36
f 33//35 28//35 30//35
f 25//1 28//1 35//1
f 32//36 34//36 31//36
f 36//5 32//5 25//5
f 33//18 30//18 26//18
f 37//3 28//3 34//3
f 38//1 35//1 28//1
f 35//5 39//5 25//5
f 34//37 32//37 37//37
f 36//37 37//37 32//37
f 40//5 36//5 25//5
f 41//3 28//3 37//3
f 35//38 38//38 39//38
f 38//3 28//3 42//3
f 39//5 40//5 25//5
f 37//39 36//39 41//39
f 40//39 41//39 36//39
f 42//3 28//3 41//3
f 42//38 39//38 38//38
f 39//40 42//40 40//40
f 41//40 40//40 42//40
