# SSTK version 0.8.0
# 16
mtllib original-16.mtl
o mesh31/mesh31-geometry#mesh31-geometry
v 0.565477 -0.417099 0.560708
v 0.555368 -0.412433 0.560708
v 0.555368 -0.417099 0.560708
v 0.568296 -0.412433 0.560708
v 0.555368 -0.417099 0.559535
v 0.568296 -0.412433 0.559535
v 0.555368 -0.412433 0.559535
v 0.565477 -0.417099 0.559535
vt 0.097213 0.012711
vt 0.090305 0.0159
vt 0.090305 0.012711
vt 0.09914 0.0159
vt -0.0159 0.000802
vt -0.012711 0
vt -0.012711 0.000802
vt 0.090305 0
vt 0.097213 0.000802
vt 0.090305 0.000802
vt 0.061142 0.000802
vt 0.064868 0
vt 0.064868 0.000802
vt -0.09914 0
vt -0.090305 0.000802
vt -0.09914 0.000802
vt -0.0159 0
vt 0.097213 0
vt 0.061142 0
vt -0.090305 0
vt -0.090305 0.0159
vt -0.097213 0.012711
vt -0.090305 0.012711
vt -0.09914 0.0159
vn 0 0 1
vn -1 0 0
vn 0 -1 0
vn 0.8559702176197559 -0.5170251314471935 0
vn 0 1 0
vn 0 0 -1
vn 1 0 0
vn -0.8559702176197559 0.5170251314471935 0
usemtl material_0_0
f 1/1/1 2/2/1 3/3/1
f 2/2/1 1/1/1 4/4/1
f 2/5/2 5/6/2 3/7/2
f 5/8/3 1/9/3 3/10/3
f 1/11/4 6/12/4 4/13/4
f 6/14/5 2/15/5 4/16/5
f 5/6/2 2/5/2 7/17/2
f 1/9/3 5/8/3 8/18/3
f 6/12/4 1/11/4 8/19/4
f 2/15/5 6/14/5 7/20/5
f 7/21/6 8/22/6 5/23/6
f 8/22/6 7/21/6 6/24/6
usemtl material_1_0
f 3//6 2//6 1//6
f 4//6 1//6 2//6
f 3//7 5//7 2//7
f 3//5 1//5 5//5
f 4//8 6//8 1//8
f 4//3 2//3 6//3
f 7//7 2//7 5//7
f 8//5 5//5 1//5
f 8//8 1//8 6//8
f 7//3 6//3 2//3
f 5//1 8//1 7//1
f 6//1 7//1 8//1
