# SSTK version 0.8.0
# 5
mtllib original-5.mtl
o Group5/mesh11/mesh11-geometry#mesh11-geometry
v -0.661707 0.455474 0.517646
v 0.691876 0.455474 -0.585300
v -0.661707 0.455474 -0.585300
v 0.691876 0.455474 0.517646
v -0.661707 -0.464557 -0.585300
v -0.546259 0.129182 0.517646
v 0.691876 -0.464557 0.517646
v 0.691876 -0.464557 -0.585300
v -0.661707 -0.464557 0.517646
v -0.546259 -0.404325 0.517646
v 0.578005 0.129182 0.517646
v -0.546259 0.129182 -0.529346
v 0.578005 0.129182 -0.529346
v 0.578005 -0.404325 0.517646
v -0.546259 -0.404325 -0.529346
v 0.578005 -0.404325 -0.529346
vn 0 1 0
vn 0 -1 0
vn 0 0 -1
vn 0 0 1
vn -1 0 0
vn 1 0 0
usemtl material_0_0
f 1//1 2//1 3//1
f 2//1 1//1 4//1
f 3//2 2//2 1//2
f 4//2 1//2 2//2
f 2//3 5//3 3//3
f 3//4 5//4 2//4
f 5//5 1//5 3//5
f 3//6 1//6 5//6
f 1//4 6//4 4//4
f 4//3 6//3 1//3
f 7//6 2//6 4//6
f 4//5 2//5 7//5
f 5//3 2//3 8//3
f 8//4 2//4 5//4
f 1//5 5//5 9//5
f 9//6 5//6 1//6
f 6//4 1//4 10//4
f 10//3 1//3 6//3
f 4//4 6//4 11//4
f 11//3 6//3 4//3
f 2//6 7//6 8//6
f 8//5 7//5 2//5
f 4//4 11//4 7//4
f 7//3 11//3 4//3
f 8//2 9//2 5//2
f 5//1 9//1 8//1
f 9//4 10//4 1//4
f 1//3 10//3 9//3
f 10//6 12//6 6//6
f 6//5 12//5 10//5
f 6//2 13//2 11//2
f 11//1 13//1 6//1
f 9//2 8//2 7//2
f 7//1 8//1 9//1
f 14//4 7//4 11//4
f 11//3 7//3 14//3
f 10//4 9//4 7//4
f 7//3 9//3 10//3
f 12//6 10//6 15//6
f 15//5 10//5 12//5
f 13//2 6//2 12//2
f 12//1 6//1 13//1
f 16//5 11//5 13//5
f 13//6 11//6 16//6
f 10//4 7//4 14//4
f 14//3 7//3 10//3
f 11//5 16//5 14//5
f 14//6 16//6 11//6
f 10//1 16//1 15//1
f 15//2 16//2 10//2
f 16//4 12//4 15//4
f 15//3 12//3 16//3
f 12//4 16//4 13//4
f 13//3 16//3 12//3
f 16//1 10//1 14//1
f 14//2 10//2 16//2
