# SSTK version 0.8.0
# 19
mtllib original-19.mtl
o mesh34/mesh34-geometry#mesh34-geometry
v 0.614652 -0.428053 0.560708
v 0.609765 -0.393877 0.560708
v 0.609765 -0.428053 0.560708
v 0.614652 -0.415281 0.560708
v 0.609765 -0.428053 0.559535
v 0.614652 -0.428053 0.559535
v 0.614652 -0.398321 0.560708
v 0.609765 -0.393877 0.559535
v 0.614652 -0.415281 0.559535
v 0.618904 -0.393877 0.560708
v 0.614652 -0.411539 0.560708
v 0.614652 -0.398321 0.559535
v 0.616859 -0.415281 0.560708
v 0.619888 -0.398321 0.560708
v 0.618904 -0.393877 0.559535
v 0.616859 -0.415281 0.559535
v 0.621047 -0.393905 0.560708
v 0.619123 -0.411559 0.560708
v 0.614652 -0.411539 0.559535
v 0.621047 -0.393905 0.559535
v 0.619888 -0.398321 0.559535
v 0.625948 -0.428053 0.559535
v 0.622619 -0.398712 0.560708
v 0.625948 -0.428053 0.560708
v 0.619123 -0.411559 0.559535
v 0.622634 -0.394006 0.560708
v 0.622634 -0.394006 0.559535
v 0.620478 -0.411399 0.560708
v 0.620478 -0.411399 0.559535
v 0.622619 -0.398712 0.559535
v 0.632078 -0.428053 0.560708
v 0.624431 -0.399394 0.560708
v 0.622642 -0.415281 0.560708
v 0.632078 -0.428053 0.559535
v 0.622642 -0.415281 0.559535
v 0.624705 -0.394316 0.560708
v 0.624705 -0.394316 0.559535
v 0.624431 -0.399394 0.559535
v 0.622344 -0.410987 0.560708
v 0.622344 -0.410987 0.559535
v 0.625753 -0.400457 0.560708
v 0.624166 -0.410394 0.560708
v 0.623764 -0.415238 0.560708
v 0.624166 -0.410394 0.559535
v 0.625753 -0.400457 0.559535
v 0.626346 -0.394850 0.560708
v 0.626346 -0.394850 0.559535
v 0.623764 -0.415238 0.559535
v 0.626765 -0.402008 0.559535
v 0.626765 -0.402008 0.560708
v 0.625838 -0.414613 0.560708
v 0.625312 -0.409683 0.559535
v 0.625838 -0.414613 0.559535
v 0.627745 -0.395525 0.560708
v 0.627745 -0.395525 0.559535
v 0.625312 -0.409683 0.560708
v 0.627337 -0.403662 0.559535
v 0.627337 -0.403662 0.560708
v 0.627446 -0.413871 0.560708
v 0.626216 -0.408662 0.560708
v 0.626216 -0.408662 0.559535
v 0.629228 -0.396660 0.560708
v 0.627446 -0.413871 0.559535
v 0.627275 -0.405873 0.559535
v 0.627275 -0.405873 0.560708
v 0.628726 -0.413138 0.560708
v 0.629228 -0.396660 0.559535
v 0.626851 -0.407392 0.560708
v 0.626851 -0.407392 0.559535
v 0.628726 -0.413138 0.559535
v 0.630605 -0.398378 0.560708
v 0.629527 -0.412482 0.560708
v 0.630605 -0.398378 0.559535
v 0.629527 -0.412482 0.559535
v 0.631137 -0.399347 0.560708
v 0.630228 -0.411686 0.560708
v 0.631137 -0.399347 0.559535
v 0.630979 -0.410485 0.560708
v 0.630228 -0.411686 0.559535
v 0.631564 -0.400390 0.560708
v 0.630979 -0.410485 0.559535
v 0.631400 -0.409529 0.560708
v 0.631564 -0.400390 0.559535
v 0.631400 -0.409529 0.559535
v 0.631891 -0.401473 0.560708
v 0.631800 -0.408234 0.560708
v 0.631800 -0.408234 0.559535
v 0.631891 -0.401473 0.559535
v 0.632198 -0.403067 0.560708
v 0.632155 -0.406348 0.560708
v 0.632155 -0.406348 0.559535
v 0.632198 -0.403067 0.559535
v 0.632280 -0.405099 0.560708
v 0.632280 -0.405099 0.559535
vt 0.13082 0.005225
vt 0.127481 0.028582
vt 0.127481 0.005225
vt 0.13082 0.013954
vt -0.028582 0.000802
vt -0.005225 0
vt -0.005225 0.000802
vt 0.127481 0
vt 0.13082 0.000802
vt 0.127481 0.000802
vt 0.013954 0.000802
vt 0.005225 0.000802
vt 0.005225 0
vt 0.13082 0.025545
vt -0.028582 0
vt 0.13082 0
vt 0.013954 0
vt 0.133726 0.028582
vt 0.13082 0.016511
vt -0.133726 0.000802
vt -0.127481 0
vt -0.127481 0.000802
vt -0.127481 0.028582
vt -0.13082 0.025545
vt -0.127481 0.005225
vt -0.13082 0.005225
vt -0.13082 0.013954
vt 0.132329 0.000802
vt 0.134399 0.025545
vt 0.132329 0.013954
vt 0.016511 0.000802
vt 0.025545 0
vt 0.025545 0.000802
vt -0.133726 0
vt -0.133726 0.028582
vt 0.132329 0
vt 0.134399 0.000802
vt 0.135191 0.028563
vt 0.133876 0.016498
vt 0.016511 0
vt -0.133347 0.000802
vt -0.134812 0
vt -0.133347 0
vt -0.134399 0.025545
vt -0.13082 0.016511
vt -0.132329 0.013954
vt 0.076065 0
vt 0.065352 0.000802
vt 0.065352 0
vt 0.134399 0
vt 0.136265 0.025277
vt -0.134812 0.000802
vt 0.13854 0.005225
vt -0.133801 0
vt -0.130745 0.000802
vt -0.133801 0.000802
vt -0.130745 0
vt -0.135191 0.028563
vt -0.133876 0.016498
vt 0.076065 0.000802
vt -0.13854 0.005225
vt 0.129415 0
vt 0.131301 0.000802
vt 0.129415 0.000802
vt 0.136275 0.028494
vt -0.133109 0.000802
vt -0.134196 0
vt -0.133109 0
vt 0.134802 0.016607
vt -0.134887 0.000802
vt -0.13582 0
vt -0.134887 0
vt -0.136265 0.025277
vt 0.13854 0
vt 0.14273 0.000802
vt 0.13854 0.000802
vt -0.134802 0.016607
vt 0.131301 0
vt 0.137504 0.024811
vt -0.134196 0.000802
vt -0.136275 0.028494
vt 0.136281 0.013954
vt -0.13582 0.000802
vt 0.14273 0
vt 0.14273 0.005225
vt -0.136281 0.013954
vt 0.118631 0
vt 0.119955 0.000802
vt 0.118631 0.000802
vt 0.137691 0.028282
vt -0.130541 0.000802
vt -0.131972 0
vt -0.130541 0
vt -0.137504 0.024811
vt 0.136077 0.016888
vt -0.13652 0.000802
vt -0.135215 0
vt -0.135215 0.000802
vt -0.14273 0.005225
vt -0.069757 0
vt -0.080609 0.000802
vt -0.080609 0
vt -0.069757 0.000802
vt -0.136077 0.016888
vt 0.119955 0
vt 0.138407 0.024085
vt -0.131972 0.000802
vt -0.137691 0.028282
vt 0.137322 0.017294
vt -0.13652 0
vt 0.136714 0
vt 0.137481 0.000802
vt 0.136714 0.000802
vt -0.137322 0.017294
vt 0.092757 0
vt 0.091598 0.000802
vt 0.091598 0
vt 0.092757 0.000802
vt 0.138813 0.027917
vt -0.122202 0.000802
vt -0.123381 0
vt -0.122202 0
vt -0.138407 0.024085
vt 0.137048 0.013983
vt -0.135933 0
vt -0.134624 0.000802
vt -0.135933 0.000802
vt -0.134624 0
vt 0.137481 0
vt -0.137048 0.013983
vt 0.056738 0
vt 0.055473 0.000802
vt 0.055473 0
vt 0.139098 0.023025
vt -0.123381 0.000802
vt -0.138813 0.027917
vt 0.138465 0.01441
vt -0.12582 0.000802
vt -0.126742 0
vt -0.12582 0
vt 0.136736 0
vt 0.135256 0.000802
vt 0.135256 0
vt -0.138465 0.01441
vt 0.056738 0.000802
vt -0.139098 0.023025
vt 0.139768 0.027455
vt -0.112865 0.000802
vt -0.113926 0
vt -0.112865 0
vt 0.136736 0.000802
vt 0.138106 0.017779
vt -0.126742 0.000802
vt -0.138106 0.017779
vt 0.024946 0
vt 0.023749 0.000802
vt 0.023749 0
vt -0.139768 0.027455
vt 0.13949 0.021895
vt -0.113926 0.000802
vt 0.131746 0
vt 0.132956 0.000802
vt 0.131746 0.000802
vt 0.138723 0.018478
vt -0.105736 0.000802
vt -0.104804 0
vt -0.104804 0.000802
vt -0.138723 0.018478
vt 0.024946 0.000802
vt -0.13949 0.021895
vt 0.139564 0.014918
vt -0.095587 0.000802
vt -0.094311 0
vt -0.094311 0.000802
vt 0.132956 0
vt -0.105736 0
vt -0.139564 0.014918
vt -0.024318 0
vt -0.02583 0.000802
vt -0.02583 0
vt 0.139447 0.020384
vt 0.140439 0.015419
vt -0.095587 0
vt 0.140782 0.02668
vt 0.128522 0
vt 0.12953 0.000802
vt 0.128522 0.000802
vt 0.139157 0.019345
vt -0.079568 0.000802
vt -0.078597 0
vt -0.078597 0.000802
vt -0.139157 0.019345
vt -0.024318 0.000802
vt -0.139447 0.020384
vt -0.140439 0.015419
vt -0.068744 0.000802
vt -0.067239 0
vt -0.067239 0.000802
vt -0.140782 0.02668
vt 0.140986 0.015866
vt 0.12953 0
vt -0.079568 0
vt -0.056031 0
vt -0.057109 0.000802
vt -0.057109 0
vt -0.056031 0.000802
vt -0.068744 0
vt 0.141723 0.025506
vt -0.140986 0.015866
vt 0.118452 0
vt 0.119159 0.000802
vt 0.118452 0.000802
vt -0.046627 0.000802
vt -0.045871 0
vt -0.045871 0.000802
vt -0.141723 0.025506
vt 0.141466 0.016411
vt 0.119159 0
vt -0.046627 0
vt 0.141978 0.017232
vt 0.142087 0.024843
vt -0.141466 0.016411
vt 0.105109 0.000802
vt 0.105834 0
vt 0.105834 0.000802
vt 0.105109 0
vt -0.031606 0.000802
vt -0.030836 0
vt -0.030836 0.000802
vt -0.141978 0.017232
vt -0.142087 0.024843
vt 0.142266 0.017885
vt 0.089849 0
vt 0.088881 0.000802
vt 0.088881 0
vt 0.089849 0.000802
vt -0.031606 0
vt 0.142378 0.024131
vt -0.142266 0.017885
vt 0.073035 0.000802
vt 0.073748 0
vt 0.073748 0.000802
vt 0.073035 0
vt -0.018753 0.000802
vt -0.017979 0
vt -0.017979 0.000802
vt -0.142378 0.024131
vt 0.14254 0.01877
vt 0.060007 0
vt 0.05908 0.000802
vt 0.05908 0
vt -0.018753 0
vt 0.142602 0.02339
vt -0.14254 0.01877
vt 0.060007 0.000802
vt -0.005137 0.000802
vt -0.004028 0
vt -0.004028 0.000802
vt -0.142602 0.02339
vt 0.142782 0.020059
vt 0.046094 0
vt 0.044783 0.000802
vt 0.044783 0
vt -0.005137 0
vt 0.142811 0.022301
vt -0.142782 0.020059
vt 0.046094 0.000802
vt 0.015135 0.000802
vt 0.016525 0
vt 0.016525 0.000802
vt -0.142811 0.022301
vt 0.142868 0.020913
vt 0.03504 0
vt 0.034182 0.000802
vt 0.034182 0
vt 0.015135 0
vt -0.142868 0.020913
vt 0.03504 0.000802
vn 0 0 1
vn -1 0 0
vn 0 -1 0
vn 1 0 0
vn 0 1 0
vn 0 0 -1
vn 0.012883000137989818 0.9999170107101113 0
vn -0.8147743257631361 -0.5797782318069791 0
vn 0.0044769999023364865 0.9999899781857189 0
vn -0.14186500204136646 -0.9898860142439648 0
vn 0.06337000643205598 0.9979901012960004 0
vn -0.11736498209327396 0.9930888484814668 0
vn -0.35219904556998083 -0.9359251210965513 0
vn 0.1483420177224219 0.988936118148205 0
vn -0.2153999796795977 0.9765259078765033 0
vn 0.8043082976713388 0.5942122199156064 0
vn 0.0381299918891987 -0.9992727874402113 0
vn -0.6267280480612689 -0.7792380597566521 0
vn 0.3091600114852946 0.9510100353300235 0
vn -0.3094568344027294 0.9509134911449314 0
vn -0.8374436081970749 -0.546523744305647 0
vn -0.52699210936036 0.8498701763633777 0
vn 0.2884590685458155 -0.9574922275265113 0
vn 0.43481290946978757 0.9005208125070837 0
vn -0.9449689638261163 -0.3271599874761524 0
vn 0.4193279247706901 -0.9078348371303595 0
vn -0.7491262643648325 0.662427233768956 0
vn 0.6077247807545129 0.7941477134997489 0
vn -0.9996001538504706 0.028276004352016708 0
vn 0.4969756919246156 -0.867764462072543 0
vn -0.8943049576148647 0.4474579787929534 0
vn 0.7802432474834443 0.6254761983932632 0
vn -0.9632125143242924 0.2687408644941718 0
vn 0.6332919718713879 -0.7739129656254956 0
vn 0.8764964818628385 0.4814082646590803 0
vn 0.7503100767207099 -0.661086067597376 0
vn 0.9254633530930259 0.37883714453814216 0
vn 0.8480550968949646 -0.5299080605449139 0
vn 0.9150461839622759 -0.4033490810899124 0
vn 0.9574645663519491 0.2885508693115897 0
vn 0.955445987353717 -0.2951659960931829 0
vn 0.9819181372918037 0.18930602646877048 0
vn 0.9827836814523425 -0.18475994011413985 0
vn 0.9991869393203783 0.04031699755158913 0
vn 0.9950259561531873 -0.09961599561032165 0
vn -0.012883000137989818 -0.9999170107101113 0
vn 0.8147743257631361 0.5797782318069791 0
vn -0.0044769999023364865 -0.9999899781857189 0
vn 0.14186500204136646 0.9898860142439648 0
vn -0.06337000643205598 -0.9979901012960004 0
vn 0.11736498209327396 -0.9930888484814668 0
vn 0.35219904556998083 0.9359251210965513 0
vn -0.1483420177224219 -0.988936118148205 0
vn 0.2153999796795977 -0.9765259078765033 0
vn -0.8043082976713388 -0.5942122199156064 0
vn -0.0381299918891987 0.9992727874402113 0
vn 0.6267280480612689 0.7792380597566521 0
vn -0.3091600114852946 -0.9510100353300235 0
vn 0.3094568344027294 -0.9509134911449314 0
vn 0.8374436081970749 0.546523744305647 0
vn 0.52699210936036 -0.8498701763633777 0
vn -0.2884590685458155 0.9574922275265113 0
vn -0.43481290946978757 -0.9005208125070837 0
vn 0.9449689638261163 0.3271599874761524 0
vn -0.4193279247706901 0.9078348371303595 0
vn 0.7491262643648325 -0.662427233768956 0
vn -0.6077247807545129 -0.7941477134997489 0
vn 0.9996001538504706 -0.028276004352016708 0
vn -0.4969756919246156 0.867764462072543 0
vn 0.8943049576148647 -0.4474579787929534 0
vn -0.7802432474834443 -0.6254761983932632 0
vn 0.9632125143242924 -0.2687408644941718 0
vn -0.6332919718713879 0.7739129656254956 0
vn -0.8764964818628385 -0.4814082646590803 0
vn -0.7503100767207099 0.661086067597376 0
vn -0.9254633530930259 -0.37883714453814216 0
vn -0.8480550968949646 0.5299080605449139 0
vn -0.9150461839622759 0.4033490810899124 0
vn -0.9574645663519491 -0.2885508693115897 0
vn -0.955445987353717 0.2951659960931829 0
vn -0.9819181372918037 -0.18930602646877048 0
vn -0.9827836814523425 0.18475994011413985 0
vn -0.9991869393203783 -0.04031699755158913 0
vn -0.9950259561531873 0.09961599561032165 0
usemtl material_0_0
f 1/1/1 2/2/1 3/3/1
f 2/2/1 1/1/1 4/4/1
f 2/5/2 5/6/2 3/7/2
f 5/8/3 1/9/3 3/10/3
f 4/11/4 1/12/4 6/13/4
f 7/14/1 2/2/1 4/4/1
f 5/6/2 2/5/2 8/15/2
f 1/9/3 5/8/3 6/16/3
f 4/11/4 6/13/4 9/17/4
f 2/2/1 7/14/1 10/18/1
f 4/4/1 11/19/1 7/14/1
f 10/20/5 8/21/5 2/22/5
f 8/23/6 12/24/6 5/25/6
f 6/26/6 5/25/6 9/27/6
f 9/16/3 13/28/3 4/9/3
f 10/18/1 7/14/1 14/29/1
f 11/19/1 4/4/1 13/30/1
f 11/31/4 12/32/4 7/33/4
f 8/21/5 10/20/5 15/34/5
f 12/24/6 8/23/6 15/35/6
f 5/25/6 12/24/6 9/27/6
f 13/28/3 9/16/3 16/36/3
f 12/16/3 14/37/3 7/9/3
f 10/18/1 14/29/1 17/38/1
f 11/19/1 13/30/1 18/39/1
f 12/32/4 11/31/4 19/40/4
f 10/41/7 20/42/7 15/43/7
f 12/24/6 15/35/6 21/44/6
f 19/45/6 9/27/6 12/24/6
f 9/27/6 19/45/6 16/46/6
f 22/47/8 13/48/8 16/49/8
f 14/37/3 12/16/3 21/50/3
f 17/38/1 14/29/1 23/51/1
f 20/42/7 10/41/7 17/52/7
f 18/39/1 13/30/1 24/53/1
f 25/54/9 11/55/9 18/56/9
f 11/55/9 25/54/9 19/57/9
f 21/44/6 15/35/6 20/58/6
f 16/46/6 19/45/6 25/59/6
f 13/48/8 22/47/8 24/60/8
f 16/46/6 25/59/6 22/61/6
f 21/62/10 23/63/10 14/64/10
f 17/38/1 23/51/1 26/65/1
f 17/66/11 27/67/11 20/68/11
f 18/39/1 24/53/1 28/69/1
f 18/70/12 29/71/12 25/72/12
f 21/44/6 20/58/6 30/73/6
f 22/74/3 31/75/3 24/76/3
f 22/61/6 25/59/6 29/77/6
f 23/63/10 21/62/10 30/78/10
f 26/65/1 23/51/1 32/79/1
f 27/67/11 17/66/11 26/80/11
f 30/73/6 20/58/6 27/81/6
f 28/69/1 24/53/1 33/82/1
f 29/71/12 18/70/12 28/83/12
f 31/75/3 22/74/3 34/84/3
f 33/82/1 24/53/1 31/85/1
f 22/61/6 29/77/6 35/86/6
f 30/87/13 32/88/13 23/89/13
f 26/65/1 32/79/1 36/90/1
f 26/91/14 37/92/14 27/93/14
f 30/73/6 27/81/6 38/94/6
f 28/69/1 33/82/1 39/95/1
f 39/96/15 29/97/15 28/98/15
f 22/61/6 35/86/6 34/99/6
f 35/100/16 31/101/16 34/102/16
f 31/101/16 35/100/16 33/103/16
f 35/86/6 29/77/6 40/104/6
f 32/88/13 30/87/13 38/105/13
f 36/90/1 32/79/1 41/106/1
f 37/92/14 26/91/14 36/107/14
f 38/94/6 27/81/6 37/108/6
f 33/82/1 42/109/1 39/95/1
f 29/97/15 39/96/15 40/110/15
f 35/111/17 43/112/17 33/113/17
f 44/114/6 35/86/6 40/104/6
f 45/115/18 32/116/18 38/117/18
f 32/116/18 45/115/18 41/118/18
f 36/90/1 41/106/1 46/119/1
f 36/120/19 47/121/19 37/122/19
f 38/94/6 37/108/6 45/123/6
f 42/109/1 33/82/1 43/124/1
f 44/125/20 39/126/20 42/127/20
f 39/126/20 44/125/20 40/128/20
f 43/112/17 35/111/17 48/129/17
f 35/86/6 44/114/6 48/130/6
f 49/131/21 41/132/21 45/133/21
f 46/119/1 41/106/1 50/134/1
f 47/121/19 36/120/19 46/135/19
f 45/123/6 37/108/6 47/136/6
f 42/109/1 43/124/1 51/137/1
f 42/138/22 52/139/22 44/140/22
f 53/141/23 43/142/23 48/143/23
f 48/130/6 44/114/6 53/144/6
f 41/132/21 49/131/21 50/145/21
f 45/123/6 47/136/6 49/146/6
f 46/119/1 50/134/1 54/147/1
f 46/148/24 55/149/24 47/150/24
f 43/142/23 53/141/23 51/151/23
f 42/109/1 51/137/1 56/152/1
f 52/139/22 42/138/22 56/153/22
f 53/144/6 44/114/6 52/154/6
f 57/155/25 50/156/25 49/157/25
f 49/146/6 47/136/6 55/158/6
f 54/147/1 50/134/1 58/159/1
f 55/149/24 46/148/24 54/160/24
f 53/161/26 59/162/26 51/163/26
f 56/152/1 51/137/1 60/164/1
f 60/165/27 52/166/27 56/167/27
f 53/144/6 52/154/6 61/168/6
f 50/156/25 57/155/25 58/169/25
f 49/146/6 55/158/6 57/170/6
f 54/147/1 58/159/1 59/171/1
f 62/172/28 55/173/28 54/174/28
f 59/162/26 53/161/26 63/175/26
f 60/164/1 51/137/1 59/171/1
f 52/166/27 60/165/27 61/176/27
f 53/144/6 61/168/6 63/177/6
f 64/178/29 58/179/29 57/180/29
f 57/170/6 55/158/6 63/177/6
f 65/181/1 59/171/1 58/159/1
f 54/147/1 59/171/1 66/182/1
f 55/173/28 62/172/28 67/183/28
f 54/147/1 66/182/1 62/184/1
f 63/185/30 66/186/30 59/187/30
f 60/164/1 59/171/1 68/188/1
f 68/189/31 61/190/31 60/191/31
f 63/177/6 61/168/6 69/192/6
f 58/179/29 64/178/29 65/193/29
f 63/177/6 64/194/6 57/170/6
f 63/177/6 55/158/6 70/195/6
f 68/188/1 59/171/1 65/181/1
f 71/196/32 67/197/32 62/198/32
f 70/195/6 55/158/6 67/199/6
f 62/184/1 66/182/1 72/200/1
f 66/186/30 63/185/30 70/201/30
f 61/190/31 68/189/31 69/202/31
f 63/177/6 69/192/6 64/194/6
f 69/203/33 65/204/33 64/205/33
f 65/204/33 69/203/33 68/206/33
f 67/197/32 71/196/32 73/207/32
f 62/184/1 72/200/1 71/208/1
f 70/195/6 67/199/6 74/209/6
f 70/210/34 72/211/34 66/212/34
f 75/213/35 73/214/35 71/215/35
f 74/209/6 67/199/6 73/216/6
f 71/208/1 72/200/1 76/217/1
f 72/211/34 70/210/34 74/218/34
f 73/214/35 75/213/35 77/219/35
f 71/208/1 78/220/1 75/221/1
f 74/209/6 73/216/6 79/222/6
f 72/223/36 79/224/36 76/225/36
f 71/208/1 76/217/1 78/220/1
f 79/224/36 72/223/36 74/226/36
f 80/227/37 77/228/37 75/229/37
f 81/230/6 73/216/6 77/231/6
f 75/221/1 78/220/1 82/232/1
f 79/222/6 73/216/6 81/230/6
f 81/233/38 76/234/38 79/235/38
f 76/234/38 81/233/38 78/236/38
f 77/228/37 80/227/37 83/237/37
f 75/221/1 82/232/1 80/238/1
f 81/230/6 77/231/6 84/239/6
f 78/240/39 84/241/39 82/242/39
f 84/241/39 78/240/39 81/243/39
f 85/244/40 83/245/40 80/246/40
f 84/239/6 77/231/6 83/247/6
f 80/238/1 82/232/1 86/248/1
f 87/249/41 82/250/41 84/251/41
f 83/245/40 85/244/40 88/252/40
f 80/238/1 86/248/1 85/253/1
f 84/239/6 83/247/6 87/254/6
f 82/250/41 87/249/41 86/255/41
f 89/256/42 88/257/42 85/258/42
f 87/254/6 83/247/6 88/259/6
f 85/253/1 86/248/1 90/260/1
f 91/261/43 86/262/43 87/263/43
f 88/257/42 89/256/42 92/264/42
f 85/253/1 90/260/1 89/265/1
f 87/254/6 88/259/6 91/266/6
f 86/262/43 91/261/43 90/267/43
f 93/268/44 92/269/44 89/270/44
f 91/266/6 88/259/6 92/271/6
f 89/265/1 90/260/1 93/272/1
f 94/273/45 90/274/45 91/275/45
f 92/269/44 93/268/44 94/276/44
f 91/266/6 92/271/6 94/277/6
f 90/274/45 94/273/45 93/278/45
usemtl material_1_0
f 3//6 2//6 1//6
f 4//6 1//6 2//6
f 3//4 5//4 2//4
f 3//5 1//5 5//5
f 6//2 1//2 4//2
f 4//6 2//6 7//6
f 8//4 2//4 5//4
f 6//5 5//5 1//5
f 9//2 6//2 4//2
f 10//6 7//6 2//6
f 7//6 11//6 4//6
f 2//3 8//3 10//3
f 5//1 12//1 8//1
f 9//1 5//1 6//1
f 4//5 13//5 9//5
f 14//6 7//6 10//6
f 13//6 4//6 11//6
f 7//2 12//2 11//2
f 15//3 10//3 8//3
f 15//1 8//1 12//1
f 9//1 12//1 5//1
f 16//5 9//5 13//5
f 7//5 14//5 12//5
f 17//6 14//6 10//6
f 18//6 13//6 11//6
f 19//2 11//2 12//2
f 15//46 20//46 10//46
f 21//1 15//1 12//1
f 12//1 9//1 19//1
f 16//1 19//1 9//1
f 16//47 13//47 22//47
f 21//5 12//5 14//5
f 23//6 14//6 17//6
f 17//46 10//46 20//46
f 24//6 13//6 18//6
f 18//48 11//48 25//48
f 19//48 25//48 11//48
f 20//1 15//1 21//1
f 25//1 19//1 16//1
f 24//47 22//47 13//47
f 22//1 25//1 16//1
f 14//49 23//49 21//49
f 26//6 23//6 17//6
f 20//50 27//50 17//50
f 28//6 24//6 18//6
f 25//51 29//51 18//51
f 30//1 20//1 21//1
f 24//5 31//5 22//5
f 29//1 25//1 22//1
f 30//49 21//49 23//49
f 32//6 23//6 26//6
f 26//50 17//50 27//50
f 27//1 20//1 30//1
f 33//6 24//6 28//6
f 28//51 18//51 29//51
f 34//5 22//5 31//5
f 31//6 24//6 33//6
f 35//1 29//1 22//1
f 23//52 32//52 30//52
f 36//6 32//6 26//6
f 27//53 37//53 26//53
f 38//1 27//1 30//1
f 39//6 33//6 28//6
f 28//54 29//54 39//54
f 34//1 35//1 22//1
f 34//55 31//55 35//55
f 33//55 35//55 31//55
f 40//1 29//1 35//1
f 38//52 30//52 32//52
f 41//6 32//6 36//6
f 36//53 26//53 37//53
f 37//1 27//1 38//1
f 39//6 42//6 33//6
f 40//54 39//54 29//54
f 33//56 43//56 35//56
f 40//1 35//1 44//1
f 38//57 32//57 45//57
f 41//57 45//57 32//57
f 46//6 41//6 36//6
f 37//58 47//58 36//58
f 45//1 37//1 38//1
f 43//6 33//6 42//6
f 42//59 39//59 44//59
f 40//59 44//59 39//59
f 48//56 35//56 43//56
f 48//1 44//1 35//1
f 45//60 41//60 49//60
f 50//6 41//6 46//6
f 46//58 36//58 47//58
f 47//1 37//1 45//1
f 51//6 43//6 42//6
f 44//61 52//61 42//61
f 48//62 43//62 53//62
f 53//1 44//1 48//1
f 50//60 49//60 41//60
f 49//1 47//1 45//1
f 54//6 50//6 46//6
f 47//63 55//63 46//63
f 51//62 53//62 43//62
f 56//6 51//6 42//6
f 56//61 42//61 52//61
f 52//1 44//1 53//1
f 49//64 50//64 57//64
f 55//1 47//1 49//1
f 58//6 50//6 54//6
f 54//63 46//63 55//63
f 51//65 59//65 53//65
f 60//6 51//6 56//6
f 56//66 52//66 60//66
f 61//1 52//1 53//1
f 58//64 57//64 50//64
f 57//1 55//1 49//1
f 59//6 58//6 54//6
f 54//67 55//67 62//67
f 63//65 53//65 59//65
f 59//6 51//6 60//6
f 61//66 60//66 52//66
f 63//1 61//1 53//1
f 57//68 58//68 64//68
f 63//1 55//1 57//1
f 58//6 59//6 65//6
f 66//6 59//6 54//6
f 67//67 62//67 55//67
f 62//6 66//6 54//6
f 59//69 66//69 63//69
f 68//6 59//6 60//6
f 60//70 61//70 68//70
f 69//1 61//1 63//1
f 65//68 64//68 58//68
f 57//1 64//1 63//1
f 70//1 55//1 63//1
f 65//6 59//6 68//6
f 62//71 67//71 71//71
f 67//1 55//1 70//1
f 72//6 66//6 62//6
f 70//69 63//69 66//69
f 69//70 68//70 61//70
f 64//1 69//1 63//1
f 64//72 65//72 69//72
f 68//72 69//72 65//72
f 73//71 71//71 67//71
f 71//6 72//6 62//6
f 74//1 67//1 70//1
f 66//73 72//73 70//73
f 71//74 73//74 75//74
f 73//1 67//1 74//1
f 76//6 72//6 71//6
f 74//73 70//73 72//73
f 77//74 75//74 73//74
f 75//6 78//6 71//6
f 79//1 73//1 74//1
f 76//75 79//75 72//75
f 78//6 76//6 71//6
f 74//75 72//75 79//75
f 75//76 77//76 80//76
f 77//1 73//1 81//1
f 82//6 78//6 75//6
f 81//1 73//1 79//1
f 79//77 76//77 81//77
f 78//77 81//77 76//77
f 83//76 80//76 77//76
f 80//6 82//6 75//6
f 84//1 77//1 81//1
f 82//78 84//78 78//78
f 81//78 78//78 84//78
f 80//79 83//79 85//79
f 83//1 77//1 84//1
f 86//6 82//6 80//6
f 84//80 82//80 87//80
f 88//79 85//79 83//79
f 85//6 86//6 80//6
f 87//1 83//1 84//1
f 86//80 87//80 82//80
f 85//81 88//81 89//81
f 88//1 83//1 87//1
f 90//6 86//6 85//6
f 87//82 86//82 91//82
f 92//81 89//81 88//81
f 89//6 90//6 85//6
f 91//1 88//1 87//1
f 90//82 91//82 86//82
f 89//83 92//83 93//83
f 92//1 88//1 91//1
f 93//6 90//6 89//6
f 91//84 90//84 94//84
f 94//83 93//83 92//83
f 94//1 92//1 91//1
f 93//84 94//84 90//84
