# SSTK version 0.8.0
# 13
mtllib original-13.mtl
o mesh28/mesh28-geometry#mesh28-geometry
v 0.472959 -0.428053 0.560708
v 0.477845 -0.423610 0.560708
v 0.472959 -0.393877 0.560708
v 0.491280 -0.428053 0.560708
v 0.477845 -0.408632 0.560708
v 0.472959 -0.428053 0.559535
v 0.491280 -0.423610 0.560708
v 0.477845 -0.398321 0.560708
v 0.477845 -0.413075 0.560708
v 0.472959 -0.393877 0.559535
v 0.491280 -0.428053 0.559535
v 0.491280 -0.423610 0.559535
v 0.477845 -0.423610 0.559535
v 0.491280 -0.393877 0.560708
v 0.477845 -0.398321 0.559535
v 0.477845 -0.413075 0.559535
v 0.491280 -0.413075 0.560708
v 0.491280 -0.393877 0.559535
v 0.491280 -0.398321 0.560708
v 0.477845 -0.408632 0.559535
v 0.491280 -0.413075 0.559535
v 0.491280 -0.408632 0.560708
v 0.491280 -0.408632 0.559535
v 0.491280 -0.398321 0.559535
vt 0.033985 0.005225
vt 0.037325 0.008262
vt 0.033985 0.028582
vt 0.046506 0.005225
vt 0.037325 0.018498
vt -0.028582 0.000802
vt -0.005225 0
vt -0.005225 0.000802
vt 0.033985 0
vt 0.046506 0.000802
vt 0.033985 0.000802
vt 0.046506 0.008262
vt 0.037325 0.025545
vt 0.037325 0.015461
vt -0.028582 0
vt 0.046506 0
vt 0.005225 0.000802
vt 0.008262 0
vt 0.008262 0.000802
vt -0.046506 0.000802
vt -0.037325 0
vt -0.037325 0.000802
vt 0.046506 0.028582
vt 0.018498 0.000802
vt 0.025545 0
vt 0.025545 0.000802
vt 0.015461 0
vt 0.015461 0.000802
vt 0.046506 0.015461
vt -0.033985 0.000802
vt -0.046506 0
vt -0.033985 0
vt -0.033985 0.028582
vt -0.037325 0.025545
vt -0.033985 0.005225
vt -0.037325 0.008262
vt -0.046506 0.005225
vt 0.005225 0
vt 0.046506 0.025545
vt 0.018498 0
vt 0.037325 0
vt 0.037325 0.000802
vt 0.046506 0.018498
vt -0.046506 0.028582
vt -0.037325 0.018498
vt -0.046506 0.008262
vt -0.037325 0.015461
vt 0.028582 0
vt 0.028582 0.000802
vt -0.046506 0.018498
vt -0.046506 0.015461
vt -0.046506 0.025545
vn 0 0 1
vn -1 0 0
vn 0 -1 0
vn 1 0 0
vn 0 1 0
vn 0 0 -1
usemtl material_0_0
f 1/1/1 2/2/1 3/3/1
f 2/2/1 1/1/1 4/4/1
f 5/5/1 3/3/1 2/2/1
f 3/6/2 6/7/2 1/8/2
f 6/9/3 4/10/3 1/11/3
f 2/2/1 4/4/1 7/12/1
f 8/13/1 3/3/1 5/5/1
f 5/5/1 2/2/1 9/14/1
f 6/7/2 3/6/2 10/15/2
f 4/10/3 6/9/3 11/16/3
f 4/17/4 12/18/4 7/19/4
f 7/20/5 13/21/5 2/22/5
f 3/3/1 8/13/1 14/23/1
f 5/24/4 15/25/4 8/26/4
f 2/19/4 16/27/4 9/28/4
f 17/29/1 5/5/1 9/14/1
f 3/30/5 18/31/5 10/32/5
f 10/33/6 15/34/6 6/35/6
f 6/35/6 13/36/6 11/37/6
f 12/18/4 4/17/4 11/38/4
f 13/21/5 7/20/5 12/31/5
f 16/27/4 2/19/4 13/18/4
f 14/23/1 8/13/1 19/39/1
f 18/31/5 3/30/5 14/20/5
f 15/25/4 5/24/4 20/40/4
f 15/41/3 19/10/3 8/42/3
f 21/16/3 9/42/3 16/41/3
f 5/5/1 17/29/1 22/43/1
f 9/42/3 21/16/3 17/10/3
f 15/34/6 10/33/6 18/44/6
f 6/35/6 15/34/6 20/45/6
f 13/36/6 6/35/6 20/45/6
f 11/37/6 13/36/6 12/46/6
f 20/45/6 16/47/6 13/36/6
f 19/26/4 18/48/4 14/49/4
f 5/22/5 23/31/5 20/21/5
f 19/10/3 15/41/3 24/16/3
f 16/47/6 23/50/6 21/51/6
f 17/28/4 23/40/4 22/24/4
f 23/31/5 5/22/5 22/20/5
f 23/40/4 17/28/4 21/27/4
f 15/34/6 18/44/6 24/52/6
f 16/47/6 20/45/6 23/50/6
f 18/48/4 19/26/4 24/25/4
usemtl material_1_0
f 3//6 2//6 1//6
f 4//6 1//6 2//6
f 2//6 3//6 5//6
f 1//4 6//4 3//4
f 1//5 4//5 6//5
f 7//6 4//6 2//6
f 5//6 3//6 8//6
f 9//6 2//6 5//6
f 10//4 3//4 6//4
f 11//5 6//5 4//5
f 7//2 12//2 4//2
f 2//3 13//3 7//3
f 14//6 8//6 3//6
f 8//2 15//2 5//2
f 9//2 16//2 2//2
f 9//6 5//6 17//6
f 10//3 18//3 3//3
f 6//1 15//1 10//1
f 11//1 13//1 6//1
f 11//2 4//2 12//2
f 12//3 7//3 13//3
f 13//2 2//2 16//2
f 19//6 8//6 14//6
f 14//3 3//3 18//3
f 20//2 5//2 15//2
f 8//5 19//5 15//5
f 16//5 9//5 21//5
f 22//6 17//6 5//6
f 17//5 21//5 9//5
f 18//1 10//1 15//1
f 20//1 15//1 6//1
f 20//1 6//1 13//1
f 12//1 13//1 11//1
f 13//1 16//1 20//1
f 14//2 18//2 19//2
f 20//3 23//3 5//3
f 24//5 15//5 19//5
f 21//1 23//1 16//1
f 22//2 23//2 17//2
f 22//3 5//3 23//3
f 21//2 17//2 23//2
f 24//1 18//1 15//1
f 23//1 20//1 16//1
f 24//2 19//2 18//2
