# SSTK version 0.8.0
# 18
mtllib original-18.mtl
o mesh17/mesh17-geometry#mesh17-geometry
v -0.308500 -0.199078 -0.108983
v -0.308121 -0.199366 -0.097970
v -0.310493 -0.199358 -0.098283
v -0.307588 -0.199289 -0.100940
v -0.308121 -0.194930 -0.097854
v -0.308500 -0.194642 -0.108867
v -0.306480 -0.199142 -0.106539
v -0.307455 -0.199345 -0.098782
v -0.310493 -0.194921 -0.098167
v -0.298272 -0.199078 -0.108983
v -0.307588 -0.194852 -0.100824
v -0.305691 -0.199263 -0.101921
v -0.307455 -0.194908 -0.098666
v -0.298272 -0.194642 -0.108867
v -0.298272 -0.199142 -0.106539
v -0.306480 -0.194706 -0.106423
v -0.306578 -0.199328 -0.099427
v -0.306578 -0.194892 -0.099311
v -0.298272 -0.194706 -0.106423
v -0.305691 -0.194826 -0.101805
v -0.305536 -0.199317 -0.099848
v -0.304708 -0.199257 -0.102166
v -0.305536 -0.194881 -0.099732
v -0.304708 -0.194820 -0.102050
v -0.304375 -0.199314 -0.099988
v -0.304375 -0.194877 -0.099872
v -0.303702 -0.199255 -0.102248
v -0.303702 -0.194818 -0.102132
v -0.303440 -0.199316 -0.099909
v -0.303440 -0.194879 -0.099793
v -0.302407 -0.199258 -0.102129
v -0.302407 -0.194821 -0.102013
v -0.302598 -0.199322 -0.099672
v -0.302598 -0.194885 -0.099556
v -0.301218 -0.199267 -0.101775
v -0.301851 -0.199332 -0.099277
v -0.301218 -0.194830 -0.101659
v -0.301851 -0.194896 -0.099161
v -0.300134 -0.199282 -0.101185
v -0.301197 -0.199347 -0.098723
v -0.301197 -0.194910 -0.098607
v -0.300134 -0.194846 -0.101069
v -0.299156 -0.199304 -0.100358
v -0.300666 -0.199365 -0.098033
v -0.300666 -0.194928 -0.097917
v -0.299156 -0.194867 -0.100242
v -0.300059 -0.199410 -0.096307
v -0.300287 -0.199386 -0.097228
v -0.300287 -0.194949 -0.097112
v -0.300059 -0.194973 -0.096191
v -0.298345 -0.194894 -0.099229
v -0.299983 -0.199437 -0.095270
v -0.299983 -0.195000 -0.095154
v -0.298345 -0.199330 -0.099345
v -0.298931 -0.195122 -0.090493
v -0.298931 -0.199559 -0.090609
v -0.297767 -0.194924 -0.098082
v -0.298219 -0.195094 -0.091572
v -0.300011 -0.199588 -0.089503
v -0.300062 -0.199466 -0.094176
v -0.300011 -0.195151 -0.089387
v -0.297767 -0.199360 -0.098198
v -0.298219 -0.199531 -0.091688
v -0.300062 -0.195029 -0.094060
v -0.297419 -0.194957 -0.096799
v -0.297710 -0.195063 -0.092746
v -0.297710 -0.199500 -0.092862
v -0.300299 -0.199491 -0.093196
v -0.301271 -0.199608 -0.088712
v -0.300299 -0.195054 -0.093080
v -0.297419 -0.199394 -0.096915
v -0.300694 -0.199514 -0.092329
v -0.301271 -0.195172 -0.088596
v -0.301246 -0.199534 -0.091576
v -0.300694 -0.195077 -0.092213
v -0.297304 -0.194994 -0.095382
v -0.297405 -0.195030 -0.094016
v -0.297405 -0.199467 -0.094132
v -0.301246 -0.195097 -0.091460
v -0.302712 -0.199621 -0.088238
v -0.301913 -0.199550 -0.090966
v -0.297304 -0.199431 -0.095498
v -0.301913 -0.195113 -0.090850
v -0.302712 -0.195184 -0.088122
v -0.302649 -0.199561 -0.090531
v -0.302649 -0.195124 -0.090415
v -0.304333 -0.199625 -0.088080
v -0.303456 -0.199568 -0.090270
v -0.303456 -0.195131 -0.090154
v -0.304333 -0.195188 -0.087964
v -0.304333 -0.195133 -0.090067
v -0.305672 -0.199622 -0.088179
v -0.304333 -0.199570 -0.090183
v -0.305672 -0.195186 -0.088063
v -0.305738 -0.195127 -0.090314
v -0.306881 -0.199615 -0.088478
v -0.305738 -0.199564 -0.090430
v -0.306881 -0.195178 -0.088362
v -0.306922 -0.195107 -0.091055
v -0.307962 -0.199602 -0.088975
v -0.306922 -0.199544 -0.091171
v -0.307800 -0.195075 -0.092286
v -0.307962 -0.195165 -0.088859
v -0.307800 -0.199512 -0.092402
v -0.308914 -0.199583 -0.089671
v -0.308290 -0.199467 -0.094119
v -0.308290 -0.195030 -0.094003
v -0.308914 -0.195147 -0.089555
v -0.309707 -0.195124 -0.090416
v -0.309707 -0.199561 -0.090532
v -0.310942 -0.195036 -0.093776
v -0.310309 -0.199535 -0.091522
v -0.310309 -0.195098 -0.091406
v -0.310942 -0.199473 -0.093892
v -0.310720 -0.195069 -0.092526
v -0.310720 -0.199506 -0.092642
vn 0 -0.999658412698409 -0.02613537681567324
vn 0 0.999658412698409 0.02613537681567324
vn -0.13075439787340978 -0.025910999138450234 0.9910761361068127
vn 0.13075439787340978 0.025910999138450234 -0.9910761361068127
vn -0.9831144239250067 0.004782561832604716 -0.1829293759157331
vn 0.9831144239250067 -0.004782561832604716 0.1829293759157331
vn 0.7729898972781624 -0.016580762139395164 0.6342016217519256
vn -0.7729898972781624 0.016580762139395164 -0.6342016217519256
vn 0 0.026135376815673243 -0.9996584126984092
vn 0 -0.026135376815673243 0.9996584126984092
vn 0.980973159965688 -0.00507401089261779 0.19407708221321385
vn -0.980973159965688 0.00507401089261779 -0.19407708221321385
vn -0.45916014751999085 0.02321745373231942 -0.888050059834246
vn 0.45916014751999085 -0.02321745373231942 0.888050059834246
vn 0.5925157121153769 -0.021053585228830583 0.8052837248109638
vn -0.5925157121153769 0.021053585228830583 -0.8052837248109638
vn 1 0 0
vn -1 0 0
vn -0.2420255688008722 0.02535836871136204 -0.9699384398934361
vn 0.2420255688008722 -0.02535836871136204 0.9699384398934361
vn 0.37476868924341394 -0.024230587354652524 0.9268016552635315
vn -0.37476868924341394 0.024230587354652524 -0.9268016552635315
vn 0.12002875328570523 -0.025946428907029494 0.9924312979806975
vn -0.12002875328570523 0.025946428907029494 -0.9924312979806975
vn -0.08099505901395512 0.0260495091125654 -0.996374037944747
vn 0.08099505901395512 -0.0260495091125654 0.996374037944747
vn -0.08424537549170191 -0.026042466582970176 0.9961046665097685
vn 0.08424537549170191 0.026042466582970176 -0.9961046665097685
vn 0.09091382799690131 0.026027144026655284 -0.9955185903099779
vn -0.09091382799690131 -0.026027144026655284 0.9955185903099779
vn -0.271346694208614 -0.025154821211282995 0.9621529018362337
vn 0.271346694208614 0.025154821211282995 -0.9621529018362337
vn 0.28568709115729246 0.02504613153820933 -0.9579956039779388
vn -0.28568709115729246 -0.02504613153820933 0.9579956039779388
vn -0.4674993535413201 -0.023103500954448054 0.8836914521947667
vn 0.4674993535413201 0.023103500954448054 -0.8836914521947667
vn 0.47860603239965993 0.022947638726812217 -0.8777298397727625
vn -0.47860603239965993 -0.022947638726812217 0.8777298397727625
vn -0.6461649953743265 -0.019946460663799254 0.7629370468524151
vn 0.6461649953743265 0.019946460663799254 -0.7629370468524151
vn 0.6455103420484131 0.01996093400838796 -0.7634906413454284
vn -0.6455103420484131 -0.01996093400838796 0.7634906413454284
vn -0.7926441915243067 -0.01593433406263877 0.6094762363216129
vn 0.7926441915243067 0.01593433406263877 -0.6094762363216129
vn 0.7808608673269634 0.01632689992208383 -0.624491583783414
vn -0.7808608673269634 -0.01632689992208383 0.624491583783414
vn -0.9047916656211679 -0.011129867416562819 0.4257090178440699
vn 0.9047916656211679 0.011129867416562819 -0.4257090178440699
vn -0.9708243874336665 -0.006267043677918786 0.23970968467624568
vn 0.9708243874336665 0.006267043677918786 -0.23970968467624568
vn -0.9973344262965493 -0.0019069947944175515 0.0729411097707363
vn 0.9973344262965493 0.0019069947944175515 -0.0729411097707363
vn 0.892916711603887 0.011766718626908718 -0.45006809537141806
vn -0.892916711603887 -0.011766718626908718 0.45006809537141806
vn -0.9974105066426576 0.0018796190229311389 -0.07189400719924822
vn 0.9974105066426576 -0.0018796190229311389 0.07189400719924822
vn 0.8345350282313027 -0.014399413559921446 0.550766687031913
vn -0.8345350282313027 0.014399413559921446 -0.550766687031913
vn 0.715944430739294 -0.018246603298843884 0.6979187872248769
vn -0.715944430739294 0.018246603298843884 -0.6979187872248769
vn 0.9652629319901075 0.0068286629439815874 -0.2611911971875365
vn -0.9652629319901075 -0.0068286629439815874 0.2611911971875365
vn 0.9176531894995472 -0.01038573389608616 0.397246473027449
vn -0.9176531894995472 0.01038573389608616 -0.397246473027449
vn 0.5315080592844664 -0.022138055479531894 0.8467638923662519
vn -0.5315080592844664 0.022138055479531894 -0.8467638923662519
vn -0.9720786350792403 0.006132805656525649 -0.2345751818016146
vn 0.9720786350792403 -0.006132805656525649 0.2345751818016146
vn 0.9966844721188893 0.002126472783031038 -0.08133597697571278
vn -0.9966844721188893 -0.002126472783031038 0.08133597697571278
vn 0.9723425377511163 -0.006104162701320393 0.23347961041049142
vn -0.9723425377511163 0.006104162701320393 -0.23347961041049142
vn -0.9101799853801682 0.010825612358816681 -0.41407149181079045
vn 0.9101799853801682 -0.010825612358816681 0.41407149181079045
vn 0.31276329469455016 -0.024824193750532107 0.9495066513176441
vn -0.31276329469455016 0.024824193750532107 -0.9495066513176441
vn -0.8064197097273644 0.015454987780439536 -0.5911416032694196
vn 0.8064197097273644 -0.015454987780439536 0.5911416032694196
vn -0.6748491016984487 0.019286751616874136 -0.7377036743495762
vn 0.6748491016984487 -0.019286751616874136 0.7377036743495762
vn 0.9972404367537027 -0.0019402787052451064 0.07421419420724291
vn -0.9972404367537027 0.0019402787052451064 -0.07421419420724291
vn 0.09707160643730454 -0.026011949888706913 0.9949374260156609
vn -0.09707160643730454 0.026011949888706913 -0.9949374260156609
vn -0.5087831959639098 0.022499807003888973 -0.8606006147973272
vn 0.5087831959639098 -0.022499807003888973 0.8606006147973272
vn -0.3080204232678439 0.024864668125616593 -0.9510547655781454
vn 0.3080204232678439 -0.024864668125616593 0.9510547655781454
vn -0.0741296846842243 -0.026063468197347325 0.9969079623887771
vn 0.0741296846842243 0.026063468197347325 -0.9969079623887771
vn -0.09880140428879002 0.026007500895714776 -0.9947672553958151
vn 0.09880140428879002 -0.026007500895714776 0.9947672553958151
vn -0.23957847249775688 -0.025374236322632505 0.9705453640333794
vn 0.23957847249775688 0.025374236322632505 -0.9705453640333794
vn 0.17315635090802436 0.025740584927419295 -0.9845579213168779
vn -0.17315635090802436 -0.025740584927419295 0.9845579213168779
vn -0.4181513348362436 -0.023740785069358977 0.9080670879945811
vn 0.4181513348362436 0.023740785069358977 -0.9080670879945811
vn 0.5305414271281678 0.022153887589245802 -0.8473694585984854
vn -0.5305414271281678 -0.022153887589245802 0.8473694585984854
vn 0.8140077507431596 0.015180838444174831 -0.5806555983319148
vn -0.8140077507431596 -0.015180838444174831 0.5806555983319148
vn -0.5905232004971794 -0.021091789112028553 0.8067449944726163
vn 0.5905232004971794 0.021091789112028553 -0.8067449944726163
vn 0.9617604368913373 0.007158272266465702 -0.2737985046868288
vn -0.9617604368913373 -0.007158272266465702 0.2737985046868288
vn -0.7358141024113779 -0.017698448146119025 0.6769522668739335
vn 0.7358141024113779 0.017698448146119025 -0.6769522668739335
vn -0.08545368247079613 0.02603977737394535 -0.9960018062968038
vn 0.08545368247079613 -0.02603977737394535 0.9960018062968038
vn -0.8545706855893235 -0.013573018462641763 0.5191576990676401
vn 0.8545706855893235 0.013573018462641763 -0.5191576990676401
vn -0.984671606546242 -0.004558494278969861 0.174358961317023
vn 0.984671606546242 0.004558494278969861 -0.174358961317023
vn -0.9386241063618609 -0.009015181708897011 0.3448238875935858
vn 0.9386241063618609 0.009015181708897011 -0.3448238875935858
usemtl material_0_0
f 1//1 2//1 3//1
f 2//1 1//1 4//1
f 3//2 2//2 1//2
f 4//2 1//2 2//2
f 5//3 3//3 2//3
f 2//4 3//4 5//4
f 3//5 6//5 1//5
f 1//6 6//6 3//6
f 4//1 1//1 7//1
f 7//2 1//2 4//2
f 4//1 8//1 2//1
f 2//2 8//2 4//2
f 3//3 5//3 9//3
f 9//4 5//4 3//4
f 8//7 5//7 2//7
f 2//8 5//8 8//8
f 6//5 3//5 9//5
f 9//6 3//6 6//6
f 6//9 10//9 1//9
f 1//10 10//10 6//10
f 7//1 1//1 10//1
f 10//2 1//2 7//2
f 7//11 11//11 4//11
f 4//12 11//12 7//12
f 8//1 4//1 12//1
f 12//2 4//2 8//2
f 5//2 6//2 9//2
f 9//1 6//1 5//1
f 5//7 8//7 13//7
f 13//8 8//8 5//8
f 10//9 6//9 14//9
f 14//10 6//10 10//10
f 7//1 10//1 15//1
f 15//2 10//2 7//2
f 11//11 7//11 16//11
f 16//12 7//12 11//12
f 11//13 12//13 4//13
f 4//14 12//14 11//14
f 8//1 12//1 17//1
f 17//2 12//2 8//2
f 6//2 5//2 11//2
f 11//1 5//1 6//1
f 8//15 18//15 13//15
f 13//16 18//16 8//16
f 13//2 11//2 5//2
f 5//1 11//1 13//1
f 6//2 16//2 14//2
f 14//1 16//1 6//1
f 19//17 10//17 14//17
f 14//18 10//18 19//18
f 10//17 19//17 15//17
f 15//18 19//18 10//18
f 19//10 7//10 15//10
f 15//9 7//9 19//9
f 7//10 19//10 16//10
f 16//9 19//9 7//9
f 6//2 11//2 16//2
f 16//1 11//1 6//1
f 12//13 11//13 20//13
f 20//14 11//14 12//14
f 17//1 12//1 21//1
f 21//2 12//2 17//2
f 18//15 8//15 17//15
f 17//16 8//16 18//16
f 20//2 13//2 18//2
f 18//1 13//1 20//1
f 11//2 13//2 20//2
f 20//1 13//1 11//1
f 14//2 16//2 19//2
f 19//1 16//1 14//1
f 20//19 22//19 12//19
f 12//20 22//20 20//20
f 21//1 12//1 22//1
f 22//2 12//2 21//2
f 23//21 17//21 21//21
f 21//22 17//22 23//22
f 17//21 23//21 18//21
f 18//22 23//22 17//22
f 20//2 18//2 23//2
f 23//1 18//1 20//1
f 22//19 20//19 24//19
f 24//20 20//20 22//20
f 21//1 22//1 25//1
f 25//2 22//2 21//2
f 21//23 26//23 23//23
f 23//24 26//24 21//24
f 20//2 23//2 24//2
f 24//1 23//1 20//1
f 24//25 27//25 22//25
f 22//26 27//26 24//26
f 25//1 22//1 27//1
f 27//2 22//2 25//2
f 26//23 21//23 25//23
f 25//24 21//24 26//24
f 24//2 23//2 26//2
f 26//1 23//1 24//1
f 27//25 24//25 28//25
f 28//26 24//26 27//26
f 25//1 27//1 29//1
f 29//2 27//2 25//2
f 25//27 30//27 26//27
f 26//28 30//28 25//28
f 24//2 26//2 28//2
f 28//1 26//1 24//1
f 28//29 31//29 27//29
f 27//30 31//30 28//30
f 29//1 27//1 31//1
f 31//2 27//2 29//2
f 30//27 25//27 29//27
f 29//28 25//28 30//28
f 28//2 26//2 30//2
f 30//1 26//1 28//1
f 31//29 28//29 32//29
f 32//30 28//30 31//30
f 29//1 31//1 33//1
f 33//2 31//2 29//2
f 29//31 34//31 30//31
f 30//32 34//32 29//32
f 28//2 30//2 32//2
f 32//1 30//1 28//1
f 32//33 35//33 31//33
f 31//34 35//34 32//34
f 33//1 31//1 36//1
f 36//2 31//2 33//2
f 34//31 29//31 33//31
f 33//32 29//32 34//32
f 32//2 30//2 34//2
f 34//1 30//1 32//1
f 35//33 32//33 37//33
f 37//34 32//34 35//34
f 36//1 31//1 35//1
f 35//2 31//2 36//2
f 38//35 33//35 36//35
f 36//36 33//36 38//36
f 33//35 38//35 34//35
f 34//36 38//36 33//36
f 32//2 34//2 38//2
f 38//1 34//1 32//1
f 32//2 38//2 37//2
f 37//1 38//1 32//1
f 37//37 39//37 35//37
f 35//38 39//38 37//38
f 36//1 35//1 40//1
f 40//2 35//2 36//2
f 36//39 41//39 38//39
f 38//40 41//40 36//40
f 37//2 38//2 41//2
f 41//1 38//1 37//1
f 39//37 37//37 42//37
f 42//38 37//38 39//38
f 40//1 35//1 39//1
f 39//2 35//2 40//2
f 41//39 36//39 40//39
f 40//40 36//40 41//40
f 37//2 41//2 42//2
f 42//1 41//1 37//1
f 42//41 43//41 39//41
f 39//42 43//42 42//42
f 40//1 39//1 44//1
f 44//2 39//2 40//2
f 44//43 41//43 40//43
f 40//44 41//44 44//44
f 42//2 41//2 45//2
f 45//1 41//1 42//1
f 43//41 42//41 46//41
f 46//42 42//42 43//42
f 47//1 39//1 43//1
f 43//2 39//2 47//2
f 44//1 39//1 48//1
f 48//2 39//2 44//2
f 41//43 44//43 45//43
f 45//44 44//44 41//44
f 42//2 45//2 49//2
f 49//1 45//1 42//1
f 42//2 50//2 46//2
f 46//1 50//1 42//1
f 51//45 43//45 46//45
f 46//46 43//46 51//46
f 48//1 39//1 47//1
f 47//2 39//2 48//2
f 47//1 43//1 52//1
f 52//2 43//2 47//2
f 48//47 45//47 44//47
f 44//48 45//48 48//48
f 45//47 48//47 49//47
f 49//48 48//48 45//48
f 42//2 49//2 50//2
f 50//1 49//1 42//1
f 46//2 50//2 53//2
f 53//1 50//1 46//1
f 43//45 51//45 54//45
f 54//46 51//46 43//46
f 46//2 55//2 51//2
f 51//1 55//1 46//1
f 47//49 49//49 48//49
f 48//50 49//50 47//50
f 56//1 52//1 43//1
f 43//2 52//2 56//2
f 52//51 50//51 47//51
f 47//52 50//52 52//52
f 49//49 47//49 50//49
f 50//50 47//50 49//50
f 50//51 52//51 53//51
f 53//52 52//52 50//52
f 53//2 55//2 46//2
f 46//1 55//1 53//1
f 57//53 54//53 51//53
f 51//54 54//54 57//54
f 56//1 43//1 54//1
f 54//2 43//2 56//2
f 51//2 55//2 58//2
f 58//1 55//1 51//1
f 59//1 52//1 56//1
f 56//2 52//2 59//2
f 60//55 53//55 52//55
f 52//56 53//56 60//56
f 53//2 61//2 55//2
f 55//1 61//1 53//1
f 54//53 57//53 62//53
f 62//54 57//54 54//54
f 51//2 58//2 57//2
f 57//1 58//1 51//1
f 56//1 54//1 63//1
f 63//2 54//2 56//2
f 55//57 63//57 58//57
f 58//58 63//58 55//58
f 59//1 60//1 52//1
f 52//2 60//2 59//2
f 56//59 61//59 59//59
f 59//60 61//60 56//60
f 53//55 60//55 64//55
f 64//56 60//56 53//56
f 64//2 61//2 53//2
f 53//1 61//1 64//1
f 61//59 56//59 55//59
f 55//60 56//60 61//60
f 65//61 62//61 57//61
f 57//62 62//62 65//62
f 63//1 54//1 62//1
f 62//2 54//2 63//2
f 57//2 58//2 66//2
f 66//1 58//1 57//1
f 63//57 55//57 56//57
f 56//58 55//58 63//58
f 67//63 58//63 63//63
f 63//64 58//64 67//64
f 59//1 68//1 60//1
f 60//2 68//2 59//2
f 61//65 69//65 59//65
f 59//66 69//66 61//66
f 68//67 64//67 60//67
f 60//68 64//68 68//68
f 70//2 61//2 64//2
f 64//1 61//1 70//1
f 62//61 65//61 71//61
f 71//62 65//62 62//62
f 57//2 66//2 65//2
f 65//1 66//1 57//1
f 63//1 62//1 67//1
f 67//2 62//2 63//2
f 58//63 67//63 66//63
f 66//64 67//64 58//64
f 59//1 72//1 68//1
f 68//2 72//2 59//2
f 69//65 61//65 73//65
f 73//66 61//66 69//66
f 69//1 74//1 59//1
f 59//2 74//2 69//2
f 64//67 68//67 70//67
f 70//68 68//68 64//68
f 75//2 61//2 70//2
f 70//1 61//1 75//1
f 76//69 71//69 65//69
f 65//70 71//70 76//70
f 67//1 62//1 71//1
f 71//2 62//2 67//2
f 65//2 66//2 77//2
f 77//1 66//1 65//1
f 78//71 66//71 67//71
f 67//72 66//72 78//72
f 59//1 74//1 72//1
f 72//2 74//2 59//2
f 72//73 70//73 68//73
f 68//74 70//74 72//74
f 79//2 73//2 61//2
f 61//1 73//1 79//1
f 73//75 80//75 69//75
f 69//76 80//76 73//76
f 69//1 81//1 74//1
f 74//2 81//2 69//2
f 79//2 61//2 75//2
f 75//1 61//1 79//1
f 70//73 72//73 75//73
f 75//74 72//74 70//74
f 71//69 76//69 82//69
f 82//70 76//70 71//70
f 65//2 77//2 76//2
f 76//1 77//1 65//1
f 67//1 71//1 78//1
f 78//2 71//2 67//2
f 66//71 78//71 77//71
f 77//72 78//72 66//72
f 74//77 75//77 72//77
f 72//78 75//78 74//78
f 83//2 73//2 79//2
f 79//1 73//1 83//1
f 80//75 73//75 84//75
f 84//76 73//76 80//76
f 80//1 85//1 69//1
f 69//2 85//2 80//2
f 69//1 85//1 81//1
f 81//2 85//2 69//2
f 83//79 74//79 81//79
f 81//80 74//80 83//80
f 75//77 74//77 79//77
f 79//78 74//78 75//78
f 77//81 82//81 76//81
f 76//82 82//82 77//82
f 78//1 71//1 82//1
f 82//2 71//2 78//2
f 82//81 77//81 78//81
f 78//82 77//82 82//82
f 86//2 73//2 83//2
f 83//1 73//1 86//1
f 74//79 83//79 79//79
f 79//80 83//80 74//80
f 86//2 84//2 73//2
f 73//1 84//1 86//1
f 84//83 87//83 80//83
f 80//84 87//84 84//84
f 80//1 88//1 85//1
f 85//2 88//2 80//2
f 86//85 81//85 85//85
f 85//86 81//86 86//86
f 81//85 86//85 83//85
f 83//86 86//86 81//86
f 89//2 84//2 86//2
f 86//1 84//1 89//1
f 87//83 84//83 90//83
f 90//84 84//84 87//84
f 87//1 88//1 80//1
f 80//2 88//2 87//2
f 89//87 85//87 88//87
f 88//88 85//88 89//88
f 85//87 89//87 86//87
f 86//88 89//88 85//88
f 91//2 84//2 89//2
f 89//1 84//1 91//1
f 91//2 90//2 84//2
f 84//1 90//1 91//1
f 90//89 92//89 87//89
f 87//90 92//90 90//90
f 87//1 93//1 88//1
f 88//2 93//2 87//2
f 88//91 91//91 89//91
f 89//92 91//92 88//92
f 91//2 94//2 90//2
f 90//1 94//1 91//1
f 92//89 90//89 94//89
f 94//90 90//90 92//90
f 92//1 93//1 87//1
f 87//2 93//2 92//2
f 91//91 88//91 93//91
f 93//92 88//92 91//92
f 95//2 94//2 91//2
f 91//1 94//1 95//1
f 94//93 96//93 92//93
f 92//94 96//94 94//94
f 92//1 97//1 93//1
f 93//2 97//2 92//2
f 93//95 95//95 91//95
f 91//96 95//96 93//96
f 95//2 98//2 94//2
f 94//1 98//1 95//1
f 96//93 94//93 98//93
f 98//94 94//94 96//94
f 96//1 97//1 92//1
f 92//2 97//2 96//2
f 95//95 93//95 97//95
f 97//96 93//96 95//96
f 99//2 98//2 95//2
f 95//1 98//1 99//1
f 98//97 100//97 96//97
f 96//98 100//98 98//98
f 96//1 101//1 97//1
f 97//2 101//2 96//2
f 97//99 99//99 95//99
f 95//100 99//100 97//100
f 102//2 98//2 99//2
f 99//1 98//1 102//1
f 100//97 98//97 103//97
f 103//98 98//98 100//98
f 100//1 104//1 96//1
f 96//2 104//2 100//2
f 96//1 104//1 101//1
f 101//2 104//2 96//2
f 99//99 97//99 101//99
f 101//100 97//100 99//100
f 102//2 103//2 98//2
f 98//1 103//1 102//1
f 99//101 104//101 102//101
f 102//102 104//102 99//102
f 103//103 105//103 100//103
f 100//104 105//104 103//104
f 100//1 106//1 104//1
f 104//2 106//2 100//2
f 104//101 99//101 101//101
f 101//102 99//102 104//102
f 107//2 103//2 102//2
f 102//1 103//1 107//1
f 106//105 102//105 104//105
f 104//106 102//106 106//106
f 105//103 103//103 108//103
f 108//104 103//104 105//104
f 105//1 106//1 100//1
f 100//2 106//2 105//2
f 107//2 108//2 103//2
f 103//1 108//1 107//1
f 102//105 106//105 107//105
f 107//106 106//106 102//106
f 109//107 105//107 108//107
f 108//108 105//108 109//108
f 110//1 106//1 105//1
f 105//2 106//2 110//2
f 107//2 109//2 108//2
f 108//1 109//1 107//1
f 106//109 111//109 107//109
f 107//110 111//110 106//110
f 105//107 109//107 110//107
f 110//108 109//108 105//108
f 112//1 106//1 110//1
f 110//2 106//2 112//2
f 107//2 113//2 109//2
f 109//1 113//1 107//1
f 111//109 106//109 114//109
f 114//110 106//110 111//110
f 115//2 107//2 111//2
f 111//1 107//1 115//1
f 113//111 110//111 109//111
f 109//112 110//112 113//112
f 116//1 106//1 112//1
f 112//2 106//2 116//2
f 110//111 113//111 112//111
f 112//112 113//112 110//112
f 107//2 115//2 113//2
f 113//1 115//1 107//1
f 106//1 116//1 114//1
f 114//2 116//2 106//2
f 116//113 111//113 114//113
f 114//114 111//114 116//114
f 111//113 116//113 115//113
f 115//114 116//114 111//114
f 112//115 115//115 116//115
f 116//116 115//116 112//116
f 115//115 112//115 113//115
f 113//116 112//116 115//116
