# SSTK version 0.8.0
# 43
mtllib original-43.mtl
o mesh57/mesh57-geometry#mesh57-geometry
v 0.704845 -0.170841 -0.222517
v 0.712707 -0.170841 -0.222517
v 0.708776 -0.171393 -0.222530
v 0.701182 -0.169223 -0.222480
v 0.716371 -0.169223 -0.222480
v 0.698037 -0.166649 -0.222420
v 0.719516 -0.166649 -0.222420
v 0.695623 -0.163294 -0.222342
v 0.721930 -0.163294 -0.222342
v 0.694105 -0.159387 -0.222251
v 0.723447 -0.159387 -0.222251
v 0.693588 -0.155194 -0.222154
v 0.723965 -0.155194 -0.222154
v 0.694105 -0.151002 -0.222057
v 0.723447 -0.151002 -0.222057
v 0.695623 -0.147095 -0.221966
v 0.721930 -0.147095 -0.221966
v 0.698037 -0.143740 -0.221888
v 0.719516 -0.143740 -0.221888
v 0.701182 -0.141166 -0.221828
v 0.716371 -0.141166 -0.221828
v 0.712707 -0.139548 -0.221791
v 0.704845 -0.139548 -0.221791
v 0.708776 -0.138996 -0.221778
vn 0 0.023204993683764233 -0.9997307278803309
vn 0 -0.023204993683764233 0.9997307278803309
usemtl material_0_0
f 1//1 2//1 3//1
f 2//1 1//1 4//1
f 2//1 4//1 5//1
f 5//1 4//1 6//1
f 5//1 6//1 7//1
f 7//1 6//1 8//1
f 7//1 8//1 9//1
f 9//1 8//1 10//1
f 9//1 10//1 11//1
f 11//1 10//1 12//1
f 11//1 12//1 13//1
f 13//1 12//1 14//1
f 13//1 14//1 15//1
f 15//1 14//1 16//1
f 15//1 16//1 17//1
f 17//1 16//1 18//1
f 17//1 18//1 19//1
f 19//1 18//1 20//1
f 19//1 20//1 21//1
f 21//1 20//1 22//1
f 22//1 20//1 23//1
f 22//1 23//1 24//1
usemtl material_1_0
f 3//2 2//2 1//2
f 4//2 1//2 2//2
f 5//2 4//2 2//2
f 6//2 4//2 5//2
f 7//2 6//2 5//2
f 8//2 6//2 7//2
f 9//2 8//2 7//2
f 10//2 8//2 9//2
f 11//2 10//2 9//2
f 12//2 10//2 11//2
f 13//2 12//2 11//2
f 14//2 12//2 13//2
f 15//2 14//2 13//2
f 16//2 14//2 15//2
f 17//2 16//2 15//2
f 18//2 16//2 17//2
f 19//2 18//2 17//2
f 20//2 18//2 19//2
f 21//2 20//2 19//2
f 22//2 20//2 21//2
f 23//2 20//2 22//2
f 24//2 23//2 22//2
