# SSTK version 0.8.0
# 7
mtllib original-7.mtl
o #ID36
v -0.359876 -0.692255 -0.249476
v -0.380529 -0.696606 -0.135900
v -0.404519 -0.692255 -0.142386
v -0.338384 -0.696606 -0.237002
v -0.395072 -0.696606 -0.027335
v -0.419922 -0.692255 -0.027391
v -0.378812 -0.679719 -0.260465
v -0.425653 -0.679719 -0.148100
v -0.289039 -0.692255 -0.341362
v -0.271506 -0.696606 -0.323751
v -0.381021 -0.696606 0.081295
v -0.339333 -0.696606 0.182587
v -0.272848 -0.696606 0.269637
v -0.184456 -0.696606 -0.390235
v -0.186099 -0.696606 0.336514
v -0.083165 -0.696606 -0.431923
v -0.084998 -0.696606 0.378660
v 0.025465 -0.696606 -0.445975
v 0.023568 -0.696606 0.393203
v 0.132198 -0.696606 0.379151
v 0.134031 -0.696606 -0.431432
v 0.235132 -0.696606 -0.389286
v 0.233489 -0.696606 0.337463
v 0.321882 -0.696606 -0.322409
v 0.320540 -0.696606 0.270979
v 0.387417 -0.696606 0.184230
v 0.388366 -0.696606 -0.235358
v 0.429563 -0.696606 0.083128
v 0.430054 -0.696606 -0.134067
v 0.444105 -0.696606 -0.025437
v -0.405039 -0.692255 0.087673
v -0.441816 -0.679719 -0.027440
v -0.441419 -0.660490 -0.152363
v -0.392937 -0.660490 -0.268663
v -0.304485 -0.679719 -0.356878
v -0.196833 -0.692255 -0.411784
v -0.198573 -0.692255 0.358007
v -0.290460 -0.692255 0.287169
v -0.360881 -0.692255 0.194963
v -0.089542 -0.692255 -0.455941
v 0.025522 -0.692255 -0.470825
v 0.140517 -0.692255 -0.455421
v 0.247606 -0.692255 -0.410779
v 0.339493 -0.692255 -0.339941
v 0.409914 -0.692255 -0.247735
v 0.454072 -0.692255 -0.140444
v 0.468956 -0.692255 -0.025381
v 0.453552 -0.692255 0.089614
v 0.408909 -0.692255 0.196704
v 0.338072 -0.692255 0.288591
v 0.245866 -0.692255 0.359012
v 0.138575 -0.692255 0.403170
v 0.023511 -0.692255 0.418053
v -0.091483 -0.692255 0.402649
v -0.426199 -0.679719 0.093292
v -0.458147 -0.660490 -0.027477
v -0.449939 -0.636856 -0.154667
v -0.400571 -0.636856 -0.273093
v -0.316007 -0.660490 -0.368452
v -0.207737 -0.679719 -0.430769
v -0.209563 -0.679719 0.376943
v -0.305976 -0.679719 0.302616
v -0.379867 -0.679719 0.205867
v -0.095161 -0.679719 -0.477101
v 0.025571 -0.679719 -0.492718
v 0.146231 -0.679719 -0.476555
v 0.258596 -0.679719 -0.429714
v 0.355009 -0.679719 -0.355387
v 0.428900 -0.679719 -0.258639
v 0.475232 -0.679719 -0.146063
v 0.490849 -0.679719 -0.025331
v 0.474686 -0.679719 0.095329
v 0.427845 -0.679719 0.207694
v 0.353518 -0.679719 0.304107
v 0.256770 -0.679719 0.377997
v 0.144194 -0.679719 0.424330
v 0.023462 -0.679719 0.439947
v -0.097198 -0.679719 0.423784
v -0.441984 -0.660490 0.097483
v -0.466974 -0.636856 -0.027497
v -0.661974 0.542831 -0.211995
v -0.590543 0.542831 -0.383348
v -0.322234 -0.636856 -0.374708
v -0.215870 -0.660490 -0.444931
v -0.217761 -0.660490 0.391068
v -0.317550 -0.660490 0.314137
v -0.394028 -0.660490 0.214001
v -0.099352 -0.660490 -0.492886
v 0.025608 -0.660490 -0.509050
v 0.150493 -0.660490 -0.492321
v 0.266794 -0.660490 -0.443839
v 0.366583 -0.660490 -0.366909
v 0.443062 -0.660490 -0.266773
v 0.491016 -0.660490 -0.150254
v 0.507181 -0.660490 -0.025294
v 0.490452 -0.660490 0.099591
v 0.441970 -0.660490 0.215892
v 0.365040 -0.660490 0.315681
v 0.264903 -0.660490 0.392159
v 0.148385 -0.660490 0.440114
v 0.023425 -0.660490 0.456278
v -0.101460 -0.660490 0.439549
v -0.450514 -0.636856 0.099748
v -0.686622 0.542831 -0.027994
v -0.477197 0.542831 -0.530374
v -0.220266 -0.636856 -0.452585
v -0.222191 -0.636856 0.398702
v -0.323806 -0.636856 0.320365
v -0.401682 -0.636856 0.218397
v -0.101617 -0.636856 -0.501417
v 0.025628 -0.636856 -0.517876
v 0.152797 -0.636856 -0.500841
v 0.271224 -0.636856 -0.451473
v 0.372839 -0.636856 -0.373136
v 0.450716 -0.636856 -0.271168
v 0.499547 -0.636856 -0.152519
v 0.516007 -0.636856 -0.025274
v 0.498972 -0.636856 0.101895
v 0.449604 -0.636856 0.220322
v 0.371267 -0.636856 0.321936
v 0.269299 -0.636856 0.399813
v 0.150650 -0.636856 0.448645
v 0.023405 -0.636856 0.465105
v -0.103764 -0.636856 0.448070
v -0.662807 0.542831 0.156117
v -0.329660 0.542831 -0.643054
v -0.332445 0.542831 0.588674
v -0.479471 0.542831 0.475328
v -0.592151 0.542831 0.327791
v -0.157986 0.542831 -0.713709
v 0.026125 0.542831 -0.737524
v 0.210126 0.542831 -0.712876
v 0.381478 0.542831 -0.641445
v 0.528504 0.542831 -0.528099
v 0.641184 0.542831 -0.380562
v 0.711840 0.542831 -0.208889
v 0.735655 0.542831 -0.024778
v 0.711007 0.542831 0.159224
v 0.639576 0.542831 0.330576
v 0.526230 0.542831 0.477602
v 0.378693 0.542831 0.590282
v 0.207019 0.542831 0.660937
v 0.022908 0.542831 0.684753
v -0.161093 0.542831 0.660105
vn -0.30475453984991663 -0.9358641020905035 -0.1768701581929553
vn -0.0904628915484358 -0.9955994326144454 -0.024458843604929784
vn -0.3401476179175659 -0.9358641099812106 -0.09196719890309824
vn -0.08105002848128892 -0.9955994325034188 -0.0470389506903868
vn -0.09371085944906735 -0.9955994324600252 -0.00021191175689291804
vn -0.3523602149294998 -0.935864116224564 -0.000796804902382753
vn -0.5599849053450199 -0.7620978614990025 -0.324998085047245
vn -0.6250195596857591 -0.7620978760714556 -0.16898928160565718
vn -0.2485928765365482 -0.9358641134017072 -0.24971972886041874
vn -0.06611374150484386 -0.9955994322521504 -0.06641342999293368
vn -0.09057258513387287 -0.9955994326144433 0.02404946153172107
vn -0.08126194023823223 -0.9955994325034152 0.046671908763151304
vn -0.0664134299925888 -0.9955994322521452 0.0661137415052711
vn -0.046671908762724056 -0.9955994325034069 -0.0812619402385771
vn -0.047038950690041915 -0.9955994325034003 0.08105002848171616
vn -0.02404946153129384 -0.9955994326144223 -0.09057258513421775
vn -0.024458843604584897 -0.995599432614415 0.09046289154886303
vn 0.0002119117573204785 -0.9955994324599928 -0.09371085944941224
vn -0.0002119117565533245 -0.9955994324599852 0.09371085944949456
vn 0.024049461532065962 -0.9955994326143962 0.0905725851343001
vn 0.024458843605357015 -0.9955994326144035 -0.09046289154878068
vn 0.04703895069081405 -0.9955994325033707 -0.08105002848163384
vn 0.04667190876349619 -0.9955994325033641 0.08126194023865947
vn 0.06641342999336092 -0.9955994322520991 -0.06611374150518877
vn 0.06611374150561598 -0.9955994322520936 0.06641342999301601
vn 0.08105002848206104 -0.995599432503352 0.04703895069046915
vn 0.08126194023900433 -0.9955994325033558 -0.04667190876306894
vn 0.09046289154920792 -0.9955994326143731 0.024458843605012128
vn 0.09057258513464497 -0.9955994326143751 -0.024049461531638727
vn 0.09371085944983946 -0.9955994324599526 0.00021191175697581638
vn -0.34056007453109355 -0.9358641099812033 0.09042788997022026
vn -0.647460216445125 -0.7620978444125099 -0.0014641252125434606
vn -0.8359911766844733 -0.5000289096305937 -0.22603062190630063
vn -0.7490044641555421 -0.5000288931949904 -0.4346992277946463
vn -0.45678817572622565 -0.7620978937902152 -0.458858761273254
vn -0.175490051414925 -0.9358641020904588 -0.3055513447406283
vn -0.17687015819263108 -0.935864102090434 0.3047545398503182
vn -0.24971972886009453 -0.9358641134016871 0.24859287653694984
vn -0.30555134474030404 -0.9358641020904893 0.17549005141532656
vn -0.09042788996981867 -0.935864109981124 -0.34056007453141773
vn 0.0007968049027561015 -0.9358641162244414 -0.35236021492982406
vn 0.09196719890349983 -0.9358641099810533 -0.3401476179178901
vn 0.17687015819335686 -0.9358641020903222 -0.3047545398502408
vn 0.2497197288608203 -0.9358641134015139 -0.2485928765368724
vn 0.30555134474102985 -0.9358641020902668 -0.17549005141524915
vn 0.34056007453181936 -0.9358641099809465 -0.09042788997014287
vn 0.3523602149302256 -0.9358641162242907 0.0007968049024780254
vn 0.34014761791829173 -0.9358641099809392 0.09196719890317563
vn 0.3047545398506424 -0.9358641020902526 0.17687015819303264
vn 0.248592876537274 -0.9358641134014938 0.2497197288604961
vn 0.17549005141565074 -0.9358641020902974 0.3055513447407056
vn 0.09042788997054446 -0.9358641099810258 0.3405600745314951
vn -0.0007968049020418531 -0.935864116224413 0.35236021492990144
vn -0.09196719890277405 -0.9358641099810966 0.3401476179179676
vn -0.6257774467115671 -0.762097876071442 0.16616080908128886
vn -0.8660065119097414 -0.5000288854318907 -0.0019583318574966416
vn -0.9306604952891043 -0.26562194721633986 -0.2516267546689722
vn -0.8338232305177933 -0.2656219724290511 -0.48392539508871746
vn -0.6109743286222995 -0.5000288823987574 -0.613743828100601
vn -0.3224621459141439 -0.7620978614989202 -0.5614490305906832
vn -0.324998085046981 -0.7620978614988748 0.5599849053453468
vn -0.45885876127298997 -0.7620978937901781 0.45678817572655267
vn -0.5614490305904192 -0.7620978614989763 0.322462145914471
vn -0.16616080908096184 -0.7620978760712968 -0.6257774467118312
vn 0.001464125212886445 -0.7620978444122849 -0.6474602164453889
vn 0.16898928160598423 -0.7620978760711665 -0.625019559686023
vn 0.324998085047572 -0.7620978614986691 -0.5599849053452838
vn 0.458858761273581 -0.7620978937898599 -0.4567881757264896
vn 0.5614490305910103 -0.7620978614985675 -0.3224621459144079
vn 0.6257774467121582 -0.7620978760709706 -0.16616080908122582
vn 0.6474602164457159 -0.7620978444120076 0.001464125212612374
vn 0.62501955968635 -0.7620978760709569 0.1689892816057202
vn 0.559984905345611 -0.7620978614985414 0.3249980850473081
vn 0.4567881757268167 -0.7620978937898228 0.45885876127331704
vn 0.32246214591473493 -0.7620978614986237 0.5614490305907462
vn 0.1661608090815529 -0.762097876071116 0.6257774467118943
vn -0.0014641252122870648 -0.7620978444122325 0.6474602164454519
vn -0.16898928160539317 -0.762097876071246 0.625019559686086
vn -0.83700488402891 -0.5000289096305757 0.22224741538521503
vn -0.9640748011587494 -0.26562195870596617 -0.0021800972280956836
vn -0.9490280051204171 -0.18304635070388417 -0.2565928272402642
vn -0.850279526474278 -0.18304633940890064 -0.49347620458101027
vn -0.6801622681889071 -0.2656219574086624 -0.6832453912574252
vn -0.43130729756013514 -0.5000288931948803 -0.7509627960436361
vn -0.4346992277944732 -0.5000288931948196 0.7490044641557568
vn -0.6137438281004277 -0.5000288823987078 0.610974328622514
vn -0.7509627960434629 -0.5000288931949554 0.4313072975603497
vn -0.22224741538500048 -0.5000289096303812 -0.8370048840290834
vn 0.001958331857756599 -0.5000288854315899 -0.8660065119099144
vn 0.22603062190651524 -0.5000289096302072 -0.8359911766846467
vn 0.434699227794861 -0.5000288931945445 -0.7490044641557154
vn 0.6137438281008155 -0.5000288823982824 -0.6109743286224727
vn 0.7509627960438507 -0.5000288931944087 -0.43130729756030833
vn 0.837004884029298 -0.500028909629945 -0.22224741538517373
vn 0.8660065119101292 -0.5000288854312189 0.001958331857517095
vn 0.8359911766848612 -0.5000289096299267 0.22603062190634204
vn 0.74900446415593 -0.5000288931943736 0.4346992277946877
vn 0.6109743286226873 -0.5000288823982328 0.6137438281006423
vn 0.4313072975605229 -0.5000288931944837 0.7509627960436775
vn 0.22224741538538828 -0.5000289096301396 0.8370048840291248
vn -0.0019583318573701985 -0.5000288854315197 0.8660065119099558
vn -0.2260306219061275 -0.5000289096303133 0.835991176684688
vn -0.9317889967588163 -0.26562194721631965 0.24741513024916142
vn -0.9831017717461507 -0.18304634416184332 -0.002223123605085525
vn -0.6935859430484999 -0.18304634852469778 -0.6967299145991208
vn -0.48014935587831764 -0.26562197242892854 -0.8360033276324935
vn -0.4839253950886254 -0.26562197242886093 0.8338232305179072
vn -0.6832453912573331 -0.2656219574086072 0.6801622681890211
vn -0.8360033276324014 -0.2656219724290121 0.4801493558784316
vn -0.2474151302490474 -0.265621947216103 -0.9317889967589083
vn 0.0021800972281686573 -0.2656219587056312 -0.9640748011588415
vn 0.2516267546690862 -0.2656219472159094 -0.9306604952891963
vn 0.4839253950888314 -0.26562197242855456 -0.8338232305178853
vn 0.6832453912575391 -0.26562195740813355 -0.6801622681889993
vn 0.8360033276326074 -0.26562197242840346 -0.4801493558784097
vn 0.9317889967590223 -0.26562194721561744 -0.24741513024913941
vn 0.9640748011589553 -0.26562195870521826 0.0021800972281213055
vn 0.9306604952893102 -0.26562194721559723 0.2516267546689942
vn 0.8338232305179992 -0.26562197242836444 0.4839253950887394
vn 0.6801622681891132 -0.2656219574080784 0.6832453912574471
vn 0.48014935587852364 -0.265621972428487 0.8360033276325154
vn 0.24741513024925343 -0.2656219472158341 0.9317889967589301
vn -0.0021800972279638646 -0.2656219587055532 0.9640748011588633
vn -0.2516267546688802 -0.2656219472160276 0.9306604952892182
vn -0.95017877854568 -0.1830463507038636 0.2522980822270309
vn -0.4896256416380278 -0.18304633940877565 -0.8525026502478434
vn -0.4934762045809469 -0.1830463394087067 0.8502795264743567
vn -0.6967299145990574 -0.18304634852464152 0.6935859430485783
vn -0.85250265024778 -0.18304633940886086 0.4896256416381063
vn -0.2522980822269523 -0.1830463507036427 -0.9501787785457435
vn 0.002223123605165756 -0.1830463441615018 -0.983101771746214
vn 0.25659282724034277 -0.1830463507034453 -0.9490280051204805
vn 0.4934762045810888 -0.18304633940839432 -0.8502795264743414
vn 0.6967299145991993 -0.18304634852415855 -0.6935859430485632
vn 0.852502650247922 -0.1830463394082402 -0.48962564163809114
vn 0.950178778545822 -0.1830463507031475 -0.2522980822270157
vn 0.9831017717462927 -0.1830463441610807 0.00222312360512744
vn 0.9490280051205591 -0.18304635070312694 0.2565928272402793
vn 0.8502795264744201 -0.1830463394082004 0.4934762045810254
vn 0.6935859430486417 -0.18304634852410226 0.6967299145991359
vn 0.48962564163816963 -0.1830463394083254 0.8525026502478587
vn 0.2522980822270942 -0.18304635070336842 0.9501787785457586
vn -0.0022231236050250275 -0.1830463441614222 0.9831017717462293
vn -0.25659282724020077 -0.1830463507035658 0.9490280051204957
usemtl material_0_0
f 1//1 2//2 3//3
f 2//2 1//1 4//4
f 3//3 5//5 6//6
f 5//5 3//3 2//2
f 7//7 3//3 8//8
f 3//3 7//7 1//1
f 9//9 4//4 1//1
f 4//4 9//9 10//10
f 2//2 11//11 5//5
f 11//11 2//2 4//4
f 11//11 4//4 12//12
f 12//12 4//4 10//10
f 12//12 10//10 13//13
f 13//13 10//10 14//14
f 13//13 14//14 15//15
f 15//15 14//14 16//16
f 15//15 16//16 17//17
f 17//17 16//16 18//18
f 17//17 18//18 19//19
f 19//19 18//18 20//20
f 20//20 18//18 21//21
f 20//20 21//21 22//22
f 20//20 22//22 23//23
f 23//23 22//22 24//24
f 23//23 24//24 25//25
f 25//25 24//24 26//26
f 26//26 24//24 27//27
f 26//26 27//27 28//28
f 28//28 27//27 29//29
f 28//28 29//29 30//30
f 5//5 31//31 6//6
f 31//31 5//5 11//11
f 8//8 6//6 32//32
f 6//6 8//8 3//3
f 33//33 7//7 8//8
f 7//7 33//33 34//34
f 35//35 1//1 7//7
f 1//1 35//35 9//9
f 36//36 10//10 9//9
f 10//10 36//36 14//14
f 13//13 37//37 38//38
f 37//37 13//13 15//15
f 12//12 38//38 39//39
f 38//38 12//12 13//13
f 11//11 39//39 31//31
f 39//39 11//11 12//12
f 40//40 14//14 36//36
f 14//14 40//40 16//16
f 41//41 16//16 40//40
f 16//16 41//41 18//18
f 42//42 18//18 41//41
f 18//18 42//42 21//21
f 42//42 22//22 21//21
f 22//22 42//42 43//43
f 43//43 24//24 22//22
f 24//24 43//43 44//44
f 44//44 27//27 24//24
f 27//27 44//44 45//45
f 45//45 29//29 27//27
f 29//29 45//45 46//46
f 46//46 30//30 29//29
f 30//30 46//46 47//47
f 30//30 48//48 28//28
f 48//48 30//30 47//47
f 28//28 49//49 26//26
f 49//49 28//28 48//48
f 26//26 50//50 25//25
f 50//50 26//26 49//49
f 25//25 51//51 23//23
f 51//51 25//25 50//50
f 23//23 52//52 20//20
f 52//52 23//23 51//51
f 20//20 53//53 19//19
f 53//53 20//20 52//52
f 17//17 53//53 54//54
f 53//53 17//17 19//19
f 15//15 54//54 37//37
f 54//54 15//15 17//17
f 6//6 55//55 32//32
f 55//55 6//6 31//31
f 33//33 32//32 56//56
f 32//32 33//33 8//8
f 57//57 34//34 33//33
f 34//34 57//57 58//58
f 59//59 7//7 34//34
f 7//7 59//59 35//35
f 60//60 9//9 35//35
f 9//9 60//60 36//36
f 38//38 61//61 62//62
f 61//61 38//38 37//37
f 39//39 62//62 63//63
f 62//62 39//39 38//38
f 31//31 63//63 55//55
f 63//63 31//31 39//39
f 64//64 36//36 60//60
f 36//36 64//64 40//40
f 65//65 40//40 64//64
f 40//40 65//65 41//41
f 65//65 42//42 41//41
f 42//42 65//65 66//66
f 66//66 43//43 42//42
f 43//43 66//66 67//67
f 67//67 44//44 43//43
f 44//44 67//67 68//68
f 68//68 45//45 44//44
f 45//45 68//68 69//69
f 69//69 46//46 45//45
f 46//46 69//69 70//70
f 70//70 47//47 46//46
f 47//47 70//70 71//71
f 47//47 72//72 48//48
f 72//72 47//47 71//71
f 48//48 73//73 49//49
f 73//73 48//48 72//72
f 49//49 74//74 50//50
f 74//74 49//49 73//73
f 50//50 75//75 51//51
f 75//75 50//50 74//74
f 51//51 76//76 52//52
f 76//76 51//51 75//75
f 53//53 76//76 77//77
f 76//76 53//53 52//52
f 54//54 77//77 78//78
f 77//77 54//54 53//53
f 37//37 78//78 61//61
f 78//78 37//37 54//54
f 56//56 55//55 79//79
f 55//55 56//56 32//32
f 57//57 56//56 80//80
f 56//56 57//57 33//33
f 81//81 58//58 57//57
f 58//58 81//81 82//82
f 58//58 59//59 34//34
f 59//59 58//58 83//83
f 84//84 35//35 59//59
f 35//35 84//84 60//60
f 62//62 85//85 86//86
f 85//85 62//62 61//61
f 63//63 86//86 87//87
f 86//86 63//63 62//62
f 79//79 63//63 87//87
f 63//63 79//79 55//55
f 84//84 64//64 60//60
f 64//64 84//84 88//88
f 88//88 65//65 64//64
f 65//65 88//88 89//89
f 89//89 66//66 65//65
f 66//66 89//89 90//90
f 90//90 67//67 66//66
f 67//67 90//90 91//91
f 91//91 68//68 67//67
f 68//68 91//91 92//92
f 92//92 69//69 68//68
f 69//69 92//92 93//93
f 69//69 94//94 70//70
f 94//94 69//69 93//93
f 70//70 95//95 71//71
f 95//95 70//70 94//94
f 72//72 95//95 96//96
f 95//95 72//72 71//71
f 73//73 96//96 97//97
f 96//96 73//73 72//72
f 73//73 98//98 74//74
f 98//98 73//73 97//97
f 74//74 99//99 75//75
f 99//99 74//74 98//98
f 99//99 76//76 75//75
f 76//76 99//99 100//100
f 100//100 77//77 76//76
f 77//77 100//100 101//101
f 101//101 78//78 77//77
f 78//78 101//101 102//102
f 102//102 61//61 78//78
f 61//61 102//102 85//85
f 80//80 79//79 103//103
f 79//79 80//80 56//56
f 104//104 57//57 80//80
f 57//57 104//104 81//81
f 82//82 83//83 58//58
f 83//83 82//82 105//105
f 83//83 84//84 59//59
f 84//84 83//83 106//106
f 107//107 86//86 85//85
f 86//86 107//107 108//108
f 109//109 86//86 108//108
f 86//86 109//109 87//87
f 103//103 87//87 109//109
f 87//87 103//103 79//79
f 106//106 88//88 84//84
f 88//88 106//106 110//110
f 110//110 89//89 88//88
f 89//89 110//110 111//111
f 111//111 90//90 89//89
f 90//90 111//111 112//112
f 112//112 91//91 90//90
f 91//91 112//112 113//113
f 113//113 92//92 91//91
f 92//92 113//113 114//114
f 92//92 115//115 93//93
f 115//115 92//92 114//114
f 93//93 116//116 94//94
f 116//116 93//93 115//115
f 94//94 117//117 95//95
f 117//117 94//94 116//116
f 96//96 117//117 118//118
f 117//117 96//96 95//95
f 97//97 118//118 119//119
f 118//118 97//97 96//96
f 98//98 119//119 120//120
f 119//119 98//98 97//97
f 120//120 99//99 98//98
f 99//99 120//120 121//121
f 121//121 100//100 99//99
f 100//100 121//121 122//122
f 122//122 101//101 100//100
f 101//101 122//122 123//123
f 123//123 102//102 101//101
f 102//102 123//123 124//124
f 124//124 85//85 102//102
f 85//85 124//124 107//107
f 104//104 103//103 125//125
f 103//103 104//104 80//80
f 105//105 106//106 83//83
f 106//106 105//105 126//126
f 127//127 108//108 107//107
f 108//108 127//127 128//128
f 129//129 108//108 128//128
f 108//108 129//129 109//109
f 125//125 109//109 129//129
f 109//109 125//125 103//103
f 126//126 110//110 106//106
f 110//110 126//126 130//130
f 130//130 111//111 110//110
f 111//111 130//130 131//131
f 131//131 112//112 111//111
f 112//112 131//131 132//132
f 132//132 113//113 112//112
f 113//113 132//132 133//133
f 133//133 114//114 113//113
f 114//114 133//133 134//134
f 114//114 135//135 115//115
f 135//135 114//114 134//134
f 115//115 136//136 116//116
f 136//136 115//115 135//135
f 117//117 136//136 137//137
f 136//136 117//117 116//116
f 118//118 137//137 138//138
f 137//137 118//118 117//117
f 119//119 138//138 139//139
f 138//138 119//119 118//118
f 120//120 139//139 140//140
f 139//139 120//120 119//119
f 140//140 121//121 120//120
f 121//121 140//140 141//141
f 141//141 122//122 121//121
f 122//122 141//141 142//142
f 142//142 123//123 122//122
f 123//123 142//142 143//143
f 143//143 124//124 123//123
f 124//124 143//143 144//144
f 144//144 107//107 124//124
f 107//107 144//144 127//127
