mtllib new-3.mtl
v 0.467724 0.307314 -0.535450
v -0.435708 0.028787 -0.534442
v -0.435708 0.307314 -0.534442
v 0.467724 0.028787 -0.535450
vn 0.576706 0.577350 -0.577994
vn -0.577994 -0.577350 -0.576706
vn -0.577994 0.577350 -0.576706
vn 0.576706 -0.577350 -0.577994
vn 0.577994 -0.577350 0.576706
vn 0.577994 0.577350 0.576706
vn -0.576706 -0.577350 0.577994
vn -0.576706 0.577350 0.577994
vt -1.289413 -0.108333
vt -0.128625 -0.824072
vt -0.128625 -0.108333
vt -1.289413 -0.824072
usemtl material-0
f 1/1/1 2/2/2 3/3/3
f 2/2/2 1/1/1 4/4/4
usemtl material-1
f 3//5 2//6 1//7
f 4//8 1//7 2//6