mtllib new-1.mtl
v -0.435708 0.028787 -0.534442
v -0.435708 0.307314 -0.534442
v -0.434592 0.307314 0.465987
v -0.434592 0.028787 0.465987
v -0.434479 0.307314 0.567327
vn -0.577994 -0.577350 -0.576706
vn -0.577994 0.577350 -0.576706
vn -0.894427 0.447214 0.000997
vn -0.894427 -0.447214 0.000997
vn 0.577994 -0.577350 0.576706
vn 0.577994 0.577350 0.576706
vn 0.894427 -0.447214 -0.000997
vn 0.894427 0.447214 -0.000997
vt 0.004311 -0.824072
vt 1.289728 -0.108333
vt 0.004311 -0.108333
vt 1.289728 -0.824072
usemtl material-0
f 1/1/1 3/2/3 2/3/2
f 3/2/3 1/1/1 4/4/4
usemtl material-1
f 2//5 3//7 1//6
f 4//8 1//6 3//7
f 4//4 5//2 3//3
f 3//7 5//5 4//8