mtllib new-4.mtl
v -0.435708 0.028787 -0.534442
v 0.467724 0.028787 -0.535450
v 0.468952 0.028787 0.566320
v -0.434592 0.028787 0.465987
vn -0.577994 -0.577350 -0.576706
vn 0.576706 -0.577350 -0.577994
vn -0.894427 -0.447214 0.000997
vn 0.577994 0.577350 0.576706
vn -0.576706 0.577350 0.577994
vn 0.894427 0.447214 -0.000997
vt -1.418497 2.581992
vt -0.004168 0.257260
vt -0.002873 2.578835
vt -1.289583 0.260126
usemtl material-0
f 3/1/2 1/2/1 2/3/2
f 1/2/1 3/1/2 4/4/3
usemtl material-1
f 2//5 1//4 3//5
f 4//6 3//5 1//4