mtllib new-0.mtl
v -0.628367 -0.070504 -0.253034
v 0.620684 -0.070504 -0.253034
v -0.628367 -0.081449 -0.248394
v 0.620684 -0.081449 -0.248394
v -0.628367 -0.057140 -0.183887
v 0.620684 -0.057140 -0.183887
v -0.628367 -0.091739 -0.242441
v -0.628367 -0.058180 -0.177765
v -0.628367 -0.056302 -0.190039
v 0.620684 -0.058180 -0.177765
v 0.620684 -0.056302 -0.190039
v 0.620684 -0.091739 -0.242441
v -0.628367 -0.060866 -0.165641
v -0.628367 -0.059423 -0.171681
v -0.628367 -0.055668 -0.196216
v 0.620684 -0.059423 -0.171681
v 0.620684 -0.055668 -0.196216
v 0.620684 -0.060866 -0.165641
v -0.628367 -0.101217 -0.235266
v -0.628367 -0.062508 -0.159653
v -0.628367 -0.055239 -0.202411
v 0.620684 -0.055015 -0.208617
v 0.620684 -0.055239 -0.202411
v 0.620684 -0.062508 -0.159653
v 0.620684 -0.101217 -0.235266
v -0.628367 -0.066381 -0.147855
v -0.628367 -0.064347 -0.153722
v -0.628367 -0.055015 -0.208617
v 0.620684 -0.064347 -0.153722
v 0.620684 -0.066381 -0.147855
v -0.628367 -0.109739 -0.226978
v -0.628367 -0.068608 -0.142059
v -0.628367 -0.054997 -0.214826
v 0.620684 -0.068608 -0.142058
v 0.620684 -0.109739 -0.226978
v -0.628367 -0.070922 -0.135407
v 0.620684 -0.070922 -0.135407
v 0.620684 -0.117174 -0.217702
v -0.628367 -0.074597 -0.129399
v 0.620684 -0.074597 -0.129399
v -0.628367 -0.117174 -0.217702
v 0.620684 -0.079463 -0.124308
v -0.628367 -0.079463 -0.124308
v 0.620684 -0.123410 -0.207582
v 0.620684 -0.085300 -0.120367
v -0.628367 -0.123410 -0.207582
v -0.628367 -0.085300 -0.120367
v -0.628367 -0.128351 -0.196770
v 0.620684 -0.091841 -0.117755
v -0.628367 -0.091841 -0.117755
v 0.620684 -0.128351 -0.196770
v -0.628367 -0.098786 -0.116592
v 0.620684 -0.098786 -0.116592
v -0.628367 -0.131923 -0.185431
v -0.628367 -0.105821 -0.116931
v 0.620684 -0.105821 -0.116931
v 0.620684 -0.131923 -0.185431
v -0.628367 -0.134070 -0.173739
v -0.628367 -0.112623 -0.118755
v 0.620684 -0.112623 -0.118755
v 0.620684 -0.134070 -0.173739
v -0.628367 -0.134760 -0.161872
v -0.628367 -0.118883 -0.121983
v 0.620684 -0.118883 -0.121983
v 0.620684 -0.134760 -0.161872
v -0.628367 -0.133983 -0.150009
v -0.628367 -0.124314 -0.126466
v 0.620684 -0.124314 -0.126466
v 0.620684 -0.133983 -0.150009
v -0.628367 -0.131750 -0.138333
v -0.628367 -0.128670 -0.132000
v 0.620684 -0.128670 -0.132000
v 0.620684 -0.131750 -0.138333
vn 0.000000 -0.446373 -0.894847
vn 0.000000 0.446373 0.894847
vn -1.000000 0.000000 0.000000
vn 1.000000 0.000000 0.000000
vn 0.000000 -0.553229 -0.833029
vn 0.000000 0.553229 0.833029
vn 0.000000 0.982953 0.183857
vn 0.000000 0.988495 0.151255
vn 0.000000 -0.988495 -0.151255
vn 0.000000 -0.982953 -0.183857
vn 0.000000 0.992956 0.118487
vn 0.000000 -0.992956 -0.118487
vn 0.000000 -0.651654 -0.758516
vn 0.000000 0.651654 0.758516
vn 0.000000 0.976336 0.216259
vn 0.000000 -0.976336 -0.216259
vn 0.000000 0.996330 0.085589
vn 0.000000 -0.996330 -0.085589
vn 0.000000 0.959907 0.280317
vn 0.000000 0.968651 0.248424
vn 0.000000 -0.968651 -0.248424
vn 0.000000 -0.959907 -0.280317
vn 0.000000 -0.740148 -0.672444
vn 0.000000 0.740148 0.672444
vn 0.000000 0.950114 0.311904
vn 0.000000 -0.950114 -0.311904
vn 0.000000 0.939281 0.343149
vn 0.000000 -0.939281 -0.343149
vn 0.000000 -0.817363 -0.576124
vn 0.000000 0.817363 0.576124
vn 0.000000 0.903940 0.427659
vn 0.000000 0.944442 0.328679
vn 0.000000 -0.944442 -0.328679
vn 0.000000 -0.903940 -0.427659
vn 0.000000 0.792502 0.609869
vn 0.000000 -0.792502 -0.609869
vn 0.000000 -0.882121 -0.471023
vn 0.000000 0.882121 0.471023
vn 0.000000 0.644911 0.764257
vn 0.000000 -0.644911 -0.764257
vn 0.000000 0.467900 0.883781
vn 0.000000 -0.467900 -0.883781
vn 0.000000 -0.933436 -0.358745
vn 0.000000 0.933436 0.358745
vn 0.000000 0.269544 0.962988
vn 0.000000 -0.269544 -0.962988
vn 0.000000 -0.970525 -0.240999
vn 0.000000 0.970525 0.240999
vn 0.000000 0.058892 0.998264
vn 0.000000 -0.058892 -0.998264
vn 0.000000 -0.154447 0.988001
vn 0.000000 0.154447 -0.988001
vn 0.000000 -0.992824 -0.119581
vn 0.000000 0.992824 0.119581
vn 0.000000 -0.360740 0.932666
vn 0.000000 0.360740 -0.932666
vn 0.000000 -0.999993 0.003660
vn 0.000000 0.999993 -0.003660
vn 0.000000 -0.550577 0.834785
vn 0.000000 0.550577 -0.834785
vn 0.000000 -0.991923 0.126845
vn 0.000000 0.991923 -0.126845
vn 0.000000 -0.715297 0.698821
vn 0.000000 0.715297 -0.698821
vn 0.000000 -0.982202 0.187829
vn 0.000000 0.982202 -0.187829
vn 0.000000 -0.847386 0.530978
vn 0.000000 0.847386 -0.530978
usemtl material-2
f 3//3 5//3 1//3
f 1//4 5//4 3//4
f 6//4 4//4 2//4
f 2//3 4//3 6//3
f 3//3 8//3 5//3
f 5//4 8//4 3//4
f 1//3 5//3 9//3
f 9//4 5//4 1//4
f 10//4 4//4 6//4
f 6//3 4//3 10//3
f 6//4 2//4 11//4
f 11//3 2//3 6//3
f 7//5 4//1 12//5
f 12//6 4//2 7//6
f 7//3 13//3 3//3
f 3//4 13//4 7//4
f 3//3 14//3 8//3
f 8//4 14//4 3//4
f 8//7 6//8 5//8
f 5//9 6//9 8//10
f 1//3 9//3 15//3
f 15//4 9//4 1//4
f 16//4 4//4 10//4
f 10//3 4//3 16//3
f 11//4 2//4 17//4
f 17//3 2//3 11//3
f 18//4 12//4 4//4
f 4//3 12//3 18//3
f 12//5 19//13 7//5
f 7//6 19//14 12//6
f 7//3 20//3 13//3
f 13//4 20//4 7//4
f 3//3 13//3 14//3
f 14//4 13//4 3//4
f 17//17 9//11 11//11
f 11//12 9//12 17//18
f 9//11 17//17 15//17
f 15//18 17//18 9//12
f 1//3 15//3 21//3
f 21//4 15//4 1//4
f 18//4 4//4 16//4
f 16//3 4//3 18//3
f 10//7 14//15 16//15
f 16//16 14//16 10//10
f 17//4 2//4 23//4
f 23//3 2//3 17//3
f 24//4 12//4 18//4
f 18//3 12//3 24//3
f 19//13 12//5 25//13
f 25//14 12//6 19//14
f 19//3 26//3 7//3
f 7//4 26//4 19//4
f 7//3 27//3 20//3
f 20//4 27//4 7//4
f 20//19 18//20 13//20
f 13//21 18//21 20//22
f 1//3 21//3 28//3
f 28//4 21//4 1//4
f 23//4 2//4 22//4
f 22//3 2//3 23//3
f 16//15 13//20 18//20
f 18//21 13//21 16//16
f 29//4 12//4 24//4
f 24//3 12//3 29//3
f 18//20 20//19 24//19
f 24//22 20//22 18//21
f 30//4 25//4 12//4
f 12//3 25//3 30//3
f 19//3 32//3 26//3
f 26//4 32//4 19//4
f 7//3 26//3 27//3
f 27//4 26//4 7//4
f 27//25 24//19 20//19
f 20//22 24//22 27//26
f 1//3 28//3 33//3
f 33//4 28//4 1//4
f 30//4 12//4 29//4
f 29//3 12//3 30//3
f 34//4 25//4 30//4
f 30//3 25//3 34//3
f 31//23 25//13 35//23
f 35//24 25//14 31//24
f 31//3 36//3 19//3
f 19//4 36//4 31//4
f 19//3 36//3 32//3
f 32//4 36//4 19//4
f 26//27 29//25 27//25
f 27//26 29//26 26//28
f 29//25 26//27 30//27
f 30//28 26//28 29//26
f 37//4 25//4 34//4
f 34//3 25//3 37//3
f 37//4 35//4 25//4
f 25//3 35//3 37//3
f 38//29 31//23 35//23
f 35//24 31//24 38//30
f 31//3 39//3 36//3
f 36//4 39//4 31//4
f 36//31 34//32 32//32
f 32//33 34//33 36//34
f 34//32 36//31 37//31
f 37//34 36//34 34//33
f 40//4 35//4 37//4
f 37//3 35//3 40//3
f 31//23 38//29 41//29
f 41//30 38//30 31//24
f 42//4 38//4 35//4
f 35//3 38//3 42//3
f 31//3 43//3 39//3
f 39//4 43//4 31//4
f 40//35 36//31 39//35
f 39//36 36//34 40//36
f 36//31 40//35 37//31
f 37//34 40//36 36//34
f 42//4 35//4 40//4
f 40//3 35//3 42//3
f 41//3 43//3 31//3
f 31//4 43//4 41//4
f 45//4 38//4 42//4
f 42//3 38//3 45//3
f 42//39 39//35 43//39
f 43//40 39//36 42//40
f 39//35 42//39 40//35
f 40//36 42//40 39//36
f 41//29 44//37 46//37
f 46//38 44//38 41//30
f 45//4 44//4 38//4
f 38//3 44//3 45//3
f 41//3 47//3 43//3
f 43//4 47//4 41//4
f 42//39 47//41 45//41
f 45//42 47//42 42//40
f 47//41 42//39 43//39
f 43//40 42//40 47//42
f 44//37 48//43 46//37
f 46//38 48//44 44//38
f 46//3 47//3 41//3
f 41//4 47//4 46//4
f 49//4 44//4 45//4
f 45//3 44//3 49//3
f 50//45 45//41 47//41
f 47//42 45//42 50//46
f 48//43 44//37 51//43
f 51//44 44//38 48//44
f 48//3 52//3 46//3
f 46//4 52//4 48//4
f 46//3 50//3 47//3
f 47//4 50//4 46//4
f 53//4 44//4 49//4
f 49//3 44//3 53//3
f 45//41 50//45 49//45
f 49//46 50//46 45//42
f 53//4 51//4 44//4
f 44//3 51//3 53//3
f 51//43 54//47 48//43
f 48//44 54//48 51//44
f 48//3 55//3 52//3
f 52//4 55//4 48//4
f 46//3 52//3 50//3
f 50//4 52//4 46//4
f 49//45 52//49 53//49
f 53//50 52//50 49//46
f 52//49 49//45 50//45
f 50//46 49//46 52//50
f 56//4 51//4 53//4
f 53//3 51//3 56//3
f 54//3 55//3 48//3
f 48//4 55//4 54//4
f 55//51 53//49 52//49
f 52//50 53//50 55//52
f 56//4 57//4 51//4
f 51//3 57//3 56//3
f 53//49 55//51 56//51
f 56//52 55//52 53//50
f 54//3 59//3 55//3
f 55//4 59//4 54//4
f 60//4 57//4 56//4
f 56//3 57//3 60//3
f 59//55 56//51 55//51
f 55//52 56//52 59//56
f 58//3 59//3 54//3
f 54//4 59//4 58//4
f 60//4 61//4 57//4
f 57//3 61//3 60//3
f 56//51 59//55 60//55
f 60//56 59//56 56//52
f 58//3 63//3 59//3
f 59//4 63//4 58//4
f 64//4 61//4 60//4
f 60//3 61//3 64//3
f 59//55 64//59 60//55
f 60//56 64//60 59//56
f 62//57 61//53 65//57
f 65//58 61//54 62//58
f 62//3 63//3 58//3
f 58//4 63//4 62//4
f 64//59 59//55 63//59
f 63//60 59//56 64//60
f 64//4 65//4 61//4
f 61//3 65//3 64//3
f 65//57 66//61 62//57
f 62//58 66//62 65//58
f 62//3 67//3 63//3
f 63//4 67//4 62//4
f 63//59 68//63 64//59
f 64//60 68//64 63//60
f 68//4 65//4 64//4
f 64//3 65//3 68//3
f 66//61 65//57 69//61
f 69//62 65//58 66//62
f 66//3 67//3 62//3
f 62//4 67//4 66//4
f 68//63 63//59 67//63
f 67//64 63//60 68//64
f 68//4 69//4 65//4
f 65//3 69//3 68//3
f 66//3 71//3 67//3
f 67//4 71//4 66//4
f 67//63 72//67 68//63
f 68//64 72//68 67//64
f 72//4 69//4 68//4
f 68//3 69//3 72//3
f 70//65 69//61 73//65
f 73//66 69//62 70//66
f 71//3 66//3 70//3
f 70//4 66//4 71//4
f 72//67 67//63 71//67
f 71//68 67//64 72//68
f 69//4 72//4 73//4
f 73//3 72//3 69//3