# SSTK version 0.8.0
# 110
mtllib original-110.mtl
o Group99/mesh289/mesh289-geometry#mesh289-geometry
v 0.046337 -0.141146 0.406308
v 0.045900 -0.147959 0.406100
v 0.046337 -0.147955 0.406013
v 0.045900 -0.141150 0.406395
v 0.046337 -0.145306 0.344967
v 0.046759 -0.141140 0.406165
v 0.045900 -0.138494 0.345175
v 0.045455 -0.147960 0.406129
v 0.045900 -0.145303 0.344880
v 0.046759 -0.145312 0.345110
v 0.046759 -0.147949 0.405870
v 0.046337 -0.138498 0.345262
v 0.045455 -0.138493 0.345146
v 0.045455 -0.141151 0.406424
v 0.047159 -0.141131 0.405968
v 0.046759 -0.138504 0.345405
v -0.324264 -0.147960 0.406129
v 0.045455 -0.145301 0.344851
v 0.047159 -0.145321 0.345307
v 0.047159 -0.147940 0.405673
v -0.324264 -0.138493 0.345146
v -0.324264 -0.141151 0.406424
v 0.047530 -0.141121 0.405721
v 0.047159 -0.138512 0.345602
v -0.324708 -0.147959 0.406100
v -0.324264 -0.145301 0.344851
v 0.047530 -0.145332 0.345554
v 0.047530 -0.147929 0.405425
v -0.324708 -0.138494 0.345175
v -0.324708 -0.141150 0.406395
v 0.047865 -0.141108 0.405427
v 0.047530 -0.138523 0.345849
v -0.325146 -0.147955 0.406013
v -0.324708 -0.145303 0.344880
v 0.047865 -0.145345 0.345848
v 0.047865 -0.147917 0.405132
v -0.325146 -0.138498 0.345262
v -0.325146 -0.141146 0.406308
v 0.048159 -0.147902 0.404797
v 0.047865 -0.138536 0.346143
v -0.325568 -0.147949 0.405870
v -0.325146 -0.145306 0.344967
v 0.048159 -0.145359 0.346183
v 0.048159 -0.141093 0.405092
v -0.325568 -0.138504 0.345405
v -0.325568 -0.141140 0.406165
v 0.048159 -0.138550 0.346478
v 0.048406 -0.147886 0.404427
v 0.048406 -0.145375 0.346553
v -0.325967 -0.147940 0.405673
v -0.325568 -0.145312 0.345110
v 0.048406 -0.138566 0.346848
v 0.048406 -0.141077 0.404722
v -0.325967 -0.138512 0.345602
v -0.325967 -0.141131 0.405968
v 0.048604 -0.147869 0.404027
v 0.048604 -0.145392 0.346952
v 0.048604 -0.138584 0.347248
v -0.326338 -0.147929 0.405425
v -0.325967 -0.145321 0.345307
v 0.048604 -0.141060 0.404323
v -0.326338 -0.138523 0.345849
v -0.326338 -0.141121 0.405721
v 0.048747 -0.147850 0.403606
v 0.048747 -0.145411 0.347374
v 0.048747 -0.138602 0.347669
v 0.048747 -0.141042 0.403901
v -0.326673 -0.147917 0.405132
v -0.326338 -0.145332 0.345554
v -0.326673 -0.138536 0.346143
v -0.326673 -0.141108 0.405427
v 0.048834 -0.147831 0.403169
v 0.048834 -0.145430 0.347811
v 0.048834 -0.138621 0.348106
v 0.048834 -0.141023 0.403464
v -0.326967 -0.141093 0.405092
v -0.326673 -0.145345 0.345848
v -0.326967 -0.138550 0.346478
v -0.326967 -0.147902 0.404797
v 0.048863 -0.147812 0.402724
v 0.048863 -0.145449 0.348255
v 0.048863 -0.138640 0.348550
v 0.048863 -0.141003 0.403020
v -0.326967 -0.145359 0.346183
v -0.327215 -0.141077 0.404722
v -0.327215 -0.138566 0.346848
v -0.327215 -0.145375 0.346553
v -0.327215 -0.147886 0.404427
v -0.327412 -0.141060 0.404323
v -0.327412 -0.138584 0.347248
v -0.327412 -0.145392 0.346952
v -0.327412 -0.147869 0.404027
v -0.327555 -0.141042 0.403901
v -0.327555 -0.138602 0.347669
v -0.327555 -0.145411 0.347374
v -0.327555 -0.147850 0.403606
v -0.327642 -0.141023 0.403464
v -0.327642 -0.138621 0.348106
v -0.327642 -0.145430 0.347811
v -0.327642 -0.147831 0.403169
v -0.327671 -0.141003 0.403020
v -0.327671 -0.138640 0.348550
v -0.327671 -0.145449 0.348255
v -0.327671 -0.147812 0.402724
vn 0.2588190180171689 -0.04186700291448777 0.9650180671778049
vn 0.1305260183667089 -0.04297300604686102 0.9905131393780852
vn -0.2588190180171689 0.04186700291448777 -0.9650180671778049
vn -0.1305260183667089 0.04297300604686102 -0.9905131393780852
vn 0 -0.9990602068374542 -0.043344008973597796
vn 0 0.9990602068374542 0.043344008973597796
vn 0.38268315563057403 -0.040045016285610635 0.9230113753726499
vn -0.38268315563057403 0.040045016285610635 -0.9230113753726499
vn 0.0654030104104923 -0.04325100688445794 0.9969211586844395
vn -0.0654030104104923 0.04325100688445794 -0.9969211586844395
vn 0.1305260183667089 0.04297300604686102 -0.9905131393780852
vn 0.2588190180171689 0.04186700291448777 -0.9650180671778049
vn -0.1305260183667089 -0.04297300604686102 0.9905131393780852
vn -0.2588190180171689 -0.04186700291448777 0.9650180671778049
vn 0.38268315563057403 0.040045016285610635 -0.9230113753726499
vn -0.38268315563057403 -0.040045016285610635 0.9230113753726499
vn 0.4999997921718796 -0.03753698439751169 0.8652116403692326
vn -0.4999997921718796 0.03753698439751169 -0.8652116403692326
vn 0.0654030104104923 0.04325100688445794 -0.9969211586844395
vn -0.0654030104104923 -0.04325100688445794 0.9969211586844395
vn 0 -0.043344008973597796 0.9990602068374542
vn 0 0.043344008973597796 -0.9990602068374542
vn 0.4999997921718796 0.03753698439751169 -0.8652116403692326
vn -0.4999997921718796 -0.03753698439751169 0.8652116403692326
vn 0.6087610418358865 -0.03438700236317804 0.7926080544704052
vn -0.6087610418358865 0.03438700236317804 -0.7926080544704052
vn 0.6087610418358865 0.03438700236317804 -0.7926080544704052
vn -0.6087610418358865 -0.03438700236317804 0.7926080544704052
vn 0.7071070106016556 -0.03064900045952047 0.7064420105916852
vn -0.7071070106016556 0.03064900045952047 -0.7064420105916852
vn 0.7071070106016556 0.03064900045952047 -0.7064420105916852
vn -0.7071070106016556 -0.03064900045952047 0.7064420105916852
vn 0.7933533715568251 -0.026386012357548765 0.6081892848376118
vn -0.7933533715568251 0.026386012357548765 -0.6081892848376118
vn 0.7933533715568251 0.026386012357548765 -0.6081892848376118
vn -0.7933533715568251 -0.026386012357548765 0.6081892848376118
vn 0.8660253476620485 -0.021672008700132115 0.49953020053419134
vn -0.8660253476620485 0.021672008700132115 -0.49953020053419134
vn 0.8660253476620485 0.021672008700132115 -0.49953020053419134
vn -0.8660253476620485 -0.021672008700132115 0.49953020053419134
vn 0.9238795269992099 -0.016586991507918664 0.3823238042607762
vn -0.9238795269992099 0.016586991507918664 -0.3823238042607762
vn 0.9238795269992099 0.016586991507918664 -0.3823238042607762
vn -0.9238795269992099 -0.016586991507918664 0.3823238042607762
vn 0.9659257929171231 -0.011217997594996188 0.2585759445644263
vn -0.9659257929171231 0.011217997594996188 -0.2585759445644263
vn 0.9659257929171231 0.011217997594996188 -0.2585759445644263
vn -0.9659257929171231 -0.011217997594996188 0.2585759445644263
vn 0.9914447996265476 -0.005657998856504401 0.13040397364503356
vn -0.9914447996265476 0.005657998856504401 -0.13040397364503356
vn 0.9914447996265476 0.005657998856504401 -0.13040397364503356
vn -0.9914447996265476 -0.005657998856504401 0.13040397364503356
vn 0.9978589011770487 -0.0028349997192358162 0.06534199352885599
vn -0.9978589011770487 0.0028349997192358162 -0.06534199352885599
vn 0.9978589011770487 0.0028349997192358162 -0.06534199352885599
vn -0.9978589011770487 -0.0028349997192358162 0.06534199352885599
vn 1 0 0
vn -1 0 0
usemtl material_0_0
f 1//1 2//2 3//1
f 2//2 1//1 4//2
f 3//3 2//4 1//3
f 4//4 1//3 2//4
f 2//5 5//5 3//5
f 3//6 5//6 2//6
f 3//1 6//7 1//1
f 1//3 6//8 3//3
f 7//6 4//6 1//6
f 1//5 4//5 7//5
f 4//2 8//9 2//2
f 2//4 8//10 4//4
f 2//5 9//5 5//5
f 5//6 9//6 2//6
f 3//5 5//5 10//5
f 10//6 5//6 3//6
f 6//7 3//1 11//7
f 11//8 3//3 6//8
f 12//6 1//6 6//6
f 6//5 1//5 12//5
f 13//6 4//6 7//6
f 7//5 4//5 13//5
f 7//6 1//6 12//6
f 12//5 1//5 7//5
f 8//9 4//2 14//9
f 14//10 4//4 8//10
f 8//5 9//5 2//5
f 2//6 9//6 8//6
f 7//11 5//12 9//11
f 9//13 5//14 7//13
f 12//12 10//15 5//12
f 5//14 10//16 12//14
f 3//5 10//5 11//5
f 11//6 10//6 3//6
f 11//7 15//17 6//7
f 6//8 15//18 11//8
f 12//6 6//6 16//6
f 16//5 6//5 12//5
f 13//6 14//6 4//6
f 4//5 14//5 13//5
f 9//11 13//19 7//11
f 7//13 13//20 9//13
f 5//12 7//11 12//12
f 12//14 7//13 5//14
f 14//21 17//21 8//21
f 8//22 17//22 14//22
f 8//5 18//5 9//5
f 9//6 18//6 8//6
f 10//15 12//12 16//15
f 16//16 12//14 10//16
f 11//5 10//5 19//5
f 19//6 10//6 11//6
f 15//17 11//7 20//17
f 20//18 11//8 15//18
f 16//6 6//6 15//6
f 15//5 6//5 16//5
f 21//6 14//6 13//6
f 13//5 14//5 21//5
f 13//19 9//11 18//19
f 18//20 9//13 13//20
f 17//21 14//21 22//21
f 22//22 14//22 17//22
f 17//5 18//5 8//5
f 8//6 18//6 17//6
f 16//15 19//23 10//15
f 10//16 19//24 16//16
f 11//5 19//5 20//5
f 20//6 19//6 11//6
f 20//17 23//25 15//17
f 15//18 23//26 20//18
f 16//6 15//6 24//6
f 24//5 15//5 16//5
f 21//6 22//6 14//6
f 14//5 22//5 21//5
f 18//22 21//22 13//22
f 13//21 21//21 18//21
f 22//20 25//13 17//20
f 17//19 25//11 22//19
f 17//5 26//5 18//5
f 18//6 26//6 17//6
f 19//23 16//15 24//23
f 24//24 16//16 19//24
f 20//5 19//5 27//5
f 27//6 19//6 20//6
f 23//25 20//17 28//25
f 28//26 20//18 23//26
f 24//6 15//6 23//6
f 23//5 15//5 24//5
f 29//6 22//6 21//6
f 21//5 22//5 29//5
f 21//22 18//22 26//22
f 26//21 18//21 21//21
f 25//13 22//20 30//13
f 30//11 22//19 25//11
f 25//5 26//5 17//5
f 17//6 26//6 25//6
f 24//23 27//27 19//23
f 19//24 27//28 24//24
f 20//5 27//5 28//5
f 28//6 27//6 20//6
f 28//25 31//29 23//25
f 23//26 31//30 28//26
f 24//6 23//6 32//6
f 32//5 23//5 24//5
f 29//6 30//6 22//6
f 22//5 30//5 29//5
f 26//10 29//4 21//10
f 21//9 29//2 26//9
f 30//13 33//14 25//13
f 25//11 33//12 30//11
f 25//5 34//5 26//5
f 26//6 34//6 25//6
f 27//27 24//23 32//27
f 32//28 24//24 27//28
f 28//5 27//5 35//5
f 35//6 27//6 28//6
f 31//29 28//25 36//29
f 36//30 28//26 31//30
f 32//6 23//6 31//6
f 31//5 23//5 32//5
f 37//6 30//6 29//6
f 29//5 30//5 37//5
f 29//4 26//10 34//4
f 34//2 26//9 29//2
f 33//14 30//13 38//14
f 38//12 30//11 33//12
f 33//5 34//5 25//5
f 25//6 34//6 33//6
f 32//27 35//31 27//27
f 27//28 35//32 32//28
f 28//5 35//5 36//5
f 36//6 35//6 28//6
f 39//33 31//29 36//29
f 36//30 31//30 39//34
f 32//6 31//6 40//6
f 40//5 31//5 32//5
f 37//6 38//6 30//6
f 30//5 38//5 37//5
f 34//4 37//3 29//4
f 29//2 37//1 34//2
f 38//14 41//16 33//14
f 33//12 41//15 38//12
f 33//5 42//5 34//5
f 34//6 42//6 33//6
f 35//31 32//27 40//31
f 40//32 32//28 35//32
f 36//5 35//5 43//5
f 43//6 35//6 36//6
f 31//29 39//33 44//33
f 44//34 39//34 31//30
f 36//5 43//5 39//5
f 39//6 43//6 36//6
f 40//6 31//6 44//6
f 44//5 31//5 40//5
f 45//6 38//6 37//6
f 37//5 38//5 45//5
f 37//3 34//4 42//3
f 42//1 34//2 37//1
f 41//16 38//14 46//16
f 46//15 38//12 41//15
f 41//5 42//5 33//5
f 33//6 42//6 41//6
f 47//35 35//31 40//31
f 40//32 35//32 47//36
f 35//31 47//35 43//35
f 43//36 47//36 35//32
f 48//37 44//33 39//33
f 39//34 44//34 48//38
f 39//5 43//5 49//5
f 49//6 43//6 39//6
f 40//6 44//6 47//6
f 47//5 44//5 40//5
f 45//6 46//6 38//6
f 38//5 46//5 45//5
f 42//3 45//8 37//3
f 37//1 45//7 42//1
f 46//16 50//24 41//16
f 41//15 50//23 46//15
f 41//5 51//5 42//5
f 42//6 51//6 41//6
f 52//39 43//35 47//35
f 47//36 43//36 52//40
f 44//33 48//37 53//37
f 53//38 48//38 44//34
f 39//5 49//5 48//5
f 48//6 49//6 39//6
f 43//35 52//39 49//39
f 49//40 52//40 43//36
f 47//6 44//6 53//6
f 53//5 44//5 47//5
f 54//6 46//6 45//6
f 45//5 46//5 54//5
f 45//8 42//3 51//8
f 51//7 42//1 45//7
f 50//24 46//16 55//24
f 55//23 46//15 50//23
f 50//5 51//5 41//5
f 41//6 51//6 50//6
f 47//6 53//6 52//6
f 52//5 53//5 47//5
f 56//41 53//37 48//37
f 48//38 53//38 56//42
f 48//5 49//5 57//5
f 57//6 49//6 48//6
f 58//43 49//39 52//39
f 52//40 49//40 58//44
f 54//6 55//6 46//6
f 46//5 55//5 54//5
f 51//8 54//18 45//8
f 45//7 54//17 51//7
f 55//24 59//28 50//24
f 50//23 59//27 55//23
f 50//5 60//5 51//5
f 51//6 60//6 50//6
f 52//6 53//6 61//6
f 61//5 53//5 52//5
f 53//37 56//41 61//41
f 61//42 56//42 53//38
f 48//5 57//5 56//5
f 56//6 57//6 48//6
f 49//39 58//43 57//43
f 57//44 58//44 49//40
f 52//6 61//6 58//6
f 58//5 61//5 52//5
f 62//6 55//6 54//6
f 54//5 55//5 62//5
f 54//18 51//8 60//18
f 60//17 51//7 54//17
f 59//28 55//24 63//28
f 63//27 55//23 59//27
f 59//5 60//5 50//5
f 50//6 60//6 59//6
f 64//45 61//41 56//41
f 56//42 61//42 64//46
f 56//5 57//5 65//5
f 65//6 57//6 56//6
f 66//47 57//43 58//43
f 58//44 57//44 66//48
f 58//6 61//6 67//6
f 67//5 61//5 58//5
f 62//6 63//6 55//6
f 55//5 63//5 62//5
f 60//18 62//26 54//18
f 54//17 62//25 60//17
f 63//28 68//32 59//28
f 59//27 68//31 63//27
f 59//5 69//5 60//5
f 60//6 69//6 59//6
f 61//41 64//45 67//45
f 67//46 64//46 61//42
f 56//5 65//5 64//5
f 64//6 65//6 56//6
f 57//43 66//47 65//47
f 65//48 66//48 57//44
f 58//6 67//6 66//6
f 66//5 67//5 58//5
f 70//6 63//6 62//6
f 62//5 63//5 70//5
f 62//26 60//18 69//26
f 69//25 60//17 62//25
f 68//32 63//28 71//32
f 71//31 63//27 68//31
f 68//5 69//5 59//5
f 59//6 69//6 68//6
f 72//49 67//45 64//45
f 64//46 67//46 72//50
f 64//5 65//5 73//5
f 73//6 65//6 64//6
f 74//51 65//47 66//47
f 66//48 65//48 74//52
f 66//6 67//6 75//6
f 75//5 67//5 66//5
f 70//6 71//6 63//6
f 63//5 71//5 70//5
f 69//26 70//30 62//26
f 62//25 70//29 69//25
f 76//36 68//32 71//32
f 71//31 68//31 76//35
f 68//5 77//5 69//5
f 69//6 77//6 68//6
f 67//45 72//49 75//49
f 75//50 72//50 67//46
f 64//5 73//5 72//5
f 72//6 73//6 64//6
f 65//47 74//51 73//51
f 73//52 74//52 65//48
f 66//6 75//6 74//6
f 74//5 75//5 66//5
f 78//6 71//6 70//6
f 70//5 71//5 78//5
f 70//30 69//26 77//30
f 77//29 69//25 70//29
f 68//32 76//36 79//36
f 79//35 76//35 68//31
f 78//6 76//6 71//6
f 71//5 76//5 78//5
f 79//5 77//5 68//5
f 68//6 77//6 79//6
f 80//53 75//49 72//49
f 72//50 75//50 80//54
f 72//5 73//5 81//5
f 81//6 73//6 72//6
f 82//55 73//51 74//51
f 74//52 73//52 82//56
f 74//6 75//6 83//6
f 83//5 75//5 74//5
f 70//30 84//34 78//34
f 78//33 84//33 70//29
f 84//34 70//30 77//30
f 77//29 70//29 84//33
f 85//40 79//36 76//36
f 76//35 79//35 85//39
f 86//6 76//6 78//6
f 78//5 76//5 86//5
f 79//5 84//5 77//5
f 77//6 84//6 79//6
f 75//49 80//53 83//53
f 83//54 80//54 75//50
f 72//5 81//5 80//5
f 80//6 81//6 72//6
f 73//51 82//55 81//55
f 81//56 82//56 73//52
f 74//6 83//6 82//6
f 82//5 83//5 74//5
f 87//38 78//34 84//34
f 84//33 78//33 87//37
f 79//36 85//40 88//40
f 88//39 85//39 79//35
f 86//6 85//6 76//6
f 76//5 85//5 86//5
f 78//34 87//38 86//38
f 86//37 87//37 78//33
f 88//5 84//5 79//5
f 79//6 84//6 88//6
f 81//57 83//57 80//57
f 80//58 83//58 81//58
f 83//57 81//57 82//57
f 82//58 81//58 83//58
f 88//5 87//5 84//5
f 84//6 87//6 88//6
f 89//44 88//40 85//40
f 85//39 88//39 89//43
f 90//6 85//6 86//6
f 86//5 85//5 90//5
f 91//42 86//38 87//38
f 87//37 86//37 91//41
f 92//5 87//5 88//5
f 88//6 87//6 92//6
f 88//40 89//44 92//44
f 92//43 89//43 88//39
f 90//6 89//6 85//6
f 85//5 89//5 90//5
f 86//38 91//42 90//42
f 90//41 91//41 86//37
f 92//5 91//5 87//5
f 87//6 91//6 92//6
f 93//48 92//44 89//44
f 89//43 92//43 93//47
f 94//6 89//6 90//6
f 90//5 89//5 94//5
f 95//46 90//42 91//42
f 91//41 90//41 95//45
f 96//5 91//5 92//5
f 92//6 91//6 96//6
f 92//44 93//48 96//48
f 96//47 93//47 92//43
f 94//6 93//6 89//6
f 89//5 93//5 94//5
f 90//42 95//46 94//46
f 94//45 95//45 90//41
f 96//5 95//5 91//5
f 91//6 95//6 96//6
f 97//52 96//48 93//48
f 93//47 96//47 97//51
f 98//6 93//6 94//6
f 94//5 93//5 98//5
f 99//50 94//46 95//46
f 95//45 94//45 99//49
f 100//5 95//5 96//5
f 96//6 95//6 100//6
f 96//48 97//52 100//52
f 100//51 97//51 96//47
f 98//6 97//6 93//6
f 93//5 97//5 98//5
f 94//46 99//50 98//50
f 98//49 99//49 94//45
f 100//5 99//5 95//5
f 95//6 99//6 100//6
f 101//56 100//52 97//52
f 97//51 100//51 101//55
f 102//6 97//6 98//6
f 98//5 97//5 102//5
f 103//54 98//50 99//50
f 99//49 98//49 103//53
f 104//5 99//5 100//5
f 100//6 99//6 104//6
f 100//52 101//56 104//56
f 104//55 101//55 100//51
f 97//6 102//6 101//6
f 101//5 102//5 97//5
f 98//50 103//54 102//54
f 102//53 103//53 98//49
f 99//5 104//5 103//5
f 103//6 104//6 99//6
f 102//58 104//58 101//58
f 101//57 104//57 102//57
f 104//58 102//58 103//58
f 103//57 102//57 104//57
