# SSTK version 0.8.0
# 8
mtllib original-8.mtl
o mesh5/mesh5-geometry#mesh5-geometry
v -0.051738 -0.054734 -0.192413
v -0.051525 -0.059582 -0.193688
v -0.051768 -0.059655 -0.193262
v -0.051495 -0.054662 -0.192838
v -0.050953 -0.066329 -0.154634
v -0.051942 -0.059731 -0.192814
v -0.050924 -0.061408 -0.153785
v -0.051218 -0.059515 -0.194083
v -0.051177 -0.066265 -0.154999
v -0.050675 -0.066389 -0.154298
v -0.051912 -0.054810 -0.191964
v -0.051147 -0.061345 -0.154149
v -0.050645 -0.061468 -0.153448
v -0.051188 -0.054595 -0.193234
v -0.052045 -0.059811 -0.192351
v -0.051341 -0.066198 -0.155384
v -0.050851 -0.059455 -0.194442
v -0.050346 -0.066443 -0.153994
v -0.052015 -0.054890 -0.191501
v -0.051311 -0.061277 -0.154534
v -0.050316 -0.061522 -0.153145
v -0.050822 -0.054534 -0.193593
v -0.052074 -0.059892 -0.191881
v -0.051443 -0.066128 -0.155784
v -0.050432 -0.059403 -0.194758
v -0.049972 -0.066490 -0.153730
v -0.049943 -0.061569 -0.152880
v -0.051414 -0.061208 -0.154934
v -0.052044 -0.054971 -0.191031
v -0.051482 -0.066058 -0.156192
v -0.050402 -0.054482 -0.193909
v -0.051453 -0.061137 -0.155342
v -0.049966 -0.059359 -0.195026
v -0.049560 -0.066530 -0.153508
v -0.049531 -0.061610 -0.152658
v -0.049937 -0.054438 -0.194176
v -0.049463 -0.059324 -0.195241
v -0.049117 -0.066563 -0.153333
v -0.049087 -0.061642 -0.152483
v -0.049434 -0.054403 -0.194391
v -0.048901 -0.054378 -0.194550
v -0.048649 -0.066586 -0.153207
v -0.048620 -0.061666 -0.152357
v -0.048931 -0.059299 -0.195399
v -0.048378 -0.059284 -0.195499
v -0.048137 -0.061681 -0.152284
v -0.048166 -0.066601 -0.153134
v -0.048349 -0.054364 -0.194649
v -0.047786 -0.054360 -0.194687
v -0.047676 -0.066607 -0.153114
v -0.047646 -0.061686 -0.152264
v -0.047815 -0.059280 -0.195537
v -0.034593 -0.059339 -0.166215
v -0.020412 -0.059346 -0.195904
v -0.036384 -0.058501 -0.171018
v -0.034623 -0.064259 -0.167065
v -0.020631 -0.066672 -0.153476
v -0.031265 -0.060092 -0.161942
v -0.020382 -0.054425 -0.195054
v -0.031898 -0.060979 -0.186136
v -0.036413 -0.063421 -0.171868
v -0.036513 -0.057636 -0.176023
v -0.031294 -0.065013 -0.162792
v -0.020601 -0.061751 -0.152626
v -0.031869 -0.056058 -0.185286
v -0.021934 -0.059949 -0.192370
v -0.035003 -0.061723 -0.181740
v -0.027441 -0.060374 -0.189761
v -0.036543 -0.062556 -0.176873
v -0.034973 -0.056803 -0.180890
v -0.019222 -0.066138 -0.156604
v -0.026653 -0.065631 -0.159339
v -0.026624 -0.060710 -0.158489
v -0.027412 -0.055453 -0.188912
v -0.021905 -0.055028 -0.191520
v -0.019192 -0.061217 -0.155754
v -0.021017 -0.066071 -0.156942
v -0.020988 -0.061151 -0.156092
vn -0.9279899903391602 0.06763599929587542 -0.36641499618543666
vn 0.9279899903391602 -0.06763599929587542 0.36641499618543666
vn -0.005911000957313281 -0.9853971595895171 -0.170169027559642
vn 0.005911000957313281 0.9853971595895171 0.170169027559642
vn -0.9646919540690878 0.0492139976568232 -0.25874198768077683
vn 0.9646919540690878 -0.0492139976568232 0.25874198768077683
vn -0.8772479006815072 0.08568799029874903 -0.4723279465249222
vn 0.8772479006815072 -0.08568799029874903 0.4723279465249222
vn -0.9177418475663038 -0.06339798946981672 0.39208493487607005
vn 0.9177418475663038 0.06339798946981672 -0.39208493487607005
vn -0.8638223356062723 -0.08178903177610829 0.4971131931349756
vn 0.8638223356062723 0.08178903177610829 -0.4971131931349756
vn -0.9881909208800029 0.030570997552317892 -0.1501469879784068
vn 0.9881909208800029 -0.030570997552317892 0.1501469879784068
vn -0.8114970892590042 0.10314101134478987 -0.5751820632660041
vn 0.8114970892590042 -0.10314101134478987 0.5751820632660041
vn -0.9574862011755318 -0.04471800939561251 0.284992059879118
vn 0.9574862011755318 0.04471800939561251 -0.284992059879118
vn -0.7947645766310096 -0.09965294691513844 0.5986806810843828
vn 0.7947645766310096 0.09965294691513844 -0.5986806810843828
vn -0.9990832980320873 0.011800003520006475 -0.04115001227527682
vn 0.9990832980320873 -0.011800003520006475 0.04115001227527682
vn -0.7298209138836915 0.1196639858800693 -0.6730839205784577
vn 0.7298209138836915 -0.1196639858800693 0.6730839205784577
vn -0.7096988943389719 -0.11664898263312579 0.6947808965599857
vn 0.7096988943389719 0.11664898263312579 -0.6947808965599857
vn -0.9839158523727847 -0.025899996113951926 0.17674497348109783
vn 0.9839158523727847 0.025899996113951926 -0.17674497348109783
vn -0.9999075056513509 0.002384998820869992 0.013389993380062554
vn 0.9999075056513509 -0.002384998820869992 -0.013389993380062554
vn -0.9976666075828822 -0.0070409972305299 0.06790997328863592
vn 0.9976666075828822 0.0070409972305299 -0.06790997328863592
vn -0.6316278847263426 0.13480997539684475 -0.7634608606664971
vn 0.6316278847263426 -0.13480997539684475 0.7634608606664971
vn -0.6081390716491253 -0.1323130155887235 0.7827260922184456
vn 0.6081390716491253 0.1323130155887235 -0.7827260922184456
vn -0.5170149226475936 0.1480209778540651 -0.843080873863729
vn 0.5170149226475936 -0.1480209778540651 0.843080873863729
vn -0.49035591037373566 -0.14607197330125932 0.8591938429582823
vn 0.49035591037373566 0.14607197330125932 -0.8591938429582823
vn -0.3871619207901636 0.15866696753816978 -0.9082568141788492
vn 0.3871619207901636 -0.15866696753816978 0.9082568141788492
vn -0.35776703071322763 -0.1572760135016745 0.9204710790196842
vn 0.35776703071322763 0.1572760135016745 -0.9204710790196842
vn -0.24464803207715116 0.1661170217805178 -0.9552761252515151
vn 0.24464803207715116 -0.1661170217805178 0.9552761252515151
vn -0.213218937970249 -0.16528595191493523 0.9629217198663726
vn 0.213218937970249 0.16528595191493523 -0.9629217198663726
vn -0.09352098206576355 0.16985296742780912 -0.9810218118724081
vn 0.09352098206576355 -0.16985296742780912 0.9810218118724081
vn -0.061004002376898986 -0.16957700660722902 0.9836270383250609
vn 0.061004002376898986 0.16957700660722902 -0.9836270383250609
vn -0.016329001475186553 0.17022401537829357 -0.9852700890107817
vn 0.016329001475186553 -0.17022401537829357 0.9852700890107817
vn 0.9669629154405471 0.038961996592831984 -0.25192197796980187
vn -0.9669629154405471 -0.038961996592831984 0.25192197796980187
vn 0.8764921451593822 0.07792201290497731 -0.47506807867793127
vn -0.8764921451593822 -0.07792201290497731 0.47506807867793127
vn 0.9570816611065359 -0.05367898099278614 0.2848038991536628
vn -0.9570816611065359 0.05367898099278614 -0.2848038991536628
vn 0.999802006402732 -0.001268000008120272 -0.019858000127170632
vn -0.999802006402732 0.001268000008120272 0.019858000127170632
vn 0.9533729186629929 -0.0557009952478698 0.29660997469472106
vn -0.9533729186629929 0.0557009952478698 -0.29660997469472106
vn 0.8954184877842788 -0.07984604349658318 0.4380072386069172
vn -0.8954184877842788 0.07984604349658318 -0.4380072386069172
vn 0.7554856863537607 -0.11493595228337235 0.6450047322208584
vn -0.7554856863537607 0.11493595228337235 -0.6450047322208584
vn 0.9762217773975427 -0.041333990574838546 0.21279695147708705
vn -0.9762217773975427 0.041333990574838546 -0.21279695147708705
vn 0.726491112134275 0.11362301753777092 -0.677717104605982
vn -0.726491112134275 -0.11362301753777092 0.677717104605982
vn 0.5566660379829951 -0.14390700981920734 0.818177055826677
vn -0.5566660379829951 0.14390700981920734 -0.818177055826677
vn 0.26064401846649904 0.16310101155562554 -0.9515580674174158
vn -0.26064401846649904 -0.16310101155562554 0.9515580674174158
vn 0.5180589701025587 0.1431919917363188 -0.84327395133424
vn -0.5180589701025587 -0.1431919917363188 0.84327395133424
usemtl material_0_0
f 1//1 2//1 3//1
f 2//1 1//1 4//1
f 3//2 2//2 1//2
f 4//2 1//2 2//2
f 5//3 3//3 2//3
f 2//4 3//4 5//4
f 6//5 1//5 3//5
f 3//6 1//6 6//6
f 1//4 7//4 4//4
f 4//3 7//3 1//3
f 4//7 8//7 2//7
f 2//8 8//8 4//8
f 9//3 3//3 5//3
f 5//4 3//4 9//4
f 5//3 2//3 10//3
f 10//4 2//4 5//4
f 1//5 6//5 11//5
f 11//6 6//6 1//6
f 9//3 6//3 3//3
f 3//4 6//4 9//4
f 1//4 12//4 7//4
f 7//3 12//3 1//3
f 4//4 7//4 13//4
f 13//3 7//3 4//3
f 8//7 4//7 14//7
f 14//8 4//8 8//8
f 10//3 2//3 8//3
f 8//4 2//4 10//4
f 5//9 12//9 9//9
f 9//10 12//10 5//10
f 10//11 7//11 5//11
f 5//12 7//12 10//12
f 15//13 11//13 6//13
f 6//14 11//14 15//14
f 11//4 12//4 1//4
f 1//3 12//3 11//3
f 16//3 6//3 9//3
f 9//4 6//4 16//4
f 12//9 5//9 7//9
f 7//10 5//10 12//10
f 7//11 10//11 13//11
f 13//12 10//12 7//12
f 4//4 13//4 14//4
f 14//3 13//3 4//3
f 14//15 17//15 8//15
f 8//16 17//16 14//16
f 10//3 8//3 18//3
f 18//4 8//4 10//4
f 12//17 16//17 9//17
f 9//18 16//18 12//18
f 11//13 15//13 19//13
f 19//14 15//14 11//14
f 16//3 15//3 6//3
f 6//4 15//4 16//4
f 11//4 20//4 12//4
f 12//3 20//3 11//3
f 10//19 21//19 13//19
f 13//20 21//20 10//20
f 14//4 13//4 21//4
f 21//3 13//3 14//3
f 17//15 14//15 22//15
f 22//16 14//16 17//16
f 18//3 8//3 17//3
f 17//4 8//4 18//4
f 21//19 10//19 18//19
f 18//20 10//20 21//20
f 16//17 12//17 20//17
f 20//18 12//18 16//18
f 23//21 19//21 15//21
f 15//22 19//22 23//22
f 19//4 20//4 11//4
f 11//3 20//3 19//3
f 24//3 15//3 16//3
f 16//4 15//4 24//4
f 14//4 21//4 22//4
f 22//3 21//3 14//3
f 22//23 25//23 17//23
f 17//24 25//24 22//24
f 18//3 17//3 26//3
f 26//4 17//4 18//4
f 18//25 27//25 21//25
f 21//26 27//26 18//26
f 28//27 16//27 20//27
f 20//28 16//28 28//28
f 19//21 23//21 29//21
f 29//22 23//22 19//22
f 15//3 30//3 23//3
f 23//4 30//4 15//4
f 19//4 28//4 20//4
f 20//3 28//3 19//3
f 30//3 15//3 24//3
f 24//4 15//4 30//4
f 16//27 28//27 24//27
f 24//28 28//28 16//28
f 22//4 21//4 27//4
f 27//3 21//3 22//3
f 25//23 22//23 31//23
f 31//24 22//24 25//24
f 26//3 17//3 25//3
f 25//4 17//4 26//4
f 27//25 18//25 26//25
f 26//26 18//26 27//26
f 30//29 29//29 23//29
f 23//30 29//30 30//30
f 29//4 28//4 19//4
f 19//3 28//3 29//3
f 24//31 32//31 30//31
f 30//32 32//32 24//32
f 32//31 24//31 28//31
f 28//32 24//32 32//32
f 22//4 27//4 31//4
f 31//3 27//3 22//3
f 31//33 33//33 25//33
f 25//34 33//34 31//34
f 26//3 25//3 34//3
f 34//4 25//4 26//4
f 26//35 35//35 27//35
f 27//36 35//36 26//36
f 29//29 30//29 32//29
f 32//30 30//30 29//30
f 28//4 29//4 32//4
f 32//3 29//3 28//3
f 31//4 27//4 35//4
f 35//3 27//3 31//3
f 33//33 31//33 36//33
f 36//34 31//34 33//34
f 34//3 25//3 33//3
f 33//4 25//4 34//4
f 35//35 26//35 34//35
f 34//36 26//36 35//36
f 31//4 35//4 36//4
f 36//3 35//3 31//3
f 36//37 37//37 33//37
f 33//38 37//38 36//38
f 34//3 33//3 38//3
f 38//4 33//4 34//4
f 34//39 39//39 35//39
f 35//40 39//40 34//40
f 36//4 35//4 39//4
f 39//3 35//3 36//3
f 37//37 36//37 40//37
f 40//38 36//38 37//38
f 38//3 33//3 37//3
f 37//4 33//4 38//4
f 39//39 34//39 38//39
f 38//40 34//40 39//40
f 36//4 39//4 40//4
f 40//3 39//3 36//3
f 41//41 37//41 40//41
f 40//42 37//42 41//42
f 38//3 37//3 42//3
f 42//4 37//4 38//4
f 38//43 43//43 39//43
f 39//44 43//44 38//44
f 40//4 39//4 43//4
f 43//3 39//3 40//3
f 37//41 41//41 44//41
f 44//42 41//42 37//42
f 40//4 43//4 41//4
f 41//3 43//3 40//3
f 42//3 37//3 44//3
f 44//4 37//4 42//4
f 43//43 38//43 42//43
f 42//44 38//44 43//44
f 41//45 45//45 44//45
f 44//46 45//46 41//46
f 41//4 43//4 46//4
f 46//3 43//3 41//3
f 42//3 44//3 47//3
f 47//4 44//4 42//4
f 42//47 46//47 43//47
f 43//48 46//48 42//48
f 45//45 41//45 48//45
f 48//46 41//46 45//46
f 47//3 44//3 45//3
f 45//4 44//4 47//4
f 41//4 46//4 48//4
f 48//3 46//3 41//3
f 46//47 42//47 47//47
f 47//48 42//48 46//48
f 49//49 45//49 48//49
f 48//50 45//50 49//50
f 47//3 45//3 50//3
f 50//4 45//4 47//4
f 48//4 46//4 51//4
f 51//3 46//3 48//3
f 47//51 51//51 46//51
f 46//52 51//52 47//52
f 45//49 49//49 52//49
f 52//50 49//50 45//50
f 48//4 53//4 49//4
f 49//3 53//3 48//3
f 50//3 45//3 52//3
f 52//4 45//4 50//4
f 51//51 47//51 50//51
f 50//52 47//52 51//52
f 48//4 51//4 53//4
f 53//3 51//3 48//3
f 49//53 54//53 52//53
f 52//54 54//54 49//54
f 49//4 53//4 55//4
f 55//3 53//3 49//3
f 50//3 52//3 56//3
f 56//4 52//4 50//4
f 57//54 51//54 50//54
f 50//53 51//53 57//53
f 53//4 51//4 58//4
f 58//3 51//3 53//3
f 54//53 49//53 59//53
f 59//54 49//54 54//54
f 60//3 52//3 54//3
f 54//4 52//4 60//4
f 53//55 61//55 55//55
f 55//56 61//56 53//56
f 49//4 55//4 62//4
f 62//3 55//3 49//3
f 56//3 52//3 61//3
f 61//4 52//4 56//4
f 50//3 56//3 63//3
f 63//4 56//4 50//4
f 51//54 57//54 64//54
f 64//53 57//53 51//53
f 50//3 63//3 57//3
f 57//4 63//4 50//4
f 58//4 51//4 64//4
f 64//3 51//3 58//3
f 58//57 56//57 53//57
f 53//58 56//58 58//58
f 49//4 65//4 59//4
f 59//3 65//3 49//3
f 59//59 66//59 54//59
f 54//60 66//60 59//60
f 67//3 52//3 60//3
f 60//4 52//4 67//4
f 60//3 54//3 68//3
f 68//4 54//4 60//4
f 61//55 53//55 56//55
f 56//56 53//56 61//56
f 69//61 55//61 61//61
f 61//62 55//62 69//62
f 55//61 69//61 62//61
f 62//62 69//62 55//62
f 70//4 49//4 62//4
f 62//3 49//3 70//3
f 61//3 52//3 69//3
f 69//4 52//4 61//4
f 56//57 58//57 63//57
f 63//58 58//58 56//58
f 71//63 64//63 57//63
f 57//64 64//64 71//64
f 57//3 63//3 72//3
f 72//4 63//4 57//4
f 58//4 64//4 73//4
f 73//3 64//3 58//3
f 65//4 49//4 70//4
f 70//3 49//3 65//3
f 59//4 65//4 74//4
f 74//3 65//3 59//3
f 66//59 59//59 75//59
f 75//60 59//60 66//60
f 68//3 54//3 66//3
f 66//4 54//4 68//4
f 52//3 67//3 69//3
f 69//4 67//4 52//4
f 65//65 67//65 60//65
f 60//66 67//66 65//66
f 74//67 60//67 68//67
f 68//68 60//68 74//68
f 67//69 62//69 69//69
f 69//70 62//70 67//70
f 62//69 67//69 70//69
f 70//70 67//70 62//70
f 58//71 72//71 63//71
f 63//72 72//72 58//72
f 64//63 71//63 76//63
f 76//64 71//64 64//64
f 57//3 77//3 71//3
f 71//4 77//4 57//4
f 57//3 72//3 77//3
f 77//4 72//4 57//4
f 73//4 64//4 78//4
f 78//3 64//3 73//3
f 72//71 58//71 73//71
f 73//72 58//72 72//72
f 67//65 65//65 70//65
f 70//66 65//66 67//66
f 60//67 74//67 65//67
f 65//68 74//68 60//68
f 59//4 74//4 75//4
f 75//3 74//3 59//3
f 75//73 68//73 66//73
f 66//74 68//74 75//74
f 68//73 75//73 74//73
f 74//74 75//74 68//74
f 71//75 78//75 76//75
f 76//76 78//76 71//76
f 78//4 64//4 76//4
f 76//3 64//3 78//3
f 78//75 71//75 77//75
f 77//76 71//76 78//76
f 73//77 77//77 72//77
f 72//78 77//78 73//78
f 77//77 73//77 78//77
f 78//78 73//78 77//78
