# SSTK version 0.8.0
# 5
mtllib original-5.mtl
o mesh3/mesh3-geometry#mesh3-geometry
v -0.338645 0.108917 -0.317341
v -0.337503 0.108528 -0.310869
v -0.337488 0.106486 -0.316449
v -0.338661 0.110959 -0.311761
v -0.344894 0.105035 -0.315935
v -0.378494 0.110842 -0.311805
v -0.344909 0.107077 -0.310354
v -0.378478 0.108800 -0.317386
v -0.351544 0.102212 -0.314916
v -0.379077 0.110810 -0.311795
v -0.351560 0.104254 -0.309336
v -0.356985 0.098211 -0.313464
v -0.379062 0.108768 -0.317375
v -0.378557 0.062734 -0.294202
v -0.357001 0.100253 -0.307883
v -0.360846 0.093303 -0.311676
v -0.378541 0.060692 -0.299782
v -0.379650 0.110718 -0.311762
v -0.362917 0.084188 -0.302018
v -0.379112 0.062761 -0.294213
v -0.360862 0.095345 -0.306096
v -0.362864 0.087823 -0.309676
v -0.362901 0.082146 -0.307598
v -0.379096 0.060719 -0.299793
v -0.379634 0.108676 -0.317343
v -0.360971 0.078698 -0.300005
v -0.362879 0.089865 -0.304095
v -0.360955 0.076656 -0.305585
v -0.380203 0.110567 -0.311708
v -0.379657 0.062845 -0.294245
v -0.357174 0.073772 -0.298194
v -0.379642 0.060803 -0.299825
v -0.357159 0.071730 -0.303774
v -0.336779 0.060814 -0.299736
v -0.380187 0.108525 -0.317289
v -0.351786 0.069744 -0.296708
v -0.351771 0.067702 -0.302289
v -0.336795 0.062856 -0.294155
v -0.337771 0.063359 -0.300669
v -0.380711 0.108318 -0.317214
v -0.380184 0.062986 -0.294297
v -0.380169 0.060944 -0.299878
v -0.345173 0.066888 -0.295649
v -0.345158 0.064846 -0.301230
v -0.337786 0.065401 -0.295088
v -0.380727 0.110360 -0.311634
v -0.381212 0.110101 -0.311540
v -0.380668 0.061138 -0.299950
v -0.380684 0.063180 -0.294369
v -0.381196 0.108059 -0.317121
v -0.381635 0.107752 -0.317009
v -0.381147 0.063424 -0.294460
v -0.381131 0.061382 -0.300040
v -0.381650 0.109794 -0.311428
v -0.382019 0.107402 -0.316882
v -0.381550 0.061672 -0.300147
v -0.381566 0.063714 -0.294567
v -0.382034 0.109444 -0.311301
v -0.382358 0.109057 -0.311160
v -0.381918 0.062003 -0.300269
v -0.381934 0.064045 -0.294689
v -0.382342 0.107015 -0.316741
v -0.382600 0.106598 -0.316589
v -0.382244 0.064411 -0.294823
v -0.382228 0.062369 -0.300404
v -0.382615 0.108640 -0.311008
v -0.382786 0.106158 -0.316428
v -0.382475 0.062764 -0.300549
v -0.382491 0.064806 -0.294969
v -0.382802 0.108200 -0.310848
v -0.382914 0.107744 -0.310681
v -0.382655 0.063182 -0.300702
v -0.382671 0.065224 -0.295122
v -0.382899 0.105702 -0.316262
v -0.382935 0.105239 -0.316092
v -0.382781 0.065657 -0.295280
v -0.382765 0.063615 -0.300861
v -0.382951 0.107281 -0.310512
v -0.382803 0.064055 -0.301022
v -0.382819 0.066097 -0.295442
vn 0.95247705293439 0.2867260159349421 -0.10283800571527374
vn -0.95247705293439 -0.2867260159349421 0.10283800571527374
vn 0.27898004353735 -0.9016211407061047 0.3305290515820373
vn -0.27898004353735 0.9016211407061047 -0.3305290515820373
vn 0.0026190000063942885 -0.34363400083898243 -0.9391000022928128
vn -0.0026190000063942885 0.34363400083898243 0.9391000022928128
vn -0.003015999948749114 0.9390969840419252 -0.34363899416054267
vn 0.003015999948749114 -0.9390969840419252 0.34363899416054267
vn 0.5335326971183757 -0.7938975493116344 0.2916668344234101
vn -0.5335326971183757 0.7938975493116344 -0.2916668344234101
vn -0.0802799834199373 0.9360158066865475 -0.3426799292270069
vn 0.0802799834199373 -0.9360158066865475 0.3426799292270069
vn 0.7381389809242747 -0.6330429836402705 0.23325399397201713
vn -0.7381389809242747 0.6330429836402705 -0.23325399397201713
vn -0.23187900769455716 0.9133440303079521 -0.3347160111070489
vn 0.23187900769455716 -0.9133440303079521 0.3347160111070489
vn 0.884133926938712 -0.4381539637927106 0.1622599865914843
vn -0.884133926938712 0.4381539637927106 -0.1622599865914843
vn -0.07427496797568597 -0.9365615961931257 0.34254285230959813
vn 0.07427496797568597 0.9365615961931257 -0.34254285230959813
vn 0.970783335345997 -0.22465307760383554 0.0843250291291166
vn -0.970783335345997 0.22465307760383554 -0.0843250291291166
vn -0.37524502573618096 0.8702140596836333 -0.31924702189555776
vn 0.37524502573618096 -0.8702140596836333 0.31924702189555776
vn 0.9727860051800855 0.21827300116230372 -0.07774500041399211
vn -0.9727860051800855 -0.21827300116230372 0.07774500041399211
vn 0.9999890628363146 -0.003242000203717573 0.0033710002118235464
vn -0.9999890628363146 0.003242000203717573 -0.0033710002118235464
vn -0.22607499163126915 -0.9149489661308773 0.3343029876249394
vn 0.22607499163126915 0.9149489661308773 -0.3343029876249394
vn 0.8881848525178058 0.43212792824559565 -0.15618297406597548
vn -0.8881848525178058 -0.43212792824559565 0.15618297406597548
vn -0.5062299809908114 0.8095239696019707 -0.29732498883529823
vn 0.5062299809908114 -0.8095239696019707 0.29732498883529823
vn -0.36981690960104113 -0.8727857866540865 0.3185599221304258
vn 0.36981690960104113 0.8727857866540865 -0.3185599221304258
vn 0.7442558687709562 0.6277448893144616 -0.2280779597847275
vn -0.7442558687709562 -0.6277448893144616 0.2280779597847275
vn 0.9673951328025617 0.23852303274408637 -0.0851670116916004
vn -0.9673951328025617 -0.23852303274408637 0.0851670116916004
vn 0.541561027594972 0.789849040246364 -0.28783701466659156
vn -0.541561027594972 -0.789849040246364 0.28783701466659156
vn 0.2884240216374267 0.8993970674723207 -0.328476024642108
vn -0.2884240216374267 -0.8993970674723207 0.328476024642108
vn -0.6221451057080617 0.7347861248467863 -0.27023104591469066
vn 0.6221451057080617 -0.7347861248467863 0.27023104591469066
vn -0.5013070845228882 -0.8129301370640974 0.29637104996964514
vn 0.5013070845228882 0.8129301370640974 -0.29637104996964514
vn -0.7217149260206154 0.6495279334201426 -0.23925097547558002
vn 0.7217149260206154 -0.6495279334201426 0.23925097547558002
vn -0.6178077955349994 -0.7388787554662691 0.2690199109672026
vn 0.6178077955349994 0.7388787554662691 -0.2690199109672026
vn -0.8047738612062975 0.5568649039614163 -0.20552496455455108
vn 0.8047738612062975 -0.5568649039614163 0.20552496455455108
vn -0.7179990711371976 -0.6541620648124182 0.23780102356061322
vn 0.7179990711371976 0.6541620648124182 -0.23780102356061322
vn -0.8718708262243914 0.4592949084563334 -0.16996896612289386
vn 0.8718708262243914 -0.4592949084563334 0.16996896612289386
vn -0.8016836300948408 -0.5619107407285441 0.20386190593599776
vn 0.8016836300948408 0.5619107407285441 -0.20386190593599776
vn -0.9239054887750554 0.35866480153988095 -0.13325992626323876
vn 0.9239054887750554 -0.35866480153988095 0.13325992626323876
vn -0.8693917504859076 -0.46464286664821336 0.16812195174925895
vn 0.8693917504859076 0.46464286664821336 -0.16812195174925895
vn -0.9618450790083626 0.2562490210489361 -0.09586700787475601
vn 0.9618450790083626 -0.2562490210489361 0.09586700787475601
vn -0.9220130076886666 -0.36422800303729735 0.13126300109460218
vn 0.9220130076886666 0.36422800303729735 -0.13126300109460218
vn -0.9865369932969743 0.1528719989613112 -0.05809399960528031
vn 0.9865369932969743 -0.1528719989613112 0.05809399960528031
vn -0.9605145629069015 -0.26195688079353596 0.09375695733482804
vn 0.9605145629069015 0.26195688079353596 -0.09375695733482804
vn -0.9985935217347319 0.04904897650853787 -0.020128990359443797
vn 0.9985935217347319 -0.04904897650853787 0.020128990359443797
vn -0.9857475657521706 -0.15866993010170644 0.05590697537150124
vn 0.9857475657521706 0.15866993010170644 -0.05590697537150124
vn -0.999995106409985 -0.0029230003110379413 -0.0011150001186477267
vn 0.999995106409985 0.0029230003110379413 0.0011150001186477267
vn -0.9983319312343999 -0.05488899621921863 0.017903998766763657
vn 0.9983319312343999 0.05488899621921863 -0.017903998766763657
usemtl material_0_0
f 1//1 2//1 3//1
f 2//1 1//1 4//1
f 3//2 2//2 1//2
f 4//2 1//2 2//2
f 2//3 5//3 3//3
f 3//4 5//4 2//4
f 5//5 1//5 3//5
f 3//6 1//6 5//6
f 1//7 6//7 4//7
f 4//8 6//8 1//8
f 4//6 7//6 2//6
f 2//5 7//5 4//5
f 5//3 2//3 7//3
f 7//4 2//4 5//4
f 1//5 5//5 8//5
f 8//6 5//6 1//6
f 6//7 1//7 8//7
f 8//8 1//8 6//8
f 7//6 4//6 6//6
f 6//5 4//5 7//5
f 7//9 9//9 5//9
f 5//10 9//10 7//10
f 8//5 5//5 9//5
f 9//6 5//6 8//6
f 8//11 10//11 6//11
f 6//12 10//12 8//12
f 7//6 6//6 11//6
f 11//5 6//5 7//5
f 9//9 7//9 11//9
f 11//10 7//10 9//10
f 8//5 9//5 12//5
f 12//6 9//6 8//6
f 10//11 8//11 13//11
f 13//12 8//12 10//12
f 14//6 6//6 10//6
f 10//5 6//5 14//5
f 11//6 6//6 15//6
f 15//5 6//5 11//5
f 11//13 12//13 9//13
f 9//14 12//14 11//14
f 8//5 12//5 16//5
f 16//6 12//6 8//6
f 8//5 17//5 13//5
f 13//6 17//6 8//6
f 13//15 18//15 10//15
f 10//16 18//16 13//16
f 14//6 19//6 6//6
f 6//5 19//5 14//5
f 14//6 10//6 20//6
f 20//5 10//5 14//5
f 15//6 6//6 21//6
f 21//5 6//5 15//5
f 12//13 11//13 15//13
f 15//14 11//14 12//14
f 15//17 16//17 12//17
f 12//18 16//18 15//18
f 8//5 16//5 22//5
f 22//6 16//6 8//6
f 23//5 17//5 8//5
f 8//6 17//6 23//6
f 13//5 17//5 24//5
f 24//6 17//6 13//6
f 18//15 13//15 25//15
f 25//16 13//16 18//16
f 20//6 10//6 18//6
f 18//5 10//5 20//5
f 14//6 26//6 19//6
f 19//5 26//5 14//5
f 27//6 6//6 19//6
f 19//5 6//5 27//5
f 24//19 14//19 20//19
f 20//20 14//20 24//20
f 21//6 6//6 27//6
f 27//5 6//5 21//5
f 16//17 15//17 21//17
f 21//18 15//18 16//18
f 16//21 27//21 22//21
f 22//22 27//22 16//22
f 8//5 22//5 23//5
f 23//6 22//6 8//6
f 28//5 17//5 23//5
f 23//6 17//6 28//6
f 14//19 24//19 17//19
f 17//20 24//20 14//20
f 13//5 24//5 25//5
f 25//6 24//6 13//6
f 25//23 29//23 18//23
f 18//24 29//24 25//24
f 20//6 18//6 30//6
f 30//5 18//5 20//5
f 14//6 31//6 26//6
f 26//5 31//5 14//5
f 28//25 19//25 26//25
f 26//26 19//26 28//26
f 19//27 22//27 27//27
f 27//28 22//28 19//28
f 20//29 32//29 24//29
f 24//30 32//30 20//30
f 27//21 16//21 21//21
f 21//22 16//22 27//22
f 22//27 19//27 23//27
f 23//28 19//28 22//28
f 33//5 17//5 28//5
f 28//6 17//6 33//6
f 19//25 28//25 23//25
f 23//26 28//26 19//26
f 34//8 14//8 17//8
f 17//7 14//7 34//7
f 25//5 24//5 32//5
f 32//6 24//6 25//6
f 29//23 25//23 35//23
f 35//24 25//24 29//24
f 30//6 18//6 29//6
f 29//5 18//5 30//5
f 32//29 20//29 30//29
f 30//30 20//30 32//30
f 14//6 36//6 31//6
f 31//5 36//5 14//5
f 31//31 28//31 26//31
f 26//32 28//32 31//32
f 37//5 17//5 33//5
f 33//6 17//6 37//6
f 28//31 31//31 33//31
f 33//32 31//32 28//32
f 14//8 34//8 38//8
f 38//7 34//7 14//7
f 17//5 39//5 34//5
f 34//6 39//6 17//6
f 25//5 32//5 35//5
f 35//6 32//6 25//6
f 40//33 29//33 35//33
f 35//34 29//34 40//34
f 30//6 29//6 41//6
f 41//5 29//5 30//5
f 30//35 42//35 32//35
f 32//36 42//36 30//36
f 14//6 43//6 36//6
f 36//5 43//5 14//5
f 37//37 31//37 36//37
f 36//38 31//38 37//38
f 44//5 17//5 37//5
f 37//6 17//6 44//6
f 31//37 37//37 33//37
f 33//38 37//38 31//38
f 39//39 38//39 34//39
f 34//40 38//40 39//40
f 45//6 14//6 38//6
f 38//5 14//5 45//5
f 39//5 17//5 44//5
f 44//6 17//6 39//6
f 35//5 32//5 42//5
f 42//6 32//6 35//6
f 29//33 40//33 46//33
f 46//34 40//34 29//34
f 35//5 42//5 40//5
f 40//6 42//6 35//6
f 41//6 29//6 46//6
f 46//5 29//5 41//5
f 42//35 30//35 41//35
f 41//36 30//36 42//36
f 14//6 45//6 43//6
f 43//5 45//5 14//5
f 44//41 36//41 43//41
f 43//42 36//42 44//42
f 36//41 44//41 37//41
f 37//42 44//42 36//42
f 38//39 39//39 45//39
f 45//40 39//40 38//40
f 43//43 39//43 44//43
f 44//44 39//44 43//44
f 40//45 47//45 46//45
f 46//46 47//46 40//46
f 40//5 42//5 48//5
f 48//6 42//6 40//6
f 41//6 46//6 49//6
f 49//5 46//5 41//5
f 41//47 48//47 42//47
f 42//48 48//48 41//48
f 39//43 43//43 45//43
f 45//44 43//44 39//44
f 47//45 40//45 50//45
f 50//46 40//46 47//46
f 49//6 46//6 47//6
f 47//5 46//5 49//5
f 40//5 48//5 50//5
f 50//6 48//6 40//6
f 48//47 41//47 49//47
f 49//48 41//48 48//48
f 51//49 47//49 50//49
f 50//50 47//50 51//50
f 49//6 47//6 52//6
f 52//5 47//5 49//5
f 50//5 48//5 53//5
f 53//6 48//6 50//6
f 52//51 48//51 49//51
f 49//52 48//52 52//52
f 47//49 51//49 54//49
f 54//50 51//50 47//50
f 50//5 53//5 51//5
f 51//6 53//6 50//6
f 52//6 47//6 54//6
f 54//5 47//5 52//5
f 48//51 52//51 53//51
f 53//52 52//52 48//52
f 55//53 54//53 51//53
f 51//54 54//54 55//54
f 51//5 53//5 56//5
f 56//6 53//6 51//6
f 52//6 54//6 57//6
f 57//5 54//5 52//5
f 52//55 56//55 53//55
f 53//56 56//56 52//56
f 54//53 55//53 58//53
f 58//54 55//54 54//54
f 51//5 56//5 55//5
f 55//6 56//6 51//6
f 57//6 54//6 58//6
f 58//5 54//5 57//5
f 56//55 52//55 57//55
f 57//56 52//56 56//56
f 55//57 59//57 58//57
f 58//58 59//58 55//58
f 55//5 56//5 60//5
f 60//6 56//6 55//6
f 57//6 58//6 61//6
f 61//5 58//5 57//5
f 57//59 60//59 56//59
f 56//60 60//60 57//60
f 59//57 55//57 62//57
f 62//58 55//58 59//58
f 61//6 58//6 59//6
f 59//5 58//5 61//5
f 55//5 60//5 62//5
f 62//6 60//6 55//6
f 60//59 57//59 61//59
f 61//60 57//60 60//60
f 63//61 59//61 62//61
f 62//62 59//62 63//62
f 61//6 59//6 64//6
f 64//5 59//5 61//5
f 62//5 60//5 65//5
f 65//6 60//6 62//6
f 64//63 60//63 61//63
f 61//64 60//64 64//64
f 59//61 63//61 66//61
f 66//62 63//62 59//62
f 62//5 65//5 63//5
f 63//6 65//6 62//6
f 64//6 59//6 66//6
f 66//5 59//5 64//5
f 60//63 64//63 65//63
f 65//64 64//64 60//64
f 67//65 66//65 63//65
f 63//66 66//66 67//66
f 63//5 65//5 68//5
f 68//6 65//6 63//6
f 64//6 66//6 69//6
f 69//5 66//5 64//5
f 69//67 65//67 64//67
f 64//68 65//68 69//68
f 66//65 67//65 70//65
f 70//66 67//66 66//66
f 63//5 68//5 67//5
f 67//6 68//6 63//6
f 65//67 69//67 68//67
f 68//68 69//68 65//68
f 69//6 66//6 70//6
f 70//5 66//5 69//5
f 67//69 71//69 70//69
f 70//70 71//70 67//70
f 67//5 68//5 72//5
f 72//6 68//6 67//6
f 69//71 72//71 68//71
f 68//72 72//72 69//72
f 69//6 70//6 73//6
f 73//5 70//5 69//5
f 71//69 67//69 74//69
f 74//70 67//70 71//70
f 73//6 70//6 71//6
f 71//5 70//5 73//5
f 67//5 72//5 74//5
f 74//6 72//6 67//6
f 72//71 69//71 73//71
f 73//72 69//72 72//72
f 75//73 71//73 74//73
f 74//74 71//74 75//74
f 73//6 71//6 76//6
f 76//5 71//5 73//5
f 74//5 72//5 77//5
f 77//6 72//6 74//6
f 76//75 72//75 73//75
f 73//76 72//76 76//76
f 71//73 75//73 78//73
f 78//74 75//74 71//74
f 74//5 77//5 75//5
f 75//6 77//6 74//6
f 76//6 71//6 78//6
f 78//5 71//5 76//5
f 72//75 76//75 77//75
f 77//76 76//76 72//76
f 79//77 78//77 75//77
f 75//78 78//78 79//78
f 75//5 77//5 79//5
f 79//6 77//6 75//6
f 76//6 78//6 80//6
f 80//5 78//5 76//5
f 80//79 77//79 76//79
f 76//80 77//80 80//80
f 78//77 79//77 80//77
f 80//78 79//78 78//78
f 77//79 80//79 79//79
f 79//80 80//80 77//80
