# SSTK version 0.8.0
# 13
mtllib original-13.mtl
o #ID212
v 0.379375 0.415081 0.031329
v 0.200573 0.415081 -0.254311
v 0.368959 0.415081 0.037342
v 0.210989 0.415081 -0.260325
v 0.210989 0.415081 -0.260325
v 0.379375 0.415081 0.031329
v 0.200573 0.415081 -0.254311
v 0.368959 0.415081 0.037342
vt -0.3921802 0.1163166
vt -0.06233695 0.4345866
vt -0.3991246 0.1348575
vt -0.05539251 0.4160456
vt -0.1661775 0.8097089
vt -1.17654 0.2263755
vt -0.1870109 0.8457933
vt -1.197374 0.2624599
vn 0 1 0
vn 0 -1 0
usemtl material_0_0
f 1/1/1 2/2/1 3/3/1
f 2/2/1 1/1/1 4/4/1
usemtl material_1_0
f 5/5/2 6/6/2 7/7/2
f 8/8/2 7/7/2 6/6/2
