# SSTK version 0.8.0
# 17
mtllib original-17.mtl
o mesh16/mesh16-geometry#mesh16-geometry
v 0.324948 -0.206258 0.170278
v 0.324900 -0.206258 0.179682
v 0.324374 -0.206258 0.170636
v 0.324960 -0.206258 0.179369
v 0.325104 -0.206258 0.200788
v 0.324637 -0.206258 0.168997
v 0.325012 -0.206258 0.174736
v 0.324960 -0.206258 0.179993
v 0.323863 -0.206258 0.171530
v 0.325698 -0.206258 0.168834
v 0.325746 -0.206258 0.170158
v 0.325012 -0.206258 0.176571
v 0.325139 -0.206258 0.180256
v 0.323604 -0.206258 0.171889
v 0.323656 -0.206258 0.169488
v 0.350206 -0.206333 0.162065
v 0.325179 -0.206258 0.174142
v 0.325056 -0.206258 0.176899
v 0.325139 -0.206258 0.179099
v 0.323524 -0.206258 0.204425
v 0.327576 -0.206258 0.195332
v 0.301714 -0.206333 0.161756
v 0.326970 -0.206258 0.169029
v 0.325682 -0.206258 0.173763
v 0.325403 -0.206258 0.180436
v 0.323273 -0.206258 0.172008
v 0.323620 -0.206258 0.206515
v 0.326747 -0.206258 0.200581
v 0.323188 -0.206258 0.169868
v 0.301714 -0.211908 0.161756
v 0.328043 -0.206258 0.169616
v 0.326486 -0.206258 0.170280
v 0.326926 -0.206258 0.173317
v 0.325187 -0.206258 0.177133
v 0.325403 -0.206258 0.178914
v 0.322998 -0.206258 0.205925
v 0.323153 -0.206258 0.206368
v 0.324007 -0.206258 0.206396
v 0.325714 -0.206258 0.180495
v 0.324274 -0.206258 0.206037
v 0.328326 -0.206258 0.196944
v 0.322854 -0.206258 0.170289
v 0.350206 -0.211908 0.162065
v 0.300282 -0.206333 0.162022
v 0.328504 -0.206258 0.170069
v 0.327078 -0.206258 0.170645
v 0.326416 -0.206258 0.174960
v 0.325407 -0.206258 0.177274
v 0.322973 -0.206258 0.171962
v 0.350734 -0.206333 0.217764
v 0.326025 -0.206258 0.180436
v 0.327844 -0.206258 0.194973
v 0.322654 -0.206258 0.170753
v 0.351174 -0.206333 0.162179
v 0.300282 -0.211908 0.162022
v 0.300305 -0.206333 0.217455
v 0.328833 -0.206258 0.170585
v 0.328378 -0.206258 0.173867
v 0.327467 -0.206258 0.171209
v 0.325714 -0.206258 0.177321
v 0.327529 -0.206258 0.174551
v 0.325714 -0.206258 0.178852
v 0.322759 -0.206258 0.171821
v 0.301273 -0.206333 0.217568
v 0.326288 -0.206258 0.180256
v 0.328230 -0.206258 0.194854
v 0.328853 -0.206258 0.195444
v 0.322587 -0.206258 0.171259
v 0.351174 -0.211908 0.162179
v 0.299842 -0.206333 0.162235
v 0.329030 -0.206258 0.171162
v 0.328916 -0.206258 0.172940
v 0.327596 -0.206258 0.171929
v 0.327219 -0.206258 0.173080
v 0.326042 -0.206258 0.177241
v 0.326440 -0.206258 0.175446
v 0.301273 -0.211908 0.217568
v 0.326025 -0.206258 0.178914
v 0.326468 -0.206258 0.179993
v 0.328697 -0.206258 0.195001
v 0.351638 -0.206333 0.162331
v 0.329096 -0.206258 0.171801
v 0.351198 -0.206333 0.217612
v 0.299842 -0.211908 0.162235
v 0.299841 -0.206333 0.217302
v 0.300305 -0.211908 0.217455
v 0.327429 -0.206258 0.172770
v 0.326276 -0.206258 0.177002
v 0.326464 -0.206258 0.176045
v 0.326417 -0.206258 0.176603
v 0.350734 -0.211908 0.217764
v 0.326288 -0.206258 0.179099
v 0.326527 -0.206258 0.179682
v 0.351638 -0.211908 0.162331
v 0.351198 -0.211908 0.217612
v 0.299435 -0.206333 0.162504
v 0.299841 -0.211908 0.217302
v 0.326468 -0.206258 0.179369
v 0.352078 -0.206333 0.162544
v 0.351638 -0.206333 0.217399
v 0.351638 -0.211908 0.217399
v 0.299435 -0.211908 0.162504
v 0.299401 -0.206333 0.217089
v 0.299401 -0.211908 0.217089
v 0.352078 -0.211908 0.162544
v 0.352045 -0.206333 0.217129
v 0.299067 -0.206333 0.162826
v 0.352485 -0.206333 0.162814
v 0.352413 -0.206333 0.216808
v 0.352045 -0.211908 0.217129
v 0.299067 -0.211908 0.162826
v 0.298994 -0.206333 0.216820
v 0.298994 -0.211908 0.216820
v 0.352485 -0.211908 0.162814
v 0.352413 -0.211908 0.216808
v 0.298745 -0.211908 0.163193
v 0.298745 -0.206333 0.163193
v 0.352853 -0.206333 0.163135
v 0.352734 -0.206333 0.216440
v 0.298476 -0.206333 0.163601
v 0.298035 -0.206333 0.215723
v 0.352853 -0.211908 0.163135
v 0.352734 -0.211908 0.216440
v 0.298476 -0.211908 0.163601
v 0.298263 -0.206333 0.164040
v 0.298035 -0.211908 0.215723
v 0.353175 -0.211908 0.163503
v 0.353004 -0.206333 0.216033
v 0.298263 -0.211908 0.164040
v 0.297822 -0.206333 0.215283
v 0.297997 -0.206333 0.165473
v 0.353175 -0.206333 0.163503
v 0.353004 -0.211908 0.216033
v 0.297997 -0.211908 0.165473
v 0.297822 -0.211908 0.215283
v 0.353444 -0.211908 0.163910
v 0.353217 -0.206333 0.215593
v 0.297670 -0.206333 0.214819
v 0.297670 -0.211908 0.214819
v 0.353444 -0.206333 0.163910
v 0.353217 -0.211908 0.215593
v 0.353657 -0.211908 0.164350
v 0.353369 -0.206333 0.215129
v 0.353657 -0.206333 0.164350
v 0.353809 -0.206333 0.165165
v 0.353369 -0.211908 0.215129
v 0.353809 -0.211908 0.165165
vn 0 -1 0
vn 0 1 0
vn -0.08844897416573896 0 -0.996080709063793
vn 0.06148699290338688 0 -0.9981078848018878
vn -0.3119660789578447 0 -0.9500932404662542
vn 0.215281030390687 0 -0.9765521378574337
vn -0.49504395956481106 0 -0.8688679290308705
vn -0.06027997035660851 0 0.9981815091323855
vn 0.1560079678935635 0 0.9877557967198779
vn 0.3747861214087981 0 -0.927111300329874
vn -0.215281030390687 0 0.9765521378574337
vn 0.3747590916351674 0 0.9271222266976368
vn -0.606486711917364 0 -0.7950936223286313
vn -0.3747861214087981 0 0.927111300329874
vn 0.4950692845733326 0 -0.8688534994301679
vn 0.49504395956481106 0 0.8688679290308705
vn -0.4950692845733326 0 0.8688534994301679
vn -0.7070962811044147 0 -0.7071172811127633
vn 0.6065099315019852 0 -0.795075910205722
vn 0.606486711917364 0 0.7950936223286313
vn -0.6582848984312559 0 0.7527688838530395
vn 0.7070962811044147 0 0.7071172811127633
vn -0.795075910205722 0 -0.6065099315019852
vn 0.7071172811127633 0 -0.7070962811044147
vn 0.795075910205722 0 0.6065099315019852
vn -0.833844841558655 0 0.5519988951130439
vn -0.8688534994301679 0 -0.4950692845733326
vn 0.7950936223286313 0 -0.606486711917364
vn 0.8688534994301679 0 0.4950692845733326
vn -0.9500840650370568 0 -0.3119940213572394
vn -0.9271222266976368 0 0.3747590916351674
vn -0.9954829965710588 0 -0.09493999967297917
vn 0.8688679290308705 0 -0.49504395956481106
vn 0.927111300329874 0 0.3747861214087981
vn -0.9879622684940965 0 0.1546950420407812
vn 0.9500932404662542 0 -0.3119660789578447
vn 0.9867383264106255 0 0.16231905369474603
vn 0.9961864437533426 0 -0.08725003886571298
vn 0.08844897416573896 0 0.996080709063793
vn -0.06148699290338688 0 0.9981078848018878
vn 0.3119660789578447 0 0.9500932404662542
vn -0.1560079678935635 0 -0.9877557967198779
vn 0.06027997035660851 0 -0.9981815091323855
vn -0.3747590916351674 0 -0.9271222266976368
vn -0.6065099315019852 0 0.795075910205722
vn 0.6582848984312559 0 -0.7527688838530395
vn -0.7071172811127633 0 0.7070962811044147
vn 0.833844841558655 0 -0.5519988951130439
vn -0.7950936223286313 0 0.606486711917364
vn 0.9500840650370568 0 0.3119940213572394
vn 0.9271222266976368 0 -0.3747590916351674
vn 0.9954829965710588 0 0.09493999967297917
vn -0.8688679290308705 0 0.49504395956481106
vn -0.927111300329874 0 -0.3747861214087981
vn 0.9879622684940965 0 -0.1546950420407812
vn -0.9500932404662542 0 0.3119660789578447
vn -0.9867383264106255 0 -0.16231905369474603
vn -0.9961864437533426 0 0.08725003886571298
usemtl material_0_0
f 1//1 2//1 3//1
f 2//1 1//1 4//1
f 3//2 2//2 1//2
f 4//2 1//2 2//2
f 5//1 3//1 2//1
f 2//2 3//2 5//2
f 4//1 1//1 7//1
f 7//2 1//2 4//2
f 5//1 9//1 3//1
f 3//2 9//2 5//2
f 5//1 2//1 8//1
f 8//2 2//2 5//2
f 7//1 1//1 11//1
f 11//2 1//2 7//2
f 4//1 7//1 12//1
f 12//2 7//2 4//2
f 5//1 14//1 9//1
f 9//2 14//2 5//2
f 5//1 8//1 13//1
f 13//2 8//2 5//2
f 6//1 16//1 10//1
f 10//2 16//2 6//2
f 7//1 11//1 17//1
f 17//2 11//2 7//2
f 12//1 19//1 4//1
f 4//2 19//2 12//2
f 20//1 14//1 5//1
f 5//2 14//2 20//2
f 5//1 13//1 21//1
f 21//2 13//2 5//2
f 15//1 22//1 6//1
f 6//2 22//2 15//2
f 6//1 22//1 16//1
f 16//2 22//2 6//2
f 10//1 16//1 23//1
f 23//2 16//2 10//2
f 17//1 11//1 24//1
f 24//2 11//2 17//2
f 19//1 12//1 18//1
f 18//2 12//2 19//2
f 20//1 26//1 14//1
f 14//2 26//2 20//2
f 21//1 13//1 25//1
f 25//2 13//2 21//2
f 29//1 22//1 15//1
f 15//2 22//2 29//2
f 22//3 16//4 30//3
f 23//1 16//1 31//1
f 31//2 16//2 23//2
f 24//1 11//1 33//1
f 33//2 11//2 24//2
f 19//1 18//1 34//1
f 34//2 18//2 19//2
f 36//1 26//1 20//1
f 20//2 26//2 36//2
f 21//1 25//1 39//1
f 39//2 25//2 21//2
f 42//1 22//1 29//1
f 29//2 22//2 42//2
f 43//4 30//3 16//4
f 22//3 30//3 44//5
f 31//1 16//1 45//1
f 45//2 16//2 31//2
f 33//1 11//1 32//1
f 32//2 11//2 33//2
f 19//1 34//1 35//1
f 35//2 34//2 19//2
f 26//1 36//1 49//1
f 49//2 36//2 26//2
f 50//1 37//1 27//1
f 27//2 37//2 50//2
f 50//1 27//1 38//1
f 38//2 27//2 50//2
f 21//1 39//1 51//1
f 51//2 39//2 21//2
f 50//1 40//1 28//1
f 28//2 40//2 50//2
f 50//1 28//1 41//1
f 41//2 28//2 50//2
f 53//1 22//1 42//1
f 42//2 22//2 53//2
f 16//4 54//6 43//4
f 55//5 44//5 30//3
f 56//1 44//1 22//1
f 22//2 44//2 56//2
f 45//1 16//1 57//1
f 57//2 16//2 45//2
f 33//1 32//1 46//1
f 46//2 32//2 33//2
f 35//1 34//1 48//1
f 48//2 34//2 35//2
f 36//1 63//1 49//1
f 49//2 63//2 36//2
f 37//1 22//1 36//1
f 36//2 22//2 37//2
f 64//1 37//1 50//1
f 50//2 37//2 64//2
f 50//1 38//1 40//1
f 40//2 38//2 50//2
f 21//1 51//1 65//1
f 65//2 51//2 21//2
f 21//1 58//1 52//1
f 52//2 58//2 21//2
f 50//1 41//1 67//1
f 67//2 41//2 50//2
f 22//1 53//1 68//1
f 68//2 53//2 22//2
f 69//6 43//4 54//6
f 50//1 16//1 54//1
f 54//2 16//2 50//2
f 44//5 55//5 70//7
f 56//1 70//1 44//1
f 44//2 70//2 56//2
f 56//1 22//1 64//1
f 64//2 22//2 56//2
f 57//1 16//1 71//1
f 71//2 16//2 57//2
f 74//1 46//1 59//1
f 59//2 46//2 74//2
f 33//1 46//1 74//1
f 74//2 46//2 33//2
f 61//1 76//1 47//1
f 47//2 76//2 61//2
f 62//1 48//1 60//1
f 60//2 48//2 62//2
f 35//1 48//1 62//1
f 62//2 48//2 35//2
f 36//1 68//1 63//1
f 63//2 68//2 36//2
f 64//1 22//1 37//1
f 37//2 22//2 64//2
f 36//1 22//1 68//1
f 68//2 22//2 36//2
f 64//8 77//8 50//9
f 21//1 65//1 79//1
f 79//2 65//2 21//2
f 21//1 61//1 58//1
f 58//2 61//2 21//2
f 52//1 58//1 66//1
f 66//2 58//2 52//2
f 50//1 67//1 72//1
f 72//2 67//2 50//2
f 54//6 81//10 69//6
f 50//1 82//1 16//1
f 16//2 82//2 50//2
f 50//1 54//1 83//1
f 83//2 54//2 50//2
f 84//7 70//7 55//5
f 85//1 70//1 56//1
f 56//2 70//2 85//2
f 56//11 86//11 64//8
f 71//1 16//1 82//1
f 82//2 16//2 71//2
f 80//1 58//1 72//1
f 72//2 58//2 80//2
f 87//1 59//1 73//1
f 73//2 59//2 87//2
f 74//1 59//1 87//1
f 87//2 59//2 74//2
f 78//1 60//1 75//1
f 75//2 60//2 78//2
f 76//1 61//1 89//1
f 89//2 61//2 76//2
f 62//1 60//1 78//1
f 78//2 60//2 62//2
f 91//9 50//9 77//8
f 77//8 64//8 86//11
f 21//1 79//1 93//1
f 93//2 79//2 21//2
f 21//1 93//1 61//1
f 61//2 93//2 21//2
f 66//1 58//1 80//1
f 80//2 58//2 66//2
f 80//1 72//1 67//1
f 67//2 72//2 80//2
f 50//1 72//1 82//1
f 82//2 72//2 50//2
f 94//10 69//6 81//10
f 83//1 54//1 81//1
f 81//2 54//2 83//2
f 83//12 50//9 95//12
f 70//7 84//7 96//13
f 85//1 96//1 70//1
f 70//2 96//2 85//2
f 85//14 97//14 56//11
f 86//11 56//11 97//14
f 92//1 75//1 88//1
f 88//2 75//2 92//2
f 78//1 75//1 92//1
f 92//2 75//2 78//2
f 89//1 61//1 98//1
f 98//2 61//2 89//2
f 91//9 95//12 50//9
f 98//1 61//1 93//1
f 93//2 61//2 98//2
f 81//10 99//15 94//10
f 83//1 81//1 100//1
f 100//2 81//2 83//2
f 95//12 101//16 83//12
f 102//13 96//13 84//7
f 103//1 96//1 85//1
f 85//2 96//2 103//2
f 97//14 85//14 104//17
f 92//1 88//1 90//1
f 90//2 88//2 92//2
f 98//1 90//1 89//1
f 89//2 90//2 98//2
f 92//1 90//1 98//1
f 98//2 90//2 92//2
f 105//15 94//10 99//15
f 106//1 81//1 99//1
f 99//2 81//2 106//2
f 100//1 81//1 106//1
f 106//2 81//2 100//2
f 100//16 83//12 101//16
f 96//13 102//13 107//18
f 103//1 107//1 96//1
f 96//2 107//2 103//2
f 103//17 104//17 85//14
f 99//15 108//19 105//15
f 106//1 99//1 109//1
f 109//2 99//2 106//2
f 106//20 100//16 110//20
f 101//16 110//20 100//16
f 111//18 107//18 102//13
f 112//1 107//1 103//1
f 103//2 107//2 112//2
f 104//17 103//17 113//21
f 114//19 105//15 108//19
f 109//1 99//1 108//1
f 108//2 99//2 109//2
f 109//22 106//20 115//22
f 110//20 115//22 106//20
f 111//18 116//23 107//18
f 112//1 117//1 107//1
f 107//2 117//2 112//2
f 112//21 113//21 103//17
f 108//19 118//24 114//19
f 109//1 108//1 119//1
f 119//2 108//2 109//2
f 109//22 115//22 119//25
f 117//23 107//18 116//23
f 112//1 120//1 117//1
f 117//2 120//2 112//2
f 112//21 121//26 113//21
f 122//24 114//19 118//24
f 119//1 108//1 118//1
f 118//2 108//2 119//2
f 123//25 119//25 115//22
f 116//23 124//27 117//23
f 112//1 125//1 120//1
f 120//2 125//2 112//2
f 120//27 117//23 124//27
f 126//26 113//21 121//26
f 121//1 125//1 112//1
f 112//2 125//2 121//2
f 122//24 118//24 127//28
f 119//1 118//1 128//1
f 128//2 118//2 119//2
f 119//25 123//25 128//29
f 125//30 120//27 129//30
f 124//27 129//30 120//27
f 121//26 130//31 126//26
f 121//1 131//1 125//1
f 125//2 131//2 121//2
f 132//28 127//28 118//24
f 128//1 118//1 132//1
f 132//2 118//2 128//2
f 133//29 128//29 123//25
f 129//30 134//32 125//30
f 135//31 126//26 130//31
f 130//1 131//1 121//1
f 121//2 131//2 130//2
f 131//32 125//30 134//32
f 127//28 132//28 136//33
f 128//1 132//1 137//1
f 137//2 132//2 128//2
f 128//29 133//29 137//34
f 130//31 138//35 135//31
f 131//1 130//1 138//1
f 138//2 130//2 131//2
f 134//32 139//35 131//32
f 140//33 136//33 132//28
f 137//1 132//1 140//1
f 140//2 132//2 137//2
f 141//34 137//34 133//29
f 139//35 135//31 138//35
f 138//35 131//32 139//35
f 136//33 140//33 142//36
f 137//1 140//1 143//1
f 143//2 140//2 137//2
f 137//34 141//34 143//37
f 144//36 142//36 140//33
f 143//1 140//1 145//1
f 145//2 140//2 143//2
f 146//37 143//37 141//34
f 142//36 144//36 147//38
f 145//1 140//1 144//1
f 144//2 140//2 145//2
f 143//37 146//37 145//38
f 145//38 147//38 144//36
f 147//38 145//38 146//37
usemtl material_1_0
f 3//1 6//1 1//1
f 4//1 8//1 2//1
f 9//1 6//1 3//1
f 1//1 6//1 10//1
f 8//1 4//1 13//1
f 9//1 15//1 6//1
f 1//1 10//1 11//1
f 7//1 18//1 12//1
f 13//1 4//1 19//1
f 14//1 15//1 9//1
f 11//1 10//1 23//1
f 18//1 7//1 17//1
f 13//1 19//1 25//1
f 27//1 20//1 5//1
f 26//1 15//1 14//1
f 28//1 5//1 21//1
f 30//39 16//40 22//39
f 11//1 23//1 32//1
f 34//1 17//1 24//1
f 18//1 17//1 34//1
f 25//1 19//1 35//1
f 37//1 20//1 27//1
f 27//1 5//1 38//1
f 26//1 29//1 15//1
f 40//1 5//1 28//1
f 28//1 21//1 41//1
f 16//40 30//39 43//40
f 44//41 30//39 22//39
f 46//1 23//1 31//1
f 32//1 23//1 46//1
f 47//1 24//1 33//1
f 34//1 24//1 48//1
f 25//1 35//1 39//1
f 20//1 37//1 36//1
f 38//1 5//1 40//1
f 49//1 29//1 26//1
f 41//1 21//1 52//1
f 49//1 42//1 29//1
f 43//40 54//11 16//40
f 30//39 44//41 55//41
f 58//1 31//1 45//1
f 46//1 31//1 59//1
f 60//1 24//1 47//1
f 47//1 33//1 61//1
f 48//1 24//1 60//1
f 39//1 35//1 62//1
f 39//1 62//1 51//1
f 41//1 52//1 66//1
f 63//1 53//1 42//1
f 63//1 42//1 49//1
f 54//11 43//40 69//11
f 70//16 55//41 44//41
f 72//1 45//1 57//1
f 58//1 73//1 31//1
f 58//1 45//1 72//1
f 59//1 31//1 73//1
f 60//1 47//1 75//1
f 61//1 33//1 74//1
f 50//42 77//43 64//43
f 51//1 62//1 78//1
f 51//1 78//1 65//1
f 41//1 66//1 80//1
f 41//1 80//1 67//1
f 53//1 63//1 68//1
f 69//11 81//14 54//11
f 55//41 70//16 84//16
f 64//43 86//6 56//6
f 72//1 57//1 71//1
f 61//1 73//1 58//1
f 75//1 47//1 88//1
f 61//1 74//1 87//1
f 90//1 47//1 76//1
f 77//43 50//42 91//42
f 86//6 64//43 77//43
f 65//1 78//1 92//1
f 65//1 92//1 79//1
f 81//14 69//11 94//14
f 95//44 50//42 83//44
f 96//20 84//16 70//16
f 56//6 97//10 85//10
f 97//10 56//6 86//6
f 72//1 71//1 82//1
f 61//1 87//1 73//1
f 47//1 90//1 88//1
f 90//1 76//1 89//1
f 50//42 95//44 91//42
f 79//1 92//1 98//1
f 79//1 98//1 93//1
f 94//14 99//17 81//14
f 83//44 101//7 95//44
f 84//16 96//20 102//20
f 104//15 85//10 97//10
f 99//17 94//14 105//17
f 101//7 83//44 100//7
f 107//22 102//20 96//20
f 85//10 104//15 103//15
f 105//17 108//45 99//17
f 110//13 100//7 106//13
f 100//7 110//13 101//7
f 102//20 107//22 111//22
f 113//46 103//15 104//15
f 108//45 105//17 114//45
f 115//18 106//13 109//18
f 106//13 115//18 110//13
f 107//22 116//25 111//22
f 103//15 113//46 112//46
f 114//45 118//47 108//45
f 119//23 115//18 109//18
f 116//25 107//22 117//25
f 113//46 121//48 112//46
f 118//47 114//45 122//47
f 115//18 119//23 123//23
f 117//25 124//29 116//25
f 124//29 117//25 120//29
f 121//48 113//46 126//48
f 127//49 118//47 122//47
f 128//27 123//23 119//23
f 129//50 120//29 125//50
f 120//29 129//50 124//29
f 126//48 130//51 121//48
f 118//47 127//49 132//49
f 123//23 128//27 133//27
f 125//50 134//52 129//50
f 130//51 126//48 135//51
f 134//52 125//50 131//52
f 136//53 132//49 127//49
f 137//54 133//27 128//27
f 135//51 138//55 130//51
f 131//52 139//55 134//52
f 132//49 136//53 140//53
f 133//27 137//54 141//54
f 138//55 135//51 139//55
f 139//55 131//52 138//55
f 142//56 140//53 136//53
f 143//57 141//54 137//54
f 140//53 142//56 144//56
f 141//54 143//57 146//57
f 147//58 144//56 142//56
f 145//58 146//57 143//57
f 144//56 147//58 145//58
f 146//57 145//58 147//58
usemtl material_2_0
f 1//2 6//2 3//2
f 2//2 8//2 4//2
f 3//2 6//2 9//2
f 10//2 6//2 1//2
f 13//2 4//2 8//2
f 6//2 15//2 9//2
f 11//2 10//2 1//2
f 12//2 18//2 7//2
f 19//2 4//2 13//2
f 9//2 15//2 14//2
f 23//2 10//2 11//2
f 17//2 7//2 18//2
f 25//2 19//2 13//2
f 5//2 20//2 27//2
f 14//2 15//2 26//2
f 21//2 5//2 28//2
f 32//2 23//2 11//2
f 24//2 17//2 34//2
f 34//2 17//2 18//2
f 35//2 19//2 25//2
f 27//2 20//2 37//2
f 38//2 5//2 27//2
f 15//2 29//2 26//2
f 28//2 5//2 40//2
f 41//2 21//2 28//2
f 31//2 23//2 46//2
f 46//2 23//2 32//2
f 33//2 24//2 47//2
f 48//2 24//2 34//2
f 39//2 35//2 25//2
f 36//2 37//2 20//2
f 40//2 5//2 38//2
f 26//2 29//2 49//2
f 52//2 21//2 41//2
f 29//2 42//2 49//2
f 45//2 31//2 58//2
f 59//2 31//2 46//2
f 47//2 24//2 60//2
f 61//2 33//2 47//2
f 60//2 24//2 48//2
f 62//2 35//2 39//2
f 51//2 62//2 39//2
f 66//2 52//2 41//2
f 42//2 53//2 63//2
f 49//2 42//2 63//2
f 57//2 45//2 72//2
f 31//2 73//2 58//2
f 72//2 45//2 58//2
f 73//2 31//2 59//2
f 75//2 47//2 60//2
f 74//2 33//2 61//2
f 78//2 62//2 51//2
f 65//2 78//2 51//2
f 80//2 66//2 41//2
f 67//2 80//2 41//2
f 68//2 63//2 53//2
f 71//2 57//2 72//2
f 58//2 73//2 61//2
f 88//2 47//2 75//2
f 87//2 74//2 61//2
f 76//2 47//2 90//2
f 92//2 78//2 65//2
f 79//2 92//2 65//2
f 82//2 71//2 72//2
f 73//2 87//2 61//2
f 88//2 90//2 47//2
f 89//2 76//2 90//2
f 98//2 92//2 79//2
f 93//2 98//2 79//2
