# SSTK version 0.8.0
# 16
mtllib original-16.mtl
o mesh15/mesh15-geometry#mesh15-geometry
v 0.342774 -0.206258 0.045611
v 0.343027 -0.206258 0.067203
v 0.343027 -0.206258 0.078546
v 0.343109 -0.206258 0.045816
v 0.343074 -0.206258 0.078888
v 0.342247 -0.206258 0.045348
v 0.342774 -0.206258 0.044382
v 0.343074 -0.206258 0.066868
v 0.319934 -0.206333 0.028993
v 0.342072 -0.206258 0.045005
v 0.342247 -0.206258 0.044642
v 0.343109 -0.206258 0.044186
v 0.343215 -0.206258 0.066629
v 0.343214 -0.206258 0.079132
v 0.319494 -0.206333 0.084805
v 0.343552 -0.206258 0.039860
v 0.343348 -0.206258 0.046177
v 0.318526 -0.206333 0.084691
v 0.343476 -0.206258 0.040777
v 0.343348 -0.206258 0.043836
v 0.343449 -0.206258 0.066485
v 0.343449 -0.206258 0.079278
v 0.318502 -0.206333 0.029258
v 0.318526 -0.211908 0.084691
v 0.343779 -0.206258 0.039214
v 0.343508 -0.206258 0.041734
v 0.343380 -0.206258 0.044989
v 0.343476 -0.206258 0.049216
v 0.368954 -0.206333 0.085001
v 0.318062 -0.206333 0.029471
v 0.319934 -0.211908 0.028993
v 0.319494 -0.211908 0.084805
v 0.318062 -0.211908 0.084539
v 0.344313 -0.206258 0.038723
v 0.344050 -0.206258 0.044748
v 0.343540 -0.206258 0.042675
v 0.343492 -0.206258 0.043333
v 0.343492 -0.206258 0.046694
v 0.343777 -0.206258 0.066437
v 0.343777 -0.206258 0.079327
v 0.318062 -0.206333 0.084539
v 0.318502 -0.211908 0.029258
v 0.368427 -0.206333 0.029302
v 0.344050 -0.206258 0.045261
v 0.343508 -0.206258 0.048275
v 0.343552 -0.206258 0.050133
v 0.344877 -0.206258 0.079327
v 0.368954 -0.211908 0.085001
v 0.317655 -0.206333 0.029741
v 0.318062 -0.211908 0.029471
v 0.368427 -0.211908 0.029302
v 0.317622 -0.211908 0.084326
v 0.345151 -0.206258 0.038560
v 0.344529 -0.206258 0.044203
v 0.343540 -0.206258 0.047366
v 0.343779 -0.206258 0.050780
v 0.344335 -0.206258 0.078099
v 0.345308 -0.206258 0.079144
v 0.369418 -0.211908 0.084849
v 0.317622 -0.206333 0.084326
v 0.369395 -0.206333 0.029416
v 0.345757 -0.206258 0.038560
v 0.344832 -0.206258 0.040299
v 0.344529 -0.206258 0.045806
v 0.344878 -0.206258 0.066437
v 0.344335 -0.206258 0.067666
v 0.345085 -0.206258 0.078147
v 0.345484 -0.206258 0.078705
v 0.369418 -0.206333 0.084849
v 0.317287 -0.206333 0.030063
v 0.317655 -0.211908 0.029741
v 0.369395 -0.211908 0.029416
v 0.317215 -0.211908 0.084056
v 0.346236 -0.206258 0.038679
v 0.345231 -0.206258 0.039581
v 0.344932 -0.206258 0.039832
v 0.344816 -0.206258 0.043352
v 0.344816 -0.206258 0.046657
v 0.344313 -0.206258 0.051282
v 0.344008 -0.206258 0.051073
v 0.345384 -0.206258 0.078342
v 0.345484 -0.206258 0.067044
v 0.369858 -0.211908 0.084636
v 0.317215 -0.206333 0.084056
v 0.369859 -0.206333 0.029568
v 0.346395 -0.206258 0.039038
v 0.346004 -0.206258 0.039477
v 0.344872 -0.206258 0.041136
v 0.344912 -0.206258 0.042197
v 0.344832 -0.206258 0.049711
v 0.345085 -0.206258 0.067618
v 0.345384 -0.206258 0.067411
v 0.345757 -0.206258 0.051450
v 0.369858 -0.206333 0.084636
v 0.316966 -0.206333 0.030430
v 0.317287 -0.211908 0.030063
v 0.369859 -0.211908 0.029568
v 0.346395 -0.206258 0.050971
v 0.316256 -0.206333 0.082960
v 0.346298 -0.206258 0.039339
v 0.345231 -0.206258 0.050413
v 0.346004 -0.206258 0.050516
v 0.344912 -0.206258 0.047812
v 0.345151 -0.206258 0.051450
v 0.345300 -0.206258 0.066613
v 0.346236 -0.206258 0.051330
v 0.370265 -0.211908 0.084366
v 0.316696 -0.206333 0.030838
v 0.316966 -0.211908 0.030430
v 0.370299 -0.206333 0.029781
v 0.316256 -0.211908 0.082960
v 0.316483 -0.206333 0.031277
v 0.346297 -0.206258 0.050658
v 0.344931 -0.206258 0.050165
v 0.344872 -0.206258 0.048865
v 0.370265 -0.206333 0.084366
v 0.316696 -0.211908 0.030838
v 0.370299 -0.211908 0.029781
v 0.316043 -0.206333 0.082520
v 0.316217 -0.206333 0.032710
v 0.370633 -0.211908 0.084044
v 0.316483 -0.211908 0.031277
v 0.370706 -0.206333 0.030051
v 0.370633 -0.206333 0.084044
v 0.316043 -0.211908 0.082520
v 0.316217 -0.211908 0.032710
v 0.370706 -0.211908 0.030051
v 0.315890 -0.206333 0.082056
v 0.315890 -0.211908 0.082056
v 0.370955 -0.206333 0.083677
v 0.371074 -0.206333 0.030372
v 0.370955 -0.211908 0.083677
v 0.371074 -0.211908 0.030372
v 0.371224 -0.206333 0.083269
v 0.371395 -0.211908 0.030740
v 0.371224 -0.211908 0.083269
v 0.371395 -0.206333 0.030740
v 0.371437 -0.206333 0.082830
v 0.371665 -0.211908 0.031147
v 0.371437 -0.211908 0.082830
v 0.371665 -0.206333 0.031147
v 0.371590 -0.206333 0.082366
v 0.371878 -0.211908 0.031587
v 0.371590 -0.211908 0.082366
v 0.371878 -0.206333 0.031587
v 0.372029 -0.206333 0.032402
v 0.372029 -0.211908 0.032402
vn 0 -1 0
vn 0 1 0
vn -0.215281030390687 0 0.9765521378574337
vn -0.06027997035660851 0 0.9981815091323855
vn -0.08844897416573896 0 -0.996080709063793
vn -0.3119660789578447 0 -0.9500932404662542
vn -0.3747861214087981 0 0.927111300329874
vn 0.1560079678935635 0 0.9877557967198779
vn -0.49504395956481106 0 -0.8688679290308705
vn 0.06148699290338688 0 -0.9981078848018878
vn -0.4950692845733326 0 0.8688534994301679
vn 0.3747590916351674 0 0.9271222266976368
vn -0.606486711917364 0 -0.7950936223286313
vn 0.215281030390687 0 -0.9765521378574337
vn -0.6582848984312559 0 0.7527688838530395
vn 0.49504395956481106 0 0.8688679290308705
vn -0.7070962811044147 0 -0.7071172811127633
vn 0.3747861214087981 0 -0.927111300329874
vn -0.833844841558655 0 0.5519988951130439
vn 0.606486711917364 0 0.7950936223286313
vn -0.795075910205722 0 -0.6065099315019852
vn 0.4950692845733326 0 -0.8688534994301679
vn -0.8688534994301679 0 -0.4950692845733326
vn -0.9271222266976368 0 0.3747590916351674
vn 0.7070962811044147 0 0.7071172811127633
vn -0.9500840650370568 0 -0.3119940213572394
vn 0.6065099315019852 0 -0.795075910205722
vn -0.9954829965710588 0 -0.09493999967297917
vn -0.9879622684940965 0 0.1546950420407812
vn 0.795075910205722 0 0.6065099315019852
vn 0.7071172811127633 0 -0.7070962811044147
vn 0.8688534994301679 0 0.4950692845733326
vn 0.7950936223286313 0 -0.606486711917364
vn 0.927111300329874 0 0.3747861214087981
vn 0.8688679290308705 0 -0.49504395956481106
vn 0.9867383264106255 0 0.16231905369474603
vn 0.9500932404662542 0 -0.3119660789578447
vn 0.9961864437533426 0 -0.08725003886571298
vn 0.06027997035660851 0 -0.9981815091323855
vn 0.3119660789578447 0 0.9500932404662542
vn 0.08844897416573896 0 0.996080709063793
vn -0.1560079678935635 0 -0.9877557967198779
vn -0.06148699290338688 0 0.9981078848018878
vn -0.3747590916351674 0 -0.9271222266976368
vn 0.6582848984312559 0 -0.7527688838530395
vn 0.833844841558655 0 -0.5519988951130439
vn 0.9271222266976368 0 -0.3747590916351674
vn 0.9500840650370568 0 0.3119940213572394
vn -0.6065099315019852 0 0.795075910205722
vn 0.9954829965710588 0 0.09493999967297917
vn 0.9879622684940965 0 -0.1546950420407812
vn -0.7071172811127633 0 0.7070962811044147
vn -0.7950936223286313 0 0.606486711917364
vn -0.927111300329874 0 -0.3747861214087981
vn -0.8688679290308705 0 0.49504395956481106
vn -0.9867383264106255 0 -0.16231905369474603
vn -0.9500932404662542 0 0.3119660789578447
vn -0.9961864437533426 0 0.08725003886571298
usemtl material_0_0
f 1//1 2//1 3//1
f 2//1 1//1 4//1
f 3//2 2//2 1//2
f 4//2 1//2 2//2
f 3//1 6//1 1//1
f 1//2 6//2 3//2
f 2//1 4//1 8//1
f 8//2 4//2 2//2
f 5//1 9//1 3//1
f 3//2 9//2 5//2
f 3//1 10//1 6//1
f 6//2 10//2 3//2
f 8//1 4//1 13//1
f 13//2 4//2 8//2
f 15//1 9//1 5//1
f 5//2 9//2 15//2
f 3//1 9//1 10//1
f 10//2 9//2 3//2
f 11//1 16//1 7//1
f 7//2 16//2 11//2
f 7//1 16//1 12//1
f 12//2 16//2 7//2
f 13//1 4//1 17//1
f 17//2 4//2 13//2
f 15//1 5//1 14//1
f 14//2 5//2 15//2
f 18//1 9//1 15//1
f 15//2 9//2 18//2
f 9//1 16//1 10//1
f 10//2 16//2 9//2
f 10//1 16//1 11//1
f 11//2 16//2 10//2
f 12//1 16//1 19//1
f 19//2 16//2 12//2
f 13//1 17//1 21//1
f 21//2 17//2 13//2
f 15//1 14//1 22//1
f 22//2 14//2 15//2
f 18//1 23//1 9//1
f 9//2 23//2 18//2
f 18//3 24//3 15//4
f 16//1 9//1 25//1
f 25//2 9//2 16//2
f 12//1 19//1 20//1
f 20//2 19//2 12//2
f 21//1 17//1 28//1
f 28//2 17//2 21//2
f 15//1 22//1 29//1
f 29//2 22//2 15//2
f 18//1 30//1 23//1
f 23//2 30//2 18//2
f 9//5 31//5 23//6
f 32//4 15//4 24//3
f 24//3 18//3 33//7
f 25//1 9//1 34//1
f 34//2 9//2 25//2
f 37//1 19//1 26//1
f 26//2 19//2 37//2
f 19//1 37//1 20//1
f 20//2 37//2 19//2
f 28//1 17//1 38//1
f 38//2 17//2 28//2
f 28//1 39//1 21//1
f 21//2 39//2 28//2
f 29//1 22//1 40//1
f 40//2 22//2 29//2
f 15//4 32//4 29//8
f 41//1 30//1 18//1
f 18//2 30//2 41//2
f 23//6 42//6 30//9
f 42//6 23//6 31//5
f 9//5 43//10 31//5
f 41//7 33//7 18//3
f 34//1 9//1 43//1
f 43//2 9//2 34//2
f 37//1 26//1 36//1
f 36//2 26//2 37//2
f 28//1 38//1 45//1
f 45//2 38//2 28//2
f 39//1 28//1 46//1
f 46//2 28//2 39//2
f 29//1 40//1 47//1
f 47//2 40//2 29//2
f 48//8 29//8 32//4
f 41//1 49//1 30//1
f 30//2 49//2 41//2
f 50//9 30//9 42//6
f 51//10 31//5 43//10
f 33//7 41//7 52//11
f 34//1 43//1 53//1
f 53//2 43//2 34//2
f 35//1 44//1 27//1
f 27//2 44//2 35//2
f 45//1 38//1 55//1
f 55//2 38//2 45//2
f 39//1 46//1 56//1
f 56//2 46//2 39//2
f 29//1 47//1 58//1
f 58//2 47//2 29//2
f 48//8 59//12 29//8
f 60//1 49//1 41//1
f 41//2 49//2 60//2
f 30//9 50//9 49//13
f 43//10 61//14 51//10
f 60//11 52//11 41//7
f 53//1 43//1 62//1
f 62//2 43//2 53//2
f 64//1 35//1 54//1
f 54//2 35//2 64//2
f 44//1 35//1 64//1
f 64//2 35//2 44//2
f 39//1 56//1 65//1
f 65//2 56//2 39//2
f 29//1 58//1 68//1
f 68//2 58//2 29//2
f 69//12 29//8 59//12
f 60//1 70//1 49//1
f 49//2 70//2 60//2
f 71//13 49//13 50//9
f 72//14 51//10 61//14
f 29//1 43//1 61//1
f 61//2 43//2 29//2
f 52//11 60//11 73//15
f 62//1 43//1 74//1
f 74//2 43//2 62//2
f 64//1 54//1 78//1
f 78//2 54//2 64//2
f 65//1 56//1 80//1
f 80//2 56//2 65//2
f 66//1 67//1 57//1
f 57//2 67//2 66//2
f 29//1 68//1 82//1
f 82//2 68//2 29//2
f 29//1 61//1 69//1
f 69//2 61//2 29//2
f 59//12 83//16 69//12
f 84//1 70//1 60//1
f 60//2 70//2 84//2
f 49//13 71//13 70//17
f 61//14 85//18 72//14
f 29//1 86//1 43//1
f 43//2 86//2 29//2
f 84//15 73//15 60//11
f 74//1 43//1 86//1
f 86//2 43//2 74//2
f 76//1 88//1 63//1
f 63//2 88//2 76//2
f 78//1 54//1 77//1
f 77//2 54//2 78//2
f 65//1 80//1 79//1
f 79//2 80//2 65//2
f 67//1 66//1 91//1
f 91//2 66//2 67//2
f 67//1 91//1 81//1
f 81//2 91//2 67//2
f 81//1 92//1 68//1
f 68//2 92//2 81//2
f 68//1 92//1 82//1
f 82//2 92//2 68//2
f 29//1 82//1 93//1
f 93//2 82//2 29//2
f 69//1 61//1 85//1
f 85//2 61//2 69//2
f 94//16 69//12 83//16
f 84//1 95//1 70//1
f 70//2 95//2 84//2
f 96//17 70//17 71//13
f 97//18 72//14 85//18
f 29//1 98//1 86//1
f 86//2 98//2 29//2
f 84//15 99//19 73//15
f 101//1 76//1 75//1
f 75//2 76//2 101//2
f 102//1 75//1 87//1
f 87//2 75//2 102//2
f 88//1 76//1 89//1
f 89//2 76//2 88//2
f 103//1 77//1 89//1
f 89//2 77//2 103//2
f 78//1 77//1 103//1
f 103//2 77//2 78//2
f 65//1 79//1 104//1
f 104//2 79//2 65//2
f 81//1 91//1 92//1
f 92//2 91//2 81//2
f 105//1 93//1 82//1
f 82//2 93//2 105//2
f 29//1 93//1 106//1
f 106//2 93//2 29//2
f 69//1 85//1 94//1
f 94//2 85//2 69//2
f 83//16 107//20 94//16
f 84//1 108//1 95//1
f 95//2 108//2 84//2
f 95//21 70//17 109//21
f 96//17 109//21 70//17
f 85//18 110//22 97//18
f 29//1 106//1 98//1
f 98//2 106//2 29//2
f 98//1 100//1 86//1
f 86//2 100//2 98//2
f 111//19 73//15 99//19
f 99//1 112//1 84//1
f 84//2 112//2 99//2
f 113//1 87//1 100//1
f 100//2 87//2 113//2
f 114//1 76//1 101//1
f 101//2 76//2 114//2
f 101//1 75//1 102//1
f 102//2 75//2 101//2
f 102//1 87//1 113//1
f 113//2 87//2 102//2
f 89//1 76//1 114//1
f 114//2 76//2 89//2
f 114//1 103//1 89//1
f 89//2 103//2 114//2
f 65//1 104//1 105//1
f 105//2 104//2 65//2
f 105//1 104//1 93//1
f 93//2 104//2 105//2
f 94//1 85//1 116//1
f 116//2 85//2 94//2
f 116//20 94//16 107//20
f 84//1 112//1 108//1
f 108//2 112//2 84//2
f 108//23 95//21 117//23
f 109//21 117//23 95//21
f 118//22 97//18 110//22
f 116//1 85//1 110//1
f 110//2 85//2 116//2
f 113//1 100//1 98//1
f 98//2 100//2 113//2
f 99//19 119//24 111//19
f 99//1 120//1 112//1
f 112//2 120//2 99//2
f 114//1 115//1 103//1
f 103//2 115//2 114//2
f 115//1 114//1 90//1
f 90//2 114//2 115//2
f 107//20 121//25 116//20
f 112//26 108//23 122//26
f 117//23 122//26 108//23
f 110//22 123//27 118//22
f 116//1 110//1 124//1
f 124//2 110//2 116//2
f 125//24 111//19 119//24
f 119//1 120//1 99//1
f 99//2 120//2 119//2
f 120//28 112//26 126//28
f 124//25 116//20 121//25
f 122//26 126//28 112//26
f 127//27 118//22 123//27
f 124//1 110//1 123//1
f 123//2 110//2 124//2
f 119//24 128//29 125//24
f 120//1 119//1 128//1
f 128//2 119//2 120//2
f 126//28 129//29 120//28
f 124//25 121//25 130//30
f 123//27 131//31 127//27
f 124//1 123//1 130//1
f 130//2 123//2 124//2
f 129//29 125//24 128//29
f 128//29 120//28 129//29
f 132//30 130//30 121//25
f 133//31 127//27 131//31
f 130//1 123//1 131//1
f 131//2 123//2 130//2
f 130//30 132//30 134//32
f 133//31 131//31 135//33
f 130//1 131//1 134//1
f 134//2 131//2 130//2
f 136//32 134//32 132//30
f 137//33 135//33 131//31
f 134//1 131//1 137//1
f 137//2 131//2 134//2
f 134//32 136//32 138//34
f 135//33 137//33 139//35
f 134//1 137//1 138//1
f 138//2 137//2 134//2
f 140//34 138//34 136//32
f 141//35 139//35 137//33
f 138//1 137//1 141//1
f 141//2 137//2 138//2
f 138//34 140//34 142//36
f 139//35 141//35 143//37
f 138//1 141//1 142//1
f 142//2 141//2 138//2
f 144//36 142//36 140//34
f 145//37 143//37 141//35
f 142//1 141//1 146//1
f 146//2 141//2 142//2
f 142//36 144//36 146//38
f 143//37 145//37 147//38
f 146//1 141//1 145//1
f 145//2 141//2 146//2
f 147//38 146//38 144//36
f 146//38 147//38 145//37
usemtl material_1_0
f 2//1 5//1 3//1
f 1//1 7//1 4//1
f 5//1 2//1 8//1
f 6//1 11//1 1//1
f 1//1 11//1 7//1
f 4//1 7//1 12//1
f 5//1 8//1 14//1
f 11//1 6//1 10//1
f 4//1 12//1 17//1
f 14//1 8//1 13//1
f 17//1 12//1 20//1
f 14//1 13//1 22//1
f 15//39 24//14 18//14
f 16//1 26//1 19//1
f 17//1 20//1 27//1
f 22//1 13//1 21//1
f 23//40 31//41 9//41
f 24//14 15//39 32//39
f 33//18 18//14 24//14
f 35//1 16//1 25//1
f 26//1 16//1 36//1
f 37//1 27//1 20//1
f 17//1 27//1 38//1
f 22//1 21//1 40//1
f 29//42 32//39 15//39
f 30//16 42//40 23//40
f 31//41 23//40 42//40
f 31//41 43//43 9//41
f 18//14 33//18 41//18
f 35//1 25//1 34//1
f 35//1 36//1 16//1
f 27//1 37//1 35//1
f 38//1 27//1 44//1
f 40//1 21//1 39//1
f 32//39 29//42 48//42
f 42//40 30//16 50//16
f 43//43 31//41 51//43
f 52//22 41//18 33//18
f 35//1 34//1 54//1
f 35//1 37//1 36//1
f 38//1 44//1 55//1
f 45//1 46//1 28//1
f 40//1 39//1 57//1
f 40//1 57//1 47//1
f 29//42 59//44 48//42
f 49//20 50//16 30//16
f 51//43 61//3 43//43
f 41//18 52//22 60//22
f 63//1 34//1 53//1
f 54//1 34//1 63//1
f 55//1 44//1 46//1
f 46//1 45//1 55//1
f 46//1 44//1 56//1
f 39//1 66//1 57//1
f 47//1 57//1 67//1
f 47//1 67//1 58//1
f 59//44 29//42 69//44
f 50//16 49//20 71//20
f 61//3 51//43 72//3
f 73//45 60//22 52//22
f 75//1 53//1 62//1
f 63//1 53//1 76//1
f 54//1 63//1 77//1
f 79//1 44//1 64//1
f 56//1 44//1 80//1
f 66//1 39//1 65//1
f 58//1 67//1 81//1
f 58//1 81//1 68//1
f 69//44 83//9 59//44
f 70//25 71//20 49//20
f 72//3 85//7 61//3
f 60//22 73//45 84//45
f 87//1 62//1 74//1
f 76//1 53//1 75//1
f 75//1 62//1 87//1
f 63//1 89//1 77//1
f 90//1 64//1 78//1
f 80//1 44//1 79//1
f 79//1 64//1 90//1
f 66//1 65//1 91//1
f 83//9 69//44 94//9
f 71//20 70//25 96//25
f 85//7 72//3 97//7
f 73//45 99//46 84//45
f 100//1 74//1 86//1
f 87//1 74//1 100//1
f 89//1 63//1 88//1
f 103//1 90//1 78//1
f 79//1 90//1 104//1
f 91//1 65//1 105//1
f 92//1 105//1 82//1
f 94//9 107//13 83//9
f 109//30 70//25 95//30
f 70//25 109//30 96//25
f 97//7 110//11 85//7
f 99//46 73//45 111//46
f 90//1 103//1 115//1
f 104//1 90//1 114//1
f 91//1 105//1 92//1
f 93//1 102//1 106//1
f 107//13 94//9 116//13
f 117//32 95//30 108//32
f 95//30 117//32 109//30
f 110//11 97//7 118//11
f 106//1 113//1 98//1
f 111//46 119//47 99//46
f 104//1 114//1 101//1
f 93//1 101//1 102//1
f 106//1 102//1 113//1
f 104//1 101//1 93//1
f 116//13 121//17 107//13
f 122//48 108//32 112//48
f 108//32 122//48 117//32
f 118//11 123//49 110//11
f 119//47 111//46 125//47
f 126//50 112//48 120//50
f 121//17 116//13 124//17
f 112//48 126//50 122//48
f 123//49 118//11 127//49
f 125//47 128//51 119//47
f 120//50 129//51 126//50
f 130//21 121//17 124//17
f 127//49 131//52 123//49
f 128//51 125//47 129//51
f 129//51 120//50 128//51
f 121//17 130//21 132//21
f 131//52 127//49 133//52
f 134//23 132//21 130//21
f 135//53 131//52 133//52
f 132//21 134//23 136//23
f 131//52 135//53 137//53
f 138//54 136//23 134//23
f 139//55 137//53 135//53
f 136//23 138//54 140//54
f 137//53 139//55 141//55
f 142//56 140//54 138//54
f 143//57 141//55 139//55
f 140//54 142//56 144//56
f 141//55 143//57 145//57
f 146//58 144//56 142//56
f 147//58 145//57 143//57
f 144//56 146//58 147//58
f 145//57 147//58 146//58
usemtl material_2_0
f 3//2 5//2 2//2
f 4//2 7//2 1//2
f 8//2 2//2 5//2
f 1//2 11//2 6//2
f 7//2 11//2 1//2
f 12//2 7//2 4//2
f 14//2 8//2 5//2
f 10//2 6//2 11//2
f 17//2 12//2 4//2
f 13//2 8//2 14//2
f 20//2 12//2 17//2
f 22//2 13//2 14//2
f 19//2 26//2 16//2
f 27//2 20//2 17//2
f 21//2 13//2 22//2
f 25//2 16//2 35//2
f 36//2 16//2 26//2
f 20//2 27//2 37//2
f 38//2 27//2 17//2
f 40//2 21//2 22//2
f 34//2 25//2 35//2
f 16//2 36//2 35//2
f 35//2 37//2 27//2
f 44//2 27//2 38//2
f 39//2 21//2 40//2
f 54//2 34//2 35//2
f 36//2 37//2 35//2
f 55//2 44//2 38//2
f 28//2 46//2 45//2
f 57//2 39//2 40//2
f 47//2 57//2 40//2
f 53//2 34//2 63//2
f 63//2 34//2 54//2
f 46//2 44//2 55//2
f 55//2 45//2 46//2
f 56//2 44//2 46//2
f 57//2 66//2 39//2
f 67//2 57//2 47//2
f 58//2 67//2 47//2
f 62//2 53//2 75//2
f 76//2 53//2 63//2
f 77//2 63//2 54//2
f 64//2 44//2 79//2
f 80//2 44//2 56//2
f 65//2 39//2 66//2
f 81//2 67//2 58//2
f 68//2 81//2 58//2
f 74//2 62//2 87//2
f 75//2 53//2 76//2
f 87//2 62//2 75//2
f 77//2 89//2 63//2
f 78//2 64//2 90//2
f 79//2 44//2 80//2
f 90//2 64//2 79//2
f 91//2 65//2 66//2
f 86//2 74//2 100//2
f 100//2 74//2 87//2
f 88//2 63//2 89//2
f 78//2 90//2 103//2
f 104//2 90//2 79//2
f 105//2 65//2 91//2
f 82//2 105//2 92//2
f 115//2 103//2 90//2
f 114//2 90//2 104//2
f 92//2 105//2 91//2
f 106//2 102//2 93//2
f 98//2 113//2 106//2
f 101//2 114//2 104//2
f 102//2 101//2 93//2
f 113//2 102//2 106//2
f 93//2 101//2 104//2
