# SSTK version 0.8.0
# 46
mtllib original-46.mtl
o mesh45/mesh45-geometry#mesh45-geometry
v -0.172952 -0.206333 0.150215
v -0.172584 -0.211908 0.149893
v -0.172952 -0.211908 0.150215
v -0.172584 -0.206333 0.149893
v -0.173359 -0.206333 0.150484
v -0.172919 -0.206333 0.095630
v -0.172262 -0.206333 0.149526
v -0.173359 -0.211908 0.150484
v -0.173358 -0.206333 0.095417
v -0.172511 -0.206333 0.095899
v -0.172262 -0.211908 0.149526
v -0.173799 -0.206333 0.150697
v -0.173358 -0.211908 0.095417
v -0.172919 -0.211908 0.095630
v -0.171993 -0.206333 0.149118
v -0.172144 -0.206333 0.096221
v -0.173799 -0.211908 0.150697
v -0.173822 -0.206333 0.095264
v -0.173822 -0.211908 0.095264
v -0.172511 -0.211908 0.095899
v -0.171993 -0.211908 0.149118
v -0.174263 -0.206333 0.150850
v -0.171780 -0.206333 0.148679
v -0.171822 -0.206333 0.096589
v -0.172144 -0.211908 0.096221
v -0.174263 -0.211908 0.150850
v -0.174791 -0.206333 0.095151
v -0.174791 -0.211908 0.095151
v -0.171780 -0.211908 0.148679
v -0.171822 -0.211908 0.096589
v -0.223723 -0.211908 0.150654
v -0.193643 -0.206240 0.122585
v -0.171627 -0.206333 0.148214
v -0.171552 -0.206333 0.096996
v -0.171552 -0.211908 0.096996
v -0.223723 -0.206333 0.150654
v -0.193734 -0.206240 0.124052
v -0.193744 -0.206240 0.121137
v -0.223283 -0.211908 0.094841
v -0.171627 -0.211908 0.148214
v -0.224692 -0.211908 0.150540
v -0.204097 -0.206240 0.129604
v -0.194007 -0.206240 0.125382
v -0.194047 -0.206240 0.119823
v -0.223283 -0.206333 0.094841
v -0.171188 -0.206333 0.098250
v -0.171339 -0.211908 0.097436
v -0.224692 -0.206333 0.150540
v -0.204273 -0.206240 0.129305
v -0.203804 -0.206240 0.129783
v -0.194462 -0.206240 0.126574
v -0.194551 -0.206240 0.118644
v -0.204097 -0.206240 0.115745
v -0.224715 -0.206333 0.095107
v -0.171188 -0.211908 0.098250
v -0.171339 -0.206333 0.097436
v -0.225156 -0.211908 0.150388
v -0.204273 -0.206240 0.116044
v -0.203394 -0.206240 0.129843
v -0.195099 -0.206240 0.127630
v -0.195258 -0.206240 0.117600
v -0.203804 -0.206240 0.115565
v -0.224715 -0.211908 0.095107
v -0.225156 -0.206333 0.150388
v -0.204331 -0.206240 0.128886
v -0.204331 -0.206240 0.116463
v -0.199705 -0.206240 0.129843
v -0.196000 -0.206240 0.128598
v -0.196194 -0.206240 0.116684
v -0.203394 -0.206240 0.115506
v -0.225155 -0.206333 0.095320
v -0.225595 -0.211908 0.150175
v -0.202577 -0.206240 0.128308
v -0.198303 -0.206240 0.129705
v -0.197068 -0.206240 0.129290
v -0.195777 -0.206240 0.124788
v -0.197287 -0.206240 0.116029
v -0.196134 -0.206240 0.119493
v -0.195517 -0.206240 0.122585
v -0.199944 -0.206240 0.115506
v -0.225155 -0.211908 0.095320
v -0.225595 -0.206333 0.150175
v -0.225562 -0.206333 0.095590
v -0.200064 -0.206240 0.128308
v -0.198977 -0.206240 0.128197
v -0.196554 -0.206240 0.126533
v -0.196101 -0.206240 0.125718
v -0.195582 -0.206240 0.123744
v -0.198537 -0.206240 0.115637
v -0.196614 -0.206240 0.118696
v -0.195792 -0.206240 0.120406
v -0.195586 -0.206240 0.121437
v -0.202576 -0.206240 0.117041
v -0.226003 -0.211908 0.149905
v -0.198030 -0.206240 0.127864
v -0.197222 -0.206240 0.127310
v -0.198125 -0.206240 0.117455
v -0.197301 -0.206240 0.117972
v -0.199086 -0.206240 0.117145
v -0.200184 -0.206240 0.117041
v -0.225562 -0.211908 0.095590
v -0.226003 -0.206333 0.149905
v -0.225930 -0.206333 0.095911
v -0.226962 -0.206333 0.148809
v -0.225930 -0.211908 0.095911
v -0.226962 -0.211908 0.148809
v -0.226734 -0.206333 0.097126
v -0.226251 -0.206333 0.096279
v -0.226251 -0.211908 0.096279
v -0.227175 -0.206333 0.148369
v -0.227000 -0.206333 0.098558
v -0.226521 -0.206333 0.096686
v -0.227175 -0.211908 0.148369
v -0.227000 -0.211908 0.098558
v -0.226734 -0.211908 0.097126
v -0.226521 -0.211908 0.096686
v -0.227327 -0.206333 0.147905
v -0.227327 -0.211908 0.147905
vn -0.606486711917364 0 -0.7950936223286313
vn -0.7070962811044147 0 -0.7071172811127633
vn -0.49504395956481106 0 -0.8688679290308705
vn -0.795075910205722 0 -0.6065099315019852
vn -0.3747590916351674 0 -0.9271222266976368
vn -0.3747861214087981 0 0.927111300329874
vn -0.4950692845733326 0 0.8688534994301679
vn -0.6065099315019852 0 0.795075910205722
vn -0.8688534994301679 0 -0.4950692845733326
vn -0.215281030390687 0 0.9765521378574337
vn -0.7071172811127633 0 0.7070962811044147
vn -0.1560079678935635 0 -0.9877557967198779
vn -0.927111300329874 0 -0.3747861214087981
vn -0.06148699290338688 0 0.9981078848018878
vn -0.7950936223286313 0 0.606486711917364
vn 0.06027997035660851 0 -0.9981815091323855
vn -0.9867383264106255 0 -0.16231905369474603
vn -0.8688679290308705 0 0.49504395956481106
vn 0.08844897416573896 0 0.996080709063793
vn 0.215281030390687 0 -0.9765521378574337
vn 0 -1 0
vn -0.9961864437533426 0 0.08725003886571298
vn -0.9500932404662542 0 0.3119660789578447
vn 0.3119660789578447 0 0.9500932404662542
vn 0.3747861214087981 0 -0.927111300329874
vn 0.49504395956481106 0 0.8688679290308705
vn 0.4950692845733326 0 -0.8688534994301679
vn 0.606486711917364 0 0.7950936223286313
vn 0.6582848984312559 0 -0.7527688838530395
vn 0.7070962811044147 0 0.7071172811127633
vn 0.833844841558655 0 -0.5519988951130439
vn 0.795075910205722 0 0.6065099315019852
vn 0.9271222266976368 0 -0.3747590916351674
vn 0.9954829965710588 0 0.09493999967297917
vn 0.9500840650370568 0 0.3119940213572394
vn 0.8688534994301679 0 0.4950692845733326
vn 0.9879622684940965 0 -0.1546950420407812
vn 0 1 0
vn 0.3747590916351674 0 0.9271222266976368
vn 0.6065099315019852 0 -0.795075910205722
vn 0.7071172811127633 0 -0.7070962811044147
vn 0.1560079678935635 0 0.9877557967198779
vn 0.927111300329874 0 0.3747861214087981
vn 0.06148699290338688 0 -0.9981078848018878
vn 0.7950936223286313 0 -0.606486711917364
vn -0.06027997035660851 0 0.9981815091323855
vn 0.9867383264106255 0 0.16231905369474603
vn 0.8688679290308705 0 -0.49504395956481106
vn -0.08844897416573896 0 -0.996080709063793
vn 0.9961864437533426 0 -0.08725003886571298
vn 0.9500932404662542 0 -0.3119660789578447
vn -0.3119660789578447 0 -0.9500932404662542
vn -0.6582848984312559 0 0.7527688838530395
vn -0.833844841558655 0 0.5519988951130439
vn -0.9271222266976368 0 0.3747590916351674
vn -0.9954829965710588 0 -0.09493999967297917
vn -0.9500840650370568 0 -0.3119940213572394
vn -0.9879622684940965 0 0.1546950420407812
usemtl material_0_0
f 1//1 2//2 3//1
f 2//2 1//1 4//2
f 3//1 5//3 1//1
f 7//4 2//2 4//2
f 5//3 3//1 8//3
f 2//2 7//4 11//4
f 8//3 12//5 5//3
f 13//6 6//7 9//6
f 14//7 10//8 6//7
f 15//9 11//4 7//4
f 12//5 8//3 17//5
f 6//7 13//6 14//7
f 9//6 19//10 13//6
f 10//8 14//7 20//8
f 11//4 15//9 21//9
f 20//8 16//11 10//8
f 17//5 22//12 12//5
f 19//10 9//6 18//10
f 23//13 21//9 15//9
f 16//11 20//8 25//11
f 22//12 17//5 26//12
f 18//10 28//14 19//10
f 21//9 23//13 29//13
f 16//11 30//15 24//15
f 30//15 16//11 25//11
f 31//16 22//12 26//12
f 28//14 18//10 27//14
f 33//17 29//13 23//13
f 35//18 24//15 30//15
f 22//12 31//16 36//16
f 27//14 39//19 28//14
f 29//13 33//17 40//17
f 24//15 35//18 34//18
f 41//20 36//16 31//16
f 37//21 38//21 32//21
f 39//19 27//14 45//19
f 46//22 40//17 33//17
f 47//23 34//18 35//18
f 36//16 41//20 48//20
f 43//21 38//21 37//21
f 43//21 44//21 38//21
f 54//24 39//19 45//19
f 40//17 46//22 55//22
f 34//18 47//23 56//23
f 57//25 48//20 41//20
f 49//21 58//21 42//21
f 42//21 53//21 50//21
f 51//21 44//21 43//21
f 51//21 52//21 44//21
f 39//19 54//24 63//24
f 56//23 55//22 46//22
f 55//22 56//23 47//23
f 48//20 57//25 64//25
f 49//21 66//21 58//21
f 42//21 58//21 53//21
f 50//21 53//21 62//21
f 50//21 62//21 59//21
f 60//21 52//21 51//21
f 60//21 61//21 52//21
f 71//26 63//24 54//24
f 72//27 64//25 57//25
f 66//21 49//21 65//21
f 59//21 62//21 70//21
f 59//21 73//21 67//21
f 68//21 76//21 60//21
f 78//21 69//21 61//21
f 60//21 79//21 61//21
f 63//24 71//26 81//26
f 64//25 72//27 82//27
f 59//21 70//21 73//21
f 67//21 73//21 84//21
f 67//21 85//21 74//21
f 75//21 86//21 68//21
f 68//21 87//21 76//21
f 60//21 76//21 88//21
f 90//21 77//21 69//21
f 90//21 69//21 78//21
f 78//21 61//21 91//21
f 60//21 88//21 79//21
f 92//21 61//21 79//21
f 93//21 70//21 80//21
f 83//28 81//26 71//26
f 94//29 82//27 72//27
f 70//21 93//21 73//21
f 67//21 84//21 85//21
f 74//21 85//21 95//21
f 74//21 95//21 75//21
f 75//21 96//21 86//21
f 68//21 86//21 87//21
f 97//21 89//21 77//21
f 98//21 77//21 90//21
f 91//21 61//21 92//21
f 99//21 80//21 89//21
f 93//21 80//21 100//21
f 81//26 83//28 101//28
f 82//27 94//29 102//29
f 75//21 95//21 96//21
f 99//21 89//21 97//21
f 97//21 77//21 98//21
f 100//21 80//21 99//21
f 103//30 101//28 83//28
f 94//29 104//31 102//29
f 101//28 103//30 105//30
f 104//31 94//29 106//31
f 103//30 109//32 105//30
f 106//31 110//33 104//31
f 109//32 103//30 108//32
f 110//33 106//31 113//33
f 114//34 107//35 111//34
f 115//35 112//36 107//35
f 116//36 108//32 112//36
f 108//32 116//36 109//32
f 113//33 117//37 110//33
f 107//35 114//34 115//35
f 111//34 118//37 114//34
f 112//36 115//35 116//36
f 117//37 113//33 118//37
f 118//37 111//34 117//37
usemtl material_1_0
f 3//28 2//30 1//28
f 4//30 1//28 2//30
f 1//28 5//26 3//28
f 1//21 6//21 4//21
f 4//38 6//38 1//38
f 4//30 2//30 7//32
f 8//26 3//28 5//26
f 5//21 9//21 1//21
f 1//38 9//38 5//38
f 1//21 9//21 6//21
f 6//38 9//38 1//38
f 4//21 6//21 10//21
f 10//38 6//38 4//38
f 11//32 7//32 2//30
f 4//21 10//21 7//21
f 7//38 10//38 4//38
f 5//26 12//39 8//26
f 12//21 9//21 5//21
f 5//38 9//38 12//38
f 9//25 6//27 13//25
f 6//27 10//40 14//27
f 7//32 11//32 15//36
f 7//21 10//21 16//21
f 16//38 10//38 7//38
f 17//39 8//26 12//39
f 12//21 18//21 9//21
f 9//38 18//38 12//38
f 14//27 13//25 6//27
f 13//25 19//20 9//25
f 20//40 14//27 10//40
f 21//36 15//36 11//32
f 7//21 16//21 15//21
f 15//38 16//38 7//38
f 10//40 16//41 20//40
f 12//39 22//42 17//39
f 22//21 18//21 12//21
f 12//38 18//38 22//38
f 18//20 9//25 19//20
f 15//36 21//36 23//43
f 15//21 16//21 24//21
f 24//38 16//38 15//38
f 25//41 20//40 16//41
f 26//42 17//39 22//42
f 22//21 27//21 18//21
f 18//38 27//38 22//38
f 19//20 28//44 18//20
f 29//43 23//43 21//36
f 15//21 24//21 23//21
f 23//38 24//38 15//38
f 24//45 30//45 16//41
f 25//41 16//41 30//45
f 26//42 22//42 31//46
f 22//21 32//21 27//21
f 27//38 32//38 22//38
f 27//44 18//20 28//44
f 23//43 29//43 33//47
f 23//21 24//21 34//21
f 34//38 24//38 23//38
f 30//45 24//45 35//48
f 36//46 31//46 22//42
f 22//21 37//21 32//21
f 32//38 37//38 22//38
f 38//21 27//21 32//21
f 32//38 27//38 38//38
f 28//44 39//49 27//44
f 40//47 33//47 29//43
f 23//21 34//21 33//21
f 33//38 34//38 23//38
f 34//48 35//48 24//45
f 31//46 36//46 41//10
f 36//21 42//21 22//21
f 22//38 42//38 36//38
f 22//21 43//21 37//21
f 37//38 43//38 22//38
f 44//21 27//21 38//21
f 38//38 27//38 44//38
f 45//49 27//44 39//49
f 33//47 40//47 46//50
f 33//21 34//21 46//21
f 46//38 34//38 33//38
f 35//48 34//48 47//51
f 48//10 41//10 36//46
f 36//21 49//21 42//21
f 42//38 49//38 36//38
f 22//21 42//21 50//21
f 50//38 42//38 22//38
f 22//21 51//21 43//21
f 43//38 51//38 22//38
f 52//21 27//21 44//21
f 44//38 27//38 52//38
f 53//21 45//21 27//21
f 27//38 45//38 53//38
f 45//49 39//49 54//52
f 55//50 46//50 40//47
f 46//21 34//21 56//21
f 56//38 34//38 46//38
f 56//51 47//51 34//48
f 41//10 48//10 57//6
f 48//21 45//21 36//21
f 36//38 45//38 48//38
f 36//21 45//21 49//21
f 49//38 45//38 36//38
f 22//21 50//21 59//21
f 59//38 50//38 22//38
f 22//21 60//21 51//21
f 51//38 60//38 22//38
f 61//21 27//21 52//21
f 52//38 27//38 61//38
f 58//21 45//21 53//21
f 53//38 45//38 58//38
f 53//21 27//21 62//21
f 62//38 27//38 53//38
f 63//52 54//52 39//49
f 48//21 54//21 45//21
f 45//38 54//38 48//38
f 46//50 55//50 56//51
f 47//51 56//51 55//50
f 64//6 57//6 48//10
f 49//21 45//21 65//21
f 65//38 45//38 49//38
f 22//21 59//21 67//21
f 67//38 59//38 22//38
f 22//21 68//21 60//21
f 60//38 68//38 22//38
f 69//21 27//21 61//21
f 61//38 27//38 69//38
f 66//21 45//21 58//21
f 58//38 45//38 66//38
f 62//21 27//21 70//21
f 70//38 27//38 62//38
f 54//52 63//52 71//3
f 48//21 71//21 54//21
f 54//38 71//38 48//38
f 57//6 64//6 72//7
f 64//21 71//21 48//21
f 48//38 71//38 64//38
f 45//21 66//21 65//21
f 65//38 66//38 45//38
f 22//21 67//21 74//21
f 74//38 67//38 22//38
f 22//21 75//21 68//21
f 68//38 75//38 22//38
f 77//21 27//21 69//21
f 69//38 27//38 77//38
f 70//21 27//21 80//21
f 80//38 27//38 70//38
f 81//3 71//3 63//52
f 82//7 72//7 64//6
f 64//21 83//21 71//21
f 71//38 83//38 64//38
f 22//21 74//21 75//21
f 75//38 74//38 22//38
f 89//21 27//21 77//21
f 77//38 27//38 89//38
f 80//21 27//21 89//21
f 89//38 27//38 80//38
f 71//3 81//3 83//1
f 72//7 82//7 94//53
f 82//21 83//21 64//21
f 64//38 83//38 82//38
f 73//38 84//38 93//38
f 76//38 91//38 87//38
f 88//38 92//38 76//38
f 78//38 90//38 86//38
f 91//38 78//38 87//38
f 79//38 92//38 88//38
f 101//1 83//1 81//3
f 102//53 94//53 82//7
f 82//21 103//21 83//21
f 83//38 103//38 82//38
f 100//38 93//38 84//38
f 85//38 99//38 84//38
f 95//38 97//38 85//38
f 86//38 90//38 96//38
f 87//38 78//38 86//38
f 92//38 91//38 76//38
f 90//38 98//38 96//38
f 83//1 101//1 103//2
f 102//53 104//54 94//53
f 102//21 103//21 82//21
f 82//38 103//38 102//38
f 99//38 100//38 84//38
f 97//38 99//38 85//38
f 98//38 97//38 95//38
f 96//38 98//38 95//38
f 105//2 103//2 101//1
f 106//54 94//53 104//54
f 104//21 107//21 102//21
f 102//38 107//38 104//38
f 102//21 108//21 103//21
f 103//38 108//38 102//38
f 105//2 109//4 103//2
f 104//54 110//55 106//54
f 104//21 111//21 107//21
f 107//38 111//38 104//38
f 102//21 107//21 112//21
f 112//38 107//38 102//38
f 102//21 112//21 108//21
f 108//38 112//38 102//38
f 108//4 103//2 109//4
f 113//55 106//54 110//55
f 110//21 111//21 104//21
f 104//38 111//38 110//38
f 111//56 107//57 114//56
f 107//57 112//9 115//57
f 112//9 108//4 116//9
f 109//4 116//9 108//4
f 110//55 117//58 113//55
f 111//21 110//21 117//21
f 117//38 110//38 111//38
f 115//57 114//56 107//57
f 114//56 118//58 111//56
f 116//9 115//57 112//9
f 118//58 113//55 117//58
f 117//58 111//56 118//58
usemtl material_2_0
f 32//38 38//38 37//38
f 37//38 38//38 43//38
f 38//38 44//38 43//38
f 42//38 58//38 49//38
f 50//38 53//38 42//38
f 43//38 44//38 51//38
f 44//38 52//38 51//38
f 58//38 66//38 49//38
f 53//38 58//38 42//38
f 62//38 53//38 50//38
f 59//38 62//38 50//38
f 51//38 52//38 60//38
f 52//38 61//38 60//38
f 65//38 49//38 66//38
f 70//38 62//38 59//38
f 67//38 73//38 59//38
f 60//38 76//38 68//38
f 61//38 69//38 78//38
f 61//38 79//38 60//38
f 73//38 70//38 59//38
f 84//38 73//38 67//38
f 74//38 85//38 67//38
f 68//38 86//38 75//38
f 76//38 87//38 68//38
f 88//38 76//38 60//38
f 69//38 77//38 90//38
f 78//38 69//38 90//38
f 91//38 61//38 78//38
f 79//38 88//38 60//38
f 79//38 61//38 92//38
f 80//38 70//38 93//38
f 73//38 93//38 70//38
f 85//38 84//38 67//38
f 95//38 85//38 74//38
f 75//38 95//38 74//38
f 86//38 96//38 75//38
f 87//38 86//38 68//38
f 77//38 89//38 97//38
f 90//38 77//38 98//38
f 92//38 61//38 91//38
f 89//38 80//38 99//38
f 100//38 80//38 93//38
f 96//38 95//38 75//38
f 97//38 89//38 99//38
f 98//38 77//38 97//38
f 99//38 80//38 100//38
usemtl material_3_0
f 93//21 84//21 73//21
f 87//21 91//21 76//21
f 76//21 92//21 88//21
f 86//21 90//21 78//21
f 87//21 78//21 91//21
f 88//21 92//21 79//21
f 84//21 93//21 100//21
f 84//21 99//21 85//21
f 85//21 97//21 95//21
f 96//21 90//21 86//21
f 86//21 78//21 87//21
f 76//21 91//21 92//21
f 96//21 98//21 90//21
f 84//21 100//21 99//21
f 85//21 99//21 97//21
f 95//21 97//21 98//21
f 95//21 98//21 96//21
