# SSTK version 0.8.0
# 35
mtllib original-35.mtl
o mesh34/mesh34-geometry#mesh34-geometry
v 0.490591 -0.206333 0.277974
v 0.479439 -0.206333 0.281691
v 0.479439 -0.206333 0.274257
v 0.510386 -0.206333 0.293909
v 0.461096 -0.206333 0.261982
v 0.509418 -0.206333 0.261983
v 0.461096 -0.206333 0.294022
v 0.510386 -0.211908 0.293909
v 0.510386 -0.206333 0.262096
v 0.461096 -0.211908 0.261982
v 0.460128 -0.206333 0.293908
v 0.461096 -0.211908 0.294022
v 0.510850 -0.211908 0.293757
v 0.509418 -0.211908 0.261983
v 0.510850 -0.206333 0.293757
v 0.459664 -0.206333 0.262248
v 0.460128 -0.211908 0.293908
v 0.510386 -0.211908 0.262096
v 0.510850 -0.206333 0.262248
v 0.459664 -0.211908 0.262248
v 0.459664 -0.206333 0.293756
v 0.459664 -0.211908 0.293756
v 0.511289 -0.211908 0.293544
v 0.511289 -0.206333 0.293544
v 0.459225 -0.206333 0.262461
v 0.510850 -0.211908 0.262248
v 0.511290 -0.206333 0.262461
v 0.459225 -0.211908 0.262461
v 0.459224 -0.206333 0.293543
v 0.459224 -0.211908 0.293543
v 0.511697 -0.211908 0.293274
v 0.511697 -0.206333 0.293274
v 0.458817 -0.206333 0.262730
v 0.511697 -0.206333 0.262731
v 0.458817 -0.211908 0.262730
v 0.458817 -0.206333 0.293273
v 0.458817 -0.211908 0.293273
v 0.512065 -0.211908 0.292953
v 0.511290 -0.211908 0.262461
v 0.512065 -0.206333 0.292953
v 0.458449 -0.206333 0.263052
v 0.511697 -0.211908 0.262731
v 0.512065 -0.206333 0.263053
v 0.458449 -0.211908 0.263052
v 0.458128 -0.206333 0.263420
v 0.457858 -0.206333 0.292177
v 0.512386 -0.206333 0.292585
v 0.458128 -0.211908 0.263420
v 0.457858 -0.206333 0.263827
v 0.457858 -0.211908 0.292177
v 0.512386 -0.211908 0.292585
v 0.512065 -0.211908 0.263053
v 0.512387 -0.206333 0.263420
v 0.457858 -0.211908 0.263827
v 0.457645 -0.206333 0.291737
v 0.457645 -0.206333 0.264267
v 0.512656 -0.206333 0.292177
v 0.512387 -0.211908 0.263420
v 0.457645 -0.211908 0.264267
v 0.457645 -0.211908 0.291737
v 0.512656 -0.211908 0.292177
v 0.512656 -0.211908 0.263828
v 0.512656 -0.206333 0.263828
v 0.457492 -0.206333 0.291273
v 0.457379 -0.211908 0.265699
v 0.512869 -0.206333 0.291738
v 0.457492 -0.211908 0.291273
v 0.457379 -0.206333 0.265699
v 0.512869 -0.211908 0.291738
v 0.512869 -0.211908 0.264267
v 0.512869 -0.206333 0.264267
v 0.513021 -0.206333 0.291274
v 0.513021 -0.211908 0.291274
v 0.513135 -0.211908 0.265700
v 0.513135 -0.206333 0.265700
v 0.513035 -0.211908 0.284358
vn 0 -1 0
vn -0.15909601842451318 0 -0.9872631143324796
vn 0.05715900501553144 0 -0.9983650876035453
vn 0.09162000390136309 0 0.9957940424029028
vn -0.0583079791180214 0 0.9982986424768754
vn -0.3747590916351674 0 -0.9271222266976368
vn -0.215281030390687 0 0.9765521378574337
vn 0.3119660789578447 0 0.9500932404662542
vn 0.215281030390687 0 -0.9765521378574337
vn 0.3747861214087981 0 -0.927111300329874
vn -0.49504395956481106 0 -0.8688679290308705
vn -0.3747861214087981 0 0.927111300329874
vn 0.49504395956481106 0 0.8688679290308705
vn 0.4950692845733326 0 -0.8688534994301679
vn -0.606486711917364 0 -0.7950936223286313
vn 0.606486711917364 0 0.7950936223286313
vn 0.6582848984312559 0 -0.7527688838530395
vn -0.7070962811044147 0 -0.7071172811127633
vn -0.4950692845733326 0 0.8688534994301679
vn -0.6065099315019852 0 0.795075910205722
vn 0.7070962811044147 0 0.7071172811127633
vn 0.833844841558655 0 -0.5519988951130439
vn -0.795075910205722 0 -0.6065099315019852
vn -0.7071172811127633 0 0.7070962811044147
vn 0.795075910205722 0 0.6065099315019852
vn 0.8688534994301679 0 0.4950692845733326
vn 0.9271222266976368 0 -0.3747590916351674
vn -0.8688534994301679 0 -0.4950692845733326
vn -0.7950936223286313 0 0.606486711917364
vn 0.9500840650370568 0 0.3119940213572394
vn -0.8688679290308705 0 0.49504395956481106
vn 0.9870928554649392 0 -0.16014897655018784
vn 0.9959921212396383 0 0.08944101088743132
vn -0.927111300329874 0 -0.3747861214087981
vn -0.9500932404662542 0 0.3119660789578447
vn -0.9870800627022889 0.0005050000320791537 -0.16022701017810073
vn -0.9959990866290163 0.0005010000435754629 0.08936200777243969
vn -0.9999891461354246 0.000998000145844759 -0.004551000665069633
vn 0 1 0
vn 0.15909601842451318 0 0.9872631143324796
vn -0.05715900501553144 0 0.9983650876035453
vn -0.09162000390136309 0 -0.9957940424029028
vn 0.0583079791180214 0 -0.9982986424768754
vn 0.3747590916351674 0 0.9271222266976368
vn -0.3119660789578447 0 -0.9500932404662542
vn -0.6582848984312559 0 0.7527688838530395
vn 0.6065099315019852 0 -0.795075910205722
vn -0.833844841558655 0 0.5519988951130439
vn 0.7071172811127633 0 -0.7070962811044147
vn -0.9271222266976368 0 0.3747590916351674
vn 0.7950936223286313 0 -0.606486711917364
vn -0.9500840650370568 0 -0.3119940213572394
vn 0.8688679290308705 0 -0.49504395956481106
vn -0.9870928554649392 0 0.16014897655018784
vn -0.9959921212396383 0 -0.08944101088743132
vn 0.927111300329874 0 0.3747861214087981
vn 0.9500932404662542 0 -0.3119660789578447
vn 0.9870800627022889 -0.0005050000320791537 0.16022701017810073
vn 0.9959990866290163 -0.0005010000435754629 -0.08936200777243969
vn 0.9999891461354246 -0.000998000145844759 0.004551000665069633
usemtl material_0_0
f 1//1 2//1 3//1
f 8//2 7//3 4//2
f 10//4 6//5 5//4
f 7//3 8//2 12//3
f 4//2 13//6 8//2
f 14//5 9//7 6//5
f 6//5 10//4 14//5
f 16//8 10//4 5//4
f 7//3 17//9 11//9
f 17//9 7//3 12//3
f 13//6 4//2 15//6
f 9//7 14//5 18//7
f 10//4 16//8 20//8
f 22//10 11//9 17//9
f 15//6 23//11 13//6
f 18//7 19//12 9//7
f 25//13 20//8 16//8
f 11//9 22//10 21//10
f 23//11 15//6 24//11
f 19//12 18//7 26//12
f 20//8 25//13 28//13
f 30//14 21//10 22//10
f 24//11 31//15 23//11
f 33//16 28//13 25//13
f 21//10 30//14 29//14
f 31//15 24//11 32//15
f 28//13 33//16 35//16
f 37//17 29//14 30//14
f 32//15 38//18 31//15
f 39//19 34//20 27//19
f 41//21 35//16 33//16
f 29//14 37//17 36//17
f 38//18 32//15 40//18
f 34//20 39//19 42//20
f 27//19 26//12 39//19
f 35//16 41//21 44//21
f 37//17 46//22 36//17
f 47//23 38//18 40//18
f 42//20 43//24 34//20
f 26//12 27//19 19//12
f 41//21 48//25 44//21
f 48//25 41//21 45//25
f 46//22 37//17 50//22
f 38//18 47//23 51//23
f 43//24 42//20 52//24
f 54//26 45//25 49//26
f 45//25 54//26 48//25
f 50//22 55//27 46//22
f 57//28 51//23 47//23
f 58//29 43//24 52//24
f 43//24 58//29 53//29
f 49//26 59//30 54//26
f 55//27 50//22 60//27
f 59//30 49//26 56//30
f 51//23 57//28 61//28
f 62//31 53//29 58//29
f 60//27 64//32 55//27
f 56//30 65//33 59//30
f 66//34 61//28 57//28
f 53//29 62//31 63//31
f 64//32 60//27 67//32
f 65//33 56//30 68//33
f 61//28 66//34 69//34
f 70//35 63//31 62//31
f 68//33 67//32 65//33
f 72//36 69//34 66//34
f 63//31 70//35 71//35
f 67//32 68//33 64//32
f 69//34 72//36 73//36
f 74//37 71//35 70//35
f 75//37 73//36 72//36
f 71//35 74//37 75//37
f 73//36 75//37 76//38
f 76//38 75//37 74//37
usemtl material_1_0
f 3//39 2//39 1//39
usemtl material_2_0
f 4//1 2//1 1//1
f 1//39 2//39 4//39
f 5//1 3//1 2//1
f 2//39 3//39 5//39
f 3//1 6//1 1//1
f 1//39 6//39 3//39
f 7//1 2//1 4//1
f 4//39 2//39 7//39
f 4//1 1//1 6//1
f 6//39 1//39 4//39
f 3//1 5//1 6//1
f 6//39 5//39 3//39
f 7//1 5//1 2//1
f 2//39 5//39 7//39
f 4//40 7//41 8//40
f 4//1 6//1 9//1
f 9//39 6//39 4//39
f 5//42 6//43 10//42
f 11//1 5//1 7//1
f 7//39 5//39 11//39
f 12//41 8//40 7//41
f 8//40 13//44 4//40
f 6//43 9//9 14//43
f 4//1 9//1 15//1
f 15//39 9//39 4//39
f 14//43 10//42 6//43
f 5//42 10//42 16//45
f 11//1 16//1 5//1
f 5//39 16//39 11//39
f 11//7 17//7 7//41
f 12//41 7//41 17//7
f 15//44 4//40 13//44
f 18//9 14//43 9//9
f 15//1 9//1 19//1
f 19//39 9//39 15//39
f 20//45 16//45 10//42
f 21//1 16//1 11//1
f 11//39 16//39 21//39
f 17//7 11//7 22//12
f 13//44 23//13 15//44
f 9//9 19//10 18//9
f 15//1 19//1 24//1
f 24//39 19//39 15//39
f 16//45 20//45 25//11
f 21//1 25//1 16//1
f 16//39 25//39 21//39
f 21//12 22//12 11//7
f 24//13 15//44 23//13
f 26//10 18//9 19//10
f 24//1 19//1 27//1
f 27//39 19//39 24//39
f 28//11 25//11 20//45
f 29//1 25//1 21//1
f 21//39 25//39 29//39
f 22//12 21//12 30//19
f 23//13 31//16 24//13
f 24//1 27//1 32//1
f 32//39 27//39 24//39
f 25//11 28//11 33//15
f 29//1 33//1 25//1
f 25//39 33//39 29//39
f 29//19 30//19 21//12
f 32//16 24//13 31//16
f 32//1 27//1 34//1
f 34//39 27//39 32//39
f 35//15 33//15 28//11
f 36//1 33//1 29//1
f 29//39 33//39 36//39
f 30//19 29//19 37//46
f 31//16 38//21 32//16
f 27//14 34//47 39//14
f 32//1 34//1 40//1
f 40//39 34//39 32//39
f 33//15 35//15 41//18
f 36//1 41//1 33//1
f 33//39 41//39 36//39
f 36//46 37//46 29//19
f 40//21 32//16 38//21
f 42//47 39//14 34//47
f 39//14 26//10 27//14
f 40//1 34//1 43//1
f 43//39 34//39 40//39
f 44//18 41//18 35//15
f 36//1 45//1 41//1
f 41//39 45//39 36//39
f 36//46 46//48 37//46
f 40//21 38//21 47//25
f 34//47 43//49 42//47
f 19//10 27//14 26//10
f 40//1 43//1 47//1
f 47//39 43//39 40//39
f 44//18 48//23 41//18
f 36//1 49//1 45//1
f 45//39 49//39 36//39
f 45//23 41//18 48//23
f 50//48 37//46 46//48
f 46//1 49//1 36//1
f 36//39 49//39 46//39
f 51//25 47//25 38//21
f 52//49 42//47 43//49
f 47//1 43//1 53//1
f 53//39 43//39 47//39
f 49//28 45//23 54//28
f 48//23 54//28 45//23
f 46//48 55//50 50//48
f 46//1 56//1 49//1
f 49//39 56//39 46//39
f 47//25 51//25 57//26
f 52//49 43//49 58//51
f 53//51 58//51 43//49
f 47//1 53//1 57//1
f 57//39 53//39 47//39
f 54//28 59//52 49//28
f 60//50 50//48 55//50
f 55//1 56//1 46//1
f 46//39 56//39 55//39
f 56//52 49//28 59//52
f 61//26 57//26 51//25
f 58//51 53//51 62//53
f 57//1 53//1 63//1
f 63//39 53//39 57//39
f 55//50 64//54 60//50
f 64//1 56//1 55//1
f 55//39 56//39 64//39
f 59//52 65//55 56//52
f 57//26 61//26 66//56
f 63//53 62//53 53//51
f 57//1 63//1 66//1
f 66//39 63//39 57//39
f 67//54 60//50 64//54
f 56//1 64//1 68//1
f 68//39 64//39 56//39
f 68//55 56//52 65//55
f 69//56 66//56 61//26
f 62//53 63//53 70//57
f 66//1 63//1 71//1
f 71//39 63//39 66//39
f 65//55 67//54 68//55
f 66//56 69//56 72//58
f 71//57 70//57 63//53
f 66//1 71//1 72//1
f 72//39 71//39 66//39
f 64//54 68//55 67//54
f 73//58 72//58 69//56
f 70//57 71//57 74//59
f 72//1 71//1 75//1
f 75//39 71//39 72//39
f 72//58 73//58 75//59
f 75//59 74//59 71//57
f 76//60 75//59 73//58
f 74//59 75//59 76//60
