# SSTK version 0.8.0
# 24
mtllib original-24.mtl
o mesh23/mesh23-geometry#mesh23-geometry
v 0.291413 -0.206333 -0.088185
v 0.291734 -0.211908 -0.087817
v 0.291734 -0.206333 -0.087817
v 0.291413 -0.211908 -0.088185
v 0.292004 -0.211908 -0.087410
v 0.291734 -0.206333 -0.058653
v 0.291045 -0.211908 -0.088506
v 0.292004 -0.206333 -0.087410
v 0.291412 -0.206333 -0.058285
v 0.292003 -0.206333 -0.059060
v 0.291045 -0.206333 -0.088506
v 0.292217 -0.211908 -0.086970
v 0.291412 -0.211908 -0.058285
v 0.291734 -0.211908 -0.058653
v 0.290637 -0.211908 -0.088776
v 0.292217 -0.206333 -0.086970
v 0.292216 -0.206333 -0.059500
v 0.291044 -0.206333 -0.057963
v 0.292003 -0.211908 -0.059060
v 0.290637 -0.206333 -0.088776
v 0.292483 -0.211908 -0.085538
v 0.291044 -0.211908 -0.057963
v 0.290198 -0.211908 -0.088989
v 0.292483 -0.206333 -0.085538
v 0.292369 -0.206333 -0.059964
v 0.292216 -0.211908 -0.059500
v 0.290637 -0.206333 -0.057694
v 0.290198 -0.206333 -0.088989
v 0.292369 -0.211908 -0.059964
v 0.290637 -0.211908 -0.057694
v 0.289734 -0.211908 -0.089141
v 0.290197 -0.206333 -0.057481
v 0.289734 -0.206333 -0.089141
v 0.290197 -0.211908 -0.057481
v 0.288766 -0.211908 -0.089255
v 0.289733 -0.206333 -0.057328
v 0.288766 -0.206333 -0.089255
v 0.289733 -0.211908 -0.057328
v 0.240444 -0.211908 -0.089256
v 0.288688 -0.206305 -0.062153
v 0.240444 -0.206333 -0.057216
v 0.240444 -0.206333 -0.089256
v 0.288614 -0.206305 -0.061395
v 0.288614 -0.206305 -0.062910
v 0.240444 -0.211908 -0.057216
v 0.280586 -0.206305 -0.059981
v 0.262031 -0.206333 -0.075122
v 0.239012 -0.206333 -0.088990
v 0.288523 -0.206305 -0.061053
v 0.288523 -0.206305 -0.063250
v 0.239475 -0.211908 -0.057329
v 0.262045 -0.206333 -0.071405
v 0.280701 -0.206305 -0.059964
v 0.267599 -0.206333 -0.076980
v 0.239012 -0.211908 -0.088990
v 0.239475 -0.206333 -0.057329
v 0.288395 -0.206305 -0.060735
v 0.288395 -0.206305 -0.063565
v 0.280504 -0.206305 -0.060034
v 0.280596 -0.206305 -0.064283
v 0.280816 -0.206305 -0.059981
v 0.280456 -0.206305 -0.064140
v 0.264818 -0.206333 -0.075122
v 0.238572 -0.206333 -0.088777
v 0.239011 -0.206333 -0.057481
v 0.288181 -0.206305 -0.060398
v 0.288182 -0.206305 -0.063903
v 0.239011 -0.211908 -0.057481
v 0.264875 -0.206333 -0.071405
v 0.280508 -0.206305 -0.064229
v 0.280719 -0.206305 -0.064301
v 0.280899 -0.206305 -0.060034
v 0.280438 -0.206305 -0.064014
v 0.238572 -0.211908 -0.088777
v 0.287925 -0.206305 -0.060157
v 0.287925 -0.206305 -0.064144
v 0.267599 -0.206333 -0.069547
v 0.280965 -0.206305 -0.063805
v 0.280948 -0.206305 -0.060122
v 0.280455 -0.206305 -0.060122
v 0.280438 -0.206305 -0.060245
v 0.238165 -0.206333 -0.088507
v 0.238572 -0.206333 -0.057694
v 0.238572 -0.211908 -0.057694
v 0.287625 -0.206305 -0.060012
v 0.287988 -0.206305 -0.061094
v 0.288125 -0.206305 -0.062153
v 0.287625 -0.206305 -0.064289
v 0.287988 -0.206305 -0.063212
v 0.282215 -0.206305 -0.064301
v 0.280965 -0.206305 -0.060245
v 0.238165 -0.211908 -0.088507
v 0.287282 -0.206305 -0.059964
v 0.287704 -0.206305 -0.060592
v 0.287863 -0.206305 -0.060801
v 0.288091 -0.206305 -0.061580
v 0.288091 -0.206305 -0.062726
v 0.287282 -0.206305 -0.064337
v 0.287704 -0.206305 -0.063710
v 0.287863 -0.206305 -0.063503
v 0.282408 -0.206305 -0.064240
v 0.282215 -0.206305 -0.063804
v 0.280965 -0.206305 -0.062399
v 0.284451 -0.206305 -0.059981
v 0.237797 -0.206333 -0.088186
v 0.238164 -0.206333 -0.057964
v 0.238164 -0.211908 -0.057964
v 0.286941 -0.206305 -0.060012
v 0.287282 -0.206305 -0.060424
v 0.287510 -0.206305 -0.060466
v 0.286941 -0.206305 -0.064289
v 0.287510 -0.206305 -0.063835
v 0.282472 -0.206305 -0.064056
v 0.282408 -0.206305 -0.063867
v 0.281279 -0.206305 -0.062423
v 0.280965 -0.206305 -0.061902
v 0.284566 -0.206305 -0.059964
v 0.237797 -0.211908 -0.088186
v 0.286643 -0.206305 -0.060157
v 0.287056 -0.206305 -0.060466
v 0.286643 -0.206305 -0.064144
v 0.287056 -0.206305 -0.063835
v 0.287282 -0.206305 -0.063876
v 0.283525 -0.206305 -0.064074
v 0.282290 -0.206305 -0.062282
v 0.281712 -0.206305 -0.062446
v 0.281288 -0.206305 -0.061878
v 0.284668 -0.206305 -0.064301
v 0.284681 -0.206305 -0.059981
v 0.237475 -0.211908 -0.087818
v 0.237475 -0.206333 -0.087818
v 0.237205 -0.206333 -0.059061
v 0.284829 -0.206305 -0.060245
v 0.286706 -0.206305 -0.060801
v 0.286865 -0.206305 -0.060592
v 0.286388 -0.206305 -0.063903
v 0.286706 -0.206305 -0.063503
v 0.286865 -0.206305 -0.063710
v 0.283594 -0.206305 -0.064235
v 0.284319 -0.206305 -0.060122
v 0.282174 -0.206305 -0.062373
v 0.282329 -0.206305 -0.062153
v 0.281982 -0.206305 -0.062428
v 0.284368 -0.206305 -0.060034
v 0.284763 -0.206305 -0.060034
v 0.237206 -0.206333 -0.087411
v 0.237205 -0.211908 -0.059061
v 0.284813 -0.206305 -0.060122
v 0.286388 -0.206305 -0.060398
v 0.286582 -0.206305 -0.061094
v 0.286175 -0.206305 -0.063565
v 0.286474 -0.206305 -0.062726
v 0.286582 -0.206305 -0.063212
v 0.283752 -0.206305 -0.064301
v 0.283551 -0.206305 -0.063964
v 0.282176 -0.206305 -0.061929
v 0.282290 -0.206305 -0.062022
v 0.281718 -0.206305 -0.061854
v 0.284789 -0.206305 -0.064265
v 0.237206 -0.211908 -0.087411
v 0.236992 -0.206333 -0.059500
v 0.236993 -0.206333 -0.086971
v 0.284829 -0.206305 -0.064157
v 0.286175 -0.206305 -0.060735
v 0.286474 -0.206305 -0.061580
v 0.286044 -0.206305 -0.063250
v 0.286438 -0.206305 -0.062153
v 0.283630 -0.206305 -0.063885
v 0.281985 -0.206305 -0.061873
v 0.284303 -0.206305 -0.063840
v 0.236993 -0.211908 -0.086971
v 0.236992 -0.211908 -0.059500
v 0.286044 -0.206305 -0.061053
v 0.285951 -0.206305 -0.062910
v 0.283944 -0.206305 -0.063822
v 0.284303 -0.206305 -0.060245
v 0.284150 -0.206305 -0.063831
v 0.236840 -0.206333 -0.059965
v 0.236727 -0.211908 -0.085539
v 0.285951 -0.206305 -0.061395
v 0.236840 -0.211908 -0.059965
v 0.236727 -0.206333 -0.085539
v 0.285876 -0.206305 -0.062153
vn -0.7071172811127633 0 0.7070962811044147
vn -0.7950936223286313 0 0.606486711917364
vn -0.8688679290308705 0 0.49504395956481106
vn -0.6065099315019852 0 0.795075910205722
vn -0.9500932404662542 0 0.3119660789578447
vn -0.795075910205722 0 -0.6065099315019852
vn -0.7070962811044147 0 -0.7071172811127633
vn -0.8688534994301679 0 -0.4950692845733326
vn -0.4950692845733326 0 0.8688534994301679
vn -0.606486711917364 0 -0.7950936223286313
vn -0.9959948172618596 0 0.08941098359550011
vn -0.927111300329874 0 -0.3747861214087981
vn -0.3747861214087981 0 0.927111300329874
vn -0.49504395956481106 0 -0.8688679290308705
vn -0.9870881424230101 0 -0.1601780231114479
vn -0.215281030390687 0 0.9765521378574337
vn -0.3747590916351674 0 -0.9271222266976368
vn -0.0583079791180214 0 0.9982986424768754
vn -0.15909601842451318 0 -0.9872631143324796
vn 0.09162000390136309 0 0.9957940424029028
vn 0.05715900501553144 0 -0.9983650876035453
vn 0.3119660789578447 0 0.9500932404662542
vn 0.215281030390687 0 -0.9765521378574337
vn 0.49504395956481106 0 0.8688679290308705
vn 0.3747861214087981 0 -0.927111300329874
vn 0.606486711917364 0 0.7950936223286313
vn 0.4950692845733326 0 -0.8688534994301679
vn 0.7070962811044147 0 0.7071172811127633
vn 0.6582848984312559 0 -0.7527688838530395
vn 0.795075910205722 0 0.6065099315019852
vn 0.833844841558655 0 -0.5519988951130439
vn 0.8688534994301679 0 0.4950692845733326
vn 0.9271222266976368 0 -0.3747590916351674
vn 0.9500840650370568 0 0.3119940213572394
vn 0.9870928554649392 0 -0.16014897655018784
vn 0.9959921212396383 0 0.08944101088743132
vn 0.7950936223286313 0 -0.606486711917364
vn 0.7071172811127633 0 -0.7070962811044147
vn 0.8688679290308705 0 -0.49504395956481106
vn 0 -1 0
vn 0 1 0
vn 0.6065099315019852 0 -0.795075910205722
vn 0.9500932404662542 0 -0.3119660789578447
vn 0.9959948172618596 0 -0.08941098359550011
vn 0.927111300329874 0 0.3747861214087981
vn 0.9870881424230101 0 0.1601780231114479
vn 0.3747590916351674 0 0.9271222266976368
vn 0.0583079791180214 0 -0.9982986424768754
vn 0.15909601842451318 0 0.9872631143324796
vn -0.09162000390136309 0 -0.9957940424029028
vn -0.05715900501553144 0 0.9983650876035453
vn -0.3119660789578447 0 -0.9500932404662542
vn -0.6582848984312559 0 0.7527688838530395
vn -0.833844841558655 0 0.5519988951130439
vn -0.9271222266976368 0 0.3747590916351674
vn -0.9500840650370568 0 -0.3119940213572394
vn -0.9870928554649392 0 0.16014897655018784
vn -0.9959921212396383 0 -0.08944101088743132
usemtl material_0_0
f 1//1 2//2 3//2
f 2//2 1//1 4//1
f 5//3 3//2 2//2
f 1//1 7//4 4//1
f 3//2 5//3 8//3
f 7//4 1//1 11//4
f 12//5 8//3 5//3
f 6//6 13//7 9//7
f 10//8 14//6 6//6
f 11//4 15//9 7//4
f 8//3 12//5 16//5
f 13//7 6//6 14//6
f 13//7 18//10 9//7
f 14//6 10//8 19//8
f 15//9 11//4 20//9
f 21//11 16//5 12//5
f 17//12 19//8 10//8
f 18//10 13//7 22//10
f 20//9 23//13 15//9
f 16//5 21//11 24//11
f 19//8 17//12 26//12
f 22//10 27//14 18//10
f 23//13 20//9 28//13
f 29//15 24//11 21//11
f 25//15 26//12 17//12
f 27//14 22//10 30//14
f 28//13 31//16 23//13
f 24//11 29//15 25//15
f 26//12 25//15 29//15
f 30//14 32//17 27//14
f 31//16 28//13 33//16
f 32//17 30//14 34//17
f 33//16 35//18 31//16
f 34//17 36//19 32//17
f 35//18 33//16 37//18
f 36//19 34//17 38//19
f 37//18 39//20 35//18
f 38//19 41//21 36//19
f 39//20 37//18 42//20
f 41//21 38//19 45//21
f 48//22 39//20 42//20
f 51//23 41//21 45//21
f 39//20 48//22 55//22
f 41//21 51//23 56//23
f 64//24 55//22 48//22
f 68//25 56//23 51//23
f 55//22 64//24 74//24
f 56//23 68//25 65//25
f 82//26 74//24 64//24
f 84//27 65//25 68//25
f 74//24 82//26 92//26
f 65//25 84//27 83//27
f 105//28 92//26 82//26
f 107//29 83//27 84//27
f 92//26 105//28 118//28
f 83//27 107//29 106//29
f 105//28 130//30 118//28
f 107//29 132//31 106//29
f 130//30 105//28 131//30
f 132//31 107//29 147//31
f 131//30 160//32 130//30
f 160//32 131//30 146//32
f 147//31 161//33 132//31
f 146//32 171//34 160//32
f 161//33 147//31 172//33
f 171//34 146//32 162//34
f 172//33 178//35 161//33
f 162//34 179//36 171//34
f 178//35 172//33 181//35
f 179//36 162//34 182//36
f 181//35 182//36 178//35
f 182//36 181//35 179//36
usemtl material_1_0
f 3//37 2//37 1//38
f 4//38 1//38 2//37
f 2//37 3//37 5//39
f 6//40 1//40 3//40
f 3//41 1//41 6//41
f 4//38 7//42 1//38
f 8//39 5//39 3//37
f 9//40 1//40 6//40
f 6//41 1//41 9//41
f 6//40 3//40 10//40
f 10//41 3//41 6//41
f 11//42 1//38 7//42
f 5//39 8//39 12//43
f 10//40 3//40 8//40
f 8//41 3//41 10//41
f 9//40 11//40 1//40
f 1//41 11//41 9//41
f 9//28 13//28 6//30
f 6//30 14//30 10//32
f 7//42 15//27 11//42
f 16//43 12//43 8//39
f 10//40 8//40 17//40
f 17//41 8//41 10//41
f 18//40 11//40 9//40
f 9//41 11//41 18//41
f 14//30 6//30 13//28
f 9//28 18//26 13//28
f 19//32 10//32 14//30
f 20//27 11//42 15//27
f 12//43 16//43 21//44
f 17//40 8//40 16//40
f 16//41 8//41 17//41
f 10//32 19//32 17//45
f 18//40 20//40 11//40
f 11//41 20//41 18//41
f 22//26 13//28 18//26
f 15//27 23//25 20//27
f 24//44 21//44 16//43
f 17//40 16//40 25//40
f 25//41 16//41 17//41
f 26//45 17//45 19//32
f 27//40 20//40 18//40
f 18//41 20//41 27//41
f 18//26 27//24 22//26
f 28//25 20//27 23//25
f 21//44 24//44 29//46
f 25//40 16//40 24//40
f 24//41 16//41 25//41
f 17//45 26//45 25//46
f 27//40 28//40 20//40
f 20//41 28//41 27//41
f 30//24 22//26 27//24
f 23//25 31//23 28//25
f 25//46 29//46 24//44
f 29//46 25//46 26//45
f 32//40 28//40 27//40
f 27//41 28//41 32//41
f 27//24 32//47 30//24
f 33//23 28//25 31//23
f 32//40 33//40 28//40
f 28//41 33//41 32//41
f 34//47 30//24 32//47
f 31//23 35//48 33//23
f 36//40 33//40 32//40
f 32//41 33//41 36//41
f 32//47 36//49 34//47
f 37//48 33//23 35//48
f 36//40 37//40 33//40
f 33//41 37//41 36//41
f 38//49 34//47 36//49
f 35//48 39//50 37//48
f 36//40 40//40 37//40
f 37//41 40//41 36//41
f 36//49 41//51 38//49
f 42//50 37//48 39//50
f 36//40 43//40 40//40
f 40//41 43//41 36//41
f 44//40 37//40 40//40
f 40//41 37//41 44//41
f 45//51 38//49 41//51
f 41//40 46//40 36//40
f 36//41 46//41 41//41
f 37//40 47//40 42//40
f 42//41 47//41 37//41
f 42//50 39//50 48//52
f 36//40 49//40 43//40
f 43//41 49//41 36//41
f 50//40 37//40 44//40
f 44//41 37//41 50//41
f 45//51 41//51 51//16
f 41//40 52//40 46//40
f 46//41 52//41 41//41
f 36//40 46//40 53//40
f 53//41 46//41 36//41
f 47//40 37//40 54//40
f 54//41 37//41 47//41
f 52//40 42//40 47//40
f 47//41 42//41 52//41
f 55//52 48//52 39//50
f 56//40 48//40 42//40
f 42//41 48//41 56//41
f 36//40 57//40 49//40
f 49//41 57//41 36//41
f 58//40 37//40 50//40
f 50//41 37//41 58//41
f 56//16 51//16 41//51
f 41//40 42//40 52//40
f 52//41 42//41 41//41
f 46//40 52//40 59//40
f 59//41 52//41 46//41
f 36//40 53//40 61//40
f 61//41 53//41 36//41
f 54//40 37//40 62//40
f 62//41 37//41 54//41
f 47//40 54//40 63//40
f 63//41 54//41 47//41
f 48//52 55//52 64//14
f 65//40 48//40 56//40
f 56//41 48//41 65//41
f 56//40 42//40 41//40
f 41//41 42//41 56//41
f 36//40 66//40 57//40
f 57//41 66//41 36//41
f 67//40 37//40 58//40
f 58//41 37//41 67//41
f 51//16 56//16 68//13
f 59//40 52//40 69//40
f 69//41 52//41 59//41
f 36//40 61//40 72//40
f 72//41 61//41 36//41
f 62//40 37//40 70//40
f 70//41 37//41 62//41
f 54//40 62//40 73//40
f 73//41 62//41 54//41
f 74//14 64//14 55//52
f 65//40 64//40 48//40
f 48//41 64//41 65//41
f 65//13 68//13 56//16
f 36//40 75//40 66//40
f 66//41 75//41 36//41
f 76//40 37//40 67//40
f 67//41 37//41 76//41
f 59//40 69//40 77//40
f 77//41 69//41 59//41
f 70//40 37//40 60//40
f 60//41 37//41 70//41
f 60//40 37//40 71//40
f 71//41 37//41 60//41
f 36//40 72//40 79//40
f 79//41 72//41 36//41
f 54//40 73//40 81//40
f 81//41 73//41 54//41
f 64//14 74//14 82//10
f 83//40 64//40 65//40
f 65//41 64//41 83//41
f 68//13 65//13 84//9
f 36//40 85//40 75//40
f 75//41 85//41 36//41
f 88//40 37//40 76//40
f 76//41 37//41 88//41
f 59//40 77//40 54//40
f 54//41 77//41 59//41
f 71//40 37//40 90//40
f 90//41 37//41 71//41
f 36//40 79//40 91//40
f 91//41 79//41 36//41
f 80//40 54//40 81//40
f 81//41 54//41 80//41
f 92//10 82//10 74//14
f 83//40 82//40 64//40
f 64//41 82//41 83//41
f 83//9 84//9 65//13
f 36//40 93//40 85//40
f 85//41 93//41 36//41
f 98//40 37//40 88//40
f 88//41 37//41 98//41
f 59//40 54//40 80//40
f 80//41 54//41 59//41
f 90//40 37//40 101//40
f 101//41 37//41 90//41
f 36//40 91//40 104//40
f 104//41 91//41 36//41
f 82//10 92//10 105//7
f 106//40 82//40 83//40
f 83//41 82//41 106//41
f 84//9 83//9 107//53
f 36//40 108//40 93//40
f 93//41 108//41 36//41
f 86//41 100//41 95//41
f 96//41 89//41 86//41
f 87//41 97//41 96//41
f 111//40 37//40 98//40
f 98//41 37//41 111//41
f 89//41 100//41 86//41
f 97//41 89//41 96//41
f 101//40 37//40 113//40
f 113//41 37//41 101//41
f 115//40 78//40 102//40
f 102//41 78//41 115//41
f 78//40 115//40 103//40
f 103//41 115//41 78//41
f 104//40 91//40 116//40
f 116//41 91//41 104//41
f 36//40 104//40 117//40
f 117//41 104//41 36//41
f 118//7 105//7 92//10
f 106//40 105//40 82//40
f 82//41 105//41 106//41
f 106//53 107//53 83//9
f 36//40 119//40 108//40
f 108//41 119//41 36//41
f 94//41 112//41 110//41
f 95//41 99//41 94//41
f 100//41 99//41 95//41
f 121//40 37//40 111//40
f 111//41 37//41 121//41
f 99//41 112//41 94//41
f 113//40 37//40 124//40
f 124//41 37//41 113//41
f 125//40 102//40 114//40
f 114//41 102//41 125//41
f 115//40 102//40 126//40
f 126//41 102//41 115//41
f 104//40 116//40 127//40
f 127//41 116//41 104//41
f 36//40 117//40 129//40
f 129//41 117//41 36//41
f 118//7 130//6 105//7
f 106//40 131//40 105//40
f 105//41 131//41 106//41
f 106//53 132//54 107//53
f 36//40 133//40 119//40
f 119//41 133//41 36//41
f 109//41 122//41 120//41
f 110//41 123//41 109//41
f 112//41 123//41 110//41
f 136//40 37//40 121//40
f 121//41 37//41 136//41
f 124//40 37//40 139//40
f 139//41 37//41 124//41
f 140//40 113//40 124//40
f 124//41 113//41 140//41
f 140//40 114//40 113//40
f 113//41 114//41 140//41
f 141//40 102//40 125//40
f 125//41 102//41 141//41
f 125//40 114//40 142//40
f 142//41 114//41 125//41
f 126//40 102//40 143//40
f 143//41 102//41 126//41
f 104//40 127//40 144//40
f 144//41 127//41 104//41
f 36//40 129//40 145//40
f 145//41 129//41 36//41
f 131//6 105//7 130//6
f 106//40 146//40 131//40
f 131//41 146//41 106//41
f 147//54 107//53 132//54
f 132//40 146//40 106//40
f 106//41 146//41 132//41
f 36//40 148//40 133//40
f 133//41 148//41 36//41
f 119//40 133//40 149//40
f 149//41 133//41 119//41
f 120//41 138//41 135//41
f 122//41 138//41 120//41
f 123//41 122//41 109//41
f 151//40 37//40 136//40
f 136//41 37//41 151//41
f 139//40 37//40 154//40
f 154//41 37//41 139//41
f 140//40 124//40 155//40
f 155//41 124//41 140//41
f 140//40 142//40 114//40
f 114//41 142//41 140//41
f 143//40 102//40 141//40
f 141//41 102//41 143//41
f 144//40 127//40 158//40
f 158//41 127//41 144//41
f 36//40 145//40 148//40
f 148//41 145//41 36//41
f 130//6 160//8 131//6
f 146//8 131//6 160//8
f 132//54 161//55 147//54
f 132//40 162//40 146//40
f 146//41 162//41 132//41
f 149//40 133//40 164//40
f 164//41 133//41 149//41
f 134//41 153//41 150//41
f 135//41 137//41 134//41
f 138//41 137//41 135//41
f 166//40 37//40 151//40
f 151//41 37//41 166//41
f 137//41 153//41 134//41
f 154//40 37//40 128//40
f 128//41 37//41 154//41
f 140//40 155//40 168//40
f 168//41 155//41 140//41
f 144//40 142//40 140//40
f 140//41 142//41 144//41
f 144//40 157//40 142//40
f 142//41 157//41 144//41
f 144//40 158//40 169//40
f 169//41 158//41 144//41
f 128//40 37//40 159//40
f 159//41 37//41 128//41
f 160//8 171//56 146//8
f 172//55 147//54 161//55
f 161//40 162//40 132//40
f 132//41 162//41 161//41
f 162//56 146//8 171//56
f 173//40 133//40 163//40
f 163//41 133//41 173//41
f 164//40 133//40 173//40
f 173//41 133//41 164//41
f 150//41 152//41 165//41
f 153//41 152//41 150//41
f 174//40 37//40 166//40
f 166//41 37//41 174//41
f 167//41 165//41 152//41
f 140//40 168//40 176//40
f 176//41 168//41 140//41
f 144//40 169//40 156//40
f 156//41 169//41 144//41
f 144//40 156//40 157//40
f 157//41 156//41 144//41
f 159//40 37//40 163//40
f 163//41 37//41 159//41
f 161//55 178//57 172//55
f 178//40 162//40 161//40
f 161//41 162//41 178//41
f 171//56 179//58 162//56
f 173//40 163//40 180//40
f 180//41 163//41 173//41
f 163//40 37//40 174//40
f 174//41 37//41 163//41
f 176//40 168//40 175//40
f 175//41 168//41 176//41
f 170//40 176//40 177//40
f 177//41 176//41 170//41
f 181//57 172//55 178//57
f 162//40 178//40 182//40
f 182//41 178//41 162//41
f 182//58 162//56 179//58
f 180//40 163//40 183//40
f 183//41 163//41 180//41
f 163//40 174//40 183//40
f 183//41 174//41 163//41
f 176//40 175//40 177//40
f 177//41 175//41 176//41
f 178//57 182//58 181//57
f 179//58 181//57 182//58
usemtl material_2_0
f 43//40 44//40 40//40
f 40//41 44//41 43//41
f 49//40 50//40 43//40
f 43//41 50//41 49//41
f 43//40 50//40 44//40
f 44//41 50//41 43//41
f 46//40 60//40 53//40
f 53//41 60//41 46//41
f 52//41 63//41 47//41
f 47//40 63//40 52//40
f 57//40 58//40 49//40
f 49//41 58//41 57//41
f 49//40 58//40 50//40
f 50//41 58//41 49//41
f 59//40 70//40 46//40
f 46//41 70//41 59//41
f 46//40 70//40 60//40
f 60//41 70//41 46//41
f 53//40 60//40 71//40
f 71//41 60//41 53//41
f 53//40 71//40 61//40
f 61//41 71//41 53//41
f 63//41 69//41 54//41
f 54//40 69//40 63//40
f 63//41 52//41 69//41
f 69//40 52//40 63//40
f 66//40 67//40 57//40
f 57//41 67//41 66//41
f 57//40 67//40 58//40
f 58//41 67//41 57//41
f 59//40 62//40 70//40
f 70//41 62//41 59//41
f 61//40 71//40 78//40
f 78//41 71//41 61//41
f 61//40 78//40 72//40
f 72//41 78//41 61//41
f 80//40 73//40 62//40
f 62//41 73//41 80//41
f 54//41 69//41 77//41
f 77//40 69//40 54//40
f 75//40 86//40 66//40
f 66//41 86//41 75//41
f 87//40 67//40 66//40
f 66//41 67//41 87//41
f 89//40 76//40 67//40
f 67//41 76//41 89//41
f 80//40 62//40 59//40
f 59//41 62//41 80//41
f 78//40 71//40 90//40
f 90//41 71//41 78//41
f 72//40 78//40 79//40
f 79//41 78//41 72//41
f 73//40 80//40 81//40
f 81//41 80//41 73//41
f 85//40 94//40 75//40
f 75//41 94//41 85//41
f 75//40 95//40 86//40
f 86//41 95//41 75//41
f 66//40 86//40 96//40
f 96//41 86//41 66//41
f 97//40 67//40 87//40
f 87//41 67//41 97//41
f 66//40 96//40 87//40
f 87//41 96//41 66//41
f 99//40 88//40 76//40
f 76//41 88//41 99//41
f 100//40 76//40 89//40
f 89//41 76//41 100//41
f 89//40 67//40 97//40
f 97//41 67//41 89//41
f 78//40 90//40 102//40
f 102//41 90//41 78//41
f 79//40 78//40 103//40
f 103//41 78//41 79//41
f 79//40 103//40 91//40
f 91//41 103//41 79//41
f 93//40 109//40 85//40
f 85//41 109//41 93//41
f 85//40 110//40 94//40
f 94//41 110//41 85//41
f 75//40 94//40 95//40
f 95//41 94//41 75//41
f 112//40 98//40 88//40
f 88//41 98//41 112//41
f 112//40 88//40 99//40
f 99//41 88//41 112//41
f 99//40 76//40 100//40
f 100//41 76//41 99//41
f 114//40 90//40 101//40
f 101//41 90//41 114//41
f 102//40 90//40 114//40
f 114//41 90//41 102//41
f 91//40 103//40 116//40
f 116//41 103//41 91//41
f 108//40 120//40 93//40
f 93//41 120//41 108//41
f 93//40 120//40 109//40
f 109//41 120//41 93//41
f 85//40 109//40 110//40
f 110//41 109//41 85//41
f 122//40 111//40 98//40
f 98//41 111//41 122//41
f 123//40 98//40 112//40
f 112//41 98//41 123//41
f 114//40 101//40 113//40
f 113//41 101//41 114//41
f 127//40 103//40 115//40
f 115//41 103//41 127//41
f 103//40 127//40 116//40
f 116//41 127//41 103//41
f 104//40 128//40 117//40
f 117//41 128//41 104//41
f 119//40 134//40 108//40
f 108//41 134//41 119//41
f 108//40 135//40 120//40
f 120//41 135//41 108//41
f 137//40 121//40 111//40
f 111//41 121//41 137//41
f 138//40 111//40 122//40
f 122//41 111//41 138//41
f 122//40 98//40 123//40
f 123//41 98//41 122//41
f 127//40 115//40 126//40
f 126//41 115//41 127//41
f 144//40 128//40 104//40
f 104//41 128//41 144//41
f 117//40 128//40 129//40
f 129//41 128//41 117//41
f 119//40 150//40 134//40
f 134//41 150//41 119//41
f 108//40 134//40 135//40
f 135//41 134//41 108//41
f 152//40 136//40 121//40
f 121//41 136//41 152//41
f 153//40 121//40 137//40
f 137//41 121//41 153//41
f 137//40 111//40 138//40
f 138//41 111//41 137//41
f 139//40 155//40 124//40
f 124//41 155//41 139//41
f 156//40 141//40 125//40
f 125//41 141//41 156//41
f 157//40 125//40 142//40
f 142//41 125//41 157//41
f 158//40 126//40 143//40
f 143//41 126//41 158//41
f 127//40 126//40 158//40
f 158//41 126//41 127//41
f 140//40 128//40 144//40
f 144//41 128//41 140//41
f 129//40 128//40 159//40
f 159//41 128//41 129//41
f 129//40 159//40 145//40
f 145//41 159//41 129//41
f 148//40 163//40 133//40
f 133//41 163//41 148//41
f 149//40 165//40 119//40
f 119//41 165//41 149//41
f 119//40 165//40 150//40
f 150//41 165//41 119//41
f 149//40 151//40 136//40
f 136//41 151//41 149//41
f 136//40 152//40 167//40
f 167//41 152//41 136//41
f 152//40 121//40 153//40
f 153//41 121//41 152//41
f 168//40 139//40 154//40
f 154//41 139//41 168//41
f 155//40 139//40 168//40
f 168//41 139//41 155//41
f 169//40 143//40 141//40
f 141//41 143//41 169//41
f 169//40 141//40 156//40
f 156//41 141//41 169//41
f 156//40 125//40 157//40
f 157//41 125//41 156//41
f 158//40 143//40 169//40
f 169//41 143//41 158//41
f 170//40 128//40 140//40
f 140//41 128//41 170//41
f 145//40 159//40 148//40
f 148//41 159//41 145//41
f 148//40 159//40 163//40
f 163//41 159//41 148//41
f 164//40 151//40 149//40
f 149//41 151//41 164//41
f 149//40 167//40 165//40
f 165//41 167//41 149//41
f 164//40 166//40 151//40
f 151//41 166//41 164//41
f 149//40 136//40 167//40
f 167//41 136//41 149//41
f 175//40 154//40 128//40
f 128//41 154//41 175//41
f 168//40 154//40 175//40
f 175//41 154//41 168//41
f 177//40 128//40 170//40
f 170//41 128//41 177//41
f 140//40 176//40 170//40
f 170//41 176//41 140//41
f 173//40 166//40 164//40
f 164//41 166//41 173//41
f 173//40 174//40 166//40
f 166//41 174//41 173//41
f 175//40 128//40 177//40
f 177//41 128//41 175//41
f 180//40 174//40 173//40
f 173//41 174//41 180//41
f 174//40 180//40 183//40
f 183//41 180//41 174//41
usemtl material_3_0
f 95//40 100//40 86//40
f 86//40 89//40 96//40
f 96//40 97//40 87//40
f 86//40 100//40 89//40
f 96//40 89//40 97//40
f 110//40 112//40 94//40
f 94//40 99//40 95//40
f 95//40 99//40 100//40
f 94//40 112//40 99//40
f 120//40 122//40 109//40
f 109//40 123//40 110//40
f 110//40 123//40 112//40
f 135//40 138//40 120//40
f 120//40 138//40 122//40
f 109//40 122//40 123//40
f 150//40 153//40 134//40
f 134//40 137//40 135//40
f 135//40 137//40 138//40
f 134//40 153//40 137//40
f 165//40 152//40 150//40
f 150//40 152//40 153//40
f 152//40 165//40 167//40
