# SSTK version 0.8.0
# 80
mtllib original-80.mtl
o mesh79/mesh79-geometry#mesh79-geometry
v -0.291529 -0.206240 0.048753
v -0.291534 -0.206240 0.051879
v -0.291759 -0.206240 0.049321
v -0.290861 -0.206240 0.055563
v -0.308238 -0.206333 0.028099
v -0.290961 -0.206240 0.048524
v -0.259745 -0.206333 0.028408
v -0.290313 -0.206240 0.048728
v -0.289505 -0.206240 0.061924
v -0.308238 -0.211908 0.028099
v -0.289345 -0.206240 0.062439
v -0.259745 -0.211908 0.028408
v -0.309670 -0.206333 0.028365
v -0.290004 -0.206240 0.049341
v -0.308678 -0.206333 0.083911
v -0.288149 -0.206240 0.060808
v -0.258777 -0.206333 0.028522
v -0.309670 -0.211908 0.028365
v -0.309646 -0.206333 0.083798
v -0.284515 -0.206240 0.048698
v -0.289082 -0.206240 0.062807
v -0.258777 -0.211908 0.028522
v -0.259218 -0.206333 0.084107
v -0.310109 -0.206333 0.028578
v -0.283942 -0.206240 0.048524
v -0.284839 -0.206240 0.049222
v -0.309646 -0.211908 0.083798
v -0.288717 -0.206240 0.063027
v -0.258313 -0.206333 0.028674
v -0.276125 -0.206240 0.049322
v -0.258753 -0.206333 0.083955
v -0.310109 -0.211908 0.028578
v -0.310110 -0.206333 0.083645
v -0.283368 -0.206240 0.048698
v -0.283922 -0.206240 0.051415
v -0.287767 -0.206240 0.063027
v -0.308678 -0.211908 0.083911
v -0.310110 -0.211908 0.083645
v -0.288249 -0.206240 0.063101
v -0.258313 -0.211908 0.028674
v -0.276268 -0.206240 0.051391
v -0.276354 -0.206240 0.048753
v -0.258753 -0.211908 0.083955
v -0.310517 -0.206333 0.028847
v -0.283044 -0.206240 0.049222
v -0.286873 -0.206240 0.061924
v -0.287377 -0.206240 0.062807
v -0.259218 -0.211908 0.084107
v -0.257873 -0.206333 0.028887
v -0.258314 -0.206333 0.083742
v -0.276698 -0.206240 0.054207
v -0.276922 -0.206240 0.048524
v -0.258314 -0.211908 0.083742
v -0.310517 -0.211908 0.028847
v -0.310550 -0.206333 0.083432
v -0.310550 -0.211908 0.083432
v -0.277571 -0.206240 0.048728
v -0.281011 -0.206240 0.061924
v -0.287079 -0.206240 0.062439
v -0.257873 -0.211908 0.028887
v -0.257906 -0.206333 0.083472
v -0.278418 -0.206240 0.062084
v -0.310885 -0.206333 0.029169
v -0.277880 -0.206240 0.049342
v -0.279774 -0.206240 0.060808
v -0.280805 -0.206240 0.062439
v -0.257466 -0.206333 0.029157
v -0.257539 -0.206333 0.083151
v -0.257906 -0.211908 0.083472
v -0.278584 -0.206240 0.062529
v -0.310885 -0.211908 0.029169
v -0.310957 -0.206333 0.083163
v -0.310957 -0.211908 0.083163
v -0.280507 -0.206240 0.062807
v -0.257466 -0.211908 0.029157
v -0.257539 -0.211908 0.083151
v -0.278842 -0.206240 0.062847
v -0.311206 -0.211908 0.029537
v -0.311206 -0.206333 0.029537
v -0.279635 -0.206240 0.063101
v -0.280117 -0.206240 0.063027
v -0.257098 -0.206333 0.029478
v -0.257217 -0.206333 0.082783
v -0.279192 -0.206240 0.063037
v -0.311476 -0.206333 0.029944
v -0.311916 -0.206333 0.082066
v -0.257098 -0.211908 0.029478
v -0.257217 -0.211908 0.082783
v -0.311476 -0.211908 0.029944
v -0.311689 -0.206333 0.030384
v -0.311916 -0.211908 0.082066
v -0.256777 -0.211908 0.029846
v -0.256947 -0.206333 0.082376
v -0.311689 -0.211908 0.030384
v -0.312129 -0.206333 0.081626
v -0.311955 -0.206333 0.031816
v -0.256777 -0.206333 0.029846
v -0.256947 -0.211908 0.082376
v -0.311955 -0.211908 0.031816
v -0.312129 -0.211908 0.081626
v -0.256507 -0.211908 0.030254
v -0.256735 -0.206333 0.081936
v -0.312282 -0.206333 0.081162
v -0.312282 -0.211908 0.081162
v -0.256507 -0.206333 0.030254
v -0.256735 -0.211908 0.081936
v -0.256294 -0.211908 0.030693
v -0.256582 -0.206333 0.081472
v -0.256294 -0.206333 0.030693
v -0.256143 -0.206333 0.031508
v -0.256582 -0.211908 0.081472
v -0.256143 -0.211908 0.031508
vn 0 -1 0
vn 0.08844897416573896 0 0.996080709063793
vn -0.06148699290338688 0 0.9981078848018878
vn 0.3119660789578447 0 0.9500932404662542
vn -0.215281030390687 0 0.9765521378574337
vn 0.49504395956481106 0 0.8688679290308705
vn 0.06027997035660851 0 -0.9981815091323855
vn 0.215281030390687 0 -0.9765521378574337
vn -0.3747861214087981 0 0.927111300329874
vn 0.3747861214087981 0 -0.927111300329874
vn -0.1560079678935635 0 -0.9877557967198779
vn -0.3747590916351674 0 -0.9271222266976368
vn 0.606486711917364 0 0.7950936223286313
vn -0.4950692845733326 0 0.8688534994301679
vn -0.49504395956481106 0 -0.8688679290308705
vn 0.4950692845733326 0 -0.8688534994301679
vn 0.7070962811044147 0 0.7071172811127633
vn -0.6065099315019852 0 0.795075910205722
vn -0.606486711917364 0 -0.7950936223286313
vn 0.6582848984312559 0 -0.7527688838530395
vn -0.7070962811044147 0 -0.7071172811127633
vn 0.795075910205722 0 0.6065099315019852
vn -0.7071172811127633 0 0.7070962811044147
vn -0.795075910205722 0 -0.6065099315019852
vn 0.833844841558655 0 -0.5519988951130439
vn 0.8688534994301679 0 0.4950692845733326
vn -0.7950936223286313 0 0.606486711917364
vn -0.8688534994301679 0 -0.4950692845733326
vn 0.9500840650370568 0 0.3119940213572394
vn 0.9271222266976368 0 -0.3747590916351674
vn 0.9954829965710588 0 0.09493999967297917
vn -0.8688679290308705 0 0.49504395956481106
vn -0.927111300329874 0 -0.3747861214087981
vn 0.9879622684940965 0 -0.1546950420407812
vn -0.9500932404662542 0 0.3119660789578447
vn -0.9867383264106255 0 -0.16231905369474603
vn -0.9961864437533426 0 0.08725003886571298
vn 0 1 0
vn -0.08844897416573896 0 -0.996080709063793
vn 0.06148699290338688 0 -0.9981078848018878
vn -0.3119660789578447 0 -0.9500932404662542
vn -0.06027997035660851 0 0.9981815091323855
vn 0.1560079678935635 0 0.9877557967198779
vn 0.3747590916351674 0 0.9271222266976368
vn 0.6065099315019852 0 -0.795075910205722
vn -0.6582848984312559 0 0.7527688838530395
vn 0.7071172811127633 0 -0.7070962811044147
vn -0.833844841558655 0 0.5519988951130439
vn 0.7950936223286313 0 -0.606486711917364
vn -0.9500840650370568 0 -0.3119940213572394
vn -0.9271222266976368 0 0.3747590916351674
vn -0.9954829965710588 0 -0.09493999967297917
vn 0.8688679290308705 0 -0.49504395956481106
vn 0.927111300329874 0 0.3747861214087981
vn -0.9879622684940965 0 0.1546950420407812
vn 0.9500932404662542 0 -0.3119660789578447
vn 0.9867383264106255 0 0.16231905369474603
vn 0.9961864437533426 0 -0.08725003886571298
usemtl material_0_0
f 1//1 2//1 3//1
f 2//1 1//1 4//1
f 4//1 1//1 6//1
f 4//1 6//1 8//1
f 10//2 7//3 5//2
f 4//1 8//1 9//1
f 7//3 10//2 12//3
f 13//4 10//2 5//2
f 9//1 8//1 14//1
f 9//1 16//1 11//1
f 12//3 17//5 7//3
f 10//2 13//4 18//4
f 9//1 14//1 16//1
f 11//1 16//1 21//1
f 17//5 12//3 22//5
f 24//6 18//4 13//4
f 15//7 27//8 19//8
f 21//1 16//1 28//1
f 22//5 29//9 17//5
f 18//4 24//6 32//6
f 35//1 20//1 25//1
f 35//1 26//1 20//1
f 36//1 16//1 26//1
f 27//8 15//7 37//7
f 38//10 19//8 27//8
f 23//11 37//7 15//7
f 28//1 16//1 39//1
f 29//9 22//5 40//9
f 43//12 23//11 31//12
f 44//13 32//6 24//6
f 19//8 38//10 33//10
f 35//1 25//1 34//1
f 46//1 26//1 35//1
f 39//1 16//1 36//1
f 36//1 26//1 47//1
f 37//7 23//11 48//11
f 40//9 49//14 29//9
f 41//1 42//1 30//1
f 23//11 43//12 48//11
f 31//12 53//15 43//12
f 32//6 44//13 54//13
f 56//16 33//10 38//10
f 58//1 34//1 45//1
f 35//1 34//1 58//1
f 59//1 26//1 46//1
f 47//1 26//1 59//1
f 49//14 40//9 60//14
f 53//15 31//12 50//15
f 51//1 42//1 41//1
f 51//1 52//1 42//1
f 63//17 54//13 44//13
f 33//10 56//16 55//16
f 58//1 45//1 65//1
f 60//14 67//18 49//14
f 69//19 50//15 61//19
f 50//15 69//19 53//15
f 62//1 64//1 51//1
f 51//1 57//1 52//1
f 54//13 63//17 71//17
f 73//20 55//16 56//16
f 51//1 64//1 57//1
f 58//1 65//1 66//1
f 67//18 60//14 75//18
f 76//21 61//19 68//21
f 61//19 76//21 69//19
f 70//1 64//1 62//1
f 63//17 78//22 71//17
f 55//16 73//20 72//20
f 80//1 65//1 64//1
f 66//1 65//1 74//1
f 75//18 82//23 67//18
f 83//24 76//21 68//21
f 77//1 64//1 70//1
f 78//22 63//17 79//22
f 73//20 86//25 72//20
f 81//1 65//1 80//1
f 80//1 64//1 84//1
f 74//1 65//1 81//1
f 82//23 75//18 87//23
f 76//21 83//24 88//24
f 84//1 64//1 77//1
f 79//22 89//26 78//22
f 89//26 79//22 85//26
f 86//25 73//20 91//25
f 92//27 82//23 87//23
f 93//28 88//24 83//24
f 94//29 85//26 90//29
f 85//26 94//29 89//26
f 91//25 95//30 86//25
f 82//23 92//27 97//27
f 88//24 93//28 98//28
f 90//29 99//31 94//29
f 95//30 91//25 100//30
f 99//31 90//29 96//31
f 101//32 97//27 92//27
f 102//33 98//28 93//28
f 100//30 103//34 95//30
f 96//31 104//34 99//31
f 97//27 101//32 105//32
f 98//28 102//33 106//33
f 103//34 100//30 104//34
f 104//34 96//31 103//34
f 107//35 105//32 101//32
f 108//36 106//33 102//33
f 105//32 107//35 109//35
f 106//33 108//36 111//36
f 112//37 109//35 107//35
f 110//37 111//36 108//36
f 109//35 112//37 110//37
f 111//36 110//37 112//37
usemtl material_1_0
f 3//38 2//38 1//38
f 4//38 1//38 2//38
f 6//38 1//38 4//38
f 8//38 6//38 4//38
f 9//38 8//38 4//38
f 14//38 8//38 9//38
f 11//38 16//38 9//38
f 16//38 14//38 9//38
f 21//38 16//38 11//38
f 28//38 16//38 21//38
f 25//38 20//38 35//38
f 20//38 26//38 35//38
f 26//38 16//38 36//38
f 39//38 16//38 28//38
f 34//38 25//38 35//38
f 35//38 26//38 46//38
f 36//38 16//38 39//38
f 47//38 26//38 36//38
f 30//38 42//38 41//38
f 45//38 34//38 58//38
f 58//38 34//38 35//38
f 46//38 26//38 59//38
f 59//38 26//38 47//38
f 41//38 42//38 51//38
f 42//38 52//38 51//38
f 65//38 45//38 58//38
f 51//38 64//38 62//38
f 52//38 57//38 51//38
f 57//38 64//38 51//38
f 66//38 65//38 58//38
f 62//38 64//38 70//38
f 64//38 65//38 80//38
f 74//38 65//38 66//38
f 70//38 64//38 77//38
f 80//38 65//38 81//38
f 84//38 64//38 80//38
f 81//38 65//38 74//38
f 77//38 64//38 84//38
usemtl material_2_0
f 2//1 5//1 3//1
f 3//38 5//38 2//38
f 5//1 1//1 3//1
f 3//38 1//38 5//38
f 4//1 5//1 2//1
f 2//38 5//38 4//38
f 1//1 5//1 7//1
f 7//38 5//38 1//38
f 1//1 7//1 6//1
f 6//38 7//38 1//38
f 9//1 5//1 4//1
f 4//38 5//38 9//38
f 5//39 7//40 10//39
f 6//1 7//1 8//1
f 8//38 7//38 6//38
f 11//1 5//1 9//1
f 9//38 5//38 11//38
f 12//40 10//39 7//40
f 5//39 10//39 13//41
f 8//1 7//1 14//1
f 14//38 7//38 8//38
f 15//1 5//1 11//1
f 11//38 5//38 15//38
f 7//40 17//8 12//40
f 18//41 13//41 10//39
f 19//1 13//1 5//1
f 5//38 13//38 19//38
f 14//1 7//1 20//1
f 20//38 7//38 14//38
f 19//1 5//1 15//1
f 15//38 5//38 19//38
f 15//1 11//1 21//1
f 21//38 11//38 15//38
f 22//8 12//40 17//8
f 23//1 7//1 17//1
f 17//38 7//38 23//38
f 13//41 18//41 24//15
f 19//1 24//1 13//1
f 13//38 24//38 19//38
f 20//1 7//1 25//1
f 25//38 7//38 20//38
f 14//1 20//1 26//1
f 26//38 20//38 14//38
f 14//1 26//1 16//1
f 16//38 26//38 14//38
f 19//5 27//5 15//42
f 15//1 21//1 23//1
f 23//38 21//38 15//38
f 17//8 29//10 22//8
f 23//1 30//1 7//1
f 7//38 30//38 23//38
f 23//1 17//1 31//1
f 31//38 17//38 23//38
f 32//15 24//15 18//41
f 33//1 24//1 19//1
f 19//38 24//38 33//38
f 25//1 7//1 34//1
f 34//38 7//38 25//38
f 37//42 15//42 27//5
f 27//5 19//5 38//9
f 23//1 21//1 28//1
f 28//38 21//38 23//38
f 15//42 37//42 23//43
f 40//10 22//8 29//10
f 31//1 17//1 29//1
f 29//38 17//38 31//38
f 23//1 41//1 30//1
f 30//38 41//38 23//38
f 42//1 7//1 30//1
f 30//38 7//38 42//38
f 31//44 23//43 43//44
f 24//15 32//15 44//19
f 33//1 44//1 24//1
f 24//38 44//38 33//38
f 33//9 38//9 19//5
f 34//1 7//1 45//1
f 45//38 7//38 34//38
f 23//1 28//1 39//1
f 39//38 28//38 23//38
f 48//43 23//43 37//42
f 29//10 49//16 40//10
f 31//1 29//1 50//1
f 50//38 29//38 31//38
f 23//1 51//1 41//1
f 41//38 51//38 23//38
f 52//1 7//1 42//1
f 42//38 7//38 52//38
f 48//43 43//44 23//43
f 43//44 53//6 31//44
f 54//19 44//19 32//15
f 55//1 44//1 33//1
f 33//38 44//38 55//38
f 38//9 33//9 56//14
f 45//1 7//1 57//1
f 57//38 7//38 45//38
f 58//1 46//1 35//1
f 35//38 46//38 58//38
f 23//1 39//1 36//1
f 36//38 39//38 23//38
f 23//1 36//1 47//1
f 47//38 36//38 23//38
f 60//16 40//10 49//16
f 61//1 29//1 49//1
f 49//38 29//38 61//38
f 50//1 29//1 61//1
f 61//38 29//38 50//38
f 50//6 31//44 53//6
f 23//1 62//1 51//1
f 51//38 62//38 23//38
f 57//1 7//1 52//1
f 52//38 7//38 57//38
f 44//19 54//19 63//21
f 55//1 63//1 44//1
f 44//38 63//38 55//38
f 55//14 56//14 33//9
f 45//1 57//1 64//1
f 64//38 57//38 45//38
f 23//1 59//1 46//1
f 46//38 59//38 23//38
f 66//1 46//1 58//1
f 58//38 46//38 66//38
f 23//1 47//1 59//1
f 59//38 47//38 23//38
f 49//16 67//45 60//16
f 61//1 49//1 68//1
f 68//38 49//38 61//38
f 61//13 50//6 69//13
f 53//6 69//13 50//6
f 23//1 70//1 62//1
f 62//38 70//38 23//38
f 71//21 63//21 54//19
f 72//1 63//1 55//1
f 55//38 63//38 72//38
f 56//14 55//14 73//46
f 45//1 64//1 65//1
f 65//38 64//38 45//38
f 23//1 46//1 74//1
f 74//38 46//38 23//38
f 74//1 46//1 66//1
f 66//38 46//38 74//38
f 75//45 60//16 67//45
f 68//1 49//1 67//1
f 67//38 49//38 68//38
f 68//17 61//13 76//17
f 69//13 76//17 61//13
f 23//1 77//1 70//1
f 70//38 77//38 23//38
f 71//21 78//24 63//21
f 72//1 79//1 63//1
f 63//38 79//38 72//38
f 72//46 73//46 55//14
f 23//1 74//1 81//1
f 81//38 74//38 23//38
f 67//45 82//47 75//45
f 68//1 67//1 83//1
f 83//38 67//38 68//38
f 68//17 76//17 83//22
f 23//1 84//1 77//1
f 77//38 84//38 23//38
f 79//24 63//21 78//24
f 72//1 85//1 79//1
f 79//38 85//38 72//38
f 72//46 86//48 73//46
f 23//1 81//1 80//1
f 80//38 81//38 23//38
f 87//47 75//45 82//47
f 83//1 67//1 82//1
f 82//38 67//38 83//38
f 88//22 83//22 76//17
f 23//1 80//1 84//1
f 84//38 80//38 23//38
f 78//24 89//28 79//24
f 72//1 90//1 85//1
f 85//38 90//38 72//38
f 85//28 79//24 89//28
f 91//48 73//46 86//48
f 86//1 90//1 72//1
f 72//38 90//38 86//38
f 87//47 82//47 92//49
f 83//1 82//1 93//1
f 93//38 82//38 83//38
f 83//22 88//22 93//26
f 90//50 85//28 94//50
f 89//28 94//50 85//28
f 86//48 95//51 91//48
f 86//1 96//1 90//1
f 90//38 96//38 86//38
f 97//49 92//49 82//47
f 93//1 82//1 97//1
f 97//38 82//38 93//38
f 98//26 93//26 88//22
f 94//50 99//52 90//50
f 100//51 91//48 95//51
f 95//1 96//1 86//1
f 86//38 96//38 95//38
f 96//52 90//50 99//52
f 92//49 97//49 101//53
f 93//1 97//1 102//1
f 102//38 97//38 93//38
f 93//26 98//26 102//54
f 95//51 103//55 100//51
f 96//1 95//1 103//1
f 103//38 95//38 96//38
f 99//52 104//55 96//52
f 105//53 101//53 97//49
f 102//1 97//1 105//1
f 105//38 97//38 102//38
f 106//54 102//54 98//26
f 104//55 100//51 103//55
f 103//55 96//52 104//55
f 101//53 105//53 107//56
f 102//1 105//1 108//1
f 108//38 105//38 102//38
f 102//54 106//54 108//57
f 109//56 107//56 105//53
f 108//1 105//1 110//1
f 110//38 105//38 108//38
f 111//57 108//57 106//54
f 107//56 109//56 112//58
f 110//1 105//1 109//1
f 109//38 105//38 110//38
f 108//57 111//57 110//58
f 110//58 112//58 109//56
f 112//58 110//58 111//57
