# SSTK version 0.8.0
# 62
mtllib original-62.mtl
o mesh61/mesh61-geometry#mesh61-geometry
v 0.484114 -0.206333 -0.069134
v 0.485033 -0.206333 -0.073260
v 0.485219 -0.206333 -0.068988
v 0.485033 -0.206333 -0.078835
v 0.485405 -0.206333 -0.073260
v 0.485219 -0.206333 -0.068613
v 0.483083 -0.206333 -0.069561
v 0.485033 -0.206333 -0.076977
v 0.485405 -0.206333 -0.078835
v 0.486325 -0.206333 -0.069134
v 0.484016 -0.206333 -0.068772
v 0.483083 -0.206333 -0.076959
v 0.487355 -0.206333 -0.076959
v 0.510348 -0.206333 -0.057325
v 0.486422 -0.206333 -0.068772
v 0.482896 -0.206333 -0.077284
v 0.482199 -0.206333 -0.070239
v 0.482896 -0.206333 -0.069236
v 0.509380 -0.206333 -0.089252
v 0.487542 -0.206333 -0.077284
v 0.487355 -0.206333 -0.069561
v 0.461058 -0.206333 -0.089252
v 0.482199 -0.206333 -0.076280
v 0.488239 -0.206333 -0.076280
v 0.461058 -0.206333 -0.057212
v 0.487542 -0.206333 -0.069236
v 0.481934 -0.206333 -0.076545
v 0.481520 -0.206333 -0.071124
v 0.481934 -0.206333 -0.069974
v 0.461058 -0.211908 -0.089252
v 0.488504 -0.206333 -0.076545
v 0.488239 -0.206333 -0.070239
v 0.510348 -0.211908 -0.057325
v 0.488504 -0.206333 -0.069974
v 0.481195 -0.206333 -0.075583
v 0.481520 -0.206333 -0.075395
v 0.509380 -0.211908 -0.089252
v 0.459626 -0.206333 -0.088987
v 0.489243 -0.206333 -0.075583
v 0.488918 -0.206333 -0.075395
v 0.461058 -0.211908 -0.057212
v 0.510812 -0.211908 -0.057477
v 0.489243 -0.206333 -0.070937
v 0.480731 -0.206333 -0.074462
v 0.481093 -0.206333 -0.072154
v 0.481195 -0.206333 -0.070937
v 0.510348 -0.206333 -0.089138
v 0.459626 -0.211908 -0.088987
v 0.460090 -0.206333 -0.057326
v 0.489707 -0.206333 -0.074462
v 0.488918 -0.206333 -0.071124
v 0.460090 -0.211908 -0.057326
v 0.510812 -0.206333 -0.057477
v 0.489707 -0.206333 -0.072057
v 0.480573 -0.206333 -0.073260
v 0.480731 -0.206333 -0.072057
v 0.481093 -0.206333 -0.074365
v 0.510348 -0.211908 -0.089138
v 0.459186 -0.206333 -0.088774
v 0.459626 -0.206333 -0.057478
v 0.489865 -0.206333 -0.073260
v 0.489345 -0.206333 -0.074365
v 0.511251 -0.211908 -0.057690
v 0.489345 -0.206333 -0.072154
v 0.480948 -0.206333 -0.073260
v 0.510812 -0.206333 -0.088986
v 0.459186 -0.211908 -0.088774
v 0.459626 -0.211908 -0.057478
v 0.489490 -0.206333 -0.073260
v 0.511251 -0.206333 -0.057690
v 0.510812 -0.211908 -0.088986
v 0.458779 -0.206333 -0.088504
v 0.459186 -0.206333 -0.057691
v 0.459186 -0.211908 -0.057691
v 0.511659 -0.211908 -0.057960
v 0.511252 -0.206333 -0.088773
v 0.458779 -0.211908 -0.088504
v 0.511659 -0.206333 -0.057960
v 0.511252 -0.211908 -0.088773
v 0.458411 -0.206333 -0.088182
v 0.458779 -0.206333 -0.057961
v 0.458779 -0.211908 -0.057961
v 0.512026 -0.211908 -0.058282
v 0.511659 -0.206333 -0.088503
v 0.458411 -0.211908 -0.088182
v 0.512026 -0.206333 -0.058282
v 0.511659 -0.211908 -0.088503
v 0.458090 -0.211908 -0.087815
v 0.458090 -0.206333 -0.087815
v 0.457820 -0.206333 -0.059057
v 0.512348 -0.206333 -0.058649
v 0.512027 -0.206333 -0.088182
v 0.457820 -0.206333 -0.087407
v 0.457820 -0.211908 -0.059057
v 0.512348 -0.211908 -0.058649
v 0.512027 -0.211908 -0.088182
v 0.457820 -0.211908 -0.087407
v 0.457607 -0.206333 -0.059497
v 0.457607 -0.206333 -0.086968
v 0.512618 -0.206333 -0.059057
v 0.512348 -0.206333 -0.087814
v 0.512348 -0.211908 -0.087814
v 0.457607 -0.211908 -0.086968
v 0.457607 -0.211908 -0.059497
v 0.512618 -0.211908 -0.059057
v 0.457454 -0.206333 -0.059961
v 0.457341 -0.211908 -0.085535
v 0.512831 -0.206333 -0.059496
v 0.512618 -0.206333 -0.087407
v 0.512618 -0.211908 -0.087407
v 0.457454 -0.211908 -0.059961
v 0.457341 -0.206333 -0.085535
v 0.512831 -0.211908 -0.059496
v 0.512983 -0.206333 -0.059960
v 0.512831 -0.206333 -0.086967
v 0.512831 -0.211908 -0.086967
v 0.512983 -0.211908 -0.059960
v 0.513097 -0.206333 -0.085535
v 0.513097 -0.211908 -0.085535
v 0.513040 -0.211908 -0.072747
vn 0 -1 0
vn 0.09162000390136309 0 0.9957940424029028
vn -0.0583079791180214 0 0.9982986424768754
vn -0.15909601842451318 0 -0.9872631143324796
vn 0.05715900501553144 0 -0.9983650876035453
vn 0.3119660789578447 0 0.9500932404662542
vn -0.3747590916351674 0 -0.9271222266976368
vn -0.215281030390687 0 0.9765521378574337
vn 0.215281030390687 0 -0.9765521378574337
vn 0.49504395956481106 0 0.8688679290308705
vn -0.49504395956481106 0 -0.8688679290308705
vn -0.3747861214087981 0 0.927111300329874
vn 0.3747861214087981 0 -0.927111300329874
vn 0.606486711917364 0 0.7950936223286313
vn 0.4950692845733326 0 -0.8688534994301679
vn -0.606486711917364 0 -0.7950936223286313
vn -0.4950692845733326 0 0.8688534994301679
vn 0.7070962811044147 0 0.7071172811127633
vn 0.6582848984312559 0 -0.7527688838530395
vn -0.7070962811044147 0 -0.7071172811127633
vn -0.6065099315019852 0 0.795075910205722
vn 0.795075910205722 0 0.6065099315019852
vn 0.833844841558655 0 -0.5519988951130439
vn -0.795075910205722 0 -0.6065099315019852
vn -0.7071172811127633 0 0.7070962811044147
vn 0.8688534994301679 0 0.4950692845733326
vn 0.9271222266976368 0 -0.3747590916351674
vn -0.8688534994301679 0 -0.4950692845733326
vn -0.7950936223286313 0 0.606486711917364
vn 0.9500840650370568 0 0.3119940213572394
vn 0.9870928554649392 0 -0.16014897655018784
vn 0.9959921212396383 0 0.08944101088743132
vn -0.927111300329874 0 -0.3747861214087981
vn -0.8688679290308705 0 0.49504395956481106
vn -0.9870881424230101 0 -0.1601780231114479
vn -0.9500932404662542 0 0.3119660789578447
vn -0.9959948172618596 0 0.08941098359550011
vn -0.9999900942485709 0 -0.004451000419504584
vn 0 1 0
vn -0.09162000390136309 0 -0.9957940424029028
vn 0.0583079791180214 0 -0.9982986424768754
vn 0.15909601842451318 0 0.9872631143324796
vn -0.05715900501553144 0 0.9983650876035453
vn -0.3119660789578447 0 -0.9500932404662542
vn 0.3747590916351674 0 0.9271222266976368
vn -0.6582848984312559 0 0.7527688838530395
vn 0.6065099315019852 0 -0.795075910205722
vn -0.833844841558655 0 0.5519988951130439
vn 0.7071172811127633 0 -0.7070962811044147
vn -0.9271222266976368 0 0.3747590916351674
vn 0.7950936223286313 0 -0.606486711917364
vn -0.9500840650370568 0 -0.3119940213572394
vn -0.9870928554649392 0 0.16014897655018784
vn -0.9959921212396383 0 -0.08944101088743132
vn 0.927111300329874 0 0.3747861214087981
vn 0.8688679290308705 0 -0.49504395956481106
vn 0.9870881424230101 0 0.1601780231114479
vn 0.9500932404662542 0 -0.3119660789578447
vn 0.9959948172618596 0 -0.08941098359550011
vn 0.9999900942485709 0 0.004451000419504584
usemtl material_0_0
f 1//1 2//1 3//1
f 2//1 1//1 4//1
f 3//1 2//1 5//1
f 6//1 1//1 3//1
f 7//1 4//1 1//1
f 2//1 4//1 8//1
f 3//1 5//1 10//1
f 11//1 1//1 6//1
f 6//1 3//1 10//1
f 12//1 4//1 7//1
f 11//1 7//1 1//1
f 9//1 13//1 5//1
f 5//1 13//1 10//1
f 14//1 11//1 6//1
f 6//1 10//1 15//1
f 16//1 4//1 12//1
f 17//1 12//1 7//1
f 18//1 7//1 11//1
f 4//1 19//1 9//1
f 9//1 20//1 13//1
f 13//1 21//1 10//1
f 14//1 18//1 11//1
f 14//1 6//1 15//1
f 15//1 10//1 21//1
f 16//1 22//1 4//1
f 23//1 16//1 12//1
f 17//1 23//1 12//1
f 18//1 17//1 7//1
f 4//1 22//1 19//1
f 9//1 19//1 20//1
f 20//1 24//1 13//1
f 21//1 13//1 24//1
f 25//1 18//1 14//1
f 14//1 15//1 26//1
f 15//1 21//1 26//1
f 27//1 22//1 16//1
f 23//1 27//1 16//1
f 28//1 23//1 17//1
f 29//1 17//1 18//1
f 30//2 19//3 22//2
f 20//1 19//1 31//1
f 24//1 20//1 31//1
f 21//1 24//1 32//1
f 25//1 29//1 18//1
f 33//4 25//5 14//4
f 14//1 26//1 34//1
f 26//1 21//1 32//1
f 35//1 22//1 27//1
f 36//1 27//1 23//1
f 28//1 36//1 23//1
f 29//1 28//1 17//1
f 19//3 30//2 37//3
f 38//6 30//2 22//2
f 31//1 19//1 39//1
f 24//1 31//1 40//1
f 32//1 24//1 40//1
f 25//1 22//1 29//1
f 25//5 33//4 41//5
f 14//4 42//7 33//4
f 26//1 32//1 34//1
f 14//1 34//1 43//1
f 44//1 22//1 35//1
f 36//1 35//1 27//1
f 45//1 36//1 28//1
f 46//1 28//1 29//1
f 37//3 47//8 19//3
f 30//2 38//6 48//6
f 49//1 38//1 22//1
f 39//1 19//1 50//1
f 40//1 31//1 39//1
f 32//1 40//1 51//1
f 49//1 22//1 25//1
f 29//1 22//1 46//1
f 52//9 25//5 41//5
f 42//7 14//4 53//7
f 34//1 32//1 51//1
f 34//1 51//1 43//1
f 14//1 43//1 54//1
f 22//1 44//1 55//1
f 56//1 44//1 35//1
f 57//1 35//1 36//1
f 45//1 57//1 36//1
f 46//1 45//1 28//1
f 47//8 37//3 58//8
f 14//1 19//1 47//1
f 59//10 48//6 38//6
f 60//1 38//1 49//1
f 50//1 19//1 61//1
f 62//1 39//1 50//1
f 40//1 39//1 62//1
f 51//1 40//1 62//1
f 25//5 52//9 49//9
f 46//1 22//1 56//1
f 14//1 47//1 53//1
f 53//7 63//11 42//7
f 43//1 51//1 64//1
f 43//1 64//1 54//1
f 14//1 54//1 61//1
f 44//1 56//1 55//1
f 56//1 22//1 55//1
f 56//1 35//1 65//1
f 65//1 35//1 57//1
f 57//1 45//1 65//1
f 46//1 65//1 45//1
f 58//8 66//12 47//8
f 14//1 61//1 19//1
f 48//6 59//10 67//10
f 60//1 59//1 38//1
f 49//9 68//13 60//13
f 54//1 50//1 61//1
f 62//1 50//1 69//1
f 51//1 62//1 64//1
f 68//13 49//9 52//9
f 65//1 46//1 56//1
f 53//1 47//1 66//1
f 63//11 53//7 70//11
f 54//1 64//1 69//1
f 66//12 58//8 71//12
f 72//14 67//10 59//10
f 73//1 59//1 60//1
f 74//15 60//13 68//13
f 54//1 69//1 50//1
f 64//1 62//1 69//1
f 53//1 66//1 70//1
f 70//11 75//16 63//11
f 71//12 76//17 66//12
f 67//10 72//14 77//14
f 73//1 72//1 59//1
f 60//13 74//15 73//15
f 70//1 66//1 76//1
f 75//16 70//11 78//16
f 76//17 71//12 79//17
f 80//18 77//14 72//14
f 81//1 72//1 73//1
f 82//19 73//15 74//15
f 70//1 76//1 78//1
f 78//16 83//20 75//16
f 79//17 84//21 76//17
f 77//14 80//18 85//18
f 81//1 80//1 72//1
f 73//15 82//19 81//19
f 78//1 76//1 84//1
f 83//20 78//16 86//20
f 84//21 79//17 87//21
f 80//18 88//22 85//18
f 81//1 89//1 80//1
f 82//19 90//23 81//19
f 78//1 84//1 86//1
f 91//24 83//20 86//20
f 87//21 92//25 84//21
f 88//22 80//18 89//22
f 81//1 93//1 89//1
f 90//23 82//19 94//23
f 90//1 93//1 81//1
f 86//1 84//1 92//1
f 83//20 91//24 95//24
f 86//1 92//1 91//1
f 92//25 87//21 96//25
f 89//22 97//26 88//22
f 97//26 89//22 93//26
f 94//23 98//27 90//23
f 90//1 99//1 93//1
f 100//28 95//24 91//24
f 91//1 92//1 101//1
f 102//29 92//25 96//25
f 93//26 103//30 97//26
f 98//27 94//23 104//27
f 98//1 99//1 90//1
f 103//30 93//26 99//30
f 95//24 100//28 105//28
f 91//1 101//1 100//1
f 92//25 102//29 101//29
f 104//27 106//31 98//27
f 106//1 99//1 98//1
f 99//30 107//32 103//30
f 108//33 105//28 100//28
f 100//1 101//1 109//1
f 110//34 101//29 102//29
f 106//31 104//27 111//31
f 99//1 106//1 112//1
f 107//32 99//30 112//32
f 105//28 108//33 113//33
f 100//1 109//1 108//1
f 101//29 110//34 109//34
f 111//31 112//32 106//31
f 112//32 111//31 107//32
f 114//35 113//33 108//33
f 108//1 109//1 115//1
f 116//36 109//34 110//34
f 113//33 114//35 117//35
f 108//1 115//1 114//1
f 109//34 116//36 115//36
f 118//37 117//35 114//35
f 114//1 115//1 118//1
f 119//37 115//36 116//36
f 117//35 118//37 120//38
f 115//36 119//37 118//37
f 120//38 118//37 119//37
usemtl material_1_0
f 3//39 2//39 1//39
f 4//39 1//39 2//39
f 5//39 2//39 3//39
f 1//39 4//39 7//39
f 8//39 4//39 2//39
f 10//39 5//39 3//39
f 7//39 4//39 12//39
f 5//39 13//39 9//39
f 10//39 13//39 5//39
f 6//39 11//39 14//39
f 12//39 4//39 16//39
f 7//39 12//39 17//39
f 9//39 19//39 4//39
f 13//39 20//39 9//39
f 10//39 21//39 13//39
f 11//39 18//39 14//39
f 15//39 6//39 14//39
f 4//39 22//39 16//39
f 12//39 23//39 17//39
f 19//39 22//39 4//39
f 20//39 19//39 9//39
f 24//39 13//39 21//39
f 14//39 18//39 25//39
f 26//39 15//39 14//39
f 16//39 22//39 27//39
f 17//39 23//39 28//39
f 22//40 19//41 30//40
f 31//39 19//39 20//39
f 32//39 24//39 21//39
f 18//39 29//39 25//39
f 14//42 25//43 33//42
f 34//39 26//39 14//39
f 27//39 22//39 35//39
f 23//39 36//39 28//39
f 37//41 30//40 19//41
f 22//40 30//40 38//44
f 39//39 19//39 31//39
f 40//39 24//39 32//39
f 29//39 22//39 25//39
f 41//43 33//42 25//43
f 33//42 42//45 14//42
f 43//39 34//39 14//39
f 35//39 22//39 44//39
f 28//39 36//39 45//39
f 19//41 47//9 37//41
f 48//44 38//44 30//40
f 22//39 38//39 49//39
f 50//39 19//39 39//39
f 51//39 40//39 32//39
f 25//39 22//39 49//39
f 46//39 22//39 29//39
f 41//43 25//43 52//8
f 53//45 14//42 42//45
f 54//39 43//39 14//39
f 55//39 44//39 22//39
f 36//39 57//39 45//39
f 58//9 37//41 47//9
f 47//39 19//39 14//39
f 38//44 48//44 59//11
f 49//39 38//39 60//39
f 61//39 19//39 50//39
f 62//39 40//39 51//39
f 49//8 52//8 25//43
f 56//39 22//39 46//39
f 53//39 47//39 14//39
f 42//45 63//10 53//45
f 61//39 54//39 14//39
f 55//39 22//39 56//39
f 65//39 45//39 57//39
f 47//9 66//13 58//9
f 19//39 61//39 14//39
f 67//11 59//11 48//44
f 38//39 59//39 60//39
f 60//12 68//12 49//8
f 64//39 62//39 51//39
f 52//8 49//8 68//12
f 66//39 47//39 53//39
f 70//10 53//45 63//10
f 71//13 58//9 66//13
f 59//11 67//11 72//16
f 60//39 59//39 73//39
f 68//12 60//12 74//17
f 69//39 62//39 64//39
f 70//39 66//39 53//39
f 63//10 75//14 70//10
f 66//13 76//15 71//13
f 77//16 72//16 67//11
f 59//39 72//39 73//39
f 73//17 74//17 60//12
f 76//39 66//39 70//39
f 78//14 70//10 75//14
f 79//15 71//13 76//15
f 72//16 77//16 80//20
f 73//39 72//39 81//39
f 74//17 73//17 82//46
f 78//39 76//39 70//39
f 75//14 83//18 78//14
f 76//15 84//47 79//15
f 85//20 80//20 77//16
f 72//39 80//39 81//39
f 81//46 82//46 73//17
f 84//39 76//39 78//39
f 86//18 78//14 83//18
f 87//47 79//15 84//47
f 85//20 88//24 80//20
f 80//39 89//39 81//39
f 81//46 90//48 82//46
f 86//39 84//39 78//39
f 86//18 83//18 91//22
f 84//47 92//49 87//47
f 89//24 80//20 88//24
f 89//39 93//39 81//39
f 94//48 82//46 90//48
f 81//39 93//39 90//39
f 92//39 84//39 86//39
f 95//22 91//22 83//18
f 91//39 92//39 86//39
f 96//49 87//47 92//49
f 88//24 97//28 89//24
f 93//28 89//24 97//28
f 90//48 98//50 94//48
f 93//39 99//39 90//39
f 91//22 95//22 100//26
f 101//39 92//39 91//39
f 96//49 92//49 102//51
f 97//28 103//52 93//28
f 104//50 94//48 98//50
f 90//39 99//39 98//39
f 99//52 93//28 103//52
f 105//26 100//26 95//22
f 100//39 101//39 91//39
f 101//51 102//51 92//49
f 98//50 106//53 104//50
f 98//39 99//39 106//39
f 103//52 107//54 99//52
f 100//26 105//26 108//55
f 109//39 101//39 100//39
f 102//51 101//51 110//56
f 111//53 104//50 106//53
f 112//39 106//39 99//39
f 112//54 99//52 107//54
f 113//55 108//55 105//26
f 108//39 109//39 100//39
f 109//56 110//56 101//51
f 106//53 112//54 111//53
f 107//54 111//53 112//54
f 108//55 113//55 114//57
f 115//39 109//39 108//39
f 110//56 109//56 116//58
f 117//57 114//57 113//55
f 114//39 115//39 108//39
f 115//58 116//58 109//56
f 114//57 117//57 118//59
f 118//39 115//39 114//39
f 116//58 115//58 119//59
f 120//60 118//59 117//57
f 118//59 119//59 115//58
f 119//59 118//59 120//60
usemtl material_2_0
f 3//39 1//39 6//39
f 5//39 9//39 2//39
f 6//39 1//39 11//39
f 10//39 3//39 6//39
f 1//39 7//39 11//39
f 4//39 8//39 9//39
f 2//39 9//39 8//39
f 15//39 10//39 6//39
f 11//39 7//39 18//39
f 21//39 10//39 15//39
f 12//39 16//39 23//39
f 7//39 17//39 18//39
f 13//39 24//39 20//39
f 26//39 21//39 15//39
f 16//39 27//39 23//39
f 18//39 17//39 29//39
f 31//39 20//39 24//39
f 32//39 21//39 26//39
f 23//39 27//39 36//39
f 17//39 28//39 29//39
f 40//39 31//39 24//39
f 34//39 32//39 26//39
f 27//39 35//39 36//39
f 29//39 28//39 46//39
f 39//39 31//39 40//39
f 51//39 32//39 34//39
f 43//39 51//39 34//39
f 35//39 44//39 56//39
f 36//39 35//39 57//39
f 28//39 45//39 46//39
f 50//39 39//39 62//39
f 62//39 39//39 40//39
f 64//39 51//39 43//39
f 54//39 64//39 43//39
f 55//39 56//39 44//39
f 65//39 35//39 56//39
f 57//39 35//39 65//39
f 45//39 65//39 46//39
f 61//39 50//39 54//39
f 69//39 50//39 62//39
f 56//39 46//39 65//39
f 69//39 64//39 54//39
f 50//39 69//39 54//39
usemtl material_3_0
f 2//1 9//1 5//1
f 9//1 8//1 4//1
f 8//1 9//1 2//1
