# SSTK version 0.8.0
# 53
mtllib original-53.mtl
o pSphere23/ID462#ID462
v 0.094825 0.032388 0.405709
v 0.088771 0.018032 0.413400
v 0.088533 0.017717 0.405268
v 0.094585 0.031587 0.413807
v 0.094585 0.031587 0.413807
v 0.094825 0.032388 0.405709
v 0.088771 0.018032 0.413400
v 0.088533 0.017717 0.405268
v 0.089264 0.045156 0.416100
v 0.089066 0.047076 0.408191
v 0.089066 0.047076 0.408191
v 0.089264 0.045156 0.416100
v 0.086800 0.020536 0.420892
v 0.091249 0.030911 0.421203
v 0.091249 0.030911 0.421203
v 0.086800 0.020536 0.420892
v 0.073875 0.011655 0.407127
v 0.075229 0.012432 0.415118
v 0.073875 0.011655 0.407127
v 0.075229 0.012432 0.415118
v 0.074629 0.053175 0.411260
v 0.075926 0.050791 0.418936
v 0.074629 0.053175 0.411260
v 0.075926 0.050791 0.418936
v 0.087177 0.041297 0.422958
v 0.087177 0.041297 0.422958
v 0.085326 0.030464 0.426771
v 0.082918 0.024850 0.426602
v 0.082918 0.024850 0.426602
v 0.085326 0.030464 0.426771
v 0.076435 0.016250 0.422206
v 0.076435 0.016250 0.422206
v 0.059438 0.017755 0.410197
v 0.061891 0.018067 0.417954
v 0.059438 0.017755 0.410197
v 0.061891 0.018067 0.417954
v 0.059971 0.047114 0.413120
v 0.062384 0.045191 0.420654
v 0.059971 0.047114 0.413120
v 0.062384 0.045191 0.420654
v 0.076969 0.045610 0.425129
v 0.076969 0.045610 0.425129
v 0.083122 0.036085 0.427721
v 0.083122 0.036085 0.427721
v 0.077717 0.030315 0.429663
v 0.077717 0.030315 0.429663
v 0.077309 0.022530 0.427314
v 0.077309 0.022530 0.427314
v 0.066227 0.020563 0.424377
v 0.066227 0.020563 0.424377
v 0.053679 0.032442 0.412679
v 0.056571 0.031636 0.420247
v 0.056571 0.031636 0.420247
v 0.053679 0.032442 0.412679
v 0.066604 0.041324 0.426443
v 0.066604 0.041324 0.426443
v 0.077597 0.038419 0.428896
v 0.077597 0.038419 0.428896
v 0.071784 0.024864 0.428489
v 0.071784 0.024864 0.428489
v 0.062154 0.030949 0.426132
v 0.062154 0.030949 0.426132
v 0.071988 0.036100 0.429607
v 0.071988 0.036100 0.429607
v 0.069580 0.030485 0.429438
v 0.069580 0.030485 0.429438
vt -0.08586432 0.01808659
vt 0.03340801 0.2303137
vt -0.0497037 0.2673762
vt 4.440892e-16 0
vt -0.0101735 -0.2352079
vt 8.881784e-16 1.776357e-15
vt -0.09687592 -0.2365004
vt -4.440892e-16 1.776357e-15
vt 0.1122762 0.1762746
vt 0.08670678 1.776357e-15
vt 0.01079985 0.5058105
vt 0.08930612 0.4505979
vt 0.01161735 -0.2327608
vt -0.08249317 -0.4907088
vt 0.02490566 -0.4676189
vt 4.440892e-16 -8.881784e-16
vt 0.09559843 -0.1781472
vt 0.08670678 -2.664535e-15
vt 0.1728936 2.802544e-7
vt 0.08670678 -3.552714e-15
vt 0.1867315 0.09539916
vt 0.1084489 0.4347912
vt 0.16971 0.332775
vt 0.09429723 0.7280732
vt 0.1855904 0.6401357
vt 0.06535354 -0.4445252
vt -0.04303632 -0.7388711
vt 0.1018066 -0.6737972
vt 0.1122764 -0.1762743
vt 0.1534041 -0.3383515
vt 0.1768334 -0.02715984
vt 0.1906715 -0.1225588
vt 0.2808308 -0.03919274
vt 0.1867315 0.109622
vt 0.1939637 0.3071966
vt 0.2309406 0.1804768
vt 0.2159849 0.5939212
vt 0.276268 0.4289891
vt 0.2870616 1.065476
vt 0.3940755 0.9056402
vt 0.1525453 -0.6156186
vt 0.1463356 -1.294686
vt 0.327502 -1.129124
vt 0.1843616 -0.3206764
vt 0.2510954 -0.4516259
vt 0.2017783 -0.1448082
vt 0.2407906 -0.2229582
vt 0.2385297 0.1684409
vt 0.2995786 0.1948158
vt 0.3067673 0.355931
vt 0.359797 0.5370822
vt 0.4168365 0.3124281
vt 0.2899291 -0.4070978
vt 0.309283 -0.6323617
vt 0.409891 -0.4199123
vt 0.3141889 -0.2830449
vt 0.2570563 -0.2362738
vt 0.3030158 0.1625729
vt 0.3625849 0.1390293
vt 0.3686061 -0.09909254
vt 0.303683 -0.09215722
vt -2.568514 3.164566
vt -2.518458 3.169874
vt -2.565538 3.074822
vt -2.515237 3.072737
vt -2.486603 2.863537
vt -2.468896 2.767922
vt -2.53532 2.851039
vt -2.518962 2.762703
vt -2.210873 3.532293
vt -2.16073 3.536734
vt -2.219544 3.464102
vt -2.172059 3.447638
vt -2.471345 1.819372
vt -2.488567 1.723672
vt -2.521437 1.824346
vt -2.537347 1.73593
vt -2.042726 0.1711647
vt -2.086114 0.1460336
vt -2.099032 0.25101
vt -2.138135 0.219801
vt -2.099243 2.764526
vt -2.072233 2.678759
vt -2.143064 2.740132
vt -2.122391 2.674489
vt -1.50004 3.70047
vt -1.490099 3.736352
vt -1.458206 3.672904
vt -1.439837 3.739207
vt -1.476882 3.496459
vt -1.542866 3.434446
vt -1.518599 3.524197
vt -1.569101 3.476734
vt 2.487076 1.73607
vt 2.470003 1.831796
vt 2.535876 1.748255
vt 2.520102 1.836694
vt 2.089155 0.2313961
vt 2.128155 0.2000619
vt 2.032586 0.1517315
vt 2.075891 0.1264616
vt -1.182703 0.5816739
vt -1.219029 0.5473689
vt -1.258427 0.6317626
vt -1.276986 0.5857051
vt -1.446726 2.905224
vt -1.408319 2.93726
vt -1.432734 2.870675
vt -1.382466 2.87342
vt -0.4868372 3.631133
vt -0.5003653 3.596404
vt -0.5371743 3.630207
vt -0.7690494 4.054689
vt -0.7359782 4.072691
vt -0.7599665 4.005955
vt -0.698859 4.039218
vt 1.541361 3.437582
vt 1.475615 3.499841
vt 1.567758 3.479772
vt 1.517439 3.527423
vt 2.567092 3.17044
vt 2.564076 3.080698
vt 2.517038 3.17577
vt 2.513774 3.078634
vt 2.484219 2.855739
vt 2.532929 2.84321
vt 2.46645 2.760136
vt 2.516512 2.754884
vt 1.244488 0.6214464
vt 1.262891 0.5753286
vt 1.168595 0.5716052
vt 1.204805 0.5371817
vt -0.6851359 1.735252
vt -0.6791113 1.784443
vt -0.6510038 1.719283
vt -0.6160435 1.754937
vt -0.4937346 3.299798
vt -0.4789086 3.265587
vt -0.5292459 3.264676
vt -0.2309412 3.848912
vt -0.1950779 3.814138
vt -0.2297674 3.799379
vt 0.694316 4.040241
vt 0.7315422 4.073598
vt 0.7553165 4.006789
vt 0.7645555 4.055494
vt 2.206515 3.534834
vt 2.215083 3.46663
vt 2.156378 3.539347
vt 2.167574 3.450234
vt 2.093056 2.757358
vt 2.136838 2.732898
vt 2.065911 2.671633
vt 2.116063 2.667286
vt 0.6033858 1.751178
vt 0.6665377 1.780509
vt 0.6382442 1.715428
vt 0.6724218 1.731302
vt -0.1880733 2.986625
vt -0.2234274 2.95135
vt -0.2229738 3.000894
vt 0.2232711 3.848752
vt 0.2219618 3.799222
vt 0.1873128 3.814074
vt 1.433291 3.739165
vt 1.483547 3.7362
vt 1.45151 3.672822
vt 1.493407 3.700295
vt 1.373554 2.869071
vt 1.399549 2.932856
vt 1.423816 2.866218
vt 1.437885 2.900738
vt 0.2126619 3.000202
vt 0.2129853 2.950656
vt 0.1777239 2.986021
vt 0.5287749 3.629486
vt 0.4918776 3.595776
vt 0.4784403 3.630539
vt 0.4843281 3.298649
vt 0.519749 3.263439
vt 0.469414 3.264475
vn 0.9994013142458342 -0.020905439786607045 0.02756765624836301
vn 0.6975923748057479 -0.6922547627311019 0.18479237562459866
vn 0.7036324399666842 -0.7105310213867045 0.006859815864641481
vn 0.9781374976193797 -0.038125650725942345 0.20443451398338075
vn 0.7213789611540934 0.6167074889171189 0.3150940613813317
vn 0.7287097494057327 0.6694618418571725 0.14423225512428337
vn 0.6128922619906622 -0.5828061661716784 0.5335729077307425
vn 0.8329188388185829 -0.06978442894772484 0.5489775418152761
vn 0.014660600827080405 -0.995441571624862 0.09423982313445632
vn 0.044083778294029694 -0.9625003633728291 0.2676745617321425
vn 0.050126230205562 0.9561626651911932 0.2885139836123259
vn 0.07772225164792133 0.888651109588381 0.45194961779618387
vn 0.6315475847240244 0.44378922535448684 0.6357662870021622
vn 0.56713532649283 -0.0917843396110323 0.8184944449695657
vn 0.43969992049705137 -0.3889175939277207 0.8095721617301077
vn 0.10035701168771019 -0.7947546650416095 0.5985762212113941
vn -0.6639228903185078 -0.708740884393487 0.2385220209965044
vn -0.5995732395853123 -0.6905557251835147 0.404530247063732
vn -0.6388455985414231 0.671251915520962 0.37589515444295135
vn -0.575786136260731 0.6184050949655577 0.5348321828485815
vn 0.12674010473288966 0.6570696647481568 0.7430991868654151
vn 0.4505047318271409 0.20566919658088845 0.8687609960047283
vn 0.16604189248521656 -0.10066930395408745 0.9809667584486883
vn 0.14284800936372433 -0.5116743981327844 0.8472211969233738
vn -0.40445079287456376 -0.5814740382684214 0.705908987733512
vn -0.9346143824607738 -0.018373110385024788 0.3551878163904926
vn -0.856331008781867 -0.035723950475324166 0.5151902587986954
vn -0.38579580651773115 0.4451203965192963 0.8081023624986117
vn 0.1581283453505871 0.3291976039833222 0.9309266157589035
vn -0.14952860177182015 -0.3881456021591103 0.9093867102485642
vn -0.6058219086816196 -0.06790093324453944 0.7926974695467875
vn -0.13872369651067046 0.20644029541750122 0.9685753148074496
vn -0.2661595036191833 -0.09069335925366126 0.9596529754137566
vn -0.9781374976193797 0.038125650725942345 -0.20443451398338075
vn -0.9994013142458342 0.020905439786607045 -0.02756765624836301
vn -0.6975923748057479 0.6922547627311019 -0.18479237562459866
vn -0.7036324399666842 0.7105310213867045 -0.006859815864641481
vn -0.7287097494057327 -0.6694618418571725 -0.14423225512428337
vn -0.7213789611540934 -0.6167074889171189 -0.3150940613813317
vn -0.8329188388185829 0.06978442894772484 -0.5489775418152761
vn -0.6128922619906622 0.5828061661716784 -0.5335729077307425
vn -0.014660600827080405 0.995441571624862 -0.09423982313445632
vn -0.044083778294029694 0.9625003633728291 -0.2676745617321425
vn -0.050126230205562 -0.9561626651911932 -0.2885139836123259
vn -0.07772225164792133 -0.888651109588381 -0.45194961779618387
vn -0.6315475847240244 -0.44378922535448684 -0.6357662870021622
vn -0.43969992049705137 0.3889175939277207 -0.8095721617301077
vn -0.56713532649283 0.0917843396110323 -0.8184944449695657
vn -0.10035701168771019 0.7947546650416095 -0.5985762212113941
vn 0.6639228903185078 0.708740884393487 -0.2385220209965044
vn 0.5995732395853123 0.6905557251835147 -0.404530247063732
vn 0.6388455985414231 -0.671251915520962 -0.37589515444295135
vn 0.575786136260731 -0.6184050949655577 -0.5348321828485815
vn -0.12674010473288966 -0.6570696647481568 -0.7430991868654151
vn -0.4505047318271409 -0.20566919658088845 -0.8687609960047283
vn -0.16604189248521656 0.10066930395408745 -0.9809667584486883
vn -0.14284800936372433 0.5116743981327844 -0.8472211969233738
vn 0.40445079287456376 0.5814740382684214 -0.705908987733512
vn 0.856331008781867 0.035723950475324166 -0.5151902587986954
vn 0.9346143824607738 0.018373110385024788 -0.3551878163904926
vn 0.38579580651773115 -0.4451203965192963 -0.8081023624986117
vn -0.1581283453505871 -0.3291976039833222 -0.9309266157589035
vn 0.14952860177182015 0.3881456021591103 -0.9093867102485642
vn 0.6058219086816196 0.06790093324453944 -0.7926974695467875
vn 0.13872369651067046 -0.20644029541750122 -0.9685753148074496
vn 0.2661595036191833 0.09069335925366126 -0.9596529754137566
usemtl material_0_0
f 1/1/1 2/2/2 3/3/3
f 2/2/2 1/1/1 4/4/4
f 1/1/1 9/5/5 4/6/4
f 9/5/5 1/1/1 10/7/6
f 4/8/4 13/9/7 2/2/2
f 13/9/7 4/8/4 14/10/8
f 17/11/9 2/2/2 18/12/10
f 2/2/2 17/11/9 3/3/3
f 9/13/5 21/14/11 22/15/12
f 21/14/11 9/13/5 10/7/6
f 4/16/4 25/17/13 14/18/8
f 25/17/13 4/16/4 9/13/5
f 27/19/14 13/9/7 14/20/8
f 13/9/7 27/19/14 28/21/15
f 18/22/10 13/9/7 31/23/16
f 13/9/7 18/22/10 2/2/2
f 33/24/17 18/22/10 34/25/18
f 18/22/10 33/24/17 17/11/9
f 22/26/12 37/27/19 38/28/20
f 37/27/19 22/26/12 21/14/11
f 25/29/13 22/26/12 41/30/21
f 22/26/12 25/29/13 9/13/5
f 25/29/13 27/31/14 14/10/8
f 27/31/14 25/29/13 43/32/22
f 45/33/23 28/34/15 27/19/14
f 28/34/15 31/35/16 13/9/7
f 31/35/16 28/34/15 47/36/24
f 34/37/18 31/35/16 49/38/25
f 31/35/16 34/37/18 18/22/10
f 34/37/18 51/39/26 33/24/17
f 51/39/26 34/37/18 52/40/27
f 38/41/20 51/42/26 52/43/27
f 51/42/26 38/41/20 37/27/19
f 41/44/21 38/41/20 55/45/28
f 38/41/20 41/44/21 22/26/12
f 41/44/21 43/46/22 25/29/13
f 43/46/22 41/44/21 57/47/29
f 45/33/23 27/19/14 43/32/22
f 47/48/24 28/34/15 45/33/23
f 59/49/30 31/35/16 47/48/24
f 31/35/16 59/49/30 49/50/25
f 49/50/25 52/51/27 34/37/18
f 52/51/27 49/50/25 61/52/31
f 55/53/28 52/54/27 61/55/31
f 52/54/27 55/53/28 38/41/20
f 41/44/21 63/56/32 57/57/29
f 63/56/32 41/44/21 55/53/28
f 57/47/29 45/33/23 43/32/22
f 59/58/30 47/48/24 45/33/23
f 65/59/33 49/50/25 59/58/30
f 49/50/25 65/59/33 61/52/31
f 55/53/28 65/60/33 63/61/32
f 65/60/33 55/53/28 61/55/31
f 63/56/32 45/33/23 57/47/29
f 65/60/33 59/58/30 45/33/23
f 65/60/33 45/33/23 63/56/32
usemtl material_1_0
f 5/62/34 6/63/35 7/64/36
f 8/65/37 7/64/36 6/63/35
f 11/66/38 6/67/35 12/68/39
f 5/69/34 12/68/39 6/67/35
f 15/70/40 5/71/34 16/72/41
f 7/73/36 16/72/41 5/71/34
f 8/74/37 19/75/42 7/76/36
f 20/77/43 7/76/36 19/75/42
f 11/78/38 12/79/39 23/80/44
f 24/81/45 23/80/44 12/79/39
f 12/82/39 5/83/34 26/84/46
f 15/85/40 26/84/46 5/83/34
f 29/86/47 30/87/48 16/88/41
f 15/89/40 16/88/41 30/87/48
f 7/90/36 20/91/43 16/92/41
f 32/93/49 16/92/41 20/91/43
f 19/94/42 35/95/50 20/96/43
f 36/97/51 20/96/43 35/95/50
f 23/98/44 24/99/45 39/100/52
f 40/101/53 39/100/52 24/99/45
f 12/102/39 26/103/46 24/104/45
f 42/105/54 24/104/45 26/103/46
f 44/106/55 26/107/46 30/108/48
f 15/109/40 30/108/48 26/107/46
f 30/110/48 29/111/47 46/112/56
f 48/113/57 29/114/47 32/115/49
f 16/116/41 32/115/49 29/114/47
f 20/117/43 36/118/51 32/119/49
f 50/120/58 32/119/49 36/118/51
f 53/121/59 36/122/51 54/123/60
f 35/124/50 54/123/60 36/122/51
f 39/125/52 40/126/53 54/127/60
f 53/128/59 54/127/60 40/126/53
f 24/129/45 42/130/54 40/131/53
f 56/132/61 40/131/53 42/130/54
f 58/133/62 42/134/54 44/135/55
f 26/136/46 44/135/55 42/134/54
f 44/137/55 30/138/48 46/139/56
f 46/140/56 29/141/47 48/142/57
f 50/143/58 60/144/63 32/145/49
f 48/146/57 32/145/49 60/144/63
f 62/147/64 50/148/58 53/149/59
f 36/150/51 53/149/59 50/148/58
f 40/151/53 56/152/61 53/153/59
f 62/154/64 53/153/59 56/152/61
f 56/155/61 42/156/54 64/157/65
f 58/158/62 64/157/65 42/156/54
f 44/159/55 46/160/56 58/161/62
f 46/162/56 48/163/57 60/164/63
f 62/165/64 66/166/66 50/167/58
f 60/168/63 50/167/58 66/166/66
f 62/169/64 56/170/61 66/171/66
f 64/172/65 66/171/66 56/170/61
f 58/173/62 46/174/56 64/175/65
f 46/176/56 60/177/63 66/178/66
f 64/179/65 46/180/56 66/181/66
