# SSTK version 0.8.0
# 50
mtllib original-50.mtl
o pSphere20/ID435#ID435
v 0.423765 0.018037 -0.058533
v 0.416452 0.032394 -0.065039
v 0.424521 0.031592 -0.064311
v 0.415633 0.017722 -0.058784
v 0.415633 0.017722 -0.058784
v 0.423765 0.018037 -0.058533
v 0.416452 0.032394 -0.065039
v 0.424521 0.031592 -0.064311
v 0.418582 0.047082 -0.059140
v 0.426489 0.045162 -0.058862
v 0.418582 0.047082 -0.059140
v 0.426489 0.045162 -0.058862
v 0.431124 0.020542 -0.056113
v 0.431703 0.030917 -0.060536
v 0.431124 0.020542 -0.056113
v 0.431703 0.030917 -0.060536
v 0.424663 0.012437 -0.044912
v 0.416605 0.011660 -0.044041
v 0.424663 0.012437 -0.044912
v 0.416605 0.011660 -0.044041
v 0.428516 0.050797 -0.045377
v 0.420776 0.053181 -0.044545
v 0.428516 0.050797 -0.045377
v 0.420776 0.053181 -0.044545
v 0.433209 0.041302 -0.056365
v 0.433209 0.041302 -0.056365
v 0.436590 0.024855 -0.051894
v 0.436903 0.030470 -0.054288
v 0.436903 0.030470 -0.054288
v 0.436590 0.024855 -0.051894
v 0.431811 0.016256 -0.045688
v 0.431811 0.016256 -0.045688
v 0.426690 0.018072 -0.031427
v 0.418800 0.017760 -0.029446
v 0.426690 0.018072 -0.031427
v 0.418800 0.017760 -0.029446
v 0.429415 0.045197 -0.031756
v 0.421749 0.047119 -0.029801
v 0.429415 0.045197 -0.031756
v 0.421749 0.047119 -0.029801
v 0.434760 0.045615 -0.046044
v 0.434760 0.045615 -0.046044
v 0.437718 0.036091 -0.052030
v 0.437718 0.036091 -0.052030
v 0.439331 0.030320 -0.046518
v 0.439331 0.030320 -0.046518
v 0.436962 0.022536 -0.046252
v 0.436962 0.022536 -0.046252
v 0.433363 0.020569 -0.035368
v 0.433363 0.020569 -0.035368
v 0.420930 0.032447 -0.023547
v 0.428658 0.031641 -0.025978
v 0.420930 0.032447 -0.023547
v 0.428658 0.031641 -0.025978
v 0.435448 0.041329 -0.035619
v 0.435448 0.041329 -0.035619
v 0.438558 0.038425 -0.046445
v 0.438558 0.038425 -0.046445
v 0.437802 0.024870 -0.040667
v 0.437802 0.024870 -0.040667
v 0.434869 0.030954 -0.031197
v 0.434869 0.030954 -0.031197
v 0.438930 0.036105 -0.040803
v 0.438930 0.036105 -0.040803
v 0.438617 0.030490 -0.038410
v 0.438617 0.030490 -0.038410
vt -0.1578751 -0.4247243
vt -0.2979897 -0.6872138
vt -0.1478858 -0.6599497
vt -0.3088017 -0.4326078
vt -0.09130193 -0.6155289
vt -0.1742391 -1.283168
vt 0.0230285 -1.166118
vt 0.006556885 -0.3049435
vt 0.05750938 -0.4509793
vt -0.1868765 -0.2023535
vt -0.2942196 -0.1784247
vt -0.2003489 -0.4371879
vt 0.1080427 0.5603241
vt 0.2314311 1.00695
vt 0.00329532 0.7235031
vt 0.3188129 0.8221951
vt 0.113815 -0.3621018
vt 0.2869117 -1.062724
vt 0.4032877 -0.7043702
vt 0.07613685 -0.1420756
vt 0.1341845 -0.1730095
vt -0.06829004 -0.1692936
vt -0.04609322 -0.3394887
vt -0.1719952 0.02998878
vt -0.2545684 0.0696677
vt -0.2086281 -0.1992189
vt -0.0159347 0.4308722
vt -0.104134 0.5257156
vt 0.08331686 0.6136045
vt 0.1705872 0.3026788
vt 0.4363041 0.6271867
vt 0.4218277 0.3538527
vt 0.2573827 -0.09649411
vt 0.1392153 -0.1258174
vt 0.3321602 -0.3079193
vt 0.08670686 1.776357e-15
vt 0.02067184 -0.09238511
vt 0.06117881 -0.1657983
vt -0.08654584 0.007919897
vt -0.09793546 -0.1699071
vt -0.1907322 0.3061384
vt -0.1130183 0.2484593
vt -0.03301188 0.451322
vt 0.05390627 0.2833621
vt 0.1487946 0.3824404
vt 0.3255116 0.1685654
vt 0.145017 0.1130789
vt 0.2288616 0.04049754
vt 0.1827823 -0.03556748
vt 0.08670686 3.552714e-15
vt 0.009879983 -0.09590734
vt 2.664535e-15 3.552714e-15
vt -0.04140684 0.17513
vt 0.03289765 0.3147429
vt 0.145277 0.1457294
vt 0.08212978 0.1352752
vt 0.1810404 0.02036288
vt 1.776357e-15 1.776357e-15
vt 0 -8.881784e-16
vt 0.02442917 0.09049335
vt 0.07601219 0.1490682
vt 0 3.552714e-15
vt 0.08670686 5.329071e-15
vt -2.515185 3.072921
vt -2.565487 3.075007
vt -2.518405 3.170058
vt -2.568461 3.16475
vt -2.468821 2.767806
vt -2.518887 2.762587
vt -2.486527 2.86342
vt -2.535245 2.850923
vt -2.171882 3.447774
vt -2.219367 3.464238
vt -2.160553 3.536871
vt -2.210696 3.53243
vt -2.521349 1.824761
vt -2.471257 1.819787
vt -2.537261 1.736346
vt -2.488481 1.724087
vt -2.085914 0.1457221
vt -2.137934 0.2194894
vt -2.042525 0.1708534
vt -2.098831 0.2506984
vt -2.07204 2.678666
vt -2.122198 2.674396
vt -2.09905 2.764433
vt -2.142871 2.740039
vt -1.489822 3.736419
vt -1.439559 3.739274
vt -1.499763 3.700536
vt -1.457928 3.672971
vt -1.518349 3.524403
vt -1.476631 3.496666
vt -1.56885 3.476939
vt -1.542615 3.434651
vt 2.535934 1.748015
vt 2.487135 1.735828
vt 2.520157 1.836454
vt 2.470058 1.831553
vt 2.128414 0.2004167
vt 2.076154 0.1268139
vt 2.089414 0.231749
vt 2.032848 0.152082
vt -1.218708 0.5471831
vt -1.276666 0.5855186
vt -1.182383 0.5814886
vt -1.258108 0.6315763
vt -1.408029 2.937215
vt -1.382174 2.873375
vt -1.446435 2.905179
vt -1.432443 2.87063
vt -0.5000474 3.596409
vt -0.5368568 3.630211
vt -0.4865198 3.631138
vt -0.7356832 4.072773
vt -0.6985633 4.039301
vt -0.7687539 4.054771
vt -0.7596701 4.006037
vt 1.567959 3.479672
vt 1.541563 3.437481
vt 1.517637 3.527321
vt 1.475815 3.499737
vt 2.513827 3.078525
vt 2.517089 3.175662
vt 2.564129 3.080591
vt 2.567142 3.170333
vt 2.466537 2.760314
vt 2.484304 2.855918
vt 2.516599 2.755064
vt 2.533014 2.84339
vt 1.263246 0.5754712
vt 1.205162 0.5373224
vt 1.244841 0.6215884
vt 1.16895 0.5717447
vt -0.6787642 1.784371
vt -0.6156959 1.754866
vt -0.684788 1.73518
vt -0.6506556 1.719212
vt -0.4785835 3.265582
vt -0.5289208 3.264671
vt -0.4934101 3.299793
vt -0.1947497 3.814157
vt -0.2294388 3.799397
vt -0.2306135 3.84893
vt 0.7318262 4.073574
vt 0.76484 4.055471
vt 0.6946009 4.040215
vt 0.7556023 4.006765
vt 2.167745 3.450165
vt 2.156547 3.539278
vt 2.215255 3.466561
vt 2.206684 3.534765
vt 2.066118 2.671758
vt 2.093261 2.757484
vt 2.11627 2.667412
vt 2.137044 2.733024
vt 0.6668929 1.780554
vt 0.6727781 1.731346
vt 0.6037417 1.75122
vt 0.638601 1.715471
vt -0.1877328 2.986611
vt -0.2230862 2.951335
vt -0.2226336 3.00088
vt 0.2222838 3.799229
vt 0.1876345 3.81408
vt 0.2235921 3.848759
vt 1.483812 3.736179
vt 1.493672 3.700275
vt 1.433556 3.739142
vt 1.451776 3.6728
vt 1.399841 2.93291
vt 1.438177 2.900793
vt 1.373847 2.869125
vt 1.424109 2.866273
vt 0.2133246 2.950657
vt 0.1780625 2.986021
vt 0.2130001 3.000203
vt 0.5290933 3.629493
vt 0.4921967 3.595782
vt 0.4787587 3.630544
vt 0.5200764 3.263447
vt 0.4697415 3.264482
vt 0.4846548 3.298657
vn 0.22649553020403979 -0.6922380033110571 -0.6852053134422642
vn 0.08773394567267888 -0.020884469440668046 -0.9959249940195722
vn 0.26299827183703456 -0.038102788315532425 -0.9640436123606211
vn 0.049250418359488 -0.7105160721690025 -0.701955345788426
vn 0.1878698605846366 0.6694783813350065 -0.7186818575760546
vn 0.3579794813226321 0.6167252152790406 -0.7010711089404559
vn 0.5695384193741312 -0.5827877847143943 -0.579641602065022
vn 0.5981665352944046 -0.06976239077449631 -0.798329508966889
vn 0.26985493464090465 -0.9624968511540555 -0.02789490578010592
vn 0.09496223612916949 -0.9954404144893886 -0.008975238745679896
vn 0.4558011360356633 0.8886573794000023 -0.05033275699302414
vn 0.2909999909288873 0.9561663951725443 -0.032631733360787535
vn 0.672658848348943 0.4438080137884206 -0.5920848930981526
vn 0.8345991982316128 -0.38889970943498303 -0.39012971472644214
vn 0.8511799173068958 -0.09176365184548521 -0.5167902674909878
vn 0.6035443272308827 -0.7947466446191431 -0.06412500240962803
vn 0.3676764179010531 -0.6905648189628962 0.6228437063422834
vn 0.19809273448020537 -0.7087516869319691 0.6770748221705211
vn 0.4991603121526395 0.6183990841209897 0.6069773929315659
vn 0.33671164646977403 0.6712429003906163 0.6603470570895332
vn 0.7493779042927883 0.6570799701986123 -0.08172312598976696
vn 0.8943246366180528 0.2056864990034634 -0.3973367695868156
vn 0.9891899705903309 -0.10065560193298956 -0.10663794766877135
vn 0.8542943529127575 -0.5116634957041644 -0.09155121924457263
vn 0.680263354616271 -0.5814757174987181 0.44623733407859145
vn 0.2982282340369876 -0.01838931055234685 0.9543174281551128
vn 0.46265750224262536 -0.035736499197460914 0.885816537576334
vn 0.7833838406279487 0.44512101658178194 0.4337937745521545
vn 0.9387592923295204 0.32920990746168305 -0.10174393295940563
vn 0.8987290377961803 -0.38814051671911215 0.20404179940142825
vn 0.7547553573316969 -0.06790611074479984 0.6524822684967136
vn 0.9584549510665348 0.2064470022907928 0.19683430092641835
vn 0.9418738785986266 -0.09068951525631673 0.3234949901252783
vn -0.049250418359488 0.7105160721690025 0.701955345788426
vn -0.22649553020403979 0.6922380033110571 0.6852053134422642
vn -0.08773394567267888 0.020884469440668046 0.9959249940195722
vn -0.26299827183703456 0.038102788315532425 0.9640436123606211
vn -0.1878698605846366 -0.6694783813350065 0.7186818575760546
vn -0.3579794813226321 -0.6167252152790406 0.7010711089404559
vn -0.5695384193741312 0.5827877847143943 0.579641602065022
vn -0.5981665352944046 0.06976239077449631 0.798329508966889
vn -0.26985493464090465 0.9624968511540555 0.02789490578010592
vn -0.09496223612916949 0.9954404144893886 0.008975238745679896
vn -0.4558011360356633 -0.8886573794000023 0.05033275699302414
vn -0.2909999909288873 -0.9561663951725443 0.032631733360787535
vn -0.672658848348943 -0.4438080137884206 0.5920848930981526
vn -0.8511799173068958 0.09176365184548521 0.5167902674909878
vn -0.8345991982316128 0.38889970943498303 0.39012971472644214
vn -0.6035443272308827 0.7947466446191431 0.06412500240962803
vn -0.3676764179010531 0.6905648189628962 -0.6228437063422834
vn -0.19809273448020537 0.7087516869319691 -0.6770748221705211
vn -0.4991603121526395 -0.6183990841209897 -0.6069773929315659
vn -0.33671164646977403 -0.6712429003906163 -0.6603470570895332
vn -0.7493779042927883 -0.6570799701986123 0.08172312598976696
vn -0.8943246366180528 -0.2056864990034634 0.3973367695868156
vn -0.9891899705903309 0.10065560193298956 0.10663794766877135
vn -0.8542943529127575 0.5116634957041644 0.09155121924457263
vn -0.680263354616271 0.5814757174987181 -0.44623733407859145
vn -0.2982282340369876 0.01838931055234685 -0.9543174281551128
vn -0.46265750224262536 0.035736499197460914 -0.885816537576334
vn -0.7833838406279487 -0.44512101658178194 -0.4337937745521545
vn -0.9387592923295204 -0.32920990746168305 0.10174393295940563
vn -0.8987290377961803 0.38814051671911215 -0.20404179940142825
vn -0.7547553573316969 0.06790611074479984 -0.6524822684967136
vn -0.9584549510665348 -0.2064470022907928 -0.19683430092641835
vn -0.9418738785986266 0.09068951525631673 -0.3234949901252783
usemtl material_0_0
f 1/1/1 2/2/2 3/3/3
f 2/2/2 1/1/1 4/4/4
f 3/5/3 9/6/5 10/7/6
f 9/6/5 3/5/3 2/2/2
f 13/8/7 3/5/3 14/9/8
f 3/5/3 13/8/7 1/1/1
f 4/4/4 17/10/9 18/11/10
f 17/10/9 4/4/4 1/12/1
f 21/13/11 9/14/5 22/15/12
f 9/14/5 21/13/11 10/16/6
f 14/17/8 10/18/6 25/19/13
f 10/18/6 14/17/8 3/5/3
f 14/17/8 27/20/14 13/8/7
f 27/20/14 14/17/8 28/21/15
f 1/1/1 31/22/16 17/10/9
f 31/22/16 1/1/1 13/23/7
f 18/11/10 33/24/17 34/25/18
f 33/24/17 18/11/10 17/26/9
f 37/27/19 22/15/12 38/28/20
f 22/15/12 37/27/19 21/29/11
f 41/30/21 10/31/6 21/13/11
f 10/31/6 41/30/21 25/32/13
f 14/17/8 43/33/22 28/34/15
f 43/33/22 14/17/8 25/35/13
f 28/34/15 45/36/23 27/20/14
f 13/8/7 47/37/24 31/22/16
f 47/37/24 13/8/7 27/38/14
f 17/10/9 49/39/25 33/24/17
f 49/39/25 17/10/9 31/40/16
f 51/41/26 33/24/17 52/42/27
f 33/24/17 51/41/26 34/25/18
f 38/28/20 52/42/27 37/43/19
f 52/42/27 38/28/20 51/41/26
f 55/44/28 21/13/11 37/27/19
f 21/13/11 55/44/28 41/45/21
f 25/46/13 57/47/29 43/48/22
f 57/47/29 25/46/13 41/30/21
f 43/49/22 45/36/23 28/34/15
f 45/50/23 47/37/24 27/20/14
f 47/51/24 49/39/25 31/22/16
f 49/39/25 47/51/24 59/52/30
f 52/42/27 49/39/25 61/53/31
f 49/39/25 52/42/27 33/24/17
f 37/27/19 61/53/31 55/54/28
f 61/53/31 37/27/19 52/42/27
f 57/55/29 55/44/28 63/56/32
f 55/44/28 57/55/29 41/30/21
f 57/47/29 45/50/23 43/57/22
f 45/50/23 59/58/30 47/37/24
f 59/59/30 61/53/31 49/39/25
f 61/53/31 59/59/30 65/60/33
f 63/61/32 61/53/31 65/60/33
f 61/53/31 63/61/32 55/44/28
f 57/47/29 63/56/32 45/50/23
f 65/60/33 59/62/30 45/63/23
f 63/56/32 65/60/33 45/36/23
usemtl material_1_0
f 5/64/34 6/65/35 7/66/36
f 8/67/37 7/66/36 6/65/35
f 7/68/36 8/69/37 11/70/38
f 12/71/39 11/70/38 8/69/37
f 6/72/35 15/73/40 8/74/37
f 16/75/41 8/74/37 15/73/40
f 6/76/35 5/77/34 19/78/42
f 20/79/43 19/78/42 5/77/34
f 12/80/39 23/81/44 11/82/38
f 24/83/45 11/82/38 23/81/44
f 8/84/37 16/85/41 12/86/39
f 26/87/46 12/86/39 16/85/41
f 29/88/47 16/89/41 30/90/48
f 15/91/40 30/90/48 16/89/41
f 15/92/40 6/93/35 32/94/49
f 19/95/42 32/94/49 6/93/35
f 19/96/42 20/97/43 35/98/50
f 36/99/51 35/98/50 20/97/43
f 23/100/44 39/101/52 24/102/45
f 40/103/53 24/102/45 39/101/52
f 26/104/46 42/105/54 12/106/39
f 23/107/44 12/106/39 42/105/54
f 26/108/46 16/109/41 44/110/55
f 29/111/47 44/110/55 16/109/41
f 30/112/48 46/113/56 29/114/47
f 30/115/48 15/116/40 48/117/57
f 32/118/49 48/117/57 15/116/40
f 32/119/49 19/120/42 50/121/58
f 35/122/50 50/121/58 19/120/42
f 36/123/51 53/124/59 35/125/50
f 54/126/60 35/125/50 53/124/59
f 53/127/59 40/128/53 54/129/60
f 39/130/52 54/129/60 40/128/53
f 42/131/54 56/132/61 23/133/44
f 39/134/52 23/133/44 56/132/61
f 42/135/54 26/136/46 58/137/62
f 44/138/55 58/137/62 26/136/46
f 29/139/47 46/140/56 44/141/55
f 30/142/48 48/143/57 46/144/56
f 60/145/63 48/146/57 50/147/58
f 32/148/49 50/147/58 48/146/57
f 35/149/50 54/150/60 50/151/58
f 62/152/64 50/151/58 54/150/60
f 54/153/60 39/154/52 62/155/64
f 56/156/61 62/155/64 39/154/52
f 42/157/54 58/158/62 56/159/61
f 64/160/65 56/159/61 58/158/62
f 44/161/55 46/162/56 58/163/62
f 48/164/57 60/165/63 46/166/56
f 66/167/66 60/168/63 62/169/64
f 50/170/58 62/169/64 60/168/63
f 56/171/61 64/172/65 62/173/64
f 66/174/66 62/173/64 64/172/65
f 46/175/56 64/176/65 58/177/62
f 46/178/56 60/179/63 66/180/66
f 46/181/56 66/182/66 64/183/65
