# SSTK version 0.8.0
# 48
mtllib original-48.mtl
o pSphere18/ID417#ID417
v 0.170601 0.032400 -0.382221
v 0.180008 0.018044 -0.384925
v 0.175450 0.017728 -0.378187
v 0.175528 0.031599 -0.388652
v 0.175528 0.031599 -0.388652
v 0.170601 0.032400 -0.382221
v 0.180008 0.018044 -0.384925
v 0.175450 0.017728 -0.378187
v 0.181186 0.045168 -0.387404
v 0.176725 0.047088 -0.380869
v 0.176725 0.047088 -0.380869
v 0.181186 0.045168 -0.387404
v 0.182557 0.030923 -0.392705
v 0.185986 0.020549 -0.389853
v 0.182557 0.030923 -0.392705
v 0.185986 0.020549 -0.389853
v 0.192001 0.012443 -0.378406
v 0.188431 0.011667 -0.371130
v 0.192001 0.012443 -0.378406
v 0.188431 0.011667 -0.371130
v 0.193667 0.050803 -0.381911
v 0.190234 0.053187 -0.374924
v 0.193667 0.050803 -0.381911
v 0.190234 0.053187 -0.374924
v 0.186888 0.041309 -0.391750
v 0.186888 0.041309 -0.391750
v 0.190618 0.030477 -0.393762
v 0.192473 0.024862 -0.392218
v 0.190618 0.030477 -0.393762
v 0.192473 0.024862 -0.392218
v 0.195165 0.016262 -0.384863
v 0.195165 0.016262 -0.384863
v 0.204482 0.018079 -0.372913
v 0.201941 0.017766 -0.365185
v 0.204482 0.018079 -0.372913
v 0.201941 0.017766 -0.365185
v 0.205660 0.045203 -0.375391
v 0.203216 0.047126 -0.367867
v 0.205660 0.045203 -0.375391
v 0.203216 0.047126 -0.367867
v 0.196440 0.045622 -0.387545
v 0.196440 0.045622 -0.387545
v 0.192961 0.036097 -0.393245
v 0.192961 0.036097 -0.393245
v 0.198482 0.030327 -0.391662
v 0.198482 0.030327 -0.391662
v 0.197441 0.022542 -0.389518
v 0.197441 0.022542 -0.389518
v 0.204718 0.020575 -0.380659
v 0.204718 0.020575 -0.380659
v 0.208064 0.032454 -0.363833
v 0.210140 0.031648 -0.371665
v 0.210140 0.031648 -0.371665
v 0.208064 0.032454 -0.363833
v 0.205619 0.041336 -0.382556
v 0.205619 0.041336 -0.382556
v 0.198131 0.038432 -0.390970
v 0.198131 0.038432 -0.390970
v 0.202611 0.024876 -0.387243
v 0.202611 0.024876 -0.387243
v 0.209048 0.030961 -0.379703
v 0.209048 0.030961 -0.379703
v 0.203099 0.036112 -0.388269
v 0.203099 0.036112 -0.388269
v 0.204954 0.030497 -0.386725
v 0.204954 0.030497 -0.386725
vt -0.6310526 -0.2376042
vt -0.4471538 -0.2066797
vt -0.490469 -0.09401122
vt -0.5770362 -0.3393423
vt 0.5949061 -0.1611191
vt 0.432815 -0.1902986
vt 0.525732 -0.3544721
vt 0.4943334 0.0165813
vt -0.5141125 -0.4288241
vt -0.4147048 -0.3272889
vt -0.3055505 -0.1045048
vt -0.3371986 0.01658216
vt 0.306291 -0.06651463
vt 0.3317938 0.09170967
vt 0.4564581 -0.1359239
vt 0.3681991 -0.4996106
vt 0.2970833 -0.3739576
vt -0.4042594 -0.3182535
vt -0.4450426 -0.507448
vt -0.3855905 -0.4476075
vt -0.2958809 -0.2400522
vt -0.1553833 -0.03509583
vt -0.1746587 0.09171
vt 0.1571349 -2.664535e-15
vt 0.1636082 0.1296972
vt 0.312518 -0.03509615
vt 0.2413535 -0.2189819
vt 0.3381907 -0.3137221
vt 0.1676555 -0.5018844
vt 0.1703273 -0.4095681
vt 0.2921461 -0.544536
vt -0.06578842 -0.4202354
vt -0.362281 -0.4274447
vt -0.2742096 -0.2244151
vt -0.2918986 -0.3766597
vt -0.1592766 -0.1712917
vt -0.006473222 0.1296972
vt 4.440892e-15 0
vt 0.1571349 -1.776357e-15
vt 2.664535e-15 -1.776357e-15
vt 0.1387003 -0.1270867
vt 0.1571349 -8.881784e-16
vt 0.2528595 -0.1779948
vt 0.1906003 -0.3976752
vt 0.1604397 -0.3138031
vt 0.1366058 -0.4911664
vt -0.2435381 -0.3417648
vt -0.1688991 -0.3072659
vt -0.1362948 -0.1606691
vt -0.01736969 -0.1338082
vt 0.1266763 -0.128437
vt 8.881784e-16 -2.220446e-15
vt 0.006410383 -0.1284371
vt 0.1571349 -2.220446e-15
vt 0.1111112 -0.2503874
vt 0.1666666 -0.3001208
vt -0.117614 -0.2835612
vt -0.0403825 -0.2661174
vt 0.08427875 -0.2534007
vt 0.01268395 -0.2541315
vt -2.568672 3.164831
vt -2.518616 3.170139
vt -2.565699 3.075088
vt -2.515397 3.073001
vt -2.486734 2.863417
vt -2.46903 2.767802
vt -2.535452 2.850921
vt -2.519095 2.762584
vt -2.160698 3.536979
vt -2.172028 3.447883
vt -2.210841 3.532539
vt -2.219513 3.464348
vt -2.521529 1.824972
vt -2.471438 1.819995
vt -2.537445 1.736557
vt -2.488665 1.724296
vt -2.086102 0.1456127
vt -2.13812 0.2193817
vt -2.042713 0.1707426
vt -2.099016 0.2505896
vt -2.07219 2.678641
vt -2.122349 2.674372
vt -2.099199 2.764408
vt -2.143021 2.740015
vt -1.439616 3.739371
vt -1.457986 3.673068
vt -1.489879 3.736517
vt -1.49982 3.700634
vt -1.518382 3.524649
vt -1.476665 3.496911
vt -1.568884 3.477186
vt -1.54265 3.434898
vt 2.536155 1.748108
vt 2.487356 1.735919
vt 2.520374 1.836546
vt 2.470275 1.831644
vt 2.128668 0.2003594
vt 2.076409 0.1267557
vt 2.089666 0.231691
vt 2.033102 0.1520228
vt -1.218783 0.5470094
vt -1.27674 0.5853458
vt -1.182457 0.5813143
vt -1.258181 0.6314033
vt -1.382245 2.873357
vt -1.432513 2.870612
vt -1.408098 2.937197
vt -1.446505 2.905162
vt -0.5000169 3.596468
vt -0.5368261 3.63027
vt -0.486489 3.631196
vt -0.6985376 4.039482
vt -0.7596448 4.006219
vt -0.735657 4.072954
vt -0.7687281 4.054953
vt 1.568135 3.479843
vt 1.541739 3.437651
vt 1.517813 3.527491
vt 1.475991 3.499907
vt 2.567375 3.170368
vt 2.564363 3.080625
vt 2.517321 3.175696
vt 2.514061 3.07856
vt 2.484544 2.855951
vt 2.533254 2.843424
vt 2.466778 2.760347
vt 2.516841 2.755097
vt 1.263425 0.5753229
vt 1.205341 0.537174
vt 1.24502 0.62144
vt 1.169129 0.5715961
vt -0.6156921 1.754741
vt -0.6506521 1.719087
vt -0.6787601 1.784246
vt -0.6847842 1.735055
vt -0.5288927 3.26469
vt -0.4933818 3.299812
vt -0.4785554 3.265601
vt -0.2293872 3.799479
vt -0.2305615 3.849012
vt -0.1946979 3.814239
vt 0.7649748 4.055623
vt 0.7557372 4.006917
vt 0.7319611 4.073726
vt 0.6947357 4.040367
vt 2.20691 3.534826
vt 2.215481 3.466622
vt 2.156773 3.539338
vt 2.167972 3.450225
vt 2.093492 2.757473
vt 2.137275 2.733014
vt 2.06635 2.671747
vt 2.116502 2.667402
vt 0.6729033 1.731236
vt 0.6387261 1.715361
vt 0.667018 1.780443
vt 0.6038669 1.75111
vt -0.2230233 2.951311
vt -0.2225704 3.000856
vt -0.1876698 2.986587
vt 0.1877274 3.814157
vt 0.2236851 3.848836
vt 0.2223766 3.799306
vt 1.483995 3.736245
vt 1.493856 3.700341
vt 1.433739 3.739209
vt 1.45196 3.672866
vt 1.400023 2.932886
vt 1.438359 2.900769
vt 1.374029 2.869101
vt 1.424292 2.866249
vt 0.2134173 2.95063
vt 0.1781555 2.985995
vt 0.2130931 3.000176
vt 0.4923137 3.595825
vt 0.4788757 3.630588
vt 0.5292103 3.629536
vt 0.4698566 3.264481
vt 0.48477 3.298656
vt 0.5201915 3.263446
vn -0.7949059903059299 -0.02088556963168187 -0.6063730366341408
vn -0.4581134007763985 -0.6922369948319109 -0.5576199915849215
vn -0.5669902248879558 -0.7105176858604957 -0.41675736701461125
vn -0.6742982143743483 -0.038101191375163795 -0.7374755706512307
vn -0.4012741000524478 0.6167289056053441 -0.6772182466664144
vn -0.5070655066648769 0.6694793215865141 -0.5428462120331621
vn -0.3551180532973167 -0.06975510918531783 -0.9322153147019568
vn -0.1855677468470512 -0.5827804057710063 -0.7911583975282637
vn 0.1206418512269862 -0.9624928012148776 -0.24300854170597347
vn 0.04317179655965052 -0.9954389714166908 -0.08507320475151466
vn 0.2010247913307977 0.8886641723965626 -0.41214684515247885
vn 0.12791687832499957 0.9561706913965197 -0.2633911182137486
vn -0.14099046309355245 0.443817181944754 -0.8849564951607976
vn 0.01805790607563014 -0.09175288202319724 -0.9956180596336133
vn 0.11625893188272869 -0.3888875894800269 -0.9139202938472814
vn 0.26833930770335823 -0.794737271177689 -0.5444140756283979
vn 0.7229407888040477 -0.690557622292611 0.02206323133534589
vn 0.6781552542178619 -0.7087460876884462 0.19438218633153775
vn 0.7797804461600084 0.6184086922268109 -0.09753535341005065
vn 0.7380786075116206 0.6712496228641519 0.06829284690537325
vn 0.33138147764550857 0.6570911880347737 -0.6770653490472905
vn 0.1420780987310587 0.2056988068514478 -0.9682467736692223
vn 0.4384853322526028 -0.10064079932274318 -0.8930856862087779
vn 0.3791538730775341 -0.5116498177579021 -0.7710102492954363
vn 0.7407110121813603 -0.5814636081833268 -0.3365223154438524
vn 0.965994493803782 -0.018381580925751234 0.2579084244910297
vn 0.9959653310641369 -0.03572662900019345 0.08232051566035387
vn 0.7852887098852622 0.44513469741329115 -0.4303216741991021
vn 0.41566764128338296 0.3292240836583128 -0.8478395571859414
vn 0.6527434022970132 -0.38812519726245776 -0.6506034752502464
vn 0.9548387378254041 -0.06789191814386418 -0.28926401815423936
vn 0.6785617375793658 0.20646310061236442 -0.704930462087432
vn 0.7767623746026363 -0.09067277156528156 -0.6232324300759258
vn 0.6742982143743483 0.038101191375163795 0.7374755706512307
vn 0.7949059903059299 0.02088556963168187 0.6063730366341408
vn 0.4581134007763985 0.6922369948319109 0.5576199915849215
vn 0.5669902248879558 0.7105176858604957 0.41675736701461125
vn 0.5070655066648769 -0.6694793215865141 0.5428462120331621
vn 0.4012741000524478 -0.6167289056053441 0.6772182466664144
vn 0.3551180532973167 0.06975510918531783 0.9322153147019568
vn 0.1855677468470512 0.5827804057710063 0.7911583975282637
vn -0.1206418512269862 0.9624928012148776 0.24300854170597347
vn -0.04317179655965052 0.9954389714166908 0.08507320475151466
vn -0.2010247913307977 -0.8886641723965626 0.41214684515247885
vn -0.12791687832499957 -0.9561706913965197 0.2633911182137486
vn 0.14099046309355245 -0.443817181944754 0.8849564951607976
vn -0.01805790607563014 0.09175288202319724 0.9956180596336133
vn -0.11625893188272869 0.3888875894800269 0.9139202938472814
vn -0.26833930770335823 0.794737271177689 0.5444140756283979
vn -0.7229407888040477 0.690557622292611 -0.02206323133534589
vn -0.6781552542178619 0.7087460876884462 -0.19438218633153775
vn -0.7797804461600084 -0.6184086922268109 0.09753535341005065
vn -0.7380786075116206 -0.6712496228641519 -0.06829284690537325
vn -0.33138147764550857 -0.6570911880347737 0.6770653490472905
vn -0.1420780987310587 -0.2056988068514478 0.9682467736692223
vn -0.4384853322526028 0.10064079932274318 0.8930856862087779
vn -0.3791538730775341 0.5116498177579021 0.7710102492954363
vn -0.7407110121813603 0.5814636081833268 0.3365223154438524
vn -0.9959653310641369 0.03572662900019345 -0.08232051566035387
vn -0.965994493803782 0.018381580925751234 -0.2579084244910297
vn -0.7852887098852622 -0.44513469741329115 0.4303216741991021
vn -0.41566764128338296 -0.3292240836583128 0.8478395571859414
vn -0.6527434022970132 0.38812519726245776 0.6506034752502464
vn -0.9548387378254041 0.06789191814386418 0.28926401815423936
vn -0.6785617375793658 -0.20646310061236442 0.704930462087432
vn -0.7767623746026363 0.09067277156528156 0.6232324300759258
usemtl material_0_0
f 1/1/1 2/2/2 3/3/3
f 2/2/2 1/1/1 4/4/4
f 1/5/1 9/6/5 4/7/4
f 9/6/5 1/5/1 10/8/6
f 2/2/2 13/9/7 14/10/8
f 13/9/7 2/2/2 4/4/4
f 3/3/3 17/11/9 18/12/10
f 17/11/9 3/3/3 2/2/2
f 21/13/11 10/8/6 22/14/12
f 10/8/6 21/13/11 9/15/5
f 13/16/7 9/6/5 25/17/13
f 9/6/5 13/16/7 4/7/4
f 14/18/8 27/19/14 28/20/15
f 27/19/14 14/18/8 13/9/7
f 2/2/2 31/21/16 17/11/9
f 31/21/16 2/2/2 14/18/8
f 18/12/10 33/22/17 34/23/18
f 33/22/17 18/12/10 17/11/9
f 37/24/19 22/14/12 38/25/20
f 22/14/12 37/24/19 21/26/11
f 41/27/21 9/6/5 21/13/11
f 9/6/5 41/27/21 25/28/13
f 27/29/14 25/17/13 43/30/22
f 25/17/13 27/29/14 13/31/7
f 27/19/14 45/32/23 28/33/15
f 31/34/16 28/33/15 47/35/24
f 28/33/15 31/34/16 14/18/8
f 17/11/9 49/36/25 33/22/17
f 49/36/25 17/11/9 31/34/16
f 33/22/17 51/37/26 34/23/18
f 51/37/26 33/22/17 52/38/27
f 37/39/19 51/37/26 52/40/27
f 51/37/26 37/39/19 38/25/20
f 55/41/28 21/13/11 37/42/19
f 21/13/11 55/41/28 41/43/21
f 43/44/22 41/27/21 57/45/29
f 41/27/21 43/44/22 25/17/13
f 27/46/14 43/30/22 45/32/23
f 28/33/15 45/32/23 47/47/24
f 31/34/16 59/48/30 49/49/25
f 59/48/30 31/34/16 47/47/24
f 49/49/25 52/40/27 33/22/17
f 52/40/27 49/49/25 61/50/31
f 55/51/28 52/52/27 61/53/31
f 52/52/27 55/51/28 37/54/19
f 63/55/32 41/27/21 55/41/28
f 41/27/21 63/55/32 57/56/29
f 43/30/22 57/45/29 45/32/23
f 47/47/24 45/32/23 59/57/30
f 59/57/30 61/53/31 49/49/25
f 61/53/31 59/57/30 65/58/33
f 63/59/32 61/53/31 65/60/33
f 61/53/31 63/59/32 55/41/28
f 57/45/29 63/55/32 45/32/23
f 45/32/23 65/60/33 59/57/30
f 45/32/23 63/55/32 65/60/33
usemtl material_1_0
f 5/61/34 6/62/35 7/63/36
f 8/64/37 7/63/36 6/62/35
f 11/65/38 6/66/35 12/67/39
f 5/68/34 12/67/39 6/66/35
f 5/69/34 7/70/36 15/71/40
f 16/72/41 15/71/40 7/70/36
f 7/73/36 8/74/37 19/75/42
f 20/76/43 19/75/42 8/74/37
f 12/77/39 23/78/44 11/79/38
f 24/80/45 11/79/38 23/78/44
f 5/81/34 15/82/40 12/83/39
f 26/84/46 12/83/39 15/82/40
f 15/85/40 16/86/41 29/87/47
f 30/88/48 29/87/47 16/86/41
f 16/89/41 7/90/36 32/91/49
f 19/92/42 32/91/49 7/90/36
f 19/93/42 20/94/43 35/95/50
f 36/96/51 35/95/50 20/94/43
f 23/97/44 39/98/52 24/99/45
f 40/100/53 24/99/45 39/98/52
f 26/101/46 42/102/54 12/103/39
f 23/104/44 12/103/39 42/102/54
f 15/105/40 29/106/47 26/107/46
f 44/108/55 26/107/46 29/106/47
f 30/109/48 46/110/56 29/111/47
f 16/112/41 32/113/49 30/114/48
f 48/115/57 30/114/48 32/113/49
f 32/116/49 19/117/42 50/118/58
f 35/119/50 50/118/58 19/117/42
f 53/120/59 35/121/50 54/122/60
f 36/123/51 54/122/60 35/121/50
f 40/124/53 39/125/52 54/126/60
f 53/127/59 54/126/60 39/125/52
f 42/128/54 56/129/61 23/130/44
f 39/131/52 23/130/44 56/129/61
f 26/132/46 44/133/55 42/134/54
f 58/135/62 42/134/54 44/133/55
f 46/136/56 44/137/55 29/138/47
f 48/139/57 46/140/56 30/141/48
f 48/142/57 32/143/49 60/144/63
f 50/145/58 60/144/63 32/143/49
f 62/146/64 50/147/58 53/148/59
f 35/149/50 53/148/59 50/147/58
f 39/150/52 56/151/61 53/152/59
f 62/153/64 53/152/59 56/151/61
f 58/154/62 64/155/65 42/156/54
f 56/157/61 42/156/54 64/155/65
f 46/158/56 58/159/62 44/160/55
f 60/161/63 46/162/56 48/163/57
f 66/164/66 60/165/63 62/166/64
f 50/167/58 62/166/64 60/165/63
f 56/168/61 64/169/65 62/170/64
f 66/171/66 62/170/64 64/169/65
f 46/172/56 64/173/65 58/174/62
f 60/175/63 66/176/66 46/177/56
f 66/178/66 64/179/65 46/180/56
