# SSTK version 0.8.0
# 38
mtllib original-38.mtl
o pSphere8/ID327#ID327
v 0.261787 0.368828 0.364422
v 0.259194 0.354413 0.373770
v 0.255832 0.354137 0.366361
v 0.264696 0.367985 0.371980
v 0.264696 0.367985 0.371980
v 0.261787 0.368828 0.364422
v 0.259194 0.354413 0.373770
v 0.255832 0.354137 0.366361
v 0.260657 0.381525 0.376230
v 0.257415 0.383483 0.369023
v 0.257415 0.383483 0.369023
v 0.260657 0.381525 0.376230
v 0.260266 0.356873 0.381457
v 0.264477 0.367262 0.380086
v 0.264477 0.367262 0.380086
v 0.260266 0.356873 0.381457
v 0.243038 0.348016 0.373703
v 0.247374 0.348757 0.380554
v 0.243038 0.348016 0.373703
v 0.247374 0.348757 0.380554
v 0.245278 0.389517 0.377467
v 0.249443 0.387100 0.384032
v 0.245278 0.389517 0.377467
v 0.249443 0.387100 0.384032
v 0.261386 0.377625 0.383339
v 0.261386 0.377625 0.383339
v 0.258887 0.361145 0.388249
v 0.261166 0.366767 0.387507
v 0.261166 0.366767 0.387507
v 0.258887 0.361145 0.388249
v 0.251220 0.352545 0.386648
v 0.251220 0.352545 0.386648
v 0.230901 0.354050 0.382147
v 0.236160 0.354332 0.388356
v 0.230901 0.354050 0.382147
v 0.236160 0.354332 0.388356
v 0.232484 0.383396 0.384809
v 0.237623 0.381445 0.390815
v 0.232484 0.383396 0.384809
v 0.237623 0.381445 0.390815
v 0.252804 0.381891 0.389310
v 0.252804 0.381891 0.389310
v 0.259493 0.372376 0.389268
v 0.259493 0.372376 0.389268
v 0.255265 0.366577 0.393113
v 0.255265 0.366577 0.393113
v 0.253991 0.358803 0.391059
v 0.253991 0.358803 0.391059
v 0.242637 0.356812 0.392620
v 0.242637 0.356812 0.392620
v 0.226529 0.368705 0.386748
v 0.232121 0.367872 0.392606
v 0.232121 0.367872 0.392606
v 0.226529 0.368705 0.386748
v 0.243757 0.377563 0.394502
v 0.243757 0.377563 0.394502
v 0.254848 0.374685 0.392499
v 0.254848 0.374685 0.392499
v 0.249346 0.361112 0.394290
v 0.249346 0.361112 0.394290
v 0.239546 0.367175 0.395873
v 0.239546 0.367175 0.395873
v 0.249952 0.372342 0.395309
v 0.249952 0.372342 0.395309
v 0.247673 0.366720 0.396051
v 0.247673 0.366720 0.396051
vt -0.1702174 0.04628628
vt -0.03618814 0.2376754
vt -0.1160992 0.2881491
vt -0.08618668 0.01422307
vt -0.113447 -0.2179051
vt -0.1997238 -0.2049676
vt 0.03826734 0.1710228
vt 8.881784e-16 3.552714e-15
vt -0.03857582 0.5152286
vt 0.03543435 0.4474695
vt -0.09160861 -0.2190472
vt -0.2039603 -0.4600106
vt -0.09552256 -0.4546763
vt -0.004149647 -0.1785372
vt 8.881784e-16 -3.552714e-15
vt 0 3.552714e-15
vt 0.1074171 0.09255704
vt 0.08670682 5.329071e-15
vt 0.0533101 0.4286174
vt 0.1067663 0.3171638
vt 0.06062503 0.722462
vt 0.1449595 0.6200761
vt -0.05363368 -0.4383562
vt -0.1828324 -0.7131569
vt -0.03411408 -0.6722329
vt 0.02541609 -0.175217
vt 0.05448076 -0.343069
vt 4.440892e-16 7.105427e-15
vt 0.1004619 -0.09482683
vt 0.08670682 8.881784e-15
vt 0.1794119 -0.005094612
vt 0.08670682 7.105427e-15
vt 0.1290098 0.2877602
vt 0.1565265 0.1557347
vt 0.1718024 0.569153
vt 0.2197 0.3953213
vt 0.2768311 1.026221
vt 0.3715512 0.84979
vt 0.02056154 -0.6227265
vt -0.03511908 -1.2967
vt 0.1570308 -1.16185
vt 0.1056309 -0.3037788
vt 0.1624174 -0.4448895
vt 0.107417 -0.09255686
vt 0.150829 -0.1621337
vt 0.08670682 3.552714e-15
vt 0.1631926 0.1425261
vt 0.2257983 0.1587286
vt 0.24469 0.3176983
vt 0.4933862 0.391725
vt 0.4967401 0.6658738
vt 0.5178406 -0.6662276
vt 0.2150103 -0.3510339
vt 0.4162275 -1.034546
vt 0.220356 -0.1732044
vt 0.1611603 -0.1476301
vt 0.2268642 0.126115
vt 0.2719145 -0.01406324
vt 0.3279319 0.05868287
vt 0.2261717 -0.1429162
vt 0.2995321 -0.1129438
vt -2.751515 5.06336
vt -2.701488 5.068929
vt -2.748056 4.973633
vt -2.697744 4.971809
vt -2.664094 4.75016
vt -2.645853 4.654643
vt -2.712741 4.737399
vt -2.695888 4.649152
vt -2.368085 5.464672
vt -2.317971 5.469425
vt -2.376317 5.396427
vt -2.328726 5.38026
vt -2.658113 2.638362
vt -2.674048 2.542446
vt -2.708267 2.642684
vt -2.722989 2.554069
vt -2.170338 0.9974357
vt -2.213396 0.9717601
vt -2.227678 1.076565
vt -2.266372 1.044866
vt -2.24417 4.701609
vt -2.216623 4.616008
vt -2.287837 4.676949
vt -2.266754 4.611433
vt -1.594101 5.731953
vt -1.543858 5.735114
vt -1.603816 5.696009
vt -1.561809 5.6687
vt -1.600936 4.732882
vt -1.666235 4.670169
vt -1.642956 4.760174
vt -1.692933 4.712175
vt 2.673246 2.519763
vt 2.656986 2.615626
vt 2.722147 2.531547
vt 2.707125 2.620113
vt 2.24034 1.117872
vt 2.279272 1.086457
vt 2.1836 1.038325
vt 2.226851 1.012965
vt -1.250054 1.868352
vt -1.286086 1.833748
vt -1.326203 1.917814
vt -1.344368 1.871605
vt -1.502151 4.945378
vt -1.475913 4.88169
vt -1.540364 4.913119
vt -1.526164 4.878652
vt -0.5191733 5.682843
vt -0.5325222 5.648047
vt -0.5695049 5.681666
vt -0.7561038 5.748593
vt -0.8169822 5.714926
vt -0.7934514 5.781819
vt -0.8263985 5.763599
vt 1.653853 4.666862
vt 1.588008 4.729018
vt 1.680183 4.709093
vt 1.629787 4.756665
vt 2.751921 5.052419
vt 2.748551 4.962689
vt 2.701889 5.05794
vt 2.698241 4.960817
vt 2.665295 4.766094
vt 2.713962 4.753403
vt 2.647197 4.670551
vt 2.697241 4.665132
vt 1.342712 1.939731
vt 1.361231 1.893657
vt 1.266944 1.889706
vt 1.30324 1.85537
vt -0.718108 3.488377
vt -0.7123737 3.537602
vt -0.6838823 3.472604
vt -0.6491329 3.508456
vt -0.5233926 5.35835
vt -0.5083936 5.324211
vt -0.5587257 5.323054
vt -0.2435787 5.863687
vt -0.2075469 5.829083
vt -0.2421641 5.81416
vt 0.7480806 5.747672
vt 0.7851842 5.781162
vt 0.8092036 5.714438
vt 0.8182637 5.763175
vt 2.318096 5.465816
vt 2.368226 5.461228
vt 2.329155 5.376687
vt 2.37669 5.393012
vt 2.220582 4.631367
vt 2.247822 4.717063
vt 2.270729 4.626966
vt 2.291578 4.692555
vt 0.6607265 3.516559
vt 0.723777 3.546101
vt 0.6957075 3.480926
vt 0.7298302 3.496914
vt -0.1950953 5.019557
vt -0.2302848 4.984123
vt -0.2300619 5.033669
vt 0.2424494 5.86428
vt 0.241343 5.814746
vt 0.2066335 5.829459
vt 1.543464 5.736701
vt 1.593723 5.733791
vt 1.561757 5.670378
vt 1.603623 5.697897
vt 1.480985 4.891554
vt 1.506902 4.955369
vt 1.531251 4.888761
vt 1.545277 4.923297
vt 0.2353781 5.035273
vt 0.2358971 4.985729
vt 0.2004965 5.020959
vt 0.570488 5.683691
vt 0.5337058 5.64986
vt 0.5201501 5.684578
vt 0.5268284 5.361172
vt 0.5623677 5.326077
vt 0.5120295 5.326949
vn 0.9324702870038943 -0.01758899066095521 -0.360818224681631
vn 0.7157070393492647 -0.6907421380917581 -0.10314423149326764
vn 0.6525542062891453 -0.7081215873679605 -0.2696976554548139
vn 0.9812152630478594 -0.03575211967141173 -0.1895742427148819
vn 0.7863097165469904 0.6176371141231409 0.015537854466742947
vn 0.7269884214102963 0.6712568138231213 -0.14457567233596705
vn 0.7722008814055475 -0.5833048931285925 0.2519150658629552
vn 0.9804340160098166 -0.06960838654731673 0.18412988017467977
vn 0.05121141289175423 -0.9958368193463711 0.07540835778435406
vn 0.14531619713911922 -0.9636483555136516 0.22419868368226303
vn 0.15647710351452723 0.9548982567613533 0.2523573563616337
vn 0.2451635498251746 0.8866790781100706 0.3920395978456697
vn 0.8275733379926167 0.44283251098556986 0.3449952716458202
vn 0.7188448203624785 -0.3913767086936234 0.5745314579117341
vn 0.839450127516346 -0.0938520552894202 0.5352712164227984
vn 0.32485336035747725 -0.7973405181543674 0.508643679183945
vn -0.5192997272731357 -0.7121948689799721 0.4723412557173544
vn -0.395829737184054 -0.6946062901814136 0.6007003585825602
vn -0.444865721271217 0.6671830193825842 0.5974623910217095
vn -0.3252272779719202 0.6137727061799207 0.7193818755094906
vn 0.40316250774550255 0.6538373928339684 0.6402785769338505
vn 0.7509157649709814 0.20294489072788863 0.6284416323299175
vn 0.5322895310464215 -0.10492199965818452 0.8400352546923899
vn 0.4597487895305003 -0.5153424907611408 0.7232241476481154
vn -0.09955754397292242 -0.5863355131906699 0.8039272115120332
vn -0.7247817579993285 -0.02335011016595127 0.6885827296894983
vn -0.5907350160335278 -0.04121691911436622 0.8058122029422162
vn -0.04418413160649491 0.43980239763554746 0.8970070309357691
vn 0.5051045063823333 0.3251544146725771 0.7994648486651516
vn 0.2139374672090603 -0.39313198228392227 0.8942471719998257
vn -0.2524175667681789 -0.0738948763009994 0.9647926820013157
vn 0.2460088715846039 0.20118899604620977 0.9481574884857411
vn 0.1254036684301514 -0.09633462208844769 0.9874176221494816
vn -0.9812152630478594 0.03575211967141173 0.1895742427148819
vn -0.9324702870038943 0.01758899066095521 0.360818224681631
vn -0.7157070393492647 0.6907421380917581 0.10314423149326764
vn -0.6525542062891453 0.7081215873679605 0.2696976554548139
vn -0.7269884214102963 -0.6712568138231213 0.14457567233596705
vn -0.7863097165469904 -0.6176371141231409 -0.015537854466742947
vn -0.9804340160098166 0.06960838654731673 -0.18412988017467977
vn -0.7722008814055475 0.5833048931285925 -0.2519150658629552
vn -0.05121141289175423 0.9958368193463711 -0.07540835778435406
vn -0.14531619713911922 0.9636483555136516 -0.22419868368226303
vn -0.15647710351452723 -0.9548982567613533 -0.2523573563616337
vn -0.2451635498251746 -0.8866790781100706 -0.3920395978456697
vn -0.8275733379926167 -0.44283251098556986 -0.3449952716458202
vn -0.839450127516346 0.0938520552894202 -0.5352712164227984
vn -0.7188448203624785 0.3913767086936234 -0.5745314579117341
vn -0.32485336035747725 0.7973405181543674 -0.508643679183945
vn 0.5192997272731357 0.7121948689799721 -0.4723412557173544
vn 0.395829737184054 0.6946062901814136 -0.6007003585825602
vn 0.444865721271217 -0.6671830193825842 -0.5974623910217095
vn 0.3252272779719202 -0.6137727061799207 -0.7193818755094906
vn -0.40316250774550255 -0.6538373928339684 -0.6402785769338505
vn -0.7509157649709814 -0.20294489072788863 -0.6284416323299175
vn -0.5322895310464215 0.10492199965818452 -0.8400352546923899
vn -0.4597487895305003 0.5153424907611408 -0.7232241476481154
vn 0.09955754397292242 0.5863355131906699 -0.8039272115120332
vn 0.5907350160335278 0.04121691911436622 -0.8058122029422162
vn 0.7247817579993285 0.02335011016595127 -0.6885827296894983
vn 0.04418413160649491 -0.43980239763554746 -0.8970070309357691
vn -0.5051045063823333 -0.3251544146725771 -0.7994648486651516
vn -0.2139374672090603 0.39313198228392227 -0.8942471719998257
vn 0.2524175667681789 0.0738948763009994 -0.9647926820013157
vn -0.2460088715846039 -0.20118899604620977 -0.9481574884857411
vn -0.1254036684301514 0.09633462208844769 -0.9874176221494816
usemtl material_0_0
f 1/1/1 2/2/2 3/3/3
f 2/2/2 1/1/1 4/4/4
f 1/1/1 9/5/5 4/4/4
f 9/5/5 1/1/1 10/6/6
f 4/4/4 13/7/7 2/2/2
f 13/7/7 4/4/4 14/8/8
f 17/9/9 2/2/2 18/10/10
f 2/2/2 17/9/9 3/3/3
f 9/11/5 21/12/11 22/13/12
f 21/12/11 9/11/5 10/6/6
f 4/4/4 25/14/13 14/15/8
f 25/14/13 4/4/4 9/11/5
f 14/16/8 27/17/14 13/7/7
f 27/17/14 14/16/8 28/18/15
f 18/19/10 13/7/7 31/20/16
f 13/7/7 18/19/10 2/2/2
f 33/21/17 18/19/10 34/22/18
f 18/19/10 33/21/17 17/9/9
f 22/23/12 37/24/19 38/25/20
f 37/24/19 22/23/12 21/12/11
f 25/26/13 22/23/12 41/27/21
f 22/23/12 25/26/13 9/11/5
f 14/28/8 43/29/22 28/30/15
f 43/29/22 14/28/8 25/26/13
f 45/31/23 27/17/14 28/32/15
f 31/33/16 27/17/14 47/34/24
f 27/17/14 31/33/16 13/7/7
f 34/35/18 31/33/16 49/36/25
f 31/33/16 34/35/18 18/19/10
f 34/35/18 51/37/26 33/21/17
f 51/37/26 34/35/18 52/38/27
f 38/39/20 51/40/26 52/41/27
f 51/40/26 38/39/20 37/24/19
f 41/42/21 38/39/20 55/43/28
f 38/39/20 41/42/21 22/23/12
f 41/42/21 43/44/22 25/26/13
f 43/44/22 41/42/21 57/45/29
f 45/31/23 28/46/15 43/44/22
f 47/47/24 27/17/14 45/31/23
f 59/48/30 31/33/16 47/47/24
f 31/33/16 59/48/30 49/49/25
f 61/50/31 34/35/18 49/49/25
f 34/35/18 61/50/31 52/51/27
f 38/39/20 61/52/31 55/53/28
f 61/52/31 38/39/20 52/54/27
f 41/42/21 63/55/32 57/56/29
f 63/55/32 41/42/21 55/53/28
f 57/56/29 45/31/23 43/44/22
f 59/57/30 47/47/24 45/31/23
f 65/58/33 49/49/25 59/57/30
f 49/49/25 65/58/33 61/59/31
f 55/53/28 65/58/33 63/60/32
f 65/58/33 55/53/28 61/61/31
f 63/60/32 45/31/23 57/56/29
f 65/58/33 59/57/30 45/31/23
f 65/58/33 45/31/23 63/60/32
usemtl material_1_0
f 5/62/34 6/63/35 7/64/36
f 8/65/37 7/64/36 6/63/35
f 11/66/38 6/67/35 12/68/39
f 5/69/34 12/68/39 6/67/35
f 15/70/40 5/71/34 16/72/41
f 7/73/36 16/72/41 5/71/34
f 8/74/37 19/75/42 7/76/36
f 20/77/43 7/76/36 19/75/42
f 11/78/38 12/79/39 23/80/44
f 24/81/45 23/80/44 12/79/39
f 12/82/39 5/83/34 26/84/46
f 15/85/40 26/84/46 5/83/34
f 29/86/47 15/87/40 30/88/48
f 16/89/41 30/88/48 15/87/40
f 7/90/36 20/91/43 16/92/41
f 32/93/49 16/92/41 20/91/43
f 19/94/42 35/95/50 20/96/43
f 36/97/51 20/96/43 35/95/50
f 23/98/44 24/99/45 39/100/52
f 40/101/53 39/100/52 24/99/45
f 12/102/39 26/103/46 24/104/45
f 42/105/54 24/104/45 26/103/46
f 26/106/46 15/107/40 44/108/55
f 29/109/47 44/108/55 15/107/40
f 29/110/47 30/111/48 46/112/56
f 16/113/41 32/114/49 30/115/48
f 48/116/57 30/115/48 32/114/49
f 20/117/43 36/118/51 32/119/49
f 50/120/58 32/119/49 36/118/51
f 53/121/59 36/122/51 54/123/60
f 35/124/50 54/123/60 36/122/51
f 39/125/52 40/126/53 54/127/60
f 53/128/59 54/127/60 40/126/53
f 24/129/45 42/130/54 40/131/53
f 56/132/61 40/131/53 42/130/54
f 58/133/62 42/134/54 44/135/55
f 26/136/46 44/135/55 42/134/54
f 44/137/55 29/138/47 46/139/56
f 46/140/56 30/141/48 48/142/57
f 50/143/58 60/144/63 32/145/49
f 48/146/57 32/145/49 60/144/63
f 53/147/59 62/148/64 36/149/51
f 50/150/58 36/149/51 62/148/64
f 53/151/59 40/152/53 62/153/64
f 56/154/61 62/153/64 40/152/53
f 56/155/61 42/156/54 64/157/65
f 58/158/62 64/157/65 42/156/54
f 44/159/55 46/160/56 58/161/62
f 46/162/56 48/163/57 60/164/63
f 62/165/64 66/166/66 50/167/58
f 60/168/63 50/167/58 66/166/66
f 62/169/64 56/170/61 66/171/66
f 64/172/65 66/171/66 56/170/61
f 58/173/62 46/174/56 64/175/65
f 46/176/56 60/177/63 66/178/66
f 64/179/65 46/180/56 66/181/66
