# SSTK version 0.8.0
# 41
mtllib original-41.mtl
o pSphere11/ID354#ID354
v -0.369237 0.367914 0.255384
v -0.363589 0.354085 0.246509
v -0.361658 0.368750 0.252530
v -0.371022 0.354366 0.249821
v -0.371022 0.354366 0.249821
v -0.369237 0.367914 0.255384
v -0.363589 0.354085 0.246509
v -0.361658 0.368750 0.252530
v -0.366195 0.383431 0.248180
v -0.373429 0.381478 0.251365
v -0.373429 0.381478 0.251365
v -0.366195 0.383431 0.248180
v -0.377344 0.367210 0.255107
v -0.378709 0.356841 0.250849
v -0.378709 0.356841 0.250849
v -0.377344 0.367210 0.255107
v -0.377736 0.348769 0.237934
v -0.370857 0.348027 0.233643
v -0.370857 0.348027 0.233643
v -0.377736 0.348769 0.237934
v -0.381141 0.387112 0.240118
v -0.374542 0.389529 0.236007
v -0.374542 0.389529 0.236007
v -0.381141 0.387112 0.240118
v -0.380552 0.377592 0.252031
v -0.380552 0.377592 0.252031
v -0.384743 0.366745 0.251743
v -0.385482 0.361133 0.249439
v -0.385482 0.361133 0.249439
v -0.384743 0.366745 0.251743
v -0.383849 0.352557 0.241752
v -0.383849 0.352557 0.241752
v -0.385448 0.354402 0.226687
v -0.379205 0.354125 0.221470
v -0.379205 0.354125 0.221470
v -0.385448 0.354402 0.226687
v -0.387855 0.381515 0.228232
v -0.381810 0.383471 0.223141
v -0.381810 0.383471 0.223141
v -0.387855 0.381515 0.228232
v -0.386454 0.381903 0.243423
v -0.386454 0.381903 0.243423
v -0.386479 0.372363 0.250078
v -0.386479 0.372363 0.250078
v -0.390309 0.366589 0.245803
v -0.390309 0.366589 0.245803
v -0.388264 0.358814 0.244515
v -0.388264 0.358814 0.244515
v -0.389751 0.356869 0.233144
v -0.389751 0.356869 0.233144
v -0.383741 0.368806 0.217120
v -0.389640 0.367966 0.222668
v -0.389640 0.367966 0.222668
v -0.383741 0.368806 0.217120
v -0.391593 0.377620 0.234326
v -0.391593 0.377620 0.234326
v -0.389674 0.374697 0.245420
v -0.389674 0.374697 0.245420
v -0.391458 0.361148 0.239857
v -0.391458 0.361148 0.239857
v -0.392959 0.367250 0.230068
v -0.392959 0.367250 0.230068
v -0.392455 0.372379 0.240496
v -0.392455 0.372379 0.240496
v -0.393194 0.366766 0.238192
v -0.393194 0.366766 0.238192
vt 0.1570308 -1.16185
vt -0.182832 -0.713157
vt -0.03511889 -1.2967
vt 0.02056164 -0.6227264
vt 0.060625 0.7224612
vt 0.3715501 0.8497888
vt 0.2768305 1.02622
vt 0.1718022 0.5691526
vt 0.5178408 -0.6662263
vt 0.4162292 -1.034545
vt 0.2150103 -0.3510341
vt -0.05363372 -0.4383564
vt -0.03411373 -0.6722328
vt -0.2039602 -0.460011
vt 0.0533099 0.4286171
vt 0.1449595 0.6200755
vt -0.03857586 0.5152281
vt 0.4933864 0.3917247
vt 0.4967398 0.665873
vt 0.2446899 0.3176983
vt 0.2719144 -0.01406326
vt 0.2995319 -0.1129445
vt 0.2261716 -0.1429162
vt 0.1056309 -0.3037789
vt 0.1624174 -0.4448897
vt -0.09160865 -0.2190472
vt -0.09552251 -0.4546764
vt -0.1997239 -0.2049678
vt -0.03618809 0.2376751
vt 0.03543426 0.447469
vt -0.1160993 0.2881486
vt 0.1290097 0.2877598
vt 0.2196998 0.3953214
vt 0.327932 0.05868244
vt 0.2268639 0.126115
vt 0.1794119 -0.005094821
vt 0.2203559 -0.1732044
vt 0.16116 -0.1476302
vt 0.02541602 -0.1752171
vt 0.05448075 -0.3430692
vt -0.1134471 -0.2179051
vt -0.1702176 0.04628599
vt -0.08618686 0.01422298
vt 0.03826732 0.1710228
vt 0.1067662 0.3171634
vt 0.1631925 0.1425259
vt 0.225798 0.1587285
vt 0.1508287 -0.162134
vt 0.1074168 -0.09255688
vt -0.004149681 -0.1785373
vt -2.664535e-15 -8.881784e-15
vt 0 1.776357e-15
vt 0.1565263 0.1557345
vt 0.1074168 0.09255691
vt 0.1004617 -0.09482682
vt -1.332268e-15 -7.105427e-15
vt 0.08670667 -5.329071e-15
vt 0 0
vt 0.08670667 1.776357e-15
vt 0.08670667 -7.105427e-15
vt 0.08670667 7.105427e-15
vt -0.1973642 0.3620194
vt -0.1976076 0.3685621
vt -0.193754 0.3618837
vt -0.1940174 0.3689656
vt -0.1948822 0.3463479
vt -0.1913903 0.3472746
vt -0.1936799 0.3399119
vt -0.190089 0.3403084
vt -0.1707369 0.3932763
vt -0.1701339 0.3982509
vt -0.1673248 0.392089
vt -0.1665369 0.3985887
vt -0.1919951 0.1840458
vt -0.1955049 0.184902
vt -0.1908342 0.1910368
vt -0.1944324 0.1913608
vt -0.1607283 0.08077595
vt -0.1566453 0.07498362
vt -0.1635176 0.07847981
vt -0.1597454 0.0731284
vt -0.1645712 0.3418846
vt -0.161433 0.3436746
vt -0.1630707 0.3371035
vt -0.1594725 0.3374277
vt -0.1152973 0.4154345
vt -0.1145905 0.4180527
vt -0.1122903 0.4134319
vt -0.1109842 0.4182698
vt -0.1191366 0.3403478
vt -0.1210331 0.3434228
vt -0.114422 0.3448909
vt -0.1174247 0.3468999
vt 0.1907885 0.1921376
vt 0.1943872 0.1924562
vt 0.1919387 0.1851449
vt 0.1954499 0.1859957
vt 0.1559858 0.07334623
vt 0.1600885 0.0791246
vt 0.1590796 0.07148045
vt 0.16287 0.07681896
vt -0.09625421 0.1409943
vt -0.0908098 0.1373576
vt -0.09757632 0.1376321
vt -0.09340934 0.1348487
vt -0.1110129 0.3587919
vt -0.1082623 0.3611341
vt -0.1100031 0.3562749
vt -0.1063963 0.3564834
vt -0.03848319 0.4119485
vt -0.04112654 0.4144112
vt -0.03751444 0.4144816
vt -0.05908824 0.4202799
vt -0.05671703 0.421596
vt -0.0584312 0.4167273
vt -0.05404977 0.4191592
vt 0.1145447 0.3452078
vt 0.1175553 0.3472049
vt 0.1192412 0.340646
vt 0.1211498 0.3437135
vt 0.1975366 0.3690747
vt 0.1972903 0.3625321
vt 0.1939466 0.3694798
vt 0.19368 0.3623981
vt 0.1935469 0.339247
vt 0.1899562 0.3396458
vt 0.1947535 0.3456821
vt 0.1912623 0.3466112
vt 0.08992132 0.1365125
vt 0.09537825 0.1401303
vt 0.09251218 0.1339946
vt 0.09668874 0.1367636
vt -0.0519285 0.2583692
vt -0.04740033 0.2562229
vt -0.0523567 0.2547818
vt -0.04990608 0.2536203
vt -0.03687997 0.388372
vt -0.04049209 0.3883028
vt -0.03794581 0.3908657
vt -0.01504325 0.425089
vt -0.0175322 0.424012
vt -0.01761757 0.4276237
vt 0.05662776 0.4216854
vt 0.05899461 0.4203614
vt 0.05395247 0.4192574
vt 0.05832585 0.4168111
vt 0.16993 0.3984876
vt 0.1705253 0.393512
vt 0.1663335 0.3988308
vt 0.1671114 0.3923299
vt 0.1610946 0.3430746
vt 0.1642299 0.3412796
vt 0.159124 0.336831
vt 0.1627216 0.3365009
vt 0.05118716 0.2580422
vt 0.05160487 0.2544537
vt 0.04665274 0.2559092
vt 0.04915086 0.2532993
vt -0.01447974 0.366074
vt -0.01701597 0.3635011
vt -0.01698447 0.3671138
vt 0.01718343 0.4240017
vt 0.01469752 0.4250857
vt 0.01727896 0.4276133
vt 0.1142925 0.4180572
vt 0.1149933 0.4154373
vt 0.1106868 0.4182827
vt 0.1119816 0.4134418
vt 0.1077895 0.3607714
vt 0.1105349 0.3584229
vt 0.105913 0.3561249
vt 0.1095193 0.3559082
vt 0.0164552 0.3634446
vt 0.01392591 0.3660243
vt 0.01643344 0.3670573
vt 0.04072399 0.4143573
vt 0.03807403 0.4119017
vt 0.0371121 0.4144373
vt 0.04000173 0.3882029
vt 0.03638981 0.3882816
vt 0.03746223 0.3907726
vn 0.18273633192596614 -0.03972848115206555 0.9823589368350009
vn 0.26358003495509 -0.711091905706292 0.6518234936024225
vn 0.35435192835853496 -0.021785499753119483 0.934858333047898
vn 0.09663633137230015 -0.6935554853174112 0.7138922945690289
vn 0.14110611506629053 0.6682943949592156 0.7303914470727286
vn -0.019533862759291223 0.6148316866013437 0.7884164035309312
vn -0.1910290110302296 -0.07271776217364058 0.9788871456962086
vn -0.2585560604711812 -0.5855015001646752 0.7683337535853397
vn -0.22739760189531266 -0.9636449673765037 0.14028081658658126
vn -0.07803771318992232 -0.9958378839573971 0.047085286399695385
vn -0.39168672884925043 0.8866937425967949 0.2456739979791566
vn -0.25124193744760853 0.9549090176003054 0.15819689305796017
vn -0.3496655821718642 0.44064200917384705 0.8267820755166663
vn -0.5412459263366654 -0.09564034335662631 0.8354075484137019
vn -0.5803570370001856 -0.3926357040546821 0.713458417502975
vn -0.5126897771344101 -0.7973280022438207 0.3184607499516179
vn -0.5995511670072213 -0.6917827083692495 -0.4024612807980226
vn -0.4703859971003017 -0.7092234797023257 -0.5251086264487376
vn -0.7157208869578454 0.6166042040573511 -0.3279372920408343
vn -0.592859737919955 0.6701627703146245 -0.44654136699494024
vn -0.6415388774788097 0.6538590052275991 0.40111877289152525
vn -0.633126185312096 0.20168910269177193 0.7473103366925561
vn -0.8439154104702181 -0.10489769959937795 0.5261209486321965
vn -0.7275473963738308 -0.5153226095070091 0.45289887851544347
vn -0.8045631827621298 -0.5841111260763275 -0.10720203980109749
vn -0.6836319066334228 -0.019142808852772947 -0.7295758830320374
vn -0.8018210229389169 -0.03722189942906435 -0.5964038710270764
vn -0.8956729626484192 0.4420327931010481 -0.04875401320803636
vn -0.8021742660453937 0.32518058844420705 0.500773433594089
vn -0.8965954727825381 -0.3918306878252134 0.2063619884190814
vn -0.9631998884496373 -0.07075106719701284 -0.2593072721330616
vn -0.9493646367099886 0.20249400349406932 0.24021441487441017
vn -0.9884749583886324 -0.0945016318216912 0.11826537203099147
vn -0.09663633137230015 0.6935554853174112 -0.7138922945690289
vn -0.18273633192596614 0.03972848115206555 -0.9823589368350009
vn -0.26358003495509 0.711091905706292 -0.6518234936024225
vn -0.35435192835853496 0.021785499753119483 -0.934858333047898
vn 0.019533862759291223 -0.6148316866013437 -0.7884164035309312
vn -0.14110611506629053 -0.6682943949592156 -0.7303914470727286
vn 0.2585560604711812 0.5855015001646752 -0.7683337535853397
vn 0.1910290110302296 0.07271776217364058 -0.9788871456962086
vn 0.07803771318992232 0.9958378839573971 -0.047085286399695385
vn 0.22739760189531266 0.9636449673765037 -0.14028081658658126
vn 0.25124193744760853 -0.9549090176003054 -0.15819689305796017
vn 0.39168672884925043 -0.8866937425967949 -0.2456739979791566
vn 0.3496655821718642 -0.44064200917384705 -0.8267820755166663
vn 0.5803570370001856 0.3926357040546821 -0.713458417502975
vn 0.5412459263366654 0.09564034335662631 -0.8354075484137019
vn 0.5126897771344101 0.7973280022438207 -0.3184607499516179
vn 0.4703859971003017 0.7092234797023257 0.5251086264487376
vn 0.5995511670072213 0.6917827083692495 0.4024612807980226
vn 0.592859737919955 -0.6701627703146245 0.44654136699494024
vn 0.7157208869578454 -0.6166042040573511 0.3279372920408343
vn 0.6415388774788097 -0.6538590052275991 -0.40111877289152525
vn 0.633126185312096 -0.20168910269177193 -0.7473103366925561
vn 0.8439154104702181 0.10489769959937795 -0.5261209486321965
vn 0.7275473963738308 0.5153226095070091 -0.45289887851544347
vn 0.8045631827621298 0.5841111260763275 0.10720203980109749
vn 0.8018210229389169 0.03722189942906435 0.5964038710270764
vn 0.6836319066334228 0.019142808852772947 0.7295758830320374
vn 0.8956729626484192 -0.4420327931010481 0.04875401320803636
vn 0.8021742660453937 -0.32518058844420705 -0.500773433594089
vn 0.8965954727825381 0.3918306878252134 -0.2063619884190814
vn 0.9631998884496373 0.07075106719701284 0.2593072721330616
vn 0.9493646367099886 -0.20249400349406932 -0.24021441487441017
vn 0.9884749583886324 0.0945016318216912 -0.11826537203099147
usemtl material_0_0
f 5/62/34 6/63/35 7/64/36
f 8/65/37 7/64/36 6/63/35
f 11/66/38 12/67/39 6/68/35
f 8/69/37 6/68/35 12/67/39
f 15/70/40 16/71/41 5/72/34
f 6/73/35 5/72/34 16/71/41
f 19/74/42 20/75/43 7/76/36
f 5/77/34 7/76/36 20/75/43
f 23/78/44 12/79/39 24/80/45
f 11/81/38 24/80/45 12/79/39
f 26/82/46 11/83/38 16/84/41
f 6/85/35 16/84/41 11/83/38
f 29/86/47 30/87/48 15/88/40
f 16/89/41 15/88/40 30/87/48
f 20/90/43 32/91/49 5/92/34
f 15/93/40 5/92/34 32/91/49
f 35/94/50 36/95/51 19/96/42
f 20/97/43 19/96/42 36/95/51
f 39/98/52 23/99/44 40/100/53
f 24/101/45 40/100/53 23/99/44
f 24/102/45 11/103/38 42/104/54
f 26/105/46 42/104/54 11/103/38
f 44/106/55 26/107/46 30/108/48
f 16/109/41 30/108/48 26/107/46
f 29/110/47 46/111/56 30/112/48
f 48/113/57 29/114/47 32/115/49
f 15/116/40 32/115/49 29/114/47
f 36/117/51 50/118/58 20/119/43
f 32/120/49 20/119/43 50/118/58
f 53/121/59 36/122/51 54/123/60
f 35/124/50 54/123/60 36/122/51
f 53/125/59 54/126/60 40/127/53
f 39/128/52 40/127/53 54/126/60
f 40/129/53 24/130/45 56/131/61
f 42/132/54 56/131/61 24/130/45
f 42/133/54 26/134/46 58/135/62
f 44/136/55 58/135/62 26/134/46
f 30/137/48 46/138/56 44/139/55
f 29/140/47 48/141/57 46/142/56
f 60/143/63 48/144/57 50/145/58
f 32/146/49 50/145/58 48/144/57
f 62/147/64 50/148/58 53/149/59
f 36/150/51 53/149/59 50/148/58
f 40/151/53 56/152/61 53/153/59
f 62/154/64 53/153/59 56/152/61
f 42/155/54 58/156/62 56/157/61
f 64/158/65 56/157/61 58/156/62
f 44/159/55 46/160/56 58/161/62
f 48/162/57 60/163/63 46/164/56
f 66/165/66 60/166/63 62/167/64
f 50/168/58 62/167/64 60/166/63
f 56/169/61 64/170/65 62/171/64
f 66/172/66 62/171/64 64/170/65
f 46/173/56 64/174/65 58/175/62
f 46/176/56 60/177/63 66/178/66
f 46/179/56 66/180/66 64/181/65
usemtl material_1_0
f 1/1/1 2/2/2 3/3/3
f 2/2/2 1/1/1 4/4/4
f 9/5/5 1/6/1 3/7/3
f 1/6/1 9/5/5 10/8/6
f 13/9/7 4/4/4 1/10/1
f 4/4/4 13/9/7 14/11/8
f 17/12/9 2/2/2 4/13/4
f 2/2/2 17/12/9 18/14/10
f 9/5/5 21/15/11 10/16/6
f 21/15/11 9/5/5 22/17/12
f 10/8/6 13/18/7 1/19/1
f 13/18/7 10/8/6 25/20/13
f 27/21/14 14/11/8 13/22/7
f 14/11/8 27/21/14 28/23/15
f 31/24/16 4/4/4 14/25/8
f 4/4/4 31/24/16 17/12/9
f 33/26/17 18/14/10 17/27/9
f 18/14/10 33/26/17 34/28/18
f 22/17/12 37/29/19 21/30/11
f 37/29/19 22/17/12 38/31/20
f 10/8/6 41/32/21 25/33/13
f 41/32/21 10/8/6 21/15/11
f 25/20/13 27/21/14 13/34/7
f 27/21/14 25/20/13 43/35/22
f 27/21/14 45/36/23 28/23/15
f 28/37/15 31/24/16 14/11/8
f 31/24/16 28/37/15 47/38/24
f 49/39/25 17/12/9 31/40/16
f 17/12/9 49/39/25 33/26/17
f 33/41/17 51/42/26 34/28/18
f 51/42/26 33/41/17 52/43/27
f 51/42/26 37/29/19 38/31/20
f 37/29/19 51/42/26 52/43/27
f 21/15/11 55/44/28 41/45/21
f 55/44/28 21/15/11 37/29/19
f 25/20/13 57/46/29 43/47/22
f 57/46/29 25/20/13 41/32/21
f 43/35/22 45/36/23 27/21/14
f 45/36/23 47/38/24 28/23/15
f 47/48/24 49/39/25 31/24/16
f 49/39/25 47/48/24 59/49/30
f 49/50/25 52/43/27 33/26/17
f 52/43/27 49/50/25 61/51/31
f 55/44/28 52/43/27 61/52/31
f 52/43/27 55/44/28 37/29/19
f 57/53/29 55/44/28 63/54/32
f 55/44/28 57/53/29 41/32/21
f 57/46/29 45/36/23 43/35/22
f 45/36/23 59/49/30 47/38/24
f 59/55/30 61/56/31 49/39/25
f 61/56/31 59/55/30 65/57/33
f 63/54/32 61/58/31 65/59/33
f 61/58/31 63/54/32 55/44/28
f 57/46/29 63/54/32 45/36/23
f 65/60/33 59/49/30 45/36/23
f 63/54/32 65/61/33 45/36/23
