# SSTK version 0.8.0
# 64
mtllib original-64.mtl
o pSphere36/ID561#ID561
v -0.182317 -0.346091 0.326955
v -0.184827 -0.333027 0.338133
v -0.187522 -0.346665 0.333189
v -0.179399 -0.331330 0.332307
v -0.179399 -0.331330 0.332307
v -0.182317 -0.346091 0.326955
v -0.184827 -0.333027 0.338133
v -0.187522 -0.346665 0.333189
v -0.186818 -0.317233 0.331168
v -0.191681 -0.320003 0.337081
v -0.191681 -0.320003 0.337081
v -0.186818 -0.317233 0.331168
v -0.192115 -0.334639 0.341385
v -0.194178 -0.345076 0.337601
v -0.194178 -0.345076 0.337601
v -0.192115 -0.334639 0.341385
v -0.198188 -0.352928 0.325144
v -0.193861 -0.352870 0.318248
v -0.193861 -0.352870 0.318248
v -0.198188 -0.352928 0.325144
v -0.204069 -0.315223 0.330648
v -0.200227 -0.312059 0.324205
v -0.200227 -0.312059 0.324205
v -0.204069 -0.315223 0.330648
v -0.197361 -0.324671 0.340580
v -0.197361 -0.324671 0.340580
v -0.200153 -0.335919 0.341569
v -0.201269 -0.341568 0.339520
v -0.201269 -0.341568 0.339520
v -0.200153 -0.335919 0.341569
v -0.202341 -0.349870 0.331444
v -0.202341 -0.349870 0.331444
v -0.210576 -0.348147 0.318711
v -0.207270 -0.347696 0.311285
v -0.207270 -0.347696 0.311285
v -0.210576 -0.348147 0.318711
v -0.214735 -0.321486 0.322603
v -0.211771 -0.318838 0.315498
v -0.211771 -0.318838 0.315498
v -0.214735 -0.321486 0.322603
v -0.206842 -0.321012 0.335657
v -0.206842 -0.321012 0.335657
v -0.202992 -0.330525 0.341133
v -0.202992 -0.330525 0.341133
v -0.207718 -0.336674 0.338655
v -0.207718 -0.336674 0.338655
v -0.205687 -0.344162 0.336188
v -0.205687 -0.344162 0.336188
v -0.211822 -0.346211 0.326520
v -0.211822 -0.346211 0.326520
v -0.217430 -0.335124 0.317659
v -0.214689 -0.333599 0.310146
v -0.214689 -0.333599 0.310146
v -0.217430 -0.335124 0.317659
v -0.215005 -0.325805 0.329500
v -0.215005 -0.325805 0.329500
v -0.208123 -0.328544 0.338468
v -0.208123 -0.328544 0.338468
v -0.210819 -0.342182 0.333524
v -0.210819 -0.342182 0.333524
v -0.217068 -0.336243 0.325715
v -0.217068 -0.336243 0.325715
v -0.212541 -0.331139 0.335136
v -0.212541 -0.331139 0.335136
v -0.213658 -0.336788 0.333088
v -0.213658 -0.336788 0.333088
vt -0.5089034 0.03307415
vt -0.684344 -0.5929952
vt -0.3870315 -0.227386
vt -0.8307116 -0.3626589
vt 0.4758988 0.1436689
vt 0.6553049 -0.2579642
vt 0.7366736 -0.06713151
vt 0.4143806 -0.06321056
vt -0.2048303 -0.5629701
vt -0.3646146 -0.4606778
vt -0.2219873 -0.3844165
vt -0.2941146 -0.06321223
vt -0.4357177 -0.1653878
vt -0.3556333 0.1436677
vt 0.2878564 0.06057312
vt 0.4380235 -0.008836296
vt 0.3133588 0.2187969
vt 0.273712 -0.4174482
vt 0.4079299 -0.2860816
vt 0.2786491 -0.2468701
vt -0.004617601 -0.4342495
vt -0.01390291 -0.3376171
vt -0.1881346 -0.2113121
vt -0.2592501 -0.336965
vt -0.1675908 0.06057184
vt -0.3177578 -0.008837632
vt -0.1930935 0.2187959
vt 0.1387002 0.1270869
vt 0.2940833 0.0919914
vt 0.1451733 0.256784
vt 0.3197567 -0.1866346
vt 0.2229193 -0.09189466
vt 0.1492208 -0.3747976
vt 0.151893 -0.2824812
vt 0.01574109 -0.2928616
vt -0.1360182 -0.3935999
vt -0.1176973 -0.2999167
vt -0.109393 -0.07495487
vt -0.2062304 -0.1696955
vt -0.01843473 0.1270863
vt -0.1738178 0.09199046
vt -0.02490815 0.2567836
vt 0.2344252 -0.05090741
vt 0.1202658 -4.440892e-16
vt 0.1721662 -0.270588
vt 0.1420052 -0.1867162
vt -0.1124813 -0.2732447
vt -0.06986666 -0.1994486
vt -0.114159 -0.05090812
vt -8.881784e-16 -8.881784e-16
vt 0.1202658 -1.332268e-15
vt 4.440892e-16 -4.440892e-16
vt 0.1482322 -0.1730337
vt 0.1202658 -6.661338e-16
vt 0.09267672 -0.1233004
vt -0.05773418 -0.1784388
vt -4.440892e-16 -8.881784e-16
vt 0.001468944 -0.1378736
vt 0.0834116 -0.1263244
vt -4.440892e-16 -4.440892e-16
vt 0.01832411 -0.1263246
vt 0.1202658 -8.881784e-16
vt -0.1667624 0.07891057
vt -0.1657023 0.07190358
vt -0.1702843 0.07810495
vt -0.1693048 0.07163133
vt -0.1652866 0.05305517
vt -0.1619273 0.05438475
vt -0.1633383 0.04680449
vt -0.1598185 0.04761905
vt -0.1500261 0.09668319
vt -0.150034 0.1016943
vt -0.1464947 0.09592066
vt -0.146505 0.1024679
vt -0.1668333 0.02539739
vt -0.1704456 0.0253375
vt -0.1674795 0.0324546
vt -0.1710426 0.03185751
vt -0.1156157 -0.06909397
vt -0.1103128 -0.07379516
vt -0.1178038 -0.07196875
vt -0.1129046 -0.07631208
vt -0.1383259 0.04667612
vt -0.1354167 0.04881817
vt -0.1362807 0.04210142
vt -0.1327444 0.04284104
vt -0.1040125 0.115498
vt -0.1035942 0.1181775
vt -0.1008059 0.1138339
vt -0.1000328 0.1187849
vt -0.1231791 0.1342267
vt -0.1256522 0.1368604
vt -0.1194683 0.1396209
vt -0.1228121 0.1409889
vt 0.1674934 0.02466546
vt 0.1710534 0.02405009
vt 0.166811 0.01761165
vt 0.1704229 0.01753323
vt 0.1246639 -0.05214225
vt 0.1292324 -0.04672461
vt 0.127592 -0.05425853
vt 0.1318127 -0.04925328
vt -0.07010687 -0.05255601
vt -0.06923477 -0.04905006
vt -0.06561235 -0.05477188
vt -0.06336239 -0.05194523
vt -0.0939723 0.06132565
vt -0.09147128 0.06393277
vt -0.09271433 0.05892308
vt -0.08914685 0.05949341
vt -0.03513635 0.1155524
vt -0.03590786 0.1129525
vt -0.0387324 0.1152051
vt -0.0629861 0.1622591
vt -0.06077586 0.1638306
vt -0.0619383 0.1588016
vt -0.05785429 0.1617054
vt 0.1004951 0.1536144
vt 0.103565 0.155519
vt 0.1050506 0.1489118
vt 0.1070517 0.1519198
vt 0.1665557 0.07809257
vt 0.1700878 0.07733338
vt 0.1655879 0.07107224
vt 0.1691937 0.07084744
vt 0.162135 0.06179924
vt 0.1655338 0.06057439
vt 0.1602368 0.05497146
vt 0.1637801 0.05426633
vt 0.08163024 -0.03699857
vt 0.08295276 -0.04036058
vt 0.07618627 -0.04063589
vt 0.07878613 -0.04314447
vt -0.03953219 0.004168737
vt -0.03941029 0.007779469
vt -0.03699175 0.003219566
vt -0.03471616 0.00602561
vt -0.03368421 0.0928298
vt -0.0324364 0.09042194
vt -0.03603345 0.09008511
vt -0.01695563 0.1315772
vt -0.01936432 0.130331
vt -0.01969874 0.1339283
vt 0.04133563 0.1672237
vt 0.04392314 0.169745
vt 0.04579302 0.164934
vt 0.04633546 0.1685058
vt 0.1474945 0.1078113
vt 0.1477854 0.1028087
vt 0.1439257 0.1083732
vt 0.1443057 0.101837
vt 0.1362901 0.05909232
vt 0.1393346 0.05714736
vt 0.134019 0.05295155
vt 0.1375964 0.05244742
vt 0.04548698 0.01326242
vt 0.04601703 0.00968872
vt 0.04102168 0.01098821
vt 0.04360042 0.008457939
vt -0.0121592 0.0749252
vt -0.014527 0.07219652
vt -0.01472487 0.07580387
vt 0.01130495 0.1355001
vt 0.01139488 0.1318884
vt 0.008856611 0.1328434
vt 0.0979904 0.1261298
vt 0.09866232 0.1235023
vt 0.09438736 0.1263949
vt 0.09562891 0.12154
vt 0.09150886 0.07254565
vt 0.09423786 0.07017823
vt 0.08960022 0.0679123
vt 0.09320492 0.06767067
vt 0.01387858 0.0773523
vt 0.01407236 0.07374472
vt 0.01142309 0.07620106
vt 0.03052759 0.1162214
vt 0.02947314 0.1187199
vt 0.03308553 0.1187727
vt 0.0334982 0.09365154
vt 0.02988578 0.0936006
vt 0.03086813 0.09612841
vn 0.5924413498946414 -0.6798564291800572 0.43221346882941675
vn 0.5990435456172528 -0.023402090754167326 0.8003743952692666
vn 0.46897788070748186 -0.681525428280641 0.5617676014278572
vn 0.7295651090644621 0.01397912976064294 0.6837684809691761
vn 0.3808598360401304 0.6765729723980524 0.6302339234855173
vn 0.26828686999046486 0.6050860185847452 0.7495952677972165
vn 0.26715471605357016 -0.09827459991213017 0.9586294699739034
vn 0.1651462527989842 -0.6144285240371785 0.7714948502977504
vn -0.04572021856728628 -0.9837637320876456 0.17354705714343563
vn 0.04981433017629295 -0.9984953220271325 0.02292649992956058
vn -0.32953934399245993 0.835780282710439 0.4391755227622298
vn -0.24940820927961335 0.919785375650922 0.3029693183849295
vn 0.007748279077373174 0.3946373979462151 0.9188042709487042
vn -0.10628228715298946 -0.1598494060424283 0.9814032009451631
vn -0.16536348460631384 -0.45879687612732406 0.8730179519429518
vn -0.23852209141373912 -0.851468488342809 0.4670210115903006
vn -0.6435461894686013 -0.7530700317291115 -0.13687157970871022
vn -0.5804538940162791 -0.755282712199081 -0.3043374797400712
vn -0.8442369984967204 0.5335423127331232 0.050955773889112106
vn -0.7920355010633925 0.6011459252012368 -0.10631717485528709
vn -0.461115751395154 0.575566894488023 0.6753480686169876
vn -0.2565251575523243 0.1256375952381178 0.958337121375113
vn -0.5115414755677005 -0.20172580105922888 0.8352436889680951
vn -0.39916061545083226 -0.5960859875252408 0.6966723035609866
vn -0.7073869028388614 -0.6705391126172295 0.2235644608217986
vn -0.9743032058841175 -0.12458139805001342 -0.18765057490941867
vn -0.929159099290777 -0.09268954709103637 -0.3578715077583163
vn -0.86478437922594 0.3385266912215052 0.3708741791732413
vn -0.5280830704448111 0.23042730022407432 0.8173319582770668
vn -0.6707192508453651 -0.49129517639517367 0.5556660293704012
vn -0.9667928981334786 -0.1776273000661893 0.18373903882916434
vn -0.7618811107108099 0.09313839627761174 0.6409855008351574
vn -0.8209627269571148 -0.20580909011493406 0.5326000557390137
vn -0.7295651090644621 -0.01397912976064294 -0.6837684809691761
vn -0.5924413498946414 0.6798564291800572 -0.43221346882941675
vn -0.5990435456172528 0.023402090754167326 -0.8003743952692666
vn -0.46897788070748186 0.681525428280641 -0.5617676014278572
vn -0.26828686999046486 -0.6050860185847452 -0.7495952677972165
vn -0.3808598360401304 -0.6765729723980524 -0.6302339234855173
vn -0.1651462527989842 0.6144285240371785 -0.7714948502977504
vn -0.26715471605357016 0.09827459991213017 -0.9586294699739034
vn -0.04981433017629295 0.9984953220271325 -0.02292649992956058
vn 0.04572021856728628 0.9837637320876456 -0.17354705714343563
vn 0.24940820927961335 -0.919785375650922 -0.3029693183849295
vn 0.32953934399245993 -0.835780282710439 -0.4391755227622298
vn -0.007748279077373174 -0.3946373979462151 -0.9188042709487042
vn 0.16536348460631384 0.45879687612732406 -0.8730179519429518
vn 0.10628228715298946 0.1598494060424283 -0.9814032009451631
vn 0.23852209141373912 0.851468488342809 -0.4670210115903006
vn 0.5804538940162791 0.755282712199081 0.3043374797400712
vn 0.6435461894686013 0.7530700317291115 0.13687157970871022
vn 0.7920355010633925 -0.6011459252012368 0.10631717485528709
vn 0.8442369984967204 -0.5335423127331232 -0.050955773889112106
vn 0.461115751395154 -0.575566894488023 -0.6753480686169876
vn 0.2565251575523243 -0.1256375952381178 -0.958337121375113
vn 0.5115414755677005 0.20172580105922888 -0.8352436889680951
vn 0.39916061545083226 0.5960859875252408 -0.6966723035609866
vn 0.7073869028388614 0.6705391126172295 -0.2235644608217986
vn 0.929159099290777 0.09268954709103637 0.3578715077583163
vn 0.9743032058841175 0.12458139805001342 0.18765057490941867
vn 0.86478437922594 -0.3385266912215052 -0.3708741791732413
vn 0.5280830704448111 -0.23042730022407432 -0.8173319582770668
vn 0.6707192508453651 0.49129517639517367 -0.5556660293704012
vn 0.9667928981334786 0.1776273000661893 -0.18373903882916434
vn 0.7618811107108099 -0.09313839627761174 -0.6409855008351574
vn 0.8209627269571148 0.20580909011493406 -0.5326000557390137
usemtl material_0_0
f 5/63/34 6/64/35 7/65/36
f 8/66/37 7/65/36 6/64/35
f 11/67/38 12/68/39 7/69/36
f 5/70/34 7/69/36 12/68/39
f 15/71/40 16/72/41 8/73/37
f 7/74/36 8/73/37 16/72/41
f 19/75/42 20/76/43 6/77/35
f 8/78/37 6/77/35 20/76/43
f 23/79/44 12/80/39 24/81/45
f 11/82/38 24/81/45 12/80/39
f 26/83/46 11/84/38 16/85/41
f 7/86/36 16/85/41 11/84/38
f 29/87/47 30/88/48 15/89/40
f 16/90/41 15/89/40 30/88/48
f 20/91/43 32/92/49 8/93/37
f 15/94/40 8/93/37 32/92/49
f 35/95/50 36/96/51 19/97/42
f 20/98/43 19/97/42 36/96/51
f 39/99/52 23/100/44 40/101/53
f 24/102/45 40/101/53 23/100/44
f 42/103/54 24/104/45 26/105/46
f 11/106/38 26/105/46 24/104/45
f 44/107/55 26/108/46 30/109/48
f 16/110/41 30/109/48 26/108/46
f 30/111/48 29/112/47 46/113/56
f 48/114/57 29/115/47 32/116/49
f 15/117/40 32/116/49 29/115/47
f 36/118/51 50/119/58 20/120/43
f 32/121/49 20/120/43 50/119/58
f 53/122/59 54/123/60 35/124/50
f 36/125/51 35/124/50 54/123/60
f 39/126/52 40/127/53 53/128/59
f 54/129/60 53/128/59 40/127/53
f 24/130/45 42/131/54 40/132/53
f 56/133/61 40/132/53 42/131/54
f 58/134/62 42/135/54 44/136/55
f 26/137/46 44/136/55 42/135/54
f 44/138/55 30/139/48 46/140/56
f 29/141/47 48/142/57 46/143/56
f 50/144/58 60/145/63 32/146/49
f 48/147/57 32/146/49 60/145/63
f 62/148/64 50/149/58 54/150/60
f 36/151/51 54/150/60 50/149/58
f 40/152/53 56/153/61 54/154/60
f 62/155/64 54/154/60 56/153/61
f 42/156/54 58/157/62 56/158/61
f 64/159/65 56/158/61 58/157/62
f 44/160/55 46/161/56 58/162/62
f 46/163/56 48/164/57 60/165/63
f 66/166/66 60/167/63 62/168/64
f 50/169/58 62/168/64 60/167/63
f 56/170/61 64/171/65 62/172/64
f 66/173/66 62/172/64 64/171/65
f 58/174/62 46/175/56 64/176/65
f 60/177/63 66/178/66 46/179/56
f 46/180/56 66/181/66 64/182/65
usemtl material_1_0
f 1/1/1 2/2/2 3/3/3
f 2/2/2 1/1/1 4/4/4
f 9/5/5 2/6/2 4/7/4
f 2/6/2 9/5/5 10/8/6
f 13/9/7 3/3/3 2/10/2
f 3/3/3 13/9/7 14/11/8
f 17/12/9 1/1/1 3/13/3
f 1/1/1 17/12/9 18/14/10
f 9/5/5 21/15/11 10/16/6
f 21/15/11 9/5/5 22/17/12
f 10/8/6 13/18/7 2/19/2
f 13/18/7 10/8/6 25/20/13
f 27/21/14 14/11/8 13/9/7
f 14/11/8 27/21/14 28/22/15
f 31/23/16 3/3/3 14/24/8
f 3/3/3 31/23/16 17/12/9
f 33/25/17 18/14/10 17/26/9
f 18/14/10 33/25/17 34/27/18
f 22/17/12 37/28/19 21/29/11
f 37/28/19 22/17/12 38/30/20
f 21/15/11 25/31/13 10/8/6
f 25/31/13 21/15/11 41/32/21
f 25/20/13 27/33/14 13/18/7
f 27/33/14 25/20/13 43/34/22
f 45/35/23 28/36/15 27/21/14
f 28/36/15 31/23/16 14/11/8
f 31/23/16 28/36/15 47/37/24
f 49/38/25 17/12/9 31/39/16
f 17/12/9 49/38/25 33/25/17
f 51/40/26 34/27/18 33/41/17
f 34/27/18 51/40/26 52/42/27
f 37/28/19 52/42/27 51/40/26
f 52/42/27 37/28/19 38/30/20
f 41/43/21 37/28/19 55/44/28
f 37/28/19 41/43/21 21/15/11
f 41/32/21 43/45/22 25/20/13
f 43/45/22 41/32/21 57/46/29
f 45/35/23 27/21/14 43/34/22
f 45/35/23 47/47/24 28/36/15
f 59/48/30 31/23/16 47/47/24
f 31/23/16 59/48/30 49/38/25
f 49/49/25 51/40/26 33/25/17
f 51/40/26 49/49/25 61/50/31
f 55/51/28 51/40/26 61/52/31
f 51/40/26 55/51/28 37/28/19
f 57/53/29 55/54/28 63/55/32
f 55/54/28 57/53/29 41/32/21
f 57/46/29 45/35/23 43/34/22
f 59/56/30 47/47/24 45/35/23
f 59/56/30 61/57/31 49/38/25
f 61/57/31 59/56/30 65/58/33
f 63/59/32 61/60/31 65/61/33
f 61/60/31 63/59/32 55/62/28
f 63/55/32 45/35/23 57/46/29
f 45/35/23 65/61/33 59/56/30
f 63/55/32 65/61/33 45/35/23
