# SSTK version 0.8.0
# 37
mtllib original-37.mtl
o mesh33/mesh33-geometry/material_0/component_1#mesh33-geometry
v -0.424134 0.645179 0.368844
v -0.042800 0.390227 0.368844
v 0.419885 0.645179 0.368844
v -0.424134 -0.686946 0.368844
v -0.043955 0.010894 0.368844
v -0.424134 0.645179 0.368844
v -0.042800 0.390227 0.368844
v -0.424134 0.645179 0.368844
v -0.059648 0.377299 0.368844
v 0.419885 0.645179 0.368844
v -0.042800 0.390227 0.368844
v -0.023180 0.398354 0.368844
v 0.419885 0.645179 0.368844
v 0.302942 0.401126 0.368844
v 0.419885 -0.686946 0.368844
v -0.043955 0.010894 0.368844
v -0.424134 -0.686946 0.368844
v 0.419885 -0.686946 0.368844
v -0.424134 0.645179 0.368844
v -0.043955 0.010894 0.368844
v -0.048781 0.022544 0.368844
v -0.059648 0.377299 0.368844
v -0.424134 0.645179 0.368844
v -0.072577 0.360450 0.368844
v 0.419885 0.645179 0.368844
v -0.023180 0.398354 0.368844
v -0.002124 0.401126 0.368844
v 0.419885 0.645179 0.368844
v 0.140240 0.401126 0.368844
v 0.302942 0.401126 0.368844
v 0.302942 0.360450 0.368844
v 0.419885 -0.686946 0.368844
v 0.302942 0.401126 0.368844
v -0.043955 0.010894 0.368844
v 0.419885 -0.686946 0.368844
v -0.036279 0.000891 0.368844
v -0.424134 0.645179 0.368844
v -0.048781 0.022544 0.368844
v -0.050427 0.035046 0.368844
v -0.072577 0.360450 0.368844
v -0.424134 0.645179 0.368844
v -0.080704 0.340830 0.368844
v 0.419885 0.645179 0.368844
v -0.002124 0.401126 0.368844
v 0.018931 0.398354 0.368844
v 0.419885 0.645179 0.368844
v 0.068328 0.360450 0.368844
v 0.140240 0.401126 0.368844
v 0.302942 0.238423 0.368844
v 0.419885 -0.686946 0.368844
v 0.302942 0.360450 0.368844
v -0.036279 0.000891 0.368844
v 0.419885 -0.686946 0.368844
v -0.026276 -0.006785 0.368844
v -0.424134 0.645179 0.368844
v -0.050427 0.035046 0.368844
v -0.083476 0.319775 0.368844
v -0.080704 0.340830 0.368844
v -0.424134 0.645179 0.368844
v -0.083476 0.319775 0.368844
v 0.419885 0.645179 0.368844
v 0.018931 0.398354 0.368844
v 0.038551 0.390227 0.368844
v 0.419885 0.645179 0.368844
v 0.055400 0.377299 0.368844
v 0.068328 0.360450 0.368844
v 0.140240 0.401126 0.368844
v 0.068328 0.360450 0.368844
v 0.076455 0.340830 0.368844
v 0.140240 0.238423 0.368844
v 0.419885 -0.686946 0.368844
v 0.302942 0.238423 0.368844
v -0.026276 -0.006785 0.368844
v 0.419885 -0.686946 0.368844
v -0.014626 -0.011611 0.368844
v -0.083476 0.319775 0.368844
v -0.050427 0.035046 0.368844
v -0.080704 0.298719 0.368844
v 0.419885 0.645179 0.368844
v 0.038551 0.390227 0.368844
v 0.055400 0.377299 0.368844
v 0.140240 0.401126 0.368844
v 0.076455 0.340830 0.368844
v 0.079227 0.319775 0.368844
v 0.140240 0.401126 0.368844
v 0.140240 0.238423 0.368844
v 0.140240 0.360450 0.368844
v 0.079227 0.319775 0.368844
v 0.419885 -0.686946 0.368844
v 0.140240 0.238423 0.368844
v -0.014626 -0.011611 0.368844
v 0.419885 -0.686946 0.368844
v -0.002124 -0.013257 0.368844
v -0.080704 0.298719 0.368844
v -0.050427 0.035046 0.368844
v -0.072577 0.279099 0.368844
v 0.140240 0.401126 0.368844
v 0.079227 0.319775 0.368844
v 0.140240 0.238423 0.368844
v 0.076455 0.298719 0.368844
v 0.419885 -0.686946 0.368844
v 0.079227 0.319775 0.368844
v -0.002124 -0.013257 0.368844
v 0.419885 -0.686946 0.368844
v 0.010377 -0.011611 0.368844
v -0.042800 0.249322 0.368844
v -0.050427 0.035046 0.368844
v -0.048781 0.047547 0.368844
v -0.072577 0.279099 0.368844
v -0.050427 0.035046 0.368844
v -0.059648 0.262251 0.368844
v 0.068328 0.279099 0.368844
v 0.419885 -0.686946 0.368844
v 0.076455 0.298719 0.368844
v 0.010377 -0.011611 0.368844
v 0.419885 -0.686946 0.368844
v 0.022027 -0.006785 0.368844
v -0.050427 0.035046 0.368844
v -0.042800 0.249322 0.368844
v -0.059648 0.262251 0.368844
v -0.042800 0.249322 0.368844
v -0.048781 0.047547 0.368844
v -0.043955 0.059197 0.368844
v 0.055400 0.262251 0.368844
v 0.419885 -0.686946 0.368844
v 0.068328 0.279099 0.368844
v 0.022027 -0.006785 0.368844
v 0.419885 -0.686946 0.368844
v 0.032030 0.000891 0.368844
v -0.042800 0.249322 0.368844
v -0.043955 0.059197 0.368844
v -0.036279 0.069200 0.368844
v 0.046178 0.035046 0.368844
v 0.419885 -0.686946 0.368844
v 0.055400 0.262251 0.368844
v 0.032030 0.000891 0.368844
v 0.419885 -0.686946 0.368844
v 0.039707 0.010894 0.368844
v -0.042800 0.249322 0.368844
v -0.036279 0.069200 0.368844
v -0.023180 0.241195 0.368844
v 0.044532 0.022544 0.368844
v 0.419885 -0.686946 0.368844
v 0.046178 0.035046 0.368844
v 0.055400 0.262251 0.368844
v 0.044532 0.047547 0.368844
v 0.046178 0.035046 0.368844
v 0.039707 0.010894 0.368844
v 0.419885 -0.686946 0.368844
v 0.044532 0.022544 0.368844
v -0.023180 0.241195 0.368844
v -0.036279 0.069200 0.368844
v -0.026276 0.076877 0.368844
v 0.055400 0.262251 0.368844
v 0.039707 0.059197 0.368844
v 0.044532 0.047547 0.368844
v 0.038551 0.249322 0.368844
v 0.039707 0.059197 0.368844
v 0.055400 0.262251 0.368844
v -0.023180 0.241195 0.368844
v -0.026276 0.076877 0.368844
v -0.014626 0.081702 0.368844
v 0.038551 0.249322 0.368844
v 0.032030 0.069200 0.368844
v 0.039707 0.059197 0.368844
v -0.023180 0.241195 0.368844
v -0.014626 0.081702 0.368844
v -0.002124 0.238423 0.368844
v 0.018931 0.241195 0.368844
v 0.022027 0.076877 0.368844
v 0.038551 0.249322 0.368844
v 0.038551 0.249322 0.368844
v 0.022027 0.076877 0.368844
v 0.032030 0.069200 0.368844
v -0.002124 0.238423 0.368844
v -0.014626 0.081702 0.368844
v -0.002124 0.083348 0.368844
v 0.018931 0.241195 0.368844
v 0.010377 0.081702 0.368844
v 0.022027 0.076877 0.368844
v -0.002124 0.238423 0.368844
v -0.002124 0.083348 0.368844
v 0.010377 0.081702 0.368844
v -0.002124 0.238423 0.368844
v 0.010377 0.081702 0.368844
v 0.018931 0.241195 0.368844
v 0.419885 0.645179 0.368844
v -0.042800 0.390227 0.368844
v -0.424134 0.645179 0.368844
v -0.424134 0.645179 0.368844
v -0.043955 0.010894 0.368844
v -0.424134 -0.686946 0.368844
v -0.059648 0.377299 0.368844
v -0.424134 0.645179 0.368844
v -0.042800 0.390227 0.368844
v -0.023180 0.398354 0.368844
v -0.042800 0.390227 0.368844
v 0.419885 0.645179 0.368844
v 0.419885 -0.686946 0.368844
v 0.302942 0.401126 0.368844
v 0.419885 0.645179 0.368844
v 0.419885 -0.686946 0.368844
v -0.424134 -0.686946 0.368844
v -0.043955 0.010894 0.368844
v -0.048781 0.022544 0.368844
v -0.043955 0.010894 0.368844
v -0.424134 0.645179 0.368844
v -0.072577 0.360450 0.368844
v -0.424134 0.645179 0.368844
v -0.059648 0.377299 0.368844
v -0.002124 0.401126 0.368844
v -0.023180 0.398354 0.368844
v 0.419885 0.645179 0.368844
v 0.302942 0.401126 0.368844
v 0.140240 0.401126 0.368844
v 0.419885 0.645179 0.368844
v 0.302942 0.401126 0.368844
v 0.419885 -0.686946 0.368844
v 0.302942 0.360450 0.368844
v -0.036279 0.000891 0.368844
v 0.419885 -0.686946 0.368844
v -0.043955 0.010894 0.368844
v -0.050427 0.035046 0.368844
v -0.048781 0.022544 0.368844
v -0.424134 0.645179 0.368844
v -0.080704 0.340830 0.368844
v -0.424134 0.645179 0.368844
v -0.072577 0.360450 0.368844
v 0.018931 0.398354 0.368844
v -0.002124 0.401126 0.368844
v 0.419885 0.645179 0.368844
v 0.140240 0.401126 0.368844
v 0.068328 0.360450 0.368844
v 0.419885 0.645179 0.368844
v 0.302942 0.360450 0.368844
v 0.419885 -0.686946 0.368844
v 0.302942 0.238423 0.368844
v -0.026276 -0.006785 0.368844
v 0.419885 -0.686946 0.368844
v -0.036279 0.000891 0.368844
v -0.083476 0.319775 0.368844
v -0.050427 0.035046 0.368844
v -0.424134 0.645179 0.368844
v -0.083476 0.319775 0.368844
v -0.424134 0.645179 0.368844
v -0.080704 0.340830 0.368844
v 0.038551 0.390227 0.368844
v 0.018931 0.398354 0.368844
v 0.419885 0.645179 0.368844
v 0.068328 0.360450 0.368844
v 0.055400 0.377299 0.368844
v 0.419885 0.645179 0.368844
v 0.076455 0.340830 0.368844
v 0.068328 0.360450 0.368844
v 0.140240 0.401126 0.368844
v 0.302942 0.238423 0.368844
v 0.419885 -0.686946 0.368844
v 0.140240 0.238423 0.368844
v -0.014626 -0.011611 0.368844
v 0.419885 -0.686946 0.368844
v -0.026276 -0.006785 0.368844
v -0.080704 0.298719 0.368844
v -0.050427 0.035046 0.368844
v -0.083476 0.319775 0.368844
v 0.055400 0.377299 0.368844
v 0.038551 0.390227 0.368844
v 0.419885 0.645179 0.368844
v 0.079227 0.319775 0.368844
v 0.076455 0.340830 0.368844
v 0.140240 0.401126 0.368844
v 0.140240 0.360450 0.368844
v 0.140240 0.238423 0.368844
v 0.140240 0.401126 0.368844
v 0.140240 0.238423 0.368844
v 0.419885 -0.686946 0.368844
v 0.079227 0.319775 0.368844
v -0.002124 -0.013257 0.368844
v 0.419885 -0.686946 0.368844
v -0.014626 -0.011611 0.368844
v -0.072577 0.279099 0.368844
v -0.050427 0.035046 0.368844
v -0.080704 0.298719 0.368844
v 0.140240 0.238423 0.368844
v 0.079227 0.319775 0.368844
v 0.140240 0.401126 0.368844
v 0.079227 0.319775 0.368844
v 0.419885 -0.686946 0.368844
v 0.076455 0.298719 0.368844
v 0.010377 -0.011611 0.368844
v 0.419885 -0.686946 0.368844
v -0.002124 -0.013257 0.368844
v -0.048781 0.047547 0.368844
v -0.050427 0.035046 0.368844
v -0.042800 0.249322 0.368844
v -0.059648 0.262251 0.368844
v -0.050427 0.035046 0.368844
v -0.072577 0.279099 0.368844
v 0.076455 0.298719 0.368844
v 0.419885 -0.686946 0.368844
v 0.068328 0.279099 0.368844
v 0.022027 -0.006785 0.368844
v 0.419885 -0.686946 0.368844
v 0.010377 -0.011611 0.368844
v -0.059648 0.262251 0.368844
v -0.042800 0.249322 0.368844
v -0.050427 0.035046 0.368844
v -0.043955 0.059197 0.368844
v -0.048781 0.047547 0.368844
v -0.042800 0.249322 0.368844
v 0.068328 0.279099 0.368844
v 0.419885 -0.686946 0.368844
v 0.055400 0.262251 0.368844
v 0.032030 0.000891 0.368844
v 0.419885 -0.686946 0.368844
v 0.022027 -0.006785 0.368844
v -0.036279 0.069200 0.368844
v -0.043955 0.059197 0.368844
v -0.042800 0.249322 0.368844
v 0.055400 0.262251 0.368844
v 0.419885 -0.686946 0.368844
v 0.046178 0.035046 0.368844
v 0.039707 0.010894 0.368844
v 0.419885 -0.686946 0.368844
v 0.032030 0.000891 0.368844
v -0.023180 0.241195 0.368844
v -0.036279 0.069200 0.368844
v -0.042800 0.249322 0.368844
v 0.046178 0.035046 0.368844
v 0.419885 -0.686946 0.368844
v 0.044532 0.022544 0.368844
v 0.046178 0.035046 0.368844
v 0.044532 0.047547 0.368844
v 0.055400 0.262251 0.368844
v 0.044532 0.022544 0.368844
v 0.419885 -0.686946 0.368844
v 0.039707 0.010894 0.368844
v -0.026276 0.076877 0.368844
v -0.036279 0.069200 0.368844
v -0.023180 0.241195 0.368844
v 0.044532 0.047547 0.368844
v 0.039707 0.059197 0.368844
v 0.055400 0.262251 0.368844
v 0.055400 0.262251 0.368844
v 0.039707 0.059197 0.368844
v 0.038551 0.249322 0.368844
v -0.014626 0.081702 0.368844
v -0.026276 0.076877 0.368844
v -0.023180 0.241195 0.368844
v 0.039707 0.059197 0.368844
v 0.032030 0.069200 0.368844
v 0.038551 0.249322 0.368844
v -0.002124 0.238423 0.368844
v -0.014626 0.081702 0.368844
v -0.023180 0.241195 0.368844
v 0.038551 0.249322 0.368844
v 0.022027 0.076877 0.368844
v 0.018931 0.241195 0.368844
v 0.032030 0.069200 0.368844
v 0.022027 0.076877 0.368844
v 0.038551 0.249322 0.368844
v -0.002124 0.083348 0.368844
v -0.014626 0.081702 0.368844
v -0.002124 0.238423 0.368844
v 0.022027 0.076877 0.368844
v 0.010377 0.081702 0.368844
v 0.018931 0.241195 0.368844
v 0.010377 0.081702 0.368844
v -0.002124 0.083348 0.368844
v -0.002124 0.238423 0.368844
v 0.018931 0.241195 0.368844
v 0.010377 0.081702 0.368844
v -0.002124 0.238423 0.368844
vn 0 0 1
vn 0 0 -1
usemtl material_0_0
f 1//1 2//1 3//1
f 4//1 5//1 6//1
f 7//1 8//1 9//1
f 10//1 11//1 12//1
f 13//1 14//1 15//1
f 16//1 17//1 18//1
f 19//1 20//1 21//1
f 22//1 23//1 24//1
f 25//1 26//1 27//1
f 28//1 29//1 30//1
f 31//1 32//1 33//1
f 34//1 35//1 36//1
f 37//1 38//1 39//1
f 40//1 41//1 42//1
f 43//1 44//1 45//1
f 46//1 47//1 48//1
f 49//1 50//1 51//1
f 52//1 53//1 54//1
f 55//1 56//1 57//1
f 58//1 59//1 60//1
f 61//1 62//1 63//1
f 64//1 65//1 66//1
f 67//1 68//1 69//1
f 70//1 71//1 72//1
f 73//1 74//1 75//1
f 76//1 77//1 78//1
f 79//1 80//1 81//1
f 82//1 83//1 84//1
f 85//1 86//1 87//1
f 88//1 89//1 90//1
f 91//1 92//1 93//1
f 94//1 95//1 96//1
f 97//1 98//1 99//1
f 100//1 101//1 102//1
f 103//1 104//1 105//1
f 106//1 107//1 108//1
f 109//1 110//1 111//1
f 112//1 113//1 114//1
f 115//1 116//1 117//1
f 118//1 119//1 120//1
f 121//1 122//1 123//1
f 124//1 125//1 126//1
f 127//1 128//1 129//1
f 130//1 131//1 132//1
f 133//1 134//1 135//1
f 136//1 137//1 138//1
f 139//1 140//1 141//1
f 142//1 143//1 144//1
f 145//1 146//1 147//1
f 148//1 149//1 150//1
f 151//1 152//1 153//1
f 154//1 155//1 156//1
f 157//1 158//1 159//1
f 160//1 161//1 162//1
f 163//1 164//1 165//1
f 166//1 167//1 168//1
f 169//1 170//1 171//1
f 172//1 173//1 174//1
f 175//1 176//1 177//1
f 178//1 179//1 180//1
f 181//1 182//1 183//1
f 184//1 185//1 186//1
usemtl material_1_0
f 187//2 188//2 189//2
f 190//2 191//2 192//2
f 193//2 194//2 195//2
f 196//2 197//2 198//2
f 199//2 200//2 201//2
f 202//2 203//2 204//2
f 205//2 206//2 207//2
f 208//2 209//2 210//2
f 211//2 212//2 213//2
f 214//2 215//2 216//2
f 217//2 218//2 219//2
f 220//2 221//2 222//2
f 223//2 224//2 225//2
f 226//2 227//2 228//2
f 229//2 230//2 231//2
f 232//2 233//2 234//2
f 235//2 236//2 237//2
f 238//2 239//2 240//2
f 241//2 242//2 243//2
f 244//2 245//2 246//2
f 247//2 248//2 249//2
f 250//2 251//2 252//2
f 253//2 254//2 255//2
f 256//2 257//2 258//2
f 259//2 260//2 261//2
f 262//2 263//2 264//2
f 265//2 266//2 267//2
f 268//2 269//2 270//2
f 271//2 272//2 273//2
f 274//2 275//2 276//2
f 277//2 278//2 279//2
f 280//2 281//2 282//2
f 283//2 284//2 285//2
f 286//2 287//2 288//2
f 289//2 290//2 291//2
f 292//2 293//2 294//2
f 295//2 296//2 297//2
f 298//2 299//2 300//2
f 301//2 302//2 303//2
f 304//2 305//2 306//2
f 307//2 308//2 309//2
f 310//2 311//2 312//2
f 313//2 314//2 315//2
f 316//2 317//2 318//2
f 319//2 320//2 321//2
f 322//2 323//2 324//2
f 325//2 326//2 327//2
f 328//2 329//2 330//2
f 331//2 332//2 333//2
f 334//2 335//2 336//2
f 337//2 338//2 339//2
f 340//2 341//2 342//2
f 343//2 344//2 345//2
f 346//2 347//2 348//2
f 349//2 350//2 351//2
f 352//2 353//2 354//2
f 355//2 356//2 357//2
f 358//2 359//2 360//2
f 361//2 362//2 363//2
f 364//2 365//2 366//2
f 367//2 368//2 369//2
f 370//2 371//2 372//2
