# SSTK version 0.8.0
# 12
mtllib original-12.mtl
o __1_1/__12/mesh12/mesh12-geometry#mesh12-geometry
v 0.033627 0.282574 0.404486
v 0.032933 0.279800 0.404486
v 0.032744 0.282574 0.404486
v 0.032718 0.278938 0.404486
v 0.032058 0.279800 0.404486
v 0.034718 0.278938 0.404486
v 0.032051 0.276291 0.404486
v 0.034933 0.279800 0.404486
v 0.031835 0.278938 0.404486
v 0.034906 0.276291 0.404486
v 0.030677 0.278938 0.404486
v 0.031829 0.275429 0.404486
v 0.035573 0.278938 0.404486
v 0.034684 0.275429 0.404486
v 0.030677 0.279800 0.404486
v 0.031169 0.276291 0.404486
v 0.033829 0.275429 0.404486
v 0.035627 0.282574 0.404486
v 0.034051 0.276291 0.404486
v 0.035990 0.275429 0.404486
v 0.030994 0.272426 0.404486
v 0.035788 0.279800 0.404486
v 0.033849 0.272426 0.404486
v 0.035990 0.276291 0.404486
v 0.030946 0.275429 0.404486
v 0.036482 0.282574 0.404486
v 0.036967 0.278938 0.404486
v 0.029903 0.275429 0.404486
v 0.030118 0.272426 0.404486
v 0.032994 0.272426 0.404486
v 0.036967 0.279800 0.404486
v 0.029903 0.276291 0.404486
vn 0 0 -1
vn 0 0 1
usemtl material_0_0
f 1//1 2//1 3//1
f 3//2 2//2 1//2
f 4//1 3//1 2//1
f 2//2 3//2 4//2
f 4//1 5//1 3//1
f 3//2 5//2 4//2
f 4//1 2//1 6//1
f 6//2 2//2 4//2
f 7//1 5//1 4//1
f 4//2 5//2 7//2
f 6//1 2//1 8//1
f 8//2 2//2 6//2
f 9//1 5//1 7//1
f 7//2 5//2 9//2
f 6//1 8//1 10//1
f 10//2 8//2 6//2
f 11//1 5//1 9//1
f 9//2 5//2 11//2
f 12//1 9//1 7//1
f 7//2 9//2 12//2
f 10//1 8//1 13//1
f 13//2 8//2 10//2
f 14//1 6//1 10//1
f 10//2 6//2 14//2
f 5//1 11//1 15//1
f 15//2 11//2 5//2
f 12//1 16//1 9//1
f 9//2 16//2 12//2
f 12//1 7//1 17//1
f 17//2 7//2 12//2
f 13//1 8//1 18//1
f 18//2 8//2 13//2
f 14//1 19//1 6//1
f 6//2 19//2 14//2
f 14//1 10//1 20//1
f 20//2 10//2 14//2
f 21//1 16//1 12//1
f 12//2 16//2 21//2
f 17//1 7//1 19//1
f 19//2 7//2 17//2
f 13//1 18//1 22//1
f 22//2 18//2 13//2
f 23//1 19//1 14//1
f 14//2 19//2 23//2
f 20//1 10//1 24//1
f 24//2 10//2 20//2
f 25//1 16//1 21//1
f 21//2 16//2 25//2
f 17//1 19//1 23//1
f 23//2 19//2 17//2
f 26//1 22//1 18//1
f 18//2 22//2 26//2
f 13//1 22//1 27//1
f 27//2 22//2 13//2
f 28//1 16//1 25//1
f 25//2 16//2 28//2
f 21//1 29//1 25//1
f 25//2 29//2 21//2
f 23//1 30//1 17//1
f 17//2 30//2 23//2
f 27//1 22//1 31//1
f 31//2 22//2 27//2
f 16//1 28//1 32//1
f 32//2 28//2 16//2
