# SSTK version 0.8.0
# 22
mtllib original-22.mtl
o mesh21/mesh21-geometry#mesh21-geometry
v 0.131429 0.457685 0.369353
v 0.132803 0.455597 0.369353
v 0.130880 0.455597 0.369353
v 0.136126 0.476652 0.369353
v 0.133297 0.456641 0.369353
v 0.140466 0.469963 0.369353
v 0.137692 0.489494 0.369353
v 0.142911 0.499602 0.369353
v 0.137637 0.496690 0.369353
v 0.141428 0.475320 0.369353
v 0.137129 0.492089 0.369353
v 0.143818 0.486362 0.369353
v 0.148899 0.481692 0.369353
v 0.135440 0.492955 0.369353
v 0.143735 0.500096 0.369353
v 0.149813 0.485504 0.369353
v 0.132913 0.492350 0.369353
v 0.144614 0.494548 0.369353
v 0.156975 0.489892 0.369353
v 0.132473 0.494163 0.369353
v 0.157607 0.493202 0.369353
v 0.132143 0.492076 0.369353
v 0.160271 0.491942 0.369353
v 0.131649 0.493724 0.369353
v 0.164357 0.498043 0.369353
v 0.163073 0.492625 0.369353
v 0.165339 0.491499 0.369353
v 0.169611 0.499657 0.369353
v 0.166095 0.488120 0.369353
v 0.168842 0.479976 0.369353
v 0.171808 0.487361 0.369353
v 0.165600 0.484130 0.369353
v 0.171005 0.499324 0.369353
v 0.164117 0.479303 0.369353
v 0.172000 0.498325 0.369353
v 0.163897 0.472171 0.369353
v 0.172797 0.494328 0.369353
v 0.159227 0.469826 0.369353
v 0.156975 0.463948 0.369353
v 0.153706 0.463220 0.369353
v 0.149998 0.457273 0.369353
v 0.147141 0.458014 0.369353
v 0.143460 0.452631 0.369353
v 0.142018 0.455721 0.369353
v 0.136662 0.449595 0.369353
v 0.135440 0.454444 0.369353
v 0.128902 0.447741 0.369353
v 0.124425 0.452576 0.369353
v 0.122804 0.446368 0.369353
v 0.121575 0.451092 0.369353
v 0.118904 0.448730 0.369353
v 0.118684 0.444445 0.369353
v 0.116335 0.441822 0.369353
v 0.114907 0.442934 0.369353
v 0.115552 0.438347 0.369353
v 0.114467 0.433526 0.369353
v 0.113575 0.437413 0.369353
v 0.117146 0.430436 0.369353
v 0.116301 0.435662 0.369353
v 0.118546 0.433540 0.369353
v 0.121238 0.428417 0.369353
v 0.121987 0.432160 0.369353
v 0.126375 0.427744 0.369353
v 0.126320 0.431700 0.369353
v 0.131951 0.432427 0.369353
v 0.130588 0.428173 0.369353
v 0.133778 0.429461 0.369353
v 0.137088 0.434611 0.369353
v 0.135944 0.431607 0.369353
vn 0 0 -1
vn 0 0 1
usemtl material_0_0
f 1//1 2//1 3//1
f 2//1 1//1 4//1
f 3//2 2//2 1//2
f 4//2 1//2 2//2
f 2//1 4//1 5//1
f 5//2 4//2 2//2
f 5//1 4//1 6//1
f 6//2 4//2 5//2
f 6//1 4//1 7//1
f 7//2 4//2 6//2
f 7//1 8//1 6//1
f 6//2 8//2 7//2
f 7//1 9//1 8//1
f 8//2 9//2 7//2
f 6//1 8//1 10//1
f 10//2 8//2 6//2
f 11//1 9//1 7//1
f 7//2 9//2 11//2
f 10//1 8//1 12//1
f 12//2 8//2 10//2
f 10//1 13//1 6//1
f 6//2 13//2 10//2
f 14//1 9//1 11//1
f 11//2 9//2 14//2
f 12//1 8//1 15//1
f 15//2 8//2 12//2
f 13//1 10//1 16//1
f 16//2 10//2 13//2
f 17//1 9//1 14//1
f 14//2 9//2 17//2
f 12//1 15//1 18//1
f 18//2 15//2 12//2
f 13//1 16//1 19//1
f 19//2 16//2 13//2
f 17//1 20//1 9//1
f 9//2 20//2 17//2
f 19//1 16//1 21//1
f 21//2 16//2 19//2
f 22//1 20//1 17//1
f 17//2 20//2 22//2
f 19//1 21//1 23//1
f 23//2 21//2 19//2
f 20//1 22//1 24//1
f 24//2 22//2 20//2
f 23//1 21//1 25//1
f 25//2 21//2 23//2
f 23//1 25//1 26//1
f 26//2 25//2 23//2
f 26//1 25//1 27//1
f 27//2 25//2 26//2
f 27//1 25//1 28//1
f 28//2 25//2 27//2
f 27//1 28//1 29//1
f 29//2 28//2 27//2
f 29//1 28//1 30//1
f 30//2 28//2 29//2
f 30//1 28//1 31//1
f 31//2 28//2 30//2
f 30//1 32//1 29//1
f 29//2 32//2 30//2
f 31//1 28//1 33//1
f 33//2 28//2 31//2
f 30//1 34//1 32//1
f 32//2 34//2 30//2
f 31//1 33//1 35//1
f 35//2 33//2 31//2
f 36//1 34//1 30//1
f 30//2 34//2 36//2
f 31//1 35//1 37//1
f 37//2 35//2 31//2
f 36//1 38//1 34//1
f 34//2 38//2 36//2
f 39//1 38//1 36//1
f 36//2 38//2 39//2
f 39//1 40//1 38//1
f 38//2 40//2 39//2
f 41//1 40//1 39//1
f 39//2 40//2 41//2
f 41//1 42//1 40//1
f 40//2 42//2 41//2
f 43//1 42//1 41//1
f 41//2 42//2 43//2
f 43//1 44//1 42//1
f 42//2 44//2 43//2
f 45//1 44//1 43//1
f 43//2 44//2 45//2
f 45//1 46//1 44//1
f 44//2 46//2 45//2
f 47//1 46//1 45//1
f 45//2 46//2 47//2
f 47//1 48//1 46//1
f 46//2 48//2 47//2
f 49//1 48//1 47//1
f 47//2 48//2 49//2
f 49//1 50//1 48//1
f 48//2 50//2 49//2
f 49//1 51//1 50//1
f 50//2 51//2 49//2
f 52//1 51//1 49//1
f 49//2 51//2 52//2
f 53//1 51//1 52//1
f 52//2 51//2 53//2
f 53//1 54//1 51//1
f 51//2 54//2 53//2
f 54//1 53//1 55//1
f 55//2 53//2 54//2
f 56//1 54//1 55//1
f 55//2 54//2 56//2
f 54//1 56//1 57//1
f 57//2 56//2 54//2
f 56//1 55//1 58//1
f 58//2 55//2 56//2
f 58//1 55//1 59//1
f 59//2 55//2 58//2
f 58//1 59//1 60//1
f 60//2 59//2 58//2
f 58//1 60//1 61//1
f 61//2 60//2 58//2
f 61//1 60//1 62//1
f 62//2 60//2 61//2
f 61//1 62//1 63//1
f 63//2 62//2 61//2
f 63//1 62//1 64//1
f 64//2 62//2 63//2
f 63//1 64//1 65//1
f 65//2 64//2 63//2
f 63//1 65//1 66//1
f 66//2 65//2 63//2
f 66//1 65//1 67//1
f 67//2 65//2 66//2
f 67//1 65//1 68//1
f 68//2 65//2 67//2
f 67//1 68//1 69//1
f 69//2 68//2 67//2
