# SSTK version 0.8.0
# 29
mtllib original-29.mtl
o mesh27/mesh27-geometry#mesh27-geometry
v -0.035984 0.549763 0.369353
v -0.035486 0.541864 0.369353
v -0.036448 0.545531 0.369353
v -0.034594 0.554163 0.369353
v -0.032602 0.540642 0.369353
v -0.029031 0.563468 0.369353
v -0.030130 0.549596 0.369353
v -0.029574 0.554304 0.369353
v -0.029320 0.546300 0.369353
v -0.027905 0.559032 0.369353
v -0.027431 0.542015 0.369353
v -0.020667 0.572251 0.369353
v -0.026889 0.545201 0.369353
v -0.025124 0.563781 0.369353
v -0.020708 0.546135 0.369353
v -0.021230 0.568550 0.369353
v -0.023538 0.546389 0.369353
v -0.014895 0.574246 0.369353
v -0.018978 0.549954 0.369353
v -0.010408 0.579318 0.369353
v -0.013312 0.552343 0.369353
v -0.007977 0.578315 0.369353
v -0.014088 0.555083 0.369353
v -0.004097 0.582418 0.369353
v -0.009748 0.560968 0.369353
v -0.000474 0.580756 0.369353
v -0.006122 0.559980 0.369353
v 0.002201 0.584633 0.369353
v -0.005037 0.569813 0.369353
v 0.007612 0.581570 0.369353
v -0.005134 0.561463 0.369353
v 0.008484 0.585961 0.369353
v -0.001096 0.567987 0.369353
v -0.004255 0.548388 0.369353
v 0.014864 0.580911 0.369353
v -0.002112 0.578988 0.369353
v -0.003719 0.543801 0.369353
v 0.000964 0.562067 0.369353
v 0.014754 0.586404 0.369353
v -0.000340 0.576955 0.369353
v -0.010888 0.548415 0.369353
v -0.003884 0.547220 0.369353
v 0.001404 0.563001 0.369353
v 0.016072 0.586075 0.369353
v 0.000250 0.573714 0.369353
v -0.012660 0.540861 0.369353
v -0.002771 0.546905 0.369353
v 0.016512 0.585086 0.369353
v 0.003107 0.547674 0.369353
v 0.002118 0.549102 0.369353
vn 0 0 -1
vn 0 0 1
usemtl material_0_0
f 1//1 2//1 3//1
f 2//1 1//1 4//1
f 3//2 2//2 1//2
f 4//2 1//2 2//2
f 2//1 4//1 5//1
f 5//2 4//2 2//2
f 5//1 4//1 6//1
f 6//2 4//2 5//2
f 5//1 6//1 7//1
f 7//2 6//2 5//2
f 7//1 6//1 8//1
f 8//2 6//2 7//2
f 9//1 5//1 7//1
f 7//2 5//2 9//2
f 8//1 6//1 10//1
f 10//2 6//2 8//2
f 5//1 9//1 11//1
f 11//2 9//2 5//2
f 10//1 6//1 12//1
f 12//2 6//2 10//2
f 11//1 9//1 13//1
f 13//2 9//2 11//2
f 10//1 12//1 14//1
f 14//2 12//2 10//2
f 11//1 13//1 15//1
f 15//2 13//2 11//2
f 14//1 12//1 16//1
f 16//2 12//2 14//2
f 15//1 13//1 17//1
f 17//2 13//2 15//2
f 16//1 12//1 18//1
f 18//2 12//2 16//2
f 15//1 17//1 19//1
f 19//2 17//2 15//2
f 18//1 12//1 20//1
f 20//2 12//2 18//2
f 15//1 19//1 21//1
f 21//2 19//2 15//2
f 18//1 20//1 22//1
f 22//2 20//2 18//2
f 21//1 19//1 23//1
f 23//2 19//2 21//2
f 22//1 20//1 24//1
f 24//2 20//2 22//2
f 21//1 23//1 25//1
f 25//2 23//2 21//2
f 22//1 24//1 26//1
f 26//2 24//2 22//2
f 21//1 25//1 27//1
f 27//2 25//2 21//2
f 26//1 24//1 28//1
f 28//2 24//2 26//2
f 27//1 25//1 29//1
f 29//2 25//2 27//2
f 26//1 28//1 30//1
f 30//2 28//2 26//2
f 27//1 29//1 31//1
f 31//2 29//2 27//2
f 30//1 28//1 32//1
f 32//2 28//2 30//2
f 31//1 29//1 33//1
f 33//2 29//2 31//2
f 34//1 27//1 31//1
f 31//2 27//2 34//2
f 30//1 32//1 35//1
f 35//2 32//2 30//2
f 33//1 29//1 36//1
f 36//2 29//2 33//2
f 37//1 27//1 34//1
f 34//2 27//2 37//2
f 31//1 38//1 34//1
f 34//2 38//2 31//2
f 35//1 32//1 39//1
f 39//2 32//2 35//2
f 33//1 36//1 40//1
f 40//2 36//2 33//2
f 37//1 41//1 27//1
f 27//2 41//2 37//2
f 37//1 34//1 42//1
f 42//2 34//2 37//2
f 38//1 31//1 43//1
f 43//2 31//2 38//2
f 35//1 39//1 44//1
f 44//2 39//2 35//2
f 33//1 40//1 45//1
f 45//2 40//2 33//2
f 41//1 37//1 46//1
f 46//2 37//2 41//2
f 37//1 42//1 47//1
f 47//2 42//2 37//2
f 35//1 44//1 48//1
f 48//2 44//2 35//2
f 37//1 47//1 49//1
f 49//2 47//2 37//2
f 49//1 47//1 50//1
f 50//2 47//2 49//2
