# SSTK version 0.8.0
# 43
mtllib original-43.mtl
o mesh33/mesh33-geometry/material_1/component_5#mesh33-geometry
v 0.048720 0.277510 0.399351
v 0.042047 0.270837 0.404436
v 0.042047 0.270837 0.399351
v 0.042047 0.270837 0.399351
v 0.042047 0.270837 0.404436
v 0.048720 0.277510 0.399351
v 0.042047 0.270837 0.404436
v 0.048720 0.277510 0.399351
v 0.048720 0.277510 0.404436
v 0.048720 0.277510 0.404436
v 0.048720 0.277510 0.399351
v 0.042047 0.270837 0.404436
vn 0.7071067811865476 -0.7071067811865476 0
vn -0.7071067811865476 0.7071067811865476 0
usemtl material_0_0
f 1//1 2//1 3//1
f 4//2 5//2 6//2
f 7//1 8//1 9//1
f 10//2 11//2 12//2
