# SSTK version 0.8.0
# 71
mtllib original-71.mtl
o mesh33/mesh33-geometry/material_8/component_0#mesh33-geometry
v 0.297858 0.304521 0.358675
v 0.297858 0.279099 0.358675
v 0.282605 0.304521 0.358675
v 0.282605 0.279099 0.358675
v 0.282605 0.304521 0.358675
v 0.297858 0.279099 0.358675
v 0.282605 0.304521 0.358675
v 0.297858 0.279099 0.358675
v 0.297858 0.304521 0.358675
v 0.297858 0.279099 0.358675
v 0.282605 0.304521 0.358675
v 0.282605 0.279099 0.358675
vn 0 0 -1
vn 0 0 1
usemtl material_0_0
f 1//1 2//1 3//1
f 4//1 5//1 6//1
usemtl material_1_0
f 7//2 8//2 9//2
f 10//2 11//2 12//2
