# SSTK version 0.8.0
# 4
mtllib original-4.mtl
o mesh4/mesh4-geometry#mesh4-geometry
v 0.377137 0.454408 0.020411
v 0.379674 0.453888 0.024213
v 0.378153 0.454129 0.022478
v 0.381596 0.453704 0.025498
v 0.381850 0.914134 0.082926
v 0.380834 0.914414 0.080859
v 0.376695 0.454709 0.018153
v 0.383371 0.913894 0.084661
v 0.380392 0.914714 0.078601
v 0.383790 0.453588 0.026246
v 0.385294 0.913710 0.085946
v 0.380474 0.914865 0.077454
v 0.376858 0.455009 0.015858
v 0.387487 0.913594 0.086694
v 0.380555 0.915015 0.076306
v 0.386104 0.453549 0.026405
v 0.389801 0.913554 0.086853
v 0.377615 0.455289 0.013683
v 0.381312 0.915294 0.074131
v 0.388381 0.453588 0.025965
v 0.392079 0.913594 0.086413
v 0.378913 0.455529 0.011775
v 0.382610 0.915535 0.072223
v 0.390467 0.453704 0.024956
v 0.394164 0.913710 0.085404
v 0.380665 0.455713 0.010265
v 0.384362 0.915719 0.070713
v 0.392219 0.453888 0.023446
v 0.395916 0.913894 0.083894
v 0.382750 0.455829 0.009256
v 0.386448 0.915835 0.069704
v 0.393517 0.454129 0.021538
v 0.397214 0.914134 0.081986
v 0.385028 0.455869 0.008816
v 0.388725 0.915874 0.069264
v 0.394274 0.454408 0.019363
v 0.397971 0.914414 0.079811
v 0.387342 0.455829 0.008975
v 0.391039 0.915835 0.069423
v 0.394437 0.454709 0.017068
v 0.398134 0.914714 0.077516
v 0.389535 0.455713 0.009723
v 0.393233 0.915719 0.070171
v 0.393995 0.455009 0.014810
v 0.397692 0.915015 0.075258
v 0.391458 0.455529 0.011008
v 0.395155 0.915535 0.071456
v 0.392979 0.455289 0.012743
v 0.396676 0.915294 0.073191
vt 0.102007 0.334827
vt 0.119112 0.506916
vt 0.101147 0.334917
vt 0.072018 0.337385
vt 0.09204 0.509159
vt 0.071159 0.33749
vt 0.125214 0.334679
vt 0.138168 0.50713
vt 0.124352 0.334748
vt 0.119972 0.506827
vt 0.092898 0.509055
vt 0.058829 0.51325
vt 0.037304 0.341658
vt 0.059687 0.513138
vt 0.036446 0.34177
vt 0.13903 0.507061
vt 0.141163 0.024279
vt 0.140306 0.025764
vt 0.140637 0.024965
vt 0.141849 0.023753
vt 0.140193 0.026621
vt 0.022111 0.518043
vt 0.000157 0.346507
vt 0.022539 0.517987
vt 0.13996 0.336997
vt 0.147798 0.509756
vt 0.139097 0.33704
vt 0.142648 0.023422
vt 0.021682 0.518099
vt 0.140249 0.02705
vt -0.000701 0.346619
vt 0.148662 0.509713
vt 0.143505 0.023309
vt 0.140306 0.027479
vt -0.016133 0.522316
vt -0.037871 0.350751
vt -0.037013 0.350647
vt 0.145118 0.341169
vt 0.147225 0.514094
vt 0.144254 0.341184
vt 0.140637 0.028278
vt 0.14809 0.514079
vt -0.016991 0.522421
vt 0.144363 0.023422
vt 0.140259 0.346073
vt 0.136423 0.518968
vt 0.139395 0.346058
vt -0.053804 0.524977
vt -0.072629 0.353067
vt -0.071769 0.352978
vt 0.137288 0.518983
vt 0.141163 0.028964
vt -0.054664 0.525067
vt 0.12573 0.350383
vt 0.116165 0.523055
vt 0.124867 0.350339
vt 0.145162 0.023753
vt -0.087943 0.525252
vt -0.102621 0.352939
vt -0.101759 0.35287
vt 0.117029 0.523099
vt 0.141849 0.02949
vt -0.088805 0.525321
vt 0.102621 0.352939
vt 0.087943 0.525252
vt 0.101759 0.35287
vt 0.145848 0.024279
vt -0.116165 0.523055
vt -0.12573 0.350383
vt -0.124867 0.350339
vt 0.088805 0.525321
vt 0.142648 0.029821
vt -0.117029 0.523099
vt 0.072629 0.353067
vt 0.053804 0.524977
vt 0.071769 0.352978
vt 0.146374 0.024965
vt -0.136423 0.518968
vt -0.140259 0.346073
vt -0.139395 0.346058
vt 0.054664 0.525067
vt 0.143505 0.029934
vt -0.137288 0.518983
vt 0.037871 0.350751
vt 0.016133 0.522316
vt 0.037013 0.350647
vt 0.146705 0.025764
vt -0.147225 0.514094
vt -0.145118 0.341169
vt -0.144254 0.341184
vt 0.016991 0.522421
vt 0.144363 0.029821
vt -0.14809 0.514079
vt -0.000157 0.346507
vt -0.021682 0.518099
vt -0.022539 0.517987
vt 0.146818 0.026621
vt -0.147798 0.509756
vt -0.13996 0.336997
vt -0.139097 0.33704
vt 0.000701 0.346619
vt 0.145162 0.02949
vt -0.148662 0.509713
vt -0.037304 0.341658
vt -0.058829 0.51325
vt -0.059687 0.513138
vt 0.146705 0.027479
vt -0.138168 0.50713
vt -0.125214 0.334679
vt -0.124352 0.334748
vt -0.036446 0.34177
vt 0.145848 0.028964
vt -0.13903 0.507061
vt -0.072018 0.337385
vt -0.09204 0.509159
vt -0.092898 0.509055
vt 0.146374 0.028278
vt -0.119112 0.506916
vt -0.102007 0.334827
vt -0.101147 0.334917
vt -0.071159 0.33749
vt -0.119972 0.506827
vn -0.007968411518355277 -0.9914449283606708 -0.13028222613149784
vn 0.007968411518355277 0.9914449283606708 0.13028222613149784
vn 0.8341470556833874 0.0652629886165042 -0.5476672637757143
vn 0.6629892438414184 0.09229601851509078 -0.7429176990197812
vn 0.948458741639704 0.03378298824836998 -0.3150947875040772
vn 0.4466496280271286 0.11303900365579446 -0.8875394602133095
vn 0.9981347902902297 0 -0.061048672485806185
vn 0.9974958953790302 -0.01703699320582735 0.06864167512882824
vn 0.19987289999269037 0.12607900450133572 -0.9716763393602132
vn 0.9797894207060567 -0.033782998422688726 0.19715831225201344
vn 0.8946730274022534 -0.06526300627392888 0.44192863004220007
vn -0.06052651511516049 0.1305260435408196 -0.98959562091068
vn -0.3168001934674015 0.1260789354711783 -0.9400753903009436
vn 0.7485864842016517 -0.09229595677721361 0.6565818547852117
vn -0.5514846026473628 0.11303899099836638 -0.8264907256327513
vn 0.5514846026473628 -0.11303899099836638 0.8264907256327513
vn -0.7485864842016517 0.09229595677721361 -0.6565818547852117
vn 0.3168001934674015 -0.1260789354711783 0.9400753903009436
vn -0.8946730274022534 0.06526300627392888 -0.44192863004220007
vn 0.06052651511516049 -0.1305260435408196 0.98959562091068
vn -0.9797894207060567 0.033782998422688726 -0.19715831225201344
vn -0.19987289999269037 -0.12607900450133572 0.9716763393602132
vn -0.9974958953790302 0.01703699320582735 -0.06864167512882824
vn -0.4466496280271286 -0.11303900365579446 0.8875394602133095
vn -0.9816953339720392 -0.017036993661549538 0.18969452312732393
vn -0.948458741639704 -0.03378298824836998 0.3150947875040772
vn -0.6629892438414184 -0.09229601851509078 0.7429176990197812
vn -0.8341470556833874 -0.0652629886165042 0.5476672637757143
vn -0.9981347902902297 0 0.061048672485806185
vn 0.9816953339720392 0.017036993661549538 -0.18969452312732393
usemtl material_0_0
f 1//1 2//1 3//1
f 2//1 1//1 4//1
f 3//2 2//2 1//2
f 4//2 1//2 2//2
f 3//3 5//3 2//4
f 1//5 6//5 3//3
f 4//1 1//1 7//1
f 7//2 1//2 4//2
f 2//4 8//4 4//6
f 8//4 2//4 5//3
f 5//3 3//3 6//5
f 6//5 1//5 9//7
f 7//7 9//7 1//5
f 4//1 7//1 10//1
f 10//2 7//2 4//2
f 11//6 4//6 8//4
f 5//1 6//1 8//1
f 9//1 11//1 6//1
f 9//7 7//7 12//8
f 10//1 7//1 13//1
f 13//2 7//2 10//2
f 4//6 11//6 10//9
f 11//1 8//1 6//1
f 14//1 11//1 9//1
f 15//10 12//8 7//7
f 12//1 14//1 9//1
f 13//10 15//10 7//7
f 10//1 13//1 16//1
f 16//2 13//2 10//2
f 14//9 10//9 11//6
f 15//1 17//1 12//1
f 17//1 14//1 12//1
f 13//10 18//11 15//10
f 16//1 13//1 18//1
f 18//2 13//2 16//2
f 10//9 14//9 16//12
f 19//1 17//1 15//1
f 17//12 16//12 14//9
f 19//11 15//10 18//11
f 16//1 18//1 20//1
f 20//2 18//2 16//2
f 21//1 17//1 19//1
f 16//12 17//12 20//13
f 18//11 22//14 19//11
f 20//1 18//1 22//1
f 22//2 18//2 20//2
f 21//13 20//13 17//12
f 23//1 21//1 19//1
f 23//14 19//11 22//14
f 20//1 22//1 24//1
f 24//2 22//2 20//2
f 20//13 21//13 24//15
f 25//1 21//1 23//1
f 22//14 26//16 23//14
f 24//1 22//1 26//1
f 26//2 22//2 24//2
f 25//15 24//15 21//13
f 27//1 25//1 23//1
f 27//16 23//14 26//16
f 24//1 26//1 28//1
f 28//2 26//2 24//2
f 24//15 25//15 28//17
f 29//1 25//1 27//1
f 26//16 30//18 27//16
f 28//1 26//1 30//1
f 30//2 26//2 28//2
f 29//17 28//17 25//15
f 31//1 29//1 27//1
f 31//18 27//16 30//18
f 28//1 30//1 32//1
f 32//2 30//2 28//2
f 28//17 29//17 32//19
f 33//1 29//1 31//1
f 30//18 34//20 31//18
f 32//1 30//1 34//1
f 34//2 30//2 32//2
f 33//19 32//19 29//17
f 35//1 33//1 31//1
f 35//20 31//18 34//20
f 32//1 34//1 36//1
f 36//2 34//2 32//2
f 32//19 33//19 36//21
f 37//1 33//1 35//1
f 34//20 38//22 35//20
f 36//1 34//1 38//1
f 38//2 34//2 36//2
f 37//21 36//21 33//19
f 39//1 37//1 35//1
f 39//22 35//20 38//22
f 36//1 38//1 40//1
f 40//2 38//2 36//2
f 37//21 41//23 36//21
f 41//1 37//1 39//1
f 38//22 42//24 39//22
f 40//1 38//1 42//1
f 42//2 38//2 40//2
f 40//23 36//21 41//23
f 43//1 41//1 39//1
f 43//24 39//22 42//24
f 40//1 42//1 44//1
f 44//2 42//2 40//2
f 41//25 45//26 40//25
f 45//1 41//1 43//1
f 42//24 46//27 43//24
f 44//1 42//1 46//1
f 46//2 42//2 44//2
f 44//26 40//25 45//26
f 47//1 45//1 43//1
f 47//27 43//24 46//27
f 44//1 46//1 48//1
f 48//2 46//2 44//2
f 45//26 49//28 44//26
f 49//1 45//1 47//1
f 46//27 48//28 47//27
f 48//28 44//26 49//28
f 49//28 47//27 48//28
usemtl material_1_0
f 2/1/27 5/2/28 3/3/28
f 3/4/28 6/5/26 1/6/26
f 4/7/24 8/8/27 2/9/27
f 5/2/28 2/1/27 8/10/27
f 6/5/26 3/4/28 5/11/28
f 9/12/29 1/13/26 6/14/26
f 1/13/26 9/12/29 7/15/29
f 8/8/27 4/7/24 11/16/24
f 8/17/2 6/18/2 5/19/2
f 6/18/2 11/20/2 9/21/2
f 12/22/23 7/23/29 9/24/29
f 10/25/22 11/26/24 4/27/24
f 6/18/2 8/17/2 11/20/2
f 9/21/2 11/20/2 14/28/2
f 7/23/29 12/22/23 15/29/21
f 9/21/2 14/28/2 12/30/2
f 7/23/29 15/29/21 13/31/21
f 11/26/24 10/25/22 14/32/22
f 12/30/2 17/33/2 15/34/2
f 12/30/2 14/28/2 17/33/2
f 15/35/21 18/36/19 13/37/21
f 16/38/20 14/39/22 10/40/22
f 15/34/2 17/33/2 19/41/2
f 14/39/22 16/38/20 17/42/20
f 18/36/19 15/35/21 19/43/19
f 19/41/2 17/33/2 21/44/2
f 20/45/18 17/46/20 16/47/20
f 19/48/19 22/49/17 18/50/19
f 17/46/20 20/45/18 21/51/18
f 19/41/2 21/44/2 23/52/2
f 22/49/17 19/48/19 23/53/17
f 24/54/16 21/55/18 20/56/18
f 23/52/2 21/44/2 25/57/2
f 23/58/17 26/59/15 22/60/17
f 21/55/18 24/54/16 25/61/16
f 23/52/2 25/57/2 27/62/2
f 26/59/15 23/58/17 27/63/15
f 28/64/14 25/65/16 24/66/16
f 27/62/2 25/57/2 29/67/2
f 27/68/15 30/69/13 26/70/15
f 25/65/16 28/64/14 29/71/14
f 27/62/2 29/67/2 31/72/2
f 30/69/13 27/68/15 31/73/13
f 32/74/11 29/75/14 28/76/14
f 31/72/2 29/67/2 33/77/2
f 31/78/13 34/79/12 30/80/13
f 29/75/14 32/74/11 33/81/11
f 31/72/2 33/77/2 35/82/2
f 34/79/12 31/78/13 35/83/12
f 36/84/10 33/85/11 32/86/11
f 35/82/2 33/77/2 37/87/2
f 35/88/12 38/89/9 34/90/12
f 33/85/11 36/84/10 37/91/10
f 35/82/2 37/87/2 39/92/2
f 38/89/9 35/88/12 39/93/9
f 36/94/10 41/95/8 37/96/10
f 39/92/2 37/87/2 41/97/2
f 39/98/9 42/99/6 38/100/9
f 41/95/8 36/94/10 40/101/8
f 39/92/2 41/97/2 43/102/2
f 42/99/6 39/98/9 43/103/6
f 40/104/30 45/105/5 41/106/30
f 43/102/2 41/97/2 45/107/2
f 43/108/6 46/109/4 42/110/6
f 45/105/5 40/104/30 44/111/5
f 43/102/2 45/107/2 47/112/2
f 46/109/4 43/108/6 47/113/4
f 44/114/5 49/115/3 45/116/5
f 47/112/2 45/107/2 49/117/2
f 47/118/4 48/119/3 46/120/4
f 49/115/3 44/114/5 48/121/3
f 48/119/3 47/118/4 49/122/3
