# SSTK version 0.8.0
# 32
mtllib original-32.mtl
o #ID262
v 0.457656 -0.728798 -0.222866
v 0.437129 -0.609136 -0.225569
v 0.437129 -0.728798 -0.225569
v 0.457656 -0.609136 -0.222866
v 0.418000 -0.609136 -0.233492
v 0.418000 -0.728798 -0.233492
v 0.401575 -0.609136 -0.246096
v 0.401575 -0.728798 -0.246096
v 0.388971 -0.728798 -0.262522
v 0.388971 -0.609136 -0.262522
v 0.381047 -0.728798 -0.281650
v 0.381047 -0.609136 -0.281650
v 0.378345 -0.609136 -0.302177
v 0.378345 -0.728798 -0.302177
v 0.378345 -0.609136 -0.302177
v 0.381047 -0.728798 -0.322704
v 0.378345 -0.728798 -0.302177
v 0.381047 -0.609136 -0.322704
v 0.388971 -0.609136 -0.341833
v 0.388971 -0.728798 -0.341833
v 0.401575 -0.609136 -0.358259
v 0.401575 -0.728798 -0.358259
v 0.418000 -0.609136 -0.370863
v 0.418000 -0.728798 -0.370863
v 0.437129 -0.609136 -0.378786
v 0.437129 -0.728798 -0.378786
v 0.457656 -0.609136 -0.381488
v 0.457656 -0.728798 -0.381488
v 0.478183 -0.609136 -0.378786
v 0.457656 -0.728798 -0.381488
v 0.457656 -0.609136 -0.381488
v 0.478183 -0.728798 -0.378786
v 0.497311 -0.609136 -0.370863
v 0.497311 -0.728798 -0.370863
v 0.513737 -0.609136 -0.358259
v 0.513737 -0.728798 -0.358259
v 0.526341 -0.728798 -0.341833
v 0.526341 -0.609136 -0.341833
v 0.534264 -0.728798 -0.322704
v 0.534264 -0.609136 -0.322704
v 0.536967 -0.609136 -0.302177
v 0.536967 -0.728798 -0.302177
v 0.536967 -0.609136 -0.302177
v 0.534264 -0.728798 -0.281650
v 0.536967 -0.728798 -0.302177
v 0.534264 -0.609136 -0.281650
v 0.526341 -0.609136 -0.262522
v 0.526341 -0.728798 -0.262522
v 0.513737 -0.728798 -0.246096
v 0.513737 -0.609136 -0.246096
v 0.497311 -0.609136 -0.233492
v 0.497311 -0.728798 -0.233492
vn -0.1305261948688555 0 0.9914448610250887
vn -0.25881900959356163 0 0.9659258358036645
vn -0.5000000016387101 0 0.866025402838329
vn -0.7071067811865476 0 0.7071067811865476
vn -0.866025402838329 0 0.5000000016387101
vn -0.9659258358036645 0 0.25881900959356163
vn -0.9914448610250887 0 0.1305261948688555
vn -0.9914448610250887 0 -0.1305261948688555
vn -0.9659258358036645 0 -0.25881900959356163
vn -0.866025402838329 0 -0.5000000016387101
vn -0.7071067811865476 0 -0.7071067811865476
vn -0.5000000016387101 0 -0.866025402838329
vn -0.25881900959356163 0 -0.9659258358036645
vn -0.1305261948688555 0 -0.9914448610250887
vn 0.25881900959356163 0 -0.9659258358036645
vn 0.1305261948688555 0 -0.9914448610250887
vn 0.5000000016387101 0 -0.866025402838329
vn 0.7071067811865476 0 -0.7071067811865476
vn 0.866025402838329 0 -0.5000000016387101
vn 0.9659258358036645 0 -0.25881900959356163
vn 0.9914448610250887 0 -0.1305261948688555
vn 0.9914448610250887 0 0.1305261948688555
vn 0.9659258358036645 0 0.25881900959356163
vn 0.866025402838329 0 0.5000000016387101
vn 0.7071067811865476 0 0.7071067811865476
vn 0.608761430209528 0 0.7933533393698233
usemtl material_0_0
f 1//1 2//2 3//2
f 2//2 1//1 4//1
f 3//2 5//3 6//3
f 5//3 3//2 2//2
f 6//3 7//4 8//4
f 7//4 6//3 5//3
f 7//4 9//5 8//4
f 9//5 7//4 10//5
f 10//5 11//6 9//5
f 11//6 10//5 12//6
f 11//6 13//7 14//7
f 13//7 11//6 12//6
f 15//8 16//9 17//8
f 16//9 15//8 18//9
f 16//9 19//10 20//10
f 19//10 16//9 18//9
f 20//10 21//11 22//11
f 21//11 20//10 19//10
f 23//12 22//11 21//11
f 22//11 23//12 24//12
f 25//13 24//12 23//12
f 24//12 25//13 26//13
f 27//14 26//13 25//13
f 26//13 27//14 28//14
f 29//15 30//16 31//16
f 30//16 29//15 32//15
f 33//17 32//15 29//15
f 32//15 33//17 34//17
f 35//18 34//17 33//17
f 34//17 35//18 36//18
f 35//18 37//19 36//18
f 37//19 35//18 38//19
f 38//19 39//20 37//19
f 39//20 38//19 40//20
f 39//20 41//21 42//21
f 41//21 39//20 40//20
f 43//22 44//23 45//22
f 44//23 43//22 46//23
f 44//23 47//24 48//24
f 47//24 44//23 46//23
f 47//24 49//25 48//24
f 49//25 47//24 50//25
f 49//25 51//26 52//26
f 51//26 49//25 50//25
