# SSTK version 0.8.0
# 30
mtllib original-30.mtl
o #ID250
v -0.520483 0.507277 -0.494898
v -0.520970 -0.487343 -0.494898
v -0.520970 0.502076 -0.494898
v -0.520633 -0.492723 -0.494898
v -0.519513 -0.498615 -0.494898
v -0.519259 0.512707 -0.494898
v -0.517665 -0.504321 -0.494898
v -0.517349 0.517935 -0.494898
v -0.515120 -0.509751 -0.494898
v -0.514785 0.522875 -0.494898
v -0.511915 -0.514821 -0.494898
v -0.511609 0.527445 -0.494898
v -0.508103 -0.519451 -0.494898
v -0.507874 0.531572 -0.494898
v -0.503742 -0.523568 -0.494898
v -0.503641 0.535185 -0.494898
v -0.498901 -0.527109 -0.494898
v -0.498980 0.538226 -0.494898
v -0.493967 0.540645 -0.494898
v -0.493656 -0.530017 -0.494898
v -0.488686 0.542403 -0.494898
v -0.488088 -0.532247 -0.494898
v -0.483224 0.543468 -0.494898
v -0.482285 -0.533763 -0.494898
v -0.478291 0.543785 -0.494898
v -0.476289 -0.534550 -0.494898
v 0.485816 0.543785 -0.494898
v -0.299527 -0.534550 -0.494898
v -0.171516 -0.534550 -0.494898
v 0.003762 -0.534550 -0.494898
v 0.483813 -0.534550 -0.494898
v 0.489810 -0.533763 -0.494898
v 0.490748 0.543468 -0.494898
v 0.495613 -0.532247 -0.494898
v 0.496211 0.542403 -0.494898
v 0.501180 -0.530017 -0.494898
v 0.501491 0.540645 -0.494898
v 0.506426 -0.527109 -0.494898
v 0.506504 0.538226 -0.494898
v 0.511267 -0.523568 -0.494898
v 0.511166 0.535185 -0.494898
v 0.515399 0.531572 -0.494898
v 0.515627 -0.519451 -0.494898
v 0.519133 0.527445 -0.494898
v 0.519439 -0.514821 -0.494898
v 0.522309 0.522875 -0.494898
v 0.522644 -0.509751 -0.494898
v 0.524873 0.517935 -0.494898
v 0.525190 -0.504321 -0.494898
v 0.526783 0.512707 -0.494898
v 0.527037 -0.498615 -0.494898
v 0.528007 0.507277 -0.494898
v 0.528158 -0.492723 -0.494898
v 0.528495 0.502076 -0.494898
v 0.528495 -0.487343 -0.494898
vn 0 0 -1
usemtl material_0_0
f 1//1 2//1 3//1
f 2//1 1//1 4//1
f 4//1 1//1 5//1
f 5//1 1//1 6//1
f 5//1 6//1 7//1
f 7//1 6//1 8//1
f 7//1 8//1 9//1
f 9//1 8//1 10//1
f 9//1 10//1 11//1
f 11//1 10//1 12//1
f 11//1 12//1 13//1
f 13//1 12//1 14//1
f 13//1 14//1 15//1
f 15//1 14//1 16//1
f 15//1 16//1 17//1
f 17//1 16//1 18//1
f 17//1 18//1 19//1
f 17//1 19//1 20//1
f 20//1 19//1 21//1
f 20//1 21//1 22//1
f 22//1 21//1 23//1
f 22//1 23//1 24//1
f 24//1 23//1 25//1
f 24//1 25//1 26//1
f 26//1 25//1 27//1
f 26//1 27//1 28//1
f 28//1 27//1 29//1
f 29//1 27//1 30//1
f 30//1 27//1 31//1
f 31//1 27//1 32//1
f 32//1 27//1 33//1
f 32//1 33//1 34//1
f 34//1 33//1 35//1
f 34//1 35//1 36//1
f 36//1 35//1 37//1
f 36//1 37//1 38//1
f 38//1 37//1 39//1
f 38//1 39//1 40//1
f 40//1 39//1 41//1
f 40//1 41//1 42//1
f 40//1 42//1 43//1
f 43//1 42//1 44//1
f 43//1 44//1 45//1
f 45//1 44//1 46//1
f 45//1 46//1 47//1
f 47//1 46//1 48//1
f 47//1 48//1 49//1
f 49//1 48//1 50//1
f 49//1 50//1 51//1
f 51//1 50//1 52//1
f 51//1 52//1 53//1
f 53//1 52//1 54//1
f 53//1 54//1 55//1
