# SSTK version 0.8.0
# 4
mtllib original-4.mtl
o drawerface1/drawerface/mesh5/mesh5-geometry#mesh5-geometry
v 0.544075 0.079925 0.523159
v 0.032567 -0.111890 0.523159
v 0.544075 -0.111890 0.523159
v 0.032567 0.079925 0.523159
v 0.544075 -0.111890 0.499182
v 0.032567 0.079925 0.499182
v 0.032567 -0.111890 0.499182
v 0.544075 0.079925 0.499182
v 0.044556 -0.103898 0.499182
v 0.532087 -0.103898 0.499182
v 0.532087 -0.095906 0.499182
v 0.044556 -0.095906 0.499182
v 0.532087 -0.103898 0.511170
v 0.044556 -0.095906 0.511170
v 0.044556 -0.103898 0.511170
v 0.532087 -0.095906 0.511170
vt 0.222222 0.083333
vt 0 0
vt 0.222222 0
vt 0 0.083333
vt -0.222222 0.010417
vt -0.222222 0
vt 0.010417 0
vt 0 0.010417
vt -0.010417 0.083333
vt 0.010417 0.083333
vt 0.222222 0.010417
vt -0.010417 0
vt -0.005208 0.003472
vt -0.217014 0.003472
vt -0.222222 0.083333
vt -0.217014 0.006944
vt -0.005208 0.006944
vt 0.005208 0.010417
vt 0.217014 0.005208
vt 0.217014 0.010417
vt -0.010417 0.006944
vt -0.010417 0.003472
vt -0.217014 0.010417
vt -0.005208 0.005208
vt -0.005208 0.010417
vt 0.005208 0.006944
vt 0.010417 0.003472
vt 0.010417 0.006944
vt 0.005208 0.005208
vt -0.217014 0.005208
vt 0.005208 0.003472
vn 0 0 1
vn 0 0 -1
vn 0 -1 0
vn 0 1 0
vn 1 0 0
vn -1 0 0
usemtl material_0_0
f 1/1/1 2/2/1 3/3/1
f 2/2/1 1/1/1 4/4/1
f 3/3/2 2/2/2 1/1/2
f 4/4/2 1/1/2 2/2/2
f 2/2/3 5/5/3 3/6/3
f 3/6/4 5/5/4 2/2/4
f 5/7/5 1/4/5 3/2/5
f 3/2/6 1/4/6 5/7/6
f 1/3/4 6/8/4 4/2/4
f 4/2/3 6/8/3 1/3/3
f 6/9/6 2/2/6 4/4/6
f 4/4/5 2/2/5 6/9/5
f 5/5/3 2/2/3 7/8/3
f 7/8/4 2/2/4 5/5/4
f 1/4/5 5/7/5 8/10/5
f 8/10/6 5/7/6 1/4/6
f 6/8/4 1/3/4 8/11/4
f 8/11/3 1/3/3 6/8/3
f 2/2/6 6/9/6 7/12/6
f 7/12/5 6/9/5 2/2/5
f 7/2/2 9/13/2 5/6/2
f 5/6/1 9/13/1 7/2/1
f 5/6/2 10/14/2 8/15/2
f 8/15/1 10/14/1 5/6/1
f 8/15/2 11/16/2 6/4/2
f 6/4/1 11/16/1 8/15/1
f 9/13/2 7/2/2 6/4/2
f 6/4/1 7/2/1 9/13/1
f 10/14/2 5/6/2 9/13/2
f 9/13/1 5/6/1 10/14/1
f 8/15/2 10/14/2 11/16/2
f 11/16/1 10/14/1 8/15/1
f 12/17/2 6/4/2 11/16/2
f 11/16/1 6/4/1 12/17/1
f 9/13/2 6/4/2 12/17/2
f 12/17/1 6/4/1 9/13/1
f 9/18/4 13/19/4 10/20/4
f 10/20/3 13/19/3 9/18/3
f 13/13/6 11/21/6 10/22/6
f 10/22/5 11/21/5 13/13/5
f 11/23/3 14/24/3 12/25/3
f 12/25/4 14/24/4 11/23/4
f 14/26/5 9/27/5 12/28/5
f 12/28/6 9/27/6 14/26/6
f 13/19/4 9/18/4 15/29/4
f 15/29/3 9/18/3 13/19/3
f 11/21/6 13/13/6 16/17/6
f 16/17/5 13/13/5 11/21/5
f 14/24/3 11/23/3 16/30/3
f 16/30/4 11/23/4 14/24/4
f 9/27/5 14/26/5 15/31/5
f 15/31/6 14/26/6 9/27/6
f 14/17/2 13/14/2 15/13/2
f 15/13/1 13/14/1 14/17/1
f 13/14/2 14/17/2 16/16/2
f 16/16/1 14/17/1 13/14/1
