# SSTK version 0.8.0
# 9
mtllib original-9.mtl
o leg3/leg/mesh12/mesh12-geometry#mesh12-geometry
v -0.750680 0.079925 -0.419391
v -0.750680 -0.559460 -0.371437
v -0.750680 -0.559460 -0.419391
v -0.750680 0.079925 -0.371437
v -0.798633 -0.559460 -0.419391
v -0.798633 0.079925 -0.371437
v -0.798633 -0.559460 -0.371437
v -0.798633 0.079925 -0.419391
vt 0 0.277778
vt -0.020833 0
vt 0 0
vt -0.020833 0.277778
vt -0.020833 0.020833
vt 0 0.020833
vt 0.020833 0
vt 0.020833 0.020833
vt 0.020833 0.277778
vn 1 0 0
vn -1 0 0
vn 0 -1 0
vn 0 1 0
vn 0 0 -1
vn 0 0 1
usemtl material_0_0
f 1/1/1 2/2/1 3/3/1
f 2/2/1 1/1/1 4/4/1
f 3/3/2 2/2/2 1/1/2
f 4/4/2 1/1/2 2/2/2
f 2/5/3 5/3/3 3/6/3
f 3/6/4 5/3/4 2/5/4
f 5/3/5 1/4/5 3/2/5
f 3/2/6 1/4/6 5/3/6
f 1/6/4 6/7/4 4/8/4
f 4/8/3 6/7/3 1/6/3
f 6/1/6 2/7/6 4/9/6
f 4/9/5 2/7/5 6/1/5
f 5/3/3 2/5/3 7/2/3
f 7/2/4 2/5/4 5/3/4
f 1/4/5 5/3/5 8/1/5
f 8/1/6 5/3/6 1/4/6
f 6/7/4 1/6/4 8/3/4
f 8/3/3 1/6/3 6/7/3
f 2/7/6 6/1/6 7/3/6
f 7/3/5 6/1/5 2/7/5
f 6/9/2 5/3/2 7/7/2
f 7/7/1 5/3/1 6/9/1
f 5/3/2 6/9/2 8/1/2
f 8/1/1 6/9/1 5/3/1
