# SSTK version 0.8.0
# 21
mtllib original-21.mtl
o drawerguide2_2/drawerguide2/mesh68/mesh68-geometry#mesh68-geometry
v 0.548071 0.027834 0.291196
v 0.532087 0.023979 0.289599
v 0.548071 0.023979 0.289599
v 0.532087 0.027834 0.291196
v 0.532087 0.020669 0.287059
v 0.548071 0.036109 0.291196
v 0.548071 0.031971 0.291740
v 0.532087 0.039964 0.289599
v 0.548071 0.020669 0.287059
v 0.532087 0.043274 0.287059
v 0.548071 0.039964 0.289599
v 0.532087 0.031971 0.291740
v 0.532087 0.036109 0.291196
v 0.548071 0.018128 0.283748
v 0.532087 0.045815 0.283748
v 0.548071 0.043274 0.287059
v 0.532087 0.018128 0.283748
v 0.548071 0.016531 0.279893
v 0.548071 0.045815 0.283748
v 0.532087 0.047411 0.279893
v 0.532087 0.016531 0.279893
v 0.548071 0.015987 0.275756
v 0.548071 0.047411 0.279893
v 0.532087 0.047956 0.275756
v 0.532087 0.015987 0.275756
v 0.548071 0.015987 -0.363629
v 0.548071 0.047956 0.275756
v 0.532087 0.047956 -0.363629
v 0.532087 0.015987 -0.363629
v 0.548071 0.047956 -0.363629
vn 0 -0.2588189595935757 0.9659258492011171
vn 0 -0.500000174843842 0.8660253028382761
vn 0 0.500000174843842 -0.8660253028382761
vn 0 0.2588189595935757 -0.9659258492011171
vn 0 -0.7071067811865478 0.7071067811865476
vn 0 0.7071067811865478 -0.7071067811865476
vn 1 0 0
vn -1 0 0
vn 0 0 1
vn 0 0 -1
vn 0 -0.8660253028382763 0.5000001748438415
vn 0 0.8660253028382763 -0.5000001748438415
vn 0 0.2588189595935752 0.9659258492011171
vn 0 -0.2588189595935752 -0.9659258492011171
vn 0 0.5000001748438415 0.8660253028382763
vn 0 -0.5000001748438415 -0.8660253028382763
vn 0 0.7071067811865476 0.7071067811865478
vn 0 -0.7071067811865476 -0.7071067811865478
vn 0 0.8660253028382761 0.500000174843842
vn 0 -0.8660253028382761 -0.500000174843842
vn 0 -0.9659258492011171 0.2588189595935752
vn 0 0.9659258492011171 -0.2588189595935752
vn 0 0.9659258492011171 0.2588189595935757
vn 0 -0.9659258492011171 -0.2588189595935757
vn 0 -0.9914448886106773 0.13052598533534088
vn 0 0.9914448886106773 -0.13052598533534088
vn 0 0.9914448886106773 0.13052598533534132
vn 0 -0.9914448886106773 -0.13052598533534132
vn 0 -1 0
vn 0 1 0
usemtl material_0_0
f 1//1 2//2 3//2
f 2//2 1//1 4//1
f 3//3 2//3 1//4
f 4//4 1//4 2//3
f 5//5 3//2 2//2
f 2//3 3//3 5//6
f 6//7 1//7 3//7
f 3//8 1//8 6//8
f 7//9 4//1 1//1
f 1//4 4//4 7//10
f 4//8 8//8 2//8
f 2//7 8//7 4//7
f 3//2 5//5 9//5
f 9//6 5//6 3//3
f 2//8 10//8 5//8
f 5//7 10//7 2//7
f 1//7 6//7 7//7
f 7//8 6//8 1//8
f 6//7 3//7 11//7
f 11//8 3//8 6//8
f 4//1 7//9 12//9
f 12//10 7//10 4//4
f 4//8 13//8 8//8
f 8//7 13//7 4//7
f 2//8 8//8 10//8
f 10//7 8//7 2//7
f 5//5 14//11 9//5
f 9//6 14//12 5//6
f 11//7 3//7 9//7
f 9//8 3//8 11//8
f 5//8 10//8 15//8
f 15//7 10//7 5//7
f 6//13 12//9 7//9
f 7//10 12//10 6//14
f 11//15 13//13 6//13
f 6//14 13//14 11//16
f 13//8 4//8 12//8
f 12//7 4//7 13//7
f 13//13 11//15 8//15
f 8//16 11//16 13//14
f 8//15 16//17 10//17
f 10//18 16//18 8//16
f 14//11 5//5 17//11
f 17//12 5//6 14//12
f 16//7 9//7 14//7
f 14//8 9//8 16//8
f 11//7 9//7 16//7
f 16//8 9//8 11//8
f 16//17 15//19 10//17
f 10//18 15//20 16//18
f 5//8 15//8 17//8
f 17//7 15//7 5//7
f 12//9 6//13 13//13
f 13//14 6//14 12//10
f 16//17 8//15 11//15
f 11//16 8//16 16//18
f 17//11 18//21 14//11
f 14//12 18//22 17//12
f 16//7 14//7 19//7
f 19//8 14//8 16//8
f 15//19 16//17 19//19
f 19//20 16//18 15//20
f 17//8 15//8 20//8
f 20//7 15//7 17//7
f 18//21 17//11 21//21
f 21//22 17//12 18//22
f 19//7 14//7 18//7
f 18//8 14//8 19//8
f 19//19 20//23 15//19
f 15//20 20//24 19//20
f 17//8 20//8 21//8
f 21//7 20//7 17//7
f 21//21 22//25 18//21
f 18//22 22//26 21//22
f 19//7 18//7 23//7
f 23//8 18//8 19//8
f 20//23 19//19 23//23
f 23//24 19//20 20//24
f 21//8 20//8 24//8
f 24//7 20//7 21//7
f 22//25 21//21 25//25
f 25//26 21//22 22//26
f 23//7 18//7 22//7
f 22//8 18//8 23//8
f 23//23 24//27 20//23
f 20//24 24//28 23//24
f 21//8 24//8 25//8
f 25//7 24//7 21//7
f 25//29 26//29 22//29
f 22//30 26//30 25//30
f 23//7 22//7 27//7
f 27//8 22//8 23//8
f 24//27 23//23 27//27
f 27//28 23//24 24//28
f 25//8 24//8 28//8
f 28//7 24//7 25//7
f 26//29 25//29 29//29
f 29//30 25//30 26//30
f 27//7 22//7 26//7
f 26//8 22//8 27//8
f 27//30 28//30 24//30
f 24//29 28//29 27//29
f 25//8 28//8 29//8
f 29//7 28//7 25//7
f 28//10 26//10 29//10
f 29//9 26//9 28//9
f 27//7 26//7 30//7
f 30//8 26//8 27//8
f 28//30 27//30 30//30
f 30//29 27//29 28//29
f 26//10 28//10 30//10
f 30//9 28//9 26//9
