mtllib new-13.mtl
v 0.374458 -0.255969 -0.191590
v 0.191575 -0.222438 -0.191590
v 0.191575 -0.255969 -0.191590
v 0.374458 -0.222438 -0.191590
v 0.740223 -0.255969 0.679099
v -0.174189 -0.222438 -0.191590
v -0.174189 -0.255969 -0.225122
v 0.648782 -0.255969 -0.191590
v -0.174189 -0.255969 -0.191590
v 0.648782 -0.222438 -0.191590
v 0.735433 -0.255969 -0.191590
v -0.722837 -0.255969 0.679099
v 0.735433 -0.222438 -0.191590
v 0.740223 -0.255969 -0.225122
v -0.718046 -0.255969 -0.191590
v -0.722837 -0.239203 0.679099
v 0.740223 -0.222438 -0.191590
v -0.357072 -0.255969 -0.191590
v 0.740223 -0.239203 0.679099
v -0.722837 -0.255969 -0.225122
v -0.631395 -0.255969 -0.191590
v 0.740223 -0.222438 0.679099
v -0.357072 -0.222438 -0.191590
v 0.740223 -0.254826 -0.233800
v -0.718046 -0.255969 -0.225122
v -0.718046 -0.222438 -0.191590
v -0.722837 -0.222438 0.679099
v -0.722837 -0.254826 -0.233800
v 0.101949 -0.222438 0.415948
v 0.740223 -0.229623 -0.157949
v -0.722837 -0.222438 -0.191590
v 0.740223 -0.251477 -0.241887
v -0.718046 -0.254826 -0.233800
v -0.631395 -0.222438 -0.191590
v -0.722837 -0.239203 -0.191590
v -0.722837 -0.251477 -0.241887
v 0.105673 -0.222438 0.417491
v 0.740223 -0.229949 -0.160428
v 0.740223 -0.229623 0.041882
v 0.740223 -0.247394 -0.003145
v 0.740223 -0.239203 0.445626
v 0.097953 -0.222438 0.624822
v -0.722837 -0.246148 -0.248832
v 0.108870 -0.222438 0.419944
v 0.740223 -0.230906 -0.162739
v 0.740223 -0.229623 0.445626
v 0.740223 -0.229949 -0.155469
v -0.631395 -0.213759 -0.192733
v -0.084563 -0.222438 0.415948
v 0.740223 -0.245362 -0.003145
v 0.740223 -0.248784 -0.157949
v -0.722837 -0.213759 -0.192733
v 0.101949 -0.222438 0.624296
v -0.080566 -0.222438 0.624822
v 0.740223 -0.232429 -0.164723
v 0.740223 -0.230906 -0.153159
v 0.740223 -0.246148 -0.248832
v -0.357072 -0.213759 -0.192733
v -0.088287 -0.222438 0.417491
v 0.740223 -0.239203 -0.003145
v 0.740223 -0.248457 -0.155469
v -0.718046 -0.213759 -0.192733
v -0.084563 -0.222438 0.624296
v 0.740223 -0.234413 -0.166246
v 0.740223 -0.231012 -0.122174
v 0.740223 -0.239203 -0.191590
v -0.631395 -0.205672 -0.196083
v -0.091484 -0.222438 0.419944
v 0.740223 -0.247500 -0.153159
v 0.740223 -0.248457 -0.160428
v -0.722837 -0.205672 -0.196083
v -0.088287 -0.222438 0.622753
v 0.113393 -0.222438 0.430862
v 0.740223 -0.236724 -0.167203
v 0.740223 -0.231012 -0.075757
v 0.740223 -0.232429 -0.151175
v 0.740223 -0.241683 -0.167203
v -0.357072 -0.205672 -0.196083
v -0.093938 -0.222438 0.423142
v 0.740223 -0.247394 -0.122174
v 0.740223 -0.247500 -0.162739
v -0.718046 -0.205672 -0.196083
v -0.091484 -0.222438 0.620299
v 0.113393 -0.222438 0.609381
v 0.740223 -0.231012 -0.049562
v 0.740223 -0.234413 -0.149652
v 0.740223 -0.239203 -0.167529
v -0.095481 -0.222438 0.426866
v 0.740223 -0.245978 -0.151175
v 0.740223 -0.247394 -0.049562
v -0.093938 -0.222438 0.617102
v 0.740223 -0.231012 -0.003145
v 0.740223 -0.239203 -0.075757
v 0.740223 -0.236724 -0.148695
v -0.096007 -0.222438 0.430862
v 0.740223 -0.239203 -0.122174
v 0.740223 -0.247394 -0.075757
v 0.740223 -0.239203 -0.049562
v -0.096007 -0.222438 0.609381
v 0.740223 -0.243993 -0.149652
v 0.740223 -0.239203 0.041882
v 0.740223 -0.239203 -0.148368
v 0.740223 -0.241683 -0.148695
vn 0.000000 0.000000 1.000000
vn 0.000000 0.000000 -1.000000
vn 1.000000 0.000000 0.000000
vn -1.000000 0.000000 0.000000
vn 0.000000 -1.000000 0.000000
vn 0.000000 1.000000 0.000000
vn 0.000000 -0.997859 -0.065403
vn 0.000000 0.997859 0.065403
vn 0.000000 0.130526 0.991445
vn 0.000000 0.258819 0.965926
vn 0.000000 -0.130526 -0.991445
vn 0.000000 -0.258819 -0.965926
vn 0.000000 0.500000 0.866025
vn 0.000000 -0.500000 -0.866025
usemtl material-0
f 1//1 2//1 3//1
f 2//1 1//1 4//1
f 3//2 2//2 1//2
f 4//2 1//2 2//2
f 10//5 6//5 4//5
f 7//7 3//5 9//5
f 9//6 3//6 7//8
f 11//5 14//7 5//5
f 5//6 14//8 11//6
f 11//1 10//1 8//1
f 8//2 10//2 11//2
f 5//1 16//1 12//1
f 12//2 16//2 5//2
f 10//1 11//1 13//1
f 13//2 11//2 10//2
f 18//2 6//2 9//2
f 9//1 6//1 18//1
f 19//4 14//4 5//4
f 5//3 14//3 19//3
f 20//7 15//5 12//5
f 12//6 15//6 20//8
f 16//1 5//1 19//1
f 19//2 5//2 16//2
f 16//4 20//4 12//4
f 12//3 20//3 16//3
f 6//2 18//2 23//2
f 23//1 18//1 6//1
f 14//4 19//4 24//4
f 24//3 19//3 14//3
f 15//5 20//7 25//7
f 25//8 20//8 15//6
f 21//1 26//1 15//1
f 15//2 26//2 21//2
f 16//2 27//2 19//2
f 20//4 16//4 28//4
f 28//3 16//3 20//3
f 17//4 30//4 22//4
f 24//4 19//4 32//4
f 32//3 19//3 24//3
f 33//3 15//3 25//3
f 25//4 15//4 33//4
f 26//1 21//1 34//1
f 34//2 21//2 26//2
f 15//3 33//3 26//3
f 26//4 33//4 15//4
f 22//2 19//2 27//2
f 16//3 35//3 27//3
f 28//4 16//4 36//4
f 36//3 16//3 28//3
f 37//5 29//5 22//5
f 17//4 38//4 30//4
f 39//4 22//4 30//4
f 32//4 19//4 40//4
f 40//3 19//3 32//3
f 26//5 34//5 31//5
f 22//4 41//4 19//4
f 27//5 42//5 22//5
f 31//3 27//3 35//3
f 43//4 16//4 35//4
f 35//3 16//3 43//3
f 36//4 16//4 43//4
f 43//3 16//3 36//3
f 44//5 37//5 22//5
f 17//4 45//4 38//4
f 46//4 22//4 39//4
f 47//4 39//4 30//4
f 40//4 19//4 50//4
f 50//3 19//3 40//3
f 32//4 40//4 51//4
f 51//3 40//3 32//3
f 26//9 52//10 31//9
f 31//11 52//12 26//11
f 41//4 22//4 46//4
f 42//5 53//5 22//5
f 42//5 27//5 54//5
f 17//4 55//4 45//4
f 56//4 39//4 47//4
f 59//5 27//5 49//5
f 50//4 19//4 60//4
f 60//3 19//3 50//3
f 51//4 40//4 61//4
f 61//3 40//3 51//3
f 52//10 26//9 62//10
f 62//12 26//11 52//12
f 54//5 27//5 63//5
f 17//4 64//4 55//4
f 65//4 39//4 56//4
f 58//10 67//13 48//10
f 48//12 67//14 58//12
f 68//5 27//5 59//5
f 61//4 40//4 69//4
f 69//3 40//3 61//3
f 57//4 51//4 70//4
f 70//3 51//3 57//3
f 62//10 71//13 52//10
f 52//12 71//14 62//12
f 63//5 27//5 72//5
f 17//4 74//4 64//4
f 75//4 39//4 65//4
f 76//4 65//4 56//4
f 66//4 74//4 17//4
f 67//13 58//10 78//13
f 78//14 58//12 67//14
f 80//4 69//4 40//4
f 40//3 69//3 80//3
f 57//4 70//4 81//4
f 81//3 70//3 57//3
f 71//13 62//10 82//13
f 82//14 62//12 71//14
f 72//5 27//5 83//5
f 84//5 73//5 22//5
f 85//4 39//4 75//4
f 86//4 65//4 76//4
f 66//4 77//4 87//4
f 87//3 77//3 66//3
f 74//4 66//4 87//4
f 88//5 27//5 79//5
f 69//4 80//4 89//4
f 89//3 80//3 69//3
f 80//4 40//4 90//4
f 90//3 40//3 80//3
f 83//5 27//5 91//5
f 92//4 39//4 85//4
f 93//4 85//4 75//4
f 94//4 65//4 86//4
f 95//5 27//5 88//5
f 89//4 80//4 96//4
f 96//3 80//3 89//3
f 80//4 90//4 97//4
f 97//3 90//3 80//3
f 60//4 39//4 92//4
f 85//4 93//4 98//4
f 94//4 96//4 65//4
f 99//5 27//5 95//5
f 89//4 96//4 100//4
f 100//3 96//3 89//3
f 98//4 97//4 90//4
f 90//3 97//3 98//3
f 39//4 60//4 101//4
f 97//4 98//4 93//4
f 93//3 98//3 97//3
f 96//4 94//4 102//4
f 100//4 96//4 103//4
f 103//3 96//3 100//3
f 103//4 96//4 102//4
f 102//3 96//3 103//3
usemtl material-1
f 4//6 6//6 10//6
f 19//1 27//1 16//1
f 22//3 30//3 17//3
f 27//1 19//1 22//1
f 27//4 35//4 16//4
f 22//6 29//6 37//6
f 30//3 38//3 17//3
f 30//3 22//3 39//3
f 31//6 34//6 26//6
f 19//3 41//3 22//3
f 22//6 42//6 27//6
f 35//4 27//4 31//4
f 22//6 37//6 44//6
f 38//3 45//3 17//3
f 39//3 22//3 46//3
f 30//3 39//3 47//3
f 46//3 22//3 41//3
f 22//6 53//6 42//6
f 54//6 27//6 42//6
f 45//3 55//3 17//3
f 47//3 39//3 56//3
f 49//6 27//6 59//6
f 63//6 27//6 54//6
f 55//3 64//3 17//3
f 56//3 39//3 65//3
f 59//6 27//6 68//6
f 72//6 27//6 63//6
f 64//3 74//3 17//3
f 65//3 39//3 75//3
f 56//3 65//3 76//3
f 17//3 74//3 66//3
f 83//6 27//6 72//6
f 22//6 73//6 84//6
f 75//3 39//3 85//3
f 76//3 65//3 86//3
f 87//3 66//3 74//3
f 79//6 27//6 88//6
f 91//6 27//6 83//6
f 85//3 39//3 92//3
f 75//3 85//3 93//3
f 86//3 65//3 94//3
f 88//6 27//6 95//6
f 92//3 39//3 60//3
f 98//3 93//3 85//3
f 65//3 96//3 94//3
f 95//6 27//6 99//6
f 101//3 60//3 39//3
f 102//3 94//3 96//3