mtllib new-3.mtl
v 0.735433 -0.190049 -0.241887
v 0.735433 -0.223580 -0.258653
v 0.735433 -0.214902 -0.192733
v 0.648782 -0.190049 -0.258653
v 0.735433 -0.191191 -0.216443
v 0.735433 -0.223580 -0.191590
v 0.735433 -0.206815 -0.196083
v 0.648782 -0.223580 -0.258653
v 0.648782 -0.191191 -0.216443
v 0.735433 -0.194541 -0.208356
v 0.648782 -0.190049 -0.225122
v 0.735433 -0.232259 -0.257510
v 0.648782 -0.214902 -0.192733
v 0.735433 -0.199870 -0.201411
v 0.648782 -0.206815 -0.196083
v 0.648782 -0.232259 -0.257510
v 0.648782 -0.194541 -0.208356
v 0.735433 -0.232259 -0.192733
v 0.648782 -0.223580 -0.191590
v 0.648782 -0.199870 -0.201411
v 0.735433 -0.240346 -0.196083
v 0.648782 -0.240346 -0.254161
v 0.648782 -0.232259 -0.192733
v 0.735433 -0.240346 -0.254161
v 0.735433 -0.247290 -0.201411
v 0.648782 -0.240346 -0.196083
v 0.648782 -0.247290 -0.248832
v 0.735433 -0.247290 -0.248832
v 0.648782 -0.247290 -0.201411
v 0.735433 -0.252619 -0.208356
v 0.735433 -0.252619 -0.241887
v 0.648782 -0.252619 -0.241887
v 0.648782 -0.252619 -0.208356
v 0.735433 -0.255969 -0.216443
v 0.648782 -0.255969 -0.216443
v 0.735433 -0.255969 -0.233800
v 0.648782 -0.255969 -0.233800
v 0.735433 -0.257111 -0.225122
v 0.648782 -0.257111 -0.225122
vn 0.000000 1.000000 0.000000
vn -1.000000 0.000000 0.000000
vn 1.000000 0.000000 0.000000
vn 0.000000 0.000000 1.000000
vn 0.000000 0.065403 0.997859
vn 0.000000 0.258819 0.965926
vn 0.000000 -0.965926 -0.258819
vn 0.000000 0.000000 -1.000000
vn 0.000000 -0.258819 -0.965926
vn 0.000000 -0.500000 -0.866025
vn 0.000000 -1.000000 0.000000
vn 0.000000 -0.866025 -0.500000
vn 0.000000 0.500000 0.866025
vn 0.000000 0.258819 -0.965926
vn 0.000000 -0.707107 -0.707107
vn 0.000000 0.707107 0.707107
vn 0.000000 0.500000 -0.866025
vn 0.000000 0.707107 -0.707107
vn 0.000000 0.866025 0.500000
vn 0.000000 0.866025 -0.500000
vn 0.000000 0.965926 0.258819
vn 0.000000 0.965926 -0.258819
vn 0.000000 -0.065403 -0.997859
vn 0.000000 -0.258819 0.965926
vn 0.000000 -0.500000 0.866025
vn 0.000000 -0.707107 0.707107
vn 0.000000 -0.866025 0.500000
vn 0.000000 -0.965926 0.258819
usemtl material-0
f 3//9 6//8 13//9
f 7//10 3//9 15//10
f 8//5 16//6 2//5
f 4//3 13//3 8//3
f 9//7 5//7 17//12
f 10//12 17//12 5//7
f 12//6 2//5 16//6
f 19//8 13//9 6//8
f 13//9 15//10 3//9
f 14//15 7//10 20//15
f 15//10 20//15 7//10
f 8//3 19//3 16//3
f 13//3 19//3 8//3
f 15//3 13//3 4//3
f 11//3 9//3 4//3
f 9//3 17//3 4//3
f 14//15 20//15 10//12
f 17//12 10//12 20//15
f 6//8 18//14 19//8
f 16//6 22//13 12//6
f 20//3 15//3 4//3
f 19//3 23//3 16//3
f 17//3 20//3 4//3
f 18//14 21//17 23//14
f 23//14 19//8 18//14
f 24//13 12//6 22//13
f 16//3 23//3 22//3
f 26//17 23//14 21//17
f 22//13 27//16 24//13
f 23//3 26//3 22//3
f 21//17 25//18 26//17
f 28//16 24//13 27//16
f 22//3 29//3 27//3
f 26//3 29//3 22//3
f 29//18 26//17 25//18
f 28//16 27//16 31//19
f 27//3 29//3 32//3
f 30//20 33//20 25//18
f 29//18 25//18 33//20
f 32//19 31//19 27//16
f 29//3 33//3 32//3
f 33//20 30//20 35//22
f 31//19 32//19 36//21
f 32//3 33//3 37//3
f 34//22 35//22 30//20
f 33//3 35//3 37//3
f 37//21 36//21 32//19
f 35//22 34//22 39//1
f 39//3 37//3 35//3
f 36//21 37//21 38//1
f 38//1 39//1 34//22
f 39//1 38//1 37//21
usemtl material-1
f 1//2 2//2 3//2
f 3//2 2//2 6//2
f 7//2 1//2 3//2
f 5//2 1//2 10//2
f 2//2 12//2 6//2
f 14//2 1//2 7//2
f 10//2 1//2 14//2
f 6//2 12//2 18//2
f 18//2 12//2 21//2
f 12//2 24//2 21//2
f 21//2 24//2 25//2
f 24//2 28//2 25//2
f 25//2 28//2 30//2
f 28//2 31//2 30//2
f 30//2 31//2 34//2
f 31//2 36//2 34//2
f 38//2 34//2 36//2
usemtl material-2
f 3//3 2//3 1//3
f 6//3 2//3 3//3
f 3//3 1//3 7//3
f 10//3 1//3 5//3
f 6//3 12//3 2//3
f 13//6 6//4 3//6
f 7//3 1//3 14//3
f 15//13 3//6 7//13
f 2//23 16//9 8//23
f 8//2 13//2 4//2
f 17//19 5//21 9//21
f 14//3 1//3 10//3
f 5//21 17//19 10//19
f 18//3 12//3 6//3
f 16//9 2//23 12//9
f 6//4 13//6 19//4
f 3//6 15//13 13//6
f 20//16 7//13 14//16
f 7//13 20//16 15//13
f 16//2 19//2 8//2
f 8//2 19//2 13//2
f 4//2 13//2 15//2
f 4//2 9//2 11//2
f 4//2 17//2 9//2
f 10//19 20//16 14//16
f 20//16 10//19 17//19
f 21//3 12//3 18//3
f 19//4 18//24 6//4
f 12//9 22//10 16//9
f 4//2 15//2 20//2
f 16//2 23//2 19//2
f 4//2 20//2 17//2
f 21//3 24//3 12//3
f 23//24 21//25 18//24
f 18//24 19//4 23//24
f 22//10 12//9 24//10
f 22//2 23//2 16//2
f 25//3 24//3 21//3
f 21//25 23//24 26//25
f 24//10 27//15 22//10
f 22//2 26//2 23//2
f 25//3 28//3 24//3
f 26//25 25//26 21//25
f 27//15 24//10 28//15
f 27//2 29//2 22//2
f 22//2 29//2 26//2
f 30//3 28//3 25//3
f 25//26 26//25 29//26
f 31//12 27//15 28//15
f 32//2 29//2 27//2
f 30//3 31//3 28//3
f 25//26 33//27 30//27
f 33//27 25//26 29//26
f 27//15 31//12 32//12
f 32//2 33//2 29//2
f 34//3 31//3 30//3
f 35//28 30//27 33//27
f 36//7 32//12 31//12
f 37//2 33//2 32//2
f 34//3 36//3 31//3
f 30//27 35//28 34//28
f 37//2 35//2 33//2
f 32//12 36//7 37//7
f 36//3 34//3 38//3
f 39//11 34//28 35//28
f 35//2 37//2 39//2
f 38//11 37//7 36//7
f 34//28 39//11 38//11
f 37//7 38//11 39//11