mtllib new-9.mtl
v 0.735433 -0.255969 -0.191590
v 0.735433 -0.222438 -0.191590
v 0.740223 -0.255969 -0.225122
v 0.740223 -0.222438 -0.191590
v 0.735433 -0.255969 -0.225122
v 0.735433 -0.213759 -0.192733
v 0.740223 -0.254826 -0.233800
v 0.740223 -0.213759 -0.192733
v 0.735433 -0.222438 -0.258653
v 0.735433 -0.254826 -0.233800
v 0.740223 -0.251477 -0.241887
v 0.740223 -0.222438 -0.258653
v 0.735433 -0.205672 -0.196083
v 0.735433 -0.231116 -0.257510
v 0.735433 -0.213759 -0.257510
v 0.735433 -0.251477 -0.241887
v 0.740223 -0.231116 -0.257510
v 0.740223 -0.213759 -0.257510
v 0.740223 -0.205672 -0.196083
v 0.735433 -0.239203 -0.254161
v 0.735433 -0.246148 -0.248832
v 0.740223 -0.248784 -0.157949
v 0.740223 -0.239203 -0.254161
v 0.735433 -0.198727 -0.201411
v 0.735433 -0.205672 -0.254161
v 0.740223 -0.205672 -0.254161
v 0.740223 -0.246148 -0.248832
v 0.740223 -0.239203 -0.191590
v 0.740223 -0.198727 -0.201411
v 0.740223 -0.241683 -0.167203
v 0.740223 -0.193399 -0.208356
v 0.735433 -0.198727 -0.248832
v 0.740223 -0.198727 -0.248832
v 0.740223 -0.245978 -0.164723
v 0.740223 -0.247500 -0.162739
v 0.740223 -0.243993 -0.166246
v 0.735433 -0.193399 -0.208356
v 0.740223 -0.190049 -0.216443
v 0.740223 -0.193399 -0.241887
v 0.735433 -0.193399 -0.241887
v 0.735433 -0.190049 -0.216443
v 0.740223 -0.188906 -0.225122
v 0.740223 -0.190049 -0.233800
v 0.735433 -0.190049 -0.233800
v 0.735433 -0.188906 -0.225122
vn 0.000000 0.000000 1.000000
vn 0.000000 0.000000 -1.000000
vn 1.000000 0.000000 0.000000
vn -1.000000 0.000000 0.000000
vn 0.000000 -1.000000 0.000000
vn 0.000000 1.000000 0.000000
vn 0.000000 -0.997859 -0.065403
vn 0.000000 0.997859 0.065403
vn 0.000000 0.130526 0.991445
vn 0.000000 0.258819 0.965926
vn 0.000000 -0.130526 -0.991445
vn 0.000000 -0.258819 -0.965926
vn 0.000000 -0.965926 -0.258819
vn 0.000000 0.965926 0.258819
vn 0.000000 -0.866025 -0.500000
vn 0.000000 0.866025 0.500000
vn 0.000000 0.500000 0.866025
vn 0.000000 -0.500000 -0.866025
vn 0.000000 -0.707107 -0.707107
vn 0.000000 0.707107 0.707107
vn 0.000000 0.258819 -0.965926
vn 0.000000 -0.258819 0.965926
vn 0.000000 0.500000 -0.866025
vn 0.000000 -0.500000 0.866025
vn 0.000000 0.707107 -0.707107
vn 0.000000 -0.707107 0.707107
vn 0.000000 0.866025 -0.500000
vn 0.000000 -0.866025 0.500000
vn 0.000000 0.965926 -0.258819
vn 0.000000 -0.965926 0.258819
usemtl material-0
f 3//7 1//5 5//7
f 5//8 1//6 3//8
f 4//9 6//10 2//9
f 2//11 6//12 4//11
f 5//3 2//3 1//3
f 1//4 2//4 5//4
f 5//7 7//13 3//7
f 3//8 7//14 5//8
f 6//10 4//9 8//10
f 8//12 4//11 6//12
f 2//3 9//3 6//3
f 6//4 9//4 2//4
f 2//3 5//3 10//3
f 10//4 5//4 2//4
f 7//13 5//7 10//13
f 10//14 5//8 7//14
f 12//4 4//4 8//4
f 8//3 4//3 12//3
f 8//10 13//17 6//10
f 6//12 13//18 8//12
f 2//3 14//3 9//3
f 9//4 14//4 2//4
f 6//3 9//3 15//3
f 15//4 9//4 6//4
f 2//3 10//3 16//3
f 16//4 10//4 2//4
f 10//13 11//15 7//13
f 7//14 11//16 10//14
f 17//4 4//4 12//4
f 12//3 4//3 17//3
f 12//4 8//4 18//4
f 18//3 8//3 12//3
f 13//17 8//10 19//17
f 19//18 8//12 13//18
f 6//3 15//3 13//3
f 13//4 15//4 6//4
f 2//3 20//3 14//3
f 14//4 20//4 2//4
f 12//2 14//12 9//2
f 9//1 14//10 12//1
f 18//21 9//2 15//21
f 15//22 9//1 18//22
f 11//15 10//13 16//15
f 16//16 10//14 11//16
f 2//3 16//3 21//3
f 21//4 16//4 2//4
f 23//4 4//4 17//4
f 17//3 4//3 23//3
f 14//12 12//2 17//12
f 17//10 12//1 14//10
f 18//4 8//4 19//4
f 19//3 8//3 18//3
f 9//2 18//21 12//2
f 12//1 18//22 9//1
f 19//17 24//20 13//17
f 13//18 24//19 19//18
f 13//3 15//3 25//3
f 25//4 15//4 13//4
f 2//3 21//3 20//3
f 20//4 21//4 2//4
f 17//12 20//18 14//12
f 14//10 20//17 17//10
f 15//21 26//23 18//21
f 18//22 26//24 15//22
f 16//15 27//19 11//15
f 11//16 27//20 16//16
f 27//19 16//15 21//19
f 21//20 16//16 27//20
f 22//4 27//4 11//4
f 11//3 27//3 22//3
f 23//4 28//4 4//4
f 4//3 28//3 23//3
f 20//18 17//12 23//18
f 23//17 17//10 20//17
f 18//4 19//4 26//4
f 26//3 19//3 18//3
f 24//20 19//17 29//20
f 29//19 19//18 24//19
f 13//3 25//3 24//3
f 24//4 25//4 13//4
f 26//23 15//21 25//23
f 25//24 15//22 26//24
f 23//18 21//19 20//18
f 20//17 21//20 23//17
f 21//19 23//18 27//19
f 27//20 23//17 21//20
f 23//4 30//4 28//4
f 28//3 30//3 23//3
f 26//4 19//4 29//4
f 29//3 19//3 26//3
f 31//16 24//20 29//20
f 29//19 24//19 31//15
f 24//3 25//3 32//3
f 32//4 25//4 24//4
f 25//23 33//25 26//23
f 26//24 33//26 25//24
f 27//4 34//4 23//4
f 23//3 34//3 27//3
f 23//4 36//4 30//4
f 30//3 36//3 23//3
f 26//4 29//4 33//4
f 33//3 29//3 26//3
f 24//20 31//16 37//16
f 37//15 31//15 24//19
f 33//4 29//4 31//4
f 31//3 29//3 33//3
f 33//25 25//23 32//25
f 32//26 25//24 33//26
f 24//3 32//3 37//3
f 37//4 32//4 24//4
f 27//4 35//4 34//4
f 34//3 35//3 27//3
f 23//4 34//4 36//4
f 36//3 34//3 23//3
f 38//14 37//16 31//16
f 31//15 37//15 38//13
f 33//4 31//4 39//4
f 39//3 31//3 33//3
f 40//27 33//25 32//25
f 32//26 33//26 40//28
f 37//3 32//3 40//3
f 40//4 32//4 37//4
f 37//16 38//14 41//14
f 41//13 38//13 37//15
f 39//4 31//4 38//4
f 38//3 31//3 39//3
f 33//25 40//27 39//27
f 39//28 40//28 33//26
f 37//3 40//3 41//3
f 41//4 40//4 37//4
f 42//6 41//14 38//14
f 38//13 41//13 42//5
f 39//4 38//4 43//4
f 43//3 38//3 39//3
f 44//29 39//27 40//27
f 40//28 39//28 44//30
f 41//3 40//3 44//3
f 44//4 40//4 41//4
f 41//14 42//6 45//6
f 45//5 42//5 41//13
f 43//4 38//4 42//4
f 42//3 38//3 43//3
f 39//27 44//29 43//29
f 43//30 44//30 39//28
f 41//3 44//3 45//3
f 45//4 44//4 41//4
f 43//29 45//6 42//6
f 42//5 45//5 43//30
f 45//6 43//29 44//29
f 44//30 43//30 45//5