# SSTK version 0.8.0
# 2
mtllib original-2.mtl
o Group2/mesh1/mesh1-geometry#mesh1-geometry
v 0.101949 -0.222438 0.415948
v -0.080566 -0.222438 0.415422
v 0.097953 -0.222438 0.415422
v -0.084563 -0.222438 0.415948
v 0.097953 -0.221753 0.415422
v 0.101949 -0.221753 0.415948
v 0.105673 -0.222438 0.417491
v -0.080566 -0.221753 0.415422
v 0.105673 -0.221753 0.417491
v -0.088287 -0.222438 0.417491
v -0.084563 -0.221753 0.415948
v -0.088287 -0.221753 0.417491
v 0.108870 -0.221753 0.419945
v 0.108870 -0.222438 0.419945
v -0.091484 -0.221753 0.419945
v -0.091484 -0.222438 0.419945
v 0.111324 -0.222438 0.423142
v -0.093938 -0.221753 0.423142
v 0.111324 -0.221753 0.423142
v -0.093938 -0.222438 0.423142
v 0.112867 -0.222438 0.426866
v -0.095481 -0.221753 0.426866
v -0.095481 -0.222438 0.426866
v 0.112867 -0.221753 0.426866
v 0.113393 -0.222438 0.430862
v -0.096007 -0.221753 0.430862
v 0.113393 -0.221753 0.430862
v -0.096007 -0.222438 0.430862
v 0.113393 -0.221753 0.609381
v 0.113393 -0.222438 0.609381
v -0.096007 -0.221753 0.609381
v -0.096007 -0.222438 0.609381
v 0.112867 -0.222438 0.613378
v -0.095481 -0.221753 0.613378
v 0.112867 -0.221753 0.613378
v -0.095481 -0.222438 0.613378
v 0.111324 -0.222438 0.617102
v -0.093938 -0.221753 0.617102
v 0.111324 -0.221753 0.617102
v -0.093938 -0.222438 0.617102
v 0.108870 -0.222438 0.620299
v -0.091484 -0.221753 0.620299
v -0.091484 -0.222438 0.620299
v 0.108870 -0.221753 0.620299
v 0.105673 -0.221753 0.622753
v 0.105673 -0.222438 0.622753
v -0.088287 -0.221753 0.622753
v -0.088287 -0.222438 0.622753
v 0.101949 -0.221753 0.624296
v -0.084563 -0.221753 0.624296
v 0.101949 -0.222438 0.624296
v -0.084563 -0.222438 0.624296
v 0.097953 -0.221753 0.624822
v -0.080566 -0.221753 0.624822
v -0.080566 -0.222438 0.624822
v 0.097953 -0.222438 0.624822
vn 0 -1 0
vn -0.06540299554311302 0 -0.9978589320009053
vn 0.06540299554311302 0 -0.9978589320009053
vn 0.2588189595935754 0 -0.965925849201117
vn -0.2588189595935754 0 -0.965925849201117
vn 0.5000001748438417 0 -0.8660253028382762
vn 0 1 0
vn 0.7071067811865476 0 -0.7071067811865476
vn -0.5000001748438417 0 -0.8660253028382762
vn -0.7071067811865476 0 -0.7071067811865476
vn 0.8660253028382762 0 -0.5000001748438417
vn -0.8660253028382762 0 -0.5000001748438417
vn 0.965925849201117 0 -0.2588189595935754
vn -0.965925849201117 0 -0.2588189595935754
vn 0.9978589320009053 0 -0.06540299554311302
vn -0.9978589320009053 0 -0.06540299554311302
vn 0.9978589320009053 0 0.06540299554311302
vn -0.9978589320009053 0 0.06540299554311302
vn 0.965925849201117 0 0.2588189595935754
vn -0.965925849201117 0 0.2588189595935754
vn 0.8660253028382762 0 0.5000001748438417
vn -0.8660253028382762 0 0.5000001748438417
vn 0.7071067811865476 0 0.7071067811865476
vn -0.7071067811865476 0 0.7071067811865476
vn 0.5000001748438417 0 0.8660253028382762
vn -0.5000001748438417 0 0.8660253028382762
vn 0.2588189595935754 0 0.965925849201117
vn -0.2588189595935754 0 0.965925849201117
vn 0.06540299554311302 0 0.9978589320009053
vn -0.06540299554311302 0 0.9978589320009053
usemtl material_0_0
f 1//1 2//1 3//1
f 2//1 1//1 4//1
f 2//2 5//3 3//3
f 3//3 6//4 1//4
f 4//1 1//1 7//1
f 4//5 8//2 2//2
f 5//3 2//2 8//2
f 6//4 3//3 5//3
f 9//6 1//4 6//4
f 1//4 9//6 7//6
f 4//1 7//1 10//1
f 8//2 4//5 11//5
f 11//7 5//7 8//7
f 5//7 11//7 6//7
f 6//7 12//7 9//7
f 13//8 7//6 9//6
f 10//1 7//1 14//1
f 10//9 11//5 4//5
f 6//7 11//7 12//7
f 9//7 12//7 15//7
f 7//6 13//8 14//8
f 9//7 15//7 13//7
f 10//1 14//1 16//1
f 11//5 10//9 12//9
f 12//9 16//10 15//10
f 13//8 17//11 14//8
f 13//7 15//7 18//7
f 16//1 14//1 17//1
f 16//10 12//9 10//9
f 16//10 18//12 15//10
f 17//11 13//8 19//11
f 13//7 18//7 19//7
f 16//1 17//1 20//1
f 18//12 16//10 20//12
f 19//11 21//13 17//11
f 19//7 18//7 22//7
f 20//1 17//1 23//1
f 20//12 22//14 18//12
f 21//13 19//11 24//13
f 23//1 17//1 21//1
f 19//7 22//7 24//7
f 22//14 20//12 23//14
f 24//13 25//15 21//13
f 23//1 21//1 25//1
f 24//7 22//7 26//7
f 23//14 26//16 22//14
f 25//15 24//13 27//15
f 23//1 25//1 28//1
f 24//7 26//7 27//7
f 26//16 23//14 28//16
f 29//17 25//15 27//15
f 28//1 25//1 30//1
f 27//7 26//7 31//7
f 28//16 31//18 26//16
f 25//15 29//17 30//17
f 27//7 31//7 29//7
f 28//1 30//1 32//1
f 31//18 28//16 32//18
f 29//17 33//19 30//17
f 29//7 31//7 34//7
f 32//1 30//1 33//1
f 32//18 34//20 31//18
f 33//19 29//17 35//19
f 29//7 34//7 35//7
f 32//1 33//1 36//1
f 34//20 32//18 36//20
f 35//19 37//21 33//19
f 35//7 34//7 38//7
f 36//1 33//1 37//1
f 36//20 38//22 34//20
f 37//21 35//19 39//21
f 35//7 38//7 39//7
f 36//1 37//1 40//1
f 38//22 36//20 40//22
f 39//21 41//23 37//21
f 39//7 38//7 42//7
f 40//1 37//1 43//1
f 40//22 42//24 38//22
f 41//23 39//21 44//23
f 43//1 37//1 41//1
f 39//7 42//7 44//7
f 42//24 40//22 43//24
f 45//25 41//23 44//23
f 43//1 41//1 46//1
f 44//7 42//7 47//7
f 48//26 42//24 43//24
f 41//23 45//25 46//25
f 44//7 47//7 45//7
f 43//1 46//1 48//1
f 42//24 48//26 47//26
f 49//27 46//25 45//25
f 45//7 47//7 50//7
f 48//1 46//1 51//1
f 52//28 47//26 48//26
f 46//25 49//27 51//27
f 45//7 50//7 49//7
f 47//26 52//28 50//28
f 48//1 51//1 52//1
f 53//29 51//27 49//27
f 49//7 50//7 54//7
f 55//30 50//28 52//28
f 52//1 51//1 56//1
f 51//27 53//29 56//29
f 49//7 54//7 53//7
f 50//28 55//30 54//30
f 52//1 56//1 55//1
f 54//30 56//29 53//29
f 56//29 54//30 55//30
usemtl material_1_0
f 3//7 2//7 1//7
f 4//7 1//7 2//7
f 3//30 5//30 2//29
f 1//28 6//28 3//30
f 7//7 1//7 4//7
f 2//29 8//29 4//27
f 8//29 2//29 5//30
f 5//30 3//30 6//28
f 6//28 1//28 9//26
f 7//26 9//26 1//28
f 10//7 7//7 4//7
f 11//27 4//27 8//29
f 8//1 5//1 11//1
f 6//1 11//1 5//1
f 9//1 12//1 6//1
f 9//26 7//26 13//24
f 14//7 7//7 10//7
f 4//27 11//27 10//25
f 12//1 11//1 6//1
f 15//1 12//1 9//1
f 14//24 13//24 7//26
f 13//1 15//1 9//1
f 16//7 14//7 10//7
f 12//25 10//25 11//27
f 15//23 16//23 12//25
f 14//24 17//22 13//24
f 18//1 15//1 13//1
f 17//7 14//7 16//7
f 10//25 12//25 16//23
f 15//23 18//21 16//23
f 19//22 13//24 17//22
f 19//1 18//1 13//1
f 20//7 17//7 16//7
f 20//21 16//23 18//21
f 17//22 21//20 19//22
f 22//1 18//1 19//1
f 23//7 17//7 20//7
f 18//21 22//19 20//21
f 24//20 19//22 21//20
f 21//7 17//7 23//7
f 24//1 22//1 19//1
f 23//19 20//21 22//19
f 21//20 25//18 24//20
f 25//7 21//7 23//7
f 26//1 22//1 24//1
f 22//19 26//17 23//19
f 27//18 24//20 25//18
f 28//7 25//7 23//7
f 27//1 26//1 24//1
f 28//17 23//19 26//17
f 27//18 25//18 29//16
f 30//7 25//7 28//7
f 31//1 26//1 27//1
f 26//17 31//15 28//17
f 30//16 29//16 25//18
f 29//1 31//1 27//1
f 32//7 30//7 28//7
f 32//15 28//17 31//15
f 30//16 33//14 29//16
f 34//1 31//1 29//1
f 33//7 30//7 32//7
f 31//15 34//13 32//15
f 35//14 29//16 33//14
f 35//1 34//1 29//1
f 36//7 33//7 32//7
f 36//13 32//15 34//13
f 33//14 37//12 35//14
f 38//1 34//1 35//1
f 37//7 33//7 36//7
f 34//13 38//11 36//13
f 39//12 35//14 37//12
f 39//1 38//1 35//1
f 40//7 37//7 36//7
f 40//11 36//13 38//11
f 37//12 41//10 39//12
f 42//1 38//1 39//1
f 43//7 37//7 40//7
f 38//11 42//8 40//11
f 44//10 39//12 41//10
f 41//7 37//7 43//7
f 44//1 42//1 39//1
f 43//8 40//11 42//8
f 44//10 41//10 45//9
f 46//7 41//7 43//7
f 47//1 42//1 44//1
f 43//8 42//8 48//6
f 46//9 45//9 41//10
f 45//1 47//1 44//1
f 48//7 46//7 43//7
f 47//6 48//6 42//8
f 45//9 46//9 49//5
f 50//1 47//1 45//1
f 51//7 46//7 48//7
f 48//6 47//6 52//4
f 51//5 49//5 46//9
f 49//1 50//1 45//1
f 50//4 52//4 47//6
f 52//7 51//7 48//7
f 49//5 51//5 53//2
f 54//1 50//1 49//1
f 52//4 50//4 55//3
f 56//7 51//7 52//7
f 56//2 53//2 51//5
f 53//1 54//1 49//1
f 54//3 55//3 50//4
f 55//7 56//7 52//7
f 53//2 56//2 54//3
f 55//3 54//3 56//2
