# SSTK version 0.8.0
# 26
mtllib original-26.mtl
o Group8/mesh51/mesh51-geometry#mesh51-geometry
v 0.181659 -0.205382 0.240090
v 0.087745 -0.205382 0.146176
v 0.181659 -0.205382 0.146176
v 0.087745 -0.205382 0.202180
v 0.190706 -0.221753 0.137129
v 0.059743 -0.205382 0.202180
v 0.078698 -0.221753 0.193133
v 0.078698 -0.221753 0.137129
v 0.190706 -0.221753 0.249137
v 0.059743 -0.205382 0.240090
v 0.106700 -0.205382 0.240090
v 0.050696 -0.221753 0.249137
v 0.050696 -0.221753 0.193133
vn 0 -1 0
vn 0 1 0
vn 0 -0.483668996478406 0.8752509936272974
vn 0 0.483668996478406 -0.8752509936272974
vn -0.8752509936272974 -0.483668996478406 0
vn 0.8752509936272974 0.483668996478406 0
vn 0.8752509936272974 -0.483668996478406 0
vn -0.8752509936272974 0.483668996478406 0
vn 0 -0.483668996478406 -0.8752509936272974
vn 0 0.483668996478406 0.8752509936272974
usemtl material_0_0
f 1//1 2//1 3//1
f 2//1 1//1 4//1
f 3//2 2//2 1//2
f 4//2 1//2 2//2
f 2//3 5//3 3//3
f 3//4 5//4 2//4
f 5//5 1//5 3//5
f 3//6 1//6 5//6
f 4//1 1//1 6//1
f 6//2 1//2 4//2
f 7//7 2//7 4//7
f 4//8 2//8 7//8
f 5//3 2//3 8//3
f 8//4 2//4 5//4
f 1//5 5//5 9//5
f 9//6 5//6 1//6
f 6//1 1//1 10//1
f 10//2 1//2 6//2
f 6//3 7//3 4//3
f 4//4 7//4 6//4
f 2//7 7//7 8//7
f 8//8 7//8 2//8
f 9//9 11//9 1//9
f 1//10 11//10 9//10
f 10//1 1//1 11//1
f 11//2 1//2 10//2
f 12//7 6//7 10//7
f 10//8 6//8 12//8
f 7//3 6//3 13//3
f 13//4 6//4 7//4
f 9//9 10//9 11//9
f 11//10 10//10 9//10
f 6//7 12//7 13//7
f 13//8 12//8 6//8
f 10//9 9//9 12//9
f 12//10 9//10 10//10
