# SSTK version 0.8.0
# 71
mtllib original-71.mtl
o Component_1_67/Component_1/mesh6/mesh6-geometry#mesh6-geometry
v 0.233522 -0.201470 0.085075
v 0.191609 -0.214456 0.088570
v 0.238439 -0.214456 0.088570
v 0.196527 -0.201470 0.085075
v 0.238439 -0.214456 0.055282
v 0.196527 -0.201470 0.058778
v 0.191609 -0.214456 0.055282
v 0.233522 -0.201470 0.058778
vn 0 0.25989775352818134 0.9656361414689307
vn 0 -0.25989775352818134 -0.9656361414689307
vn 0 -1 0
vn 0 1 0
vn 0.9352061938022206 0.35410362194414735 0
vn -0.9352061938022206 -0.35410362194414735 0
vn -0.9352061938022206 0.35410362194414735 0
vn 0.9352061938022206 -0.35410362194414735 0
vn 0 0.25989775352818134 -0.9656361414689307
vn 0 -0.25989775352818134 0.9656361414689307
usemtl material_0_0
f 1//1 2//1 3//1
f 2//1 1//1 4//1
f 3//2 2//2 1//2
f 4//2 1//2 2//2
f 2//3 5//3 3//3
f 3//4 5//4 2//4
f 5//5 1//5 3//5
f 3//6 1//6 5//6
f 1//4 6//4 4//4
f 4//3 6//3 1//3
f 4//7 7//7 2//7
f 2//8 7//8 4//8
f 5//3 2//3 7//3
f 7//4 2//4 5//4
f 1//5 5//5 8//5
f 8//6 5//6 1//6
f 6//4 1//4 8//4
f 8//3 1//3 6//3
f 7//7 4//7 6//7
f 6//8 4//8 7//8
f 6//9 5//9 7//9
f 7//10 5//10 6//10
f 5//9 6//9 8//9
f 8//10 6//10 5//10
