# SSTK version 0.8.0
# 20
mtllib original-20.mtl
o mesh92/mesh92-geometry#mesh92-geometry
v 0.146893 0.799707 -0.346284
v 0.146868 0.799954 -0.343460
v 0.146787 0.799841 -0.344755
v 0.147110 0.800057 -0.342282
v 0.146787 0.800526 -0.344815
v 0.146893 0.800392 -0.346344
v 0.147211 0.799589 -0.347637
v 0.146868 0.800639 -0.343520
v 0.147211 0.800273 -0.347697
v 0.147513 0.800150 -0.341219
v 0.147110 0.800742 -0.342341
v 0.147742 0.800170 -0.348875
v 0.147742 0.799486 -0.348815
v 0.147513 0.800835 -0.341279
v 0.148078 0.800233 -0.340273
v 0.148484 0.800083 -0.349878
v 0.148078 0.800918 -0.340333
v 0.148484 0.799398 -0.349818
v 0.149006 0.800318 -0.339304
v 0.149388 0.799328 -0.350619
v 0.149006 0.801002 -0.339364
v 0.149388 0.800012 -0.350679
v 0.150155 0.800378 -0.338611
v 0.150404 0.799278 -0.351191
v 0.150155 0.801063 -0.338671
v 0.150404 0.799962 -0.351251
v 0.150327 0.799919 -0.343861
v 0.151526 0.801099 -0.338256
v 0.151533 0.799248 -0.351534
v 0.150327 0.800604 -0.343921
v 0.150389 0.799735 -0.345967
v 0.150555 0.800038 -0.342500
v 0.151526 0.800415 -0.338196
v 0.150555 0.800723 -0.342560
v 0.151533 0.799932 -0.351594
v 0.150564 0.799624 -0.347228
v 0.150389 0.800419 -0.346027
v 0.158980 0.799919 -0.343861
v 0.153117 0.801111 -0.338117
v 0.151163 0.800812 -0.341539
v 0.150564 0.800309 -0.347288
v 0.152773 0.799238 -0.351649
v 0.151114 0.799540 -0.348196
v 0.158980 0.800604 -0.343921
v 0.155551 0.799735 -0.345967
v 0.151163 0.800127 -0.341480
v 0.153117 0.800427 -0.338057
v 0.152060 0.800868 -0.340901
v 0.151114 0.800224 -0.348256
v 0.152773 0.799922 -0.351709
v 0.151950 0.799486 -0.348811
v 0.155551 0.800419 -0.346027
v 0.156451 0.799332 -0.350571
v 0.158907 0.799757 -0.345711
v 0.152060 0.800183 -0.340841
v 0.155089 0.801090 -0.338364
v 0.153154 0.800887 -0.340688
v 0.151950 0.800171 -0.348871
v 0.154153 0.799248 -0.351529
v 0.152982 0.799468 -0.349016
v 0.156451 0.800017 -0.350631
v 0.155379 0.799280 -0.351170
v 0.157370 0.799405 -0.349732
v 0.158907 0.800442 -0.345771
v 0.158615 0.799618 -0.347306
v 0.153154 0.800202 -0.340629
v 0.155089 0.800405 -0.338304
v 0.152982 0.800153 -0.349076
v 0.154153 0.799933 -0.351589
v 0.157370 0.800090 -0.349792
v 0.155379 0.799964 -0.351230
v 0.155339 0.800304 -0.347342
v 0.155339 0.799620 -0.347282
v 0.158102 0.799500 -0.348647
v 0.158615 0.800302 -0.347366
v 0.155939 0.801063 -0.338672
v 0.153901 0.800877 -0.340799
v 0.153901 0.800192 -0.340739
v 0.153959 0.799485 -0.348822
v 0.153959 0.800170 -0.348882
v 0.158102 0.800185 -0.348707
v 0.154777 0.799536 -0.348239
v 0.155939 0.800378 -0.338612
v 0.155354 0.800724 -0.342550
v 0.154519 0.800848 -0.341129
v 0.154777 0.800221 -0.348298
v 0.154519 0.800163 -0.341069
v 0.155354 0.800039 -0.342490
v 0.156700 0.801025 -0.339103
v 0.155004 0.800798 -0.341705
v 0.158796 0.800774 -0.341974
v 0.155004 0.800113 -0.341645
v 0.158796 0.800089 -0.341914
v 0.156700 0.800341 -0.339043
v 0.157368 0.800977 -0.339652
v 0.157940 0.800919 -0.340313
v 0.157368 0.800293 -0.339592
v 0.157940 0.800235 -0.340254
vn 0 -0.9961946853560405 0.0871558883173087
vn 0 0.9961946853560405 -0.0871558883173087
vn -0.9913177697931099 0.011459948520931268 0.13098759052792905
vn -0.9999938749851902 -0.00030504551079439625 -0.0034866802749889056
vn 0.9999938749851902 0.00030504551079439625 0.0034866802749889056
vn 0.9913177697931099 -0.011459948520931268 -0.13098759052792905
vn -0.9888507628974679 -0.01297837765699616 -0.14834328576139963
vn 0.9888507628974679 0.01297837765699616 0.14834328576139963
vn -0.9605880327409662 0.024227241257002787 0.276918168663444
vn 0.9605880327409662 -0.024227241257002787 -0.276918168663444
vn -0.9474414864468627 -0.02788370500883855 -0.3187116702512467
vn 0.9474414864468627 0.02788370500883855 0.3187116702512467
vn -0.8636746511280542 -0.04393089909404552 -0.5021316292603193
vn 0.8636746511280542 0.04393089909404552 0.5021316292603193
vn -0.9008612907917877 0.03783498595838137 0.43245514055273193
vn 0.9008612907917877 -0.03783498595838137 -0.43245514055273193
vn -0.7387278999929658 -0.058743397807732474 -0.6714389793465858
vn 0.7387278999929658 0.058743397807732474 0.6714389793465858
vn -0.7966741762972502 0.05267780456661886 0.6021090480362662
vn 0.7966741762972502 -0.05267780456661886 -0.6021090480362662
vn -0.581468205949655 -0.07090734002811512 -0.8104732411374399
vn 0.581468205949655 0.07090734002811512 0.8104732411374399
vn -0.6261770446994426 0.0679537816037623 0.7767139706849752
vn 0.6261770446994426 -0.0679537816037623 -0.7767139706849752
vn -0.3942991410604162 -0.08009470541004277 -0.9154851312415165
vn 0.3942991410604162 0.08009470541004277 0.9154851312415165
vn -0.40753815980547886 0.07958972684793618 0.9097132095790601
vn 0.40753815980547886 -0.07958972684793618 -0.9097132095790601
vn -0.19013406386458268 0.08556600246275604 0.9780222374674732
vn 0.19013406386458268 -0.08556600246275604 -0.9780222374674732
vn -0.19309312365764567 -0.08551565239286131 -0.9774467345037051
vn 0.19309312365764567 0.08551565239286131 0.9774467345037051
vn 0.9864239126539833 -0.014312648732558173 -0.16359404827396754
vn 0.9392451753822174 -0.029915996881408755 -0.3419408335543146
vn -0.9392451753822174 0.029915996881408755 0.3419408335543146
vn -0.9864239126539833 0.014312648732558173 0.16359404827396754
vn 0.018849010159085168 0.08714040434397219 0.9960177030288125
vn -0.018849010159085168 -0.08714040434397219 -0.9960177030288125
vn -0.002694001531423968 -0.08715557204351894 -0.9961910703361658
vn 0.002694001531423968 0.08715557204351894 0.9961910703361658
vn 0.9471923183287537 0.02794793396210134 0.3194458093108295
vn 0.9905649654537598 0.01194418878559738 0.1365224727649102
vn -0.9905649654537598 -0.01194418878559738 -0.1365224727649102
vn -0.9471923183287537 -0.02794793396210134 -0.3194458093108295
vn 0 0.0871558883173087 0.9961946853560405
vn 0 -0.0871558883173087 -0.9961946853560405
vn 0.7362781540094769 -0.05897656005181353 -0.6741040315061553
vn -0.7362781540094769 0.05897656005181353 0.6741040315061553
vn 0.7485723194439253 0.0577889864763239 0.6605300262701017
vn -0.7485723194439253 -0.0577889864763239 -0.6605300262701017
vn 0.9939529310691398 -0.009570324076678304 -0.10938912064795626
vn 0.9992287938647937 -0.003422261729515179 -0.039116564728574235
vn -0.9992287938647937 0.003422261729515179 0.039116564728574235
vn -0.9939529310691398 0.009570324076678304 0.10938912064795626
vn 0.23450808698020598 0.08472547392577583 0.9684149684969439
vn -0.23450808698020598 -0.08472547392577583 -0.9684149684969439
vn 0.3953449588415912 -0.08005553543565996 -0.91503741713913
vn -0.3953449588415912 0.08005553543565996 0.91503741713913
vn 0.1854310876710466 -0.08564436734222797 -0.9789179506310435
vn -0.1854310876710466 0.08564436734222797 0.9789179506310435
vn 0.404666273373191 0.07970096037260875 0.9109846124441059
vn -0.404666273373191 -0.07970096037260875 -0.9109846124441059
vn 0.02285899762678871 -0.08713311439432493 -0.9959343786632954
vn -0.02285899762678871 0.08713311439432493 0.9959343786632954
vn -0.00013500002540321287 0.08715588752310037 0.9961946762782131
vn 0.00013500002540321287 -0.08715588752310037 -0.9961946762782131
vn -0.9412351441416985 0.029437074291494676 0.336466732515583
vn -0.9873400317939395 0.0138244904109288 0.1580143825163422
vn 0.9873400317939395 -0.0138244904109288 -0.1580143825163422
vn 0.9412351441416985 -0.029437074291494676 -0.336466732515583
vn 0.3880340861391863 -0.08032679067262324 -0.9181378734669229
vn 0.5860941064191477 -0.07061744730841507 -0.8071597577657004
vn -0.3880340861391863 0.08032679067262324 0.9181378734669229
vn -0.5860941064191477 0.07061744730841507 0.8071597577657004
vn 0.7581011420807768 -0.056837578978724886 -0.6496554071133854
vn -0.7581011420807768 0.056837578978724886 0.6496554071133854
vn 0.9631491191028347 -0.023442143243010985 -0.2679444724035334
vn -0.9631491191028347 0.023442143243010985 0.2679444724035334
vn 0.41951927966187846 0.0791154461285505 0.9042921652739556
vn -0.41951927966187846 -0.0791154461285505 -0.9042921652739556
vn -0.3146280725062168 -0.08272967927293973 -0.9456029696222509
vn 0.3146280725062168 0.08272967927293973 0.9456029696222509
vn -0.3979611880276562 0.07995700825768562 0.9139112482369921
vn 0.3979611880276562 -0.07995700825768562 -0.9139112482369921
vn 0.8880469059483416 -0.040070168972556545 -0.45800335631312594
vn -0.8880469059483416 0.040070168972556545 0.45800335631312594
vn -0.7387832552034165 0.058738109542463994 0.6713785342997057
vn 0.7387832552034165 -0.058738109542463994 -0.6713785342997057
vn 0.5675909209496038 0.07175637741622753 0.8201777665577631
vn -0.5675909209496038 -0.07175637741622753 -0.8201777665577631
vn -0.6307109797434172 -0.067634522624759 -0.7730648299983771
vn 0.6307109797434172 0.067634522624759 0.7730648299983771
vn -0.9242614453941792 -0.03327264139366318 -0.3803073913199051
vn -0.8549690898350331 -0.04520592482807609 -0.5167052155601813
vn 0.8549690898350331 0.04520592482807609 0.5167052155601813
vn 0.9242614453941792 0.03327264139366318 0.3803073913199051
vn 0.16554101687410708 -0.08595339033042351 -0.9824500936042464
vn -0.16554101687410708 0.08595339033042351 0.9824500936042464
vn 0.6996277134982848 0.062273541662830834 0.711788640337797
vn -0.6996277134982848 -0.062273541662830834 -0.711788640337797
vn 0.8294810197019207 0.04867960563382203 0.556409502030292
vn 0.8896212589041913 0.039804010769975466 0.4549611592568596
vn -0.8896212589041913 -0.039804010769975466 -0.4549611592568596
vn -0.8294810197019207 -0.04867960563382203 -0.556409502030292
usemtl material_0_0
f 1//1 2//1 3//1
f 2//1 1//1 4//1
f 3//2 2//2 1//2
f 4//2 1//2 2//2
f 2//3 5//4 3//4
f 3//5 5//5 2//6
f 3//4 6//7 1//7
f 1//8 6//8 3//5
f 4//1 1//1 7//1
f 7//2 1//2 4//2
f 4//9 8//3 2//3
f 2//6 8//6 4//10
f 5//4 2//3 8//3
f 8//6 2//6 5//5
f 6//7 3//4 5//4
f 5//5 3//5 6//8
f 9//11 1//7 6//7
f 6//8 1//8 9//12
f 1//7 9//11 7//11
f 7//12 9//12 1//8
f 4//1 7//1 10//1
f 10//2 7//2 4//2
f 8//3 4//9 11//9
f 11//10 4//10 8//6
f 8//2 6//2 5//2
f 5//1 6//1 8//1
f 6//2 11//2 9//2
f 9//1 11//1 6//1
f 12//13 7//11 9//11
f 9//12 7//12 12//14
f 10//1 7//1 13//1
f 13//2 7//2 10//2
f 10//15 11//9 4//9
f 4//10 11//10 10//16
f 6//2 8//2 11//2
f 11//1 8//1 6//1
f 9//2 11//2 14//2
f 14//1 11//1 9//1
f 7//11 12//13 13//13
f 13//14 12//14 7//12
f 9//2 14//2 12//2
f 12//1 14//1 9//1
f 10//1 13//1 15//1
f 15//2 13//2 10//2
f 11//9 10//15 14//15
f 14//16 10//16 11//10
f 16//17 13//13 12//13
f 12//14 13//14 16//18
f 12//2 14//2 17//2
f 17//1 14//1 12//1
f 15//1 13//1 18//1
f 18//2 13//2 15//2
f 15//19 14//15 10//15
f 10//16 14//16 15//20
f 13//13 16//17 18//17
f 18//18 16//18 13//14
f 12//2 17//2 16//2
f 16//1 17//1 12//1
f 14//15 15//19 17//19
f 17//20 15//20 14//16
f 15//1 18//1 19//1
f 19//2 18//2 15//2
f 16//17 20//21 18//17
f 18//18 20//22 16//18
f 16//2 17//2 21//2
f 21//1 17//1 16//1
f 19//23 17//19 15//19
f 15//20 17//20 19//24
f 19//1 18//1 20//1
f 20//2 18//2 19//2
f 20//21 16//17 22//21
f 22//22 16//18 20//22
f 17//19 19//23 21//23
f 21//24 19//24 17//20
f 16//2 21//2 22//2
f 22//1 21//1 16//1
f 19//1 20//1 23//1
f 23//2 20//2 19//2
f 22//21 24//25 20//21
f 20//22 24//26 22//22
f 19//23 25//27 21//23
f 21//24 25//28 19//24
f 22//2 21//2 25//2
f 25//1 21//1 22//1
f 23//1 20//1 24//1
f 24//2 20//2 23//2
f 25//27 19//23 23//27
f 23//28 19//24 25//28
f 24//25 22//21 26//25
f 26//26 22//22 24//26
f 22//2 25//2 26//2
f 26//1 25//1 22//1
f 23//1 24//1 27//1
f 27//2 24//2 23//2
f 23//27 28//29 25//27
f 25//28 28//30 23//28
f 26//25 29//31 24//25
f 24//26 29//32 26//26
f 26//2 25//2 30//2
f 30//1 25//1 26//1
f 27//1 24//1 31//1
f 31//2 24//2 27//2
f 32//1 23//1 27//1
f 27//2 23//2 32//2
f 28//29 23//27 33//29
f 33//30 23//28 28//30
f 34//2 25//2 28//2
f 28//1 25//1 34//1
f 29//31 26//25 35//31
f 35//32 26//26 29//32
f 36//1 24//1 29//1
f 29//2 24//2 36//2
f 25//2 34//2 30//2
f 30//1 34//1 25//1
f 26//2 30//2 37//2
f 37//1 30//1 26//1
f 31//1 24//1 36//1
f 36//2 24//2 31//2
f 31//1 38//1 27//1
f 27//2 38//2 31//2
f 23//1 32//1 33//1
f 33//2 32//2 23//2
f 27//33 34//34 32//34
f 32//35 34//35 27//36
f 33//29 39//37 28//29
f 28//30 39//38 33//30
f 34//2 28//2 40//2
f 40//1 28//1 34//1
f 26//2 41//2 35//2
f 35//1 41//1 26//1
f 35//31 42//39 29//31
f 29//32 42//40 35//32
f 36//1 29//1 43//1
f 43//2 29//2 36//2
f 34//34 27//33 30//33
f 30//36 27//36 34//35
f 44//2 37//2 30//2
f 30//1 37//1 44//1
f 26//2 37//2 41//2
f 41//1 37//1 26//1
f 36//41 37//42 31//42
f 31//43 37//43 36//44
f 38//1 31//1 45//1
f 45//2 31//2 38//2
f 44//45 27//45 38//45
f 38//46 27//46 44//46
f 33//1 32//1 46//1
f 46//2 32//2 33//2
f 40//47 32//34 34//34
f 34//35 32//35 40//48
f 39//37 33//29 47//37
f 47//38 33//30 39//38
f 48//2 28//2 39//2
f 39//1 28//1 48//1
f 40//2 28//2 48//2
f 48//1 28//1 40//1
f 35//2 41//2 49//2
f 49//1 41//1 35//1
f 42//39 35//31 50//39
f 50//40 35//32 42//40
f 51//1 29//1 42//1
f 42//2 29//2 51//2
f 43//1 29//1 51//1
f 51//2 29//2 43//2
f 43//49 41//41 36//41
f 36//44 41//44 43//50
f 27//45 44//45 30//45
f 30//46 44//46 27//46
f 37//2 44//2 52//2
f 52//1 44//1 37//1
f 37//42 36//41 41//41
f 41//44 36//44 37//43
f 37//46 45//46 31//46
f 31//45 45//45 37//45
f 38//1 45//1 53//1
f 53//2 45//2 38//2
f 54//51 44//52 38//52
f 38//53 44//53 54//54
f 32//34 40//47 46//47
f 46//48 40//48 32//35
f 33//1 46//1 55//1
f 55//2 46//2 33//2
f 33//1 55//1 47//1
f 47//2 55//2 33//2
f 47//37 56//55 39//37
f 39//38 56//56 47//38
f 48//2 39//2 57//2
f 57//1 39//1 48//1
f 55//57 40//47 48//57
f 48//58 40//48 55//58
f 41//41 43//49 49//49
f 49//50 43//50 41//44
f 35//2 49//2 58//2
f 58//1 49//1 35//1
f 35//2 58//2 50//2
f 50//1 58//1 35//1
f 50//39 59//59 42//39
f 42//40 59//60 50//40
f 51//1 42//1 60//1
f 60//2 42//2 51//2
f 58//61 43//49 51//61
f 51//62 43//50 58//62
f 52//2 44//2 61//2
f 61//1 44//1 52//1
f 45//46 37//46 52//46
f 52//45 37//45 45//45
f 45//1 62//1 53//1
f 53//2 62//2 45//2
f 38//1 53//1 63//1
f 63//2 53//2 38//2
f 44//52 54//51 64//51
f 64//54 54//54 44//53
f 38//1 65//1 54//1
f 54//2 65//2 38//2
f 40//47 55//57 46//47
f 46//48 55//58 40//48
f 47//1 55//1 66//1
f 66//2 55//2 47//2
f 56//55 47//37 67//55
f 67//56 47//38 56//56
f 57//2 39//2 56//2
f 56//1 39//1 57//1
f 66//63 48//57 57//63
f 57//64 48//58 66//64
f 48//57 66//63 55//57
f 55//58 66//64 48//58
f 43//49 58//61 49//49
f 49//50 58//62 43//50
f 50//2 58//2 68//2
f 68//1 58//1 50//1
f 59//59 50//39 69//59
f 69//60 50//40 59//60
f 60//1 42//1 59//1
f 59//2 42//2 60//2
f 68//65 51//61 60//65
f 60//66 51//62 68//66
f 51//61 68//65 58//61
f 58//62 68//66 51//62
f 61//2 44//2 70//2
f 70//1 44//1 61//1
f 71//2 52//2 61//2
f 61//1 52//1 71//1
f 72//67 45//68 52//68
f 52//69 45//69 72//70
f 73//1 62//1 45//1
f 45//2 62//2 73//2
f 71//71 53//72 62//71
f 62//73 53//74 71//73
f 61//72 63//75 53//72
f 53//74 63//76 61//74
f 38//1 63//1 74//1
f 74//2 63//2 38//2
f 65//77 64//51 54//51
f 54//54 64//54 65//78
f 75//2 44//2 64//2
f 64//1 44//1 75//1
f 38//1 74//1 65//1
f 65//2 74//2 38//2
f 47//1 66//1 67//1
f 67//2 66//2 47//2
f 67//55 76//79 56//55
f 56//56 76//80 67//56
f 57//2 56//2 77//2
f 77//1 56//1 57//1
f 57//63 78//81 66//63
f 66//64 78//82 57//64
f 50//2 68//2 69//2
f 69//1 68//1 50//1
f 69//59 62//71 59//59
f 59//60 62//73 69//60
f 60//1 59//1 79//1
f 79//2 59//2 60//2
f 60//65 80//83 68//65
f 68//66 80//84 60//66
f 70//2 44//2 81//2
f 81//1 44//1 70//1
f 63//75 61//72 70//75
f 70//76 61//74 63//76
f 71//2 72//2 52//2
f 52//1 72//1 71//1
f 53//72 71//71 61//72
f 61//74 71//73 53//74
f 45//68 72//67 73//67
f 73//70 72//70 45//69
f 82//1 62//1 73//1
f 73//2 62//2 82//2
f 62//71 69//59 71//71
f 71//73 69//60 62//73
f 63//75 81//85 74//85
f 74//86 81//86 63//76
f 64//51 65//77 75//77
f 75//78 65//78 64//54
f 81//2 44//2 75//2
f 75//1 44//1 81//1
f 74//85 75//77 65//77
f 65//78 75//78 74//86
f 67//1 66//1 78//1
f 78//2 66//2 67//2
f 76//79 67//55 83//79
f 83//80 67//56 76//80
f 84//2 56//2 76//2
f 76//1 56//1 84//1
f 77//2 56//2 85//2
f 85//1 56//1 77//1
f 78//81 57//63 77//81
f 77//82 57//64 78//82
f 69//2 68//2 80//2
f 80//1 68//1 69//1
f 82//1 59//1 62//1
f 62//2 59//2 82//2
f 79//1 59//1 82//1
f 82//2 59//2 79//2
f 80//83 60//65 79//83
f 79//84 60//66 80//84
f 81//85 63//75 70//75
f 70//76 63//76 81//86
f 71//2 86//2 72//2
f 72//1 86//1 71//1
f 86//87 73//67 72//67
f 72//70 73//70 86//88
f 73//67 86//87 82//87
f 82//88 86//88 73//70
f 69//2 86//2 71//2
f 71//1 86//1 69//1
f 75//77 74//85 81//85
f 81//86 74//86 75//78
f 67//1 78//1 87//1
f 87//2 78//2 67//2
f 67//1 88//1 83//1
f 83//2 88//2 67//2
f 83//79 89//89 76//79
f 76//80 89//90 83//80
f 90//2 56//2 84//2
f 84//1 56//1 90//1
f 84//2 76//2 91//2
f 91//1 76//1 84//1
f 85//2 56//2 90//2
f 90//1 56//1 85//1
f 87//91 77//81 85//91
f 85//92 77//82 87//92
f 77//81 87//91 78//81
f 78//82 87//92 77//82
f 69//2 80//2 86//2
f 86//1 80//1 69//1
f 86//87 79//83 82//87
f 82//88 79//84 86//88
f 79//83 86//87 80//83
f 80//84 86//88 79//84
f 67//1 87//1 92//1
f 92//2 87//2 67//2
f 67//1 92//1 88//1
f 88//2 92//2 67//2
f 83//1 88//1 93//1
f 93//2 88//2 83//2
f 89//89 83//79 94//89
f 94//90 83//80 89//90
f 91//2 76//2 89//2
f 89//1 76//1 91//1
f 84//93 92//94 90//94
f 90//95 92//95 84//96
f 93//97 84//97 91//97
f 91//98 84//98 93//98
f 90//94 87//91 85//91
f 85//92 87//92 90//95
f 87//91 90//94 92//94
f 92//95 90//95 87//92
f 92//94 84//93 88//93
f 88//96 84//96 92//95
f 84//97 93//97 88//97
f 88//98 93//98 84//98
f 83//1 93//1 94//1
f 94//2 93//2 83//2
f 94//89 95//99 89//89
f 89//90 95//100 94//90
f 91//2 89//2 95//2
f 95//1 89//1 91//1
f 96//101 93//102 91//102
f 91//103 93//103 96//104
f 94//1 93//1 97//1
f 97//2 93//2 94//2
f 95//99 94//89 97//99
f 97//100 94//90 95//100
f 91//2 95//2 96//2
f 96//1 95//1 91//1
f 93//102 96//101 98//101
f 98//104 96//104 93//103
f 97//1 93//1 98//1
f 98//2 93//2 97//2
f 98//101 95//99 97//99
f 97//100 95//100 98//104
f 95//99 98//101 96//101
f 96//104 98//104 95//100
