# SSTK version 0.8.0
# 6
mtllib original-6.mtl
o PivotPlug2/PivotPlug/mesh8/mesh8-geometry#mesh8-geometry
v 0.410874 0.197506 -0.212593
v 0.401711 0.198733 -0.216397
v 0.401711 0.196360 -0.214577
v 0.410874 0.200352 -0.214777
v 0.401711 0.184906 -0.214577
v 0.410874 0.198733 -0.216397
v 0.410874 0.196360 -0.214577
v 0.401711 0.200553 -0.218769
v 0.401711 0.187669 -0.213433
v 0.401711 0.182534 -0.216397
v 0.454399 0.193598 -0.213433
v 0.410874 0.202537 -0.217624
v 0.401711 0.193598 -0.213433
v 0.454399 0.184906 -0.214577
v 0.454399 0.182534 -0.216397
v 0.454399 0.196360 -0.214577
v 0.410874 0.200553 -0.218769
v 0.401711 0.180714 -0.218769
v 0.401711 0.190633 -0.213042
v 0.454399 0.187669 -0.213433
v 0.410874 0.180714 -0.218769
v 0.454399 0.198733 -0.216397
v 0.401711 0.201697 -0.221532
v 0.454399 0.190633 -0.213042
v 0.454399 0.204521 -0.216479
v 0.454399 0.176746 -0.216479
v 0.454399 0.180714 -0.218769
v 0.454399 0.200553 -0.218769
v 0.454399 0.201697 -0.221532
v 0.454399 0.201972 -0.213157
v 0.401711 0.179570 -0.221532
v 0.410874 0.179570 -0.221532
v 0.410874 0.178730 -0.217624
v 0.454399 0.179295 -0.213157
v 0.454399 0.179570 -0.221532
v 0.401711 0.202087 -0.224496
v 0.454399 0.182616 -0.210609
v 0.456690 0.201972 -0.213157
v 0.410874 0.177357 -0.220939
v 0.456690 0.176746 -0.216479
v 0.454399 0.175144 -0.220346
v 0.454399 0.206123 -0.220346
v 0.454399 0.202087 -0.224496
v 0.454399 0.198651 -0.210609
v 0.456690 0.204521 -0.216479
v 0.401711 0.179179 -0.224496
v 0.410874 0.179179 -0.224496
v 0.410874 0.176889 -0.224496
v 0.454399 0.179179 -0.224496
v 0.456690 0.179295 -0.213157
v 0.456690 0.175144 -0.220346
v 0.454399 0.174598 -0.224496
v 0.454399 0.206669 -0.224496
v 0.401711 0.201697 -0.227461
v 0.454399 0.186483 -0.209007
v 0.456690 0.182616 -0.210609
v 0.456690 0.198651 -0.210609
v 0.456690 0.206123 -0.220346
v 0.456690 0.174598 -0.224496
v 0.454399 0.206123 -0.228647
v 0.454399 0.179570 -0.227461
v 0.454399 0.201697 -0.227461
v 0.454399 0.194784 -0.209007
v 0.456690 0.186483 -0.209007
v 0.401711 0.179570 -0.227461
v 0.456690 0.206669 -0.224496
v 0.456690 0.175144 -0.228647
v 0.401711 0.200553 -0.230223
v 0.454399 0.190633 -0.208461
v 0.456690 0.190633 -0.208461
v 0.456690 0.194784 -0.209007
v 0.454399 0.175144 -0.228647
v 0.456690 0.206123 -0.228647
v 0.454399 0.200553 -0.230223
v 0.454399 0.180714 -0.230223
v 0.401711 0.180714 -0.230223
v 0.456690 0.176746 -0.232514
v 0.456690 0.204521 -0.232514
v 0.454399 0.204521 -0.232514
v 0.401711 0.198733 -0.232596
v 0.454399 0.176746 -0.232514
v 0.454399 0.198733 -0.232596
v 0.454399 0.182534 -0.232596
v 0.401711 0.182534 -0.232596
v 0.456690 0.179295 -0.235835
v 0.456690 0.201972 -0.235835
v 0.454399 0.201972 -0.235835
v 0.454399 0.196360 -0.234416
v 0.401711 0.196360 -0.234416
v 0.454399 0.179295 -0.235835
v 0.454399 0.184906 -0.234416
v 0.410874 0.196360 -0.234416
v 0.401711 0.184906 -0.234416
v 0.456690 0.182616 -0.238384
v 0.456690 0.198651 -0.238384
v 0.454399 0.198651 -0.238384
v 0.454399 0.193598 -0.235560
v 0.454399 0.187669 -0.235560
v 0.410874 0.193598 -0.235560
v 0.410874 0.197506 -0.236400
v 0.401711 0.193598 -0.235560
v 0.454399 0.182616 -0.238384
v 0.454399 0.190633 -0.235950
v 0.401711 0.187669 -0.235560
v 0.410874 0.194191 -0.237773
v 0.456690 0.186483 -0.239986
v 0.456690 0.194784 -0.239986
v 0.454399 0.194784 -0.239986
v 0.401711 0.190633 -0.235950
v 0.410874 0.190633 -0.235950
v 0.410874 0.190633 -0.238241
v 0.454399 0.186483 -0.239986
v 0.456690 0.190633 -0.240532
v 0.454399 0.190633 -0.240532
vn -0.24058104132869884 0.5908811015057003 0.7700521322849571
vn 0.24058104132869884 -0.5908811015057003 -0.7700521322849571
vn -1 0 0
vn 1 0 0
vn 0 0.6087613233345311 0.7933534213778815
vn 0 0.7071067811865474 0.7071067811865476
vn 0 -0.7071067811865474 -0.7071067811865476
vn 0 -0.6087613233345311 -0.7933534213778815
vn 0 -0.8660253028382762 0.5000001748438415
vn 0 0.8660253028382762 -0.5000001748438415
vn -0.2405810413286989 0.770052132284957 0.5908811015057007
vn 0.2405810413286989 -0.770052132284957 -0.5908811015057007
vn 0 0.7933534213778812 0.6087613233345315
vn 0 -0.7933534213778812 -0.6087613233345315
vn 0 0.38268289803625993 0.923879753837354
vn 0 0.2588189595935752 0.965925849201117
vn 0 0.5000001748438415 0.8660253028382762
vn 0 -0.5000001748438415 -0.8660253028382762
vn 0 -0.2588189595935752 -0.965925849201117
vn 0 -0.38268289803625993 -0.923879753837354
vn 0 -0.500000174843842 0.866025302838276
vn 0 -0.25881895959357565 0.965925849201117
vn 0 0.500000174843842 -0.866025302838276
vn 0 0.25881895959357565 -0.965925849201117
vn 0 -0.7071067811865476 0.7071067811865474
vn 0 0.7071067811865476 -0.7071067811865474
vn 0 0.866025302838276 0.500000174843842
vn 0 -0.866025302838276 -0.500000174843842
vn 0 0.965925849201117 0.25881895959357565
vn 0 0.9238797538373537 0.3826828980362604
vn 0 -0.9238797538373537 -0.3826828980362604
vn 0 -0.965925849201117 -0.25881895959357565
vn 0 0 1
vn 0 0 -1
vn 0 -0.7933534213778815 0.6087613233345311
vn 0 0.7933534213778815 -0.6087613233345311
vn 0 -0.923879753837354 0.38268289803625993
vn 0 -0.965925849201117 0.2588189595935752
vn 0 0.923879753837354 -0.38268289803625993
vn 0 0.965925849201117 -0.2588189595935752
vn 0 1 0
vn 0 -1 0
vn -0.24058104038959047 -0.8967441505485593 0.37144406235933425
vn 0.24058104038959047 0.8967441505485593 -0.37144406235933425
vn 0 -0.9914448886106775 0.13052598533534093
vn 0 0.9914448886106775 -0.13052598533534093
vn -0.24058103134350026 -0.9623251253741313 0.1266930165058838
vn 0.24058103134350026 0.9623251253741313 -0.1266930165058838
vn 0 -0.9914448886106773 -0.13052598533534132
vn 0 0.9914448886106773 0.13052598533534132
vn 0 0.6087613233345315 -0.7933534213778812
vn 0 -0.6087613233345315 0.7933534213778812
vn 0 0.3826828980362604 -0.9238797538373537
vn 0 -0.3826828980362604 0.9238797538373537
vn -0.24058104038959047 0.3714440623593347 -0.896744150548559
vn 0.24058104038959047 -0.3714440623593347 0.896744150548559
vn 0 -0.13052598533534093 -0.9914448886106775
vn 0 0.13052598533534093 0.9914448886106775
vn 0 0.13052598533534132 -0.9914448886106773
vn 0 -0.13052598533534132 0.9914448886106773
vn -0.2405810313435002 0.1266930165058842 -0.9623251253741312
vn 0.2405810313435002 -0.1266930165058842 0.9623251253741312
usemtl material_0_0
f 1//1 2//1 3//1
f 2//1 1//1 4//1
f 3//2 2//2 1//2
f 4//2 1//2 2//2
f 5//3 3//3 2//3
f 2//4 3//4 5//4
f 3//5 6//6 2//6
f 2//7 6//7 3//8
f 1//9 3//9 7//9
f 7//10 3//10 1//10
f 7//4 4//4 1//4
f 1//3 4//3 7//3
f 4//11 8//11 2//11
f 2//12 8//12 4//12
f 9//3 3//3 5//3
f 5//4 3//4 9//4
f 5//3 2//3 10//3
f 10//4 2//4 5//4
f 6//6 3//5 7//5
f 7//8 3//8 6//7
f 6//6 8//13 2//6
f 2//7 8//14 6//7
f 3//15 11//16 7//17
f 7//18 11//19 3//20
f 4//4 7//4 6//4
f 6//3 7//3 4//3
f 8//11 4//11 12//11
f 12//12 4//12 8//12
f 10//3 2//3 8//3
f 8//4 2//4 10//4
f 9//3 13//3 3//3
f 3//4 13//4 9//4
f 14//21 9//22 5//21
f 5//23 9//24 14//23
f 15//25 5//21 10//25
f 10//26 5//23 15//26
f 16//17 6//6 7//17
f 7//18 6//7 16//18
f 8//13 6//6 17//13
f 17//14 6//7 8//14
f 11//16 3//15 13//16
f 13//19 3//20 11//19
f 16//17 7//17 11//16
f 11//19 7//18 16//18
f 4//4 6//4 12//4
f 12//3 6//3 4//3
f 12//21 8//21 17//21
f 17//23 8//23 12//23
f 10//3 8//3 18//3
f 18//4 8//4 10//4
f 13//3 9//3 19//3
f 19//4 9//4 13//4
f 9//22 14//21 20//22
f 20//24 14//23 9//24
f 5//21 15//25 14//21
f 14//23 15//26 5//23
f 10//25 21//9 15//25
f 15//26 21//10 10//26
f 6//6 16//17 22//6
f 22//7 16//18 6//7
f 12//4 6//4 17//4
f 17//3 6//3 12//3
f 22//6 17//27 6//6
f 6//7 17//28 22//7
f 17//27 23//29 8//30
f 8//31 23//32 17//28
f 13//16 24//33 11//16
f 11//19 24//34 13//19
f 11//3 25//3 16//3
f 16//4 25//4 11//4
f 11//4 14//4 16//4
f 16//3 14//3 11//3
f 18//3 8//3 23//3
f 23//4 8//4 18//4
f 21//9 10//25 18//35
f 18//36 10//26 21//10
f 20//22 19//33 9//22
f 9//24 19//34 20//24
f 24//33 13//16 19//33
f 19//34 13//19 24//34
f 26//3 20//3 14//3
f 14//4 20//4 26//4
f 11//4 20//4 14//4
f 14//3 20//3 11//3
f 26//3 14//3 15//3
f 15//4 14//4 26//4
f 16//4 14//4 15//4
f 15//3 14//3 16//3
f 15//25 21//9 27//9
f 27//10 21//10 15//26
f 16//3 25//3 22//3
f 22//4 25//4 16//4
f 16//4 15//4 22//4
f 22//3 15//3 16//3
f 17//27 22//6 28//27
f 28//28 22//7 17//28
f 23//29 17//27 29//29
f 29//32 17//28 23//32
f 24//3 30//3 11//3
f 11//4 30//4 24//4
f 20//4 11//4 24//4
f 24//3 11//3 20//3
f 11//3 30//3 25//3
f 25//4 30//4 11//4
f 18//3 23//3 31//3
f 31//4 23//4 18//4
f 18//37 32//38 21//37
f 21//39 32//40 18//39
f 18//17 33//17 21//17
f 21//18 33//18 18//18
f 19//33 20//22 24//33
f 24//34 20//24 19//34
f 34//3 20//3 26//3
f 26//4 20//4 34//4
f 26//3 15//3 27//3
f 27//4 15//4 26//4
f 21//9 35//38 27//9
f 27//10 35//40 21//10
f 22//4 15//4 27//4
f 27//3 15//3 22//3
f 22//3 25//3 28//3
f 28//4 25//4 22//4
f 22//4 27//4 28//4
f 28//3 27//3 22//3
f 29//29 17//27 28//27
f 28//28 17//28 29//32
f 29//29 36//41 23//29
f 23//32 36//42 29//32
f 37//3 30//3 24//3
f 24//4 30//4 37//4
f 34//3 24//3 20//3
f 20//4 24//4 34//4
f 38//6 25//27 30//6
f 30//7 25//28 38//7
f 31//3 23//3 36//3
f 36//4 23//4 31//4
f 32//38 18//37 31//38
f 31//40 18//39 32//40
f 39//43 18//43 31//43
f 31//44 18//44 39//44
f 21//4 39//4 32//4
f 32//3 39//3 21//3
f 35//38 21//9 32//38
f 32//40 21//10 35//40
f 18//43 39//43 33//43
f 33//44 39//44 18//44
f 39//4 21//4 33//4
f 33//3 21//3 39//3
f 40//9 34//25 26//9
f 26//10 34//26 40//10
f 26//3 27//3 41//3
f 41//4 27//4 26//4
f 41//3 27//3 35//3
f 35//4 27//4 41//4
f 28//4 27//4 35//4
f 35//3 27//3 28//3
f 28//3 25//3 42//3
f 42//4 25//4 28//4
f 28//3 42//3 29//3
f 29//4 42//4 28//4
f 28//4 35//4 29//4
f 29//3 35//3 28//3
f 36//41 29//29 43//41
f 43//42 29//32 36//42
f 37//3 44//3 30//3
f 30//4 44//4 37//4
f 24//3 34//3 37//3
f 37//4 34//4 24//4
f 25//27 38//6 45//27
f 45//28 38//7 25//28
f 44//17 38//6 30//6
f 30//7 38//7 44//18
f 31//3 36//3 46//3
f 46//4 36//4 31//4
f 31//38 47//45 32//38
f 32//40 47//46 31//40
f 31//47 48//47 39//47
f 39//48 48//48 31//48
f 32//4 39//4 48//4
f 48//3 39//3 32//3
f 32//38 49//42 35//38
f 35//40 49//41 32//40
f 34//25 40//9 50//25
f 50//26 40//10 34//26
f 26//9 51//38 40//9
f 40//10 51//40 26//10
f 51//38 26//9 41//38
f 41//40 26//10 51//40
f 41//3 35//3 52//3
f 52//4 35//4 41//4
f 45//27 42//29 25//27
f 25//28 42//32 45//28
f 29//3 42//3 53//3
f 53//4 42//4 29//4
f 29//4 35//4 49//4
f 49//3 35//3 29//3
f 29//3 53//3 43//3
f 43//4 53//4 29//4
f 29//4 49//4 43//4
f 43//3 49//3 29//3
f 43//41 54//40 36//41
f 36//42 54//38 43//42
f 55//3 44//3 37//3
f 37//4 44//4 55//4
f 34//25 56//21 37//21
f 37//23 56//23 34//26
f 38//4 50//4 45//4
f 45//3 50//3 38//3
f 38//6 44//17 57//17
f 57//18 44//18 38//7
f 46//3 36//3 54//3
f 54//4 36//4 46//4
f 47//45 31//38 46//45
f 46//46 31//40 47//46
f 48//47 31//47 46//47
f 46//48 31//48 48//48
f 32//4 48//4 47//4
f 47//3 48//3 32//3
f 49//42 32//38 47//42
f 47//41 32//40 49//41
f 52//3 35//3 49//3
f 49//4 35//4 52//4
f 45//4 50//4 40//4
f 40//3 50//3 45//3
f 56//21 34//25 50//25
f 50//26 34//26 56//23
f 58//4 40//4 51//4
f 51//3 40//3 58//3
f 41//38 59//42 51//38
f 51//40 59//41 41//40
f 59//42 41//38 52//42
f 52//41 41//40 59//41
f 42//29 45//27 58//29
f 58//32 45//28 42//32
f 58//29 53//41 42//29
f 42//32 53//42 58//32
f 43//3 53//3 60//3
f 60//4 53//4 43//4
f 43//4 49//4 61//4
f 61//3 49//3 43//3
f 54//40 43//41 62//40
f 62//38 43//42 54//38
f 55//3 63//3 44//3
f 44//4 63//4 55//4
f 37//21 64//22 55//22
f 55//24 64//24 37//23
f 64//22 37//21 56//21
f 56//23 37//23 64//24
f 38//4 56//4 50//4
f 50//3 56//3 38//3
f 63//16 57//17 44//17
f 44//18 57//18 63//19
f 57//4 56//4 38//4
f 38//3 56//3 57//3
f 46//3 54//3 65//3
f 65//4 54//4 46//4
f 46//49 61//32 47//42
f 47//41 61//29 46//50
f 46//33 48//33 47//33
f 47//34 48//34 46//34
f 47//42 61//32 49//42
f 49//41 61//29 47//41
f 52//3 49//3 61//3
f 61//4 49//4 52//4
f 45//4 40//4 58//4
f 58//3 40//3 45//3
f 58//4 51//4 66//4
f 66//3 51//3 58//3
f 66//4 51//4 59//4
f 59//3 51//3 66//3
f 52//42 67//32 59//42
f 59//41 67//29 52//41
f 53//41 58//29 66//41
f 66//42 58//32 53//42
f 66//41 60//40 53//41
f 53//42 60//38 66//42
f 43//3 60//3 62//3
f 62//4 60//4 43//4
f 43//4 61//4 62//4
f 62//3 61//3 43//3
f 62//40 68//10 54//40
f 54//38 68//9 62//38
f 63//3 55//3 69//3
f 69//4 55//4 63//4
f 70//33 55//22 64//22
f 64//24 55//24 70//34
f 57//4 64//4 56//4
f 56//3 64//3 57//3
f 57//17 63//16 71//16
f 71//19 63//19 57//18
f 65//3 54//3 68//3
f 68//4 54//4 65//4
f 61//32 46//49 65//32
f 65//29 46//50 61//29
f 52//3 61//3 72//3
f 72//4 61//4 52//4
f 66//4 59//4 73//4
f 73//3 59//3 66//3
f 67//32 52//42 72//32
f 72//29 52//41 67//29
f 73//4 59//4 67//4
f 67//3 59//3 73//3
f 60//40 66//41 73//40
f 73//38 66//42 60//38
f 62//3 60//3 74//3
f 74//4 60//4 62//4
f 62//4 61//4 75//4
f 75//3 61//3 62//3
f 68//10 62//40 74//10
f 74//9 62//38 68//9
f 55//22 70//33 69//33
f 69//34 70//34 55//24
f 69//33 71//16 63//16
f 63//19 71//19 69//34
f 64//4 71//4 70//4
f 70//3 71//3 64//3
f 71//4 64//4 57//4
f 57//3 64//3 71//3
f 65//3 68//3 76//3
f 76//4 68//4 65//4
f 65//32 75//28 61//32
f 61//29 75//27 65//29
f 72//3 61//3 75//3
f 75//4 61//4 72//4
f 72//32 77//28 67//32
f 67//29 77//27 72//29
f 73//4 67//4 78//4
f 78//3 67//3 73//3
f 73//40 79//10 60//40
f 60//38 79//9 73//38
f 74//3 60//3 79//3
f 79//4 60//4 74//4
f 62//4 75//4 74//4
f 74//3 75//3 62//3
f 74//10 80//26 68//10
f 68//9 80//25 74//9
f 71//16 69//33 70//33
f 70//34 69//34 71//19
f 76//3 68//3 80//3
f 80//4 68//4 76//4
f 75//28 65//32 76//28
f 76//27 65//29 75//27
f 72//3 75//3 81//3
f 81//4 75//4 72//4
f 77//28 72//32 81//28
f 81//27 72//29 77//27
f 78//4 67//4 77//4
f 77//3 67//3 78//3
f 79//10 73//40 78//10
f 78//9 73//38 79//9
f 74//3 79//3 82//3
f 82//4 79//4 74//4
f 74//4 75//4 83//4
f 83//3 75//3 74//3
f 80//26 74//10 82//26
f 82//25 74//9 80//25
f 76//3 80//3 84//3
f 84//4 80//4 76//4
f 76//28 83//7 75//28
f 75//27 83//6 76//27
f 81//3 75//3 83//3
f 83//4 75//4 81//4
f 81//28 85//7 77//28
f 77//27 85//6 81//27
f 78//4 77//4 86//4
f 86//3 77//3 78//3
f 78//10 87//26 79//10
f 79//9 87//25 78//9
f 82//3 79//3 87//3
f 87//4 79//4 82//4
f 74//4 83//4 82//4
f 82//3 83//3 74//3
f 88//23 80//26 82//26
f 82//25 80//25 88//21
f 84//3 80//3 89//3
f 89//4 80//4 84//4
f 83//7 76//28 84//7
f 84//6 76//27 83//6
f 81//3 83//3 90//3
f 90//4 83//4 81//4
f 85//7 81//28 90//7
f 90//6 81//27 85//6
f 86//4 77//4 85//4
f 85//3 77//3 86//3
f 87//26 78//10 86//26
f 86//25 78//9 87//25
f 82//3 87//3 88//3
f 88//4 87//4 82//4
f 82//4 83//4 91//4
f 91//3 83//3 82//3
f 92//23 80//26 88//23
f 88//21 80//25 92//21
f 82//4 91//4 88//4
f 88//3 91//3 82//3
f 80//26 92//23 89//51
f 89//52 92//21 80//25
f 84//3 89//3 93//3
f 93//4 89//4 84//4
f 93//18 83//7 84//7
f 84//6 83//6 93//17
f 90//3 83//3 91//3
f 91//4 83//4 90//4
f 90//7 94//18 85//7
f 85//6 94//17 90//6
f 86//4 85//4 95//4
f 95//3 85//3 86//3
f 86//26 96//23 87//26
f 87//25 96//21 86//25
f 88//3 87//3 97//3
f 97//4 87//4 88//4
f 83//7 93//18 91//18
f 91//17 93//17 83//6
f 97//24 92//23 88//23
f 88//21 92//21 97//22
f 88//4 91//4 98//4
f 98//3 91//3 88//3
f 99//24 89//53 92//53
f 92//54 89//54 99//22
f 100//27 89//27 92//27
f 92//28 89//28 100//28
f 93//3 89//3 101//3
f 101//4 89//4 93//4
f 90//3 91//3 98//3
f 98//4 91//4 90//4
f 94//18 90//7 102//18
f 102//17 90//6 94//17
f 95//4 85//4 94//4
f 94//3 85//3 95//3
f 96//23 86//26 95//23
f 95//21 86//25 96//21
f 103//3 87//3 96//3
f 96//4 87//4 103//4
f 97//3 87//3 103//3
f 103//4 87//4 97//4
f 88//4 98//4 97//4
f 97//3 98//3 88//3
f 104//19 91//18 93//18
f 93//17 91//17 104//16
f 92//23 97//24 99//24
f 99//22 97//22 92//21
f 91//18 104//19 98//19
f 98//16 104//16 91//17
f 89//53 99//24 101//24
f 101//22 99//22 89//54
f 99//4 100//4 92//4
f 92//3 100//3 99//3
f 105//55 89//55 100//55
f 100//56 89//56 105//56
f 89//55 105//55 101//55
f 101//56 105//56 89//56
f 93//3 101//3 104//3
f 104//4 101//4 93//4
f 90//3 98//3 103//3
f 103//4 98//4 90//4
f 90//3 103//3 102//3
f 102//4 103//4 90//4
f 102//18 106//19 94//18
f 94//17 106//16 102//17
f 95//4 94//4 107//4
f 107//3 94//3 95//3
f 95//23 108//24 96//23
f 96//21 108//22 95//21
f 102//3 103//3 96//3
f 96//4 103//4 102//4
f 97//4 98//4 103//4
f 103//3 98//3 97//3
f 103//34 99//24 97//24
f 97//22 99//22 103//33
f 109//57 98//19 104//19
f 104//16 98//16 109//58
f 110//59 101//24 99//24
f 99//22 101//22 110//60
f 100//4 99//4 110//4
f 110//3 99//3 100//3
f 100//4 111//4 105//4
f 105//3 111//3 100//3
f 105//61 109//61 101//61
f 101//62 109//62 105//62
f 104//3 101//3 109//3
f 109//4 101//4 104//4
f 98//19 110//34 103//34
f 103//33 110//33 98//16
f 106//19 102//18 112//19
f 112//16 102//17 106//16
f 107//4 94//4 106//4
f 106//3 94//3 107//3
f 108//24 95//23 107//24
f 107//22 95//21 108//22
f 102//3 96//3 108//3
f 108//4 96//4 102//4
f 99//24 103//34 110//34
f 110//33 103//33 99//22
f 98//19 109//57 110//34
f 110//33 109//58 98//16
f 101//24 110//59 109//59
f 109//60 110//60 101//22
f 100//4 110//4 111//4
f 111//3 110//3 100//3
f 109//61 105//61 111//61
f 111//62 105//62 109//62
f 102//3 108//3 112//3
f 112//4 108//4 102//4
f 112//19 113//34 106//19
f 106//16 113//33 112//16
f 107//4 106//4 113//4
f 113//3 106//3 107//3
f 107//24 114//34 108//24
f 108//22 114//33 107//22
f 111//41 109//41 110//41
f 110//42 109//42 111//42
f 112//3 108//3 114//3
f 114//4 108//4 112//4
f 113//34 112//19 114//34
f 114//33 112//16 113//33
f 114//34 107//24 113//34
f 113//33 107//22 114//33
