# SSTK version 0.8.0
# 78
mtllib original-78.mtl
o mesh77/mesh77-geometry#mesh77-geometry
v 0.147167 -0.194821 0.251851
v 0.209530 -0.201537 0.251851
v 0.147167 -0.201537 0.251851
v 0.209530 -0.194821 0.251851
v 0.144932 -0.194821 0.252145
v 0.147167 -0.194821 0.319399
v 0.211765 -0.201537 0.252145
v 0.144932 -0.201537 0.252145
v 0.144932 -0.194821 0.319105
v 0.209530 -0.194821 0.319399
v 0.211765 -0.194821 0.252145
v 0.142849 -0.194821 0.253008
v 0.144932 -0.201537 0.319105
v 0.209530 -0.201537 0.319399
v 0.211765 -0.194821 0.319105
v 0.213847 -0.201537 0.253008
v 0.142849 -0.201537 0.253008
v 0.142849 -0.194821 0.318242
v 0.147167 -0.201537 0.319399
v 0.142849 -0.201537 0.318242
v 0.213847 -0.194821 0.318242
v 0.213847 -0.194821 0.253008
v 0.141061 -0.194821 0.254380
v 0.141061 -0.194821 0.316870
v 0.211765 -0.201537 0.319105
v 0.215635 -0.201537 0.254380
v 0.141061 -0.201537 0.254380
v 0.141061 -0.201537 0.316870
v 0.213847 -0.201537 0.318242
v 0.215635 -0.194821 0.316870
v 0.215635 -0.194821 0.254380
v 0.139689 -0.201537 0.256168
v 0.139689 -0.194821 0.256168
v 0.139689 -0.194821 0.315082
v 0.217008 -0.194821 0.256168
v 0.139689 -0.201537 0.315082
v 0.215635 -0.201537 0.316870
v 0.217008 -0.194821 0.315082
v 0.217008 -0.201537 0.256168
v 0.138826 -0.201537 0.258251
v 0.138826 -0.194821 0.258251
v 0.138826 -0.194821 0.312999
v 0.217008 -0.201537 0.315082
v 0.217870 -0.194821 0.258251
v 0.217870 -0.194821 0.312999
v 0.138826 -0.201537 0.312999
v 0.217870 -0.201537 0.312999
v 0.217870 -0.201537 0.258251
v 0.138532 -0.201537 0.260486
v 0.138532 -0.194821 0.260486
v 0.138532 -0.194821 0.310764
v 0.218165 -0.194821 0.260486
v 0.218165 -0.194821 0.310764
v 0.218165 -0.201537 0.310764
v 0.138532 -0.201537 0.310764
v 0.218165 -0.201537 0.260486
vn -0.06540299554311302 0 -0.9978589320009053
vn 0.06540299554311302 0 -0.9978589320009053
vn -0.2588189595935754 0 -0.965925849201117
vn 0 1 0
vn 0.2588189595935754 0 -0.965925849201117
vn -0.5000001748438416 0 -0.866025302838276
vn -0.2588189595935754 0 0.965925849201117
vn -0.06540299554311302 0 0.9978589320009053
vn 0.06540299554311302 0 0.9978589320009053
vn 0.5000001748438416 0 -0.866025302838276
vn -0.5000001748438416 0 0.866025302838276
vn 0.2588189595935754 0 0.965925849201117
vn -0.7071067811865475 0 -0.7071067811865475
vn 0.5000001748438416 0 0.866025302838276
vn 0.7071067811865475 0 -0.7071067811865475
vn -0.7071067811865475 0 0.7071067811865475
vn -0.866025302838276 0 -0.5000001748438416
vn -0.866025302838276 0 0.5000001748438416
vn 0.7071067811865475 0 0.7071067811865475
vn 0.866025302838276 0 -0.5000001748438416
vn -0.965925849201117 0 -0.2588189595935754
vn -0.965925849201117 0 0.2588189595935754
vn 0.866025302838276 0 0.5000001748438416
vn 0.965925849201117 0 -0.2588189595935754
vn 0.965925849201117 0 0.2588189595935754
vn -0.9978589320009053 0 -0.06540299554311302
vn -0.9978589320009053 0 0.06540299554311302
vn 0.9978589320009053 0 -0.06540299554311302
vn 0.9978589320009053 0 0.06540299554311302
vn 0 -1 0
usemtl material_0_0
f 1//1 2//2 3//1
f 2//2 1//1 4//2
f 3//1 5//3 1//1
f 1//4 6//4 4//4
f 4//2 7//5 2//2
f 5//3 3//1 8//3
f 5//4 9//4 1//4
f 1//4 9//4 6//4
f 4//4 6//4 10//4
f 7//5 4//2 11//5
f 8//3 12//6 5//3
f 12//4 9//4 5//4
f 13//7 6//8 9//7
f 6//8 14//9 10//9
f 4//4 10//4 15//4
f 4//4 15//4 11//4
f 11//5 16//10 7//5
f 12//6 8//3 17//6
f 12//4 18//4 9//4
f 6//8 13//7 19//8
f 9//7 20//11 13//7
f 14//9 6//8 19//8
f 14//9 15//12 10//9
f 11//4 15//4 21//4
f 16//10 11//5 22//10
f 17//6 23//13 12//6
f 12//4 24//4 18//4
f 20//11 9//7 18//11
f 15//12 14//9 25//12
f 25//12 21//14 15//12
f 11//4 21//4 22//4
f 22//10 26//15 16//10
f 23//13 17//6 27//13
f 23//4 24//4 12//4
f 28//16 18//11 24//16
f 18//11 28//16 20//11
f 21//14 25//12 29//14
f 22//4 21//4 30//4
f 26//15 22//10 31//15
f 32//17 23//13 27//13
f 33//4 24//4 23//4
f 34//18 28//16 24//16
f 29//14 30//19 21//14
f 22//4 30//4 31//4
f 35//20 26//15 31//15
f 23//13 32//17 33//17
f 33//4 34//4 24//4
f 28//16 34//18 36//18
f 30//19 29//14 37//19
f 31//4 30//4 38//4
f 26//15 35//20 39//20
f 31//4 38//4 35//4
f 40//21 33//17 32//17
f 41//4 34//4 33//4
f 42//22 36//18 34//18
f 43//23 30//19 37//19
f 30//19 43//23 38//23
f 44//24 39//20 35//20
f 35//4 38//4 45//4
f 33//17 40//21 41//21
f 41//4 42//4 34//4
f 36//18 42//22 46//22
f 47//25 38//23 43//23
f 39//20 44//24 48//24
f 35//4 45//4 44//4
f 38//23 47//25 45//25
f 49//26 41//21 40//21
f 50//4 42//4 41//4
f 51//27 46//22 42//22
f 52//28 48//24 44//24
f 44//4 45//4 53//4
f 54//29 45//25 47//25
f 41//21 49//26 50//26
f 42//4 50//4 51//4
f 46//22 51//27 55//27
f 48//24 52//28 56//28
f 44//4 53//4 52//4
f 45//25 54//29 53//29
f 55//27 50//26 49//26
f 50//26 55//27 51//27
f 53//29 56//28 52//28
f 56//28 53//29 54//29
usemtl material_1_0
f 3//9 2//8 1//9
f 4//8 1//9 2//8
f 1//9 5//12 3//9
f 4//30 6//30 1//30
f 2//8 7//7 4//8
f 8//12 3//9 5//12
f 1//30 9//30 5//30
f 6//30 9//30 1//30
f 10//30 6//30 4//30
f 11//7 4//8 7//7
f 5//12 12//14 8//12
f 5//30 9//30 12//30
f 9//5 6//2 13//5
f 10//1 14//1 6//2
f 15//30 10//30 4//30
f 11//30 15//30 4//30
f 7//7 16//11 11//7
f 17//14 8//12 12//14
f 9//30 18//30 12//30
f 19//2 13//5 6//2
f 13//5 20//10 9//5
f 19//2 6//2 14//1
f 10//1 15//3 14//1
f 21//30 15//30 11//30
f 22//11 11//7 16//11
f 12//14 23//19 17//14
f 18//30 24//30 12//30
f 18//10 9//5 20//10
f 25//3 14//1 15//3
f 15//3 21//6 25//3
f 22//30 21//30 11//30
f 16//11 26//16 22//11
f 27//19 17//14 23//19
f 12//30 24//30 23//30
f 24//15 18//10 28//15
f 20//10 28//15 18//10
f 29//6 25//3 21//6
f 30//30 21//30 22//30
f 31//16 22//11 26//16
f 27//19 23//19 32//23
f 23//30 24//30 33//30
f 24//15 28//15 34//20
f 21//6 30//13 29//6
f 31//30 30//30 22//30
f 31//16 26//16 35//18
f 33//23 32//23 23//19
f 24//30 34//30 33//30
f 36//20 34//20 28//15
f 37//13 29//6 30//13
f 38//30 30//30 31//30
f 39//18 35//18 26//16
f 35//30 38//30 31//30
f 32//23 33//23 40//25
f 33//30 34//30 41//30
f 34//20 36//20 42//24
f 37//13 30//13 43//17
f 38//17 43//17 30//13
f 35//18 39//18 44//22
f 45//30 38//30 35//30
f 41//25 40//25 33//23
f 34//30 42//30 41//30
f 46//24 42//24 36//20
f 43//17 38//17 47//21
f 48//22 44//22 39//18
f 44//30 45//30 35//30
f 45//21 47//21 38//17
f 40//25 41//25 49//29
f 41//30 42//30 50//30
f 42//24 46//24 51//28
f 44//22 48//22 52//27
f 53//30 45//30 44//30
f 47//21 45//21 54//26
f 50//29 49//29 41//25
f 51//30 50//30 42//30
f 55//28 51//28 46//24
f 56//27 52//27 48//22
f 52//30 53//30 44//30
f 53//26 54//26 45//21
f 49//29 50//29 55//28
f 51//28 55//28 50//29
f 52//27 56//27 53//26
f 54//26 53//26 56//27
