# SSTK version 0.8.0
# 19
mtllib original-19.mtl
o mesh41/mesh41-geometry#mesh41-geometry
v 0.003139 -0.252110 0.150479
v 0.003234 -0.252110 0.149692
v 0.011772 -0.252110 0.150479
v -0.002084 -0.252110 0.148715
v 0.011677 -0.252110 0.149692
v -0.001798 -0.252110 0.148047
v 0.016995 -0.252110 0.148715
v -0.005614 -0.252110 0.147021
v 0.016709 -0.252110 0.148047
v -0.005113 -0.252110 0.146329
v 0.020525 -0.252110 0.147021
v -0.009120 -0.252110 0.143492
v 0.020024 -0.252110 0.146329
v -0.008452 -0.252110 0.143014
v 0.024031 -0.252110 0.143492
v -0.010885 -0.252110 0.139938
v 0.023363 -0.252110 0.143014
v -0.010098 -0.252110 0.139723
v 0.025748 -0.252110 0.139938
v -0.010885 -0.252110 0.132902
v 0.025008 -0.252110 0.139723
v -0.010098 -0.252110 0.133093
v 0.025748 -0.252110 0.132902
v -0.008452 -0.252110 0.129826
v 0.025008 -0.252110 0.133093
v -0.009120 -0.252110 0.129325
v 0.023363 -0.252110 0.129826
v -0.005113 -0.252110 0.126487
v 0.024031 -0.252110 0.129325
v -0.005614 -0.252110 0.125819
v 0.020024 -0.252110 0.126487
v -0.001751 -0.252110 0.124794
v 0.020525 -0.252110 0.125819
v -0.002132 -0.252110 0.124102
v 0.016661 -0.252110 0.124794
v 0.017043 -0.252110 0.124102
vt -0.313231 0.096611
vt -0.313657 0.096559
vt -0.313231 0.091929
vt -0.314188 0.099443
vt -0.313657 0.091981
vt -0.31455 0.099288
vt -0.314188 0.089096
vt -0.315106 0.101357
vt -0.31455 0.089252
vt -0.315481 0.101086
vt -0.315106 0.087182
vt -0.31702 0.103259
vt -0.315481 0.087454
vt -0.317279 0.102897
vt -0.31702 0.085281
vt -0.318947 0.104216
vt -0.317279 0.085643
vt -0.319064 0.103789
vt -0.318947 0.08435
vt -0.322763 0.104216
vt -0.319064 0.084751
vt -0.322659 0.103789
vt -0.322763 0.08435
vt -0.324431 0.102897
vt -0.322659 0.084751
vt -0.324703 0.103259
vt -0.324431 0.085643
vt -0.326242 0.101086
vt -0.324703 0.085281
vt -0.326604 0.101357
vt -0.326242 0.087454
vt -0.32716 0.099262
vt -0.326604 0.087182
vt -0.327535 0.099469
vt -0.32716 0.089277
vt -0.327535 0.08907
vn 0 -1 0
vn 0 1 0
usemtl material_0_0
f 1/1/1 2/2/1 3/3/1
f 2/2/1 1/1/1 4/4/1
f 3/3/2 2/2/2 1/1/2
f 4/4/2 1/1/2 2/2/2
f 5/5/1 3/3/1 2/2/1
f 2/2/2 3/3/2 5/5/2
f 2/2/1 4/4/1 6/6/1
f 6/6/2 4/4/2 2/2/2
f 3/3/1 5/5/1 7/7/1
f 7/7/2 5/5/2 3/3/2
f 6/6/1 4/4/1 8/8/1
f 8/8/2 4/4/2 6/6/2
f 7/7/1 5/5/1 9/9/1
f 9/9/2 5/5/2 7/7/2
f 6/6/1 8/8/1 10/10/1
f 10/10/2 8/8/2 6/6/2
f 7/7/1 9/9/1 11/11/1
f 11/11/2 9/9/2 7/7/2
f 10/10/1 8/8/1 12/12/1
f 12/12/2 8/8/2 10/10/2
f 11/11/1 9/9/1 13/13/1
f 13/13/2 9/9/2 11/11/2
f 10/10/1 12/12/1 14/14/1
f 14/14/2 12/12/2 10/10/2
f 11/11/1 13/13/1 15/15/1
f 15/15/2 13/13/2 11/11/2
f 14/14/1 12/12/1 16/16/1
f 16/16/2 12/12/2 14/14/2
f 15/15/1 13/13/1 17/17/1
f 17/17/2 13/13/2 15/15/2
f 14/14/1 16/16/1 18/18/1
f 18/18/2 16/16/2 14/14/2
f 15/15/1 17/17/1 19/19/1
f 19/19/2 17/17/2 15/15/2
f 18/18/1 16/16/1 20/20/1
f 20/20/2 16/16/2 18/18/2
f 19/19/1 17/17/1 21/21/1
f 21/21/2 17/17/2 19/19/2
f 18/18/1 20/20/1 22/22/1
f 22/22/2 20/20/2 18/18/2
f 19/19/1 21/21/1 23/23/1
f 23/23/2 21/21/2 19/19/2
f 22/22/1 20/20/1 24/24/1
f 24/24/2 20/20/2 22/22/2
f 23/23/1 21/21/1 25/25/1
f 25/25/2 21/21/2 23/23/2
f 24/24/1 20/20/1 26/26/1
f 26/26/2 20/20/2 24/24/2
f 23/23/1 25/25/1 27/27/1
f 27/27/2 25/25/2 23/23/2
f 24/24/1 26/26/1 28/28/1
f 28/28/2 26/26/2 24/24/2
f 23/23/1 27/27/1 29/29/1
f 29/29/2 27/27/2 23/23/2
f 28/28/1 26/26/1 30/30/1
f 30/30/2 26/26/2 28/28/2
f 29/29/1 27/27/1 31/31/1
f 31/31/2 27/27/2 29/29/2
f 28/28/1 30/30/1 32/32/1
f 32/32/2 30/30/2 28/28/2
f 29/29/1 31/31/1 33/33/1
f 33/33/2 31/31/2 29/29/2
f 32/32/1 30/30/1 34/34/1
f 34/34/2 30/30/2 32/32/2
f 33/33/1 31/31/1 35/35/1
f 35/35/2 31/31/2 33/33/2
f 33/33/1 35/35/1 36/36/1
f 36/36/2 35/35/2 33/33/2
