# Blender v2.79 (sub 0) OBJ File: ''
# www.blender.org
mtllib 100221_link_1_4.mtl
o Shape_IndexedFaceSet.004_Shape_IndexedFaceSet.12845
v 0.382502 0.119779 -0.301867
v 0.106946 -0.281117 -0.283918
v 0.120731 -0.265878 -0.216479
v 0.487835 -0.292365 -0.284799
v 0.463895 0.095394 -0.216473
v 0.115926 0.106363 -0.221236
v 0.488827 -0.293462 -0.209036
v 0.145959 0.070129 -0.303424
v 0.380110 0.096163 -0.322951
v 0.477661 0.096123 -0.303435
v 0.118037 0.104178 -0.289051
v 0.120709 0.095396 -0.216472
v 0.468687 0.106370 -0.221245
v 0.321536 0.128696 -0.303424
v 0.334528 0.089665 -0.322951
v 0.106946 0.018100 -0.296918
v 0.477661 -0.248544 -0.290413
v 0.334528 0.115659 -0.322951
v 0.477661 0.018059 -0.303435
v 0.145959 0.050633 -0.303424
vn -0.1645 0.0000 -0.9864
vn -0.9792 -0.0101 0.2024
vn -0.0774 -0.9690 0.2348
vn -0.0295 -0.9995 -0.0141
vn 0.9996 0.0256 -0.0127
vn -0.7058 -0.0001 0.7085
vn 0.0000 0.3984 0.9172
vn -0.0202 -0.0000 0.9998
vn 0.0000 0.0191 0.9998
vn 0.0000 0.3987 0.9171
vn 0.6377 0.0556 0.7682
vn 0.2387 0.9665 -0.0944
vn 0.9934 0.0531 0.1018
vn -0.1220 0.9919 -0.0358
vn -0.0000 0.9650 0.2622
vn 0.1445 0.9895 0.0101
vn -0.9937 0.0049 0.1122
vn -0.9908 0.1309 -0.0351
vn -0.3264 0.1277 -0.9366
vn -0.0061 -0.1285 -0.9917
vn -0.0087 -0.0994 -0.9950
vn 0.0129 -0.0904 -0.9958
vn 0.1873 0.7920 -0.5810
vn 0.1784 0.4172 -0.8911
vn -0.1629 0.2673 -0.9497
vn 0.1387 0.8638 -0.4844
vn -0.1371 0.7793 -0.6115
vn -0.1030 0.0000 -0.9947
vn 0.0000 0.0000 -1.0000
vn 0.8777 0.0000 -0.4792
vn 0.1962 0.0000 -0.9806
vn 0.3228 -0.0462 -0.9454
vn 0.1587 -0.0482 -0.9861
vn -0.0931 -0.0475 -0.9945
vn -0.1293 -0.0430 -0.9907
usemtl Shape.12857
s off
f 16//1 8//1 20//1
f 2//2 3//2 6//2
f 3//3 2//3 7//3
f 2//4 4//4 7//4
f 7//5 4//5 10//5
f 6//6 3//6 12//6
f 5//7 6//7 12//7
f 3//8 7//8 12//8
f 7//9 5//9 12//9
f 6//10 5//10 13//10
f 5//11 7//11 13//11
f 10//12 1//12 13//12
f 7//13 10//13 13//13
f 11//14 6//14 14//14
f 6//15 13//15 14//15
f 13//16 1//16 14//16
f 2//17 6//17 16//17
f 6//18 11//18 16//18
f 11//19 8//19 16//19
f 4//20 2//20 17//20
f 2//21 15//21 17//21
f 15//22 9//22 17//22
f 1//23 10//23 18//23
f 10//24 9//24 18//24
f 8//25 11//25 18//25
f 14//26 1//26 18//26
f 11//27 14//27 18//27
f 15//28 8//28 18//28
f 9//29 15//29 18//29
f 10//30 4//30 19//30
f 9//31 10//31 19//31
f 4//32 17//32 19//32
f 17//33 9//33 19//33
f 15//34 2//34 20//34
f 8//28 15//28 20//28
f 2//35 16//35 20//35
