# Blender v2.79 (sub 0) OBJ File: ''
# www.blender.org
mtllib 100221_link_1_10.mtl
o Shape_IndexedFaceSet.010_Shape_IndexedFaceSet.12851
v -0.166320 -0.498172 -0.292746
v 0.056569 -0.292937 -0.216535
v 0.080845 -0.417692 -0.205862
v -0.413485 -0.417692 -0.205862
v -0.413485 -0.281117 -0.283906
v 0.080845 -0.281117 -0.283906
v -0.403968 -0.510893 -0.207740
v 0.066351 -0.508601 -0.276068
v -0.413485 -0.495768 -0.296914
v -0.394077 -0.290567 -0.215703
v 0.070903 -0.510697 -0.207824
v 0.080845 -0.476261 -0.296914
v -0.413485 -0.424218 -0.296914
v -0.184637 -0.514779 -0.269950
v -0.123287 -0.515315 -0.208491
v -0.392858 -0.505777 -0.281464
v -0.112618 -0.505939 -0.287476
vn -0.0119 -0.8464 -0.5324
vn 0.9081 0.2078 0.3637
vn 0.0000 -0.0201 0.9998
vn -1.0000 -0.0000 0.0000
vn -0.9908 -0.1029 0.0883
vn 0.0023 0.0857 0.9963
vn -0.0000 0.0772 0.9970
vn -0.9421 0.1664 0.2911
vn 0.0055 0.9846 0.1747
vn -0.0000 0.9905 0.1372
vn 0.0002 -0.0211 0.9998
vn 0.8916 -0.4468 -0.0732
vn 1.0000 0.0000 0.0000
vn 0.0128 -0.3243 -0.9459
vn 0.9918 -0.1075 0.0691
vn 0.0000 0.0000 -1.0000
vn -0.0000 0.0905 -0.9959
vn 0.0070 0.0665 -0.9978
vn 0.0002 -0.1527 0.9883
vn 0.0239 -0.9992 -0.0323
vn 0.0238 -0.9992 -0.0325
vn -0.0157 -0.9999 0.0070
vn -0.3602 -0.9253 -0.1185
vn -0.0389 -0.9964 -0.0750
vn -0.0109 -0.8740 -0.4857
vn 0.0094 -0.5160 -0.8565
vn 0.0447 -0.5553 -0.8304
vn 0.0241 -0.4420 -0.8967
vn 0.0125 -0.9125 -0.4089
usemtl Shape.12863
s off
f 16//1 9//1 17//1
f 2//2 3//2 6//2
f 3//3 4//3 7//3
f 4//4 5//4 9//4
f 7//5 4//5 9//5
f 3//6 2//6 10//6
f 4//7 3//7 10//7
f 5//8 4//8 10//8
f 2//9 6//9 10//9
f 6//10 5//10 10//10
f 3//11 7//11 11//11
f 11//12 8//12 12//12
f 6//13 3//13 12//13
f 1//14 9//14 12//14
f 3//15 11//15 12//15
f 12//16 9//16 13//16
f 5//17 6//17 13//17
f 9//4 5//4 13//4
f 6//18 12//18 13//18
f 11//19 7//19 15//19
f 8//20 11//20 15//20
f 14//21 8//21 15//21
f 7//22 14//22 15//22
f 7//23 9//23 16//23
f 14//24 7//24 16//24
f 14//25 16//25 17//25
f 9//26 1//26 17//26
f 12//27 8//27 17//27
f 1//28 12//28 17//28
f 8//29 14//29 17//29
