# Blender v2.79 (sub 0) OBJ File: ''
# www.blender.org
mtllib 100221_link_1_23.mtl
o Shape_IndexedFaceSet.023_Shape_IndexedFaceSet.12864
v 0.445112 -0.404709 -0.290419
v 0.488911 -0.277440 -0.210176
v 0.489089 -0.414952 -0.210141
v 0.080932 -0.411217 -0.212382
v 0.080932 -0.281117 -0.283910
v 0.477697 -0.287625 -0.290419
v 0.080932 -0.281117 -0.212382
v 0.080932 -0.411217 -0.283910
v 0.477697 -0.411217 -0.290419
v 0.471332 -0.283204 -0.282867
vn 0.0060 0.8652 -0.5015
vn 0.9904 0.0012 -0.1386
vn -0.0163 0.0045 -0.9999
vn -0.0054 0.0002 1.0000
vn -0.0055 0.0000 1.0000
vn -1.0000 0.0000 0.0000
vn -0.0090 1.0000 0.0000
vn -0.0092 -1.0000 0.0000
vn -0.0179 0.0000 -0.9998
vn 0.0000 0.0000 -1.0000
vn 0.9901 0.0000 -0.1405
vn -0.0163 -0.0819 -0.9965
vn -0.0008 -0.9989 -0.0464
vn 0.0055 0.9967 -0.0804
vn 0.4166 0.8928 -0.1715
usemtl Shape.12876
s off
f 6//1 5//1 10//1
f 2//2 3//2 6//2
f 1//3 5//3 6//3
f 3//4 2//4 7//4
f 4//5 3//5 7//5
f 5//6 4//6 7//6
f 2//7 5//7 7//7
f 3//8 4//8 8//8
f 5//9 1//9 8//9
f 4//6 5//6 8//6
f 1//10 6//10 9//10
f 6//11 3//11 9//11
f 8//12 1//12 9//12
f 3//13 8//13 9//13
f 5//14 2//14 10//14
f 2//15 6//15 10//15
