# SSTK version 0.8.0
# 11
mtllib original-11.mtl
o #ID82
v 0.005904 0.010236 -0.113265
v 0.005904 0.679156 0.001407
v 0.005904 0.010236 0.001407
v 0.005904 0.679156 -0.113265
v 0.603154 0.679156 -0.113265
v 0.005904 0.679156 0.001407
v 0.005904 0.679156 -0.113265
v 0.603154 0.679156 0.001407
v 0.603154 0.010236 0.001407
v 0.005904 0.010236 -0.113265
v 0.005904 0.010236 0.001407
v 0.603154 0.010236 -0.113265
v 0.603154 0.679156 0.001407
v 0.603154 0.010236 -0.113265
v 0.603154 0.010236 0.001407
v 0.603154 0.679156 -0.113265
vt 94.84109 5.524242
vt 94.44738 7.614496
vt 94.44738 5.524242
vt 94.84109 7.614496
vt -86.23848 86.32021
vt -84.18795 85.96188
vt -84.18795 86.32021
vt -86.23848 85.96188
vt 86.23848 85.96188
vt 84.18795 86.32021
vt 84.18795 85.96188
vt 86.23848 86.32021
vt -94.44738 7.614496
vt -94.84109 5.524242
vt -94.44738 5.524242
vt -94.84109 7.614496
vn 1 0 0
vn 0 -1 0
vn 0 1 0
vn -1 0 0
usemtl material_0_0
f 1/1/1 2/2/1 3/3/1
f 2/2/1 1/1/1 4/4/1
f 5/5/2 6/6/2 7/7/2
f 6/6/2 5/5/2 8/8/2
f 9/9/3 10/10/3 11/11/3
f 10/10/3 9/9/3 12/12/3
f 13/13/4 14/14/4 15/15/4
f 14/14/4 13/13/4 16/16/4
