# SSTK version 0.8.0
# 3
mtllib original-3.mtl
o #ID31
v 0.053684 0.072086 0.165620
v 0.053684 0.633329 0.044915
v 0.053684 0.079506 0.193311
v 0.053684 0.625909 0.017224
v 0.555374 0.079506 0.193311
v 0.053684 0.072086 0.165620
v 0.053684 0.079506 0.193311
v 0.555374 0.072086 0.165620
v 0.555374 0.625909 0.017224
v 0.053684 0.633329 0.044915
v 0.053684 0.625909 0.017224
v 0.555374 0.633329 0.044915
v 0.555374 0.633329 0.044915
v 0.555374 0.072086 0.165620
v 0.555374 0.079506 0.193311
v 0.555374 0.625909 0.017224
vt 0.0984252 -0.1194431
vt 0 1.672203
vt -9.473903e-15 -0.1194431
vt 0.0984252 1.672203
vt 1.919291 -8.622732e-15
vt 0.1968504 0.08958231
vt 0.1968504 -8.622732e-15
vt 1.919291 0.08958231
vt -1.919291 0.08958231
vt -0.1968504 0
vt -0.1968504 0.08958231
vt -1.919291 0
vt -0.0984252 -0.1194431
vt 9.473903e-15 -0.1194431
vt -0.0984252 1.672203
vn 1 0 0
vn 0 0.9659258358036645 -0.25881900959356136
vn 0 -0.9659258358036645 0.25881900959356136
vn -1 0 0
usemtl material_0_0
f 1/1/1 2/2/1 3/3/1
f 2/2/1 1/1/1 4/4/1
f 5/5/2 6/6/2 7/7/2
f 6/6/2 5/5/2 8/8/2
f 9/9/3 10/10/3 11/11/3
f 10/10/3 9/9/3 12/12/3
f 13/2/4 14/13/4 15/14/4
f 14/13/4 13/2/4 16/15/4
