# SSTK version 0.8.0
# 4
mtllib original-4.mtl
o Side2/Side12/mesh7/mesh7-geometry#mesh7-geometry
v -0.838877 0.254945 -0.298317
v -0.838877 -0.507228 0.432099
v -0.838877 0.254945 0.432099
v -0.838877 -0.507228 -0.298317
v -0.822999 0.254945 0.432099
v -0.830938 -0.507228 -0.298317
v -0.822999 -0.507228 0.432099
v -0.830938 0.254945 -0.290378
v -0.830938 0.254945 -0.298317
v -0.830938 -0.507228 -0.290378
v -0.822999 -0.507228 -0.290378
v -0.822999 0.254945 -0.290378
vt -0.383333 0.8
vt 0 0
vt 0 0.8
vt -0.383333 0
vt 0.008333 0.8
vt 0.008333 0
vt 0 0.766667
vt -0.004167 0
vt -0.004167 0.766667
vt 0.004167 0.758333
vt -0.004167 0.8
vt -0.004167 0.758333
vt -0.008333 0
vt 0.379167 0
vt 0.008333 0.758333
vt 0.004167 0.766667
vt 0.379167 0.8
vt 0.383333 0
vt 0.383333 0.8
vt -0.008333 0.758333
vt -0.008333 0.8
vn -1 0 0
vn 1 0 0
vn 0 0 1
vn 0 0 -1
vn 0 1 0
vn 0 -1 0
usemtl material_0_0
f 1/1/1 2/2/1 3/3/1
f 2/2/1 1/1/1 4/4/1
f 3/3/2 2/2/2 1/1/2
f 4/4/2 1/1/2 2/2/2
f 2/2/3 5/5/3 3/3/3
f 3/3/4 5/5/4 2/2/4
f 5/6/5 1/7/5 3/2/5
f 3/2/6 1/7/6 5/6/6
f 1/3/4 6/8/4 4/2/4
f 4/2/3 6/8/3 1/3/3
f 6/9/6 2/2/6 4/7/6
f 4/7/5 2/2/5 6/9/5
f 5/5/3 2/2/3 7/6/3
f 7/6/4 2/2/4 5/5/4
f 1/7/5 5/6/5 8/10/5
f 8/10/6 5/6/6 1/7/6
f 6/8/4 1/3/4 9/11/4
f 9/11/3 1/3/3 6/8/3
f 2/2/6 6/9/6 10/12/6
f 10/12/5 6/9/5 2/2/5
f 2/2/6 10/12/6 7/13/6
f 7/13/5 10/12/5 2/2/5
f 11/14/2 5/3/2 7/2/2
f 7/2/1 5/3/1 11/14/1
f 8/10/5 5/6/5 12/15/5
f 12/15/6 5/6/6 8/10/6
f 9/16/5 1/7/5 8/10/5
f 8/10/6 1/7/6 9/16/6
f 8/17/2 6/18/2 9/19/2
f 9/19/1 6/18/1 8/17/1
f 6/18/2 8/17/2 10/14/2
f 10/14/1 8/17/1 6/18/1
f 7/13/6 10/12/6 11/20/6
f 11/20/5 10/12/5 7/13/5
f 5/3/2 11/14/2 12/17/2
f 12/17/1 11/14/1 5/3/1
f 11/13/4 8/11/4 12/21/4
f 12/21/3 8/11/3 11/13/3
f 8/11/4 11/13/4 10/8/4
f 10/8/3 11/13/3 8/11/3
