# SSTK version 0.8.0
# 2
mtllib original-2.mtl
o Top1/Top/mesh3/mesh3-geometry#mesh3-geometry
v 0.669591 0.254945 -0.298317
v -0.854756 0.254945 0.463856
v -0.854756 0.254945 -0.298317
v 0.669591 0.254945 0.463856
v -0.854756 0.262885 -0.298317
v 0.669591 0.262885 0.463856
v -0.854756 0.262885 0.463856
v 0.669591 0.262885 -0.298317
v -0.846817 0.270824 0.455917
v -0.846817 0.270824 -0.298317
v 0.661652 0.270824 0.455917
v 0.661652 0.270824 -0.298317
vt -0.8 0.8
vt 0 0
vt 0 0.8
vt -0.8 0
vt -0.4 0.008333
vt -0.4 0
vt 0 0.008333
vt 0.4 0
vt 0.8 0.008333
vt 0.8 0
vt -0.8 0.008333
vt 0.4 0.008333
vt -0.004167 0.017678
vt -0.4 0.005893
vt 0 0.005893
vt -0.004167 0.016667
vt 0.4 -1.125478
vt 0.004167 -1.113693
vt 0 -1.125478
vt 0.795833 0.017678
vt 0.8 0.005893
vt -0.4 0.017678
vt 0.004167 0.017678
vt -0.795833 0.016667
vt 0.4 -1.113693
vt 0.795833 0.008333
vt 0.004167 0.8
vt 0.004167 0.008333
vt 0.795833 0.8
vn 0 -1 0
vn 0 1 0
vn -1 0 0
vn 1 0 0
vn 0 0 -1
vn 0 0 1
vn -0.7071067811865476 0.7071067811865476 0
vn 0.7071067811865476 -0.7071067811865476 0
vn 0.7071067811865476 0.7071067811865476 0
vn -0.7071067811865476 -0.7071067811865476 0
vn 0 0.7071067811865476 0.7071067811865478
vn 0 -0.7071067811865476 -0.7071067811865478
usemtl material_0_0
f 1/1/1 2/2/1 3/3/1
f 2/2/1 1/1/1 4/4/1
f 3/3/2 2/2/2 1/1/2
f 4/4/2 1/1/2 2/2/2
f 2/2/3 5/5/3 3/6/3
f 3/6/4 5/5/4 2/2/4
f 5/7/5 1/4/5 3/2/5
f 3/2/6 1/4/6 5/7/6
f 1/8/4 6/7/4 4/2/4
f 4/2/3 6/7/3 1/8/3
f 6/9/6 2/2/6 4/10/6
f 4/10/5 2/2/5 6/9/5
f 5/5/3 2/2/3 7/7/3
f 7/7/4 2/2/4 5/5/4
f 1/4/5 5/7/5 8/11/5
f 8/11/6 5/7/6 1/4/6
f 6/7/4 1/8/4 8/12/4
f 8/12/3 1/8/3 6/7/3
f 2/2/6 6/9/6 7/7/6
f 7/7/5 6/9/5 2/2/5
f 9/13/7 5/14/7 7/15/7
f 7/15/8 5/14/8 9/13/8
f 8/11/5 5/7/5 10/16/5
f 10/16/6 5/7/6 8/11/6
f 8/17/9 11/18/9 6/19/9
f 6/19/10 11/18/10 8/17/10
f 11/20/11 7/15/11 6/21/11
f 6/21/12 7/15/12 11/20/12
f 5/14/7 9/13/7 10/22/7
f 10/22/8 9/13/8 5/14/8
f 7/15/11 11/20/11 9/23/11
f 9/23/12 11/20/12 7/15/12
f 8/11/5 10/16/5 12/24/5
f 12/24/6 10/16/6 8/11/6
f 11/18/9 8/17/9 12/25/9
f 12/25/10 8/17/10 11/18/10
f 11/26/2 10/27/2 9/28/2
f 9/28/1 10/27/1 11/26/1
f 10/27/2 11/26/2 12/29/2
f 12/29/1 11/26/1 10/27/1
