# SSTK version 0.8.0
# 20
mtllib original-20.mtl
o group_7/ID113#ID113
v 0.422130 -0.253893 0.437950
v 0.406626 -0.157473 0.422446
v 0.422130 -0.157473 0.437950
v 0.406626 -0.253893 0.422446
v 0.406626 -0.253893 0.422446
v 0.422130 -0.253893 0.437950
v 0.406626 -0.157473 0.422446
v 0.422130 -0.157473 0.437950
v 0.338075 -0.157473 0.475494
v 0.406626 -0.253893 0.422446
v 0.338075 -0.253893 0.475494
v 0.406626 -0.157473 0.422446
v 0.406626 -0.157473 0.422446
v 0.338075 -0.157473 0.475494
v 0.406626 -0.253893 0.422446
v 0.338075 -0.253893 0.475494
v 0.422130 -0.157473 0.437950
v 0.338075 -0.157473 0.475494
v 0.353579 -0.157473 0.490997
v 0.406626 -0.157473 0.422446
v 0.406626 -0.157473 0.422446
v 0.422130 -0.157473 0.437950
v 0.338075 -0.157473 0.475494
v 0.353579 -0.157473 0.490997
v 0.422130 -0.157473 0.437950
v 0.353579 -0.253893 0.490997
v 0.422130 -0.253893 0.437950
v 0.353579 -0.157473 0.490997
v 0.353579 -0.157473 0.490997
v 0.422130 -0.157473 0.437950
v 0.353579 -0.253893 0.490997
v 0.422130 -0.253893 0.437950
v 0.338075 -0.253893 0.475494
v 0.264431 -0.253893 0.580144
v 0.248928 -0.253893 0.564641
v 0.353579 -0.253893 0.490997
v 0.406626 -0.253893 0.422446
v 0.422130 -0.253893 0.437950
v 0.422130 -0.253893 0.437950
v 0.406626 -0.253893 0.422446
v 0.353579 -0.253893 0.490997
v 0.338075 -0.253893 0.475494
v 0.264431 -0.253893 0.580144
v 0.248928 -0.253893 0.564641
v 0.248928 -0.253893 0.564641
v 0.338075 -0.157473 0.475494
v 0.338075 -0.253893 0.475494
v 0.248928 -0.157473 0.564641
v 0.248928 -0.157473 0.564641
v 0.248928 -0.253893 0.564641
v 0.338075 -0.157473 0.475494
v 0.338075 -0.253893 0.475494
v 0.353579 -0.157473 0.490997
v 0.248928 -0.157473 0.564641
v 0.264431 -0.157473 0.580144
v 0.338075 -0.157473 0.475494
v 0.338075 -0.157473 0.475494
v 0.353579 -0.157473 0.490997
v 0.248928 -0.157473 0.564641
v 0.264431 -0.157473 0.580144
v 0.353579 -0.157473 0.490997
v 0.264431 -0.253893 0.580144
v 0.353579 -0.253893 0.490997
v 0.264431 -0.157473 0.580144
v 0.264431 -0.157473 0.580144
v 0.353579 -0.157473 0.490997
v 0.264431 -0.253893 0.580144
v 0.353579 -0.253893 0.490997
v 0.248928 -0.157473 0.564641
v 0.264431 -0.253893 0.580144
v 0.264431 -0.157473 0.580144
v 0.248928 -0.253893 0.564641
v 0.248928 -0.253893 0.564641
v 0.248928 -0.157473 0.564641
v 0.264431 -0.253893 0.580144
v 0.264431 -0.157473 0.580144
vt 0.9045055 0.6203052
vt 0.9045055 0.7057135
vt 0.867609 0.7057135
vt 0.9454245 0.6203052
vt 0.867609 0.6203052
vt 0.9454245 0.7057135
vt 0.9454245 0.7148531
vt 0.867609 0.7148531
vt 0.7535121 0.6203052
vt 0.7535121 0.7057135
vt 0.7535121 0.7148531
vn 0.70710678118655 0 -0.7071067811865449
vn -0.70710678118655 0 0.7071067811865449
vn -0.6119963106335197 0 -0.7908606171576386
vn 0.6119963106335197 0 0.7908606171576386
vn 0 1 0
vn 0 -1 0
vn -0.7071067811865429 0 -0.7071067811865522
vn 0.7071067811865429 0 0.7071067811865522
vn 0.7071067811865427 0 0.7071067811865522
vn -0.7071067811865427 0 -0.7071067811865522
vn -0.7071067811865497 0 0.7071067811865452
vn 0.7071067811865497 0 -0.7071067811865452
usemtl material_0_0
f 1/1/1 2/2/1 3/2/1
f 2/2/1 1/1/1 4/1/1
f 5/1/2 6/1/2 7/2/2
f 8/2/2 7/2/2 6/1/2
f 9/3/3 10/4/3 11/5/3
f 10/4/3 9/3/3 12/6/3
f 13/6/4 14/3/4 15/4/4
f 16/5/4 15/4/4 14/3/4
f 17/7/5 18/8/5 19/8/5
f 18/8/5 17/7/5 20/7/5
f 21/7/6 22/7/6 23/8/6
f 24/8/6 23/8/6 22/7/6
f 25/6/4 26/5/4 27/4/4
f 26/5/4 25/6/4 28/3/4
f 29/3/3 30/6/3 31/5/3
f 32/4/3 31/5/3 30/6/3
f 33/5/6 34/9/6 35/9/6
f 34/9/6 33/5/6 36/5/6
f 36/5/6 33/5/6 37/4/6
f 36/5/6 37/4/6 38/4/6
f 39/4/5 40/4/5 41/5/5
f 40/4/5 42/5/5 41/5/5
f 41/5/5 42/5/5 43/9/5
f 44/9/5 43/9/5 42/5/5
f 45/9/7 46/3/7 47/5/7
f 46/3/7 45/9/7 48/10/7
f 49/10/8 50/9/8 51/3/8
f 52/5/8 51/3/8 50/9/8
f 53/8/5 54/11/5 55/11/5
f 54/11/5 53/8/5 56/8/5
f 57/8/6 58/8/6 59/11/6
f 60/11/6 59/11/6 58/8/6
f 61/3/9 62/9/9 63/5/9
f 62/9/9 61/3/9 64/10/9
f 65/10/10 66/3/10 67/9/10
f 68/5/10 67/9/10 66/3/10
f 69/10/11 70/9/11 71/10/11
f 70/9/11 69/10/11 72/9/11
f 73/9/12 74/10/12 75/9/12
f 76/10/12 75/9/12 74/10/12
