# SSTK version 0.8.0
# 5
mtllib original-5.mtl
o #ID40
v 0.180552 -0.375021 0.172167
v 0.170149 -0.375021 0.164916
v 0.173077 -0.375021 0.164572
v 0.168901 -0.375021 0.165063
v -0.163962 -0.375021 0.121442
v -0.173862 -0.375021 0.126423
v -0.169819 -0.375021 0.122130
v -0.155873 -0.375021 0.125023
v -0.174468 -0.375021 0.132289
v -0.147330 -0.375021 0.127315
v 0.029316 -0.375021 -0.076642
v 0.009186 -0.375021 -0.072369
v 0.018790 -0.375021 -0.079215
v 0.020777 -0.375021 -0.074074
v 0.013095 -0.375021 -0.069546
v -0.001595 -0.375021 -0.058343
v 0.006714 -0.375021 -0.063318
v 0.002000 -0.375021 -0.055749
v -0.005975 -0.375021 -0.038173
v -0.000776 -0.375021 -0.047274
v -0.001452 -0.375021 -0.038383
v -0.001783 -0.375021 -0.029544
v -0.000815 -0.375021 0.005754
v 0.001485 -0.375021 -0.001724
v 0.002892 -0.375021 0.006812
v 0.005281 -0.375021 0.034603
v 0.006116 -0.375021 0.014839
v 0.011004 -0.375021 0.021977
v 0.017323 -0.375021 0.027885
v 0.024773 -0.375021 0.032282
v 0.032999 -0.375021 0.034959
v 0.008033 -0.375021 0.058030
v 0.041609 -0.375021 0.035789
v 0.009142 -0.375021 -0.036322
v 0.007489 -0.375021 -0.037573
v 0.007337 -0.375021 -0.043410
v 0.008512 -0.375021 -0.031825
v 0.012337 -0.375021 -0.029741
v 0.010383 -0.375021 -0.026294
v 0.016791 -0.375021 -0.023939
v 0.013059 -0.375021 -0.021105
v 0.022321 -0.375021 -0.019151
v 0.016481 -0.375021 -0.016374
v 0.028701 -0.375021 -0.015573
v 0.020571 -0.375021 -0.012207
v 0.035670 -0.375021 -0.013353
v 0.025238 -0.375021 -0.008699
v 0.042944 -0.375021 -0.012581
v 0.050225 -0.375021 -0.013288
v 0.060451 -0.375021 -0.110742
v 0.060725 -0.375021 -0.119584
v 0.066582 -0.375021 -0.120272
v 0.113990 -0.375021 -0.263453
v 0.091108 -0.375021 -0.257400
v 0.098852 -0.375021 -0.261675
v 0.122514 -0.375021 -0.261089
v 0.122858 -0.375021 -0.258161
v 0.091452 -0.375021 -0.254471
v 0.125787 -0.375021 -0.258505
v 0.130634 -0.375021 -0.255146
v 0.088524 -0.375021 -0.254127
v 0.083181 -0.375021 -0.249572
v 0.131179 -0.375021 -0.250504
v 0.083525 -0.375021 -0.246643
v 0.088403 -0.375021 -0.235905
v 0.181584 -0.375021 0.180952
v 0.062498 -0.375021 0.187054
v 0.151529 -0.375021 0.183360
v 0.163865 -0.375021 0.191433
v 0.179495 -0.375021 0.186467
v 0.172616 -0.375021 0.192027
v 0.169687 -0.375021 0.192371
v 0.149358 -0.375021 -0.238497
v 0.137036 -0.375021 -0.251192
v 0.089091 -0.375021 -0.230048
v 0.151078 -0.375021 -0.223855
v 0.144614 -0.375021 -0.223095
v 0.087806 -0.375021 -0.212404
v 0.185207 -0.375021 0.122458
v 0.083156 -0.375021 -0.195334
v 0.077725 -0.375021 -0.184865
v 0.078757 -0.375021 -0.176080
v 0.074512 -0.375021 -0.158905
v 0.074230 -0.375021 -0.150064
v 0.065664 -0.375021 -0.128086
v 0.057576 -0.375021 -0.102377
v 0.053132 -0.375021 -0.094728
v 0.067544 -0.375021 -0.059131
v 0.046737 -0.375021 -0.088618
v 0.062075 -0.375021 -0.066175
v 0.055087 -0.375021 -0.071713
v 0.046980 -0.375021 -0.075426
v 0.038221 -0.375021 -0.077102
v 0.071176 -0.375021 -0.050988
v 0.073705 -0.375021 -0.029465
v 0.069199 -0.375021 -0.023703
v 0.063626 -0.375021 -0.018965
v 0.057214 -0.375021 -0.015445
v 0.076537 -0.375021 0.013909
v 0.053239 -0.375021 -0.003179
v 0.030376 -0.375021 -0.005927
v 0.035872 -0.375021 -0.003954
v 0.041600 -0.375021 -0.002825
v 0.047433 -0.375021 -0.002565
v 0.065612 -0.375021 0.009466
v 0.071840 -0.375021 0.021173
v 0.065679 -0.375021 0.027246
v 0.058348 -0.375021 0.031838
v 0.050195 -0.375021 0.034732
v 0.006202 -0.375021 0.066684
v -0.000606 -0.375021 0.076315
v -0.012762 -0.375021 0.084656
v -0.043439 -0.375021 0.095188
v -0.129759 -0.375021 0.125250
v -0.173780 -0.375021 0.138146
v -0.145513 -0.375021 0.212570
v 0.193969 -0.375021 0.123672
v 0.195001 -0.375021 0.132458
v 0.186890 -0.375021 0.136784
v 0.188092 -0.375021 0.147019
v 0.176665 -0.375021 0.150979
v 0.185450 -0.375021 0.149947
v 0.168213 -0.375021 0.159206
v 0.036142 -0.375021 0.190150
v -0.117182 -0.375021 0.215085
v -0.082261 -0.375021 0.262163
v -0.142129 -0.375021 0.217400
v -0.113403 -0.375021 0.262111
v -0.104987 -0.375021 0.264833
v -0.136276 -0.375021 0.218119
v 0.087913 -0.375021 0.207204
v 0.131010 -0.375021 0.200187
v 0.091329 -0.375021 0.212011
v 0.103959 -0.375021 0.238839
v 0.096957 -0.375021 0.234918
v 0.101030 -0.375021 0.239183
vn 0 -1 0
usemtl material_0_0
f 1//1 2//1 3//1
f 2//1 1//1 4//1
f 5//1 6//1 7//1
f 6//1 5//1 8//1
f 6//1 8//1 9//1
f 9//1 8//1 10//1
f 11//1 12//1 13//1
f 12//1 11//1 14//1
f 12//1 14//1 15//1
f 12//1 15//1 16//1
f 16//1 15//1 17//1
f 16//1 17//1 18//1
f 16//1 18//1 19//1
f 19//1 18//1 20//1
f 19//1 20//1 21//1
f 19//1 21//1 22//1
f 19//1 22//1 23//1
f 23//1 22//1 24//1
f 23//1 24//1 25//1
f 23//1 25//1 26//1
f 26//1 25//1 27//1
f 26//1 27//1 28//1
f 26//1 28//1 29//1
f 26//1 29//1 30//1
f 26//1 30//1 31//1
f 26//1 31//1 32//1
f 32//1 31//1 33//1
f 34//1 35//1 36//1
f 35//1 34//1 37//1
f 37//1 34//1 38//1
f 37//1 38//1 39//1
f 39//1 38//1 40//1
f 39//1 40//1 41//1
f 41//1 40//1 42//1
f 41//1 42//1 43//1
f 43//1 42//1 44//1
f 43//1 44//1 45//1
f 45//1 44//1 46//1
f 45//1 46//1 47//1
f 47//1 46//1 48//1
f 47//1 48//1 49//1
f 50//1 51//1 52//1
f 53//1 54//1 55//1
f 54//1 53//1 56//1
f 54//1 56//1 57//1
f 54//1 57//1 58//1
f 58//1 57//1 59//1
f 58//1 59//1 60//1
f 58//1 60//1 61//1
f 61//1 60//1 62//1
f 62//1 60//1 63//1
f 62//1 63//1 64//1
f 64//1 63//1 65//1
f 66//1 67//1 1//1
f 67//1 66//1 68//1
f 68//1 66//1 69//1
f 69//1 66//1 70//1
f 69//1 70//1 71//1
f 69//1 71//1 72//1
f 73//1 63//1 74//1
f 63//1 73//1 65//1
f 65//1 73//1 75//1
f 75//1 73//1 76//1
f 75//1 76//1 77//1
f 75//1 77//1 78//1
f 78//1 77//1 79//1
f 78//1 79//1 80//1
f 80//1 79//1 81//1
f 81//1 79//1 82//1
f 82//1 79//1 83//1
f 83//1 79//1 84//1
f 84//1 79//1 85//1
f 85//1 79//1 52//1
f 52//1 79//1 50//1
f 50//1 79//1 86//1
f 86//1 79//1 87//1
f 87//1 79//1 88//1
f 87//1 88//1 89//1
f 89//1 88//1 90//1
f 89//1 90//1 91//1
f 89//1 91//1 92//1
f 89//1 92//1 93//1
f 89//1 93//1 13//1
f 13//1 93//1 11//1
f 88//1 79//1 94//1
f 94//1 79//1 95//1
f 95//1 79//1 96//1
f 96//1 79//1 97//1
f 97//1 79//1 98//1
f 98//1 79//1 49//1
f 49//1 79//1 99//1
f 49//1 99//1 100//1
f 49//1 100//1 47//1
f 47//1 100//1 101//1
f 101//1 100//1 102//1
f 102//1 100//1 103//1
f 103//1 100//1 104//1
f 100//1 99//1 105//1
f 99//1 79//1 106//1
f 106//1 79//1 107//1
f 107//1 79//1 108//1
f 108//1 79//1 109//1
f 109//1 79//1 33//1
f 33//1 79//1 32//1
f 32//1 79//1 110//1
f 110//1 79//1 111//1
f 111//1 79//1 112//1
f 112//1 79//1 113//1
f 113//1 79//1 114//1
f 114//1 79//1 10//1
f 10//1 79//1 9//1
f 9//1 79//1 115//1
f 115//1 79//1 116//1
f 116//1 79//1 117//1
f 116//1 117//1 118//1
f 116//1 118//1 119//1
f 116//1 119//1 120//1
f 116//1 120//1 121//1
f 121//1 120//1 122//1
f 116//1 121//1 123//1
f 116//1 123//1 4//1
f 116//1 4//1 1//1
f 116//1 1//1 124//1
f 124//1 1//1 67//1
f 116//1 124//1 125//1
f 125//1 124//1 126//1
f 116//1 125//1 127//1
f 125//1 126//1 128//1
f 128//1 126//1 129//1
f 130//1 127//1 125//1
f 68//1 131//1 67//1
f 131//1 68//1 132//1
f 131//1 132//1 133//1
f 133//1 132//1 134//1
f 133//1 134//1 135//1
f 135//1 134//1 136//1
