# SSTK version 0.8.0
# 10
mtllib original-10.mtl
o #ID48
v -0.242466 -0.050298 0.527134
v -0.242570 0.011542 0.527654
v -0.242570 -0.050298 0.527654
v -0.242466 0.011542 0.527134
v -0.242864 0.011542 0.528095
v -0.242864 -0.050298 0.528095
v -0.242570 -0.050298 0.526613
v -0.242570 0.011542 0.526613
v -0.243305 -0.050298 0.528389
v -0.243305 0.011542 0.528389
v -0.242864 -0.050298 0.526173
v -0.242864 0.011542 0.526173
v -0.243825 -0.050298 0.528493
v -0.243825 0.011542 0.528493
v -0.243305 0.011542 0.525878
v -0.243305 -0.050298 0.525878
v -0.244345 -0.050298 0.528389
v -0.244345 0.011542 0.528389
v -0.243825 0.011542 0.525775
v -0.243825 -0.050298 0.525775
v -0.244786 -0.050298 0.528095
v -0.244786 0.011542 0.528095
v -0.244345 0.011542 0.525878
v -0.244345 -0.050298 0.525878
v -0.245081 0.011542 0.527654
v -0.245081 -0.050298 0.527654
v -0.244786 0.011542 0.526173
v -0.244786 -0.050298 0.526173
v -0.245184 0.011542 0.527134
v -0.245184 -0.050298 0.527134
v -0.245081 -0.050298 0.526613
v -0.245081 0.011542 0.526613
vn 1 0 0
vn 0.9238795391929066 0 0.38268341623423263
vn 0.7071067811865476 0 0.7071067811865476
vn 0.9238795391929066 0 -0.38268341623423263
vn 0.38268341623423263 0 0.9238795391929066
vn 0.7071067811865476 0 -0.7071067811865476
vn 0 0 1
vn 0.38268341623423263 0 -0.9238795391929066
vn -0.38268341623423263 0 0.9238795391929066
vn 0 0 -1
vn -0.7071067811865476 0 0.7071067811865476
vn -0.38268341623423263 0 -0.9238795391929066
vn -0.9238795391929066 0 0.38268341623423263
vn -0.7071067811865476 0 -0.7071067811865476
vn -1 0 0
vn -0.9238795391929066 0 -0.38268341623423263
usemtl material_0_0
f 1//1 2//2 3//2
f 2//2 1//1 4//1
f 3//2 5//3 6//3
f 5//3 3//2 2//2
f 7//4 4//1 1//1
f 4//1 7//4 8//4
f 5//3 9//5 6//3
f 9//5 5//3 10//5
f 11//6 8//4 7//4
f 8//4 11//6 12//6
f 10//5 13//7 9//5
f 13//7 10//5 14//7
f 15//8 11//6 16//8
f 11//6 15//8 12//6
f 14//7 17//9 13//7
f 17//9 14//7 18//9
f 19//10 16//8 20//10
f 16//8 19//10 15//8
f 18//9 21//11 17//9
f 21//11 18//9 22//11
f 23//12 20//10 24//12
f 20//10 23//12 19//10
f 25//13 21//11 22//11
f 21//11 25//13 26//13
f 27//14 24//12 28//14
f 24//12 27//14 23//12
f 29//15 26//13 25//13
f 26//13 29//15 30//15
f 27//14 31//16 32//16
f 31//16 27//14 28//14
f 32//16 30//15 29//15
f 30//15 32//16 31//16
