# SSTK version 0.8.0
# 98
mtllib original-98.mtl
o #ID559
v 0.226156 0.447354 0.517348
v 0.224797 0.448713 0.517348
v 0.211207 0.447354 0.517348
v 0.226156 0.473175 0.517348
v 0.224797 0.459925 0.517348
v 0.224797 0.461284 0.517348
v 0.212566 0.459925 0.517348
v 0.224797 0.471816 0.517348
v 0.212566 0.471816 0.517348
v 0.212566 0.448713 0.517348
v 0.211207 0.473175 0.517348
v 0.212566 0.461284 0.517348
vn 0 0 1
usemtl material_0_0
f 1//1 2//1 3//1
f 2//1 1//1 4//1
f 2//1 4//1 5//1
f 5//1 4//1 6//1
f 5//1 6//1 7//1
f 6//1 4//1 8//1
f 8//1 4//1 9//1
f 3//1 10//1 11//1
f 10//1 3//1 2//1
f 11//1 10//1 7//1
f 11//1 7//1 12//1
f 12//1 7//1 6//1
f 11//1 12//1 9//1
f 11//1 9//1 4//1
