mtllib new-3.mtl
v 0.513320 -0.315436 -0.132978
v 0.513320 -0.315436 0.478713
v -0.505957 -0.315436 -0.132978
v 0.603257 -0.294677 -0.186951
v -0.505957 -0.315436 0.478713
v 0.603257 -0.294677 0.532686
v -0.595894 -0.294677 -0.186951
v -0.595894 -0.294677 0.532686
v 0.603257 -0.240384 -0.186951
v 0.603257 -0.294677 0.748040
v 0.603257 -0.240384 0.667080
v -0.595894 -0.240384 -0.186951
v -0.595894 -0.294677 0.748040
v -0.595894 -0.240384 0.748040
v 0.316001 -0.240384 0.548231
v 0.603257 -0.240384 0.748040
v -0.241301 -0.240384 0.548231
v 0.051649 -0.240384 0.558690
v 0.316001 -0.240384 0.699772
v -0.241301 -0.240384 0.699772
v 0.013485 -0.240384 0.579241
v 0.055202 -0.240384 0.564709
v 0.047019 -0.240384 0.554072
v 0.047730 -0.240384 0.699772
v 0.248933 -0.229206 0.661887
v 0.026971 -0.240384 0.699772
v 0.014247 -0.240384 0.586763
v 0.014247 -0.240384 0.571719
v 0.057436 -0.240384 0.571719
v 0.041627 -0.240384 0.551168
v 0.047730 -0.240384 0.620888
v 0.114798 -0.229206 0.661887
v 0.248933 -0.229206 0.586116
v 0.016481 -0.240384 0.593772
v 0.016481 -0.240384 0.564709
v 0.058197 -0.240384 0.579241
v 0.035841 -0.240384 0.550178
v 0.057436 -0.240384 0.586763
v 0.020033 -0.240384 0.599791
v 0.020033 -0.240384 0.558690
v 0.030055 -0.240384 0.551168
v 0.047019 -0.240384 0.604410
v 0.114798 -0.229206 0.622445
v 0.055202 -0.240384 0.593772
v 0.026971 -0.240384 0.620888
v 0.024663 -0.240384 0.604410
v 0.024663 -0.240384 0.554072
v 0.038734 -0.229206 0.593277
v 0.041627 -0.240384 0.607313
v 0.051649 -0.240384 0.599791
v 0.030055 -0.240384 0.607313
v 0.035841 -0.229206 0.593772
v 0.035841 -0.240384 0.608303
vn 0.064875 -0.996351 -0.055469
vn 0.064875 -0.996351 0.055469
vn -0.064875 -0.996351 -0.055469
vn 0.302034 -0.921438 -0.244392
vn -0.064875 -0.996351 0.055469
vn 0.138351 -0.988852 0.055052
vn -0.302034 -0.921438 -0.244392
vn -0.138351 -0.988852 0.055052
vn 0.792624 0.000000 -0.609711
vn 0.128768 -0.986715 0.099053
vn 1.000000 0.000000 0.000000
vn -0.128768 0.986715 -0.099053
vn -0.128768 -0.986715 0.099053
vn -0.128768 0.986715 0.099053
vn 0.000000 1.000000 0.000000
vn 0.128768 0.986715 0.099053
vn 0.064875 0.996351 0.055469
vn -0.064875 0.996351 -0.055469
vn -0.064875 0.996351 0.055469
vn -0.302034 0.921438 0.244392
vn 0.064875 0.996351 -0.055469
vn -0.138351 0.988852 -0.055052
vn 0.302034 0.921438 0.244392
vn 0.138351 0.988852 -0.055052
vn -0.792624 0.000000 0.609711
vn -1.000000 0.000000 0.000000
vn 0.128768 0.986715 -0.099053
vn 0.128768 -0.986715 -0.099053
vn 0.000000 -1.000000 0.000000
vn -0.128768 -0.986715 -0.099053
vn -0.052865 -0.997404 -0.048896
vn -0.096022 -0.987936 0.121501
vn -0.108274 -0.989064 -0.100145
vn 0.052865 -0.997404 -0.048896
vn 0.108274 -0.989064 -0.100145
vn -0.042714 -0.997624 0.054047
vn 0.160480 -0.979658 0.120483
vn 0.071869 -0.995954 0.053957
vn -0.052187 -0.987335 -0.149819
vn -0.384185 -0.768371 -0.511867
vn 0.000000 -0.987885 -0.155191
vn -0.203406 -0.785901 -0.583939
vn 0.000000 -0.792625 -0.609710
vn 0.108274 0.989064 0.100145
vn 0.096022 0.987936 -0.121501
vn 0.052865 0.997404 0.048896
vn -0.108274 0.989064 0.100145
vn -0.052865 0.997404 0.048896
vn 0.042714 0.997624 -0.054047
vn -0.160480 0.979658 -0.120483
vn -0.071869 0.995954 -0.053957
vn 0.052187 0.987335 0.149819
vn 0.384185 0.768371 0.511867
vn 0.000000 0.987885 0.155191
vn 0.203406 0.785901 0.583939
vn 0.000000 0.792625 0.609710
vt -0.906500 0.858263
vt -0.073500 0.253878
vt -0.073500 0.858263
vt -0.161530 0.134689
vt -0.580000 0.369407
vt -0.546070 0.134689
vt -0.906500 0.253878
vt 0.000000 0.640820
vt -0.906500 0.429653
vt -0.073500 0.429653
vt -0.127600 0.369407
vt 0.580000 1.127480
vt 0.161530 0.892762
vt 0.546070 0.892762
vt 0.980000 0.359959
vt 0.073500 0.148793
vt 0.906500 0.148793
vt -0.980000 0.640820
vt 0.000000 0.359959
vt -0.127600 0.424361
vt -0.580000 0.958743
vt -0.580000 0.424361
vt 0.127600 1.127480
vt 0.000000 0.958743
vt -0.980000 0.424361
vt 0.000000 0.424361
vt -0.980000 0.200550
vt 0.000000 -0.012232
vt 0.000000 0.200550
vt -0.043113 0.958743
vt 0.580000 0.958743
vt 0.127600 0.424361
vt 0.580000 0.424361
vt -0.980000 0.958743
vt 0.007783 0.424361
vt -0.980000 -0.012232
vt -0.007783 0.958743
vt 0.000000 0.911591
vt 0.234758 0.185191
vt 0.980000 0.911591
vt 0.007783 0.958743
vt -0.007783 0.424361
vt 0.980000 0.958743
vt 0.980000 0.424361
vt 0.690211 0.185191
vt 0.980000 -0.012232
vt 0.450798 0.174856
vt 0.234758 0.035459
vt 0.690211 0.035459
vt 0.481988 0.154551
vt 0.447895 0.168909
vt 0.454582 0.179420
vt 0.454002 0.035459
vt -0.046378 1.122074
vt -0.117828 0.982340
vt -0.022561 0.982340
vt 0.470967 0.035459
vt 0.481365 0.147119
vt 0.481365 0.161983
vt 0.446070 0.161983
vt 0.458989 0.182288
vt 0.454002 0.113402
vt 0.399191 1.035281
vt 0.234758 0.919067
vt 0.454002 0.919067
vt 0.479540 0.140194
vt 0.479540 0.168909
vt 0.445447 0.154551
vt 0.463718 0.183267
vt 0.446070 0.147119
vt -0.264309 1.012481
vt -0.429743 0.900819
vt 0.476637 0.134246
vt 0.476637 0.174856
vt 0.468446 0.182288
vt 0.454582 0.129683
vt 0.447895 0.140194
vt -0.376284 1.012481
vt 0.472853 0.129683
vt 0.472853 0.179420
vt 0.458989 0.126814
vt 0.450798 0.134246
vt 0.470967 0.113402
vt 0.468446 0.126814
vt 0.388404 1.001274
vt 0.391981 1.112211
vt 0.463718 0.125836
vt 0.393173 1.001274
vt 0.444531 0.979032
vt 0.448108 1.089969
vt 0.449300 0.979032
usemtl material-0
f 1//1 2//2 3//3
f 1//1 4//4 2//2
f 5//5 3//3 2//2
f 1//1 3//3 4//4
f 6//6 2//2 4//4
f 3//3 5//5 7//7
f 5//5 2//2 8//8
f 7//7 4//4 3//3
f 6//6 8//8 2//2
f 4//4 9//9 6//6
f 8//8 7//7 5//5
f 4//4 7//7 9//9
f 6//6 10//10 8//8
f 9//9 11//11 6//6
f 7//7 8//8 12//12
f 12//12 9//9 7//7
f 6//6 11//11 10//10
f 13//13 8//8 10//10
f 12//12 8//8 14//14
f 12//12 15//15 9//15
f 16//16 10//10 11//11
f 13//13 14//14 8//8
f 13//13 10//10 14//14
f 14//14 17//15 12//12
f 18//15 15//15 12//12
f 19//15 9//15 15//15
f 16//16 14//14 10//10
f 17//15 14//14 20//15
f 17//15 21//15 12//12
f 22//15 15//15 18//15
f 23//15 18//15 12//12
f 9//15 19//15 16//16
f 14//14 16//16 19//15
f 20//15 14//14 26//15
f 21//15 17//15 27//15
f 21//15 28//15 12//12
f 29//15 15//15 22//15
f 30//15 23//15 12//12
f 24//15 14//14 19//15
f 26//15 14//14 24//15
f 27//15 17//15 34//15
f 28//15 35//15 12//12
f 36//15 15//15 29//15
f 37//15 30//15 12//12
f 31//15 26//15 24//15
f 31//15 15//15 38//15
f 34//15 17//15 39//15
f 35//15 40//15 12//12
f 36//15 38//15 15//15
f 41//15 37//15 12//12
f 42//15 26//15 31//15
f 44//15 31//15 38//15
f 39//15 17//15 46//15
f 40//15 47//15 12//12
f 47//15 41//15 12//12
f 49//15 26//15 42//15
f 42//15 31//15 50//15
f 50//15 31//15 44//15
f 26//15 51//15 45//15
f 17//15 45//15 46//15
f 53//15 26//15 49//15
f 51//15 26//15 53//15
f 46//15 45//15 51//15
usemtl material-1
f 3/1/17 2/2/18 1/3/19
f 2/4/18 4/5/20 1/6/19
f 2/2/18 3/1/17 5/7/21
f 4/8/20 3/9/17 1/10/19
f 4/5/20 2/4/18 6/11/22
f 7/12/23 5/13/21 3/14/17
f 8/15/24 2/16/18 5/17/21
f 3/9/17 4/8/20 7/18/23
f 2/16/18 8/15/24 6/19/22
f 6/20/22 9/21/25 4/22/20
f 5/13/21 7/12/23 8/23/24
f 9/24/25 7/25/23 4/26/20
f 8/27/24 10/28/12 6/29/22
f 6/20/22 11/30/26 9/21/25
f 12/31/10 8/32/24 7/33/23
f 7/25/23 9/24/25 12/34/10
f 10/35/12 11/30/26 6/20/22
f 10/28/12 8/27/24 13/36/27
f 14/37/28 8/32/24 12/31/10
f 9/38/29 15/39/29 12/40/10
f 11/30/26 10/35/12 16/41/30
f 8/32/24 14/37/28 13/42/27
f 14/43/28 10/26/12 13/44/27
f 12/40/10 17/45/29 14/46/28
f 12/40/10 15/39/29 18/47/29
f 15/39/29 9/38/29 19/48/29
f 10/26/12 14/43/28 16/24/30
f 20/49/29 14/46/28 17/45/29
f 12/40/10 21/50/29 17/45/29
f 18/47/29 15/39/29 22/51/29
f 12/40/10 18/47/29 23/52/29
f 16/28/30 19/48/29 9/38/29
f 25/54/31 15/55/32 19/56/33
f 19/48/29 16/28/30 14/46/28
f 26/57/29 14/46/28 20/49/29
f 27/58/29 17/45/29 21/50/29
f 12/40/10 28/59/29 21/50/29
f 22/51/29 15/39/29 29/60/29
f 12/40/10 23/52/29 30/61/29
f 19/48/29 14/46/28 24/53/29
f 32/63/34 19/64/33 24/65/35
f 24/53/29 14/46/28 26/57/29
f 34/66/29 17/45/29 27/58/29
f 12/40/10 35/67/29 28/59/29
f 29/60/29 15/39/29 36/68/29
f 12/40/10 30/61/29 37/69/29
f 24/53/29 26/57/29 31/62/29
f 38/70/29 15/39/29 31/62/29
f 39/73/29 17/45/29 34/66/29
f 12/40/10 40/74/29 35/67/29
f 15/39/29 38/70/29 36/68/29
f 12/40/10 37/69/29 41/75/29
f 31/62/29 26/57/29 42/76/29
f 38/70/29 31/62/29 44/77/29
f 31/72/37 33/71/36 43/78/38
f 46/79/29 17/45/29 39/73/29
f 12/40/10 47/80/29 40/74/29
f 12/40/10 41/75/29 47/80/29
f 42/76/29 26/57/29 49/81/29
f 50/82/29 31/62/29 42/76/29
f 44/77/29 31/62/29 50/82/29
f 45/83/29 51/84/29 26/57/29
f 46/79/29 45/83/29 17/45/29
f 49/81/29 26/57/29 53/87/29
f 48/86/39 42/85/40 49/88/42
f 53/87/29 26/57/29 51/84/29
f 51/84/29 45/83/29 46/79/29
f 52/90/41 49/89/42 53/91/43
usemtl material-2
f 19//44 15//45 25//46
f 24//47 19//44 32//48
f 43//51 33//49 31//50
f 49//55 42//53 48//52
f 53//56 49//55 52//54