# SSTK version 0.8.0
# 46
mtllib original-46.mtl
o Component_5_41/Component_5/mesh4/mesh4-geometry#mesh4-geometry
v 0.465376 -0.202826 0.257347
v 0.428784 -0.240384 0.180622
v 0.428784 -0.240384 0.282922
v 0.465376 -0.202826 0.206197
v 0.538560 -0.202826 0.257347
v 0.575153 -0.240384 0.180622
v 0.575153 -0.240384 0.282922
v 0.538560 -0.202826 0.206197
vt 0 0
vt -0.44 0
vt -0.11 0.372598
vt -0.33 0.372598
vt 0.11 0.372598
vt 0.33 0.372598
vt 0.11 0.172888
vt 0.11 0.518664
vt 0.33 0.172888
vt 0 -0.320885
vt -0.44 -0.320885
vt -0.11 0.051713
vt 0.44 0
vt 0.33 0.518664
vt -0.33 0.051713
vt 0.11 0.051713
vt 0.44 -0.320885
vt 0.33 0.051713
vn -0.22682908950157563 0.9182710751727157 0.3245409013622644
vn -0.3822463569303575 0.7448353392767214 -0.5469077070018316
vn -0.38224635693035747 0.744835339276721 0.5469077070018318
vn -0.22682908950157565 0.9182710751727158 -0.324540901362264
vn 0.22682908950157563 0.9182710751727157 0.3245409013622644
vn 0.3822463569303575 0.7448353392767214 -0.5469077070018316
vn 0.38224635693035747 0.744835339276721 0.5469077070018318
vn 0.22682908950157565 0.9182710751727158 -0.324540901362264
vn 0.38224635693035747 -0.744835339276721 -0.5469077070018318
vn 0.3822463569303575 -0.7448353392767214 0.5469077070018316
vn 0.22682908950157563 -0.9182710751727157 -0.3245409013622644
vn 0.22682908950157565 -0.9182710751727158 0.324540901362264
vn -0.22682908950157563 -0.9182710751727157 -0.3245409013622644
vn -0.3822463569303575 -0.7448353392767214 0.5469077070018316
vn -0.38224635693035747 -0.744835339276721 -0.5469077070018318
vn -0.22682908950157565 -0.9182710751727158 0.324540901362264
usemtl material_0_0
f 1//1 2//2 3//3
f 2//2 1//1 4//4
f 3//3 5//5 1//1
f 5//5 4//4 1//1
f 4//4 6//6 2//2
f 5//5 3//3 7//7
f 4//4 5//5 8//8
f 6//6 4//4 8//8
f 6//6 5//5 7//7
f 5//5 6//6 8//8
usemtl material_1_0
f 3/1/9 2/2/10 1/3/11
f 4/4/12 1/3/11 2/2/10
f 1/5/11 5/6/13 3/1/9
f 1/7/11 4/8/12 5/9/13
f 2/10/10 6/11/14 4/12/12
f 7/13/15 3/1/9 5/6/13
f 8/14/16 5/9/13 4/8/12
f 8/15/16 4/12/12 6/11/14
f 7/10/15 5/16/13 6/17/14
f 8/18/16 6/17/14 5/16/13
