# SSTK version 0.8.0
# 8
mtllib original-8.mtl
o Group5/mesh28/mesh28-geometry#mesh28-geometry
v 0.454456 0.641335 -0.088540
v 0.441022 0.641335 0.086106
v 0.441022 0.641335 -0.075106
v 0.441022 0.641335 0.099880
v 0.441022 0.652205 -0.088540
v 0.441022 0.641335 -0.088540
v 0.548835 0.641335 0.099880
v 0.441022 0.652205 0.086106
v 0.548835 0.641335 -0.088540
v 0.548835 0.652205 0.099880
v 0.441022 0.652205 0.099880
v 0.441051 0.652657 -0.088511
v 0.454456 0.652205 -0.088540
v 0.441051 0.652657 0.099850
v 0.441051 0.652657 0.086106
v 0.548835 0.652205 -0.088540
v 0.444481 0.652205 0.099880
v 0.548806 0.652657 0.099850
v 0.441139 0.653101 -0.088422
v 0.441139 0.653101 0.099762
v 0.444481 0.652657 0.099850
v 0.441139 0.653101 0.086106
v 0.454456 0.652657 -0.088511
v 0.548806 0.652657 -0.088511
v 0.548717 0.653101 0.099762
v 0.441285 0.653529 -0.088277
v 0.441285 0.653529 0.099616
v 0.444481 0.653101 0.099762
v 0.441285 0.653529 0.086106
v 0.454456 0.653101 -0.088422
v 0.548717 0.653101 -0.088422
v 0.548572 0.653529 0.099616
v 0.441485 0.653935 -0.088077
v 0.441485 0.653935 0.099416
v 0.444481 0.653529 0.099616
v 0.441485 0.653935 0.086106
v 0.454456 0.653529 -0.088277
v 0.548572 0.653529 -0.088277
v 0.548372 0.653935 0.099416
v 0.441736 0.654311 -0.087825
v 0.441736 0.654311 0.099165
v 0.444481 0.653935 0.099416
v 0.441736 0.654311 0.086106
v 0.454456 0.653935 -0.088077
v 0.548372 0.653935 -0.088077
v 0.548120 0.654311 0.099165
v 0.442035 0.654652 -0.087527
v 0.442035 0.654652 0.098866
v 0.444481 0.654311 0.099165
v 0.442035 0.654652 0.086106
v 0.454456 0.654311 -0.087825
v 0.548120 0.654311 -0.087825
v 0.547822 0.654652 0.098866
v 0.442375 0.654950 0.098526
v 0.444481 0.654652 0.098866
v 0.442375 0.654950 -0.087187
v 0.547822 0.654652 -0.087527
v 0.444481 0.654950 0.098526
v 0.442375 0.654950 0.086106
v 0.454456 0.654652 -0.087527
v 0.547482 0.654950 -0.087187
v 0.547482 0.654950 0.098526
v 0.442751 0.655201 0.098150
v 0.454456 0.654950 -0.087187
v 0.444481 0.655201 0.098150
v 0.442751 0.655201 -0.086810
v 0.547106 0.655201 -0.086810
v 0.547106 0.655201 0.098150
v 0.442751 0.655201 0.086106
v 0.454456 0.655201 -0.086810
v 0.443157 0.655402 0.097744
v 0.444481 0.655402 0.097744
v 0.443157 0.655402 -0.086404
v 0.546700 0.655402 -0.086404
v 0.546700 0.655402 0.097744
v 0.454456 0.655402 -0.086404
v 0.443586 0.655547 0.097315
v 0.444481 0.655547 0.097315
v 0.443157 0.655402 0.086106
v 0.443586 0.655547 -0.085976
v 0.546271 0.655547 -0.085976
v 0.546271 0.655547 0.097315
v 0.454456 0.655547 -0.085976
v 0.444481 0.655635 0.096872
v 0.444030 0.655635 -0.085532
v 0.443586 0.655547 0.086106
v 0.545827 0.655635 -0.085532
v 0.545827 0.655635 0.096872
v 0.454456 0.655635 -0.085532
v 0.443808 0.655591 0.097093
v 0.444481 0.655665 0.096420
v 0.444481 0.655665 -0.085081
v 0.444030 0.655635 0.096872
v 0.545376 0.655665 -0.085081
v 0.545376 0.655665 0.096420
v 0.454190 0.655665 -0.085081
v 0.444255 0.655650 0.096646
v 0.444030 0.655635 0.086106
v 0.444481 0.655665 0.086106
v 0.444481 0.655665 0.041131
v 0.454456 0.655665 -0.085081
vn 0 -1 0
vn 0 1 0
vn -1 0 0
vn 1 0 0
vn 0 0 -1
vn 0 0 1
vn -0.9978589320009054 0.06540299554311303 0
vn -0.9914448886106774 0.1305259853353411 0
vn 0.9978589320009054 -0.06540299554311303 0
vn 0.9914448886106774 -0.1305259853353411 0
vn 0 0.13052598533534135 -0.9914448886106774
vn 0 0.06540299554311325 -0.9978589320009054
vn 0 -0.06540299554311325 0.9978589320009054
vn 0 -0.13052598533534135 0.9914448886106774
vn 0 0.06540299554311281 0.9978589320009054
vn 0 0.13052598533534088 0.9914448886106774
vn 0 -0.13052598533534088 -0.9914448886106774
vn 0 -0.06540299554311281 -0.9978589320009054
vn -0.9659258492011171 0.2588189595935754 0
vn 0.9659258492011171 -0.2588189595935754 0
vn 0.9978589320009054 0.06540299554311303 0
vn 0.9914448886106774 0.1305259853353411 0
vn -0.9978589320009054 -0.06540299554311303 0
vn -0.9914448886106774 -0.1305259853353411 0
vn 0 0.25881895959357565 -0.9659258492011171
vn 0 -0.25881895959357565 0.9659258492011171
vn 0 0.25881895959357526 0.9659258492011171
vn 0 -0.25881895959357526 -0.9659258492011171
vn -0.9238797538373538 0.38268289803626016 0
vn 0.9238797538373538 -0.38268289803626016 0
vn 0.9659258492011171 0.2588189595935754 0
vn -0.9659258492011171 -0.2588189595935754 0
vn 0 0.3826828980362604 -0.9238797538373537
vn 0 -0.3826828980362604 0.9238797538373537
vn 0 0.38268289803625993 0.9238797538373539
vn 0 -0.38268289803625993 -0.9238797538373539
vn -0.8660253028382761 0.5000001748438417 0
vn 0.8660253028382761 -0.5000001748438417 0
vn 0.9238797538373538 0.38268289803626016 0
vn -0.9238797538373538 -0.38268289803626016 0
vn 0 0.5000001748438418 -0.866025302838276
vn 0 -0.5000001748438418 0.866025302838276
vn 0 0.5000001748438415 0.8660253028382762
vn 0 -0.5000001748438415 -0.8660253028382762
vn -0.7933534213778815 0.6087613233345315 0
vn 0.7933534213778815 -0.6087613233345315 0
vn 0.8660253028382761 0.5000001748438417 0
vn -0.8660253028382761 -0.5000001748438417 0
vn 0 0.6087613233345316 -0.7933534213778813
vn 0 -0.6087613233345316 0.7933534213778813
vn 0 0.6087613233345313 0.7933534213778816
vn 0 -0.6087613233345313 -0.7933534213778816
vn -0.7071067811865475 0.7071067811865475 0
vn 0.7071067811865475 -0.7071067811865475 0
vn 0.7933534213778815 0.6087613233345315 0
vn -0.7933534213778815 -0.6087613233345315 0
vn 0 0.7071067811865478 -0.7071067811865474
vn 0 -0.7071067811865478 0.7071067811865474
vn 0 0.7071067811865474 0.7071067811865478
vn 0 -0.7071067811865474 -0.7071067811865478
vn -0.6087613233345315 0.7933534213778815 0
vn 0.6087613233345315 -0.7933534213778815 0
vn 0.7071067811865475 0.7071067811865475 0
vn -0.7071067811865475 -0.7071067811865475 0
vn 0 0.7933534213778813 0.6087613233345316
vn 0 -0.7933534213778813 -0.6087613233345316
vn 0 0.7933534213778816 -0.6087613233345313
vn 0 -0.7933534213778816 0.6087613233345313
vn 0.6087613233345315 0.7933534213778815 0
vn -0.6087613233345315 -0.7933534213778815 0
vn -0.5000001748438417 0.8660253028382761 0
vn 0.5000001748438417 -0.8660253028382761 0
vn 0 0.866025302838276 0.5000001748438418
vn 0 -0.866025302838276 -0.5000001748438418
vn 0 0.8660253028382762 -0.5000001748438415
vn 0 -0.8660253028382762 0.5000001748438415
vn 0.5000001748438417 0.8660253028382761 0
vn -0.5000001748438417 -0.8660253028382761 0
vn 0 0.9238797538373537 0.3826828980362604
vn 0 -0.9238797538373537 -0.3826828980362604
vn -0.38268289803626016 0.9238797538373538 0
vn 0.38268289803626016 -0.9238797538373538 0
vn 0 0.9238797538373539 -0.38268289803625993
vn 0 -0.9238797538373539 0.38268289803625993
vn 0.38268289803626016 0.9238797538373538 0
vn -0.38268289803626016 -0.9238797538373538 0
vn 0 0.9469302577445085 0.32143908749235656
vn 0 -0.9469302577445085 -0.32143908749235656
vn 0 0.9659258492011171 0.25881895959357565
vn 0 -0.9659258492011171 -0.25881895959357565
vn 0 0.9659258492011171 -0.25881895959357526
vn 0 -0.9659258492011171 0.25881895959357526
vn 0.2588189595935754 0.9659258492011171 0
vn -0.2588189595935754 -0.9659258492011171 0
vn -0.2588189595935754 0.9659258492011171 0
vn 0.2588189595935754 -0.9659258492011171 0
vn 0 0.9914448886106774 0.13052598533534135
vn 0 -0.9914448886106774 -0.13052598533534135
vn 0 0.9914448886106774 -0.13052598533534088
vn 0 -0.9914448886106774 0.13052598533534088
vn 0.1305259853353411 0.9914448886106774 0
vn -0.1305259853353411 -0.9914448886106774 0
vn -0.1950900659087513 0.9807853313461204 0
vn -0.1305259853353411 0.9914448886106774 0
vn 0.1305259853353411 -0.9914448886106774 0
vn 0.1950900659087513 -0.9807853313461204 0
vn 0 0.9978589320009054 0.06540299554311325
vn 0 -0.9978589320009054 -0.06540299554311325
vn 0 0.9978589320009054 -0.06540299554311281
vn 0 -0.9978589320009054 0.06540299554311281
vn 0.06540299554311303 0.9978589320009054 0
vn -0.06540299554311303 -0.9978589320009054 0
vn -0.06540299554311303 0.9978589320009054 0
vn 0.06540299554311303 -0.9978589320009054 0
usemtl material_0_0
f 1//1 2//1 3//1
f 3//2 2//2 1//2
f 1//1 4//1 2//1
f 2//2 4//2 1//2
f 2//3 5//3 3//3
f 3//4 5//4 2//4
f 1//1 3//1 6//1
f 6//2 3//2 1//2
f 4//1 1//1 7//1
f 7//2 1//2 4//2
f 4//3 8//3 2//3
f 2//4 8//4 4//4
f 2//3 8//3 5//3
f 5//4 8//4 2//4
f 3//3 5//3 6//3
f 6//4 5//4 3//4
f 5//5 1//5 6//5
f 6//6 1//6 5//6
f 7//1 1//1 9//1
f 9//2 1//2 7//2
f 10//6 4//6 7//6
f 7//5 4//5 10//5
f 8//3 4//3 11//3
f 11//4 4//4 8//4
f 8//7 12//8 5//7
f 5//9 12//10 8//9
f 1//5 5//5 13//5
f 13//6 5//6 1//6
f 13//5 9//5 1//5
f 1//6 9//6 13//6
f 9//4 10//4 7//4
f 7//3 10//3 9//3
f 4//6 10//6 11//6
f 11//5 10//5 4//5
f 14//8 8//7 11//7
f 11//9 8//9 14//10
f 8//7 15//8 12//8
f 12//10 15//10 8//9
f 12//11 13//12 5//12
f 5//13 13//13 12//14
f 9//5 13//5 16//5
f 16//6 13//6 9//6
f 10//4 9//4 16//4
f 16//3 9//3 10//3
f 11//6 10//6 17//6
f 17//5 10//5 11//5
f 8//7 14//8 15//8
f 15//10 14//10 8//9
f 11//15 18//16 14//16
f 14//17 18//17 11//18
f 15//8 19//19 12//8
f 12//10 19//20 15//10
f 13//12 12//11 16//12
f 16//13 12//14 13//13
f 16//21 18//22 10//21
f 10//23 18//24 16//23
f 18//16 17//15 10//15
f 10//18 17//18 18//17
f 17//15 18//16 11//15
f 11//18 18//17 17//18
f 20//19 15//8 14//8
f 14//10 15//10 20//20
f 14//16 18//16 21//16
f 21//17 18//17 14//17
f 15//8 22//19 19//19
f 19//20 22//20 15//10
f 19//25 23//11 12//11
f 12//14 23//14 19//26
f 16//12 12//11 24//11
f 24//14 12//14 16//13
f 18//22 16//21 24//22
f 24//24 16//23 18//24
f 15//8 20//19 22//19
f 22//20 20//20 15//10
f 14//16 25//27 20//27
f 20//28 25//28 14//17
f 25//27 21//16 18//16
f 18//17 21//17 25//28
f 21//16 25//27 14//16
f 14//17 25//28 21//17
f 22//19 26//29 19//19
f 19//20 26//30 22//20
f 23//11 19//25 24//11
f 24//14 19//26 23//14
f 24//11 12//11 23//11
f 23//14 12//14 24//14
f 24//22 25//31 18//22
f 18//24 25//32 24//24
f 27//29 22//19 20//19
f 20//20 22//20 27//30
f 20//27 25//27 28//27
f 28//28 25//28 20//28
f 22//19 29//29 26//29
f 26//30 29//30 22//20
f 26//33 30//25 19//25
f 19//26 30//26 26//34
f 24//11 19//25 31//25
f 31//26 19//26 24//14
f 25//31 24//22 31//31
f 31//32 24//24 25//32
f 22//19 27//29 29//29
f 29//30 27//30 22//20
f 20//27 32//35 27//35
f 27//36 32//36 20//28
f 32//35 28//27 25//27
f 25//28 28//28 32//36
f 28//27 32//35 20//27
f 20//28 32//36 28//28
f 29//29 33//37 26//29
f 26//30 33//38 29//30
f 30//25 26//33 31//25
f 31//26 26//34 30//26
f 31//25 19//25 30//25
f 30//26 19//26 31//26
f 31//31 32//39 25//31
f 25//32 32//40 31//32
f 34//37 29//29 27//29
f 27//30 29//30 34//38
f 27//35 32//35 35//35
f 35//36 32//36 27//36
f 29//29 36//37 33//37
f 33//38 36//38 29//30
f 33//41 37//33 26//33
f 26//34 37//34 33//42
f 31//25 26//33 38//33
f 38//34 26//34 31//26
f 32//39 31//31 38//39
f 38//40 31//32 32//40
f 29//29 34//37 36//37
f 36//38 34//38 29//30
f 27//35 39//43 34//43
f 34//44 39//44 27//36
f 39//43 35//35 32//35
f 32//36 35//36 39//44
f 35//35 39//43 27//35
f 27//36 39//44 35//36
f 36//37 40//45 33//37
f 33//38 40//46 36//38
f 37//33 33//41 38//33
f 38//34 33//42 37//34
f 38//33 26//33 37//33
f 37//34 26//34 38//34
f 38//39 39//47 32//39
f 32//40 39//48 38//40
f 41//45 36//37 34//37
f 34//38 36//38 41//46
f 34//43 39//43 42//43
f 42//44 39//44 34//44
f 36//37 43//45 40//45
f 40//46 43//46 36//38
f 40//49 44//41 33//41
f 33//42 44//42 40//50
f 38//33 33//41 45//41
f 45//42 33//42 38//34
f 39//47 38//39 45//47
f 45//48 38//40 39//48
f 36//37 41//45 43//45
f 43//46 41//46 36//38
f 34//43 46//51 41//51
f 41//52 46//52 34//44
f 46//51 42//43 39//43
f 39//44 42//44 46//52
f 42//43 46//51 34//43
f 34//44 46//52 42//44
f 43//45 47//53 40//45
f 40//46 47//54 43//46
f 44//41 40//49 45//41
f 45//42 40//50 44//42
f 45//41 33//41 44//41
f 44//42 33//42 45//42
f 45//47 46//55 39//47
f 39//48 46//56 45//48
f 48//53 43//45 41//45
f 41//46 43//46 48//54
f 41//51 46//51 49//51
f 49//52 46//52 41//52
f 43//45 50//53 47//53
f 47//54 50//54 43//46
f 47//57 51//49 40//49
f 40//50 51//50 47//58
f 45//41 40//49 52//49
f 52//50 40//50 45//42
f 46//55 45//47 52//55
f 52//56 45//48 46//56
f 43//45 48//53 50//53
f 50//54 48//54 43//46
f 41//51 53//59 48//59
f 48//60 53//60 41//52
f 53//59 49//51 46//51
f 46//52 49//52 53//60
f 49//51 53//59 41//51
f 41//52 53//60 49//52
f 50//53 54//61 47//53
f 47//54 54//62 50//54
f 51//49 47//57 52//49
f 52//50 47//58 51//50
f 52//49 40//49 51//49
f 51//50 40//50 52//50
f 52//55 53//63 46//55
f 46//56 53//64 52//56
f 54//61 50//53 48//53
f 48//54 50//54 54//62
f 48//59 53//59 55//59
f 55//60 53//60 48//60
f 47//53 54//61 56//61
f 56//62 54//62 47//54
f 52//49 47//57 57//57
f 57//58 47//58 52//50
f 53//63 52//55 57//63
f 57//64 52//56 53//64
f 55//59 54//65 48//59
f 48//60 54//66 55//60
f 58//65 55//59 53//59
f 53//60 55//60 58//66
f 56//61 54//61 59//61
f 59//62 54//62 56//62
f 56//67 60//57 47//57
f 47//58 60//58 56//68
f 57//57 47//57 60//57
f 60//58 47//58 57//58
f 61//69 53//63 57//63
f 57//64 53//64 61//70
f 54//65 55//59 58//65
f 58//66 55//60 54//66
f 58//65 53//59 62//65
f 62//66 53//60 58//66
f 63//71 59//61 54//61
f 54//62 59//62 63//72
f 59//61 63//71 56//61
f 56//62 63//72 59//62
f 60//57 56//67 64//67
f 64//68 56//68 60//58
f 60//57 61//67 57//57
f 57//58 61//68 60//58
f 53//63 61//69 62//69
f 62//70 61//70 53//64
f 58//65 63//73 54//65
f 54//66 63//74 58//66
f 65//73 58//65 62//65
f 62//66 58//66 65//74
f 56//61 63//71 66//71
f 66//72 63//72 56//62
f 66//75 64//67 56//67
f 56//68 64//68 66//76
f 60//57 64//67 61//67
f 61//68 64//68 60//58
f 67//77 62//69 61//69
f 61//70 62//70 67//78
f 63//73 58//65 65//73
f 65//74 58//66 63//74
f 65//73 62//65 68//73
f 68//74 62//66 65//74
f 66//71 63//71 69//71
f 69//72 63//72 66//72
f 64//67 66//75 70//75
f 70//76 66//76 64//68
f 64//67 67//75 61//67
f 61//68 67//76 64//68
f 62//69 67//77 68//77
f 68//78 67//78 62//70
f 65//73 71//79 63//73
f 63//74 71//80 65//74
f 72//79 65//73 68//73
f 68//74 65//74 72//80
f 71//81 69//71 63//71
f 63//72 69//72 71//82
f 69//71 71//81 66//71
f 66//72 71//82 69//72
f 73//83 70//75 66//75
f 66//76 70//76 73//84
f 64//67 70//75 67//75
f 67//76 70//76 64//68
f 74//85 68//77 67//77
f 67//78 68//78 74//86
f 71//79 65//73 72//79
f 72//80 65//74 71//80
f 72//79 68//73 75//79
f 75//80 68//74 72//80
f 66//71 71//81 73//81
f 73//82 71//82 66//72
f 70//75 73//83 76//83
f 76//84 73//84 70//76
f 70//75 74//83 67//75
f 67//76 74//84 70//76
f 68//77 74//85 75//85
f 75//86 74//86 68//78
f 72//79 77//87 71//79
f 71//80 77//88 72//80
f 78//89 72//79 75//79
f 75//80 72//80 78//90
f 73//81 71//81 79//81
f 79//82 71//82 73//82
f 80//91 76//83 73//83
f 73//84 76//84 80//92
f 70//75 76//83 74//83
f 74//84 76//84 70//76
f 81//93 75//85 74//85
f 74//86 75//86 81//94
f 77//87 72//79 78//89
f 78//90 72//80 77//88
f 77//95 79//81 71//81
f 71//82 79//82 77//96
f 78//89 75//79 82//89
f 82//90 75//80 78//90
f 79//81 77//95 73//81
f 73//82 77//96 79//82
f 76//83 80//91 83//91
f 83//92 80//92 76//84
f 73//81 77//95 80//95
f 80//96 77//96 73//82
f 76//83 81//91 74//83
f 74//84 81//92 76//84
f 75//85 81//93 82//93
f 82//94 81//94 75//86
f 82//89 84//97 78//89
f 78//90 84//98 82//90
f 85//99 83//91 80//91
f 80//92 83//92 85//100
f 76//83 83//91 81//91
f 81//92 83//92 76//84
f 80//95 77//95 86//95
f 86//96 77//96 80//96
f 87//101 82//93 81//93
f 81//94 82//94 87//102
f 84//97 82//89 88//97
f 88//98 82//90 84//98
f 83//91 85//99 89//99
f 89//100 85//100 83//92
f 80//95 90//103 85//104
f 85//105 90//106 80//96
f 83//91 87//99 81//91
f 81//92 87//100 83//92
f 90//103 86//95 77//95
f 77//96 86//96 90//106
f 86//95 90//103 80//95
f 80//96 90//106 86//96
f 82//93 87//101 88//101
f 88//102 87//102 82//94
f 88//97 91//107 84//97
f 84//98 91//108 88//98
f 92//109 89//99 85//99
f 85//100 89//100 92//110
f 83//91 89//99 87//99
f 87//100 89//100 83//92
f 85//104 90//103 93//104
f 93//105 90//106 85//105
f 94//111 88//101 87//101
f 87//102 88//102 94//112
f 91//107 88//97 95//107
f 95//108 88//98 91//108
f 89//99 92//109 96//109
f 96//110 92//110 89//100
f 85//104 97//113 92//113
f 92//114 97//114 85//105
f 89//99 94//109 87//99
f 87//100 94//110 89//100
f 85//104 93//104 98//104
f 98//105 93//105 85//105
f 88//101 94//111 95//111
f 95//112 94//112 88//102
f 95//2 99//2 91//2
f 91//1 99//1 95//1
f 96//2 92//2 100//2
f 100//1 92//1 96//1
f 89//99 96//109 101//109
f 101//110 96//110 89//100
f 98//104 97//113 85//104
f 85//105 97//114 98//105
f 92//113 97//113 91//113
f 91//114 97//114 92//114
f 89//99 101//109 94//109
f 94//110 101//110 89//100
f 97//113 98//104 93//104
f 93//105 98//105 97//114
f 101//2 95//2 94//2
f 94//1 95//1 101//1
f 99//2 95//2 100//2
f 100//1 95//1 99//1
f 92//113 91//113 99//113
f 99//114 91//114 92//114
f 92//113 99//113 100//113
f 100//114 99//114 92//114
f 100//2 95//2 96//2
f 96//1 95//1 100//1
f 96//2 95//2 101//2
f 101//1 95//1 96//1
