# SSTK version 0.8.0
# 3
mtllib original-3.mtl
o #ID21
v 0.827853 0.492494 0.016600
v 0.814003 0.459403 0.022346
v 0.814151 0.459403 0.016265
v 0.827704 0.492494 0.022681
v 0.827704 0.492494 0.022681
v 0.827853 0.492494 0.016600
v 0.814003 0.459403 0.022346
v 0.814151 0.459403 0.016265
v 0.780921 0.445696 0.021538
v 0.700675 0.539292 0.019577
v 0.677028 0.403980 0.018999
v 0.763278 0.474846 0.021107
v 0.755970 0.492494 0.020928
v 0.780921 0.467535 0.021538
v 0.814003 0.459403 0.022346
v 0.798565 0.474846 0.021969
v 0.805872 0.492494 0.022148
v 0.814003 0.525585 0.022346
v 0.827704 0.492494 0.022681
v 0.763278 0.510143 0.021107
v 0.780921 0.539292 0.021538
v 0.780921 0.517453 0.021538
v 0.798565 0.510143 0.021969
v 0.805872 0.492494 0.022148
v 0.798565 0.510143 0.021969
v 0.814003 0.525585 0.022346
v 0.780921 0.517453 0.021538
v 0.780921 0.539292 0.021538
v 0.763278 0.510143 0.021107
v 0.755970 0.492494 0.020928
v 0.700675 0.539292 0.019577
v 0.827704 0.492494 0.022681
v 0.814003 0.459403 0.022346
v 0.798565 0.474846 0.021969
v 0.780921 0.467535 0.021538
v 0.780921 0.445696 0.021538
v 0.763278 0.474846 0.021107
v 0.677028 0.403980 0.018999
v 0.780921 0.445696 0.021538
v 0.781070 0.445696 0.015456
v 0.780921 0.445696 0.021538
v 0.781070 0.445696 0.015456
v 0.814151 0.525585 0.016265
v 0.814003 0.525585 0.022346
v 0.814003 0.525585 0.022346
v 0.814151 0.525585 0.016265
v 0.700675 0.539292 0.019577
v 0.781070 0.539292 0.015456
v 0.700824 0.539292 0.013495
v 0.780921 0.539292 0.021538
v 0.780921 0.539292 0.021538
v 0.700675 0.539292 0.019577
v 0.781070 0.539292 0.015456
v 0.700824 0.539292 0.013495
vn 0.9997014898166333 0 0.024432176702123283
vn 0.7068956909822289 -0.7071067930186734 0.01727614938590479
vn -0.9997014898166333 0 -0.024432176702123283
vn -0.7068956909822289 0.7071067930186734 -0.01727614938590479
vn -0.024432176702123228 -1.110101958099868e-9 0.9997014898166333
vn 0.024432176702123228 1.110101958099868e-9 -0.9997014898166333
vn 0.37749411567356866 -0.9259660242948634 0.009225751101929587
vn -0.37749411567356866 0.9259660242948634 -0.009225751101929587
vn 0.7068956909822289 0.7071067930186734 0.01727614938590479
vn -0.7068956909822289 -0.7071067930186734 -0.01727614938590479
vn 0 1 0
vn 0.19503203697510782 0.9807852900627407 0.004766481919126472
vn -0.19503203697510782 -0.9807852900627407 -0.004766481919126472
vn 0 -1 0
usemtl material_0_0
f 1//1 2//2 3//2
f 2//2 1//1 4//1
f 5//3 6//3 7//4
f 8//4 7//4 6//3
f 9//5 10//5 11//5
f 10//5 9//5 12//5
f 10//5 12//5 13//5
f 12//5 9//5 14//5
f 14//5 9//5 15//5
f 14//5 15//5 16//5
f 16//5 15//5 17//5
f 17//5 15//5 18//5
f 18//5 15//5 19//5
f 10//5 20//5 21//5
f 20//5 10//5 13//5
f 21//5 20//5 22//5
f 21//5 22//5 18//5
f 18//5 22//5 23//5
f 18//5 23//5 17//5
f 24//6 25//6 26//6
f 25//6 27//6 26//6
f 26//6 27//6 28//6
f 27//6 29//6 28//6
f 30//6 31//6 29//6
f 28//6 29//6 31//6
f 32//6 33//6 26//6
f 26//6 33//6 24//6
f 24//6 33//6 34//6
f 34//6 33//6 35//6
f 33//6 36//6 35//6
f 35//6 36//6 37//6
f 30//6 37//6 31//6
f 37//6 36//6 31//6
f 38//6 31//6 36//6
f 3//2 39//7 40//7
f 39//7 3//2 2//2
f 7//4 8//4 41//8
f 42//8 41//8 8//4
f 43//9 4//1 1//1
f 4//1 43//9 44//9
f 45//10 46//10 5//3
f 6//3 5//3 46//10
f 47//11 48//12 49//11
f 48//12 47//11 50//12
f 51//13 52//14 53//13
f 54//14 53//13 52//14
f 50//12 43//9 48//12
f 43//9 50//12 44//9
f 45//10 51//13 46//10
f 53//13 46//10 51//13
