# SSTK version 0.8.0
# 14
mtllib original-14.mtl
o group_8/ID111#ID111
v 0.172086 0.616413 -0.043326
v 0.241991 0.611890 -0.044517
v 0.172086 0.611890 -0.044517
v 0.241991 0.616413 -0.043326
v 0.172086 0.620628 -0.039834
v 0.241991 0.620628 -0.039834
v 0.241991 0.611890 -0.044517
v 0.241991 0.620628 -0.039834
v 0.241991 0.624247 -0.034280
v 0.241991 0.616413 -0.043326
v 0.172086 0.624247 -0.034280
v 0.241991 0.611890 -0.044517
v 0.172086 0.611890 -0.044517
v 0.241991 0.624247 -0.034280
v 0.172086 0.611890 -0.044517
v 0.241991 0.611890 0.025388
v 0.172086 0.611890 0.025388
v 0.241991 0.611890 -0.044517
v 0.172086 0.620628 -0.039834
v 0.172086 0.611890 -0.044517
v 0.172086 0.624247 -0.034280
v 0.172086 0.616413 -0.043326
v 0.241991 0.624247 -0.034280
v 0.172086 0.624247 -0.034280
v 0.241991 0.616413 0.024197
v 0.241991 0.611890 0.025388
v 0.241991 0.620628 0.020705
v 0.241991 0.624247 0.015150
v 0.241991 0.627025 0.007911
v 0.241991 0.628771 -0.000518
v 0.241991 0.629366 -0.009565
v 0.241991 0.628771 -0.018611
v 0.241991 0.627025 -0.027041
v 0.172086 0.624247 0.015150
v 0.172086 0.611890 -0.044517
v 0.172086 0.611890 0.025388
v 0.172086 0.627025 0.007911
v 0.172086 0.628771 -0.000518
v 0.172086 0.629366 -0.009565
v 0.172086 0.628771 -0.018611
v 0.172086 0.627025 -0.027041
v 0.172086 0.624247 -0.034280
v 0.241991 0.627025 -0.027041
v 0.172086 0.624247 -0.034280
v 0.172086 0.627025 -0.027041
v 0.241991 0.624247 -0.034280
v 0.241991 0.616413 0.024197
v 0.172086 0.611890 0.025388
v 0.241991 0.611890 0.025388
v 0.172086 0.616413 0.024197
v 0.241991 0.620628 0.020705
v 0.172086 0.620628 0.020705
v 0.241991 0.628771 -0.018611
v 0.172086 0.628771 -0.018611
v 0.241991 0.629366 -0.009565
v 0.172086 0.629366 -0.009565
v 0.241991 0.628771 -0.000518
v 0.172086 0.628771 -0.000518
v 0.241991 0.627025 0.007911
v 0.172086 0.627025 0.007911
v 0.241991 0.624247 0.015150
v 0.172086 0.624247 0.015150
v 0.172086 0.616413 0.024197
v 0.172086 0.624247 0.015150
v 0.172086 0.611890 0.025388
v 0.172086 0.620628 0.020705
vn 0 0.4570258945060065 -0.8894533893077167
vn 0 0.2546263067206137 -0.9670395255240708
vn 0 0.7463507384451502 -0.6655528342831837
vn 1 0 0
vn 0 0.6379519655153665 -0.7700761583733655
vn 0 -1 0
vn -1 0 0
vn 0 0.8378257062630274 -0.5459378040810687
vn 0 0.9595823433456355 -0.2814280127124857
vn 0 0.9336430454189254 -0.3582047790592336
vn 0 0.4570258945060079 0.8894533893077159
vn 0 0.2546263067206152 0.9670395255240702
vn 0 0.7463507384451512 0.6655528342831826
vn 0 0.9909046323742617 -0.13456600439646327
vn 0 1 0
vn 0 0.9909046323742621 0.13456600439646174
vn 0 0.9595823433456359 0.28142801271248424
vn 0 0.8906942813754362 0.45460279049417995
usemtl material_0_0
f 1//1 2//2 3//2
f 2//2 1//1 4//1
f 5//3 4//1 1//1
f 4//1 5//3 6//3
f 7//4 8//4 9//4
f 8//4 7//4 10//4
f 11//5 12//5 13//5
f 12//5 11//5 14//5
f 15//6 16//6 17//6
f 16//6 15//6 18//6
f 19//7 20//7 21//7
f 20//7 19//7 22//7
f 23//8 5//3 24//8
f 5//3 23//8 6//3
f 7//4 25//4 26//4
f 25//4 7//4 27//4
f 27//4 7//4 28//4
f 28//4 7//4 29//4
f 29//4 7//4 30//4
f 30//4 7//4 31//4
f 31//4 7//4 32//4
f 32//4 7//4 33//4
f 33//4 7//4 9//4
f 34//7 35//7 36//7
f 35//7 34//7 37//7
f 35//7 37//7 38//7
f 35//7 38//7 39//7
f 35//7 39//7 40//7
f 35//7 40//7 41//7
f 35//7 41//7 42//7
f 43//9 44//10 45//9
f 44//10 43//9 46//10
f 47//11 48//12 49//12
f 48//12 47//11 50//11
f 51//13 50//11 47//11
f 50//11 51//13 52//13
f 53//14 45//9 54//14
f 45//9 53//14 43//9
f 55//15 54//14 56//15
f 54//14 55//15 53//14
f 57//16 56//15 58//16
f 56//15 57//16 55//15
f 59//17 58//16 60//17
f 58//16 59//17 57//16
f 61//18 60//17 62//18
f 60//17 61//18 59//17
f 52//13 61//18 62//18
f 61//18 52//13 51//13
f 63//7 64//7 65//7
f 64//7 63//7 66//7
