# SSTK version 0.8.0
# 4
mtllib original-4.mtl
o mesh3/mesh3-geometry#mesh3-geometry
v 0.710161 -0.165057 0.440421
v 0.710161 -0.169650 0.430734
v 0.710161 -0.186237 0.440421
v 0.710161 -0.165057 0.426122
v 0.710161 -0.181644 0.430734
v 0.714757 -0.165057 0.440421
v 0.710161 -0.169650 0.428518
v 0.710161 -0.186237 0.426122
v 0.714757 -0.181644 0.430734
v 0.714757 -0.186237 0.440421
v 0.714757 -0.165057 0.426122
v 0.710161 -0.169785 0.425851
v 0.714757 -0.169650 0.428518
v 0.710161 -0.181644 0.428518
v 0.714757 -0.186237 0.426122
v 0.714757 -0.169650 0.430734
v 0.710161 -0.165160 0.423550
v 0.714757 -0.169785 0.425851
v 0.710161 -0.181509 0.425840
v 0.714757 -0.186093 0.423147
v 0.714757 -0.181644 0.428518
v 0.714757 -0.165160 0.423550
v 0.710161 -0.170190 0.423535
v 0.714757 -0.170190 0.423535
v 0.710161 -0.186093 0.423147
v 0.714757 -0.181509 0.425840
v 0.710161 -0.165472 0.421073
v 0.710161 -0.181103 0.423521
v 0.714757 -0.185663 0.420227
v 0.714757 -0.181103 0.423521
v 0.714757 -0.165472 0.421073
v 0.710161 -0.170866 0.421571
v 0.714757 -0.170866 0.421571
v 0.710161 -0.180427 0.421561
v 0.710161 -0.185663 0.420227
v 0.714757 -0.180427 0.421561
v 0.710161 -0.165991 0.418692
v 0.710161 -0.171812 0.419959
v 0.714757 -0.185011 0.417620
v 0.714757 -0.179481 0.419959
v 0.714757 -0.165991 0.418692
v 0.714757 -0.171812 0.419959
v 0.710161 -0.179481 0.419959
v 0.710161 -0.185011 0.417620
v 0.710161 -0.166717 0.416407
v 0.710161 -0.173585 0.418339
v 0.714757 -0.184144 0.415257
v 0.714757 -0.177696 0.418339
v 0.714757 -0.173585 0.418339
v 0.714757 -0.166717 0.416407
v 0.710161 -0.177696 0.418339
v 0.710161 -0.184144 0.415257
v 0.714757 -0.175639 0.417799
v 0.710161 -0.167592 0.414338
v 0.710161 -0.175639 0.417799
v 0.714757 -0.183060 0.413138
v 0.714757 -0.167592 0.414338
v 0.710161 -0.183060 0.413138
v 0.710161 -0.168602 0.412525
v 0.710161 -0.181760 0.411263
v 0.714757 -0.168602 0.412525
v 0.714757 -0.181760 0.411263
v 0.714757 -0.169748 0.410968
v 0.710161 -0.180321 0.409729
v 0.710161 -0.169748 0.410968
v 0.714757 -0.180321 0.409729
v 0.714757 -0.171030 0.409667
v 0.710161 -0.178822 0.408633
v 0.710161 -0.171030 0.409667
v 0.714757 -0.178822 0.408633
v 0.714757 -0.173300 0.408234
v 0.710161 -0.177261 0.407976
v 0.710161 -0.173300 0.408234
v 0.714757 -0.177261 0.407976
v 0.714757 -0.175639 0.407756
v 0.710161 -0.175639 0.407756
vn -1 0 0
vn 1 0 0
vn 0 0 1
vn 0 0 -1
vn 0 1 0
vn 0 0.9997971033858631 -0.02014328824292806
vn 0 -1 0
vn 0 -0.9997971033858631 0.02014328824292806
vn 0 -0.9996806726234837 0.025269601956879856
vn 0 0.9996806726234837 -0.025269601956879856
vn 0 -0.9997101286365744 -0.024076102289279977
vn 0 0.9997101286365744 0.024076102289279977
vn 0 0.9996830878597505 0.025173872312267625
vn 0 -0.9996830878597505 -0.025173872312267625
vn 0 0.9966085533042636 -0.08228846505302483
vn 0 -0.9966085533042636 0.08228846505302483
vn 0 -0.9938326938501734 0.11088993026649326
vn 0 0.9938326938501734 -0.11088993026649326
vn 0 -0.9953150113541819 -0.0966852014168896
vn 0 0.9953150113541819 0.0966852014168896
vn 0 -0.9690123862979084 0.24701213573675504
vn 0 0.9690123862979084 -0.24701213573675504
vn 0 0.9938569205376294 0.11067258693759768
vn 0 -0.9938569205376294 -0.11067258693759768
vn 0 0.9857289810687847 -0.16834006023848092
vn 0 -0.9857289810687847 0.16834006023848092
vn 0 -0.9811041552683701 -0.1934803259123206
vn 0 0.9811041552683701 0.1934803259123206
vn 0 -0.9108841857153273 0.412662089625065
vn 0 0.9108841857153273 -0.412662089625065
vn 0 0.9689840904061506 0.24712311211168578
vn 0 -0.9689840904061506 -0.24712311211168578
vn 0 0.9663512778708635 -0.25722598577388933
vn 0 -0.9663512778708635 0.25722598577388933
vn 0 0.9102534438794592 0.41405152808024326
vn 0 -0.9102534438794592 -0.41405152808024326
vn 0 -0.9562518125321712 -0.2925448188379644
vn 0 0.9562518125321712 0.2925448188379644
vn 0 -0.7849681984421446 0.619536058219773
vn 0 0.7849681984421446 -0.619536058219773
vn 0 0.783102438245717 0.6218927328837448
vn 0 -0.783102438245717 -0.6218927328837448
vn 0 0.9384367548964142 -0.34545109213821795
vn 0 -0.9384367548964142 0.34545109213821795
vn 0 -0.9170485564025231 -0.39877555742553805
vn 0 0.9170485564025231 0.39877555742553805
vn 0 -0.495677066726202 0.8685069058572351
vn 0 0.495677066726202 -0.8685069058572351
vn 0 0.4937977808618635 0.8695767657981088
vn 0 -0.4937977808618635 -0.8695767657981088
vn 0 0.8993452628052231 -0.4372391774187259
vn 0 -0.8993452628052231 0.4372391774187259
vn 0 -0.8593449339153613 -0.5113964064734945
vn 0 0.8593449339153613 0.5113964064734945
vn 0 -0.00024270077312936743 0.9999999705481669
vn 0 0.00024270077312936743 -0.9999999705481669
vn 0 0.8423422240373326 -0.5389430188840375
vn 0 -0.8423422240373326 0.5389430188840375
vn 0 -0.7796404261998978 -0.626227439381924
vn 0 0.7796404261998978 0.626227439381924
vn 0 0.7626282753093274 -0.6468370070572035
vn 0 -0.7626282753093274 0.6468370070572035
vn 0 -0.6656843916859095 -0.7462334022715418
vn 0 0.6656843916859095 0.7462334022715418
vn 0 0.6318593266344099 -0.7750830867365834
vn 0 -0.6318593266344099 0.7750830867365834
vn 0 -0.49647882054940246 -0.8680488354613893
vn 0 0.49647882054940246 0.8680488354613893
vn 0 0.38092717905959345 -0.9246050423038479
vn 0 -0.38092717905959345 0.9246050423038479
vn 0 -0.2664062595331557 -0.9638608327354903
vn 0 0.2664062595331557 0.9638608327354903
vn 0 0.03418090858729531 -0.9994156620186352
vn 0 -0.03418090858729531 0.9994156620186352
usemtl material_0_0
f 1//1 2//1 3//1
f 2//1 1//1 4//1
f 3//2 2//2 1//2
f 4//2 1//2 2//2
f 5//1 3//1 2//1
f 2//2 3//2 5//2
f 3//3 6//3 1//3
f 1//4 6//4 3//4
f 6//5 4//6 1//5
f 1//7 4//8 6//7
f 2//1 4//1 7//1
f 7//2 4//2 2//2
f 3//1 5//1 8//1
f 8//2 5//2 3//2
f 2//4 9//4 5//4
f 5//3 9//3 2//3
f 6//3 3//3 10//3
f 10//4 3//4 6//4
f 4//6 6//5 11//6
f 11//8 6//7 4//8
f 7//1 4//1 12//1
f 12//2 4//2 7//2
f 13//9 2//7 7//9
f 7//10 2//5 13//10
f 8//1 5//1 14//1
f 14//2 5//2 8//2
f 15//11 3//7 8//11
f 8//12 3//5 15//12
f 9//4 2//4 16//4
f 16//3 2//3 9//3
f 9//5 14//13 5//5
f 5//7 14//14 9//7
f 3//7 15//11 10//7
f 10//5 15//12 3//5
f 10//2 9//2 6//2
f 6//1 9//1 10//1
f 6//2 16//2 11//2
f 11//1 16//1 6//1
f 11//6 17//15 4//6
f 4//8 17//16 11//8
f 12//1 4//1 17//1
f 17//2 4//2 12//2
f 18//17 7//9 12//17
f 12//18 7//10 18//18
f 2//7 13//9 16//7
f 16//5 13//10 2//5
f 7//9 18//17 13//9
f 13//10 18//18 7//10
f 8//1 14//1 19//1
f 19//2 14//2 8//2
f 8//11 20//19 15//11
f 15//12 20//20 8//12
f 16//2 6//2 9//2
f 9//1 6//1 16//1
f 14//13 9//5 21//13
f 21//14 9//7 14//14
f 9//2 10//2 15//2
f 15//1 10//1 9//1
f 11//2 16//2 13//2
f 13//1 16//1 11//1
f 17//15 11//6 22//15
f 22//16 11//8 17//16
f 12//1 17//1 23//1
f 23//2 17//2 12//2
f 12//17 24//21 18//17
f 18//18 24//22 12//18
f 11//2 13//2 18//2
f 18//1 13//1 11//1
f 21//13 19//23 14//13
f 14//14 19//24 21//14
f 8//1 19//1 25//1
f 25//2 19//2 8//2
f 20//19 8//11 25//19
f 25//20 8//12 20//20
f 26//2 15//2 20//2
f 20//1 15//1 26//1
f 9//2 15//2 21//2
f 21//1 15//1 9//1
f 11//2 18//2 22//2
f 22//1 18//1 11//1
f 22//15 27//25 17//15
f 17//16 27//26 22//16
f 23//1 17//1 27//1
f 27//2 17//2 23//2
f 24//21 12//17 23//21
f 23//22 12//18 24//22
f 22//2 18//2 24//2
f 24//1 18//1 22//1
f 19//23 21//13 26//23
f 26//24 21//14 19//24
f 25//1 19//1 28//1
f 28//2 19//2 25//2
f 25//19 29//27 20//19
f 20//20 29//28 25//20
f 21//2 15//2 26//2
f 26//1 15//1 21//1
f 26//2 20//2 30//2
f 30//1 20//1 26//1
f 27//25 22//15 31//25
f 31//26 22//16 27//26
f 23//1 27//1 32//1
f 32//2 27//2 23//2
f 23//21 33//29 24//21
f 24//22 33//30 23//22
f 22//2 24//2 31//2
f 31//1 24//1 22//1
f 26//23 28//31 19//23
f 19//24 28//32 26//24
f 25//1 28//1 34//1
f 34//2 28//2 25//2
f 29//27 25//19 35//27
f 35//28 25//20 29//28
f 36//2 20//2 29//2
f 29//1 20//1 36//1
f 30//2 20//2 36//2
f 36//1 20//1 30//1
f 28//31 26//23 30//31
f 30//32 26//24 28//32
f 31//25 37//33 27//25
f 27//26 37//34 31//26
f 32//1 27//1 38//1
f 38//2 27//2 32//2
f 33//29 23//21 32//29
f 32//30 23//22 33//30
f 31//2 24//2 33//2
f 33//1 24//1 31//1
f 30//31 34//35 28//31
f 28//32 34//36 30//32
f 25//1 34//1 35//1
f 35//2 34//2 25//2
f 35//27 39//37 29//27
f 29//28 39//38 35//28
f 36//2 29//2 40//2
f 40//1 29//1 36//1
f 34//35 30//31 36//35
f 36//36 30//32 34//36
f 37//33 31//25 41//33
f 41//34 31//26 37//34
f 38//1 27//1 37//1
f 37//2 27//2 38//2
f 38//39 33//29 32//29
f 32//30 33//30 38//40
f 31//2 33//2 42//2
f 42//1 33//1 31//1
f 35//1 34//1 43//1
f 43//2 34//2 35//2
f 39//37 35//27 44//37
f 44//38 35//28 39//38
f 40//2 29//2 39//2
f 39//1 29//1 40//1
f 40//41 34//35 36//35
f 36//36 34//36 40//42
f 31//2 42//2 41//2
f 41//1 42//1 31//1
f 41//33 45//43 37//33
f 37//34 45//44 41//34
f 38//1 37//1 46//1
f 46//2 37//2 38//2
f 33//29 38//39 42//39
f 42//40 38//40 33//30
f 34//35 40//41 43//41
f 43//42 40//42 34//36
f 35//1 43//1 44//1
f 44//2 43//2 35//2
f 44//37 47//45 39//37
f 39//38 47//46 44//38
f 40//2 39//2 48//2
f 48//1 39//1 40//1
f 41//2 42//2 49//2
f 49//1 42//1 41//1
f 45//43 41//33 50//43
f 50//44 41//34 45//44
f 46//1 37//1 45//1
f 45//2 37//2 46//2
f 46//47 42//39 38//39
f 38//40 42//40 46//48
f 48//49 43//41 40//41
f 40//42 43//42 48//50
f 44//1 43//1 51//1
f 51//2 43//2 44//2
f 47//45 44//37 52//45
f 52//46 44//38 47//46
f 50//2 39//2 47//2
f 47//1 39//1 50//1
f 48//2 39//2 53//2
f 53//1 39//1 48//1
f 42//39 46//47 49//47
f 49//48 46//48 42//40
f 41//2 49//2 50//2
f 50//1 49//1 41//1
f 50//43 54//51 45//43
f 45//44 54//52 50//44
f 46//1 45//1 55//1
f 55//2 45//2 46//2
f 43//41 48//49 51//49
f 51//50 48//50 43//42
f 44//1 51//1 55//1
f 55//2 51//2 44//2
f 44//1 45//1 52//1
f 52//2 45//2 44//2
f 52//45 56//53 47//45
f 47//46 56//54 52//46
f 50//2 53//2 39//2
f 39//1 53//1 50//1
f 50//2 47//2 57//2
f 57//1 47//1 50//1
f 53//55 51//49 48//49
f 48//50 51//50 53//56
f 55//55 49//47 46//47
f 46//48 49//48 55//56
f 50//2 49//2 53//2
f 53//1 49//1 50//1
f 54//51 50//43 57//51
f 57//52 50//44 54//52
f 52//1 45//1 54//1
f 54//2 45//2 52//2
f 55//1 45//1 44//1
f 44//2 45//2 55//2
f 51//49 53//55 55//55
f 55//56 53//56 51//50
f 56//53 52//45 58//53
f 58//54 52//46 56//54
f 57//2 47//2 56//2
f 56//1 47//1 57//1
f 49//47 55//55 53//55
f 53//56 55//56 49//48
f 57//51 59//57 54//51
f 54//52 59//58 57//52
f 52//1 54//1 58//1
f 58//2 54//2 52//2
f 60//59 56//53 58//53
f 58//54 56//54 60//60
f 57//2 56//2 61//2
f 61//1 56//1 57//1
f 59//57 57//51 61//57
f 61//58 57//52 59//58
f 58//1 54//1 59//1
f 59//2 54//2 58//2
f 56//53 60//59 62//59
f 62//60 60//60 56//54
f 58//1 59//1 60//1
f 60//2 59//2 58//2
f 61//2 56//2 62//2
f 62//1 56//1 61//1
f 63//61 59//57 61//57
f 61//58 59//58 63//62
f 64//63 62//59 60//59
f 60//60 62//60 64//64
f 60//1 59//1 65//1
f 65//2 59//2 60//2
f 61//2 62//2 63//2
f 63//1 62//1 61//1
f 59//57 63//61 65//61
f 65//62 63//62 59//58
f 62//59 64//63 66//63
f 66//64 64//64 62//60
f 60//1 65//1 64//1
f 64//2 65//2 60//2
f 63//2 62//2 66//2
f 66//1 62//1 63//1
f 67//65 65//61 63//61
f 63//62 65//62 67//66
f 68//67 66//63 64//63
f 64//64 66//64 68//68
f 64//1 65//1 69//1
f 69//2 65//2 64//2
f 63//2 66//2 67//2
f 67//1 66//1 63//1
f 65//61 67//65 69//65
f 69//66 67//66 65//62
f 66//63 68//67 70//67
f 70//68 68//68 66//64
f 64//1 69//1 68//1
f 68//2 69//2 64//2
f 67//2 66//2 70//2
f 70//1 66//1 67//1
f 71//69 69//65 67//65
f 67//66 69//66 71//70
f 72//71 70//67 68//67
f 68//68 70//68 72//72
f 68//1 69//1 73//1
f 73//2 69//2 68//2
f 67//2 70//2 71//2
f 71//1 70//1 67//1
f 69//65 71//69 73//69
f 73//70 71//70 69//66
f 70//67 72//71 74//71
f 74//72 72//72 70//68
f 68//1 73//1 72//1
f 72//2 73//2 68//2
f 71//2 70//2 74//2
f 74//1 70//1 71//1
f 75//73 73//69 71//69
f 71//70 73//70 75//74
f 76//73 74//71 72//71
f 72//72 74//72 76//74
f 72//1 73//1 76//1
f 76//2 73//2 72//2
f 71//2 74//2 75//2
f 75//1 74//1 71//1
f 73//69 75//73 76//73
f 76//74 75//74 73//70
f 74//71 76//73 75//73
f 75//74 76//74 74//72
