# SSTK version 0.8.0
# 111
mtllib original-111.mtl
o mesh281/mesh281-geometry#mesh281-geometry
v -0.692558 -0.161847 0.447151
v -0.692558 -0.165162 0.449228
v -0.692558 -0.164574 0.446963
v -0.692558 -0.159792 0.447451
v -0.693327 -0.165162 0.449228
v -0.693327 -0.161847 0.447151
v -0.693327 -0.159792 0.447451
v -0.692558 -0.158273 0.447879
v -0.693327 -0.164574 0.446963
v -0.692558 -0.163287 0.449367
v -0.693327 -0.158273 0.447879
v -0.692558 -0.157155 0.448453
v -0.693327 -0.163287 0.449367
v -0.692558 -0.156467 0.449224
v -0.692558 -0.162080 0.449597
v -0.693327 -0.156467 0.449224
v -0.692558 -0.156238 0.450244
v -0.693327 -0.157155 0.448453
v -0.693327 -0.162080 0.449597
v -0.693327 -0.156238 0.450244
v -0.693327 -0.161426 0.449911
v -0.692558 -0.161426 0.449911
v -0.692558 -0.161208 0.450305
v -0.692558 -0.156456 0.451305
v -0.693327 -0.161208 0.450305
v -0.693327 -0.156456 0.451305
v -0.692558 -0.161419 0.450686
v -0.693327 -0.161419 0.450686
v -0.692558 -0.157111 0.452100
v -0.692558 -0.162054 0.450996
v -0.693327 -0.157111 0.452100
v -0.692558 -0.173177 0.451504
v -0.693327 -0.162054 0.450996
v -0.692558 -0.162986 0.451202
v -0.693327 -0.173177 0.451504
v -0.692558 -0.158217 0.452693
v -0.692558 -0.164093 0.451271
v -0.692558 -0.170683 0.452474
v -0.693327 -0.162986 0.451202
v -0.693327 -0.164093 0.451271
v -0.693327 -0.170683 0.452474
v -0.693327 -0.158217 0.452693
v -0.692558 -0.165229 0.451201
v -0.693327 -0.165229 0.451201
v -0.693327 -0.159792 0.453144
v -0.692558 -0.168403 0.453089
v -0.692558 -0.166426 0.450993
v -0.693327 -0.166426 0.450993
v -0.692558 -0.175297 0.450590
v -0.693327 -0.168403 0.453089
v -0.692558 -0.159792 0.453144
v -0.693327 -0.175297 0.450590
v -0.693327 -0.161709 0.453429
v -0.693327 -0.166177 0.453415
v -0.692558 -0.166177 0.453415
v -0.692558 -0.167940 0.450536
v -0.693327 -0.167940 0.450536
v -0.692558 -0.176882 0.450049
v -0.692558 -0.161709 0.453429
v -0.693327 -0.176882 0.450049
v -0.693327 -0.163844 0.453524
v -0.692558 -0.163844 0.453524
v -0.692558 -0.170024 0.449722
v -0.693327 -0.170024 0.449722
v -0.692558 -0.176882 0.453580
v -0.692558 -0.173633 0.448354
v -0.693327 -0.173633 0.448354
v -0.693327 -0.176882 0.453580
v -0.692558 -0.182795 0.453580
v -0.692558 -0.175246 0.447864
v -0.693327 -0.175246 0.447864
v -0.693327 -0.182795 0.453580
v -0.692558 -0.176730 0.447504
v -0.692558 -0.182795 0.446796
v -0.693327 -0.176730 0.447504
v -0.692558 -0.179667 0.447031
v -0.693327 -0.182795 0.446796
v -0.692558 -0.181207 0.446884
v -0.693327 -0.179667 0.447031
v -0.693327 -0.181207 0.446884
vn 1 0 0
vn -1 0 0
vn 0 -0.9679367969531323 -0.25119386358768886
vn 0 0.9679367969531323 0.25119386358768886
vn 0 0.06903782387768476 -0.9976140430418139
vn 0 0.1055089038270899 -0.9944183582442583
vn 0 -0.1055089038270899 0.9944183582442583
vn 0 -0.06903782387768476 0.9976140430418139
vn 0 0.202831683017367 -0.9792136173299176
vn 0 -0.202831683017367 0.9792136173299176
vn 0 -0.12753304141268682 0.9918343225297408
vn 0 -0.07419527221553388 0.9972437322845719
vn 0 0.07419527221553388 -0.9972437322845719
vn 0 0.12753304141268682 -0.9918343225297408
vn 0 0.35297439610124703 -0.9356329813003387
vn 0 -0.35297439610124703 0.9356329813003387
vn 0 0.5844133201818668 -0.8114561424957032
vn 0 -0.5844133201818668 0.8114561424957032
vn 0 -0.2901867050866531 0.9569700497878457
vn 0 0.2901867050866531 -0.9569700497878457
vn 0 0.8751520425359666 -0.4838480158532487
vn 0 -0.8751520425359666 0.4838480158532487
vn 0 0.9999537689011767 -0.009615615442189798
vn 0 -0.9999537689011767 0.009615615442189798
vn 0 -0.6225391926184841 0.7825886235142482
vn 0 0.6225391926184841 -0.7825886235142482
vn 0 0.8910354978762529 0.45393363118898566
vn 0 -0.8910354978762529 -0.45393363118898566
vn 0 -0.9999999505644361 -0.0003144377925369227
vn 0 0.9999999505644361 0.0003144377925369227
vn 0 -0.6269783095317958 -0.7790367124703762
vn 0 0.6269783095317958 0.7790367124703762
vn 0 0.6052870352534623 0.7960072895106388
vn 0 -0.6052870352534623 -0.7960072895106388
vn 0 -0.31109348219074107 -0.9503793165565205
vn 0 0.31109348219074107 0.9503793165565205
vn 0 0.3614129564973547 0.9324058530896518
vn 0 -0.3614129564973547 -0.9324058530896518
vn 0 -0.13301899040253254 -0.9911134890577824
vn 0 0.13301899040253254 0.9911134890577824
vn 0 -0.30789827538501846 0.9514192829740898
vn 0 -0.3788811648677321 0.925445332209564
vn 0 0.30789827538501846 -0.9514192829740898
vn 0 0.3788811648677321 -0.925445332209564
vn 0 -0.0004675014491201286 -0.9999998907211916
vn 0 0.0004675014491201286 0.9999998907211916
vn 0 0.2061422824287811 0.9785220280581589
vn 0 -0.2061422824287811 -0.9785220280581589
vn 0 0.11343653492310087 -0.9935452443369855
vn 0 -0.11343653492310087 0.9935452443369855
vn 0 -0.19858013236153307 0.980084655033062
vn 0 0.19858013236153307 -0.980084655033062
vn 0 -0.35767348168349816 0.9338467114577234
vn 0 0.35767348168349816 -0.9338467114577234
vn 0 0.22551437670052402 -0.974239840029843
vn 0 -0.22551437670052402 0.974239840029843
vn 0 0.09382371767316042 0.9955888257719584
vn 0 -0.09382371767316042 -0.9955888257719584
vn 0 -0.09409562367187259 0.9955631640462603
vn 0 0.09409562367187259 -0.9955631640462603
vn 0 0.3245132010100022 -0.945881167150632
vn 0 -0.3245132010100022 0.945881167150632
vn 0 -0.323117979492213 0.9463586906289125
vn 0 0.323117979492213 -0.9463586906289125
vn 0 -0.0010606097766599394 0.9999994375532928
vn 0 0.0010606097766599394 -0.9999994375532928
vn 0 0.359196174723665 -0.9332620789809721
vn 0 -0.359196174723665 0.9332620789809721
vn 0 1 0
vn 0 -1 0
vn 0 0.321120508393935 -0.9470383408758172
vn 0 -0.321120508393935 0.9470383408758172
vn 0 0 1
vn 0 0 -1
vn 0 0.2622289154316609 -0.965005697346671
vn 0 -0.2622289154316609 0.965005697346671
vn 0 0.19553944934948617 -0.9806958365100262
vn 0 -0.19553944934948617 0.9806958365100262
vn 0 0.12606391154460722 -0.9920221218330131
vn 0 -0.12606391154460722 0.9920221218330131
vn 0 0.07499935316252733 -0.9971835824085766
vn 0 0.05530081386757024 -0.998469739143648
vn 0 -0.05530081386757024 0.998469739143648
vn 0 -0.07499935316252733 0.9971835824085766
usemtl material_0_0
f 1//1 2//1 3//1
f 2//1 1//1 4//1
f 3//2 2//2 1//2
f 4//2 1//2 2//2
f 5//3 3//3 2//3
f 2//4 3//4 5//4
f 3//5 6//6 1//6
f 1//7 6//7 3//8
f 1//6 7//9 4//9
f 4//10 7//10 1//7
f 2//1 4//1 8//1
f 8//2 4//2 2//2
f 3//3 5//3 9//3
f 9//4 5//4 3//4
f 10//11 5//12 2//12
f 2//13 5//13 10//14
f 6//6 3//5 9//5
f 9//8 3//8 6//7
f 7//9 1//6 6//6
f 6//7 1//7 7//10
f 11//15 4//9 7//9
f 7//10 4//10 11//16
f 4//9 11//15 8//15
f 8//16 11//16 4//10
f 2//1 8//1 12//1
f 12//2 8//2 2//2
f 5//2 6//2 9//2
f 9//1 6//1 5//1
f 5//12 10//11 13//11
f 13//14 10//14 5//13
f 2//1 14//1 10//1
f 10//2 14//2 2//2
f 6//2 5//2 7//2
f 7//1 5//1 6//1
f 7//2 5//2 11//2
f 11//1 5//1 7//1
f 11//15 12//17 8//15
f 8//16 12//18 11//16
f 2//1 12//1 14//1
f 14//2 12//2 2//2
f 15//19 13//11 10//11
f 10//14 13//14 15//20
f 16//2 5//2 13//2
f 13//1 5//1 16//1
f 10//1 14//1 17//1
f 17//2 14//2 10//2
f 11//2 5//2 18//2
f 18//1 5//1 11//1
f 12//17 11//15 18//17
f 18//18 11//16 12//18
f 18//17 14//21 12//17
f 12//18 14//22 18//18
f 13//11 15//19 19//19
f 19//20 15//20 13//14
f 10//1 17//1 15//1
f 15//2 17//2 10//2
f 18//2 5//2 16//2
f 16//1 5//1 18//1
f 16//2 13//2 20//2
f 20//1 13//1 16//1
f 16//21 17//23 14//21
f 14//22 17//24 16//22
f 14//21 18//17 16//21
f 16//22 18//18 14//22
f 15//19 21//25 19//19
f 19//20 21//26 15//20
f 20//2 13//2 19//2
f 19//1 13//1 20//1
f 15//1 17//1 22//1
f 22//2 17//2 15//2
f 17//23 16//21 20//23
f 20//24 16//22 17//24
f 21//25 15//19 22//25
f 22//26 15//20 21//26
f 20//2 19//2 21//2
f 21//1 19//1 20//1
f 22//1 17//1 23//1
f 23//2 17//2 22//2
f 20//23 24//27 17//23
f 17//24 24//28 20//24
f 22//25 25//29 21//25
f 21//26 25//30 22//26
f 20//2 21//2 25//2
f 25//1 21//1 20//1
f 23//1 17//1 24//1
f 24//2 17//2 23//2
f 25//29 22//25 23//29
f 23//30 22//26 25//30
f 24//27 20//23 26//27
f 26//28 20//24 24//28
f 20//2 25//2 26//2
f 26//1 25//1 20//1
f 23//1 24//1 27//1
f 27//2 24//2 23//2
f 23//29 28//31 25//29
f 25//30 28//32 23//30
f 26//27 29//33 24//27
f 24//28 29//34 26//28
f 26//2 25//2 28//2
f 28//1 25//1 26//1
f 27//1 24//1 30//1
f 30//2 24//2 27//2
f 28//31 23//29 27//31
f 27//32 23//30 28//32
f 29//33 26//27 31//33
f 31//34 26//28 29//34
f 32//1 24//1 29//1
f 29//2 24//2 32//2
f 26//2 28//2 33//2
f 33//1 28//1 26//1
f 30//1 24//1 34//1
f 34//2 24//2 30//2
f 33//35 27//31 30//35
f 30//36 27//32 33//36
f 27//31 33//35 28//31
f 28//32 33//36 27//32
f 26//2 35//2 31//2
f 31//1 35//1 26//1
f 31//33 36//37 29//33
f 29//34 36//38 31//34
f 32//1 37//1 24//1
f 24//2 37//2 32//2
f 32//1 29//1 38//1
f 38//2 29//2 32//2
f 26//2 33//2 39//2
f 39//1 33//1 26//1
f 34//1 24//1 37//1
f 37//2 24//2 34//2
f 34//39 33//35 30//35
f 30//36 33//36 34//40
f 40//2 35//2 26//2
f 26//1 35//1 40//1
f 31//2 35//2 41//2
f 41//1 35//1 31//1
f 36//37 31//33 42//37
f 42//38 31//34 36//38
f 38//1 29//1 36//1
f 36//2 29//2 38//2
f 32//1 43//1 37//1
f 37//2 43//2 32//2
f 41//41 32//42 38//41
f 38//43 32//44 41//43
f 33//35 34//39 39//39
f 39//40 34//40 33//36
f 26//2 39//2 40//2
f 40//1 39//1 26//1
f 37//45 39//39 34//39
f 34//40 39//40 37//46
f 44//2 35//2 40//2
f 40//1 35//1 44//1
f 32//42 41//41 35//42
f 35//44 41//43 32//44
f 31//2 41//2 42//2
f 42//1 41//1 31//1
f 45//47 36//37 42//37
f 42//38 36//38 45//48
f 38//1 36//1 46//1
f 46//2 36//2 38//2
f 32//1 47//1 43//1
f 43//2 47//2 32//2
f 43//49 40//45 37//45
f 37//46 40//46 43//50
f 46//51 41//41 38//41
f 38//43 41//43 46//52
f 39//39 37//45 40//45
f 40//46 37//46 39//40
f 48//2 35//2 44//2
f 44//1 35//1 48//1
f 40//45 43//49 44//49
f 44//50 43//50 40//46
f 35//42 49//53 32//42
f 32//44 49//54 35//44
f 42//2 41//2 50//2
f 50//1 41//1 42//1
f 36//37 45//47 51//47
f 51//48 45//48 36//38
f 42//2 50//2 45//2
f 45//1 50//1 42//1
f 46//1 36//1 51//1
f 51//2 36//2 46//2
f 49//1 47//1 32//1
f 32//2 47//2 49//2
f 47//55 44//49 43//49
f 43//50 44//50 47//56
f 41//41 46//51 50//51
f 50//52 46//52 41//43
f 48//2 52//2 35//2
f 35//1 52//1 48//1
f 44//49 47//55 48//55
f 48//56 47//56 44//50
f 49//53 35//42 52//53
f 52//54 35//44 49//54
f 53//57 51//47 45//47
f 45//48 51//48 53//58
f 45//2 50//2 54//2
f 54//1 50//1 45//1
f 46//1 51//1 55//1
f 55//2 51//2 46//2
f 49//1 56//1 47//1
f 47//2 56//2 49//2
f 55//59 50//51 46//51
f 46//52 50//52 55//60
f 57//2 52//2 48//2
f 48//1 52//1 57//1
f 56//61 48//55 47//55
f 47//56 48//56 56//62
f 52//53 58//63 49//53
f 49//54 58//64 52//54
f 51//47 53//57 59//57
f 59//58 53//58 51//48
f 45//2 54//2 53//2
f 53//1 54//1 45//1
f 50//51 55//59 54//59
f 54//60 55//60 50//52
f 55//1 51//1 59//1
f 59//2 51//2 55//2
f 58//1 56//1 49//1
f 49//2 56//2 58//2
f 57//2 60//2 52//2
f 52//1 60//1 57//1
f 48//55 56//61 57//61
f 57//62 56//62 48//56
f 58//63 52//53 60//63
f 60//64 52//54 58//64
f 61//65 59//57 53//57
f 53//58 59//58 61//66
f 53//2 54//2 61//2
f 61//1 54//1 53//1
f 62//65 54//59 55//59
f 55//60 54//60 62//66
f 55//1 59//1 62//1
f 62//2 59//2 55//2
f 56//1 58//1 63//1
f 63//2 58//2 56//2
f 60//2 57//2 64//2
f 64//1 57//1 60//1
f 56//61 64//67 57//61
f 57//62 64//68 56//62
f 60//69 65//69 58//69
f 58//70 65//70 60//70
f 59//57 61//65 62//65
f 62//66 61//66 59//58
f 54//59 62//65 61//65
f 61//66 62//66 54//60
f 58//1 66//1 63//1
f 63//2 66//2 58//2
f 64//67 56//61 63//67
f 63//68 56//62 64//68
f 67//2 60//2 64//2
f 64//1 60//1 67//1
f 65//69 60//69 68//69
f 68//70 60//70 65//70
f 69//1 58//1 65//1
f 65//2 58//2 69//2
f 58//1 70//1 66//1
f 66//2 70//2 58//2
f 67//71 63//67 66//71
f 66//72 63//68 67//72
f 63//67 67//71 64//67
f 64//68 67//72 63//68
f 71//2 60//2 67//2
f 67//1 60//1 71//1
f 60//2 72//2 68//2
f 68//1 72//1 60//1
f 72//73 65//73 68//73
f 68//74 65//74 72//74
f 69//1 70//1 58//1
f 58//2 70//2 69//2
f 65//73 72//73 69//73
f 69//74 72//74 65//74
f 70//75 67//71 66//71
f 66//72 67//72 70//76
f 71//2 72//2 60//2
f 60//1 72//1 71//1
f 67//71 70//75 71//75
f 71//76 70//76 67//72
f 69//1 73//1 70//1
f 70//2 73//2 69//2
f 72//70 74//70 69//70
f 69//69 74//69 72//69
f 75//2 72//2 71//2
f 71//1 72//1 75//1
f 73//77 71//75 70//75
f 70//76 71//76 73//78
f 69//1 76//1 73//1
f 73//2 76//2 69//2
f 74//70 72//70 77//70
f 77//69 72//69 74//69
f 78//1 69//1 74//1
f 74//2 69//2 78//2
f 79//2 72//2 75//2
f 75//1 72//1 79//1
f 71//75 73//77 75//77
f 75//78 73//78 71//76
f 69//1 78//1 76//1
f 76//2 78//2 69//2
f 76//79 75//77 73//77
f 73//78 75//78 76//80
f 72//2 80//2 77//2
f 77//1 80//1 72//1
f 80//81 74//82 77//82
f 77//83 74//83 80//84
f 74//82 80//81 78//81
f 78//84 80//84 74//83
f 80//2 72//2 79//2
f 79//1 72//1 80//1
f 75//77 76//79 79//79
f 79//80 76//80 75//78
f 78//81 79//79 76//79
f 76//80 79//80 78//84
f 79//79 78//81 80//81
f 80//84 78//84 79//80
