# SSTK version 0.8.0
# 91
mtllib original-91.mtl
o mesh247/mesh247-geometry#mesh247-geometry
v 0.232325 -0.111260 0.581272
v 0.238217 -0.111260 0.576447
v 0.232325 -0.111260 0.494896
v 0.331752 -0.111260 0.581272
v 0.238217 -0.111260 0.501059
v 0.325356 -0.111260 0.576447
v 0.331752 -0.111260 0.494896
v 0.238217 -0.111260 0.561606
v 0.325356 -0.111260 0.561606
v 0.325356 -0.111260 0.501059
v 0.238217 -0.111260 0.559059
v 0.325356 -0.111260 0.559059
v 0.273690 -0.111260 0.507288
v 0.238217 -0.111260 0.524237
v 0.325356 -0.111260 0.555432
v 0.265741 -0.111260 0.508814
v 0.281786 -0.111260 0.506776
v 0.325356 -0.111260 0.524237
v 0.290349 -0.111260 0.557138
v 0.244195 -0.111260 0.519108
v 0.325356 -0.111260 0.544913
v 0.310607 -0.111260 0.547811
v 0.258083 -0.111260 0.511326
v 0.266396 -0.111260 0.512661
v 0.274050 -0.111260 0.511541
v 0.289883 -0.111260 0.507288
v 0.325356 -0.111260 0.534793
v 0.319378 -0.111260 0.519108
v 0.244742 -0.111260 0.520334
v 0.250858 -0.111260 0.514778
v 0.325356 -0.111260 0.541704
v 0.323854 -0.111260 0.542530
v 0.310607 -0.111260 0.543835
v 0.258907 -0.111260 0.514514
v 0.281786 -0.111260 0.511166
v 0.289523 -0.111260 0.511541
v 0.297832 -0.111260 0.508814
v 0.318831 -0.111260 0.520334
v 0.312715 -0.111260 0.514778
v 0.251663 -0.111260 0.517081
v 0.323474 -0.111260 0.550047
v 0.297740 -0.111260 0.550047
v 0.297177 -0.111260 0.512661
v 0.305490 -0.111260 0.511326
v 0.316606 -0.111260 0.530511
v 0.323474 -0.111260 0.538021
v 0.298117 -0.111260 0.542530
v 0.302990 -0.111260 0.540546
v 0.318085 -0.111260 0.540546
v 0.291315 -0.111260 0.535630
v 0.304666 -0.111260 0.514514
v 0.311910 -0.111260 0.517081
v 0.290515 -0.111260 0.538999
v 0.306317 -0.111260 0.534012
v 0.310607 -0.111260 0.525996
v 0.305028 -0.111260 0.530050
v 0.310996 -0.111260 0.519710
v 0.314897 -0.111260 0.534012
v 0.297760 -0.111260 0.538021
v 0.290666 -0.111260 0.538758
v 0.290945 -0.111260 0.538252
v 0.291315 -0.111260 0.536290
v 0.291135 -0.111260 0.537650
v 0.291239 -0.111260 0.537223
vn 0 1 0
vn 0 -1 0
usemtl material_0_0
f 1//1 2//1 3//1
f 2//1 1//1 4//1
f 5//1 3//1 2//1
f 2//1 4//1 6//1
f 3//1 5//1 7//1
f 5//1 2//1 8//1
f 6//1 4//1 9//1
f 7//1 5//1 10//1
f 5//1 8//1 11//1
f 9//1 4//1 12//1
f 7//1 10//1 4//1
f 9//1 11//1 8//1
f 5//1 11//1 14//1
f 12//1 4//1 15//1
f 11//1 9//1 12//1
f 18//1 4//1 10//1
f 15//1 4//1 21//1
f 16//1 24//1 13//1
f 13//1 25//1 17//1
f 27//1 4//1 18//1
f 29//1 20//1 14//1
f 21//1 4//1 31//1
f 32//1 15//1 21//1
f 33//1 22//1 15//1
f 23//1 34//1 16//1
f 16//1 34//1 24//1
f 13//1 24//1 25//1
f 17//1 25//1 35//1
f 17//1 36//1 26//1
f 31//1 4//1 27//1
f 28//1 38//1 18//1
f 20//1 29//1 30//1
f 41//1 15//1 32//1
f 22//1 42//1 19//1
f 42//1 22//1 33//1
f 33//1 15//1 41//1
f 30//1 40//1 23//1
f 23//1 40//1 34//1
f 17//1 35//1 36//1
f 26//1 36//1 43//1
f 26//1 43//1 37//1
f 27//1 32//1 31//1
f 39//1 38//1 28//1
f 30//1 29//1 40//1
f 41//1 32//1 46//1
f 42//1 47//1 19//1
f 37//1 43//1 51//1
f 37//1 51//1 44//1
f 27//1 46//1 32//1
f 45//1 46//1 27//1
f 44//1 52//1 39//1
f 39//1 52//1 38//1
f 46//1 49//1 41//1
f 47//1 42//1 48//1
f 44//1 51//1 52//1
f 45//1 58//1 46//1
f 59//1 47//1 48//1
f 47//1 60//1 53//1
f 59//1 56//1 50//1
f 57//1 58//1 45//1
f 50//1 47//1 59//1
f 60//1 47//1 61//1
f 57//1 54//1 55//1
f 56//1 59//1 54//1
f 57//1 55//1 58//1
f 56//1 54//1 57//1
f 62//1 47//1 50//1
f 61//1 47//1 63//1
f 64//1 47//1 62//1
f 63//1 47//1 64//1
usemtl material_1_0
f 3//2 2//2 1//2
f 4//2 1//2 2//2
f 2//2 3//2 5//2
f 6//2 4//2 2//2
f 7//2 5//2 3//2
f 8//2 2//2 5//2
f 9//2 4//2 6//2
f 2//2 8//2 6//2
f 10//2 5//2 7//2
f 11//2 8//2 5//2
f 12//2 4//2 9//2
f 9//2 6//2 8//2
f 10//2 13//2 5//2
f 4//2 10//2 7//2
f 8//2 11//2 9//2
f 14//2 11//2 5//2
f 15//2 4//2 12//2
f 12//2 9//2 11//2
f 13//2 16//2 5//2
f 17//2 13//2 10//2
f 10//2 4//2 18//2
f 14//2 19//2 11//2
f 14//2 5//2 20//2
f 21//2 4//2 15//2
f 15//2 12//2 22//2
f 12//2 11//2 19//2
f 16//2 23//2 5//2
f 13//2 24//2 16//2
f 17//2 25//2 13//2
f 26//2 17//2 10//2
f 18//2 4//2 27//2
f 18//2 28//2 10//2
f 29//2 19//2 14//2
f 30//2 20//2 5//2
f 14//2 20//2 29//2
f 31//2 4//2 21//2
f 21//2 15//2 32//2
f 22//2 12//2 19//2
f 15//2 22//2 33//2
f 23//2 30//2 5//2
f 16//2 34//2 23//2
f 24//2 34//2 16//2
f 25//2 24//2 13//2
f 35//2 25//2 17//2
f 26//2 36//2 17//2
f 37//2 26//2 10//2
f 27//2 4//2 31//2
f 18//2 27//2 38//2
f 28//2 39//2 10//2
f 18//2 38//2 28//2
f 40//2 19//2 29//2
f 30//2 29//2 20//2
f 21//2 32//2 31//2
f 32//2 15//2 41//2
f 19//2 42//2 22//2
f 33//2 22//2 42//2
f 41//2 15//2 33//2
f 23//2 40//2 30//2
f 34//2 40//2 23//2
f 24//2 19//2 34//2
f 25//2 19//2 24//2
f 35//2 19//2 25//2
f 36//2 35//2 17//2
f 43//2 36//2 26//2
f 37//2 43//2 26//2
f 44//2 37//2 10//2
f 31//2 32//2 27//2
f 27//2 45//2 38//2
f 39//2 44//2 10//2
f 28//2 38//2 39//2
f 34//2 19//2 40//2
f 40//2 29//2 30//2
f 46//2 32//2 41//2
f 19//2 47//2 42//2
f 42//2 48//2 33//2
f 41//2 33//2 49//2
f 36//2 19//2 35//2
f 43//2 50//2 36//2
f 51//2 43//2 37//2
f 44//2 51//2 37//2
f 32//2 46//2 27//2
f 38//2 45//2 52//2
f 27//2 46//2 45//2
f 39//2 52//2 44//2
f 38//2 52//2 39//2
f 41//2 49//2 46//2
f 48//2 42//2 47//2
f 19//2 53//2 47//2
f 54//2 33//2 48//2
f 49//2 33//2 55//2
f 19//2 36//2 53//2
f 53//2 36//2 50//2
f 56//2 50//2 43//2
f 51//2 56//2 43//2
f 52//2 51//2 44//2
f 45//2 57//2 52//2
f 46//2 58//2 45//2
f 49//2 58//2 46//2
f 48//2 47//2 59//2
f 53//2 60//2 47//2
f 55//2 33//2 54//2
f 48//2 59//2 54//2
f 58//2 49//2 55//2
f 60//2 53//2 50//2
f 50//2 56//2 59//2
f 52//2 56//2 51//2
f 57//2 56//2 52//2
f 45//2 58//2 57//2
f 59//2 47//2 50//2
f 61//2 47//2 60//2
f 55//2 54//2 57//2
f 54//2 59//2 56//2
f 58//2 55//2 57//2
f 61//2 60//2 50//2
f 57//2 54//2 56//2
f 50//2 47//2 62//2
f 63//2 47//2 61//2
f 63//2 61//2 50//2
f 62//2 47//2 64//2
f 62//2 64//2 50//2
f 64//2 47//2 63//2
f 64//2 63//2 50//2
usemtl material_2_0
f 6//1 8//1 2//1
f 8//1 6//1 9//1
f 5//1 13//1 10//1
f 5//1 16//1 13//1
f 10//1 13//1 17//1
f 11//1 19//1 14//1
f 20//1 5//1 14//1
f 22//1 12//1 15//1
f 19//1 11//1 12//1
f 5//1 23//1 16//1
f 10//1 17//1 26//1
f 10//1 28//1 18//1
f 14//1 19//1 29//1
f 5//1 20//1 30//1
f 19//1 12//1 22//1
f 5//1 30//1 23//1
f 10//1 26//1 37//1
f 38//1 27//1 18//1
f 10//1 39//1 28//1
f 29//1 19//1 40//1
f 34//1 19//1 24//1
f 24//1 19//1 25//1
f 25//1 19//1 35//1
f 10//1 37//1 44//1
f 38//1 45//1 27//1
f 10//1 44//1 39//1
f 40//1 19//1 34//1
f 33//1 48//1 42//1
f 49//1 33//1 41//1
f 35//1 19//1 36//1
f 36//1 50//1 43//1
f 52//1 45//1 38//1
f 47//1 53//1 19//1
f 48//1 33//1 54//1
f 55//1 33//1 49//1
f 53//1 36//1 19//1
f 50//1 36//1 53//1
f 43//1 50//1 56//1
f 43//1 56//1 51//1
f 52//1 57//1 45//1
f 46//1 58//1 49//1
f 54//1 33//1 55//1
f 54//1 59//1 48//1
f 55//1 49//1 58//1
f 50//1 53//1 60//1
f 51//1 56//1 52//1
f 52//1 56//1 57//1
f 50//1 60//1 61//1
f 50//1 61//1 63//1
f 50//1 64//1 62//1
f 50//1 63//1 64//1
usemtl material_3_0
f 31//1 32//1 21//1
