# SSTK version 0.8.0
# 37
mtllib original-37.mtl
o mesh107/mesh107-geometry#mesh107-geometry
v -0.152988 -0.116562 0.509821
v -0.152988 -0.111260 0.729967
v -0.152988 -0.116562 0.729967
v -0.152988 -0.111260 0.509821
v 0.185899 -0.116562 0.729967
v 0.185899 -0.111260 0.509821
v 0.185899 -0.111260 0.729967
v 0.185899 -0.116562 0.509821
v 0.185899 -0.112668 0.665326
v 0.185899 -0.116562 0.538202
v 0.185899 -0.116562 0.665326
v 0.185899 -0.112668 0.538202
v 0.185899 -0.112668 0.660617
v 0.185899 -0.112668 0.542910
v 0.185899 -0.112668 0.646492
v 0.185899 -0.112668 0.557035
v 0.185899 -0.112668 0.641784
v 0.185899 -0.116562 0.660617
v 0.185899 -0.112668 0.561743
v 0.185899 -0.116562 0.557035
v 0.185899 -0.112668 0.604118
v 0.185899 -0.116562 0.646492
v 0.185899 -0.112668 0.575868
v 0.185899 -0.116562 0.542910
v 0.185899 -0.112668 0.599410
v 0.185899 -0.116562 0.641784
v 0.185899 -0.112668 0.580576
v 0.185899 -0.116562 0.575868
v 0.185899 -0.116562 0.604118
v 0.185899 -0.116562 0.561743
v 0.185899 -0.116562 0.599410
v 0.185899 -0.116562 0.580576
vn 0.6828046583769298 0 0.7306009844633145
vn 0.6828046583769292 0 -0.7306009844633147
vn -0.6828046583769292 0 0.7306009844633147
vn -0.6828046583769298 0 -0.7306009844633145
vn -1 0 0
vn 1 0 0
usemtl material_0_0
f 1//1 2//2 3//2
f 2//2 1//1 4//1
f 3//3 2//3 1//4
f 4//4 1//4 2//3
f 2//2 5//4 3//2
f 3//3 5//1 2//3
f 1//1 6//3 4//1
f 4//4 6//2 1//4
f 5//4 2//2 7//4
f 7//1 2//3 5//1
f 6//3 1//1 8//3
f 8//2 1//4 6//2
f 7//4 9//5 5//4
f 5//1 9//6 7//1
f 10//5 6//3 8//3
f 8//2 6//2 10//6
f 9//5 7//4 6//3
f 6//2 7//1 9//6
f 11//5 5//4 9//5
f 9//6 5//1 11//6
f 12//5 6//3 10//5
f 10//6 6//2 12//6
f 9//5 6//3 13//5
f 13//6 6//2 9//6
f 14//5 6//3 12//5
f 12//6 6//2 14//6
f 13//5 6//3 15//5
f 15//6 6//2 13//6
f 16//5 6//3 14//5
f 14//6 6//2 16//6
f 15//5 6//3 17//5
f 17//6 6//2 15//6
f 13//5 15//5 18//5
f 18//6 15//6 13//6
f 19//5 6//3 16//5
f 16//6 6//2 19//6
f 16//5 14//5 20//5
f 20//6 14//6 16//6
f 17//5 6//3 21//5
f 21//6 6//2 17//6
f 22//5 18//5 15//5
f 15//6 18//6 22//6
f 23//5 6//3 19//5
f 19//6 6//2 23//6
f 24//5 20//5 14//5
f 14//6 20//6 24//6
f 21//5 6//3 25//5
f 25//6 6//2 21//6
f 17//5 21//5 26//5
f 26//6 21//6 17//6
f 27//5 6//3 23//5
f 23//6 6//2 27//6
f 23//5 19//5 28//5
f 28//6 19//6 23//6
f 25//5 6//3 27//5
f 27//6 6//2 25//6
f 29//5 26//5 21//5
f 21//6 26//6 29//6
f 30//5 28//5 19//5
f 19//6 28//6 30//6
f 25//5 27//5 31//5
f 31//6 27//6 25//6
f 32//5 31//5 27//5
f 27//6 31//6 32//6
