# SSTK version 0.8.0
# 3
mtllib original-3.mtl
o mesh2/mesh2-geometry#mesh2-geometry
v 0.710161 -0.165057 0.472868
v 0.710161 -0.186237 0.467737
v 0.710161 -0.165057 0.483401
v 0.710161 -0.177935 0.463890
v 0.714757 -0.165057 0.483401
v 0.714757 -0.177935 0.463890
v 0.710161 -0.186237 0.460206
v 0.714757 -0.186237 0.467737
v 0.714757 -0.165057 0.472868
v 0.714757 -0.165057 0.454830
v 0.710161 -0.165057 0.454830
v 0.714757 -0.186237 0.460206
v 0.710161 -0.165057 0.444323
v 0.714757 -0.165057 0.444323
vn -1 0 0
vn 1 0 0
vn 0 -0.5946123622046694 0.8040125239779434
vn 0 0.5946123622046694 -0.8040125239779434
vn 0 1 0
vn 0 -1 0
vn 0 0.5718774269392659 -0.8203390814518863
vn 0 -0.5718774269392659 0.8203390814518863
vn 0 0.5753715241738411 0.8178921745376168
vn 0 -0.5753715241738411 -0.8178921745376168
vn 0 -0.599930834975522 -0.8000518690969811
vn 0 0.599930834975522 0.8000518690969811
usemtl material_0_0
f 1//1 2//1 3//1
f 2//1 1//1 4//1
f 3//2 2//2 1//2
f 4//2 1//2 2//2
f 2//3 5//3 3//3
f 3//4 5//4 2//4
f 5//5 1//5 3//5
f 3//6 1//6 5//6
f 1//7 6//7 4//7
f 4//8 6//8 1//8
f 2//1 4//1 7//1
f 7//2 4//2 2//2
f 5//3 2//3 8//3
f 8//4 2//4 5//4
f 1//5 5//5 9//5
f 9//6 5//6 1//6
f 6//7 1//7 9//7
f 9//8 1//8 6//8
f 10//9 4//9 6//9
f 6//10 4//10 10//10
f 7//1 4//1 11//1
f 11//2 4//2 7//2
f 12//6 2//6 7//6
f 7//5 2//5 12//5
f 2//6 12//6 8//6
f 8//5 12//5 2//5
f 8//2 9//2 5//2
f 5//1 9//1 8//1
f 9//2 8//2 6//2
f 6//1 8//1 9//1
f 4//9 10//9 11//9
f 11//10 10//10 4//10
f 6//2 12//2 10//2
f 10//1 12//1 6//1
f 7//1 11//1 13//1
f 13//2 11//2 7//2
f 13//11 12//11 7//11
f 7//12 12//12 13//12
f 6//2 8//2 12//2
f 12//1 8//1 6//1
f 10//5 13//5 11//5
f 11//6 13//6 10//6
f 10//2 12//2 14//2
f 14//1 12//1 10//1
f 12//11 13//11 14//11
f 14//12 13//12 12//12
f 13//5 10//5 14//5
f 14//6 10//6 13//6
