# SSTK version 0.8.0
# 20
mtllib original-20.mtl
o Ethernet1/Ethernet/mesh62/mesh62-geometry#mesh62-geometry
v -0.673077 -0.184310 -0.103521
v -0.673077 -0.135876 -0.107408
v -0.673077 -0.184310 -0.107408
v -0.673077 -0.135876 -0.103521
v -0.662761 -0.135876 -0.107408
v -0.676110 -0.184310 -0.126845
v -0.662761 -0.135876 -0.103521
v -0.673077 -0.135876 -0.087972
v -0.662761 -0.184310 -0.107408
v -0.673077 -0.135876 -0.111296
v -0.673077 -0.184310 -0.111296
v -0.673077 -0.184310 -0.099634
v -0.662761 -0.184310 -0.103521
v -0.673077 -0.135876 -0.099634
v -0.673077 -0.135876 -0.091859
v -0.673077 -0.135876 -0.084085
v -0.662761 -0.135876 -0.111296
v -0.673077 -0.184310 -0.115183
v -0.673077 -0.184310 -0.091859
v -0.662761 -0.184310 -0.099634
v -0.662761 -0.135876 -0.099634
v -0.662761 -0.135876 -0.091859
v -0.673077 -0.184310 -0.084085
v -0.662761 -0.184310 -0.111296
v -0.673077 -0.135876 -0.080197
v -0.673077 -0.184310 -0.119070
v -0.673077 -0.138221 -0.115183
v -0.673077 -0.184310 -0.087972
v -0.662761 -0.135876 -0.087972
v -0.662761 -0.135876 -0.084085
v -0.676110 -0.135876 -0.111296
v -0.673077 -0.184310 -0.122957
v -0.662761 -0.184310 -0.115183
v -0.673077 -0.184310 -0.076310
v -0.662761 -0.184310 -0.087972
v -0.662761 -0.184310 -0.091859
v -0.662761 -0.184310 -0.084085
v -0.676110 -0.145258 -0.126845
v -0.662761 -0.135876 -0.080197
v -0.676110 -0.135876 -0.080197
v -0.662761 -0.184310 -0.122957
v -0.673077 -0.142912 -0.122957
v -0.662761 -0.184310 -0.119070
v -0.662761 -0.138221 -0.115183
v -0.676110 -0.184310 -0.064648
v -0.673077 -0.184310 -0.080197
v -0.662761 -0.184310 -0.080197
v -0.673077 -0.140567 -0.119070
v -0.673077 -0.138221 -0.076310
v -0.676110 -0.133443 -0.078788
v -0.676110 -0.133443 -0.112609
v -0.662761 -0.184310 -0.126845
v -0.662761 -0.140567 -0.119070
v -0.676110 -0.188265 -0.062158
v -0.673077 -0.184310 -0.072423
v -0.673077 -0.140567 -0.072423
v -0.676110 -0.145258 -0.064648
v -0.676110 -0.143328 -0.129663
v -0.662761 -0.145258 -0.126845
v -0.662761 -0.142912 -0.122957
v -0.676110 -0.188265 -0.129663
v -0.673077 -0.184310 -0.068535
v -0.662761 -0.184310 -0.076310
v -0.662761 -0.138221 -0.076310
v -0.673077 -0.142912 -0.068535
v -0.673077 -0.133443 -0.078788
v -0.676110 -0.143328 -0.062158
v -0.673077 -0.133443 -0.112609
v -0.673077 -0.188265 -0.062158
v -0.662761 -0.184310 -0.064648
v -0.662761 -0.184310 -0.072423
v -0.662761 -0.140567 -0.072423
v -0.673077 -0.143328 -0.062158
v -0.662761 -0.142912 -0.068535
v -0.673077 -0.143328 -0.129663
v -0.673077 -0.188265 -0.129663
v -0.662761 -0.145258 -0.064648
v -0.662761 -0.184310 -0.068535
vn -1 0 0
vn 1 0 0
vn 0 0 -1
vn 0 0 1
vn 0 1 0
vn 0 -1 0
vn 0 -0.8562264568400761 0.5166006722867182
vn 0 0.8562264568400761 -0.5166006722867182
vn 0 -0.8562264568400759 -0.5166006722867187
vn 0 0.8562264568400759 0.5166006722867187
vn 0 0.8651628963318623 -0.5014909399088515
vn 0 -0.8651628963318623 0.5014909399088515
vn 0 0.8596203976222347 0.5109332363350335
vn 0 -0.8596203976222347 -0.5109332363350335
usemtl material_0_0
f 1//1 2//1 3//1
f 2//1 1//1 4//1
f 3//2 2//2 1//2
f 4//2 1//2 2//2
f 5//3 3//3 2//3
f 2//4 3//4 5//4
f 3//5 6//5 1//5
f 1//6 6//6 3//6
f 1//4 7//4 4//4
f 4//3 7//3 1//3
f 4//6 8//6 2//6
f 2//5 8//5 4//5
f 3//3 5//3 9//3
f 9//4 5//4 3//4
f 10//6 5//6 2//6
f 2//5 5//5 10//5
f 11//5 6//5 3//5
f 3//6 6//6 11//6
f 1//5 6//5 12//5
f 12//6 6//6 1//6
f 7//4 1//4 13//4
f 13//3 1//3 7//3
f 7//6 14//6 4//6
f 4//5 14//5 7//5
f 15//6 8//6 4//6
f 4//5 8//5 15//5
f 2//6 8//6 16//6
f 16//5 8//5 2//5
f 5//2 9//2 17//2
f 9//5 11//5 3//5
f 3//6 11//6 9//6
f 5//6 10//6 17//6
f 17//5 10//5 5//5
f 10//6 2//6 16//6
f 16//5 2//5 10//5
f 18//5 6//5 11//5
f 11//6 6//6 18//6
f 12//5 6//5 19//5
f 19//6 6//6 12//6
f 20//5 1//5 12//5
f 12//6 1//6 20//6
f 1//5 20//5 13//5
f 13//6 20//6 1//6
f 13//2 7//2 20//2
f 14//6 7//6 21//6
f 21//5 7//5 14//5
f 4//6 14//6 15//6
f 15//5 14//5 4//5
f 22//6 8//6 15//6
f 15//5 8//5 22//5
f 8//1 23//1 16//1
f 16//2 23//2 8//2
f 24//2 17//2 9//2
f 11//5 9//5 24//5
f 24//6 9//6 11//6
f 11//4 17//4 10//4
f 10//3 17//3 11//3
f 16//6 25//6 10//6
f 10//5 25//5 16//5
f 26//5 6//5 18//5
f 18//6 6//6 26//6
f 11//1 27//1 18//1
f 18//2 27//2 11//2
f 19//5 6//5 28//5
f 28//6 6//6 19//6
f 19//1 14//1 12//1
f 12//2 14//2 19//2
f 12//3 21//3 20//3
f 20//4 21//4 12//4
f 21//2 20//2 7//2
f 21//3 12//3 14//3
f 14//4 12//4 21//4
f 14//1 19//1 15//1
f 15//2 19//2 14//2
f 8//6 22//6 29//6
f 29//5 22//5 8//5
f 19//4 22//4 15//4
f 15//3 22//3 19//3
f 23//1 8//1 28//1
f 28//2 8//2 23//2
f 23//4 30//4 16//4
f 16//3 30//3 23//3
f 17//4 11//4 24//4
f 24//3 11//3 17//3
f 27//1 11//1 10//1
f 10//2 11//2 27//2
f 30//6 25//6 16//6
f 16//5 25//5 30//5
f 10//6 25//6 31//6
f 31//5 25//5 10//5
f 32//5 6//5 26//5
f 26//6 6//6 32//6
f 33//5 26//5 18//5
f 18//6 26//6 33//6
f 27//3 33//3 18//3
f 18//4 33//4 27//4
f 28//5 6//5 34//5
f 34//6 6//6 28//6
f 35//5 19//5 28//5
f 28//6 19//6 35//6
f 29//2 35//2 22//2
f 29//3 28//3 8//3
f 8//4 28//4 29//4
f 22//4 19//4 36//4
f 36//3 19//3 22//3
f 34//5 23//5 28//5
f 28//6 23//6 34//6
f 30//4 23//4 37//4
f 37//3 23//3 30//3
f 38//7 27//7 10//7
f 10//8 27//8 38//8
f 25//6 30//6 39//6
f 39//5 30//5 25//5
f 31//6 25//6 40//6
f 40//5 25//5 31//5
f 38//7 10//7 31//7
f 31//8 10//8 38//8
f 41//5 6//5 32//5
f 32//6 6//6 41//6
f 26//1 42//1 32//1
f 32//2 42//2 26//2
f 26//5 33//5 43//5
f 43//6 33//6 26//6
f 33//3 27//3 44//3
f 44//4 27//4 33//4
f 34//5 6//5 45//5
f 45//6 6//6 34//6
f 19//5 35//5 36//5
f 36//6 35//6 19//6
f 28//3 29//3 35//3
f 35//4 29//4 28//4
f 36//2 22//2 35//2
f 46//5 23//5 34//5
f 34//6 23//6 46//6
f 46//5 37//5 23//5
f 23//6 37//6 46//6
f 37//2 30//2 47//2
f 38//7 48//7 27//7
f 27//8 48//8 38//8
f 39//2 47//2 30//2
f 39//3 46//3 25//3
f 25//4 46//4 39//4
f 49//9 40//9 25//9
f 25//10 40//10 49//10
f 50//1 31//1 40//1
f 40//2 31//2 50//2
f 51//1 38//1 31//1
f 31//2 38//2 51//2
f 6//5 41//5 52//5
f 52//6 41//6 6//6
f 42//3 41//3 32//3
f 32//4 41//4 42//4
f 42//1 26//1 48//1
f 48//2 26//2 42//2
f 43//2 53//2 33//2
f 53//4 26//4 43//4
f 43//3 26//3 53//3
f 27//7 53//7 44//7
f 44//8 53//8 27//8
f 44//2 33//2 53//2
f 6//1 54//1 45//1
f 45//2 54//2 6//2
f 45//5 55//5 34//5
f 34//6 55//6 45//6
f 34//1 25//1 46//1
f 46//2 25//2 34//2
f 37//5 46//5 47//5
f 47//6 46//6 37//6
f 38//7 42//7 48//7
f 48//8 42//8 38//8
f 53//7 27//7 48//7
f 48//8 27//8 53//8
f 46//3 39//3 47//3
f 47//4 39//4 46//4
f 40//9 49//9 56//9
f 56//10 49//10 40//10
f 25//1 34//1 49//1
f 49//2 34//2 25//2
f 51//1 31//1 50//1
f 50//2 31//2 51//2
f 50//1 40//1 57//1
f 57//2 40//2 50//2
f 58//1 38//1 51//1
f 51//2 38//2 58//2
f 52//2 59//2 41//2
f 59//4 6//4 52//4
f 52//3 6//3 59//3
f 41//3 42//3 60//3
f 60//4 42//4 41//4
f 26//4 53//4 48//4
f 48//3 53//3 26//3
f 6//1 61//1 54//1
f 54//2 61//2 6//2
f 45//1 54//1 57//1
f 57//2 54//2 45//2
f 45//5 62//5 55//5
f 55//6 62//6 45//6
f 55//5 63//5 34//5
f 34//6 63//6 55//6
f 59//7 42//7 38//7
f 38//8 42//8 59//8
f 64//9 56//9 49//9
f 49//10 56//10 64//10
f 40//9 56//9 65//9
f 65//10 56//10 40//10
f 34//4 64//4 49//4
f 49//3 64//3 34//3
f 66//5 51//5 50//5
f 50//6 51//6 66//6
f 65//9 57//9 40//9
f 40//10 57//10 65//10
f 50//1 57//1 67//1
f 67//2 57//2 50//2
f 38//1 58//1 6//1
f 6//2 58//2 38//2
f 68//11 58//11 51//11
f 51//12 58//12 68//12
f 60//2 41//2 59//2
f 6//4 59//4 38//4
f 38//3 59//3 6//3
f 42//7 59//7 60//7
f 60//8 59//8 42//8
f 61//1 6//1 58//1
f 58//2 6//2 61//2
f 61//6 69//6 54//6
f 54//5 69//5 61//5
f 67//1 57//1 54//1
f 54//2 57//2 67//2
f 57//3 70//3 45//3
f 45//4 70//4 57//4
f 70//5 62//5 45//5
f 45//6 62//6 70//6
f 62//1 56//1 55//1
f 55//2 56//2 62//2
f 63//5 55//5 71//5
f 71//6 55//6 63//6
f 64//4 34//4 63//4
f 63//3 34//3 64//3
f 56//9 64//9 72//9
f 72//10 64//10 56//10
f 56//1 62//1 65//1
f 65//2 62//2 56//2
f 51//5 66//5 68//5
f 68//6 66//6 51//6
f 50//13 73//13 66//13
f 66//14 73//14 50//14
f 74//9 57//9 65//9
f 65//10 57//10 74//10
f 73//13 50//13 67//13
f 67//14 50//14 73//14
f 58//11 68//11 75//11
f 75//12 68//12 58//12
f 75//3 61//3 58//3
f 58//4 61//4 75//4
f 69//6 61//6 76//6
f 76//5 61//5 69//5
f 73//4 54//4 69//4
f 69//3 54//3 73//3
f 54//4 73//4 67//4
f 67//3 73//3 54//3
f 70//3 57//3 77//3
f 77//4 57//4 70//4
f 62//5 70//5 78//5
f 78//6 70//6 62//6
f 72//3 55//3 56//3
f 56//4 55//4 72//4
f 55//3 72//3 71//3
f 71//4 72//4 55//4
f 63//2 64//2 71//2
f 72//2 71//2 64//2
f 78//4 65//4 62//4
f 62//3 65//3 78//3
f 57//9 74//9 77//9
f 77//10 74//10 57//10
f 65//4 78//4 74//4
f 74//3 78//3 65//3
f 61//3 75//3 76//3
f 76//4 75//4 61//4
f 77//2 70//2 74//2
f 78//2 74//2 70//2
usemtl material_1_0
f 17//1 9//1 5//1
f 20//1 7//1 13//1
f 9//1 17//1 24//1
f 7//1 20//1 21//1
f 22//1 35//1 29//1
f 35//1 22//1 36//1
f 47//1 30//1 37//1
f 30//1 47//1 39//1
f 33//1 53//1 43//1
f 53//1 33//1 44//1
f 41//1 59//1 52//1
f 59//1 41//1 60//1
f 71//1 64//1 63//1
f 64//1 71//1 72//1
f 74//1 70//1 77//1
f 70//1 74//1 78//1
