# SSTK version 0.8.0
# 97
mtllib original-97.mtl
o mesh251/mesh251-geometry#mesh251-geometry
v 0.518035 -0.111260 0.573363
v 0.518654 -0.111260 0.579386
v 0.518644 -0.111260 0.582167
v 0.519145 -0.111260 0.572951
v 0.526341 -0.111260 0.582167
v 0.518734 -0.111260 0.588427
v 0.518035 -0.110866 0.573363
v 0.518812 -0.111260 0.578199
v 0.522436 -0.111260 0.579386
v 0.526341 -0.110866 0.582167
v 0.517380 -0.111260 0.587791
v 0.518821 -0.111260 0.583386
v 0.519145 -0.110866 0.572951
v 0.517068 -0.110866 0.574049
v 0.519097 -0.111260 0.577348
v 0.518654 -0.110866 0.579386
v 0.523115 -0.111260 0.573367
v 0.518644 -0.110866 0.582167
v 0.526341 -0.111260 0.581511
v 0.517068 -0.111260 0.574049
v 0.518734 -0.110866 0.588427
v 0.518821 -0.110866 0.583386
v 0.520512 -0.111260 0.588639
v 0.520399 -0.111260 0.572814
v 0.517380 -0.110866 0.587791
v 0.519736 -0.111260 0.576524
v 0.518812 -0.110866 0.578199
v 0.522436 -0.110866 0.579386
v 0.522323 -0.111260 0.573060
v 0.523794 -0.111260 0.573797
v 0.526341 -0.110866 0.581511
v 0.526178 -0.111260 0.578798
v 0.516337 -0.111260 0.586693
v 0.520512 -0.110866 0.588639
v 0.519144 -0.110866 0.584248
v 0.519144 -0.111260 0.584248
v 0.520399 -0.110866 0.572814
v 0.516244 -0.110866 0.575009
v 0.516337 -0.110866 0.586693
v 0.519736 -0.110866 0.576524
v 0.519097 -0.110866 0.577348
v 0.522230 -0.110866 0.577943
v 0.522230 -0.111260 0.577943
v 0.522323 -0.110866 0.573060
v 0.523115 -0.110866 0.573367
v 0.524891 -0.111260 0.575002
v 0.526178 -0.110866 0.578798
v 0.525975 -0.111260 0.577653
v 0.516244 -0.111260 0.575009
v 0.519786 -0.111260 0.584986
v 0.522538 -0.110866 0.588392
v 0.520559 -0.111260 0.576250
v 0.520559 -0.110866 0.576250
v 0.521837 -0.111260 0.576977
v 0.523794 -0.110866 0.573797
v 0.525690 -0.111260 0.576649
v 0.525975 -0.110866 0.577653
v 0.515586 -0.111260 0.576192
v 0.519786 -0.110866 0.584986
v 0.520597 -0.111260 0.585232
v 0.522538 -0.111260 0.588392
v 0.520597 -0.110866 0.585232
v 0.515586 -0.110866 0.576192
v 0.515489 -0.110866 0.585096
v 0.521837 -0.110866 0.576977
v 0.521275 -0.111260 0.576431
v 0.524891 -0.110866 0.575002
v 0.525690 -0.110866 0.576649
v 0.515489 -0.111260 0.585096
v 0.523351 -0.110866 0.588082
v 0.521149 -0.110866 0.585125
v 0.521275 -0.110866 0.576431
v 0.515161 -0.111260 0.584133
v 0.521149 -0.111260 0.585125
v 0.523351 -0.111260 0.588082
v 0.526124 -0.110866 0.584376
v 0.521672 -0.110866 0.584804
v 0.515115 -0.111260 0.577544
v 0.515161 -0.110866 0.584133
v 0.521672 -0.111260 0.584804
v 0.526124 -0.111260 0.584376
v 0.524030 -0.110866 0.587649
v 0.522342 -0.110866 0.583849
v 0.515115 -0.110866 0.577544
v 0.514927 -0.111260 0.583088
v 0.514927 -0.110866 0.583088
v 0.522342 -0.111260 0.583849
v 0.524030 -0.111260 0.587649
v 0.524621 -0.110866 0.587072
v 0.514833 -0.111260 0.579065
v 0.524621 -0.111260 0.587072
v 0.525167 -0.110866 0.586335
v 0.514833 -0.110866 0.579065
v 0.514739 -0.111260 0.580755
v 0.514739 -0.110866 0.580755
v 0.525167 -0.111260 0.586335
vn 0 -1 0
vn 0 1 0
vn -0.4711598369197628 0 -0.8820478490840179
vn -0.23188074922093505 0 -0.9727442203070331
vn 0.4711598369197628 0 0.8820478490840179
vn 0.23188074922093505 0 0.9727442203070331
vn 0 0 1
vn 0 0 -1
vn -0.6780382358982628 0 -0.735026632619507
vn 0.6780382358982628 0 0.735026632619507
vn 0.9747099877001713 0 0.22347357758252365
vn 0.9912570228617047 0 0.1319451197557149
vn -0.9912570228617047 0 -0.1319451197557149
vn -0.9747099877001713 0 -0.22347357758252365
vn 0.9995523679065693 0 -0.02991761709043905
vn 1 0 0
vn -1 0 0
vn -0.9995523679065693 0 0.02991761709043905
vn -0.2793151890456419 0 0.9601994715518217
vn -0.5943735154711595 0 0.8041891096666601
vn 0.2793151890456419 0 -0.9601994715518217
vn 0.5943735154711595 0 -0.8041891096666601
vn 0.9896389265172235 0 -0.1435785329422108
vn 0.9694116179534951 0 -0.24544065469434131
vn -0.9694116179534951 0 0.24544065469434131
vn -0.9896389265172235 0 0.1435785329422108
vn 0.009117457073330419 0 -0.9999584351244386
vn -0.009117457073330419 0 0.9999584351244386
vn 0.9482256212239112 0 0.3175974988165489
vn -0.9482256212239112 0 -0.3175974988165489
vn 0.0014979447528788595 0 0.9999988780801291
vn -0.0014979447528788595 0 -0.9999988780801291
vn 0.9364748118341079 0 -0.35073483830419866
vn -0.9364748118341079 0 0.35073483830419866
vn -0.8229840948287602 0 -0.5680644150612554
vn 0.8229840948287602 0 0.5680644150612554
vn 0.7899826396040239 0 0.6131292107902372
vn -0.7899826396040239 0 -0.6131292107902372
vn -0.9664753356203774 0 0.25675947039491787
vn -0.9899390774557651 0 0.14149425050520154
vn 0.9899390774557651 0 -0.14149425050520154
vn 0.9664753356203774 0 -0.25675947039491787
vn 0.24806467650911185 0 -0.9687434728907492
vn 0.45281498976447027 0 -0.8916045003501287
vn -0.24806467650911185 0 0.9687434728907492
vn -0.45281498976447027 0 0.8916045003501287
vn 0.6480963927278163 0 -0.7615583140726601
vn -0.6480963927278163 0 0.7615583140726601
vn 0.9931214662678587 0 -0.1170886554623398
vn -0.9931214662678587 0 0.1170886554623398
vn -0.8160443037370619 0 0.5779893548658954
vn 0.8160443037370619 0 -0.5779893548658954
vn 0.2423712796245674 0 0.970183571708545
vn -0.2423712796245674 0 -0.970183571708545
vn 0.3163650457719747 0 0.9486375270954109
vn -0.3163650457719747 0 -0.9486375270954109
vn 0.8328635471797531 0 -0.5534783751684967
vn -0.8328635471797531 0 0.5534783751684967
vn 0.9747114801340324 0 -0.2234670680322353
vn -0.9747114801340324 0 0.2234670680322353
vn 0.7546999001102145 0 -0.6560701645202535
vn -0.7546999001102145 0 0.6560701645202535
vn -0.9137513521980467 0 -0.4062738809673117
vn 0.9137513521980467 0 0.4062738809673117
vn -0.9188630386571641 0 0.3945766290465297
vn 0.9188630386571641 0 -0.3945766290465297
vn -0.9263974554144797 0 0.3765471479132158
vn 0.9263974554144797 0 -0.3765471479132158
vn 0.935440861957784 0 -0.3534832298422065
vn -0.935440861957784 0 0.3534832298422065
vn 0.2901460633376224 0 -0.9569823728416739
vn 0.053186880796167194 0 -0.9985845761432401
vn -0.2901460633376224 0 0.9569823728416739
vn -0.053186880796167194 0 0.9985845761432401
vn 0.45153512013667724 0 0.8922533470282732
vn -0.45153512013667724 0 -0.8922533470282732
vn -0.2461828817246401 0 0.9692233946545821
vn 0.2461828817246401 0 -0.9692233946545821
vn -0.6961375137820568 0 0.7179084634584946
vn 0.6961375137820568 0 -0.7179084634584946
vn -0.3683247653836859 0 -0.9296971911354002
vn 0.3683247653836859 0 0.9296971911354002
vn -0.967062932637157 0 -0.25453739277210613
vn 0.967062932637157 0 0.25453739277210613
vn -0.9628331578445845 0 0.270096853286049
vn 0.9628331578445845 0 -0.270096853286049
vn 0.6241054273557868 0 0.7813401407486057
vn -0.6241054273557868 0 -0.7813401407486057
vn -0.522492309777961 0 -0.8526439973534624
vn 0.522492309777961 0 0.8526439973534624
vn -0.9888448929657928 0 0.14894890954776918
vn 0.9888448929657928 0 -0.14894890954776918
vn 0.1381327006892638 0 -0.9904137302159589
vn -0.1381327006892638 0 0.9904137302159589
vn -0.8188205791073829 0 -0.5740495268095339
vn 0.8188205791073829 0 0.5740495268095339
vn -0.9929442811122104 0 -0.11858184771100308
vn 0.9929442811122104 0 0.11858184771100308
vn 0.7551171634878774 0 0.6555898637151295
vn -0.7551171634878774 0 -0.6555898637151295
vn 0.8564456135502138 0 0.5162372623422274
vn 0.8984141608442493 0 0.4391491723714433
vn -0.8984141608442493 0 -0.4391491723714433
vn -0.8564456135502138 0 -0.5162372623422274
vn -0.9999251256300287 0 0.012236957700811653
vn 0.9999251256300287 0 -0.012236957700811653
usemtl material_0_0
f 1//1 2//1 3//1
f 2//1 1//1 4//1
f 3//2 2//2 1//2
f 4//2 1//2 2//2
f 2//1 5//1 3//1
f 3//2 5//2 2//2
f 6//1 1//1 3//1
f 3//2 1//2 6//2
f 7//3 4//4 1//3
f 1//5 4//6 7//5
f 2//1 4//1 8//1
f 8//2 4//2 2//2
f 5//1 2//1 9//1
f 9//2 2//2 5//2
f 10//7 3//7 5//7
f 5//8 3//8 10//8
f 11//1 1//1 6//1
f 6//2 1//2 11//2
f 6//1 3//1 12//1
f 12//2 3//2 6//2
f 4//4 7//3 13//4
f 13//6 7//5 4//6
f 1//3 14//9 7//3
f 7//5 14//10 1//5
f 8//1 4//1 15//1
f 15//2 4//2 8//2
f 8//11 16//12 2//12
f 2//13 16//13 8//14
f 16//8 9//8 2//8
f 2//7 9//7 16//7
f 5//1 9//1 17//1
f 17//2 9//2 5//2
f 3//7 10//7 18//7
f 18//8 10//8 3//8
f 19//15 10//16 5//16
f 5//17 10//17 19//18
f 11//1 20//1 1//1
f 1//2 20//2 11//2
f 21//19 11//20 6//19
f 6//21 11//22 21//21
f 3//23 22//24 12//24
f 12//25 22//25 3//26
f 6//1 12//1 23//1
f 23//2 12//2 6//2
f 7//2 16//2 13//2
f 13//1 16//1 7//1
f 13//4 24//27 4//4
f 4//6 24//28 13//6
f 14//9 1//3 20//9
f 20//10 1//5 14//10
f 14//2 25//2 7//2
f 7//1 25//1 14//1
f 15//1 4//1 26//1
f 26//2 4//2 15//2
f 15//29 27//11 8//11
f 8//14 27//14 15//30
f 16//12 8//11 27//11
f 27//14 8//14 16//13
f 9//8 16//8 28//8
f 28//7 16//7 9//7
f 9//1 29//1 17//1
f 17//2 29//2 9//2
f 5//1 17//1 30//1
f 30//2 17//2 5//2
f 10//2 16//2 18//2
f 18//1 16//1 10//1
f 22//24 3//23 18//23
f 18//26 3//26 22//25
f 10//16 19//15 31//15
f 31//18 19//18 10//17
f 5//1 32//1 19//1
f 19//2 32//2 5//2
f 33//1 20//1 11//1
f 11//2 20//2 33//2
f 11//20 21//19 25//20
f 25//22 21//21 11//22
f 6//19 34//31 21//19
f 21//21 34//32 6//21
f 35//33 12//24 22//24
f 22//25 12//25 35//34
f 23//1 12//1 36//1
f 36//2 12//2 23//2
f 34//31 6//19 23//31
f 23//32 6//21 34//32
f 16//2 7//2 18//2
f 18//1 7//1 16//1
f 13//2 16//2 27//2
f 27//1 16//1 13//1
f 24//27 13//4 37//27
f 37//28 13//6 24//28
f 26//1 4//1 24//1
f 24//2 4//2 26//2
f 20//9 38//35 14//9
f 14//10 38//36 20//10
f 14//2 39//2 25//2
f 25//1 39//1 14//1
f 7//2 25//2 21//2
f 21//1 25//1 7//1
f 40//37 15//37 26//37
f 26//38 15//38 40//38
f 27//11 15//29 41//29
f 41//30 15//30 27//14
f 16//2 10//2 28//2
f 28//1 10//1 16//1
f 42//39 9//40 28//40
f 28//41 9//41 42//42
f 43//1 29//1 9//1
f 9//2 29//2 43//2
f 44//43 17//44 29//43
f 29//45 17//46 44//45
f 45//44 30//47 17//44
f 17//46 30//48 45//46
f 5//1 30//1 46//1
f 46//2 30//2 5//2
f 18//2 21//2 22//2
f 22//1 21//1 18//1
f 32//49 31//15 19//15
f 19//18 31//18 32//50
f 47//2 10//2 31//2
f 31//1 10//1 47//1
f 5//1 48//1 32//1
f 32//2 48//2 5//2
f 33//1 49//1 20//1
f 20//2 49//2 33//2
f 25//20 33//51 11//20
f 11//22 33//52 25//22
f 22//2 21//2 34//2
f 34//1 21//1 22//1
f 12//24 35//33 36//33
f 36//34 35//34 12//25
f 22//2 34//2 35//2
f 35//1 34//1 22//1
f 23//1 36//1 50//1
f 50//2 36//2 23//2
f 23//31 51//53 34//31
f 34//32 51//54 23//32
f 7//2 21//2 18//2
f 18//1 21//1 7//1
f 13//2 27//2 41//2
f 41//1 27//1 13//1
f 13//2 40//2 37//2
f 37//1 40//1 13//1
f 37//27 29//43 24//27
f 24//28 29//45 37//28
f 26//1 24//1 52//1
f 52//2 24//2 26//2
f 38//35 20//9 49//35
f 49//36 20//10 38//36
f 38//2 39//2 14//2
f 14//1 39//1 38//1
f 33//51 25//20 39//51
f 39//52 25//22 33//52
f 15//37 40//37 41//37
f 41//38 40//38 15//38
f 26//55 53//55 40//55
f 40//56 53//56 26//56
f 28//2 10//2 45//2
f 45//1 10//1 28//1
f 9//40 42//39 43//39
f 43//42 42//42 9//41
f 44//2 42//2 28//2
f 28//1 42//1 44//1
f 54//1 29//1 43//1
f 43//2 29//2 54//2
f 17//44 44//43 45//44
f 45//46 44//45 17//46
f 29//43 37//27 44//43
f 44//45 37//28 29//45
f 30//47 45//44 55//47
f 55//48 45//46 30//48
f 55//47 46//57 30//47
f 30//48 46//58 55//48
f 5//1 46//1 56//1
f 56//2 46//2 5//2
f 31//15 32//49 47//49
f 47//50 32//50 31//18
f 57//2 10//2 47//2
f 47//1 10//1 57//1
f 5//1 56//1 48//1
f 48//2 56//2 5//2
f 48//59 47//49 32//49
f 32//50 47//50 48//60
f 33//1 58//1 49//1
f 49//2 58//2 33//2
f 35//61 50//61 36//61
f 36//62 50//62 35//62
f 35//2 34//2 59//2
f 59//1 34//1 35//1
f 23//1 50//1 60//1
f 60//2 50//2 23//2
f 51//53 23//31 61//53
f 61//54 23//32 51//54
f 62//2 34//2 51//2
f 51//1 34//1 62//1
f 13//2 41//2 40//2
f 40//1 41//1 13//1
f 37//2 40//2 53//2
f 53//1 40//1 37//1
f 52//1 24//1 29//1
f 29//2 24//2 52//2
f 53//55 26//55 52//55
f 52//56 26//56 53//56
f 58//63 38//35 49//35
f 49//36 38//36 58//64
f 63//2 39//2 38//2
f 38//1 39//1 63//1
f 64//65 33//51 39//51
f 39//52 33//52 64//66
f 45//2 10//2 55//2
f 55//1 10//1 45//1
f 44//2 28//2 45//2
f 45//1 28//1 44//1
f 65//67 43//39 42//39
f 42//42 43//42 65//68
f 44//2 65//2 42//2
f 42//1 65//1 44//1
f 66//1 29//1 54//1
f 54//2 29//2 66//2
f 43//39 65//67 54//67
f 54//68 65//68 43//42
f 37//2 53//2 44//2
f 44//1 53//1 37//1
f 46//57 55//47 67//57
f 67//58 55//48 46//58
f 46//57 68//69 56//69
f 56//70 68//70 46//58
f 68//2 10//2 57//2
f 57//1 10//1 68//1
f 47//49 48//59 57//59
f 57//60 48//60 47//50
f 56//69 57//59 48//59
f 48//60 57//60 56//70
f 69//1 58//1 33//1
f 33//2 58//2 69//2
f 50//61 35//61 59//61
f 59//62 35//62 50//62
f 59//2 34//2 62//2
f 62//1 34//1 59//1
f 59//71 60//72 50//71
f 50//73 60//74 59//73
f 23//1 60//1 61//1
f 61//2 60//2 23//2
f 61//53 70//75 51//53
f 51//54 70//76 61//54
f 62//2 51//2 71//2
f 71//1 51//1 62//1
f 52//1 29//1 66//1
f 66//2 29//2 52//2
f 52//77 72//77 53//77
f 53//78 72//78 52//78
f 38//35 58//63 63//63
f 63//64 58//64 38//36
f 63//2 64//2 39//2
f 39//1 64//1 63//1
f 33//51 64//65 69//65
f 69//66 64//66 33//52
f 55//2 10//2 67//2
f 67//1 10//1 55//1
f 44//2 72//2 65//2
f 65//1 72//1 44//1
f 65//79 66//79 54//79
f 54//80 66//80 65//80
f 44//2 53//2 72//2
f 72//1 53//1 44//1
f 68//69 46//57 67//57
f 67//58 46//58 68//70
f 57//59 56//69 68//69
f 68//70 56//70 57//60
f 67//2 10//2 68//2
f 68//1 10//1 67//1
f 73//1 58//1 69//1
f 69//2 58//2 73//2
f 60//72 59//71 62//72
f 62//74 59//73 60//74
f 61//1 60//1 74//1
f 74//2 60//2 61//2
f 70//75 61//53 75//75
f 75//76 61//54 70//76
f 76//2 51//2 70//2
f 70//1 51//1 76//1
f 71//2 51//2 77//2
f 77//1 51//1 71//1
f 74//81 62//72 71//81
f 71//82 62//74 74//82
f 72//77 52//77 66//77
f 66//78 52//78 72//78
f 78//83 63//63 58//63
f 58//64 63//64 78//84
f 63//2 79//2 64//2
f 64//1 79//1 63//1
f 79//85 69//65 64//65
f 64//66 69//66 79//86
f 66//79 65//79 72//79
f 72//80 65//80 66//80
f 73//1 78//1 58//1
f 58//2 78//2 73//2
f 69//65 79//85 73//85
f 73//86 79//86 69//66
f 62//72 74//81 60//72
f 60//74 74//82 62//74
f 61//1 74//1 80//1
f 80//2 74//2 61//2
f 61//1 81//1 75//1
f 75//2 81//2 61//2
f 75//75 82//87 70//75
f 70//76 82//88 75//76
f 83//2 51//2 76//2
f 76//1 51//1 83//1
f 76//2 70//2 82//2
f 82//1 70//1 76//1
f 77//2 51//2 83//2
f 83//1 51//1 77//1
f 80//89 71//81 77//89
f 77//90 71//82 80//90
f 71//81 80//89 74//81
f 74//82 80//90 71//82
f 63//63 78//83 84//83
f 84//84 78//84 63//64
f 84//2 79//2 63//2
f 63//1 79//1 84//1
f 85//1 78//1 73//1
f 73//2 78//2 85//2
f 86//91 73//85 79//85
f 79//86 73//86 86//92
f 61//1 80//1 87//1
f 87//2 80//2 61//2
f 61//1 87//1 81//1
f 81//2 87//2 61//2
f 75//1 81//1 88//1
f 88//2 81//2 75//2
f 82//87 75//75 88//87
f 88//88 75//76 82//88
f 81//93 83//93 76//93
f 76//94 83//94 81//94
f 76//2 82//2 89//2
f 89//1 82//1 76//1
f 87//95 77//95 83//95
f 83//96 77//96 87//96
f 77//95 87//95 80//95
f 80//96 87//96 77//96
f 90//97 84//83 78//83
f 78//84 84//84 90//98
f 84//2 86//2 79//2
f 79//1 86//1 84//1
f 85//1 90//1 78//1
f 78//2 90//2 85//2
f 73//85 86//91 85//91
f 85//92 86//92 73//86
f 83//93 81//93 87//93
f 87//94 81//94 83//94
f 88//1 81//1 91//1
f 91//2 81//2 88//2
f 88//87 89//99 82//87
f 82//88 89//100 88//88
f 92//101 81//102 76//102
f 76//103 81//103 92//104
f 76//2 89//2 92//2
f 92//1 89//1 76//1
f 84//83 90//97 93//97
f 93//98 90//98 84//84
f 93//2 86//2 84//2
f 84//1 86//1 93//1
f 90//1 85//1 94//1
f 94//2 85//2 90//2
f 95//105 85//91 86//91
f 86//92 85//92 95//106
f 91//1 81//1 96//1
f 96//2 81//2 91//2
f 89//99 88//87 91//99
f 91//100 88//88 89//100
f 81//102 92//101 96//101
f 96//104 92//104 81//103
f 91//99 92//101 89//99
f 89//100 92//104 91//100
f 94//105 93//97 90//97
f 90//98 93//98 94//106
f 86//2 93//2 95//2
f 95//1 93//1 86//1
f 85//91 95//105 94//105
f 94//106 95//106 85//92
f 92//101 91//99 96//101
f 96//104 91//100 92//104
f 93//97 94//105 95//105
f 95//106 94//106 93//98
