# SSTK version 0.8.0
# 134
mtllib original-134.mtl
o mesh329/mesh329-geometry#mesh329-geometry
v -0.672563 -0.194357 -0.154294
v -0.673077 -0.194357 -0.039786
v -0.673077 -0.194357 -0.146954
v -0.656095 -0.194357 -0.023395
v -0.676110 -0.194357 -0.034739
v -0.671027 -0.194357 -0.161507
v -0.676110 -0.194357 -0.039786
v -0.668498 -0.194357 -0.168472
v -0.665017 -0.194357 -0.175068
v -0.660645 -0.194357 -0.181184
v -0.655456 -0.194357 -0.186713
v -0.656095 -0.194357 -0.013468
v -0.656095 -0.194357 -0.003542
v -0.656095 -0.194357 0.006385
v -0.656095 -0.194357 0.016311
v -0.656095 -0.194357 0.026238
v -0.656095 -0.194357 0.036164
v -0.656095 -0.194357 0.046091
v -0.656095 -0.194357 0.065944
v -0.656095 -0.194357 0.075870
v -0.656095 -0.194357 0.085797
v -0.656095 -0.194357 0.095723
v -0.656095 -0.194357 0.105650
v -0.656095 -0.194357 0.115576
v -0.656095 -0.194357 0.125503
v -0.656095 -0.194357 0.135429
v -0.622884 -0.194357 0.634260
v -0.673077 -0.194357 0.681136
v -0.649539 -0.194357 -0.191563
v -0.673077 -0.194357 0.151765
v -0.612914 -0.194357 0.737363
v -0.642995 -0.194357 -0.195649
v -0.676110 -0.194357 0.146774
v -0.568091 -0.194357 0.693939
v -0.635937 -0.194357 -0.198902
v -0.676110 -0.194357 0.151765
v 0.640765 -0.194357 0.737363
v -0.628485 -0.194357 -0.201266
v 0.578999 -0.194357 0.693939
v -0.622884 -0.194357 -0.067994
v 0.653418 -0.194357 0.634260
v -0.620766 -0.194357 -0.202701
v 0.704250 -0.194357 0.681136
v -0.564791 -0.194357 -0.122287
v 0.659657 -0.194357 -0.201266
v -0.612914 -0.194357 -0.203182
v 0.653418 -0.194357 -0.067994
v 0.667109 -0.194357 -0.198902
v -0.455789 -0.194357 -0.203182
v 0.651939 -0.194357 -0.202701
v 0.674168 -0.194357 -0.195649
v -0.455789 -0.194357 -0.175068
v 0.644086 -0.194357 -0.203182
v 0.680711 -0.194357 -0.191563
v -0.279023 -0.194357 -0.140235
v 0.595326 -0.194357 -0.122287
v 0.686628 -0.194357 -0.186713
v -0.377226 -0.194357 -0.175068
v 0.486961 -0.194357 -0.175068
v 0.691817 -0.194357 -0.181184
v -0.315849 -0.194357 -0.187445
v 0.310195 -0.194357 -0.140235
v 0.486961 -0.194357 -0.203182
v 0.408398 -0.194357 -0.175068
v 0.696189 -0.194357 -0.175068
v -0.279023 -0.194357 -0.203182
v -0.282319 -0.194357 -0.144460
v 0.312213 -0.194357 -0.142821
v 0.347021 -0.194357 -0.187445
v 0.699670 -0.194357 -0.168472
v -0.377226 -0.194357 -0.203182
v -0.282319 -0.194357 -0.187445
v 0.312213 -0.194357 -0.187445
v 0.408398 -0.194357 -0.203182
v 0.702199 -0.194357 -0.161507
v 0.310195 -0.194357 -0.203182
v 0.703735 -0.194357 -0.154294
v 0.704250 -0.194357 0.147424
v 0.704250 -0.194357 -0.146954
v 0.704250 -0.194357 0.621818
v 0.704250 -0.194357 0.148958
vn 0 -1 0
vn 0 1 0
usemtl material_0_0
f 1//1 2//1 3//1
f 4//1 2//1 1//1
f 5//1 2//1 4//1
f 4//1 1//1 6//1
f 2//1 5//1 7//1
f 4//1 6//1 8//1
f 4//1 8//1 9//1
f 4//1 9//1 10//1
f 4//1 10//1 11//1
f 4//1 11//1 12//1
f 12//1 11//1 13//1
f 13//1 11//1 14//1
f 14//1 11//1 15//1
f 15//1 11//1 16//1
f 16//1 11//1 17//1
f 17//1 11//1 18//1
f 18//1 11//1 19//1
f 19//1 11//1 20//1
f 20//1 11//1 21//1
f 21//1 11//1 22//1
f 22//1 11//1 23//1
f 23//1 11//1 24//1
f 24//1 11//1 25//1
f 25//1 11//1 26//1
f 27//1 26//1 11//1
f 28//1 26//1 27//1
f 27//1 11//1 29//1
f 30//1 26//1 28//1
f 28//1 27//1 31//1
f 27//1 29//1 32//1
f 30//1 33//1 26//1
f 31//1 27//1 34//1
f 27//1 32//1 35//1
f 33//1 30//1 36//1
f 31//1 34//1 37//1
f 27//1 35//1 38//1
f 37//1 34//1 39//1
f 27//1 38//1 40//1
f 37//1 39//1 41//1
f 42//1 40//1 38//1
f 37//1 41//1 43//1
f 40//1 42//1 44//1
f 43//1 41//1 45//1
f 44//1 42//1 46//1
f 47//1 45//1 41//1
f 43//1 45//1 48//1
f 44//1 46//1 49//1
f 47//1 50//1 45//1
f 43//1 48//1 51//1
f 44//1 49//1 52//1
f 47//1 53//1 50//1
f 43//1 51//1 54//1
f 44//1 52//1 55//1
f 56//1 53//1 47//1
f 43//1 54//1 57//1
f 55//1 52//1 58//1
f 44//1 55//1 56//1
f 59//1 53//1 56//1
f 43//1 57//1 60//1
f 55//1 58//1 61//1
f 56//1 55//1 62//1
f 53//1 59//1 63//1
f 56//1 64//1 59//1
f 43//1 60//1 65//1
f 58//1 66//1 61//1
f 55//1 61//1 67//1
f 56//1 62//1 68//1
f 56//1 69//1 64//1
f 43//1 65//1 70//1
f 66//1 58//1 71//1
f 61//1 66//1 72//1
f 55//1 67//1 66//1
f 68//1 62//1 73//1
f 56//1 68//1 69//1
f 64//1 69//1 74//1
f 43//1 70//1 75//1
f 72//1 66//1 67//1
f 76//1 73//1 62//1
f 73//1 74//1 69//1
f 43//1 75//1 77//1
f 73//1 76//1 74//1
f 43//1 77//1 78//1
f 79//1 78//1 77//1
f 43//1 78//1 80//1
f 81//1 80//1 78//1
usemtl material_1_0
f 3//2 2//2 1//2
f 1//2 2//2 4//2
f 4//2 2//2 5//2
f 6//2 1//2 4//2
f 7//2 5//2 2//2
f 8//2 6//2 4//2
f 9//2 8//2 4//2
f 10//2 9//2 4//2
f 11//2 10//2 4//2
f 12//2 11//2 4//2
f 13//2 11//2 12//2
f 14//2 11//2 13//2
f 15//2 11//2 14//2
f 16//2 11//2 15//2
f 17//2 11//2 16//2
f 18//2 11//2 17//2
f 19//2 11//2 18//2
f 20//2 11//2 19//2
f 21//2 11//2 20//2
f 22//2 11//2 21//2
f 23//2 11//2 22//2
f 24//2 11//2 23//2
f 25//2 11//2 24//2
f 26//2 11//2 25//2
f 11//2 26//2 27//2
f 27//2 26//2 28//2
f 29//2 11//2 27//2
f 28//2 26//2 30//2
f 31//2 27//2 28//2
f 32//2 29//2 27//2
f 26//2 33//2 30//2
f 34//2 27//2 31//2
f 35//2 32//2 27//2
f 36//2 30//2 33//2
f 37//2 34//2 31//2
f 38//2 35//2 27//2
f 39//2 34//2 37//2
f 40//2 38//2 27//2
f 41//2 39//2 37//2
f 38//2 40//2 42//2
f 43//2 41//2 37//2
f 44//2 42//2 40//2
f 45//2 41//2 43//2
f 46//2 42//2 44//2
f 41//2 45//2 47//2
f 48//2 45//2 43//2
f 49//2 46//2 44//2
f 45//2 50//2 47//2
f 51//2 48//2 43//2
f 52//2 49//2 44//2
f 50//2 53//2 47//2
f 54//2 51//2 43//2
f 55//2 52//2 44//2
f 47//2 53//2 56//2
f 57//2 54//2 43//2
f 58//2 52//2 55//2
f 56//2 55//2 44//2
f 56//2 53//2 59//2
f 60//2 57//2 43//2
f 61//2 58//2 55//2
f 62//2 55//2 56//2
f 63//2 59//2 53//2
f 59//2 64//2 56//2
f 65//2 60//2 43//2
f 61//2 66//2 58//2
f 67//2 61//2 55//2
f 68//2 62//2 56//2
f 64//2 69//2 56//2
f 70//2 65//2 43//2
f 71//2 58//2 66//2
f 72//2 66//2 61//2
f 66//2 67//2 55//2
f 73//2 62//2 68//2
f 69//2 68//2 56//2
f 74//2 69//2 64//2
f 75//2 70//2 43//2
f 67//2 66//2 72//2
f 62//2 73//2 76//2
f 69//2 74//2 73//2
f 77//2 75//2 43//2
f 74//2 76//2 73//2
f 78//2 77//2 43//2
f 77//2 78//2 79//2
f 80//2 78//2 43//2
f 78//2 80//2 81//2
