# SSTK version 0.8.0
# 81
mtllib original-81.mtl
o mesh219/mesh219-geometry#mesh219-geometry
v 0.274211 -0.111260 0.564150
v 0.273890 -0.111260 0.569058
v 0.273402 -0.111260 0.564676
v 0.273942 -0.111260 0.568387
v 0.274067 -0.111260 0.573826
v 0.273402 -0.111010 0.564676
v 0.274100 -0.111260 0.567737
v 0.273890 -0.111010 0.569058
v 0.273244 -0.111260 0.573244
v 0.273937 -0.111260 0.569737
v 0.274211 -0.111010 0.564150
v 0.272716 -0.111010 0.565412
v 0.274437 -0.111260 0.566977
v 0.273942 -0.111010 0.568387
v 0.273937 -0.111010 0.569737
v 0.272716 -0.111260 0.565412
v 0.274067 -0.111010 0.573826
v 0.274080 -0.111260 0.570356
v 0.275144 -0.111260 0.563835
v 0.273244 -0.111010 0.573244
v 0.274100 -0.111010 0.567737
v 0.272556 -0.111260 0.572428
v 0.275026 -0.111010 0.574175
v 0.274080 -0.111010 0.570356
v 0.275026 -0.111260 0.574175
v 0.275144 -0.111010 0.563835
v 0.272235 -0.111260 0.566194
v 0.272556 -0.111010 0.572428
v 0.274881 -0.111260 0.566435
v 0.274437 -0.111010 0.566977
v 0.274318 -0.111010 0.570917
v 0.274318 -0.111260 0.570917
v 0.276200 -0.111260 0.563730
v 0.272235 -0.111010 0.566194
v 0.275434 -0.111260 0.566110
v 0.272145 -0.111260 0.571688
v 0.272145 -0.111010 0.571688
v 0.276119 -0.111010 0.574292
v 0.274652 -0.111260 0.571418
v 0.274881 -0.111010 0.566435
v 0.276200 -0.111010 0.563730
v 0.271892 -0.111260 0.567062
v 0.275434 -0.111010 0.566110
v 0.276119 -0.111260 0.574292
v 0.275310 -0.111010 0.571947
v 0.274652 -0.111010 0.571418
v 0.274957 -0.111260 0.571727
v 0.276918 -0.111260 0.563787
v 0.276095 -0.111260 0.566001
v 0.271892 -0.111010 0.567062
v 0.276095 -0.111010 0.566001
v 0.271852 -0.111260 0.570880
v 0.271852 -0.111010 0.570880
v 0.275310 -0.111260 0.571947
v 0.276809 -0.111010 0.574242
v 0.274957 -0.111010 0.571727
v 0.275710 -0.111010 0.572079
v 0.276918 -0.111010 0.563787
v 0.276747 -0.111260 0.566124
v 0.271686 -0.111260 0.568017
v 0.275710 -0.111260 0.572079
v 0.276809 -0.111260 0.574242
v 0.276157 -0.111010 0.572123
v 0.276747 -0.111010 0.566124
v 0.277580 -0.111260 0.563956
v 0.277303 -0.111260 0.566494
v 0.271686 -0.111010 0.568017
v 0.271676 -0.111260 0.570003
v 0.271676 -0.111010 0.570003
v 0.276157 -0.111260 0.572123
v 0.277450 -0.111010 0.574092
v 0.276907 -0.111010 0.571980
v 0.277303 -0.111010 0.566494
v 0.277580 -0.111010 0.563956
v 0.271617 -0.111260 0.569058
v 0.276907 -0.111260 0.571980
v 0.277450 -0.111260 0.574092
v 0.278185 -0.111260 0.564238
v 0.277635 -0.111260 0.566928
v 0.271617 -0.111010 0.569058
v 0.278044 -0.111010 0.573841
v 0.277217 -0.111010 0.571801
v 0.277217 -0.111260 0.571801
v 0.277635 -0.111010 0.566928
v 0.278185 -0.111010 0.564238
v 0.278044 -0.111260 0.573841
v 0.277483 -0.111010 0.571550
v 0.278732 -0.111260 0.564633
v 0.277923 -0.111260 0.567537
v 0.277483 -0.111260 0.571550
v 0.278590 -0.111010 0.573491
v 0.277749 -0.111010 0.571083
v 0.277923 -0.111010 0.567537
v 0.278732 -0.111010 0.564633
v 0.279998 -0.111260 0.566525
v 0.277749 -0.111260 0.571083
v 0.278590 -0.111260 0.573491
v 0.280449 -0.111010 0.568469
v 0.277904 -0.111010 0.570434
v 0.279998 -0.111010 0.566525
v 0.279419 -0.111260 0.565426
v 0.277904 -0.111260 0.570434
v 0.280449 -0.111260 0.568469
v 0.279092 -0.111010 0.573028
v 0.279419 -0.111010 0.565426
v 0.279092 -0.111260 0.573028
v 0.276101 -0.111010 0.568469
v 0.279518 -0.111010 0.572476
v 0.276101 -0.111260 0.570434
v 0.279518 -0.111260 0.572476
v 0.276101 -0.111010 0.570434
v 0.279867 -0.111010 0.571834
v 0.276101 -0.111260 0.568469
v 0.279867 -0.111260 0.571834
v 0.280372 -0.111010 0.569935
v 0.280140 -0.111010 0.571104
v 0.280140 -0.111260 0.571104
v 0.280372 -0.111260 0.569935
vn 0 -1 0
vn 0 1 0
vn -0.6446867294454273 0 -0.7644468725012606
vn -0.43747407134850375 0 -0.8992310253198366
vn 0.6446867294454273 0 0.7644468725012606
vn 0.43747407134850375 0 0.8992310253198366
vn 0.9875453566590453 0 0.15733457516121194
vn 0.99999168844277 0 0.0040771369094033385
vn -0.99999168844277 0 -0.0040771369094033385
vn -0.9875453566590453 0 -0.15733457516121194
vn -0.7965779608248947 0 -0.604535815587507
vn 0.7965779608248947 0 0.604535815587507
vn 0.9471049759257303 0 0.3209239233474528
vn -0.9471049759257303 0 -0.3209239233474528
vn 0.989064234072792 0 -0.14748539208342418
vn -0.989064234072792 0 0.14748539208342418
vn -0.46595903004683553 0 0.8848062964953471
vn -0.6780995428289112 0 0.7349700742310682
vn 0.46595903004683553 0 -0.8848062964953471
vn 0.6780995428289112 0 -0.7349700742310682
vn -0.21171863960114684 0 -0.9773306593192704
vn 0.21171863960114684 0 0.9773306593192704
vn 0.8531495018951915 0 0.5216664906010225
vn -0.8531495018951915 0 -0.5216664906010225
vn -0.22676005886123077 0 0.9739506536294593
vn 0.22676005886123077 0 -0.9739506536294593
vn 0.9513059743184914 0 -0.3082481844649632
vn -0.9513059743184914 0 0.3082481844649632
vn -0.8947374637677856 0 -0.4465925110549781
vn 0.8947374637677856 0 0.4465925110549781
vn -0.8240060146493532 0 0.5665810514142614
vn 0.8240060146493532 0 -0.5665810514142614
vn 0.8809599530441268 0 -0.47319082951013514
vn -0.8809599530441268 0 0.47319082951013514
vn -0.010448661389967931 0 -0.9999454112476129
vn 0.010448661389967931 0 0.9999454112476129
vn 0.6540502394943478 0 0.7564511115844738
vn -0.6540502394943478 0 -0.7564511115844738
vn -0.910419941714929 0 0.4136853027698533
vn 0.910419941714929 0 -0.4136853027698533
vn -0.016855802476835022 0 0.9998579308696122
vn 0.016855802476835022 0 -0.9998579308696122
vn -0.9571067451940681 0 -0.28973553165605553
vn 0.9571067451940681 0 0.28973553165605553
vn 0.34328687447522 0 0.9392306009777549
vn -0.34328687447522 0 -0.9392306009777549
vn 0.7761171556071348 0 -0.6305887413935414
vn -0.7761171556071348 0 0.6305887413935414
vn 0.1639618496213663 0 -0.9864666805669314
vn -0.1639618496213663 0 0.9864666805669314
vn -0.01214682994647203 0 0.9999262245397165
vn 0.01214682994647203 0 -0.9999262245397165
vn -0.9630775738476361 0 0.26922404564182434
vn 0.9630775738476361 0 -0.26922404564182434
vn 0.15084475828300947 0 0.9885574636299806
vn -0.15084475828300947 0 -0.9885574636299806
vn 0.6255533533330159 0 -0.7801813905328804
vn -0.6255533533330159 0 0.7801813905328804
vn -0.99036022807716 0 -0.13851577037635693
vn 0.99036022807716 0 0.13851577037635693
vn 0.42594132233376053 0 -0.9047507888521389
vn -0.42594132233376053 0 0.9047507888521389
vn 0.20768714732426669 0 -0.9781953019905117
vn -0.20768714732426669 0 0.9781953019905117
vn 0.33752402623350825 0 -0.9413169135392832
vn -0.33752402623350825 0 0.9413169135392832
vn -0.38075346767055157 0 0.9246765904124805
vn 0.38075346767055157 0 -0.9246765904124805
vn -0.9915804326807448 0 0.1294922604817249
vn 0.9915804326807448 0 -0.1294922604817249
vn 0.3097857936937833 0 0.950806374623936
vn -0.3097857936937833 0 -0.950806374623936
vn -0.04551446604251396 0 -0.9989636797105613
vn 0.04551446604251396 0 0.9989636797105613
vn -0.6869628620767938 0 0.726692525162644
vn 0.6869628620767938 0 -0.726692525162644
vn -0.9999981335427028 0 -0.0019320743025274278
vn 0.9999981335427028 0 0.0019320743025274278
vn -0.3512018451421458 0 -0.9362997724920967
vn 0.3512018451421458 0 0.9362997724920967
vn 0.5071948852292429 0 -0.8618313920931955
vn -0.5071948852292429 0 0.8618313920931955
vn -0.8550794607388732 0 0.5184969776406779
vn 0.8550794607388732 0 -0.5184969776406779
vn 0.4667566596137005 0 0.8843857872593047
vn -0.4667566596137005 0 -0.8843857872593047
vn -0.5981103812973245 0 -0.8014137332142299
vn 0.5981103812973245 0 0.8014137332142299
vn 0.6766143496728338 0 -0.7363375732751984
vn -0.6766143496728338 0 0.7363375732751984
vn -0.9038516346578486 0 0.4278460266571788
vn 0.9038516346578486 0 -0.4278460266571788
vn 0.6122454999827298 0 0.7906677227197892
vn -0.6122454999827298 0 -0.7906677227197892
vn -0.7878821495707821 0 -0.6158260455580974
vn 0.7878821495707821 0 0.6158260455580974
vn -0.9310109372393702 0 -0.3649912803625169
vn 0.9310109372393702 0 0.3649912803625169
vn 0.8269143785457312 0 -0.562327849705425
vn -0.8269143785457312 0 0.562327849705425
vn 0.4382356403869862 0 0.8988601245436402
vn -0.4382356403869862 0 -0.8988601245436402
vn 0.7383719708147793 0 0.6743936778433636
vn -0.7383719708147793 0 -0.6743936778433636
vn -0.9726645684589597 0 -0.23221463619794896
vn 0.9726645684589597 0 0.23221463619794896
vn 0.8847376431288617 0 -0.46608937214957724
vn -0.8847376431288617 0 0.46608937214957724
vn 0 0 1
vn 0 0 -1
vn 0.8382452617192916 0 0.545293390025183
vn -0.8382452617192916 0 -0.545293390025183
vn -1 0 0
vn 1 0 0
vn 0.99233310652044 0 0.12359209401694327
vn 0.9986175053098194 0 0.05256498919235992
vn -0.9986175053098194 0 -0.05256498919235992
vn -0.99233310652044 0 -0.12359209401694327
vn 0.9100426446141996 0 0.41451463783996034
vn -0.9100426446141996 0 -0.41451463783996034
vn 0.9621656491038139 0 0.2724651604969644
vn -0.9621656491038139 0 -0.2724651604969644
usemtl material_0_0
f 1//1 2//1 3//1
f 2//1 1//1 4//1
f 3//2 2//2 1//2
f 4//2 1//2 2//2
f 5//1 3//1 2//1
f 2//2 3//2 5//2
f 6//3 1//4 3//3
f 3//5 1//6 6//5
f 4//1 1//1 7//1
f 7//2 1//2 4//2
f 4//7 8//8 2//8
f 2//9 8//9 4//10
f 9//1 3//1 5//1
f 5//2 3//2 9//2
f 5//1 2//1 10//1
f 10//2 2//2 5//2
f 1//4 6//3 11//4
f 11//6 6//5 1//6
f 3//3 12//11 6//3
f 6//5 12//12 3//5
f 7//1 1//1 13//1
f 13//2 1//2 7//2
f 7//13 14//7 4//7
f 4//10 14//10 7//14
f 8//8 4//7 14//7
f 14//10 4//10 8//9
f 15//15 2//8 8//8
f 8//9 2//9 15//16
f 9//1 16//1 3//1
f 3//2 16//2 9//2
f 17//17 9//18 5//17
f 5//19 9//20 17//19
f 2//8 15//15 10//15
f 10//16 15//16 2//9
f 5//1 10//1 18//1
f 18//2 10//2 5//2
f 8//2 11//2 6//2
f 6//1 11//1 8//1
f 11//4 19//21 1//4
f 1//6 19//22 11//6
f 12//11 3//3 16//11
f 16//12 3//5 12//12
f 12//2 20//2 6//2
f 6//1 20//1 12//1
f 13//1 1//1 19//1
f 19//2 1//2 13//2
f 13//23 21//13 7//13
f 7//14 21//14 13//24
f 14//7 7//13 21//13
f 21//14 7//14 14//10
f 11//2 8//2 14//2
f 14//1 8//1 11//1
f 8//2 17//2 15//2
f 15//1 17//1 8//1
f 22//1 16//1 9//1
f 9//2 16//2 22//2
f 9//18 17//17 20//18
f 20//20 17//19 9//20
f 5//17 23//25 17//17
f 17//19 23//26 5//19
f 24//27 10//15 15//15
f 15//16 10//16 24//28
f 10//15 24//27 18//27
f 18//28 24//28 10//16
f 5//1 18//1 25//1
f 25//2 18//2 5//2
f 6//2 17//2 8//2
f 8//1 17//1 6//1
f 19//21 11//4 26//21
f 26//22 11//6 19//22
f 27//29 12//11 16//11
f 16//12 12//12 27//30
f 12//2 28//2 20//2
f 20//1 28//1 12//1
f 6//2 20//2 17//2
f 17//1 20//1 6//1
f 13//1 19//1 29//1
f 29//2 19//2 13//2
f 21//13 13//23 30//23
f 30//24 13//24 21//14
f 11//2 14//2 21//2
f 21//1 14//1 11//1
f 15//2 17//2 24//2
f 24//1 17//1 15//1
f 22//1 27//1 16//1
f 16//2 27//2 22//2
f 9//18 28//31 22//31
f 22//32 28//32 9//20
f 28//31 9//18 20//18
f 20//20 9//20 28//32
f 23//25 5//17 25//25
f 25//26 5//19 23//26
f 24//2 17//2 23//2
f 23//1 17//1 24//1
f 31//33 18//27 24//27
f 24//28 18//28 31//34
f 25//1 18//1 32//1
f 32//2 18//2 25//2
f 11//2 30//2 26//2
f 26//1 30//1 11//1
f 26//21 33//35 19//21
f 19//22 33//36 26//22
f 12//11 27//29 34//29
f 34//30 27//30 12//12
f 34//2 28//2 12//2
f 12//1 28//1 34//1
f 29//1 19//1 35//1
f 35//2 19//2 29//2
f 29//37 30//23 13//23
f 13//24 30//24 29//38
f 11//2 21//2 30//2
f 30//1 21//1 11//1
f 36//1 27//1 22//1
f 22//2 27//2 36//2
f 37//39 22//31 28//31
f 28//32 22//32 37//40
f 25//25 38//41 23//25
f 23//26 38//42 25//26
f 24//2 23//2 31//2
f 31//1 23//1 24//1
f 18//27 31//33 32//33
f 32//34 31//34 18//28
f 25//1 32//1 39//1
f 39//2 32//2 25//2
f 26//2 30//2 40//2
f 40//1 30//1 26//1
f 33//35 26//21 41//35
f 41//36 26//22 33//36
f 35//1 19//1 33//1
f 33//2 19//2 35//2
f 42//43 34//29 27//29
f 27//30 34//30 42//44
f 34//2 37//2 28//2
f 28//1 37//1 34//1
f 43//45 29//37 35//45
f 35//46 29//38 43//46
f 30//23 29//37 40//37
f 40//38 29//38 30//24
f 36//1 42//1 27//1
f 27//2 42//2 36//2
f 22//31 37//39 36//39
f 36//40 37//40 22//32
f 38//41 25//25 44//41
f 44//42 25//26 38//42
f 45//2 23//2 38//2
f 38//1 23//1 45//1
f 31//2 23//2 46//2
f 46//1 23//1 31//1
f 46//47 32//33 31//33
f 31//34 32//34 46//48
f 32//33 46//47 39//47
f 39//48 46//48 32//34
f 25//1 39//1 47//1
f 47//2 39//2 25//2
f 26//2 40//2 43//2
f 43//1 40//1 26//1
f 26//2 43//2 41//2
f 41//1 43//1 26//1
f 41//35 48//49 33//35
f 33//36 48//50 41//36
f 35//1 33//1 49//1
f 49//2 33//2 35//2
f 34//29 42//43 50//43
f 50//44 42//44 34//30
f 50//2 37//2 34//2
f 34//1 37//1 50//1
f 29//37 43//45 40//37
f 40//38 43//46 29//38
f 35//45 51//51 43//45
f 43//46 51//52 35//46
f 52//1 42//1 36//1
f 36//2 42//2 52//2
f 53//53 36//39 37//39
f 37//40 36//40 53//54
f 25//1 54//1 44//1
f 44//2 54//2 25//2
f 44//41 55//55 38//41
f 38//42 55//56 44//42
f 56//2 23//2 45//2
f 45//1 23//1 56//1
f 45//2 38//2 57//2
f 57//1 38//1 45//1
f 46//2 23//2 56//2
f 56//1 23//1 46//1
f 46//47 47//57 39//47
f 39//48 47//58 46//48
f 25//1 47//1 54//1
f 54//2 47//2 25//2
f 41//2 43//2 51//2
f 51//1 43//1 41//1
f 48//49 41//35 58//49
f 58//50 41//36 48//50
f 59//1 33//1 48//1
f 48//2 33//2 59//2
f 49//1 33//1 59//1
f 59//2 33//2 49//2
f 51//51 35//45 49//51
f 49//52 35//46 51//52
f 60//59 50//43 42//43
f 42//44 50//44 60//60
f 50//2 53//2 37//2
f 37//1 53//1 50//1
f 52//1 60//1 42//1
f 42//2 60//2 52//2
f 36//39 53//53 52//53
f 52//54 53//54 36//40
f 44//1 54//1 61//1
f 61//2 54//2 44//2
f 55//55 44//41 62//55
f 62//56 44//42 55//56
f 63//2 38//2 55//2
f 55//1 38//1 63//1
f 54//61 56//57 45//61
f 45//62 56//58 54//62
f 57//2 38//2 63//2
f 63//1 38//1 57//1
f 61//63 45//61 57//63
f 57//64 45//62 61//64
f 47//57 46//47 56//57
f 56//58 46//48 47//58
f 56//57 54//61 47//57
f 47//58 54//62 56//58
f 41//2 51//2 64//2
f 64//1 51//1 41//1
f 41//2 64//2 58//2
f 58//1 64//1 41//1
f 58//49 65//65 48//49
f 48//50 65//66 58//50
f 59//1 48//1 66//1
f 66//2 48//2 59//2
f 64//67 49//51 59//67
f 59//68 49//52 64//68
f 49//51 64//67 51//51
f 51//52 64//68 49//52
f 50//43 60//59 67//59
f 67//60 60//60 50//44
f 67//2 53//2 50//2
f 50//1 53//1 67//1
f 68//1 60//1 52//1
f 52//2 60//2 68//2
f 69//69 52//53 53//53
f 53//54 52//54 69//70
f 45//61 61//63 54//61
f 54//62 61//64 45//62
f 44//1 61//1 70//1
f 70//2 61//2 44//2
f 44//1 70//1 62//1
f 62//2 70//2 44//2
f 62//55 71//71 55//55
f 55//56 71//72 62//56
f 63//2 55//2 72//2
f 72//1 55//1 63//1
f 70//73 57//63 63//73
f 63//74 57//64 70//74
f 57//63 70//73 61//63
f 61//64 70//74 57//64
f 58//2 64//2 73//2
f 73//1 64//1 58//1
f 65//65 58//49 74//65
f 74//66 58//50 65//66
f 66//1 48//1 65//1
f 65//2 48//2 66//2
f 73//75 59//67 66//75
f 66//76 59//68 73//76
f 59//67 73//75 64//67
f 64//68 73//76 59//68
f 75//77 67//59 60//59
f 60//60 67//60 75//78
f 67//2 69//2 53//2
f 53//1 69//1 67//1
f 60//1 68//1 75//1
f 75//2 68//2 60//2
f 52//53 69//69 68//69
f 68//70 69//70 52//54
f 62//1 70//1 76//1
f 76//2 70//2 62//2
f 71//71 62//55 77//71
f 77//72 62//56 71//72
f 72//2 55//2 71//2
f 71//1 55//1 72//1
f 76//79 63//73 72//79
f 72//80 63//74 76//80
f 63//73 76//79 70//73
f 70//74 76//80 63//74
f 58//2 73//2 74//2
f 74//1 73//1 58//1
f 74//65 78//81 65//65
f 65//66 78//82 74//66
f 66//1 65//1 79//1
f 79//2 65//2 66//2
f 79//83 73//75 66//75
f 66//76 73//76 79//84
f 67//59 75//77 80//77
f 80//78 75//78 67//60
f 69//2 67//2 80//2
f 80//1 67//1 69//1
f 68//69 80//77 75//77
f 75//78 80//78 68//70
f 80//77 68//69 69//69
f 69//70 68//70 80//78
f 62//1 76//1 77//1
f 77//2 76//2 62//2
f 77//71 81//85 71//71
f 71//72 81//86 77//72
f 72//2 71//2 82//2
f 82//1 71//1 72//1
f 72//79 83//87 76//79
f 76//80 83//88 72//80
f 74//2 73//2 84//2
f 84//1 73//1 74//1
f 78//81 74//65 85//81
f 85//82 74//66 78//82
f 79//1 65//1 78//1
f 78//2 65//2 79//2
f 73//75 79//83 84//83
f 84//84 79//84 73//76
f 77//1 76//1 83//1
f 83//2 76//2 77//2
f 81//85 77//71 86//85
f 86//86 77//72 81//86
f 87//2 71//2 81//2
f 81//1 71//1 87//1
f 82//2 71//2 87//2
f 87//1 71//1 82//1
f 83//87 72//79 82//87
f 82//88 72//80 83//88
f 74//2 84//2 85//2
f 85//1 84//1 74//1
f 85//81 88//89 78//81
f 78//82 88//90 85//82
f 79//1 78//1 89//1
f 89//2 78//2 79//2
f 89//91 84//83 79//83
f 79//84 84//84 89//92
f 77//1 83//1 90//1
f 90//2 83//2 77//2
f 77//1 90//1 86//1
f 86//2 90//2 77//2
f 86//85 91//93 81//85
f 81//86 91//94 86//86
f 87//2 81//2 92//2
f 92//1 81//1 87//1
f 90//95 82//87 87//95
f 87//96 82//88 90//96
f 82//87 90//95 83//87
f 83//88 90//96 82//88
f 85//2 84//2 93//2
f 93//1 84//1 85//1
f 88//89 85//81 94//89
f 94//90 85//82 88//90
f 95//1 78//1 88//1
f 88//2 78//2 95//2
f 89//1 78//1 95//1
f 95//2 78//2 89//2
f 84//83 89//91 93//91
f 93//92 89//92 84//84
f 86//1 90//1 96//1
f 96//2 90//2 86//2
f 91//93 86//85 97//93
f 97//94 86//86 91//94
f 98//2 81//2 91//2
f 91//1 81//1 98//1
f 92//2 81//2 99//2
f 99//1 81//1 92//1
f 92//97 90//95 87//95
f 87//96 90//96 92//98
f 85//2 93//2 100//2
f 100//1 93//1 85//1
f 85//2 100//2 94//2
f 94//1 100//1 85//1
f 94//89 101//99 88//89
f 88//90 101//100 94//90
f 95//1 88//1 101//1
f 101//2 88//2 95//2
f 100//101 89//101 95//101
f 95//102 89//102 100//102
f 89//101 100//101 93//101
f 93//102 100//102 89//102
f 90//95 92//97 96//97
f 96//98 92//98 90//96
f 86//1 96//1 102//1
f 102//2 96//2 86//2
f 86//1 103//1 97//1
f 97//2 103//2 86//2
f 97//93 104//103 91//93
f 91//94 104//104 97//94
f 98//2 99//2 81//2
f 81//1 99//1 98//1
f 98//2 91//2 104//2
f 104//1 91//1 98//1
f 99//105 96//97 92//97
f 92//98 96//98 99//106
f 94//2 100//2 105//2
f 105//1 100//1 94//1
f 101//99 94//89 105//99
f 105//100 94//90 101//100
f 101//99 100//107 95//107
f 95//108 100//108 101//100
f 96//97 99//105 102//105
f 102//106 99//106 96//98
f 102//1 103//1 86//1
f 86//2 103//2 102//2
f 97//1 103//1 106//1
f 106//2 103//2 97//2
f 104//103 97//93 106//103
f 106//104 97//94 104//104
f 107//2 99//2 98//2
f 98//1 99//1 107//1
f 98//2 104//2 108//2
f 108//1 104//1 98//1
f 100//107 101//99 105//99
f 105//100 101//100 100//108
f 99//109 109//109 102//109
f 102//110 109//110 99//110
f 109//1 103//1 102//1
f 102//2 103//2 109//2
f 106//1 103//1 110//1
f 110//2 103//2 106//2
f 110//111 104//103 106//103
f 106//104 104//104 110//112
f 99//2 107//2 111//2
f 111//1 107//1 99//1
f 103//110 107//110 98//110
f 98//109 107//109 103//109
f 104//103 110//111 108//111
f 108//112 110//112 104//104
f 98//2 108//2 112//2
f 112//1 108//1 98//1
f 109//109 99//109 111//109
f 111//110 99//110 109//110
f 103//1 109//1 113//1
f 113//2 109//2 103//2
f 110//1 103//1 114//1
f 114//2 103//2 110//2
f 107//113 109//113 111//113
f 111//114 109//114 107//114
f 107//110 103//110 113//110
f 113//109 103//109 107//109
f 115//115 103//116 98//116
f 98//117 103//117 115//118
f 114//119 108//111 110//111
f 110//112 108//112 114//120
f 108//111 114//119 112//119
f 112//120 114//120 108//112
f 98//2 112//2 116//2
f 116//1 112//1 98//1
f 109//113 107//113 113//113
f 113//114 107//114 109//114
f 114//1 103//1 117//1
f 117//2 103//2 114//2
f 103//116 115//115 118//115
f 118//118 115//118 103//117
f 98//2 116//2 115//2
f 115//1 116//1 98//1
f 117//121 112//119 114//119
f 114//120 112//120 117//122
f 112//119 117//121 116//121
f 116//122 117//122 112//120
f 117//1 103//1 118//1
f 118//2 103//2 117//2
f 116//121 118//115 115//115
f 115//118 118//118 116//122
f 118//115 116//121 117//121
f 117//122 116//122 118//118
