# SSTK version 0.8.0
# 52
mtllib original-52.mtl
o mesh139/mesh139-geometry#mesh139-geometry
v 0.195561 -0.197827 0.403156
v 0.200901 -0.197827 0.416387
v 0.200901 -0.197827 0.403156
v 0.199538 -0.197827 0.426625
v 0.200901 -0.199062 0.403156
v 0.197798 -0.197827 0.425282
v 0.201071 -0.197827 0.418286
v 0.200901 -0.199062 0.416387
v 0.195561 -0.199062 0.403156
v 0.196555 -0.197827 0.423393
v 0.197798 -0.199062 0.425282
v 0.201376 -0.197827 0.427285
v 0.199538 -0.199062 0.426625
v 0.195561 -0.199062 0.417972
v 0.195810 -0.197827 0.420956
v 0.196555 -0.199062 0.423393
v 0.201579 -0.197827 0.419607
v 0.201071 -0.199062 0.418286
v 0.195561 -0.197827 0.417972
v 0.195810 -0.199062 0.420956
v 0.202442 -0.197827 0.420437
v 0.201376 -0.199062 0.427285
v 0.203579 -0.197827 0.427505
v 0.202442 -0.199062 0.420437
v 0.201579 -0.199062 0.419607
v 0.203579 -0.197827 0.420714
v 0.203579 -0.199062 0.420714
v 0.203579 -0.199062 0.427505
v 0.204729 -0.197827 0.420437
v 0.205759 -0.197827 0.427282
v 0.205596 -0.197827 0.419607
v 0.204729 -0.199062 0.420437
v 0.205759 -0.199062 0.427282
v 0.205596 -0.199062 0.419607
v 0.207609 -0.197827 0.426612
v 0.206104 -0.197827 0.418286
v 0.206104 -0.199062 0.418286
v 0.207609 -0.199062 0.426612
v 0.206274 -0.197827 0.416387
v 0.206274 -0.199062 0.416387
v 0.209127 -0.197827 0.425496
v 0.206274 -0.197827 0.403156
v 0.206274 -0.199062 0.403156
v 0.209127 -0.199062 0.425496
v 0.210315 -0.197827 0.423933
v 0.210315 -0.199062 0.423933
v 0.211614 -0.199062 0.403156
v 0.210883 -0.197827 0.422712
v 0.210883 -0.199062 0.422712
v 0.211614 -0.197827 0.403156
v 0.211289 -0.199062 0.421311
v 0.211289 -0.197827 0.421311
v 0.211614 -0.197827 0.417972
v 0.211614 -0.199062 0.417972
vn 0 1 0
vn 0 -1 0
vn 0.9990161424362154 0 -0.04434802308856041
vn 1 0 0
vn -1 0 0
vn -0.9990161424362154 0 0.04434802308856041
vn 0 0 -1
vn 0 0 1
vn -0.7411401458437623 0 0.6713503438732169
vn -0.4864322300951541 0 0.8737183101690471
vn 0.7411401458437623 0 -0.6713503438732169
vn 0.4864322300951541 0 -0.8737183101690471
vn 0.9752949252772216 0 -0.22090678742061917
vn -0.9752949252772216 0 0.22090678742061917
vn -0.9991410142657381 0 0.041439517516882816
vn 0.9991410142657381 0 -0.041439517516882816
vn -0.9086526821293718 0 0.4175527550610807
vn 0.9086526821293718 0 -0.4175527550610807
vn -0.22228435084958437 0 0.9749818805328533
vn 0.22228435084958437 0 -0.9749818805328533
vn -0.982522129436764 0 0.18614581694748633
vn 0.982522129436764 0 -0.18614581694748633
vn 0.8445574055965949 0 -0.5354650209415631
vn -0.8445574055965949 0 0.5354650209415631
vn 0.49877175238459526 0 -0.8667333725103703
vn -0.49877175238459526 0 0.8667333725103703
vn 0.0012506324532175947 0 0.9999992179589278
vn -0.0012506324532175947 0 -0.9999992179589278
vn 0.001256831365150259 0 -0.999999210187148
vn -0.001256831365150259 0 0.999999210187148
vn 0.22478363188846257 0 0.9744087021548157
vn -0.22478363188846257 0 -0.9744087021548157
vn -0.49663181370322135 0 -0.8679613134338701
vn 0.49663181370322135 0 0.8679613134338701
vn -0.8440485046446633 0 -0.5362668382504253
vn 0.8440485046446633 0 0.5362668382504253
vn 0.47623800915135106 0 0.8793164155408209
vn -0.47623800915135106 0 -0.8793164155408209
vn -0.9752949252772218 0 -0.22090678742061845
vn 0.9752949252772218 0 0.22090678742061845
vn 0.7073383996441596 0 0.7068750868356016
vn -0.7073383996441596 0 -0.7068750868356016
vn -0.9990161424362154 0 -0.044348023088559695
vn 0.9990161424362154 0 0.044348023088559695
vn 0.8590000339998318 0 0.5119755283099846
vn -0.8590000339998318 0 -0.5119755283099846
vn 0.9371788337521051 0 0.34884929922108837
vn -0.9371788337521051 0 -0.34884929922108837
vn 0.9988338752613681 0 0.048279287798785535
vn -0.9988338752613681 0 -0.048279287798785535
vn 0.9825008420068438 0 0.18625814198537183
vn -0.9825008420068438 0 -0.18625814198537183
usemtl material_0_0
f 1//1 2//1 3//1
f 2//1 1//1 4//1
f 3//2 2//2 1//2
f 4//2 1//2 2//2
f 2//3 5//4 3//4
f 3//5 5//5 2//6
f 5//7 1//7 3//7
f 3//8 1//8 5//8
f 4//1 1//1 6//1
f 6//2 1//2 4//2
f 4//1 7//1 2//1
f 2//2 7//2 4//2
f 5//4 2//3 8//3
f 8//6 2//6 5//5
f 1//7 5//7 9//7
f 9//8 5//8 1//8
f 6//1 1//1 10//1
f 10//2 1//2 6//2
f 11//9 4//10 6//9
f 6//11 4//12 11//11
f 12//1 7//1 4//1
f 4//2 7//2 12//2
f 7//13 8//3 2//3
f 2//6 8//6 7//14
f 8//2 13//2 5//2
f 5//1 13//1 8//1
f 5//2 13//2 9//2
f 9//1 13//1 5//1
f 14//15 1//5 9//5
f 9//4 1//4 14//16
f 10//1 1//1 15//1
f 15//2 1//2 10//2
f 16//17 6//9 10//17
f 10//18 6//11 16//18
f 4//10 11//9 13//10
f 13//12 11//11 4//12
f 6//9 16//17 11//9
f 11//11 16//18 6//11
f 12//1 17//1 7//1
f 7//2 17//2 12//2
f 13//10 12//19 4//10
f 4//12 12//20 13//12
f 8//3 7//13 18//13
f 18//14 7//14 8//6
f 18//2 13//2 8//2
f 8//1 13//1 18//1
f 9//2 13//2 11//2
f 11//1 13//1 9//1
f 1//5 14//15 19//15
f 19//16 14//16 1//4
f 9//2 20//2 14//2
f 14//1 20//1 9//1
f 15//1 1//1 19//1
f 19//2 1//2 15//2
f 15//21 16//17 10//17
f 10//18 16//18 15//22
f 9//2 11//2 16//2
f 16//1 11//1 9//1
f 12//1 21//1 17//1
f 17//2 21//2 12//2
f 17//23 18//13 7//13
f 7//14 18//14 17//24
f 12//19 13//10 22//19
f 22//20 13//12 12//20
f 18//2 22//2 13//2
f 13//1 22//1 18//1
f 20//21 19//15 14//15
f 14//16 19//16 20//22
f 9//2 16//2 20//2
f 20//1 16//1 9//1
f 19//15 20//21 15//21
f 15//22 20//22 19//16
f 16//17 15//21 20//21
f 20//22 15//22 16//18
f 23//1 21//1 12//1
f 12//2 21//2 23//2
f 24//25 17//23 21//25
f 21//26 17//24 24//26
f 18//13 17//23 25//23
f 25//24 17//24 18//14
f 22//19 23//27 12//19
f 12//20 23//28 22//20
f 25//2 22//2 18//2
f 18//1 22//1 25//1
f 23//1 26//1 21//1
f 21//2 26//2 23//2
f 17//23 24//25 25//23
f 25//24 24//26 17//24
f 21//25 27//29 24//25
f 24//26 27//30 21//26
f 23//27 22//19 28//27
f 28//28 22//20 23//28
f 24//2 22//2 25//2
f 25//1 22//1 24//1
f 23//1 29//1 26//1
f 26//2 29//2 23//2
f 27//29 21//25 26//29
f 26//30 21//26 27//30
f 27//2 22//2 24//2
f 24//1 22//1 27//1
f 27//2 28//2 22//2
f 22//1 28//1 27//1
f 28//27 30//31 23//27
f 23//28 30//32 28//28
f 23//1 31//1 29//1
f 29//2 31//2 23//2
f 32//33 26//29 29//33
f 29//34 26//30 32//34
f 26//29 32//33 27//29
f 27//30 32//34 26//30
f 32//2 28//2 27//2
f 27//1 28//1 32//1
f 30//31 28//27 33//31
f 33//32 28//28 30//32
f 30//1 31//1 23//1
f 23//2 31//2 30//2
f 34//35 29//33 31//35
f 31//36 29//34 34//36
f 29//33 34//35 32//33
f 32//34 34//36 29//34
f 34//2 28//2 32//2
f 32//1 28//1 34//1
f 34//2 33//2 28//2
f 28//1 33//1 34//1
f 33//31 35//37 30//31
f 30//32 35//38 33//32
f 30//1 36//1 31//1
f 31//2 36//2 30//2
f 36//39 34//35 31//35
f 31//36 34//36 36//40
f 37//2 33//2 34//2
f 34//1 33//1 37//1
f 35//37 33//31 38//37
f 38//38 33//32 35//38
f 35//1 39//1 30//1
f 30//2 39//2 35//2
f 30//1 39//1 36//1
f 36//2 39//2 30//2
f 34//35 36//39 37//39
f 37//40 36//40 34//36
f 40//2 33//2 37//2
f 37//1 33//1 40//1
f 33//2 40//2 38//2
f 38//1 40//1 33//1
f 38//37 41//41 35//37
f 35//38 41//42 38//38
f 35//1 42//1 39//1
f 39//2 42//2 35//2
f 39//43 37//39 36//39
f 36//40 37//40 39//44
f 37//39 39//43 40//43
f 40//44 39//44 37//40
f 43//2 38//2 40//2
f 40//1 38//1 43//1
f 41//41 38//37 44//41
f 44//42 38//38 41//42
f 41//1 42//1 35//1
f 35//2 42//2 41//2
f 42//5 40//43 39//43
f 39//44 40//44 42//4
f 43//2 44//2 38//2
f 38//1 44//1 43//1
f 40//43 42//5 43//5
f 43//4 42//4 40//44
f 44//41 45//45 41//41
f 41//42 45//46 44//42
f 45//1 42//1 41//1
f 41//2 42//2 45//2
f 43//2 46//2 44//2
f 44//1 46//1 43//1
f 42//7 47//7 43//7
f 43//8 47//8 42//8
f 45//45 44//41 46//45
f 46//46 44//42 45//46
f 48//1 42//1 45//1
f 45//2 42//2 48//2
f 43//2 49//2 46//2
f 46//1 49//1 43//1
f 47//7 42//7 50//7
f 50//8 42//8 47//8
f 47//2 51//2 43//2
f 43//1 51//1 47//1
f 49//47 45//45 46//45
f 46//46 45//46 49//48
f 52//1 42//1 48//1
f 48//2 42//2 52//2
f 45//45 49//47 48//47
f 48//48 49//48 45//46
f 43//2 51//2 49//2
f 49//1 51//1 43//1
f 42//1 53//1 50//1
f 50//2 53//2 42//2
f 53//49 47//4 50//4
f 50//5 47//5 53//50
f 51//2 47//2 54//2
f 54//1 47//1 51//1
f 53//1 42//1 52//1
f 52//2 42//2 53//2
f 48//47 51//51 52//51
f 52//52 51//52 48//48
f 51//51 48//47 49//47
f 49//48 48//48 51//52
f 47//4 53//49 54//49
f 54//50 53//50 47//5
f 54//49 52//51 51//51
f 51//52 52//52 54//50
f 52//51 54//49 53//49
f 53//50 54//50 52//52
