# SSTK version 0.8.0
# 64
mtllib original-64.mtl
o mesh175/mesh175-geometry#mesh175-geometry
v 0.018203 0.248597 -0.437476
v 0.031923 0.252634 -0.427606
v 0.018203 0.252634 -0.427606
v 0.031923 0.248597 -0.437476
v 0.007048 0.294762 -0.456358
v 0.022563 0.290441 -0.454591
v 0.007048 0.298799 -0.446488
v 0.015329 0.306774 -0.461271
v 0.022563 0.294478 -0.444721
v 0.015329 0.310811 -0.451401
v 0.040242 0.306774 -0.461271
v 0.043077 0.294478 -0.444721
v 0.043077 0.290441 -0.454591
v 0.040242 0.310811 -0.451401
v 0.037500 0.383357 -0.492594
v 0.055320 0.252634 -0.427606
v 0.012683 0.387394 -0.482725
v 0.055320 0.248597 -0.437476
v 0.012683 0.383357 -0.492594
v 0.079243 0.248597 -0.437476
v 0.079243 0.252634 -0.427606
v 0.037500 0.387394 -0.482725
vn -0.5045120360681546 -0.8236567050832634 -0.2589541226428859
vn 0.7496723849870246 -0.6125521377118467 0.2505418004495721
vn -0.6048004626036577 -0.7371044693291228 0.30148532589403704
vn 0.5805417410784209 -0.713880372846564 -0.39159430553838026
vn -0.854023851802542 -0.04668473953990985 -0.5181349203117278
vn -0.9843405539130085 0.16315733851237868 -0.06673347594565242
vn -0.4048590307134116 0.5149855824835697 -0.7555653612255232
vn -0.4688657029020152 0.8175296802315977 -0.3343802843808543
vn -0.5896549301690409 0.17967116784577522 -0.787416874833324
vn -0.5882939953595308 -0.7484613142484311 0.30613042334507
vn -0.49340316829633996 -0.833902765527886 -0.24730445034426138
vn -0.7856109346495593 0.5726708062890966 -0.2342298165973791
vn 0.48960836290797183 0.42659809839058516 -0.7604588834513751
vn 0.5870985333270443 -0.6923598593753049 -0.41946768324990397
vn 0.7728735920820733 -0.5873311190138858 0.2402260753957613
vn 0.582766415999275 0.7521567421945372 -0.3076419014937017
vn 0.6048004626036577 0.7371044693291228 -0.30148532589403704
vn -0.7496723849870246 0.6125521377118467 -0.2505418004495721
vn 0.5045120360681546 0.8236567050832634 0.2589541226428859
vn -0.5805417410784209 0.713880372846564 0.39159430553838026
vn 0.854023851802542 0.04668473953990985 0.5181349203117278
vn 0.9843405539130085 -0.16315733851237868 0.06673347594565242
vn 0.4048590307134116 -0.5149855824835697 0.7555653612255232
vn 0.4688657029020152 -0.8175296802315977 0.3343802843808543
vn 0.5896549301690409 -0.17967116784577522 0.787416874833324
vn 0.5882939953595308 0.7484613142484311 -0.30613042334507
vn 0.49340316829633996 0.833902765527886 0.24730445034426138
vn 0.7856109346495593 -0.5726708062890966 0.2342298165973791
vn -0.48960836290797183 -0.42659809839058516 0.7604588834513751
vn -0.5870985333270443 0.6923598593753049 0.41946768324990397
vn -0.7728735920820733 0.5873311190138858 -0.2402260753957613
vn -0.582766415999275 -0.7521567421945372 0.3076419014937017
usemtl material_0_0
f 1//1 2//2 3//3
f 2//2 1//1 4//4
f 3//3 5//5 1//1
f 1//1 6//4 4//4
f 6//4 2//2 4//4
f 5//5 3//3 7//6
f 8//7 1//1 5//5
f 8//7 6//4 1//1
f 2//2 6//4 9//2
f 10//8 5//5 7//6
f 5//5 10//8 8//7
f 11//9 6//4 8//7
f 6//4 12//10 9//2
f 10//8 11//9 8//7
f 6//4 11//9 13//11
f 12//10 6//4 13//11
f 11//9 10//8 14//12
f 15//13 13//11 11//9
f 13//11 16//10 12//10
f 17//12 11//9 14//12
f 15//13 18//11 13//11
f 15//13 11//9 19//9
f 16//10 13//11 18//11
f 11//9 17//12 19//9
f 18//11 15//13 20//14
f 17//12 15//13 19//9
f 18//11 21//15 16//10
f 15//13 21//15 20//14
f 21//15 18//11 20//14
f 15//13 17//12 22//16
f 21//15 15//13 22//16
usemtl material_1_0
f 3//17 2//18 1//19
f 4//20 1//19 2//18
f 1//19 5//21 3//17
f 4//20 6//20 1//19
f 4//20 2//18 6//20
f 7//22 3//17 5//21
f 5//21 1//19 8//23
f 1//19 6//20 8//23
f 9//18 6//20 2//18
f 7//22 5//21 10//24
f 8//23 10//24 5//21
f 8//23 6//20 11//25
f 9//18 12//26 6//20
f 8//23 11//25 10//24
f 13//27 11//25 6//20
f 13//27 6//20 12//26
f 14//28 10//24 11//25
f 11//25 13//27 15//29
f 12//26 16//26 13//27
f 14//28 11//25 17//28
f 13//27 18//27 15//29
f 19//25 11//25 15//29
f 18//27 13//27 16//26
f 19//25 17//28 11//25
f 20//30 15//29 18//27
f 19//25 15//29 17//28
f 16//26 21//31 18//27
f 20//30 21//31 15//29
f 20//30 18//27 21//31
f 22//32 17//28 15//29
f 22//32 15//29 21//31
