# SSTK version 0.8.0
# 74
mtllib original-74.mtl
o #ID756
v -0.138567 0.390477 0.440053
v -0.149600 0.385090 0.503259
v -0.149541 0.383642 0.504340
v -0.149541 0.383642 0.504340
v -0.149600 0.385090 0.503259
v -0.138567 0.390477 0.440053
v -0.149616 0.385472 0.502974
v -0.143253 0.393569 0.461548
v -0.143253 0.393569 0.461548
v -0.149616 0.385472 0.502974
v -0.149534 0.383215 0.504655
v -0.150109 0.398176 0.493502
v -0.138567 0.367135 0.456042
v -0.149534 0.383215 0.504655
v -0.150109 0.398176 0.493502
v -0.138567 0.367135 0.456042
v -0.143253 0.393569 0.461548
v -0.138567 0.390477 0.440053
v -0.138567 0.382509 0.445004
v -0.138567 0.382509 0.445004
v -0.138567 0.390477 0.440053
v -0.143253 0.393569 0.461548
v -0.138567 0.414629 0.429579
v -0.143253 0.393569 0.461548
v -0.138567 0.390477 0.440053
v -0.138567 0.390477 0.440053
v -0.143253 0.393569 0.461548
v -0.138567 0.414629 0.429579
v -0.150109 0.413061 0.483161
v -0.143253 0.393569 0.461548
v -0.138567 0.390477 0.440053
v -0.148993 0.410007 0.479778
v -0.148993 0.410007 0.479778
v -0.150109 0.413061 0.483161
v -0.143253 0.393569 0.461548
v -0.138567 0.390477 0.440053
v -0.138567 0.349762 0.472597
v -0.138567 0.349762 0.472597
v -0.149541 0.383642 0.504340
v -0.149534 0.383215 0.504655
v -0.149644 0.383573 0.504999
v -0.149644 0.383573 0.504999
v -0.149534 0.383215 0.504655
v -0.149541 0.383642 0.504340
v -0.138567 0.382509 0.445004
v -0.138567 0.382509 0.445004
v -0.150109 0.409498 0.485374
v -0.150109 0.398176 0.493502
v -0.150109 0.398176 0.493502
v -0.150109 0.409498 0.485374
v -0.150109 0.398176 0.493502
v -0.150109 0.398176 0.493502
v -0.138567 0.414629 0.429579
v -0.150109 0.430409 0.475637
v -0.150109 0.430409 0.475637
v -0.138567 0.414629 0.429579
v -0.150109 0.367562 0.533157
v -0.138567 0.367135 0.456042
v -0.138567 0.367135 0.456042
v -0.150109 0.367562 0.533157
v -0.149645 0.382052 0.506734
v -0.149645 0.382052 0.506734
v -0.138567 0.367135 0.456042
v -0.150109 0.358629 0.566019
v -0.138567 0.349762 0.472597
v -0.138567 0.349762 0.472597
v -0.150109 0.358629 0.566019
v -0.138567 0.367135 0.456042
v -0.149656 0.381919 0.506973
v -0.150109 0.373393 0.522393
v -0.149656 0.381919 0.506973
v -0.150109 0.373393 0.522393
v -0.148993 0.410007 0.479778
v -0.150109 0.409498 0.485374
v -0.148993 0.410007 0.479778
v -0.150109 0.409498 0.485374
v -0.138567 0.439324 0.423248
v -0.150109 0.447458 0.471266
v -0.150109 0.447458 0.471266
v -0.138567 0.439324 0.423248
v -0.150109 0.366212 0.536266
v -0.150109 0.366212 0.536266
v -0.149656 0.381919 0.506973
v -0.138567 0.344856 0.478205
v -0.149656 0.381919 0.506973
v -0.138567 0.344856 0.478205
v -0.150109 0.361309 0.551891
v -0.150109 0.358629 0.566019
v -0.150109 0.358629 0.566019
v -0.150109 0.361309 0.551891
v -0.138567 0.349762 0.686155
v -0.138567 0.349762 0.472597
v -0.150109 0.358629 0.566019
v -0.150109 0.358629 0.566019
v -0.138567 0.349762 0.472597
v -0.138567 0.349762 0.686155
v -0.149656 0.381919 0.506973
v -0.150109 0.383261 0.508016
v -0.150109 0.373393 0.522393
v -0.149645 0.382052 0.506734
v -0.149645 0.382052 0.506734
v -0.149656 0.381919 0.506973
v -0.150109 0.383261 0.508016
v -0.150109 0.373393 0.522393
v -0.150109 0.373393 0.522393
v -0.138567 0.331935 0.497032
v -0.150109 0.373393 0.522393
v -0.138567 0.331935 0.497032
v -0.138567 0.464294 0.421130
v -0.150109 0.464294 0.469838
v -0.150109 0.464294 0.469838
v -0.138567 0.464294 0.421130
v -0.150109 0.367562 0.533157
v -0.138567 0.323887 0.511888
v -0.150109 0.367562 0.533157
v -0.138567 0.323887 0.511888
v -0.138567 0.310384 0.559937
v -0.138567 0.310384 0.598815
v -0.138567 0.309151 0.579376
v -0.138567 0.314153 0.540064
v -0.138567 0.314153 0.618688
v -0.138567 0.320674 0.639469
v -0.138567 0.320674 0.519283
v -0.138567 0.323887 0.511888
v -0.138567 0.323887 0.646864
v -0.138567 0.331935 0.497032
v -0.138567 0.331935 0.661719
v -0.138567 0.344856 0.478205
v -0.138567 0.344856 0.680547
v -0.138567 0.349762 0.472597
v -0.138567 0.349762 0.686155
v -0.138567 0.349762 0.686155
v -0.138567 0.349762 0.472597
v -0.138567 0.344856 0.680547
v -0.138567 0.344856 0.478205
v -0.138567 0.331935 0.661719
v -0.138567 0.331935 0.497032
v -0.138567 0.323887 0.646864
v -0.138567 0.323887 0.511888
v -0.138567 0.320674 0.639469
v -0.138567 0.320674 0.519283
v -0.138567 0.314153 0.540064
v -0.138567 0.314153 0.618688
v -0.138567 0.310384 0.598815
v -0.138567 0.310384 0.559937
v -0.138567 0.309151 0.579376
v -0.150109 0.383261 0.508016
v -0.149656 0.381919 0.506973
v -0.150109 0.373393 0.522393
v -0.150109 0.373393 0.522393
v -0.149656 0.381919 0.506973
v -0.150109 0.383261 0.508016
v -0.138567 0.489263 0.423248
v -0.150109 0.481129 0.471266
v -0.150109 0.481129 0.471266
v -0.138567 0.489263 0.423248
v -0.150109 0.361309 0.551891
v -0.138567 0.320674 0.519283
v -0.138567 0.314153 0.540064
v -0.150109 0.366212 0.536266
v -0.150109 0.366212 0.536266
v -0.150109 0.361309 0.551891
v -0.138567 0.320674 0.519283
v -0.138567 0.314153 0.540064
v -0.138567 0.310384 0.598815
v -0.150109 0.357782 0.579376
v -0.138567 0.309151 0.579376
v -0.150109 0.358629 0.592733
v -0.150109 0.358629 0.592733
v -0.138567 0.310384 0.598815
v -0.150109 0.357782 0.579376
v -0.138567 0.309151 0.579376
v -0.138567 0.310384 0.559937
v -0.150109 0.358629 0.566019
v -0.150109 0.358629 0.566019
v -0.138567 0.310384 0.559937
v -0.150109 0.498178 0.475637
v -0.138567 0.513958 0.429579
v -0.138567 0.513958 0.429579
v -0.150109 0.498178 0.475637
v -0.150109 0.515526 0.483161
v -0.138567 0.538110 0.440053
v -0.138567 0.538110 0.440053
v -0.150109 0.515526 0.483161
vn 0.9755671180303813 0.12636030146601956 0.17972721672388028
vn -0.2435539464677927 0.6656530251573984 0.7053988412655406
vn 0.046279442138966946 0.6077854080437592 -0.7927516073805132
vn -0.24548773987783282 0.7192346937647697 0.6499517096329325
vn 0.9658637934253086 0.18240419740604263 0.18394521281819254
vn -0.25285028403688947 0.9470359123308826 0.19796392251639408
vn -0.23123906869723984 0.8592909369094157 0.4562319353720997
vn -0.9730652171828666 -0.1472993016127826 -0.1773330168165163
vn -0.046279442138966946 -0.6077854080437592 0.7927516073805132
vn 0.25285028403688947 -0.9470359123308826 -0.19796392251639408
vn -0.9733822477886851 -0.1265433052108143 -0.19108582259333023
vn -0.9733542915697557 -0.12101529795433823 -0.19477351140173482
vn -0.9731823317462379 -0.12731860313915125 -0.19158841946122707
vn 0.9747772141414592 0.0957933805450803 0.20157631565826686
vn 0.9765721554293069 0.08367658403877201 0.1982550239559146
vn 0.9758900614709505 0.08684399471650436 0.20024162530279344
vn 0.9728075290845083 0.10608850219217408 0.20589011889625633
vn 0.9728021873955749 0.12755199731062053 0.1933556106774669
vn 0.9729763989061867 0.09833351895547945 0.2089197123810518
vn 0.9726664871309378 0.12278959733668883 0.19708531045781919
vn -0.9730896518244786 -0.16629100800207966 -0.1595112227078935
vn -0.9729070737646869 -0.16126479473495425 -0.16566680958395746
vn 0.9781288029266816 0.11961639964029425 0.17016451399251886
vn 0.972538188093959 0.12736209738876805 0.19480341077007193
vn 0.9725262479570033 0.13576250564151598 0.18910642267414096
vn 0.9693679050102545 0.1299090994341072 0.20844541400627975
vn 0.9730296775165346 0.07476835750087754 0.21822680721829257
vn 0.9402871162475168 0.30871550405202636 0.14336971987428876
vn 0.9818203628117695 0.1206079072479227 0.14656912320622528
vn -0.24775318568772142 0.948600418406959 0.1969152233315846
vn 0.9879734745478713 0.10666919716765086 0.11193791120712973
vn 0.9506215807686365 0.2581651930682835 0.17224791222233912
vn 0.9315777033063781 0.31788279880153286 0.17639021778011915
vn 0.9643493060546541 0.15551349940171919 0.2141167144707264
vn 0.9730466514124102 0.0385120416064129 0.22736982391337932
vn 0.9010848911908534 0.4122938943748058 0.13438661960487008
vn -0.9730739501540059 -0.18255950877449242 -0.14070932196445032
vn -0.9730763855054143 -0.18175519664411965 -0.1417300125752324
vn 0.7414539970494287 0.6584267934056491 0.12930633389351046
vn 0.7246077006612853 0.6770922963671164 0.1284122359538607
vn 0.6092324107475245 0.7929917210757985 -5.230434989730033e-8
vn 0.9632088270323919 0.22143080518724967 0.1523061195126773
vn -0.9729985049627694 -0.19683940066959296 -0.12053281579823381
vn -0.973000347466762 -0.19662290925215758 -0.12087082107265701
vn 0.9730530124653051 0 0.2305815147235243
vn -0.9729041893220075 -0.2056897976640788 -0.10558951433072128
vn -0.9729028694982139 -0.20557189347231425 -0.1058310121672694
vn 1 0 -8.585279987216797e-8
vn -0.9661408449805228 -0.21273280904527145 -0.14600212195728401
vn 0.9730466514124102 -0.038512041606412736 0.22736982391337932
vn -0.9729348125163153 -0.22563000392566449 -0.049889396892997144
vn -0.9729203193218537 -0.21869770485382586 -0.07481554746395312
vn -0.9729316255423296 -0.2257477069595363 -0.049416847552948395
vn -0.9729226935734757 -0.21855819905933593 -0.07519139547629511
vn -0.9729400031017296 -0.23005600322563965 0.021493853638911146
vn -0.9729713375238007 -0.23092591096959947 8.353233106323753e-8
vn -0.9729713375238007 -0.23092591096959947 8.353233125969753e-8
vn -0.9729438424450746 -0.22998801253590323 0.02204072453435135
vn -0.972939995767588 -0.22819320031621337 -0.03627158619649888
vn -0.9729438449877419 -0.2282630118749007 -0.035724948009310094
vn 0.9730296775165346 -0.07476835750087737 0.21822680721829257
vn 0.9728669263167397 -0.09205741158850676 0.21226251824249107
vn 0.2435539464677927 -0.6656530251573984 -0.7053988412655406
vn -0.9755671180303813 -0.12636030146601956 -0.17972721672388028
vn -0.9658637934253086 -0.18240419740604263 -0.18394521281819254
vn 0.24548773987783282 -0.7192346937647697 -0.6499517096329325
vn 0.23123906869723984 -0.8592909369094157 -0.4562319353720997
vn 0.9730652171828666 0.1472993016127826 0.1773330168165163
vn 0.9731823317462379 0.12731860313915125 0.19158841946122707
vn 0.9733542915697557 0.12101529795433823 0.19477351140173482
vn 0.9733822477886851 0.1265433052108143 0.19108582259333023
vn -0.9758900614709505 -0.08684399471650436 -0.20024162530279344
vn -0.9765721554293069 -0.08367658403877201 -0.1982550239559146
vn -0.9747772141414592 -0.0957933805450803 -0.20157631565826686
vn -0.9726664871309378 -0.12278959733668883 -0.19708531045781919
vn -0.9728075290845083 -0.10608850219217408 -0.20589011889625633
vn -0.9728021873955749 -0.12755199731062053 -0.1933556106774669
vn -0.9729763989061867 -0.09833351895547945 -0.2089197123810518
vn 0.9730896518244786 0.16629100800207966 0.1595112227078935
vn 0.9729070737646869 0.16126479473495425 0.16566680958395746
vn -0.9781288029266816 -0.11961639964029425 -0.17016451399251886
vn -0.9725262479570033 -0.13576250564151598 -0.18910642267414096
vn -0.972538188093959 -0.12736209738876805 -0.19480341077007193
vn -0.9693679050102545 -0.1299090994341072 -0.20844541400627975
vn -0.9730296775165346 -0.07476835750087754 -0.21822680721829257
vn -0.9818203628117695 -0.1206079072479227 -0.14656912320622528
vn -0.9402871162475168 -0.30871550405202636 -0.14336971987428876
vn 0.24775318568772142 -0.948600418406959 -0.1969152233315846
vn -0.9879734745478713 -0.10666919716765086 -0.11193791120712973
vn -0.9506215807686365 -0.2581651930682835 -0.17224791222233912
vn -0.9315777033063781 -0.31788279880153286 -0.17639021778011915
vn -0.9643493060546541 -0.15551349940171919 -0.2141167144707264
vn -0.9730466514124102 -0.0385120416064129 -0.22736982391337932
vn -0.9010848911908534 -0.4122938943748058 -0.13438661960487008
vn 0.9730739501540059 0.18255950877449242 0.14070932196445032
vn 0.9730763855054143 0.18175519664411965 0.1417300125752324
vn -0.7246077006612853 -0.6770922963671164 -0.1284122359538607
vn -0.7414539970494287 -0.6584267934056491 -0.12930633389351046
vn -0.6092324107475245 -0.7929917210757985 5.230434989730033e-8
vn -0.9632088270323919 -0.22143080518724967 -0.1523061195126773
vn 0.9729985049627694 0.19683940066959296 0.12053281579823381
vn 0.973000347466762 0.19662290925215758 0.12087082107265701
vn -0.9730530124653051 0 -0.2305815147235243
vn 0.9729041893220075 0.2056897976640788 0.10558951433072128
vn 0.9729028694982139 0.20557189347231425 0.1058310121672694
vn -1 0 8.585279987216797e-8
vn 0.9661408449805228 0.21273280904527145 0.14600212195728401
vn -0.9730466514124102 0.038512041606412736 -0.22736982391337932
vn 0.9729226935734757 0.21855819905933593 0.07519139547629511
vn 0.9729348125163153 0.22563000392566449 0.049889396892997144
vn 0.9729203193218537 0.21869770485382586 0.07481554746395312
vn 0.9729316255423296 0.2257477069595363 0.049416847552948395
vn 0.9729438424450746 0.22998801253590323 -0.02204072453435135
vn 0.9729400031017296 0.23005600322563965 -0.021493853638911146
vn 0.9729713375238007 0.23092591096959947 -8.353233106323753e-8
vn 0.9729713375238007 0.23092591096959947 -8.353233125969753e-8
vn 0.9729438449877419 0.2282630118749007 0.035724948009310094
vn 0.972939995767588 0.22819320031621337 0.03627158619649888
vn -0.9730296775165346 0.07476835750087737 -0.21822680721829257
vn -0.9728669263167397 0.09205741158850676 -0.21226251824249107
usemtl material_0_0
f 1//1 2//2 3//3
f 1//1 7//4 2//2
f 7//4 1//1 8//5
f 11//6 12//7 13//8
f 12//7 11//6 7//4
f 7//4 11//6 4//9
f 7//4 4//9 2//2
f 1//1 4//9 14//10
f 12//7 7//4 8//5
f 17//11 18//12 19//13
f 23//14 24//15 25//16
f 29//17 30//18 31//19
f 30//18 29//17 32//20
f 12//7 19//13 13//8
f 11//6 13//8 37//21
f 39//22 40//22 41//22
f 1//1 14//10 45//23
f 47//24 48//25 30//18
f 23//14 51//26 24//15
f 12//7 17//11 19//13
f 53//27 29//17 31//19
f 29//17 53//27 54//27
f 32//20 47//24 30//18
f 47//24 32//20 29//17
f 45//23 57//28 58//29
f 11//6 37//21 61//30
f 63//31 64//31 65//31
f 45//23 69//32 70//33
f 69//32 45//23 61//30
f 61//30 45//23 11//6
f 51//26 73//34 74//34
f 73//34 51//26 23//14
f 77//35 54//27 53//27
f 54//27 77//35 78//35
f 45//23 70//33 57//28
f 57//28 81//36 58//29
f 83//37 37//21 84//38
f 37//21 83//37 61//30
f 58//29 87//39 88//40
f 91//41 92//41 93//41
f 97//42 98//42 99//42
f 98//42 97//42 100//42
f 105//43 84//38 106//44
f 84//38 105//43 83//37
f 109//45 78//35 77//35
f 78//35 109//45 110//45
f 113//46 106//44 114//47
f 106//44 113//46 105//43
f 58//29 81//36 87//39
f 117//48 118//48 119//48
f 118//48 117//48 120//48
f 118//48 120//48 121//48
f 121//48 120//48 122//48
f 122//48 120//48 123//48
f 122//48 123//48 124//48
f 122//48 124//48 125//48
f 125//48 124//48 126//48
f 125//48 126//48 127//48
f 127//48 126//48 128//48
f 127//48 128//48 129//48
f 129//48 128//48 130//48
f 129//48 130//48 131//48
f 147//49 148//49 149//49
f 153//50 110//45 109//45
f 110//45 153//50 154//50
f 157//51 158//52 159//53
f 158//52 157//51 160//54
f 165//55 166//56 167//57
f 166//56 165//55 168//58
f 166//56 173//59 167//57
f 173//59 166//56 174//60
f 153//50 177//61 154//50
f 177//61 153//50 178//61
f 178//61 181//62 177//61
f 181//62 178//61 182//62
usemtl material_1_0
f 4//9 5//63 6//64
f 9//65 6//64 10//66
f 5//63 10//66 6//64
f 5//63 3//3 10//66
f 3//3 14//10 10//66
f 10//66 14//10 15//67
f 16//68 15//67 14//10
f 11//6 3//3 6//64
f 9//65 10//66 15//67
f 20//69 21//70 22//71
f 26//72 27//73 28//74
f 33//75 34//76 35//77
f 36//78 35//77 34//76
f 16//68 20//69 15//67
f 38//79 16//68 14//10
f 42//80 43//80 44//80
f 46//81 11//6 6//64
f 35//77 49//82 50//83
f 27//73 52//84 28//74
f 20//69 22//71 15//67
f 55//85 56//85 34//76
f 36//78 34//76 56//85
f 34//76 33//75 50//83
f 35//77 50//83 33//75
f 59//86 60//87 46//81
f 62//88 38//79 14//10
f 66//89 67//89 68//89
f 14//10 46//81 62//88
f 62//88 46//81 71//90
f 72//91 71//90 46//81
f 28//74 52//84 75//92
f 76//92 75//92 52//84
f 79//93 80//93 55//85
f 56//85 55//85 80//93
f 60//87 72//91 46//81
f 59//86 82//94 60//87
f 62//88 85//95 38//79
f 86//96 38//79 85//95
f 89//97 90//98 59//86
f 94//99 95//99 96//99
f 101//100 102//100 103//100
f 104//100 103//100 102//100
f 85//95 107//101 86//96
f 108//102 86//96 107//101
f 111//103 112//103 79//93
f 80//93 79//93 112//103
f 107//101 115//104 108//102
f 116//105 108//102 115//104
f 90//98 82//94 59//86
f 132//106 133//106 134//106
f 133//106 135//106 134//106
f 134//106 135//106 136//106
f 135//106 137//106 136//106
f 136//106 137//106 138//106
f 137//106 139//106 138//106
f 138//106 139//106 140//106
f 139//106 141//106 140//106
f 141//106 142//106 140//106
f 140//106 142//106 143//106
f 143//106 142//106 144//106
f 142//106 145//106 144//106
f 146//106 144//106 145//106
f 150//107 151//107 152//107
f 155//108 156//108 111//103
f 112//103 111//103 156//108
f 161//109 162//110 163//111
f 164//112 163//111 162//110
f 169//113 170//114 171//115
f 172//116 171//115 170//114
f 175//117 171//115 176//118
f 172//116 176//118 171//115
f 179//119 156//108 180//119
f 155//108 180//119 156//108
f 183//120 179//119 184//120
f 180//119 184//120 179//119
