# SSTK version 0.8.0
# 27
mtllib original-27.mtl
o #ID151
v -0.211040 -0.368561 0.459653
v -0.192266 -0.368746 0.433683
v -0.211105 -0.368746 0.459612
v -0.192207 -0.368561 0.433731
v -0.192207 -0.368561 0.433731
v -0.211040 -0.368561 0.459653
v -0.192266 -0.368746 0.433683
v -0.211105 -0.368746 0.459612
v -0.211040 -0.368561 0.459653
v -0.192266 -0.368746 0.433683
v -0.211105 -0.368746 0.459612
v -0.192207 -0.368561 0.433731
v -0.192207 -0.368561 0.433731
v -0.211040 -0.368561 0.459653
v -0.192266 -0.368746 0.433683
v -0.211105 -0.368746 0.459612
vn -0.7474342869221119 0.38268346111030216 -0.5430426827845803
vn 0.7474342869221119 -0.38268346111030216 0.5430426827845803
vn -0.7817739219713573 0.25732345837623527 -0.5679913491373052
vn 0.7817739219713573 -0.25732345837623527 0.5679913491373052
usemtl material_0_0
f 1//1 2//1 3//1
f 2//1 1//1 4//1
f 5//2 6//2 7//2
f 8//2 7//2 6//2
f 9//3 10//3 11//3
f 10//3 9//3 12//3
f 13//4 14//4 15//4
f 16//4 15//4 14//4
