# SSTK version 0.8.0
# 62
mtllib original-62.mtl
o #ID411
v -0.067309 -0.433198 -0.765711
v 0.076077 -0.433198 -0.765711
v 0.004384 -0.433198 -0.770221
v -0.137872 -0.433198 -0.752250
v 0.146640 -0.433198 -0.752250
v -0.206191 -0.433198 -0.730052
v 0.214960 -0.433198 -0.730052
v -0.271190 -0.433198 -0.699466
v 0.279957 -0.433198 -0.699466
v 0.340610 -0.433198 -0.660975
v -0.331842 -0.433198 -0.660975
v 0.395960 -0.433198 -0.615185
v -0.387192 -0.433198 -0.615185
v 0.445135 -0.433198 -0.562820
v -0.436367 -0.433198 -0.562820
v -0.478590 -0.433198 -0.504704
v 0.487358 -0.433198 -0.504704
v -0.513197 -0.433198 -0.441754
v 0.521965 -0.433198 -0.441754
v 0.548409 -0.433198 -0.374964
v -0.539641 -0.433198 -0.374964
v 0.566274 -0.433198 -0.305385
v -0.557506 -0.433198 -0.305385
v 0.575278 -0.433198 -0.234117
v -0.566509 -0.433198 -0.234117
v 0.575278 -0.433198 -0.162282
v -0.566509 -0.433198 -0.162281
v 0.566274 -0.433198 -0.091013
v -0.557506 -0.433198 -0.091013
v 0.548409 -0.433198 -0.021435
v -0.539641 -0.433198 -0.021434
v 0.521965 -0.433198 0.045356
v -0.513197 -0.433198 0.045356
v 0.487358 -0.433198 0.108305
v -0.478590 -0.433198 0.108305
v -0.436367 -0.433198 0.166421
v 0.445135 -0.433198 0.166421
v 0.395960 -0.433198 0.218787
v -0.387192 -0.433198 0.218788
v -0.331842 -0.433198 0.264577
v 0.340610 -0.433198 0.264577
v 0.279958 -0.433198 0.303068
v -0.271190 -0.433198 0.303068
v 0.214960 -0.433198 0.333654
v -0.206191 -0.433198 0.333654
v -0.137872 -0.433198 0.355852
v 0.146640 -0.433198 0.355852
v -0.067309 -0.433198 0.369312
v 0.076077 -0.433198 0.369312
v 0.004384 -0.433198 0.373823
vn 0 1 0
usemtl material_0_0
f 1//1 2//1 3//1
f 2//1 1//1 4//1
f 2//1 4//1 5//1
f 5//1 4//1 6//1
f 5//1 6//1 7//1
f 7//1 6//1 8//1
f 7//1 8//1 9//1
f 9//1 8//1 10//1
f 10//1 8//1 11//1
f 10//1 11//1 12//1
f 12//1 11//1 13//1
f 12//1 13//1 14//1
f 14//1 13//1 15//1
f 14//1 15//1 16//1
f 14//1 16//1 17//1
f 17//1 16//1 18//1
f 17//1 18//1 19//1
f 19//1 18//1 20//1
f 20//1 18//1 21//1
f 20//1 21//1 22//1
f 22//1 21//1 23//1
f 22//1 23//1 24//1
f 24//1 23//1 25//1
f 24//1 25//1 26//1
f 26//1 25//1 27//1
f 26//1 27//1 28//1
f 28//1 27//1 29//1
f 28//1 29//1 30//1
f 30//1 29//1 31//1
f 30//1 31//1 32//1
f 32//1 31//1 33//1
f 32//1 33//1 34//1
f 34//1 33//1 35//1
f 34//1 35//1 36//1
f 34//1 36//1 37//1
f 37//1 36//1 38//1
f 38//1 36//1 39//1
f 38//1 39//1 40//1
f 38//1 40//1 41//1
f 41//1 40//1 42//1
f 42//1 40//1 43//1
f 42//1 43//1 44//1
f 44//1 43//1 45//1
f 44//1 45//1 46//1
f 44//1 46//1 47//1
f 47//1 46//1 48//1
f 47//1 48//1 49//1
f 49//1 48//1 50//1
