# SSTK version 0.8.0
# 108
mtllib original-108.mtl
o #ID546
v -0.009612 0.289017 0.647520
v -0.010217 0.267088 0.634771
v -0.016040 0.289017 0.644857
v -0.007911 0.258407 0.630779
v -0.006598 0.267088 0.636270
v -0.005405 0.258407 0.631817
v -0.005405 0.258407 0.631817
v -0.006598 0.267088 0.636270
v -0.007911 0.258407 0.630779
v -0.009612 0.289017 0.647520
v -0.010217 0.267088 0.634771
v -0.016040 0.289017 0.644857
v 0.004183 0.289017 0.596036
v -0.009612 0.289017 0.596036
v -0.002715 0.289017 0.595128
v 0.010610 0.289017 0.598698
v -0.016040 0.289017 0.598698
v 0.016130 0.289017 0.602933
v -0.021559 0.289017 0.602933
v 0.020365 0.289017 0.608453
v -0.025794 0.289017 0.608453
v 0.023027 0.289017 0.614880
v -0.028457 0.289017 0.614880
v 0.023935 0.289017 0.621778
v -0.029365 0.289017 0.621778
v 0.023027 0.289017 0.628675
v -0.028457 0.289017 0.628675
v 0.020365 0.289017 0.635103
v -0.025794 0.289017 0.635103
v 0.016130 0.289017 0.640622
v -0.021559 0.289017 0.640622
v -0.016040 0.289017 0.644857
v 0.010610 0.289017 0.644857
v 0.004183 0.289017 0.647520
v -0.009612 0.289017 0.647520
v -0.002715 0.289017 0.648428
v -0.002715 0.289017 0.648428
v 0.004183 0.289017 0.647520
v -0.009612 0.289017 0.647520
v -0.016040 0.289017 0.644857
v 0.010610 0.289017 0.644857
v 0.016130 0.289017 0.640622
v -0.021559 0.289017 0.640622
v -0.025794 0.289017 0.635103
v 0.020365 0.289017 0.635103
v -0.028457 0.289017 0.628675
v 0.023027 0.289017 0.628675
v -0.029365 0.289017 0.621778
v 0.023935 0.289017 0.621778
v -0.028457 0.289017 0.614880
v 0.023027 0.289017 0.614880
v -0.025794 0.289017 0.608453
v 0.020365 0.289017 0.608453
v -0.021559 0.289017 0.602933
v 0.016130 0.289017 0.602933
v -0.016040 0.289017 0.598698
v 0.010610 0.289017 0.598698
v -0.009612 0.289017 0.596036
v 0.004183 0.289017 0.596036
v -0.002715 0.289017 0.595128
v -0.002715 0.289017 0.648428
v -0.002715 0.258407 0.632171
v -0.002715 0.267088 0.636781
v -0.002715 0.267088 0.636781
v -0.002715 0.289017 0.648428
v -0.002715 0.258407 0.632171
v -0.013324 0.267088 0.632387
v -0.021559 0.289017 0.640622
v -0.010064 0.258407 0.629127
v -0.010064 0.258407 0.629127
v -0.013324 0.267088 0.632387
v -0.021559 0.289017 0.640622
v 0.004635 0.258407 0.614428
v 0.004787 0.267088 0.608784
v 0.002482 0.258407 0.612777
v 0.007894 0.267088 0.611169
v 0.010610 0.289017 0.598698
v 0.016130 0.289017 0.602933
v 0.016130 0.289017 0.602933
v 0.007894 0.267088 0.611169
v 0.010610 0.289017 0.598698
v 0.004787 0.267088 0.608784
v 0.004635 0.258407 0.614428
v 0.002482 0.258407 0.612777
v 0.010279 0.267088 0.614276
v 0.006286 0.258407 0.616581
v 0.020365 0.289017 0.608453
v 0.020365 0.289017 0.608453
v 0.010279 0.267088 0.614276
v 0.006286 0.258407 0.616581
v 0.011778 0.267088 0.617894
v 0.007325 0.258407 0.619088
v 0.023027 0.289017 0.614880
v 0.023027 0.289017 0.614880
v 0.011778 0.267088 0.617894
v 0.007325 0.258407 0.619088
v 0.012289 0.267088 0.621778
v 0.007679 0.258407 0.621778
v 0.023935 0.289017 0.621778
v 0.023935 0.289017 0.621778
v 0.012289 0.267088 0.621778
v 0.007679 0.258407 0.621778
v 0.011778 0.267088 0.625661
v 0.007325 0.258407 0.624468
v 0.023027 0.289017 0.628675
v 0.023027 0.289017 0.628675
v 0.011778 0.267088 0.625661
v 0.007325 0.258407 0.624468
v 0.010279 0.267088 0.629279
v 0.006286 0.258407 0.626974
v 0.020365 0.289017 0.635103
v 0.020365 0.289017 0.635103
v 0.010279 0.267088 0.629279
v 0.006286 0.258407 0.626974
v 0.007894 0.267088 0.632387
v 0.004635 0.258407 0.629127
v 0.016130 0.289017 0.640622
v 0.016130 0.289017 0.640622
v 0.007894 0.267088 0.632387
v 0.004635 0.258407 0.629127
v 0.004787 0.267088 0.634771
v 0.002482 0.258407 0.630779
v 0.010610 0.289017 0.644857
v 0.010610 0.289017 0.644857
v 0.004787 0.267088 0.634771
v 0.002482 0.258407 0.630779
v 0.001168 0.267088 0.636270
v -0.000025 0.258407 0.631817
v 0.004183 0.289017 0.647520
v 0.004183 0.289017 0.647520
v 0.001168 0.267088 0.636270
v -0.000025 0.258407 0.631817
v -0.015708 0.267088 0.629279
v -0.011716 0.258407 0.626974
v -0.025794 0.289017 0.635103
v -0.025794 0.289017 0.635103
v -0.015708 0.267088 0.629279
v -0.011716 0.258407 0.626974
v -0.017207 0.267088 0.625661
v -0.012754 0.258407 0.624468
v -0.028457 0.289017 0.628675
v -0.028457 0.289017 0.628675
v -0.017207 0.267088 0.625661
v -0.012754 0.258407 0.624468
v -0.017718 0.267088 0.621778
v -0.013108 0.258407 0.621778
v -0.029365 0.289017 0.621778
v -0.029365 0.289017 0.621778
v -0.017718 0.267088 0.621778
v -0.013108 0.258407 0.621778
v -0.017207 0.267088 0.617894
v -0.012754 0.258407 0.619088
v -0.028457 0.289017 0.614880
v -0.028457 0.289017 0.614880
v -0.017207 0.267088 0.617894
v -0.012754 0.258407 0.619088
v -0.015708 0.267088 0.614276
v -0.011716 0.258407 0.616581
v -0.025794 0.289017 0.608453
v -0.025794 0.289017 0.608453
v -0.015708 0.267088 0.614276
v -0.011716 0.258407 0.616581
v -0.013324 0.267088 0.611169
v -0.010064 0.258407 0.614428
v -0.021559 0.289017 0.602933
v -0.021559 0.289017 0.602933
v -0.013324 0.267088 0.611169
v -0.010064 0.258407 0.614428
v -0.016040 0.289017 0.598698
v -0.010217 0.267088 0.608784
v -0.007911 0.258407 0.612777
v -0.007911 0.258407 0.612777
v -0.010217 0.267088 0.608784
v -0.016040 0.289017 0.598698
v -0.009612 0.289017 0.596036
v -0.006598 0.267088 0.607285
v -0.005405 0.258407 0.611738
v -0.005405 0.258407 0.611738
v -0.006598 0.267088 0.607285
v -0.009612 0.289017 0.596036
v -0.002715 0.289017 0.595128
v -0.002715 0.258407 0.611384
v -0.002715 0.267088 0.606774
v -0.002715 0.267088 0.606774
v -0.002715 0.258407 0.611384
v -0.002715 0.289017 0.595128
v -0.000025 0.258407 0.611738
v 0.004183 0.289017 0.596036
v 0.001168 0.267088 0.607285
v 0.001168 0.267088 0.607285
v -0.000025 0.258407 0.611738
v 0.004183 0.289017 0.596036
vn 0.22858318699774383 0.4690382194309865 -0.8530843307287764
vn 0.44158882758977647 0.4690382125548617 -0.7648545368311721
vn 0 -1 0
vn -7.582328639905275e-8 0.4690382090991736 -0.8831778747257171
vn -7.58232840109939e-8 0.4690382090991736 -0.8831778747257171
vn -7.609903662810406e-8 0.4690382090991735 -0.8831778747257168
vn 0.6245010046349744 0.4690382249762897 -0.6245011118653028
vn -0.6245010046349742 0.4690382249762894 0.6245011118653029
vn -0.44158882758977663 0.4690382125548615 0.7648545368311723
vn -0.7648544610078866 0.4690382125548616 0.44158895891957706
vn -0.8530842914797508 0.4690382194309862 0.22858333347709708
vn -0.883177874725717 0.46903820909917326 7.554755598591875e-8
vn -0.883177874725717 0.46903820909917326 7.582330259453497e-8
vn -0.883177874725717 0.46903820909917326 7.582331811090446e-8
vn -0.8530843307287765 0.4690382194309863 -0.2285831869977438
vn -0.7648545368311722 0.46903821255486156 -0.44158882758977647
vn -0.6245011118653029 0.4690382249762896 -0.6245010046349742
vn -0.44158895891957706 0.4690382125548618 -0.7648544610078865
vn -0.22858333347709706 0.46903821943098645 -0.8530842914797507
vn 0.7648544610078865 0.4690382125548617 -0.44158895891957683
vn 0.8530842914797506 0.4690382194309864 -0.22858333347709692
vn 0.883177874725717 0.4690382090991735 -7.60990238345874e-8
vn 0.883177874725717 0.4690382090991735 -7.582327637971636e-8
vn 0.883177874725717 0.4690382090991735 -7.582326148948377e-8
vn 0.8530843307287763 0.46903821943098634 0.22858318699774388
vn 0.7648545368311722 0.46903821255486167 0.44158882758977663
vn 0.6245011118653028 0.4690382249762895 0.6245010046349744
vn 0.44158895891957683 0.46903821255486156 0.7648544610078866
vn 0.22858333347709694 0.4690382194309862 0.8530842914797507
vn 7.58233274592739e-8 0.46903820909917326 0.8831778747257171
vn 7.582332850753843e-8 0.46903820909917326 0.8831778747257171
vn 7.54333566602674e-8 0.46903820909917326 0.8831778747257171
vn -0.22858318699774383 0.46903821943098617 0.8530843307287765
vn -0.22858318699774383 -0.4690382194309865 0.8530843307287764
vn -0.44158882758977647 -0.4690382125548617 0.7648545368311721
vn 0 1 0
vn 7.609903662810406e-8 -0.4690382090991735 0.8831778747257168
vn 7.582328639905275e-8 -0.4690382090991736 0.8831778747257171
vn 7.58232840109939e-8 -0.4690382090991736 0.8831778747257171
vn -0.6245010046349744 -0.4690382249762897 0.6245011118653028
vn 0.6245010046349742 -0.4690382249762894 -0.6245011118653029
vn 0.44158882758977663 -0.4690382125548615 -0.7648545368311723
vn 0.7648544610078866 -0.4690382125548616 -0.44158895891957706
vn 0.8530842914797508 -0.4690382194309862 -0.22858333347709708
vn 0.883177874725717 -0.46903820909917326 -7.582331811090446e-8
vn 0.883177874725717 -0.46903820909917326 -7.554755598591875e-8
vn 0.883177874725717 -0.46903820909917326 -7.582330259453497e-8
vn 0.8530843307287765 -0.4690382194309863 0.2285831869977438
vn 0.7648545368311722 -0.46903821255486156 0.44158882758977647
vn 0.6245011118653029 -0.4690382249762896 0.6245010046349742
vn 0.44158895891957706 -0.4690382125548618 0.7648544610078865
vn 0.22858333347709706 -0.46903821943098645 0.8530842914797507
vn -0.7648544610078865 -0.4690382125548617 0.44158895891957683
vn -0.8530842914797506 -0.4690382194309864 0.22858333347709692
vn -0.883177874725717 -0.4690382090991735 7.582326148948377e-8
vn -0.883177874725717 -0.4690382090991735 7.60990238345874e-8
vn -0.883177874725717 -0.4690382090991735 7.582327637971636e-8
vn -0.8530843307287763 -0.46903821943098634 -0.22858318699774388
vn -0.7648545368311722 -0.46903821255486167 -0.44158882758977663
vn -0.6245011118653028 -0.4690382249762895 -0.6245010046349744
vn -0.44158895891957683 -0.46903821255486156 -0.7648544610078866
vn -0.22858333347709694 -0.4690382194309862 -0.8530842914797507
vn -7.54333566602674e-8 -0.46903820909917326 -0.8831778747257171
vn -7.582332850753843e-8 -0.46903820909917326 -0.8831778747257171
vn -7.58233274592739e-8 -0.46903820909917326 -0.8831778747257171
vn 0.22858318699774383 -0.46903821943098617 -0.8530843307287765
usemtl material_0_0
f 7//34 8//34 9//35
f 8//34 10//34 9//35
f 9//35 10//34 11//35
f 12//35 11//35 10//34
f 37//36 38//36 39//36
f 39//36 38//36 40//36
f 38//36 41//36 40//36
f 41//36 42//36 40//36
f 40//36 42//36 43//36
f 43//36 42//36 44//36
f 42//36 45//36 44//36
f 44//36 45//36 46//36
f 45//36 47//36 46//36
f 46//36 47//36 48//36
f 47//36 49//36 48//36
f 48//36 49//36 50//36
f 49//36 51//36 50//36
f 50//36 51//36 52//36
f 51//36 53//36 52//36
f 52//36 53//36 54//36
f 53//36 55//36 54//36
f 54//36 55//36 56//36
f 55//36 57//36 56//36
f 56//36 57//36 58//36
f 57//36 59//36 58//36
f 60//36 58//36 59//36
f 64//37 65//38 66//39
f 66//39 65//38 7//34
f 7//34 65//38 8//34
f 10//34 8//34 65//38
f 9//35 11//35 70//40
f 70//40 11//35 71//40
f 11//35 12//35 71//40
f 72//40 71//40 12//35
f 79//41 80//41 81//42
f 81//42 80//41 82//42
f 80//41 83//41 82//42
f 84//42 82//42 83//41
f 79//41 88//43 80//41
f 88//43 89//43 80//41
f 80//41 89//43 83//41
f 90//43 83//41 89//43
f 94//44 95//44 88//43
f 88//43 95//44 89//43
f 89//43 95//44 90//43
f 96//44 90//43 95//44
f 100//45 101//46 94//44
f 94//44 101//46 95//44
f 95//44 101//46 96//44
f 102//47 96//44 101//46
f 100//45 106//48 101//46
f 106//48 107//48 101//46
f 101//46 107//48 102//47
f 108//48 102//47 107//48
f 112//49 113//49 106//48
f 106//48 113//49 107//48
f 107//48 113//49 108//48
f 114//49 108//48 113//49
f 118//50 119//50 112//49
f 112//49 119//50 113//49
f 113//49 119//50 114//49
f 120//50 114//49 119//50
f 118//50 124//51 119//50
f 124//51 125//51 119//50
f 119//50 125//51 120//50
f 126//51 120//50 125//51
f 124//51 130//52 125//51
f 125//51 130//52 126//51
f 130//52 131//52 126//51
f 132//52 126//51 131//52
f 130//52 65//38 131//52
f 131//52 65//38 132//52
f 65//38 64//37 132//52
f 66//39 132//52 64//37
f 72//40 136//53 71//40
f 136//53 137//53 71//40
f 71//40 137//53 70//40
f 138//53 70//40 137//53
f 136//53 142//54 137//53
f 142//54 143//54 137//53
f 137//53 143//54 138//53
f 144//54 138//53 143//54
f 148//55 149//56 142//54
f 142//54 149//56 143//54
f 143//54 149//56 144//54
f 150//57 144//54 149//56
f 148//55 154//58 149//56
f 154//58 155//58 149//56
f 149//56 155//58 150//57
f 156//58 150//57 155//58
f 154//58 160//59 155//58
f 160//59 161//59 155//58
f 155//58 161//59 156//58
f 162//59 156//58 161//59
f 166//60 167//60 160//59
f 160//59 167//60 161//59
f 161//59 167//60 162//59
f 168//60 162//59 167//60
f 172//61 168//60 173//61
f 168//60 167//60 173//61
f 173//61 167//60 174//61
f 166//60 174//61 167//60
f 178//62 172//61 179//62
f 179//62 172//61 180//62
f 172//61 173//61 180//62
f 174//61 180//62 173//61
f 184//63 185//64 186//65
f 185//64 178//62 186//65
f 178//62 179//62 186//65
f 180//62 186//65 179//62
f 190//66 191//66 192//66
f 192//66 191//66 186//65
f 186//65 191//66 184//63
f 185//64 184//63 191//66
f 81//42 82//42 192//66
f 82//42 84//42 192//66
f 192//66 84//42 190//66
f 191//66 190//66 84//42
usemtl material_1_0
f 1//1 2//2 3//2
f 2//2 1//1 4//2
f 4//2 1//1 5//1
f 4//2 5//1 6//1
f 13//3 14//3 15//3
f 14//3 13//3 16//3
f 14//3 16//3 17//3
f 17//3 16//3 18//3
f 17//3 18//3 19//3
f 19//3 18//3 20//3
f 19//3 20//3 21//3
f 21//3 20//3 22//3
f 21//3 22//3 23//3
f 23//3 22//3 24//3
f 23//3 24//3 25//3
f 25//3 24//3 26//3
f 25//3 26//3 27//3
f 27//3 26//3 28//3
f 27//3 28//3 29//3
f 29//3 28//3 30//3
f 29//3 30//3 31//3
f 31//3 30//3 32//3
f 32//3 30//3 33//3
f 32//3 33//3 34//3
f 32//3 34//3 35//3
f 35//3 34//3 36//3
f 61//4 5//1 1//1
f 5//1 61//4 6//1
f 6//1 61//4 62//5
f 62//5 61//4 63//6
f 3//2 67//7 68//7
f 67//7 3//2 2//2
f 67//7 2//2 69//7
f 69//7 2//2 4//2
f 73//8 74//9 75//9
f 74//9 73//8 76//8
f 74//9 76//8 77//9
f 77//9 76//8 78//8
f 85//10 73//8 86//10
f 73//8 85//10 76//8
f 76//8 85//10 87//10
f 76//8 87//10 78//8
f 91//11 86//10 92//11
f 86//10 91//11 85//10
f 85//10 91//11 87//10
f 87//10 91//11 93//11
f 97//12 92//11 98//13
f 92//11 97//12 91//11
f 91//11 97//12 93//11
f 93//11 97//12 99//14
f 103//15 98//13 104//15
f 98//13 103//15 97//12
f 97//12 103//15 105//15
f 97//12 105//15 99//14
f 109//16 104//15 110//16
f 104//15 109//16 103//15
f 103//15 109//16 105//15
f 105//15 109//16 111//16
f 115//17 110//16 116//17
f 110//16 115//17 109//16
f 109//16 115//17 111//16
f 111//16 115//17 117//17
f 121//18 116//17 122//18
f 116//17 121//18 115//17
f 115//17 121//18 123//18
f 115//17 123//18 117//17
f 127//19 122//18 128//19
f 122//18 127//19 129//19
f 122//18 129//19 121//18
f 121//18 129//19 123//18
f 63//6 128//19 62//5
f 128//19 63//6 61//4
f 128//19 61//4 127//19
f 127//19 61//4 129//19
f 133//20 69//7 134//20
f 69//7 133//20 67//7
f 67//7 133//20 135//20
f 67//7 135//20 68//7
f 139//21 134//20 140//21
f 134//20 139//21 133//20
f 133//20 139//21 141//21
f 133//20 141//21 135//20
f 145//22 140//21 146//23
f 140//21 145//22 139//21
f 139//21 145//22 141//21
f 141//21 145//22 147//24
f 151//25 146//23 152//25
f 146//23 151//25 145//22
f 145//22 151//25 153//25
f 145//22 153//25 147//24
f 157//26 152//25 158//26
f 152//25 157//26 151//25
f 151//25 157//26 159//26
f 151//25 159//26 153//25
f 163//27 158//26 164//27
f 158//26 163//27 157//26
f 157//26 163//27 159//26
f 159//26 163//27 165//27
f 163//27 169//28 165//27
f 169//28 163//27 170//28
f 170//28 163//27 164//27
f 170//28 164//27 171//28
f 170//28 175//29 169//28
f 175//29 170//28 171//28
f 175//29 171//28 176//29
f 176//29 171//28 177//29
f 176//29 181//30 175//29
f 181//30 176//29 177//29
f 181//30 177//29 182//31
f 181//30 182//31 183//32
f 187//33 183//32 182//31
f 183//32 187//33 181//30
f 181//30 187//33 188//33
f 188//33 187//33 189//33
f 75//9 189//33 187//33
f 189//33 75//9 188//33
f 188//33 75//9 74//9
f 188//33 74//9 77//9
