# SSTK version 0.8.0
# 6
mtllib original-6.mtl
o #ID23
v -0.033126 -0.433198 0.299445
v 0.041894 -0.433198 0.299445
v 0.004384 -0.433198 0.297085
v 0.078812 -0.433198 0.306487
v -0.070044 -0.433198 0.306487
v -0.105789 -0.433198 0.318101
v 0.114557 -0.433198 0.318101
v 0.148564 -0.433198 0.334104
v -0.139796 -0.433198 0.334104
v 0.180297 -0.433198 0.354242
v -0.171529 -0.433198 0.354242
v 0.209256 -0.433198 0.378199
v -0.200488 -0.433198 0.378199
v -0.226216 -0.433198 0.405597
v 0.234984 -0.433198 0.405597
v -0.248307 -0.433198 0.436003
v 0.257075 -0.433198 0.436003
v 0.275181 -0.433198 0.468938
v -0.266413 -0.433198 0.468938
v -0.280249 -0.433198 0.503883
v 0.289017 -0.433198 0.503883
v 0.298364 -0.433198 0.540286
v -0.289596 -0.433198 0.540286
v -0.294306 -0.433198 0.577574
v 0.303074 -0.433198 0.577574
v 0.303074 -0.433198 0.615158
v -0.294306 -0.433198 0.615158
v 0.298364 -0.433198 0.652445
v -0.289596 -0.433198 0.652445
v -0.280249 -0.433198 0.688848
v 0.289017 -0.433198 0.688848
v 0.275181 -0.433198 0.723793
v -0.266413 -0.433198 0.723793
v 0.257075 -0.433198 0.756728
v -0.248307 -0.433198 0.756728
v 0.234984 -0.433198 0.787134
v -0.226216 -0.433198 0.787134
v -0.200488 -0.433198 0.814532
v 0.209256 -0.433198 0.814532
v 0.180297 -0.433198 0.838489
v -0.171529 -0.433198 0.838489
v 0.148564 -0.433198 0.858627
v -0.139796 -0.433198 0.858627
v 0.114557 -0.433198 0.874630
v -0.105788 -0.433198 0.874630
v 0.078812 -0.433198 0.886244
v -0.070044 -0.433198 0.886244
v 0.041894 -0.433198 0.893286
v -0.033126 -0.433198 0.893286
v 0.004384 -0.433198 0.895646
v 0.004384 -0.433198 0.895646
v -0.033126 -0.433198 0.893286
v 0.041894 -0.433198 0.893286
v -0.070044 -0.433198 0.886244
v 0.078812 -0.433198 0.886244
v -0.105788 -0.433198 0.874630
v 0.114557 -0.433198 0.874630
v -0.139796 -0.433198 0.858627
v 0.148564 -0.433198 0.858627
v -0.171529 -0.433198 0.838489
v 0.180297 -0.433198 0.838489
v -0.200488 -0.433198 0.814532
v 0.209256 -0.433198 0.814532
v 0.234984 -0.433198 0.787134
v -0.226216 -0.433198 0.787134
v -0.248307 -0.433198 0.756728
v 0.257075 -0.433198 0.756728
v -0.266413 -0.433198 0.723793
v 0.275181 -0.433198 0.723793
v -0.280249 -0.433198 0.688848
v 0.289017 -0.433198 0.688848
v 0.298364 -0.433198 0.652445
v -0.289596 -0.433198 0.652445
v -0.294306 -0.433198 0.615158
v 0.303074 -0.433198 0.615158
v -0.294306 -0.433198 0.577574
v 0.303074 -0.433198 0.577574
v 0.298364 -0.433198 0.540286
v -0.289596 -0.433198 0.540286
v -0.280249 -0.433198 0.503883
v 0.289017 -0.433198 0.503883
v 0.275181 -0.433198 0.468938
v -0.266413 -0.433198 0.468938
v -0.248307 -0.433198 0.436003
v 0.257075 -0.433198 0.436003
v 0.234984 -0.433198 0.405597
v -0.226216 -0.433198 0.405597
v 0.209256 -0.433198 0.378199
v -0.200488 -0.433198 0.378199
v -0.171529 -0.433198 0.354242
v 0.180297 -0.433198 0.354242
v -0.139796 -0.433198 0.334104
v 0.148564 -0.433198 0.334104
v -0.105789 -0.433198 0.318101
v 0.114557 -0.433198 0.318101
v 0.078812 -0.433198 0.306487
v -0.070044 -0.433198 0.306487
v -0.033126 -0.433198 0.299445
v 0.041894 -0.433198 0.299445
v 0.004384 -0.433198 0.297085
vn 0 1 0
vn 0 -1 0
usemtl material_0_0
f 1//1 2//1 3//1
f 2//1 1//1 4//1
f 4//1 1//1 5//1
f 4//1 5//1 6//1
f 4//1 6//1 7//1
f 7//1 6//1 8//1
f 8//1 6//1 9//1
f 8//1 9//1 10//1
f 10//1 9//1 11//1
f 10//1 11//1 12//1
f 12//1 11//1 13//1
f 12//1 13//1 14//1
f 12//1 14//1 15//1
f 15//1 14//1 16//1
f 15//1 16//1 17//1
f 17//1 16//1 18//1
f 18//1 16//1 19//1
f 18//1 19//1 20//1
f 18//1 20//1 21//1
f 21//1 20//1 22//1
f 22//1 20//1 23//1
f 22//1 23//1 24//1
f 22//1 24//1 25//1
f 25//1 24//1 26//1
f 26//1 24//1 27//1
f 26//1 27//1 28//1
f 28//1 27//1 29//1
f 28//1 29//1 30//1
f 28//1 30//1 31//1
f 31//1 30//1 32//1
f 32//1 30//1 33//1
f 32//1 33//1 34//1
f 34//1 33//1 35//1
f 34//1 35//1 36//1
f 36//1 35//1 37//1
f 36//1 37//1 38//1
f 36//1 38//1 39//1
f 39//1 38//1 40//1
f 40//1 38//1 41//1
f 40//1 41//1 42//1
f 42//1 41//1 43//1
f 42//1 43//1 44//1
f 44//1 43//1 45//1
f 44//1 45//1 46//1
f 46//1 45//1 47//1
f 46//1 47//1 48//1
f 48//1 47//1 49//1
f 48//1 49//1 50//1
f 51//2 52//2 53//2
f 52//2 54//2 53//2
f 53//2 54//2 55//2
f 54//2 56//2 55//2
f 55//2 56//2 57//2
f 56//2 58//2 57//2
f 57//2 58//2 59//2
f 58//2 60//2 59//2
f 59//2 60//2 61//2
f 60//2 62//2 61//2
f 61//2 62//2 63//2
f 63//2 62//2 64//2
f 62//2 65//2 64//2
f 65//2 66//2 64//2
f 64//2 66//2 67//2
f 66//2 68//2 67//2
f 67//2 68//2 69//2
f 68//2 70//2 69//2
f 69//2 70//2 71//2
f 71//2 70//2 72//2
f 70//2 73//2 72//2
f 73//2 74//2 72//2
f 72//2 74//2 75//2
f 74//2 76//2 75//2
f 75//2 76//2 77//2
f 77//2 76//2 78//2
f 76//2 79//2 78//2
f 79//2 80//2 78//2
f 78//2 80//2 81//2
f 81//2 80//2 82//2
f 80//2 83//2 82//2
f 83//2 84//2 82//2
f 82//2 84//2 85//2
f 85//2 84//2 86//2
f 84//2 87//2 86//2
f 86//2 87//2 88//2
f 87//2 89//2 88//2
f 89//2 90//2 88//2
f 88//2 90//2 91//2
f 90//2 92//2 91//2
f 91//2 92//2 93//2
f 92//2 94//2 93//2
f 93//2 94//2 95//2
f 95//2 94//2 96//2
f 94//2 97//2 96//2
f 97//2 98//2 96//2
f 96//2 98//2 99//2
f 100//2 99//2 98//2
