# SSTK version 0.8.0
# 83
mtllib original-83.mtl
o #ID810
v -0.138567 0.314153 0.540064
v -0.150109 0.358629 0.566019
v -0.138567 0.310384 0.559937
v -0.150109 0.361309 0.551891
v -0.150109 0.361309 0.551891
v -0.138567 0.314153 0.540064
v -0.150109 0.358629 0.566019
v -0.138567 0.310384 0.559937
vn 0.9729316255423296 0.2257477069595363 0.049416847552948395
vn 0.9729438449877419 0.2282630118749007 0.035724948009310094
vn 0.972939995767588 0.22819320031621337 0.03627158619649888
vn 0.9729348125163153 0.22563000392566449 0.049889396892997144
vn -0.9729348125163153 -0.22563000392566449 -0.049889396892997144
vn -0.9729316255423296 -0.2257477069595363 -0.049416847552948395
vn -0.9729438449877419 -0.2282630118749007 -0.035724948009310094
vn -0.972939995767588 -0.22819320031621337 -0.03627158619649888
usemtl material_0_0
f 1//1 2//2 3//3
f 2//2 1//1 4//4
usemtl material_1_0
f 5//5 6//6 7//7
f 8//8 7//7 6//6
