# SSTK version 0.8.0
# 48
mtllib original-48.mtl
o #ID277
v 0.141946 -0.383539 0.727252
v 0.157861 -0.383539 0.638971
v 0.141946 -0.383539 0.638971
v 0.157861 -0.383539 0.727252
v 0.142361 -0.383539 0.731149
v 0.157446 -0.383539 0.731149
v 0.143234 -0.383539 0.734723
v 0.156573 -0.383539 0.734723
v 0.144512 -0.383539 0.737756
v 0.155551 -0.383539 0.737150
v 0.155296 -0.383539 0.737756
v 0.146116 -0.383539 0.740064
v 0.153691 -0.383539 0.740064
v 0.147951 -0.383539 0.741507
v 0.151857 -0.383539 0.741507
v 0.149904 -0.383539 0.741998
v 0.149904 -0.383539 0.741998
v 0.147951 -0.383539 0.741507
v 0.151857 -0.383539 0.741507
v 0.153691 -0.383539 0.740064
v 0.146116 -0.383539 0.740064
v 0.155296 -0.383539 0.737756
v 0.144512 -0.383539 0.737756
v 0.155551 -0.383539 0.737150
v 0.156573 -0.383539 0.734723
v 0.143234 -0.383539 0.734723
v 0.157446 -0.383539 0.731149
v 0.142361 -0.383539 0.731149
v 0.157861 -0.383539 0.727252
v 0.141946 -0.383539 0.727252
v 0.157861 -0.383539 0.638971
v 0.141946 -0.383539 0.638971
v 0.157446 -0.368190 0.731149
v 0.157861 -0.383539 0.727252
v 0.157446 -0.383539 0.731149
v 0.157861 -0.368190 0.727252
v 0.157861 -0.368190 0.727252
v 0.157446 -0.368190 0.731149
v 0.157861 -0.383539 0.727252
v 0.157446 -0.383539 0.731149
v 0.157861 -0.383539 0.638971
v 0.157861 -0.368190 0.638971
v 0.157861 -0.368190 0.638971
v 0.157861 -0.383539 0.638971
v 0.157861 -0.383539 0.638971
v 0.141946 -0.368190 0.638971
v 0.141946 -0.383539 0.638971
v 0.157861 -0.368190 0.638971
v 0.157861 -0.368190 0.638971
v 0.157861 -0.383539 0.638971
v 0.141946 -0.368190 0.638971
v 0.141946 -0.383539 0.638971
v 0.141946 -0.383539 0.638971
v 0.141946 -0.368190 0.727252
v 0.141946 -0.383539 0.727252
v 0.141946 -0.368190 0.638971
v 0.141946 -0.368190 0.638971
v 0.141946 -0.383539 0.638971
v 0.141946 -0.368190 0.727252
v 0.141946 -0.383539 0.727252
v 0.142361 -0.368190 0.731149
v 0.142361 -0.383539 0.731149
v 0.142361 -0.368190 0.731149
v 0.142361 -0.383539 0.731149
v 0.143234 -0.368190 0.734723
v 0.143234 -0.383539 0.734723
v 0.143234 -0.368190 0.734723
v 0.143234 -0.383539 0.734723
v 0.144512 -0.368190 0.737756
v 0.144512 -0.383539 0.737756
v 0.144512 -0.368190 0.737756
v 0.144512 -0.383539 0.737756
v 0.146116 -0.368190 0.740064
v 0.146116 -0.383539 0.740064
v 0.146116 -0.368190 0.740064
v 0.146116 -0.383539 0.740064
v 0.147951 -0.368190 0.741507
v 0.147951 -0.383539 0.741507
v 0.147951 -0.383539 0.741507
v 0.147951 -0.368190 0.741507
v 0.149904 -0.368190 0.741998
v 0.149904 -0.383539 0.741998
v 0.149904 -0.383539 0.741998
v 0.149904 -0.368190 0.741998
v 0.151857 -0.368190 0.741507
v 0.151857 -0.383539 0.741507
v 0.151857 -0.383539 0.741507
v 0.151857 -0.368190 0.741507
v 0.153691 -0.368190 0.740064
v 0.153691 -0.383539 0.740064
v 0.153691 -0.383539 0.740064
v 0.153691 -0.368190 0.740064
v 0.155296 -0.383539 0.737756
v 0.155296 -0.368190 0.737756
v 0.155296 -0.368190 0.737756
v 0.155296 -0.383539 0.737756
v 0.155551 -0.383539 0.737150
v 0.155551 -0.368190 0.737150
v 0.155551 -0.368190 0.737150
v 0.155551 -0.383539 0.737150
v 0.155551 -0.368190 0.737150
v 0.156573 -0.383539 0.734723
v 0.155551 -0.383539 0.737150
v 0.156573 -0.368190 0.734723
v 0.156573 -0.368190 0.734723
v 0.155551 -0.368190 0.737150
v 0.156573 -0.383539 0.734723
v 0.155551 -0.383539 0.737150
vn 0 1 0.0000015109269097087954
vn 0 -1 -0.0000015109269097087954
vn -0.985095828942786 2.598892979720375e-7 -0.17200641790194282
vn -0.9985916004972463 8.016216028566223e-8 -0.05305483405253272
vn -0.9850958458870619 2.598892244422982e-7 -0.17200632086056114
vn -0.9985915978482394 8.016223807301244e-8 -0.05305488391179133
vn 0.9985915978482394 -8.016223807301244e-8 0.05305488391179133
vn 0.985095828942786 -2.598892979720375e-7 0.17200641790194282
vn 0.9985916004972463 -8.016216028566223e-8 0.05305483405253272
vn 0.9850958458870619 -2.598892244422982e-7 0.17200632086056114
vn -1 0 8.585279987216797e-8
vn 1 0 -8.585279987216797e-8
vn 8.585258625377008e-8 -0.000001510927093611671 1
vn -8.585258625377008e-8 0.000001510927093611671 -1
vn 0.9985915887384041 8.016223829474433e-8 -0.053055055375559754
vn 0.9985915913874194 8.016216050739412e-8 -0.05305500551630161
vn -0.9985915887384041 -8.016223829474433e-8 0.053055055375559754
vn -0.9985915913874194 -8.016216050739412e-8 0.05305500551630161
vn 0.9850957994083062 2.598892981907727e-7 -0.17200658704841035
vn 0.985095816352599 2.598892246610334e-7 -0.1720064900070316
vn -0.9850957994083062 -2.598892981907727e-7 0.17200658704841035
vn -0.985095816352599 -2.598892246610334e-7 0.1720064900070316
vn 0.9495115510561253 4.7402619538873585e-7 -0.3137320742461095
vn 0.949511580845345 4.7402613226045084e-7 -0.3137319840888862
vn -0.9495115510561253 -4.7402619538873585e-7 0.3137320742461095
vn -0.949511580845345 -4.7402613226045084e-7 0.3137319840888862
vn 0.876098829751595 7.28465694667244e-7 -0.48213155933557705
vn 0.8760988719910838 7.284656517888645e-7 -0.48213148258065447
vn -0.876098829751595 -7.28465694667244e-7 0.48213155933557705
vn -0.8760988719910838 -7.284656517888645e-7 0.48213148258065447
vn 0.7277112233232588 0.0000010363204640811447 -0.6858836457069758
vn 0.7277113202794089 0.0000010363204597464445 -0.685883542838087
vn -0.7277112233232588 -0.0000010363204640811447 0.6858836457069758
vn -0.7277113202794089 -0.0000010363204597464445 0.685883542838087
vn 0.4408138313940587 0.000001356206318282176 -0.8975985550622568
vn -0.4408138313940587 -0.000001356206318282176 0.8975985550622568
vn -6.873220987208968e-8 0.0000015109270936116706 -1
vn -1.0297294987205047e-7 0.000001510927093611671 -1
vn 1.0297294987205047e-7 -0.000001510927093611671 1
vn 6.873220987208968e-8 -0.0000015109270936116706 1
vn -0.4408139855167504 0.0000013562063181842956 -0.8975984793720402
vn -0.44081406608505297 0.0000013562062584008309 -0.8975984398046396
vn 0.44081406608505297 -0.0000013562062584008309 0.8975984398046396
vn 0.4408139855167504 -0.0000013562063181842956 0.8975984793720402
vn -0.7277113410933109 0.0000010363204639195603 -0.6858835207548736
vn -0.7277114380494433 0.0000010363204595848603 -0.6858834178859681
vn 0.7277114380494433 -0.0000010363204595848603 0.6858834178859681
vn 0.7277113410933109 -0.0000010363204639195603 0.6858835207548736
vn -0.8760989547757462 7.284656515943314e-7 -0.48213133214956516
vn -0.8760989125362706 7.284656944727109e-7 -0.48213140890449496
vn 0.8760989125362706 -7.284656944727109e-7 0.48213140890449496
vn 0.8760989547757462 -7.284656515943314e-7 0.48213133214956516
vn -0.9215784291221406 5.865304405059057e-7 -0.38819221910855384
vn 0.9215784291221406 -5.865304405059057e-7 0.38819221910855384
vn -0.9495116347148695 4.740261320496169e-7 -0.3137318210524261
vn -0.9495116049256653 4.740261951779019e-7 -0.3137319112096545
vn 0.9495116049256653 -4.740261951779019e-7 0.3137319112096545
vn 0.9495116347148695 -4.740261320496169e-7 0.3137318210524261
usemtl material_0_0
f 1//1 2//1 3//1
f 2//1 1//1 4//1
f 4//1 1//1 5//1
f 4//1 5//1 6//1
f 6//1 5//1 7//1
f 6//1 7//1 8//1
f 8//1 7//1 9//1
f 8//1 9//1 10//1
f 10//1 9//1 11//1
f 11//1 9//1 12//1
f 11//1 12//1 13//1
f 13//1 12//1 14//1
f 13//1 14//1 15//1
f 15//1 14//1 16//1
f 17//2 18//2 19//2
f 19//2 18//2 20//2
f 18//2 21//2 20//2
f 20//2 21//2 22//2
f 21//2 23//2 22//2
f 22//2 23//2 24//2
f 24//2 23//2 25//2
f 23//2 26//2 25//2
f 25//2 26//2 27//2
f 26//2 28//2 27//2
f 27//2 28//2 29//2
f 28//2 30//2 29//2
f 29//2 30//2 31//2
f 32//2 31//2 30//2
f 33//3 34//4 35//5
f 34//4 33//3 36//6
f 37//7 38//8 39//9
f 40//10 39//9 38//8
f 36//6 41//11 34//4
f 41//11 36//6 42//11
f 43//12 37//7 44//12
f 39//9 44//12 37//7
f 45//13 46//13 47//13
f 46//13 45//13 48//13
f 49//14 50//14 51//14
f 52//14 51//14 50//14
f 53//12 54//15 55//16
f 54//15 53//12 56//12
f 57//11 58//11 59//17
f 60//18 59//17 58//11
f 55//16 61//19 62//20
f 61//19 55//16 54//15
f 59//17 60//18 63//21
f 64//22 63//21 60//18
f 62//20 65//23 66//24
f 65//23 62//20 61//19
f 63//21 64//22 67//25
f 68//26 67//25 64//22
f 66//24 69//27 70//28
f 69//27 66//24 65//23
f 67//25 68//26 71//29
f 72//30 71//29 68//26
f 70//28 73//31 74//32
f 73//31 70//28 69//27
f 71//29 72//30 75//33
f 76//34 75//33 72//30
f 77//35 74//32 73//31
f 74//32 77//35 78//35
f 79//36 80//36 76//34
f 75//33 76//34 80//36
f 81//37 78//35 77//35
f 78//35 81//37 82//38
f 83//39 84//40 79//36
f 80//36 79//36 84//40
f 85//41 82//38 81//37
f 82//38 85//41 86//42
f 87//43 88//44 83//39
f 84//40 83//39 88//44
f 89//45 86//42 85//41
f 86//42 89//45 90//46
f 91//47 92//48 87//43
f 88//44 87//43 92//48
f 89//45 93//49 90//46
f 93//49 89//45 94//50
f 95//51 92//48 96//52
f 91//47 96//52 92//48
f 94//50 97//53 93//49
f 97//53 94//50 98//53
f 99//54 95//51 100//54
f 96//52 100//54 95//51
f 101//53 102//55 103//53
f 102//55 101//53 104//56
f 105//57 106//54 107//58
f 108//54 107//58 106//54
f 104//56 35//5 102//55
f 35//5 104//56 33//3
f 38//8 105//57 40//10
f 107//58 40//10 105//57
