# SSTK version 0.8.0
# 3
mtllib original-3.mtl
o Component_1_2/Component_1/mesh1/mesh1-geometry#mesh1-geometry
v -0.464495 -0.730878 -0.403303
v -0.589321 -0.730878 -0.278478
v -0.589321 -0.730878 -0.403303
v -0.464495 -0.730878 -0.278478
v -0.589321 0.309338 -0.403303
v -0.464495 0.309338 -0.278478
v -0.589321 0.309338 -0.278478
v -0.464495 0.309338 -0.403303
vt -0.032808 0.032808
vt 0 0
vt 0 0.032808
vt -0.032808 0
vt -0.032808 0.273403
vt 0 0.273403
vt 0.032808 0
vt 0.032808 0.273403
vt 0.032808 0.032808
vn 0 -1 0
vn 0 1 0
vn -1 0 0
vn 1 0 0
vn 0 0 -1
vn 0 0 1
usemtl material_0_0
f 1/1/1 2/2/1 3/3/1
f 2/2/1 1/1/1 4/4/1
f 3/3/2 2/2/2 1/1/2
f 4/4/2 1/1/2 2/2/2
f 2/2/3 5/5/3 3/4/3
f 3/4/4 5/5/4 2/2/4
f 5/6/5 1/4/5 3/2/5
f 3/2/6 1/4/6 5/6/6
f 1/7/4 6/6/4 4/2/4
f 4/2/3 6/6/3 1/7/3
f 6/8/6 2/2/6 4/7/6
f 4/7/5 2/2/5 6/8/5
f 5/5/3 2/2/3 7/6/3
f 7/6/4 2/2/4 5/5/4
f 1/4/5 5/6/5 8/5/5
f 8/5/6 5/6/6 1/4/6
f 6/6/4 1/7/4 8/8/4
f 8/8/3 1/7/3 6/6/3
f 2/2/6 6/8/6 7/6/6
f 7/6/5 6/8/5 2/2/5
f 6/7/2 5/3/2 7/2/2
f 7/2/1 5/3/1 6/7/1
f 5/3/2 6/7/2 8/9/2
f 8/9/1 6/7/1 5/3/1
