# SSTK version 0.8.0
# 2
mtllib original-2.mtl
o Component_2_1/Component_2/mesh3/mesh3-geometry#mesh3-geometry
v 0.544514 0.309338 -0.413706
v -0.599723 0.309338 0.460076
v -0.599723 0.309338 -0.413706
v 0.544514 0.309338 0.460076
v -0.599723 0.371751 -0.413706
v 0.544514 0.371751 0.460076
v -0.599723 0.371751 0.460076
v 0.544514 0.371751 -0.413706
vt -0.300744 0.218723
vt 0 -0.010936
vt 0 0.218723
vt -0.300744 -0.010936
vt 0.010936 0
vt -0.218723 0.016404
vt -0.218723 0
vt 0 0.016404
vt -0.300744 0
vt 0 0
vt 0.218723 0
vt -0.010936 0.016404
vt -0.010936 0
vt 0.300744 0.016404
vt 0.300744 0
vt 0.010936 0.016404
vt -0.300744 0.016404
vt 0.218723 0.016404
vt 0.300744 -0.010936
vt 0.300744 0.218723
vn 0 -1 0
vn 0 1 0
vn -1 0 0
vn 1 0 0
vn 0 0 -1
vn 0 0 1
usemtl material_0_0
f 1/1/1 2/2/1 3/3/1
f 2/2/1 1/1/1 4/4/1
f 3/3/2 2/2/2 1/1/2
f 4/4/2 1/1/2 2/2/2
f 2/5/3 5/6/3 3/7/3
f 3/7/4 5/6/4 2/5/4
f 5/8/5 1/9/5 3/10/5
f 3/10/6 1/9/6 5/8/6
f 1/11/4 6/12/4 4/13/4
f 4/13/3 6/12/3 1/11/3
f 6/14/6 2/10/6 4/15/6
f 4/15/5 2/10/5 6/14/5
f 5/6/3 2/5/3 7/16/3
f 7/16/4 2/5/4 5/6/4
f 1/9/5 5/8/5 8/17/5
f 8/17/6 5/8/6 1/9/6
f 6/12/4 1/11/4 8/18/4
f 8/18/3 1/11/3 6/12/3
f 2/10/6 6/14/6 7/8/6
f 7/8/5 6/14/5 2/10/5
f 6/19/2 5/3/2 7/2/2
f 7/2/1 5/3/1 6/19/1
f 5/3/2 6/19/2 8/20/2
f 8/20/1 6/19/1 5/3/1
