# SSTK version 0.8.0
# 58
mtllib original-58.mtl
o Group58/mesh91/mesh91-geometry#mesh91-geometry
v 0.436225 0.102777 0.091280
v 0.416527 0.102777 -0.184492
v 0.416527 0.102777 0.091280
v 0.436225 0.102777 -0.184492
v 0.416527 0.091916 0.091280
v 0.436225 0.095390 0.091280
v 0.436225 0.095390 0.071582
v 0.436225 0.092927 -0.184492
v 0.416527 0.091916 0.071582
v 0.436225 0.092927 -0.164794
v 0.416527 0.089454 -0.184492
v 0.416527 0.089454 -0.164794
v 0.436225 0.023984 -0.164794
v 0.416527 0.070767 -0.164794
v 0.416527 0.070767 0.071582
v 0.436225 -0.123751 -0.164794
v 0.436225 0.060918 -0.164794
v 0.423913 0.070767 -0.164794
v 0.423913 0.070767 0.071582
v 0.436225 0.060918 0.071582
v 0.436225 -0.086817 -0.164794
v 0.436225 0.055994 -0.164794
v 0.423913 0.065843 -0.164794
v 0.423913 0.065843 0.071582
v 0.436225 0.060918 0.091280
v 0.436225 -0.091741 -0.164794
v 0.436225 -0.012949 -0.164794
v 0.416527 0.027458 -0.164794
v 0.436225 0.055994 -0.184492
v 0.416527 0.064391 -0.164794
v 0.436225 -0.133600 0.091280
v 0.416527 0.064391 0.071582
v 0.436225 -0.086817 -0.184492
v 0.416527 -0.120277 -0.164794
v 0.436225 -0.017874 -0.164794
v 0.436225 0.019060 -0.164794
v 0.416527 0.052520 -0.164794
v 0.416527 0.027458 -0.184492
v 0.436225 0.060918 -0.184492
v 0.416527 0.064391 -0.184492
v 0.416527 0.065843 -0.164794
v 0.416527 0.065843 0.071582
v 0.436225 -0.133600 -0.184492
v 0.423913 -0.133600 0.091280
v 0.416527 0.064391 0.091280
v 0.436225 -0.091741 -0.184492
v 0.416527 -0.083344 -0.184492
v 0.416527 -0.095215 -0.164794
v 0.416527 -0.120277 -0.184492
v 0.436225 -0.012949 -0.184492
v 0.436225 -0.054808 -0.164794
v 0.436225 0.023984 -0.184492
v 0.416527 -0.009476 -0.164794
v 0.416527 0.015587 -0.164794
v 0.416527 0.052520 -0.184492
v 0.436225 -0.123751 -0.184492
v 0.423913 -0.118826 0.091280
v 0.416527 -0.020336 0.091280
v 0.416527 -0.083344 -0.164794
v 0.416527 -0.133600 -0.184492
v 0.436225 -0.017874 -0.184492
v 0.416527 -0.009476 -0.184492
v 0.436225 -0.049883 -0.164794
v 0.436225 0.019060 -0.184492
v 0.416527 0.015587 -0.184492
v 0.423913 -0.133600 -0.162332
v 0.416527 -0.118826 0.091280
v 0.423913 -0.118826 -0.162332
v 0.416527 -0.020336 -0.162332
v 0.423913 -0.020336 0.091280
v 0.416527 -0.095215 -0.184492
v 0.416527 -0.133600 -0.162332
v 0.416527 -0.021347 -0.164794
v 0.416527 -0.058281 -0.164794
v 0.436225 -0.054808 -0.184492
v 0.416527 -0.046410 -0.164794
v 0.423913 -0.035110 0.091280
v 0.423913 -0.020336 -0.162332
v 0.416527 -0.035110 -0.162332
v 0.416527 -0.021347 -0.184492
v 0.436225 -0.049883 -0.184492
v 0.416527 -0.046410 -0.184492
v 0.416527 -0.035110 0.091280
v 0.416527 -0.118826 -0.162332
v 0.416527 -0.058281 -0.184492
v 0.423913 -0.035110 -0.162332
vn 0 1 0
vn 0 -1 0
vn -1 0 0
vn 1 0 0
vn 0 0 1
vn 0 0 -1
vn 0.17364796311995492 -0.9848077908426045 0
vn -0.17364796311995492 0.9848077908426045 0
vn 0.17364796311995492 0.9848077908426045 0
vn -0.17364796311995492 -0.9848077908426045 0
usemtl material_0_0
f 1//1 2//1 3//1
f 2//1 1//1 4//1
f 3//2 2//2 1//2
f 4//2 1//2 2//2
f 2//3 5//3 3//3
f 3//4 5//4 2//4
f 3//5 6//5 1//5
f 1//6 6//6 3//6
f 1//4 7//4 4//4
f 4//3 7//3 1//3
f 8//6 2//6 4//6
f 4//5 2//5 8//5
f 5//3 2//3 9//3
f 9//4 2//4 5//4
f 6//5 3//5 5//5
f 5//6 3//6 6//6
f 7//4 1//4 6//4
f 6//3 1//3 7//3
f 4//4 7//4 10//4
f 10//3 7//3 4//3
f 2//6 8//6 11//6
f 11//5 8//5 2//5
f 4//4 10//4 8//4
f 8//3 10//3 4//3
f 9//3 2//3 12//3
f 12//4 2//4 9//4
f 7//7 5//7 9//7
f 9//8 5//8 7//8
f 5//7 7//7 6//7
f 6//8 7//8 5//8
f 7//4 13//4 10//4
f 10//3 13//3 7//3
f 8//7 12//7 11//7
f 11//8 12//8 8//8
f 12//3 2//3 11//3
f 11//4 2//4 12//4
f 12//7 8//7 10//7
f 10//8 8//8 12//8
f 9//3 12//3 14//3
f 14//4 12//4 9//4
f 15//5 7//5 9//5
f 9//6 7//6 15//6
f 7//4 16//4 13//4
f 13//3 16//3 7//3
f 13//4 17//4 10//4
f 10//3 17//3 13//3
f 10//6 18//6 12//6
f 12//5 18//5 10//5
f 12//6 18//6 14//6
f 14//5 18//5 12//5
f 14//3 15//3 9//3
f 9//4 15//4 14//4
f 19//5 7//5 15//5
f 15//6 7//6 19//6
f 20//4 16//4 7//4
f 7//3 16//3 20//3
f 13//4 16//4 21//4
f 21//3 16//3 13//3
f 17//4 13//4 22//4
f 22//3 13//3 17//3
f 17//6 23//6 10//6
f 10//5 23//5 17//5
f 10//6 23//6 18//6
f 18//5 23//5 10//5
f 18//2 15//2 14//2
f 14//1 15//1 18//1
f 24//5 7//5 19//5
f 19//6 7//6 24//6
f 15//2 18//2 19//2
f 19//1 18//1 15//1
f 25//4 16//4 20//4
f 20//3 16//3 25//3
f 24//5 20//5 7//5
f 7//6 20//6 24//6
f 26//4 21//4 16//4
f 16//3 21//3 26//3
f 13//4 21//4 27//4
f 27//3 21//3 13//3
f 28//6 22//6 13//6
f 13//5 22//5 28//5
f 17//4 22//4 29//4
f 29//3 22//3 17//3
f 23//6 17//6 30//6
f 30//5 17//5 23//5
f 24//3 18//3 23//3
f 23//4 18//4 24//4
f 18//3 24//3 19//3
f 19//4 24//4 18//4
f 31//4 16//4 25//4
f 25//3 16//3 31//3
f 32//9 25//9 20//9
f 20//10 25//10 32//10
f 20//5 24//5 32//5
f 32//6 24//6 20//6
f 21//4 26//4 33//4
f 33//3 26//3 21//3
f 34//6 26//6 16//6
f 16//5 26//5 34//5
f 35//4 27//4 21//4
f 21//3 27//3 35//3
f 36//4 13//4 27//4
f 27//3 13//3 36//3
f 22//6 28//6 37//6
f 37//5 28//5 22//5
f 13//9 38//9 28//9
f 28//10 38//10 13//10
f 37//7 29//7 22//7
f 22//8 29//8 37//8
f 17//4 29//4 39//4
f 39//3 29//3 17//3
f 17//9 40//9 30//9
f 30//10 40//10 17//10
f 23//6 30//6 41//6
f 41//5 30//5 23//5
f 23//1 42//1 24//1
f 24//2 42//2 23//2
f 16//4 31//4 43//4
f 43//3 31//3 16//3
f 25//5 44//5 31//5
f 31//6 44//6 25//6
f 25//9 32//9 45//9
f 45//10 32//10 25//10
f 42//5 32//5 24//5
f 24//6 32//6 42//6
f 33//4 26//4 46//4
f 46//3 26//3 33//3
f 47//9 21//9 33//9
f 33//10 21//10 47//10
f 26//6 34//6 48//6
f 48//5 34//5 26//5
f 16//9 49//9 34//9
f 34//10 49//10 16//10
f 27//4 35//4 50//4
f 50//3 35//3 27//3
f 35//4 21//4 51//4
f 51//3 21//3 35//3
f 13//4 36//4 52//4
f 52//3 36//3 13//3
f 53//6 36//6 27//6
f 27//5 36//5 53//5
f 28//3 30//3 37//3
f 37//4 30//4 28//4
f 38//9 13//9 52//9
f 52//10 13//10 38//10
f 38//3 54//3 28//3
f 28//4 54//4 38//4
f 29//7 37//7 55//7
f 55//8 37//8 29//8
f 29//6 40//6 39//6
f 39//5 40//5 29//5
f 40//9 17//9 39//9
f 39//10 17//10 40//10
f 40//3 37//3 30//3
f 30//4 37//4 40//4
f 28//3 41//3 30//3
f 30//4 41//4 28//4
f 42//1 23//1 41//1
f 41//2 23//2 42//2
f 44//2 43//2 31//2
f 31//1 43//1 44//1
f 16//4 43//4 56//4
f 56//3 43//3 16//3
f 44//5 25//5 57//5
f 57//6 25//6 44//6
f 32//3 58//3 45//3
f 45//4 58//4 32//4
f 58//5 25//5 45//5
f 45//6 25//6 58//6
f 41//3 32//3 42//3
f 42//4 32//4 41//4
f 48//7 46//7 26//7
f 26//8 46//8 48//8
f 46//6 47//6 33//6
f 33//5 47//5 46//5
f 21//9 47//9 59//9
f 59//10 47//10 21//10
f 59//3 48//3 34//3
f 34//4 48//4 59//4
f 49//9 16//9 56//9
f 56//10 16//10 49//10
f 60//3 34//3 49//3
f 49//4 34//4 60//4
f 50//4 35//4 61//4
f 61//3 35//3 50//3
f 62//9 27//9 50//9
f 50//10 27//10 62//10
f 59//6 51//6 21//6
f 21//5 51//5 59//5
f 35//4 51//4 63//4
f 63//3 51//3 35//3
f 52//4 36//4 64//4
f 64//3 36//3 52//3
f 36//6 53//6 54//6
f 54//5 53//5 36//5
f 27//9 62//9 53//9
f 53//10 62//10 27//10
f 64//6 38//6 52//6
f 52//5 38//5 64//5
f 54//3 38//3 65//3
f 65//4 38//4 54//4
f 53//3 28//3 54//3
f 54//4 28//4 53//4
f 37//3 40//3 55//3
f 55//4 40//4 37//4
f 40//6 29//6 55//6
f 55//5 29//5 40//5
f 59//3 41//3 28//3
f 28//4 41//4 59//4
f 66//2 43//2 44//2
f 44//1 43//1 66//1
f 43//6 49//6 56//6
f 56//5 49//5 43//5
f 57//5 25//5 67//5
f 67//6 25//6 57//6
f 68//3 44//3 57//3
f 57//4 44//4 68//4
f 58//3 32//3 69//3
f 69//4 32//4 58//4
f 70//5 25//5 58//5
f 58//6 25//6 70//6
f 32//3 41//3 69//3
f 69//4 41//4 32//4
f 46//7 48//7 71//7
f 71//8 48//8 46//8
f 47//6 46//6 71//6
f 71//5 46//5 47//5
f 48//3 59//3 47//3
f 47//4 59//4 48//4
f 34//3 41//3 59//3
f 59//4 41//4 34//4
f 72//3 34//3 60//3
f 60//4 34//4 72//4
f 49//6 43//6 60//6
f 60//5 43//5 49//5
f 73//7 61//7 35//7
f 35//8 61//8 73//8
f 61//6 62//6 50//6
f 50//5 62//5 61//5
f 51//6 59//6 74//6
f 74//5 59//5 51//5
f 75//4 63//4 51//4
f 51//3 63//3 75//3
f 76//6 35//6 63//6
f 63//5 35//5 76//5
f 54//7 64//7 36//7
f 36//8 64//8 54//8
f 62//3 73//3 53//3
f 53//4 73//4 62//4
f 38//6 64//6 65//6
f 65//5 64//5 38//5
f 64//7 54//7 65//7
f 65//8 54//8 64//8
f 59//3 28//3 53//3
f 53//4 28//4 59//4
f 72//2 43//2 66//2
f 66//1 43//1 72//1
f 44//3 68//3 66//3
f 66//4 68//4 44//4
f 67//5 25//5 77//5
f 77//6 25//6 67//6
f 67//2 68//2 57//2
f 57//1 68//1 67//1
f 78//2 58//2 69//2
f 69//1 58//1 78//1
f 77//5 25//5 70//5
f 70//6 25//6 77//6
f 58//2 78//2 70//2
f 70//1 78//1 58//1
f 69//3 41//3 79//3
f 79//4 41//4 69//4
f 48//3 47//3 71//3
f 71//4 47//4 48//4
f 72//3 41//3 34//3
f 34//4 41//4 72//4
f 43//2 72//2 60//2
f 60//1 72//1 43//1
f 61//7 73//7 80//7
f 80//8 73//8 61//8
f 35//6 76//6 73//6
f 73//5 76//5 35//5
f 62//6 61//6 80//6
f 80//5 61//5 62//5
f 59//3 76//3 74//3
f 74//4 76//4 59//4
f 74//7 75//7 51//7
f 51//8 75//8 74//8
f 63//4 75//4 81//4
f 81//3 75//3 63//3
f 63//9 82//9 76//9
f 76//10 82//10 63//10
f 73//3 62//3 80//3
f 80//4 62//4 73//4
f 59//3 53//3 73//3
f 73//4 53//4 59//4
f 68//5 72//5 66//5
f 66//6 72//6 68//6
f 83//5 67//5 77//5
f 77//6 67//6 83//6
f 68//2 67//2 84//2
f 84//1 67//1 68//1
f 79//5 78//5 69//5
f 69//6 78//6 79//6
f 78//3 77//3 70//3
f 70//4 77//4 78//4
f 79//3 41//3 84//3
f 84//4 41//4 79//4
f 84//3 41//3 72//3
f 72//4 41//4 84//4
f 59//3 73//3 76//3
f 76//4 73//4 59//4
f 82//3 74//3 76//3
f 76//4 74//4 82//4
f 75//7 74//7 85//7
f 85//8 74//8 75//8
f 75//6 82//6 81//6
f 81//5 82//5 75//5
f 82//9 63//9 81//9
f 81//10 63//10 82//10
f 72//5 68//5 84//5
f 84//6 68//6 72//6
f 79//3 67//3 83//3
f 83//4 67//4 79//4
f 77//1 79//1 83//1
f 83//2 79//2 77//2
f 67//3 79//3 84//3
f 84//4 79//4 67//4
f 78//5 79//5 86//5
f 86//6 79//6 78//6
f 77//3 78//3 86//3
f 86//4 78//4 77//4
f 74//3 82//3 85//3
f 85//4 82//4 74//4
f 82//6 75//6 85//6
f 85//5 75//5 82//5
f 79//1 77//1 86//1
f 86//2 77//2 79//2
