# SSTK version 0.8.0
# 7
mtllib original-7.mtl
o Group7/mesh9/mesh9-geometry#mesh9-geometry
v 0.436225 0.102777 0.071582
v -0.460035 0.102777 0.071582
v 0.436225 0.111174 0.071582
v 0.436225 0.102777 0.091280
v -0.460035 0.111174 0.071582
v -0.460035 0.102777 0.091280
v -0.479733 0.112626 0.071582
v -0.460035 0.111174 0.091280
v 0.436225 0.111174 0.091280
v -0.479733 0.107701 0.071582
v 0.455923 0.112626 0.071582
v -0.479733 0.107701 0.091280
v 0.455923 0.107701 0.091280
v -0.479733 0.112626 0.081431
v 0.455923 0.107701 0.071582
v -0.479733 0.132324 0.091280
v -0.460035 0.128850 0.091280
v 0.455923 0.132324 0.091280
v 0.455923 0.112626 0.081431
v 0.436225 0.128850 0.091280
v 0.455923 0.122475 0.081431
v -0.460035 0.128850 0.071582
v -0.479733 0.122475 0.081431
v -0.460035 0.138259 0.091280
v 0.455923 0.132324 0.071582
v -0.479733 0.132324 0.071582
v -0.479733 0.122475 0.071582
v 0.436225 0.138259 0.091280
v 0.455923 0.122475 0.071582
v 0.436225 0.128850 0.071582
v -0.460035 0.138259 0.071582
v -0.460035 0.155935 0.091280
v 0.436225 0.138259 0.071582
v -0.479733 0.134786 0.091280
v 0.436225 0.155935 0.091280
v -0.479733 0.159408 0.091280
v 0.455923 0.134786 0.091280
v -0.479733 0.134786 0.071582
v 0.455923 0.159408 0.091280
v -0.460035 0.165344 0.091280
v -0.460035 0.155935 0.071582
v 0.455923 0.134786 0.071582
v -0.479733 0.159408 0.071582
v 0.455923 0.159408 0.071582
v 0.436225 0.165344 0.091280
v 0.436225 0.155935 0.071582
v -0.460035 0.183020 0.091280
v 0.436225 0.165344 0.071582
v -0.460035 0.165344 0.071582
v 0.436225 0.183020 0.091280
v -0.479733 0.186493 0.091280
v 0.455923 0.161871 0.091280
v -0.479733 0.161871 0.091280
v 0.455923 0.186493 0.091280
v -0.460035 0.191418 0.091280
v -0.460035 0.183020 0.071582
v 0.455923 0.161871 0.071582
v -0.479733 0.161871 0.071582
v 0.455923 0.186493 0.071582
v 0.436225 0.191418 0.091280
v -0.479733 0.186493 0.071582
v 0.436225 0.183020 0.071582
v 0.436225 0.191418 0.071582
v -0.460035 0.191418 0.071582
vn 0 0 -1
vn 0 0 1
vn 0 -1 0
vn 0 1 0
vn 1 0 0
vn -1 0 0
vn 0.17364796311995492 -0.9848077908426045 0
vn -0.17364796311995492 0.9848077908426045 0
vn -0.17364796311995492 -0.9848077908426045 0
vn 0.17364796311995492 0.9848077908426045 0
usemtl material_0_0
f 1//1 2//1 3//1
f 3//2 2//2 1//2
f 1//3 4//3 2//3
f 2//4 4//4 1//4
f 5//1 3//1 2//1
f 2//2 3//2 5//2
f 1//5 3//5 4//5
f 4//6 3//6 1//6
f 6//3 2//3 4//3
f 4//4 2//4 6//4
f 3//1 5//1 7//1
f 7//2 5//2 3//2
f 5//6 2//6 8//6
f 8//5 2//5 5//5
f 9//5 4//5 3//5
f 3//6 4//6 9//6
f 6//6 8//6 2//6
f 2//5 8//5 6//5
f 6//2 4//2 8//2
f 8//1 4//1 6//1
f 10//1 7//1 5//1
f 5//2 7//2 10//2
f 11//1 3//1 7//1
f 7//2 3//2 11//2
f 8//7 12//7 5//7
f 5//8 12//8 8//8
f 9//2 8//2 4//2
f 4//1 8//1 9//1
f 9//9 3//9 13//9
f 13//10 3//10 9//10
f 7//6 10//6 14//6
f 14//5 10//5 7//5
f 10//7 5//7 12//7
f 12//8 5//8 10//8
f 15//1 3//1 11//1
f 11//2 3//2 15//2
f 7//4 14//4 11//4
f 11//3 14//3 7//3
f 12//2 8//2 16//2
f 16//1 8//1 12//1
f 9//2 17//2 8//2
f 8//1 17//1 9//1
f 15//9 13//9 3//9
f 3//10 13//10 15//10
f 13//2 18//2 9//2
f 9//1 18//1 13//1
f 12//6 14//6 10//6
f 10//5 14//5 12//5
f 15//5 11//5 13//5
f 13//6 11//6 15//6
f 19//4 11//4 14//4
f 14//3 11//3 19//3
f 17//2 16//2 8//2
f 8//1 16//1 17//1
f 16//6 14//6 12//6
f 12//5 14//5 16//5
f 17//2 9//2 20//2
f 20//1 9//1 17//1
f 13//5 21//5 18//5
f 18//6 21//6 13//6
f 20//2 9//2 18//2
f 18//1 9//1 20//1
f 19//5 13//5 11//5
f 11//6 13//6 19//6
f 19//1 14//1 21//1
f 21//2 14//2 19//2
f 17//10 22//10 16//10
f 16//9 22//9 17//9
f 14//6 16//6 23//6
f 23//5 16//5 14//5
f 17//2 20//2 24//2
f 24//1 20//1 17//1
f 21//5 13//5 19//5
f 19//6 13//6 21//6
f 18//5 21//5 25//5
f 25//6 21//6 18//6
f 18//8 25//8 20//8
f 20//7 25//7 18//7
f 23//1 21//1 14//1
f 14//2 21//2 23//2
f 17//6 24//6 22//6
f 22//5 24//5 17//5
f 26//10 16//10 22//10
f 22//9 16//9 26//9
f 23//6 16//6 27//6
f 27//5 16//5 23//5
f 28//2 24//2 20//2
f 20//1 24//1 28//1
f 29//5 25//5 21//5
f 21//6 25//6 29//6
f 30//8 20//8 25//8
f 25//7 20//7 30//7
f 23//3 27//3 21//3
f 21//4 27//4 23//4
f 31//6 22//6 24//6
f 24//5 22//5 31//5
f 26//6 27//6 16//6
f 16//5 27//5 26//5
f 22//1 27//1 26//1
f 26//2 27//2 22//2
f 28//2 32//2 24//2
f 24//1 32//1 28//1
f 28//5 20//5 33//5
f 33//6 20//6 28//6
f 25//1 29//1 30//1
f 30//2 29//2 25//2
f 29//3 21//3 27//3
f 27//4 21//4 29//4
f 30//5 33//5 20//5
f 20//6 33//6 30//6
f 22//1 31//1 30//1
f 30//2 31//2 22//2
f 24//7 34//7 31//7
f 31//8 34//8 24//8
f 22//1 30//1 27//1
f 27//2 30//2 22//2
f 32//2 28//2 35//2
f 35//1 28//1 32//1
f 32//2 36//2 24//2
f 24//1 36//1 32//1
f 28//9 33//9 37//9
f 37//10 33//10 28//10
f 27//1 30//1 29//1
f 29//2 30//2 27//2
f 33//1 30//1 31//1
f 31//2 30//2 33//2
f 34//2 24//2 36//2
f 36//1 24//1 34//1
f 38//7 31//7 34//7
f 34//8 31//8 38//8
f 35//2 28//2 39//2
f 39//1 28//1 35//1
f 32//2 35//2 40//2
f 40//1 35//1 32//1
f 32//10 41//10 36//10
f 36//9 41//9 32//9
f 42//9 37//9 33//9
f 33//10 37//10 42//10
f 37//2 39//2 28//2
f 28//1 39//1 37//1
f 33//1 31//1 41//1
f 41//2 31//2 33//2
f 34//6 36//6 38//6
f 38//5 36//5 34//5
f 38//1 43//1 31//1
f 31//2 43//2 38//2
f 39//8 44//8 35//8
f 35//7 44//7 39//7
f 45//2 40//2 35//2
f 35//1 40//1 45//1
f 32//6 40//6 41//6
f 41//5 40//5 32//5
f 43//10 36//10 41//10
f 41//9 36//9 43//9
f 42//5 44//5 37//5
f 37//6 44//6 42//6
f 42//1 33//1 44//1
f 44//2 33//2 42//2
f 39//5 37//5 44//5
f 44//6 37//6 39//6
f 41//1 31//1 43//1
f 43//2 31//2 41//2
f 41//1 46//1 33//1
f 33//2 46//2 41//2
f 43//6 38//6 36//6
f 36//5 38//5 43//5
f 46//8 35//8 44//8
f 44//7 35//7 46//7
f 45//2 47//2 40//2
f 40//1 47//1 45//1
f 45//5 35//5 48//5
f 48//6 35//6 45//6
f 49//6 41//6 40//6
f 40//5 41//5 49//5
f 46//1 44//1 33//1
f 33//2 44//2 46//2
f 41//1 49//1 46//1
f 46//2 49//2 41//2
f 46//5 48//5 35//5
f 35//6 48//6 46//6
f 47//2 45//2 50//2
f 50//1 45//1 47//1
f 47//2 51//2 40//2
f 40//1 51//1 47//1
f 45//9 48//9 52//9
f 52//10 48//10 45//10
f 40//7 53//7 49//7
f 49//8 53//8 40//8
f 48//1 46//1 49//1
f 49//2 46//2 48//2
f 50//2 45//2 54//2
f 54//1 45//1 50//1
f 47//2 50//2 55//2
f 55//1 50//1 47//1
f 47//10 56//10 51//10
f 51//9 56//9 47//9
f 53//2 40//2 51//2
f 51//1 40//1 53//1
f 57//9 52//9 48//9
f 48//10 52//10 57//10
f 52//2 54//2 45//2
f 45//1 54//1 52//1
f 58//7 49//7 53//7
f 53//8 49//8 58//8
f 48//1 49//1 56//1
f 56//2 49//2 48//2
f 54//8 59//8 50//8
f 50//7 59//7 54//7
f 60//2 55//2 50//2
f 50//1 55//1 60//1
f 47//6 55//6 56//6
f 56//5 55//5 47//5
f 61//10 51//10 56//10
f 56//9 51//9 61//9
f 53//6 51//6 58//6
f 58//5 51//5 53//5
f 57//5 59//5 52//5
f 52//6 59//6 57//6
f 57//1 48//1 59//1
f 59//2 48//2 57//2
f 54//5 52//5 59//5
f 59//6 52//6 54//6
f 58//1 61//1 49//1
f 49//2 61//2 58//2
f 56//1 49//1 61//1
f 61//2 49//2 56//2
f 62//1 48//1 56//1
f 56//2 48//2 62//2
f 62//8 50//8 59//8
f 59//7 50//7 62//7
f 60//4 63//4 55//4
f 55//3 63//3 60//3
f 50//5 62//5 60//5
f 60//6 62//6 50//6
f 64//6 56//6 55//6
f 55//5 56//5 64//5
f 61//6 58//6 51//6
f 51//5 58//5 61//5
f 62//1 59//1 48//1
f 48//2 59//2 62//2
f 62//1 56//1 63//1
f 63//2 56//2 62//2
f 63//5 60//5 62//5
f 62//6 60//6 63//6
f 64//4 55//4 63//4
f 63//3 55//3 64//3
f 64//1 63//1 56//1
f 56//2 63//2 64//2
