# SSTK version 0.8.0
# 87
mtllib original-87.mtl
o Group81/mesh143/mesh143-geometry#mesh143-geometry
v -0.535953 0.848438 -0.218143
v -0.535953 0.184453 -0.218143
v -0.535383 0.847868 -0.217411
v -0.536365 0.184041 -0.218974
v -0.535383 0.185024 -0.217411
v -0.535540 0.848025 -0.261448
v -0.536365 0.848850 -0.218974
v -0.536155 0.184251 -0.259964
v -0.534677 0.185729 -0.216808
v -0.535540 0.184866 -0.261448
v -0.534562 0.847047 -0.262723
v -0.536155 0.848640 -0.259964
v -0.536365 0.848850 -0.258371
v -0.536365 0.184041 -0.258371
v -0.534677 0.847162 -0.216808
v -0.534562 0.185844 -0.262723
v -0.533865 0.186541 -0.216359
v -0.533865 0.846350 -0.216359
v -0.533287 0.187119 -0.263701
v -0.533287 0.845772 -0.263701
v -0.532979 0.187427 -0.216082
v -0.532979 0.845464 -0.216082
v -0.531803 0.188604 -0.264316
v -0.531803 0.844287 -0.264316
v -0.532056 0.188350 -0.215988
v -0.532056 0.844541 -0.215988
v -0.530209 0.190197 -0.264526
v -0.531133 0.189274 -0.216082
v -0.531133 0.843617 -0.216082
v -0.530209 0.842694 -0.264526
v -0.530247 0.190159 -0.216359
v -0.528616 0.191790 -0.264316
v -0.529435 0.190972 -0.216808
v -0.530247 0.842732 -0.216359
v -0.528616 0.841101 -0.264316
v -0.528729 0.191677 -0.217411
v -0.529435 0.841919 -0.216808
v -0.527132 0.193275 -0.263701
v -0.528159 0.192248 -0.218143
v -0.527132 0.839616 -0.263701
v -0.527747 0.192659 -0.218974
v -0.528729 0.841214 -0.217411
v -0.528159 0.840644 -0.218143
v -0.525857 0.194550 -0.262723
v -0.527747 0.840232 -0.218974
v -0.525857 0.838341 -0.262723
v -0.524879 0.195528 -0.261448
v -0.524054 0.836538 -0.228823
v -0.524879 0.837363 -0.261448
v -0.524264 0.196143 -0.259964
v -0.524054 0.196353 -0.228823
v -0.524264 0.836748 -0.259964
v -0.524054 0.196353 -0.258371
v -0.524054 0.836538 -0.258371
vn -0.8468429816666966 0 0.5318429884861312
vn -0.7229188947972355 0 0.6909328994519972
vn 0.7229188947972355 0 -0.6909328994519972
vn 0.8468429816666966 0 -0.5318429884861312
vn -0.8961530786670091 0 0.44374503895327244
vn 0.8961530786670091 0 -0.44374503895327244
vn 0.7071067811865476 0.7071067811865476 0
vn -0.7071067811865476 -0.7071067811865476 0
vn 0.7071067811865476 -0.7071067811865476 0
vn -0.7071067811865476 0.7071067811865476 0
vn -0.5695947683170903 0 0.8219256656813927
vn 0.5695947683170903 0 -0.8219256656813927
vn -1 0 0
vn 1 0 0
vn -0.8660253028382762 0 -0.5000001748438417
vn -0.7071067811865476 0 -0.7071067811865476
vn 0.8660253028382762 0 0.5000001748438417
vn 0.7071067811865476 0 0.7071067811865476
vn -0.965925849201117 0 -0.2588189595935754
vn 0.965925849201117 0 0.2588189595935754
vn -0.9914448886106773 0 -0.1305259853353411
vn 0.9914448886106773 0 0.1305259853353411
vn -0.3931069035909368 0 0.9194927744953442
vn 0.3931069035909368 0 -0.9194927744953442
vn -0.5000001748438417 0 -0.8660253028382762
vn 0.5000001748438417 0 0.8660253028382762
vn -0.20063309306919924 0 0.9796664544453312
vn 0.20063309306919924 0 -0.9796664544453312
vn -0.2588189595935754 0 -0.965925849201117
vn 0.2588189595935754 0 0.965925849201117
vn 0 0 1
vn 0 0 -1
vn 0.20063309306919924 0 0.9796664544453312
vn -0.20063309306919924 0 -0.9796664544453312
vn 0.2588189595935754 0 -0.965925849201117
vn -0.2588189595935754 0 0.965925849201117
vn 0.3931069035909368 0 0.9194927744953442
vn -0.3931069035909368 0 -0.9194927744953442
vn 0.5695947683170903 0 0.8219256656813927
vn -0.5695947683170903 0 -0.8219256656813927
vn 0.5000001748438417 0 -0.8660253028382762
vn -0.5000001748438417 0 0.8660253028382762
vn 0.7229188947972355 0 0.6909328994519972
vn -0.7229188947972355 0 -0.6909328994519972
vn 0.8468429816666966 0 0.5318429884861312
vn -0.8468429816666966 0 -0.5318429884861312
vn 0.7071067811865476 0 -0.7071067811865476
vn -0.7071067811865476 0 0.7071067811865476
vn 0.8961530786670091 0 0.44374503895327244
vn -0.8961530786670091 0 -0.44374503895327244
vn 0.9363293008566976 0 0.35112311282114117
vn -0.9363293008566976 0 -0.35112311282114117
vn 0.8660253028382762 0 -0.5000001748438417
vn -0.8660253028382762 0 0.5000001748438417
vn 0.965925849201117 0 -0.2588189595935754
vn -0.965925849201117 0 0.2588189595935754
vn 0.9914448886106773 0 -0.1305259853353411
vn -0.9914448886106773 0 0.1305259853353411
usemtl material_0_0
f 1//1 2//1 3//2
f 3//3 2//4 1//4
f 2//1 1//1 4//5
f 4//6 1//4 2//4
f 5//2 3//2 2//1
f 2//4 3//3 5//3
f 3//7 6//7 1//7
f 1//8 6//8 3//8
f 7//5 4//5 1//1
f 1//4 4//6 7//6
f 4//9 8//9 2//9
f 2//10 8//10 4//10
f 5//2 9//11 3//2
f 3//3 9//12 5//3
f 2//9 10//9 5//9
f 5//10 10//10 2//10
f 11//7 6//7 3//7
f 3//8 6//8 11//8
f 6//7 12//7 1//7
f 1//8 12//8 6//8
f 7//13 13//13 4//13
f 4//14 13//14 7//14
f 1//7 12//7 7//7
f 7//8 12//8 1//8
f 14//9 8//9 4//9
f 4//10 8//10 14//10
f 8//9 10//9 2//9
f 2//10 10//10 8//10
f 5//9 10//9 9//9
f 9//10 10//10 5//10
f 15//11 3//2 9//11
f 9//12 3//3 15//12
f 6//15 11//16 10//15
f 10//17 11//18 6//17
f 15//7 11//7 3//7
f 3//8 11//8 15//8
f 12//19 6//15 8//19
f 8//20 6//17 12//20
f 13//7 7//7 12//7
f 12//8 7//8 13//8
f 14//13 4//13 13//13
f 13//14 4//14 14//14
f 8//19 14//21 12//19
f 12//20 14//22 8//20
f 10//15 8//19 6//15
f 6//17 8//20 10//17
f 10//9 16//9 9//9
f 9//10 16//10 10//10
f 9//11 17//23 15//11
f 15//12 17//24 9//12
f 16//16 10//15 11//16
f 11//18 10//17 16//18
f 18//7 11//7 15//7
f 15//8 11//8 18//8
f 13//21 12//19 14//21
f 14//22 12//20 13//22
f 9//9 16//9 17//9
f 17//10 16//10 9//10
f 18//23 15//11 17//23
f 17//24 15//12 18//24
f 16//16 11//16 19//25
f 19//26 11//18 16//18
f 20//7 11//7 18//7
f 18//8 11//8 20//8
f 16//9 19//9 17//9
f 17//10 19//10 16//10
f 17//23 21//27 18//23
f 18//24 21//28 17//24
f 20//25 19//25 11//16
f 11//18 19//26 20//26
f 22//7 20//7 18//7
f 18//8 20//8 22//8
f 17//9 19//9 21//9
f 21//10 19//10 17//10
f 22//27 18//23 21//27
f 21//28 18//24 22//28
f 19//25 20//25 23//29
f 23//30 20//26 19//26
f 24//7 20//7 22//7
f 22//8 20//8 24//8
f 21//9 19//9 25//9
f 25//10 19//10 21//10
f 21//27 25//31 22//27
f 22//28 25//32 21//28
f 24//29 23//29 20//25
f 20//26 23//30 24//30
f 19//9 23//9 25//9
f 25//10 23//10 19//10
f 26//7 24//7 22//7
f 22//8 24//8 26//8
f 26//31 22//27 25//31
f 25//32 22//28 26//32
f 23//29 24//29 27//32
f 27//31 24//30 23//30
f 25//9 23//9 28//9
f 28//10 23//10 25//10
f 29//7 24//7 26//7
f 26//8 24//8 29//8
f 25//31 28//33 26//31
f 26//32 28//34 25//32
f 30//32 27//32 24//29
f 24//30 27//31 30//31
f 23//9 27//9 31//9
f 31//10 27//10 23//10
f 28//9 23//9 31//9
f 31//10 23//10 28//10
f 30//7 24//7 29//7
f 29//8 24//8 30//8
f 29//33 26//31 28//33
f 28//34 26//32 29//34
f 27//32 30//32 32//35
f 32//36 30//31 27//31
f 31//9 27//9 33//9
f 33//10 27//10 31//10
f 28//33 31//37 29//33
f 29//34 31//38 28//34
f 34//7 30//7 29//7
f 29//8 30//8 34//8
f 35//35 32//35 30//32
f 30//31 32//36 35//36
f 27//9 32//9 36//9
f 36//10 32//10 27//10
f 33//9 27//9 36//9
f 36//10 27//10 33//10
f 31//37 33//39 34//37
f 34//38 33//40 31//38
f 34//37 29//33 31//37
f 31//38 29//34 34//38
f 37//7 30//7 34//7
f 34//8 30//8 37//8
f 32//35 35//35 38//41
f 38//42 35//36 32//36
f 35//7 30//7 37//7
f 37//8 30//8 35//8
f 36//9 32//9 39//9
f 39//10 32//10 36//10
f 33//39 36//43 37//39
f 37//40 36//44 33//40
f 37//39 34//37 33//39
f 33//40 34//38 37//40
f 40//41 38//41 35//35
f 35//36 38//42 40//42
f 32//9 38//9 41//9
f 41//10 38//10 32//10
f 42//7 35//7 37//7
f 37//8 35//8 42//8
f 39//9 32//9 41//9
f 41//10 32//10 39//10
f 39//45 43//45 36//43
f 36//44 43//46 39//46
f 42//43 37//39 36//43
f 36//44 37//40 42//44
f 38//41 40//41 44//47
f 44//48 40//42 38//42
f 40//7 35//7 43//7
f 43//8 35//8 40//8
f 38//9 44//9 41//9
f 41//10 44//10 38//10
f 43//7 35//7 42//7
f 42//8 35//8 43//8
f 41//49 45//49 39//45
f 39//46 45//50 41//50
f 43//45 39//45 45//49
f 45//50 39//46 43//46
f 42//43 36//43 43//45
f 43//46 36//44 42//44
f 46//47 44//47 40//41
f 40//42 44//48 46//48
f 45//7 40//7 43//7
f 43//8 40//8 45//8
f 44//9 47//9 41//9
f 41//10 47//10 44//10
f 45//51 41//51 48//51
f 48//52 41//52 45//52
f 46//47 49//53 44//47
f 44//48 49//54 46//48
f 46//7 40//7 48//7
f 48//8 40//8 46//8
f 48//7 40//7 45//7
f 45//8 40//8 48//8
f 47//53 44//47 49//53
f 49//54 44//48 47//54
f 47//9 50//9 41//9
f 41//10 50//10 47//10
f 51//51 48//51 41//51
f 41//52 48//52 51//52
f 49//7 46//7 48//7
f 48//8 46//8 49//8
f 49//53 52//55 47//53
f 47//54 52//56 49//54
f 50//55 47//53 52//55
f 52//56 47//54 50//56
f 41//9 50//9 51//9
f 51//10 50//10 41//10
f 51//14 53//14 48//14
f 48//13 53//13 51//13
f 52//7 49//7 48//7
f 48//8 49//8 52//8
f 52//55 54//57 50//55
f 50//56 54//58 52//56
f 53//9 51//9 50//9
f 50//10 51//10 53//10
f 54//14 48//14 53//14
f 53//13 48//13 54//13
f 54//7 52//7 48//7
f 48//8 52//8 54//8
f 53//57 50//55 54//57
f 54//58 50//56 53//58
