# SSTK version 0.8.0
# 68
mtllib original-68.mtl
o Group68/mesh105/mesh105-geometry#mesh105-geometry
v 0.423913 -0.020336 0.042035
v 0.384517 -0.025261 0.042035
v 0.423913 -0.025261 0.042035
v 0.384517 -0.020336 0.042035
v 0.423913 -0.025261 0.056808
v 0.423913 -0.020336 -0.115549
v 0.384517 -0.020336 -0.115549
v 0.384517 -0.025261 0.056808
v 0.423913 -0.030185 0.042035
v 0.423913 -0.035110 -0.115549
v 0.384517 -0.030185 0.042035
v 0.384517 -0.030185 0.056808
v 0.423913 -0.030185 0.056808
v 0.423913 -0.030185 -0.115549
v 0.423913 -0.025261 -0.115549
v 0.384517 -0.035110 -0.115549
v 0.423913 -0.035110 0.042035
v 0.384517 -0.030185 -0.115549
v 0.384517 -0.025261 -0.115549
v 0.384517 -0.035110 0.042035
v 0.423913 -0.030185 -0.130323
v 0.384517 -0.025261 -0.130323
v 0.384517 -0.030185 -0.130323
v 0.423913 -0.025261 -0.130323
vn 0 0 1
vn 0 0 -1
vn 0 1 0
vn 0 -1 0
vn 1 0 0
vn -1 0 0
usemtl material_0_0
f 1//1 2//1 3//1
f 2//1 1//1 4//1
f 3//2 2//2 1//2
f 4//2 1//2 2//2
f 2//3 5//3 3//3
f 3//4 5//4 2//4
f 3//5 6//5 1//5
f 1//6 6//6 3//6
f 1//3 7//3 4//3
f 4//4 7//4 1//4
f 7//6 2//6 4//6
f 4//5 2//5 7//5
f 5//3 2//3 8//3
f 8//4 2//4 5//4
f 5//5 9//5 3//5
f 3//6 9//6 5//6
f 6//5 3//5 10//5
f 10//6 3//6 6//6
f 7//3 1//3 6//3
f 6//4 1//4 7//4
f 2//6 7//6 11//6
f 11//5 7//5 2//5
f 2//6 12//6 8//6
f 8//5 12//5 2//5
f 12//1 5//1 8//1
f 8//2 5//2 12//2
f 9//5 5//5 13//5
f 13//6 5//6 9//6
f 9//5 10//5 3//5
f 3//6 10//6 9//6
f 6//5 10//5 14//5
f 14//6 10//6 6//6
f 15//2 7//2 6//2
f 6//1 7//1 15//1
f 16//6 11//6 7//6
f 7//5 11//5 16//5
f 12//6 2//6 11//6
f 11//5 2//5 12//5
f 5//1 12//1 13//1
f 13//2 12//2 5//2
f 12//4 9//4 13//4
f 13//3 9//3 12//3
f 10//5 9//5 17//5
f 17//6 9//6 10//6
f 10//2 18//2 14//2
f 14//1 18//1 10//1
f 6//5 14//5 15//5
f 15//6 14//6 6//6
f 7//2 15//2 19//2
f 19//1 15//1 7//1
f 11//6 16//6 20//6
f 20//5 16//5 11//5
f 16//6 7//6 19//6
f 19//5 7//5 16//5
f 9//4 12//4 11//4
f 11//3 12//3 9//3
f 9//1 20//1 17//1
f 17//2 20//2 9//2
f 20//4 10//4 17//4
f 17//3 10//3 20//3
f 18//2 10//2 16//2
f 16//1 10//1 18//1
f 18//4 21//4 14//4
f 14//3 21//3 18//3
f 21//5 15//5 14//5
f 14//6 15//6 21//6
f 15//3 22//3 19//3
f 19//4 22//4 15//4
f 10//4 20//4 16//4
f 16//3 20//3 10//3
f 20//1 9//1 11//1
f 11//2 9//2 20//2
f 16//6 19//6 18//6
f 18//5 19//5 16//5
f 21//4 18//4 23//4
f 23//3 18//3 21//3
f 15//5 21//5 24//5
f 24//6 21//6 15//6
f 22//3 15//3 24//3
f 24//4 15//4 22//4
f 22//6 18//6 19//6
f 19//5 18//5 22//5
f 18//6 22//6 23//6
f 23//5 22//5 18//5
f 22//2 21//2 23//2
f 23//1 21//1 22//1
f 21//2 22//2 24//2
f 24//1 22//1 21//1
