# SSTK version 0.8.0
# 4
mtllib original-4.mtl
o Group4/mesh3/mesh3-geometry#mesh3-geometry
v -0.460035 0.191418 0.091280
v -0.479733 0.191418 -0.184492
v -0.479733 0.191418 0.091280
v -0.460035 0.191418 -0.184492
v -0.479733 0.186493 0.071582
v -0.479733 0.186493 0.091280
v -0.460035 0.183020 0.071582
v -0.479733 0.186493 -0.184492
v -0.479733 0.159408 0.071582
v -0.460035 0.183020 0.091280
v -0.460035 0.122475 0.071582
v -0.460035 0.183020 -0.184492
v -0.479733 0.186493 -0.164794
v -0.479733 0.134786 0.071582
v -0.479733 0.161871 0.071582
v -0.460035 0.155935 0.071582
v -0.460035 0.183020 -0.164794
v -0.460035 0.138259 0.071582
v -0.479733 0.159408 0.091280
v -0.460035 0.165344 0.071582
v -0.460035 0.128850 -0.164794
v -0.479733 0.107701 0.071582
v -0.460035 0.165344 -0.164794
v -0.460035 0.138259 0.091280
v -0.479733 0.161871 0.091280
v -0.460035 0.155935 0.091280
v -0.460035 0.165344 0.091280
v -0.460035 0.128850 0.071582
v -0.460035 0.122475 -0.164794
v -0.460035 0.155935 -0.164794
v -0.479733 0.132324 -0.164794
v -0.479733 0.132324 0.071582
v -0.479733 0.161871 -0.164794
v -0.479733 0.134786 0.091280
v -0.469884 0.122475 0.071582
v -0.460035 0.138259 -0.164794
v -0.479733 0.159408 -0.164794
v -0.479733 0.107701 -0.164794
v -0.479733 0.132324 0.091280
v -0.469884 0.112626 0.071582
v -0.479733 0.161871 -0.184492
v -0.460035 0.155935 -0.184492
v -0.460035 0.128850 0.091280
v -0.469884 0.122475 -0.164794
v -0.479733 0.132324 -0.184492
v -0.460035 0.128850 -0.184492
v -0.479733 0.134786 -0.164794
v -0.479733 0.102777 -0.184492
v -0.469884 0.112626 -0.164794
v -0.460035 0.111174 0.071582
v -0.460035 0.165344 -0.184492
v -0.479733 0.159408 -0.184492
v -0.460035 0.138259 -0.184492
v -0.479733 0.102777 0.091280
v -0.479733 0.107701 -0.184492
v -0.460035 0.111174 -0.164794
v -0.460035 0.111174 0.091280
v -0.460035 0.112626 0.071582
v -0.479733 0.134786 -0.184492
v -0.479733 0.107701 0.091280
v -0.460035 0.102777 -0.184492
v -0.460035 0.112626 -0.164794
v -0.460035 0.102777 0.091280
v -0.460035 0.111174 -0.184492
vn 0 1 0
vn 0 -1 0
vn -1 0 0
vn 1 0 0
vn 0 0 1
vn 0 0 -1
vn -0.17364796311995492 -0.9848077908426045 0
vn 0.17364796311995492 0.9848077908426045 0
vn -0.17364796311995492 0.9848077908426045 0
vn 0.17364796311995492 -0.9848077908426045 0
usemtl material_0_0
f 1//1 2//1 3//1
f 2//1 1//1 4//1
f 3//2 2//2 1//2
f 4//2 1//2 2//2
f 5//3 3//3 2//3
f 2//4 3//4 5//4
f 6//5 1//5 3//5
f 3//6 1//6 6//6
f 1//4 7//4 4//4
f 4//3 7//3 1//3
f 4//6 8//6 2//6
f 2//5 8//5 4//5
f 3//3 5//3 6//3
f 6//4 5//4 3//4
f 5//3 2//3 9//3
f 9//4 2//4 5//4
f 1//5 6//5 10//5
f 10//6 6//6 1//6
f 7//4 1//4 10//4
f 10//3 1//3 7//3
f 4//4 7//4 11//4
f 11//3 7//3 4//3
f 8//6 4//6 12//6
f 12//5 4//5 8//5
f 13//3 2//3 8//3
f 8//4 2//4 13//4
f 5//7 10//7 6//7
f 6//8 10//8 5//8
f 9//3 2//3 14//3
f 14//4 2//4 9//4
f 9//3 15//3 5//3
f 5//4 15//4 9//4
f 10//7 5//7 7//7
f 7//8 5//8 10//8
f 16//4 11//4 7//4
f 7//3 11//3 16//3
f 4//4 11//4 17//4
f 17//3 11//3 4//3
f 4//4 17//4 12//4
f 12//3 17//3 4//3
f 17//7 8//7 12//7
f 12//8 8//8 17//8
f 14//3 2//3 13//3
f 13//4 2//4 14//4
f 8//7 17//7 13//7
f 13//8 17//8 8//8
f 18//5 9//5 14//5
f 14//6 9//6 18//6
f 19//3 15//3 9//3
f 9//4 15//4 19//4
f 20//5 5//5 15//5
f 15//6 5//6 20//6
f 5//5 20//5 7//5
f 7//6 20//6 5//6
f 18//4 11//4 16//4
f 16//3 11//3 18//3
f 20//4 16//4 7//4
f 7//3 16//3 20//3
f 17//4 11//4 21//4
f 21//3 11//3 17//3
f 14//3 13//3 22//3
f 22//4 13//4 14//4
f 23//6 13//6 17//6
f 17//5 13//5 23//5
f 9//5 18//5 16//5
f 16//6 18//6 9//6
f 14//9 24//9 18//9
f 18//10 24//10 14//10
f 15//3 19//3 25//3
f 25//4 19//4 15//4
f 9//7 26//7 19//7
f 19//8 26//8 9//8
f 15//9 27//9 20//9
f 20//10 27//10 15//10
f 18//4 28//4 11//4
f 11//3 28//3 18//3
f 27//4 16//4 20//4
f 20//3 16//3 27//3
f 29//4 21//4 11//4
f 11//3 21//3 29//3
f 17//4 21//4 30//4
f 30//3 21//3 17//3
f 22//3 13//3 31//3
f 31//4 13//4 22//4
f 32//3 14//3 22//3
f 22//4 14//4 32//4
f 13//6 23//6 33//6
f 33//5 23//5 13//5
f 17//4 30//4 23//4
f 23//3 30//3 17//3
f 26//7 9//7 16//7
f 16//8 9//8 26//8
f 24//9 14//9 34//9
f 34//10 14//10 24//10
f 24//4 28//4 18//4
f 18//3 28//3 24//3
f 19//5 27//5 25//5
f 25//6 27//6 19//6
f 27//9 15//9 25//9
f 25//10 15//10 27//10
f 27//5 19//5 26//5
f 26//6 19//6 27//6
f 28//5 35//5 11//5
f 11//6 35//6 28//6
f 16//4 27//4 26//4
f 26//3 27//3 16//3
f 29//6 31//6 21//6
f 21//5 31//5 29//5
f 35//2 29//2 11//2
f 11//1 29//1 35//1
f 30//4 21//4 36//4
f 36//3 21//3 30//3
f 31//3 13//3 37//3
f 37//4 13//4 31//4
f 38//3 22//3 31//3
f 31//4 22//4 38//4
f 39//3 14//3 32//3
f 32//4 14//4 39//4
f 22//5 40//5 32//5
f 32//6 40//6 22//6
f 23//9 41//9 33//9
f 33//10 41//10 23//10
f 33//3 37//3 13//3
f 13//4 37//4 33//4
f 42//4 23//4 30//4
f 30//3 23//3 42//3
f 14//3 39//3 34//3
f 34//4 39//4 14//4
f 39//5 24//5 34//5
f 34//6 24//6 39//6
f 28//4 24//4 43//4
f 43//3 24//3 28//3
f 32//5 35//5 28//5
f 28//6 35//6 32//6
f 44//6 31//6 29//6
f 29//5 31//5 44//5
f 45//7 21//7 31//7
f 31//8 21//8 45//8
f 29//2 35//2 44//2
f 44//1 35//1 29//1
f 46//4 36//4 21//4
f 21//3 36//3 46//3
f 36//6 37//6 30//6
f 30//5 37//5 36//5
f 47//3 31//3 37//3
f 37//4 31//4 47//4
f 48//3 22//3 38//3
f 38//4 22//4 48//4
f 49//6 38//6 31//6
f 31//5 38//5 49//5
f 32//7 43//7 39//7
f 39//8 43//8 32//8
f 40//5 22//5 50//5
f 50//6 22//6 40//6
f 32//5 40//5 35//5
f 35//6 40//6 32//6
f 41//9 23//9 51//9
f 51//10 23//10 41//10
f 52//3 33//3 41//3
f 41//4 33//4 52//4
f 37//3 33//3 52//3
f 52//4 33//4 37//4
f 23//4 42//4 51//4
f 51//3 42//3 23//3
f 30//7 52//7 42//7
f 42//8 52//8 30//8
f 24//5 39//5 43//5
f 43//6 39//6 24//6
f 43//7 32//7 28//7
f 28//8 32//8 43//8
f 49//6 31//6 44//6
f 44//5 31//5 49//5
f 21//7 45//7 46//7
f 46//8 45//8 21//8
f 31//3 47//3 45//3
f 45//4 47//4 31//4
f 35//4 49//4 44//4
f 44//3 49//3 35//3
f 36//4 46//4 53//4
f 53//3 46//3 36//3
f 37//6 36//6 47//6
f 47//5 36//5 37//5
f 52//7 30//7 37//7
f 37//8 30//8 52//8
f 54//3 22//3 48//3
f 48//4 22//4 54//4
f 48//3 38//3 55//3
f 55//4 38//4 48//4
f 38//6 49//6 56//6
f 56//5 49//5 38//5
f 22//9 57//9 50//9
f 50//10 57//10 22//10
f 40//5 50//5 58//5
f 58//6 50//6 40//6
f 49//4 35//4 40//4
f 40//3 35//3 49//3
f 51//6 52//6 41//6
f 41//5 52//5 51//5
f 52//6 51//6 42//6
f 42//5 51//5 52//5
f 45//6 53//6 46//6
f 46//5 53//5 45//5
f 45//3 47//3 59//3
f 59//4 47//4 45//4
f 59//9 36//9 53//9
f 53//10 36//10 59//10
f 36//9 59//9 47//9
f 47//10 59//10 36//10
f 22//3 54//3 60//3
f 60//4 54//4 22//4
f 61//2 54//2 48//2
f 48//1 54//1 61//1
f 56//9 55//9 38//9
f 38//10 55//10 56//10
f 55//6 61//6 48//6
f 48//5 61//5 55//5
f 62//6 56//6 49//6
f 49//5 56//5 62//5
f 57//9 22//9 60//9
f 60//10 22//10 57//10
f 63//4 50//4 57//4
f 57//3 50//3 63//3
f 50//4 61//4 58//4
f 58//3 61//3 50//3
f 62//1 40//1 58//1
f 58//2 40//2 62//2
f 40//1 62//1 49//1
f 49//2 62//2 40//2
f 53//6 45//6 59//6
f 59//5 45//5 53//5
f 54//5 57//5 60//5
f 60//6 57//6 54//6
f 54//2 61//2 63//2
f 63//1 61//1 54//1
f 55//9 56//9 64//9
f 64//10 56//10 55//10
f 61//6 55//6 64//6
f 64//5 55//5 61//5
f 62//4 58//4 56//4
f 56//3 58//3 62//3
f 50//4 63//4 61//4
f 61//3 63//3 50//3
f 57//5 54//5 63//5
f 63//6 54//6 57//6
f 58//4 61//4 56//4
f 56//3 61//3 58//3
f 56//4 61//4 64//4
f 64//3 61//3 56//3
