# SSTK version 0.8.0
# 98
mtllib original-98.mtl
o Group92/mesh158/mesh158-geometry#mesh158-geometry
v -0.533903 -0.271486 0.426146
v -0.524054 -0.291184 0.416297
v -0.553601 -0.291184 0.445844
v -0.524054 -0.271486 0.416297
v -0.553601 -0.291184 0.416297
v 0.510092 -0.271486 0.426146
v 0.500243 -0.271486 0.416297
v 0.500243 -0.291184 0.416297
v -0.553601 -0.301033 0.445844
v 0.529790 -0.291184 0.445844
v 0.529790 -0.291184 0.416297
v -0.553601 -0.306243 0.416297
v -0.524054 -0.306243 0.416297
v -0.524054 -0.301033 0.445844
v 0.529790 -0.306243 0.416297
v 0.529790 -0.301033 0.445844
v 0.500243 -0.301033 0.445844
v 0.500243 -0.306243 0.416297
v -0.524054 -0.335504 0.445844
v 0.500243 -0.335504 0.445844
v 0.500243 -0.330294 0.416297
v -0.524054 -0.330294 0.416297
v -0.553601 -0.330294 0.416297
v 0.529790 -0.335504 0.445844
v 0.529790 -0.330294 0.416297
v -0.553601 -0.335504 0.445844
v 0.529790 -0.350563 0.416297
v -0.553601 -0.345353 0.445844
v 0.500243 -0.350563 0.416297
v -0.524054 -0.345353 0.445844
v -0.553601 -0.350563 0.416297
v -0.524054 -0.350563 0.416297
v 0.500243 -0.345353 0.445844
v 0.529790 -0.345353 0.445844
v -0.524054 -0.374615 0.416297
v 0.500243 -0.374615 0.416297
v -0.524054 -0.379825 0.445844
v 0.500243 -0.379825 0.445844
v -0.553601 -0.374615 0.416297
v 0.529790 -0.379825 0.445844
v -0.553601 -0.379825 0.445844
v 0.529790 -0.389674 0.416297
v 0.529790 -0.374615 0.416297
v -0.553601 -0.389674 0.416297
v -0.553601 -0.389674 0.445844
v 0.529790 -0.389674 0.445844
vn -0.7071067811865476 0 -0.7071067811865476
vn 0.7071067811865476 0 0.7071067811865476
vn 0 1 0
vn 0 -1 0
vn 0 0.7071067811865476 0.7071067811865478
vn 0 -0.7071067811865476 -0.7071067811865478
vn 0 0 -1
vn 0 0 1
vn -1 0 0
vn 1 0 0
vn 0.7071067811865476 0 -0.7071067811865476
vn -0.7071067811865476 0 0.7071067811865476
vn 0 -0.9848077908426045 0.1736479631199547
vn 0 0.9848077908426045 -0.1736479631199547
vn 0 0.9848077908426043 0.17364796311995512
vn 0 -0.9848077908426043 -0.17364796311995512
usemtl material_0_0
f 1//1 2//1 3//1
f 2//1 1//1 4//1
f 3//2 2//2 1//2
f 4//2 1//2 2//2
f 2//3 5//3 3//3
f 3//4 5//4 2//4
f 3//5 6//5 1//5
f 1//6 6//6 3//6
f 6//3 4//3 1//3
f 1//4 4//4 6//4
f 7//7 2//7 4//7
f 4//8 2//8 7//8
f 2//7 8//7 5//7
f 5//8 8//8 2//8
f 5//9 9//9 3//9
f 3//10 9//10 5//10
f 6//5 3//5 10//5
f 10//6 3//6 6//6
f 4//3 6//3 7//3
f 7//4 6//4 4//4
f 8//7 2//7 7//7
f 7//8 2//8 8//8
f 11//7 5//7 8//7
f 8//8 5//8 11//8
f 9//9 5//9 12//9
f 12//10 5//10 9//10
f 9//8 10//8 3//8
f 3//7 10//7 9//7
f 8//11 6//11 10//11
f 10//12 6//12 8//12
f 6//11 8//11 7//11
f 7//12 8//12 6//12
f 11//7 13//7 5//7
f 5//8 13//8 11//8
f 11//3 8//3 10//3
f 10//4 8//4 11//4
f 5//7 13//7 12//7
f 12//8 13//8 5//8
f 13//13 9//13 12//13
f 12//14 9//14 13//14
f 14//8 10//8 9//8
f 9//7 10//7 14//7
f 15//7 13//7 11//7
f 11//8 13//8 15//8
f 16//10 11//10 10//10
f 10//9 11//9 16//9
f 9//13 13//13 14//13
f 14//14 13//14 9//14
f 17//8 10//8 14//8
f 14//7 10//7 17//7
f 18//7 13//7 15//7
f 15//8 13//8 18//8
f 11//10 16//10 15//10
f 15//9 16//9 11//9
f 10//8 17//8 16//8
f 16//7 17//7 10//7
f 13//9 19//9 14//9
f 14//10 19//10 13//10
f 14//8 20//8 17//8
f 17//7 20//7 14//7
f 21//7 13//7 18//7
f 18//8 13//8 21//8
f 15//13 17//13 18//13
f 18//14 17//14 15//14
f 17//13 15//13 16//13
f 16//14 15//14 17//14
f 19//9 13//9 22//9
f 22//10 13//10 19//10
f 19//8 20//8 14//8
f 14//7 20//7 19//7
f 20//10 18//10 17//10
f 17//9 18//9 20//9
f 13//7 21//7 22//7
f 22//8 21//8 13//8
f 18//10 20//10 21//10
f 21//9 20//9 18//9
f 23//15 19//15 22//15
f 22//16 19//16 23//16
f 19//8 24//8 20//8
f 20//7 24//7 19//7
f 25//7 22//7 21//7
f 21//8 22//8 25//8
f 24//15 21//15 20//15
f 20//16 21//16 24//16
f 19//15 23//15 26//15
f 26//16 23//16 19//16
f 27//7 23//7 22//7
f 22//8 23//8 27//8
f 28//8 24//8 19//8
f 19//7 24//7 28//7
f 27//7 22//7 25//7
f 25//8 22//8 27//8
f 21//15 24//15 25//15
f 25//16 24//16 21//16
f 23//9 28//9 26//9
f 26//10 28//10 23//10
f 26//8 28//8 19//8
f 19//7 28//7 26//7
f 29//7 23//7 27//7
f 27//8 23//8 29//8
f 30//8 24//8 28//8
f 28//7 24//7 30//7
f 24//10 27//10 25//10
f 25//9 27//9 24//9
f 28//9 23//9 31//9
f 31//10 23//10 28//10
f 32//7 23//7 29//7
f 29//8 23//8 32//8
f 27//13 33//13 29//13
f 29//14 33//14 27//14
f 33//8 24//8 30//8
f 30//7 24//7 33//7
f 28//13 32//13 30//13
f 30//14 32//14 28//14
f 27//10 24//10 34//10
f 34//9 24//9 27//9
f 23//7 32//7 31//7
f 31//8 32//8 23//8
f 32//13 28//13 31//13
f 31//14 28//14 32//14
f 29//7 35//7 32//7
f 32//8 35//8 29//8
f 33//13 27//13 34//13
f 34//14 27//14 33//14
f 33//10 36//10 29//10
f 29//9 36//9 33//9
f 24//8 33//8 34//8
f 34//7 33//7 24//7
f 37//8 33//8 30//8
f 30//7 33//7 37//7
f 32//9 37//9 30//9
f 30//10 37//10 32//10
f 36//7 35//7 29//7
f 29//8 35//8 36//8
f 37//9 32//9 35//9
f 35//10 32//10 37//10
f 36//10 33//10 38//10
f 38//9 33//9 36//9
f 33//8 37//8 38//8
f 38//7 37//7 33//7
f 36//7 39//7 35//7
f 35//8 39//8 36//8
f 39//15 37//15 35//15
f 35//16 37//16 39//16
f 40//15 36//15 38//15
f 38//16 36//16 40//16
f 41//8 38//8 37//8
f 37//7 38//7 41//7
f 42//7 39//7 36//7
f 36//8 39//8 42//8
f 37//15 39//15 41//15
f 41//16 39//16 37//16
f 36//15 40//15 43//15
f 43//16 40//16 36//16
f 41//8 40//8 38//8
f 38//7 40//7 41//7
f 39//7 42//7 44//7
f 44//8 42//8 39//8
f 43//7 42//7 36//7
f 36//8 42//8 43//8
f 39//9 45//9 41//9
f 41//10 45//10 39//10
f 40//10 42//10 43//10
f 43//9 42//9 40//9
f 45//8 40//8 41//8
f 41//7 40//7 45//7
f 42//4 45//4 44//4
f 44//3 45//3 42//3
f 45//9 39//9 44//9
f 44//10 39//10 45//10
f 42//10 40//10 46//10
f 46//9 40//9 42//9
f 40//8 45//8 46//8
f 46//7 45//7 40//7
f 45//4 42//4 46//4
f 46//3 42//3 45//3
