# SSTK version 0.8.0
# 129
mtllib original-129.mtl
o Group111/mesh183/mesh183-geometry#mesh183-geometry
v -0.441193 -0.347247 0.376901
v -0.435413 -0.351406 0.381964
v -0.435413 -0.345368 0.376901
v -0.437645 -0.352131 0.381964
v -0.429633 -0.347247 0.376901
v -0.444765 -0.352164 0.376901
v -0.435413 -0.352671 0.384407
v -0.433181 -0.352131 0.381964
v -0.439024 -0.354029 0.381964
v -0.436901 -0.353155 0.384407
v -0.433925 -0.353155 0.384407
v -0.426060 -0.352164 0.376901
v -0.436678 -0.349659 0.376901
v -0.444765 -0.358241 0.376901
v -0.437820 -0.354420 0.384407
v -0.431802 -0.354029 0.381964
v -0.434147 -0.349659 0.376901
v -0.439402 -0.351214 0.376901
v -0.439024 -0.356376 0.381964
v -0.440956 -0.353937 0.376901
v -0.437820 -0.355985 0.384407
v -0.433005 -0.354420 0.384407
v -0.426060 -0.358241 0.376901
v -0.431424 -0.351214 0.376901
v -0.436678 -0.352696 0.381964
v -0.436678 -0.353431 0.376901
v -0.437185 -0.353937 0.376901
v -0.437645 -0.358274 0.381964
v -0.440956 -0.356468 0.376901
v -0.431802 -0.356376 0.381964
v -0.429869 -0.353937 0.376901
v -0.433641 -0.353937 0.376901
v -0.434147 -0.353431 0.376901
v -0.434147 -0.352696 0.381964
v -0.437185 -0.353431 0.377281
v -0.441193 -0.363158 0.376901
v -0.436901 -0.357250 0.384407
v -0.437591 -0.353937 0.381964
v -0.439402 -0.359191 0.376901
v -0.433005 -0.355985 0.384407
v -0.433181 -0.358274 0.381964
v -0.429869 -0.356468 0.376901
v -0.433641 -0.353431 0.377281
v -0.434147 -0.353937 0.381964
v -0.436678 -0.353937 0.381964
v -0.435413 -0.358999 0.381964
v -0.437591 -0.356468 0.381964
v -0.437185 -0.356468 0.376901
v -0.429633 -0.363158 0.376901
v -0.433641 -0.356468 0.376901
v -0.432907 -0.356468 0.381964
v -0.432907 -0.353937 0.381964
v -0.436678 -0.360746 0.376901
v -0.435413 -0.365036 0.376901
v -0.435413 -0.357734 0.384407
v -0.433925 -0.357250 0.384407
v -0.437185 -0.356974 0.377281
v -0.431424 -0.359191 0.376901
v -0.436678 -0.356974 0.376901
v -0.436678 -0.356468 0.381964
v -0.434147 -0.360746 0.376901
v -0.433641 -0.356974 0.377281
v -0.434147 -0.356468 0.381964
v -0.434147 -0.356974 0.376901
v -0.436678 -0.357708 0.381964
v -0.434147 -0.357708 0.381964
vt -0.007038 0.003352
vt -0.005058 -0.000246
vt -0.004181 0.003352
vt -0.006161 -0.000246
vt -0.003304 -0.002284
vt -0.001324 0.001314
vt -0.004181 0.001314
vt 0.000883 0.001679
vt 0.000883 0.007113
vt 0 0.004396
vt -0.007752 0.006261
vt -0.005772 0.002662
vt -0.004895 0.006261
vt -0.006161 0.000438
vt -0.005242 -0.000842
vt -0.005058 0.000438
vt -0.002201 -0.002284
vt 0.003194 0.008793
vt -0.006875 0.002662
vt -0.005977 -0.000842
vt -0.002385 -0.002043
vt -0.003304 -0.000763
vt -0.00312 -0.002043
vt -0.002201 -0.000763
vt 0.000604 -0.002673
vt 0.002584 0.000925
vt -0.000273 0.000925
vt 0.002017 0.004991
vt -0.006051 0.008928
vt -0.004071 0.00533
vt -0.003194 0.008928
vt -0.006692 0.000871
vt -0.005772 0.002151
vt -0.006875 0.002151
vt -0.005956 0.000871
vt -0.00366 0.005096
vt -0.00366 0.003697
vt -0.003433 0.004396
vt 0.000788 -0.002273
vt 0.001707 -0.000992
vt 0.000604 -0.000992
vt 0.001707 -0.002673
vt 0.003194 0
vt 0.002017 0.003801
vt 0.002748 0.006271
vt -0.005174 0.00533
vt 0.004028 0.007002
vt 0.006051 0.008793
vt -0.004071 0.003723
vt -0.00499 0.002443
vt -0.004255 0.002443
vt -0.004255 0.005528
vt 0.001523 -0.002273
vt 0.004071 -0.001265
vt 0.006051 0.002333
vt 0.003194 0.002333
vt 0.002748 0.002521
vt 0.003801 0.001988
vt 0.004991 -0.000788
vt 0.004991 0.001988
vt 0.00379 0.004991
vt 0.004028 0.005229
vt 0.000273 0.010337
vt -0.001707 0.006738
vt -0.000604 0.006738
vt -0.005174 0.003723
vt 0.005217 0.007002
vt -0.004255 0.003265
vt -0.00499 0.005528
vt 0.004255 -0.001443
vt 0.005174 -0.000163
vt 0.004071 -0.000163
vt 0.005174 -0.001265
vt 0.006051 0
vt 0.004028 0.001791
vt 0.004028 0.003563
vt 0.00379 0.003801
vt 0.003801 -0.000788
vt 0.003445 0.001148
vt 0.00379 0.003528
vt 0.002017 0.003528
vt 0.001663 -0.001456
vt 0.003129 -0.001223
vt 0.001478 -0.001223
vt -0.000178 0.006948
vt -0.001828 0.006948
vt -0.000362 0.006715
vt -0.002584 0.010337
vt -0.001523 0.003273
vt -0.000604 0.004553
vt -0.001707 0.004553
vt -0.000788 0.003273
vt 0.005229 0.003528
vt 0.00542 0.001148
vt 0.007002 0.003528
vt 0.004028 0.003957
vt 0.005217 0.006815
vt 0.004028 0.006815
vt 0.006498 0.006271
vt -0.00499 0.003265
vt 0.00499 -0.001443
vt 0.006875 0.001403
vt 0.004895 0.005001
vt 0.005772 0.001403
vt 0.005217 0.001791
vt -0.005373 0.002557
vt -0.005189 0.002324
vt -0.003723 0.002557
vt -0.004028 0.001148
vt -0.002017 0.003528
vt -0.00379 0.003528
vt 0.005341 0.002352
vt 0.00369 0.002352
vt 0.005156 0.002119
vt -0.003445 0.001148
vt 0.004028 0.003801
vt 0.003445 0.004991
vt 0.003445 0.003801
vt 0.004028 0.001148
vt 0.004931 0.002919
vt 0.004694 0.003099
vt 0.004676 0.000707
vt 0.003625 0.004058
vt 0.003388 0.003879
vt 0.003643 0.001666
vt 0.008362 0.007113
vt 0.004181 0.009947
vt 0.002201 0.006349
vt 0.003304 0.006349
vt 0.002201 0.004324
vt 0.00312 0.003044
vt 0.003304 0.004324
vt -0.005585 0.005096
vt 0.004991 0.001148
vt 0.005217 0.003957
vt 0.005217 0.005229
vt 0.005956 0.000129
vt 0.006875 0.001409
vt 0.005772 0.001409
vt 0.007752 0.005001
vt 0.005217 0.003563
vt -0.005217 -0.000671
vt -0.004028 0.002104
vt -0.005217 0.002104
vt 0.003218 0.001148
vt 0.003563 0.003528
vt 0.001791 0.003528
vt -0.004283 0.003188
vt -0.004301 0.000796
vt -0.004046 0.003009
vt 0.004074 0.003164
vt 0.003837 0.002985
vt 0.004092 0.000772
vt 0.004028 0.004991
vt 0.007228 0.004991
vt 0.001324 0.009947
vt 0.002385 0.003044
vt -0.005585 0.003697
vt 0.004028 0.003218
vt 0.004028 0.00542
vt 0.005217 0.00542
vt -0.00542 0.001148
vt -0.005229 0.003528
vt -0.007002 0.003528
vt 0.008998 0.003189
vt 0.007348 0.003189
vt 0.007532 0.002956
vt 0.006692 0.000129
vt 0.006161 0.004311
vt 0.004181 0.007909
vt 0.005058 0.004311
vt 0.006498 0.002521
vt 0.008362 0.001679
vt -0.003563 0.003528
vt -0.003218 0.001148
vt -0.001791 0.003528
vt -0.004028 -0.000671
vt 0.003801 0.001148
vt 0.005455 0.004991
vt 0.009245 0.004396
vt 0.007038 0.007909
vt 0.006161 0.003123
vt 0.005242 0.001843
vt 0.005977 0.001843
vt -0.005812 0.004396
vt 0.005217 0.004991
vt -0.004991 0.001148
vt 0.005594 0.003989
vt 0.005576 0.001598
vt 0.005831 0.00381
vt -0.008966 0.003394
vt -0.0075 0.003161
vt -0.007315 0.003394
vt 0.005058 0.003123
vt 0.007228 0.003801
vt -0.003447 -0.001202
vt -0.001981 -0.001435
vt -0.001796 -0.001202
vt -0.003801 0.001148
vt 0.005217 0.003218
vt 0.005217 0.001148
vt 0.007228 0.003528
vt 0.005455 0.003528
vt -0.005623 0.003834
vt -0.005367 0.001622
vt -0.005385 0.004013
vt 0.005455 0.003801
vt 0.002147 0.006969
vt 0.000496 0.006969
vt 0.000681 0.006736
vt -0.004936 0.003119
vt -0.005174 0.00294
vt -0.004919 0.000728
vt 0.005217 0.003801
vt 0.005801 0.001148
vt -0.004991 0.003969
vt -0.003801 0.006744
vt -0.004991 0.006744
vt -0.005801 0.001148
vt -0.005455 0.003528
vt -0.007228 0.003528
vt -0.003383 0.004079
vt -0.003401 0.001687
vt -0.003145 0.003899
vt 0.005801 0.004991
vt -0.003801 0.003969
vt -0.005217 0.001148
vt 0.005801 0.003801
vn -0.3776819140022157 0.5198348816341306 0.7662428255272948
vn 0 0.7792403104396608 0.6267252496795552
vn 0 0.6425509605955633 0.7662429530101524
vn -0.45802596384755406 0.6304189502404036 0.626724950531975
vn 0.3776819140022157 0.5198348816341306 0.7662428255272948
vn 0 0 -1
vn -0.6111027286279771 0.19855891182606275 0.7662426597350809
vn 0 0.6712919958000615 0.7411929953627261
vn 0.45802596384755406 0.6304189502404036 0.626724950531975
vn -0.7411019715294567 0.24079799074938402 0.6267249759234204
vn -0.3945758475765632 0.5430867902072426 0.7411927136795338
vn 0.3945758475765632 0.5430867902072426 0.7411927136795338
vn 0.6111027286279771 0.19855891182606275 0.7662426597350809
vn -0.611102728627977 -0.19855891182606306 0.7662426597350807
vn -0.6384367973924338 0.20744093416873352 0.741192764782884
vn 0.7411019715294567 0.24079799074938402 0.6267249759234204
vn -0.7411019715294567 -0.2407979907493843 0.6267249759234204
vn -0.6384367973924338 -0.20744093416873385 0.741192764782884
vn 0.6384367973924338 0.20744093416873352 0.741192764782884
vn 0.611102728627977 -0.19855891182606306 0.7662426597350807
vn 0 -0.8574928374772541 -0.5144959024863148
vn -0.45802596384755406 -0.6304189502404038 0.6267249505319747
vn 0.7411019715294567 -0.2407979907493843 0.6267249759234204
vn 1 0 0
vn -0.4829927930832753 -0.5932907458310357 -0.643990724110891
vn 0.5932907458310358 0.4829927930832755 -0.6439907241108908
vn -0.3776819140022157 -0.519834881634131 0.7662428255272946
vn -0.3945758475765632 -0.5430867902072428 0.7411927136795335
vn 0 -1 0
vn 0.8327772709054051 0 -0.553608180090708
vn 0.6384367973924338 -0.20744093416873385 0.741192764782884
vn 0.45802596384755406 -0.6304189502404038 0.6267249505319747
vn -0.5932907458310358 0.4829927930832755 -0.6439907241108908
vn -1 0 0
vn 0.4829927930832753 -0.5932907458310357 -0.643990724110891
vn -0.07442098844580755 -0.9922778459444112 -0.09922798459441028
vn 0.9922778459444112 0.07442098844580758 -0.09922798459441004
vn 0 -0.7792403104396612 0.6267252496795549
vn 0.3776819140022157 -0.519834881634131 0.7662428255272946
vn -0.8574928374772542 0 -0.5144959024863146
vn -0.9922778459444112 0.07442098844580758 -0.09922798459441004
vn 0.07442098844580755 -0.9922778459444112 -0.09922798459441028
vn 0 -0.6425509605955637 0.7662429530101522
vn 0 -0.6712919958000617 0.7411929953627259
vn 0.3945758475765632 -0.5430867902072428 0.7411927136795335
vn 0 1 0
vn 0.5932907458310358 -0.48299279308327514 -0.643990724110891
vn 0.9922778459444112 -0.07442098844580752 -0.09922798459441007
vn -0.4829927930832753 0.5932907458310359 -0.6439907241108908
vn -0.5932907458310358 -0.48299279308327514 -0.643990724110891
vn -0.07442098844580755 0.9922778459444112 -0.09922798459440983
vn 0.4829927930832753 0.5932907458310359 -0.6439907241108908
vn -0.9922778459444112 -0.07442098844580752 -0.09922798459441007
vn 0 0.8574928374772544 -0.5144959024863144
vn 0.07442098844580755 0.9922778459444112 -0.09922798459440983
vn 0 -0.6425509605955633 -0.7662429530101524
vn 0 -0.7792403104396608 -0.6267252496795552
vn 0.3776819140022157 -0.5198348816341306 -0.7662428255272948
vn 0.45802596384755406 -0.6304189502404036 -0.626724950531975
vn -0.3776819140022157 -0.5198348816341306 -0.7662428255272948
vn 0 0 1
vn 0.6111027286279771 -0.19855891182606275 -0.7662426597350809
vn 0 -0.6712919958000615 -0.7411929953627261
vn -0.45802596384755406 -0.6304189502404036 -0.626724950531975
vn 0.7411019715294567 -0.24079799074938402 -0.6267249759234204
vn 0.3945758475765632 -0.5430867902072426 -0.7411927136795338
vn -0.3945758475765632 -0.5430867902072426 -0.7411927136795338
vn -0.6111027286279771 -0.19855891182606275 -0.7662426597350809
vn 0.611102728627977 0.19855891182606306 -0.7662426597350807
vn 0.6384367973924338 -0.20744093416873352 -0.741192764782884
vn -0.7411019715294567 -0.24079799074938402 -0.6267249759234204
vn 0.7411019715294567 0.2407979907493843 -0.6267249759234204
vn 0.6384367973924338 0.20744093416873385 -0.741192764782884
vn -0.6384367973924338 -0.20744093416873352 -0.741192764782884
vn -0.611102728627977 0.19855891182606306 -0.7662426597350807
vn 0 0.8574928374772541 0.5144959024863148
vn 0.45802596384755406 0.6304189502404038 -0.6267249505319747
vn -0.7411019715294567 0.2407979907493843 -0.6267249759234204
vn 0.4829927930832753 0.5932907458310357 0.643990724110891
vn -0.5932907458310358 -0.4829927930832755 0.6439907241108908
vn 0.3776819140022157 0.519834881634131 -0.7662428255272946
vn 0.3945758475765632 0.5430867902072428 -0.7411927136795335
vn -0.8327772709054051 0 0.553608180090708
vn -0.6384367973924338 0.20744093416873385 -0.741192764782884
vn -0.45802596384755406 0.6304189502404038 -0.6267249505319747
vn 0.5932907458310358 -0.4829927930832755 0.6439907241108908
vn -0.4829927930832753 0.5932907458310357 0.643990724110891
vn 0.07442098844580755 0.9922778459444112 0.09922798459441028
vn -0.9922778459444112 -0.07442098844580758 0.09922798459441004
vn 0 0.7792403104396612 -0.6267252496795549
vn -0.3776819140022157 0.519834881634131 -0.7662428255272946
vn 0.8574928374772542 0 0.5144959024863146
vn 0.9922778459444112 -0.07442098844580758 0.09922798459441004
vn -0.07442098844580755 0.9922778459444112 0.09922798459441028
vn 0 0.6425509605955637 -0.7662429530101522
vn 0 0.6712919958000617 -0.7411929953627259
vn -0.3945758475765632 0.5430867902072428 -0.7411927136795335
vn -0.5932907458310358 0.48299279308327514 0.643990724110891
vn -0.9922778459444112 0.07442098844580752 0.09922798459441007
vn 0.4829927930832753 -0.5932907458310359 0.6439907241108908
vn 0.5932907458310358 0.48299279308327514 0.643990724110891
vn 0.07442098844580755 -0.9922778459444112 0.09922798459440983
vn -0.4829927930832753 -0.5932907458310359 0.6439907241108908
vn 0.9922778459444112 0.07442098844580752 0.09922798459441007
vn 0 -0.8574928374772544 0.5144959024863144
vn -0.07442098844580755 -0.9922778459444112 0.09922798459440983
usemtl material_0_0
f 1/1/1 2/2/2 3/3/3
f 2/2/2 1/1/1 4/4/4
f 2/5/2 5/6/5 3/7/3
f 5/8/6 1/9/6 3/10/6
f 6/11/7 4/12/4 1/13/1
f 4/14/4 7/15/8 2/16/2
f 5/6/5 2/5/2 8/17/9
f 1/9/6 5/8/6 6/18/6
f 4/12/4 6/11/7 9/19/10
f 7/15/8 4/14/4 10/20/11
f 11/21/12 2/22/2 7/23/8
f 2/22/2 11/21/12 8/24/9
f 8/25/9 12/26/13 5/27/5
f 6/18/6 5/8/6 13/28/6
f 14/29/14 9/30/10 6/31/7
f 15/32/15 4/33/4 9/34/10
f 4/33/4 15/32/15 10/35/11
f 10/36/11 11/37/12 7/38/8
f 11/39/12 16/40/16 8/41/9
f 12/26/13 8/25/9 16/42/16
f 12/43/6 17/44/6 5/8/6
f 13/28/6 5/8/6 17/44/6
f 6/18/6 13/28/6 18/45/6
f 9/30/10 14/29/14 19/46/17
f 6/18/6 20/47/6 14/48/6
f 9/49/10 21/50/18 15/51/15
f 11/37/12 10/36/11 15/52/15
f 16/40/16 11/39/12 22/53/19
f 16/54/16 23/55/20 12/56/13
f 17/44/6 12/43/6 24/57/6
f 17/58/21 25/59/21 13/60/21
f 26/61/6 18/45/6 13/28/6
f 6/18/6 18/45/6 27/62/6
f 14/63/14 28/64/22 19/65/17
f 21/50/18 9/49/10 19/66/17
f 6/18/6 27/62/6 20/47/6
f 14/48/6 20/47/6 29/67/6
f 22/68/19 15/52/15 21/69/18
f 11/37/12 15/52/15 22/68/19
f 22/70/19 30/71/23 16/72/16
f 23/55/20 16/54/16 30/73/23
f 23/74/6 31/75/6 12/43/6
f 24/57/6 12/43/6 32/76/6
f 33/77/6 17/44/6 24/57/6
f 25/59/21 17/58/21 34/78/21
f 25/79/24 26/80/24 13/81/24
f 35/82/25 18/83/25 26/84/25
f 27/85/26 18/86/26 35/87/26
f 28/64/22 14/63/14 36/88/27
f 37/89/28 19/90/17 28/91/22
f 19/90/17 37/89/28 21/92/18
f 27/93/29 38/94/29 20/95/29
f 38/96/30 29/97/30 20/98/30
f 29/67/6 39/99/6 14/48/6
f 22/68/19 21/69/18 40/100/31
f 30/71/23 22/70/19 40/101/31
f 41/102/32 23/103/20 30/104/23
f 31/75/6 23/74/6 42/105/6
f 32/76/6 12/43/6 31/75/6
f 32/106/33 43/107/33 24/108/33
f 44/109/34 17/110/34 33/111/34
f 33/112/35 24/113/35 43/114/35
f 17/110/34 44/109/34 34/115/34
f 44/116/6 25/117/6 34/118/6
f 26/80/24 25/79/24 45/119/24
f 35/120/36 26/121/36 45/122/36
f 27/123/37 35/124/37 45/125/37
f 14/48/6 39/99/6 36/126/6
f 36/127/27 46/128/38 28/129/22
f 46/130/38 37/131/28 28/132/22
f 40/100/31 21/69/18 37/133/28
f 38/94/29 27/93/29 45/134/29
f 29/97/30 38/96/30 47/135/30
f 39/99/6 29/67/6 48/136/6
f 40/137/31 41/138/32 30/139/23
f 23/103/20 41/102/32 49/140/39
f 42/105/6 23/74/6 50/141/6
f 51/142/40 31/143/40 42/144/40
f 52/145/29 32/146/29 31/147/29
f 32/148/41 44/149/41 43/150/41
f 33/151/42 43/152/42 44/153/42
f 25/117/6 44/116/6 45/154/6
f 36/126/6 39/99/6 53/155/6
f 46/128/38 36/127/27 54/156/43
f 37/131/28 46/130/38 55/157/44
f 40/100/31 37/133/28 56/158/45
f 45/154/6 52/159/6 38/160/6
f 38/160/6 52/159/6 47/161/6
f 47/162/46 48/163/46 29/164/46
f 39/165/47 48/166/47 57/167/47
f 41/138/32 40/137/31 56/168/45
f 46/169/38 49/170/39 41/171/32
f 58/172/6 23/74/6 49/173/6
f 50/141/6 23/74/6 58/172/6
f 50/174/46 51/175/46 42/176/46
f 31/143/40 51/142/40 52/177/40
f 32/146/29 52/145/29 44/178/29
f 45/154/6 44/116/6 52/159/6
f 53/155/6 39/99/6 59/179/6
f 53/155/6 49/173/6 36/126/6
f 36/126/6 49/173/6 54/180/6
f 49/170/39 46/169/38 54/181/43
f 46/182/38 56/183/45 55/184/44
f 56/158/45 37/133/28 55/185/44
f 47/161/6 52/159/6 60/186/6
f 48/163/46 47/162/46 60/187/46
f 48/188/48 60/189/48 57/190/48
f 39/191/49 57/192/49 59/193/49
f 56/183/45 46/182/38 41/194/32
f 58/172/6 49/173/6 61/195/6
f 58/196/50 62/197/50 50/198/50
f 51/175/46 50/174/46 63/199/46
f 51/200/6 60/186/6 52/159/6
f 60/201/24 53/202/24 59/203/24
f 61/195/6 49/173/6 53/155/6
f 57/204/51 60/205/51 59/206/51
f 61/195/6 64/207/6 58/172/6
f 58/208/52 64/209/52 62/210/52
f 50/211/53 62/212/53 63/213/53
f 60/186/6 51/200/6 63/214/6
f 53/202/24 60/201/24 65/215/24
f 65/216/54 61/217/54 53/218/54
f 66/219/34 64/220/34 61/221/34
f 64/222/55 63/223/55 62/224/55
f 60/186/6 63/214/6 65/225/6
f 61/217/54 65/216/54 66/226/54
f 64/220/34 66/219/34 63/227/34
f 65/225/6 63/214/6 66/228/6
usemtl material_1_0
f 3//56 2//57 1//58
f 4//59 1//58 2//57
f 3//56 5//60 2//57
f 3//61 1//61 5//61
f 1//58 4//59 6//62
f 2//57 7//63 4//59
f 8//64 2//57 5//60
f 6//61 5//61 1//61
f 9//65 6//62 4//59
f 10//66 4//59 7//63
f 7//63 2//57 11//67
f 8//64 11//67 2//57
f 5//60 12//68 8//64
f 13//61 5//61 6//61
f 6//62 9//65 14//69
f 9//65 4//59 15//70
f 10//66 15//70 4//59
f 7//63 11//67 10//66
f 8//64 16//71 11//67
f 16//71 8//64 12//68
f 5//61 17//61 12//61
f 17//61 5//61 13//61
f 18//61 13//61 6//61
f 19//72 14//69 9//65
f 14//61 20//61 6//61
f 15//70 21//73 9//65
f 15//70 10//66 11//67
f 22//74 11//67 16//71
f 12//68 23//75 16//71
f 24//61 12//61 17//61
f 13//76 25//76 17//76
f 13//61 18//61 26//61
f 27//61 18//61 6//61
f 19//72 28//77 14//69
f 19//72 9//65 21//73
f 20//61 27//61 6//61
f 29//61 20//61 14//61
f 21//73 15//70 22//74
f 22//74 15//70 11//67
f 16//71 30//78 22//74
f 30//78 16//71 23//75
f 12//61 31//61 23//61
f 32//61 12//61 24//61
f 24//61 17//61 33//61
f 34//76 17//76 25//76
f 13//34 26//34 25//34
f 26//79 18//79 35//79
f 35//80 18//80 27//80
f 36//81 14//69 28//77
f 28//77 19//72 37//82
f 21//73 37//82 19//72
f 20//46 38//46 27//46
f 20//83 29//83 38//83
f 14//61 39//61 29//61
f 40//84 21//73 22//74
f 40//84 22//74 30//78
f 30//78 23//75 41//85
f 42//61 23//61 31//61
f 31//61 12//61 32//61
f 24//86 43//86 32//86
f 33//24 17//24 44//24
f 43//87 24//87 33//87
f 34//24 44//24 17//24
f 34//61 25//61 44//61
f 45//34 25//34 26//34
f 45//88 26//88 35//88
f 45//89 35//89 27//89
f 36//61 39//61 14//61
f 28//77 46//90 36//81
f 28//77 37//82 46//90
f 37//82 21//73 40//84
f 45//46 27//46 38//46
f 47//83 38//83 29//83
f 48//61 29//61 39//61
f 30//78 41//85 40//84
f 49//91 41//85 23//75
f 50//61 23//61 42//61
f 42//92 31//92 51//92
f 31//46 32//46 52//46
f 43//93 44//93 32//93
f 44//94 43//94 33//94
f 45//61 44//61 25//61
f 53//61 39//61 36//61
f 54//95 36//81 46//90
f 55//96 46//90 37//82
f 56//97 37//82 40//84
f 38//61 52//61 45//61
f 47//61 52//61 38//61
f 29//29 48//29 47//29
f 57//98 48//98 39//98
f 56//97 40//84 41//85
f 41//85 49//91 46//90
f 49//61 23//61 58//61
f 58//61 23//61 50//61
f 42//29 51//29 50//29
f 52//92 51//92 31//92
f 44//46 52//46 32//46
f 52//61 44//61 45//61
f 59//61 39//61 53//61
f 36//61 49//61 53//61
f 54//61 49//61 36//61
f 54//95 46//90 49//91
f 55//96 56//97 46//90
f 55//96 37//82 56//97
f 60//61 52//61 47//61
f 60//29 47//29 48//29
f 57//99 60//99 48//99
f 59//100 57//100 39//100
f 41//85 46//90 56//97
f 61//61 49//61 58//61
f 50//101 62//101 58//101
f 63//29 50//29 51//29
f 52//61 60//61 51//61
f 59//34 53//34 60//34
f 53//61 49//61 61//61
f 59//102 60//102 57//102
f 58//61 64//61 61//61
f 62//103 64//103 58//103
f 63//104 62//104 50//104
f 63//61 51//61 60//61
f 65//34 60//34 53//34
f 53//105 61//105 65//105
f 61//24 64//24 66//24
f 62//106 63//106 64//106
f 65//61 63//61 60//61
f 66//105 65//105 61//105
f 63//24 66//24 64//24
f 66//61 63//61 65//61
