# SSTK version 0.8.0
# 3
mtllib original-3.mtl
o Group4/mesh4/mesh4-geometry#mesh4-geometry
v 0.466813 -0.398869 0.172107
v 0.061511 -0.398869 0.240943
v 0.466813 -0.398869 0.240943
v 0.422758 -0.398869 0.172107
v 0.061511 -0.381247 0.240943
v 0.466813 -0.381247 0.172107
v 0.061511 -0.398869 0.172107
v 0.466813 -0.381247 0.240943
v 0.422758 -0.381247 0.172107
v 0.105566 -0.398869 0.172107
v 0.061511 -0.381247 0.172107
v 0.422758 -0.381247 0.166601
v 0.422758 -0.398869 0.166601
v 0.105566 -0.381247 0.172107
v 0.105566 -0.398869 0.166601
v 0.466813 -0.398869 0.166601
v 0.105566 -0.381247 0.166601
v 0.466813 -0.381247 0.166601
v 0.466813 -0.398869 -0.185836
v 0.061511 -0.381247 0.166601
v 0.466813 -0.381247 -0.185836
v 0.061511 -0.398869 0.166601
v 0.466813 -0.381247 -0.254671
v 0.061511 -0.398869 -0.185836
v 0.061511 -0.381247 -0.185836
v 0.466813 -0.398869 -0.254671
v 0.061511 -0.381247 -0.254671
v 0.061511 -0.398869 -0.254671
vt 12 -0.015045
vt 12 0.019672
vt 12.271739 -0.015045
vt 12.271739 -0.011271
vt 12.069565 0.019672
vt 12 -0.007026
vt 12 -0.001129
vt 12.069565 -0.007026
vt 12 -0.010799
vt 12.271739 0.019672
vt 12.069565 -0.015045
vt 12 0.025569
vt 12.069565 -0.001129
vt 12.069565 -0.010799
vt 12.271739 0.015899
vt 14.026087 0.445518
vt 14.026087 0.410801
vt 13.754348 0.445518
vt 12.069565 0.025569
vt 12.069565 -0.011271
vt 13.754348 0.441745
vt 12.293478 -0.011271
vt 12 0.029342
vt 12.069565 0.029342
vt 13.754348 0.410801
vt 12 -0.011271
vt 13.754348 0.414575
vt 13.732609 0.441745
vt 12.293478 0.015899
vt 12 0.029814
vt 13.732609 0.414575
vt 12.293478 -0.015045
vt 12.069565 0.029814
vt 13.732609 0.445518
vt 13.684783 -0.015045
vt 12.069565 0.015899
vt 12 0.015899
vt 12.069565 0.022691
vt 12.069565 -0.007497
vt 12 0.022691
vt 12.341304 0.445518
vt 12 -0.007497
vt 12.293478 0.019672
vt 13.732609 0.410801
vt 12.069565 0.451414
vt 12.069565 0.445518
vt 12 0.451414
vt 13.684783 0.019672
vt 12 0.176464
vt 12 0.206653
vt 12.069565 0.176464
vt 12.341304 0.410801
vt 12 0.445518
vt 13.956522 0.019672
vt 13.956522 -0.015045
vt 12.069565 0.410801
vt 12.069565 0.206653
vt 13.886957 -0.015045
vt 12 0.410801
vt 13.886957 0.019672
vt 12 0.404905
vt 12.069565 0.404905
vn 0 1 0
vn 1 0 0
vn 0 0 -1
vn -1 0 0
vn 0 0 1
vn 0 -1 0
usemtl material_0_0
f 1//1 2//1 3//1
f 2//1 1//1 4//1
f 6//2 3//2 1//2
f 4//3 6//3 1//3
f 4//1 7//1 2//1
f 5//4 7//4 2//4
f 3//2 6//2 8//2
f 6//3 4//3 9//3
f 7//1 4//1 10//1
f 7//4 5//4 11//4
f 4//2 12//2 9//2
f 13//1 10//1 4//1
f 7//3 14//3 10//3
f 14//3 7//3 11//3
f 12//2 4//2 13//2
f 10//1 13//1 15//1
f 14//4 15//4 10//4
f 16//5 12//5 13//5
f 15//1 13//1 16//1
f 15//4 14//4 17//4
f 12//5 16//5 18//5
f 15//1 16//1 19//1
f 20//5 15//5 17//5
f 16//2 21//2 18//2
f 21//2 16//2 19//2
f 15//1 19//1 22//1
f 15//5 20//5 22//5
f 19//2 23//2 21//2
f 22//1 19//1 24//1
f 20//4 24//4 22//4
f 23//2 19//2 26//2
f 24//1 19//1 28//1
f 24//4 20//4 25//4
f 28//1 19//1 26//1
f 25//4 28//4 24//4
f 28//4 25//4 27//4
usemtl material_1_0
f 3/1/6 2/2/6 1/3/6
f 4/4/6 1/3/6 2/2/6
f 3/1/5 5/5/5 2/2/5
f 2/2/3 5/5/3 3/1/3
f 1/6/4 3/7/4 6/8/4
f 1/6/5 6/8/5 4/9/5
f 2/2/6 7/10/6 4/4/6
f 5/5/5 3/1/5 8/11/5
f 8/11/3 3/1/3 5/5/3
f 2/2/2 7/12/2 5/5/2
f 8/13/4 6/8/4 3/7/4
f 9/14/5 4/9/5 6/8/5
f 10/15/6 4/4/6 7/10/6
f 6/3/1 5/2/1 8/1/1
f 8/16/6 5/17/6 6/18/6
f 11/19/2 5/5/2 7/12/2
f 9/14/4 12/20/4 4/9/4
f 5/2/1 6/3/1 9/4/1
f 9/21/6 6/18/6 5/17/6
f 4/4/6 10/15/6 13/22/6
f 10/23/5 14/24/5 7/12/5
f 9/4/1 11/10/1 5/2/1
f 5/17/6 11/25/6 9/21/6
f 11/19/5 7/12/5 14/24/5
f 13/26/4 4/9/4 12/20/4
f 12/22/1 14/15/1 9/4/1
f 9/21/6 14/27/6 12/28/6
f 15/29/6 13/22/6 10/15/6
f 10/23/2 15/30/2 14/24/2
f 11/10/1 9/4/1 14/15/1
f 14/27/6 9/21/6 11/25/6
f 13/26/3 12/20/3 16/1/3
f 14/15/1 12/22/1 17/29/1
f 17/31/6 12/28/6 14/27/6
f 16/32/6 13/22/6 15/29/6
f 17/33/2 14/24/2 15/30/2
f 18/11/3 16/1/3 12/20/3
f 17/29/1 12/22/1 18/32/1
f 18/34/6 12/28/6 17/31/6
f 19/35/6 16/32/6 15/29/6
f 17/36/3 15/37/3 20/5/3
f 18/38/4 21/39/4 16/40/4
f 17/29/1 18/32/1 21/35/1
f 21/41/6 18/34/6 17/31/6
f 19/42/4 16/40/4 21/39/4
f 22/43/6 19/35/6 15/29/6
f 22/2/3 20/5/3 15/37/3
f 17/29/1 21/35/1 20/43/1
f 20/44/6 21/41/6 17/31/6
f 21/45/4 23/46/4 19/47/4
f 24/48/6 19/35/6 22/43/6
f 22/49/2 24/50/2 20/51/2
f 20/43/1 21/35/1 25/48/1
f 25/52/6 21/41/6 20/44/6
f 26/53/4 19/47/4 23/46/4
f 27/54/1 21/35/1 23/55/1
f 23/46/6 21/41/6 27/56/6
f 28/54/6 19/35/6 24/48/6
f 25/57/2 20/51/2 24/50/2
f 25/48/1 21/35/1 27/54/1
f 27/56/6 21/41/6 25/52/6
f 26/55/6 19/35/6 28/54/6
f 28/54/3 23/58/3 26/55/3
f 26/53/5 23/46/5 28/59/5
f 23/58/3 28/54/3 27/60/3
f 27/56/5 28/59/5 23/46/5
f 24/61/2 28/59/2 25/62/2
f 27/56/2 25/62/2 28/59/2
