# SSTK version 0.8.0
# 20
mtllib original-20.mtl
o Group12/mesh18/mesh18-geometry#mesh18-geometry
v 0.433772 0.165522 -0.181981
v 0.094552 0.275658 -0.181981
v 0.433772 0.275658 -0.181981
v 0.094552 0.165522 -0.181981
v 0.094552 0.275658 -0.199603
v 0.433772 0.165522 -0.199603
v 0.433772 0.275658 -0.199603
v 0.094552 0.165522 -0.199603
vt 17.87356 0.281796
vt 18.308343 0.252739
vt 18.308343 0.281796
vt 17.87356 0.252739
vt 18.377908 0.281796
vt 18.377908 0.252739
vt 18.308343 0.283305
vt 17.87356 0.283305
vt 17.803995 0.252739
vt 17.803995 0.281796
vt 17.87356 0.25123
vt 18.308343 0.25123
vn 0 0 -1
vn 0 1 0
vn 1 0 0
vn 0 -1 0
vn -1 0 0
vn 0 0 1
usemtl material_0_0
f 1/1/1 2/2/1 3/3/1
f 2/2/1 1/1/1 4/4/1
f 3/5/2 5/2/2 2/6/2
f 6/1/3 3/7/3 1/8/3
f 4/9/4 6/1/4 1/10/4
f 5/2/5 4/11/5 2/12/5
f 5/2/2 3/5/2 7/3/2
f 3/7/3 6/1/3 7/3/3
f 6/1/4 4/9/4 8/4/4
f 4/11/5 5/2/5 8/4/5
f 6/1/1 5/2/1 7/3/1
f 5/2/1 6/1/1 8/4/1
usemtl material_1_0
f 3//6 2//6 1//6
f 4//6 1//6 2//6
f 2//4 5//4 3//4
f 1//5 3//5 6//5
f 1//2 6//2 4//2
f 2//3 4//3 5//3
f 7//4 3//4 5//4
f 7//5 6//5 3//5
f 8//2 4//2 6//2
f 8//3 5//3 4//3
f 7//6 5//6 6//6
f 8//6 6//6 5//6
