# SSTK version 0.8.0
# 425
mtllib original-425.mtl
o Group280/mesh415/mesh415-geometry#mesh415-geometry
v 0.059699 -0.031459 0.849616
v 0.059699 -0.040762 0.851256
v 0.072540 -0.025638 0.882624
v 0.072540 -0.034942 0.884265
v 0.068519 -0.000646 0.861152
v 0.072540 -0.016335 0.880984
v 0.059699 -0.022155 0.847975
v 0.071085 0.000830 0.869523
v 0.064741 -0.002120 0.852795
v 0.072540 -0.007031 0.879343
v 0.059699 -0.012852 0.846335
v 0.072540 0.002272 0.877703
v 0.059699 -0.003548 0.844695
vn -0.9184639323822286 0.09465099303174675 0.3840119717288477
vn -0.9338173194388826 0.06212302125095349 0.3523151205194486
vn -0.9448427267411297 0.07636297791498993 0.3184979078869149
vn 0.9448427267411297 -0.07636297791498993 -0.3184979078869149
vn 0.9338173194388826 -0.06212302125095349 -0.3523151205194486
vn 0.9184639323822286 -0.09465099303174675 -0.3840119717288477
vn -0.9352673272412101 0.1004830351580655 0.3393791187455503
vn 0.9352673272412101 -0.1004830351580655 -0.3393791187455503
vn -0.9726452325930594 0.05772501380404392 0.22500905380743402
vn 0.9726452325930594 -0.05772501380404392 -0.22500905380743402
vn -0.8845310538989015 0.10280500626442315 0.45501202772615884
vn 0.8845310538989015 -0.10280500626442315 -0.45501202772615884
vn -0.9771898360954739 0.05425999089894531 0.20531896556175014
vn 0.9771898360954739 -0.05425999089894531 -0.20531896556175014
vn -0.8743254385333343 0.10609405321334225 0.4736022375435498
vn 0.8743254385333343 -0.10609405321334225 -0.4736022375435498
vn -0.9850026561090376 0.029960989539811394 0.16991794067706947
vn 0.9850026561090376 -0.029960989539811394 -0.16991794067706947
vn -0.8525827867234587 0.09074697729932875 0.5146528712577991
vn 0.8525827867234587 -0.09074697729932875 -0.5146528712577991
usemtl material_0_0
f 1//1 2//2 3//3
f 3//4 2//5 1//6
f 2//2 4//2 3//3
f 3//4 4//5 2//5
f 1//1 3//3 5//7
f 5//8 3//4 1//6
f 5//7 3//3 6//9
f 6//10 3//4 5//8
f 7//11 1//1 5//7
f 5//8 1//6 7//12
f 5//7 6//9 8//13
f 8//14 6//10 5//8
f 7//11 5//7 9//15
f 9//16 5//8 7//12
f 8//13 6//9 10//17
f 10//18 6//10 8//14
f 11//19 7//11 9//15
f 9//16 7//12 11//20
f 8//13 10//17 12//17
f 12//18 10//18 8//14
f 13//19 11//19 9//15
f 9//16 11//20 13//20
