# SSTK version 0.8.0
# 84
mtllib original-84.mtl
o mesh83/mesh83-geometry#mesh83-geometry
v 0.000702 -0.004651 1.007690
v -0.022418 -0.005046 1.005447
v 0.000702 -0.007892 0.989311
v -0.044649 -0.006217 0.998806
v 0.023821 -0.005046 1.005447
v -0.062687 -0.007892 0.989311
v 0.046052 -0.006217 0.998806
v -0.020061 -0.008271 0.987161
v 0.064090 -0.007892 0.989311
v -0.039914 -0.009391 0.980808
v 0.021464 -0.008271 0.987161
v -0.057991 -0.011203 0.970529
v 0.041317 -0.009391 0.980808
v -0.065137 -0.008119 0.988021
v 0.059394 -0.011203 0.970529
v -0.083095 -0.010678 0.973507
v 0.066540 -0.008119 0.988021
v -0.073501 -0.013629 0.956774
v 0.084498 -0.010678 0.973507
v -0.097833 -0.013797 0.955822
v 0.074905 -0.013629 0.956774
v -0.085769 -0.016561 0.940144
v 0.099236 -0.013797 0.955822
v -0.108784 -0.017354 0.935645
v 0.087172 -0.016561 0.940144
v -0.094258 -0.019872 0.921366
v 0.110187 -0.017354 0.935645
v -0.115528 -0.021215 0.913752
v 0.095661 -0.019872 0.921366
v -0.098597 -0.023417 0.901261
v 0.116931 -0.021215 0.913752
v -0.116777 -0.023417 0.901261
v 0.100000 -0.023417 0.901261
v -0.098597 -0.025229 0.890984
v 0.118180 -0.023417 0.901261
v -0.117805 -0.025229 0.890984
v 0.100000 -0.025229 0.890984
v -0.116777 -0.027042 0.880706
v 0.119208 -0.025229 0.890984
v -0.098597 -0.027042 0.880706
v 0.118180 -0.027042 0.880706
v -0.115528 -0.029244 0.868215
v 0.100000 -0.027042 0.880706
v -0.094258 -0.030587 0.860601
v 0.116931 -0.029244 0.868215
v -0.108784 -0.033104 0.846322
v 0.095661 -0.030587 0.860601
v -0.085769 -0.033898 0.841824
v 0.110187 -0.033104 0.846322
v -0.097833 -0.036662 0.826145
v 0.087172 -0.033898 0.841824
v -0.073501 -0.036830 0.825194
v 0.099236 -0.036662 0.826145
v -0.083095 -0.039781 0.808460
v 0.074905 -0.036830 0.825194
v -0.057991 -0.039255 0.811438
v 0.084498 -0.039781 0.808460
v -0.065137 -0.042340 0.793946
v 0.059394 -0.039255 0.811438
v -0.062687 -0.042567 0.792656
v 0.066540 -0.042340 0.793946
v -0.039914 -0.041068 0.801159
v 0.064090 -0.042567 0.792656
v -0.020061 -0.042188 0.794806
v 0.041317 -0.041068 0.801159
v 0.000702 -0.042567 0.792656
v 0.021464 -0.042188 0.794806
v -0.044649 -0.044241 0.783161
v -0.022418 -0.045412 0.776520
v 0.046052 -0.044241 0.783161
v 0.000702 -0.045808 0.774277
v 0.023821 -0.045412 0.776520
vn 0 -0.9848077908426045 0.1736479631199547
vn 0 0.9848077908426045 -0.1736479631199547
usemtl material_0_0
f 1//1 2//1 3//1
f 3//2 2//2 1//2
f 3//1 2//1 4//1
f 4//2 2//2 3//2
f 5//1 1//1 3//1
f 3//2 1//2 5//2
f 3//1 4//1 6//1
f 6//2 4//2 3//2
f 7//1 5//1 3//1
f 3//2 5//2 7//2
f 3//1 6//1 8//1
f 8//2 6//2 3//2
f 9//1 7//1 3//1
f 3//2 7//2 9//2
f 8//1 6//1 10//1
f 10//2 6//2 8//2
f 9//1 3//1 11//1
f 11//2 3//2 9//2
f 10//1 6//1 12//1
f 12//2 6//2 10//2
f 9//1 11//1 13//1
f 13//2 11//2 9//2
f 12//1 6//1 14//1
f 14//2 6//2 12//2
f 9//1 13//1 15//1
f 15//2 13//2 9//2
f 12//1 14//1 16//1
f 16//2 14//2 12//2
f 17//1 9//1 15//1
f 15//2 9//2 17//2
f 12//1 16//1 18//1
f 18//2 16//2 12//2
f 19//1 17//1 15//1
f 15//2 17//2 19//2
f 18//1 16//1 20//1
f 20//2 16//2 18//2
f 19//1 15//1 21//1
f 21//2 15//2 19//2
f 18//1 20//1 22//1
f 22//2 20//2 18//2
f 23//1 19//1 21//1
f 21//2 19//2 23//2
f 22//1 20//1 24//1
f 24//2 20//2 22//2
f 23//1 21//1 25//1
f 25//2 21//2 23//2
f 22//1 24//1 26//1
f 26//2 24//2 22//2
f 27//1 23//1 25//1
f 25//2 23//2 27//2
f 26//1 24//1 28//1
f 28//2 24//2 26//2
f 27//1 25//1 29//1
f 29//2 25//2 27//2
f 26//1 28//1 30//1
f 30//2 28//2 26//2
f 31//1 27//1 29//1
f 29//2 27//2 31//2
f 30//1 28//1 32//1
f 32//2 28//2 30//2
f 31//1 29//1 33//1
f 33//2 29//2 31//2
f 30//1 32//1 34//1
f 34//2 32//2 30//2
f 35//1 31//1 33//1
f 33//2 31//2 35//2
f 34//1 32//1 36//1
f 36//2 32//2 34//2
f 35//1 33//1 37//1
f 37//2 33//2 35//2
f 34//1 36//1 38//1
f 38//2 36//2 34//2
f 39//1 35//1 37//1
f 37//2 35//2 39//2
f 34//1 38//1 40//1
f 40//2 38//2 34//2
f 39//1 37//1 41//1
f 41//2 37//2 39//2
f 40//1 38//1 42//1
f 42//2 38//2 40//2
f 41//1 37//1 43//1
f 43//2 37//2 41//2
f 44//1 40//1 42//1
f 42//2 40//2 44//2
f 41//1 43//1 45//1
f 45//2 43//2 41//2
f 44//1 42//1 46//1
f 46//2 42//2 44//2
f 45//1 43//1 47//1
f 47//2 43//2 45//2
f 48//1 44//1 46//1
f 46//2 44//2 48//2
f 45//1 47//1 49//1
f 49//2 47//2 45//2
f 48//1 46//1 50//1
f 50//2 46//2 48//2
f 49//1 47//1 51//1
f 51//2 47//2 49//2
f 52//1 48//1 50//1
f 50//2 48//2 52//2
f 49//1 51//1 53//1
f 53//2 51//2 49//2
f 52//1 50//1 54//1
f 54//2 50//2 52//2
f 53//1 51//1 55//1
f 55//2 51//2 53//2
f 56//1 52//1 54//1
f 54//2 52//2 56//2
f 53//1 55//1 57//1
f 57//2 55//2 53//2
f 56//1 54//1 58//1
f 58//2 54//2 56//2
f 57//1 55//1 59//1
f 59//2 55//2 57//2
f 56//1 58//1 60//1
f 60//2 58//2 56//2
f 57//1 59//1 61//1
f 61//2 59//2 57//2
f 62//1 56//1 60//1
f 60//2 56//2 62//2
f 61//1 59//1 63//1
f 63//2 59//2 61//2
f 64//1 62//1 60//1
f 60//2 62//2 64//2
f 63//1 59//1 65//1
f 65//2 59//2 63//2
f 66//1 64//1 60//1
f 60//2 64//2 66//2
f 63//1 65//1 67//1
f 67//2 65//2 63//2
f 66//1 60//1 68//1
f 68//2 60//2 66//2
f 63//1 67//1 66//1
f 66//2 67//2 63//2
f 66//1 68//1 69//1
f 69//2 68//2 66//2
f 63//1 66//1 70//1
f 70//2 66//2 63//2
f 66//1 69//1 71//1
f 71//2 69//2 66//2
f 70//1 66//1 72//1
f 72//2 66//2 70//2
f 72//1 66//1 71//1
f 71//2 66//2 72//2
