# SSTK version 0.8.0
# 313
mtllib original-313.mtl
o Group210/mesh310/mesh310-geometry#mesh310-geometry
v 0.000702 0.504937 0.068822
v -0.005729 0.505683 0.074377
v 0.000702 0.505036 0.071662
v 0.000702 0.504838 0.065982
v 0.000702 0.505136 0.074502
v -0.012420 0.507089 0.063061
v 0.000702 0.504739 0.063143
v -0.012482 0.507494 0.074017
v -0.019188 0.510760 0.073470
v -0.025348 0.515145 0.062779
v -0.025394 0.515539 0.072812
v -0.030629 0.521721 0.072137
v -0.032713 0.524863 0.062440
v -0.034428 0.528906 0.071558
v -0.036584 0.536348 0.062039
v -0.036584 0.536667 0.071162
v -0.037062 0.543960 0.061773
v -0.037058 0.544386 0.071022
v -0.036053 0.551630 0.071162
v -0.035472 0.553440 0.061442
v -0.033891 0.558073 0.071562
v -0.032027 0.561392 0.061164
v -0.032027 0.561768 0.071948
v -0.030913 0.563587 0.072154
v -0.026859 0.568349 0.060921
v -0.026832 0.568794 0.072828
v -0.021507 0.573511 0.073478
v -0.014930 0.576894 0.060623
v -0.014936 0.577359 0.074020
v -0.007385 0.579884 0.074377
v 0.000702 0.580520 0.067503
v 0.000702 0.580642 0.071003
v 0.000702 0.580398 0.064004
v 0.000702 0.580765 0.074502
v 0.000702 0.580276 0.060505
vn 0.0853850072880376 0.9957410849914838 -0.03477200296796421
vn 0.13641096418898915 0.9903947399986358 -0.022589994069607544
vn -0.0853850072880376 -0.9957410849914838 0.03477200296796421
vn -0.13641096418898915 -0.9903947399986358 0.022589994069607544
vn 0.14188403990744575 0.9897782783929959 -0.014418004055323513
vn -0.14188403990744575 -0.9897782783929959 0.014418004055323513
vn 0.31759186624796043 0.9482086006672471 -0.005987997478188117
vn -0.31759186624796043 -0.9482086006672471 0.005987997478188117
vn 0.1763689153702781 0.983724527964817 -0.03435198351637621
vn -0.1763689153702781 -0.983724527964817 0.03435198351637621
vn 0.3517768119790379 0.9355144999774562 -0.03264498255160405
vn -0.3517768119790379 -0.9355144999774562 0.03264498255160405
vn 0.5285007878310231 0.8489176591982539 -0.005071997963823814
vn -0.5285007878310231 -0.8489176591982539 0.005071997963823814
vn 0.6829335912411483 0.7304655627916556 0.0046659972072430255
vn -0.6829335912411483 -0.7304655627916556 -0.0046659972072430255
vn 0.6918198630023852 0.7216308570990637 -0.025182995013137748
vn -0.6918198630023852 -0.7216308570990637 0.025182995013137748
vn 0.8188577322315183 0.5738648123448024 -0.012295995979179106
vn -0.8188577322315183 -0.5738648123448024 0.012295995979179106
vn 0.8840147699038036 0.4674048783413034 0.0071109981491106365
vn -0.8840147699038036 -0.4674048783413034 -0.0071109981491106365
vn 0.935865468275846 0.3523311762947617 -0.00430900215608079
vn -0.935865468275846 -0.3523311762947617 0.00430900215608079
vn 0.9758760896537405 0.21817002004328068 0.008228000755906512
vn -0.9758760896537405 -0.21817002004328068 -0.008228000755906512
vn 0.9913730484989621 0.1309770064075263 -0.004950000242158939
vn -0.9913730484989621 -0.1309770064075263 0.004950000242158939
vn 0.9989707649167329 -0.044776989462833795 0.007240998296008646
vn -0.9989707649167329 0.044776989462833795 -0.007240998296008646
vn 0.9992644138674266 -0.03832601587356593 0.0013220005475357158
vn -0.9992644138674266 0.03832601587356593 -0.0013220005475357158
vn 0.9782154769673994 -0.20732088914959296 0.010607994328113757
vn -0.9782154769673994 0.20732088914959296 -0.010607994328113757
vn 0.9554536933815827 -0.2943639055345168 0.021403993131159985
vn -0.9554536933815827 0.2943639055345168 -0.021403993131159985
vn 0.9209276342435325 -0.38935684536267673 0.017132993195444556
vn -0.9209276342435325 0.38935684536267673 -0.017132993195444556
vn 0.8692773306688131 -0.493559187747483 0.02750001046086836
vn -0.8692773306688131 0.493559187747483 -0.02750001046086836
vn 0.8725680405949202 -0.48819502271254167 0.017048000793132578
vn -0.8725680405949202 0.48819502271254167 -0.017048000793132578
vn 0.814350056132744 -0.5798040399656038 0.02571500177252214
vn -0.814350056132744 0.5798040399656038 -0.02571500177252214
vn 0.7138098936965833 -0.6990278958979774 0.04284199361979926
vn -0.7138098936965833 0.6990278958979774 -0.04284199361979926
vn 0.7262672609671197 -0.6869932468549231 0.02400300862491847
vn -0.7262672609671197 0.6869932468549231 -0.02400300862491847
vn 0.5840077251271927 -0.8103696185862577 0.04728697774360875
vn -0.5840077251271927 0.8103696185862577 -0.04728697774360875
vn 0.33827789067993574 -0.9393646964288479 0.05623198182770997
vn -0.33827789067993574 0.9393646964288479 -0.05623198182770997
vn 0.41163403737287346 -0.9107940826923648 0.031805002887623855
vn -0.41163403737287346 0.9107940826923648 -0.031805002887623855
vn 0.17740901844894222 -0.9826041021819886 0.05491100571025048
vn -0.17740901844894222 0.9826041021819886 -0.05491100571025048
vn 0.1652360280417956 -0.9843171670460197 0.0617800104845318
vn -0.1652360280417956 0.9843171670460197 -0.0617800104845318
vn 0.1076089627439542 -0.9935876560031222 0.03469698798731477
vn -0.1076089627439542 0.9935876560031222 -0.03469698798731477
vn 0.21160402387983288 -0.9767601102288499 0.03410900384925226
vn -0.21160402387983288 0.9767601102288499 -0.03410900384925226
usemtl material_0_0
f 1//1 2//2 3//1
f 3//3 2//4 1//3
f 4//5 2//2 1//1
f 1//3 2//4 4//6
f 3//1 2//2 5//1
f 5//3 2//4 3//3
f 4//5 6//7 2//2
f 2//4 6//8 4//6
f 7//9 6//7 4//5
f 4//6 6//8 7//10
f 2//2 6//7 8//11
f 8//12 6//8 2//4
f 6//7 9//13 8//11
f 8//12 9//14 6//8
f 6//7 10//15 9//13
f 9//14 10//16 6//8
f 9//13 10//15 11//17
f 11//18 10//16 9//14
f 10//15 12//19 11//17
f 11//18 12//20 10//16
f 13//21 12//19 10//15
f 10//16 12//20 13//22
f 13//21 14//23 12//19
f 12//20 14//24 13//22
f 15//25 14//23 13//21
f 13//22 14//24 15//26
f 15//25 16//27 14//23
f 14//24 16//28 15//26
f 17//29 16//27 15//25
f 15//26 16//28 17//30
f 17//29 18//31 16//27
f 16//28 18//32 17//30
f 17//29 19//33 18//31
f 18//32 19//34 17//30
f 20//35 19//33 17//29
f 17//30 19//34 20//36
f 20//35 21//37 19//33
f 19//34 21//38 20//36
f 22//39 21//37 20//35
f 20//36 21//38 22//40
f 22//39 23//41 21//37
f 21//38 23//42 22//40
f 22//39 24//43 23//41
f 23//42 24//44 22//40
f 25//45 24//43 22//39
f 22//40 24//44 25//46
f 25//45 26//47 24//43
f 24//44 26//48 25//46
f 27//49 26//47 25//45
f 25//46 26//48 27//50
f 28//51 27//49 25//45
f 25//46 27//50 28//52
f 28//51 29//53 27//49
f 27//50 29//54 28//52
f 30//55 29//53 28//51
f 28//52 29//54 30//56
f 31//57 30//55 28//51
f 28//52 30//56 31//58
f 32//59 30//55 31//57
f 31//58 30//56 32//60
f 31//57 28//51 33//61
f 33//62 28//52 31//58
f 34//59 30//55 32//59
f 32//60 30//56 34//60
f 33//61 28//51 35//61
f 35//62 28//52 33//62
