# SSTK version 0.8.0
# 494
mtllib original-494.mtl
o mesh483/mesh483-geometry#mesh483-geometry
v 0.008783 -0.035817 0.841685
v 0.004742 -0.027250 0.847280
v 0.004742 -0.034602 0.848577
v 0.008783 -0.028466 0.840388
v -0.003339 -0.027250 0.847280
v 0.004742 -0.037033 0.834792
v -0.003339 -0.034602 0.848577
v 0.004742 -0.029681 0.833496
v -0.007380 -0.028466 0.840388
v -0.003339 -0.037033 0.834792
v -0.007380 -0.035817 0.841685
v -0.003339 -0.029681 0.833496
vn 0.866025256855768 0.08682402575127174 0.49240414604290594
vn -0.866025256855768 -0.08682402575127174 -0.49240414604290594
vn 0 0.1736479631199547 0.9848077908426045
vn 0 -0.1736479631199547 -0.9848077908426045
vn 0.866025256855768 -0.08682402575127174 -0.49240414604290594
vn -0.866025256855768 0.08682402575127174 0.49240414604290594
usemtl material_0_0
f 1//1 2//1 3//1
f 3//2 2//2 1//2
f 4//1 2//1 1//1
f 1//2 2//2 4//2
f 5//3 3//3 2//3
f 2//4 3//4 5//4
f 6//5 4//5 1//5
f 1//6 4//6 6//6
f 5//3 7//3 3//3
f 3//4 7//4 5//4
f 8//5 4//5 6//5
f 6//6 4//6 8//6
f 9//6 7//6 5//6
f 5//5 7//5 9//5
f 8//4 6//4 10//4
f 10//3 6//3 8//3
f 9//6 11//6 7//6
f 7//5 11//5 9//5
f 8//4 10//4 12//4
f 12//3 10//3 8//3
f 12//2 11//2 9//2
f 9//1 11//1 12//1
f 12//2 10//2 11//2
f 11//1 10//1 12//1
