# SSTK version 0.8.0
# 386
mtllib original-386.mtl
o Group255/mesh379/mesh379-geometry#mesh379-geometry
v 0.079550 -0.033361 0.912039
v 0.079550 -0.036807 0.912647
v 0.067228 -0.035529 0.940043
v 0.079550 -0.040253 0.913254
v 0.079550 -0.029915 0.911432
v 0.079550 -0.026469 0.910824
v 0.067228 0.033392 0.927891
v 0.054874 0.035812 0.941616
v 0.081248 0.027072 0.892052
v 0.049712 -0.032370 0.957959
v 0.080523 -0.027255 0.906365
v 0.027754 0.038604 0.957450
v 0.081248 -0.028064 0.901774
v 0.024192 -0.030114 0.970752
v 0.081706 -0.028894 0.897071
v -0.006328 0.004896 0.967796
v 0.081882 0.025398 0.882554
v -0.006328 -0.012334 0.970834
v -0.006328 0.022126 0.964758
v 0.081882 -0.029739 0.892276
v -0.006328 -0.029564 0.973872
v -0.006328 0.039357 0.961720
v 0.076789 0.020398 0.854198
v 0.075853 -0.048940 0.863988
v 0.061541 0.015979 0.829139
v 0.081882 -0.033185 0.892884
v 0.058099 -0.053578 0.837686
v 0.081882 -0.036631 0.893491
v 0.035374 0.012566 0.809782
v 0.081882 -0.040077 0.894099
v 0.033309 -0.056518 0.821009
v 0.081882 -0.043523 0.894707
v 0.007731 -0.023192 0.808500
v 0.007731 -0.005962 0.805462
v 0.007731 -0.040422 0.811538
v 0.007731 0.011268 0.802424
v 0.007731 -0.057652 0.814576
vn -0.9109089233001055 -0.0716489939670474 -0.40633896578565104
vn -0.8696011216237258 -0.08418001177354345 -0.4865260680462705
vn 0.8696011216237258 0.08418001177354345 0.4865260680462705
vn 0.9109089233001055 0.0716489939670474 0.40633896578565104
vn -0.9366868196531473 -0.06956898660539725 -0.3431879339236311
vn 0.9366868196531473 0.06956898660539725 0.3431879339236311
vn -0.8747844213015274 -0.09431404542222098 -0.4752442288805272
vn 0.8747844213015274 0.09431404542222098 0.4752442288805272
vn -0.6658530739503125 -0.13078701452533725 -0.73453008157765
vn 0.6658530739503125 0.13078701452533725 0.73453008157765
vn -0.9840255440570493 -0.038434021249753404 -0.17382909610822167
vn 0.9840255440570493 0.038434021249753404 0.17382909610822167
vn -0.5672318966293702 -0.14151297421110232 -0.8113088521495222
vn 0.5672318966293702 0.14151297421110232 0.8113088521495222
vn -0.9832962478988484 -0.033992008569726326 -0.17881004507980616
vn 0.9832962478988484 0.033992008569726326 0.17881004507980616
vn -0.2710061155995803 -0.17058707276512527 -0.9473414040951934
vn 0.2710061155995803 0.17058707276512527 0.9473414040951934
vn -0.9922080828047289 -0.021635001805549125 -0.12269901023984633
vn 0.9922080828047289 0.021635001805549125 0.12269901023984633
vn -0.19629798541996768 -0.17088498730751783 -0.9655389282845989
vn 0.19629798541996768 0.17088498730751783 0.9655389282845989
vn -0.9978387821289106 -0.012253997324425739 -0.06455698590443557
vn 0.9978387821289106 0.012253997324425739 0.06455698590443557
vn -0.11493896022503489 -0.17600693909228105 -0.9776556616793839
vn 0.11493896022503489 0.17600693909228105 0.9776556616793839
vn -0.9997036872477489 0.0033749989441486153 0.024106992458249127
vn 0.9997036872477489 -0.0033749989441486153 -0.024106992458249127
vn -0.10324796102756736 -0.17271993480436826 -0.9795446302567455
vn 0.10324796102756736 0.17271993480436826 0.9795446302567455
vn -0.12618499306480987 -0.17225999053250485 -0.9769359463071136
vn 0.12618499306480987 0.17225999053250485 0.9769359463071136
vn -0.9916087146775242 0.024111993062088423 0.1270069634554026
vn 0.9916087146775242 -0.024111993062088423 -0.1270069634554026
vn -0.9552258826715225 0.05157399366526984 0.29134796421431447
vn 0.9552258826715225 -0.05157399366526984 -0.29134796421431447
vn -0.956485123699838 0.052462006784780565 0.28702603712036223
vn 0.956485123699838 -0.052462006784780565 -0.28702603712036223
vn -0.7751838771977055 0.10755298296178031 0.6225129013833816
vn 0.7751838771977055 -0.10755298296178031 -0.6225129013833816
vn -0.9818328995020441 0.03294899662742321 0.1868649808729687
vn 0.9818328995020441 -0.03294899662742321 -0.1868649808729687
vn -0.6757458656424765 0.12975397420121437 0.7256248557251127
vn 0.6757458656424765 -0.12975397420121437 -0.7256248557251127
vn -0.39434805305381615 0.15712902113943267 0.9054281218122335
vn 0.39434805305381615 -0.15712902113943267 -0.9054281218122335
vn -0.332069952998158 0.16380997681400972 0.9289218685185502
vn 0.332069952998158 -0.16380997681400972 -0.9289218685185502
vn -0.2542731251183004 0.1661390817508318 0.9527554688153532
vn 0.2542731251183004 -0.1661390817508318 -0.9527554688153532
vn -0.26093394556122623 0.16763196502686278 0.9506908016569235
vn 0.26093394556122623 -0.16763196502686278 -0.9506908016569235
vn -0.24741705621180074 0.16824903822526024 0.9541892167865665
vn 0.24741705621180074 -0.16824903822526024 -0.9541892167865665
usemtl material_0_0
f 1//1 2//1 3//2
f 3//3 2//4 1//4
f 2//1 4//1 3//2
f 3//3 4//4 2//4
f 5//1 1//1 3//2
f 3//3 1//4 5//4
f 6//5 5//1 3//2
f 3//3 5//4 6//6
f 6//5 3//2 7//7
f 7//8 3//3 6//6
f 7//7 3//2 8//9
f 8//10 3//3 7//8
f 9//11 6//5 7//7
f 7//8 6//6 9//12
f 3//2 10//13 8//9
f 8//10 10//14 3//3
f 9//11 11//15 6//5
f 6//6 11//16 9//12
f 12//17 8//9 10//13
f 10//14 8//10 12//18
f 9//11 13//19 11//15
f 11//16 13//20 9//12
f 12//17 10//13 14//21
f 14//22 10//14 12//18
f 9//11 15//23 13//19
f 13//20 15//24 9//12
f 12//17 14//21 16//25
f 16//26 14//22 12//18
f 17//27 15//23 9//11
f 9//12 15//24 17//28
f 16//25 14//21 18//29
f 18//30 14//22 16//26
f 12//17 16//25 19//31
f 19//32 16//26 12//18
f 17//27 20//33 15//23
f 15//24 20//34 17//28
f 18//29 14//21 21//29
f 21//30 14//22 18//30
f 22//31 12//17 19//31
f 19//32 12//18 22//32
f 23//35 20//33 17//27
f 17//28 20//34 23//36
f 23//35 24//37 20//33
f 20//34 24//38 23//36
f 25//39 24//37 23//35
f 23//36 24//38 25//40
f 24//37 26//41 20//33
f 20//34 26//42 24//38
f 25//39 27//43 24//37
f 24//38 27//44 25//40
f 24//37 28//41 26//41
f 26//42 28//42 24//38
f 25//39 29//45 27//43
f 27//44 29//46 25//40
f 24//37 30//41 28//41
f 28//42 30//42 24//38
f 29//45 31//47 27//43
f 27//44 31//48 29//46
f 24//37 32//41 30//41
f 30//42 32//42 24//38
f 29//45 33//49 31//47
f 31//48 33//50 29//46
f 29//45 34//51 33//49
f 33//50 34//52 29//46
f 33//49 35//53 31//47
f 31//48 35//54 33//50
f 29//45 36//51 34//51
f 34//52 36//52 29//46
f 35//53 37//53 31//47
f 31//48 37//54 35//54
