# SSTK version 0.8.0
# 322
mtllib original-322.mtl
o Group216/mesh318/mesh318-geometry#mesh318-geometry
v -0.063389 0.654925 -0.200383
v -0.059951 0.482297 -0.202935
v -0.059951 0.654925 -0.202935
v -0.064467 0.482297 -0.199285
v -0.058093 0.654925 -0.203873
v -0.067611 0.654925 -0.194492
v -0.051338 0.525454 -0.205421
v -0.067950 0.482297 -0.193699
v -0.051338 0.482297 -0.205421
v -0.051338 0.568611 -0.205421
v -0.069283 0.568611 -0.186772
v -0.051338 0.611768 -0.205421
v -0.069283 0.611768 -0.186772
v -0.069283 0.525454 -0.186772
v -0.051338 0.654925 -0.205421
v -0.069283 0.654925 -0.186772
v -0.069283 0.482297 -0.186772
vn 0.6856311273727916 -0.00011700002173578419 0.7279491352343991
vn 0.4505108432983901 0.0006899997599965369 0.8927706894667322
vn 0.5253890671539214 0 0.8508621087550746
vn -0.5253890671539214 0 -0.8508621087550746
vn -0.4505108432983901 -0.0006899997599965369 -0.8927706894667322
vn -0.6856311273727916 0.00011700002173578419 -0.7279491352343991
vn 0.771350971666351 0.000141999994783844 0.636409976623071
vn -0.771350971666351 -0.000141999994783844 -0.636409976623071
vn 0.27867693784348474 0.00047699989360902687 0.9603847857943608
vn -0.27867693784348474 -0.00047699989360902687 -0.9603847857943608
vn 0.9354949269144617 -0.0003249999746094564 0.3533399723953157
vn -0.9354949269144617 0.0003249999746094564 -0.3533399723953157
vn 0.25574710443153814 0.0007920003234044712 0.9667433947591115
vn -0.25574710443153814 -0.0007920003234044712 -0.9667433947591115
vn 0.9598651175676465 -0.00005800000710410659 0.2804620343519737
vn -0.9598651175676465 0.00005800000710410659 -0.2804620343519737
vn 0.27734998698382674 0 0.9607689549106337
vn -0.27734998698382674 0 -0.9607689549106337
vn 0.223320990613149 0 0.974744959028546
vn -0.223320990613149 0 -0.974744959028546
vn 0.9796897669881643 -0.00033199992103636266 0.20051895230807676
vn -0.9796897669881643 0.00033199992103636266 -0.20051895230807676
vn 0.9773555095865848 0 0.21160389382227118
vn -0.9773555095865848 0 -0.21160389382227118
vn 0.9819805675923172 0 0.18898191678324866
vn -0.9819805675923172 0 -0.18898191678324866
usemtl material_0_0
f 1//1 2//2 3//3
f 3//4 2//5 1//6
f 1//1 4//7 2//2
f 2//5 4//8 1//6
f 3//3 2//2 5//9
f 5//10 2//5 3//4
f 1//1 6//11 4//7
f 4//8 6//12 1//6
f 5//9 2//2 7//13
f 7//14 2//5 5//10
f 4//7 6//11 8//15
f 8//16 6//12 4//8
f 7//13 2//2 9//17
f 9//18 2//5 7//14
f 5//9 7//13 10//19
f 10//20 7//14 5//10
f 6//11 11//21 8//15
f 8//16 11//22 6//12
f 5//9 10//19 12//19
f 12//20 10//20 5//10
f 6//11 13//23 11//21
f 11//22 13//24 6//12
f 8//15 11//21 14//25
f 14//26 11//22 8//16
f 5//9 12//19 15//19
f 15//20 12//20 5//10
f 6//11 16//23 13//23
f 13//24 16//24 6//12
f 8//15 14//25 17//25
f 17//26 14//26 8//16
