# SSTK version 0.8.0
# 347
mtllib original-347.mtl
o mesh342/mesh342-geometry#mesh342-geometry
v 0.041661 0.673587 0.070468
v -0.079644 0.673587 0.058520
v 0.000702 0.673587 0.074502
v 0.081047 0.673587 0.058520
v -0.040258 0.673587 0.070468
v 0.117345 0.673587 0.039118
v -0.115942 0.673587 0.039118
v -0.147757 0.673587 0.013008
v -0.173868 0.673587 -0.018807
v -0.193269 0.673587 -0.055105
v 0.149160 0.673587 0.013008
v 0.175271 0.673587 -0.018807
v 0.194672 0.673587 -0.055105
v -0.205217 0.673587 -0.094491
v -0.209251 0.673587 -0.135451
v 0.206620 0.673587 -0.094491
v 0.210654 0.673587 -0.135451
v -0.205217 0.673587 -0.176410
v 0.206620 0.673587 -0.176410
v 0.194672 0.673587 -0.215796
v -0.193269 0.673587 -0.215796
v -0.173868 0.673587 -0.252094
v -0.147757 0.673587 -0.283910
v -0.115942 0.673587 -0.310020
v 0.175271 0.673587 -0.252094
v 0.149160 0.673587 -0.283910
v 0.117345 0.673587 -0.310020
v -0.079644 0.673587 -0.329422
v -0.040258 0.673587 -0.341369
v 0.000702 0.673587 -0.345403
v 0.041661 0.673587 -0.341369
v 0.081047 0.673587 -0.329422
vn 0 1 0
vn 0 -1 0
usemtl material_0_0
f 1//1 2//1 3//1
f 3//2 2//2 1//2
f 4//1 2//1 1//1
f 1//2 2//2 4//2
f 3//1 2//1 5//1
f 5//2 2//2 3//2
f 6//1 2//1 4//1
f 4//2 2//2 6//2
f 6//1 7//1 2//1
f 2//2 7//2 6//2
f 6//1 8//1 7//1
f 7//2 8//2 6//2
f 6//1 9//1 8//1
f 8//2 9//2 6//2
f 6//1 10//1 9//1
f 9//2 10//2 6//2
f 11//1 10//1 6//1
f 6//2 10//2 11//2
f 12//1 10//1 11//1
f 11//2 10//2 12//2
f 13//1 10//1 12//1
f 12//2 10//2 13//2
f 13//1 14//1 10//1
f 10//2 14//2 13//2
f 13//1 15//1 14//1
f 14//2 15//2 13//2
f 16//1 15//1 13//1
f 13//2 15//2 16//2
f 17//1 15//1 16//1
f 16//2 15//2 17//2
f 17//1 18//1 15//1
f 15//2 18//2 17//2
f 17//1 19//1 18//1
f 18//2 19//2 17//2
f 19//1 20//1 18//1
f 18//2 20//2 19//2
f 20//1 21//1 18//1
f 18//2 21//2 20//2
f 20//1 22//1 21//1
f 21//2 22//2 20//2
f 20//1 23//1 22//1
f 22//2 23//2 20//2
f 20//1 24//1 23//1
f 23//2 24//2 20//2
f 20//1 25//1 24//1
f 24//2 25//2 20//2
f 25//1 26//1 24//1
f 24//2 26//2 25//2
f 26//1 27//1 24//1
f 24//2 27//2 26//2
f 27//1 28//1 24//1
f 24//2 28//2 27//2
f 27//1 29//1 28//1
f 28//2 29//2 27//2
f 27//1 30//1 29//1
f 29//2 30//2 27//2
f 27//1 31//1 30//1
f 30//2 31//2 27//2
f 27//1 32//1 31//1
f 31//2 32//2 27//2
