# SSTK version 0.8.0
# 399
mtllib original-399.mtl
o mesh391/mesh391-geometry#mesh391-geometry
v -0.064457 0.059910 0.914171
v -0.059838 0.061136 0.921119
v -0.064448 0.018983 0.921403
v -0.059838 0.020205 0.928336
v -0.054169 0.062317 0.927820
v -0.047375 0.022497 0.941336
v -0.047375 0.063428 0.934119
v -0.047375 0.020314 0.941721
v -0.039415 0.023500 0.947025
v -0.059838 0.018022 0.928721
v -0.030419 0.065273 0.944583
v -0.047375 0.018131 0.942106
v -0.030419 0.024342 0.951800
v -0.059838 0.015838 0.929106
v -0.020552 0.024980 0.955418
v -0.047375 0.015947 0.942491
v -0.010054 0.066309 0.950457
v -0.059838 0.013655 0.929491
v -0.010054 0.025378 0.957675
v -0.047375 0.013764 0.942876
v 0.000702 0.041611 0.955597
v -0.059838 0.011472 0.929876
v 0.000702 0.054027 0.953408
v 0.000702 0.029195 0.957786
v 0.000702 0.066443 0.951219
v -0.010054 0.023195 0.958060
v 0.000702 0.016779 0.959976
v -0.010054 0.021011 0.958445
v -0.010054 0.018828 0.958830
v -0.010054 0.016645 0.959215
vn 0.8366437046058413 -0.09513896640924338 -0.5394218095461056
vn 0.8150319990007707 -0.10062199987663731 -0.5706119993004297
vn 0.8366105731224921 -0.095135951457226 -0.5394737247354904
vn -0.8366105731224921 0.095135951457226 0.5394737247354904
vn -0.8150319990007707 0.10062199987663731 0.5706119993004297
vn -0.8366437046058413 0.09513896640924338 0.5394218095461056
vn 0.7590408336262374 -0.11044297579206189 -0.6416068593665288
vn -0.7590408336262374 0.11044297579206189 0.6416068593665288
vn 0.7278339696675199 -0.11473499521841901 -0.676086971824076
vn -0.7278339696675199 0.11473499521841901 0.676086971824076
vn 0.6837303381850742 -0.12345306106205937 -0.7192163557370839
vn -0.6837303381850742 0.12345306106205937 0.7192163557370839
vn 0.6032428444221823 -0.1437839629177611 -0.7844897976781461
vn -0.6032428444221823 0.1437839629177611 0.7844897976781461
vn 0.727117887385081 -0.11921198153662839 -0.6760828952893034
vn -0.727117887385081 0.11921198153662839 0.6760828952893034
vn 0.531735066526176 -0.15234401905998976 -0.8330961042299098
vn -0.531735066526176 0.15234401905998976 0.8330961042299098
vn 0.41129705051098264 -0.16673302047631658 -0.896122110051867
vn -0.41129705051098264 0.16673302047631658 0.896122110051867
vn 0.4126869140713714 -0.15817096706603992 -0.8970348132216732
vn -0.4126869140713714 0.15817096706603992 0.8970348132216732
vn 0.28155502850547726 -0.17256701747120323 -0.9439000955632824
vn -0.28155502850547726 0.17256701747120323 0.9439000955632824
vn 0.1424419439338648 -0.17545293094051156 -0.974128616576233
vn -0.1424419439338648 0.17545293094051156 0.974128616576233
vn 0.10726905120478655 -0.17264608241245424 -0.9791254673846743
vn -0.10726905120478655 0.17264608241245424 0.9791254673846743
vn 0.071661981539016 -0.1732019553811034 -0.9822757469540129
vn -0.071661981539016 0.1732019553811034 0.9822757469540129
usemtl material_0_0
f 1//1 2//2 3//3
f 3//4 2//5 1//6
f 2//2 4//7 3//3
f 3//4 4//8 2//5
f 2//2 5//9 4//7
f 4//8 5//10 2//5
f 5//9 6//11 4//7
f 4//8 6//12 5//10
f 7//13 6//11 5//9
f 5//10 6//12 7//14
f 4//7 6//11 8//15
f 8//16 6//12 4//8
f 7//13 9//17 6//11
f 6//12 9//18 7//14
f 4//7 8//15 10//15
f 10//16 8//16 4//8
f 11//19 9//17 7//13
f 7//14 9//18 11//20
f 10//15 8//15 12//15
f 12//16 8//16 10//16
f 11//19 13//21 9//17
f 9//18 13//22 11//20
f 10//15 12//15 14//15
f 14//16 12//16 10//16
f 11//19 15//23 13//21
f 13//22 15//24 11//20
f 14//15 12//15 16//15
f 16//16 12//16 14//16
f 17//25 15//23 11//19
f 11//20 15//24 17//26
f 14//15 16//15 18//15
f 18//16 16//16 14//16
f 17//25 19//27 15//23
f 15//24 19//28 17//26
f 18//15 16//15 20//15
f 20//16 16//16 18//16
f 17//25 21//29 19//27
f 19//28 21//30 17//26
f 18//15 20//15 22//15
f 22//16 20//16 18//16
f 17//25 23//29 21//29
f 21//30 23//30 17//26
f 21//29 24//29 19//27
f 19//28 24//30 21//30
f 25//29 23//29 17//25
f 17//26 23//30 25//30
f 24//29 26//29 19//27
f 19//28 26//30 24//30
f 24//29 27//29 26//29
f 26//30 27//30 24//30
f 26//29 27//29 28//29
f 28//30 27//30 26//30
f 28//29 27//29 29//29
f 29//30 27//30 28//30
f 29//29 27//29 30//29
f 30//30 27//30 29//30
