# SSTK version 0.8.0
# 398
mtllib original-398.mtl
o mesh390/mesh390-geometry#mesh390-geometry
v -0.007642 -0.004904 0.811471
v -0.007642 -0.007087 0.811856
v 0.000702 -0.009351 0.811784
v -0.007642 -0.009271 0.812241
v -0.007642 -0.002721 0.811086
v 0.000702 0.003065 0.809595
v -0.007642 -0.000537 0.810701
v 0.000702 0.015481 0.807406
v -0.007642 0.040393 0.803484
v -0.016426 -0.000275 0.812190
v 0.000702 0.027897 0.805217
v -0.025422 0.041126 0.807637
v 0.000702 0.040313 0.803027
v -0.025422 0.000195 0.814854
v -0.034404 0.000892 0.818804
v -0.043099 0.042755 0.816878
v -0.043099 0.001824 0.824095
v -0.051159 0.043912 0.823441
v -0.058350 0.004351 0.838425
v -0.058350 0.045282 0.831208
v -0.058350 0.002168 0.838810
v -0.064445 0.005911 0.847272
v -0.043099 -0.000359 0.824480
v -0.069184 0.048538 0.849673
v -0.058350 -0.000015 0.839195
v -0.069184 0.007607 0.856890
v -0.043099 -0.002542 0.824865
v -0.072441 0.009385 0.866973
v -0.058350 -0.002199 0.839580
v -0.074187 0.052118 0.869980
v -0.043099 -0.004726 0.825250
v -0.074187 0.011188 0.877197
v -0.058350 -0.004382 0.839965
v -0.074481 0.053880 0.879973
v -0.043099 -0.006909 0.825635
v -0.073472 0.014638 0.896762
v -0.073472 0.055568 0.889544
v -0.073472 0.012454 0.897147
v -0.071322 0.016226 0.905770
v -0.074187 0.009004 0.877582
v -0.064457 0.059910 0.914171
v -0.073472 0.010271 0.897532
v -0.068242 0.017679 0.914009
v -0.074187 0.006821 0.877967
v -0.064457 0.018980 0.921388
v -0.073472 0.008087 0.897917
v -0.074187 0.004638 0.878352
v -0.073472 0.005904 0.898302
v -0.074187 0.002454 0.878737
vn 0.05553001398679062 0.1733800436706239 0.9832882476687084
vn -0.05553001398679062 -0.1733800436706239 -0.9832882476687084
vn 0.08414104585141331 0.17303209429126976 0.9813155347533267
vn -0.08414104585141331 -0.17303209429126976 -0.9813155347533267
vn 0.11369198584688349 0.1698779788524861 0.9788848781420553
vn -0.11369198584688349 -0.1698779788524861 -0.9788848781420553
vn 0.22971492310546918 0.1646029449009838 0.9592376789057923
vn -0.22971492310546918 -0.1646029449009838 -0.9592376789057923
vn 0.35061191667971753 0.1553289630872411 0.9235497805253474
vn -0.35061191667971753 -0.1553289630872411 -0.9235497805253474
vn 0.34858912832387356 0.16275605991434128 0.9230363397914305
vn -0.34858912832387356 -0.16275605991434128 -0.9230363397914305
vn 0.46808782448652436 0.14816194444542977 0.8711726733464624
vn -0.46808782448652436 -0.14816194444542977 -0.8711726733464624
vn 0.5458452388196258 0.14019906134025703 0.8260733614257613
vn -0.5458452388196258 -0.14019906134025703 -0.8260733614257613
vn 0.6488849562538 0.1356509908547495 0.7486969495247252
vn -0.6488849562538 -0.1356509908547495 -0.7486969495247252
vn 0.6899609597870067 0.13155799233240562 0.7117909585146889
vn -0.6899609597870067 -0.13155799233240562 -0.7117909585146889
vn 0.7395511773351492 0.12129002908383618 0.6620821587590446
vn -0.7395511773351492 -0.12129002908383618 -0.6620821587590446
vn 0.8140106493267298 0.09464795922595176 0.5730867531159992
vn -0.8140106493267298 -0.09464795922595176 -0.5730867531159992
vn 0.6903161261180065 0.12563602295320078 0.7125161301738588
vn -0.6903161261180065 -0.12563602295320078 -0.7125161301738588
vn 0.8658479340531277 0.08067499385542956 0.49375996239302083
vn -0.8658479340531277 -0.08067499385542956 -0.49375996239302083
vn 0.9284661640534865 0.05532700977589612 0.3672730648945854
vn -0.9284661640534865 -0.05532700977589612 -0.3672730648945854
vn 0.9287081291698436 0.06439100895585623 0.3651780507909754
vn -0.9287081291698436 -0.06439100895585623 -0.3651780507909754
vn 0.9718992702176777 0.03491700970799497 0.23279306472358122
vn -0.9718992702176777 -0.03491700970799497 -0.23279306472358122
vn 0.9895479576349789 0.019059999183993773 0.14293899388042447
vn -0.9895479576349789 -0.019059999183993773 -0.14293899388042447
vn 0.9998424496567463 0.0061660027730216305 0.016645007485719284
vn -0.9998424496567463 -0.0061660027730216305 -0.016645007485719284
vn 0.9993095342319278 -0.001171999453742894 -0.03713598269129387
vn -0.9993095342319278 0.001171999453742894 0.03713598269129387
vn 0.9948454535078647 -0.013678006235223125 -0.10047604580276949
vn -0.9948454535078647 0.013678006235223125 0.10047604580276949
vn 0.9743553221633328 -0.04760701574090525 -0.2199210727152653
vn -0.9743553221633328 0.04760701574090525 0.2199210727152653
vn 0.9993541671619856 -0.006240001043765054 -0.03538800591935225
vn -0.9993541671619856 0.006240001043765054 0.03538800591935225
vn 0.9522393060226234 -0.06910602220870952 -0.2974300955855714
vn -0.9522393060226234 0.06910602220870952 0.2974300955855714
vn 0.9252332355523837 -0.08197902087079555 -0.37043609430822594
vn -0.9252332355523837 0.08197902087079555 0.37043609430822594
vn 0.9169619456956812 -0.08068999522137715 -0.39072997686018995
vn -0.9169619456956812 0.08068999522137715 0.39072997686018995
vn 0.8925697811503959 -0.0782999808015908 -0.4440588911209918
vn -0.8925697811503959 0.0782999808015908 0.4440588911209918
usemtl material_0_0
f 1//1 2//1 3//1
f 3//2 2//2 1//2
f 2//1 4//1 3//1
f 3//2 4//2 2//2
f 5//1 1//1 3//1
f 3//2 1//2 5//2
f 6//1 5//1 3//1
f 3//2 5//2 6//2
f 6//1 7//3 5//1
f 5//2 7//4 6//2
f 8//1 7//3 6//1
f 6//2 7//4 8//2
f 9//5 7//3 8//1
f 8//2 7//4 9//6
f 9//5 10//7 7//3
f 7//4 10//8 9//6
f 9//5 8//1 11//1
f 11//2 8//2 9//6
f 12//9 10//7 9//5
f 9//6 10//8 12//10
f 9//5 11//1 13//1
f 13//2 11//2 9//6
f 12//9 14//11 10//7
f 10//8 14//12 12//10
f 12//9 15//13 14//11
f 14//12 15//14 12//10
f 16//15 15//13 12//9
f 12//10 15//14 16//16
f 16//15 17//17 15//13
f 15//14 17//18 16//16
f 18//19 17//17 16//15
f 16//16 17//18 18//20
f 18//19 19//21 17//17
f 17//18 19//22 18//20
f 18//19 20//23 19//21
f 19//22 20//24 18//20
f 19//21 21//25 17//17
f 17//18 21//26 19//22
f 20//23 22//27 19//21
f 19//22 22//28 20//24
f 21//25 23//25 17//17
f 17//18 23//26 21//26
f 20//23 24//29 22//27
f 22//28 24//30 20//24
f 21//25 25//25 23//25
f 23//26 25//26 21//26
f 22//27 24//29 26//31
f 26//32 24//30 22//28
f 25//25 27//25 23//25
f 23//26 27//26 25//26
f 24//29 28//33 26//31
f 26//32 28//34 24//30
f 25//25 29//25 27//25
f 27//26 29//26 25//26
f 24//29 30//35 28//33
f 28//34 30//36 24//30
f 29//25 31//25 27//25
f 27//26 31//26 29//26
f 28//33 30//35 32//37
f 32//38 30//36 28//34
f 29//25 33//25 31//25
f 31//26 33//26 29//26
f 30//35 34//39 32//37
f 32//38 34//40 30//36
f 33//25 35//25 31//25
f 31//26 35//26 33//26
f 32//37 34//39 36//41
f 36//42 34//40 32//38
f 34//39 37//43 36//41
f 36//42 37//44 34//40
f 32//37 36//41 38//45
f 38//46 36//42 32//38
f 37//43 39//47 36//41
f 36//42 39//48 37//44
f 32//37 38//45 40//45
f 40//46 38//46 32//38
f 37//43 41//49 39//47
f 39//48 41//50 37//44
f 40//45 38//45 42//45
f 42//46 38//46 40//46
f 39//47 41//49 43//51
f 43//52 41//50 39//48
f 40//45 42//45 44//45
f 44//46 42//46 40//46
f 43//51 41//49 45//53
f 45//54 41//50 43//52
f 44//45 42//45 46//45
f 46//46 42//46 44//46
f 44//45 46//45 47//45
f 47//46 46//46 44//46
f 47//45 46//45 48//45
f 48//46 46//46 47//46
f 47//45 48//45 49//45
f 49//46 48//46 47//46
