# SSTK version 0.8.0
# 348
mtllib original-348.mtl
o mesh343/mesh343-geometry#mesh343-geometry
v 0.014906 0.407647 0.074021
v 0.000702 0.407647 0.055725
v -0.013503 0.407647 0.074021
v 0.043061 0.407647 0.070184
v -0.041658 0.407647 0.070184
v 0.070437 0.407647 0.062582
v -0.069034 0.407647 0.062582
v 0.086376 0.407647 0.055725
v -0.084973 0.407647 0.055725
v 0.027657 0.407647 0.053815
v -0.026254 0.407647 0.053815
v 0.054072 0.407647 0.048124
v -0.052669 0.407647 0.048124
v 0.079425 0.407647 0.038764
v -0.078021 0.407647 0.038764
v 0.096535 0.407647 0.051354
v -0.095132 0.407647 0.051354
v 0.120882 0.407647 0.036703
v -0.119479 0.407647 0.036703
v 0.103200 0.407647 0.025925
v -0.101797 0.407647 0.025925
v 0.143023 0.407647 0.018902
v -0.141620 0.407647 0.018902
v 0.124932 0.407647 0.009859
v -0.123529 0.407647 0.009859
v 0.162561 0.407647 -0.001729
v -0.161158 0.407647 -0.001729
v 0.144177 0.407647 -0.009106
v -0.142774 0.407647 -0.009106
v 0.179134 0.407647 -0.024807
v -0.177731 0.407647 -0.024807
v 0.160559 0.407647 -0.030600
v -0.159156 0.407647 -0.030600
v 0.192438 0.407647 -0.049910
v -0.191035 0.407647 -0.049910
v 0.173745 0.407647 -0.054185
v -0.172342 0.407647 -0.054185
v 0.202233 0.407647 -0.076584
v -0.200830 0.407647 -0.076584
v 0.183475 0.407647 -0.079398
v -0.182072 0.407647 -0.079398
v 0.208335 0.407647 -0.104331
v -0.206932 0.407647 -0.104331
v 0.189552 0.407647 -0.105727
v -0.188149 0.407647 -0.105727
v 0.201246 0.407647 -0.132651
v -0.199843 0.407647 -0.132651
v 0.205941 0.407647 -0.132651
v 0.196551 0.407647 -0.132651
v -0.195148 0.407647 -0.132651
v -0.204538 0.407647 -0.132651
v 0.210635 0.407647 -0.132651
v 0.191857 0.407647 -0.132651
v -0.190454 0.407647 -0.132651
v -0.209232 0.407647 -0.132651
vn 0 1 0
vn 0 -1 0
usemtl material_0_0
f 1//1 2//1 3//1
f 3//2 2//2 1//2
f 4//1 2//1 1//1
f 1//2 2//2 4//2
f 2//1 5//1 3//1
f 3//2 5//2 2//2
f 6//1 2//1 4//1
f 4//2 2//2 6//2
f 2//1 7//1 5//1
f 5//2 7//2 2//2
f 8//1 2//1 6//1
f 6//2 2//2 8//2
f 2//1 9//1 7//1
f 7//2 9//2 2//2
f 8//1 10//1 2//1
f 2//2 10//2 8//2
f 2//1 11//1 9//1
f 9//2 11//2 2//2
f 8//1 12//1 10//1
f 10//2 12//2 8//2
f 11//1 13//1 9//1
f 9//2 13//2 11//2
f 8//1 14//1 12//1
f 12//2 14//2 8//2
f 13//1 15//1 9//1
f 9//2 15//2 13//2
f 16//1 14//1 8//1
f 8//2 14//2 16//2
f 15//1 17//1 9//1
f 9//2 17//2 15//2
f 18//1 14//1 16//1
f 16//2 14//2 18//2
f 15//1 19//1 17//1
f 17//2 19//2 15//2
f 18//1 20//1 14//1
f 14//2 20//2 18//2
f 15//1 21//1 19//1
f 19//2 21//2 15//2
f 22//1 20//1 18//1
f 18//2 20//2 22//2
f 21//1 23//1 19//1
f 19//2 23//2 21//2
f 22//1 24//1 20//1
f 20//2 24//2 22//2
f 21//1 25//1 23//1
f 23//2 25//2 21//2
f 26//1 24//1 22//1
f 22//2 24//2 26//2
f 25//1 27//1 23//1
f 23//2 27//2 25//2
f 26//1 28//1 24//1
f 24//2 28//2 26//2
f 25//1 29//1 27//1
f 27//2 29//2 25//2
f 30//1 28//1 26//1
f 26//2 28//2 30//2
f 29//1 31//1 27//1
f 27//2 31//2 29//2
f 30//1 32//1 28//1
f 28//2 32//2 30//2
f 29//1 33//1 31//1
f 31//2 33//2 29//2
f 34//1 32//1 30//1
f 30//2 32//2 34//2
f 33//1 35//1 31//1
f 31//2 35//2 33//2
f 34//1 36//1 32//1
f 32//2 36//2 34//2
f 33//1 37//1 35//1
f 35//2 37//2 33//2
f 38//1 36//1 34//1
f 34//2 36//2 38//2
f 37//1 39//1 35//1
f 35//2 39//2 37//2
f 38//1 40//1 36//1
f 36//2 40//2 38//2
f 37//1 41//1 39//1
f 39//2 41//2 37//2
f 42//1 40//1 38//1
f 38//2 40//2 42//2
f 41//1 43//1 39//1
f 39//2 43//2 41//2
f 42//1 44//1 40//1
f 40//2 44//2 42//2
f 41//1 45//1 43//1
f 43//2 45//2 41//2
f 42//1 46//1 44//1
f 44//2 46//2 42//2
f 45//1 47//1 43//1
f 43//2 47//2 45//2
f 42//1 48//1 46//1
f 46//2 48//2 42//2
f 46//1 49//1 44//1
f 44//2 49//2 46//2
f 45//1 50//1 47//1
f 47//2 50//2 45//2
f 47//1 51//1 43//1
f 43//2 51//2 47//2
f 52//1 48//1 42//1
f 42//2 48//2 52//2
f 49//1 53//1 44//1
f 44//2 53//2 49//2
f 45//1 54//1 50//1
f 50//2 54//2 45//2
f 51//1 55//1 43//1
f 43//2 55//2 51//2
