# SSTK version 0.8.0
# 424
mtllib original-424.mtl
o Group279/mesh414/mesh414-geometry#mesh414-geometry
v 0.072540 -0.022755 0.898979
v 0.072540 -0.032058 0.900619
v 0.059699 -0.016934 0.931987
v 0.059699 -0.026238 0.933627
v 0.068519 0.008074 0.910608
v 0.059699 -0.007631 0.930346
v 0.072540 -0.013451 0.897338
v 0.064741 0.009548 0.918965
v 0.071085 0.006598 0.902237
v 0.059699 0.001673 0.928706
v 0.072540 -0.004148 0.895698
v 0.059699 0.010976 0.927066
v 0.072540 0.005156 0.894057
vn -0.9482181435218351 -0.028826004363089873 -0.316309047876383
vn -0.9338173194388826 -0.06212302125095349 -0.3523151205194486
vn -0.9225079951835858 -0.04734699975280124 -0.38306299800002813
vn 0.9225079951835858 0.04734699975280124 0.38306299800002813
vn 0.9338173194388826 0.06212302125095349 0.3523151205194486
vn 0.9482181435218351 0.028826004363089873 0.316309047876383
vn -0.935267363709649 -0.021652008420099553 -0.3532791373842775
vn 0.935267363709649 0.021652008420099553 0.3532791373842775
vn -0.8845309807287237 -0.05901799871417477 -0.4627329899184365
vn 0.8845309807287237 0.05901799871417477 0.4627329899184365
vn -0.9726450966274318 -0.022714002256522613 -0.2311830229668785
vn 0.9726450966274318 0.022714002256522613 0.2311830229668785
vn -0.8743252481553987 -0.06228601767833137 -0.4813271366126939
vn 0.8743252481553987 0.06228601767833137 0.4813271366126939
vn -0.9771899844470443 -0.01923599969383978 -0.21149399663386156
vn 0.9771899844470443 0.01923599969383978 0.21149399663386156
vn -0.8525827867234587 -0.09074697729932875 -0.5146528712577991
vn 0.8525827867234587 0.09074697729932875 0.5146528712577991
vn -0.9850026561090376 -0.029960989539811394 -0.16991794067706947
vn 0.9850026561090376 0.029960989539811394 0.16991794067706947
usemtl material_0_0
f 1//1 2//2 3//3
f 3//4 2//5 1//6
f 2//2 4//2 3//3
f 3//4 4//5 2//5
f 1//1 3//3 5//7
f 5//8 3//4 1//6
f 5//7 3//3 6//9
f 6//10 3//4 5//8
f 7//11 1//1 5//7
f 5//8 1//6 7//12
f 5//7 6//9 8//13
f 8//14 6//10 5//8
f 7//11 5//7 9//15
f 9//16 5//8 7//12
f 8//13 6//9 10//17
f 10//18 6//10 8//14
f 11//19 7//11 9//15
f 9//16 7//12 11//20
f 8//13 10//17 12//17
f 12//18 10//18 8//14
f 13//19 11//19 9//15
f 9//16 11//20 13//20
