# SSTK version 0.8.0
# 451
mtllib original-451.mtl
o mesh440/mesh440-geometry#mesh440-geometry
v -0.009115 0.025758 0.959826
v -0.009135 0.025936 0.960836
v -0.014404 0.025968 0.961021
v -0.009155 0.026114 0.961845
v -0.009095 0.025580 0.958817
v -0.019585 0.025762 0.959852
v -0.009076 0.025402 0.957807
v -0.024675 0.025496 0.958345
v -0.026129 0.025402 0.957807
v -0.013945 0.025262 0.957018
v -0.018750 0.025068 0.955917
v -0.023473 0.024820 0.954507
v -0.029651 0.025172 0.956505
v -0.028091 0.024518 0.952796
v -0.034491 0.024790 0.954341
v -0.032586 0.024164 0.950790
v -0.039173 0.024353 0.951862
v -0.036937 0.023760 0.948498
v -0.043675 0.023863 0.949081
v -0.040999 0.023321 0.946008
v -0.047978 0.023321 0.946008
v -0.041126 0.023307 0.945930
v -0.047268 0.023193 0.945281
v -0.046557 0.023064 0.944553
v -0.045846 0.022936 0.943825
v -0.045136 0.022808 0.943098
vn 0 -0.9848077908426045 0.1736479631199547
vn 0 0.9848077908426045 -0.1736479631199547
usemtl material_0_0
f 1//1 2//1 3//1
f 3//2 2//2 1//2
f 2//1 4//1 3//1
f 3//2 4//2 2//2
f 5//1 1//1 3//1
f 3//2 1//2 5//2
f 5//1 3//1 6//1
f 6//2 3//2 5//2
f 7//1 5//1 6//1
f 6//2 5//2 7//2
f 7//1 6//1 8//1
f 8//2 6//2 7//2
f 7//1 8//1 9//1
f 9//2 8//2 7//2
f 7//1 9//1 10//1
f 10//2 9//2 7//2
f 10//1 9//1 11//1
f 11//2 9//2 10//2
f 11//1 9//1 12//1
f 12//2 9//2 11//2
f 12//1 9//1 13//1
f 13//2 9//2 12//2
f 12//1 13//1 14//1
f 14//2 13//2 12//2
f 14//1 13//1 15//1
f 15//2 13//2 14//2
f 14//1 15//1 16//1
f 16//2 15//2 14//2
f 16//1 15//1 17//1
f 17//2 15//2 16//2
f 16//1 17//1 18//1
f 18//2 17//2 16//2
f 18//1 17//1 19//1
f 19//2 17//2 18//2
f 18//1 19//1 20//1
f 20//2 19//2 18//2
f 20//1 19//1 21//1
f 21//2 19//2 20//2
f 20//1 21//1 22//1
f 22//2 21//2 20//2
f 22//1 21//1 23//1
f 23//2 21//2 22//2
f 22//1 23//1 24//1
f 24//2 23//2 22//2
f 22//1 24//1 25//1
f 25//2 24//2 22//2
f 22//1 25//1 26//1
f 26//2 25//2 22//2
