# SSTK version 0.8.0
# 6
mtllib original-6.mtl
o #ID41
v -0.529531 0.628463 0.510186
v -0.513061 0.628463 0.493717
v -0.529531 0.628463 0.493717
v 0.508050 0.628463 0.493717
v 0.508050 0.628463 -0.461517
v 0.524520 0.628463 -0.477986
v 0.508050 0.628463 -0.477986
v 0.524520 0.628463 0.510186
v -0.513061 0.628463 -0.477986
v -0.529531 0.628463 -0.477986
v -0.513061 0.628463 -0.461517
vn 0 1 0
vn 0 -1 0
usemtl material_0_2
f 1//1 2//1 3//1
f 3//2 2//2 1//2
f 2//1 1//1 4//1
f 4//2 1//2 2//2
f 5//1 6//1 7//1
f 7//2 6//2 5//2
f 6//1 5//1 8//1
f 8//2 5//2 6//2
f 8//1 5//1 4//1
f 4//2 5//2 8//2
f 8//1 4//1 1//1
f 1//2 4//2 8//2
f 3//1 9//1 10//1
f 10//2 9//2 3//2
f 9//1 3//1 11//1
f 11//2 3//2 9//2
f 11//1 3//1 2//1
f 2//2 3//2 11//2
f 11//1 7//1 9//1
f 9//2 7//2 11//2
f 7//1 11//1 5//1
f 5//2 11//2 7//2
