# SSTK version 0.8.0
# 3
mtllib original-3.mtl
o NightStand_Top1/NightStand_Top/mesh5/mesh5-geometry#mesh5-geometry
v -0.469444 0.375222 0.425305
v -0.472450 0.375419 -0.445080
v -0.469444 0.375222 -0.445080
v -0.472450 0.375419 0.428460
v -0.492470 0.409762 -0.445080
v 0.451598 0.375222 0.425305
v 0.454604 0.375419 0.428460
v -0.475404 0.376007 -0.445080
v -0.469444 0.409762 -0.445080
v 0.451598 0.375222 -0.445080
v 0.457558 0.376007 0.431562
v -0.475404 0.376007 0.431562
v -0.492470 0.409762 0.449482
v -0.478256 0.376975 -0.445080
v 0.454604 0.375419 -0.445080
v 0.451598 0.409762 -0.445080
v 0.474624 0.409762 0.449482
v -0.492470 0.398248 -0.445080
v -0.480957 0.378307 -0.445080
v 0.460410 0.376975 0.434557
v 0.457558 0.376007 -0.445080
v -0.478256 0.376975 0.434557
v 0.451598 0.409762 -0.445311
v 0.474624 0.398248 0.449482
v -0.492470 0.398248 0.449482
v -0.492273 0.395243 -0.445080
v -0.483462 0.379981 -0.445080
v 0.451598 0.375222 -0.445311
v 0.454604 0.375419 -0.445311
v 0.474624 0.409762 -0.445080
v -0.491686 0.392289 -0.445080
v -0.485726 0.381967 -0.445080
v -0.480957 0.378307 0.437393
v 0.463111 0.378307 0.437393
v 0.460410 0.376975 -0.445080
v 0.457558 0.376007 -0.445311
v 0.474624 0.398248 -0.445080
v 0.474624 0.409762 -0.445311
v 0.474427 0.395243 0.449275
v -0.492273 0.395243 0.449275
v -0.490718 0.389437 -0.445080
v -0.487712 0.384231 -0.445080
v -0.483462 0.379981 0.440023
v 0.463111 0.378307 -0.445080
v 0.474427 0.395243 -0.445080
v -0.489385 0.386735 -0.445080
v -0.491686 0.392289 0.448658
v -0.487712 0.384231 0.444486
v -0.485726 0.381967 0.442401
v 0.465615 0.379981 0.440023
v 0.460410 0.376975 -0.445311
v 0.465615 0.379981 -0.445080
v 0.473840 0.392289 -0.445080
v 0.474624 0.398248 -0.445311
v 0.473840 0.392289 0.448658
v -0.490718 0.389437 0.447642
v -0.489385 0.386735 0.446243
v 0.467880 0.381967 0.442401
v 0.467880 0.381967 -0.445080
v 0.463111 0.378307 -0.445311
v 0.472871 0.389437 -0.445080
v 0.474427 0.395243 -0.445311
v 0.472871 0.389437 0.447642
v 0.469866 0.384231 0.444486
v 0.469866 0.384231 -0.445080
v 0.465615 0.379981 -0.445311
v 0.471539 0.386735 -0.445080
v 0.473840 0.392289 -0.445311
v 0.471539 0.386735 0.446243
v 0.469866 0.384231 -0.445311
v 0.467880 0.381967 -0.445311
v 0.472871 0.389437 -0.445311
v 0.471539 0.386735 -0.445311
vt -1.800476 -2.040706
vt -0.000476 -2.047246
vt -0.000476 -2.040706
vt -1.807002 -2.047246
vt 2.05 0.075
vt 2.1 0
vt 2.056526 0.074572
vt 0.000476 2.05
vt 1.800476 0.05
vt 1.800476 2.05
vt 2.05 -1.791716
vt 0.043474 -1.798256
vt 2.056526 -1.798256
vt -1.807002 -2.002462
vt -0.000476 -2.009003
vt -0.000476 -2.002462
vt 2.05 0
vt 2.062941 0.073296
vt 0.000476 0.05
vt 0.05 -1.791716
vt 0.037059 -1.764273
vt 2.056526 -1.757733
vt 0.043474 -1.757733
vt -1.813417 -2.009003
vt 0.05 0.075
vt -1.850476 2.1
vt -0.000476 2.05
vt -0.000476 2.1
vt 2.069134 0.071194
vt 0.000476 0.054798
vt 1.807002 0.048258
vt 1.800476 0.054798
vt 2.062941 -1.764273
vt 0.000476 0.057187
vt 1.813417 0.050646
vt 1.807002 0.057187
vt -1.813417 -1.929901
vt -0.000476 -1.936441
vt -0.000476 -1.929901
vt 0.05 0
vt -1.850476 0
vt -0.000476 0.025
vt -0.000476 0
vt 2.075 0.068301
vt 0.000476 0.048258
vt 0.030866 -1.700159
vt 2.062941 -1.693619
vt 0.037059 -1.693619
vt 0.000476 0.050646
vt -1.81961 -1.936441
vt 0.043474 0.074572
vt -0.000476 0.05
vt 0 0.05
vt 0 0.025
vt 0 0
vt -1.850476 0.025
vt 2.099572 0.031526
vt 2.1 0.025
vt 2.080438 0.064668
vt -1.81961 -1.824262
vt -0.000476 -1.830802
vt -0.000476 -1.824262
vt 0 0.054798
vt 2.069134 -1.700159
vt 0.000476 0.058653
vt 1.81961 0.052112
vt 1.813417 0.058653
vt 0 0.057187
vt 0.037059 0.073296
vt 1.850476 0.025
vt 0.000476 0
vt 1.850476 0
vt -0.000476 -0.10586
vt -1.850476 -0.1124
vt -0.000476 -0.1124
vt 2.098296 0.037941
vt 2.085355 0.060355
vt -1.825476 -1.687353
vt -0.000476 -1.693894
vt -0.000476 -1.687353
vt -1.825476 -1.830802
vt 0 0.048258
vt 0.025 -1.607011
vt 2.069134 -1.60047
vt 0.030866 -1.60047
vt 0.000476 0.052112
vt 0 0.050646
vt 0.030866 0.071194
vt 2.1 -0.09608
vt 0.000428 -0.08954
vt 0 -0.09608
vt 0.000476 0.025
vt -1.850048 -0.10586
vt 2.096194 0.044134
vt -0.000476 -0.372145
vt -1.850048 -0.378686
vt -0.000476 -0.378686
vt 2.089668 0.055438
vt -1.830914 -1.521518
vt -0.000476 -1.528058
vt -0.000476 -1.521518
vt -1.830914 -1.693894
vt 2.075 -1.607011
vt 0.000476 0.059171
vt 1.825476 0.052631
vt 1.81961 0.059171
vt 0 0.058653
vt 0.025 0.068301
vt 0.000428 0.031526
vt 2.099572 -0.08954
vt 1.850048 0.031487
vt 0.000476 0.024946
vt 1.850476 0.024946
vt 2.093301 0.05
vt -0.000476 -0.632007
vt -1.848772 -0.638548
vt -0.000476 -0.638548
vt -1.848772 -0.372145
vt -0.000476 -1.329593
vt -1.840144 -1.336133
vt -0.000476 -1.336133
vt -1.835831 -1.528058
vt 2.075 -1.479882
vt 0.019562 -1.486422
vt 2.080438 -1.486422
vt 0.025 -1.479882
vt 0.000476 0.052631
vt 0 0.052112
vt 0.019562 0.064668
vt 0 0.059171
vt 0.001704 0.037941
vt 0.000476 0.031487
vt 0 0.024946
vt 2.099572 -0.330006
vt 0.001704 -0.323466
vt 0.000428 -0.330006
vt -0.000476 -0.881
vt -1.84667 -0.88754
vt -0.000476 -0.88754
vt -1.84667 -0.632007
vt 2.098296 -0.323466
vt -0.000476 -1.114862
vt -1.843777 -1.121402
vt -0.000476 -1.121402
vt -1.835831 -1.329593
vt -1.840144 -1.114862
vt 2.080438 -1.333916
vt 0.014645 -1.340456
vt 2.085355 -1.340456
vt 0.019562 -1.333916
vt 0.000476 0.058733
vt 1.830914 0.052193
vt 1.825476 0.058733
vt 0.014645 0.060355
vt 0 0.058733
vt 0.000476 0.052193
vt 0 0.052631
vt 0.003806 0.044134
vt 0.000476 0.031004
vt 1.848772 0.037544
vt 0.000476 0.037544
vt 0 0.031004
vt 1.850048 0.031004
vt 0 0.031487
vt -1.843777 -0.881
vt 0.003806 -0.551801
vt 2.098296 -0.558341
vt 2.096194 -0.551801
vt 0.001704 -0.558341
vt 0.014645 -1.16507
vt 2.089668 -1.17161
vt 2.085355 -1.16507
vt 0.010332 -0.976234
vt 2.093301 -0.982774
vt 2.089668 -0.976234
vt 0.000476 0.057346
vt 1.835831 0.050805
vt 1.830914 0.057346
vt 0.010332 0.055438
vt 0 0.057346
vt 0.000476 0.050805
vt 0 0.052193
vt 0.006699 0.05
vt 0.000476 0.036475
vt 1.84667 0.043015
vt 0.000476 0.043015
vt 0 0.036475
vt 1.848772 0.036475
vt 0 0.037544
vt 0.006699 -0.770638
vt 2.096194 -0.777179
vt 2.093301 -0.770638
vt 0.003806 -0.777179
vt 0.010332 -1.17161
vt 0.006699 -0.982774
vt 0.000476 0.055033
vt 0 0.048493
vt 0.000476 0.048493
vt 1.835831 0.055033
vt 0 0.050805
vt 0.000476 0.041266
vt 1.843777 0.047806
vt 0.000476 0.047806
vt 0 0.041266
vt 1.84667 0.041266
vt 0 0.043015
vt 1.840144 0.048493
vt 1.840144 0.051835
vt 0.000476 0.045295
vt 1.843777 0.045295
vt 0.000476 0.051835
vt 0 0.045295
vt 0 0.055033
vt 0 0.051835
vt 0 0.047806
vn -0.06540299554311302 -0.9978589320009053 0
vn -0.1305259853353411 -0.9914448886106773 0
vn 0.06540299554311302 0.9978589320009053 0
vn 0.1305259853353411 0.9914448886106773 0
vn 0 0 1
vn 0 0 -1
vn 0 -1 0
vn 0 1 0
vn 0 -0.9980574085768873 0.06230095653189112
vn 0 -0.992231018136923 0.12440902960382264
vn 0 0.992231018136923 -0.12440902960382264
vn 0 0.9980574085768873 -0.06230095653189112
vn -0.2588189595935754 -0.965925849201117 0
vn 0.2588189595935754 0.965925849201117 0
vn 0 -0.9689477874452262 0.24726541449422482
vn 0 0.9689477874452262 -0.24726541449422482
vn 0.06540299554311302 -0.9978589320009053 0
vn 0.1305259853353411 -0.9914448886106773 0
vn -0.06540299554311302 0.9978589320009053 0
vn -0.1305259853353411 0.9914448886106773 0
vn 0.2588189595935754 -0.965925849201117 0
vn -0.2588189595935754 0.965925849201117 0
vn -0.38268289803626016 -0.9238797538373538 0
vn 0.38268289803626016 0.9238797538373538 0
vn -0.9994645906263837 -0.03271898659853486 0
vn -1 0 0
vn 1 0 0
vn 0.9994645906263837 0.03271898659853486 0
vn 0 -0.930234109134048 0.3669666227377961
vn 0 0.930234109134048 -0.3669666227377961
vn 0 -0.03435305120793306 0.999409759744573
vn 0 0.03435305120793306 -0.999409759744573
vn -0.5000001748438417 -0.8660253028382762 0
vn 0.5000001748438417 0.8660253028382762 0
vn 0.38268289803626016 -0.9238797538373538 0
vn -0.38268289803626016 0.9238797538373538 0
vn 0.9994645906263837 -0.03271898659853486 0
vn -0.9994645906263837 0.03271898659853486 0
vn -0.9914448886106773 -0.1305259853353411 0
vn 0.9914448886106773 0.1305259853353411 0
vn -0.6087613233345314 -0.7933534213778813 0
vn 0.6087613233345314 0.7933534213778813 0
vn 0 -0.8762685733542296 0.48182298341999336
vn 0 0.8762685733542296 -0.48182298341999336
vn 0 -0.1369327741856848 0.9905803427051298
vn 0 0.1369327741856848 -0.9905803427051298
vn -0.965925849201117 -0.2588189595935754 0
vn 0.965925849201117 0.2588189595935754 0
vn -0.7071067811865476 -0.7071067811865476 0
vn 0.7071067811865476 0.7071067811865476 0
vn 0.5000001748438417 -0.8660253028382762 0
vn -0.5000001748438417 0.8660253028382762 0
vn 0.9914448886106773 -0.1305259853353411 0
vn -0.9914448886106773 0.1305259853353411 0
vn -0.9238797538373538 -0.38268289803626016 0
vn 0.9238797538373538 0.38268289803626016 0
vn -0.7933534213778813 -0.6087613233345314 0
vn 0.7933534213778813 0.6087613233345314 0
vn 0 -0.8073841316802648 0.5900261552769546
vn 0 0.8073841316802648 -0.5900261552769546
vn 0.9978589320009053 -0.06540299554311302 0
vn -0.9978589320009053 0.06540299554311302 0
vn 0 -0.27083170669469825 0.9626267119963152
vn 0 0.27083170669469825 -0.9626267119963152
vn -0.8660253028382762 -0.5000001748438417 0
vn 0.8660253028382762 0.5000001748438417 0
vn 0 -0.7241379310344827 0.6896551724137929
vn 0 0.7241379310344827 -0.6896551724137929
vn 0.6087613233345314 -0.7933534213778813 0
vn -0.6087613233345314 0.7933534213778813 0
vn 0.965925849201117 -0.2588189595935754 0
vn -0.965925849201117 0.2588189595935754 0
vn 0 -0.39883479091500074 0.9170227966390954
vn 0 0.39883479091500074 -0.9170227966390954
vn 0 -0.6273944981533085 0.7787015755004981
vn 0 0.6273944981533085 -0.7787015755004981
vn 0 -0.5184001902907848 0.8551381424696702
vn 0 0.5184001902907848 -0.8551381424696702
vn 0.7071067811865476 -0.7071067811865476 0
vn -0.7071067811865476 0.7071067811865476 0
vn 0.9238797538373538 -0.38268289803626016 0
vn -0.9238797538373538 0.38268289803626016 0
vn 0.7933534213778813 -0.6087613233345314 0
vn -0.7933534213778813 0.6087613233345314 0
vn 0.8660253028382762 -0.5000001748438417 0
vn -0.8660253028382762 0.5000001748438417 0
usemtl material_0_0
f 1/1/1 2/2/2 3/3/1
f 2/2/2 1/1/1 4/4/2
f 3/3/3 2/2/4 1/1/3
f 4/4/4 1/1/3 2/2/4
f 3/5/5 5/6/5 2/7/5
f 2/7/6 5/6/6 3/5/6
f 3/8/7 6/9/7 1/10/7
f 1/10/8 6/9/8 3/8/8
f 1/11/9 7/12/10 4/13/10
f 4/13/11 7/12/11 1/11/12
f 4/14/2 8/15/13 2/16/2
f 2/16/4 8/15/14 4/14/4
f 3/5/5 9/17/5 5/6/5
f 5/6/6 9/17/6 3/5/6
f 2/7/5 5/6/5 8/18/5
f 8/18/6 5/6/6 2/7/6
f 6/9/7 3/8/7 10/19/7
f 10/19/8 3/8/8 6/9/8
f 7/12/10 1/11/9 6/20/9
f 6/20/12 1/11/12 7/12/11
f 11/21/15 4/22/10 7/23/10
f 7/23/11 4/22/11 11/21/16
f 8/15/13 4/14/2 12/24/13
f 12/24/14 4/14/4 8/15/14
f 10/25/5 9/17/5 3/5/5
f 3/5/6 9/17/6 10/25/6
f 13/26/8 9/27/8 5/28/8
f 5/28/7 9/27/7 13/26/7
f 8/18/5 5/6/5 14/29/5
f 14/29/6 5/6/6 8/18/6
f 10/30/17 7/31/18 6/32/17
f 6/32/19 7/31/20 10/30/19
f 4/22/10 11/21/15 12/33/15
f 12/33/16 11/21/16 4/22/11
f 15/34/18 11/35/21 7/36/18
f 7/36/20 11/35/22 15/34/20
f 12/37/13 14/38/23 8/39/13
f 8/39/14 14/38/24 12/37/14
f 10/25/5 16/40/5 9/17/5
f 9/17/6 16/40/6 10/25/6
f 17/41/8 9/27/8 13/26/8
f 13/26/7 9/27/7 17/41/7
f 18/42/25 13/41/26 5/43/26
f 5/43/27 13/41/27 18/42/28
f 14/29/5 5/6/5 19/44/5
f 19/44/6 5/6/6 14/29/6
f 7/31/18 10/30/17 15/45/18
f 15/45/20 10/30/19 7/31/20
f 20/46/29 12/47/15 11/48/15
f 11/48/16 12/47/16 20/46/30
f 11/35/21 15/34/18 21/49/21
f 21/49/22 15/34/20 11/35/22
f 14/38/23 12/37/13 22/50/23
f 22/50/24 12/37/14 14/38/24
f 15/51/5 16/40/5 10/25/5
f 10/25/6 16/40/6 15/51/6
f 17/41/8 16/52/8 9/27/8
f 9/27/7 16/52/7 17/41/7
f 9/27/8 16/52/8 23/53/8
f 23/53/7 16/52/7 9/27/7
f 13/6/5 24/54/31 17/55/5
f 17/55/6 24/54/32 13/6/6
f 13/41/26 18/42/25 25/56/25
f 25/56/28 18/42/28 13/41/27
f 26/57/5 5/6/5 18/58/5
f 18/58/6 5/6/6 26/57/6
f 19/44/5 5/6/5 27/59/5
f 27/59/6 5/6/6 19/44/6
f 22/60/23 19/61/33 14/62/23
f 14/62/24 19/61/34 22/60/24
f 28/63/17 15/45/18 10/30/17
f 10/30/19 15/45/20 28/63/19
f 12/47/15 20/46/29 22/64/29
f 22/64/30 20/46/30 12/47/16
f 21/65/21 20/66/35 11/67/21
f 11/67/22 20/66/36 21/65/22
f 29/68/18 21/49/21 15/34/18
f 15/34/20 21/49/22 29/68/20
f 21/69/5 16/40/5 15/51/5
f 15/51/6 16/40/6 21/69/6
f 16/52/8 17/41/8 30/43/8
f 30/43/7 17/41/7 16/52/7
f 30/43/8 23/53/8 16/52/8
f 16/52/7 23/53/7 30/43/7
f 24/54/31 13/6/5 25/58/31
f 25/58/32 13/6/6 24/54/32
f 24/70/37 30/71/27 17/72/27
f 17/72/26 30/71/26 24/70/38
f 26/73/39 25/74/25 18/75/25
f 18/75/28 25/74/28 26/73/40
f 31/76/5 5/6/5 26/57/5
f 26/57/6 5/6/6 31/76/6
f 27/59/5 5/6/5 32/77/5
f 32/77/6 5/6/6 27/59/6
f 33/78/33 27/79/41 19/80/33
f 19/80/34 27/79/42 33/78/34
f 19/61/33 22/60/23 33/81/33
f 33/81/34 22/60/24 19/61/34
f 15/45/18 28/63/17 29/82/18
f 29/82/20 28/63/19 15/45/20
f 34/83/43 22/84/29 20/85/29
f 20/85/30 22/84/30 34/83/44
f 20/66/35 21/65/21 35/86/35
f 35/86/36 21/65/22 20/66/36
f 21/49/21 29/68/18 36/87/21
f 36/87/22 29/68/20 21/49/22
f 35/88/5 16/40/5 21/69/5
f 21/69/6 16/40/6 35/88/6
f 16/40/5 37/54/5 30/55/5
f 30/55/6 37/54/6 16/40/6
f 23/53/8 30/43/8 38/55/8
f 38/55/7 30/43/7 23/53/7
f 25/89/31 39/90/45 24/91/31
f 24/91/32 39/90/46 25/89/32
f 30/71/27 24/70/37 37/92/37
f 37/92/38 24/70/38 30/71/26
f 25/74/25 26/73/39 40/93/39
f 40/93/40 26/73/40 25/74/28
f 41/94/5 5/6/5 31/76/5
f 31/76/6 5/6/6 41/94/6
f 31/95/47 40/96/39 26/97/39
f 26/97/40 40/96/40 31/95/48
f 32/77/5 5/6/5 42/98/5
f 42/98/6 5/6/6 32/77/6
f 43/99/41 32/100/49 27/101/41
f 27/101/42 32/100/50 43/99/42
f 27/79/41 33/78/33 43/102/41
f 43/102/42 33/78/34 27/79/42
f 22/84/29 34/83/43 33/103/43
f 33/103/44 34/83/44 22/84/30
f 35/104/35 34/105/51 20/106/35
f 20/106/36 34/105/52 35/104/36
f 36/107/21 35/86/35 21/65/21
f 21/65/22 35/86/36 36/107/22
f 44/108/5 16/40/5 35/88/5
f 35/88/6 16/40/6 44/108/6
f 37/54/5 16/40/5 45/109/5
f 45/109/6 16/40/6 37/54/6
f 37/92/27 38/55/27 30/71/27
f 30/71/26 38/55/26 37/92/26
f 39/90/45 25/89/31 40/110/45
f 40/110/46 25/89/32 39/90/46
f 39/111/53 37/112/37 24/113/37
f 24/113/38 37/112/38 39/111/54
f 46/114/5 5/6/5 41/94/5
f 41/94/6 5/6/6 46/114/6
f 41/115/55 47/116/47 31/117/47
f 31/117/48 47/116/48 41/115/56
f 40/96/39 31/95/47 47/118/47
f 47/118/48 31/95/48 40/96/40
f 42/98/5 5/6/5 46/114/5
f 46/114/6 5/6/6 42/98/6
f 32/119/49 48/120/57 42/121/57
f 42/121/58 48/120/58 32/119/50
f 32/100/49 43/99/41 49/122/49
f 49/122/50 43/99/42 32/100/50
f 33/123/43 50/124/59 43/125/59
f 43/125/60 50/124/60 33/123/44
f 50/124/59 33/123/43 34/126/43
f 34/126/44 33/123/44 50/124/60
f 34/105/51 35/104/35 44/127/51
f 44/127/52 35/104/36 34/105/52
f 35/86/35 36/107/21 51/128/35
f 51/128/36 36/107/22 35/86/36
f 52/129/5 16/40/5 44/108/5
f 44/108/6 16/40/6 52/129/6
f 51/130/35 44/127/51 35/104/35
f 35/104/36 44/127/52 51/130/36
f 45/109/5 16/40/5 53/131/5
f 53/131/6 16/40/6 45/109/6
f 37/112/37 39/111/53 45/132/53
f 45/132/54 39/111/54 37/112/38
f 45/132/53 54/133/61 37/112/61
f 37/112/62 54/133/62 45/132/54
f 38/55/27 37/92/27 54/54/27
f 54/54/26 37/92/26 38/55/26
f 40/134/45 55/135/63 39/136/45
f 39/136/46 55/135/64 40/134/46
f 46/137/65 56/138/55 41/139/55
f 41/139/56 56/138/56 46/137/66
f 47/116/47 41/115/55 56/140/55
f 56/140/56 41/115/56 47/116/48
f 55/135/63 40/134/45 47/141/63
f 47/141/64 40/134/46 55/135/64
f 42/142/57 57/143/65 46/144/65
f 46/144/66 57/143/66 42/142/58
f 48/120/57 32/119/49 49/145/49
f 49/145/50 32/119/50 48/120/58
f 57/143/65 42/142/57 48/146/57
f 48/146/58 42/142/58 57/143/66
f 43/147/59 58/148/67 49/149/67
f 49/149/68 58/148/68 43/147/60
f 58/148/67 43/147/59 50/150/59
f 50/150/60 43/147/60 58/148/68
f 44/151/51 50/152/69 34/153/51
f 34/153/52 50/152/70 44/151/52
f 59/154/5 16/40/5 52/129/5
f 52/129/6 16/40/6 59/154/6
f 60/155/51 52/156/69 44/151/51
f 44/151/52 52/156/70 60/155/52
f 50/152/69 44/151/51 52/156/69
f 52/156/70 44/151/52 50/152/70
f 44/127/51 51/130/35 60/157/51
f 60/157/52 51/130/36 44/127/52
f 53/131/5 16/40/5 61/158/5
f 61/158/6 16/40/6 53/131/6
f 45/159/53 55/160/71 53/161/71
f 53/161/72 55/160/72 45/159/54
f 53/161/71 62/162/53 45/159/53
f 45/159/54 62/162/54 53/161/72
f 55/160/71 45/159/53 39/163/53
f 39/163/54 45/159/54 55/160/72
f 54/133/61 45/132/53 62/164/53
f 62/164/54 45/132/54 54/133/62
f 56/138/55 46/137/65 57/165/65
f 57/165/66 46/137/66 56/138/56
f 63/166/73 47/167/63 56/168/73
f 56/168/74 47/167/64 63/166/74
f 47/167/63 63/166/73 55/169/63
f 55/169/64 63/166/74 47/167/64
f 58/170/67 48/171/75 49/172/67
f 49/172/68 48/171/76 58/170/68
f 64/173/75 57/174/77 48/175/75
f 48/175/76 57/174/78 64/173/76
f 52/176/69 58/177/79 50/178/69
f 50/178/70 58/177/80 52/176/70
f 65/179/5 16/40/5 59/154/5
f 59/154/6 16/40/6 65/179/6
f 66/180/69 59/181/79 52/176/69
f 52/176/70 59/181/80 66/180/70
f 58/177/79 52/176/69 59/181/79
f 59/181/80 52/176/70 58/177/80
f 52/156/69 60/155/51 66/182/69
f 66/182/70 60/155/52 52/156/70
f 61/158/5 16/40/5 67/183/5
f 67/183/6 16/40/6 61/158/6
f 53/184/71 63/185/81 61/186/81
f 61/186/82 63/185/82 53/184/72
f 61/186/81 68/187/71 53/184/71
f 53/184/72 68/187/72 61/186/82
f 63/185/81 53/184/71 55/188/71
f 55/188/72 53/184/72 63/185/82
f 62/162/53 53/161/71 68/189/71
f 68/189/72 53/161/72 62/162/54
f 69/190/77 56/191/73 57/192/77
f 57/192/78 56/191/74 69/190/78
f 56/191/73 69/190/77 63/193/73
f 63/193/74 69/190/78 56/191/74
f 48/171/75 58/170/67 64/194/75
f 64/194/76 58/170/68 48/171/76
f 57/174/77 64/173/75 69/195/77
f 69/195/78 64/173/76 57/174/78
f 67/183/5 16/40/5 65/179/5
f 65/179/6 16/40/6 67/183/6
f 59/196/79 70/197/83 65/198/83
f 65/198/84 70/197/84 59/196/80
f 65/198/83 58/199/79 59/196/79
f 59/196/80 58/199/80 65/198/84
f 59/181/79 66/180/69 71/200/79
f 71/200/80 66/180/70 59/181/80
f 61/201/81 69/202/85 67/203/85
f 67/203/86 69/202/86 61/201/82
f 67/203/85 72/204/81 61/201/81
f 61/201/82 72/204/82 67/203/86
f 69/202/85 61/201/81 63/205/81
f 63/205/82 61/201/82 69/202/86
f 68/187/71 61/186/81 72/206/81
f 72/206/82 61/186/82 68/187/72
f 58/199/79 65/198/83 64/207/83
f 64/207/84 65/198/84 58/199/80
f 64/208/83 67/209/85 69/210/85
f 69/210/86 67/209/86 64/208/84
f 67/209/85 64/208/83 65/211/83
f 65/211/84 64/208/84 67/209/86
f 65/211/83 73/212/85 67/209/85
f 67/209/86 73/212/86 65/211/84
f 70/197/83 59/196/79 71/213/79
f 71/213/80 59/196/80 70/197/84
f 73/212/85 65/211/83 70/214/83
f 70/214/84 65/211/84 73/212/86
f 72/204/81 67/203/85 73/215/85
f 73/215/86 67/203/86 72/204/82
