# SSTK version 0.8.0
# 27
mtllib original-27.mtl
o SidePanel_Nightstand_3_4x14_1_4x20_1_4_1/SidePanel_Nightstand_3_4x14_1_4x20_1_4_/mesh28/mesh28-geometry#mesh28-geometry
v -0.411121 -0.557333 -0.352976
v -0.376582 -0.557333 0.314780
v -0.411121 -0.557333 0.314780
v -0.376582 -0.557333 -0.352976
v -0.411121 0.375222 0.314780
v -0.376582 0.375222 -0.352976
v -0.376582 0.375222 0.314780
v -0.411121 0.375222 -0.352976
vt -3.771019 1.113739
vt -2.321019 1.038739
vt -2.321019 1.113739
vt -3.771019 1.038739
vt 3.771019 1.038739
vt 2.321019 1.113739
vt 2.321019 1.038739
vt 3.771019 1.113739
vt -1.038739 0
vt -1.113739 2.025
vt -1.113739 0
vt -2.321019 2.025
vt -3.771019 0
vt -2.321019 0
vt 1.113739 0
vt 1.038739 2.025
vt 1.038739 0
vt 3.771019 2.025
vt 2.321019 0
vt 3.771019 0
vt -1.038739 2.025
vt -3.771019 2.025
vt 1.113739 2.025
vt 2.321019 2.025
vn 0 -1 0
vn 0 1 0
vn 0 0 -1
vn 1 0 0
vn 0 0 1
vn -1 0 0
usemtl material_0_0
f 1/1/1 2/2/1 3/3/1
f 2/2/1 1/1/1 4/4/1
f 6/5/2 5/6/2 7/7/2
f 5/6/2 6/5/2 8/8/2
usemtl material_1_0
f 3//2 2//2 1//2
f 4//2 1//2 2//2
f 3//3 5//3 2//3
f 3//4 1//4 5//4
f 4//5 6//5 1//5
f 4//6 2//6 6//6
f 7//3 2//3 5//3
f 8//4 5//4 1//4
f 8//5 1//5 6//5
f 7//6 6//6 2//6
f 7//1 5//1 6//1
f 8//1 6//1 5//1
usemtl material_2_0
f 2/9/5 5/10/5 3/11/5
f 5/12/6 1/13/6 3/14/6
f 1/15/3 6/16/3 4/17/3
f 6/18/4 2/19/4 4/20/4
f 5/10/5 2/9/5 7/21/5
f 1/13/6 5/12/6 8/22/6
f 6/16/3 1/15/3 8/23/3
f 2/19/4 6/18/4 7/24/4
