# SSTK version 0.8.0
# 56
mtllib original-56.mtl
o mesh137/mesh137-geometry#mesh137-geometry
v 0.074023 -0.137014 0.712864
v -0.062734 -0.157233 0.712864
v 0.074023 -0.157233 0.712864
v -0.062734 -0.137014 0.712864
v -0.062734 -0.147123 0.712864
v 0.005645 -0.147123 0.712864
v 0.074023 -0.147123 0.712864
vn 0 0 1
vn 0 0 -1
usemtl material_0_0
f 1//1 2//1 3//1
f 2//1 1//1 4//1
f 3//2 2//2 1//2
f 4//2 1//2 2//2
f 5//1 1//1 4//1
f 4//2 1//2 5//2
f 6//1 1//1 5//1
f 5//2 1//2 6//2
f 1//1 6//1 7//1
f 7//2 6//2 1//2
